<svg xmlns="http://www.w3.org/2000/svg" width="332" height="100" viewBox="0 0 332 100" fill="none"><path d="M147.531 35.114L148.59 37.922H146.463L147.533 35.114H147.531ZM171.291 49.86C170.124 51.94 167.726 52.994 164.386 52.994C163.599 52.994 162.739 52.914 161.85 52.796C162.23 51.55 162.557 50.246 162.833 48.894C165.567 49.192 167.324 48.756 167.803 47.902C168.795 46.132 166.097 41.306 159.959 36.178C159.963 36.456 159.993 36.72 159.993 37C159.993 48.926 156.56 61 150.001 61C147.467 61 145.262 59.13 143.543 55.704C144.791 55.344 146.068 54.912 147.369 54.41C148.382 56.232 149.377 57 150.001 57C151.717 57 154.058 52.862 155.243 46.076C155.225 46.088 155.207 46.1 155.189 46.112C148 50.482 140.7 52.994 135.553 52.994C132.993 53.242 129.366 51.624 128.713 49.862C127.312 47.364 128.097 43.94 130.807 40.116C131.714 41.068 132.69 42.004 133.723 42.918C132.18 45.236 131.712 47.04 132.198 47.904C132.418 48.298 132.897 48.594 133.619 48.782C135.839 49.362 140.156 48.75 145.544 46.532C145.302 46.388 145.056 46.256 144.815 46.11C134.282 39.708 125.369 30.106 128.715 24.14C130.157 21.566 133.497 20.586 138.15 21.206C137.77 22.45 137.442 23.75 137.166 25.1C134.432 24.798 132.682 25.238 132.2 26.098C131.207 27.868 133.907 32.694 140.044 37.824C140.04 37.548 140.01 37.28 140.01 37.002C140.01 25.074 143.442 13 150.003 13C152.555 13 154.761 14.874 156.48 18.318C155.229 18.676 153.95 19.098 152.641 19.598C151.633 17.782 150.64 17 150.003 17C148.286 17 145.946 21.14 144.761 27.926C144.779 27.914 144.797 27.902 144.815 27.89C153.522 22.598 162.393 20.032 167.398 21.348C169.654 21.94 170.759 23.192 171.289 24.14C172.69 26.64 171.9 30.06 169.192 33.884C168.287 32.934 167.31 32.002 166.277 31.088C167.823 28.768 168.289 26.966 167.801 26.098C167.582 25.704 167.102 25.408 166.381 25.22C164.164 24.636 159.839 25.25 154.439 27.476C154.687 27.622 154.937 27.742 155.183 27.892C165.717 34.296 174.628 43.898 171.287 49.864L171.291 49.86ZM153.094 43L148.568 31H146.503L141.937 42.996H144.541L145.54 40.348H149.503L150.502 43H153.094ZM156.997 31H154.525V43H156.997V31Z" fill="#4D8279"></path><path d="M19.0341 54V19.0909H42.1477V25.1761H26.4148V33.4943H40.6136V39.5795H26.4148V54H19.0341ZM54.1136 54.4943C52.4432 54.4943 50.9545 54.2045 49.6477 53.625C48.3409 53.0341 47.3068 52.1648 46.5455 51.017C45.7955 49.858 45.4205 48.4148 45.4205 46.6875C45.4205 45.233 45.6875 44.0114 46.2216 43.0227C46.7557 42.0341 47.483 41.2386 48.4034 40.6364C49.3239 40.0341 50.3693 39.5795 51.5398 39.2727C52.7216 38.9659 53.9602 38.75 55.2557 38.625C56.7784 38.4659 58.0057 38.3182 58.9375 38.1818C59.8693 38.0341 60.5455 37.8182 60.9659 37.5341C61.3864 37.25 61.5966 36.8295 61.5966 36.2727V36.1705C61.5966 35.0909 61.2557 34.2557 60.5739 33.6648C59.9034 33.0739 58.9489 32.7784 57.7102 32.7784C56.4034 32.7784 55.3636 33.0682 54.5909 33.6477C53.8182 34.2159 53.3068 34.9318 53.0568 35.7955L46.3409 35.25C46.6818 33.6591 47.3523 32.2841 48.3523 31.125C49.3523 29.9545 50.642 29.0568 52.2216 28.4318C53.8125 27.7955 55.6534 27.4773 57.7443 27.4773C59.1989 27.4773 60.5909 27.6477 61.9205 27.9886C63.2614 28.3295 64.4489 28.858 65.483 29.5739C66.5284 30.2898 67.3523 31.2102 67.9545 32.3352C68.5568 33.4489 68.858 34.7841 68.858 36.3409V54H61.9716V50.3693H61.767C61.3466 51.1875 60.7841 51.9091 60.0795 52.5341C59.375 53.1477 58.5284 53.6307 57.5398 53.983C56.5511 54.3239 55.4091 54.4943 54.1136 54.4943ZM56.1932 49.483C57.2614 49.483 58.2045 49.2727 59.0227 48.8523C59.8409 48.4205 60.483 47.8409 60.9489 47.1136C61.4148 46.3864 61.6477 45.5625 61.6477 44.642V41.8636C61.4205 42.0114 61.108 42.1477 60.7102 42.2727C60.3239 42.3864 59.8864 42.4943 59.3977 42.5966C58.9091 42.6875 58.4205 42.7727 57.9318 42.8523C57.4432 42.9205 57 42.983 56.6023 43.0398C55.75 43.1648 55.0057 43.3636 54.3693 43.6364C53.733 43.9091 53.2386 44.2784 52.8864 44.7443C52.5341 45.1989 52.358 45.767 52.358 46.4489C52.358 47.4375 52.7159 48.1932 53.4318 48.7159C54.1591 49.2273 55.0795 49.483 56.1932 49.483ZM96.2756 35.2841L89.6278 35.6932C89.5142 35.125 89.2699 34.6136 88.8949 34.1591C88.5199 33.6932 88.0256 33.3239 87.4119 33.0511C86.8097 32.767 86.0881 32.625 85.2472 32.625C84.1222 32.625 83.1733 32.8636 82.4006 33.3409C81.6278 33.8068 81.2415 34.4318 81.2415 35.2159C81.2415 35.8409 81.4915 36.3693 81.9915 36.8011C82.4915 37.233 83.3494 37.5795 84.5653 37.8409L89.304 38.7955C91.8494 39.3182 93.7472 40.1591 94.9972 41.3182C96.2472 42.4773 96.8722 44 96.8722 45.8864C96.8722 47.6023 96.3665 49.108 95.3551 50.4034C94.3551 51.6989 92.9801 52.7102 91.2301 53.4375C89.4915 54.1534 87.4858 54.5114 85.2131 54.5114C81.7472 54.5114 78.9858 53.7898 76.929 52.3466C74.8835 50.892 73.6847 48.9148 73.3324 46.4148L80.4744 46.0398C80.6903 47.0966 81.2131 47.9034 82.0426 48.4602C82.8722 49.0057 83.9347 49.2784 85.2301 49.2784C86.5028 49.2784 87.5256 49.0341 88.2983 48.5455C89.0824 48.0455 89.4801 47.4034 89.4915 46.6193C89.4801 45.9602 89.2017 45.4205 88.6562 45C88.1108 44.5682 87.2699 44.2386 86.1335 44.0114L81.5994 43.108C79.0426 42.5966 77.1392 41.7102 75.8892 40.4489C74.6506 39.1875 74.0312 37.5795 74.0312 35.625C74.0312 33.9432 74.4858 32.4943 75.3949 31.2784C76.3153 30.0625 77.6051 29.125 79.2642 28.4659C80.9347 27.8068 82.8892 27.4773 85.1278 27.4773C88.4347 27.4773 91.0369 28.1761 92.9347 29.5739C94.8438 30.9716 95.9574 32.875 96.2756 35.2841ZM115.371 27.8182V33.2727H99.6037V27.8182H115.371ZM103.183 21.5455H110.445V45.9545C110.445 46.625 110.547 47.1477 110.751 47.5227C110.956 47.8864 111.24 48.142 111.604 48.2898C111.979 48.4375 112.411 48.5114 112.899 48.5114C113.24 48.5114 113.581 48.483 113.922 48.4261C114.263 48.358 114.524 48.3068 114.706 48.2727L115.848 53.6761C115.484 53.7898 114.973 53.9205 114.314 54.0682C113.655 54.2273 112.854 54.3239 111.911 54.358C110.161 54.4261 108.626 54.1932 107.308 53.6591C106.001 53.125 104.984 52.2955 104.257 51.1705C103.53 50.0455 103.172 48.625 103.183 46.9091V21.5455Z" fill="black"></path><path d="M185.034 54V19.0909H208.148V25.1761H192.415V33.4943H206.614V39.5795H192.415V54H185.034ZM222.884 54.5114C220.236 54.5114 217.946 53.9489 216.014 52.8239C214.094 51.6875 212.611 50.108 211.565 48.0852C210.52 46.0511 209.997 43.6932 209.997 41.0114C209.997 38.3068 210.52 35.9432 211.565 33.9205C212.611 31.8864 214.094 30.3068 216.014 29.1818C217.946 28.0455 220.236 27.4773 222.884 27.4773C225.531 27.4773 227.815 28.0455 229.736 29.1818C231.668 30.3068 233.156 31.8864 234.202 33.9205C235.247 35.9432 235.77 38.3068 235.77 41.0114C235.77 43.6932 235.247 46.0511 234.202 48.0852C233.156 50.108 231.668 51.6875 229.736 52.8239C227.815 53.9489 225.531 54.5114 222.884 54.5114ZM222.918 48.8864C224.122 48.8864 225.128 48.5455 225.935 47.8636C226.741 47.1705 227.349 46.2273 227.759 45.0341C228.179 43.8409 228.389 42.483 228.389 40.9602C228.389 39.4375 228.179 38.0795 227.759 36.8864C227.349 35.6932 226.741 34.75 225.935 34.0568C225.128 33.3636 224.122 33.017 222.918 33.017C221.702 33.017 220.679 33.3636 219.849 34.0568C219.031 34.75 218.412 35.6932 217.991 36.8864C217.582 38.0795 217.378 39.4375 217.378 40.9602C217.378 42.483 217.582 43.8409 217.991 45.0341C218.412 46.2273 219.031 47.1705 219.849 47.8636C220.679 48.5455 221.702 48.8864 222.918 48.8864ZM240.491 54V27.8182H247.531V32.3864H247.804C248.281 30.7614 249.082 29.5341 250.207 28.7045C251.332 27.8636 252.628 27.4432 254.094 27.4432C254.457 27.4432 254.849 27.4659 255.27 27.5114C255.69 27.5568 256.06 27.6193 256.378 27.6989V34.142C256.037 34.0398 255.565 33.9489 254.963 33.8693C254.361 33.7898 253.81 33.75 253.31 33.75C252.241 33.75 251.287 33.983 250.446 34.4489C249.616 34.9034 248.957 35.5398 248.469 36.358C247.991 37.1761 247.753 38.1193 247.753 39.1875V54H240.491ZM270.709 64.3636C268.357 64.3636 266.339 64.0398 264.658 63.392C262.987 62.7557 261.658 61.8864 260.669 60.7841C259.68 59.6818 259.038 58.4432 258.743 57.0682L265.459 56.1648C265.663 56.6875 265.987 57.1761 266.43 57.6307C266.874 58.0852 267.459 58.4489 268.186 58.7216C268.925 59.0057 269.822 59.1477 270.879 59.1477C272.459 59.1477 273.76 58.7614 274.783 57.9886C275.817 57.2273 276.334 55.9489 276.334 54.1534V49.3636H276.027C275.709 50.0909 275.232 50.7784 274.595 51.4261C273.959 52.0739 273.141 52.6023 272.141 53.0114C271.141 53.4205 269.947 53.625 268.561 53.625C266.595 53.625 264.805 53.1705 263.192 52.2614C261.589 51.3409 260.311 49.9375 259.357 48.0511C258.413 46.1534 257.942 43.7557 257.942 40.858C257.942 37.892 258.425 35.4148 259.391 33.4261C260.357 31.4375 261.641 29.9489 263.243 28.9602C264.857 27.9716 266.624 27.4773 268.544 27.4773C270.01 27.4773 271.237 27.7273 272.226 28.2273C273.214 28.7159 274.01 29.3295 274.612 30.0682C275.226 30.7955 275.697 31.5114 276.027 32.2159H276.3V27.8182H283.51V54.2557C283.51 56.483 282.964 58.3466 281.874 59.8466C280.783 61.3466 279.271 62.4716 277.339 63.2216C275.419 63.983 273.209 64.3636 270.709 64.3636ZM270.862 48.1705C272.033 48.1705 273.021 47.8807 273.828 47.3011C274.646 46.7102 275.271 45.8693 275.703 44.7784C276.146 43.6761 276.368 42.358 276.368 40.8239C276.368 39.2898 276.152 37.9602 275.72 36.8352C275.288 35.6989 274.663 34.8182 273.845 34.1932C273.027 33.5682 272.033 33.2557 270.862 33.2557C269.669 33.2557 268.663 33.5795 267.845 34.2273C267.027 34.8636 266.408 35.75 265.987 36.8864C265.567 38.0227 265.357 39.3352 265.357 40.8239C265.357 42.3352 265.567 43.642 265.987 44.7443C266.419 45.8352 267.038 46.6818 267.845 47.2841C268.663 47.875 269.669 48.1705 270.862 48.1705ZM301.22 54.5114C298.527 54.5114 296.209 53.9659 294.266 52.875C292.334 51.7727 290.845 50.2159 289.8 48.2045C288.754 46.1818 288.232 43.7898 288.232 41.0284C288.232 38.3352 288.754 35.9716 289.8 33.9375C290.845 31.9034 292.317 30.3182 294.214 29.1818C296.124 28.0455 298.362 27.4773 300.93 27.4773C302.658 27.4773 304.266 27.7557 305.754 28.3125C307.254 28.858 308.561 29.6818 309.675 30.7841C310.8 31.8864 311.675 33.2727 312.3 34.9432C312.925 36.6023 313.237 38.5455 313.237 40.7727V42.767H291.129V38.267H306.402C306.402 37.2216 306.175 36.2955 305.72 35.4886C305.266 34.6818 304.635 34.0511 303.828 33.5966C303.033 33.1307 302.107 32.8977 301.05 32.8977C299.947 32.8977 298.97 33.1534 298.118 33.6648C297.277 34.1648 296.618 34.8409 296.141 35.6932C295.663 36.5341 295.419 37.4716 295.408 38.5057V42.7841C295.408 44.0795 295.646 45.1989 296.124 46.142C296.612 47.0852 297.3 47.8125 298.186 48.3239C299.072 48.8352 300.124 49.0909 301.339 49.0909C302.146 49.0909 302.885 48.9773 303.555 48.75C304.226 48.5227 304.8 48.1818 305.277 47.7273C305.754 47.2727 306.118 46.7159 306.368 46.0568L313.084 46.5C312.743 48.1136 312.044 49.5227 310.987 50.7273C309.942 51.9205 308.589 52.8523 306.93 53.5227C305.283 54.1818 303.379 54.5114 301.22 54.5114Z" fill="black"></path><path d="M50.321 88V77.0909H56.8622V78.2628H51.642V81.9489H56.3722V83.1207H51.642V88H50.321ZM68.3293 82.5455C68.3293 83.696 68.1215 84.6903 67.7061 85.5284C67.2906 86.3665 66.7206 87.0128 65.9962 87.4673C65.2718 87.9219 64.4443 88.1491 63.5139 88.1491C62.5835 88.1491 61.7561 87.9219 61.0317 87.4673C60.3073 87.0128 59.7373 86.3665 59.3218 85.5284C58.9063 84.6903 58.6986 83.696 58.6986 82.5455C58.6986 81.3949 58.9063 80.4006 59.3218 79.5625C59.7373 78.7244 60.3073 78.0781 61.0317 77.6236C61.7561 77.169 62.5835 76.9418 63.5139 76.9418C64.4443 76.9418 65.2718 77.169 65.9962 77.6236C66.7206 78.0781 67.2906 78.7244 67.7061 79.5625C68.1215 80.4006 68.3293 81.3949 68.3293 82.5455ZM67.0509 82.5455C67.0509 81.6009 66.8928 80.8036 66.5768 80.1538C66.2643 79.5039 65.8399 79.0121 65.3037 78.6783C64.771 78.3445 64.1744 78.1776 63.5139 78.1776C62.8534 78.1776 62.2551 78.3445 61.7188 78.6783C61.1862 79.0121 60.7618 79.5039 60.4458 80.1538C60.1333 80.8036 59.977 81.6009 59.977 82.5455C59.977 83.4901 60.1333 84.2873 60.4458 84.9371C60.7618 85.587 61.1862 86.0788 61.7188 86.4126C62.2551 86.7464 62.8534 86.9134 63.5139 86.9134C64.1744 86.9134 64.771 86.7464 65.3037 86.4126C65.8399 86.0788 66.2643 85.587 66.5768 84.9371C66.8928 84.2873 67.0509 83.4901 67.0509 82.5455ZM70.5505 88V77.0909H74.2366C75.0889 77.0909 75.7884 77.2365 76.3353 77.5277C76.8822 77.8153 77.287 78.2113 77.5498 78.7156C77.8126 79.2198 77.944 79.7933 77.944 80.4361C77.944 81.0788 77.8126 81.6488 77.5498 82.146C77.287 82.6431 76.884 83.0337 76.3406 83.3178C75.7973 83.5984 75.1031 83.7386 74.2579 83.7386H71.2749V82.5455H74.2153C74.7977 82.5455 75.2664 82.4602 75.6215 82.2898C75.9802 82.1193 76.2394 81.8778 76.3992 81.5653C76.5626 81.2493 76.6443 80.8729 76.6443 80.4361C76.6443 79.9993 76.5626 79.6175 76.3992 79.2908C76.2359 78.9641 75.9749 78.712 75.6162 78.5344C75.2575 78.3533 74.7835 78.2628 74.194 78.2628H71.8715V88H70.5505ZM75.6855 83.0994L78.3701 88H76.836L74.194 83.0994H75.6855ZM87.6026 80.5C87.4854 80.1413 87.331 79.82 87.1392 79.5359C86.951 79.2482 86.7255 79.0032 86.4627 78.8008C86.2035 78.5984 85.9087 78.4439 85.5785 78.3374C85.2482 78.2308 84.886 78.1776 84.4918 78.1776C83.8455 78.1776 83.2578 78.3445 82.7287 78.6783C82.1996 79.0121 81.7788 79.5039 81.4663 80.1538C81.1538 80.8036 80.9975 81.6009 80.9975 82.5455C80.9975 83.4901 81.1555 84.2873 81.4716 84.9371C81.7876 85.587 82.2156 86.0788 82.7553 86.4126C83.2951 86.7464 83.9023 86.9134 84.5771 86.9134C85.2021 86.9134 85.7525 86.7802 86.2283 86.5138C86.7077 86.244 87.0806 85.864 87.3469 85.3739C87.6168 84.8803 87.7518 84.2997 87.7518 83.6321L88.1566 83.7173H84.8754V82.5455H89.0302V83.7173C89.0302 84.6158 88.8384 85.397 88.4549 86.0611C88.0749 86.7251 87.5494 87.2401 86.8782 87.6058C86.2106 87.968 85.4435 88.1491 84.5771 88.1491C83.6112 88.1491 82.7624 87.9219 82.0309 87.4673C81.3029 87.0128 80.7347 86.3665 80.3263 85.5284C79.9215 84.6903 79.7191 83.696 79.7191 82.5455C79.7191 81.6825 79.8345 80.9066 80.0653 80.2177C80.2997 79.5252 80.63 78.9357 81.0561 78.4492C81.4822 77.9627 81.9865 77.5898 82.5689 77.3306C83.1513 77.0714 83.7923 76.9418 84.4918 76.9418C85.0671 76.9418 85.6033 77.0288 86.1005 77.2028C86.6012 77.3732 87.0469 77.6165 87.4375 77.9325C87.8317 78.245 88.1602 78.6197 88.4229 79.0565C88.6857 79.4897 88.8668 79.9709 88.9663 80.5H87.6026ZM92.6137 77.0909V88H91.2927V77.0909H92.6137ZM103.913 77.0909V88H102.635L96.69 79.4347H96.5835V88H95.2624V77.0909H96.5408L102.507 85.6776H102.613V77.0909H103.913ZM114.014 80.5C113.897 80.1413 113.742 79.82 113.55 79.5359C113.362 79.2482 113.137 79.0032 112.874 78.8008C112.615 78.5984 112.32 78.4439 111.99 78.3374C111.659 78.2308 111.297 78.1776 110.903 78.1776C110.257 78.1776 109.669 78.3445 109.14 78.6783C108.611 79.0121 108.19 79.5039 107.877 80.1538C107.565 80.8036 107.409 81.6009 107.409 82.5455C107.409 83.4901 107.567 84.2873 107.883 84.9371C108.199 85.587 108.627 86.0788 109.166 86.4126C109.706 86.7464 110.313 86.9134 110.988 86.9134C111.613 86.9134 112.164 86.7802 112.639 86.5138C113.119 86.244 113.492 85.864 113.758 85.3739C114.028 84.8803 114.163 84.2997 114.163 83.6321L114.568 83.7173H111.286V82.5455H115.441V83.7173C115.441 84.6158 115.25 85.397 114.866 86.0611C114.486 86.7251 113.96 87.2401 113.289 87.6058C112.622 87.968 111.855 88.1491 110.988 88.1491C110.022 88.1491 109.174 87.9219 108.442 87.4673C107.714 87.0128 107.146 86.3665 106.737 85.5284C106.333 84.6903 106.13 83.696 106.13 82.5455C106.13 81.6825 106.246 80.9066 106.476 80.2177C106.711 79.5252 107.041 78.9357 107.467 78.4492C107.893 77.9627 108.398 77.5898 108.98 77.3306C109.562 77.0714 110.203 76.9418 110.903 76.9418C111.478 76.9418 112.014 77.0288 112.512 77.2028C113.012 77.3732 113.458 77.6165 113.849 77.9325C114.243 78.245 114.571 78.6197 114.834 79.0565C115.097 79.4897 115.278 79.9709 115.377 80.5H114.014ZM121.326 78.2628V77.0909H129.508V78.2628H126.077V88H124.756V78.2628H121.326ZM131.547 88V77.0909H132.868V81.9489H138.684V77.0909H140.005V88H138.684V83.1207H132.868V88H131.547ZM142.65 88V77.0909H149.234V78.2628H143.971V81.9489H148.893V83.1207H143.971V86.8281H149.319V88H142.65ZM155.834 88V77.0909H162.375V78.2628H157.155V81.9489H161.885V83.1207H157.155V88H155.834ZM171.797 77.0909H173.118V84.3139C173.118 85.0597 172.942 85.7255 172.59 86.3114C172.242 86.8938 171.75 87.3537 171.115 87.6911C170.479 88.0249 169.733 88.1918 168.877 88.1918C168.022 88.1918 167.276 88.0249 166.64 87.6911C166.005 87.3537 165.511 86.8938 165.159 86.3114C164.811 85.7255 164.637 85.0597 164.637 84.3139V77.0909H165.958V84.2074C165.958 84.7401 166.076 85.2141 166.31 85.6296C166.544 86.0415 166.878 86.3665 167.311 86.6044C167.748 86.8388 168.27 86.956 168.877 86.956C169.485 86.956 170.007 86.8388 170.444 86.6044C170.88 86.3665 171.214 86.0415 171.445 85.6296C171.679 85.2141 171.797 84.7401 171.797 84.2074V77.0909ZM175.159 78.2628V77.0909H183.341V78.2628H179.91V88H178.589V78.2628H175.159ZM192.539 77.0909H193.86V84.3139C193.86 85.0597 193.684 85.7255 193.332 86.3114C192.984 86.8938 192.493 87.3537 191.857 87.6911C191.221 88.0249 190.475 88.1918 189.62 88.1918C188.764 88.1918 188.018 88.0249 187.382 87.6911C186.747 87.3537 186.253 86.8938 185.902 86.3114C185.554 85.7255 185.38 85.0597 185.38 84.3139V77.0909H186.701V84.2074C186.701 84.7401 186.818 85.2141 187.052 85.6296C187.287 86.0415 187.62 86.3665 188.054 86.6044C188.49 86.8388 189.012 86.956 189.62 86.956C190.227 86.956 190.749 86.8388 191.186 86.6044C191.623 86.3665 191.956 86.0415 192.187 85.6296C192.422 85.2141 192.539 84.7401 192.539 84.2074V77.0909ZM196.498 88V77.0909H200.184C201.036 77.0909 201.736 77.2365 202.283 77.5277C202.829 77.8153 203.234 78.2113 203.497 78.7156C203.76 79.2198 203.891 79.7933 203.891 80.4361C203.891 81.0788 203.76 81.6488 203.497 82.146C203.234 82.6431 202.831 83.0337 202.288 83.3178C201.745 83.5984 201.05 83.7386 200.205 83.7386H197.222V82.5455H200.163C200.745 82.5455 201.214 82.4602 201.569 82.2898C201.927 82.1193 202.187 81.8778 202.347 81.5653C202.51 81.2493 202.592 80.8729 202.592 80.4361C202.592 79.9993 202.51 79.6175 202.347 79.2908C202.183 78.9641 201.922 78.712 201.563 78.5344C201.205 78.3533 200.731 78.2628 200.141 78.2628H197.819V88H196.498ZM201.633 83.0994L204.317 88H202.783L200.141 83.0994H201.633ZM206.093 88V77.0909H212.676V78.2628H207.414V81.9489H212.335V83.1207H207.414V86.8281H212.762V88H206.093ZM216.762 86.5085L216.677 87.0838C216.616 87.4886 216.524 87.9219 216.4 88.3835C216.279 88.8452 216.153 89.2802 216.021 89.6886C215.89 90.0969 215.782 90.4219 215.697 90.6634H214.738C214.784 90.4361 214.844 90.136 214.919 89.7631C214.993 89.3903 215.068 88.973 215.143 88.5114C215.221 88.0533 215.285 87.5845 215.334 87.1051L215.398 86.5085H216.762ZM223.48 88V77.0909H230.021V78.2628H224.801V81.9489H229.531V83.1207H224.801V88H223.48ZM231.369 88H229.984L233.99 77.0909H235.353L239.359 88H237.974L234.714 78.8168H234.629L231.369 88ZM231.88 83.7386H237.463V84.9105H231.88V83.7386ZM247.024 79.8182C246.96 79.2784 246.701 78.8594 246.247 78.5611C245.792 78.2628 245.234 78.1136 244.574 78.1136C244.091 78.1136 243.668 78.1918 243.306 78.348C242.948 78.5043 242.667 78.7191 242.465 78.9925C242.266 79.266 242.166 79.5767 242.166 79.9247C242.166 80.2159 242.236 80.4663 242.374 80.6758C242.516 80.8817 242.697 81.054 242.917 81.1925C243.138 81.3274 243.368 81.4393 243.61 81.5281C243.851 81.6133 244.073 81.6825 244.276 81.7358L245.384 82.0341C245.668 82.1087 245.984 82.2116 246.332 82.343C246.683 82.4744 247.019 82.6538 247.339 82.881C247.662 83.1048 247.928 83.3924 248.138 83.744C248.347 84.0955 248.452 84.527 248.452 85.0384C248.452 85.6278 248.297 86.1605 247.988 86.6364C247.683 87.1122 247.236 87.4904 246.646 87.771C246.06 88.0515 245.348 88.1918 244.51 88.1918C243.729 88.1918 243.052 88.0657 242.481 87.8136C241.912 87.5614 241.465 87.2099 241.138 86.7589C240.815 86.3079 240.632 85.7841 240.59 85.1875H241.953C241.989 85.5994 242.127 85.9403 242.369 86.2102C242.614 86.4766 242.923 86.6754 243.296 86.8068C243.672 86.9347 244.077 86.9986 244.51 86.9986C245.014 86.9986 245.467 86.9169 245.868 86.7536C246.27 86.5866 246.587 86.3558 246.822 86.0611C247.056 85.7628 247.173 85.4148 247.173 85.017C247.173 84.6548 247.072 84.3601 246.87 84.1328C246.667 83.9055 246.401 83.7209 246.071 83.5788C245.741 83.4368 245.384 83.3125 245 83.206L243.658 82.8224C242.805 82.5774 242.131 82.2276 241.634 81.7731C241.136 81.3185 240.888 80.7237 240.888 79.9886C240.888 79.3778 241.053 78.8452 241.383 78.3906C241.717 77.9325 242.165 77.5774 242.726 77.3253C243.29 77.0696 243.921 76.9418 244.617 76.9418C245.32 76.9418 245.945 77.0678 246.492 77.32C247.038 77.5685 247.472 77.9094 247.791 78.3427C248.114 78.7759 248.285 79.2678 248.303 79.8182H247.024ZM250.027 78.2628V77.0909H258.209V78.2628H254.779V88H253.458V78.2628H250.027ZM260.248 88V77.0909H266.832V78.2628H261.569V81.9489H266.491V83.1207H261.569V86.8281H266.917V88H260.248ZM269.213 88V77.0909H272.899C273.751 77.0909 274.451 77.2365 274.997 77.5277C275.544 77.8153 275.949 78.2113 276.212 78.7156C276.475 79.2198 276.606 79.7933 276.606 80.4361C276.606 81.0788 276.475 81.6488 276.212 82.146C275.949 82.6431 275.546 83.0337 275.003 83.3178C274.459 83.5984 273.765 83.7386 272.92 83.7386H269.937V82.5455H272.877C273.46 82.5455 273.929 82.4602 274.284 82.2898C274.642 82.1193 274.902 81.8778 275.061 81.5653C275.225 81.2493 275.306 80.8729 275.306 80.4361C275.306 79.9993 275.225 79.6175 275.061 79.2908C274.898 78.9641 274.637 78.712 274.278 78.5344C273.92 78.3533 273.446 78.2628 272.856 78.2628H270.534V88H269.213ZM274.348 83.0994L277.032 88H275.498L272.856 83.0994H274.348ZM279.553 88.0852C279.29 88.0852 279.065 87.9911 278.877 87.8029C278.688 87.6147 278.594 87.3892 278.594 87.1264C278.594 86.8636 278.688 86.6381 278.877 86.4499C279.065 86.2617 279.29 86.1676 279.553 86.1676C279.816 86.1676 280.041 86.2617 280.23 86.4499C280.418 86.6381 280.512 86.8636 280.512 87.1264C280.512 87.3004 280.468 87.4602 280.379 87.6058C280.294 87.7514 280.178 87.8686 280.032 87.9574C279.89 88.0426 279.731 88.0852 279.553 88.0852Z" fill="#353535"></path><line x1="16" y1="82.5" x2="40" y2="82.5" stroke="black"></line><line x1="292" y1="82.5" x2="316" y2="82.5" stroke="black"></line></svg>