<svg xmlns="http://www.w3.org/2000/svg" width="306" height="298" viewBox="0 0 306 298" fill="none"><path d="M109.576 142.272L109.199 152.465C109.088 155.456 111.693 157.769 115.015 157.633L121.052 157.385C121.628 162.23 122.784 166.883 124.463 171.289L119.364 174.105C116.435 175.723 115.328 179.073 116.892 181.588L122.218 190.151C123.779 192.661 131.317 194.153 134.238 192.532L135.158 189.08C138.386 192.794 142.083 196.144 146.172 199.068L143.382 203.317C141.638 205.973 142.494 209.223 145.294 210.576L154.822 215.179C157.613 216.527 166.673 216.737 168.409 214.085L165.69 208.736C170.637 210.29 175.863 211.348 181.299 211.857L181.132 216.373C181.022 219.336 183.58 221.607 186.842 221.447L197.944 220.899C201.194 220.739 203.916 218.214 204.026 215.26L204.192 210.757C209.647 209.728 214.919 208.173 219.937 206.154L222.283 209.968C223.804 212.443 233.147 213.717 235.997 212.109L239.897 206.063C242.738 204.46 243.812 201.159 242.299 198.688L239.874 194.73C244.092 191.461 247.948 187.812 251.367 183.85L255.871 186.071C258.593 187.413 266.653 188.099 268.347 185.486L269.636 174.87C271.327 172.261 270.499 169.058 267.786 167.712L263.052 165.363C264.996 160.881 266.451 156.201 267.358 151.381L273.171 151.143C276.363 151.012 279.036 148.532 279.144 145.604L279.513 135.624C279.622 132.695 277.124 130.422 273.933 130.544L267.778 130.781C267.078 126.146 265.843 121.697 264.126 117.483L269.759 114.356C272.58 112.789 273.647 109.51 272.144 107.029L273.216 97.111C271.711 94.6252 261.998 95.3282 259.169 96.8903L253.241 100.164C250.162 96.7366 246.675 93.6293 242.84 90.8941L246.491 85.3172C248.192 82.7188 247.359 79.4931 244.629 78.1116L240.568 72.7007C237.829 71.3149 228.961 72.9931 227.252 75.5966L223.499 81.3112C218.923 79.8662 214.104 78.8394 209.091 78.2859L209.333 71.7435C209.443 68.7886 206.9 66.4732 203.651 66.5714L192.558 66.9063C189.297 67.0046 186.564 69.4862 186.454 72.4496L186.212 79.0104C181.111 79.8872 176.158 81.2306 171.409 82.9833L173.613 76.0617C172.069 73.5406 162.878 74.1669 159.979 75.7412L150.082 81.1168C147.174 82.6959 146.074 86.0248 147.626 88.5491L150.954 93.9603C146.811 96.9975 142.99 100.394 139.557 104.095L139.808 100.627C136.999 99.2339 127.177 100.797 125.425 103.439L119.449 112.451C117.694 115.098 118.556 118.37 121.374 119.759L126.988 122.527C124.885 126.957 123.263 131.594 122.183 136.381L115.792 136.626C112.47 136.754 109.686 139.282 109.576 142.272ZM137.833 147.265C138.9 118.428 165.56 94.1506 197.205 93.0469C228.658 91.9499 253.161 114.187 252.106 142.708C251.052 171.23 224.829 195.489 193.364 196.901C161.707 198.321 136.767 176.102 137.833 147.265Z" fill="#AEB7C4"></path><path d="M117.005 142.185L116.628 152.378C116.518 155.369 119.123 157.682 122.444 157.546L128.481 157.298C129.058 162.143 130.214 166.796 131.892 171.202L126.793 174.018C123.864 175.635 122.757 178.986 124.321 181.501L129.648 190.064C131.209 192.574 134.843 193.292 137.763 191.671L142.588 188.993C145.816 192.707 149.512 196.057 153.601 198.981L150.811 203.23C149.067 205.886 149.924 209.136 152.723 210.489L162.251 215.092C165.042 216.44 168.711 215.383 170.446 212.731L173.119 208.649C178.067 210.203 183.292 211.261 188.728 211.77L188.561 216.286C188.451 219.249 191.009 221.52 194.272 221.36L205.373 220.812C208.624 220.652 211.346 218.127 211.455 215.173L211.622 210.67C217.076 209.641 222.348 208.086 227.367 206.067L229.712 209.881C231.234 212.357 234.778 213.057 237.628 211.45L247.326 205.976C250.167 204.373 251.242 201.072 249.728 198.601L247.303 194.643C251.521 191.374 255.377 187.725 258.796 183.763L263.301 185.984C266.022 187.326 269.601 186.294 271.295 183.681L277.065 174.783C278.756 172.175 277.928 168.971 275.215 167.625L270.481 165.276C272.425 160.794 273.88 156.114 274.787 151.294L280.6 151.056C283.792 150.925 286.465 148.446 286.573 145.517L286.942 135.537C287.051 132.609 284.553 130.335 281.362 130.457L275.207 130.694C274.507 126.059 273.272 121.61 271.555 117.396L277.188 114.269C280.009 112.702 281.076 109.423 279.573 106.942L274.446 98.4769C272.94 95.9911 269.427 95.2413 266.599 96.8035L260.67 100.078C257.591 96.6497 254.104 93.5426 250.269 90.8071L253.92 85.2303C255.621 82.6319 254.788 79.4062 252.058 78.0246L242.736 73.3068C239.997 71.921 236.39 72.9061 234.681 75.5098L230.928 81.2244C226.352 79.7794 221.533 78.7526 216.52 78.1989L216.762 71.6567C216.872 68.7018 214.328 66.3864 211.08 66.4844L199.986 66.8195C196.726 66.9179 193.993 69.3994 193.883 72.3626L193.641 78.9235C188.54 79.8004 183.587 81.1437 178.838 82.8965L175.452 77.3698C173.907 74.8486 170.307 74.08 167.408 75.6542L157.511 81.0299C154.603 82.609 153.503 85.9379 155.055 88.4623L158.383 93.8736C154.24 96.9108 150.418 100.308 146.986 104.008L141.113 101.094C138.304 99.7002 134.606 100.71 132.854 103.352L126.878 112.364C125.123 115.011 125.985 118.283 128.803 119.673L134.417 122.44C132.314 126.87 130.692 131.507 129.612 136.294L123.221 136.54C119.9 136.667 117.116 139.195 117.005 142.185ZM142.839 147.275C143.951 117.214 171.742 91.907 204.729 90.7563C237.517 89.6128 263.06 112.793 261.96 142.525C260.861 172.257 233.525 197.544 200.726 199.016C167.726 200.497 141.727 177.336 142.839 147.275Z" fill="#D8DEE8"></path><path d="M239.063 285.302L179.516 281.08V223.967L239.063 227.608V285.302Z" fill="url(#paint0_linear_2426_47451)"></path><path d="M303.136 280.353L239.062 285.301V227.607L303.136 224.37V280.353Z" fill="url(#paint1_linear_2426_47451)"></path><path d="M179.516 223.966L239.244 221.464L303.136 224.37L239.063 227.608L179.516 223.966Z" fill="url(#paint2_linear_2426_47451)"></path><path d="M260.171 182.388C262.59 181.738 265.823 185.828 268.511 189.228C272.532 194.315 277.23 200.259 275.964 207.396C274.719 214.418 268.182 219.886 266.319 219.104C264.725 218.435 267.789 213.713 265.442 207.396C263.548 202.299 260.41 202.297 258.306 197.3C255.694 191.099 257.195 183.189 260.171 182.388Z" fill="url(#paint3_linear_2426_47451)"></path><path d="M261.379 214.731C273.839 217.517 282.046 221.988 286.839 225.151C289.437 226.865 290.637 227.934 291.285 229.493C294.975 238.373 276.013 251.8 273.992 253.207C273.109 251.311 272.227 249.416 271.344 247.521C273.303 237.617 276.565 234.51 279.295 233.586C280.059 233.328 281.341 233.051 281.316 232.718C281.257 231.931 274.055 233.052 267.172 230.733C260.308 228.421 253.412 222.57 254.644 218.701C254.869 217.995 255.81 215.953 261.379 214.731Z" fill="url(#paint4_linear_2426_47451)"></path><path d="M273.453 279.641C273.453 279.641 272.293 280.021 272.289 280.866C272.285 281.71 273.464 285.431 274.745 286.753C276.026 288.075 276.14 286.103 276.061 284.832C275.982 283.562 275.646 280.718 275.329 280.168C275.013 279.618 273.453 279.641 273.453 279.641Z" fill="url(#paint5_linear_2426_47451)"></path><path opacity="0.3" d="M277.178 227.714C279.442 227.673 284.746 227.284 286.158 229.699C287.336 231.713 285.272 234.767 284.003 236.645C280.552 241.752 277.202 242.274 274.842 245.411C273.929 246.625 273.102 248.322 272.839 250.745C272.338 249.67 271.837 248.595 271.336 247.52C273.296 237.617 276.558 234.509 279.288 233.586C280.052 233.327 281.333 233.05 281.309 232.717C281.25 231.93 274.047 233.052 267.164 230.733C260.908 228.625 254.645 223.58 254.516 219.773C264.423 226.317 271.88 227.81 277.178 227.714Z" fill="url(#paint6_linear_2426_47451)"></path><path d="M272.789 276.052C272.857 277.353 272.977 278.442 273.086 279.25C273.325 281.038 273.545 281.745 273.846 282.389C274.109 282.951 274.766 284.176 275.08 284.091C275.399 284.005 275.071 282.648 274.822 278.874C274.786 278.326 274.677 276.582 274.677 276.582L272.789 276.052Z" fill="url(#paint7_linear_2426_47451)"></path><path d="M254.194 215.475C261.372 219.461 266.033 223.992 268.742 227.053C271.941 230.665 276.806 236.16 278.567 244.354C279.506 248.722 279.044 252.639 278.082 260.297C277.126 267.902 275.756 274.093 274.684 278.322C274.132 278.526 273.58 278.73 273.028 278.934C271.549 276.432 269.615 272.472 268.922 267.408C267.787 259.123 271.153 256.491 269.538 250.615C268.138 245.525 264.083 242.404 255.973 236.162C249.31 231.034 243.166 227.992 240.885 221.595C240.497 220.509 240.168 219.176 240.8 217.956C242.16 215.327 247.366 214.409 254.194 215.475Z" fill="url(#paint8_linear_2426_47451)"></path><path d="M248.46 182.862C250.324 182.493 253.388 182.566 256.309 180.448C257.189 179.81 260.305 177.551 259.926 174.318C259.593 171.472 256.664 169.943 256.305 169.761C254.231 168.71 252.164 168.943 249.871 169.232C246.898 169.606 245.911 170.354 243.845 170.867C238.734 172.136 237.006 169.488 231.86 169.711C225.283 169.997 224.714 174.469 219.181 174.581C212.969 174.706 211.779 169.108 205.645 168.159C197.133 166.843 184.252 175.282 184.512 185.01C184.661 190.629 189.205 197.068 195.008 199.001C198.391 200.128 202.041 199.77 203.083 201.796C203.825 203.237 202.158 204.348 202.315 206.859C202.518 210.097 205.545 212.37 206.034 212.737C210.573 216.143 220.747 214.422 227.696 209.602C240.225 200.911 238.329 184.869 248.46 182.862Z" fill="url(#paint9_linear_2426_47451)"></path><path d="M234.07 181.708C238.29 181.229 243.158 180.864 248.567 180.797C259.996 180.654 261.632 181.988 262.051 182.976C262.832 184.818 261.495 185.741 262.254 188.952C262.708 190.872 262.279 191.747 263.156 193.81C264.012 195.82 263.341 196.901 262.584 201.615C261.617 207.643 261.171 210.707 263.003 213.137C264.276 214.825 265.7 214.969 265.564 215.77C265.275 217.479 258.859 216.537 250.736 219.817C248.384 220.767 246.219 221.937 244.404 222.919C240.154 225.216 239.368 226.095 237.399 227.136C231.175 230.428 221.824 230.746 216.924 226.764C215.096 225.279 213.765 223.097 214.364 222.298C215.18 221.211 218.829 223.681 222.177 222.174C224.395 221.176 223.974 219.561 226.538 217.658C229.625 215.368 231.77 216.568 233.871 215.078C237.148 212.753 235.657 207.188 234.737 197.857C234.357 193.994 233.975 188.478 234.07 181.708Z" fill="url(#paint10_linear_2426_47451)"></path><path d="M246.434 179.54C244.875 180.43 242.355 181.594 242.077 181.91C241.8 182.226 249.711 183.473 254.634 181.186C254.634 181.186 255.397 180.795 252.429 180.249C251.797 180.132 251.921 179 252.005 177.828L251.412 176.813C251.412 176.813 247.992 178.649 246.434 179.54Z" fill="url(#paint11_linear_2426_47451)"></path><path d="M250.377 176.123C250.377 176.123 249.765 178.512 252.05 179.692C254.095 180.75 257.556 176.416 256.91 174.805C256.694 174.268 255.924 173.578 255.119 173.345C254.552 173.182 252.41 173.245 251.492 174.906C251.252 174.42 250.822 174.166 250.533 174.246C250.166 174.347 250.112 174.962 250.099 175.101C250.057 175.584 250.268 175.959 250.377 176.123Z" fill="url(#paint12_linear_2426_47451)"></path><path opacity="0.3" d="M253.914 214.415C251.56 215.313 251.243 217.254 247.988 218.356C244.884 219.406 243.842 218.09 240.746 218.962C236.095 220.272 234.317 224.404 233.613 224.014C232.969 223.657 233.587 219.704 236.576 217.143C240.009 214.202 243.707 215.549 245.903 212.495C246.758 211.307 247.417 209.409 246.672 207.948C245.661 205.968 243.022 206.655 241.624 205.018C239.111 202.076 244.991 196.77 243.38 192.286C242.737 190.496 240.689 188.253 234.085 186.751C234.175 191.246 234.456 195.003 234.737 197.856C235.657 207.187 237.148 212.753 233.871 215.077C231.77 216.567 229.625 215.367 226.538 217.657C223.974 219.56 224.395 221.175 222.177 222.174C218.829 223.68 215.18 221.21 214.364 222.298C213.765 223.097 215.096 225.279 216.924 226.763C221.824 230.745 231.175 230.428 237.399 227.135C239.367 226.094 240.154 225.216 244.404 222.918C246.219 221.937 248.384 220.766 250.736 219.817C256.436 217.515 261.293 217.292 263.785 216.773C258.838 213.736 255.824 213.685 253.914 214.415Z" fill="url(#paint13_linear_2426_47451)"></path><path d="M276.635 217.464L246.775 218.802C246.364 218.82 245.989 219.023 245.772 219.344L244.945 220.566C244.534 221.173 245.028 221.957 245.805 221.93L277.434 220.821L276.635 217.464Z" fill="url(#paint14_linear_2426_47451)"></path><path d="M304.043 202.274L273.195 202.824C272.282 202.84 271.446 203.298 270.995 204.029L260.312 221.336L292.892 220.14C293.786 220.108 294.602 219.662 295.062 218.955L304.959 203.729C305.38 203.081 304.863 202.259 304.043 202.274Z" fill="url(#paint15_linear_2426_47451)"></path><path opacity="0.3" d="M270.995 204.03C271.446 203.299 272.282 202.841 273.195 202.825L273.871 202.812C273.971 203.729 274.277 204.568 274.886 205.245C276.788 207.36 279.949 206.056 282.304 208.293C284.892 210.751 282.501 213.677 284.815 215.964C287.25 218.372 291.187 216.412 295.714 217.952L295.062 218.955C294.602 219.662 293.786 220.108 292.892 220.141L260.312 221.336L270.995 204.03Z" fill="url(#paint16_linear_2426_47451)"></path><path d="M251.661 217.478C251.998 216.66 252.334 215.842 252.671 215.023C248.952 214.085 243.809 212.697 238.534 210.962C237.23 210.533 236.753 209.978 236.405 209.553C233.7 206.25 240.583 200.423 240.459 192.862C240.374 187.621 236.923 181.625 233.883 181.557C227.702 181.419 214.075 205.568 225.552 215.874C231.249 220.99 241.892 221.583 251.661 217.478Z" fill="url(#paint17_linear_2426_47451)"></path><path d="M252.663 215.024C254.998 213.882 257.792 215.052 257.972 215.131C258.485 215.354 259.232 215.751 259.986 216.461C260.072 216.568 261.084 217.86 260.715 218.274C260.42 218.606 259.274 218.331 257.898 217.542C257.321 217.468 256.462 217.399 255.433 217.487C253.544 217.647 252.678 218.197 251.992 217.722C251.49 217.375 251.319 216.641 251.5 216.095C251.694 215.508 252.268 215.217 252.663 215.024Z" fill="url(#paint18_linear_2426_47451)"></path><path d="M203.684 9.42478L203.518 7.18942C203.518 7.18942 202.648 6.61261 202.519 5.80249C202.391 4.99237 202.391 4.99237 202.391 4.99237C202.391 4.99237 202.495 4.23994 203.634 3.84531C203.891 3.75618 204.093 3.56712 204.168 3.32365C204.393 2.59219 204.856 1.09644 204.987 0.719167C205.073 0.469558 205.316 0.229371 205.54 0.050368C205.692 -0.0715784 205.926 0.0436987 205.895 0.227359L205.356 3.40336C205.356 3.40336 206.101 3.52351 206.08 4.13674C206.08 4.13674 206.504 4.69311 206.322 5.28305C206.139 5.8732 205.401 7.17672 205.401 7.17672L205.394 9.45993L203.684 9.42478Z" fill="url(#paint19_linear_2426_47451)"></path><path d="M160.863 31.3374C161.516 28.9122 163.295 26.8708 165.718 25.7445C168.14 24.6182 170.974 24.5166 173.483 25.4694C181.28 28.431 189.678 27.6815 195.286 23.5367C202.172 18.4463 202.437 10.0178 202.458 8.56055C203.833 8.58627 205.208 8.6121 206.582 8.63793C207.379 10.8713 212.145 24.9649 203.574 36.4218C193.556 49.8113 169.956 54.0437 162.489 45.847C159.117 42.1455 159.496 36.4098 160.863 31.3374Z" fill="url(#paint20_linear_2426_47451)"></path><path d="M145.818 142.326C145.4 142.679 145.374 143.504 145.357 144.044C145.349 144.285 145.345 144.405 145.38 144.488C145.633 145.094 146.937 145.085 148.988 145.163C152.23 145.285 153.204 145.465 153.427 145.009C153.636 144.582 153.019 143.937 152.95 143.866C152.577 143.484 152.143 143.361 151.305 143.159C149.755 142.783 148.711 142.589 148.395 142.53C146.422 142.161 146.092 142.094 145.818 142.326Z" fill="url(#paint21_linear_2426_47451)"></path><path d="M148.089 139.35L148.215 142.747C148.114 142.906 146.994 143.343 146.152 142.88L145.516 139.515L148.089 139.35Z" fill="url(#paint22_linear_2426_47451)"></path><path d="M173.115 141.856C172.557 142.365 172.38 143.345 172.81 143.853C173.232 144.353 173.929 144.028 175.845 144.175C177.896 144.333 178.407 144.806 179.824 144.52C180.397 144.404 181.413 144.104 181.416 143.733C181.418 143.471 180.918 143.311 179.254 142.705C176.892 141.845 176.905 141.805 176.399 141.702C175.127 141.443 173.851 141.183 173.115 141.856Z" fill="url(#paint23_linear_2426_47451)"></path><path d="M174.615 138.835L175.462 142.043C175.375 142.208 174.294 142.722 173.416 142.32L172.062 139.18L174.615 138.835Z" fill="url(#paint24_linear_2426_47451)"></path><path d="M169.463 69.2344C168.995 79.8525 169.089 91.8219 170.224 104.877C171.346 117.779 173.288 129.483 175.548 139.802C174.214 140.063 172.88 140.324 171.547 140.586C168.376 137.557 164.429 132.84 162.767 126.367C161.736 122.35 162.274 120.338 161.757 115.434C160.933 107.625 158.59 103.439 156.287 97.0617C154.217 91.3307 151.864 82.9536 150.984 71.8673C157.144 70.9896 163.303 70.1119 169.463 69.2344Z" fill="url(#paint25_linear_2426_47451)"></path><path opacity="0.3" d="M167.62 118.859C166.151 113.502 163.321 112.085 163.221 107.029C163.149 103.453 164.545 103.16 164.452 99.7368C164.312 94.5442 161.009 91.8216 159.349 88.5554C157.596 85.1058 156.925 79.565 161.648 70.3486C158.094 70.8552 154.539 71.3618 150.984 71.8681C151.864 82.9542 154.217 91.3315 156.287 97.0624C158.59 103.44 160.933 107.625 161.757 115.434C162.274 120.339 161.736 122.351 162.767 126.368C164.429 132.841 168.376 137.558 171.547 140.586C171.886 140.52 172.225 140.454 172.564 140.387C169.137 136.62 167.928 133.256 167.62 130.526C167.12 126.085 169.101 124.26 167.62 118.859Z" fill="url(#paint26_linear_2426_47451)"></path><path d="M156.133 68.5707C154.546 82.0264 153.087 95.7403 151.774 109.705C150.788 120.185 149.911 130.536 149.134 140.756C147.782 140.842 146.429 140.929 145.077 141.016C143.908 138.727 142.381 135.239 141.453 130.82C140.326 125.453 140.84 122.325 140.53 116.804C140.181 110.613 139.233 109.221 137.867 101.365C135.095 85.422 133.709 77.4502 138.105 72.75C139.533 71.2241 143.949 67.4375 156.133 68.5707Z" fill="url(#paint27_linear_2426_47451)"></path><path opacity="0.3" d="M208.563 22.248C207.774 23.7273 206.839 24.8315 205.898 25.6659C202.495 28.6866 197.348 29.7938 196.14 34.252C195.537 36.4802 196.415 37.7102 195.182 39.0053C193.436 40.8411 190.562 39.5381 186.28 40.6661C182.482 41.6666 181.366 43.5822 179.07 44.7982C175.96 46.4451 170.53 46.8866 160.336 41.8412C160.741 43.3209 161.426 44.6852 162.484 45.8472C169.951 54.044 193.551 49.8114 203.569 36.422C207.02 31.8091 208.307 26.7697 208.563 22.248Z" fill="url(#paint28_linear_2426_47451)"></path><path d="M121.109 26.7295C128.414 24.449 139.559 21.922 153.19 22.4392C161.087 22.7387 167.875 23.9864 173.254 25.3739C173.982 29.1193 174.709 32.865 175.436 36.6104C175.603 40.3658 175.657 45.453 175.199 51.4636C174.741 57.4738 174.292 57.5644 173.242 66.0484C171.531 79.8809 172.247 83.4947 169.228 85.1564C167.264 86.2372 166.554 84.9325 156.534 84.018C149.815 83.4048 146.386 83.1198 142.983 84.1801C138.35 85.6237 136.8 88.0476 134.888 87.259C133.055 86.5025 132.822 83.5886 132.6 78.5083C132.259 70.6712 132.28 65.3444 132.248 63.4376C132.104 54.6891 129.698 48.0093 126.617 39.4544C124.69 34.1037 122.66 29.7732 121.109 26.7295Z" fill="url(#paint29_linear_2426_47451)"></path><path d="M127.85 63.4447L130.268 63.3203C130.268 63.3203 132.918 61.2788 134.124 61.4061C135.329 61.5335 137.133 62.304 137.353 62.4656C137.573 62.6273 136.693 63.5326 135.813 63.4446C134.934 63.3565 132.97 63.7937 132.619 64.5075C132.268 65.2213 130.744 65.6523 130.485 65.2337L127.234 65.8277L127.85 63.4447Z" fill="url(#paint30_linear_2426_47451)"></path><path d="M128.582 62.6649C128.751 64.4917 128.319 65.7323 127.598 66.5831C124.402 70.354 113.541 68.8121 107.085 63.7611C102.306 60.0222 99.7762 54.2166 99.8697 49.0146C100.052 38.864 110.268 28.9178 125.464 25.4814C127.713 31.6733 129.963 37.865 132.212 44.0569C122.844 44.1885 117.152 50.6919 117.996 55.3344C118.624 58.793 123.005 61.904 128.582 62.6649Z" fill="url(#paint31_linear_2426_47451)"></path><path opacity="0.3" d="M165.33 80.6145C160.402 78.6781 160.43 74.6706 155.827 72.9981C149.259 70.6115 142.002 76.1559 140.869 74.6186C139.69 73.0189 148.357 68.1133 147.204 63.2751C146.288 59.4302 140.238 60.1116 136.997 54.8485C133.923 49.8559 136.904 45.2401 134.182 43.505C133.205 42.8828 131.484 42.6372 128.219 43.9602C130.495 50.5071 132.128 56.2805 132.246 63.4371C132.277 65.3438 132.256 70.6706 132.598 78.5077C132.819 83.5881 133.053 86.502 134.885 87.2585C136.797 88.0471 138.347 85.6232 142.981 84.1795C146.383 83.1193 149.812 83.4042 156.531 84.0174C166.551 84.9319 167.262 86.2366 169.225 85.1558C170.504 84.452 171.112 83.3937 171.519 81.3609C169.51 81.5603 167.379 81.4193 165.33 80.6145Z" fill="url(#paint32_linear_2426_47451)"></path><path d="M143.719 22.554C143.709 24.4516 146.791 30.8944 152.084 40.3029C153.554 42.9094 155.3 45.7643 157.13 48.844C158.07 46.8694 158.815 44.9291 159.443 43.055V43.0529C162.269 32.7941 160.595 24.3423 160.246 23.113C160.215 23.008 159.796 22.9158 159.796 22.9158C153.52 21.0077 145.398 22.0807 143.719 22.554Z" fill="white"></path><path d="M152.284 13.7715C152.177 15.9711 151.809 17.7016 151.488 18.8834C151.12 20.2374 150.891 20.5806 150.609 20.8543C150.185 21.2664 149.558 21.5988 146.092 22.2118C144.205 22.5453 144.914 22.4475 144.863 22.6155C144.614 23.4356 148.705 26.7533 153.99 26.3293C157.224 26.07 159.16 24.1694 159.032 23.2752C158.903 22.375 156.626 22.8885 155.764 21.2291C155.164 20.0747 156.001 18.5189 156.959 17.2436C156.191 15.7295 153.052 15.2854 152.284 13.7715Z" fill="url(#paint33_linear_2426_47451)"></path><path d="M158.193 14.934C159.005 14.0446 159.145 12.4291 158.331 11.3634C157.631 10.4465 156.456 10.263 155.753 10.1528C153.715 9.83394 151.082 10.495 150.081 12.1888C149.488 13.1925 150.517 15.3895 150.676 15.7832C150.855 16.2283 151.217 16.3958 151.541 16.7416C151.99 17.2212 152.693 17.9832 153.837 19.2561C153.953 18.9027 154.122 18.4667 154.378 17.9976C154.476 17.817 154.871 17.1122 155.439 16.5397C156.577 15.3919 157.424 15.7769 158.193 14.934Z" fill="url(#paint34_linear_2426_47451)"></path><path d="M152.164 18.1509C152.164 18.1509 153.395 20.2539 156.088 20.2251C158.5 20.1991 159.14 15.2535 157.666 14.125C157.174 13.7484 156.157 13.5521 155.31 13.7262C154.81 13.8291 154.633 14.0094 153.812 14.1628C153.055 14.3045 152.849 14.2179 152.613 14.3814C152.319 14.5861 152.081 15.1112 152.468 16.5853C152.034 16.1353 151.493 15.9441 151.094 16.0944C151.03 16.1187 150.859 16.2138 150.757 16.366C150.388 16.9162 150.908 17.6679 152.164 18.1509Z" fill="url(#paint35_linear_2426_47451)"></path><path d="M152.517 14.0785C152.628 14.1639 152.251 14.5445 152.192 15.1068C152.077 16.1982 153.203 17.5705 154.424 17.7422C155.145 17.8436 155.368 17.451 156.573 17.3932C157.32 17.3575 157.933 17.4749 158.317 17.5722C158.624 18.7905 158.2 19.9692 157.297 20.4815C156.325 21.0329 155.148 20.6116 154.656 20.4353C154.327 20.3174 153.272 19.9418 152.764 19.0077C152.234 18.0344 152.841 17.4931 152.207 16.8214C151.888 16.4825 151.452 16.3211 151.055 15.6759C150.948 15.5007 150.878 15.3468 150.836 15.2437C151.491 14.6691 152.356 13.955 152.517 14.0785Z" fill="url(#paint36_linear_2426_47451)"></path><path d="M157.418 17.9742C157.418 17.9742 156.885 18.1985 155.99 18.1079C155.947 18.1035 155.898 18.1129 155.891 18.1334C155.866 18.2108 156.421 18.5904 156.96 18.4793C157.342 18.4001 157.654 18.0864 157.608 18.0005C157.588 17.9643 157.503 17.9647 157.418 17.9742Z" fill="url(#paint37_linear_2426_47451)"></path><path d="M155.652 25.9277L155.081 29.0364H152.726L150.773 26.0999C150.773 26.0999 155.265 26.2562 155.652 25.9277Z" fill="url(#paint38_linear_2426_47451)"></path><path d="M152.078 40.3031C152.522 41.0912 152.983 41.9029 153.462 42.7361C154.562 44.6572 155.847 46.6961 157.124 48.8442C158.064 46.8696 158.809 44.9292 159.437 43.0551V43.053L155.226 29.2369L155.112 29.0163C155.107 28.997 155.078 28.9799 155.068 28.9627C154.768 28.3545 152.737 28.9627 152.737 28.9627L152.078 40.3031Z" fill="url(#paint39_linear_2426_47451)"></path><path opacity="0.3" d="M153.461 42.7365C154.561 44.6576 155.846 46.6965 157.123 48.8446C158.063 46.87 158.808 44.9297 159.436 43.0556V43.0535L155.225 29.2373C154.813 29.3208 153.857 29.7214 153.978 31.6039C154.131 34.0326 156.937 38.316 155.349 40.0294C154.723 40.704 154.017 41.7041 153.461 42.7365Z" fill="url(#paint40_linear_2426_47451)"></path><path d="M143.719 22.3709L148.337 21.4922L153.22 26.1369L149.905 28.5534L143.719 22.3709Z" fill="#D8DEE8"></path><path d="M157.078 21.8232L154 26.1257L157.078 28.0405L160.248 23.1131L157.078 21.8232Z" fill="#D8DEE8"></path><path d="M161.161 290.486L96.7734 287.818V144.576L161.161 142.899V290.486Z" fill="url(#paint41_linear_2426_47451)"></path><path d="M207.887 287.291L161.164 290.486V142.899L207.887 145.357V287.291Z" fill="url(#paint42_linear_2426_47451)"></path><path d="M129.069 291.228C123.853 290.847 117.179 289.512 110.773 285.656C103.842 281.483 94.8152 272.909 97.1713 267.506C98.051 265.488 100.584 263.761 102.81 263.926C106.099 264.169 106.482 268.376 112.193 272.951C113.249 273.797 118.706 278.169 121.419 276.696C122.767 275.964 123.166 273.934 122.946 272.391C122.303 267.879 116.321 267.186 110.57 262.302C104.739 257.35 99.879 248.712 102.657 242.872C104.254 239.516 108.477 236.866 111.253 237.611C112.439 237.929 113.191 238.822 116.793 245.988C119.75 251.869 120.407 253.583 122.313 254.141C124.275 254.715 127.325 253.995 128.485 252.215C131.504 247.579 118.454 240.735 117.269 227.762C116.738 221.949 118.446 213.332 124.164 211.485C128.029 210.237 133.535 212.144 135.525 215.409C137.32 218.352 135.14 220.567 136.509 227.179C136.924 229.185 137.779 233.314 139.583 233.531C141.701 233.785 144.071 228.52 144.618 227.238C148.742 217.585 144.014 212.622 147.902 207.936C150.933 204.282 157.53 202.814 162.756 204.66C167.329 206.275 170.987 210.475 171.231 214.827C171.48 219.255 167.435 223.664 159.346 232.481C155.509 236.662 152.457 239.487 152.631 243.643C152.715 245.669 153.588 248.518 155.163 248.779C158.642 249.353 160.353 236.457 168.596 234.465C172.815 233.446 178.058 235.449 180.362 238.951C183.185 243.242 181.294 249.324 177.748 252.522C173.121 256.694 168.375 253.523 159.669 258.005C155.807 259.994 149.737 264.223 150.626 267.721C151.013 269.243 152.746 270.735 154.649 270.933C158.913 271.379 160.321 264.944 167.176 262.116C172.115 260.078 178.945 260.298 180.567 262.863C182.857 266.484 174.723 274.704 170.398 278.337C165.17 282.728 152.841 291.055 129.069 291.228Z" fill="url(#paint43_linear_2426_47451)"></path><path opacity="0.5" d="M131.402 289.165C130.713 278.403 138.455 256.481 144.087 246.117C149.598 235.976 154.871 219.933 154.923 219.772L155.266 219.868C155.213 220.029 149.932 236.099 144.407 246.265C138.793 256.596 131.074 278.437 131.76 289.146L131.402 289.165Z" fill="white"></path><path d="M116.758 292.632C112.83 287.61 107.068 278.549 106.035 266.426C105.609 261.431 104.777 251.675 111.259 243.259C114.489 239.064 121.34 232.861 125.969 234.65C128.948 235.802 130.797 240.181 129.956 243.512C129.109 246.87 126.026 247.181 122.67 252.88C121.428 254.989 120.009 257.464 121.099 258.863C122.009 260.031 124.511 260.243 126.386 259.543C130.26 258.096 129.049 253.655 133.237 250.47C136.215 248.205 141.179 247.14 143.321 248.995C145.181 250.606 144.857 254.369 143.213 256.877C140.582 260.894 135.862 259.716 132.786 264.107C131.421 266.055 130.451 268.997 131.645 270.161C133.007 271.486 137.012 270.34 139.58 268.875C142.969 266.94 143.094 264.881 145.326 264.623C147.816 264.335 150.929 266.519 151.416 268.934C152.098 272.318 147.59 275.967 144.021 277.552C139.451 279.581 136.056 278.39 133.824 281.163C133.005 282.181 132.254 283.842 132.926 284.85C133.884 286.288 137.348 285.813 139.648 285.498C145.245 284.731 146.786 282.862 148.791 283.77C150.822 284.689 151.869 287.794 150.991 289.973C150.503 291.184 149.037 293.059 141.772 294.233C136.687 295.055 128.145 295.633 116.758 292.632Z" fill="url(#paint44_linear_2426_47451)"></path><path d="M62.1636 297.708L0 294.054V206.932L62.1636 208.578V297.708Z" fill="url(#paint45_linear_2426_47451)"></path><path d="M116.532 293.446L62.1562 297.708V208.579L116.532 207.533V293.446Z" fill="url(#paint46_linear_2426_47451)"></path><path d="M0 206.931L59.1245 204.572L116.539 207.533L61.5158 209.409L0 206.931Z" fill="url(#paint47_linear_2426_47451)"></path><path d="M75.695 109.662C78.2103 107.189 71.2471 97.8987 67.5201 93.8278C64.2641 90.2715 60.9176 86.616 56.8081 87.0789C53.2001 87.4852 49.6892 90.989 49.4789 94.3471C48.913 103.381 72.1191 113.178 75.695 109.662Z" fill="url(#paint48_linear_2426_47451)"></path><path d="M45.5022 205.129C45.0287 205.483 44.9417 206.368 44.8848 206.947C44.8591 207.205 44.8466 207.334 44.8779 207.426C45.1066 208.091 46.5089 208.161 48.7079 208.368C52.1829 208.695 53.217 208.947 53.489 208.471C53.7438 208.025 53.1271 207.294 53.0576 207.213C52.6843 206.78 52.226 206.623 51.34 206.354C49.7005 205.857 48.5928 205.585 48.2574 205.503C46.1631 204.988 45.8132 204.896 45.5022 205.129Z" fill="url(#paint49_linear_2426_47451)"></path><path d="M47.5688 202.206L47.9166 205.852C47.8178 206.029 46.6409 206.557 45.706 206.104L44.8125 202.519L47.5688 202.206Z" fill="url(#paint50_linear_2426_47451)"></path><path d="M73.0639 204.66C72.4964 205.237 72.3671 206.3 72.8605 206.823C73.3457 207.338 74.0749 206.952 76.1435 207.009C78.3593 207.07 78.9379 207.551 80.4436 207.169C81.0519 207.014 82.1262 206.639 82.1058 206.239C82.0915 205.957 81.5445 205.812 79.7177 205.248C77.1246 204.449 77.136 204.405 76.5854 204.321C75.2022 204.11 73.8134 203.898 73.0639 204.66Z" fill="url(#paint51_linear_2426_47451)"></path><path d="M74.4805 201.333L75.5917 204.737C75.5077 204.92 74.378 205.529 73.4084 205.143L71.7578 201.839L74.4805 201.333Z" fill="url(#paint52_linear_2426_47451)"></path><path d="M64.6001 126.778C64.7593 138.219 65.6071 151.082 67.6413 165.057C69.6517 178.869 72.4693 191.349 75.5427 202.324C74.1247 202.675 72.7068 203.026 71.289 203.377C67.6917 200.289 63.1537 195.427 60.964 188.556C59.605 184.291 60.0579 182.099 59.1959 176.854C57.8233 168.502 55.0431 164.127 52.1695 157.392C49.5872 151.34 46.535 142.458 44.8984 130.586C51.4657 129.317 58.033 128.047 64.6001 126.778Z" fill="#26264F"></path><path d="M51.8149 125.687C50.9471 140.237 50.2334 155.058 49.6925 170.142C49.2865 181.46 48.9884 192.635 48.7903 203.663C47.342 203.828 45.8936 203.993 44.445 204.157C43.0456 201.758 41.1867 198.089 39.9133 193.388C38.3667 187.677 38.7249 184.286 38.0466 178.368C37.2856 171.73 36.1803 170.284 34.222 161.91C30.2476 144.916 28.2604 136.419 32.6939 131.133C34.1331 129.417 38.6448 125.113 51.8149 125.687Z" fill="#26264F"></path><path d="M30.6999 89.1182C34.0918 88.24 39.0629 87.2127 45.151 86.8959C53.8342 86.4439 58.1759 86.218 61.2525 88.122C68.3584 92.5198 62.857 102.67 65.7657 127.831C66.1812 131.424 66.2743 135.043 66.575 138.646C67.0731 144.612 67.1866 144.935 66.7359 145.54C63.9092 149.33 53.3634 143.613 37.9063 145.873C29.2578 147.138 25.3353 150.051 22.966 147.95C20.2027 145.499 22.573 138.908 24.6133 133.234C26.9553 126.721 28.402 126.637 29.7314 121.732C31.1209 116.606 30.2804 113.966 30.0641 105.881C29.9606 102.013 29.9827 96.2561 30.6999 89.1182Z" fill="url(#paint53_linear_2426_47451)"></path><g opacity="0.3"><path d="M51.7113 136.355C47.6714 136.064 45.0505 138.167 41.5631 136.528C36.7811 134.28 35.2446 127.287 35.5494 122.338C36.0124 114.818 40.6757 112.836 39.8718 107.975C39.4371 105.346 37.3988 101.856 30.0809 98.29C29.9833 101.291 30.0019 103.849 30.0563 105.881C30.2726 113.966 31.1131 116.605 29.7236 121.732C28.3942 126.637 26.9475 126.721 24.6055 133.234C22.5652 138.908 20.1949 145.499 22.9581 147.949C25.3275 150.051 29.25 147.137 37.8985 145.873C51.2171 143.925 60.8841 147.896 65.1138 146.608C60.0028 138.831 55.3672 136.618 51.7113 136.355Z" fill="url(#paint54_linear_2426_47451)"></path></g><path d="M36.2105 89.6348C33.3252 87.4518 27.5235 89.923 25.9727 90.5834C17.3243 94.2671 9.55928 104.194 11.4833 114.684C11.7719 116.257 13.1098 123.616 19.8768 127.182C25.9826 130.399 34.2273 129.572 40.8331 125.015C41.7358 124.277 42.6387 123.54 43.5415 122.802C44.4295 121.918 45.3179 121.034 46.206 120.15C44.8098 119.081 42.4377 117.538 39.1062 116.548C34.714 115.243 31.5162 117.585 29.4782 115.804C28.0718 114.576 28.0686 112.405 28.4159 111.09C29.116 108.439 31.6537 107.694 33.7719 105.812C38.7483 101.391 39.6652 92.2488 36.2105 89.6348Z" fill="url(#paint55_linear_2426_47451)"></path><path d="M77.6742 123.88L39 123.349L49.2841 127.919L77.7731 126.202L77.6742 123.88Z" fill="url(#paint56_linear_2426_47451)"></path><path d="M37.6328 124.295C37.6328 124.961 38.0857 125.557 38.7659 125.785L51.1236 130.246L51.1799 127.153L38.9977 123.348C38.314 123.168 37.6328 123.64 37.6328 124.295Z" fill="url(#paint57_linear_2426_47451)"></path><path d="M43.5892 122.188C43.3518 122.139 44.7456 119.582 45.8397 119.877C46.9335 120.172 52.2848 123.028 52.7712 124.204C53.2577 125.38 53.2577 125.38 53.2577 125.38C53.2577 125.38 50.9235 125.548 49.4759 125.1C48.028 124.652 45.5193 122.584 43.5892 122.188Z" fill="url(#paint58_linear_2426_47451)"></path><path d="M45.7993 78.1602C45.8209 80.5306 45.5337 82.4106 45.262 83.698C44.9508 85.1731 44.7265 85.5542 44.4403 85.8634C44.0095 86.3289 43.3566 86.7193 39.6677 87.5617C37.6603 88.0199 37.4021 88.0074 37.3578 88.1909C37.1415 89.0857 42.6152 92.1355 48.2703 91.4004C51.7313 90.9507 54.8803 89.1324 54.687 88.1775C54.4923 87.2167 51.0352 87.7322 50.0049 85.9938C49.288 84.7844 50.0916 83.0675 51.0413 81.6458C50.1216 80.0587 46.7191 79.7473 45.7993 78.1602Z" fill="url(#paint59_linear_2426_47451)"></path><path d="M52.5067 77.4627C54.2094 76.1981 55.3765 73.6227 54.5739 72.4517C53.4709 70.8423 48.8267 72.1488 46.4818 72.8086C44.1298 73.4704 43.3605 74.1085 43.0346 74.8418C42.7017 75.591 42.7888 76.5621 43.076 77.2848C43.2325 77.6786 43.5412 78.1699 44.2301 79.109C44.8415 79.9424 44.7999 79.9138 44.9875 80.1562C45.4383 80.7384 46.3097 81.7196 47.9156 82.8643C48.0118 82.4445 48.1617 81.9239 48.4087 81.3569C48.5038 81.1388 48.8865 80.2862 49.4843 79.5716C50.5104 78.345 51.4732 78.2303 52.5067 77.4627Z" fill="url(#paint60_linear_2426_47451)"></path><path d="M45.8489 81.7332C45.8489 81.7332 47.498 84.0603 50.6171 83.7848C53.4101 83.538 53.6275 77.7477 51.7992 76.5717C51.1894 76.1795 49.9894 76.0434 49.0267 76.3214C48.4581 76.4856 48.2713 76.7105 47.3365 76.9622C46.4743 77.1943 46.2256 77.1125 45.9701 77.3233C45.6503 77.5869 45.4307 78.2173 46.0349 79.8912C45.4845 79.4084 44.8372 79.2355 44.3899 79.4456C44.3185 79.4792 44.1302 79.6049 44.0282 79.7904C43.6589 80.4615 44.3415 81.2861 45.8489 81.7332Z" fill="url(#paint61_linear_2426_47451)"></path><path d="M49.1882 91.2715C48.9706 91.7242 48.7261 92.1929 48.451 92.673C48.331 92.8824 48.2099 93.0858 48.0882 93.2833C47.589 93.3467 47.0898 93.4101 46.5906 93.4736C46.2714 92.8036 45.952 92.1337 45.6328 91.4637C46.1283 91.5236 46.7394 91.5608 47.4352 91.5223C48.1184 91.4843 48.7101 91.383 49.1882 91.2715Z" fill="url(#paint62_linear_2426_47451)"></path><path d="M48.0717 93.1553C48.0717 93.1553 49.7888 108.632 55.0768 111.049C54.9491 111.547 55.1406 115.576 55.1406 115.576C55.1406 115.576 50.2247 114.277 49.9468 114.37C49.669 114.463 43.896 105.905 46.5889 93.4737L48.0717 93.1553Z" fill="url(#paint63_linear_2426_47451)"></path><path d="M52.2157 105.453L49.4896 128.309C49.3956 129.098 50.5945 130.273 51.4551 130.235L91.4462 127.975C92.1035 127.946 92.6505 127.5 92.7618 126.903L97.7813 104.829C97.9311 104.025 96.3628 103.195 95.478 103.218L53.5699 104.303C52.8699 104.322 52.2919 104.812 52.2157 105.453Z" fill="url(#paint64_linear_2426_47451)"></path><path d="M53.1253 106.12L50.3992 128.976C50.3051 129.765 50.9986 130.444 51.8591 130.407L92.3561 128.641C93.0131 128.613 93.5603 128.167 93.6715 127.57L97.809 105.394C97.9587 104.591 97.2726 103.862 96.3878 103.885L54.4795 104.97C53.7797 104.988 53.2015 105.479 53.1253 106.12Z" fill="url(#paint65_linear_2426_47451)"></path><path opacity="0.3" d="M76.905 123.285C73.369 121.905 74.6171 119.274 70.4415 115.994C64.9328 111.668 59.3181 113.544 57.3525 110.191C56.7403 109.147 56.448 107.522 57.5142 104.892L54.4795 104.97C53.7797 104.988 53.2015 105.479 53.1253 106.12L50.3992 128.976C50.3052 129.764 50.9987 130.444 51.8591 130.407L92.3561 128.641C93.013 128.613 93.5602 128.167 93.6715 127.57L94.2425 124.51C93.0139 123.88 91.5455 123.308 89.8323 122.988C83.891 121.878 80.976 124.874 76.905 123.285Z" fill="url(#paint66_linear_2426_47451)"></path><path d="M94.8991 125.444C94.9649 125.26 94.8254 125.07 94.615 125.061C93.7592 125.02 91.7741 125.004 90.6782 125.622C89.2546 126.425 87.4139 127.89 88.964 128.629L90.4114 129.32C90.4778 129.352 90.5503 129.362 90.6233 129.347C91.1376 129.243 93.3023 128.801 93.5391 128.691C93.7547 128.591 94.5801 126.335 94.8991 125.444Z" fill="url(#paint67_linear_2426_47451)"></path><defs><linearGradient id="paint0_linear_2426_47451" x1="478.049" y1="154.782" x2="333.338" y2="221.013" gradientUnits="userSpaceOnUse"><stop stop-color="#AA80F9"></stop><stop offset="0.9964" stop-color="#6165D7"></stop></linearGradient><linearGradient id="paint1_linear_2426_47451" x1="260.109" y1="237.953" x2="294.149" y2="301.087" gradientUnits="userSpaceOnUse"><stop stop-color="#AA80F9"></stop><stop offset="0.9964" stop-color="#6165D7"></stop></linearGradient><linearGradient id="paint2_linear_2426_47451" x1="211.969" y1="179.073" x2="239.08" y2="228.186" gradientUnits="userSpaceOnUse"><stop stop-color="#AA80F9"></stop><stop offset="0.9964" stop-color="#6165D7"></stop></linearGradient><linearGradient id="paint3_linear_2426_47451" x1="276.175" y1="200.749" x2="256.961" y2="200.749" gradientUnits="userSpaceOnUse"><stop stop-color="#FFC444"></stop><stop offset="0.9964" stop-color="#F36F56"></stop></linearGradient><linearGradient id="paint4_linear_2426_47451" x1="309.274" y1="233.969" x2="272.015" y2="233.969" gradientUnits="userSpaceOnUse"><stop stop-color="#444B8C"></stop><stop offset="0.9964" stop-color="#26264F"></stop></linearGradient><linearGradient id="paint5_linear_2426_47451" x1="277.254" y1="271.937" x2="271.337" y2="298.13" gradientUnits="userSpaceOnUse"><stop stop-color="#FF9085"></stop><stop offset="1" stop-color="#FB6FBB"></stop></linearGradient><linearGradient id="paint6_linear_2426_47451" x1="291.752" y1="235.259" x2="254.493" y2="235.259" gradientUnits="userSpaceOnUse"><stop stop-color="#444B8C"></stop><stop offset="0.9964" stop-color="#26264F"></stop></linearGradient><linearGradient id="paint7_linear_2426_47451" x1="275.212" y1="280.073" x2="272.789" y2="280.073" gradientUnits="userSpaceOnUse"><stop stop-color="#311944"></stop><stop offset="1" stop-color="#A03976"></stop></linearGradient><linearGradient id="paint8_linear_2426_47451" x1="289.378" y1="212.666" x2="259.197" y2="252.49" gradientUnits="userSpaceOnUse"><stop stop-color="#444B8C"></stop><stop offset="0.9964" stop-color="#26264F"></stop></linearGradient><linearGradient id="paint9_linear_2426_47451" x1="196.17" y1="161.216" x2="235.177" y2="200.525" gradientUnits="userSpaceOnUse"><stop stop-color="#444B8C"></stop><stop offset="0.9964" stop-color="#26264F"></stop></linearGradient><linearGradient id="paint10_linear_2426_47451" x1="231.789" y1="213.774" x2="265.009" y2="181.339" gradientUnits="userSpaceOnUse"><stop stop-color="#FFC444"></stop><stop offset="0.9964" stop-color="#F36F56"></stop></linearGradient><linearGradient id="paint11_linear_2426_47451" x1="254.722" y1="179.673" x2="242.07" y2="179.673" gradientUnits="userSpaceOnUse"><stop stop-color="#311944"></stop><stop offset="1" stop-color="#A03976"></stop></linearGradient><linearGradient id="paint12_linear_2426_47451" x1="253.13" y1="209.868" x2="253.362" y2="186.876" gradientUnits="userSpaceOnUse"><stop stop-color="#311944"></stop><stop offset="1" stop-color="#A03976"></stop></linearGradient><linearGradient id="paint13_linear_2426_47451" x1="232.968" y1="214.981" x2="266.188" y2="182.546" gradientUnits="userSpaceOnUse"><stop stop-color="#FFC444"></stop><stop offset="0.9964" stop-color="#F36F56"></stop></linearGradient><linearGradient id="paint14_linear_2426_47451" x1="244.797" y1="219.697" x2="277.434" y2="219.697" gradientUnits="userSpaceOnUse"><stop offset="0.0036" stop-color="#E38DDD"></stop><stop offset="1" stop-color="#9571F6"></stop></linearGradient><linearGradient id="paint15_linear_2426_47451" x1="260.312" y1="211.805" x2="305.109" y2="211.805" gradientUnits="userSpaceOnUse"><stop offset="0.0036" stop-color="#E38DDD"></stop><stop offset="1" stop-color="#9571F6"></stop></linearGradient><linearGradient id="paint16_linear_2426_47451" x1="294.657" y1="200.861" x2="275.007" y2="222.03" gradientUnits="userSpaceOnUse"><stop offset="0.0036" stop-color="#E38DDD"></stop><stop offset="1" stop-color="#9571F6"></stop></linearGradient><linearGradient id="paint17_linear_2426_47451" x1="246.658" y1="213.552" x2="221.477" y2="186.643" gradientUnits="userSpaceOnUse"><stop stop-color="#FFC444"></stop><stop offset="0.9964" stop-color="#F36F56"></stop></linearGradient><linearGradient id="paint18_linear_2426_47451" x1="260.796" y1="216.469" x2="251.43" y2="216.469" gradientUnits="userSpaceOnUse"><stop stop-color="#311944"></stop><stop offset="1" stop-color="#A03976"></stop></linearGradient><linearGradient id="paint19_linear_2426_47451" x1="205" y1="-0.47981" x2="203.571" y2="14.4276" gradientUnits="userSpaceOnUse"><stop stop-color="#FFC444"></stop><stop offset="0.9964" stop-color="#F36F56"></stop></linearGradient><linearGradient id="paint20_linear_2426_47451" x1="205.726" y1="72.8045" x2="186.4" y2="24.312" gradientUnits="userSpaceOnUse"><stop stop-color="#444B8C"></stop><stop offset="0.9964" stop-color="#3E4177"></stop></linearGradient><linearGradient id="paint21_linear_2426_47451" x1="153.337" y1="143.422" x2="145.339" y2="144.204" gradientUnits="userSpaceOnUse"><stop stop-color="#444B8C"></stop><stop offset="0.9964" stop-color="#26264F"></stop></linearGradient><linearGradient id="paint22_linear_2426_47451" x1="148.74" y1="143.723" x2="145.193" y2="136.987" gradientUnits="userSpaceOnUse"><stop stop-color="#FFC444"></stop><stop offset="0.9964" stop-color="#F36F56"></stop></linearGradient><linearGradient id="paint23_linear_2426_47451" x1="181.048" y1="142.158" x2="172.768" y2="144.121" gradientUnits="userSpaceOnUse"><stop stop-color="#444B8C"></stop><stop offset="0.9964" stop-color="#26264F"></stop></linearGradient><linearGradient id="paint24_linear_2426_47451" x1="175.886" y1="143.118" x2="171.746" y2="136.488" gradientUnits="userSpaceOnUse"><stop stop-color="#FFC444"></stop><stop offset="0.9964" stop-color="#F36F56"></stop></linearGradient><linearGradient id="paint25_linear_2426_47451" x1="178.989" y1="129.231" x2="161.68" y2="79.9233" gradientUnits="userSpaceOnUse"><stop stop-color="#444B8C"></stop><stop offset="0.9964" stop-color="#3E4177"></stop></linearGradient><linearGradient id="paint26_linear_2426_47451" x1="175.376" y1="130.5" x2="158.068" y2="81.1923" gradientUnits="userSpaceOnUse"><stop stop-color="#444B8C"></stop><stop offset="0.9964" stop-color="#3E4177"></stop></linearGradient><linearGradient id="paint27_linear_2426_47451" x1="166.166" y1="131.853" x2="143.097" y2="84.5416" gradientUnits="userSpaceOnUse"><stop stop-color="#444B8C"></stop><stop offset="0.9964" stop-color="#3E4177"></stop></linearGradient><linearGradient id="paint28_linear_2426_47451" x1="124.997" y1="87.6722" x2="194.004" y2="18.9757" gradientUnits="userSpaceOnUse"><stop stop-color="#444B8C"></stop><stop offset="0.9964" stop-color="#3E4177"></stop></linearGradient><linearGradient id="paint29_linear_2426_47451" x1="135.539" y1="77.3267" x2="165.811" y2="1.36719" gradientUnits="userSpaceOnUse"><stop stop-color="#444B8C"></stop><stop offset="0.9964" stop-color="#3E4177"></stop></linearGradient><linearGradient id="paint30_linear_2426_47451" x1="131.516" y1="61.9397" x2="132.908" y2="66.5535" gradientUnits="userSpaceOnUse"><stop stop-color="#FFC444"></stop><stop offset="0.9964" stop-color="#F36F56"></stop></linearGradient><linearGradient id="paint31_linear_2426_47451" x1="108.841" y1="66.6851" x2="139.113" y2="-9.2747" gradientUnits="userSpaceOnUse"><stop stop-color="#444B8C"></stop><stop offset="0.9964" stop-color="#3E4177"></stop></linearGradient><linearGradient id="paint32_linear_2426_47451" x1="141.942" y1="79.8787" x2="172.214" y2="3.91847" gradientUnits="userSpaceOnUse"><stop stop-color="#444B8C"></stop><stop offset="0.9964" stop-color="#3E4177"></stop></linearGradient><linearGradient id="paint33_linear_2426_47451" x1="147.531" y1="30.4126" x2="157.446" y2="10.7528" gradientUnits="userSpaceOnUse"><stop stop-color="#FFC444"></stop><stop offset="0.9964" stop-color="#F36F56"></stop></linearGradient><linearGradient id="paint34_linear_2426_47451" x1="158.876" y1="14.6656" x2="149.898" y2="14.6656" gradientUnits="userSpaceOnUse"><stop stop-color="#444B8C"></stop><stop offset="0.9964" stop-color="#3E4177"></stop></linearGradient><linearGradient id="paint35_linear_2426_47451" x1="154.548" y1="14.7969" x2="154.532" y2="35.548" gradientUnits="userSpaceOnUse"><stop stop-color="#FFC444"></stop><stop offset="0.9964" stop-color="#F36F56"></stop></linearGradient><linearGradient id="paint36_linear_2426_47451" x1="158.416" y1="17.4102" x2="150.836" y2="17.4102" gradientUnits="userSpaceOnUse"><stop stop-color="#444B8C"></stop><stop offset="0.9964" stop-color="#3E4177"></stop></linearGradient><linearGradient id="paint37_linear_2426_47451" x1="156.895" y1="17.2707" x2="156.506" y2="19.8623" gradientUnits="userSpaceOnUse"><stop stop-color="#FFC444"></stop><stop offset="1" stop-color="#F36F56"></stop></linearGradient><linearGradient id="paint38_linear_2426_47451" x1="155.653" y1="27.4821" x2="150.773" y2="27.4821" gradientUnits="userSpaceOnUse"><stop stop-color="#FF9085"></stop><stop offset="1" stop-color="#FB6FBB"></stop></linearGradient><linearGradient id="paint39_linear_2426_47451" x1="156.124" y1="25.6054" x2="155.769" y2="43.9954" gradientUnits="userSpaceOnUse"><stop stop-color="#FF9085"></stop><stop offset="1" stop-color="#FB6FBB"></stop></linearGradient><linearGradient id="paint40_linear_2426_47451" x1="159.436" y1="39.041" x2="153.461" y2="39.041" gradientUnits="userSpaceOnUse"><stop stop-color="#FF9085"></stop><stop offset="1" stop-color="#FB6FBB"></stop></linearGradient><linearGradient id="paint41_linear_2426_47451" x1="335.999" y1="140.612" x2="139.94" y2="230.345" gradientUnits="userSpaceOnUse"><stop stop-color="#AA80F9"></stop><stop offset="0.9964" stop-color="#6165D7"></stop></linearGradient><linearGradient id="paint42_linear_2426_47451" x1="162.614" y1="184.262" x2="228.744" y2="306.912" gradientUnits="userSpaceOnUse"><stop stop-color="#AA80F9"></stop><stop offset="0.9964" stop-color="#6165D7"></stop></linearGradient><linearGradient id="paint43_linear_2426_47451" x1="178.598" y1="189.69" x2="139.381" y2="270.956" gradientUnits="userSpaceOnUse"><stop stop-color="#FF9085"></stop><stop offset="1" stop-color="#FB6FBB"></stop></linearGradient><linearGradient id="paint44_linear_2426_47451" x1="147.32" y1="248.831" x2="100.884" y2="309.284" gradientUnits="userSpaceOnUse"><stop stop-color="#FFC444"></stop><stop offset="0.9964" stop-color="#F36F56"></stop></linearGradient><linearGradient id="paint45_linear_2426_47451" x1="260.215" y1="167.19" x2="99.1982" y2="240.884" gradientUnits="userSpaceOnUse"><stop stop-color="#AA80F9"></stop><stop offset="0.9964" stop-color="#6165D7"></stop></linearGradient><linearGradient id="paint46_linear_2426_47451" x1="74.7316" y1="230.175" x2="119.259" y2="312.758" gradientUnits="userSpaceOnUse"><stop stop-color="#AA80F9"></stop><stop offset="0.9964" stop-color="#6165D7"></stop></linearGradient><linearGradient id="paint47_linear_2426_47451" x1="34.61" y1="170.889" x2="60.2546" y2="217.346" gradientUnits="userSpaceOnUse"><stop stop-color="#AA80F9"></stop><stop offset="0.9964" stop-color="#6165D7"></stop></linearGradient><linearGradient id="paint48_linear_2426_47451" x1="69.2415" y1="73.0685" x2="44.5703" y2="201.525" gradientUnits="userSpaceOnUse"><stop stop-color="#FF9085"></stop><stop offset="1" stop-color="#FB6FBB"></stop></linearGradient><linearGradient id="paint49_linear_2426_47451" x1="53.5047" y1="206.76" x2="44.8511" y2="207.031" gradientUnits="userSpaceOnUse"><stop stop-color="#444B8C"></stop><stop offset="0.9964" stop-color="#26264F"></stop></linearGradient><linearGradient id="paint50_linear_2426_47451" x1="47.9166" y1="204.244" x2="44.8124" y2="204.244" gradientUnits="userSpaceOnUse"><stop stop-color="#FFC444"></stop><stop offset="0.9964" stop-color="#F36F56"></stop></linearGradient><linearGradient id="paint51_linear_2426_47451" x1="81.6123" y1="204.565" x2="72.8529" y2="207.18" gradientUnits="userSpaceOnUse"><stop stop-color="#444B8C"></stop><stop offset="0.9964" stop-color="#26264F"></stop></linearGradient><linearGradient id="paint52_linear_2426_47451" x1="75.5917" y1="203.301" x2="71.7579" y2="203.301" gradientUnits="userSpaceOnUse"><stop stop-color="#FFC444"></stop><stop offset="0.9964" stop-color="#F36F56"></stop></linearGradient><linearGradient id="paint53_linear_2426_47451" x1="59.2403" y1="71.1459" x2="34.569" y2="199.602" gradientUnits="userSpaceOnUse"><stop stop-color="#FF9085"></stop><stop offset="1" stop-color="#FB6FBB"></stop></linearGradient><linearGradient id="paint54_linear_2426_47451" x1="34.369" y1="180.309" x2="43.7334" y2="132.005" gradientUnits="userSpaceOnUse"><stop stop-color="#FF9085"></stop><stop offset="1" stop-color="#FB6FBB"></stop></linearGradient><linearGradient id="paint55_linear_2426_47451" x1="39.4348" y1="67.3424" x2="14.7636" y2="195.798" gradientUnits="userSpaceOnUse"><stop stop-color="#FF9085"></stop><stop offset="1" stop-color="#FB6FBB"></stop></linearGradient><linearGradient id="paint56_linear_2426_47451" x1="64.0821" y1="138.603" x2="60.0472" y2="126.188" gradientUnits="userSpaceOnUse"><stop stop-color="#311944"></stop><stop offset="1" stop-color="#893976"></stop></linearGradient><linearGradient id="paint57_linear_2426_47451" x1="43.642" y1="120.919" x2="45.1012" y2="131.866" gradientUnits="userSpaceOnUse"><stop stop-color="#311944"></stop><stop offset="1" stop-color="#893976"></stop></linearGradient><linearGradient id="paint58_linear_2426_47451" x1="53.2576" y1="122.632" x2="43.5625" y2="122.632" gradientUnits="userSpaceOnUse"><stop stop-color="#FFC444"></stop><stop offset="0.9964" stop-color="#F36F56"></stop></linearGradient><linearGradient id="paint59_linear_2426_47451" x1="45.9594" y1="84.1443" x2="46.2507" y2="106.136" gradientUnits="userSpaceOnUse"><stop stop-color="#FFC444"></stop><stop offset="0.9964" stop-color="#F36F56"></stop></linearGradient><linearGradient id="paint60_linear_2426_47451" x1="46.1022" y1="62.8247" x2="48.6195" y2="75.8246" gradientUnits="userSpaceOnUse"><stop stop-color="#444B8C"></stop><stop offset="0.9964" stop-color="#26264F"></stop></linearGradient><linearGradient id="paint61_linear_2426_47451" x1="49.7102" y1="70.786" x2="46.8977" y2="95.614" gradientUnits="userSpaceOnUse"><stop stop-color="#FFC444"></stop><stop offset="0.9964" stop-color="#F36F56"></stop></linearGradient><linearGradient id="paint62_linear_2426_47451" x1="47.809" y1="84.722" x2="47.2426" y2="95.8641" gradientUnits="userSpaceOnUse"><stop stop-color="#444B8C"></stop><stop offset="0.9964" stop-color="#26264F"></stop></linearGradient><linearGradient id="paint63_linear_2426_47451" x1="50.5095" y1="108.042" x2="50.1838" y2="80.8309" gradientUnits="userSpaceOnUse"><stop stop-color="#444B8C"></stop><stop offset="0.9964" stop-color="#26264F"></stop></linearGradient><linearGradient id="paint64_linear_2426_47451" x1="77.6418" y1="121.875" x2="69.497" y2="109.315" gradientUnits="userSpaceOnUse"><stop stop-color="#444B8C"></stop><stop offset="0.9964" stop-color="#26264F"></stop></linearGradient><linearGradient id="paint65_linear_2426_47451" x1="60.1415" y1="141.614" x2="77.5847" y2="103.136" gradientUnits="userSpaceOnUse"><stop stop-color="#311944"></stop><stop offset="1" stop-color="#893976"></stop></linearGradient><linearGradient id="paint66_linear_2426_47451" x1="50.3906" y1="117.65" x2="94.2425" y2="117.65" gradientUnits="userSpaceOnUse"><stop stop-color="#311944"></stop><stop offset="1" stop-color="#893976"></stop></linearGradient><linearGradient id="paint67_linear_2426_47451" x1="94.9155" y1="127.199" x2="88.375" y2="127.199" gradientUnits="userSpaceOnUse"><stop stop-color="#FFC444"></stop><stop offset="0.9964" stop-color="#F36F56"></stop></linearGradient></defs></svg>