<svg xmlns="http://www.w3.org/2000/svg" height="800" width="1200" y="-170.385" x="-229.932" viewBox="-688.2 -185.25 5964.4 1111.5"><defs><linearGradient gradientUnits="userSpaceOnUse" y2="35.782" x2="2173.873" y1="733.908" x1="-2442.817" id="a"><stop offset="0" stop-color="#8b2523"></stop><stop offset=".289" stop-color="#ee4838"></stop><stop offset="1" stop-color="#8b2523"></stop></linearGradient></defs><path d="M-2388 10h538v235c0 259 389 259 389-1V10h499v616c0 59-49 108-108 108h-1210c-59 0-108-49-108-108zM631 731H260V399c0-95-158-95-158 0v332h-368V399c0-95-158-95-158 0v332h-371V116c0-58 46-106 103-108 1 0 2-1 3-1 0 0 0 0 0 0h2s0 0 0 0H523v0h3s1 1 2 1c57 2 103 50 103 108zm1555 0h-371V399c0-95-158-95-158 0v332h-367V399c0-95-159-95-159 0v332H760V116c0-58 46-106 103-108 1 0 2-1 3-1 0 0 0 0 0 0h3s0 0 0 0h1209v0h3s0 0 0 0c1 0 1 1 2 1 57 2 103 50 103 108z" fill="url(#a)" stroke="#581d25" stroke-width="14" transform="translate(2395)"></path></svg>