<svg xmlns="http://www.w3.org/2000/svg" width="500" height="300" viewBox="0 0 500 300" fill="none"><rect width="500" height="300" rx="24" fill="white"></rect><path d="M404.467 276.089H378.812V276.283H404.467V276.089Z" fill="#EBEBEB"></path><path d="M312.546 278.191H305.812V278.385H312.546V278.191Z" fill="#EBEBEB"></path><path d="M378.033 268.896H363.168V269.09H378.033V268.896Z" fill="#EBEBEB"></path><path d="M130.084 270.198H96.6289V270.391H130.084V270.198Z" fill="#EBEBEB"></path><path d="M141.886 270.198H136.98V270.391H141.886V270.198Z" fill="#EBEBEB"></path><path d="M230.384 273.469H157.828V273.662H230.384V273.469Z" fill="#EBEBEB"></path><path d="M239.571 229.079H90.007C87.5695 229.079 85.5859 227.095 85.5859 224.658V14.4211C85.5859 11.9836 87.5695 10 90.007 10H239.571C242.008 10 243.991 11.9836 243.991 14.4211V224.658C243.991 227.095 242.008 229.079 239.571 229.079ZM90.007 10.1944C87.6757 10.1944 85.7796 12.0905 85.7796 14.4219V224.658C85.7796 226.99 87.6757 228.886 90.007 228.886H239.571C241.902 228.886 243.798 226.99 243.798 224.658V14.4211C243.798 12.0905 241.902 10.1936 239.571 10.1936L90.007 10.1944Z" fill="#EBEBEB"></path><path d="M407.105 229.079H257.541C255.104 229.079 253.121 227.095 253.121 224.658V14.4211C253.121 11.9836 255.105 10 257.541 10H407.105C409.543 10 411.526 11.9836 411.526 14.4211V224.658C411.526 227.095 409.543 229.079 407.105 229.079ZM257.541 10.1944C255.211 10.1944 253.315 12.0905 253.315 14.4219V224.658C253.315 226.99 255.211 228.886 257.541 228.886H407.105C409.436 228.886 411.332 226.99 411.332 224.658V14.4211C411.332 12.0905 409.436 10.1936 407.105 10.1936L257.541 10.1944Z" fill="#EBEBEB"></path><path d="M443.269 263.622H55.9961V263.815H443.269V263.622Z" fill="#EBEBEB"></path><path d="M260.562 51.7544H283.012V21.6184L260.562 21.6184V51.7544Z" fill="#F0F0F0"></path><path d="M258.702 52.374H281.152V22.238L258.702 22.238V52.374Z" fill="#F5F5F5"></path><path d="M286.902 24.1238H279.781V57.7662H286.902V24.1238Z" fill="#E0E0E0"></path><path d="M274.069 24.1238L257.91 46.952V57.7662H279.776V24.1238H274.069Z" fill="#EBEBEB"></path><path d="M285.524 52.3745C285.524 53.582 284.546 54.5603 283.338 54.5603C282.131 54.5603 281.152 53.582 281.152 52.3745C281.152 51.1678 282.131 50.1887 283.338 50.1887C284.546 50.1887 285.524 51.167 285.524 52.3745Z" fill="#FAFAFA"></path><path d="M285.524 32.0195H281.152V46.227H285.524V32.0195Z" fill="#F0F0F0"></path><path opacity="0.6" d="M285.524 32.0195H281.152V34.0225H285.524V32.0195Z" fill="#FAFAFA"></path><path d="M251.883 49.4391V43.9615C252.559 43.9615 252.559 42.9128 251.883 42.9128C249.796 42.9128 247.706 42.8989 245.617 42.8865V50.4886C247.706 50.4886 249.794 50.4886 251.883 50.4886C252.558 50.4879 252.559 49.4391 251.883 49.4391Z" fill="#EBEBEB"></path><path d="M251.875 43.9614H247.008V49.4313H251.875V43.9614Z" fill="#F5F5F5"></path><path d="M248.038 49.9633H231.163C230.003 49.9633 229.062 48.5025 229.062 46.7002C229.062 44.8978 230.003 43.437 231.163 43.437H248.038V49.9633Z" fill="#FAFAFA"></path><path d="M248.034 42.9121C242.509 42.9121 236.976 42.8122 231.451 42.9121C227.668 42.9802 227.464 50.2331 231.176 50.4879C233.763 50.6653 236.424 50.4879 239.016 50.4879C242.022 50.4879 245.028 50.4879 248.033 50.4879C248.708 50.4879 248.709 49.4392 248.033 49.4392C242.797 49.4392 237.56 49.4392 232.324 49.4392C231.112 49.4392 230.245 49.426 229.778 47.9962C229.373 46.7593 229.5 44.235 231.159 43.9616C231.338 43.9322 231.548 43.9616 231.727 43.9616C234.582 43.9616 237.437 43.9616 240.292 43.9616C242.873 43.9616 245.453 43.9616 248.034 43.9616C248.708 43.9616 248.71 42.9121 248.034 42.9121Z" fill="#E6E6E6"></path><path d="M251.928 42.0421V37.1741C252.528 37.1741 252.529 36.2415 251.928 36.2415C250.073 36.2415 248.217 36.2291 246.359 36.2175V42.9739C248.216 42.9739 250.072 42.9739 251.928 42.9739C252.529 42.9739 252.529 42.0421 251.928 42.0421Z" fill="#EBEBEB"></path><path d="M251.939 37.1733H247.613V42.0344H251.939V37.1733Z" fill="#F5F5F5"></path><path d="M248.519 42.5078H233.523C232.492 42.5078 231.656 41.2097 231.656 39.6079C231.656 38.0061 232.492 36.708 233.523 36.708H248.519V42.5078Z" fill="#FAFAFA"></path><path d="M248.52 36.2416C243.61 36.2416 238.692 36.1533 233.783 36.2416C230.421 36.3021 230.24 42.7478 233.538 42.974C235.836 43.132 238.202 42.974 240.505 42.974C243.177 42.974 245.848 42.974 248.519 42.974C249.118 42.974 249.12 42.0422 248.519 42.0422C243.865 42.0422 239.212 42.0422 234.558 42.0422C233.482 42.0422 232.711 42.0298 232.295 40.7596C231.935 39.6605 232.048 37.4166 233.523 37.1742C233.682 37.1479 233.868 37.1742 234.028 37.1742C236.565 37.1742 239.102 37.1742 241.639 37.1742C243.933 37.1742 246.226 37.1742 248.519 37.1742C249.12 37.1734 249.121 36.2416 248.52 36.2416Z" fill="#E6E6E6"></path><path d="M251.883 56.8842V51.4066C252.559 51.4066 252.559 50.3579 251.883 50.3579C249.796 50.3579 247.706 50.3439 245.617 50.3315V57.9337C247.706 57.9337 249.794 57.9337 251.883 57.9337C252.558 57.9329 252.559 56.8842 251.883 56.8842Z" fill="#EBEBEB"></path><path d="M251.875 51.4065H247.008V56.8763H251.875V51.4065Z" fill="#F5F5F5"></path><path d="M248.038 57.4084H231.163C230.003 57.4084 229.062 55.9476 229.062 54.1452C229.062 52.3429 230.003 50.8821 231.163 50.8821H248.038V57.4084Z" fill="#FAFAFA"></path><path d="M248.034 50.3569C242.509 50.3569 236.976 50.257 231.451 50.3569C227.668 50.4251 227.464 57.6779 231.176 57.9327C233.763 58.1101 236.424 57.9327 239.016 57.9327C242.022 57.9327 245.028 57.9327 248.033 57.9327C248.708 57.9327 248.709 56.884 248.033 56.884C242.797 56.884 237.56 56.884 232.324 56.884C231.112 56.884 230.245 56.8708 229.778 55.441C229.373 54.2041 229.5 51.6798 231.159 51.4064C231.338 51.377 231.548 51.4064 231.727 51.4064C234.582 51.4064 237.437 51.4064 240.292 51.4064C242.873 51.4064 245.453 51.4064 248.034 51.4064C248.708 51.4064 248.71 50.3569 248.034 50.3569Z" fill="#E6E6E6"></path><path d="M343.926 57.4905H155.34V62.9471H343.926V57.4905Z" fill="#F5F5F5"></path><path d="M333.77 76.2144V62.948H340.404L333.77 76.2144Z" fill="#E0E0E0"></path><path d="M337.087 76.2144L343.72 62.948H340.404L333.77 76.2144H337.087Z" fill="#F5F5F5"></path><path d="M165.29 76.2144V62.948H158.656L165.29 76.2144Z" fill="#E0E0E0"></path><path d="M161.974 76.2144L155.34 62.948H158.656L165.29 76.2144H161.974Z" fill="#F5F5F5"></path><path d="M322.874 43.1366V42.634C322.874 34.6639 316.413 28.2026 308.443 28.2026C300.473 28.2026 294.012 34.6639 294.012 42.634V43.1366V57.568H308.443H322.874V43.1366Z" fill="#F0F0F0"></path><path d="M297.168 42.6346C297.168 48.8612 302.216 53.9089 308.442 53.9089C314.669 53.9089 319.717 48.8612 319.717 42.6346C319.717 36.4081 314.669 31.3604 308.442 31.3604C302.216 31.3596 297.168 36.4073 297.168 42.6346Z" fill="#FAFAFA"></path><path d="M308.442 33.1403C302.516 33.1403 297.668 37.7155 297.213 43.5246C297.19 43.2303 297.168 42.9352 297.168 42.6346C297.168 36.4081 302.216 31.3604 308.442 31.3604C314.669 31.3604 319.717 36.4081 319.717 42.6346C319.717 42.9352 319.695 43.2303 319.672 43.5246C319.216 37.7147 314.368 33.1403 308.442 33.1403Z" fill="#E6E6E6"></path><path d="M301.322 42.6285C301.659 42.6285 305.3 42.6285 307.249 42.6285C307.249 40.6766 307.249 37.0308 307.249 36.7009C307.249 36.0417 307.784 35.5081 308.442 35.5081C309.1 35.5081 309.635 36.0417 309.635 36.7009C309.635 37.147 309.635 43.3751 309.635 43.8212C309.635 44.4796 309.1 45.014 308.442 45.014C308.005 45.014 301.758 45.014 301.322 45.014C300.663 45.014 300.129 44.4796 300.129 43.8212C300.129 43.1629 300.663 42.6285 301.322 42.6285Z" fill="#E0E0E0"></path><path d="M301.322 43.8275C300.663 43.8275 300.129 43.2931 300.129 42.6347C300.129 41.9756 300.663 41.4419 301.322 41.4419C301.768 41.4419 307.996 41.4419 308.443 41.4419C309.101 41.4419 309.636 41.9756 309.636 42.6347C309.636 43.2931 309.101 43.8275 308.443 43.8275C308.006 43.8275 301.759 43.8275 301.322 43.8275Z" fill="#F5F5F5"></path><path d="M307.25 35.5136C307.25 34.8552 307.784 34.3208 308.443 34.3208C309.101 34.3208 309.636 34.8552 309.636 35.5136C309.636 35.9597 309.636 42.1879 309.636 42.634C309.636 43.2924 309.101 43.8268 308.443 43.8268C307.784 43.8268 307.25 43.2924 307.25 42.634C307.25 42.1979 307.25 35.9504 307.25 35.5136Z" fill="#EBEBEB"></path><path d="M219.396 57.6209H198.129L200.489 30.6497H221.756L219.396 57.6209Z" fill="#EBEBEB"></path><path d="M219.398 57.6209H220.414L222.774 30.6497H221.758L219.398 57.6209Z" fill="#E0E0E0"></path><path d="M217.471 54.8714H200.539L202.418 33.3994H219.349L217.471 54.8714Z" fill="#E0E0E0"></path><path d="M216.233 53.1036H202.09L203.659 35.1675H217.802L216.233 53.1036Z" fill="#FAFAFA"></path><path d="M209.728 47.8346C212.417 47.8346 214.597 45.6542 214.597 42.965C214.597 40.2758 212.417 38.0955 209.728 38.0955C207.039 38.0955 207.039 47.8346 209.728 47.8346Z" fill="#E6E6E6"></path><path d="M200.957 57.6208L202.417 40.927H181.246L179.785 57.6208H200.957Z" fill="#F0F0F0"></path><path d="M200.957 57.6208L202.417 40.927H203.557L202.097 57.6208H200.957Z" fill="#E0E0E0"></path><path d="M198.948 55.9191L200.111 42.6287H183.257L182.094 55.9191H198.948Z" fill="#FAFAFA"></path><path d="M197.658 54.8247L198.629 43.7231H184.549L183.578 54.8247H197.658Z" fill="#EBEBEB"></path><path d="M191.116 51.7551C192.854 51.7551 194.263 50.3462 194.263 48.6082C194.263 46.8701 192.854 45.4612 191.116 45.4612C189.378 45.4612 189.378 51.7551 191.116 51.7551Z" fill="#F5F5F5"></path><path d="M116.779 231.014C116.717 230.96 116.683 230.881 116.679 230.798C116.608 229.278 115.694 214.358 106.556 204.136C98.8262 195.489 106.754 201.66 110.195 204.44C110.471 204.663 110.85 204.337 110.67 204.031C108.245 199.931 102.159 189.094 104.269 186.984C106.263 184.99 110.382 194.889 112.221 199.688C112.354 200.035 112.874 199.911 112.835 199.541C112.306 194.46 111.533 183.834 114.396 184.208C117.231 184.577 116.439 198.617 115.879 205.487C115.848 205.869 116.391 205.971 116.501 205.605C117.78 201.378 120.214 195.129 123.072 196.785C127.301 199.235 116.847 207.838 117.5 217.175C118.141 226.328 118.311 232.333 116.779 231.014Z" fill="#F5F5F5"></path><path d="M121.136 233.655C121.117 233.629 121.188 233.505 121.275 233.445C131.801 226.161 129.209 210.126 126.011 200.18C125.299 197.967 124.558 195.672 124.449 193.307C126.687 195.989 128.032 199.515 129.527 202.704C129.724 203.124 130.214 202.976 130.143 202.52C129.343 197.39 129.028 181.274 133.684 181.56C135.79 181.69 133.447 195.708 133.358 198.568C133.343 199.029 133.913 199.203 134.031 198.774C135.409 193.801 144.915 183.524 146.641 185.579C147.374 186.452 142.932 191.282 141.418 193.551C138.58 197.802 136.634 202.553 134.825 207.303C134.665 207.722 135.18 208.163 135.403 207.81C137.088 205.152 143.375 198.764 145.501 201.928C147.044 204.224 142.927 207.548 140.899 209.518C137.302 213.014 133.871 216.866 132.128 221.514C130.94 224.681 122.409 235.354 121.136 233.655Z" fill="#F5F5F5"></path><path d="M122.419 232.121C122.491 232.051 122.527 231.953 122.526 231.852C122.512 230.002 122.639 211.826 133.059 198.815C141.875 187.807 132.655 195.821 128.661 199.424C128.341 199.713 127.859 199.342 128.058 198.959C130.732 193.821 137.406 180.263 134.706 177.841C132.153 175.551 127.804 187.84 125.888 193.789C125.749 194.22 125.11 194.103 125.133 193.651C125.441 187.447 125.678 174.495 122.227 175.137C118.81 175.773 120.697 192.766 121.828 201.071C121.891 201.531 121.24 201.692 121.081 201.255C119.25 196.207 115.883 188.781 112.523 190.98C107.55 194.233 120.809 203.99 120.631 215.369C120.457 226.521 120.646 233.823 122.419 232.121Z" fill="#A1F39F"></path><path d="M129.461 259.968C132.62 248.191 134.699 231.605 134.699 227.52H111.141C111.141 231.605 113.221 248.191 116.379 259.968C116.959 262.132 118.926 263.632 121.168 263.632H124.672C126.913 263.632 128.88 262.132 129.461 259.968Z" fill="#FFDAC6"></path><path d="M387.243 262.874H366.038C363.462 262.874 361.336 260.859 361.199 258.286L358.605 209.655H394.677L392.083 258.286C391.945 260.859 389.82 262.874 387.243 262.874Z" fill="#E6E6E6"></path><path d="M381.52 212.639H371.746V222.413H381.52V212.639Z" fill="#FAFAFA"></path><path d="M381.52 224.82H371.746V234.594H381.52V224.82Z" fill="#FAFAFA"></path><path d="M381.52 237.001H371.746V246.775H381.52V237.001Z" fill="#FAFAFA"></path><path d="M381.52 249.182H371.746V258.956H381.52V249.182Z" fill="#FAFAFA"></path><path d="M395.774 209.656H357.499C356.964 209.656 356.531 209.223 356.531 208.689V207.079C356.531 206.545 356.964 206.112 357.499 206.112H395.774C396.308 206.112 396.741 206.545 396.741 207.079V208.689C396.74 209.223 396.307 209.656 395.774 209.656Z" fill="#F5F5F5"></path><path d="M389.725 249.182H384.043V258.956H389.006C389.138 258.706 389.232 258.434 389.247 258.135L389.725 249.182Z" fill="#FAFAFA"></path><path d="M369.237 249.182H363.555L364.032 258.135C364.047 258.435 364.141 258.706 364.273 258.956H369.236V249.182H369.237Z" fill="#FAFAFA"></path><path d="M369.226 237.001H362.895L363.416 246.775H369.226V237.001Z" fill="#FAFAFA"></path><path d="M369.227 224.82H362.246L362.767 234.594H369.227V224.82Z" fill="#FAFAFA"></path><path d="M369.229 212.639H361.598L362.12 222.413H369.229V212.639Z" fill="#FAFAFA"></path><path d="M384.043 237.001V246.775H389.854L390.375 237.001H384.043Z" fill="#FAFAFA"></path><path d="M384.043 224.82V234.594H390.503L391.024 224.82H384.043Z" fill="#FAFAFA"></path><path d="M384.043 212.639V222.413H391.153L391.675 212.639H384.043Z" fill="#FAFAFA"></path><path d="M363.106 154.467C357.624 154.467 351.148 144.449 345.434 135.609C341.687 129.811 338.046 124.185 334.172 120.115H346.988V113.919H331.271C334.082 110.717 336.743 106.602 339.474 102.378C343.767 95.7369 349.11 87.4725 353.194 87.4725H365.216V81.2761H353.194C345.737 81.2761 340.168 89.8922 334.271 99.0132C329.978 105.654 324.636 113.919 320.552 113.919H307.625H205.953H191.02H183.344C179.26 113.919 173.917 105.654 169.624 99.0132C163.728 89.8914 158.158 81.2761 150.701 81.2761H138.679V87.4725H150.701C154.785 87.4725 160.128 95.7369 164.42 102.378C167.151 106.602 169.813 110.717 172.623 113.919H116.934V120.115H179.407C175.533 124.186 171.893 129.811 168.145 135.609C162.431 144.448 155.954 154.467 150.472 154.467H127.686V160.663H150.473C159.328 160.663 166.139 150.128 173.349 138.973C179.063 130.134 185.54 120.115 191.021 120.115H205.954H307.626H322.558C328.041 120.115 334.517 130.134 340.231 138.973C347.442 150.127 354.253 160.663 363.107 160.663H385.894V154.467H363.106Z" fill="#263238"></path><g opacity="0.4"><path d="M328.416 118.636L328.086 119.114C332.65 122.263 336.968 128.61 341.734 135.968L342.222 135.652C337.422 128.241 333.069 121.844 328.416 118.636Z" fill="white"></path><path d="M348.261 144.78L347.785 145.113C350.453 148.93 352.678 151.627 354.785 153.601L355.183 153.177C353.105 151.231 350.906 148.562 348.261 144.78Z" fill="white"></path><path d="M343.223 138.259C344.225 139.808 345.227 141.349 346.233 142.845L346.715 142.522C345.711 141.028 344.711 139.489 343.711 137.943L343.223 138.259Z" fill="white"></path><path d="M357.255 154.905L356.914 155.375C359.06 156.931 361.086 157.686 363.106 157.686H378.476V157.105H363.106C361.212 157.106 359.298 156.385 357.255 154.905Z" fill="white"></path><path d="M385.897 157.106H381.25V157.687H385.897V157.106Z" fill="white"></path><path d="M121.581 116.557H116.934V117.138H121.581V116.557Z" fill="white"></path><path d="M144.107 116.557H126.086V117.138H144.107V116.557Z" fill="white"></path><path d="M148.609 116.557V117.138H184.652V116.557H183.342C181.981 116.557 180.613 116.093 179.159 115.138L178.84 115.624C179.428 116.011 180.005 116.32 180.574 116.558L148.609 116.557Z" fill="white"></path><path d="M297.287 116.557H279.266V117.138H297.287V116.557Z" fill="white"></path><path d="M337.839 117.138V116.557H323.321C323.892 116.32 324.468 116.01 325.056 115.623L324.737 115.138C323.282 116.093 321.913 116.557 320.554 116.557H315.015H312.276H307.629H301.797V117.138H307.629H312.276H315.015H322.561C323.603 117.138 324.679 117.365 325.758 117.816L325.982 117.28C325.853 117.226 325.723 117.186 325.594 117.138H337.839Z" fill="white"></path><path d="M274.76 116.557H265.75V117.138H274.76V116.557Z" fill="white"></path><path d="M261.25 116.557H225.207V117.138H261.25V116.557Z" fill="white"></path><path d="M346.987 116.557H342.34V117.138H346.987V116.557Z" fill="white"></path><path d="M335.817 102.688L335.33 102.372C332.917 106.078 330.105 110.264 327.277 113.041L327.684 113.455C330.554 110.638 333.387 106.421 335.817 102.688Z" fill="white"></path><path d="M353.197 84.4959H357.212V83.915H353.197C347.282 83.915 341.906 92.2205 337.164 99.5469L337.652 99.8621C342.313 92.6596 347.597 84.4952 353.197 84.4959Z" fill="white"></path><path d="M365.214 83.915H360.566V84.4959H365.214V83.915Z" fill="white"></path><path d="M176.619 113.041C173.791 110.264 170.98 106.078 168.565 102.372L168.078 102.688C170.509 106.42 173.342 110.638 176.212 113.455L176.619 113.041Z" fill="white"></path><path d="M166.249 99.8621L166.737 99.5469C161.994 92.2197 156.619 83.9143 150.703 83.915H146.688V84.4959H150.703C156.303 84.4952 161.587 92.6596 166.249 99.8621Z" fill="white"></path><path d="M143.327 83.915H138.68V84.4959H143.327V83.915Z" fill="white"></path><path d="M202.676 116.557H201.305V117.138H202.676H205.952H220.696V116.557H205.952H202.676Z" fill="white"></path><path d="M171.352 135.651L171.84 135.967C176.605 128.61 180.922 122.263 185.488 119.114L185.158 118.636C180.504 121.846 176.152 128.241 171.352 135.651Z" fill="white"></path><path d="M191.023 116.557H189.162V116.781C188.644 116.901 188.123 117.062 187.602 117.28L187.825 117.816C188.904 117.366 189.981 117.138 191.023 117.138H198.173H198.568V116.557H198.173H191.023V116.557Z" fill="white"></path><path d="M150.472 157.106H135.102V157.687H150.472C152.491 157.687 154.516 156.931 156.663 155.376L156.322 154.906C154.279 156.385 152.365 157.106 150.472 157.106Z" fill="white"></path><path d="M166.867 142.523L167.35 142.846C168.355 141.35 169.357 139.809 170.36 138.26L169.872 137.945C168.872 139.49 167.871 141.029 166.867 142.523Z" fill="white"></path><path d="M158.398 153.177L158.796 153.601C160.903 151.627 163.127 148.93 165.796 145.113L165.321 144.78C162.674 148.562 160.475 151.231 158.398 153.177Z" fill="white"></path><path d="M132.331 157.106H127.684V157.687H132.331V157.106Z" fill="white"></path></g><path d="M150.734 142.598H145.054C143.718 142.598 142.47 143.268 141.733 144.382L140.902 145.638C140.225 146.66 139.081 147.275 137.855 147.275H123.204C121.889 147.275 120.824 148.34 120.824 149.655V172.532H153.855V147.275L153.564 145.079C153.377 143.659 152.166 142.598 150.734 142.598Z" fill="#407BFF"></path><path opacity="0.2" d="M150.734 142.598H145.054C143.718 142.598 142.47 143.268 141.733 144.382L140.902 145.638C140.225 146.66 139.081 147.275 137.855 147.275H123.204C121.889 147.275 120.824 148.34 120.824 149.655V172.532H153.855V147.275L153.564 145.079C153.377 143.659 152.166 142.598 150.734 142.598Z" fill="white"></path><path d="M151.377 150.166H123.301V169.365H151.377V150.166Z" fill="#263238"></path><path opacity="0.9" d="M151.377 150.166H123.301V169.365H151.377V150.166Z" fill="white"></path><path d="M153.855 172.531H120.823L115.979 154.886C115.611 153.549 116.618 152.23 118.003 152.23H145.073C146.967 152.23 148.629 153.496 149.131 155.323L153.855 172.531Z" fill="#407BFF"></path><path opacity="0.6" d="M153.855 172.531H120.823L115.979 154.886C115.611 153.549 116.618 152.23 118.003 152.23H145.073C146.967 152.23 148.629 153.496 149.131 155.323L153.855 172.531Z" fill="white"></path><path d="M114.235 58.4973H120.362C121.804 58.4973 123.15 59.22 123.945 60.4221L124.842 61.7767C125.573 62.8797 126.807 63.5427 128.13 63.5427H143.936C145.353 63.5427 146.502 64.6921 146.502 66.1095V88.693C146.502 89.8509 145.564 90.7897 144.406 90.7897H112.964C111.806 90.7897 110.867 89.8509 110.867 88.693V63.5419L111.181 61.1726C111.384 59.6421 112.69 58.4973 114.235 58.4973Z" fill="#407BFF"></path><path opacity="0.6" d="M114.235 58.4973H120.362C121.804 58.4973 123.15 59.22 123.945 60.4221L124.842 61.7767C125.573 62.8797 126.807 63.5427 128.13 63.5427H143.936C145.353 63.5427 146.502 64.6921 146.502 66.1095V88.693C146.502 89.8509 145.564 90.7897 144.406 90.7897H112.964C111.806 90.7897 110.867 89.8509 110.867 88.693V63.5419L111.181 61.1726C111.384 59.6421 112.69 58.4973 114.235 58.4973Z" fill="white"></path><path d="M140.095 63.5437H136.93V85.4904H140.095V63.5437Z" fill="#263238"></path><path opacity="0.5" d="M140.095 63.5437H136.93V85.4904H140.095V63.5437Z" fill="white"></path><path d="M138.609 64.5852H136.18V66.3922H138.609V64.5852Z" fill="#263238"></path><path d="M138.609 68.5208H136.18V70.3278H138.609V68.5208Z" fill="#263238"></path><path d="M138.609 72.4556H136.18V74.2626H138.609V72.4556Z" fill="#263238"></path><path d="M138.609 76.3909H136.18V78.1979H138.609V76.3909Z" fill="#263238"></path><path d="M138.609 80.3264H136.18V82.1334H138.609V80.3264Z" fill="#263238"></path><path opacity="0.7" d="M138.609 64.5852H136.18V66.3922H138.609V64.5852Z" fill="white"></path><path opacity="0.7" d="M138.609 68.5208H136.18V70.3278H138.609V68.5208Z" fill="white"></path><path opacity="0.7" d="M138.609 72.4553H136.18V74.2623H138.609V72.4553Z" fill="white"></path><path opacity="0.7" d="M138.609 76.3909H136.18V78.1979H138.609V76.3909Z" fill="white"></path><path opacity="0.7" d="M138.609 80.3262H136.18V82.1332H138.609V80.3262Z" fill="white"></path><path d="M140.964 66.3923H138.535V68.1993H140.964V66.3923Z" fill="#263238"></path><path d="M140.964 70.3279H138.535V72.1349H140.964V70.3279Z" fill="#263238"></path><path d="M140.964 74.2632H138.535V76.0702H140.964V74.2632Z" fill="#263238"></path><path d="M140.964 78.198H138.535V80.005H140.964V78.198Z" fill="#263238"></path><path d="M140.964 82.1333H138.535V83.9403H140.964V82.1333Z" fill="#263238"></path><g opacity="0.8"><path d="M140.964 66.3923H138.535V68.1993H140.964V66.3923Z" fill="white"></path><path d="M140.964 70.3279H138.535V72.1349H140.964V70.3279Z" fill="white"></path><path d="M140.964 74.2632H138.535V76.0702H140.964V74.2632Z" fill="white"></path><path d="M140.964 78.198H138.535V80.005H140.964V78.198Z" fill="white"></path><path d="M140.964 82.1333H138.535V83.9403H140.964V82.1333Z" fill="white"></path></g><path d="M135.125 83.9404V91.1375H142.09V83.9404H135.125ZM140.97 89.8324H136.353V85.2471H140.97V89.8324Z" fill="#263238"></path><path opacity="0.7" d="M135.125 83.9404V91.1375H142.09V83.9404H135.125ZM140.97 89.8324H136.353V85.2471H140.97V89.8324Z" fill="white"></path><path d="M137.085 99.999H104.797V107.197L111.983 114.383H144.271V107.186L137.085 99.999Z" fill="#407BFF"></path><path opacity="0.3" d="M137.085 99.999H104.797V107.197L111.983 114.383H144.271V107.186L137.085 99.999Z" fill="white"></path><path d="M144.268 114.378H111.98V121.575H144.268V114.378Z" fill="#407BFF"></path><path opacity="0.3" d="M144.268 114.378H111.98V121.575H144.268V114.378Z" fill="white"></path><path d="M144.268 121.569H111.98V128.766H144.268V121.569Z" fill="#407BFF"></path><path opacity="0.6" d="M144.268 121.569H111.98V128.766H144.268V121.569Z" fill="white"></path><path d="M144.268 107.186H111.98V114.383H144.268V107.186Z" fill="#407BFF"></path><path d="M124.16 128.767H131.406V107.186L124.22 99.999H116.973L124.16 107.186V128.767Z" fill="#407BFF"></path><path opacity="0.2" d="M124.16 128.767H131.406V107.186L124.22 99.999H116.973L124.16 107.186V128.767Z" fill="black"></path><path d="M122.23 112.328V123.625H133.164V112.328H122.23ZM131.406 121.575H124.158V114.378H131.406V121.575Z" fill="#263238"></path><path opacity="0.5" d="M122.23 112.328V123.625H133.164V112.328H122.23ZM131.406 121.575H124.158V114.378H131.406V121.575Z" fill="white"></path><path d="M104.797 99.999V107.197L111.983 114.383V107.186L104.797 99.999Z" fill="#263238"></path><path opacity="0.5" d="M104.797 99.999V107.197L111.983 114.383V107.186L104.797 99.999Z" fill="white"></path><path d="M104.797 107.191V114.388L111.983 121.575V114.378L104.797 107.191Z" fill="#263238"></path><path opacity="0.6" d="M104.797 107.191V114.388L111.983 121.575V114.378L104.797 107.191Z" fill="white"></path><path d="M104.797 114.383V121.58L111.983 128.767V121.57L104.797 114.383Z" fill="#263238"></path><path opacity="0.8" d="M104.797 114.383V121.58L111.983 128.767V121.57L104.797 114.383Z" fill="white"></path><path d="M392.108 133.103H356.895V180.488H392.108V133.103Z" fill="#407BFF"></path><path opacity="0.7" d="M392.108 133.103H356.895V180.488H392.108V133.103Z" fill="white"></path><path opacity="0.7" d="M389.808 135.404H359.195V147.738H389.808V135.404Z" fill="white"></path><path opacity="0.7" d="M389.808 150.629H359.195V162.963H389.808V150.629Z" fill="white"></path><path d="M389.808 142.059L386.951 138.578L383.424 142.876L379.9 137.811L376.158 141.553L372.486 139.489L369.147 145.034L365.807 139.488L362.017 141.629L359.195 140.035V141.356L362.017 142.95L365.399 141.04L369.147 147.263L372.895 141.039L376.355 142.984L379.742 139.597L383.349 144.782L386.951 140.391L389.808 143.872V142.059Z" fill="#407BFF"></path><path opacity="0.5" d="M389.808 142.059L386.951 138.578L383.424 142.876L379.9 137.811L376.158 141.553L372.486 139.489L369.147 145.034L365.807 139.488L362.017 141.629L359.195 140.035V141.356L362.017 142.95L365.399 141.04L369.147 147.263L372.895 141.039L376.355 142.984L379.742 139.597L383.349 144.782L386.951 140.391L389.808 143.872V142.059Z" fill="white"></path><path d="M389.808 154.374L386.93 155.999L383.14 153.858L379.8 159.404L376.461 153.859L372.789 155.924L369.047 152.18L365.523 157.246L361.996 152.947L359.195 156.361V158.174L361.996 154.761L365.599 159.151L369.206 153.966L372.593 157.354L376.052 155.409L379.8 161.634L383.549 155.41L386.93 157.319L389.808 155.695V154.374Z" fill="#407BFF"></path><path opacity="0.5" d="M389.808 154.374L386.93 155.999L383.14 153.858L379.8 159.404L376.461 153.859L372.789 155.924L369.047 152.18L365.523 157.246L361.996 152.947L359.195 156.361V158.174L361.996 154.761L365.599 159.151L369.206 153.966L372.593 157.354L376.052 155.409L379.8 161.634L383.549 155.41L386.93 157.319L389.808 155.695V154.374Z" fill="white"></path><path d="M371.837 166.428C377.684 166.428 383.53 166.428 389.377 166.428C390.117 166.428 390.118 165.278 389.377 165.278C383.53 165.278 377.684 165.278 371.837 165.278C371.097 165.278 371.095 166.428 371.837 166.428Z" fill="#263238"></path><path d="M371.837 169.559C376.917 169.559 381.996 169.559 387.077 169.559C387.817 169.559 387.818 168.409 387.077 168.409C381.996 168.409 376.917 168.409 371.837 168.409C371.097 168.409 371.095 169.559 371.837 169.559Z" fill="#263238"></path><path d="M371.837 172.69C376.917 172.69 381.996 172.69 387.077 172.69C387.817 172.69 387.818 171.54 387.077 171.54C381.996 171.54 376.917 171.54 371.837 171.54C371.097 171.54 371.095 172.69 371.837 172.69Z" fill="#263238"></path><path d="M371.837 175.821C377.172 175.821 382.508 175.821 387.843 175.821C388.584 175.821 388.585 174.671 387.843 174.671C382.508 174.671 377.172 174.671 371.837 174.671C371.097 174.671 371.095 175.821 371.837 175.821Z" fill="#263238"></path><g opacity="0.4"><path d="M371.837 166.428C377.684 166.428 383.53 166.428 389.377 166.428C390.117 166.428 390.118 165.278 389.377 165.278C383.53 165.278 377.684 165.278 371.837 165.278C371.097 165.278 371.095 166.428 371.837 166.428Z" fill="white"></path><path d="M371.837 169.559C376.917 169.559 381.996 169.559 387.077 169.559C387.817 169.559 387.818 168.409 387.077 168.409C381.996 168.409 376.917 168.409 371.837 168.409C371.097 168.409 371.095 169.559 371.837 169.559Z" fill="white"></path><path d="M371.837 172.69C376.917 172.69 381.996 172.69 387.077 172.69C387.817 172.69 387.818 171.54 387.077 171.54C381.996 171.54 376.917 171.54 371.837 171.54C371.097 171.54 371.095 172.69 371.837 172.69Z" fill="white"></path><path d="M371.837 175.821C377.172 175.821 382.508 175.821 387.843 175.821C388.584 175.821 388.585 174.671 387.843 174.671C382.508 174.671 377.172 174.671 371.837 174.671C371.097 174.671 371.095 175.821 371.837 175.821Z" fill="white"></path></g><path d="M390.305 60.2161H358.293V103.293H390.305V60.2161Z" fill="#407BFF"></path><path opacity="0.6" d="M390.305 60.2161H358.293V103.293H390.305V60.2161Z" fill="white"></path><path opacity="0.7" d="M388.216 62.3074H360.387V73.5205H388.216V62.3074Z" fill="white"></path><path d="M371.954 76.8896C377.269 76.8896 382.585 76.8896 387.9 76.8896C388.573 76.8896 388.574 75.844 387.9 75.844C382.585 75.844 377.269 75.844 371.954 75.844C371.281 75.844 371.28 76.8896 371.954 76.8896Z" fill="#263238"></path><path d="M371.954 79.7361C376.572 79.7361 381.191 79.7361 385.809 79.7361C386.482 79.7361 386.482 78.6904 385.809 78.6904C381.191 78.6904 376.572 78.6904 371.954 78.6904C371.281 78.6904 371.28 79.7361 371.954 79.7361Z" fill="#263238"></path><path d="M371.954 82.5825C376.572 82.5825 381.191 82.5825 385.809 82.5825C386.482 82.5825 386.482 81.5369 385.809 81.5369C381.191 81.5369 376.572 81.5369 371.954 81.5369C371.281 81.5369 371.28 82.5825 371.954 82.5825Z" fill="#263238"></path><path d="M371.954 85.4289C376.805 85.4289 381.656 85.4289 386.506 85.4289C387.179 85.4289 387.18 84.3833 386.506 84.3833C381.656 84.3833 376.805 84.3833 371.954 84.3833C371.281 84.3833 371.28 85.4289 371.954 85.4289Z" fill="#263238"></path><path d="M371.954 88.2756C375.875 88.2756 379.797 88.2756 383.717 88.2756C384.39 88.2756 384.391 87.23 383.717 87.23C379.797 87.23 375.875 87.23 371.954 87.23C371.281 87.23 371.28 88.2756 371.954 88.2756Z" fill="#263238"></path><path d="M371.954 91.122C377.269 91.122 382.585 91.122 387.9 91.122C388.573 91.122 388.574 90.0764 387.9 90.0764C382.585 90.0764 377.269 90.0764 371.954 90.0764C371.281 90.0764 371.28 91.122 371.954 91.122Z" fill="#263238"></path><path d="M371.954 93.9685C376.572 93.9685 381.191 93.9685 385.809 93.9685C386.482 93.9685 386.482 92.9229 385.809 92.9229C381.191 92.9229 376.572 92.9229 371.954 92.9229C371.281 92.9229 371.28 93.9685 371.954 93.9685Z" fill="#263238"></path><path d="M371.954 96.8149C376.572 96.8149 381.191 96.8149 385.809 96.8149C386.482 96.8149 386.482 95.7693 385.809 95.7693C381.191 95.7693 376.572 95.7693 371.954 95.7693C371.281 95.7693 371.28 96.8149 371.954 96.8149Z" fill="#263238"></path><path d="M371.954 99.6614C376.805 99.6614 381.656 99.6614 386.506 99.6614C387.179 99.6614 387.18 98.6157 386.506 98.6157C381.656 98.6157 376.805 98.6157 371.954 98.6157C371.281 98.6157 371.28 99.6614 371.954 99.6614Z" fill="#263238"></path><g opacity="0.4"><path d="M371.954 76.8896C377.269 76.8896 382.585 76.8896 387.9 76.8896C388.573 76.8896 388.574 75.844 387.9 75.844C382.585 75.844 377.269 75.844 371.954 75.844C371.281 75.844 371.28 76.8896 371.954 76.8896Z" fill="white"></path></g><g opacity="0.4"><path d="M371.954 79.7361C376.572 79.7361 381.191 79.7361 385.809 79.7361C386.482 79.7361 386.482 78.6904 385.809 78.6904C381.191 78.6904 376.572 78.6904 371.954 78.6904C371.281 78.6904 371.28 79.7361 371.954 79.7361Z" fill="white"></path></g><g opacity="0.4"><path d="M371.954 82.5825C376.572 82.5825 381.191 82.5825 385.809 82.5825C386.482 82.5825 386.482 81.5369 385.809 81.5369C381.191 81.5369 376.572 81.5369 371.954 81.5369C371.281 81.5369 371.28 82.5825 371.954 82.5825Z" fill="white"></path></g><g opacity="0.4"><path d="M371.954 85.4289C376.805 85.4289 381.656 85.4289 386.506 85.4289C387.179 85.4289 387.18 84.3833 386.506 84.3833C381.656 84.3833 376.805 84.3833 371.954 84.3833C371.281 84.3833 371.28 85.4289 371.954 85.4289Z" fill="white"></path></g><g opacity="0.4"><path d="M371.954 88.2756C375.875 88.2756 379.797 88.2756 383.717 88.2756C384.39 88.2756 384.391 87.23 383.717 87.23C379.797 87.23 375.875 87.23 371.954 87.23C371.281 87.23 371.28 88.2756 371.954 88.2756Z" fill="white"></path></g><g opacity="0.4"><path d="M371.954 91.122C377.269 91.122 382.585 91.122 387.9 91.122C388.573 91.122 388.574 90.0764 387.9 90.0764C382.585 90.0764 377.269 90.0764 371.954 90.0764C371.281 90.0764 371.28 91.122 371.954 91.122Z" fill="white"></path></g><g opacity="0.4"><path d="M371.954 93.9685C376.572 93.9685 381.191 93.9685 385.809 93.9685C386.482 93.9685 386.482 92.9229 385.809 92.9229C381.191 92.9229 376.572 92.9229 371.954 92.9229C371.281 92.9229 371.28 93.9685 371.954 93.9685Z" fill="white"></path></g><g opacity="0.4"><path d="M371.954 96.8149C376.572 96.8149 381.191 96.8149 385.809 96.8149C386.482 96.8149 386.482 95.7693 385.809 95.7693C381.191 95.7693 376.572 95.7693 371.954 95.7693C371.281 95.7693 371.28 96.8149 371.954 96.8149Z" fill="white"></path></g><g opacity="0.4"><path d="M371.954 99.6614C376.805 99.6614 381.656 99.6614 386.506 99.6614C387.179 99.6614 387.18 98.6157 386.506 98.6157C381.656 98.6157 376.805 98.6157 371.954 98.6157C371.281 98.6157 371.28 99.6614 371.954 99.6614Z" fill="white"></path></g><path d="M368.235 76.3669H360.391V84.2108H368.235V76.3669Z" fill="#407BFF"></path><path opacity="0.3" d="M368.235 76.3669H360.391V84.2108H368.235V76.3669Z" fill="white"></path><path d="M368.983 68.2568H366.859V72.5037H368.983V68.2568Z" fill="#407BFF"></path><path d="M373.229 66.1331H371.105V72.5037H373.229V66.1331Z" fill="#407BFF"></path><path d="M377.475 67.1951H375.352V72.5038H377.475V67.1951Z" fill="#407BFF"></path><path d="M381.721 64.01H379.598V72.5044H381.721V64.01Z" fill="#407BFF"></path><path d="M374.629 96.0049H342.617V139.082H374.629V96.0049Z" fill="#407BFF"></path><path opacity="0.8" d="M374.629 96.0049H342.617V139.082H374.629V96.0049Z" fill="white"></path><path d="M356.279 100.622C361.593 100.622 366.909 100.622 372.224 100.622C372.897 100.622 372.898 99.5764 372.224 99.5764C366.909 99.5764 361.593 99.5764 356.279 99.5764C355.605 99.5764 355.605 100.622 356.279 100.622Z" fill="#263238"></path><path d="M356.279 103.468C360.896 103.468 365.515 103.468 370.133 103.468C370.806 103.468 370.807 102.423 370.133 102.423C365.515 102.423 360.896 102.423 356.279 102.423C355.605 102.423 355.605 103.468 356.279 103.468Z" fill="#263238"></path><path d="M356.279 106.315C360.896 106.315 365.515 106.315 370.133 106.315C370.806 106.315 370.807 105.269 370.133 105.269C365.515 105.269 360.896 105.269 356.279 105.269C355.605 105.269 355.605 106.315 356.279 106.315Z" fill="#263238"></path><path d="M356.279 109.161C361.129 109.161 365.98 109.161 370.83 109.161C371.503 109.161 371.504 108.116 370.83 108.116C365.98 108.116 361.129 108.116 356.279 108.116C355.605 108.116 355.605 109.161 356.279 109.161Z" fill="#263238"></path><path d="M356.279 112.008C360.199 112.008 364.121 112.008 368.042 112.008C368.715 112.008 368.715 110.962 368.042 110.962C364.121 110.962 360.199 110.962 356.279 110.962C355.605 110.962 355.605 112.008 356.279 112.008Z" fill="#263238"></path><path d="M356.279 114.854C361.593 114.854 366.909 114.854 372.224 114.854C372.897 114.854 372.898 113.809 372.224 113.809C366.909 113.809 361.593 113.809 356.279 113.809C355.605 113.809 355.605 114.854 356.279 114.854Z" fill="#263238"></path><path d="M356.279 117.701C360.896 117.701 365.515 117.701 370.133 117.701C370.806 117.701 370.807 116.655 370.133 116.655C365.515 116.655 360.896 116.655 356.279 116.655C355.605 116.655 355.605 117.701 356.279 117.701Z" fill="#263238"></path><path d="M356.279 120.547C360.896 120.547 365.515 120.547 370.133 120.547C370.806 120.547 370.807 119.501 370.133 119.501C365.515 119.501 360.896 119.501 356.279 119.501C355.605 119.501 355.605 120.547 356.279 120.547Z" fill="#263238"></path><path d="M356.279 126.243C360.199 126.243 364.121 126.243 368.042 126.243C368.715 126.243 368.715 125.198 368.042 125.198C364.121 125.198 360.199 125.198 356.279 125.198C355.605 125.198 355.605 126.243 356.279 126.243Z" fill="#263238"></path><path d="M356.279 129.09C361.593 129.09 366.909 129.09 372.224 129.09C372.897 129.09 372.898 128.044 372.224 128.044C366.909 128.044 361.593 128.044 356.279 128.044C355.605 128.044 355.605 129.09 356.279 129.09Z" fill="#263238"></path><path d="M356.279 131.936C360.896 131.936 365.515 131.936 370.133 131.936C370.806 131.936 370.807 130.89 370.133 130.89C365.515 130.89 360.896 130.89 356.279 130.89C355.605 130.89 355.605 131.936 356.279 131.936Z" fill="#263238"></path><path d="M356.279 134.782C360.896 134.782 365.515 134.782 370.133 134.782C370.806 134.782 370.807 133.737 370.133 133.737C365.515 133.737 360.896 133.737 356.279 133.737C355.605 133.737 355.605 134.782 356.279 134.782Z" fill="#263238"></path><path d="M356.279 123.394C361.129 123.394 365.98 123.394 370.83 123.394C371.503 123.394 371.504 122.348 370.83 122.348C365.98 122.348 361.129 122.348 356.279 122.348C355.605 122.348 355.605 123.394 356.279 123.394Z" fill="#263238"></path><g opacity="0.4"><path d="M356.279 100.622C361.593 100.622 366.909 100.622 372.224 100.622C372.897 100.622 372.898 99.5764 372.224 99.5764C366.909 99.5764 361.593 99.5764 356.279 99.5764C355.605 99.5764 355.605 100.622 356.279 100.622Z" fill="white"></path><path d="M356.279 103.468C360.896 103.468 365.515 103.468 370.133 103.468C370.806 103.468 370.807 102.423 370.133 102.423C365.515 102.423 360.896 102.423 356.279 102.423C355.605 102.423 355.605 103.468 356.279 103.468Z" fill="white"></path><path d="M356.279 106.315C360.896 106.315 365.515 106.315 370.133 106.315C370.806 106.315 370.807 105.269 370.133 105.269C365.515 105.269 360.896 105.269 356.279 105.269C355.605 105.269 355.605 106.315 356.279 106.315Z" fill="white"></path><path d="M356.279 109.161C361.129 109.161 365.98 109.161 370.83 109.161C371.503 109.161 371.504 108.116 370.83 108.116C365.98 108.116 361.129 108.116 356.279 108.116C355.605 108.116 355.605 109.161 356.279 109.161Z" fill="white"></path><path d="M356.279 112.008C360.199 112.008 364.121 112.008 368.042 112.008C368.715 112.008 368.715 110.962 368.042 110.962C364.121 110.962 360.199 110.962 356.279 110.962C355.605 110.962 355.605 112.008 356.279 112.008Z" fill="white"></path><path d="M356.279 114.854C361.593 114.854 366.909 114.854 372.224 114.854C372.897 114.854 372.898 113.809 372.224 113.809C366.909 113.809 361.593 113.809 356.279 113.809C355.605 113.809 355.605 114.854 356.279 114.854Z" fill="white"></path><path d="M356.279 117.701C360.896 117.701 365.515 117.701 370.133 117.701C370.806 117.701 370.807 116.655 370.133 116.655C365.515 116.655 360.896 116.655 356.279 116.655C355.605 116.655 355.605 117.701 356.279 117.701Z" fill="white"></path><path d="M356.279 120.547C360.896 120.547 365.515 120.547 370.133 120.547C370.806 120.547 370.807 119.501 370.133 119.501C365.515 119.501 360.896 119.501 356.279 119.501C355.605 119.501 355.605 120.547 356.279 120.547Z" fill="white"></path><path d="M356.279 126.243C360.199 126.243 364.121 126.243 368.042 126.243C368.715 126.243 368.715 125.198 368.042 125.198C364.121 125.198 360.199 125.198 356.279 125.198C355.605 125.198 355.605 126.243 356.279 126.243Z" fill="white"></path><path d="M356.279 129.09C361.593 129.09 366.909 129.09 372.224 129.09C372.897 129.09 372.898 128.044 372.224 128.044C366.909 128.044 361.593 128.044 356.279 128.044C355.605 128.044 355.605 129.09 356.279 129.09Z" fill="white"></path><path d="M356.279 131.936C360.896 131.936 365.515 131.936 370.133 131.936C370.806 131.936 370.807 130.89 370.133 130.89C365.515 130.89 360.896 130.89 356.279 130.89C355.605 130.89 355.605 131.936 356.279 131.936Z" fill="white"></path><path d="M356.279 134.782C360.896 134.782 365.515 134.782 370.133 134.782C370.806 134.782 370.807 133.737 370.133 133.737C365.515 133.737 360.896 133.737 356.279 133.737C355.605 133.737 355.605 134.782 356.279 134.782Z" fill="white"></path><path d="M356.279 123.394C361.129 123.394 365.98 123.394 370.83 123.394C371.503 123.394 371.504 122.348 370.83 122.348C365.98 122.348 361.129 122.348 356.279 122.348C355.605 122.348 355.605 123.394 356.279 123.394Z" fill="white"></path></g><path d="M347.527 115.043L346.264 113.779C345.394 114.649 344.855 115.851 344.855 117.179H346.642C346.642 116.345 346.981 115.589 347.527 115.043Z" fill="#407BFF"></path><path d="M349.662 120.199C347.994 120.199 346.642 118.846 346.642 117.179H344.855C344.855 119.834 347.008 121.986 349.662 121.986V120.199Z" fill="#407BFF"></path><path opacity="0.3" d="M349.662 120.199C347.994 120.199 346.642 118.846 346.642 117.179H344.855C344.855 119.834 347.008 121.986 349.662 121.986V120.199Z" fill="white"></path><path d="M347.525 115.043C348.072 114.496 348.827 114.158 349.66 114.158V112.371C348.333 112.371 347.132 112.909 346.262 113.779L347.525 115.043Z" fill="#407BFF"></path><path opacity="0.5" d="M347.525 115.043C348.072 114.496 348.827 114.158 349.66 114.158V112.371C348.333 112.371 347.132 112.909 346.262 113.779L347.525 115.043Z" fill="black"></path><path d="M352.684 117.178C352.684 118.846 351.332 120.198 349.664 120.198V121.985C352.319 121.985 354.471 119.832 354.471 117.178C354.471 114.524 352.318 112.371 349.664 112.371V114.158C351.332 114.158 352.684 115.51 352.684 117.178Z" fill="#407BFF"></path><path opacity="0.2" d="M351.805 119.314L353.068 120.577C353.938 119.708 354.476 118.506 354.476 117.178H352.689C352.689 118.012 352.352 118.767 351.805 119.314Z" fill="black"></path><path d="M347.529 105.967L346.266 107.23C347.135 108.1 348.338 108.638 349.665 108.638V106.852C348.831 106.852 348.076 106.514 347.529 105.967Z" fill="#407BFF"></path><path d="M352.688 103.832C352.688 105.5 351.336 106.852 349.668 106.852V108.639C352.323 108.639 354.475 106.486 354.475 103.832H352.688Z" fill="#407BFF"></path><path opacity="0.3" d="M352.688 103.832C352.688 105.5 351.336 106.852 349.668 106.852V108.639C352.323 108.639 354.475 106.486 354.475 103.832H352.688Z" fill="white"></path><path d="M347.531 105.967C346.984 105.42 346.646 104.666 346.646 103.832H344.859C344.859 105.159 345.398 106.361 346.268 107.231L347.531 105.967Z" fill="#407BFF"></path><path opacity="0.5" d="M347.531 105.967C346.984 105.42 346.646 104.666 346.646 103.832H344.859C344.859 105.159 345.398 106.361 346.268 107.231L347.531 105.967Z" fill="black"></path><path d="M349.666 100.812C351.335 100.812 352.686 102.164 352.686 103.832H354.473C354.473 101.177 352.321 99.0249 349.666 99.0249C347.012 99.0249 344.859 101.177 344.859 103.832H346.646C346.645 102.164 347.998 100.812 349.666 100.812Z" fill="#407BFF"></path><path opacity="0.2" d="M351.804 101.696L353.067 100.433C352.198 99.5632 350.996 99.0249 349.668 99.0249V100.812C350.502 100.812 351.257 101.149 351.804 101.696Z" fill="black"></path><path d="M351.809 128.39L353.072 127.125C353.942 127.995 354.48 129.197 354.48 130.525H352.693C352.693 129.691 352.355 128.936 351.809 128.39Z" fill="#407BFF"></path><path d="M349.668 133.545C351.336 133.545 352.688 132.192 352.688 130.525H354.475C354.475 133.18 352.322 135.332 349.668 135.332V133.545Z" fill="#407BFF"></path><path opacity="0.3" d="M349.668 133.545C351.336 133.545 352.688 132.192 352.688 130.525H354.475C354.475 133.18 352.322 135.332 349.668 135.332V133.545Z" fill="white"></path><path d="M351.803 128.389C351.257 127.843 350.502 127.505 349.668 127.505V125.718C350.996 125.718 352.197 126.256 353.067 127.126L351.803 128.389Z" fill="#407BFF"></path><path opacity="0.5" d="M351.803 128.389C351.257 127.843 350.502 127.505 349.668 127.505V125.718C350.996 125.718 352.197 126.256 353.067 127.126L351.803 128.389Z" fill="black"></path><path d="M346.646 130.525C346.646 132.193 347.999 133.545 349.666 133.545V135.332C347.011 135.332 344.859 133.179 344.859 130.525C344.859 127.87 347.012 125.718 349.666 125.718V127.505C347.999 127.504 346.646 128.856 346.646 130.525Z" fill="#407BFF"></path><path opacity="0.2" d="M347.531 132.66L346.268 133.924C345.398 133.054 344.859 131.852 344.859 130.524H346.646C346.646 131.358 346.985 132.114 347.531 132.66Z" fill="black"></path><path d="M278.005 187.026H259.27V181.781H278.005C279.138 181.781 280.056 182.7 280.056 183.832V184.974C280.056 186.107 279.137 187.026 278.005 187.026Z" fill="#263238"></path><path d="M262.515 187.026H222.648C221.593 187.026 220.738 186.171 220.738 185.116V183.691C220.738 182.636 221.593 181.781 222.648 181.781H262.515C263.569 181.781 264.424 182.636 264.424 183.691V185.116C264.424 186.171 263.569 187.026 262.515 187.026Z" fill="black"></path><path opacity="0.5" d="M262.515 187.026H222.648C221.593 187.026 220.738 186.171 220.738 185.116V183.691C220.738 182.636 221.593 181.781 222.648 181.781H262.515C263.569 181.781 264.424 182.636 264.424 183.691V185.116C264.424 186.171 263.569 187.026 262.515 187.026Z" fill="white"></path><path d="M253.746 181.781H263.848L257.38 157.622H253.746V181.781Z" fill="#263238"></path><path d="M262.38 181.781H241.763L239.711 157.622H255.913L262.38 181.781Z" fill="black"></path><path opacity="0.3" d="M262.38 181.781H241.763L239.711 157.622H255.913L262.38 181.781Z" fill="white"></path><path d="M314.322 88.1782H304.951L297.695 171.11H307.067C309.029 171.11 310.759 169.519 310.931 167.557L317.565 91.7311C317.736 89.7684 316.284 88.1782 314.322 88.1782Z" fill="#263238"></path><path d="M304.901 171.109H191.447C189.485 171.109 188.033 169.518 188.205 167.556L194.839 91.7301C195.011 89.7682 196.741 88.1772 198.703 88.1772H312.157C314.118 88.1772 315.57 89.7674 315.398 91.7301L308.764 167.556C308.593 169.518 306.863 171.109 304.901 171.109Z" fill="#263238"></path><path opacity="0.7" d="M304.901 171.109H191.447C189.485 171.109 188.033 169.518 188.205 167.556L194.839 91.7301C195.011 89.7682 196.741 88.1772 198.703 88.1772H312.157C314.118 88.1772 315.57 89.7674 315.398 91.7301L308.764 167.556C308.593 169.518 306.863 171.109 304.901 171.109Z" fill="white"></path><path opacity="0.9" d="M301.872 161.43H196.168C194.466 161.43 193.207 160.05 193.356 158.348L198.867 95.3458C199.016 93.6434 200.517 92.2639 202.219 92.2639H307.923C309.625 92.2639 310.884 93.6442 310.735 95.3458L305.223 158.348C305.075 160.05 303.573 161.43 301.872 161.43Z" fill="#FAFAFA"></path><path d="M274.206 114.51H270.508L271.155 107.114H274.853L274.206 114.51Z" fill="#407BFF"></path><path opacity="0.2" d="M274.206 114.51H270.508L271.155 107.114H274.853L274.206 114.51Z" fill="black"></path><path d="M281.596 114.51H277.898L278.869 103.417H282.567L281.596 114.51Z" fill="#407BFF"></path><path d="M288.988 114.51H285.289L286.098 105.265H289.796L288.988 114.51Z" fill="#407BFF"></path><path d="M296.39 114.509H292.691L293.986 99.7188H297.683L296.39 114.509Z" fill="#407BFF"></path><path opacity="0.4" d="M296.39 114.509H292.691L293.986 99.7188H297.683L296.39 114.509Z" fill="black"></path><path d="M300.085 113.827C289.239 113.827 278.394 113.827 267.548 113.827C267.96 109.124 268.371 104.422 268.783 99.7188C268.86 98.8436 267.493 98.849 267.417 99.7188C266.986 104.649 266.555 109.58 266.123 114.51C266.091 114.877 266.462 115.193 266.806 115.193C277.899 115.193 288.992 115.193 300.085 115.193C300.964 115.193 300.965 113.827 300.085 113.827Z" fill="#407BFF"></path><path opacity="0.5" d="M300.085 113.827C289.239 113.827 278.394 113.827 267.548 113.827C267.96 109.124 268.371 104.422 268.783 99.7188C268.86 98.8436 267.493 98.849 267.417 99.7188C266.986 104.649 266.555 109.58 266.123 114.51C266.091 114.877 266.462 115.193 266.806 115.193C277.899 115.193 288.992 115.193 300.085 115.193C300.964 115.193 300.965 113.827 300.085 113.827Z" fill="white"></path><path d="M213.196 110.507L210.785 112.723C212.178 114.249 214.203 115.192 216.532 115.192L216.806 112.057C215.343 112.058 214.07 111.466 213.196 110.507Z" fill="#407BFF"></path><path opacity="0.5" d="M213.196 110.507L210.785 112.723C212.178 114.249 214.203 115.192 216.532 115.192L216.806 112.057C215.343 112.058 214.07 111.466 213.196 110.507Z" fill="black"></path><path d="M222.57 106.761C222.315 109.686 219.736 112.058 216.809 112.058L216.535 115.193C221.192 115.193 225.298 111.418 225.705 106.761H222.57Z" fill="#407BFF"></path><path opacity="0.1" d="M222.57 106.761C222.315 109.686 219.736 112.058 216.809 112.058L216.535 115.193C221.192 115.193 225.298 111.418 225.705 106.761H222.57Z" fill="black"></path><path d="M213.2 110.507C212.325 109.548 211.848 108.224 211.976 106.761H208.841C208.638 109.089 209.397 111.198 210.789 112.723L213.2 110.507Z" fill="#407BFF"></path><path d="M217.735 101.463C220.66 101.463 222.825 103.835 222.569 106.76H225.703C226.111 102.104 222.666 98.3286 218.009 98.3286C213.352 98.3286 209.247 102.104 208.84 106.76H211.974C212.23 103.835 214.809 101.463 217.735 101.463Z" fill="#407BFF"></path><path opacity="0.2" d="M217.739 101.463C220.664 101.463 222.829 103.835 222.573 106.76H225.707C226.115 102.104 222.67 98.3286 218.013 98.3286C213.356 98.3286 209.251 102.104 208.844 106.76H211.978C212.234 103.835 214.813 101.463 217.739 101.463Z" fill="white"></path><path opacity="0.6" d="M221.345 103.015L223.755 100.799C222.362 99.2735 220.337 98.3293 218.009 98.3293L217.734 101.464C219.197 101.463 220.47 102.056 221.345 103.015Z" fill="white"></path><path d="M236.672 110.507L234.262 112.723C235.654 114.249 237.68 115.192 240.008 115.192L240.282 112.057C238.819 112.058 237.547 111.466 236.672 110.507Z" fill="#407BFF"></path><path opacity="0.5" d="M236.672 110.507L234.262 112.723C235.654 114.249 237.68 115.192 240.008 115.192L240.282 112.057C238.819 112.058 237.547 111.466 236.672 110.507Z" fill="black"></path><path d="M246.047 106.761C245.791 109.686 243.212 112.058 240.286 112.058L240.012 115.193C244.668 115.193 248.774 111.418 249.182 106.761H246.047Z" fill="#407BFF"></path><path opacity="0.1" d="M246.047 106.761C245.791 109.686 243.212 112.058 240.286 112.058L240.012 115.193C244.668 115.193 248.774 111.418 249.182 106.761H246.047Z" fill="black"></path><path d="M236.676 110.507C235.801 109.548 235.325 108.224 235.452 106.761H232.318C232.114 109.089 232.873 111.198 234.266 112.723L236.676 110.507Z" fill="#407BFF"></path><path d="M241.211 101.463C244.137 101.463 246.302 103.835 246.045 106.76H249.18C249.587 102.104 246.143 98.3286 241.485 98.3286C236.829 98.3286 232.724 102.104 232.316 106.76H235.451C235.707 103.835 238.286 101.463 241.211 101.463Z" fill="#407BFF"></path><path opacity="0.2" d="M241.211 101.463C244.137 101.463 246.302 103.835 246.045 106.76H249.18C249.587 102.104 246.143 98.3286 241.485 98.3286C236.829 98.3286 232.724 102.104 232.316 106.76H235.451C235.707 103.835 238.286 101.463 241.211 101.463Z" fill="white"></path><path opacity="0.6" d="M244.821 103.015L247.231 100.799C245.839 99.2735 243.813 98.3293 241.485 98.3293L241.211 101.464C242.674 101.463 243.947 102.056 244.821 103.015Z" fill="white"></path><path d="M271.959 141.942H267.543L267.929 137.53H272.345L271.959 141.942ZM268.588 140.985H271.082L271.3 138.487H268.806L268.588 140.985Z" fill="#407BFF"></path><path d="M271.365 148.663H266.949L267.335 144.25H271.751L271.365 148.663ZM267.993 147.706H270.487L270.706 145.208H268.212L267.993 147.706Z" fill="#407BFF"></path><path d="M270.784 155.384H266.367L266.754 150.971H271.17L270.784 155.384ZM267.412 154.427H269.906L270.125 151.929H267.63L267.412 154.427Z" fill="#407BFF"></path><path d="M275.026 140.913C274.431 140.913 273.991 140.431 274.043 139.836C274.095 139.242 274.62 138.76 275.214 138.76H289.984C290.579 138.76 291.019 139.242 290.967 139.836C290.915 140.431 290.391 140.913 289.796 140.913H275.026Z" fill="#407BFF"></path><path opacity="0.7" d="M275.026 140.913C274.431 140.913 273.991 140.431 274.043 139.836C274.095 139.242 274.62 138.76 275.214 138.76H289.984C290.579 138.76 291.019 139.242 290.967 139.836C290.915 140.431 290.391 140.913 289.796 140.913H275.026Z" fill="white"></path><path d="M273.858 154.255C273.263 154.255 272.823 153.774 272.875 153.179C272.927 152.584 273.452 152.102 274.046 152.102H286.423C287.018 152.102 287.458 152.584 287.406 153.179C287.354 153.774 286.829 154.255 286.235 154.255H273.858Z" fill="#407BFF"></path><path opacity="0.4" d="M273.858 154.255C273.263 154.255 272.823 153.774 272.875 153.179C272.927 152.584 273.452 152.102 274.046 152.102H286.423C287.018 152.102 287.458 152.584 287.406 153.179C287.354 153.774 286.829 154.255 286.235 154.255H273.858Z" fill="white"></path><path d="M274.444 147.534C273.849 147.534 273.409 147.052 273.461 146.457C273.513 145.862 274.037 145.381 274.632 145.381H286.051C286.646 145.381 287.086 145.862 287.034 146.457C286.982 147.052 286.458 147.534 285.863 147.534H274.444Z" fill="#407BFF"></path><path opacity="0.2" d="M274.444 147.534C273.849 147.534 273.409 147.052 273.461 146.457C273.513 145.862 274.037 145.381 274.632 145.381H286.051C286.646 145.381 287.086 145.862 287.034 146.457C286.982 147.052 286.458 147.534 285.863 147.534H274.444Z" fill="white"></path><path d="M260.118 148.338C259.004 146.818 257.891 145.299 256.777 143.78C256.529 143.442 256.018 143.282 255.693 143.64C254.513 144.94 253.333 146.24 252.153 147.539C251.225 146.013 250.297 144.487 249.369 142.962C249.131 142.57 248.615 142.519 248.285 142.822C247.063 143.945 245.868 145.106 244.617 146.198C244.245 145.994 243.883 145.761 243.519 145.546C242.846 145.147 242.173 144.749 241.499 144.351C241.161 144.151 240.766 144.292 240.554 144.599C239.363 146.326 238.171 148.054 236.98 149.782C236.09 148.055 235.201 146.327 234.311 144.599C234.136 144.259 233.681 144.182 233.366 144.351C232.798 144.657 232.229 144.963 231.661 145.269C231.313 145.456 230.142 146.041 229.812 146.3C229.545 146.056 228.529 145.533 228.328 145.413C227.732 145.059 227.136 144.705 226.54 144.35C225.774 143.896 225.079 145.089 225.843 145.543C226.835 146.132 228.601 147.765 229.768 147.762C230.827 147.76 232.328 146.641 233.441 145.92C234.393 147.77 235.345 149.619 236.296 151.468C236.551 151.962 237.214 151.868 237.489 151.468C238.777 149.602 240.065 147.735 241.352 145.869C242.354 146.461 243.356 147.054 244.358 147.646C244.631 147.807 244.969 147.746 245.195 147.538C246.337 146.488 247.479 145.439 248.621 144.388C249.563 145.937 250.505 147.487 251.447 149.036C251.668 149.4 252.226 149.512 252.531 149.175C253.729 147.855 254.927 146.535 256.126 145.216C257.059 146.489 257.992 147.762 258.926 149.036C259.445 149.744 260.644 149.056 260.118 148.338Z" fill="#407BFF"></path><path d="M258.994 154.004C248.025 154.004 237.056 154.004 226.088 154.004C226.504 149.248 226.92 144.491 227.337 139.736C227.414 138.85 226.032 138.856 225.955 139.736C225.519 144.722 225.083 149.708 224.647 154.694C224.614 155.067 224.989 155.385 225.337 155.385C236.556 155.385 247.774 155.385 258.994 155.385C259.882 155.384 259.884 154.004 258.994 154.004Z" fill="#407BFF"></path><path opacity="0.5" d="M258.994 154.004C248.025 154.004 237.056 154.004 226.088 154.004C226.504 149.248 226.92 144.491 227.337 139.736C227.414 138.85 226.032 138.856 225.955 139.736C225.519 144.722 225.083 149.708 224.647 154.694C224.614 155.067 224.989 155.385 225.337 155.385C236.556 155.385 247.774 155.385 258.994 155.385C259.882 155.384 259.884 154.004 258.994 154.004Z" fill="white"></path><path d="M294.828 133.725H236.098L237.408 118.74H296.14L294.828 133.725Z" fill="#407BFF"></path><path opacity="0.9" d="M294.828 133.725H236.098L237.408 118.74H296.14L294.828 133.725Z" fill="white"></path><path d="M295.871 134.866H234.855L236.367 117.599H297.382L295.871 134.866ZM237.339 132.582H293.787L294.898 119.882H238.451L237.339 132.582Z" fill="#263238"></path><path d="M249.368 128.242L249.264 129.43H244.312L244.872 123.034H249.705L249.601 124.222H246.239L246.117 125.611H249.086L248.985 126.762H246.016L245.887 128.242H249.368Z" fill="#407BFF"></path><path d="M254.413 129.43L253.063 127.21L251.352 129.43H249.652L252.303 126.177L250.33 123.035H252.011L253.3 125.109L254.925 123.035H256.524L254.025 126.123L256.12 129.43L254.413 129.43Z" fill="#407BFF"></path><path d="M258.406 124.24H256.359L256.465 123.034H262.038L261.932 124.24H259.886L259.432 129.43H257.952L258.406 124.24Z" fill="#407BFF"></path><path d="M266.344 129.43L265.267 127.648H265.193H263.905L263.75 129.43H262.27L262.829 123.034H265.597C266.163 123.034 266.647 123.129 267.048 123.318C267.448 123.507 267.746 123.775 267.942 124.122C268.137 124.469 268.213 124.881 268.172 125.355C268.13 125.83 267.98 126.24 267.722 126.584C267.463 126.928 267.116 127.191 266.679 127.374L267.934 129.43H266.344ZM266.399 124.528C266.184 124.336 265.854 124.24 265.41 124.24H264.204L264.008 126.47H265.214C265.659 126.47 266.005 126.372 266.254 126.177C266.502 125.983 266.642 125.709 266.673 125.355C266.705 124.996 266.613 124.72 266.399 124.528Z" fill="#407BFF"></path><path d="M273.32 128.059H270.351L269.665 129.43H268.148L271.558 123.034H273.02L275.319 129.43H273.766L273.32 128.059ZM272.953 126.936L272.153 124.487L270.924 126.936H272.953Z" fill="#407BFF"></path><path d="M277.215 129.114C276.713 128.831 276.334 128.439 276.076 127.936C275.818 127.434 275.717 126.866 275.772 126.232C275.828 125.599 276.029 125.031 276.374 124.528C276.72 124.026 277.168 123.633 277.72 123.35C278.271 123.067 278.876 122.926 279.534 122.926C280.088 122.926 280.581 123.023 281.011 123.218C281.441 123.413 281.793 123.693 282.066 124.059L281.039 124.936C280.65 124.437 280.135 124.187 279.496 124.187C279.101 124.187 278.74 124.273 278.414 124.447C278.088 124.62 277.824 124.863 277.624 125.174C277.423 125.484 277.305 125.837 277.27 126.233C277.236 126.63 277.291 126.982 277.438 127.293C277.584 127.603 277.806 127.846 278.101 128.02C278.397 128.193 278.742 128.28 279.138 128.28C279.778 128.28 280.335 128.028 280.812 127.522L281.685 128.399C281.348 128.77 280.946 129.054 280.479 129.248C280.011 129.444 279.499 129.54 278.946 129.54C278.294 129.539 277.717 129.398 277.215 129.114Z" fill="#407BFF"></path><path d="M284.308 124.24H282.262L282.367 123.034H287.94L287.835 124.24H285.788L285.334 129.43H283.854L284.308 124.24Z" fill="#407BFF"></path><path d="M336.69 192.309H177.418V281.361H336.69V192.309Z" fill="#407BFF"></path><path d="M165.654 281.361H180.508V192.309H165.654V281.361Z" fill="#407BFF"></path><path opacity="0.3" d="M165.654 281.361H180.508V192.309H165.654V281.361Z" fill="white"></path><path d="M325.625 192.309H162.535V200.19H325.625V192.309Z" fill="#407BFF"></path><path opacity="0.6" d="M325.625 192.309H162.535V200.19H325.625V192.309Z" fill="white"></path><path d="M165.653 192.309H159.418V281.361H165.653V192.309Z" fill="#407BFF"></path><path opacity="0.5" d="M165.653 192.309H159.418V281.361H165.653V192.309Z" fill="white"></path><path d="M329.978 281.361H344.832V192.309H329.978V281.361Z" fill="#407BFF"></path><path opacity="0.3" d="M329.978 281.361H344.832V192.309H329.978V281.361Z" fill="white"></path><path d="M335.093 194.01H348.566V187.174H335.093V194.01Z" fill="#407BFF"></path><path opacity="0.3" d="M335.093 194.01H348.566V187.174H335.093V194.01Z" fill="white"></path><path d="M319.489 204.441H252.203V281.361H319.489V204.441Z" fill="#407BFF"></path><path opacity="0.5" d="M319.489 204.441H252.203V281.361H319.489V204.441Z" fill="white"></path><path d="M323.748 204.441H319.496V281.361H323.748V204.441Z" fill="#407BFF"></path><path opacity="0.2" d="M323.748 204.441H319.496V281.361H323.748V204.441Z" fill="white"></path><path d="M315.24 229.709H256.457V247.502H315.24V229.709Z" fill="#407BFF"></path><path d="M315.24 208.633H256.457V226.426H315.24V208.633Z" fill="#407BFF"></path><path d="M315.24 250.784H256.457V268.578H315.24V250.784Z" fill="#407BFF"></path><g opacity="0.7"><path d="M315.24 229.709H256.457V247.502H315.24V229.709Z" fill="white"></path><path d="M315.24 208.633H256.457V226.426H315.24V208.633Z" fill="white"></path><path d="M315.24 250.784H256.457V268.578H315.24V250.784Z" fill="white"></path></g><path d="M329.977 192.309H323.742V281.361H329.977V192.309Z" fill="#407BFF"></path><path opacity="0.1" d="M336.69 192.309H177.418V281.361H336.69V192.309Z" fill="white"></path><path opacity="0.5" d="M329.977 192.309H323.742V281.361H329.977V192.309Z" fill="white"></path><path d="M335.1 187.174H154.297V194.009H335.1V187.174Z" fill="#407BFF"></path><path opacity="0.6" d="M335.1 187.174H154.297V194.009H335.1V187.174Z" fill="white"></path><path d="M286.018 215.595C285.642 215.595 284.353 215.595 283.977 215.595C282.909 215.595 282.043 216.461 282.043 217.53C282.043 218.598 282.909 219.464 283.977 219.464C284.353 219.464 285.642 219.464 286.018 219.464C287.086 219.464 287.952 218.598 287.952 217.53C287.952 216.461 287.086 215.595 286.018 215.595Z" fill="#407BFF"></path><path d="M286.018 236.671C285.642 236.671 284.353 236.671 283.977 236.671C282.909 236.671 282.043 237.537 282.043 238.605C282.043 239.673 282.909 240.539 283.977 240.539C284.353 240.539 285.642 240.539 286.018 240.539C287.086 240.539 287.952 239.673 287.952 238.605C287.952 237.537 287.086 236.671 286.018 236.671Z" fill="#407BFF"></path><path d="M286.018 257.747C285.642 257.747 284.353 257.747 283.977 257.747C282.909 257.747 282.043 258.613 282.043 259.681C282.043 260.749 282.909 261.615 283.977 261.615C284.353 261.615 285.642 261.615 286.018 261.615C287.086 261.615 287.952 260.749 287.952 259.681C287.952 258.613 287.086 257.747 286.018 257.747Z" fill="#407BFF"></path><path opacity="0.3" d="M285.911 217.53C285.911 218.598 285.045 219.464 283.977 219.464C282.909 219.464 282.043 218.598 282.043 217.53C282.043 216.461 282.909 215.595 283.977 215.595C285.045 215.595 285.911 216.461 285.911 217.53Z" fill="#FAFAFA"></path><path opacity="0.3" d="M285.911 238.605C285.911 239.673 285.045 240.539 283.977 240.539C282.909 240.539 282.043 239.673 282.043 238.605C282.043 237.537 282.909 236.671 283.977 236.671C285.045 236.671 285.911 237.537 285.911 238.605Z" fill="#FAFAFA"></path><path opacity="0.3" d="M285.911 259.681C285.911 260.749 285.045 261.615 283.977 261.615C282.909 261.615 282.043 260.749 282.043 259.681C282.043 258.613 282.909 257.747 283.977 257.747C285.045 257.747 285.911 258.613 285.911 259.681Z" fill="#FAFAFA"></path><path d="M218.134 109.267C217.028 110.83 219.468 115.806 219.468 115.806L208.477 117.137L210.627 105.155C210.627 105.155 219.439 107.421 218.134 109.267Z" fill="#CE7A63"></path><path opacity="0.2" d="M217.963 111.509C217.793 110.597 217.787 109.761 218.137 109.267C218.949 108.12 215.851 106.81 213.391 105.983C213.972 107.148 215.616 110.095 217.963 111.509Z" fill="black"></path><path d="M244.623 272.984L245.794 284.168L240.636 285.136L237.535 274.341L244.623 272.984Z" fill="#CE7A63"></path><path d="M245.686 282.255L239.622 283.47C239.393 283.516 239.227 283.714 239.221 283.948L239.114 289.101C239.1 289.558 239.461 289.939 239.918 289.952C239.976 289.953 240.035 289.949 240.093 289.938C242.271 289.462 244.191 288.953 246.913 288.411C250.125 287.769 249.387 288.316 253.174 287.613C255.455 287.187 255.354 284.518 254.363 284.584C249.836 284.913 249.111 283.672 247.091 282.433C246.66 282.203 246.16 282.14 245.686 282.255Z" fill="#263238"></path><path opacity="0.2" d="M239.583 281.472L245.431 280.701L244.623 272.984L237.535 274.341L239.583 281.472Z" fill="black"></path><path d="M199.995 270.718L196.484 284.582L191.531 283.885L192.847 270.32L199.995 270.718Z" fill="#CE7A63"></path><path d="M197.139 282.84L190.97 282.406C190.737 282.389 190.524 282.536 190.458 282.759L188.989 287.7C188.856 288.138 189.102 288.6 189.539 288.734C189.596 288.751 189.653 288.761 189.712 288.767C191.939 288.885 193.925 288.902 196.694 289.101C199.962 289.332 199.105 289.665 202.942 289.99C205.255 290.184 205.864 287.583 204.891 287.384C200.439 286.502 200.068 285.113 198.448 283.383C198.093 283.048 197.627 282.854 197.139 282.84Z" fill="#263238"></path><path opacity="0.2" d="M191.84 280.734L197.252 281.564L199.839 271.345C197.466 271.093 193.581 270.703 192.82 270.627L191.84 280.734Z" fill="black"></path><path d="M205.355 164.585C205.355 164.585 203.647 169.54 203.399 181.605C203.251 188.813 202.546 200.226 202.004 208.244C201.845 210.59 201.7 212.645 201.586 214.219C201.442 216.221 200.966 218.178 200.207 220.026C199.678 221.312 199.016 223.073 198.334 225.27C197.248 228.766 196.108 233.366 195.367 238.912C193.563 252.428 191.488 278.607 191.488 278.607L198.176 279.475L214.639 218.463L232.184 164.538L205.355 164.585Z" fill="#263238"></path><path opacity="0.2" d="M222.822 193.675L222.112 188.364L216.372 183.511L214.441 182.56C214.441 182.56 218.912 193.845 217.791 208.618L222.822 193.675Z" fill="black"></path><path d="M237.438 164.829L245.487 278.148L238.674 279.306C238.674 279.306 229.561 247.948 228.02 230.612C227.836 228.542 227.76 226.671 227.82 225.078C227.91 222.717 227.563 220.361 226.896 218.106L225.94 214.87L220.57 196.698C219.443 192.883 217.692 189.28 215.254 186.205C212.462 182.683 209.007 175.856 210.441 164.499L235.654 162.754L237.438 164.829Z" fill="#263238"></path><path d="M212.238 157.674C212.238 157.674 216.152 156.872 217.464 156.996C218.562 157.099 221.655 158.371 221.655 158.371C222.963 158.8 223.327 160.476 222.317 161.41C222.317 161.41 220.167 164.166 219.092 164.393C216.948 164.847 210.797 161.556 210.797 161.556L212.238 157.674Z" fill="#CE7A63"></path><path d="M212.041 155.8L209.867 162.811L211.953 162.984L213.866 156.859L212.041 155.8Z" fill="#263238"></path><path opacity="0.2" d="M212.041 155.8L209.867 162.811L211.953 162.984L213.866 156.859L212.041 155.8Z" fill="white"></path><path d="M199.176 122.402C198.179 121.035 196.044 121.319 195.327 122.852C192.887 128.072 186.727 141.913 186.703 148.631C186.673 157.01 211.296 161.968 211.296 161.968L212.784 157.153L195.841 146.745L200.715 135.262C200.715 135.262 201.927 126.17 199.176 122.402Z" fill="#407BFF"></path><path opacity="0.1" d="M199.176 122.402C198.179 121.035 196.044 121.319 195.327 122.852C192.887 128.072 186.727 141.913 186.703 148.631C186.673 157.01 211.296 161.968 211.296 161.968L212.784 157.153L195.841 146.745L200.715 135.262C200.715 135.262 201.927 126.17 199.176 122.402Z" fill="black"></path><g opacity="0.4"><path d="M199.682 123.233L197.027 123.598L195.5 124.692L197.32 143.265L200.717 135.262C200.717 135.262 201.771 127.356 199.682 123.233Z" fill="black"></path><path d="M204.815 152.253L197.781 147.932L198.804 158.367C200.273 158.919 201.743 159.41 203.136 159.84L204.815 152.253Z" fill="black"></path></g><path d="M237.065 164.769C237.065 164.769 224.942 168.736 205.086 165.524C205.086 165.524 205.086 165.524 195.57 125.409C194.858 122.41 196.367 119.286 199.066 117.796C203.153 115.54 211.236 113.413 227.184 114.294C231.117 114.511 234.444 117.3 235.346 121.134L237.065 164.769Z" fill="#407BFF"></path><path d="M205.223 115.988L206.435 113.143C206.435 113.143 211.208 110.731 219.317 111.867L221.243 114.096C221.243 114.096 212.17 114.317 205.223 115.988Z" fill="#263238"></path><path d="M223.88 95.1576C223.989 95.6099 223.838 96.032 223.536 96.1002C223.233 96.1684 222.873 95.843 222.78 95.4008C222.685 94.9585 222.821 94.5263 223.125 94.4628C223.43 94.3985 223.766 94.7076 223.88 95.1576Z" fill="#263238"></path><path d="M223.473 96.5247L226.569 99.5516C226.569 99.5516 225.576 100.665 223.772 100.435L223.473 96.5247Z" fill="#BA4D3C"></path><path d="M205.805 97.1784C206.99 103.249 207.359 105.847 210.931 108.614C216.18 111.24 223.684 110.082 224.377 103.797C225.003 98.1412 222.964 89.1859 216.507 87.4401C211.905 86.1977 207.169 88.8257 205.929 93.3103C205.582 94.5705 205.539 95.895 205.805 97.1784Z" fill="#CE7A63"></path><path d="M221.592 93.7325C221.676 93.7333 221.753 93.6938 221.8 93.6264C222.126 93.1059 222.69 92.7783 223.314 92.745C223.45 92.7481 223.56 92.6427 223.562 92.5095C223.56 92.3747 223.45 92.264 223.313 92.2585C222.521 92.2833 221.801 92.69 221.385 93.3475C221.31 93.4591 221.341 93.6117 221.455 93.6884L221.456 93.6891C221.497 93.7162 221.544 93.731 221.592 93.7325Z" fill="#263238"></path><path opacity="0.4" d="M236.669 145.005L235.858 130.312L230.606 123.36L227.731 120.698L225.516 122.25C225.516 122.25 225.824 130.348 236.669 145.005Z" fill="black"></path><path d="M238.377 124.122C241.286 129.466 242.414 132.626 243.41 133.952C243.543 134.129 243.76 134.217 243.979 134.186L260.98 131.716C261.271 131.674 261.55 131.848 261.642 132.128L263.011 136.338C263.113 136.652 262.944 136.991 262.631 137.097L246.691 142.5C243.805 143.621 240.528 143.057 238.204 141.011C233.813 137.145 230.441 132.849 227.369 126.779C226.144 124.36 223.303 119.887 227.97 115.952C231.842 112.687 236.447 120.575 238.377 124.122Z" fill="#407BFF"></path><path opacity="0.1" d="M238.377 124.122C241.286 129.466 242.414 132.626 243.41 133.952C243.543 134.129 243.76 134.217 243.979 134.186L260.98 131.716C261.271 131.674 261.55 131.848 261.642 132.128L263.011 136.338C263.113 136.652 262.944 136.991 262.631 137.097L246.691 142.5C243.805 143.621 240.528 143.057 238.204 141.011C233.813 137.145 230.441 132.849 227.369 126.779C226.144 124.36 223.303 119.887 227.97 115.952C231.842 112.687 236.447 120.575 238.377 124.122Z" fill="white"></path><path d="M261.468 132.119L264.974 128.001C265.355 127.554 265.858 127.228 266.423 127.064L274.669 124.666C274.948 124.585 275.245 124.714 275.376 124.973C275.535 125.287 275.392 125.672 275.066 125.806L271.658 127.201C271.414 127.3 271.263 127.547 271.285 127.809L271.454 129.87C271.557 131.133 270.856 132.326 269.703 132.851L267.224 133.979C267.128 134.017 267.032 134.055 266.936 134.092L262.683 135.522C262.344 135.636 261.982 135.433 261.902 135.085L261.34 132.646C261.296 132.46 261.344 132.264 261.468 132.119Z" fill="#CE7A63"></path><path d="M260.453 131.693L262.553 136.995C262.683 137.322 263.064 137.469 263.38 137.315L264.077 136.975C264.36 136.837 264.49 136.504 264.374 136.211L262.371 131.128C262.268 130.865 261.996 130.709 261.718 130.752L260.923 130.873C260.54 130.932 260.31 131.332 260.453 131.693Z" fill="#263238"></path><path d="M237.348 277.694L238.405 280.494L246.435 279.253L246.212 276.276L237.348 277.694Z" fill="#407BFF"></path><path opacity="0.2" d="M237.348 277.694L238.405 280.494L246.435 279.253L246.212 276.276L237.348 277.694Z" fill="black"></path><path d="M190.771 276.566L190.645 279.506L198.698 280.583L199.325 277.664L190.771 276.566Z" fill="#407BFF"></path><path opacity="0.2" d="M190.771 276.566L190.645 279.506L198.698 280.583L199.325 277.664L190.771 276.566Z" fill="black"></path><path d="M209.962 108.797C209.962 108.797 210.863 107.519 213.574 108.997C213.574 108.997 217.422 104.689 217.541 100.655C217.541 100.655 220.384 100.129 220.146 98.2915C219.908 96.4542 218.555 94.0524 218.841 92.3871C219.128 90.7226 221.891 86.3503 219.543 84.4101C217.194 82.4698 216.917 84.7819 215.588 85.0305C214.258 85.2799 206.227 85.5665 205.2 91.2524C205.2 91.2524 201.151 95.4776 204.664 100.909C208.175 106.341 209.962 108.797 209.962 108.797Z" fill="#263238"></path><path d="M217.66 96.8649L224.688 92.9604C224.688 92.9604 226.455 97.5589 225.608 97.7905C224.76 98.0221 223.647 94.412 223.647 94.412L218.643 96.7983L217.66 96.8649Z" fill="#407BFF"></path><path opacity="0.7" d="M223.828 94.5333L224.361 94.2173C224.361 94.2173 225.813 97.4673 225.414 97.7539C225.015 98.0397 223.828 94.5333 223.828 94.5333Z" fill="white"></path><path d="M218.626 97.0057C219.695 97.7198 220.433 98.8189 220.674 100.059C220.982 101.706 219.431 102.379 217.922 101.796C216.555 101.269 214.763 99.7755 215.141 98.1776C215.518 96.5805 217.307 96.1467 218.626 97.0057Z" fill="#CE7A63"></path></svg>