<svg xmlns="http://www.w3.org/2000/svg" width="323" height="298" viewBox="0 0 323 298" fill="none"><g opacity="0.3"><path d="M76.6601 106.273C102.06 98.9051 132.108 94.757 164.179 95.0198C168.411 95.0543 172.602 95.1649 176.746 95.3498C204.908 97.9221 214.923 127.663 197.945 140.674C190.152 146.646 180.757 146.583 176.746 146.557C172.602 146.373 168.411 146.262 164.179 146.227C132.109 145.964 102.06 150.112 76.6601 157.48C51.0138 163.728 49.4989 137.665 58.4677 121.723C61.4841 116.36 67.0887 109.328 76.6601 106.273Z" fill="#4A6EBA"></path><path d="M252.582 139.03C253.556 144.537 257.64 158.379 274.494 167.954C298.485 179.032 315.103 193.597 320.671 209.857C321.063 210.924 321.608 212.343 322.118 213.359C322.716 212.373 322.716 212.373 322.719 209.989V182.688C322.708 166.658 321.809 163.124 320.671 158.65C315.103 142.389 298.485 127.825 274.494 116.747C255.355 110.569 250.722 128.514 252.582 139.03Z" fill="#9BB6F1"></path><path d="M0 221.995C0.699026 213.878 1.25206 207.467 9.51473 196.279C26.9346 170.574 23.4174 140.699 13.7947 142.078C12.2436 142.3 10.6305 143.973 9.51473 145.073C3.66591 152.694 0.342434 160.889 0.0247755 169.44C0.00796348 169.89 0 170.339 0 170.788V221.995Z" fill="#42E8E0"></path></g><g opacity="0.11"><path d="M155.429 205.407C157.832 204.02 160.793 204.018 163.198 205.404L209.498 232.073C210.227 232.494 210.227 233.545 209.498 233.966L162.813 260.921C160.692 262.145 158.079 262.145 155.957 260.921L109.199 233.992C108.47 233.572 108.47 232.52 109.199 232.099L155.429 205.407Z" fill="url(#paint0_linear_2288_260710)"></path></g><g opacity="0.11"><path d="M155.429 197.607C157.832 196.22 160.793 196.218 163.198 197.604L209.498 224.273C210.227 224.694 210.227 225.745 209.498 226.167L162.813 253.121C160.692 254.345 158.079 254.345 155.957 253.121L109.199 226.192C108.47 225.772 108.47 224.719 109.199 224.299L155.429 197.607Z" fill="url(#paint1_linear_2288_260710)"></path></g><g opacity="0.11"><path d="M155.429 189.807C157.832 188.42 160.793 188.418 163.198 189.804L209.498 216.473C210.227 216.894 210.227 217.946 209.498 218.367L162.813 245.321C160.692 246.545 158.079 246.545 155.957 245.321L109.199 218.392C108.47 217.972 108.47 216.92 109.199 216.499L155.429 189.807Z" fill="url(#paint2_linear_2288_260710)"></path></g><g opacity="0.11"><path d="M155.429 182.008C157.832 180.62 160.793 180.618 163.198 182.004L209.498 208.673C210.227 209.094 210.227 210.146 209.498 210.567L162.813 237.521C160.692 238.745 158.079 238.745 155.957 237.521L109.199 210.592C108.47 210.172 108.47 209.12 109.199 208.699L155.429 182.008Z" fill="url(#paint3_linear_2288_260710)"></path></g><path opacity="0.11" d="M109.198 208.699L155.429 182.008C157.832 180.62 160.793 180.618 163.198 182.004L209.498 208.673C209.863 208.884 210.045 209.252 210.045 209.62V233.019C210.045 233.387 209.863 233.755 209.498 233.966L162.813 260.92C160.692 262.144 158.079 262.144 155.957 260.92L109.199 233.991C108.835 233.781 108.652 233.412 108.652 233.044V209.646C108.651 209.278 108.834 208.909 109.198 208.699Z" fill="url(#paint4_linear_2288_260710)"></path><g opacity="0.11"><path d="M154.598 162.882C157.511 161.2 161.101 161.198 164.018 162.878L220.159 195.216C221.043 195.727 221.043 197.002 220.159 197.512L163.55 230.196C160.978 231.681 157.81 231.681 155.238 230.196L98.5419 197.543C97.6579 197.033 97.6579 195.758 98.5419 195.247L154.598 162.882Z" fill="url(#paint5_linear_2288_260710)"></path></g><g opacity="0.11"><path d="M154.598 153.424C157.511 151.742 161.101 151.739 164.018 153.42L220.159 185.758C221.043 186.269 221.043 187.544 220.159 188.054L163.55 220.738C160.978 222.223 157.81 222.223 155.238 220.738L98.5419 188.085C97.6579 187.575 97.6579 186.3 98.5419 185.789L154.598 153.424Z" fill="url(#paint6_linear_2288_260710)"></path></g><g opacity="0.11"><path d="M154.598 143.967C157.511 142.285 161.101 142.283 164.018 143.963L220.159 176.301C221.043 176.811 221.043 178.087 220.159 178.597L163.55 211.281C160.978 212.765 157.81 212.765 155.238 211.281L98.5419 178.628C97.6579 178.117 97.6579 176.842 98.5419 176.332L154.598 143.967Z" fill="url(#paint7_linear_2288_260710)"></path></g><g opacity="0.11"><path d="M154.598 134.509C157.511 132.827 161.101 132.825 164.018 134.504L220.159 166.843C221.043 167.353 221.043 168.628 220.159 169.139L163.55 201.822C160.978 203.307 157.81 203.307 155.238 201.822L98.5419 169.17C97.6579 168.659 97.6579 167.384 98.5419 166.874L154.598 134.509Z" fill="url(#paint8_linear_2288_260710)"></path></g><path opacity="0.5" d="M98.5408 166.874L154.597 134.51C157.511 132.828 161.101 132.826 164.017 134.505L220.159 166.844C220.6 167.099 220.822 167.545 220.822 167.992V196.365C220.822 196.811 220.6 197.258 220.159 197.512L163.55 230.196C160.978 231.681 157.809 231.681 155.238 230.196L98.5417 197.543C98.1001 197.289 97.8789 196.842 97.8789 196.396V168.023C97.878 167.575 98.0992 167.129 98.5408 166.874Z" fill="url(#paint9_linear_2288_260710)"></path><g opacity="0.11"><path d="M154.598 134.509C157.511 132.827 161.101 132.825 164.018 134.504L220.159 166.843C221.043 167.353 221.043 168.628 220.159 169.139L163.55 201.822C160.978 203.307 157.81 203.307 155.238 201.822L98.5419 169.17C97.6579 168.659 97.6579 167.384 98.5419 166.874L154.598 134.509Z" fill="url(#paint10_linear_2288_260710)"></path></g><path d="M98.5412 167.864L155.237 200.516C157.809 202.001 160.978 202.001 163.55 200.516L220.159 167.833C220.376 167.707 220.54 167.534 220.651 167.338C220.988 167.937 220.825 168.755 220.159 169.14L163.55 201.823C160.978 203.308 157.809 203.308 155.237 201.823L98.5412 169.171C97.875 168.787 97.7121 167.968 98.0493 167.369C98.1599 167.565 98.3236 167.737 98.5412 167.864Z" fill="url(#paint11_linear_2288_260710)"></path><path opacity="0.2" d="M159.35 185.937C176.42 185.937 190.258 177.947 190.258 168.091C190.258 158.236 176.42 150.246 159.35 150.246C142.28 150.246 128.441 158.236 128.441 168.091C128.441 177.947 142.28 185.937 159.35 185.937Z" fill="#180D5B"></path><path d="M244.944 199.691C244.944 199.691 244.193 200.475 243.413 201.397C242.634 202.32 240.442 203.605 239.521 204.177C238.6 204.748 234.382 207.946 233.499 211.094C232.618 214.244 235.632 214.66 238.716 214.113C241.801 213.565 244.681 210.721 245.521 209.694C246.361 208.666 249.279 206.335 253.062 204.377C256.847 202.418 254.559 199.784 254.559 199.784L244.944 199.691Z" fill="#160A5B"></path><path d="M273.04 209.045C273.04 209.045 273.664 210.461 273.841 212.283C274.018 214.104 274.272 218.052 274.367 219.207C274.462 220.361 274.499 223.188 272.466 225.893C270.434 228.599 269.384 229.668 266.682 228.604C263.981 227.539 264.042 223.005 264.521 220.673C264.998 218.341 265.443 213.122 265.393 212.576C265.344 212.028 265.548 211.678 265.548 211.678L273.04 209.045Z" fill="#160A5B"></path><path d="M235.625 146.196C235.625 146.196 236.194 166.989 241.04 178.027C241.04 178.027 244.511 187.748 244.969 199.31C244.969 199.31 244.168 201.301 245.304 202.919C246.44 204.538 253.555 206.02 254.731 200.703C255.906 195.386 255.454 185.437 254.162 181.288C252.871 177.139 254.623 165.705 254.623 165.705C254.623 165.705 256.567 166.947 259.116 175.162C261.665 183.377 263.54 186.511 264.417 188.78C265.294 191.05 266.1 204.972 265.544 211.77C265.544 211.77 271.305 212.588 272.971 209.834C274.636 207.081 275.193 192.834 274.771 188.291C274.349 183.749 272.45 169.199 272.711 164.696C272.972 160.193 273.91 156.537 272.88 152.04C271.85 147.543 241.45 137.552 241.45 137.552L235.625 146.196Z" fill="#24126A"></path><path d="M235.625 146.196C235.625 146.196 236.194 166.989 241.04 178.027C241.04 178.027 244.511 187.748 244.969 199.31C244.969 199.31 244.168 201.301 245.304 202.919C246.44 204.538 253.555 206.02 254.731 200.703C255.906 195.386 255.454 185.437 254.162 181.288C252.871 177.139 254.623 165.705 254.623 165.705C254.623 165.705 256.567 166.947 259.116 175.162C261.665 183.377 263.54 186.511 264.417 188.78C265.294 191.05 266.1 204.972 265.544 211.77C265.544 211.77 271.305 212.588 272.971 209.834C274.636 207.081 275.193 192.834 274.771 188.291C274.349 183.749 272.45 169.199 272.711 164.696C272.972 160.193 273.91 156.537 272.88 152.04C271.85 147.543 241.45 137.552 241.45 137.552L235.625 146.196Z" fill="url(#paint12_linear_2288_260710)"></path><path d="M272.711 164.697C272.972 160.194 273.91 156.538 272.88 152.041C272.492 150.351 267.955 147.884 262.442 145.463C253.139 144.613 241.339 143.628 240.526 143.752C239.792 143.863 237.868 144.594 236.274 145.233L235.625 146.196C235.625 146.196 235.66 147.461 235.784 149.526C237.954 150.176 242.129 149.505 242.129 149.505C242.717 150.964 246.342 156.149 250.851 158.387C255.361 160.625 268.554 159.857 269.312 160.708C270.069 161.558 270.216 172.942 270.132 174.389C270.048 175.836 271.375 184.949 272.603 193.006C273.81 200.934 271.973 210.568 271.912 210.878C272.339 210.604 272.71 210.268 272.972 209.834C274.637 207.081 275.194 192.834 274.772 188.291C274.348 183.749 272.45 169.199 272.711 164.697Z" fill="#160A5B"></path><path d="M245.799 78.1874C245.799 78.1874 239.055 79.7261 236.786 80.2579C236.41 80.3464 236.107 80.611 235.964 80.9702C235.309 82.6284 233.666 87.7809 234.904 95.3029C236.425 104.548 235.943 110.772 235.943 110.772L232.823 127.008C232.823 127.008 228.901 142.471 229.239 142.894C229.578 143.317 238.27 149.932 240.987 149.001C243.703 148.069 242.81 146.532 242.81 146.532C242.81 146.532 245.011 157.738 254.752 157.631C264.492 157.523 272.451 157.555 274.105 153.617C275.758 149.679 273.652 133.126 271.935 126.573C270.217 120.02 266.135 106.956 266.135 106.956L280.402 91.1645L268.209 81.8524C268.209 81.8524 265.296 76.4398 264.099 75.7523C262.902 75.0648 262.276 75.647 262.276 75.647L245.799 78.1874Z" fill="url(#paint13_linear_2288_260710)"></path><path d="M241.154 145.432C241.162 145.994 240.835 146.832 239.084 147.433C237.193 148.081 232.558 145.264 229.52 143.144C231.037 144.405 238.502 149.854 240.988 149.002C241.528 148.817 241.92 148.608 242.21 148.392C241.652 147.145 241.322 146.066 241.154 145.432Z" fill="url(#paint14_linear_2288_260710)"></path><path d="M263.833 75.6178C263.833 75.6178 266.324 78.6316 262.739 82.6992C260.533 85.2033 256.738 90.6026 253.504 96.2099C251.484 99.7121 249.617 101.579 248.559 104.588C248.559 104.588 248.411 101.014 248.268 95.4932C248.134 90.2841 248.064 84.8706 248.298 83.5071C248.777 80.6995 261.079 74.2525 263.833 75.6178Z" fill="#F0F6FF"></path><path d="M254.517 84.683C254.517 84.683 253.241 85.4758 252.8 85.4104C252.361 85.3449 250.947 83.9716 250.947 83.9716C250.947 83.9716 247.412 83.9079 247.026 82.393C246.64 80.8782 246.385 79.351 246.028 78.5634C245.67 77.7759 244.145 73.9968 244.132 72.4633C244.121 70.9299 244.178 68.1904 243.517 66.7402C242.855 65.2899 241.961 50.7776 255.974 51.1864C269.988 51.5952 265.635 66.1464 265.635 66.1464C265.635 66.1464 266.659 66.5827 266.038 68.4559C265.419 70.3291 265.28 70.5229 264.964 71.4528C264.648 72.3828 264.493 72.9783 263.602 73.734L263.37 75.4603C263.37 75.4603 264.035 78.0954 262.293 80.657C260.552 83.2177 254.517 84.683 254.517 84.683Z" fill="#FCD1C5"></path><path d="M236.401 80.4261C236.401 80.4261 234.907 80.6482 230.058 92.8448C227.353 99.6502 223.177 106.698 222.293 111.756C221.408 116.813 221.901 122.221 222.901 122.601C223.863 122.968 241.282 129.486 246.734 131.543C247.035 131.657 247.363 131.468 247.42 131.151L248.923 122.738L238.113 118.562C238.113 118.562 236.054 116.045 234.119 115.101C234.119 115.101 236.286 111.107 236.148 110.017C236.01 108.927 236.34 97.6451 235.074 93.0537C233.808 88.464 236.401 80.4261 236.401 80.4261Z" fill="#24126A"></path><path d="M236.401 80.4261C236.401 80.4261 234.907 80.6482 230.058 92.8448C227.353 99.6502 223.177 106.698 222.293 111.756C221.408 116.813 221.901 122.221 222.901 122.601C223.863 122.968 241.282 129.486 246.734 131.543C247.035 131.657 247.363 131.468 247.42 131.151L248.923 122.738L238.113 118.562C238.113 118.562 236.054 116.045 234.119 115.101C234.119 115.101 236.286 111.107 236.148 110.017C236.01 108.927 236.34 97.6451 235.074 93.0537C233.808 88.464 236.401 80.4261 236.401 80.4261Z" fill="url(#paint15_linear_2288_260710)"></path><path d="M242.729 112.658C242.729 112.658 241.241 111.657 240.873 111.515C240.505 111.373 238.514 110.692 238.134 110.522C237.851 110.397 236.691 110.493 236.111 110.551C235.9 110.573 235.716 110.694 235.616 110.881C235.156 111.734 233.875 114.217 234.019 115.165C234.019 115.165 237.618 117.439 238.02 118.453L238.595 118.577C238.595 118.577 241.006 113.406 242.729 112.658Z" fill="#FCD1C5"></path><path d="M271.934 126.574C271.521 124.997 270.971 123.043 270.373 120.985L248.48 130.369C248.48 130.369 255.033 138.428 266.519 137.91C269.66 137.768 271.95 136.636 273.632 135.662C273.127 132.078 272.509 128.766 271.934 126.574Z" fill="#24126A"></path><path d="M280.4 91.1654C280.4 91.1654 274.626 91.96 269.962 99.3537C265.298 106.747 261.898 115.303 261.898 115.303L261.736 116.265C261.316 118.779 258.638 120.221 256.31 119.181C251.385 116.982 244.09 113.656 242.729 112.659C242.729 112.659 238.367 115.07 237.177 120.768C236.227 125.311 236.469 125.325 236.469 125.325C236.469 125.325 255.91 134.398 263.417 134.309C270.925 134.22 280.45 109.536 281.499 104.434C282.548 99.3298 283.704 92.6077 280.4 91.1654Z" fill="#24126A"></path><path d="M280.4 91.1654C280.4 91.1654 274.626 91.96 269.962 99.3537C265.298 106.747 261.898 115.303 261.898 115.303L261.736 116.265C261.316 118.779 258.638 120.221 256.31 119.181C251.385 116.982 244.09 113.656 242.729 112.659C242.729 112.659 238.367 115.07 237.177 120.768C236.227 125.311 236.469 125.325 236.469 125.325C236.469 125.325 255.91 134.398 263.417 134.309C270.925 134.22 280.45 109.536 281.499 104.434C282.548 99.3298 283.704 92.6077 280.4 91.1654Z" fill="url(#paint16_linear_2288_260710)"></path><path d="M259.102 120.331C259.102 120.331 261.553 122.624 262.621 121.368C263.689 120.112 263.374 119.972 263.374 119.972C263.374 119.972 265.58 119.952 265.849 118.57C266.117 117.187 267.205 117.918 267.267 116.378C267.329 114.838 265.481 115.153 265.481 115.153L259.102 120.331Z" fill="#453C9E"></path><path d="M256.141 119.104C256.141 119.104 256.815 118.477 257.685 117.741C258.554 117.004 259.961 113.96 260.199 113.691C260.436 113.422 263.37 111.173 264.784 111.133C266.198 111.094 265.148 112.677 264.823 112.9C264.497 113.123 263.116 113.81 263.116 113.81C263.116 113.81 261.696 115.003 261.534 115.178C261.373 115.352 265.483 114.895 266.136 115.296C266.788 115.697 266.637 116.747 266.177 117.033C265.716 117.318 265.364 117.308 265.364 117.308C265.364 117.308 265.827 118.545 264.594 119.118C263.36 119.692 263.076 119.373 263.076 119.373C263.076 119.373 262.97 121.51 260.934 121.087L256.141 119.104Z" fill="#FCD1C5"></path><path d="M243.201 59.3208C243.201 59.3208 241.371 65.1439 246.186 63.4875C251.001 61.8311 255.357 59.058 256.869 60.1136C258.02 60.917 257.967 63.3822 257.877 64.5121C257.846 64.8979 257.947 65.2793 258.166 65.5978L259.593 67.6728C259.754 67.9073 259.85 68.1798 259.87 68.4638L259.972 69.907C259.998 70.2698 260.289 70.5574 260.652 70.5786L260.982 70.5981C261.349 70.6193 261.673 70.3627 261.736 69.9999L262.107 67.8798C262.107 67.8798 263.241 65.028 265.636 66.1482C265.636 66.1482 267.238 63.9954 266.706 59.3933C266.173 54.7912 264.111 50.006 255.08 49.2397C246.048 48.4743 243.201 59.3208 243.201 59.3208Z" fill="#AA8383"></path><path d="M257.005 89.8089L255.654 88.7604C255.654 88.7604 254.404 89.7992 253.916 90.8999C253.429 92.0016 253.918 95.502 253.918 95.502L253.506 96.2099L252.999 95.2835L252.57 91.1442C252.57 91.1442 253.03 88.0853 253.075 88.0074C253.12 87.9295 255.681 88.2799 255.681 88.2799C255.681 88.2799 256.571 88.9568 257.005 89.8089Z" fill="#C4CCD6"></path><path d="M250.505 85.6893C250.505 85.6893 249.061 85.7858 248.41 86.3255C248.41 86.3255 249.925 86.3999 250.166 86.4273C250.406 86.4547 250.505 85.6893 250.505 85.6893Z" fill="#C4CCD6"></path><path d="M253.26 86.0147L255.684 88.2799C255.684 88.2799 253.556 89.2594 252.962 91.161C252.962 91.161 250.325 91.6538 250.084 90.6982C249.844 89.7434 250.09 87.3375 249.776 86.2704C249.461 85.2033 253.26 86.0147 253.26 86.0147Z" fill="#24126A"></path><path d="M250.177 90.6431C250.177 90.6431 249.727 92.6269 249.235 93.4454C248.743 94.2639 248.238 95.1814 248.238 95.1814L248.298 106.809C248.298 106.809 252.575 97.9935 253.503 96.2096C253.503 96.2096 253.361 91.9633 252.957 91.1598C252.553 90.3573 250.177 90.6431 250.177 90.6431Z" fill="#24126A"></path><path d="M261.663 73.4605C258.854 81.5666 250.949 83.9725 250.949 83.9725C250.949 83.9725 252.362 85.3449 252.802 85.4112C253.242 85.4767 254.519 84.6839 254.519 84.6839C254.519 84.6839 260.553 83.2186 262.295 80.657C264.037 78.0954 263.372 75.4603 263.372 75.4603L263.604 73.7349C262.35 74.1454 261.663 73.4605 261.663 73.4605Z" fill="#E2B1A6"></path><path d="M268.091 82.9487C268.091 82.9487 266.982 86.7748 266.839 86.9181C266.697 87.0624 264.052 86.7562 264.052 86.7562L265.336 89.1886C265.336 89.1886 252.031 103.457 249.273 111.132C249.273 111.132 255.569 101.404 266.649 89.7859L265.081 87.4128L267.801 87.9437L268.091 82.9487Z" fill="#24126A"></path><path d="M246.237 79.5704L245.531 80.3765L246.361 81.1507L243.901 83.3744C243.901 83.3744 243.149 98.9812 246.153 109.32C246.153 109.32 242.074 99.836 243 82.9487L245.662 81.1437L244.791 80.2862L246.237 79.5704Z" fill="#24126A"></path><path d="M254.619 165.705C254.619 165.705 254.651 165.725 254.711 165.777L251.265 162.109C252.856 164.353 251.023 174.626 250.833 176.977C250.643 179.329 252.673 184.187 253.433 189.878C254.193 195.561 252.637 203.675 252.633 203.699C253.618 203.128 254.402 202.178 254.728 200.703C255.903 195.386 255.452 185.437 254.16 181.288C252.867 177.139 254.619 165.705 254.619 165.705Z" fill="#160A5B"></path><path d="M260.98 70.5972C261.347 70.6184 261.672 70.3618 261.734 69.9991L262.105 67.879C262.105 67.879 263.239 65.0271 265.634 66.1473C265.634 66.1473 267.144 64.1025 266.736 59.7534C264.074 63.7512 258.164 65.597 258.164 65.597L259.591 67.6719C259.752 67.9064 259.848 68.1789 259.868 68.463L259.97 69.9061C259.996 70.2689 260.287 70.5565 260.65 70.5777L260.98 70.5972Z" fill="#936D6D"></path><path d="M54.6657 267.252C54.6657 267.252 57.7529 268.013 60.7428 268.131C63.7336 268.247 71.86 269.878 71.6583 272.911C71.4547 275.962 67.2075 280.336 61.8869 280.984C56.5593 281.632 49.7115 280.1 46.2323 280.194C42.7531 280.288 40.3755 276.741 41.7373 273.343C43.092 269.967 54.6657 267.252 54.6657 267.252Z" fill="#160A5B"></path><path d="M36.7272 259.097C36.7272 259.097 35.5884 260.932 36.1458 262.055C36.705 263.182 38.1942 265.981 43.0609 263.271C47.9027 260.575 57.2555 256.718 57.2555 256.718C57.2555 256.718 62.6159 253.866 62.323 250.5C62.0319 247.155 57.098 247.655 57.098 247.655L36.7272 259.097Z" fill="#160A5B"></path><path d="M68.3121 211.363C68.3121 211.363 66.246 233.22 61.8527 241.505C57.3887 249.924 56.157 265.347 55.2252 268.291C54.2882 271.251 51.3974 275.507 46.8405 276.409C42.2756 277.314 41.5305 274.211 41.7562 272.348C41.9809 270.491 43.2453 267.487 43.2622 265.473C43.279 263.465 42.8118 262.526 42.7419 261.604C42.7419 261.604 37.5213 263.142 36.7276 259.096C36.7276 259.096 37.1505 257.92 37.2204 257.317C37.2903 256.715 36.7745 242.082 36.648 240.309C36.5214 238.542 37.4753 228.976 38.9255 224.262C40.3625 219.59 39.8847 209.649 39.8847 209.649L54.7474 207.576L68.3121 211.363Z" fill="#24126A"></path><path d="M68.3121 211.363C68.3121 211.363 66.246 233.22 61.8527 241.505C57.3887 249.924 56.157 265.347 55.2252 268.291C54.2882 271.251 51.3974 275.507 46.8405 276.409C42.2756 277.314 41.5305 274.211 41.7562 272.348C41.9809 270.491 43.2453 267.487 43.2622 265.473C43.279 263.465 42.8118 262.526 42.7419 261.604C42.7419 261.604 37.5213 263.142 36.7276 259.096C36.7276 259.096 37.1505 257.92 37.2204 257.317C37.2903 256.715 36.7745 242.082 36.648 240.309C36.5214 238.542 37.4753 228.976 38.9255 224.262C40.3625 219.59 39.8847 209.649 39.8847 209.649L54.7474 207.576L68.3121 211.363Z" fill="url(#paint17_linear_2288_260710)"></path><path d="M44.2876 211.234C44.2876 211.234 44.3495 214.645 45.7706 217.515C45.7706 217.515 45.7423 229.132 46.935 235.015C46.935 235.015 45.0114 246.828 43.8 250.551C42.5798 254.3 42.7426 261.606 42.7426 261.606C42.7426 261.606 42.1489 261.826 41.2968 261.857C40.4447 261.888 40.3845 247.416 41.6923 244.864C42.9939 242.322 43.9805 231.043 43.4894 227.606C43.001 224.19 43.1691 214.415 42.5232 212.691C41.8799 210.972 43.3337 210.058 43.3337 210.058L44.2876 211.234Z" fill="#160A5B"></path><path d="M56.7969 132.383C56.7969 132.383 61.114 135.506 60.8964 140.901L57.6879 140.211C57.6879 140.211 58.6418 134.238 56.7969 132.383Z" fill="#160A5B"></path><path d="M55.1154 215.995C45.2635 216.296 39.9474 211.932 39.9474 211.932C39.9262 210.549 39.8828 209.649 39.8828 209.649L54.7455 207.576L68.3102 211.362C68.3102 211.362 67.9014 215.671 67.0626 221.191C64.6461 221.452 62.2729 215.517 62.2729 215.517L55.5153 215.945C55.5153 215.945 64.961 215.694 55.1154 215.995Z" fill="#160A5B"></path><path d="M66.411 211.687C66.411 211.687 44.9907 220.431 34.6362 203.846C34.3416 203.374 34.2044 202.796 34.2248 202.215L34.3566 198.349C34.3735 197.858 34.3027 197.372 34.1496 196.917C33.8178 195.935 33.7434 194.868 33.9363 193.829C34.738 189.51 36.9094 177.765 37.4191 174.505C38.0402 170.532 35.9325 154.621 32.3799 147.732C28.8777 140.941 37.8721 125.667 37.8721 125.667C37.8721 125.667 40.078 122.101 44.3987 123.323C44.3987 123.323 40.278 126.205 42.5335 129.248C44.804 132.312 51.5748 134.757 51.5748 134.757C51.5748 134.757 64.0953 141.254 68.3806 149.159C68.3806 149.159 69.8539 153.269 69.984 158.469C70.1158 163.726 69.5345 176.345 69.7539 178.099C69.9734 179.858 70.6397 191.881 70.5689 192.443C70.4963 193.006 66.411 211.687 66.411 211.687Z" fill="#453C9E"></path><path d="M66.411 211.687C66.411 211.687 44.9907 220.431 34.6362 203.846C34.3416 203.374 34.2044 202.796 34.2248 202.215L34.3566 198.349C34.3735 197.858 34.3027 197.372 34.1496 196.917C33.8178 195.935 33.7434 194.868 33.9363 193.829C34.738 189.51 36.9094 177.765 37.4191 174.505C38.0402 170.532 35.9325 154.621 32.3799 147.732C28.8777 140.941 37.8721 125.667 37.8721 125.667C37.8721 125.667 40.078 122.101 44.3987 123.323C44.3987 123.323 40.278 126.205 42.5335 129.248C44.804 132.312 51.5748 134.757 51.5748 134.757C51.5748 134.757 64.0953 141.254 68.3806 149.159C68.3806 149.159 69.8539 153.269 69.984 158.469C70.1158 163.726 69.5345 176.345 69.7539 178.099C69.9734 179.858 70.6397 191.881 70.5689 192.443C70.4963 193.006 66.411 211.687 66.411 211.687Z" fill="url(#paint18_linear_2288_260710)"></path><path d="M42.3845 125.529C42.0429 124.664 42.1455 123.834 42.4614 123.105C43.0561 123.085 43.6878 123.123 44.3992 123.325C44.3992 123.325 43.1277 124.216 42.3845 125.529Z" fill="url(#paint19_linear_2288_260710)"></path><path d="M59.9218 213.474C59.9218 213.474 47.3084 179.412 47.9074 167.049C48.4914 154.993 66.321 191.472 66.321 191.472L66.4139 211.687C66.4139 211.687 62.3702 213.178 59.9218 213.474Z" fill="#24126A"></path><path d="M66.7219 173.235C66.2653 170.456 65.9989 167.667 65.9671 164.881C65.9122 160.036 64.5505 152.001 55.7843 153.397C43.3939 155.37 48.6949 172.727 50.0532 175.758C51.4203 178.809 56.8408 192.557 57.1257 193.338C57.3938 194.073 65.9618 211.235 69.0216 215.351C69.3021 215.728 69.7932 215.785 70.1374 215.492C71.3779 214.436 74.166 211.918 74.5306 210.326C74.9987 208.278 73.2095 200.852 73.2095 200.852C73.2095 200.852 68.3827 182.298 67.9766 181.435C67.674 180.786 67.4625 177.739 66.7219 173.235Z" fill="#4846A5"></path><path d="M56.5845 132.774C56.5845 132.774 57.5685 130.536 59.8425 130.305C62.1157 130.074 63.4049 129.442 63.6341 128.601C63.8624 127.76 63.8739 126.742 64.4243 125.489C64.9737 124.24 65.4383 121.169 65.4303 121.094C65.4224 121.02 67.1478 120.502 67.2319 119.741C67.3159 118.982 66.4213 116.269 66.5187 116.06C66.6169 115.85 67.5433 114.188 67.4177 112.895C67.2929 111.605 67.1257 109.736 66.4364 108.152C65.7489 106.573 60.9344 96.9639 48.4042 101.914C35.7341 106.918 45.3709 117.547 44.118 124.437C44.118 124.437 42.9916 125.889 45.0559 128.355C47.1309 130.834 53.1283 131.371 56.5845 132.774Z" fill="#FCD1C5"></path><path d="M45.0533 128.355C42.9889 125.889 44.1153 124.437 44.1153 124.437C44.2896 123.48 44.248 122.447 44.0897 121.368L49.0483 122.314C49.0483 122.314 56.3704 115.801 55.8501 119.289C55.3263 122.802 57.1039 123.408 57.1039 123.408L55.6024 125.32C55.2166 125.812 55.4449 126.388 55.7599 126.929C57.849 130.523 62.9244 129.443 62.9359 129.444C62.3033 129.857 61.2654 130.16 59.8399 130.305C57.5658 130.537 56.5819 132.774 56.5819 132.774C53.1266 131.371 47.1291 130.834 45.0533 128.355Z" fill="#E2B1A6"></path><path d="M66.9754 104.499C66.9754 104.499 67.8523 107.071 66.4348 108.152C65.0146 109.236 63.728 110.259 63.728 110.259L63.7342 113.519C63.7351 113.989 63.5997 114.45 63.3449 114.843L61.5584 117.597C61.2133 118.128 61.0275 118.752 61.0231 119.392L61.0151 120.725C61.0125 121.117 60.724 121.445 60.3435 121.487L59.8746 121.54C59.4605 121.586 59.0888 121.279 59.0437 120.856L58.8481 119.004C58.8481 119.004 57.9111 117.514 55.8512 119.288L54.0027 120.047C53.4869 120.259 53.0798 120.681 52.8861 121.216C52.3675 122.641 51.2588 125.457 50.4306 125.924C49.3104 126.556 44.9756 124.315 44.396 123.323C43.8182 122.334 42.3564 115.726 41.4503 112.576C40.5505 109.448 41.0796 101.707 50.4147 99.7299C59.71 97.7629 65.6933 101.7 66.9754 104.499Z" fill="#AA8383"></path><path d="M44.3988 123.324C43.821 122.335 42.3592 115.727 41.4531 112.577C41.4531 112.577 45.0642 114.982 49.7485 115.697C54.4409 116.413 63.7326 111.129 63.7326 111.129L63.737 113.519C63.7379 113.989 63.6025 114.45 63.3477 114.843L61.5612 117.597C61.2161 118.128 61.0303 118.752 61.0259 119.392L61.0179 120.725C61.0153 121.117 60.7268 121.445 60.3463 121.487L59.8773 121.54C59.4632 121.586 59.0916 121.279 59.0465 120.856L58.8509 119.004C58.8509 119.004 57.9139 117.514 55.854 119.288L53.18 120.387C53.18 120.387 51.5527 125.293 50.4334 125.924C49.3132 126.557 44.9784 124.316 44.3988 123.324Z" fill="#936D6D"></path><path d="M44.2124 123.637C44.2124 123.637 40.5828 125.873 42.3923 129.045C44.2142 132.238 57.3709 137.908 58.0213 138.748C58.0213 138.748 58.5398 133.99 56.7975 132.383C56.7975 132.383 46.7227 130.421 45.1583 127.848C43.601 125.289 44.2124 123.637 44.2124 123.637Z" fill="#F0F6FF"></path><path d="M44.2124 123.637C44.2124 123.637 43.6019 125.289 45.1574 127.848C46.3413 129.793 52.3937 131.39 55.2729 132.052C55.2729 132.052 54.2032 132.659 52.4131 135.707C48.3659 133.608 43.455 130.906 42.3923 129.043C40.5828 125.873 44.2124 123.637 44.2124 123.637Z" fill="#C4CCD6"></path><path d="M41.7617 133.786C41.7617 133.786 47.6229 137.145 50.4792 138.662C53.3443 140.184 56.4678 142.207 56.4678 142.207L57.565 141.113L58.8808 144.006C58.8808 144.006 63.3811 146.71 65.487 148.963C67.6027 151.226 69.1981 154.181 69.4263 154.856C69.4263 154.856 63.8067 147.485 59.379 145.295L58.1879 144.693L57.5137 142.402L56.4262 143.553C56.4262 143.553 43.5473 135.786 41.7617 133.786Z" fill="#24126A"></path><path d="M56.8712 233.233L56.8703 233.229L56.8721 233.23C57.0562 232.704 57.3305 232.242 57.6561 231.969L81.7672 211.727C82.4016 211.195 83.0157 211.602 83.1396 212.637L85.9587 236.204C86.0887 237.29 85.6676 238.628 85.0181 239.19L64.7684 256.7L65.4692 263.514L59.416 260.728L59.4151 260.715C59.1435 260.544 58.9426 260.152 58.8895 259.562L56.6385 234.931C56.5881 234.384 56.6819 233.775 56.8712 233.233Z" fill="#453C9E"></path><path d="M88.3344 214.052L82.6351 211.588L82.4528 211.51C82.2449 211.46 82.0077 211.527 81.7679 211.728L57.6568 231.97C57.3312 232.243 57.056 232.704 56.8711 233.23L57.7338 233.647L62.6438 236.02L83.7757 217.951L88.3344 214.052Z" fill="#453C9E"></path><path d="M90.9532 241.831L66.2979 263.312C65.6219 263.901 64.9839 263.451 64.8724 262.308L62.4762 237.551C62.3709 236.464 62.8204 235.132 63.4805 234.574L87.5368 214.23C88.1694 213.695 88.7879 214.104 88.918 215.144L91.8796 238.83C92.0159 239.922 91.6018 241.267 90.9532 241.831Z" fill="#24126A"></path><path d="M90.9532 241.831L66.2979 263.312C65.6219 263.901 64.9839 263.451 64.8724 262.308L62.4762 237.551C62.3709 236.464 62.8204 235.132 63.4805 234.574L87.5368 214.23C88.1694 213.695 88.7879 214.104 88.918 215.144L91.8796 238.83C92.0159 239.922 91.6018 241.267 90.9532 241.831Z" fill="url(#paint20_linear_2288_260710)"></path><path d="M61.8107 260.859L59.4889 236.168C59.3871 235.084 59.8401 233.755 60.5002 233.2L84.583 212.909C84.7795 212.744 84.9741 212.67 85.1538 212.676C84.9255 212.581 84.6556 212.635 84.3822 212.865L60.2958 233.153C59.6357 233.709 59.1827 235.038 59.2836 236.121L61.6001 260.81C61.6735 261.596 61.9797 262.084 62.3965 262.099C62.0832 261.962 61.8709 261.508 61.8107 260.859Z" fill="#160A5B"></path><path d="M70.6372 224.508L69.3772 223.879C69.0923 223.736 68.8215 223.688 68.5915 223.738L68.4906 223.76C68.3649 223.788 68.3004 223.923 68.3198 224.116L68.3437 224.345L71.8937 226.119L71.8689 225.889C71.8486 225.696 71.745 225.476 71.599 225.312L71.4814 225.18C71.2133 224.883 70.923 224.65 70.6372 224.508Z" fill="#160A5B"></path><path d="M70.1874 227.558L71.8907 226.119L68.3708 223.839L66.6914 225.244L70.1874 227.558Z" fill="#160A5B"></path><path d="M68.9337 225.942L67.6728 225.311C67.387 225.169 67.1162 225.12 66.8862 225.171L66.7844 225.193C66.6588 225.22 66.5933 225.356 66.6128 225.549L66.6367 225.779L70.1884 227.558L70.1645 227.327C70.1442 227.133 70.0415 226.913 69.8955 226.749L69.7779 226.617C69.5106 226.318 69.2195 226.086 68.9337 225.942Z" fill="url(#paint21_linear_2288_260710)"></path><path d="M68.1783 226.551L68.0703 225.51L68.1774 225.564L68.2853 226.605L68.1783 226.551Z" fill="#722318"></path><path d="M68.0703 225.511L69.8214 224.102L69.9126 224.148L68.1783 225.564L68.0703 225.511Z" fill="#722318"></path><path d="M78.3 218.068L77.0426 217.447C76.7577 217.306 76.4887 217.258 76.2604 217.309L76.1595 217.331C76.0348 217.358 75.9711 217.492 75.9923 217.682L76.018 217.909L79.5582 219.661L79.5326 219.433C79.5104 219.243 79.4069 219.026 79.26 218.864L79.1424 218.734C78.876 218.438 78.5849 218.209 78.3 218.068Z" fill="#160A5B"></path><path d="M77.8735 221.08L79.5547 219.659L76.041 217.407L74.3828 218.794L77.8735 221.08Z" fill="#160A5B"></path><path d="M76.6179 219.485L75.3605 218.862C75.0756 218.721 74.8057 218.672 74.5774 218.723L74.4765 218.745C74.3518 218.772 74.2881 218.907 74.3084 219.097L74.3332 219.324L77.8761 221.08L77.8504 220.853C77.8283 220.661 77.7248 220.444 77.5788 220.282L77.4611 220.151C77.193 219.855 76.9028 219.625 76.6179 219.485Z" fill="url(#paint22_linear_2288_260710)"></path><path d="M75.872 220.085L75.7578 219.057L75.8649 219.11L75.9799 220.139L75.872 220.085Z" fill="#722318"></path><path d="M75.7578 219.058L77.4868 217.666L77.5788 217.711L75.8649 219.111L75.7578 219.058Z" fill="#722318"></path><path d="M67.3939 220.575L67.8479 224.971L68.9884 224.012L68.5425 219.742C68.4779 219.12 68.7831 218.316 69.2247 217.947L74.1338 213.843C74.5718 213.477 74.9815 213.679 75.0505 214.295L75.5212 218.519L76.6476 217.572L76.1592 213.24C76.0061 211.884 75.1018 211.44 74.1373 212.245L68.9044 216.613C67.9284 217.427 67.2515 219.2 67.3939 220.575Z" fill="#453C9E"></path><path d="M75.8516 213.547L73.8297 213.342L67.9827 218.794L67.7305 222.159L67.8473 224.97L69.156 225.625L69.1967 222.12L69.2666 219.724L70.4788 217.992C70.4788 217.992 72.6706 216.22 72.6936 216.171C72.7157 216.12 75.8516 213.547 75.8516 213.547Z" fill="#453C9E"></path><path d="M76.8239 219.166L75.5187 218.519L75.1719 215.407L76.4177 215.505L76.7867 215.569L76.8239 219.166Z" fill="#453C9E"></path><path d="M76.7784 212.587L75.375 211.9C75.375 211.9 75.7449 212.665 75.7511 212.66C75.7573 212.654 76.2129 212.822 76.2209 212.821C76.228 212.82 76.7784 212.587 76.7784 212.587Z" fill="#453C9E"></path><path d="M68.6989 221.224L69.159 225.625L70.2987 224.665L69.8465 220.39C69.7811 219.767 70.0854 218.963 70.527 218.593L75.4335 214.483C75.8714 214.117 76.282 214.32 76.351 214.937L76.828 219.166L77.9535 218.218L77.4597 213.88C77.3049 212.523 76.3997 212.077 75.4352 212.884L70.204 217.257C69.2298 218.072 68.5556 219.847 68.6989 221.224Z" fill="#160A5B"></path><path d="M74.1827 210.145C74.1827 210.145 75.0145 214.443 74.78 215.521C74.5446 216.603 72.4892 218.683 71.2504 219.064C70.0107 219.446 70.5168 217.969 70.2372 217.041C69.9585 216.114 70.0072 214.095 70.0072 214.095L74.1827 210.145Z" fill="#FCD1C5"></path><path d="M70.0071 214.095L74.1818 210.145C74.1818 210.145 74.3525 211.026 74.5171 212.089C74.5145 212.095 72.9651 215.288 70.1318 216.55C69.9726 215.544 70.0071 214.095 70.0071 214.095Z" fill="#E2B1A6"></path><path d="M74.4973 210.466C74.4973 210.466 73.0179 215.094 69.3086 215.534L70.5677 210.465C70.5677 210.465 73.7018 209.581 73.7974 209.569C73.8921 209.558 74.4973 210.466 74.4973 210.466Z" fill="#4846A5"></path><path d="M120.926 141.328C116.952 145.386 106.488 150.81 103.244 147.633C99.9999 144.457 105.205 133.882 109.179 129.824C113.153 125.766 119.005 125.052 122.248 128.229C125.491 131.405 124.899 137.27 120.926 141.328Z" fill="url(#paint23_radial_2288_260710)"></path><path d="M120.926 141.328C116.952 145.386 106.488 150.81 103.244 147.633C99.9999 144.457 105.205 133.882 109.179 129.824C113.153 125.766 119.005 125.052 122.248 128.229C125.491 131.405 124.899 137.27 120.926 141.328Z" fill="url(#paint24_linear_2288_260710)"></path><path d="M121.39 130.314C121.144 130.314 120.894 130.266 120.654 130.165C119.68 129.758 119.222 128.639 119.629 127.666L125.531 113.563C125.937 112.59 127.056 112.131 128.03 112.538C129.003 112.945 129.461 114.064 129.054 115.038L123.152 129.141C122.846 129.873 122.137 130.314 121.39 130.314Z" fill="#42E8E0"></path><path d="M196.389 125.155L192.848 126.589L205.082 156.816L208.623 155.383L196.389 125.155Z" fill="#42E8E0"></path><path d="M131.185 118.945C137.74 118.945 143.053 113.631 143.053 107.077C143.053 100.522 137.74 95.2082 131.185 95.2082C124.63 95.2082 119.316 100.522 119.316 107.077C119.316 113.631 124.63 118.945 131.185 118.945Z" fill="url(#paint25_radial_2288_260710)"></path><path d="M131.185 118.945C137.74 118.945 143.053 113.631 143.053 107.077C143.053 100.522 137.74 95.2082 131.185 95.2082C124.63 95.2082 119.316 100.522 119.316 107.077C119.316 113.631 124.63 118.945 131.185 118.945Z" fill="url(#paint26_linear_2288_260710)"></path><path d="M190.378 128.629C190.378 151.667 176.658 170.345 159.734 170.345C142.809 170.345 129.09 151.668 129.09 128.629C129.09 105.59 142.809 98.6857 159.734 98.6857C176.658 98.6857 190.378 105.59 190.378 128.629Z" fill="url(#paint27_radial_2288_260710)"></path><path d="M190.378 128.629C190.378 151.667 176.658 170.345 159.734 170.345C142.809 170.345 129.09 151.668 129.09 128.629C129.09 105.59 142.809 98.6857 159.734 98.6857C176.658 98.6857 190.378 105.59 190.378 128.629Z" fill="url(#paint28_linear_2288_260710)"></path><path d="M159.731 123.147C171.281 123.147 180.645 117.741 180.645 111.073C180.645 104.404 171.281 98.998 159.731 98.998C148.18 98.998 138.816 104.404 138.816 111.073C138.816 117.741 148.18 123.147 159.731 123.147Z" fill="#393091"></path><path d="M144.946 105.751C153.113 101.036 166.355 101.036 174.522 105.751C177.896 107.699 179.872 110.147 180.459 112.681C181.292 109.08 179.316 105.303 174.522 102.535C166.355 97.8194 153.113 97.8194 144.946 102.535C140.151 105.303 138.176 109.079 139.01 112.681C139.597 110.146 141.573 107.699 144.946 105.751Z" fill="#42E8E0"></path><path d="M135.59 82.3789L139.373 75.8603C141.599 73.5517 143.377 70.4857 144.281 67.4047L148.112 60.8029L142.601 57.6387C142.425 57.5192 142.241 57.4122 142.048 57.321L142.045 57.3193C140.478 56.5778 138.396 56.776 136.11 58.0953C131.238 60.9082 127.289 67.748 127.289 73.3739C127.289 76.185 128.276 78.1609 129.87 79.0829L129.873 79.0846L135.59 82.3789Z" fill="url(#paint29_radial_2288_260710)"></path><path d="M150.611 66.4597C150.611 72.0846 146.662 78.9253 141.79 81.7374C136.918 84.5503 132.969 82.27 132.969 76.6451C132.969 71.0201 136.918 64.1794 141.79 61.3665C146.661 58.5545 150.611 60.8347 150.611 66.4597Z" fill="#BCBEFF"></path><path d="M160.949 113.506C178.21 113.506 192.202 99.5132 192.202 82.2524C192.202 64.9915 178.21 50.9988 160.949 50.9988C143.688 50.9988 129.695 64.9915 129.695 82.2524C129.695 99.5132 143.688 113.506 160.949 113.506Z" fill="url(#paint30_radial_2288_260710)"></path><path d="M160.949 113.506C178.21 113.506 192.202 99.5132 192.202 82.2524C192.202 64.9915 178.21 50.9988 160.949 50.9988C143.688 50.9988 129.695 64.9915 129.695 82.2524C129.695 99.5132 143.688 113.506 160.949 113.506Z" fill="url(#paint31_linear_2288_260710)"></path><path d="M178.437 103.389L182.221 96.87C184.446 94.5614 186.225 91.4954 187.128 88.4144L190.96 81.8126L185.449 78.6493C185.273 78.5298 185.088 78.4228 184.896 78.3316L184.892 78.3299C183.325 77.5884 181.243 77.7866 178.958 79.1059C174.086 81.9188 170.137 88.7586 170.137 94.3845C170.137 97.1956 171.123 99.1715 172.718 100.093L172.72 100.095L178.437 103.389Z" fill="url(#paint32_radial_2288_260710)"></path><path d="M178.437 103.389L182.221 96.87C184.446 94.5614 186.225 91.4954 187.128 88.4144L190.96 81.8126L185.449 78.6493C185.273 78.5298 185.088 78.4228 184.896 78.3316L184.892 78.3299C183.325 77.5884 181.243 77.7866 178.958 79.1059C174.086 81.9188 170.137 88.7586 170.137 94.3845C170.137 97.1956 171.123 99.1715 172.718 100.093L172.72 100.095L178.437 103.389Z" fill="url(#paint33_linear_2288_260710)"></path><path d="M193.455 87.4694C193.455 93.0944 189.505 99.9351 184.633 102.747C179.762 105.56 175.812 103.28 175.812 97.6548C175.812 92.0299 179.762 85.1892 184.633 82.3763C189.505 79.5642 193.455 81.8436 193.455 87.4694Z" fill="#BCBEFF"></path><path d="M176.218 97.7274C176.218 92.1024 180.167 85.2617 185.039 82.4488C186.727 81.4746 188.304 81.1118 189.644 81.2879C188.221 80.9729 186.495 81.302 184.633 82.3762C179.762 85.1892 175.812 92.029 175.812 97.6548C175.812 101.331 177.5 103.577 180.028 103.909C177.726 103.399 176.218 101.203 176.218 97.7274Z" fill="white"></path><path d="M190.939 88.9214C190.939 92.9422 188.116 97.8318 184.633 99.8422C181.152 101.853 178.328 100.223 178.328 96.2019C178.328 92.1812 181.151 87.2916 184.633 85.2812C188.116 83.2708 190.939 84.9007 190.939 88.9214Z" fill="#393091"></path><path d="M188.254 84.5132C188.906 85.283 189.287 86.4341 189.287 87.9092C189.287 91.9299 186.465 96.8195 182.982 98.8299C181.633 99.6086 180.385 99.8386 179.359 99.598C180.486 100.927 182.426 101.115 184.631 99.8422C188.113 97.8318 190.937 92.9422 190.937 88.9214C190.937 86.458 189.876 84.8945 188.254 84.5132Z" fill="#453C9E"></path><path d="M147.562 102.925C151.608 101.24 152.523 94.1941 149.605 87.1863C146.688 80.1785 141.044 75.8629 136.998 77.5471C132.952 79.2313 132.037 86.2776 134.954 93.2853C137.871 100.293 143.516 104.609 147.562 102.925Z" fill="#393091"></path><path d="M147.132 91.7343C146.842 93.9677 145.156 94.6694 143.367 93.3014C141.578 91.9334 140.362 89.0135 140.652 86.7801C140.942 84.5468 142.628 83.8451 144.417 85.2131C146.206 86.5801 147.421 89.5001 147.132 91.7343Z" fill="#42E8E0"></path><path d="M143.2 100.471C138.277 96.7063 134.932 88.6728 135.731 82.5266C136.057 80.0208 137.02 78.2166 138.382 77.2123C135.808 77.4547 133.859 79.6376 133.368 83.4221C132.57 89.5682 135.913 97.6026 140.837 101.368C143.753 103.597 146.57 103.828 148.547 102.369C146.94 102.521 145.092 101.918 143.2 100.471Z" fill="#453C9E"></path><path d="M141.261 101.168C136.338 97.4027 132.993 89.3683 133.792 83.2222C134.161 80.3774 135.355 78.4378 137.018 77.5468C135.135 78.3219 133.768 80.3411 133.368 83.4221C132.57 89.5683 135.913 97.6026 140.837 101.368C143.48 103.389 146.039 103.763 147.968 102.729C146.096 103.5 143.715 103.044 141.261 101.168Z" fill="#42E8E0"></path><path d="M206.24 128.174C204.967 134.604 198.723 138.785 192.292 137.512C185.862 136.238 181.682 129.994 182.955 123.564C184.228 117.134 190.472 112.953 196.902 114.226C203.333 115.499 207.513 121.744 206.24 128.174Z" fill="url(#paint34_radial_2288_260710)"></path><path d="M206.24 128.174C204.967 134.604 198.723 138.785 192.292 137.512C185.862 136.238 181.682 129.994 182.955 123.564C184.228 117.134 190.472 112.953 196.902 114.226C203.333 115.499 207.513 121.744 206.24 128.174Z" fill="url(#paint35_linear_2288_260710)"></path><path d="M213.529 165.193C212.855 170.833 207.874 181.515 203.367 180.977C198.859 180.439 196.532 168.885 197.204 163.246C197.877 157.606 202.077 153.47 206.585 154.008C211.093 154.545 214.201 159.553 213.529 165.193Z" fill="url(#paint36_radial_2288_260710)"></path><path d="M213.529 165.193C212.855 170.833 207.874 181.515 203.367 180.977C198.859 180.439 196.532 168.885 197.204 163.246C197.877 157.606 202.077 153.47 206.585 154.008C211.093 154.545 214.201 159.553 213.529 165.193Z" fill="url(#paint37_linear_2288_260710)"></path><path opacity="0.5" d="M97.9387 0V167.653C97.7812 168.205 97.9812 168.843 98.5457 169.169L155.242 201.821C157.814 203.306 160.983 203.306 163.554 201.821L220.163 169.138C220.605 168.883 220.826 168.436 220.826 167.99V0H97.9387Z" fill="url(#paint38_linear_2288_260710)"></path><g opacity="0.5"><path d="M18.7578 237.005C17.588 246.405 12.7143 251.998 7.59018 244.995C1.02022 236.017 0.381368 227.239 0 221.995V170.789C0 178.799 2.65895 186.529 7.59018 193.79C18.4207 211.704 19.7063 229.383 18.7578 237.005Z" fill="#466EC5"></path><path d="M170.78 246.391C166.738 246.5 162.657 246.539 158.544 246.505C126.349 246.241 96.5206 241.568 71.6255 233.733C46.7587 227.09 45.2563 253.11 53.9348 269.181C60.1146 280.625 68.4772 283.759 71.6255 284.939C96.5206 292.773 126.349 297.447 158.544 297.711C162.657 297.744 166.738 297.706 170.78 297.597C199.999 295.443 207.651 267.381 193.995 254.283C190.184 250.627 183.063 246.291 170.78 246.391Z" fill="#638EE8"></path><path d="M322.699 205.563C322.557 227.706 321.258 231.738 319.612 236.841C312.768 252.988 295.019 267.253 270.173 277.908C248.422 284.326 242.414 261.723 251.26 244.965C257.279 233.564 266.647 228.579 270.173 226.702C295.019 216.047 312.768 201.781 319.612 185.635C320.114 184.563 320.821 183.142 321.491 182.167C321.658 182.145 321.881 182.117 322.048 182.095C322.469 183.278 322.643 183.768 322.698 189.813V205.563H322.699Z" fill="#466EC5"></path></g><path d="M56.8741 59.7738L10.3862 32.9339C9.5297 32.4392 8.74662 32.4021 8.1405 32.7374V32.7339L6.17969 33.8612L7.13266 34.07C6.99109 34.493 6.90968 34.9911 6.90968 35.5619V57.26C6.90968 59.8198 8.46612 62.7938 10.3862 63.9025L29.2237 74.7781L32.9347 85.4909L31.565 88.6772L33.6293 87.4977L38.0358 79.866L56.8741 90.7425C57.0016 90.8159 57.1263 90.8778 57.2493 90.9309H57.2475L56.9573 92.1715L59.0093 90.9973H58.9978C59.8198 90.6239 60.3507 89.6063 60.3507 88.1145V66.4163C60.3507 63.8556 58.7943 60.8825 56.8741 59.7738Z" fill="#25BFEC"></path><path d="M54.8082 60.9533L8.3203 34.1142C6.40019 33.0055 4.84375 34.1824 4.84375 36.7422V58.4404C4.84375 61.0002 6.40019 63.9742 8.3203 65.0829L27.1577 75.9585L31.5643 88.6781L35.9708 81.0463L54.8082 91.9219C56.7283 93.0306 58.2848 91.8538 58.2848 89.294V67.5958C58.2848 65.036 56.7283 62.062 54.8082 60.9533Z" fill="#4572D3"></path><path d="M29.9116 66.8773V63.7326C32.2467 62.7761 33.4147 61.2134 33.4147 59.0456C33.4147 58.9571 33.4111 58.8677 33.404 58.7757C33.3828 58.2032 33.2448 57.6997 32.9882 57.2635C32.7316 56.8273 32.4059 56.4955 32.0113 56.2672C31.6228 56.0433 31.3255 56.0194 31.1176 56.1955C30.9371 56.3477 30.8477 56.6193 30.8477 57.0122C30.8477 57.0759 30.8513 57.1423 30.8583 57.2104C30.8583 57.5467 30.9203 57.9749 31.0459 58.4952L28.1251 57.5405C27.9446 56.6362 27.8552 55.992 27.8552 55.608C27.8348 55.3637 27.8242 55.1302 27.8242 54.9054C27.8313 53.7409 28.1259 52.9428 28.7082 52.511C29.401 51.9987 30.4858 52.1686 31.9617 53.0216C33.4518 53.8816 34.5968 54.9868 35.3976 56.338C36.1984 57.6882 36.5983 59.1642 36.5983 60.764C36.5983 62.1965 36.2453 63.3663 35.5383 64.275C34.8313 65.1837 33.9305 65.8217 32.8351 66.1898V68.5665L29.9116 66.8773ZM29.8178 71.997V68.432L32.9678 70.2504V73.8154L29.8178 71.997Z" fill="white"></path><path d="M314.515 35.9138L268.027 9.07386C267.17 8.57923 266.387 8.54207 265.781 8.87742V8.87388L263.82 10.0012L264.773 10.21C264.632 10.6329 264.55 11.1311 264.55 11.7018V33.4C264.55 35.9598 266.107 38.9338 268.027 40.0425L286.864 50.9181L290.575 61.6309L289.206 64.8172L291.27 63.6377L295.676 56.006L314.514 66.8816C314.641 66.955 314.766 67.0169 314.889 67.07H314.887L314.597 68.3106L316.649 67.1364L316.637 67.1355C317.46 66.7621 317.99 65.7445 317.99 64.2527V42.5546C317.991 39.9965 316.435 37.0225 314.515 35.9138Z" fill="#5D8EF8"></path><path d="M312.448 37.0942L265.961 10.2542C264.041 9.14551 262.484 10.3224 262.484 12.8822V34.5803C262.484 37.1402 264.041 40.1141 265.961 41.2229L284.798 52.0985L289.205 64.8181L293.611 57.1863L312.449 68.0619C314.369 69.1706 315.925 67.9938 315.925 65.4339V43.7358C315.925 41.176 314.368 38.202 312.448 37.0942Z" fill="#4572D3"></path><path d="M288.559 47.9692V44.597L291.499 46.295V49.6672L288.559 47.9692ZM289.505 43.8662L288.598 28.945L291.668 30.7174L290.581 44.4873L289.505 43.8662Z" fill="white"></path><defs><linearGradient id="paint0_linear_2288_260710" x1="210.044" y1="233.102" x2="108.652" y2="233.102" gradientUnits="userSpaceOnUse"><stop stop-color="#5761D7"></stop><stop offset="0.0726" stop-color="#5472D8"></stop><stop offset="0.2791" stop-color="#4E9CDB"></stop><stop offset="0.4801" stop-color="#49BDDD"></stop><stop offset="0.6715" stop-color="#45D5DF"></stop><stop offset="0.8493" stop-color="#43E3E0"></stop><stop offset="1" stop-color="#42E8E0"></stop></linearGradient><linearGradient id="paint1_linear_2288_260710" x1="210.044" y1="225.302" x2="108.652" y2="225.302" gradientUnits="userSpaceOnUse"><stop stop-color="#5761D7"></stop><stop offset="0.0726" stop-color="#5472D8"></stop><stop offset="0.2791" stop-color="#4E9CDB"></stop><stop offset="0.4801" stop-color="#49BDDD"></stop><stop offset="0.6715" stop-color="#45D5DF"></stop><stop offset="0.8493" stop-color="#43E3E0"></stop><stop offset="1" stop-color="#42E8E0"></stop></linearGradient><linearGradient id="paint2_linear_2288_260710" x1="210.044" y1="217.502" x2="108.652" y2="217.502" gradientUnits="userSpaceOnUse"><stop stop-color="#5761D7"></stop><stop offset="0.0726" stop-color="#5472D8"></stop><stop offset="0.2791" stop-color="#4E9CDB"></stop><stop offset="0.4801" stop-color="#49BDDD"></stop><stop offset="0.6715" stop-color="#45D5DF"></stop><stop offset="0.8493" stop-color="#43E3E0"></stop><stop offset="1" stop-color="#42E8E0"></stop></linearGradient><linearGradient id="paint3_linear_2288_260710" x1="210.044" y1="209.703" x2="108.652" y2="209.703" gradientUnits="userSpaceOnUse"><stop stop-color="#5761D7"></stop><stop offset="0.0726" stop-color="#5472D8"></stop><stop offset="0.2791" stop-color="#4E9CDB"></stop><stop offset="0.4801" stop-color="#49BDDD"></stop><stop offset="0.6715" stop-color="#45D5DF"></stop><stop offset="0.8493" stop-color="#43E3E0"></stop><stop offset="1" stop-color="#42E8E0"></stop></linearGradient><linearGradient id="paint4_linear_2288_260710" x1="210.043" y1="221.402" x2="108.651" y2="221.402" gradientUnits="userSpaceOnUse"><stop stop-color="#5761D7"></stop><stop offset="0.0726" stop-color="#5472D8"></stop><stop offset="0.2791" stop-color="#4E9CDB"></stop><stop offset="0.4801" stop-color="#49BDDD"></stop><stop offset="0.6715" stop-color="#45D5DF"></stop><stop offset="0.8493" stop-color="#43E3E0"></stop><stop offset="1" stop-color="#42E8E0"></stop></linearGradient><linearGradient id="paint5_linear_2288_260710" x1="220.821" y1="196.464" x2="97.8781" y2="196.464" gradientUnits="userSpaceOnUse"><stop stop-color="#5761D7"></stop><stop offset="0.0726" stop-color="#5472D8"></stop><stop offset="0.2791" stop-color="#4E9CDB"></stop><stop offset="0.4801" stop-color="#49BDDD"></stop><stop offset="0.6715" stop-color="#45D5DF"></stop><stop offset="0.8493" stop-color="#43E3E0"></stop><stop offset="1" stop-color="#42E8E0"></stop></linearGradient><linearGradient id="paint6_linear_2288_260710" x1="220.821" y1="187.006" x2="97.8781" y2="187.006" gradientUnits="userSpaceOnUse"><stop stop-color="#5761D7"></stop><stop offset="0.0726" stop-color="#5472D8"></stop><stop offset="0.2791" stop-color="#4E9CDB"></stop><stop offset="0.4801" stop-color="#49BDDD"></stop><stop offset="0.6715" stop-color="#45D5DF"></stop><stop offset="0.8493" stop-color="#43E3E0"></stop><stop offset="1" stop-color="#42E8E0"></stop></linearGradient><linearGradient id="paint7_linear_2288_260710" x1="220.821" y1="177.549" x2="97.8781" y2="177.549" gradientUnits="userSpaceOnUse"><stop stop-color="#5761D7"></stop><stop offset="0.0726" stop-color="#5472D8"></stop><stop offset="0.2791" stop-color="#4E9CDB"></stop><stop offset="0.4801" stop-color="#49BDDD"></stop><stop offset="0.6715" stop-color="#45D5DF"></stop><stop offset="0.8493" stop-color="#43E3E0"></stop><stop offset="1" stop-color="#42E8E0"></stop></linearGradient><linearGradient id="paint8_linear_2288_260710" x1="220.821" y1="168.091" x2="97.8781" y2="168.091" gradientUnits="userSpaceOnUse"><stop stop-color="#5761D7"></stop><stop offset="0.0726" stop-color="#5472D8"></stop><stop offset="0.2791" stop-color="#4E9CDB"></stop><stop offset="0.4801" stop-color="#49BDDD"></stop><stop offset="0.6715" stop-color="#45D5DF"></stop><stop offset="0.8493" stop-color="#43E3E0"></stop><stop offset="1" stop-color="#42E8E0"></stop></linearGradient><linearGradient id="paint9_linear_2288_260710" x1="220.821" y1="182.277" x2="97.8779" y2="182.277" gradientUnits="userSpaceOnUse"><stop stop-color="#5761D7"></stop><stop offset="0.0726" stop-color="#5472D8"></stop><stop offset="0.2791" stop-color="#4E9CDB"></stop><stop offset="0.4801" stop-color="#49BDDD"></stop><stop offset="0.6715" stop-color="#45D5DF"></stop><stop offset="0.8493" stop-color="#527AD0"></stop><stop offset="1" stop-color="#5781DA"></stop></linearGradient><linearGradient id="paint10_linear_2288_260710" x1="220.821" y1="168.091" x2="97.8781" y2="168.091" gradientUnits="userSpaceOnUse"><stop stop-color="#5761D7"></stop><stop offset="0.0726" stop-color="#5472D8"></stop><stop offset="0.2791" stop-color="#4E9CDB"></stop><stop offset="0.4801" stop-color="#49BDDD"></stop><stop offset="0.6715" stop-color="#45D5DF"></stop><stop offset="0.8493" stop-color="#43E3E0"></stop><stop offset="1" stop-color="#42E8E0"></stop></linearGradient><linearGradient id="paint11_linear_2288_260710" x1="220.821" y1="185.137" x2="97.8791" y2="185.137" gradientUnits="userSpaceOnUse"><stop stop-color="#5761D7"></stop><stop offset="0.0726" stop-color="#5472D8"></stop><stop offset="0.2791" stop-color="#4E9CDB"></stop><stop offset="0.4801" stop-color="#49BDDD"></stop><stop offset="0.6715" stop-color="#45D5DF"></stop><stop offset="0.8493" stop-color="#43E3E0"></stop><stop offset="1" stop-color="#42E8E0"></stop></linearGradient><linearGradient id="paint12_linear_2288_260710" x1="218.585" y1="165.904" x2="274.948" y2="180.042" gradientUnits="userSpaceOnUse"><stop stop-color="#42E8E0"></stop><stop offset="0.0047" stop-color="#42E6DF"></stop><stop offset="0.1358" stop-color="#40B6CB"></stop><stop offset="0.2707" stop-color="#3E8DB9"></stop><stop offset="0.4074" stop-color="#3C6BAA"></stop><stop offset="0.5467" stop-color="#3B519F"></stop><stop offset="0.6893" stop-color="#3A3F97"></stop><stop offset="0.8375" stop-color="#393493"></stop><stop offset="1" stop-color="#393091"></stop></linearGradient><linearGradient id="paint13_linear_2288_260710" x1="217.005" y1="124.083" x2="267.52" y2="115.852" gradientUnits="userSpaceOnUse"><stop stop-color="#42E8E0"></stop><stop offset="0.0047" stop-color="#42E6DF"></stop><stop offset="0.1358" stop-color="#40B6CB"></stop><stop offset="0.2707" stop-color="#3E8DB9"></stop><stop offset="0.4074" stop-color="#3C6BAA"></stop><stop offset="0.5467" stop-color="#3B519F"></stop><stop offset="0.6893" stop-color="#3A3F97"></stop><stop offset="0.8375" stop-color="#393493"></stop><stop offset="1" stop-color="#393091"></stop></linearGradient><linearGradient id="paint14_linear_2288_260710" x1="229.366" y1="145.796" x2="242.317" y2="146.547" gradientUnits="userSpaceOnUse"><stop stop-color="#5761D7"></stop><stop offset="0.0726" stop-color="#5472D8"></stop><stop offset="0.2791" stop-color="#4E9CDB"></stop><stop offset="0.4801" stop-color="#49BDDD"></stop><stop offset="0.6715" stop-color="#45D5DF"></stop><stop offset="0.8493" stop-color="#43E3E0"></stop><stop offset="1" stop-color="#42E8E0"></stop></linearGradient><linearGradient id="paint15_linear_2288_260710" x1="214.121" y1="119.407" x2="238.488" y2="107.567" gradientUnits="userSpaceOnUse"><stop stop-color="#42E8E0"></stop><stop offset="0.0047" stop-color="#42E6DF"></stop><stop offset="0.1358" stop-color="#40B6CB"></stop><stop offset="0.2707" stop-color="#3E8DB9"></stop><stop offset="0.4074" stop-color="#3C6BAA"></stop><stop offset="0.5467" stop-color="#3B519F"></stop><stop offset="0.6893" stop-color="#3A3F97"></stop><stop offset="0.8375" stop-color="#393493"></stop><stop offset="1" stop-color="#393091"></stop></linearGradient><linearGradient id="paint16_linear_2288_260710" x1="228.075" y1="130.144" x2="270.973" y2="113.152" gradientUnits="userSpaceOnUse"><stop stop-color="#42E8E0"></stop><stop offset="0.0047" stop-color="#42E6DF"></stop><stop offset="0.1358" stop-color="#40B6CB"></stop><stop offset="0.2707" stop-color="#3E8DB9"></stop><stop offset="0.4074" stop-color="#3C6BAA"></stop><stop offset="0.5467" stop-color="#3B519F"></stop><stop offset="0.6893" stop-color="#3A3F97"></stop><stop offset="0.8375" stop-color="#393493"></stop><stop offset="1" stop-color="#393091"></stop></linearGradient><linearGradient id="paint17_linear_2288_260710" x1="84.3828" y1="226.428" x2="36.973" y2="245.718" gradientUnits="userSpaceOnUse"><stop stop-color="#42E8E0"></stop><stop offset="0.0047" stop-color="#42E6DF"></stop><stop offset="0.1358" stop-color="#40B6CB"></stop><stop offset="0.2707" stop-color="#3E8DB9"></stop><stop offset="0.4074" stop-color="#3C6BAA"></stop><stop offset="0.5467" stop-color="#3B519F"></stop><stop offset="0.6893" stop-color="#3A3F97"></stop><stop offset="0.8375" stop-color="#393493"></stop><stop offset="1" stop-color="#393091"></stop></linearGradient><linearGradient id="paint18_linear_2288_260710" x1="80.7808" y1="162.002" x2="30.078" y2="172.663" gradientUnits="userSpaceOnUse"><stop stop-color="#42E8E0"></stop><stop offset="0.0047" stop-color="#42E6DF"></stop><stop offset="0.1358" stop-color="#40B6CB"></stop><stop offset="0.2707" stop-color="#3E8DB9"></stop><stop offset="0.4074" stop-color="#3C6BAA"></stop><stop offset="0.5467" stop-color="#3B519F"></stop><stop offset="0.6893" stop-color="#3A3F97"></stop><stop offset="0.8375" stop-color="#393493"></stop><stop offset="1" stop-color="#393091"></stop></linearGradient><linearGradient id="paint19_linear_2288_260710" x1="44.3003" y1="124.454" x2="42.1746" y2="124.267" gradientUnits="userSpaceOnUse"><stop stop-color="#5761D7"></stop><stop offset="0.0726" stop-color="#5472D8"></stop><stop offset="0.2791" stop-color="#4E9CDB"></stop><stop offset="0.4801" stop-color="#49BDDD"></stop><stop offset="0.6715" stop-color="#45D5DF"></stop><stop offset="0.8493" stop-color="#43E3E0"></stop><stop offset="1" stop-color="#42E8E0"></stop></linearGradient><linearGradient id="paint20_linear_2288_260710" x1="116.829" y1="221.017" x2="68.3993" y2="242.566" gradientUnits="userSpaceOnUse"><stop stop-color="#42E8E0"></stop><stop offset="0.1067" stop-color="#40C1CF"></stop><stop offset="0.2549" stop-color="#3E91BB"></stop><stop offset="0.396" stop-color="#3C6CAB"></stop><stop offset="0.5263" stop-color="#3B519F"></stop><stop offset="0.6417" stop-color="#3A4198"></stop><stop offset="0.7304" stop-color="#3A3B96"></stop><stop offset="0.8389" stop-color="#393493"></stop><stop offset="1" stop-color="#393091"></stop></linearGradient><linearGradient id="paint21_linear_2288_260710" x1="70.2814" y1="226.498" x2="66.5478" y2="226.171" gradientUnits="userSpaceOnUse"><stop stop-color="#5761D7"></stop><stop offset="0.0726" stop-color="#5472D8"></stop><stop offset="0.2791" stop-color="#4E9CDB"></stop><stop offset="0.4801" stop-color="#49BDDD"></stop><stop offset="0.6715" stop-color="#45D5DF"></stop><stop offset="0.8493" stop-color="#43E3E0"></stop><stop offset="1" stop-color="#42E8E0"></stop></linearGradient><linearGradient id="paint22_linear_2288_260710" x1="77.9678" y1="220.034" x2="74.2431" y2="219.708" gradientUnits="userSpaceOnUse"><stop stop-color="#5761D7"></stop><stop offset="0.0726" stop-color="#5472D8"></stop><stop offset="0.2791" stop-color="#4E9CDB"></stop><stop offset="0.4801" stop-color="#49BDDD"></stop><stop offset="0.6715" stop-color="#45D5DF"></stop><stop offset="0.8493" stop-color="#43E3E0"></stop><stop offset="1" stop-color="#42E8E0"></stop></linearGradient><radialGradient id="paint23_radial_2288_260710" cx="0" cy="0" r="1" gradientTransform="matrix(15.0389 14.7293 -24.2628 24.7743 130.836 123.51)" gradientUnits="userSpaceOnUse"><stop stop-color="#C0BFF6"></stop><stop offset="1" stop-color="#393091"></stop></radialGradient><linearGradient id="paint24_linear_2288_260710" x1="123.876" y1="134.207" x2="105.141" y2="135.014" gradientUnits="userSpaceOnUse"><stop stop-color="#42E8E0"></stop><stop offset="0.0047" stop-color="#42E6DF"></stop><stop offset="0.1358" stop-color="#40B6CB"></stop><stop offset="0.2707" stop-color="#3E8DB9"></stop><stop offset="0.4074" stop-color="#3C6BAA"></stop><stop offset="0.5467" stop-color="#3B519F"></stop><stop offset="0.6893" stop-color="#3A3F97"></stop><stop offset="0.8375" stop-color="#393493"></stop><stop offset="1" stop-color="#393091"></stop></linearGradient><radialGradient id="paint25_radial_2288_260710" cx="0" cy="0" r="1" gradientUnits="userSpaceOnUse" gradientTransform="translate(187.953 69.1578) rotate(11.1976) scale(68.5117 68.5117)"><stop stop-color="#C0BFF6"></stop><stop offset="1" stop-color="#393091"></stop></radialGradient><linearGradient id="paint26_linear_2288_260710" x1="124.809" y1="117.087" x2="137.561" y2="97.0662" gradientUnits="userSpaceOnUse"><stop stop-color="#42E8E0"></stop><stop offset="0.0047" stop-color="#42E6DF"></stop><stop offset="0.1358" stop-color="#40B6CB"></stop><stop offset="0.2707" stop-color="#3E8DB9"></stop><stop offset="0.4074" stop-color="#3C6BAA"></stop><stop offset="0.5467" stop-color="#3B519F"></stop><stop offset="0.6893" stop-color="#3A3F97"></stop><stop offset="0.8375" stop-color="#393493"></stop><stop offset="1" stop-color="#393091"></stop></linearGradient><radialGradient id="paint27_radial_2288_260710" cx="0" cy="0" r="1" gradientUnits="userSpaceOnUse" gradientTransform="translate(177.814 122.378) scale(52.6633 71.6886)"><stop stop-color="#C0BFF6"></stop><stop offset="1" stop-color="#393091"></stop></radialGradient><linearGradient id="paint28_linear_2288_260710" x1="159.733" y1="170.345" x2="159.733" y2="98.6858" gradientUnits="userSpaceOnUse"><stop stop-color="#42E8E0"></stop><stop offset="0.0047" stop-color="#42E6DF"></stop><stop offset="0.1358" stop-color="#40B6CB"></stop><stop offset="0.2707" stop-color="#3E8DB9"></stop><stop offset="0.4074" stop-color="#3C6BAA"></stop><stop offset="0.5467" stop-color="#3B519F"></stop><stop offset="0.6893" stop-color="#3A3F97"></stop><stop offset="0.8375" stop-color="#393493"></stop><stop offset="1" stop-color="#393091"></stop></linearGradient><radialGradient id="paint29_radial_2288_260710" cx="0" cy="0" r="1" gradientUnits="userSpaceOnUse" gradientTransform="translate(128.876 33.739) scale(37.0859 37.0858)"><stop stop-color="#C0BFF6"></stop><stop offset="1" stop-color="#393091"></stop></radialGradient><radialGradient id="paint30_radial_2288_260710" cx="0" cy="0" r="1" gradientUnits="userSpaceOnUse" gradientTransform="translate(180.454 77.6221) scale(52.8246)"><stop stop-color="#C0BFF6"></stop><stop offset="1" stop-color="#393091"></stop></radialGradient><linearGradient id="paint31_linear_2288_260710" x1="156.599" y1="113.206" x2="165.299" y2="51.2989" gradientUnits="userSpaceOnUse"><stop stop-color="#42E8E0"></stop><stop offset="0.0047" stop-color="#42E6DF"></stop><stop offset="0.1358" stop-color="#40B6CB"></stop><stop offset="0.2707" stop-color="#3E8DB9"></stop><stop offset="0.4074" stop-color="#3C6BAA"></stop><stop offset="0.5467" stop-color="#3B519F"></stop><stop offset="0.6893" stop-color="#3A3F97"></stop><stop offset="0.8375" stop-color="#393493"></stop><stop offset="1" stop-color="#393091"></stop></linearGradient><radialGradient id="paint32_radial_2288_260710" cx="0" cy="0" r="1" gradientUnits="userSpaceOnUse" gradientTransform="translate(180.029 77.0601) scale(25.0868 25.0867)"><stop stop-color="#C0BFF6"></stop><stop offset="1" stop-color="#393091"></stop></radialGradient><linearGradient id="paint33_linear_2288_260710" x1="174.978" y1="102.13" x2="183.793" y2="77.9096" gradientUnits="userSpaceOnUse"><stop stop-color="#42E8E0"></stop><stop offset="0.0047" stop-color="#42E6DF"></stop><stop offset="0.1358" stop-color="#40B6CB"></stop><stop offset="0.2707" stop-color="#3E8DB9"></stop><stop offset="0.4074" stop-color="#3C6BAA"></stop><stop offset="0.5467" stop-color="#3B519F"></stop><stop offset="0.6893" stop-color="#3A3F97"></stop><stop offset="0.8375" stop-color="#393493"></stop><stop offset="1" stop-color="#393091"></stop></linearGradient><radialGradient id="paint34_radial_2288_260710" cx="0" cy="0" r="1" gradientUnits="userSpaceOnUse" gradientTransform="translate(201.63 118.123) rotate(11.1976) scale(24.7617 24.7617)"><stop stop-color="#C0BFF6"></stop><stop offset="1" stop-color="#393091"></stop></radialGradient><linearGradient id="paint35_linear_2288_260710" x1="184.996" y1="132.846" x2="204.2" y2="118.892" gradientUnits="userSpaceOnUse"><stop stop-color="#42E8E0"></stop><stop offset="0.0047" stop-color="#42E6DF"></stop><stop offset="0.1358" stop-color="#40B6CB"></stop><stop offset="0.2707" stop-color="#3E8DB9"></stop><stop offset="0.4074" stop-color="#3C6BAA"></stop><stop offset="0.5467" stop-color="#3B519F"></stop><stop offset="0.6893" stop-color="#3A3F97"></stop><stop offset="0.8375" stop-color="#393493"></stop><stop offset="1" stop-color="#393091"></stop></linearGradient><radialGradient id="paint36_radial_2288_260710" cx="0" cy="0" r="1" gradientTransform="matrix(20.9021 2.49348 -4.1084 34.4316 216.612 155.824)" gradientUnits="userSpaceOnUse"><stop stop-color="#C0BFF6"></stop><stop offset="1" stop-color="#393091"></stop></radialGradient><linearGradient id="paint37_linear_2288_260710" x1="196.813" y1="166.518" x2="213.138" y2="168.466" gradientUnits="userSpaceOnUse"><stop stop-color="#42E8E0"></stop><stop offset="0.0047" stop-color="#42E6DF"></stop><stop offset="0.1358" stop-color="#40B6CB"></stop><stop offset="0.2707" stop-color="#3E8DB9"></stop><stop offset="0.4074" stop-color="#3C6BAA"></stop><stop offset="0.5467" stop-color="#3B519F"></stop><stop offset="0.6893" stop-color="#3A3F97"></stop><stop offset="0.8375" stop-color="#393493"></stop><stop offset="1" stop-color="#393091"></stop></linearGradient><linearGradient id="paint38_linear_2288_260710" x1="159.356" y1="202.936" x2="159.356" y2="0" gradientUnits="userSpaceOnUse"><stop stop-color="#3A65C2"></stop><stop offset="0.1205" stop-color="#4D80ED"></stop><stop offset="0.2841" stop-color="#416DCC"></stop><stop offset="0.4453" stop-color="#3F70DA"></stop><stop offset="0.6004" stop-color="#4E7BDE"></stop><stop offset="0.7478" stop-color="#4D76CC"></stop><stop offset="0.8845" stop-color="#5A82DA"></stop><stop offset="1" stop-color="#3D68C5"></stop></linearGradient></defs></svg>