<svg xmlns="http://www.w3.org/2000/svg" width="396" height="280" viewBox="0 0 396 280" fill="none"><path d="M355.517 268.062H329.344V268.258H355.517V268.062Z" fill="#EBEBEB"></path><path d="M261.735 270.18H254.865V270.376H261.735V270.18Z" fill="#EBEBEB"></path><path d="M328.556 260.817H313.391V261.012H328.556V260.817Z" fill="#EBEBEB"></path><path d="M75.5869 262.128H41.4551V262.323H75.5869V262.128Z" fill="#EBEBEB"></path><path d="M87.6236 262.128H82.6191V262.323H87.6236V262.128Z" fill="#EBEBEB"></path><path d="M177.915 265.423H103.891V265.618H177.915V265.423Z" fill="#EBEBEB"></path><path d="M188.386 220.703H35.7957C33.3089 220.703 31.2852 218.705 31.2852 216.25V4.4539C31.2852 1.99832 33.3089 0 35.7957 0H188.386C190.872 0 192.896 1.99832 192.896 4.4539V216.25C192.896 218.705 190.872 220.703 188.386 220.703ZM35.7957 0.195852C33.4172 0.195852 31.4827 2.106 31.4827 4.45468V216.25C31.4827 218.599 33.4172 220.509 35.7957 220.509H188.386C190.764 220.509 192.698 218.599 192.698 216.25V4.4539C192.698 2.106 190.764 0.195073 188.386 0.195073L35.7957 0.195852Z" fill="#EBEBEB"></path><path d="M359.305 220.703H206.715C204.229 220.703 202.205 218.705 202.205 216.25V4.4539C202.205 1.99832 204.229 0 206.715 0H359.305C361.793 0 363.816 1.99832 363.816 4.4539V216.25C363.816 218.705 361.792 220.703 359.305 220.703ZM206.715 0.195852C204.337 0.195852 202.403 2.106 202.403 4.45468V216.25C202.403 218.599 204.337 220.509 206.715 220.509H359.305C361.684 220.509 363.618 218.599 363.618 216.25V4.4539C363.618 2.106 361.684 0.195073 359.305 0.195073L206.715 0.195852Z" fill="#EBEBEB"></path><path d="M395.109 255.503H0V255.698H395.109V255.503Z" fill="#EBEBEB"></path><path d="M325.741 149.584H310.873V164.265H325.741V149.584Z" fill="#F5F5F5"></path><path d="M334.873 149.584H325.74V164.265H334.873V149.584Z" fill="#EBEBEB"></path><path d="M329.393 149.584V155.14L329.628 154.928L330.045 155.186L330.411 154.928L330.881 155.186L331.376 154.928L331.689 155.186L332.052 154.997V149.584H329.393Z" fill="#E0E0E0"></path><path opacity="0.7" d="M329.393 149.584V155.14L329.628 154.928L330.045 155.186L330.411 154.928L330.881 155.186L331.376 154.928L331.689 155.186L332.052 154.997V149.584H329.393Z" fill="#E0E0E0"></path><path d="M326.414 166.97H306.967V186.172H326.414V166.97Z" fill="#F5F5F5"></path><path d="M338.359 166.97H326.414V186.172H338.359V166.97Z" fill="#E6E6E6"></path><path d="M322.698 172.368H303.252L306.968 166.97H326.414L322.698 172.368Z" fill="#E6E6E6"></path><path d="M329.934 172.368H341.879L338.36 166.97H326.414L329.934 172.368Z" fill="#F5F5F5"></path><path d="M80.2289 168.972C86.1813 168.972 91.0067 164.207 91.0067 158.329C91.0067 152.452 86.1813 147.687 80.2289 147.687C74.2765 147.687 69.4512 152.452 69.4512 158.329C69.4512 164.207 74.2765 168.972 80.2289 168.972Z" fill="#E0E0E0"></path><path d="M78.5551 168.972C84.5075 168.972 89.3329 164.207 89.3329 158.329C89.3329 152.452 84.5075 147.687 78.5551 147.687C72.6027 147.687 67.7773 152.452 67.7773 158.329C67.7773 164.207 72.6027 168.972 78.5551 168.972Z" fill="#EBEBEB"></path><path opacity="0.2" d="M84.4113 164.115C87.6475 160.919 87.6475 155.738 84.4113 152.542C81.175 149.347 75.928 149.347 72.6918 152.542C69.4555 155.738 69.4555 160.919 72.6918 164.115C75.928 167.31 81.175 167.31 84.4113 164.115Z" fill="white"></path><path d="M71.5237 158.329C71.5237 154.02 74.8995 150.497 79.1816 150.178C78.973 150.163 78.7652 150.147 78.5526 150.147C73.9757 150.147 70.2656 153.811 70.2656 158.33C70.2656 162.85 73.9757 166.513 78.5526 166.513C78.7652 166.513 78.973 166.497 79.1816 166.482C74.9002 166.162 71.5237 162.638 71.5237 158.329Z" fill="#E0E0E0"></path><path d="M81.6077 161.288C81.1154 161.764 80.4042 162.058 79.4765 162.17V163.533H78.2454V162.207C77.6377 162.174 77.0585 162.069 76.5077 161.891C75.9577 161.713 75.5144 161.493 75.1777 161.234L75.8557 159.75C76.1679 159.977 76.533 160.167 76.9518 160.322C77.3706 160.475 77.802 160.573 78.2454 160.613V158.581C77.6622 158.444 77.1691 158.29 76.7669 158.12C76.3646 157.949 76.028 157.7 75.757 157.372C75.4867 157.044 75.3508 156.608 75.3508 156.064C75.3508 155.391 75.5997 154.813 76.096 154.331C76.593 153.848 77.3097 153.554 78.2454 153.45V152.1H79.4765V153.425C80.4864 153.506 81.3201 153.754 81.9768 154.167L81.3604 155.663C80.7448 155.315 80.1166 155.104 79.4757 155.03V157.098C80.051 157.228 80.537 157.376 80.9353 157.543C81.3335 157.709 81.6686 157.956 81.9388 158.284C82.2099 158.613 82.345 159.044 82.345 159.58C82.3466 160.245 82.1 160.814 81.6077 161.288ZM77.5673 156.466C77.723 156.596 77.949 156.706 78.2454 156.795V155.067C77.9332 155.14 77.7033 155.256 77.5555 155.414C77.4077 155.572 77.3342 155.756 77.3342 155.967C77.3327 156.17 77.4109 156.336 77.5673 156.466ZM80.1411 160.249C80.2889 160.102 80.3631 159.928 80.3631 159.725C80.3631 159.523 80.2873 159.357 80.1348 159.228C79.983 159.098 79.7626 158.984 79.4757 158.887V160.565C79.7721 160.5 79.9933 160.394 80.1411 160.249Z" fill="#E0E0E0"></path><path d="M221.028 72.9532C226.98 72.9532 231.806 68.1885 231.806 62.3108C231.806 56.4332 226.98 51.6685 221.028 51.6685C215.075 51.6685 210.25 56.4332 210.25 62.3108C210.25 68.1885 215.075 72.9532 221.028 72.9532Z" fill="#E0E0E0"></path><path d="M219.354 72.9532C225.306 72.9532 230.132 68.1885 230.132 62.3108C230.132 56.4332 225.306 51.6685 219.354 51.6685C213.402 51.6685 208.576 56.4332 208.576 62.3108C208.576 68.1885 213.402 72.9532 219.354 72.9532Z" fill="#EBEBEB"></path><path opacity="0.2" d="M225.21 68.0976C228.446 64.902 228.446 59.7209 225.21 56.5253C221.974 53.3297 216.727 53.3297 213.491 56.5253C210.254 59.7209 210.254 64.902 213.491 68.0976C216.727 71.2932 221.974 71.2932 225.21 68.0976Z" fill="white"></path><path d="M212.322 62.3108C212.322 58.0013 215.698 54.4783 219.98 54.1599C219.772 54.1443 219.564 54.1287 219.351 54.1287C214.775 54.1287 211.064 57.7922 211.064 62.3116C211.064 66.8311 214.775 70.4945 219.351 70.4945C219.564 70.4945 219.772 70.4789 219.98 70.4633C215.698 70.1434 212.322 66.6204 212.322 62.3108Z" fill="#E0E0E0"></path><path d="M222.406 65.2697C221.913 65.7449 221.202 66.0391 220.275 66.1514V67.5146H219.043V66.1881C218.436 66.1553 217.856 66.0508 217.306 65.8721C216.756 65.6942 216.313 65.4741 215.977 65.2151L216.655 63.731C216.967 63.9572 217.332 64.1484 217.751 64.3029C218.169 64.4566 218.601 64.5542 219.044 64.594V62.5629C218.461 62.4255 217.968 62.271 217.566 62.1009C217.163 61.9308 216.827 61.6811 216.556 61.3534C216.286 61.0249 216.15 60.5895 216.15 60.0456C216.15 59.3723 216.399 58.7941 216.895 58.3126C217.392 57.8296 218.109 57.5355 219.044 57.4309V56.081H220.275V57.4067C221.285 57.4879 222.119 57.7352 222.776 58.1488L222.159 59.6446C221.543 59.2958 220.915 59.0851 220.275 59.0118V61.0795C220.849 61.2091 221.336 61.3573 221.734 61.5243C222.132 61.6905 222.467 61.9379 222.738 62.2656C223.009 62.5941 223.144 63.0256 223.144 63.5616C223.145 64.2264 222.899 64.7961 222.406 65.2697ZM218.365 60.4475C218.521 60.577 218.747 60.6871 219.043 60.776V59.0484C218.731 59.1218 218.501 59.2373 218.354 59.3949C218.206 59.5533 218.132 59.7374 218.132 59.9481C218.131 60.1518 218.209 60.318 218.365 60.4475ZM220.94 64.2303C221.088 64.0837 221.162 63.9096 221.162 63.7068C221.162 63.5047 221.086 63.3385 220.934 63.2089C220.781 63.0794 220.561 62.9655 220.275 62.8687V64.5464C220.57 64.4824 220.792 64.3763 220.94 64.2303Z" fill="#E0E0E0"></path><path d="M145.32 177.827C149.602 177.827 153.074 174.399 153.074 170.17C153.074 165.942 149.602 162.514 145.32 162.514C141.038 162.514 137.566 165.942 137.566 170.17C137.566 174.399 141.038 177.827 145.32 177.827Z" fill="#E0E0E0"></path><path d="M144.113 177.827C148.395 177.827 151.867 174.399 151.867 170.17C151.867 165.942 148.395 162.514 144.113 162.514C139.831 162.514 136.359 165.942 136.359 170.17C136.359 174.399 139.831 177.827 144.113 177.827Z" fill="#F5F5F5"></path><path opacity="0.2" d="M144.114 176.057C147.406 176.057 150.075 173.421 150.075 170.17C150.075 166.919 147.406 164.284 144.114 164.284C140.821 164.284 138.152 166.919 138.152 170.17C138.152 173.421 140.821 176.057 144.114 176.057Z" fill="white"></path><path d="M139.058 170.17C139.058 167.07 141.486 164.536 144.567 164.306C144.416 164.296 144.267 164.284 144.114 164.284C140.821 164.284 138.152 166.92 138.152 170.17C138.152 173.421 140.821 176.057 144.114 176.057C144.266 176.057 144.416 176.045 144.567 176.034C141.486 175.805 139.058 173.27 139.058 170.17Z" fill="#E0E0E0"></path><path d="M146.313 172.299C145.958 172.641 145.447 172.852 144.78 172.933V173.914H143.894V172.96C143.457 172.937 143.04 172.861 142.644 172.733C142.249 172.605 141.93 172.446 141.688 172.26L142.175 171.193C142.399 171.356 142.662 171.493 142.964 171.604C143.266 171.715 143.575 171.785 143.895 171.813V170.351C143.475 170.252 143.12 170.142 142.831 170.019C142.542 169.897 142.299 169.717 142.105 169.481C141.91 169.245 141.812 168.931 141.812 168.54C141.812 168.056 141.991 167.64 142.349 167.293C142.706 166.946 143.222 166.735 143.895 166.659V165.688H144.781V166.641C145.507 166.7 146.107 166.878 146.58 167.176L146.136 168.252C145.693 168.001 145.241 167.849 144.78 167.797V169.285C145.194 169.378 145.544 169.485 145.831 169.605C146.117 169.724 146.358 169.903 146.553 170.138C146.748 170.375 146.845 170.685 146.845 171.071C146.844 171.548 146.667 171.958 146.313 172.299ZM143.406 168.829C143.518 168.923 143.681 169.002 143.894 169.066V167.823C143.669 167.876 143.503 167.959 143.398 168.072C143.291 168.186 143.238 168.319 143.238 168.47C143.238 168.617 143.293 168.736 143.406 168.829ZM145.258 171.551C145.364 171.445 145.417 171.32 145.417 171.174C145.417 171.029 145.363 170.909 145.253 170.816C145.144 170.722 144.985 170.641 144.779 170.571V171.778C144.992 171.732 145.152 171.656 145.258 171.551Z" fill="#E0E0E0"></path><path d="M171.172 35.9309C174.2 32.941 174.2 28.0933 171.172 25.1034C168.144 22.1135 163.235 22.1135 160.207 25.1034C157.179 28.0934 157.179 32.9409 160.207 35.9309C163.235 38.9208 168.144 38.9208 171.172 35.9309Z" fill="#E0E0E0"></path><path d="M169.965 35.9308C172.993 32.9409 172.993 28.0933 169.965 25.1034C166.937 22.1135 162.028 22.1135 159 25.1034C155.972 28.0933 155.972 32.9409 159 35.9308C162.028 38.9207 166.937 38.9207 169.965 35.9308Z" fill="#F5F5F5"></path><path opacity="0.2" d="M164.487 36.4029C167.779 36.4029 170.448 33.7674 170.448 30.5164C170.448 27.2654 167.779 24.6299 164.487 24.6299C161.194 24.6299 158.525 27.2654 158.525 30.5164C158.525 33.7674 161.194 36.4029 164.487 36.4029Z" fill="white"></path><path d="M159.431 30.5164C159.431 27.4163 161.859 24.8811 164.94 24.6525C164.789 24.6416 164.64 24.6299 164.487 24.6299C161.194 24.6299 158.525 27.2657 158.525 30.5164C158.525 33.7671 161.195 36.4029 164.487 36.4029C164.639 36.4029 164.789 36.3912 164.94 36.3803C161.859 36.1516 159.431 33.6165 159.431 30.5164Z" fill="#E0E0E0"></path><path d="M166.681 32.645C166.326 32.9867 165.815 33.1982 165.148 33.2793V34.2602H164.262V33.3059C163.824 33.2825 163.408 33.2068 163.012 33.0788C162.616 32.9508 162.297 32.7924 162.055 32.6059L162.542 31.5385C162.767 31.7016 163.03 31.8389 163.331 31.9497C163.632 32.0605 163.943 32.1308 164.262 32.1588V30.6974C163.842 30.5983 163.487 30.4875 163.198 30.365C162.909 30.2424 162.666 30.063 162.471 29.8273C162.277 29.5909 162.179 29.2772 162.179 28.8863C162.179 28.4017 162.357 27.9859 162.715 27.6394C163.072 27.2922 163.588 27.0807 164.261 27.005V26.0336H165.147V26.9871C165.873 27.0456 166.473 27.2235 166.946 27.5208L166.503 28.5968C166.06 28.3463 165.608 28.1942 165.147 28.1419V29.6299C165.56 29.7228 165.91 29.8297 166.197 29.9498C166.484 30.0692 166.725 30.2479 166.919 30.4836C167.114 30.72 167.212 31.0305 167.212 31.416C167.212 31.8943 167.035 32.304 166.681 32.645ZM163.774 29.1758C163.886 29.2694 164.049 29.3482 164.262 29.4122V28.17C164.037 28.2223 163.871 28.3058 163.766 28.4189C163.659 28.5328 163.606 28.6655 163.606 28.8169C163.606 28.9628 163.661 29.0829 163.774 29.1758ZM165.626 31.8974C165.732 31.7921 165.785 31.6665 165.785 31.5206C165.785 31.3754 165.731 31.256 165.621 31.1624C165.512 31.0688 165.353 30.9876 165.147 30.9174V32.1245C165.36 32.0785 165.52 32.002 165.626 31.8974Z" fill="#E0E0E0"></path><path d="M97.4816 207.022C93.1551 205.702 90.9939 205.042 86.6777 203.724C91.4981 203.974 93.9106 204.1 98.7436 204.354C96.0971 199.809 94.9134 197.57 92.8177 193.212C95.8324 196.604 97.4089 198.33 100.706 201.823C101.62 196.57 102.767 191.993 104.464 186.936C103.667 191.169 103.321 195.743 103.432 200.045C103.522 200.061 103.567 200.069 103.657 200.084C107.234 196.059 111.129 192.312 115.279 188.864C111.324 193.066 107.784 197.649 104.755 202.545C109.25 200.87 113.787 199.275 118.341 197.762C113.768 200.232 109.305 202.769 104.852 205.443C109.315 206.846 111.55 207.549 116.026 208.956C111.4 208.679 109.089 208.542 104.473 208.267C106.904 211.08 108.168 212.499 110.79 215.352C107.541 213.235 105.937 212.18 102.768 210.078C103.211 213.527 103.528 215.274 104.355 218.791C102.775 215.234 102.077 213.465 100.86 209.972C98.5926 220.685 99.1806 231.071 101.373 241.72C100.286 241.526 99.7424 241.43 98.6551 241.235C97.0667 230.317 97.4776 220.54 99.9289 209.805C97.1924 212.593 95.913 214.01 93.5392 216.862C95.1828 213.786 96.1019 212.259 98.1296 209.251C94.2385 210.092 92.3128 210.518 88.5008 211.377C91.9983 209.616 93.7944 208.743 97.4816 207.022Z" fill="#EBEBEB"></path><path d="M93.6505 210.724C97.6513 208.629 99.6498 207.583 103.641 205.493C98.9536 206.627 96.6067 207.195 91.9064 208.335C93.6473 203.383 94.3869 200.965 95.622 196.296C93.302 200.185 92.0787 202.171 89.5002 206.21C87.6092 201.218 85.6179 196.932 82.9936 192.277C84.5772 196.288 85.7807 200.719 86.4856 204.965C86.4002 204.998 86.3575 205.014 86.2722 205.046C81.9971 201.751 77.4621 198.788 72.7342 196.164C77.4139 199.563 81.7585 203.413 85.6598 207.665C80.9264 206.849 76.1685 206.117 71.4082 205.471C76.3684 207.054 81.2314 208.724 86.1126 210.53C81.9932 212.732 79.9299 213.834 75.7994 216.041C80.2918 214.917 82.536 214.356 87.0197 213.235C85.1619 216.446 84.19 218.073 82.1528 221.36C84.9438 218.681 86.3204 217.348 89.0364 214.701C89.2521 218.17 89.2719 219.946 89.1241 223.553C90.0036 219.767 90.3552 217.901 90.891 214.244C95.144 224.352 96.5292 234.663 96.3878 245.529C97.419 245.138 97.9342 244.943 98.9655 244.552C98.4621 233.532 96.21 224.003 91.7729 213.91C94.9883 216.144 96.5126 217.3 99.3843 219.665C97.1875 216.946 95.9958 215.615 93.4355 213.033C97.4174 213.143 99.3898 213.207 103.297 213.348C99.5273 212.262 97.5976 211.735 93.6505 210.724Z" fill="#F0F0F0"></path><path d="M103.425 216.595C100.509 215.068 99.0522 214.305 96.1426 212.781C99.5603 213.608 101.271 214.023 104.697 214.854C103.428 211.243 102.889 209.481 101.988 206.078C103.68 208.913 104.571 210.361 106.45 213.305C107.828 209.666 109.281 206.541 111.193 203.148C110.039 206.072 109.161 209.302 108.648 212.397C108.71 212.421 108.741 212.432 108.803 212.457C111.92 210.054 115.226 207.894 118.672 205.982C115.261 208.46 112.094 211.266 109.25 214.366C112.7 213.771 116.169 213.237 119.639 212.766C116.024 213.921 112.478 215.138 108.92 216.455C111.922 218.06 113.426 218.864 116.438 220.473C113.162 219.653 111.527 219.244 108.259 218.427C109.613 220.768 110.322 221.954 111.807 224.35C109.772 222.397 108.769 221.426 106.789 219.496C106.632 222.025 106.618 223.319 106.725 225.949C106.084 223.189 105.827 221.828 105.437 219.163C102.337 226.531 101.327 234.047 101.43 241.969C100.678 241.684 100.302 241.541 99.5508 241.256C99.9182 233.223 101.56 226.276 104.794 218.918C102.45 220.548 101.339 221.39 99.2458 223.114C100.847 221.132 101.716 220.161 103.582 218.279C100.68 218.36 99.2418 218.406 96.3939 218.509C99.1407 217.716 100.547 217.332 103.425 216.595Z" fill="#F5F5F5"></path><path d="M106.755 255.487H89.1984L87.4805 227.871H108.474L106.755 255.487Z" fill="#EBEBEB"></path><path d="M109.835 229.296H85.9475L85.5176 225.623H110.265L109.835 229.296Z" fill="#F5F5F5"></path><path d="M295.764 255.411H328.523V196.618H295.764V255.411Z" fill="#F0F0F0"></path><path d="M286.496 255.411H295.764V196.618H286.496V255.411Z" fill="#E6E6E6"></path><path d="M298.914 216.856H325.117V201.354H298.914V216.856Z" fill="#FAFAFA"></path><path d="M298.914 234.051H325.117V218.549H298.914V234.051Z" fill="#FAFAFA"></path><path d="M298.914 251.246H325.117V235.744H298.914V251.246Z" fill="#FAFAFA"></path><path d="M310.693 204.805C310.693 205.758 311.476 206.53 312.441 206.53C313.405 206.53 314.188 205.758 314.188 204.805C314.188 203.852 313.405 203.08 312.441 203.08C311.476 203.08 310.693 203.852 310.693 204.805Z" fill="#E0E0E0"></path><path d="M311.6 204.805C311.6 205.758 312.382 206.53 313.347 206.53C314.312 206.53 315.094 205.758 315.094 204.805C315.094 203.852 314.312 203.08 313.347 203.08C312.382 203.08 311.6 203.852 311.6 204.805Z" fill="#F0F0F0"></path><path d="M310.693 221.934C310.693 222.887 311.476 223.659 312.441 223.659C313.405 223.659 314.188 222.887 314.188 221.934C314.188 220.981 313.405 220.209 312.441 220.209C311.476 220.209 310.693 220.981 310.693 221.934Z" fill="#E0E0E0"></path><path d="M311.6 221.934C311.6 222.887 312.382 223.659 313.347 223.659C314.312 223.659 315.094 222.887 315.094 221.934C315.094 220.981 314.312 220.209 313.347 220.209C312.382 220.209 311.6 220.981 311.6 221.934Z" fill="#F0F0F0"></path><path d="M310.693 239.063C310.693 240.016 311.476 240.788 312.441 240.788C313.405 240.788 314.188 240.016 314.188 239.063C314.188 238.11 313.405 237.338 312.441 237.338C311.476 237.338 310.693 238.11 310.693 239.063Z" fill="#E0E0E0"></path><path d="M311.6 239.063C311.6 240.016 312.382 240.788 313.347 240.788C314.312 240.788 315.094 240.016 315.094 239.063C315.094 238.11 314.312 237.338 313.347 237.338C312.382 237.338 311.6 238.11 311.6 239.063Z" fill="#F0F0F0"></path><path d="M125.822 47.4533C123.578 48.36 116.127 47.2692 116.127 47.2692L115.321 47.6071C110.88 49.4696 105.825 49.2433 101.573 46.993C101.573 46.993 95.4515 47.2356 93.4641 46.8393C90.4383 46.2361 85.9309 43.8734 87.0578 36.4177C88.1846 28.9628 99.5195 35.4072 99.5195 35.4072C99.5195 35.4072 96.2504 24.9139 107.287 28.0826C118.323 31.2514 119.203 41.6105 119.203 41.6105C119.203 41.6105 136.411 43.1719 125.822 47.4533Z" fill="#F5F5F5"></path><path d="M95.7976 57.1625C94.2448 57.7898 89.0886 57.0353 89.0886 57.0353L88.5307 57.2693C85.4584 58.5584 81.9593 58.4015 79.0173 56.8441C79.0173 56.8441 74.7809 57.0119 73.4052 56.738C71.3119 56.3205 68.1921 54.685 68.9721 49.5265C69.752 44.3673 77.5949 48.8274 77.5949 48.8274C77.5949 48.8274 75.3325 41.566 82.9692 43.7586C90.6066 45.952 91.2151 53.1198 91.2151 53.1198C91.2151 53.1198 103.125 54.1997 95.7976 57.1625Z" fill="#F0F0F0"></path><path d="M209.617 78.3247C207.373 79.2314 199.922 78.1406 199.922 78.1406L199.116 78.4785C194.675 80.341 189.62 80.1147 185.368 77.8644C185.368 77.8644 179.246 78.1071 177.259 77.7107C174.233 77.1075 169.726 74.7448 170.853 67.2891C171.98 59.8342 183.314 66.2786 183.314 66.2786C183.314 66.2786 180.045 55.7853 191.081 58.954C202.117 62.1228 202.997 72.4819 202.997 72.4819C202.997 72.4819 220.206 74.0433 209.617 78.3247Z" fill="#F5F5F5"></path><path d="M306.232 47.3948C306.232 47.3948 305.533 39.1651 296.765 36.6479C292.455 35.4103 290.895 36.7961 290.418 38.5252C288.112 35.6982 284.672 33.0203 279.53 31.544C265.18 27.4233 269.431 41.0682 269.431 41.0682C269.431 41.0682 254.693 32.6879 253.228 42.3822C251.763 52.0765 257.624 55.1485 261.558 55.9327C264.143 56.4485 272.102 56.1333 272.102 56.1333C277.631 59.0593 284.205 59.3535 289.978 56.9315L291.026 56.4922C291.026 56.4922 300.715 57.9108 303.632 56.7317C308.249 54.8653 308.799 53.3968 307.495 52.2685C309.054 52.3629 310.689 52.3606 311.49 52.0367C319.903 48.6347 306.232 47.3948 306.232 47.3948Z" fill="#F5F5F5"></path><path d="M266.716 72.6028C249.484 52.4105 224.28 40.8294 197.565 40.8294C172.867 40.8294 149.057 50.9357 132.046 68.5968C131.599 69.0611 130.861 69.0899 130.384 68.6545C129.9 68.2113 129.871 67.4583 130.326 66.9855C147.783 48.8601 172.218 38.4885 197.565 38.4885C224.98 38.4885 250.845 50.3723 268.529 71.0937L266.716 72.6028Z" fill="#263238"></path><path d="M268.803 72.7503H261.428C260.772 72.7503 260.242 72.2259 260.242 71.5799C260.242 70.9338 260.772 70.4094 261.428 70.4094H266.432V65.4679C266.432 64.8218 266.963 64.2974 267.617 64.2974C268.272 64.2974 268.803 64.8218 268.803 65.4679V72.7503Z" fill="#263238"></path><path d="M249.728 205.824L248.393 203.89C269.482 189.699 283.526 167.417 287.06 142.617C287.15 141.982 287.733 141.535 288.377 141.616C289.032 141.698 289.499 142.295 289.407 142.94C285.782 168.394 271.37 191.261 249.728 205.824Z" fill="#263238"></path><path d="M253.952 207.755L246.766 206.117L248.424 199.021C248.571 198.391 249.207 197.999 249.845 198.144C250.483 198.289 250.881 198.917 250.733 199.547L249.608 204.363L254.484 205.474C255.122 205.619 255.52 206.248 255.373 206.877V206.878C255.226 207.509 254.59 207.901 253.952 207.755Z" fill="#263238"></path><path d="M128.932 191.695C116.932 178.672 109.044 162.683 106.098 145.38L108.435 144.991C111.307 161.849 118.992 177.429 130.684 190.118C131.121 190.593 131.097 191.321 130.622 191.759C130.14 192.204 129.376 192.178 128.932 191.695Z" fill="#263238"></path><path d="M102.635 149.335C102.105 148.955 101.988 148.223 102.373 147.7L106.708 141.809L112.675 146.089C113.204 146.469 113.322 147.201 112.937 147.724C112.552 148.246 111.811 148.363 111.281 147.983L107.233 145.078L104.291 149.076C103.906 149.599 103.164 149.715 102.635 149.335Z" fill="#263238"></path><path d="M312.736 94.7935H306.414L307.204 69.0439H311.946L312.736 94.7935Z" fill="#263238"></path><path opacity="0.7" d="M312.736 94.7935H306.414L307.204 69.0439H311.946L312.736 94.7935Z" fill="white"></path><path d="M312.332 81.7236L312.255 79.1877H306.891L306.812 81.7236H312.332Z" fill="#407BFF"></path><path d="M306.967 76.6518H312.175L312.098 74.1158H307.045L306.967 76.6518Z" fill="#407BFF"></path><path d="M312.485 86.7955L312.408 84.2596H306.733L306.654 86.7955H312.485Z" fill="#407BFF"></path><path d="M312.642 91.8674L312.565 89.3315H306.578L306.5 91.8674H312.642Z" fill="#407BFF"></path><path d="M312.022 71.5799L311.945 69.0439H307.203L307.125 71.5799H312.022Z" fill="#407BFF"></path><path d="M323.275 94.7935H316.953L317.743 69.0439H322.485L323.275 94.7935Z" fill="#263238"></path><path opacity="0.7" d="M323.275 94.7935H316.953L317.743 69.0439H322.485L323.275 94.7935Z" fill="white"></path><path d="M322.87 81.7236L322.793 79.1877H317.429L317.352 81.7236H322.87Z" fill="#407BFF"></path><path d="M317.506 76.6518H322.714L322.636 74.1158H317.583L317.506 76.6518Z" fill="#407BFF"></path><path d="M323.024 86.7955L322.946 84.2596H317.271L317.193 86.7955H323.024Z" fill="#407BFF"></path><path d="M323.181 91.8674L323.103 89.3315H317.116L317.039 91.8674H323.181Z" fill="#407BFF"></path><path d="M322.558 71.5799L322.48 69.0439H317.738L317.66 71.5799H322.558Z" fill="#407BFF"></path><path d="M233.453 137.71H330.387V97.2086L281.92 73.5947L233.453 97.2086V137.71Z" fill="#407BFF"></path><path opacity="0.5" d="M233.453 137.71H330.387V97.2086L281.92 73.5947L233.453 97.2086V137.71Z" fill="white"></path><path d="M301.145 105.652H262.688V137.709H301.145V105.652Z" fill="#263238"></path><path d="M269.536 105.652H262.688V137.709H269.536V105.652Z" fill="#263238"></path><path opacity="0.5" d="M269.536 105.652H262.688V137.709H269.536V105.652Z" fill="white"></path><path d="M279.151 115.278H273.357V122.376H279.151V115.278Z" fill="#263238"></path><path opacity="0.6" d="M279.151 115.278H273.357V122.376H279.151V115.278Z" fill="white"></path><path d="M282.711 115.278H279.152V122.376H282.711V115.278Z" fill="#263238"></path><path opacity="0.4" d="M282.711 115.278H279.152V122.376H282.711V115.278Z" fill="white"></path><path d="M280.578 115.278V117.443L280.67 117.36L280.833 117.46L280.975 117.36L281.157 117.46L281.351 117.36L281.473 117.46L281.615 117.387V115.278H280.578Z" fill="#407BFF"></path><path opacity="0.7" d="M280.578 115.278V117.443L280.67 117.36L280.833 117.46L280.975 117.36L281.157 117.46L281.351 117.36L281.473 117.46L281.615 117.387V115.278H280.578Z" fill="#407BFF"></path><path d="M289.524 115.278H283.73V122.376H289.524V115.278Z" fill="#263238"></path><path opacity="0.6" d="M289.524 115.278H283.73V122.376H289.524V115.278Z" fill="white"></path><path d="M293.084 115.278H289.525V122.376H293.084V115.278Z" fill="#263238"></path><path opacity="0.4" d="M293.084 115.278H289.525V122.376H293.084V115.278Z" fill="white"></path><path d="M290.945 115.278V117.443L291.037 117.36L291.2 117.46L291.342 117.36L291.525 117.46L291.718 117.36L291.84 117.46L291.982 117.387V115.278H290.945Z" fill="#407BFF"></path><path opacity="0.7" d="M290.945 115.278V117.443L291.037 117.36L291.2 117.46L291.342 117.36L291.525 117.46L291.718 117.36L291.84 117.46L291.982 117.387V115.278H290.945Z" fill="#407BFF"></path><path d="M329.716 98.624L281.916 75.3355L234.116 98.624C233.333 99.0056 232.385 98.688 232 97.9147C231.613 97.1422 231.935 96.2067 232.718 95.8251L281.916 71.8546L331.115 95.8251C331.898 96.2067 332.219 97.1422 331.833 97.9147C331.446 98.688 330.499 99.0048 329.716 98.624Z" fill="#263238"></path><g opacity="0.5"><path d="M329.716 98.624L281.916 75.3355L234.116 98.624C233.333 99.0056 232.385 98.688 232 97.9147C231.613 97.1422 231.935 96.2067 232.718 95.8251L281.916 71.8546L331.115 95.8251C331.898 96.2067 332.219 97.1422 331.833 97.9147C331.446 98.688 330.499 99.0048 329.716 98.624Z" fill="white"></path></g><path d="M301.148 105.652H294.299V137.709H301.148V105.652Z" fill="#263238"></path><path opacity="0.5" d="M301.148 105.652H294.299V137.709H301.148V105.652Z" fill="white"></path><path d="M294.298 127.176H271.645V137.709H294.298V127.176Z" fill="#263238"></path><path opacity="0.4" d="M294.298 127.176H271.645V137.709H294.298V127.176Z" fill="white"></path><path d="M258.213 123.795H254.385V137.709H258.213V123.795Z" fill="#407BFF"></path><path d="M271.643 128.594C269.904 128.594 268.494 127.202 268.494 125.485C268.494 123.767 269.904 122.375 271.643 122.375H294.296V128.594H271.643Z" fill="#407BFF"></path><path d="M273.356 125.485C273.356 126.419 272.59 127.176 271.644 127.176C270.698 127.176 269.932 126.419 269.932 125.485C269.932 124.551 270.698 123.794 271.644 123.794C272.59 123.795 273.356 124.551 273.356 125.485Z" fill="#263238"></path><path d="M256.578 123.795H240.035V137.709H256.578V123.795Z" fill="#407BFF"></path><path opacity="0.3" d="M256.578 123.795H240.035V137.709H256.578V123.795Z" fill="white"></path><path opacity="0.8" d="M251.618 130.02H248.833L249.939 126.607L245 131.484H247.786L246.679 134.897L251.618 130.02Z" fill="white"></path><path d="M115.704 184.553C124.44 184.553 131.522 177.56 131.522 168.934C131.522 160.307 124.44 153.314 115.704 153.314C106.969 153.314 99.8867 160.307 99.8867 168.934C99.8867 177.56 106.969 184.553 115.704 184.553Z" fill="#407BFF"></path><path d="M113.24 184.553C121.976 184.553 129.057 177.56 129.057 168.934C129.057 160.307 121.976 153.314 113.24 153.314C104.504 153.314 97.4219 160.307 97.4219 168.934C97.4219 177.56 104.504 184.553 113.24 184.553Z" fill="#407BFF"></path><path opacity="0.3" d="M113.24 184.553C121.976 184.553 129.057 177.56 129.057 168.934C129.057 160.307 121.976 153.314 113.24 153.314C104.504 153.314 97.4219 160.307 97.4219 168.934C97.4219 177.56 104.504 184.553 113.24 184.553Z" fill="white"></path><path opacity="0.2" d="M113.24 180.943C119.957 180.943 125.403 175.566 125.403 168.934C125.403 162.301 119.957 156.924 113.24 156.924C106.523 156.924 101.078 162.301 101.078 168.934C101.078 175.566 106.523 180.943 113.24 180.943Z" fill="white"></path><path opacity="0.1" d="M102.925 168.934C102.925 162.608 107.88 157.437 114.163 156.97C113.858 156.947 113.552 156.924 113.24 156.924C106.524 156.924 101.078 162.301 101.078 168.934C101.078 175.566 106.523 180.943 113.24 180.943C113.552 180.943 113.858 180.92 114.163 180.897C107.88 180.43 102.925 175.259 102.925 168.934Z" fill="black"></path><g opacity="0.1"><path d="M118.959 173.277C118.236 173.974 117.193 174.406 115.831 174.571V176.572H114.024V174.625C113.132 174.577 112.282 174.423 111.474 174.162C110.667 173.9 110.016 173.578 109.521 173.197L110.516 171.019C110.974 171.352 111.51 171.633 112.125 171.859C112.74 172.084 113.373 172.228 114.024 172.286V169.305C113.168 169.103 112.444 168.877 111.854 168.627C111.264 168.377 110.77 168.011 110.372 167.53C109.974 167.048 109.775 166.409 109.775 165.611C109.775 164.623 110.14 163.775 110.869 163.067C111.598 162.358 112.65 161.927 114.024 161.773V159.791H115.831V161.736C117.314 161.856 118.537 162.218 119.501 162.825L118.597 165.02C117.693 164.509 116.771 164.2 115.831 164.092V167.126C116.675 167.317 117.39 167.534 117.974 167.779C118.558 168.023 119.05 168.386 119.447 168.867C119.846 169.349 120.044 169.983 120.044 170.769C120.043 171.746 119.682 172.581 118.959 173.277ZM113.029 166.199C113.258 166.389 113.59 166.551 114.024 166.681V164.146C113.566 164.253 113.228 164.423 113.011 164.654C112.794 164.887 112.686 165.157 112.686 165.467C112.686 165.765 112.799 166.008 113.029 166.199ZM116.807 171.751C117.025 171.536 117.133 171.281 117.133 170.983C117.133 170.686 117.021 170.442 116.798 170.251C116.575 170.061 116.252 169.894 115.831 169.751V172.214C116.265 172.12 116.59 171.965 116.807 171.751Z" fill="black"></path></g><path d="M117.725 173.277C117.002 173.974 115.959 174.406 114.597 174.571V176.572H112.79V174.625C111.898 174.577 111.048 174.423 110.24 174.162C109.432 173.9 108.782 173.578 108.287 173.197L109.282 171.019C109.74 171.352 110.276 171.633 110.891 171.859C111.506 172.084 112.139 172.228 112.79 172.286V169.305C111.933 169.103 111.21 168.877 110.62 168.627C110.029 168.377 109.536 168.011 109.137 167.53C108.74 167.048 108.541 166.409 108.541 165.611C108.541 164.623 108.906 163.775 109.634 163.067C110.364 162.358 111.416 161.927 112.79 161.773V159.791H114.597V161.736C116.079 161.856 117.303 162.218 118.267 162.825L117.363 165.02C116.459 164.509 115.537 164.2 114.597 164.092V167.126C115.441 167.317 116.155 167.534 116.739 167.779C117.324 168.023 117.816 168.386 118.213 168.867C118.611 169.349 118.81 169.983 118.81 170.769C118.809 171.746 118.448 172.581 117.725 173.277ZM111.795 166.199C112.023 166.389 112.355 166.551 112.79 166.681V164.146C112.331 164.253 111.994 164.423 111.777 164.654C111.559 164.887 111.452 165.157 111.452 165.467C111.451 165.765 111.566 166.008 111.795 166.199ZM115.573 171.751C115.79 171.536 115.898 171.281 115.898 170.983C115.898 170.686 115.787 170.442 115.563 170.251C115.341 170.061 115.017 169.894 114.596 169.751V172.214C115.031 172.12 115.356 171.965 115.573 171.751Z" fill="#407BFF"></path><path d="M208.125 50.7046C214.302 44.605 214.302 34.7157 208.125 28.6161C201.947 22.5165 191.932 22.5165 185.755 28.6161C179.578 34.7157 179.578 44.605 185.755 50.7046C191.932 56.8041 201.947 56.8041 208.125 50.7046Z" fill="#407BFF"></path><path d="M209.88 43.2618C211.887 34.8668 206.623 26.4544 198.121 24.4721C189.619 22.4898 181.099 27.6883 179.092 36.0833C177.084 44.4783 182.349 52.8907 190.851 54.873C199.353 56.8553 207.872 51.6568 209.88 43.2618Z" fill="#407BFF"></path><path opacity="0.3" d="M209.88 43.2618C211.887 34.8668 206.623 26.4544 198.121 24.4721C189.619 22.4898 181.099 27.6883 179.092 36.0833C177.084 44.4783 182.349 52.8907 190.851 54.873C199.353 56.8553 207.872 51.6568 209.88 43.2618Z" fill="white"></path><path opacity="0.2" d="M194.479 51.6692C201.196 51.6692 206.641 46.2923 206.641 39.6597C206.641 33.0271 201.196 27.6503 194.479 27.6503C187.762 27.6503 182.316 33.0271 182.316 39.6597C182.316 46.2923 187.762 51.6692 194.479 51.6692Z" fill="white"></path><path opacity="0.1" d="M184.162 39.6597C184.162 33.3347 189.117 28.1637 195.402 27.6963C195.096 27.6737 194.79 27.6503 194.479 27.6503C187.762 27.6503 182.316 33.0272 182.316 39.6597C182.316 46.2922 187.761 51.6692 194.479 51.6692C194.79 51.6692 195.096 51.6457 195.402 51.6231C189.117 51.1549 184.162 45.984 184.162 39.6597Z" fill="black"></path><g opacity="0.1"><path d="M200.195 44.0021C199.472 44.6996 198.429 45.1311 197.068 45.2966V47.2972H195.26V45.3504C194.368 45.302 193.519 45.1483 192.71 44.8869C191.903 44.6255 191.252 44.3025 190.758 43.9225L191.753 41.7447C192.21 42.0771 192.747 42.358 193.362 42.5843C193.976 42.8098 194.609 42.9533 195.26 43.0111V40.0304C194.404 39.8283 193.681 39.602 193.091 39.3523C192.499 39.1026 192.006 38.7367 191.608 38.2552C191.211 37.773 191.011 37.1339 191.011 36.3357C191.011 35.3479 191.377 34.4997 192.105 33.792C192.834 33.0827 193.886 32.6512 195.26 32.4975V30.5163H197.068V32.4616C198.55 32.5809 199.773 32.9438 200.737 33.5508L199.833 35.7458C198.929 35.2347 198.007 34.9249 197.068 34.8173V37.8518C197.912 38.0422 198.626 38.2599 199.21 38.5041C199.795 38.7484 200.286 39.1112 200.684 39.5926C201.082 40.0749 201.28 40.7084 201.28 41.4942C201.28 42.4711 200.918 43.3068 200.195 44.0021ZM194.266 36.9248C194.495 37.1152 194.826 37.2767 195.26 37.407V34.8719C194.802 34.9796 194.465 35.1497 194.247 35.3806C194.03 35.6132 193.923 35.8831 193.923 36.1929C193.922 36.4902 194.036 36.7344 194.266 36.9248ZM198.044 42.4774C198.261 42.262 198.369 42.0068 198.369 41.7088C198.369 41.4123 198.258 41.168 198.035 40.9776C197.812 40.7873 197.489 40.6203 197.068 40.4775V42.9401C197.502 42.8464 197.827 42.6904 198.044 42.4774Z" fill="black"></path></g><path d="M198.961 44.0021C198.238 44.6996 197.195 45.1311 195.833 45.2966V47.2972H194.026V45.3504C193.134 45.302 192.284 45.1483 191.476 44.8869C190.668 44.6255 190.018 44.3025 189.523 43.9225L190.518 41.7447C190.975 42.0771 191.512 42.358 192.126 42.5843C192.741 42.8098 193.374 42.9533 194.025 43.0111V40.0304C193.17 39.8283 192.446 39.602 191.855 39.3523C191.265 39.1026 190.771 38.7367 190.373 38.2552C189.975 37.773 189.776 37.1339 189.776 36.3357C189.776 35.3479 190.141 34.4997 190.87 33.792C191.599 33.0827 192.651 32.6512 194.025 32.4975V30.5163H195.833V32.4616C197.315 32.5809 198.538 32.9438 199.502 33.5508L198.598 35.7458C197.694 35.2347 196.772 34.9249 195.833 34.8173V37.8518C196.676 38.0422 197.391 38.2599 197.975 38.5041C198.56 38.7484 199.051 39.1112 199.449 39.5926C199.847 40.0749 200.045 40.7084 200.045 41.4942C200.046 42.4711 199.684 43.3068 198.961 44.0021ZM193.031 36.9248C193.26 37.1152 193.591 37.2767 194.026 37.407V34.8719C193.568 34.9796 193.23 35.1497 193.013 35.3806C192.796 35.6132 192.688 35.8831 192.688 36.1929C192.688 36.4902 192.802 36.7344 193.031 36.9248ZM196.809 42.4774C197.027 42.262 197.135 42.0068 197.135 41.7088C197.135 41.4123 197.023 41.168 196.801 40.9776C196.578 40.7873 196.255 40.6203 195.833 40.4775V42.9401C196.267 42.8464 196.593 42.6904 196.809 42.4774Z" fill="#407BFF"></path><path d="M233.646 153.103H215.032C214.136 153.103 213.41 153.82 213.41 154.705V173.085C213.41 173.97 214.136 174.687 215.032 174.687V177.803C215.032 178.792 216.243 179.287 216.951 178.588L220.902 174.687H233.646C234.542 174.687 235.268 173.97 235.268 173.085V154.705C235.268 153.82 234.542 153.103 233.646 153.103Z" fill="#407BFF"></path><g opacity="0.9"><path d="M229.543 162.09H219.63L219.258 160.73H215.932V161.34H218.784L220.844 168.864H227.671V168.254H221.316L220.954 166.932H227.892L229.543 162.09ZM220.788 166.323L219.797 162.7H228.683L227.45 166.323H220.788Z" fill="white"></path><path d="M221.182 170.288C221.524 170.288 221.8 170.015 221.8 169.678C221.8 169.341 221.524 169.068 221.182 169.068C220.841 169.068 220.564 169.341 220.564 169.678C220.564 170.015 220.841 170.288 221.182 170.288Z" fill="white"></path><path d="M228.289 169.678C228.289 170.015 228.012 170.288 227.671 170.288C227.329 170.288 227.053 170.015 227.053 169.678C227.053 169.341 227.329 169.068 227.671 169.068C228.012 169.068 228.289 169.341 228.289 169.678Z" fill="white"></path></g><path d="M227.523 163.704C229.528 163.704 231.153 162.099 231.153 160.119C231.153 158.14 229.528 156.535 227.523 156.535C225.518 156.535 223.893 158.14 223.893 160.119C223.893 162.099 225.518 163.704 227.523 163.704Z" fill="#407BFF"></path><path opacity="0.3" d="M227.523 163.704C229.528 163.704 231.153 162.099 231.153 160.119C231.153 158.14 229.528 156.535 227.523 156.535C225.518 156.535 223.893 158.14 223.893 160.119C223.893 162.099 225.518 163.704 227.523 163.704Z" fill="black"></path><g opacity="0.9"><path d="M227.408 162.442L224.421 159.385C223.957 158.91 223.971 158.154 224.452 157.696C224.933 157.238 225.699 157.251 226.163 157.726L227.47 159.064L231.46 155.119C231.941 154.661 232.707 154.675 233.171 155.15C233.634 155.625 233.621 156.381 233.14 156.839L227.408 162.442Z" fill="white"></path></g><path d="M142.679 81.6932H72.8691V137.709H142.679V81.6932Z" fill="#407BFF"></path><path opacity="0.5" d="M142.679 81.6932H72.8691V137.709H142.679V81.6932Z" fill="white"></path><path d="M81.1155 75.4415H70.4531V82.9003H81.1155V75.4415Z" fill="#407BFF"></path><path d="M102.315 75.4415H91.6523V82.9003H102.315V75.4415Z" fill="#407BFF"></path><path d="M123.52 75.4415H112.857V82.9003H123.52V75.4415Z" fill="#407BFF"></path><path d="M144.719 75.4415H134.057V82.9003H144.719V75.4415Z" fill="#407BFF"></path><g opacity="0.2"><path d="M81.1155 75.4415H70.4531V82.9003H81.1155V75.4415Z" fill="white"></path><path d="M102.315 75.4415H91.6523V82.9003H102.315V75.4415Z" fill="white"></path><path d="M123.52 75.4415H112.857V82.9003H123.52V75.4415Z" fill="white"></path><path d="M144.719 75.4415H134.057V82.9003H144.719V75.4415Z" fill="white"></path></g><path d="M81.4387 88.0588C81.4387 89.8808 78.9796 91.3571 75.9459 91.3571C72.9123 91.3571 70.4531 89.8808 70.4531 88.0588V82.8262H81.1203L81.4387 88.0588Z" fill="#407BFF"></path><path d="M102.657 88.0588C102.657 89.8808 100.198 91.3571 97.1647 91.3571C94.131 91.3571 91.6719 89.8808 91.6719 88.0588V82.8262H102.339L102.657 88.0588Z" fill="#407BFF"></path><path d="M123.878 88.0588C123.878 89.8808 121.419 91.3571 118.385 91.3571C115.352 91.3571 112.893 89.8808 112.893 88.0588V82.8262H123.56L123.878 88.0588Z" fill="#407BFF"></path><path d="M144.72 88.0588C144.72 89.8808 142.579 91.3571 139.546 91.3571C136.512 91.3571 134.053 89.8808 134.053 88.0588V82.8262H144.72V88.0588Z" fill="#407BFF"></path><path d="M91.7132 82.8262V75.4415H81.0508V82.9003H81.0595V88.0596C81.0595 89.8808 83.5186 91.3579 86.5523 91.3579C89.5859 91.3579 91.7266 89.8808 91.7266 88.0596V82.8262H91.7132Z" fill="#263238"></path><path opacity="0.8" d="M91.7132 75.4415H81.0508L81.0595 88.0588C81.0595 89.88 83.5186 91.3571 86.5523 91.3571C89.5859 91.3571 91.7266 89.88 91.7266 88.0588L91.7132 75.4415Z" fill="white"></path><path d="M112.979 82.8262V75.4415H102.316V82.9003H102.325V88.0596C102.325 89.8808 104.784 91.3579 107.818 91.3579C110.852 91.3579 112.992 89.8808 112.992 88.0596V82.8262H112.979Z" fill="#263238"></path><path opacity="0.8" d="M112.979 75.4415H102.316L102.325 88.0588C102.325 89.88 104.784 91.3571 107.818 91.3571C110.852 91.3571 112.992 89.88 112.992 88.0588L112.979 75.4415Z" fill="white"></path><path d="M134.182 82.8262V75.4415H123.52V82.9003H123.528V88.0596C123.528 89.8808 125.987 91.3579 129.021 91.3579C132.055 91.3579 134.195 89.8808 134.195 88.0596V82.8262H134.182Z" fill="#263238"></path><path opacity="0.8" d="M134.182 75.4415H123.52L123.528 88.0588C123.528 89.88 125.987 91.3571 129.021 91.3571C132.055 91.3571 134.195 89.88 134.195 88.0588L134.182 75.4415Z" fill="white"></path><path opacity="0.5" d="M135.126 99.2239H103.291V117.057H135.126V99.2239Z" fill="white"></path><path opacity="0.4" d="M123.675 117.044H117.912L122.24 99.3979H128.003L123.675 117.044Z" fill="white"></path><path opacity="0.4" d="M126.474 117.044H125.195L129.523 99.3979H130.801L126.474 117.044Z" fill="white"></path><path opacity="0.4" d="M108.721 117.044H108.074L112.402 99.3979H113.049L108.721 117.044Z" fill="white"></path><path d="M135.757 117.682H102.658V98.5997H135.757V117.682ZM103.923 116.433H134.493V99.8482H103.923V116.433Z" fill="#407BFF"></path><path d="M95.5336 92.6976H76.3945V137.553H95.5336V92.6976Z" fill="#407BFF"></path><path opacity="0.7" d="M94.7202 93.5099H77.209V137.553H94.7202V93.5099Z" fill="white"></path><path opacity="0.1" d="M85.5554 99.3199H78.5352V115.449H85.5554V99.3199Z" fill="black"></path><path opacity="0.1" d="M93.4871 99.3199H86.4668V115.449H93.4871V99.3199Z" fill="black"></path><path opacity="0.1" d="M93.4892 120.328H78.5352V136.458H93.4892V120.328Z" fill="black"></path><path opacity="0.1" d="M93.49 98.4858H78.5352C78.5352 96.3837 80.261 94.6788 82.3906 94.6788H89.6346C91.7634 94.6788 93.49 96.3829 93.49 98.4858Z" fill="black"></path><path d="M79.8122 116.176H78.5352V119.461H79.8122V116.176Z" fill="#407BFF"></path><path opacity="0.3" d="M79.8122 116.176H78.5352V119.461H79.8122V116.176Z" fill="white"></path><path d="M79.81 119.461H80.0605V116.176H79.81V119.461Z" fill="#407BFF"></path><path d="M79.3888 117.466C79.3888 117.76 79.1478 117.998 78.8506 117.998C78.5535 117.998 78.3125 117.76 78.3125 117.466C78.3125 117.173 78.5535 116.935 78.8506 116.935C79.1478 116.935 79.3888 117.173 79.3888 117.466Z" fill="#263238"></path><path opacity="0.5" d="M79.2871 118.385H79.0098V119.05H79.2871V118.385Z" fill="white"></path><path d="M78.3773 118.209C78.7928 118.209 79.1296 117.877 79.1296 117.466C79.1296 117.056 78.7928 116.724 78.3773 116.724C77.9618 116.724 77.625 117.056 77.625 117.466C77.625 117.877 77.9618 118.209 78.3773 118.209Z" fill="#263238"></path><path opacity="0.2" d="M78.3773 118.209C78.7928 118.209 79.1296 117.877 79.1296 117.466C79.1296 117.056 78.7928 116.724 78.3773 116.724C77.9618 116.724 77.625 117.056 77.625 117.466C77.625 117.877 77.9618 118.209 78.3773 118.209Z" fill="white"></path><path d="M279.737 151.351H251.584L256.963 158.329H285.116L279.737 151.351Z" fill="#407BFF"></path><path opacity="0.3" d="M279.737 151.351H251.584L256.963 158.329H285.116L279.737 151.351Z" fill="white"></path><path d="M290.212 151.351H307.505L302.41 158.329H285.117L290.212 151.351Z" fill="#407BFF"></path><path opacity="0.1" d="M290.212 151.351H307.505L302.41 158.329H285.117L290.212 151.351Z" fill="white"></path><path d="M285.118 158.329H256.965V186.129H285.118V158.329Z" fill="#407BFF"></path><path opacity="0.5" d="M285.118 158.329H256.965V186.129H285.118V158.329Z" fill="white"></path><path opacity="0.2" d="M273.593 158.329H268.492V164.589H273.593V158.329Z" fill="black"></path><path opacity="0.2" d="M273.593 181.104H268.492V186.128H273.593V181.104Z" fill="black"></path><path d="M302.41 158.329H285.117V186.129H302.41V158.329Z" fill="#407BFF"></path><path opacity="0.3" d="M302.41 158.329H285.117V186.129H302.41V158.329Z" fill="white"></path><path opacity="0.8" d="M294.885 184.306V179.269H287.115V184.306H294.885Z" fill="white"></path><path d="M216.762 261.885C223.275 262.213 226.53 262.422 233.035 262.927C231.96 239.801 230.597 216.7 228.945 193.606C228.729 190.672 225.853 188.122 222.528 187.945C220.005 187.811 218.744 187.749 216.222 187.639C191.577 186.728 167.039 186.993 142.418 188.438C147.927 212.824 153.056 237.278 157.808 261.819C177.504 261.027 197.068 261.048 216.762 261.885Z" fill="#407BFF"></path><path opacity="0.5" d="M216.762 261.885C223.275 262.213 226.53 262.422 233.035 262.927C231.96 239.801 230.597 216.7 228.945 193.606C228.729 190.672 225.853 188.122 222.528 187.945C220.005 187.811 218.744 187.749 216.222 187.639C191.577 186.728 167.039 186.993 142.418 188.438C147.927 212.824 153.056 237.278 157.808 261.819C177.504 261.027 197.068 261.048 216.762 261.885Z" fill="white"></path><path d="M165.078 261.513C158.561 261.748 155.304 261.91 148.794 262.321C144.404 239.579 139.733 216.904 134.775 194.277C134.139 191.402 136.309 188.858 139.633 188.626C142.153 188.45 143.413 188.368 145.935 188.216C149.259 188.016 152.412 190.222 152.967 193.113C157.29 215.867 161.325 238.662 165.078 261.513Z" fill="#407BFF"></path><path d="M174.152 274.33L171.068 239.519C170.93 237.964 169.714 236.715 168.146 236.517L166.877 236.357C164.774 236.092 163.142 234.416 162.957 232.33L162.395 225.983C162.164 223.381 164.241 221.144 166.885 221.144H138.436C135.791 221.144 133.715 223.381 133.945 225.983L134.508 232.33C134.693 234.416 136.324 236.092 138.427 236.357L139.696 236.517C141.263 236.714 142.48 237.964 142.618 239.519L145.702 274.33C145.927 276.868 148.079 278.815 150.659 278.815H179.109C176.529 278.815 174.377 276.868 174.152 274.33Z" fill="#407BFF"></path><g opacity="0.2"><path d="M174.152 274.33L171.068 239.519C170.93 237.964 169.714 236.715 168.146 236.517L166.877 236.357C164.774 236.092 163.142 234.416 162.957 232.33L162.395 225.983C162.164 223.381 164.241 221.144 166.885 221.144H138.436C135.791 221.144 133.715 223.381 133.945 225.983L134.508 232.33C134.693 234.416 136.324 236.092 138.427 236.357L139.696 236.517C141.263 236.714 142.48 237.964 142.618 239.519L145.702 274.33C145.927 276.868 148.079 278.815 150.659 278.815H179.109C176.529 278.815 174.377 276.868 174.152 274.33Z" fill="white"></path></g><path d="M252.45 230.804C252.934 225.338 257.57 221.144 263.127 221.144H249.361H238.359C232.801 221.144 228.166 225.338 227.681 230.804L225.236 258.398H250.004L252.45 230.804Z" fill="#407BFF"></path><path opacity="0.2" d="M252.45 230.804C252.934 225.338 257.57 221.144 263.127 221.144H249.361H238.359C232.801 221.144 228.166 225.338 227.681 230.804L225.236 258.398H250.004L252.45 230.804Z" fill="white"></path><path d="M246.931 257.111C229.57 259.102 212.708 259.505 195.281 258.344C192.676 258.116 190.778 255.991 191.035 253.657C191.53 249.188 191.776 246.953 192.27 242.484C192.529 240.15 194.663 238.469 197.042 238.677C212.689 240.142 228.653 239.661 244.211 237.551C246.58 237.23 248.798 238.806 249.171 241.126C249.883 245.566 250.239 247.786 250.951 252.226C251.323 254.545 249.525 256.759 246.931 257.111Z" fill="#407BFF"></path><path d="M196.703 238.647C192.789 238.299 190.834 238.08 186.935 237.551C184.566 237.23 182.349 238.806 181.978 241.126C181.266 245.566 180.909 247.786 180.197 252.226C179.825 254.545 181.621 256.759 184.216 257.111C188.484 257.69 190.625 257.93 194.911 258.311C195.629 250.446 195.987 246.512 196.703 238.647Z" fill="#407BFF"></path><g opacity="0.4"><path d="M246.931 257.111C229.57 259.102 212.708 259.505 195.281 258.344C192.676 258.116 190.778 255.991 191.035 253.657C191.53 249.188 191.776 246.953 192.27 242.484C192.529 240.15 194.663 238.469 197.042 238.677C212.689 240.142 228.653 239.661 244.211 237.551C246.58 237.23 248.798 238.806 249.171 241.126C249.883 245.566 250.239 247.786 250.951 252.226C251.323 254.545 249.525 256.759 246.931 257.111Z" fill="white"></path></g><path d="M274.123 221.144H263.121C257.563 221.144 252.928 225.338 252.444 230.804L249.999 258.398H191.01L188.565 230.804C188.08 225.338 183.445 221.144 177.887 221.144H166.885C164.24 221.144 162.164 223.381 162.394 225.983L162.957 232.33C163.142 234.416 164.774 236.092 166.877 236.357L168.146 236.517C169.713 236.714 170.93 237.964 171.068 239.519L174.152 274.33C174.377 276.868 176.529 278.815 179.109 278.815H261.899C264.479 278.815 266.63 276.867 266.856 274.33L269.94 239.519C270.077 237.964 271.294 236.715 272.862 236.517L274.13 236.357C276.234 236.092 277.866 234.416 278.051 232.33L278.613 225.983C278.844 223.381 276.768 221.144 274.123 221.144Z" fill="#407BFF"></path><path opacity="0.6" d="M274.123 221.144H263.121C257.563 221.144 252.928 225.338 252.444 230.804L249.999 258.398H191.01L188.565 230.804C188.08 225.338 183.445 221.144 177.887 221.144H166.885C164.24 221.144 162.164 223.381 162.394 225.983L162.957 232.33C163.142 234.416 164.774 236.092 166.877 236.357L168.146 236.517C169.713 236.714 170.93 237.964 171.068 239.519L174.152 274.33C174.377 276.868 176.529 278.815 179.109 278.815H261.899C264.479 278.815 266.63 276.867 266.856 274.33L269.94 239.519C270.077 237.964 271.294 236.715 272.862 236.517L274.13 236.357C276.234 236.092 277.866 234.416 278.051 232.33L278.613 225.983C278.844 223.381 276.768 221.144 274.123 221.144Z" fill="white"></path><path d="M238.322 264.464L240.966 276.596L245.094 275.194L244.611 263.715L238.322 264.464Z" fill="#FFC3BD"></path><path d="M199.644 213.523C199.644 213.523 205.239 213.728 211.34 212.019L215.231 220.082C215.231 220.082 239.556 215.767 242.659 223.173C245.305 229.486 245.412 268.41 245.412 268.41L238.664 269.23C238.664 269.23 231.248 240.879 231.278 231.497C231.281 230.757 230.433 230.328 229.841 230.781C226.097 233.654 216.15 239.863 201.091 238.904C198.759 238.756 196.037 238.257 196.729 230.741C197.421 223.225 199.644 213.523 199.644 213.523Z" fill="#407BFF"></path><path opacity="0.1" d="M213.126 234.895C219.801 231.972 229.062 223.978 233.342 221.005C234.573 220.15 235.693 219.702 236.672 219.485C232.955 218.691 228.203 218.737 224.11 219.029L214.397 223.265L198.801 230.126L196.877 235.566C197.547 238.496 199.414 238.797 201.087 238.904C208.066 239.349 213.931 238.247 218.606 236.657C217.832 236.73 206.68 237.718 213.126 234.895Z" fill="black"></path><path d="M259.643 242.229L267.993 250.56L271.228 248.034L264.8 238.484L259.643 242.229Z" fill="#FFC3BD"></path><path d="M270.629 246.897L266.87 249.74C266.707 249.863 266.651 250.081 266.738 250.265L268.647 254.327C268.814 254.689 269.246 254.848 269.612 254.684C269.658 254.662 269.703 254.637 269.744 254.606C271.281 253.402 272.602 252.272 274.543 250.809C276.833 249.08 276.462 249.79 279.182 247.794C280.82 246.59 279.707 244.545 278.95 244.975C275.5 246.962 273.884 246.693 271.808 246.498C271.379 246.483 270.96 246.625 270.629 246.897Z" fill="#263238"></path><path opacity="0.1" d="M202.166 219.399L206.321 220.384C206.321 220.384 214.095 214.411 210.467 216.392C207.817 217.84 206.493 214.84 205.971 213.118C204.321 213.344 202.875 213.448 201.781 213.495L202.166 219.399Z" fill="black"></path><path d="M203.948 213.043C193.638 214.724 189.083 213.143 189.083 213.143C189.083 213.143 181.736 239.214 197.945 239.105C205.125 239.057 208.111 236.275 212.777 233.571C223.402 227.414 232.171 218.296 236.275 218.884C242.182 219.73 238.836 226.653 262.915 246.013L267.912 241.678C267.912 241.678 247.101 204.782 236.178 204.855C225.65 204.926 208.713 217.986 206.489 218.001C204.266 218.015 203.948 213.043 203.948 213.043Z" fill="#407BFF"></path><path opacity="0.1" d="M239.565 220.384L239.557 220.387C241.034 221.044 242.142 221.944 242.657 223.174C242.969 223.916 243.245 225.111 243.49 226.638C244.172 227.611 244.974 228.691 245.927 229.881C245.302 222.061 239.565 220.384 239.565 220.384Z" fill="black"></path><path d="M245.036 274.1L240.308 274.377C240.103 274.389 239.934 274.54 239.901 274.74L239.18 279.161C239.113 279.553 239.381 279.924 239.778 279.99C239.828 279.999 239.88 280.002 239.932 279.999C241.888 279.851 243.623 279.643 246.061 279.505C248.939 279.338 248.229 279.72 251.614 279.569C253.654 279.477 253.89 277.168 253.019 277.105C249.034 276.845 247.848 275.729 246.238 274.42C245.892 274.171 245.463 274.057 245.036 274.1Z" fill="#263238"></path><path d="M202.736 178.46C204.065 177.951 206.278 178.824 208.202 182.21C210.125 185.597 218.293 199.568 215.965 201.36C213.636 203.152 209.195 198.066 207.562 194.418C205.93 190.768 200.393 179.358 202.736 178.46Z" fill="#263238"></path><path opacity="0.4" d="M206.324 184.908L206.607 187.147L206.461 191.992C206.902 192.962 207.29 193.801 207.566 194.417C208.168 195.764 209.154 197.306 210.275 198.626C210.619 191.805 208.018 184.908 208.018 184.908H206.324Z" fill="black"></path><path d="M188.577 213.659C188.577 213.659 202.858 215.331 211.972 212.377C211.972 212.377 209.195 208.931 208.837 202.021C208.486 195.251 211.398 187.121 204.537 178.88C204.266 178.554 203.845 178.381 203.419 178.411C199.809 178.661 182.995 179.982 182.748 182.91C182.434 186.645 189.783 194.605 188.577 213.659Z" fill="#263238"></path><path d="M189.977 170.628C189.977 170.628 191.846 176.017 190.391 178.325C190.391 178.325 195.647 178.587 196.93 176.896C196.93 176.896 196.184 176.495 195.951 174.441C195.72 172.387 193.714 170.252 189.977 170.628Z" fill="#FFC3BD"></path><path opacity="0.2" d="M195.953 174.442C195.738 172.537 193.996 170.568 190.767 170.588L190.548 170.781L190.314 171.191C190.314 171.191 192.299 176.45 196.278 175.891C196.147 175.536 196.025 175.075 195.953 174.442Z" fill="black"></path><path d="M188.001 163.466C188.627 168.426 188.782 170.539 191.489 172.936C195.563 176.544 201.594 174.703 202.484 169.659C203.286 165.118 202.13 157.775 197.072 156.097C193.464 154.88 189.541 156.781 188.308 160.343C187.961 161.346 187.856 162.416 188.001 163.466Z" fill="#FFC3BD"></path><path d="M199.109 166.388C199.532 167.29 200.08 168.132 200.735 168.887C200.333 169.214 199.804 169.348 199.292 169.253L199.109 166.388Z" fill="#ED893E"></path><path d="M194.679 163.803C194.645 163.797 194.612 163.784 194.584 163.763C194.497 163.695 194.483 163.57 194.551 163.484L194.554 163.481C195.015 162.879 195.745 162.538 196.509 162.566C196.618 162.58 196.696 162.676 196.687 162.783C196.676 162.89 196.581 162.969 196.472 162.961C195.842 162.948 195.243 163.234 194.863 163.732C194.818 163.786 194.749 163.813 194.679 163.803Z" fill="#2E353A"></path><path d="M202.131 163.014C202.097 163.008 202.064 162.995 202.036 162.974C201.544 162.589 200.894 162.461 200.289 162.629C200.186 162.668 200.07 162.617 200.031 162.514L200.03 162.512C199.995 162.407 200.05 162.294 200.154 162.256C200.887 162.043 201.679 162.192 202.281 162.656C202.372 162.719 202.395 162.842 202.331 162.932C202.286 162.996 202.209 163.028 202.131 163.014Z" fill="#2E353A"></path><path d="M196.168 165.897C196.192 166.299 196.431 166.614 196.703 166.6C196.975 166.586 197.167 166.244 197.138 165.835C197.108 165.426 196.874 165.118 196.608 165.133C196.342 165.148 196.144 165.489 196.168 165.897Z" fill="#2E353A"></path><path d="M200.809 165.611C200.834 166.014 201.073 166.328 201.339 166.313C201.605 166.299 201.803 165.958 201.779 165.55C201.755 165.141 201.516 164.832 201.25 164.847C200.983 164.862 200.78 165.202 200.809 165.611Z" fill="#2E353A"></path><path d="M201.131 164.876L202.098 164.537C202.098 164.537 201.638 165.326 201.131 164.876Z" fill="#2E353A"></path><path d="M196.494 165.162L197.461 164.822C197.461 164.822 197.001 165.611 196.494 165.162Z" fill="#2E353A"></path><path d="M196.669 169.957C196.56 169.835 196.462 169.703 196.376 169.563C196.346 169.52 196.357 169.46 196.402 169.431L196.405 169.428C196.453 169.403 196.513 169.418 196.541 169.464C196.977 170.18 197.73 170.649 198.571 170.728C198.626 170.729 198.669 170.774 198.669 170.827C198.668 170.881 198.623 170.924 198.568 170.923C197.829 170.868 197.144 170.519 196.669 169.957Z" fill="#263238"></path><path opacity="0.4" d="M190.318 195.921C189.551 192.395 186.817 186.318 186.817 186.318L184.85 185.78L183.889 187.088C185.602 191.303 188.629 198.036 188.705 209.09C192.496 208.976 196.698 203.693 196.698 203.693L194.542 199.046C192.151 200.15 191.084 199.447 190.318 195.921Z" fill="black"></path><path d="M189.441 167.414C189.441 167.414 192.692 165.941 190.799 163.185C190.799 163.185 194.136 163.641 194.41 160.43C194.41 160.43 197.374 161.899 199.039 159.61C199.039 159.61 202.18 161.377 202.93 159.161C203.68 156.945 201.191 156.365 201.191 156.365C201.191 156.365 201.569 154.178 200.289 153.597C199.009 153.016 197.729 153.979 197.729 153.979C197.729 153.979 197.483 151.376 195.34 151.479C193.196 151.581 192.073 153.46 192.073 153.46C192.073 153.46 190.221 152.209 188.11 153.159C186 154.11 185.654 156.945 185.654 156.945C185.654 156.945 183.316 157.424 182.893 159.235C182.471 161.046 183.266 161.661 183.266 161.661C183.266 161.661 181.986 163.401 182.401 165.007C182.816 166.614 183.666 166.601 183.666 166.601C183.666 166.601 183.37 168.773 184.547 170.17C185.723 171.568 186.622 170.923 186.622 170.923C186.622 170.923 187.006 174.062 189.167 173.72C191.328 173.378 189.441 167.414 189.441 167.414Z" fill="#263238"></path><path d="M187.057 167.477C187.395 168.384 188.085 169.121 188.974 169.526C190.156 170.053 190.942 169.057 190.778 167.853C190.631 166.774 189.837 165.194 188.569 165.172C187.646 165.184 186.907 165.933 186.92 166.844C186.923 167.063 186.969 167.277 187.057 167.477Z" fill="#FFC3BD"></path><path d="M189.443 180.066L190.718 176.367C190.718 176.367 192.611 177.17 194.963 176.897C196.517 176.717 196.492 176.018 196.492 176.018L199.643 178.718L198.293 180.426L195.862 179.322L194.035 181.339L189.443 180.066Z" fill="#263238"></path><path opacity="0.7" d="M189.443 180.066L190.718 176.367C190.718 176.367 192.611 177.17 194.963 176.897C196.517 176.717 196.492 176.018 196.492 176.018L199.643 178.718L198.293 180.426L195.862 179.322L194.035 181.339L189.443 180.066Z" fill="white"></path><path d="M206.92 194.662H203.858C203.228 194.662 202.826 194.158 202.959 193.536L204.66 185.636C204.793 185.014 205.413 184.51 206.043 184.51H209.105C209.735 184.51 210.137 185.014 210.003 185.636L208.303 193.536C208.168 194.158 207.55 194.662 206.92 194.662Z" fill="#407BFF"></path><path opacity="0.3" d="M206.92 194.662H203.858C203.228 194.662 202.826 194.158 202.959 193.536L204.66 185.636C204.793 185.014 205.413 184.51 206.043 184.51H209.105C209.735 184.51 210.137 185.014 210.003 185.636L208.303 193.536C208.168 194.158 207.55 194.662 206.92 194.662Z" fill="white"></path><path d="M207.372 194.662H204.31C203.68 194.662 203.278 194.158 203.413 193.536L205.113 185.636C205.247 185.014 205.866 184.51 206.496 184.51H209.558C210.188 184.51 210.59 185.014 210.457 185.636L208.756 193.536C208.622 194.158 208.002 194.662 207.372 194.662Z" fill="#407BFF"></path><path opacity="0.7" d="M207.372 194.662H204.31C203.68 194.662 203.278 194.158 203.413 193.536L205.113 185.636C205.247 185.014 205.866 184.51 206.496 184.51H209.558C210.188 184.51 210.59 185.014 210.457 185.636L208.756 193.536C208.622 194.158 208.002 194.662 207.372 194.662Z" fill="white"></path><path d="M206.153 186.846H206.45C206.873 186.846 207.289 186.507 207.378 186.09L207.441 185.796C207.531 185.378 207.261 185.04 206.838 185.04H206.541C206.118 185.04 205.703 185.378 205.614 185.796L205.55 186.09C205.461 186.507 205.73 186.846 206.153 186.846Z" fill="#407BFF"></path><path d="M206.892 185.491C206.855 185.665 206.682 185.805 206.507 185.805C206.331 185.805 206.22 185.665 206.257 185.491C206.294 185.318 206.467 185.178 206.642 185.178C206.817 185.178 206.929 185.319 206.892 185.491Z" fill="#263238"></path><path d="M206.696 186.394C206.659 186.567 206.487 186.707 206.312 186.707C206.136 186.707 206.025 186.567 206.062 186.394C206.099 186.221 206.271 186.08 206.447 186.08C206.622 186.081 206.734 186.221 206.696 186.394Z" fill="#263238"></path><path d="M215.472 197.943L211.182 194.67C211.182 194.67 209.506 191.069 208.345 190.619C207.739 190.385 207.045 190.678 206.634 191.176C205.95 192.004 205.881 194.622 206.569 195.446C207.184 196.184 209.35 196.82 209.35 196.82L213.366 200.95L215.472 197.943Z" fill="#FFC3BD"></path><path d="M216.521 201.573C214.525 203.428 212.517 201.153 210.469 198.854C210.469 198.854 212.401 198.097 213.11 195.743C213.11 195.743 219.148 199.132 216.521 201.573Z" fill="#263238"></path><path opacity="0.7" d="M210.469 198.854C210.667 199.076 210.865 199.298 211.062 199.515C211.647 199.211 213.141 198.255 213.837 196.194C213.406 195.909 213.11 195.743 213.11 195.743C212.401 198.097 210.469 198.854 210.469 198.854Z" fill="white"></path><path d="M196.932 197.943L201.222 194.67C201.222 194.67 202.898 191.069 204.059 190.619C204.665 190.385 205.359 190.678 205.77 191.176C206.453 192.004 206.522 194.622 205.835 195.446C205.219 196.184 203.054 196.82 203.054 196.82L199.038 200.95L196.932 197.943Z" fill="#FFC3BD"></path><path d="M181.554 193.953C180.864 191.265 180.104 184.519 182.739 182.379C185.374 180.238 186.901 186.096 187.939 190.619C188.977 195.141 189.562 201.188 191.851 200.249C194.139 199.31 197.869 196.618 197.869 196.618L200.541 200.347C200.541 200.347 192.367 209.655 188.77 206.909C185.171 204.161 182.429 197.362 181.554 193.953Z" fill="#263238"></path><path opacity="0.7" d="M196.865 197.317L199.616 201.34C200.193 200.741 200.541 200.346 200.541 200.346L197.868 196.618C197.868 196.618 197.473 196.903 196.865 197.317Z" fill="white"></path></svg>