<svg xmlns="http://www.w3.org/2000/svg" width="500" height="300" viewBox="0 0 500 300" fill="none"><rect width="500" height="300" rx="24" fill="white"></rect><path d="M247.448 171.077L137.77 237.305L181.54 264.084L182.023 263.796L142.341 288.655" stroke="white" stroke-width="5.0555" stroke-miterlimit="10"></path><path d="M181.542 211.102L153.397 194.258L121.173 214.125L115.158 210.526" stroke="white" stroke-width="5.0555" stroke-miterlimit="10"></path><path d="M247.926 197.28L198.139 227.659L220.265 240.326L204.152 250.549" stroke="white" stroke-width="5.0555" stroke-miterlimit="10"></path><path d="M258.992 204.481L297.716 227.659L314.794 217.437L353.517 240.618" stroke="white" stroke-width="5.0555" stroke-miterlimit="10"></path><path d="M246.969 217.723L297.714 247.528L276.068 260.483L292.184 270.131" stroke="white" stroke-width="5.0555" stroke-miterlimit="10"></path><path d="M309.266 174.389L358.088 204.191L370.117 197.569L400.813 216.52" stroke="white" stroke-width="5.0555" stroke-miterlimit="10"></path><path d="M385.746 240.618L336.441 211.104L352.691 200.878" stroke="white" stroke-width="5.0555" stroke-miterlimit="10"></path><path d="M95.7734 195.638L121.174 181.012L136.803 190.947L181.544 164.742L193.086 171.654L209.687 161.142" stroke="white" stroke-width="5.0555" stroke-miterlimit="10"></path><path d="M291.705 157.833L303.731 164.454L319.362 154.52L364.58 181.01L374.682 174.387L403.308 190.944" stroke="white" stroke-width="5.0555" stroke-miterlimit="10"></path><path d="M309.266 147.9L347.025 124.721L365.368 135.699L384.615 122.088" stroke="white" stroke-width="5.0555" stroke-miterlimit="10"></path><path d="M280.637 144.587L309.262 128.031L297.715 121.696L319.841 108.45" stroke="white" stroke-width="5.0555" stroke-miterlimit="10"></path><path d="M253.941 128.03L276.07 114.784L265.006 108.162L292.184 91.3173" stroke="white" stroke-width="5.0555" stroke-miterlimit="10"></path><path d="M319.844 94.6271L297.235 108.161L281.604 98.2271" stroke="white" stroke-width="5.0555" stroke-miterlimit="10"></path><path d="M287.137 75.0481L258.993 91.3173L264.524 94.6283L242.396 108.451L266.639 122.384" stroke="white" stroke-width="5.0555" stroke-miterlimit="10"></path><path d="M256.573 129.605L198.62 94.9161L220.269 81.9593L194.771 66.6981" stroke="white" stroke-width="5.0555" stroke-miterlimit="10"></path><path d="M230.857 141.848L175.53 108.162L164.948 115.073L137.773 98.8064" stroke="white" stroke-width="5.0555" stroke-miterlimit="10"></path><path d="M214.256 164.454L153.883 128.317L131.751 140.986L95.7734 120.028" stroke="white" stroke-width="5.0555" stroke-miterlimit="10"></path><path d="M181.545 131.053L169.998 137.963" stroke="white" stroke-width="5.0555" stroke-miterlimit="10"></path><path d="M170.479 91.3173L198.139 108.45L186.108 115.074" stroke="white" stroke-width="5.0555" stroke-miterlimit="10"></path><path d="M99.1688 121.803C97.3316 122.605 94.3077 122.573 92.4167 121.73C90.5278 120.888 90.5278 119.585 92.4167 118.823C94.3077 118.061 97.3318 118.094 99.1688 118.896C101.007 119.699 101.007 121 99.1688 121.803Z" fill="white"></path><path d="M143.751 100.281C141.913 101.083 138.891 101.051 137 100.208C135.109 99.3655 135.109 98.0636 137.001 97.3012C138.891 96.5388 141.913 96.5717 143.751 97.3745C145.588 98.1767 145.588 99.4772 143.751 100.281Z" fill="white"></path><path d="M173.399 92.788C171.56 93.5901 168.536 93.5581 166.645 92.7155C164.754 91.8728 164.754 90.5709 166.645 89.8085C168.538 89.0461 171.56 89.0783 173.399 89.8811C175.235 90.684 175.234 91.9852 173.399 92.788Z" fill="white"></path><path d="M199.013 68.1724C197.175 68.9752 194.152 68.9432 192.262 68.1006C190.373 67.258 190.373 65.956 192.262 65.1929C194.152 64.4312 197.175 64.4634 199.013 65.2662C200.853 66.0684 200.853 67.3704 199.013 68.1724Z" fill="white"></path><path d="M290.534 76.2313C288.695 77.0341 285.673 77.0026 283.782 76.1587C281.891 75.3168 281.891 74.0149 283.782 73.2525C285.673 72.4901 288.695 72.5223 290.534 73.325C292.371 74.1278 292.371 75.4285 290.534 76.2313Z" fill="white"></path><path d="M295.094 93.078C293.256 93.8815 290.234 93.8501 288.341 93.0062C286.451 92.165 286.451 90.8623 288.343 90.0992C290.234 89.3376 293.256 89.3697 295.094 90.1718C296.931 90.9746 296.931 92.2758 295.094 93.078Z" fill="white"></path><path d="M322.566 96.1726C320.729 96.9753 317.706 96.9439 315.815 96.1C313.923 95.2588 313.923 93.9562 315.816 93.1945C317.706 92.4321 320.729 92.4635 322.566 93.2663C324.404 94.0686 324.404 95.3698 322.566 96.1726Z" fill="white"></path><path d="M323.239 109.348C321.401 110.151 318.378 110.119 316.487 109.275C314.598 108.433 314.598 107.131 316.489 106.369C318.379 105.607 321.403 105.638 323.239 106.441C325.078 107.244 325.076 108.544 323.239 109.348Z" fill="white"></path><path d="M388.008 122.883C386.169 123.685 383.147 123.654 381.257 122.81C379.367 121.968 379.367 120.666 381.258 119.904C383.149 119.141 386.171 119.173 388.008 119.976C389.847 120.779 389.847 122.08 388.008 122.883Z" fill="white"></path><path d="M406.7 192.13C404.862 192.933 401.839 192.901 399.95 192.058C398.058 191.215 398.058 189.913 399.95 189.151C401.838 188.388 404.863 188.42 406.7 189.224C408.538 190.026 408.538 191.327 406.7 192.13Z" fill="white"></path><path d="M404.206 218.625C402.367 219.428 399.344 219.396 397.454 218.553C395.562 217.711 395.562 216.408 397.454 215.646C399.344 214.883 402.367 214.915 404.206 215.719C406.043 216.521 406.041 217.822 404.206 218.625Z" fill="white"></path><path d="M388.008 242.38C386.169 243.183 383.147 243.151 381.257 242.308C379.367 241.466 379.367 240.165 381.258 239.402C383.149 238.639 386.171 238.671 388.008 239.474C389.847 240.277 389.847 241.577 388.008 242.38Z" fill="white"></path><path d="M356.733 242.09C354.894 242.891 351.874 242.861 349.983 242.017C348.092 241.175 348.092 239.874 349.983 239.111C351.874 238.348 354.896 238.379 356.733 239.183C358.573 239.986 358.57 241.286 356.733 242.09Z" fill="white"></path><path d="M295.092 271.602C293.255 272.406 290.231 272.374 288.342 271.53C286.451 270.689 286.451 269.386 288.342 268.625C290.231 267.862 293.256 267.893 295.092 268.696C296.93 269.499 296.93 270.799 295.092 271.602Z" fill="white"></path><path d="M207.546 252.024C205.708 252.826 202.687 252.795 200.795 251.952C198.904 251.11 198.904 249.807 200.796 249.046C202.687 248.283 205.709 248.315 207.546 249.118C209.385 249.921 209.383 251.222 207.546 252.024Z" fill="white"></path><path d="M146.212 289.419C144.374 290.22 141.352 290.19 139.459 289.345C137.568 288.504 137.568 287.202 139.46 286.44C141.352 285.677 144.374 285.709 146.212 286.512C148.05 287.315 148.05 288.616 146.212 289.419Z" fill="white"></path><path d="M119.037 212.577C117.2 213.381 114.178 213.349 112.285 212.506C110.394 211.663 110.394 210.361 112.287 209.6C114.178 208.837 117.201 208.869 119.038 209.672C120.875 210.474 120.875 211.774 119.037 212.577Z" fill="white"></path><path d="M99.1688 197.113C97.3316 197.916 94.3077 197.884 92.4167 197.04C90.5278 196.197 90.5278 194.896 92.4167 194.134C94.3077 193.371 97.3318 193.402 99.1688 194.206C101.007 195.008 101.007 196.308 99.1688 197.113Z" fill="white"></path><path d="M185.424 132.525C183.586 133.328 180.562 133.296 178.673 132.452C176.781 131.611 176.781 130.308 178.673 129.546C180.564 128.783 183.586 128.815 185.424 129.619C187.261 130.421 187.261 131.722 185.424 132.525Z" fill="white"></path><path d="M159.988 143.651L252.908 88.0055L345.962 143.651L252.975 200.05L159.988 143.651Z" fill="white"></path><path d="M159.988 143.651V172.442L252.975 227.66V199.224L159.988 143.651Z" fill="#85B9D0"></path><path d="M345.962 143.651V172.442L252.975 227.66V199.224L345.962 143.651Z" fill="#B1D1E1"></path><path d="M159.988 151.152V162.646L252.975 217.075V205.722L159.988 151.152Z" fill="url(#paint0_linear_2332_333)"></path><path d="M345.962 151.152V162.646L252.975 217.075V205.722L345.962 151.152Z" fill="url(#paint1_linear_2332_333)"></path><g opacity="0.6"><path d="M290.405 158.508C270.142 167.354 236.82 166.997 215.976 157.708C195.135 148.419 195.135 134.071 215.981 125.665C236.824 117.257 270.149 117.615 290.407 126.468C310.667 135.312 310.667 149.657 290.405 158.508Z" fill="#8FD7F5"></path></g><path d="M236.494 42.121C236.494 42.121 236.121 44.1538 235.406 56.0565C235.406 56.0565 236.002 57.5295 237.157 56.4245C237.157 56.4245 240.332 43.7548 239.685 42.3976C238.833 40.6103 237.302 41.4242 236.494 42.121Z" fill="#F9AC85"></path><path d="M236.822 55.4583C236.822 55.4583 237.667 57.3285 237.793 57.6141C237.921 57.8997 237.798 58.4728 237.754 58.7805C237.712 59.087 237.709 60.0728 237.686 60.271C237.667 60.4679 237.327 60.3798 237.284 59.9854C237.243 59.5903 237.162 58.6919 237.098 58.5159C237.098 58.5159 236.965 58.3189 236.811 58.2973C236.811 58.2973 236.827 58.5521 236.849 58.8586C236.87 59.1665 237.07 61.4115 236.849 61.8074C236.626 62.2018 236.415 62.1578 236.117 61.9169C235.821 61.6746 234.408 58.6883 235.524 55.6166L236.822 55.4583Z" fill="#F9AC85"></path><path d="M254.87 105.326C254.87 105.326 255.717 106.468 254.87 110.126L254.276 112.234L253.681 112.35L253.371 111.911C253.371 111.911 253.619 110.591 253.477 110.035C253.477 110.035 252.741 110.482 251.052 111.765C251.052 111.765 250.717 112.167 249.416 112.488C248.117 112.811 246.037 113.09 245.637 112.76C245.163 112.368 245.122 111.934 246.055 110.794L249.54 107.993L251.694 105.582L254.87 105.326Z" fill="#140D17"></path><path d="M246.386 100.453C246.386 100.453 247.233 101.594 246.386 105.253L245.791 107.36L245.197 107.477L244.887 107.038C244.887 107.038 245.134 105.718 244.994 105.162C244.994 105.162 244.256 105.609 242.568 106.891C242.568 106.891 242.232 107.293 240.932 107.615C239.631 107.937 237.554 108.218 237.154 107.887C236.678 107.494 236.637 107.061 237.57 105.919L241.056 103.118L243.211 100.709L246.386 100.453Z" fill="#140D17"></path><path d="M245.812 61.5693L243.981 81.2075C243.981 81.2075 245.769 87.2809 245.904 88.3484C246.039 89.4123 246.688 100.419 246.688 100.419C246.688 100.419 246.104 102.882 242.383 100.981C242.383 100.981 239.326 87.8877 238.368 83.4032C237.331 78.5535 237.191 66.6606 237.075 63.5639C236.93 59.6846 238.275 56.0334 238.275 56.0334L245.812 61.5693Z" fill="#333248"></path><path d="M255.302 105.837C255.302 105.837 254.577 107.309 251.051 106.091C251.051 106.091 249.654 91.5897 248.775 86.6577C248.775 86.6577 246.351 82.125 246.128 80.4138C245.91 78.7028 242.238 68.3305 241.354 63.5184C241.162 62.4776 239.659 56.8809 239.769 55.4581C239.88 54.0368 252.888 57.2265 252.888 57.2265C252.888 57.2265 252.609 58.1542 252.764 62.8797C252.945 68.3941 252.253 77.1216 252.508 77.5782C252.508 77.5782 254.519 82.8908 255.172 86.0092C255.482 87.5016 255.302 105.837 255.302 105.837Z" fill="#333248"></path><path d="M237.883 31.5168L236.48 42.5783C236.48 42.5783 236.745 45.4545 237.83 44.3326C237.83 44.3326 239.904 45.8062 241.945 32.8872L237.883 31.5168Z" fill="#F9AC85"></path><path d="M236.738 36.635L237.136 29.2415C237.136 29.2415 237.047 26.3032 239.484 25.4549C241.681 24.6905 243.771 26.8351 243.774 28.2975C243.777 29.3237 242.872 33.5458 241.548 37.5137C241.548 37.5137 238.378 38.2853 236.738 36.635Z" fill="#FEBF51"></path><path d="M237.6 57.6934C237.6 57.6934 240.342 60.9067 245.93 60.9054C245.93 60.9054 250.841 60.4992 253.876 57.4093C253.876 57.4093 252.31 50.831 251.233 45.8697C251.233 45.8697 252.573 41.8487 253.525 39.0969C254.165 37.2441 256.363 31.3361 254.232 30.296C254.232 30.296 254.718 29.5309 249.437 26.7195C248.419 26.1771 242.373 25.3499 240.044 25.2939C240.044 25.2939 236.984 34.5961 236.39 35.6495C236.39 35.6495 234.948 38.421 238.739 41.2748C238.739 41.2748 239.12 44.7869 239.456 46.7179C239.791 48.6496 237.6 57.6934 237.6 57.6934Z" fill="#FEBF51"></path><path d="M252.094 36.9684L253.093 46.2468C253.093 46.2468 253.256 51.1259 254.819 50.4074C254.819 50.4074 257.484 51.729 256.175 37.1785L252.094 36.9684Z" fill="#F9AC85"></path><path d="M253.233 47.7901C253.233 47.7901 252.859 49.6695 252.095 62.2596C252.095 62.2596 252.011 63.9329 253.192 62.8587C253.192 62.8587 256.914 49.2681 256.301 47.8929C255.493 46.0846 254.058 47.1151 253.233 47.7901Z" fill="#F9AC85"></path><path d="M243.126 25.1314C243.126 25.1314 243.132 27.0484 242.867 28.7902C242.867 28.7902 243.474 30.0244 243.974 30.296C243.974 30.296 247.838 29.3292 249.438 26.7196C249.438 26.7196 248.424 24.1422 249.308 19.8461L248.593 19.5005L243.126 25.1314Z" fill="#F39A71"></path><path d="M249.438 26.7197C248.993 27.447 248.369 28.0432 247.704 28.5291C248.091 27.2635 248.24 24.2756 248.24 24.2756C246.489 25.7898 244.133 26.645 243.064 26.9005C243.073 25.9798 243.126 25.1316 243.126 25.1316L248.594 19.5007L249.309 19.8464C248.424 24.1423 249.438 26.7197 249.438 26.7197Z" fill="#D27B54"></path><path d="M240.722 14.3913L240.295 17.7393C240.295 17.7393 240.274 21.0057 240.529 22.4642C240.529 22.4642 240.921 25.2287 241.429 25.822C241.429 25.822 242.28 26.3812 243.429 26.086C244.279 25.8661 246.742 24.9731 247.675 23.466C247.675 23.466 248.868 21.357 248.848 20.6988C248.848 20.6988 249.111 21.3236 249.544 20.534C249.978 19.7452 250.152 18.231 250.024 17.7702C249.898 17.311 249.305 17.507 249.166 17.507C249.028 17.507 248.816 17.7045 248.702 18.1647C248.586 18.6261 249.171 15.04 248.252 13.8225C246.91 12.0462 242.779 11.2554 240.722 14.3913Z" fill="#F9AC85"></path><path d="M252.089 41.3979L250.784 34.0253C250.784 34.0253 250.132 31.1644 252.358 29.8296C254.363 28.6288 256.352 31.1594 256.537 33.401C256.622 34.4231 257.327 36.1528 256.792 40.3144C256.792 40.3144 254.013 42.6768 252.089 41.3979Z" fill="#FEBF51"></path><path d="M239.416 16.7724L240.363 15.9682C240.363 15.9682 241.14 15.8174 241.925 16.704C241.925 16.704 242.18 17.25 243.654 17.0182C244.979 16.8087 245.784 17.1577 245.95 17.2751C245.95 17.2751 247.199 18.0765 246.467 20.5799L245.791 21.1538L239.416 16.7724Z" fill="#2A284E"></path><path d="M244.598 19.217L238.318 17.6372C238.318 17.6372 238.232 17.6372 238.168 17.6819L238.166 17.6826C238.163 17.6862 238.16 17.6889 238.155 17.6917L237.689 18.0338L238.125 18.3556L238.224 20.383C238.224 20.383 238.276 20.4668 238.402 20.5191C238.488 20.5533 241.82 21.4022 243.401 21.8114L244.345 22.5102L244.749 22.1597C244.756 22.159 244.858 22.0788 244.848 21.8595L244.73 19.3757C244.73 19.3757 244.749 19.2554 244.598 19.217Z" fill="#2A284E"></path><path d="M245.796 18.0709L239.565 16.4911C239.565 16.4911 239.48 16.4911 239.416 16.5365L239.416 16.5372C239.411 16.5393 239.408 16.542 239.403 16.5456L237.658 18.0193L238.824 18.6176L239.792 18.964C239.792 18.964 239.845 19.047 239.971 19.0987C240.057 19.1328 241.691 21.4568 243.273 21.8652L244.343 22.5101L245.955 21.1669C245.963 21.1648 246.065 21.086 246.053 20.8667L245.929 18.23C245.929 18.23 245.947 18.1092 245.796 18.0709Z" fill="#D4D4EA"></path><path d="M243.781 22.1715L244.344 22.5101L245.956 21.1669C245.964 21.1648 246.066 21.086 246.054 20.8667L245.93 18.23C245.93 18.23 245.933 18.1978 245.919 18.1622L244.023 19.8691L243.781 22.1715Z" fill="#A1A4C5"></path><path d="M237.602 18.2238L237.726 20.7467C237.726 20.7467 237.778 20.8298 237.904 20.8821C238.033 20.9338 244.308 22.5311 244.308 22.5311C244.308 22.5311 244.423 22.5129 244.408 22.2302L244.285 19.745C244.285 19.745 244.296 19.6277 244.146 19.5893L237.82 18.0004C237.82 18.0004 237.573 17.9989 237.602 18.2238Z" fill="#3E3E73"></path><path d="M237.834 18.364L237.95 20.7137C237.95 20.7137 237.998 20.792 238.116 20.8408C238.235 20.8888 244.085 22.3774 244.085 22.3774C244.085 22.3774 244.19 22.3613 244.178 22.0975L244.064 19.7819C244.064 19.7819 244.073 19.6716 243.933 19.6361L238.038 18.1561C238.038 18.1561 237.807 18.1531 237.834 18.364Z" fill="#1E1C4D"></path><path d="M246.513 20.0891L246.135 20.3559L246.041 18.4619L246.417 18.147L246.513 20.0891Z" fill="#D4D4EA"></path><path d="M251.459 14.218C251.459 14.218 249.436 16.5091 246.217 18.5929L246.287 20.0736C246.287 20.0736 250.021 17.6148 251.596 15.624C251.596 15.624 251.608 15.0703 251.459 14.218Z" fill="#0F0E33"></path><path d="M252.119 61.8605C252.119 61.8605 251.276 63.7307 251.149 64.0163C251.023 64.3012 251.106 64.6536 251.149 64.9594C251.193 65.2666 251.232 66.4749 251.256 66.6725C251.276 66.8702 251.616 66.7821 251.659 66.3862C251.7 65.9918 251.743 64.872 251.806 64.6961C251.806 64.6961 251.939 64.4992 252.094 64.4768C252.094 64.4768 252.115 64.9536 252.094 65.2608C252.072 65.5688 251.872 67.8131 252.094 68.2082C252.316 68.604 252.528 68.5601 252.824 68.3185C253.12 68.0775 254.534 65.0898 253.419 62.0188L252.119 61.8605Z" fill="#F9AC85"></path><path d="M245.178 10.5535C245.178 10.5535 243.416 11.3731 243.179 13.9385C243.083 14.9913 247.092 19.6629 248.846 20.6982C248.846 20.6982 248.782 25.6164 249.436 26.7192C249.436 26.7192 249.663 27.1074 252.789 28.7235C252.789 28.7235 251.518 24.1341 251.596 21.6754C251.674 19.2168 254.064 10.4363 245.178 10.5535Z" fill="#2E140F"></path><path d="M243.782 13.7146C243.782 13.7146 241.736 15.004 240.599 15.3552L240.363 15.9682C240.363 15.9682 240.05 14.5056 240.264 12.9839C240.479 11.4619 242.699 8.85666 245.18 10.5537L243.782 13.7146Z" fill="#2E140F"></path><path d="M302.38 67.4172L299.998 74.7668C299.998 74.7668 298.283 79.6975 300.117 79.6262C300.117 79.6262 302.549 81.2464 305.304 69.1206L302.38 67.4172Z" fill="#E28E68"></path><path d="M299.752 72.9634L302.725 63.7121C302.725 63.7121 303.464 60.6495 306.222 60.5121C308.705 60.3886 310.235 64.3698 309.824 65.8819C309.538 66.9424 306.961 71.6307 304.47 75.3278C304.47 75.3278 300.979 75.1644 299.752 72.9634Z" fill="#C5212D"></path><path d="M310.892 147.146L309.439 146.714L310.688 145.717L311.073 146.614L310.892 147.146Z" fill="#140D17"></path><path d="M310.899 146.814L310.892 147.146L313.368 146.209C313.368 146.209 313.931 142.311 313.081 140.313L308.256 140.789L307.547 142.786C307.547 142.786 304.575 145.318 302.559 146.624C302.559 146.624 301.228 147.418 301.347 148.477C301.347 148.477 301.733 150.415 304.783 149.386C304.783 149.386 306.939 148.602 308.456 147.947C308.456 147.947 310.103 146.685 310.899 146.814Z" fill="#2C234A"></path><path d="M310.9 146.814C310.103 146.685 308.456 147.947 308.456 147.947C306.94 148.602 304.784 149.386 304.784 149.386C301.734 150.415 301.348 148.477 301.348 148.477C301.323 148.242 301.375 148.02 301.461 147.815C302.59 149.484 311.818 144.029 310.319 144.029C309.449 144.029 308.222 143.512 307.261 143.03C307.444 142.876 307.548 142.786 307.548 142.786L308.257 140.789L313.081 140.313C313.932 142.311 313.369 146.209 313.369 146.209L310.892 147.146L310.9 146.814Z" fill="#1F1634"></path><path d="M313.552 104.708C313.552 104.708 311.569 115.992 311.291 117.095C311.013 118.196 310.718 122.654 310.718 122.654C310.718 122.654 312.022 127.324 312.167 128.472C312.313 129.612 313.847 141.332 313.847 141.332C313.847 141.332 313.133 143.732 307.447 141.195C307.447 141.195 305.502 128.997 304.473 124.183C303.36 118.978 303.655 105.092 303.529 101.769C303.372 97.6038 303.766 93.6841 303.766 93.6841L313.552 104.708Z" fill="#3090A7"></path><path d="M317.744 152.641L316.291 152.209L317.541 151.209L317.924 152.108L317.744 152.641Z" fill="#140D17"></path><path d="M320.562 152.308L320.555 152.64L323.031 151.702C323.031 151.702 323.595 147.805 322.745 145.806L317.921 146.284L317.211 148.28C317.211 148.28 314.238 150.812 312.223 152.118C312.223 152.118 310.892 152.911 311.011 153.971C311.011 153.971 311.398 155.909 314.446 154.88C314.446 154.88 316.602 154.097 318.122 153.442C318.122 153.442 319.766 152.179 320.562 152.308Z" fill="#2C234A"></path><path d="M320.562 152.308C319.765 152.179 318.121 153.442 318.121 153.442C316.601 154.097 314.445 154.88 314.445 154.88C311.397 155.909 311.011 153.971 311.011 153.971C310.984 153.736 311.038 153.513 311.126 153.308C312.254 154.979 321.479 149.521 319.98 149.521C319.11 149.521 317.884 149.007 316.924 148.522C317.105 148.371 317.21 148.28 317.21 148.28L317.92 146.284L322.744 145.806C323.594 147.805 323.03 151.702 323.03 151.702L320.554 152.64L320.562 152.308Z" fill="#1F1634"></path><path d="M324.409 147.146C324.409 147.146 322.052 148.797 317.109 147.146C317.109 147.146 317.462 131.621 315.716 126.476C315.716 126.476 313.114 121.611 312.877 119.774C312.64 117.937 308.818 103.418 308.122 101.72C307.694 100.673 305.467 93.6225 305.587 92.0958C305.705 90.5705 320.503 94.9658 320.503 94.9658C320.503 94.9658 320.205 95.9612 320.371 101.034C320.564 106.953 321.357 117.365 321.633 117.855C321.633 117.855 323.299 122.673 323.999 126.021C324.334 127.622 324.409 147.146 324.409 147.146Z" fill="#3FAECE"></path><path d="M321.441 65.8816C321.441 65.8816 321.962 65.0599 316.294 62.0414C315.202 61.4599 308.712 60.5712 306.211 60.5118C304.742 60.4777 301.897 67.6387 303.351 76.0082C303.351 76.0082 302.861 91.7245 302.861 95.2771C302.861 95.2771 306.531 98.7411 312.529 98.739C312.529 98.739 317.801 98.304 321.061 94.9867C321.061 94.9867 320.405 90.4651 320.169 85.4834C320.169 85.4834 319.611 79.2215 320.633 76.2672C321.32 74.2783 323.731 66.9972 321.441 65.8816Z" fill="#EF4443"></path><path d="M315.726 71.1075L312.264 80.4655C312.264 80.4655 310.097 85.2043 311.93 85.3145C311.93 85.3145 313.842 87.933 319.516 73.3868L315.726 71.1075Z" fill="#E28E68"></path><path d="M314.279 83.1971C314.279 83.1971 306.834 73.608 305.481 71.5452C305.481 71.5452 303.965 70.8555 303.855 72.598C303.855 72.598 310.254 85.031 311.728 85.5931C313.666 86.3323 314.15 84.3567 314.279 83.1971Z" fill="#F9AC85"></path><path d="M303.424 72.5463C303.424 72.5463 303.98 73.0937 304.507 72.7752C304.507 72.7752 305.453 73.2011 305.949 72.2216C306.444 71.2422 306.432 70.967 306.391 69.7126C306.391 69.7126 306.633 67.3398 306.841 66.412C306.841 66.412 306.747 65.6957 306.311 66.4588C306.311 66.4588 306.015 68.5469 305.85 68.6857C305.85 68.6857 305.569 68.9266 305.56 68.4414C305.551 67.9451 305.647 65.0396 305.491 64.7889C305.318 64.5083 305.072 64.6164 305.014 64.927C304.951 65.2657 304.733 68.197 304.733 68.197C304.733 68.197 304.602 68.6185 304.429 68.3896C304.256 68.1607 303.984 64.4901 303.889 64.1228C303.794 63.7647 303.347 63.6614 303.262 64.4091C303.218 64.7951 303.629 68.2034 303.629 68.2034C303.629 68.2034 303.548 68.4136 303.389 68.1789C303.167 67.8467 302.814 65.0257 302.326 64.798C301.866 64.5816 302.103 65.3649 302.064 65.418C302.023 65.471 302.788 69.6965 302.753 69.8956C302.718 70.0945 302.816 70.3138 302.388 70.1231C301.96 69.9319 301.062 68.6934 300.569 69.2317C300.569 69.2317 300.478 69.3782 300.559 69.4335C300.638 69.488 301.832 70.7039 302.112 70.9847C302.637 71.5074 303.259 72.3626 303.424 72.5463Z" fill="#F9AC85"></path><path d="M309.52 60.337C309.52 60.337 309.528 62.395 309.242 64.2638C309.242 64.2638 309.892 65.5895 310.43 65.8814C310.43 65.8814 314.578 64.8425 316.295 62.0412C316.295 62.0412 315.207 59.2752 316.158 54.6637L315.39 54.2924L309.52 60.337Z" fill="#F39A71"></path><path d="M316.293 62.0411C315.815 62.8215 315.145 63.4609 314.432 63.9839C314.848 62.6255 315.007 59.4183 315.007 59.4183C313.126 61.0435 310.598 61.9614 309.451 62.2359C309.46 61.246 309.518 60.337 309.518 60.337L315.388 54.2922L316.155 54.6636C315.205 59.2753 316.293 62.0411 316.293 62.0411Z" fill="#D27B54"></path><path d="M306.936 48.8074L306.479 52.4011C306.479 52.4011 306.457 55.9069 306.73 57.4735C306.73 57.4735 307.15 60.4413 307.697 61.0785C307.697 61.0785 308.61 61.6776 309.844 61.3613C310.755 61.1247 313.397 60.166 314.403 58.548C314.403 58.548 315.68 56.2847 315.661 55.5783C315.661 55.5783 315.941 56.2485 316.408 55.4017C316.873 54.5543 317.06 52.9298 316.923 52.4347C316.785 51.9404 316.149 52.1527 316.002 52.1527C315.853 52.1527 315.626 52.3643 315.502 52.8592C315.379 53.3535 316.005 49.5035 315.019 48.1965C313.58 46.2893 309.145 45.4419 306.936 48.8074Z" fill="#F9AC85"></path><path d="M315.662 52.5916C315.662 52.5916 315.477 53.9257 315.252 54.0422C315.026 54.1568 314.743 53.5863 314.827 53.2171C314.907 52.8471 313.993 51.5368 313.842 49.9577C313.842 49.9577 312.836 50.0345 311.348 50.1489C309.86 50.2654 307.703 50.498 306.837 49.5787C306.594 49.3204 306.868 47.0466 307.548 46.5237C307.548 46.5237 310.163 43.7244 315.653 44.874C315.653 44.874 319.204 45.4003 318.525 52.0638C318.525 52.0638 318.076 53.9879 316.899 55.814C316.899 55.814 315.945 57.1313 315.781 59.0245C315.781 59.0245 315.367 56.9645 315.661 55.5781C315.661 55.5781 316.205 56.769 316.837 54.0953C316.837 54.0953 317.154 52.3514 316.551 52.1176C316.551 52.1176 315.907 51.9745 315.662 52.5916Z" fill="#3B272D"></path><path d="M312.906 76.8825L315.879 67.6312C315.879 67.6312 316.618 64.5686 319.374 64.4319C321.858 64.3077 323.564 68.3364 322.674 70.5689C322.269 71.5867 320.115 75.5505 317.624 79.2478C317.624 79.2478 314.134 79.0837 312.906 76.8825Z" fill="#C5212D"></path><path d="M305.543 51.3642L306.558 50.5007C306.558 50.5007 307.392 50.3395 308.235 51.291C308.235 51.291 308.51 51.8759 310.091 51.6275C311.515 51.4034 312.377 51.7783 312.557 51.9039C312.557 51.9039 313.896 52.7646 313.11 55.4518L312.385 56.0681L305.543 51.3642Z" fill="#2A284E"></path><path d="M311.106 53.9885L304.364 52.2921C304.364 52.2921 304.272 52.2921 304.203 52.3409L304.202 52.3416C304.198 52.3452 304.193 52.3472 304.189 52.3507L303.689 52.718L304.156 53.0629L304.263 55.2403C304.263 55.2403 304.32 55.3297 304.455 55.3856C304.546 55.4233 308.124 56.3344 309.822 56.7735L310.835 57.5239L311.269 57.147C311.276 57.1456 311.386 57.0598 311.375 56.8252L311.247 54.1598C311.248 54.1595 311.268 54.0296 311.106 53.9885Z" fill="#2A284E"></path><path d="M312.394 52.7576L305.705 51.062C305.705 51.062 305.612 51.062 305.544 51.1108H305.543C305.54 51.1144 305.534 51.1171 305.53 51.1206L303.656 52.7026L304.909 53.3449L305.948 53.7163C305.948 53.7163 306.005 53.8063 306.139 53.8616C306.232 53.8985 307.986 56.3921 309.684 56.8319L310.833 57.5237L312.562 56.0815C312.569 56.0801 312.681 55.9943 312.67 55.7597L312.534 52.9288C312.534 52.9288 312.554 52.7996 312.394 52.7576Z" fill="#D4D4EA"></path><path d="M310.23 57.1598L310.834 57.5235L312.563 56.0813C312.57 56.0799 312.682 55.9941 312.671 55.7594L312.535 52.9286C312.535 52.9286 312.54 52.8945 312.524 52.8553L310.488 54.6886L310.23 57.1598Z" fill="#A1A4C5"></path><path d="M303.596 52.9217L303.73 55.6296C303.73 55.6296 303.786 55.7197 303.922 55.7754C304.058 55.8314 310.797 57.545 310.797 57.545C310.797 57.545 310.919 57.5268 310.903 57.2239L310.772 54.555C310.772 54.555 310.783 54.4279 310.62 54.3874L303.83 52.6826C303.83 52.683 303.566 52.6803 303.596 52.9217Z" fill="#3E3E73"></path><path d="M303.844 53.0725L303.969 55.5961C303.969 55.5961 304.02 55.6785 304.148 55.7309C304.275 55.7832 310.555 57.3806 310.555 57.3806C310.555 57.3806 310.67 57.3638 310.654 57.0803L310.532 54.5944C310.532 54.5944 310.541 54.4758 310.392 54.4381L304.064 52.8491C304.064 52.8491 303.816 52.8456 303.844 53.0725Z" fill="#1E1C4D"></path><path d="M313.162 54.9239L312.756 55.2102L312.656 53.1773L313.059 52.8394L313.162 54.9239Z" fill="#D4D4EA"></path><path d="M318.47 48.6223C318.47 48.6223 316.299 51.0832 312.844 53.3184L312.918 54.9086C312.918 54.9086 316.929 52.269 318.617 50.1308C318.617 50.1308 318.631 49.5375 318.47 48.6223Z" fill="#0F0E33"></path><path d="M302.579 77.5381C302.579 77.5381 294.311 68.3923 292.846 66.4125C292.846 66.4125 291.295 65.8135 291.281 67.5602C291.281 67.5602 298.357 79.594 299.859 80.068C301.835 80.6915 302.511 78.7033 302.579 77.5381Z" fill="#F9AC85"></path><path d="M293.442 67.045C293.442 67.045 293.051 67.725 292.46 67.5665C292.46 67.5665 291.657 68.2395 290.925 67.4332C290.194 66.6283 290.036 65.9399 289.75 64.721C289.75 64.721 288.543 63.3778 288.101 62.5416C288.101 62.5416 288.006 61.8268 288.625 62.4398C288.625 62.4398 289.908 63.9134 290.103 64.0001C290.103 64.0001 290.436 64.1544 290.32 63.6845C290.2 63.2029 288.937 60.5933 289.022 60.3092C289.116 59.9909 289.381 60.0264 289.517 60.3099C289.666 60.6178 291.051 63.2195 291.051 63.2195C291.051 63.2195 291.288 63.5887 291.397 63.3201C291.503 63.0528 289.945 59.7214 289.944 59.3402C289.942 58.9688 290.298 58.8857 290.472 59.308C290.622 59.6647 292.116 62.9178 292.116 62.9178C292.116 62.9178 292.251 63.098 292.341 62.8285C292.469 62.4458 291.768 59.6116 292.178 59.2564C292.566 58.9206 292.54 59.7416 292.593 59.7807C292.644 59.8213 293.316 64.1229 293.401 64.3045C293.485 64.4868 293.45 64.7248 293.811 64.4224C294.173 64.1195 294.716 62.6766 295.333 63.0583C295.333 63.0583 295.457 63.1728 295.395 63.2488C295.333 63.3242 294.498 64.8279 294.299 65.1755C293.931 65.8248 293.554 66.8211 293.442 67.045Z" fill="#F9AC85"></path><path d="M215.205 73.3895L217.919 71.7712L287.417 113.055L295.953 117.777L296.12 159.794L271.163 174.709L262.899 169.774V166.171L205.973 131.596L203.121 133.236L194.859 128.139V109.379C194.859 109.379 194.25 102.532 200.362 99.1024L209.835 92.8537V81.5383C209.835 81.5383 209.88 76.1735 212.696 74.7813L215.205 73.3895Z" fill="#C02126"></path><path d="M200.362 99.1025L209.834 92.8538V92.6646L218.773 98.0706L207.251 110.077L196.186 103.352C197 101.81 198.297 100.261 200.362 99.1025Z" fill="#EF3F3E"></path><path d="M279.424 135.108C279.424 135.108 278.591 118.296 279.254 116.591L287.684 111.592L295.948 116.485L287.609 140.249L279.424 135.108Z" fill="#EF3F3E"></path><path d="M203.121 115.749V133.236L218.416 124.435L218.774 98.2609L209.633 103.756C209.633 103.756 202.43 107.636 203.121 115.749Z" fill="#EE3331"></path><path d="M206.289 111.965L218.781 104.687L276.493 139.428L264.448 149.095L214.997 120.324L206.289 111.965Z" fill="#EF3F3E"></path><path d="M264.14 146.957L264.617 167.287L206.221 131.744L206.29 111.965L264.14 146.957Z" fill="#C02126"></path><path d="M262.862 153.933L262.898 169.774L271.162 174.709L287.608 140.249L279.423 135.108L271.162 140.095C271.162 140.095 262.044 143.416 262.862 153.933Z" fill="#EF3F3E"></path><path d="M271.213 157.983L271.162 174.709L296.119 159.794L295.948 116.485L292.558 118.472C292.558 118.472 286.796 121.694 287.521 131.091L287.609 140.248L277.185 146.485C277.185 146.485 270.669 149.448 271.213 157.983Z" fill="#EE3331"></path><path d="M232.282 153.117C232.282 153.117 233.151 154.286 232.282 158.026L231.676 160.181L231.07 160.301L230.751 159.852C230.751 159.852 231.003 158.502 230.858 157.934C230.858 157.934 230.106 158.391 228.379 159.702C228.379 159.702 228.038 160.113 226.707 160.441C225.378 160.771 223.253 161.057 222.844 160.719C222.359 160.318 222.316 159.874 223.27 158.708L226.834 155.845L229.038 153.381L232.282 153.117Z" fill="#140D17"></path><path d="M222.238 148.136C222.238 148.136 223.105 149.302 222.238 153.045L221.632 155.198L221.023 155.318L220.706 154.87C220.706 154.87 220.959 153.519 220.814 152.951C220.814 152.951 220.06 153.409 218.334 154.719C218.334 154.719 217.993 155.131 216.662 155.46C215.333 155.787 213.208 156.077 212.799 155.737C212.314 155.335 212.272 154.894 213.226 153.725L216.788 150.862L218.992 148.398L222.238 148.136Z" fill="#140D17"></path><path d="M235.728 116.664L223.643 128.705L223.847 148.481C223.847 148.481 223.2 150.661 218.035 148.358C218.035 148.358 216.48 134.761 216.069 129.346C215.792 125.694 227.239 116.402 228.926 113.939C231.142 110.707 235.728 116.664 235.728 116.664Z" fill="#13355C"></path><path d="M233.037 153.361C233.037 153.361 230.894 155.473 226.812 153.361C226.812 153.361 223.023 130.454 223.143 128.776C223.408 125.128 232.911 116.175 232.164 115.492C231.416 114.809 230.79 112.609 230.897 111.222C231.004 109.837 243.7 113.798 243.7 113.798C243.7 113.798 244.182 114.345 243.681 118.407C243.142 122.767 231.198 129.872 231.449 130.317L233.037 153.361Z" fill="#1A3C6B"></path><path d="M231.589 84.4613L223.605 77.5717C223.605 77.5717 222.528 75.8634 221.831 77.4112C221.831 77.4112 219.298 78.7929 228.415 87.1804L231.589 84.4613Z" fill="#F9AC85"></path><path d="M228.14 80.8611L233.757 85.0106C233.757 85.0106 236.116 86.4528 235.525 88.9445C234.994 91.1916 232.227 91.8493 231.074 91.0974C230.265 90.5697 227.408 87.6286 224.969 84.4634C224.969 84.4634 225.997 81.3931 228.14 80.8611Z" fill="#D468A8"></path><path d="M229.174 113.422C229.174 113.422 231.82 116.523 237.208 116.521C237.208 116.521 241.944 116.128 244.873 113.147C244.873 113.147 243.466 109.586 242.432 104.8C242.432 104.8 243.722 100.922 244.64 98.2689C245.258 96.4817 247.377 90.7838 245.32 89.7807C245.32 89.7807 245.79 89.0428 240.697 86.3313C239.717 85.8084 233.885 85.0105 231.638 84.9574C231.638 84.9574 228.687 93.9272 228.115 94.943C228.115 94.943 226.724 97.6167 230.381 100.369C230.381 100.369 230.747 103.756 231.07 105.619C231.394 107.482 229.174 113.422 229.174 113.422Z" fill="#D468A8"></path><path d="M234.608 84.8003C234.608 84.8003 234.613 86.6482 234.357 88.3285C234.357 88.3285 234.943 89.5187 235.424 89.7805C235.424 89.7805 239.15 88.8478 240.694 86.3312C240.694 86.3312 239.716 83.8453 240.569 79.7027L239.879 79.369L234.608 84.8003Z" fill="#F39A71"></path><path d="M240.694 86.3313C240.263 87.0322 239.663 87.6067 239.019 88.0766C239.395 86.8563 239.537 83.9753 239.537 83.9753C237.849 85.435 235.577 86.2594 234.547 86.5066C234.555 85.6164 234.608 84.8004 234.608 84.8004L239.879 79.3691L240.569 79.7028C239.715 83.8452 240.694 86.3313 240.694 86.3313Z" fill="#D27B54"></path><path d="M232.286 74.4412L231.875 77.67C231.875 77.67 231.857 80.8198 232.102 82.2272C232.102 82.2272 232.479 84.8932 232.969 85.4649C232.969 85.4649 233.791 86.0046 234.898 85.7191C235.717 85.5082 238.092 84.6461 238.995 83.1926C238.995 83.1926 240.144 81.1597 240.125 80.5244C240.125 80.5244 240.378 81.1268 240.796 80.3659C241.214 79.6042 241.382 78.1445 241.259 77.6998C241.136 77.2566 240.565 77.4464 240.434 77.4464C240.298 77.4464 240.095 77.6364 239.983 78.081C239.872 78.5257 240.435 75.0667 239.55 73.8918C238.256 72.1794 234.271 71.4177 232.286 74.4412Z" fill="#F9AC85"></path><path d="M231.031 76.7376L231.944 75.962C231.944 75.962 232.693 75.8181 233.451 76.6727C233.451 76.6727 233.697 77.1983 235.118 76.9749C236.397 76.7739 237.171 77.1097 237.333 77.2235C237.333 77.2235 238.537 77.997 237.831 80.4104L237.179 80.9647L231.031 76.7376Z" fill="#2A284E"></path><path d="M236.028 79.0965L229.971 77.5719C229.971 77.5719 229.889 77.5719 229.827 77.6159H229.825C229.821 77.6187 229.818 77.6214 229.814 77.6243L229.365 77.9545L229.784 78.2651L229.881 80.2204C229.881 80.2204 229.93 80.3007 230.053 80.3504C230.135 80.3847 233.349 81.2034 234.875 81.5985L235.785 82.2722L236.175 81.9336C236.18 81.9329 236.281 81.856 236.27 81.6446L236.155 79.2495C236.155 79.2495 236.174 79.1321 236.028 79.0965Z" fill="#2A284E"></path><path d="M237.185 77.99L231.178 76.4674C231.178 76.4674 231.095 76.4667 231.033 76.5107L231.032 76.5114C231.028 76.5135 231.025 76.5162 231.02 76.5191L229.338 77.9411L230.463 78.5178L231.396 78.8507C231.396 78.8507 231.446 78.9324 231.569 78.9819C231.651 79.0148 233.227 81.2557 234.753 81.6501L235.786 82.2722L237.339 80.9765C237.346 80.9751 237.444 80.8982 237.435 80.6875L237.314 78.1437C237.314 78.1437 237.332 78.0278 237.185 77.99Z" fill="#D4D4EA"></path><path d="M235.242 81.9448L235.785 82.2722L237.338 80.9765C237.345 80.9751 237.443 80.8982 237.434 80.6875L237.313 78.1437C237.313 78.1437 237.317 78.113 237.302 78.0789L235.473 79.7257L235.242 81.9448Z" fill="#A1A4C5"></path><path d="M229.282 78.138L229.402 80.5708C229.402 80.5708 229.454 80.6518 229.574 80.702C229.697 80.7515 235.751 82.2922 235.751 82.2922C235.751 82.2922 235.86 82.2747 235.847 82.0025L235.728 79.6052C235.728 79.6052 235.738 79.4907 235.593 79.4551L229.491 77.9221C229.491 77.9221 229.253 77.9202 229.282 78.138Z" fill="#3E3E73"></path><path d="M229.506 78.2742L229.618 80.5403C229.618 80.5403 229.665 80.615 229.778 80.6626C229.892 80.7094 235.535 82.1446 235.535 82.1446C235.535 82.1446 235.638 82.1278 235.625 81.8744L235.513 79.6405C235.513 79.6405 235.524 79.5343 235.387 79.5002L229.703 78.0726C229.703 78.0726 229.481 78.071 229.506 78.2742Z" fill="#1E1C4D"></path><path d="M237.877 79.9363L237.512 80.1933L237.422 78.367L237.784 78.0634L237.877 79.9363Z" fill="#D4D4EA"></path><path d="M242.648 74.2747C242.648 74.2747 240.698 76.4855 237.594 78.4939L237.659 79.9222C237.659 79.9222 241.263 77.5506 242.781 75.6302C242.781 75.6302 242.792 75.0969 242.648 74.2747Z" fill="#0F0E33"></path><path d="M224.851 79.3399C224.851 79.3399 224.936 68.0865 225.167 65.8602C225.167 65.8602 224.515 64.4745 223.461 65.6033C223.461 65.6033 220.871 77.9736 221.566 79.2434C222.48 80.917 224.11 80.0547 224.851 79.3399Z" fill="#F9AC85"></path><path d="M225.176 66.652C225.176 66.652 224.515 66.8447 224.223 66.363C224.223 66.363 223.299 66.2876 223.305 65.2943C223.312 64.2994 223.619 63.7508 224.161 62.7729C224.161 62.7729 224.179 61.1253 224.393 60.2973C224.393 60.2973 224.757 59.771 224.794 60.5668C224.794 60.5668 224.749 62.3484 224.823 62.5298C224.823 62.5298 224.947 62.8447 225.153 62.4635C225.363 62.0732 226.101 59.5642 226.325 59.4331C226.577 59.2865 226.729 59.4806 226.648 59.7521C226.561 60.0487 225.908 62.629 225.908 62.629C225.908 62.629 225.84 63.0213 226.071 62.916C226.301 62.8091 227.28 59.6432 227.507 59.3941C227.727 59.1512 228.007 59.3249 227.87 59.7117C227.754 60.0398 226.783 63.1163 226.783 63.1163C226.783 63.1163 226.761 63.3188 226.981 63.2009C227.293 63.0354 228.532 60.7407 229.012 60.7714C229.464 60.8007 228.957 61.3188 228.968 61.378C228.978 61.4373 226.841 64.6688 226.787 64.8413C226.735 65.0144 226.569 65.1463 226.984 65.1812C227.402 65.216 228.618 64.6249 228.791 65.2671C228.791 65.2671 228.804 65.4228 228.718 65.4319C228.631 65.4403 227.19 65.8842 226.853 65.9849C226.224 66.1711 225.383 66.578 225.176 66.652Z" fill="#F9AC85"></path><path d="M244.339 84.9905C243.684 83.3472 242.648 81.4309 243.031 79.3694C243.415 77.3072 243.227 71.9269 241.301 71.5409C241.301 71.5409 240.413 68.4845 234.907 70.6879C231.128 72.1985 231.207 74.0981 231.67 76.1965L231.946 75.9619C231.946 75.9619 232.016 75.9486 232.134 75.9549L232.288 75.2742C232.288 75.2742 232.976 76.6907 238.496 75.4745C238.496 75.4745 238.287 79.0007 239.05 80.6377C239.814 82.2747 239.923 87.8881 239.05 89.0331C238.177 90.1787 237.494 92.0984 238.055 93.0578C238.613 94.0176 241.708 87.9392 243.896 88.2402L244.945 89.0333C244.945 89.0333 244.995 86.6323 244.339 84.9905Z" fill="#2E140F"></path><path d="M222.729 92.6353C222.729 92.6353 223.262 93.7914 223.397 93.9659C223.512 94.1153 224.409 94.6584 224.946 94.8008L226.664 94.1585C226.836 94.1453 228.721 100.409 228.926 100.24C229.357 99.8863 229.517 99.5653 229.517 99.5653C229.535 99.4788 228.669 92.3483 228.669 92.3483C228.669 92.3483 227.744 91.584 226.89 91.2369C226.562 91.1043 222.729 92.6353 222.729 92.6353Z" fill="#3E3E73"></path><path d="M227.552 93.9023L228.926 100.24L227.819 99.8619L226.559 94.1731L227.552 93.9023Z" fill="#161642"></path><path d="M230.024 97.7007C231.147 98.6188 236.05 101.461 239.175 103.26C239.202 103.187 241.587 94.1584 241.587 94.1584L245.177 96.1934C243.836 100.427 242.731 103.116 241.843 104.812C240.78 107.087 240.258 107.897 238.796 107.379C237.446 106.902 229.088 99.0375 229.088 99.0375C228.724 97.4961 230.024 97.7007 230.024 97.7007Z" fill="#F9AC85"></path><path d="M230.163 98.1571C230.163 98.1571 230.012 95.7473 229.652 95.5016C229.293 95.2558 229.103 95.3892 229.103 95.3892C229.103 95.3892 228.419 95.5016 227.824 94.9431C227.824 94.9431 226.804 94.3015 226.572 94.3015C226.341 94.3015 226.29 94.8062 226.392 95.1245C226.392 95.1245 226.469 95.3431 226.469 95.5014C226.469 95.5014 226.52 95.9391 226.547 96.1653C226.547 96.1653 226.418 96.5374 226.469 97.0421C226.469 97.0421 226.6 97.6376 226.78 97.8499C226.959 98.0622 228.758 99.2921 229.5 99.3759L230.163 98.1571Z" fill="#F9AC85"></path><path d="M226.822 91.08C226.822 91.08 227.418 91.1945 228.669 92.3485L224.645 93.7914L222.729 92.6353L226.822 91.08Z" fill="#585A92"></path><path d="M239.725 99.5562L240.914 92.4329C240.914 92.4329 241.245 89.6174 243.686 89.1783C245.888 88.7803 246.875 91.7572 246.323 93.8501C246.071 94.8044 246.153 96.6125 244.331 100.196C244.331 100.196 241.055 101.377 239.725 99.5562Z" fill="#D468A8"></path><path d="M250.415 103.957L248.634 110.988C248.634 110.988 247.329 115.715 249.04 115.527C249.04 115.527 251.415 116.884 253.255 105.359L250.415 103.957Z" fill="#E28E68"></path><path d="M251.074 113.654C251.074 113.654 241.19 107.883 239.34 106.539C239.34 106.539 237.789 106.456 238.252 108.023C238.252 108.023 247.861 116.591 249.329 116.711C250.798 116.827 251.33 114.716 251.074 113.654Z" fill="#E28E68"></path><path d="M239.615 107.154C239.615 107.154 239.458 104.665 239.087 104.411C238.716 104.158 238.519 104.296 238.519 104.296C238.519 104.296 237.813 104.411 237.198 103.836C237.198 103.836 236.141 103.182 235.929 104.041C235.929 104.041 235.852 104.864 235.879 105.097C235.879 105.097 235.747 105.482 235.799 106.002C235.799 106.002 235.934 106.617 236.12 106.837C236.306 107.056 238.164 108.326 238.931 108.412L239.615 107.154Z" fill="#E28E68"></path><path d="M248.291 109.317L250.509 100.467C250.509 100.467 251.016 97.5536 253.586 97.2452C255.903 96.9666 257.577 100.593 257.284 102.034C257.08 103.046 254.954 107.601 252.848 111.222C252.848 111.222 249.572 111.296 248.291 109.317Z" fill="#061E3C"></path><path d="M243.635 104.752C243.635 104.752 244.186 105.945 244.325 106.125C244.444 106.279 245.371 106.84 245.926 106.987L247.697 106.325C247.877 106.31 249.824 112.778 250.037 112.605C250.48 112.241 250.645 111.908 250.645 111.908C250.665 111.82 249.768 104.455 249.768 104.455C249.768 104.455 248.814 103.666 247.933 103.308C247.595 103.171 243.635 104.752 243.635 104.752Z" fill="#3E3E73"></path><path d="M248.617 106.059L250.037 112.605L248.894 112.215L247.592 106.339L248.617 106.059Z" fill="#161642"></path><path d="M245.935 165.716L244.572 165.311L245.744 164.376L246.103 165.217L245.935 165.716Z" fill="#140D17"></path><path d="M245.943 165.404L245.936 165.716L248.257 164.838C248.257 164.838 248.787 161.181 247.989 159.307L243.463 159.755L242.8 161.627C242.8 161.627 240.011 164.002 238.121 165.228C238.121 165.228 236.873 165.971 236.986 166.964C236.986 166.964 237.347 168.782 240.205 167.818C240.205 167.818 242.228 167.083 243.651 166.468C243.652 166.468 245.195 165.284 245.943 165.404Z" fill="#2C234A"></path><path d="M245.944 165.404C245.197 165.284 243.653 166.468 243.653 166.468C242.229 167.083 240.207 167.818 240.207 167.818C237.349 168.782 236.987 166.964 236.987 166.964C236.962 166.743 237.01 166.536 237.095 166.343C238.153 167.908 246.805 162.794 245.4 162.794C244.583 162.794 243.433 162.308 242.53 161.855C242.702 161.712 242.801 161.627 242.801 161.627L243.464 159.755L247.991 159.307C248.788 161.181 248.259 164.838 248.259 164.838L245.938 165.716L245.944 165.404Z" fill="#1F1634"></path><path d="M260.978 127.403L248.496 139.838L248.707 160.263C248.707 160.263 248.039 162.513 242.705 160.134C242.705 160.134 241.1 146.091 240.675 140.502C240.388 136.729 251.51 127.343 253.251 124.8C255.537 121.462 260.978 127.403 260.978 127.403Z" fill="#287998"></path><path d="M252.363 170.868L251.002 170.464L252.174 169.526L252.533 170.369L252.363 170.868Z" fill="#140D17"></path><path d="M255.005 170.556L254.999 170.868L257.322 169.989C257.322 169.989 257.848 166.334 257.052 164.46L252.527 164.907L251.862 166.78C251.862 166.78 249.075 169.153 247.183 170.377C247.183 170.377 245.934 171.125 246.048 172.117C246.048 172.117 246.411 173.933 249.268 172.97C249.268 172.97 251.291 172.235 252.715 171.619C252.715 171.619 254.258 170.436 255.005 170.556Z" fill="#2C234A"></path><path d="M255.007 170.556C254.259 170.436 252.717 171.619 252.717 171.619C251.293 172.235 249.269 172.97 249.269 172.97C246.412 173.933 246.05 172.117 246.05 172.117C246.024 171.894 246.073 171.687 246.156 171.496C247.216 173.061 255.866 167.945 254.461 167.945C253.646 167.945 252.494 167.463 251.595 167.006C251.765 166.864 251.864 166.78 251.864 166.78L252.528 164.907L257.053 164.46C257.849 166.334 257.323 169.989 257.323 169.989L255 170.869L255.007 170.556Z" fill="#1F1634"></path><path d="M258.199 165.302C258.199 165.302 255.983 167.483 251.768 165.302C251.768 165.302 247.854 141.645 247.98 139.911C248.253 136.144 258.068 126.898 257.296 126.192C256.524 125.487 254.843 122.827 254.954 121.396C255.065 119.966 269.21 124.442 269.21 124.442C269.21 124.442 269.71 125.008 269.19 129.203C268.633 133.706 256.298 141.043 256.559 141.503L258.199 165.302Z" fill="#3986B2"></path><path d="M268.16 101.278C268.16 101.278 268.598 100.475 263.11 98.0195C262.053 97.5463 255.926 97.137 253.582 97.2453C252.205 97.3082 249.98 104.195 251.848 111.931C251.848 111.931 252.8 120.225 252.552 125.335C252.552 125.335 256.196 128.338 261.808 127.946C261.808 127.946 266.716 128.028 269.563 124.71C269.563 124.71 267.259 113.88 268.035 111.048C268.557 109.142 270.37 102.172 268.16 101.278Z" fill="#1A3C6B"></path><path d="M251.167 109.983C252.326 110.932 257.389 113.866 260.618 115.723C260.645 115.649 263.11 106.325 263.11 106.325L266.816 108.427C265.431 112.799 264.291 115.576 263.373 117.328C262.275 119.677 261.737 120.514 260.226 119.978C258.834 119.486 250.199 111.363 250.199 111.363C249.824 109.772 251.167 109.983 251.167 109.983Z" fill="#F9AC85"></path><path d="M256.67 96.8666C256.67 96.8666 256.802 98.7918 256.648 100.559C256.648 100.559 257.338 101.757 257.858 101.995C257.858 101.995 261.675 100.753 263.112 98.0198C263.112 98.0198 261.926 95.5024 262.535 91.1268L261.793 90.8287L256.67 96.8666Z" fill="#F39A71"></path><path d="M263.112 98.0198C262.711 98.7822 262.126 99.4238 261.488 99.9585C261.796 98.6607 261.75 95.6499 261.75 95.6499C260.089 97.2924 257.779 98.3166 256.722 98.6489C256.67 97.7217 256.67 96.8666 256.67 96.8666L261.793 90.8287L262.535 91.1268C261.925 95.5024 263.112 98.0198 263.112 98.0198Z" fill="#D27B54"></path><path d="M253.552 86.2463L253.342 89.639C253.342 89.639 253.535 92.9207 253.885 94.3687C253.885 94.3687 254.457 97.1185 255.007 97.679C255.007 97.679 255.9 98.181 257.034 97.8032C257.873 97.5233 260.288 96.4544 261.129 94.8739C261.129 94.8739 262.189 92.6729 262.126 92.0138C262.126 92.0138 262.429 92.6218 262.815 91.7995C263.198 90.9765 263.275 89.4435 263.118 88.9903C262.959 88.5365 262.377 88.776 262.237 88.7851C262.098 88.7957 261.898 89.0071 261.812 89.4791C261.728 89.9496 262.079 86.3062 261.077 85.1489C259.615 83.4575 255.414 82.9526 253.552 86.2463Z" fill="#F9AC85"></path><path d="M261.947 89.2196C261.947 89.2196 261.855 90.479 261.651 90.6025C261.448 90.7255 261.149 90.2095 261.202 89.8591C261.258 89.5065 260.321 88.3407 260.084 86.8726C260.084 86.8726 259.146 87.0102 257.761 87.2147C256.376 87.4212 254.373 87.778 253.507 86.9745C253.264 86.7482 253.382 84.6031 253.985 84.0689C253.985 84.0689 256.262 81.2801 261.468 81.9977C261.468 81.9977 264.824 82.2595 264.595 88.5389C264.595 88.5389 264.291 90.3686 263.3 92.153C263.3 92.153 262.487 93.448 262.449 95.2303C262.449 95.2303 261.937 93.3308 262.127 92.0142C262.127 92.0142 262.709 93.092 263.139 90.5496C263.139 90.5496 263.328 88.8965 262.749 88.7178C262.749 88.7176 262.137 88.6261 261.947 89.2196Z" fill="#3B272D"></path><path d="M260.84 112.127L263.058 103.278C263.058 103.278 263.565 100.364 266.135 100.055C268.453 99.7788 270.292 103.436 269.596 105.583C269.279 106.562 267.504 110.411 265.398 114.033C265.398 114.033 262.122 114.107 260.84 112.127Z" fill="#2C5484"></path><path d="M252.398 88.7284L253.297 87.8536C253.297 87.8536 254.068 87.6504 254.915 88.4853C254.915 88.4853 255.206 89.0152 256.671 88.6787C257.989 88.3765 258.82 88.671 258.995 88.7772C258.995 88.7772 260.302 89.4961 259.729 92.061L259.087 92.6844L252.398 88.7284Z" fill="#2A284E"></path><path d="M257.762 90.8226L251.352 89.6749C251.352 89.6749 251.266 89.6805 251.204 89.7302V89.7316C251.199 89.7344 251.196 89.7371 251.19 89.74L250.746 90.1162L251.204 90.4094L251.437 92.4394C251.437 92.4394 251.495 92.5197 251.626 92.5629C251.712 92.593 255.116 93.2115 256.73 93.5124L257.725 94.1478L258.108 93.7673C258.113 93.7659 258.212 93.6779 258.188 93.4586L257.906 90.9727C257.906 90.9727 257.917 90.8514 257.762 90.8226Z" fill="#2A284E"></path><path d="M258.894 89.5876L252.532 88.4365C252.532 88.4365 252.447 88.4413 252.385 88.4925H252.384C252.38 88.4953 252.377 88.4994 252.372 88.5023L250.717 90.1052L251.927 90.6238L252.922 90.9031C252.922 90.9031 252.98 90.9834 253.11 91.0266C253.198 91.0559 254.991 93.2745 256.608 93.5754L257.725 94.1478L259.256 92.6852C259.263 92.6831 259.36 92.5966 259.335 92.378L259.036 89.7372C259.036 89.7372 259.048 89.6157 258.894 89.5876Z" fill="#D4D4EA"></path><path d="M257.137 93.8467L257.724 94.1477L259.255 92.6851C259.262 92.683 259.359 92.5965 259.334 92.3779L259.035 89.7371C259.035 89.7371 259.038 89.7056 259.021 89.67L257.228 91.5172L257.137 93.8467Z" fill="#A1A4C5"></path><path d="M250.671 90.3144L250.962 92.838C250.962 92.838 251.019 92.919 251.15 92.9622C251.281 93.0055 257.691 94.1707 257.691 94.1707C257.691 94.1707 257.804 94.1455 257.772 93.8627L257.486 91.374C257.486 91.374 257.488 91.2553 257.335 91.2274L250.877 90.0735C250.876 90.0735 250.629 90.0896 250.671 90.3144Z" fill="#3E3E73"></path><path d="M250.915 90.4379L251.184 92.7905C251.184 92.7905 251.238 92.8659 251.359 92.9063C251.482 92.9462 257.454 94.0331 257.454 94.0331C257.454 94.0331 257.56 94.0086 257.53 93.7448L257.263 91.4257C257.263 91.4257 257.266 91.3161 257.123 91.2895L251.106 90.2144C251.105 90.2145 250.873 90.2285 250.915 90.4379Z" fill="#1E1C4D"></path><path d="M259.747 91.564L259.384 91.8578L259.166 89.9625L259.523 89.6205L259.747 91.564Z" fill="#D4D4EA"></path><path d="M264.33 85.3208C264.33 85.3208 262.448 87.7649 259.352 90.0819L259.517 91.5647C259.517 91.5647 263.109 88.8338 264.56 86.7233C264.56 86.7233 264.537 86.167 264.33 85.3208Z" fill="#0F0E33"></path><path d="M251.312 110.454C251.312 110.454 251.155 107.966 250.784 107.711C250.413 107.459 250.217 107.596 250.217 107.596C250.217 107.596 249.51 107.711 248.896 107.136C248.896 107.136 247.841 106.472 247.603 106.472C247.365 106.472 247.311 106.992 247.417 107.322C247.417 107.322 247.497 107.547 247.497 107.711C247.497 107.711 247.55 108.163 247.578 108.397C247.578 108.397 247.446 108.782 247.497 109.301C247.497 109.301 247.632 109.918 247.818 110.138C248.002 110.357 249.861 111.626 250.628 111.713L251.312 110.454Z" fill="#F9AC85"></path><path d="M247.862 103.144C247.862 103.144 248.476 103.263 249.768 104.455L245.613 105.945L243.635 104.752L247.862 103.144Z" fill="#585A92"></path><path d="M232.162 101.498C232.162 101.498 232.713 102.692 232.851 102.872C232.971 103.025 233.897 103.586 234.452 103.733L236.223 103.07C236.402 103.057 238.348 109.525 238.562 109.35C239.007 108.987 239.171 108.654 239.171 108.654C239.191 108.566 238.295 101.201 238.295 101.201C238.295 101.201 237.341 100.411 236.458 100.054C236.122 99.9159 232.162 101.498 232.162 101.498Z" fill="#3E3E73"></path><path d="M237.143 102.805L238.563 109.35L237.422 108.961L236.117 103.085L237.143 102.805Z" fill="#161642"></path><path d="M236.388 99.8901C236.388 99.8901 237.003 100.01 238.295 101.2L234.139 102.692L232.162 101.498L236.388 99.8901Z" fill="#585A92"></path><path d="M236.117 103.707C236.117 103.707 236.34 103.552 236.469 103.584C236.597 103.617 237.029 103.556 237.667 104.152C237.667 104.152 237.835 104.276 237.936 104.291C237.936 104.291 238.483 104.177 238.732 104.263C238.982 104.348 239.102 104.699 239.102 104.699C239.102 104.699 238.126 106.288 237.854 106.078C237.579 105.867 237.694 105.441 237.694 105.441C237.694 105.441 237.643 106.133 237.342 106.427C237.342 106.427 237.335 107.075 237.028 107.185L236.441 106.751L236.117 103.707Z" fill="#E28E68"></path><g opacity="0.6"><path d="M267.433 211.106L157.496 145.555V42.6743L267.433 108.228V211.106Z" fill="#00ADB2"></path><path opacity="0.5" d="M188.09 116.653L163.461 101.699V51.8132L188.09 66.7672V116.653Z" fill="#00B0D7"></path><path opacity="0.5" d="M255.246 158.652L230.619 143.699V93.8115L255.246 108.766V158.652Z" fill="#00B0D7"></path><path opacity="0.5" d="M197.104 88.3999V138.287L221.731 153.24V103.353L197.104 88.3999ZM218.809 145.547L200.026 134.141V96.093L218.809 107.498V145.547Z" fill="#00B0D7"></path><path opacity="0.5" d="M231.377 149.715V177.076L256.005 191.475V164.114L231.377 149.715ZM253.084 187.256L234.301 174.802V153.934L253.084 166.388V187.256Z" fill="#00B0D7"></path><path opacity="0.5" d="M188.09 156.221L163.461 141.267V105.092L188.09 120.047V156.221Z" fill="#00B0D7"></path></g><defs><linearGradient id="paint0_linear_2332_333" x1="206.18" y1="162.626" x2="206.496" y2="183.687" gradientUnits="userSpaceOnUse"><stop stop-color="#302D79"></stop><stop offset="0.142" stop-color="#274081"></stop><stop offset="0.5633" stop-color="#006C9E"></stop><stop offset="0.8587" stop-color="#0088B4"></stop><stop offset="1" stop-color="#0094BD"></stop></linearGradient><linearGradient id="paint1_linear_2332_333" x1="299.148" y1="161.231" x2="299.464" y2="182.292" gradientUnits="userSpaceOnUse"><stop stop-color="#302D79"></stop><stop offset="0.142" stop-color="#274081"></stop><stop offset="0.5633" stop-color="#006C9E"></stop><stop offset="0.8587" stop-color="#0088B4"></stop><stop offset="1" stop-color="#0094BD"></stop></linearGradient></defs></svg>