<svg xmlns="http://www.w3.org/2000/svg" width="500" height="300" viewBox="0 0 500 300" fill="none"><rect width="500" height="300" rx="24" fill="white"></rect><path d="M452.355 258.411L411.458 227.281V244.619H406.447H366.887H133.762V272.479H391.826H406.447H411.458V289.54L452.355 258.411Z" fill="#2040AC"></path><path d="M390.606 29.0182L362.524 34.9947L375.524 60.2895L380.151 50.6971C400.942 60.4739 409.802 85.1305 399.901 105.661C390 126.191 365.029 134.939 344.238 125.163C323.446 115.386 314.587 90.7292 324.488 70.1988L312.248 64.4433C299.132 91.6379 310.868 124.299 338.409 137.249C365.95 150.2 399.026 138.611 412.141 111.416C425.256 84.2218 413.52 51.5611 385.98 38.6106L390.606 29.0182Z" fill="url(#paint0_linear_2332_334)"></path><path d="M211.119 272.479C193.199 272.479 175.808 269.01 159.428 262.169C143.614 255.564 129.415 246.112 117.224 234.075C105.034 222.038 95.4613 208.017 88.7728 192.401C81.8449 176.228 78.332 159.055 78.332 141.36C78.332 123.665 81.8449 106.492 88.7728 90.3184C95.4615 74.7031 105.034 60.6822 117.224 48.6449C129.415 36.6077 143.614 27.1556 159.428 20.551C175.808 13.7099 193.199 10.2412 211.119 10.2412C229.039 10.2412 246.43 13.7099 262.81 20.551C278.624 27.1556 292.823 36.6079 305.013 48.6449C317.204 60.6822 326.776 74.7031 333.465 90.3184C340.393 106.492 343.906 123.665 343.906 141.36C343.906 159.055 340.393 176.227 333.465 192.401C326.776 208.017 317.204 222.038 305.013 234.075C292.823 246.112 278.624 255.564 262.81 262.169C246.43 269.01 229.039 272.479 211.119 272.479ZM211.119 38.1008C153.457 38.1008 106.546 84.4225 106.546 141.36C106.546 198.297 153.457 244.619 211.119 244.619C268.781 244.619 315.692 198.297 315.692 141.36C315.692 84.4227 268.781 38.1008 211.119 38.1008Z" fill="url(#paint1_linear_2332_334)"></path><path d="M311.866 197.469H111.672V236.579H311.866V197.469Z" fill="url(#paint2_linear_2332_334)"></path><path d="M211.119 244.617H48V272.478H211.119V244.617Z" fill="url(#paint3_linear_2332_334)"></path><path d="M169.896 95.7516H137.371V99.04H169.896V95.7516Z" fill="#E0E0E0"></path><path d="M202.481 120.513H178.998V123.801H202.481V120.513Z" fill="#E0E0E0"></path><path d="M221.72 120.513H206.137V123.801H221.72V120.513Z" fill="#1487E3"></path><path d="M262.417 120.513H224.793V123.801H262.417V120.513Z" fill="#E0E0E0"></path><path d="M161.911 170.31H137.734V173.598H161.911V170.31Z" fill="#E0E0E0"></path><path d="M226.876 195.162H202.699V198.451H226.876V195.162Z" fill="#E0E0E0"></path><path d="M186.196 195.163H171.438V198.451H186.196V195.163Z" fill="#E0E0E0"></path><path d="M199.312 95.7516H176.223V99.04H199.312V95.7516Z" fill="#4BBDC5"></path><path d="M199.312 132.894H176.223V136.182H199.312V132.894Z" fill="#1487E3"></path><path d="M174.539 145.274H164.674V148.562H174.539V145.274Z" fill="#E0E0E0"></path><path d="M176.968 157.838H154.809V161.126H176.968V157.838Z" fill="#4BBDC5"></path><path d="M210.907 157.838H180.316V161.126H210.907V157.838Z" fill="#1487E3"></path><path d="M160.824 145.365H137.734V148.654H160.824V145.365Z" fill="#1487E3"></path><path d="M192.117 145.365H179.191V148.654H192.117V145.365Z" fill="#FF8761"></path><path d="M160.732 120.513H137.643V123.801H160.732V120.513Z" fill="#4BBDC5"></path><path d="M181.155 182.781H158.066V186.07H181.155V182.781Z" fill="#4BBDC5"></path><path d="M222.451 207.543H199.361V210.832H222.451V207.543Z" fill="#4BBDC5"></path><path d="M170.557 132.893H137.643V136.182H170.557V132.893Z" fill="#4BBDC5"></path><path d="M234.942 95.7516H205.525V99.04H234.942V95.7516Z" fill="#1487E3"></path><path d="M185.346 219.924H155.93V223.212H185.346V219.924Z" fill="#1487E3"></path><path d="M287.92 219.924H258.504V223.212H287.92V219.924Z" fill="#1487E3"></path><path d="M283.397 195.162H253.98V198.451H283.397V195.162Z" fill="#1487E3"></path><path d="M275.182 132.894H245.766V136.182H275.182V132.894Z" fill="#1487E3"></path><path d="M197.16 195.162H190.818V198.451H197.16V195.162Z" fill="#FF8761"></path><path d="M286.118 95.7516H256.701V99.04H286.118V95.7516Z" fill="#FF8761"></path><path d="M240.383 132.893H223.135V136.182H240.383V132.893Z" fill="#FF8761"></path><path d="M226.872 182.965H209.623V186.253H226.872V182.965Z" fill="#FF8761"></path><path d="M251.148 95.7516H240.381V99.04H251.148V95.7516Z" fill="#E0E0E0"></path><path d="M216.293 132.893H205.525V136.182H216.293V132.893Z" fill="#E0E0E0"></path><path d="M154.216 108.132H137.371V111.42H154.216V108.132Z" fill="#1487E3"></path><path d="M195.617 170.401H182.316V173.689H195.617V170.401Z" fill="#1487E3"></path><path d="M163.791 108.132H158.352V111.42H163.791V108.132Z" fill="#1487E3"></path><path d="M271.834 207.543H226.877V210.832H271.834V207.543Z" fill="#E0E0E0"></path><path d="M173.337 108.132H167.787V111.42H173.337V108.132Z" fill="#FF8761"></path><path d="M265.859 108.132H251.15V111.42H265.859V108.132Z" fill="#1487E3"></path><path d="M280.566 120.513H265.857V123.801H280.566V120.513Z" fill="#FF8761"></path><path d="M247.736 195.162H233.027V198.451H247.736V195.162Z" fill="#FF8761"></path><path d="M204.939 219.924H190.23V223.212H204.939V219.924Z" fill="#FF8761"></path><path d="M247.254 108.132H215.959V111.42H247.254V108.132Z" fill="#1487E3"></path><path d="M205.116 182.965H186.832V186.253H205.116V182.965Z" fill="#1487E3"></path><path d="M211.523 108.132H200.756V111.42H211.523V108.132Z" fill="#4BBDC5"></path><path d="M175.273 120.513H164.506V123.801H175.273V120.513Z" fill="#FF8761"></path><path d="M177.42 170.401H166.652V173.689H177.42V170.401Z" fill="#FF8761"></path><path d="M196.645 108.132H177.885V111.42H196.645V108.132Z" fill="#1487E3"></path><path d="M266.675 68.983H272.02L270.384 65.6323H265.039L266.675 68.983Z" fill="url(#paint4_linear_2332_334)"></path><path d="M264.171 68.983H265.445L263.809 65.6323H262.535L264.171 68.983Z" fill="url(#paint5_linear_2332_334)"></path><path d="M245.705 64.9924H267.348L266.63 63.3171H244.986L245.705 64.9924Z" fill="url(#paint6_linear_2332_334)"></path><path d="M355.479 158.964H372.502V154.01H355.479V158.964Z" fill="#FFD770"></path><path d="M347.483 163.698H357.525V161.694H347.483V163.698Z" fill="#FFD770"></path><path d="M352.575 158.104H353.324V144.224H352.575V158.104Z" fill="#FFD770"></path><path d="M134.914 52.0502H148.322V49.6517H134.914V52.0502Z" fill="white"></path><path d="M267.871 96.9092L285.284 79.7144H356.826V78.8374H284.916L267.242 96.2891L267.871 96.9092Z" fill="#FF8761"></path><path d="M311.866 235.976H111.672V275.086H311.866V235.976Z" fill="url(#paint7_linear_2332_334)"></path><path d="M157.197 136.209L157.826 135.589L124.548 102.73H61.5684V103.607H124.18L157.197 136.209Z" fill="#4BBDC5"></path><path d="M223.509 96.6822L224.137 96.0621L196.051 68.3293H156.551V69.2063H195.683L223.509 96.6822Z" fill="#1487E3"></path><path d="M311.868 275.086V235.976H239.013L199.854 274.643L311.868 275.086Z" fill="#1F58EB"></path><path d="M324.33 56.1639H318.014V75.1062H324.33V56.1639Z" fill="#609AE8"></path><path d="M345.663 65.2889H296.674C295.142 65.2889 293.9 64.0628 293.9 62.5499V30.0384C293.9 28.5257 295.142 27.2994 296.674 27.2994H345.663C347.195 27.2994 348.437 28.5257 348.437 30.0384V62.5499C348.437 64.0628 347.195 65.2889 345.663 65.2889Z" fill="#3D8BF1"></path><path d="M346.3 29.4672H296.035V59.3358H346.3V29.4672Z" fill="white"></path><path d="M306.965 75.8214H335.379V74.3916H306.965V75.8214Z" fill="#3D8BF1"></path><path d="M327.48 56.9731H343.635V38.5319H327.48V56.9731Z" fill="#3939EB"></path><path d="M308.337 40.8308H324.982V38.5319H308.337V40.8308Z" fill="#3939EB"></path><path d="M308.337 45.5509H324.982V43.252H308.337V45.5509Z" fill="#3939EB"></path><path d="M308.337 56.973H324.982V47.4901H308.337V56.973Z" fill="#3939EB"></path><path d="M298.924 56.973H305.986V38.0073H298.924V56.973Z" fill="#3939EB"></path><path d="M299.089 36.5033L343.801 36.5033V31.7674L299.089 31.7674V36.5033Z" fill="#3939EB"></path><path d="M164.859 64.2099H187.24C188.705 64.2099 189.894 63.0367 189.894 61.5893V28.1786C189.894 26.7312 188.705 25.5579 187.24 25.5579H164.859C163.393 25.5579 162.205 26.7312 162.205 28.1786V61.5892C162.205 63.0365 163.393 64.2099 164.859 64.2099Z" fill="#5C9CEE"></path><path d="M163.733 59.0652H188.361V27.3447L163.733 27.3447V59.0652Z" fill="white"></path><path d="M165.388 33.8483H186.822V29.6258L165.388 29.6258V33.8483Z" fill="#3939EB"></path><path d="M178 56.1832H186.822V35.4856H178V56.1832Z" fill="#3939EB"></path><path d="M165.39 37.8827H176.363V35.4856H165.39V37.8827Z" fill="#3939EB"></path><path d="M165.39 42.0265H176.363V39.6294H165.39V42.0265Z" fill="#3939EB"></path><path d="M165.39 46.1703H176.363V43.7732H165.39V46.1703Z" fill="#3939EB"></path><path d="M165.39 56.1831H176.363V47.917H165.39V56.1831Z" fill="#3939EB"></path><path d="M71.5449 97.4421H114.708V70.4221C114.708 69.3615 113.837 68.5018 112.763 68.5018H73.4896C72.4156 68.5018 71.5449 69.3615 71.5449 70.4221V97.4421Z" fill="#609AE8"></path><path d="M72.7517 95.9017H113.506V70.042H72.7517V95.9017Z" fill="white"></path><path d="M69.4648 97.442H116.792V97.891C116.792 98.8174 116.031 99.5684 115.093 99.5684H71.1636C70.2255 99.5684 69.465 98.8174 69.465 97.891V97.442H69.4648Z" fill="#5C9CEE"></path><path d="M74.4543 75.5172H111.758V71.9214H74.4543V75.5172Z" fill="#3939EB"></path><path d="M98.968 94.0222H111.758V77.5482H98.968V94.0222Z" fill="#3939EB"></path><path d="M84.5403 94.0222H97.3301V77.5482H84.5403V94.0222Z" fill="#3939EB"></path><path d="M74.4548 79.9022H82.2539V77.5483H74.4548V79.9022Z" fill="#3939EB"></path><path d="M74.4548 83.5414H82.2539V81.1876H74.4548V83.5414Z" fill="#3939EB"></path><path d="M74.4548 94.0225H82.2539V84.8264H74.4548V94.0225Z" fill="#3939EB"></path><path d="M87.8982 138.9L78.2923 133.424V137.035H64.0117V140.765H78.2923V144.376L87.8982 138.9Z" fill="#2A6993"></path><path d="M64.0117 126.888L73.6175 132.364V128.753H87.8982V125.023H73.6175V121.412L64.0117 126.888Z" fill="#2A6993"></path><path d="M228.255 60.8593L221.057 56.755V59.4612H210.354V62.2573H221.057V64.9634L228.255 60.8593Z" fill="#2A6993"></path><path d="M210.354 51.8568L217.553 55.961V53.2548H228.255V50.4589H217.553V47.7527L210.354 51.8568Z" fill="#2A6993"></path><path d="M325.507 126.004C324.552 125.933 323.664 125.582 322.979 125C322.201 124.339 321.774 123.462 321.776 122.527C321.645 120.686 321.064 118.784 320.585 117.48C318.303 115.683 317.074 112.907 317.295 110.033C317.661 105.26 321.892 101.671 326.727 102.033C331.561 102.395 335.196 106.573 334.829 111.346C334.63 113.945 333.281 116.286 331.123 117.787C330.467 119.548 330.073 121.161 329.952 122.581C329.93 124.492 328.089 126.033 325.841 126.018C325.729 126.017 325.618 126.013 325.507 126.004ZM326.672 102.741C322.234 102.409 318.349 105.704 318.012 110.087C317.807 112.757 318.965 115.335 321.109 116.984L321.19 117.046L321.225 117.142C321.728 118.493 322.356 120.518 322.495 122.49L322.496 122.517C322.491 123.246 322.829 123.936 323.448 124.461C324.083 125.001 324.935 125.302 325.846 125.308C327.703 125.32 329.222 124.088 329.233 122.562V122.549L329.234 122.535C329.362 121.019 329.783 119.303 330.488 117.435L330.528 117.33L330.622 117.266C332.654 115.89 333.926 113.713 334.112 111.292C334.448 106.909 331.111 103.073 326.672 102.741Z" fill="white"></path><path d="M323.874 123.044L322.723 113.582L324.72 115.214L325.959 113.857L327.03 115.13L328.897 113.568L327.762 123.045L327.047 122.961L327.968 115.276L326.941 116.136L325.937 114.942L324.793 116.196L323.652 115.263L324.588 122.959L323.874 123.044Z" fill="white"></path><path d="M328.969 125.173L322.732 125.131L322.716 127.612L328.952 127.654L328.969 125.173Z" fill="white"></path><path d="M329.988 122.644L321.746 122.589L321.719 126.584L329.961 126.639L329.988 122.644Z" fill="white"></path><path d="M345.399 268.974C345.217 270.236 337.54 275.544 336.028 276.605C334.815 277.456 333.76 277.846 331.926 278.527C331.925 278.527 331.925 278.527 331.925 278.527C327.757 279.609 301.606 287.315 301.606 287.315C301.538 287.052 301.5 286.824 301.346 286.529C300.37 286.914 299.366 287.162 298.727 287.36C297.754 287.66 290.026 287.9 288.444 288.201C286.862 288.501 283.698 288.982 282.42 287.78C281.142 286.579 283.211 283.995 284.975 283.334C286.74 282.673 293.19 282.493 294.346 282.373C295.503 282.252 297.024 281.832 297.754 282.072C297.985 282.148 299.004 281.852 300.292 281.413C300.261 280.945 300.253 280.65 300.253 280.65L307.119 278.695L305.847 266.69C305.847 266.69 308.834 255.574 320.77 264.054C320.77 264.054 323.433 264.828 324.346 265.068C324.41 265.085 324.513 265.087 324.651 265.076C326.472 264.941 334.296 262.604 337.124 262.604C340.167 262.604 341.14 262.424 342.236 262.965C343.33 263.506 345.582 267.712 345.399 268.974Z" fill="#5B83C2"></path><path d="M333.174 287.78C331.896 288.982 328.732 288.501 327.15 288.201C325.568 287.901 317.84 287.66 316.866 287.36C315.892 287.059 314.067 286.639 312.789 285.798C312.686 285.73 312.451 285.629 312.106 285.501C312.106 285.501 312.106 285.502 312.105 285.503L310.172 286.879L283.303 278.433C281.693 277.998 280.416 277.334 279.565 276.604C278.166 275.403 270.377 270.235 270.194 268.974C270.012 267.712 272.263 263.506 273.358 262.965C274.454 262.424 275.427 262.605 278.47 262.605C281.512 262.605 290.335 265.309 291.248 265.068C291.663 264.959 292.522 264.527 293.336 264.088C294.312 263.561 295.223 263.025 295.223 263.025C308.292 257.265 309.746 266.69 309.746 266.69L308.973 278.327C308.973 278.327 310.062 278.861 311.479 279.525L317.956 281.333L317.108 281.937C317.474 282.054 317.734 282.107 317.839 282.073C318.57 281.832 320.091 282.253 321.247 282.373C322.403 282.493 328.853 282.673 330.618 283.334C332.383 283.995 334.452 286.579 333.174 287.78Z" fill="#5B83C2"></path><path d="M293.337 264.088C294.238 264.15 300.327 267.633 301.772 268.466C299.576 267.333 291.248 265.068 291.248 265.068C291.663 264.959 292.523 264.527 293.337 264.088Z" fill="#5478B3"></path><path d="M324.654 265.077C324.654 265.077 314.164 267.591 312.244 268.643C312.331 268.58 317.773 264.497 320.63 263.953C320.63 263.953 323.436 264.828 324.348 265.068C324.413 265.085 324.516 265.087 324.654 265.077C324.654 265.077 324.654 265.077 324.654 265.077Z" fill="#5478B3"></path><path d="M333.173 287.78C331.895 288.982 328.731 288.501 327.149 288.201C325.567 287.901 317.839 287.66 316.865 287.36C316.585 287.273 316.235 287.177 315.848 287.064C315.848 287.064 315.847 287.064 315.847 287.064C314.887 286.783 313.699 286.396 312.788 285.798C312.686 285.73 312.451 285.629 312.105 285.501L316.968 282.036L317.107 281.937C317.474 282.053 317.734 282.107 317.839 282.072C318.569 281.832 320.09 282.252 321.246 282.373C322.403 282.493 328.852 282.673 330.617 283.334C332.382 283.995 334.451 286.579 333.173 287.78Z" fill="#EEA886"></path><path d="M333.175 287.78C331.897 288.982 328.733 288.501 327.15 288.201C325.568 287.901 317.84 287.66 316.867 287.36C316.587 287.273 316.237 287.177 315.85 287.064C315.85 287.064 315.849 287.064 315.849 287.064C315.848 287.063 315.848 287.063 315.848 287.063C315.848 287.063 317.975 284.984 316.97 282.036L317.109 281.937C317.475 282.053 317.735 282.107 317.84 282.072C318.571 281.832 320.092 282.252 321.248 282.373C322.404 282.493 328.854 282.673 330.619 283.334C332.383 283.995 334.452 286.579 333.175 287.78Z" fill="#C5CDDB"></path><path d="M296.007 266.74C296.021 266.772 296.017 266.795 295.997 266.811C295.876 266.901 295.895 266.862 296.007 266.74Z" fill="#E55353"></path><path d="M331.174 252.691C331.072 252.488 325.529 243.878 324.028 239.953C322.527 236.027 318.916 234.224 317.213 233.664C316.605 233.464 315.522 233.115 314.379 232.75C312.322 232.093 310.073 231.38 310.073 231.38H302.974C302.974 231.38 300.514 232.194 297.903 233.098C297.901 233.099 297.9 233.1 297.9 233.1C295.493 233.933 292.958 234.843 292.102 235.266C290.317 236.147 287.315 242.436 286.707 243.157C286.098 243.878 281.419 252.443 280.744 255.735C280.219 258.291 295.587 265.781 296.006 266.74C296.493 266.207 298.731 264.088 298.731 264.088C298.731 264.088 298.014 263.643 297.005 262.987C301.121 263.173 311.18 262.823 312.623 262.894C312.914 262.909 313.229 262.9 313.553 262.875C313.552 262.875 313.551 262.876 313.551 262.876C313.998 263.196 316.879 265.709 316.879 265.709C316.879 265.709 323.978 262.798 327.242 259.541C331.879 254.914 331.684 253.712 331.174 252.691ZM290.809 258.388C289.287 256.585 287.193 255.494 287.72 254.693C288.248 253.892 292.71 246.281 292.71 246.281C292.71 246.281 295.022 251.288 295.672 253.892C296.321 256.496 296.27 257.688 295.996 258.499C295.751 259.225 295.554 259.719 295.333 261.882C293.513 260.655 291.506 259.214 290.809 258.388ZM322.197 257.527C321.6 258.196 319.239 259.678 317.117 260.897C316.956 259.444 316.712 257.157 316.685 256.335C316.645 255.094 317.172 251.529 317.821 250.167C318.47 248.805 318.916 245.08 318.916 245.08C318.916 245.08 324.291 252.29 325.143 253.051C325.995 253.812 324.212 255.266 322.197 257.527Z" fill="#DCE6FA"></path><path d="M307.366 212.113C307.366 212.113 312.918 212.977 312.073 221.554C311.227 230.131 306.327 229.428 306 229.419C305.672 229.411 301.081 229.576 300.723 219.103C300.723 219.103 300.567 211.36 307.366 212.113Z" fill="#EEA886"></path><path d="M312.157 219.131C312.157 219.131 312.765 218.49 312.988 219.139C313.211 219.788 312.158 222.683 312.121 222.819C312.121 222.819 312.01 223.071 311.864 222.932C311.718 222.794 312.157 219.131 312.157 219.131Z" fill="#EEA886"></path><path d="M300.873 219.023C300.873 219.023 300.278 218.37 300.042 219.015C299.807 219.66 300.793 222.574 300.837 222.711C300.837 222.711 300.943 222.965 301.092 222.829C301.241 222.693 300.873 219.023 300.873 219.023Z" fill="#EEA886"></path><path d="M312.157 220.447L311.362 221.496C311.362 221.496 311.384 219.196 311.257 218.835C311.129 218.474 310.934 217.372 310.827 217.113C310.721 216.853 306.06 215.563 301.943 217.489C301.943 217.489 302.124 219.143 301.729 219.29C301.335 219.438 301.528 221.984 301.528 221.984L300.875 221.256C300.875 221.256 299.874 214.657 300.121 213.97C300.368 213.282 301.155 209.147 309.602 211.601C309.602 211.601 312.235 211.051 312.764 212.846C313.292 214.641 312.157 220.447 312.157 220.447Z" fill="#434343"></path><path d="M299.199 275.295C299.199 275.295 290.7 270.266 286.988 269.475C283.48 268.727 282.201 267.432 282.201 267.432C282.201 267.432 287.779 267.432 291.491 270.035C294.012 271.804 299.199 275.295 299.199 275.295Z" fill="#49699C"></path><path d="M306.748 278.801C306.748 278.801 321.53 271.137 327.565 269.474C331.022 268.522 332.352 267.432 332.352 267.432C332.352 267.432 323.213 268.313 317.656 271.617C315.007 273.192 306.748 278.801 306.748 278.801Z" fill="#49699C"></path><path d="M301.346 286.529C300.37 286.914 299.366 287.163 298.727 287.36C297.754 287.66 290.026 287.901 288.444 288.201C286.862 288.501 283.698 288.982 282.42 287.78C281.142 286.579 283.211 283.995 284.975 283.334C286.74 282.673 293.19 282.493 294.346 282.373C295.503 282.253 297.024 281.832 297.754 282.072C297.985 282.148 299.004 281.852 300.292 281.413C300.331 282.176 301.346 286.529 301.346 286.529Z" fill="#EEA886"></path><path d="M306.748 285.803L321.28 281.557L318.406 280.691C318.406 280.691 306.793 284.847 306.748 285.803Z" fill="#5B83C2"></path><path d="M306.748 285.803L313.548 283.755L308.833 286.459L306.748 285.803Z" fill="#49699C"></path><path d="M302.078 268.643C302.064 268.635 301.955 268.572 301.771 268.465C301.893 268.528 301.996 268.588 302.078 268.643Z" fill="#525252"></path><path d="M298.727 287.36C297.754 287.66 290.026 287.901 288.444 288.201C286.862 288.501 283.698 288.982 282.42 287.78C281.142 286.579 283.211 283.995 284.975 283.334C286.74 282.673 293.19 282.493 294.346 282.373C295.503 282.253 297.024 281.832 297.754 282.072C297.754 282.072 295.803 285.017 298.727 287.36Z" fill="#C5CDDB"></path><path d="M314.378 232.751C314.378 232.751 312.05 242.851 306.506 242.851C300.961 242.851 297.898 233.1 297.898 233.1C297.898 233.1 297.9 233.099 297.901 233.098C300.513 232.194 302.973 231.38 302.973 231.38H310.072C310.072 231.38 312.321 232.093 314.378 232.751Z" fill="#DCE6FA"></path><path d="M293.927 267.432L291.688 254.854L320.64 254.193L318.775 266.57C318.775 266.57 309.533 269.911 306.397 271.859C306.397 271.859 298.47 268.643 293.927 267.432Z" fill="#525252"></path><path d="M308.099 262.439C308.099 263.479 307.372 264.322 306.476 264.322C305.58 264.322 304.854 263.479 304.854 262.439C304.854 261.399 305.58 260.556 306.476 260.556C307.372 260.556 308.099 261.399 308.099 262.439Z" fill="#6E6E6E"></path><path d="M310.142 231.404C310.14 231.396 310.138 231.388 310.134 231.38C309.789 230.617 309.957 226.893 309.957 226.893C309.957 226.893 302.886 225.116 303.088 226.475C303.29 227.834 302.479 231.543 302.479 231.543L298.852 232.77C298.852 232.77 302.717 243.017 307.158 241.695C311.6 240.373 313.278 232.4 313.278 232.4L310.142 231.404Z" fill="#EEA886"></path><path d="M303.078 227.855C303.078 227.855 304.33 229.437 306.308 229.437C307.609 229.437 308.635 228.988 309.931 227.741C309.931 227.741 309.276 230.199 306.317 230.419C306.317 230.419 304.057 230.559 303.078 227.855Z" fill="#A77860"></path><path d="M284.719 153.083H255.658V173.881V178.262L260.095 173.881H284.719V153.083Z" fill="#4BBDC5"></path><path d="M241.295 273.816C241.295 273.816 241.597 276.255 241.999 277.33C242.399 278.406 244.578 280.889 243.658 283.274C242.66 285.861 238.304 283.368 236.527 282.578C234.75 281.789 235.154 280.357 234.965 278.604C234.775 276.85 233.908 276.802 234.228 275.569C234.548 274.336 236.492 271.975 236.492 271.975L241.295 273.816Z" fill="#35527A"></path><path d="M237.341 270.699C237.341 270.699 236.226 272.24 236.256 272.282C236.287 272.324 241.033 275.178 241.364 274.252C241.626 273.517 241.736 272.452 241.736 272.452L237.341 270.699Z" fill="#EEA886"></path><path d="M221.247 275.54C221.247 275.54 219.799 276.793 218.499 278.719C217.198 280.645 213.747 280.747 213.599 283.376C213.451 286.005 218.292 286.086 220.833 285.23C223.375 284.374 223.759 281.807 225.295 281.165C226.832 280.523 227.63 280.003 227.512 278.75C227.394 277.496 226.543 275.462 226.543 275.462C226.543 275.462 225.589 275.763 225.027 275.824C224.466 275.885 222.577 275.907 221.247 275.54Z" fill="#35527A"></path><path d="M238.67 204.315C238.67 204.315 237.696 210.034 236.911 213.812C236.911 213.812 236.911 213.812 236.911 213.812C236.592 215.344 236.305 216.557 236.126 216.939C235.902 217.419 234.074 219.358 231.836 221.633C227.91 225.624 222.723 230.649 222.723 230.649L220.695 226.848C220.695 226.848 225.303 221.515 228.426 217.956C229.872 216.309 231 215.042 231.206 214.86C231.859 214.283 232.617 208.599 233.683 203.916C234.748 199.233 236.883 196.645 236.883 196.645L238.67 204.315Z" fill="#FFD670"></path><path d="M231.837 221.633C227.91 225.623 222.723 230.649 222.723 230.649L220.695 226.848C220.695 226.848 225.303 221.515 228.426 217.956C229.384 218.419 231.141 219.525 231.837 221.633Z" fill="#EEA886"></path><path d="M221.475 273.789L221.248 275.54C221.248 275.54 223.768 276.42 226.544 275.462L226.601 273.905L221.475 273.789Z" fill="#EEA886"></path><path d="M257.244 229.876C257.389 230.385 230.553 229.876 230.553 229.876C230.553 229.876 237.976 224.54 238.457 223.115C238.938 221.69 236.567 213.138 236.258 210.355C236.01 208.129 235.39 198.166 236.876 196.645C238.43 195.054 244.025 193.387 244.025 193.387L252.182 193.686C252.182 193.686 253.528 193.964 254.49 194.405C255.452 194.846 260.955 196.782 261.849 199.497C262.743 202.211 256.358 210.94 256.358 210.94C256.358 210.94 256.346 211.333 256.326 211.975C256.326 211.976 256.326 211.976 256.326 211.976C256.301 212.833 256.265 214.136 256.232 215.549C256.189 217.379 256.152 219.394 256.152 220.866C256.152 224.328 257.1 229.367 257.244 229.876Z" fill="#FFD670"></path><path d="M257.247 229.876C257.247 229.876 260.897 235.17 260.949 238.784C261 242.398 254.471 254.503 253.483 256.235C250.513 261.44 242.366 272.669 242.366 272.669C242.366 272.669 240.962 272.634 236.58 270.954C236.58 270.954 242 256.122 242.687 254.582C245.6 248.052 247.226 243.419 246.246 242.299C245.267 241.179 242.597 240.057 241.824 239.395C241.05 238.733 227.579 241.909 226.168 242.27C222.513 243.206 224.179 249.485 224.988 252.301C226.341 257.01 227.523 274.02 227.523 274.02C227.523 274.02 224.92 275.115 220.559 274.19C220.559 274.19 211.997 243.477 211.722 240.423C211.447 237.369 211.312 232.333 232.413 228.505L257.247 229.876Z" fill="#293F5E"></path><path d="M246.27 175.888C246.27 175.888 239.189 174.31 240.807 183.109C242.424 191.908 244.127 192.6 248.399 190.779C252.67 188.958 252.288 183.32 252.503 180.556C252.718 177.792 248.528 175.983 246.27 175.888Z" fill="#EEA886"></path><path d="M244.393 195.645C244.393 195.645 247.528 198.928 252.484 195.945C252.484 195.945 251.376 188.831 251.959 185.366C252.543 181.9 245.493 190.735 245.493 190.735C245.586 190.783 245.647 191.113 245.662 191.584C245.674 191.983 245.652 192.482 245.588 192.994C245.442 194.146 245.079 195.362 244.393 195.645Z" fill="#EEA886"></path><path d="M252.152 185.071C252.152 185.071 251.969 182.299 250.944 182.213C249.918 182.126 249.76 183.243 249.76 183.243L248.725 183.436C248.725 183.436 249.052 181.006 248.028 180.581C247.004 180.157 241.394 181.919 240.572 181.206C239.75 180.493 240.137 175.564 241.623 174.889C243.11 174.215 247.215 172.703 250.223 174.714C250.223 174.714 252.567 174.45 252.915 176.318C253.263 178.186 252.789 183.682 252.152 185.071Z" fill="#3A3F47"></path><path d="M245.59 192.994C250.703 191.437 251.088 188.397 251.093 188.35C249.41 191.206 245.664 191.584 245.664 191.584C245.676 191.983 245.654 192.482 245.59 192.994Z" fill="#A77860"></path><path d="M254.576 194.443C254.576 194.443 250.831 201.803 244.782 201.328C238.734 200.853 243.751 193.455 244.026 193.387C244.328 193.312 250.23 191.86 254.576 194.443Z" fill="#EEA886"></path><path d="M227.482 229.503C227.482 229.503 246.016 231.76 257.244 229.876L235.789 227.229C235.789 227.229 235.662 227.769 227.482 229.503Z" fill="#FFD670"></path><path d="M241.345 226.396L239.965 227.086C239.965 227.086 240.279 229.252 241.035 229.908L242.584 229.518C242.584 229.518 242.262 227.142 241.345 226.396Z" fill="#EEA886"></path><path d="M262.79 221.961C262.514 222.277 258.87 223.724 254.754 225.289L254.754 225.29C249.13 227.429 242.788 229.452 242.788 229.452L241.344 226.396C241.344 226.396 247.986 222.832 252.475 220.332C254.595 219.152 256.234 218.209 256.466 217.991C257.187 217.312 257.374 216.224 256.844 214.326C256.313 212.427 255.091 203.703 254.954 202.685C254.816 201.667 255.297 198.952 257.875 198.817C260.453 198.681 261.764 199.399 261.764 199.399C261.764 199.399 262.412 199.665 262.893 205.842C263.374 212.018 263.442 221.215 262.79 221.961Z" fill="#FFD670"></path><path d="M256.33 211.976C256.33 211.976 256.33 211.976 256.33 211.976C256.305 212.833 256.269 214.136 256.235 215.549C253.72 209.46 255.173 204.601 255.198 204.519C254.926 206.171 256.31 211.895 256.33 211.976Z" fill="#A88D4A"></path><path d="M236.903 213.812C236.903 213.812 236.903 213.812 236.903 213.812C236.584 215.344 236.297 216.557 236.118 216.939C235.259 212.833 236.032 207.575 236.032 207.575C236.15 210.087 236.903 213.812 236.903 213.812Z" fill="#A88D4A"></path><path d="M254.754 225.29L254.754 225.29C249.13 227.429 242.583 229.518 242.583 229.518L241.344 226.396C241.344 226.396 247.986 222.832 252.475 220.333C252.475 220.333 254.107 221.118 254.754 225.29Z" fill="#EEA886"></path><path d="M240.947 229.699L214.605 229.316L227.905 235.984L240.947 229.699Z" fill="#444C94"></path><path d="M227.904 235.984L240.946 230.996V229.699L226.873 234.712L227.904 235.984Z" fill="#303669"></path><path d="M240.265 227.134C240.265 227.134 238.619 226.881 237.482 226.619C236.602 226.417 234.414 226.696 233.856 227.253C233.299 227.811 231.526 231.697 231.191 231.934C230.856 232.171 231.363 232.72 231.952 232.445C231.952 232.445 232.492 234.145 233.826 233.509C235.16 232.872 236.066 231.482 236.765 231.237C237.463 230.993 241.532 229.758 241.532 229.758C241.532 229.758 241.313 226.72 240.265 227.134Z" fill="#EEA886"></path><path d="M234.262 226.999C234.262 226.999 233.205 227.503 232.929 227.728C232.653 227.952 231.535 228.779 231.264 228.973C230.993 229.168 231.672 229.721 233.672 228.866C235.672 228.011 234.262 226.999 234.262 226.999Z" fill="#EEA886"></path><path d="M227.905 235.984L220.07 214.86L194.811 215.267L202.278 234.734L227.905 235.984Z" fill="#303669"></path><path d="M211.983 224.205C212.754 225.727 212.521 227.384 211.463 227.907C210.405 228.429 208.923 227.619 208.152 226.098C207.381 224.576 207.614 222.919 208.672 222.397C209.73 221.874 211.213 222.684 211.983 224.205Z" fill="#518AFA"></path><path d="M249.782 182.068C249.875 181.292 251.429 181.007 251.554 182.171C251.679 183.335 250.848 185.377 250.259 185.176C249.669 184.975 249.654 183.138 249.782 182.068Z" fill="#EEA886"></path><path d="M137.53 187.887C137.53 187.887 136.609 200.628 139.131 202.152C140.71 203.108 147.007 206.329 146.82 206.934C146.633 207.538 143.265 212.309 143.265 212.309C143.265 212.309 131.169 204.444 130.779 201.966C130.398 199.544 131.375 183.311 133.037 182.563C134.282 182.003 134.94 182.466 136.509 183.617C138.711 185.231 137.53 187.887 137.53 187.887Z" fill="#323657"></path><path d="M159.579 191.525L160.645 191.135C160.645 191.135 159.315 188.054 158.735 188.129C158.067 188.215 157.232 188.433 157.232 188.433L159.579 191.525Z" fill="#EAD8CF"></path><path d="M159.811 192.056C159.674 191.956 157.545 187.921 157.545 187.921L152.994 188.532L155.453 193.311L159.811 192.056Z" fill="#DA9B5B"></path><path d="M136.122 280.604C136.122 280.604 135.746 283.182 135.699 283.569C135.652 283.957 131.515 283.341 131.515 283.341L131.18 280.272C131.18 280.272 135.605 280.24 136.122 280.604Z" fill="#424773"></path><path d="M135.753 283.242C135.753 283.242 137.064 284.795 138.331 285.472C139.599 286.149 141.591 286.418 142.341 287.118C142.882 287.624 144.312 289.802 139.047 289.759C133.781 289.715 131.243 290.066 130.678 289.231C130.114 288.396 131.495 283.067 131.495 283.067C131.495 283.067 132.742 283.51 135.753 283.242Z" fill="#292C47"></path><path d="M156.829 280.603C156.829 280.603 156.453 283.182 156.406 283.569C156.359 283.956 152.222 283.341 152.222 283.341L151.887 280.272C151.887 280.272 156.312 280.24 156.829 280.603Z" fill="#424773"></path><path d="M156.45 283.242C156.45 283.242 157.761 284.795 159.028 285.472C160.296 286.149 164.962 286.705 165.711 287.406C166.252 287.912 167.152 289.949 159.744 289.758C154.48 289.623 151.94 290.066 151.376 289.231C150.812 288.396 152.192 283.067 152.192 283.067C152.192 283.067 153.367 283.54 156.45 283.242Z" fill="#292C47"></path><path d="M137.616 214.365C137.616 214.365 133.729 220.463 134.019 225.976C134.309 231.488 133.672 237.377 133.088 243.135C132.437 249.555 130.664 262.916 130.567 266.35C130.471 269.784 130.694 282.705 130.694 282.705L137.437 282.656C137.437 282.656 139.83 256.551 140.99 253.84C142.15 251.129 146.912 231.517 147.105 229.348C147.299 227.179 137.616 214.365 137.616 214.365Z" fill="#292C47"></path><path d="M158.07 215.191C158.07 215.191 159.605 230.177 159.992 233.551C160.379 236.925 160.114 251.545 160.307 253.654C160.501 255.762 159.015 278.066 158.649 282.314L151.238 282.267C151.238 282.267 150.727 264.225 150.727 255.459C150.727 246.693 148.449 236.488 145.839 230.704C143.229 224.92 137.255 224.783 135.65 214.052C135.65 214.052 155.898 211.787 158.07 215.191Z" fill="#292C47"></path><path d="M141.72 162.945C141.72 162.945 146.352 159.891 149.604 163.163C152.857 166.435 154.455 174.13 152.12 175.665C149.784 177.201 145.821 177.604 143.941 175.521C142.06 173.437 140.053 170.259 139.559 167.938C139.065 165.617 140.546 163.922 141.72 162.945Z" fill="#EEA886"></path><path d="M150.544 176.184C150.544 176.184 150.483 179.398 150.842 180.084C151.201 180.769 144.082 180.787 144.082 180.787C144.082 180.787 143.504 177.06 142.409 173.91C141.313 170.761 150.544 176.184 150.544 176.184Z" fill="#EEA886"></path><path d="M142.582 173.859C142.582 173.859 143.246 174.527 145.126 173.771C147.006 173.014 148.776 169.895 149.524 169.424C150.271 168.953 150.166 168.478 150.166 168.478L150.852 169.096L151.731 168.948C151.731 168.948 150.394 166.838 151.362 165.625C152.329 164.412 148.353 158.488 142.609 162.105C142.609 162.105 138.113 164.533 138.932 167.192C139.751 169.852 141.185 172.765 142.582 173.859Z" fill="#754836"></path><path d="M151.261 180.001C151.261 180.001 151.238 178.691 150.637 178.566C150.036 178.44 144.003 177.868 143.266 178.154V179.679C143.266 179.679 144.687 180.543 151.261 180.001Z" fill="#E2D2CA"></path><path d="M149.805 167.526C149.588 167.099 148.112 166.076 147.996 167.566C147.88 169.056 149.447 170.659 150.034 170.354C150.622 170.049 150.357 168.61 149.805 167.526Z" fill="#EEA886"></path><path d="M175.209 195.47C175.206 195.469 175.203 195.469 175.199 195.469C175.24 195.487 175.246 195.489 175.209 195.47Z" fill="#323657"></path><path d="M160.077 181.816C155.784 181.071 151.266 180.001 151.266 180.001L143.271 179.679C143.271 179.679 135.933 181.274 133.043 182.563C132.769 182.685 132.768 189.027 132.016 190.69L134.412 195.681C134.412 195.681 135.796 205.567 136.083 209.964C136.215 211.983 133.228 228.892 133.228 228.892C133.228 228.892 136.428 229.822 141.885 230.416C147.341 231.01 160.975 230.202 161.061 229.565C161.147 228.929 158.421 205.869 158.3 204.675C158.115 202.842 158.836 194.373 158.836 194.373C159.864 195.736 164.752 201.665 167.484 204.595C169.091 206.319 175.001 209.312 176.371 209.916C179.333 211.223 184.079 214.223 184.253 213.91C184.392 213.721 187.579 208.4 187.205 208.277C186.878 208.169 176.951 202.174 174.118 200.689C173.081 200.146 169.044 193.311 169.044 193.311C169.044 193.311 162.445 182.866 160.077 181.816Z" fill="#323657"></path><path d="M140.38 163.733C140.38 163.733 133.755 165.487 142.318 173.606L140.38 163.733Z" fill="#754836"></path><path d="M190.97 215.093C190.97 215.093 190.387 215.107 190.129 214.991C190.129 214.991 189.676 214.743 189.343 214.586C189.238 214.537 189.144 214.496 189.081 214.476C188.818 214.392 188.215 214.285 187.639 213.908C187.065 213.531 185.172 211.997 185.172 211.997L186.21 210.172L186.628 208.404C186.628 208.404 190.816 208.546 191.392 208.836C191.449 208.865 191.503 208.895 191.552 208.927C192.016 209.22 192.237 209.63 192.463 209.81C192.545 209.877 193.32 210.597 193.3 210.91C193.273 211.345 193.075 211.635 192.813 211.784C192.813 211.784 192.721 212.633 192.306 213.036C192.306 213.036 192.247 213.822 191.587 214.179C191.587 214.179 191.436 214.97 190.97 215.093Z" fill="#EFAA88"></path><path d="M93.468 172.085C94.1169 174.185 93.2873 176.296 91.6143 176.8C89.9416 177.304 88.0593 176.01 87.4102 173.91C86.7613 171.81 87.5913 169.699 89.2639 169.195C90.9369 168.691 92.819 169.985 93.468 172.085Z" fill="#E8734D"></path><path d="M101.66 183.374C101.66 183.374 104.025 184.106 105.376 185.94C106.726 187.774 106.938 190.335 106.998 191.645C107.058 192.956 107.42 198.018 107.42 198.018L103.409 199.129L101.66 183.374Z" fill="#323657"></path><path d="M118.666 285.098C118.666 285.098 121.674 289.097 121.262 289.731C120.849 290.365 117.685 290.456 115.76 289.731C113.834 289.007 113.788 284.32 112.917 282.306C112.552 281.463 113.333 278.975 114.43 278.794C115.527 278.614 116.721 279.144 116.721 279.144C116.721 279.144 115.583 281.98 118.666 285.098Z" fill="#292C47"></path><path d="M116.741 279.112C116.741 279.112 117.374 280.815 117.605 282.441C117.797 283.789 119.748 286.653 119.657 287.015C119.565 287.377 117.089 287.705 116.08 286.771C115.072 285.838 114.422 283.122 114.2 281.498C113.993 279.985 113.732 279.238 113.732 279.238C113.732 279.238 115.778 278.115 116.741 279.112Z" fill="#EEA886"></path><path d="M92.4777 285.165C92.4777 285.165 95.3777 289.098 94.965 289.731C94.5523 290.365 91.3887 290.456 89.4629 289.731C87.5372 289.007 87.4913 284.32 86.6201 282.306C86.2553 281.463 87.0359 278.975 88.1332 278.794C89.2305 278.614 90.5174 279.183 90.5174 279.183C90.5174 279.183 89.3946 282.047 92.4777 285.165Z" fill="#292C47"></path><path d="M90.5225 279.182C90.5225 279.182 90.7519 281.039 91.1185 282.352C91.4853 283.665 93.457 286.653 93.3654 287.015C93.2735 287.377 90.7976 287.705 89.7889 286.771C88.7802 285.838 88.0007 283.134 87.909 281.498C87.8174 279.862 88.1384 278.794 88.1384 278.794C88.1384 278.794 89.5597 278.186 90.5225 279.182Z" fill="#EEA886"></path><path d="M105.007 214.075C105.007 214.075 107.589 225.934 108.182 228.92C108.775 231.905 110.435 246.365 110.612 248.824C110.79 251.283 113.306 260.548 113.188 261.426C113.069 262.304 116.918 279.944 116.918 279.944C116.918 279.944 115.604 280.989 114.218 280.039C113.505 279.55 105.774 263.524 105.774 259.133C105.774 253.064 101.228 245.142 100.642 243.784C95.1939 231.17 96.2665 227.313 95.555 226.493C94.8436 225.674 94.7818 227 94.3669 228.814C93.952 230.629 93.0632 246.319 92.5296 248.309C91.9959 250.3 92.4104 257.032 92.114 260.428C91.8176 263.824 90.516 279.183 90.516 279.183C90.516 279.183 89.508 280.742 88.0939 279.223C87.7895 278.896 85.6523 262.114 85.593 258.074C85.5336 254.035 85.4704 248.464 85.3559 246.717C84.2574 229.978 81.5579 227.587 85.8098 215.74C93.7707 193.558 105.007 214.075 105.007 214.075Z" fill="#EEA886"></path><path d="M87.6692 210.761C87.6692 210.761 80.3147 220.925 83.4811 242.546C83.4811 242.546 100.925 244.889 110.271 239.836C110.271 239.836 106.406 217.544 105.006 214.075C103.605 210.607 87.6692 210.761 87.6692 210.761Z" fill="#323657"></path><path d="M112.834 281.955V286.141H113.384V282.905L112.834 281.955Z" fill="#292C47"></path><path d="M86.5371 281.955V286.142H87.0874V282.906L86.5371 281.955Z" fill="#292C47"></path><path d="M97.5424 181.88C97.5424 181.88 100.722 183.188 101.663 183.374C102.604 183.56 105.784 188.197 106.423 189.906C107.063 191.616 106.423 194.179 105.106 197.189C103.789 200.199 105.031 201.202 104.429 204.212C103.827 207.222 105.771 213.64 105.884 215.313C105.997 216.985 88.192 217.255 84.6922 214.208C84.6922 214.208 88.2097 209.006 88.6613 208.263C89.1128 207.52 88.7365 203.469 88.3226 202.429C87.9087 201.388 85.1536 192.54 85.1536 192.54C85.1536 192.54 82.8996 185.745 84.9357 184.183C86.7044 182.827 91.5249 182.344 92.3904 182.046C93.2558 181.749 95.7735 181.62 97.5424 181.88Z" fill="#323657"></path><path d="M98.8324 178.792C98.8324 178.792 98.7582 179.463 98.6705 180.39C98.6324 180.801 98.5907 181.263 98.552 181.739C98.4416 183.09 98.352 184.554 98.4045 185.298C98.4045 185.298 95.5887 188.084 92.3867 182.047C92.3867 182.047 93.734 179.558 92.7197 176.166C91.7053 172.776 98.8324 178.792 98.8324 178.792Z" fill="#EEA886"></path><path d="M105.917 201.207L106.389 202.342L105.379 201.627L105.917 201.207Z" fill="#EEA886"></path><path d="M99.7934 163.371C99.7934 163.371 106.106 165.331 102.679 176.088C99.2525 186.846 90.6307 174.842 91.5325 168.287C92.4343 161.733 99.7934 163.371 99.7934 163.371Z" fill="#EEA987"></path><path d="M103.33 169.649C103.33 169.649 100.193 172.688 94.9435 173.068C94.9435 173.068 92.9261 175.404 92.7711 176.321C92.7711 176.321 87.2778 167.262 93.8447 163.711C100.802 159.95 105.446 167.701 103.33 169.649Z" fill="#E8734D"></path><path d="M94.8996 173.007C94.8591 172.224 94.3706 170.442 93.1922 170.941C92.0137 171.439 93.2643 175.068 94.046 174.845C94.046 174.845 94.9958 174.859 94.8996 173.007Z" fill="#EEA987"></path><path d="M98.6711 180.39C98.633 180.801 98.5913 181.263 98.5525 181.739H98.5515C94.9016 179.96 94.3425 177.394 94.3262 177.314C97.1126 180.393 98.6711 180.39 98.6711 180.39Z" fill="#A77860"></path><path d="M106.752 191.571C106.752 191.571 106.925 195.359 106.066 197.53L105.275 197.125C105.275 197.125 106.737 193.335 106.752 191.571Z" fill="#1D3B54"></path><path d="M93.0598 203.887C93.0598 203.887 94.5173 202.934 94.7445 202.795C94.9717 202.656 95.7677 202.701 96.587 202.956C97.383 203.205 98.2794 203.547 98.5274 203.685C98.6566 203.756 98.7857 203.78 98.7296 204.151C98.6735 204.523 98.4194 204.806 98.4194 204.806C98.4194 204.806 98.5684 205.296 98.2283 205.622C98.2283 205.622 98.347 206.089 97.8994 206.397C97.8994 206.397 98.0028 206.856 97.6586 207.053C97.6586 207.053 96.9141 207.154 96.6327 207.095C96.2348 207.012 94.1509 206.538 92.6893 206.158C92.6893 206.158 92.0844 205.802 93.0598 203.887Z" fill="#EEA886"></path><path d="M98.0822 203.567C98.0822 203.567 101.858 204.386 101.812 204.675C101.745 205.095 100.809 205.25 97.9417 204.47C95.1543 203.711 98.0822 203.567 98.0822 203.567Z" fill="#EEA886"></path><path d="M88.7773 183.558C87.9202 183.046 85.0615 183.103 83.9445 185.753C82.8276 188.402 81.9143 191.419 81.1312 192.804C80.348 194.189 77.6866 200.512 78.4771 201.271C79.2675 202.03 80.8915 202.933 83.3367 203.501C85.8616 204.088 93.1806 206.78 93.1806 206.78L94.1152 202.867C94.1152 202.867 90.8962 201.35 89.0386 200.615C87.3851 199.96 87.5901 199.787 84.8643 198.834C84.8643 198.834 86.4282 194.898 87.132 193.846C87.8357 192.795 92.6322 185.86 88.7773 183.558Z" fill="#323657"></path><path d="M98.7449 210.556L108.541 209.776C108.982 209.741 109.379 209.5 109.611 209.129L119.763 192.869C120.33 191.961 119.676 190.789 118.596 190.778L108.1 190.669C107.586 190.663 107.111 190.938 106.866 191.384L97.4135 208.535C96.8863 209.491 97.6452 210.644 98.7449 210.556Z" fill="#857B77"></path><path d="M112.46 204.579C112.46 204.579 113.076 204.014 113.625 203.223C114.174 202.432 115.969 199.413 115.805 199.224C115.641 199.034 112.975 198.97 112.492 199.4C112.008 199.829 112.967 199.998 112.967 199.998C112.967 199.998 111.51 200.146 111.614 200.552C111.718 200.959 112.595 200.846 112.595 200.846C112.595 200.846 111.422 201.068 111.6 201.425C111.778 201.782 112.342 201.778 112.342 201.778C112.342 201.778 111.302 201.907 111.431 202.297C111.56 202.686 113.205 203.054 112.985 203.378C112.765 203.701 112.46 204.579 112.46 204.579Z" fill="#EEA886"></path><path d="M91.9238 182.161C91.9238 182.161 95.46 187.847 98.2647 187.78C101.07 187.713 99.156 182.521 99.156 182.521C99.156 182.521 97.0037 180.821 91.9238 182.161Z" fill="#EEA886"></path><path d="M110.343 201.242C109.396 202.178 108.116 202.431 107.485 201.807C106.854 201.184 107.11 199.92 108.057 198.984C109.004 198.049 110.284 197.796 110.916 198.419C111.547 199.043 111.291 200.307 110.343 201.242Z" fill="#918682"></path><path d="M103.839 168.155C103.839 168.155 104.234 169.647 103.568 172.258C103.568 172.258 103.672 169.8 103.152 169.13C102.631 168.46 103.839 168.155 103.839 168.155Z" fill="#E8734D"></path><defs><linearGradient id="paint0_linear_2332_334" x1="428.148" y1="49.1493" x2="332.067" y2="114.018" gradientUnits="userSpaceOnUse"><stop stop-color="#40D5E6"></stop><stop offset="1" stop-color="#4B69E0"></stop></linearGradient><linearGradient id="paint1_linear_2332_334" x1="78.332" y1="141.36" x2="343.906" y2="141.36" gradientUnits="userSpaceOnUse"><stop stop-color="#40D5E6"></stop><stop offset="1" stop-color="#5577FF"></stop></linearGradient><linearGradient id="paint2_linear_2332_334" x1="211.769" y1="203.871" x2="211.769" y2="259.347" gradientUnits="userSpaceOnUse"><stop stop-color="#40D5E6"></stop><stop offset="1" stop-color="#5577FF"></stop></linearGradient><linearGradient id="paint3_linear_2332_334" x1="47.9999" y1="258.548" x2="211.119" y2="258.548" gradientUnits="userSpaceOnUse"><stop stop-color="#40D5E6"></stop><stop offset="1" stop-color="#5577FF"></stop></linearGradient><linearGradient id="paint4_linear_2332_334" x1="265.039" y1="67.3077" x2="272.02" y2="67.3077" gradientUnits="userSpaceOnUse"><stop stop-color="#FFAE70"></stop><stop offset="1" stop-color="#FFD970"></stop></linearGradient><linearGradient id="paint5_linear_2332_334" x1="262.535" y1="67.3077" x2="265.445" y2="67.3077" gradientUnits="userSpaceOnUse"><stop stop-color="#FFAE70"></stop><stop offset="1" stop-color="#FFD970"></stop></linearGradient><linearGradient id="paint6_linear_2332_334" x1="244.986" y1="64.1547" x2="267.348" y2="64.1547" gradientUnits="userSpaceOnUse"><stop stop-color="#FFAE70"></stop><stop offset="1" stop-color="#FFD970"></stop></linearGradient><linearGradient id="paint7_linear_2332_334" x1="211.769" y1="203.393" x2="211.769" y2="267.978" gradientUnits="userSpaceOnUse"><stop stop-color="#40D5E6"></stop><stop offset="1" stop-color="#4B69E0"></stop></linearGradient></defs></svg>