<svg xmlns="http://www.w3.org/2000/svg" width="500" height="299" viewBox="0 0 500 299" fill="none"><rect width="500" height="299.003" rx="24" fill="white"></rect><path d="M73.7807 287.232C73.7807 287.232 -58.6903 -13.3549 184.408 6.99164C288.529 15.7062 269.092 68.5753 315.077 118.043C344.884 150.107 402.213 123.876 423.696 151.895C445.179 179.914 419.933 259.805 411.077 287.232H73.7807Z" fill="#E5F0F8"></path><path d="M427.102 287.997C427.102 287.997 433.366 263.009 448.981 255.297C464.597 247.585 481.263 258.143 477.031 269.245C473.382 278.818 458.376 267.047 446.701 271.676C435.026 276.305 433.185 287.997 433.185 287.997H427.102Z" fill="#40A87B"></path><path d="M474.016 262.587C474.016 262.587 457.257 253.036 444.823 261.867C432.388 270.697 428.453 287.997 428.453 287.997" stroke="#6ADB6A" stroke-width="0.652126" stroke-miterlimit="10"></path><path d="M471.302 258.121L467.402 259.821" stroke="#6ADB6A" stroke-width="0.652126" stroke-miterlimit="10"></path><path d="M465.681 254.478L457.914 258.12" stroke="#6ADB6A" stroke-width="0.652126" stroke-miterlimit="10"></path><path d="M454.013 254.478L449.973 259.251" stroke="#6ADB6A" stroke-width="0.652126" stroke-miterlimit="10"></path><path d="M446.347 257.677L444.531 262.072" stroke="#6ADB6A" stroke-width="0.652126" stroke-miterlimit="10"></path><path d="M469.365 268.669L463.379 258.767" stroke="#6ADB6A" stroke-width="0.652126" stroke-miterlimit="10"></path><path d="M458.783 267.25L453.293 258.433" stroke="#6ADB6A" stroke-width="0.652126" stroke-miterlimit="10"></path><path d="M449.461 265.899L441.207 264.873" stroke="#6ADB6A" stroke-width="0.652126" stroke-miterlimit="10"></path><path d="M439.848 270.898L435.117 272.452" stroke="#6ADB6A" stroke-width="0.652126" stroke-miterlimit="10"></path><path d="M420.707 287.862C420.707 287.862 416.287 204.103 456.293 214.897C496.299 225.69 425.086 270.832 425.147 287.862H420.707Z" fill="#6ADB6A"></path><path d="M422.328 287.862C422.328 287.862 423.725 244.101 452.242 222.462" stroke="#40A87B" stroke-width="0.652126" stroke-miterlimit="10"></path><path d="M439.734 235.151L440.447 220.061" stroke="#40A87B" stroke-width="0.652126" stroke-miterlimit="10"></path><path d="M462.103 228.899L442.828 231.411" stroke="#40A87B" stroke-width="0.652126" stroke-miterlimit="10"></path><path d="M454.595 241.778L434.215 244.152" stroke="#40A87B" stroke-width="0.652126" stroke-miterlimit="10"></path><path d="M444.421 254.541L428.68 256.765" stroke="#40A87B" stroke-width="0.652126" stroke-miterlimit="10"></path><path d="M427.164 242.616L430.772 251.382" stroke="#40A87B" stroke-width="0.652126" stroke-miterlimit="10"></path><path d="M433.094 228.388L436.17 240.73" stroke="#40A87B" stroke-width="0.652126" stroke-miterlimit="10"></path><path d="M423.801 257.249L426.675 262.978" stroke="#40A87B" stroke-width="0.652126" stroke-miterlimit="10"></path><path d="M436.174 266.372L424.895 269.928" stroke="#40A87B" stroke-width="0.652126" stroke-miterlimit="10"></path><path d="M448.735 293.344H42.9986C41.006 293.344 39.3906 291.729 39.3906 289.736V289.542C39.3906 287.549 41.006 285.934 42.9986 285.934H448.735C450.728 285.934 452.343 287.549 452.343 289.542V289.736C452.343 291.729 450.727 293.344 448.735 293.344Z" fill="#0775EF"></path><path d="M327.949 22.8686C327.949 26.925 324.662 30.2116 320.611 30.2116H296.458C293.265 30.2116 290.676 27.6228 290.676 24.4292C290.676 21.2357 293.265 18.6468 296.458 18.6468C297.037 18.6468 297.595 18.7296 298.122 18.8897C299.083 17.0397 301.021 15.7789 303.248 15.7789C303.522 15.7789 303.786 15.7997 304.049 15.8357C305.228 12.2185 308.628 9.60889 312.638 9.60889C316.539 9.60889 319.862 12.0789 321.128 15.5463C324.936 15.8097 327.949 18.9878 327.949 22.8686Z" fill="#E5F0F8"></path><path d="M308.057 23.7406L304.062 18.749L300.066 23.7406H302.293V27.3246H305.83V23.7406H308.057Z" fill="white"></path><path d="M310.57 22.333L314.566 27.3246L318.561 22.333H316.334V18.749H312.797V22.333H310.57Z" fill="white"></path><path d="M253.774 59.7687H250.392V55.0961C250.392 52.6086 248.369 50.585 245.881 50.585C243.393 50.585 241.37 52.6088 241.37 55.0961V59.7687H237.988C237.763 59.7687 237.582 59.9504 237.582 60.1733V72.5776C237.582 72.8021 237.764 72.9821 237.988 72.9821H245.882H253.774C253.998 72.9821 254.18 72.8021 254.18 72.5776V60.1733C254.18 59.9504 253.998 59.7687 253.774 59.7687ZM242.799 55.0961C242.799 53.3971 244.182 52.0147 245.881 52.0147C247.58 52.0147 248.963 53.3971 248.963 55.0961V59.7687H245.882H242.8V55.0961H242.799Z" fill="white"></path><path d="M129.15 60.7345L122.94 56.936C122.333 57.2216 121.654 57.3813 120.939 57.3813C120.223 57.3813 119.545 57.2216 118.938 56.936L112.728 60.7345C112.728 60.7345 111.884 73.3565 120.939 77.1626C129.994 73.3565 129.15 60.7345 129.15 60.7345Z" fill="white"></path><path d="M383.274 285.96H73.4257C65.5903 285.96 59.2383 279.608 59.2383 271.773V271.401C59.2383 270.234 60.1843 269.288 61.3513 269.288H395.348C396.515 269.288 397.461 270.234 397.461 271.401V271.773C397.461 279.608 391.109 285.96 383.274 285.96Z" fill="#586773"></path><path d="M388.234 116.515V269.288H68.2148V116.515C68.2148 99.2455 81.6622 85.251 98.2562 85.251H358.192C374.787 85.251 388.234 99.2455 388.234 116.515Z" fill="#586773"></path><path d="M377.007 116.515V269.288H79.4453V116.515C79.4453 105.724 87.8896 96.9365 98.258 96.9365H358.194C368.563 96.9363 377.007 105.724 377.007 116.515Z" fill="#E5F0F8"></path><path d="M365.777 116.51V122.788H90.6797V116.51C90.6797 112.173 94.0831 108.62 98.2613 108.62H358.195C362.374 108.62 365.777 112.173 365.777 116.51Z" fill="#BBDBF3"></path><path d="M365.777 122.789H90.6797V269.291H365.777V122.789Z" fill="white"></path><path d="M226.593 128.562H94.6836V138.288H226.593V128.562Z" fill="#BBDBF3"></path><path d="M226.593 138.288H94.6836V172.997H226.593V138.288Z" fill="#E5F0F8"></path><path d="M142.187 132.325H99.3906V134.49H142.187V132.325Z" fill="white"></path><path d="M173.777 132.325H144.797V134.49H173.777V132.325Z" fill="white"></path><path d="M221.873 141.749H99.4219V169.537H221.873V141.749Z" stroke="#BBDBF3" stroke-width="0.538393" stroke-miterlimit="10"></path><path d="M110.047 141.749H99.4219V169.537H110.047V141.749Z" stroke="#BBDBF3" stroke-width="0.538393" stroke-miterlimit="10"></path><path d="M171.456 141.749H110.039V169.537H171.456V141.749Z" stroke="#BBDBF3" stroke-width="0.538393" stroke-miterlimit="10"></path><path d="M221.864 141.749H212.172V169.537H221.864V141.749Z" stroke="#BBDBF3" stroke-width="0.538393" stroke-miterlimit="10"></path><path d="M212.168 141.749H202.477V169.537H212.168V141.749Z" stroke="#BBDBF3" stroke-width="0.538393" stroke-miterlimit="10"></path><path d="M202.469 141.749H190.359V169.537H202.469V141.749Z" stroke="#BBDBF3" stroke-width="0.538393" stroke-miterlimit="10"></path><path d="M190.366 141.749H171.449V169.537H190.366V141.749Z" stroke="#BBDBF3" stroke-width="0.538393" stroke-miterlimit="10"></path><path d="M221.873 150.036H99.4219V156.536H221.873V150.036Z" stroke="#BBDBF3" stroke-width="0.538393" stroke-miterlimit="10"></path><path d="M221.873 156.537H99.4219V163.037H221.873V156.537Z" stroke="#BBDBF3" stroke-width="0.538393" stroke-miterlimit="10"></path><path d="M221.873 163.037H99.4219V169.537H221.873V163.037Z" stroke="#BBDBF3" stroke-width="0.538393" stroke-miterlimit="10"></path><path d="M226.593 175.971H94.6836V181.619H226.593V175.971Z" fill="#BBDBF3"></path><path d="M226.593 181.619H94.6836V201.776H226.593V181.619Z" fill="#E5F0F8"></path><path d="M142.187 178.156H99.3906V179.414H142.187V178.156Z" fill="white"></path><path d="M173.777 178.156H144.797V179.414H173.777V178.156Z" fill="white"></path><path d="M221.873 183.629H99.4219V199.767H221.873V183.629Z" stroke="#BBDBF3" stroke-width="0.41029" stroke-miterlimit="10"></path><path d="M110.047 183.629H99.4219V199.767H110.047V183.629Z" stroke="#BBDBF3" stroke-width="0.41029" stroke-miterlimit="10"></path><path d="M171.456 183.629H110.039V199.767H171.456V183.629Z" stroke="#BBDBF3" stroke-width="0.41029" stroke-miterlimit="10"></path><path d="M221.864 183.629H212.172V199.767H221.864V183.629Z" stroke="#BBDBF3" stroke-width="0.41029" stroke-miterlimit="10"></path><path d="M212.168 183.629H202.477V199.767H212.168V183.629Z" stroke="#BBDBF3" stroke-width="0.41029" stroke-miterlimit="10"></path><path d="M202.469 183.629H190.359V199.767H202.469V183.629Z" stroke="#BBDBF3" stroke-width="0.41029" stroke-miterlimit="10"></path><path d="M190.366 183.629H171.449V199.767H190.366V183.629Z" stroke="#BBDBF3" stroke-width="0.41029" stroke-miterlimit="10"></path><path d="M221.873 188.442H99.4219V192.217H221.873V188.442Z" stroke="#BBDBF3" stroke-width="0.41029" stroke-miterlimit="10"></path><path d="M221.873 192.217H99.4219V195.992H221.873V192.217Z" stroke="#BBDBF3" stroke-width="0.41029" stroke-miterlimit="10"></path><path d="M221.873 195.992H99.4219V199.767H221.873V195.992Z" stroke="#BBDBF3" stroke-width="0.41029" stroke-miterlimit="10"></path><path d="M358.199 128.562H233.842C232.369 128.562 231.176 129.756 231.176 131.228V137.4V192.314H360.865V137.4V131.228C360.865 129.756 359.671 128.562 358.199 128.562Z" fill="#BBDBF3"></path><path d="M359.413 135.913H232.621V190.758H359.413V135.913Z" fill="white"></path><path d="M277.856 175.97H268.383V185.793H277.856V175.97Z" fill="white" stroke="#BBDBF3" stroke-width="0.699867" stroke-miterlimit="10"></path><path d="M268.379 175.97H244.906V185.793H268.379V175.97Z" fill="white" stroke="#BBDBF3" stroke-width="0.699867" stroke-miterlimit="10"></path><path d="M244.906 175.97H236.375V185.793H244.906V175.97Z" fill="white" stroke="#BBDBF3" stroke-width="0.699867" stroke-miterlimit="10"></path><path d="M285.582 175.97H277.859V185.793H285.582V175.97Z" fill="white" stroke="#BBDBF3" stroke-width="0.699867" stroke-miterlimit="10"></path><path d="M293.911 175.97H285.582V185.793H293.911V175.97Z" fill="white" stroke="#BBDBF3" stroke-width="0.699867" stroke-miterlimit="10"></path><path d="M277.856 166.147H268.383V175.97H277.856V166.147Z" fill="white" stroke="#BBDBF3" stroke-width="0.699867" stroke-miterlimit="10"></path><path d="M268.379 166.147H244.906V175.97H268.379V166.147Z" fill="white" stroke="#BBDBF3" stroke-width="0.699867" stroke-miterlimit="10"></path><path d="M244.906 166.147H236.375V175.97H244.906V166.147Z" fill="white" stroke="#BBDBF3" stroke-width="0.699867" stroke-miterlimit="10"></path><path d="M285.582 166.147H277.859V175.97H285.582V166.147Z" fill="white" stroke="#BBDBF3" stroke-width="0.699867" stroke-miterlimit="10"></path><path d="M293.911 166.147H285.582V175.97H293.911V166.147Z" fill="white" stroke="#BBDBF3" stroke-width="0.699867" stroke-miterlimit="10"></path><path d="M265.675 170.123H247.621V171.996H265.675V170.123Z" fill="#E5F0F8"></path><path d="M265.675 179.945H247.621V181.818H265.675V179.945Z" fill="#E5F0F8"></path><path d="M286.066 140.418H236.367V143.012H286.066V140.418Z" fill="#E5F0F8"></path><path d="M261.217 146.913H236.367V149.507H261.217V146.913Z" fill="#E5F0F8"></path><path d="M294.134 146.913H283.332V149.507H294.134V146.913Z" fill="#E5F0F8"></path><path d="M271.128 151.909H236.367V154.503H271.128V151.909Z" fill="#E5F0F8"></path><path d="M294.129 151.909H280.445V154.503H294.129V151.909Z" fill="#E5F0F8"></path><path d="M266.671 156.904H236.367V159.498H266.671V156.904Z" fill="#E5F0F8"></path><path d="M294.134 156.904H283.332V159.498H294.134V156.904Z" fill="#E5F0F8"></path><path d="M296.773 174.911H355.28" stroke="#ADD0FA" stroke-width="0.24137" stroke-miterlimit="10" stroke-linecap="round" stroke-linejoin="round" stroke-dasharray="1.44 1.44"></path><path d="M296.773 171.112H355.28" stroke="#ADD0FA" stroke-width="0.24137" stroke-miterlimit="10" stroke-linecap="round" stroke-linejoin="round" stroke-dasharray="1.44 1.44"></path><path d="M296.773 167.312H355.28" stroke="#ADD0FA" stroke-width="0.24137" stroke-miterlimit="10" stroke-linecap="round" stroke-linejoin="round" stroke-dasharray="1.44 1.44"></path><path d="M296.773 163.513H355.28" stroke="#ADD0FA" stroke-width="0.24137" stroke-miterlimit="10" stroke-linecap="round" stroke-linejoin="round" stroke-dasharray="1.44 1.44"></path><path d="M296.773 159.714H355.28" stroke="#ADD0FA" stroke-width="0.24137" stroke-miterlimit="10" stroke-linecap="round" stroke-linejoin="round" stroke-dasharray="1.44 1.44"></path><path d="M296.773 155.915H355.28" stroke="#ADD0FA" stroke-width="0.24137" stroke-miterlimit="10" stroke-linecap="round" stroke-linejoin="round" stroke-dasharray="1.44 1.44"></path><path d="M296.773 152.115H355.28" stroke="#ADD0FA" stroke-width="0.24137" stroke-miterlimit="10" stroke-linecap="round" stroke-linejoin="round" stroke-dasharray="1.44 1.44"></path><path d="M296.867 148.172V178.496H355.862" stroke="#BBDBF3" stroke-width="0.48274" stroke-miterlimit="10" stroke-linecap="round" stroke-linejoin="round"></path><path d="M300.973 172.782L312.168 156.491L319.52 166.913H330.643L341.389 152.867L355.277 173.623" stroke="#F9E181" stroke-width="0.48274" stroke-miterlimit="10" stroke-linecap="round" stroke-linejoin="round"></path><path d="M313.268 157.592C313.876 156.984 313.876 155.998 313.268 155.39C312.66 154.782 311.674 154.782 311.066 155.39C310.458 155.998 310.458 156.984 311.066 157.592C311.674 158.2 312.66 158.2 313.268 157.592Z" fill="white" stroke="#F74242" stroke-width="0.48274" stroke-miterlimit="10" stroke-linecap="round" stroke-linejoin="round"></path><path d="M320.079 168.41C320.874 168.081 321.251 167.17 320.922 166.375C320.593 165.581 319.682 165.203 318.888 165.533C318.093 165.862 317.716 166.772 318.045 167.567C318.374 168.361 319.285 168.739 320.079 168.41Z" fill="white" stroke="#F74242" stroke-width="0.48274" stroke-miterlimit="10" stroke-linecap="round" stroke-linejoin="round"></path><path d="M331.596 168.072C332.204 167.464 332.204 166.478 331.596 165.87C330.988 165.262 330.002 165.262 329.394 165.87C328.786 166.478 328.786 167.464 329.394 168.072C330.002 168.68 330.988 168.68 331.596 168.072Z" fill="white" stroke="#F74242" stroke-width="0.48274" stroke-miterlimit="10" stroke-linecap="round" stroke-linejoin="round"></path><path d="M341.526 155.123C342.386 155.123 343.083 154.426 343.083 153.566C343.083 152.706 342.386 152.009 341.526 152.009C340.666 152.009 339.969 152.706 339.969 153.566C339.969 154.426 340.666 155.123 341.526 155.123Z" fill="white" stroke="#F74242" stroke-width="0.48274" stroke-miterlimit="10" stroke-linecap="round" stroke-linejoin="round"></path><path d="M285.188 238.432C285.188 253.157 273.249 265.082 258.537 265.082C243.825 265.082 231.887 253.157 231.887 238.432H237.114C237.114 250.245 246.723 259.855 258.537 259.855C270.351 259.855 279.96 250.245 279.96 238.432C279.96 226.632 270.351 217.022 258.537 217.022V211.795C273.249 211.795 285.188 223.72 285.188 238.432Z" fill="#BBDBF3"></path><path d="M258.537 211.795V217.022C246.723 217.022 237.114 226.632 237.114 238.432H231.887C231.887 223.72 243.825 211.795 258.537 211.795Z" fill="#F9E181"></path><path d="M258.525 217.022V222.86C249.942 222.86 242.953 229.848 242.953 238.431H237.102C237.102 226.631 246.711 217.022 258.525 217.022Z" fill="#F9ECB8"></path><path d="M279.947 238.431C279.947 250.245 270.338 259.854 258.524 259.854C246.711 259.854 237.102 250.245 237.102 238.431H242.953C242.953 247.014 249.942 254.003 258.525 254.003C267.108 254.003 274.096 247.014 274.096 238.431C274.096 229.848 267.108 222.86 258.525 222.86V217.022C270.338 217.022 279.947 226.631 279.947 238.431Z" fill="#E5F0F8"></path><path d="M350.282 238.431C350.282 253.157 338.343 265.082 323.631 265.082C308.919 265.082 296.98 253.157 296.98 238.431C296.98 229.612 301.265 221.792 307.879 216.953L310.971 221.168C305.661 225.078 302.208 231.36 302.208 238.431C302.208 250.245 311.817 259.854 323.631 259.854C335.445 259.854 345.054 250.245 345.054 238.431C345.054 226.631 335.445 217.022 323.631 217.022V211.794C338.343 211.794 350.282 223.719 350.282 238.431Z" fill="#BBDBF3"></path><path d="M345.041 238.431C345.041 250.245 335.432 259.854 323.618 259.854C311.804 259.854 302.195 250.245 302.195 238.431C302.195 231.359 305.648 225.078 310.959 221.168L314.411 225.869C310.556 228.711 308.047 233.287 308.047 238.431C308.047 247.014 315.035 254.003 323.618 254.003C332.202 254.003 339.19 247.014 339.19 238.431C339.19 229.848 332.201 222.86 323.618 222.86V217.022C335.432 217.022 345.041 226.631 345.041 238.431Z" fill="#E5F0F8"></path><path d="M323.635 211.794V217.022C318.906 217.022 314.525 218.561 310.975 221.168L307.883 216.953C312.292 213.708 317.742 211.794 323.635 211.794Z" fill="#F9E181"></path><path d="M323.636 217.022V222.86C320.198 222.86 317.008 223.983 314.429 225.869L310.977 221.168C314.526 218.561 318.908 217.022 323.636 217.022Z" fill="#F9ECB8"></path><path d="M276.314 205.441H240.77V207.509H276.314V205.441Z" fill="#E5F0F8"></path><path d="M341.416 205.441H305.871V207.509H341.416V205.441Z" fill="#E5F0F8"></path><path d="M159.446 238.432C159.446 253.157 147.507 265.082 132.795 265.082C118.083 265.082 106.145 253.157 106.145 238.432H111.372C111.372 250.245 120.981 259.855 132.795 259.855C144.609 259.855 154.218 250.245 154.218 238.432C154.218 226.632 144.609 217.022 132.795 217.022V211.795C147.507 211.795 159.446 223.72 159.446 238.432Z" fill="#BBDBF3"></path><path d="M132.795 211.795V217.022C120.981 217.022 111.372 226.632 111.372 238.432H106.145C106.145 223.72 118.083 211.795 132.795 211.795Z" fill="#F9E181"></path><path d="M132.782 217.022V222.86C124.199 222.86 117.211 229.848 117.211 238.431H111.359C111.359 226.631 120.969 217.022 132.782 217.022Z" fill="#F9ECB8"></path><path d="M154.205 238.431C154.205 250.245 144.596 259.854 132.782 259.854C120.969 259.854 111.359 250.245 111.359 238.431H117.211C117.211 247.014 124.199 254.003 132.782 254.003C141.366 254.003 148.354 247.014 148.354 238.431C148.354 229.848 141.366 222.86 132.782 222.86V217.022C144.596 217.022 154.205 226.631 154.205 238.431Z" fill="#E5F0F8"></path><path d="M224.547 238.432C224.547 253.157 212.608 265.082 197.897 265.082C183.185 265.082 171.246 253.157 171.246 238.432C171.246 229.613 175.531 221.792 182.145 216.953L185.237 221.169C179.926 225.079 176.473 231.36 176.473 238.432C176.473 250.246 186.083 259.855 197.896 259.855C209.71 259.855 219.32 250.246 219.32 238.432C219.32 226.632 209.71 217.023 197.896 217.023V211.795C212.609 211.795 224.547 223.72 224.547 238.432Z" fill="#BBDBF3"></path><path d="M219.307 238.432C219.307 250.246 209.698 259.855 197.884 259.855C186.07 259.855 176.461 250.246 176.461 238.432C176.461 231.36 179.914 225.079 185.224 221.168L188.677 225.869C184.822 228.712 182.312 233.287 182.312 238.432C182.312 247.015 189.301 254.003 197.884 254.003C206.467 254.003 213.456 247.015 213.456 238.432C213.456 229.849 206.467 222.86 197.884 222.86V217.022C209.698 217.022 219.307 226.632 219.307 238.432Z" fill="#E5F0F8"></path><path d="M197.9 211.795V217.023C193.172 217.023 188.79 218.562 185.241 221.169L182.148 216.953C186.558 213.708 192.007 211.795 197.9 211.795Z" fill="#F9E181"></path><path d="M197.902 217.022V222.86C194.463 222.86 191.274 223.983 188.695 225.869L185.242 221.168C188.792 218.562 193.174 217.022 197.902 217.022Z" fill="#F9ECB8"></path><path d="M150.564 205.441H115.02V207.509H150.564V205.441Z" fill="#E5F0F8"></path><path d="M215.666 205.441H180.121V207.509H215.666V205.441Z" fill="#E5F0F8"></path><path opacity="0.8" d="M253.408 285.96C253.408 285.96 254.326 267.65 232.141 265.713C209.957 263.776 188.918 257.834 185.088 239.083C181.529 221.654 163.161 210.56 148.196 222.577C133.23 234.594 142.216 248.196 129.892 251.364C117.567 254.531 105.859 235.254 90.0129 257.174C75.0228 277.91 55.0681 263.248 55.0703 285.96L253.408 285.96Z" fill="#2EC6FC"></path><path d="M172.871 285.96V284.328" stroke="white" stroke-width="0.605114" stroke-linecap="round" stroke-linejoin="round"></path><path d="M172.871 281.075V224.146" stroke="white" stroke-width="0.605114" stroke-linecap="round" stroke-linejoin="round" stroke-dasharray="3.01 3.01"></path><path d="M172.871 222.519V220.886" stroke="white" stroke-width="0.605114" stroke-linecap="round" stroke-linejoin="round"></path><path d="M193.297 285.96V284.328" stroke="white" stroke-width="0.605114" stroke-linecap="round" stroke-linejoin="round"></path><path d="M193.297 281.054V256.508" stroke="white" stroke-width="0.605114" stroke-linecap="round" stroke-linejoin="round" stroke-dasharray="3.03 3.03"></path><path d="M193.297 254.872V253.24" stroke="white" stroke-width="0.605114" stroke-linecap="round" stroke-linejoin="round"></path><path d="M213.727 285.96V284.328" stroke="white" stroke-width="0.605114" stroke-linecap="round" stroke-linejoin="round"></path><path d="M213.727 281.493V265.901" stroke="white" stroke-width="0.605114" stroke-linecap="round" stroke-linejoin="round" stroke-dasharray="2.63 2.63"></path><path d="M213.727 264.484V262.852" stroke="white" stroke-width="0.605114" stroke-linecap="round" stroke-linejoin="round"></path><path d="M234.16 285.96V284.328" stroke="white" stroke-width="0.605114" stroke-linecap="round" stroke-linejoin="round"></path><path d="M234.16 281.001V269.354" stroke="white" stroke-width="0.605114" stroke-linecap="round" stroke-linejoin="round" stroke-dasharray="3.08 3.08"></path><path d="M234.16 267.69V266.058" stroke="white" stroke-width="0.605114" stroke-linecap="round" stroke-linejoin="round"></path><path d="M152.445 285.96V284.328" stroke="white" stroke-width="0.605114" stroke-linecap="round" stroke-linejoin="round"></path><path d="M152.445 281.018V223.095" stroke="white" stroke-width="0.605114" stroke-linecap="round" stroke-linejoin="round" stroke-dasharray="3.07 3.07"></path><path d="M152.445 221.44V219.808" stroke="white" stroke-width="0.605114" stroke-linecap="round" stroke-linejoin="round"></path><path d="M132.02 285.96V284.328" stroke="white" stroke-width="0.605114" stroke-linecap="round" stroke-linejoin="round"></path><path d="M132.02 280.763V254.035" stroke="white" stroke-width="0.605114" stroke-linecap="round" stroke-linejoin="round" stroke-dasharray="3.3 3.3"></path><path d="M132.02 252.254V250.622" stroke="white" stroke-width="0.605114" stroke-linecap="round" stroke-linejoin="round"></path><path d="M111.602 285.96V284.328" stroke="white" stroke-width="0.605114" stroke-linecap="round" stroke-linejoin="round"></path><path d="M111.602 281.095V250.375" stroke="white" stroke-width="0.605114" stroke-linecap="round" stroke-linejoin="round" stroke-dasharray="3 3"></path><path d="M111.602 248.758V247.125" stroke="white" stroke-width="0.605114" stroke-linecap="round" stroke-linejoin="round"></path><path d="M91.1641 285.961V284.329" stroke="white" stroke-width="0.605114" stroke-linecap="round" stroke-linejoin="round"></path><path d="M91.1641 281.366V259.148" stroke="white" stroke-width="0.605114" stroke-linecap="round" stroke-linejoin="round" stroke-dasharray="2.75 2.75"></path><path d="M91.1641 257.667V256.035" stroke="white" stroke-width="0.605114" stroke-linecap="round" stroke-linejoin="round"></path><path d="M70.7383 285.96V284.328" stroke="white" stroke-width="0.605114" stroke-linecap="round" stroke-linejoin="round"></path><path d="M70.7383 281.76V272.771" stroke="white" stroke-width="0.605114" stroke-linecap="round" stroke-linejoin="round" stroke-dasharray="2.38 2.38"></path><path d="M70.7383 271.487V269.854" stroke="white" stroke-width="0.605114" stroke-linecap="round" stroke-linejoin="round"></path><path d="M338.575 115.999L337.695 112.329L369.36 87.332L370.24 91.0022L338.575 115.999Z" fill="#40A87B"></path><path d="M360.285 81.3038L359.405 77.6338L351.355 80.9498L360.285 81.3038Z" fill="#088CFC"></path><path d="M363.2 52.9706L362.32 49.3004L355.465 48.6836L358.46 53.0366L363.2 52.9706Z" fill="#088CFC"></path><path d="M348.575 16.6106L347.695 12.9404L357.567 18.1668L348.575 16.6106Z" fill="#0775EF"></path><path d="M385.288 12.5757L376.447 47.891C372.449 46.8793 368.339 47.4111 364.819 49.1566L348.578 16.6111C359.683 11.0728 372.665 9.40264 385.288 12.5757Z" fill="#0775EF"></path><path d="M346.959 20.4258L363.2 52.9712C359.604 54.7695 356.635 57.8503 355.047 61.8763C352.249 68.9666 354.585 76.8128 360.282 81.3046L337.728 109.876C319.772 95.687 312.362 70.8718 321.184 48.5139C326.2 35.8025 335.588 26.094 346.959 20.4258Z" fill="#088CFC"></path><path d="M397.142 17.9073C424.463 28.6889 437.919 59.6862 427.135 87.0139L393.272 73.6513C396.692 64.9841 392.44 55.1876 383.779 51.7697C383.086 51.4962 382.38 51.2729 381.676 51.0985L390.517 15.7832C392.742 16.337 394.955 17.0444 397.142 17.9073Z" fill="#DE3838"></path><path d="M392.346 79.0791L426.208 92.4417C417.411 114.734 395.158 127.795 372.426 125.99L375.314 89.6994C382.512 90.2828 389.555 86.1515 392.346 79.0791Z" fill="#F2BB16"></path><path d="M370.243 91.0019L367.355 127.292C362.225 126.891 357.066 125.725 352.036 123.74C347.073 121.781 342.56 119.151 338.578 115.999L361.133 87.4277C362.397 88.4235 363.822 89.2552 365.399 89.8774C366.988 90.5043 368.623 90.8734 370.243 91.0019Z" fill="#40A87B"></path><path d="M381.681 51.0984L380.801 47.4282L393.449 47.4516L381.681 51.0984Z" fill="#DE3838"></path><path d="M393.274 73.6514L392.395 69.9812L396.869 65.813C396.869 65.813 396.439 72.6785 396.491 72.7982C396.543 72.918 393.274 73.6514 393.274 73.6514Z" fill="#DE3838"></path><path d="M384.419 8.90479L385.299 12.575L379.688 16.7174L384.419 8.90479Z" fill="#0775EF"></path><path d="M372.431 125.99L371.551 122.32L425.333 88.7715L426.213 92.4417L372.431 125.99Z" fill="#F2BB16"></path><path d="M346.084 16.7554L362.325 49.3008C358.73 51.0991 355.76 54.1799 354.172 58.2059C351.374 65.2962 353.711 73.1424 359.408 77.6342L336.853 106.205C318.897 92.0164 311.487 67.2012 320.309 44.8433C325.325 32.1319 334.714 22.4234 346.084 16.7554Z" fill="#2EC6FC"></path><path d="M384.406 8.90511L375.564 44.2204C371.566 43.2087 367.456 43.7406 363.937 45.4861L347.695 12.9406C358.8 7.40247 371.782 5.7323 384.406 8.90511Z" fill="#088CFC"></path><path d="M396.267 14.2373C423.588 25.019 437.044 56.0163 426.26 83.344L392.398 69.9814C395.818 61.3142 391.565 51.5176 382.904 48.0998C382.211 47.8263 381.505 47.603 380.801 47.4286L389.642 12.1133C391.868 12.6671 394.08 13.3747 396.267 14.2373Z" fill="#F74242"></path><path d="M391.471 75.4092L425.333 88.7718C416.536 111.064 394.283 124.125 371.551 122.32L374.439 86.0297C381.637 86.6127 388.68 82.4815 391.471 75.4092Z" fill="#F9E181"></path><path d="M369.36 87.332L366.472 123.623C361.342 123.221 356.183 122.055 351.154 120.07C346.19 118.111 341.677 115.481 337.695 112.329L360.25 83.7578C361.514 84.7536 362.939 85.5853 364.516 86.2075C366.105 86.8344 367.74 87.2037 369.36 87.332Z" fill="#6ADB6A"></path><path d="M59.0671 109.357L57.0697 113.35H27.6055V143.623H73.7145V113.35H70.5512V109.357H59.0671Z" fill="#93ACBF"></path><path d="M61.0357 109.357L59.0385 113.35H29.5742V143.623H75.6831V113.35H72.5199V109.357H61.0357Z" fill="#BBDBF3"></path><path d="M76.1099 63.4985L74.1127 67.4919H44.6484V97.7649H90.7575V67.4919H87.5941V63.4985H76.1099Z" fill="#93ACBF"></path><path d="M78.0789 63.498L76.0817 67.4914H46.6172L46.6174 97.7644H92.7262V67.4914H89.5631V63.498H78.0789Z" fill="#BBDBF3"></path><path d="M52.4617 18.3447L50.4645 22.3381H21V52.6111H67.109V22.3381H63.9459V18.3447H52.4617Z" fill="#93ACBF"></path><path d="M54.438 18.3452L52.4408 22.3386H22.9766V52.6116H69.0856V22.3386H65.9223V18.3452H54.438Z" fill="#BBDBF3"></path><path d="M90.1074 47.2166C88.9203 44.6538 88.2578 41.8003 88.2578 38.7953C88.2578 27.7092 97.277 18.6899 108.363 18.6899C119.45 18.6899 128.469 27.7092 128.469 38.7953C128.469 41.7109 127.845 44.4838 126.724 46.9871" stroke="#E5F0F8" stroke-width="0.35068" stroke-miterlimit="10"></path><path d="M78.0625 38.7952C78.0625 43.3849 79.0879 47.7361 80.923 51.6373L87.7261 48.4514C86.3451 45.519 85.5733 42.2461 85.5733 38.7954C85.5733 32.4687 88.1657 26.7387 92.3422 22.6064L87.119 17.2183C81.5337 22.7167 78.0625 30.357 78.0625 38.7952Z" fill="#F74242"></path><path d="M108.369 8.49902C100.102 8.49902 92.6008 11.8309 87.1289 17.2182L92.3521 22.6063C96.4707 18.5312 102.13 16.0098 108.369 16.0098C114.629 16.0098 120.306 18.5473 124.428 22.6468L129.651 17.2587C124.176 11.8472 116.657 8.49902 108.369 8.49902Z" fill="#F9E181"></path><path d="M129.637 17.2583L124.414 22.6464C128.566 26.7755 131.14 32.4894 131.14 38.795C131.14 42.2457 130.369 45.5186 128.988 48.4509L135.791 51.6368C137.626 47.7359 138.651 43.3844 138.651 38.7948C138.651 30.3779 135.198 22.7539 129.637 17.2583Z" fill="#6ADB6A"></path><path d="M108.359 43.8847C105.6 43.8847 103.27 41.5538 103.27 38.795C103.27 36.0362 105.6 33.7056 108.359 33.7056C111.118 33.7056 113.449 36.0364 113.449 38.795C113.449 41.5538 111.118 43.8847 108.359 43.8847Z" fill="#93ACBF"></path><path d="M108.364 42.2756C106.444 42.2756 104.883 40.7139 104.883 38.7947C104.883 36.8754 106.444 35.314 108.364 35.314C110.283 35.314 111.844 36.8754 111.844 38.7947C111.844 40.7139 110.283 42.2756 108.364 42.2756Z" fill="#586773"></path><path d="M108.349 39.1733C108.158 39.1733 107.994 39.0299 107.973 38.8362L105.268 14.1682C105.245 13.9605 105.395 13.7735 105.603 13.7507C105.814 13.7286 105.998 13.878 106.02 14.0856L108.725 38.7536C108.748 38.9612 108.598 39.1483 108.39 39.1711C108.376 39.1725 108.362 39.1733 108.349 39.1733Z" fill="#586773"></path><path d="M108.175 31.2587C109.359 30.7723 109.925 29.4181 109.438 28.234C108.952 27.0499 107.598 26.4844 106.413 26.9708C105.229 27.4572 104.664 28.8114 105.15 29.9955C105.637 31.1796 106.991 31.7451 108.175 31.2587Z" fill="#E5F0F8"></path><path d="M108.175 31.2587C109.359 30.7723 109.925 29.4181 109.438 28.234C108.952 27.0499 107.598 26.4844 106.413 26.9708C105.229 27.4572 104.664 28.8114 105.15 29.9955C105.637 31.1796 106.991 31.7451 108.175 31.2587Z" stroke="#586773" stroke-width="0.35068" stroke-miterlimit="10"></path><path d="M169.37 81.9801L169.312 73.3457L179.444 74.8405L169.37 81.9801Z" fill="#2D628C"></path><path d="M224.188 41.0215L225.102 38.3421C225.102 38.3421 226.748 35.7806 227.239 34.7893C227.517 34.2303 228.417 32.8031 228.65 32.6259C228.834 32.4858 229.371 32.5393 229.418 32.7609C229.48 33.0488 229.025 34.6435 228.86 35.2718C228.702 35.869 228.23 37.6608 228.23 37.6608C228.23 37.6608 231.691 34.5164 232.79 33.3976C233.408 32.7679 235.136 30.8518 235.603 31.2536C235.958 31.5595 234.409 33.717 233.885 34.4602C233.404 35.1435 231.98 37.2069 231.98 37.2069C231.98 37.2069 234.395 34.6962 235.2 33.8593C235.785 33.2504 237.302 31.2155 237.837 31.6505C238.366 32.081 236.726 33.9769 236.25 34.6706C235.577 35.6497 233.56 38.5873 233.56 38.5873C233.56 38.5873 236.145 36.018 237.007 35.1616C237.484 34.6876 238.721 33.0913 239.193 33.5321C239.674 33.981 238.218 35.4278 237.798 35.9691C237.079 36.8964 234.921 39.6782 234.921 39.6782C234.921 39.6782 236.84 37.8723 237.48 37.2704C237.753 37.0132 238.592 36.2712 238.836 36.5468C239.168 36.922 238.111 38.0074 237.797 38.4097L235.198 41.7354C234.988 42.0044 234.748 42.2471 234.482 42.4579L230.082 46.8764L224.188 41.0215Z" fill="#FDAE97"></path><path d="M190.03 71.9253L224.317 93.638C225.301 94.0496 226.235 94.6227 227.069 95.3804C230.996 98.9477 231.287 105.023 227.719 108.949C224.152 112.875 218.077 113.167 214.151 109.599L174.625 88.8806L190.03 71.9253Z" fill="#0775EF"></path><path d="M230.172 103.829C230.234 103.386 230.277 102.937 230.277 102.477C230.277 97.1721 225.977 92.8716 220.672 92.8716C215.367 92.8716 211.066 97.1721 211.066 102.477L211.634 145.369H227.618L230.172 103.829Z" fill="#0775EF"></path><path d="M171.864 88.6946L193.339 114.382C197.13 118.916 203.942 119.525 208.476 115.734C213.011 111.943 213.619 105.132 209.828 100.597L188.353 74.9095C184.562 70.375 177.75 69.7667 173.216 73.5577C168.682 77.3485 168.073 84.1603 171.864 88.6946Z" fill="#088CFC"></path><path d="M189.439 30.705L199.598 35.279L198.197 76.5424L169.321 76.9897L164.945 34.5432L179.048 29.9507L189.439 30.705Z" fill="#E5F0F8"></path><path d="M189.436 24.7453V31.1894C189.436 31.1894 189.051 32.5809 185.775 32.5944C182.505 32.6012 179.047 30.4329 179.047 30.4329L180.06 16.3423L189.436 24.7453Z" fill="#FDAE97"></path><path d="M189.435 30.3053L182.742 23.3573L189.435 23.2695V30.3053Z" fill="#E89780"></path><path d="M192.176 11.783C192.176 11.783 192.176 15.7345 192.176 18.5378V20.8546C192.176 22.6853 191.663 25.4006 189.602 26.0288C187.549 26.6571 184.719 25.7991 182.746 23.6579C180.774 21.5099 176.397 11.837 182.483 8.26364C188.576 4.69031 192.034 10.8374 192.176 11.783Z" fill="#FDAE97"></path><path d="M205.957 68.2578C208.103 70.0179 211.198 69.9362 213.259 68.2008L231.321 47.2978L228.841 44.6844L224.277 39.8613L223.752 39.2993L205.151 60.243C203.165 62.6673 203.533 66.2722 205.957 68.2578Z" fill="#E7888B"></path><path d="M212.375 106.541C212.375 101.236 208.075 96.9355 202.77 96.9355C197.465 96.9355 194.553 99.1476 193.396 104.438C190.709 116.721 185.074 149.433 185.074 149.433H201.718L212.269 107.893C212.332 107.45 212.375 107.001 212.375 106.541Z" fill="#088CFC"></path><path d="M212.638 68.5199C209.46 70.3222 205.386 69.1973 203.584 66.0201L191.602 44.8982C189.8 41.721 190.925 37.6469 194.102 35.8446C197.279 34.0423 201.353 35.1672 203.155 38.3444L215.137 59.4665C216.94 62.6435 215.815 66.7177 212.638 68.5199Z" fill="#E7888B"></path><path d="M183.108 7.92863C183.108 7.92863 190.472 4.53129 192.17 6.76269C193.869 8.99409 191.039 9.77299 191.039 9.77299C191.039 9.77299 194.552 9.35816 194.415 11.7263C194.278 14.0942 185.49 10.861 185.49 10.861C185.49 10.861 188.404 12.1816 186.719 13.2289C185.034 14.2763 183.108 12.9102 183.108 12.9102C183.108 12.9102 181.437 13.8657 181.71 18.254C181.984 22.6424 179.364 23.6114 179.364 23.6114C179.364 23.6114 179.678 16.963 178.394 15.1869C177.111 13.4112 178.995 6.81766 183.108 7.92863Z" fill="#322A28"></path><path d="M182.132 19.271C182.847 20.3902 183.038 21.1778 182.159 21.739C181.28 22.3 179.819 22.1228 179.104 21.0038C178.39 19.8845 178.523 18.5225 179.401 17.9614C180.28 17.4002 181.417 18.1517 182.132 19.271Z" fill="#FDAE97"></path><path d="M179.844 19.186C179.844 19.186 180.746 19.0512 181.365 20.2079C181.365 20.2079 180.794 20.077 180.101 20.2079" stroke="#E89780" stroke-width="0.150014" stroke-miterlimit="10"></path><path d="M186.703 16.9236C186.703 17.3483 186.926 17.6925 187.201 17.6925C187.475 17.6925 187.698 17.3483 187.698 16.9236C187.698 16.4989 187.475 16.1548 187.201 16.1548C186.926 16.1548 186.703 16.4989 186.703 16.9236Z" fill="#2C3447"></path><path d="M187.027 21.7461C187.027 21.7461 187.766 23.1845 189.635 22.8472" stroke="#2C3447" stroke-width="0.187807" stroke-miterlimit="10"></path><path d="M188.81 17.2178L189.747 19.9292C189.842 20.2039 189.738 20.508 189.494 20.6665L188.73 21.1635" stroke="#2C3447" stroke-width="0.187807" stroke-miterlimit="10"></path><path d="M185.922 15.6475C185.922 15.6475 186.969 14.9149 187.968 15.3793" stroke="#2C3447" stroke-width="0.187807" stroke-miterlimit="10"></path><path d="M191.85 16.9236C191.85 17.3483 191.628 17.6925 191.353 17.6925C191.078 17.6925 190.855 17.3483 190.855 16.9236C190.855 16.4989 191.078 16.1548 191.353 16.1548C191.628 16.1548 191.85 16.4989 191.85 16.9236Z" fill="#2C3447"></path><path d="M192.298 15.6059C192.298 15.6059 191.573 14.9154 190.574 15.3799" stroke="#2C3447" stroke-width="0.187807" stroke-miterlimit="10"></path><path d="M158.677 70.9417C155.141 70.0249 152.998 66.3816 153.915 62.8458L160.011 39.3395C160.928 35.8036 164.571 33.6608 168.107 34.5778C171.643 35.4947 173.785 39.1379 172.868 42.6738L166.773 66.1801C165.856 69.716 162.213 71.8587 158.677 70.9417Z" fill="#E7888B"></path><path d="M187.489 19.7279C187.358 20.1179 186.624 20.2236 185.848 19.9639C185.072 19.7041 184.549 19.1773 184.68 18.787C184.811 18.397 185.545 18.2913 186.321 18.551C187.097 18.8108 187.619 19.3378 187.489 19.7279Z" fill="#E89780"></path><path d="M192.179 18.5381V20.0444C191.544 20.1187 191.024 19.9431 190.936 19.612C190.842 19.2203 191.396 18.7407 192.179 18.5381Z" fill="#E89780"></path><path d="M213.562 151.801L213.23 145.369H226.211L226.417 151.801H213.562Z" fill="#FDAE97"></path><path d="M226.331 149.108L213.23 145.369H226.211L226.331 149.108Z" fill="#E89780"></path><path d="M184.984 155.865L186.046 149.433H198.716L197.104 155.865H184.984Z" fill="#FDAE97"></path><path d="M187.557 33.7397H185.206L185 34.186L186.083 34.9925H187.008L187.78 34.0486L187.557 33.7397Z" fill="#F74242"></path><path d="M197.946 152.523L186.051 149.433H198.721L197.946 152.523Z" fill="#E89780"></path><path d="M179.084 29.876L186.473 32.5939L185.126 35.6783L178.758 30.5536L179.084 29.876Z" fill="white"></path><path d="M189.432 30.625L189.787 31.3479L187.871 35.387L186.473 32.5944L189.432 30.625Z" fill="white"></path><path d="M187.014 34.9927L190.514 62.1647L187.786 65.6827L184.238 62.4918L186.089 34.9927H187.014Z" fill="#F74242"></path><path d="M171.512 48.3887L167.625 64.4495" stroke="#2C3447" stroke-width="0.187807" stroke-miterlimit="10"></path><path d="M198.844 58.1393L199.175 48.3887" stroke="#2C3447" stroke-width="0.187807" stroke-miterlimit="10"></path><path d="M184.987 155.864L183.848 160.552H200.851C201.401 158.153 199.578 155.864 197.116 155.864H197.106H184.987Z" fill="#403534"></path><path d="M213.562 151.8V156.905H231.372L231.35 156.484C231.214 153.859 229.046 151.8 226.418 151.8H213.562Z" fill="#403534"></path><path d="M226.676 152.816C226.676 152.816 227.063 151.119 228.021 151.58C228.978 152.04 226.736 152.876 226.736 152.876L228.069 153.797" stroke="white" stroke-width="0.099941" stroke-miterlimit="10" stroke-linecap="round" stroke-linejoin="round"></path><path d="M226.669 152.816C226.669 152.816 226.281 151.119 225.324 151.58C224.367 152.04 226.608 152.876 226.608 152.876L225.275 153.797" stroke="white" stroke-width="0.099941" stroke-miterlimit="10" stroke-linecap="round" stroke-linejoin="round"></path><path d="M196.977 157.072C196.977 157.072 197.364 155.376 198.321 155.836C199.278 156.296 197.037 157.132 197.037 157.132L198.37 158.053" stroke="white" stroke-width="0.099941" stroke-miterlimit="10" stroke-linecap="round" stroke-linejoin="round"></path><path d="M196.977 157.072C196.977 157.072 196.589 155.376 195.632 155.836C194.675 156.296 196.916 157.132 196.916 157.132L195.584 158.053" stroke="white" stroke-width="0.099941" stroke-miterlimit="10" stroke-linecap="round" stroke-linejoin="round"></path><path d="M190.504 31.1987C190.504 31.1987 191.199 38.4654 192.324 49.4392C193.449 60.4127 193.375 77.5403 196.92 80.8271C196.92 80.8271 200.571 81.099 207.964 83.278C207.964 83.278 205.897 76.3291 203.365 72.3949C200.833 68.4607 199.593 35.2791 199.593 35.2791L190.504 31.1987Z" fill="#E7888B"></path><path d="M191.1 37.3374L191.959 45.8935L189.23 43.5684L189.428 37.5047L191.1 37.3374Z" fill="#E5F0F8"></path><path d="M176.534 30.769C176.534 30.769 179.263 42.537 180.6 53.4497C181.936 64.3624 181.483 74.9155 184.921 81.3234C184.921 81.3234 171.129 83.8044 171.161 89.3673C171.161 89.3673 167.273 85.0795 167.239 79.2063C167.206 73.3333 164.945 34.5425 164.945 34.5425L176.534 30.769Z" fill="#E7888B"></path><path d="M221.817 92.6869H190.562L198.719 69.2827H229.974L221.817 92.6869Z" fill="#A5BBD6"></path><path d="M190.9 91.5512L180.68 82.5112H210.91L222.154 91.5512H190.9Z" fill="#89A5C7"></path><path d="M221.231 92.1689H189.977L198.133 68.7646H229.388L221.231 92.1689Z" fill="#A5BBD6"></path><path d="M229.388 68.7646L229.978 69.2826H198.724L190.567 92.6868L189.977 92.1689L198.133 68.7646H229.388Z" fill="#89A5C7"></path><path d="M180.689 82.5112L180.348 83.6474L190.568 92.6873L190.964 91.5512L180.689 82.5112Z" fill="#586773"></path><path d="M211.586 82.7845C213.5 82.7845 215.051 82.0978 215.051 81.2506C215.051 80.4035 213.5 79.7168 211.586 79.7168C209.673 79.7168 208.121 80.4035 208.121 81.2506C208.121 82.0978 209.673 82.7845 211.586 82.7845Z" fill="#89A5C7"></path><path d="M187.014 75.3892L182.387 83.3389L182.413 83.355C184.535 84.473 188.988 88.7453 190.596 90.3229C190.966 90.673 191.497 90.7641 191.956 90.5464L196.326 88.518C197.015 88.2028 197.527 87.6106 197.745 86.8945L198.703 83.7966C198.792 83.4803 198.509 83.1838 198.195 83.2644L195.71 83.9601C195.354 84.0503 194.976 83.8868 194.825 83.5526L193.412 80.6212L197.438 82.9968C197.668 83.1281 197.966 83.0737 198.129 82.851L198.35 82.5334C198.513 82.3107 198.478 82.0012 198.266 81.8212L191.899 76.656L187.228 75.5464C187.228 75.5464 187.156 75.4892 187.014 75.3892Z" fill="#FDAE97"></path><path d="M154.942 61.8998C152.988 64.8451 153.525 68.6822 156.135 70.4037L182.034 85.2505L188.456 74.2103L164.449 59.3561C161.839 57.6348 156.893 58.9407 154.942 61.8998Z" fill="#E7888B"></path><path d="M182.1 70.2671L167.984 61.5333L171.048 50.3374" stroke="#322A28" stroke-width="0.258428" stroke-miterlimit="10"></path><path d="M288.747 40.7932C288.747 32.1592 281.748 25.1602 273.114 25.1602C264.48 25.1602 257.48 32.1594 257.48 40.7932C257.48 43.8529 258.373 46.698 259.892 49.1083L259.88 49.1155L273.114 70.2968L286.347 49.1155L286.336 49.1083C287.855 46.698 288.747 43.8529 288.747 40.7932Z" fill="#088CFC"></path><path d="M273.114 53.8924C265.891 53.8924 260.016 48.0159 260.016 40.7929C260.016 33.57 265.891 27.6943 273.114 27.6943C280.337 27.6943 286.213 33.5702 286.213 40.7929C286.213 48.0157 280.337 53.8924 273.114 53.8924Z" fill="white"></path><path d="M279.313 31.9634L271.428 45.5419L271.359 45.6609L267.454 39.7319L264.867 41.4375L270.15 49.4543L271.446 49.4175L272.783 49.3804L281.992 33.5186L279.313 31.9634Z" fill="#BBDBF3"></path><path d="M396.331 180.471C373.379 180.471 354.77 199.08 354.77 222.032C354.77 244.984 373.379 263.593 396.331 263.593C419.283 263.593 437.892 244.984 437.892 222.032C437.892 199.08 419.283 180.471 396.331 180.471ZM396.331 261.623C374.499 261.623 356.739 243.863 356.739 222.032C356.739 200.2 374.499 182.447 396.331 182.447C418.162 182.447 435.922 200.2 435.922 222.032C435.922 243.863 418.162 261.623 396.331 261.623Z" fill="#A0D0F3"></path><path d="M401.223 198.406L394.048 206.223L391.447 209.055V206.786C390.877 206.955 390.318 207.155 389.776 207.388C384.237 209.716 380.189 214.909 379.493 221.101L372.711 214.873L366.074 220.971C366.975 207.387 376.822 196.254 389.776 193.398C390.327 193.276 390.885 193.17 391.448 193.08V187.761L395.975 192.69L401.223 198.406Z" fill="#088CFC"></path><path d="M426.662 223.032C426.654 237.525 416.485 249.641 402.889 252.639C402.338 252.761 401.78 252.867 401.217 252.957V256.305L398.436 253.276L391.441 245.66L396.67 239.964L401.217 235.011V239.248C401.788 239.075 402.346 238.874 402.889 238.646C408.975 236.081 413.263 230.066 413.279 223.064L419.954 229.193L426.662 223.032Z" fill="#F9E181"></path><path d="M430.599 217.147L426.579 220.833V220.837L419.95 226.919L413.105 220.636L409.305 217.147H412.224C412.016 216.573 411.772 216.014 411.5 215.471C408.739 209.936 403.035 206.112 396.449 206.065L403.483 198.406L398.29 192.749C411.563 193.599 422.515 202.985 425.71 215.471C425.855 216.022 425.981 216.585 426.087 217.147H430.599Z" fill="#F74242"></path><path d="M396.236 253.351C381.433 253.304 369.124 242.655 366.512 228.595C366.409 228.04 366.323 227.482 366.248 226.919H362.059L366.004 223.3L372.708 217.147L379.383 223.273V223.277L383.353 226.919H379.836C379.966 227.49 380.131 228.049 380.323 228.595C382.44 234.657 387.908 239.158 394.493 239.87L389.175 245.66L396.236 253.351Z" fill="#6ADB6A"></path><path opacity="0.6" d="M396.339 261.622C418.203 261.622 435.927 243.897 435.927 222.033C435.927 200.169 418.203 182.444 396.339 182.444C374.474 182.444 356.75 200.169 356.75 222.033C356.75 243.897 374.474 261.622 396.339 261.622Z" fill="#CEE6F8"></path><path d="M422.394 285.933H370.298C370.298 285.933 369.789 272.222 378.734 261.626L396.343 261.619L413.958 261.626C414.742 262.553 415.453 263.506 416.1 264.472C422.818 274.521 422.394 285.933 422.394 285.933Z" fill="#088CFC"></path><path d="M416.1 264.472C416.1 264.472 392.687 264.962 383.709 272.412C377.989 277.158 375.43 282.61 374.333 285.933H370.298C370.298 285.933 369.789 272.222 378.734 261.626L396.343 261.619L413.958 261.626C414.742 262.553 415.453 263.506 416.1 264.472Z" fill="#0775EF"></path><path d="M416.911 264.47H375.745C375.386 264.47 375.094 264.178 375.094 263.818V258.794C375.094 258.434 375.385 258.143 375.745 258.143H416.911C417.271 258.143 417.562 258.434 417.562 258.794V263.818C417.562 264.178 417.271 264.47 416.911 264.47Z" fill="#2EC6FC"></path><path d="M360.659 226.015C360.659 226.015 355.942 193.196 393.027 185.33C393.027 185.33 363.602 196.61 360.659 226.015Z" fill="white"></path><path d="M431.946 216.167C431.946 216.167 436.663 248.986 399.578 256.852C399.578 256.852 429.003 245.572 431.946 216.167Z" fill="white"></path><path d="M406.504 178.982C403.581 179.281 403.339 179.523 403.041 182.445C402.742 179.523 402.5 179.281 399.578 178.982C402.5 178.684 402.742 178.442 403.041 175.52C403.339 178.442 403.581 178.684 406.504 178.982Z" fill="white"></path><path d="M404.101 194.187C398.739 194.735 398.295 195.179 397.748 200.54C397.2 195.179 396.756 194.735 391.395 194.187C396.756 193.64 397.2 193.196 397.748 187.834C398.295 193.196 398.739 193.64 404.101 194.187Z" fill="white"></path><path d="M420.457 208.165C413.802 208.845 413.25 209.396 412.571 216.052C411.891 209.396 411.34 208.845 404.684 208.165C411.34 207.485 411.891 206.934 412.571 200.278C413.251 206.934 413.802 207.485 420.457 208.165Z" fill="white"></path><path d="M420.141 176.04C416.055 176.458 415.716 176.796 415.299 180.882C414.882 176.796 414.543 176.458 410.457 176.04C414.543 175.623 414.882 175.284 415.299 171.198C415.716 175.285 416.055 175.623 420.141 176.04Z" fill="white"></path><path d="M408.146 162.025C402.671 162.584 402.218 163.038 401.659 168.512C401.1 163.037 400.646 162.584 395.172 162.025C400.647 161.466 401.1 161.013 401.659 155.538C402.218 161.013 402.671 161.466 408.146 162.025Z" fill="white"></path><path d="M418.703 191.519C415.781 191.818 415.539 192.06 415.24 194.982C414.942 192.06 414.7 191.818 411.777 191.519C414.7 191.221 414.942 190.979 415.24 188.057C415.539 190.979 415.78 191.221 418.703 191.519Z" fill="#F9E181"></path><path d="M429.371 213.923C426.449 214.221 426.207 214.463 425.908 217.386C425.61 214.463 425.368 214.221 422.445 213.923C425.368 213.624 425.61 213.382 425.908 210.46C426.207 213.382 426.449 213.624 429.371 213.923Z" fill="#F9E181"></path><path d="M436.166 199.041C429.817 199.69 429.292 200.215 428.643 206.564C427.995 200.215 427.469 199.69 421.121 199.041C427.469 198.393 427.995 197.867 428.643 191.519C429.292 197.867 429.817 198.393 436.166 199.041Z" fill="#F9E181"></path><path d="M395.172 173.032C392.249 173.331 392.007 173.573 391.709 176.495C391.41 173.573 391.168 173.331 388.246 173.032C391.168 172.734 391.41 172.492 391.709 169.569C392.007 172.492 392.249 172.734 395.172 173.032Z" fill="#F9E181"></path><path d="M284.175 178.573C286.897 180.038 290.323 179.01 291.788 176.288L302.799 155.829C304.264 153.107 303.235 149.682 300.514 148.217C297.792 146.752 294.366 147.78 292.901 150.502L281.89 170.961C280.425 173.683 281.454 177.109 284.175 178.573Z" fill="#F74242"></path><path d="M291.601 176.9C293.304 174.302 292.822 170.947 290.529 169.444L269.041 159.124C268.401 158.622 267.688 158.02 267.159 157.45C265.928 156.125 262.162 152.919 261.705 153.465C261.247 154.011 263.382 156.73 263.002 156.802C262.622 156.874 260.59 155.245 259.778 154.481C258.967 153.718 257.492 151.801 256.851 151.917C256.21 152.033 256.132 152.989 256.132 152.989C256.132 152.989 255.658 152.189 255.216 152.58C254.773 152.972 255.208 154.398 255.208 154.398C255.208 154.398 254.99 153.926 254.61 154.48C254.229 155.033 255.605 156.932 255.605 156.932C255.605 156.932 255.21 156.676 254.979 157.135C254.747 157.594 256.831 159.889 258.797 161.007C260.551 162.005 264.984 163.912 265.916 164.31L284.336 178.889C286.629 180.392 289.899 179.497 291.601 176.9Z" fill="#FDAE97"></path><path d="M312.258 130.901C312.258 130.901 315.147 133.074 314.449 137.462C313.75 141.85 313.36 144.225 316.137 144.493C318.914 144.76 324.507 143.184 324.903 146.911C325.3 150.637 322.64 153.077 326.546 153.82C330.452 154.563 330.914 159.614 330.914 159.614C330.914 159.614 316.8 168.216 303.622 159.935C290.445 151.654 304.695 146.283 304.695 146.283L312.258 130.901Z" fill="#322A28"></path><path d="M309.2 185.38C312.879 190.198 314.266 200.186 311.92 210.945C309.573 221.705 308.781 228.778 308.781 228.778C308.169 233.759 303.636 237.301 298.655 236.689C293.675 236.078 290.133 231.544 290.744 226.564L294.486 185.38H309.2Z" fill="#0775EF"></path><path d="M310.006 145.885L319.841 150.34C319.841 150.34 317.654 175.658 317.428 178.428C317.202 181.198 318.05 185.38 318.05 185.38H294.48C294.48 185.38 294.763 171.815 293.18 168.028C292.108 165.462 291.371 163.902 291.993 160.962C292.615 158.023 297.164 152.827 296.43 147.74L301.56 146.097L310.006 145.885Z" fill="#E5F0F8"></path><path d="M322.412 183.64C325.451 183.075 327.475 180.126 326.91 177.087L322.661 154.245C322.096 151.206 319.147 149.182 316.108 149.748C313.069 150.313 311.045 153.262 311.61 156.301L315.859 179.143C316.425 182.182 319.374 184.206 322.412 183.64Z" fill="#F74242"></path><path d="M299.897 130.979C299.897 130.979 298.43 127.742 301.605 126.62L299.897 130.979Z" fill="#332B27"></path><path d="M310.054 145.885L310.047 145.891C309.942 146.076 308.158 149.083 304.781 148.831C301.795 148.607 301.57 146.096 301.57 146.096V134.659H308.838L310.054 145.885Z" fill="#FDAE97"></path><path d="M301.566 144.793L306.636 139.279L301.562 141.185L301.566 144.793Z" fill="#E89780"></path><path d="M306.468 140.015C304.154 141.505 301.359 141.613 299.629 140.545C297.897 139.484 298.072 136.876 298.51 135.206C298.511 135.2 298.511 135.2 298.512 135.194C298.604 134.848 298.733 134.363 298.878 133.813C299.438 131.657 300.267 128.464 300.267 128.464C300.618 126.78 305.246 122.84 309.961 127.554C314.674 132.274 308.781 138.525 306.468 140.015Z" fill="#FDAE97"></path><path d="M300.402 127.784C300.402 127.784 300.543 129.779 303.395 131.004C306.247 132.229 308.984 134.166 308.766 137.13C308.547 140.095 309.624 141.72 309.624 141.72C309.624 141.72 309.896 138.026 311.628 134.838C312.3 133.602 312.83 131.028 311.549 128.878C309.526 125.485 304.555 123.043 300.402 127.784Z" fill="#322A28"></path><path d="M308.262 136.515C307.695 137.428 307.549 138.068 308.266 138.513C308.983 138.958 310.164 138.799 310.731 137.886C311.298 136.973 311.176 135.871 310.459 135.426C309.742 134.981 308.829 135.601 308.262 136.515Z" fill="#FDAE97"></path><path d="M309.856 137.117C309.258 136.854 308.758 137.131 308.758 137.131C309.123 136.1 310.358 136.462 310.358 136.462" stroke="#E89780" stroke-width="0.123736" stroke-miterlimit="10" stroke-linecap="round" stroke-linejoin="round"></path><path d="M303.978 133.963C303.882 134.367 303.593 134.645 303.332 134.583C303.07 134.521 302.935 134.143 303.031 133.739C303.126 133.335 303.415 133.057 303.677 133.119C303.938 133.181 304.073 133.558 303.978 133.963Z" fill="#332B27"></path><path d="M300.607 132.834C300.511 133.238 300.222 133.515 299.96 133.454C299.699 133.392 299.564 133.014 299.66 132.61C299.755 132.206 300.044 131.928 300.306 131.99C300.567 132.052 300.702 132.429 300.607 132.834Z" fill="#332B27"></path><path d="M287.703 265.896H306.209L308.921 228.714L308.991 227.64C308.991 222.539 304.788 218.426 299.651 218.581C295.02 218.714 291.139 222.482 290.865 227.114L287.703 265.896Z" fill="#0775EF"></path><path d="M305.102 133.367C305.102 133.367 304.528 132.168 303.496 132.309" stroke="#332B27" stroke-width="0.183701" stroke-miterlimit="10"></path><path d="M300.846 131.494C300.846 131.494 300.282 131.245 299.504 131.736" stroke="#332B27" stroke-width="0.183701" stroke-miterlimit="10"></path><path d="M310.984 265.896H330.891L326.976 227.172L326.962 227.004C326.635 222.296 322.652 218.577 317.794 218.577C312.716 218.577 308.605 222.632 308.605 227.643C308.605 227.923 308.62 228.197 308.648 228.464L310.984 265.896Z" fill="#088CFC"></path><path d="M301.819 133.179C301.819 133.179 301.3 135.171 300.066 135.139C300.066 135.139 300.36 135.567 300.796 135.818" stroke="#332B27" stroke-width="0.183701" stroke-miterlimit="10"></path><path d="M318.051 185.38C322.72 189.247 325.907 197.497 326.041 208.509C326.176 219.52 326.995 226.59 326.995 226.59C327.519 231.581 323.899 236.052 318.908 236.576C313.918 237.101 309.447 233.48 308.922 228.49L301.871 185.38H318.051Z" fill="#088CFC"></path><path d="M310.725 146.21C310.725 146.21 304.955 153.901 303.847 162.021C302.739 170.142 306.322 179.169 307.286 187.838C308.25 196.506 313.073 232.224 313.073 232.224H329.119C329.119 232.224 329.919 208.392 327.047 198.667C324.175 188.941 319.844 150.34 319.844 150.34L310.725 146.21Z" fill="#F74242"></path><path d="M300.195 137.44C300.195 137.44 301.372 138.299 302.651 137.08" stroke="#332B27" stroke-width="0.183701" stroke-miterlimit="10"></path><path d="M305.759 135.724C305.788 136.156 305.125 136.552 304.278 136.609C303.431 136.666 302.721 136.362 302.692 135.93C302.663 135.498 303.326 135.102 304.173 135.045C305.02 134.988 305.73 135.292 305.759 135.724Z" fill="#E89780"></path><path d="M299.403 134.953C299.275 135.189 298.932 135.267 298.516 135.194C298.607 134.848 298.737 134.363 298.881 133.813C299.342 134.201 299.571 134.659 299.403 134.953Z" fill="#E89780"></path><path d="M307.3 214.914C306.82 214.569 307.495 213.93 307.495 213.93C307.495 213.93 306.545 214.066 306.29 213.467C306.035 212.868 307.576 211.004 308.14 210.043C308.705 209.082 309.842 206.739 309.688 206.385C309.534 206.03 307.356 208.716 306.722 208.391C306.088 208.066 308.378 203.681 309.397 202.187C309.836 201.545 310.264 200.717 310.611 199.981L315.903 176.738C316.86 174.169 320.024 172.953 322.935 174.037C325.846 175.121 327.444 178.11 326.488 180.679L316.362 201.876C316.181 202.873 315.305 207.619 314.722 209.551C314.068 211.716 312.293 214.257 311.794 214.133C311.295 214.01 311.457 213.568 311.457 213.568C311.457 213.568 309.911 215.331 309.287 215.083C308.663 214.835 309.075 214.517 309.075 214.517C309.075 214.517 307.78 215.259 307.3 214.914Z" fill="#FDAE97"></path><path d="M315.657 131.796C317.054 130.775 316.949 128.253 315.422 126.164C313.895 124.075 311.524 123.209 310.127 124.23C308.73 125.251 308.836 127.773 310.363 129.862C311.89 131.951 314.26 132.817 315.657 131.796Z" fill="#322A28"></path><path d="M307.931 138.525C307.847 138.897 308.081 139.267 308.453 139.351C308.826 139.435 309.196 139.201 309.28 138.829C309.364 138.457 309.13 138.087 308.757 138.003C308.385 137.919 308.015 138.153 307.931 138.525Z" stroke="white" stroke-width="0.162593" stroke-miterlimit="10"></path><path d="M311.344 285.933H328.045L327.968 284.319L327.715 279.217L327.807 265.896H315.707L318.789 279.217L311.344 285.933Z" fill="#FDAE97"></path><path d="M282.988 285.933H300.619L300.644 284.319L300.974 279.217L302.37 265.896H290.123L290.434 279.217L284.778 284.319L282.988 285.933Z" fill="#FDAE97"></path><path d="M328.046 285.934H311.344C311.381 285.284 311.502 284.652 311.706 284.058C312.663 281.233 315.329 279.218 318.45 279.218H327.711L327.962 284.058L327.971 284.318L328.046 285.934Z" fill="#322A28"></path><path d="M300.974 279.218L300.69 284.058L300.644 284.318L300.611 285.934H282.98L283.055 285.488C283.138 284.986 283.259 284.513 283.436 284.058C283.881 282.85 284.634 281.809 285.59 281.001C286.9 279.887 288.6 279.218 290.43 279.218H300.974Z" fill="#322A28"></path><path d="M318.207 281.197H315.191" stroke="white" stroke-width="0.162593" stroke-miterlimit="10"></path><path d="M317.239 282.369H314.223" stroke="white" stroke-width="0.162593" stroke-miterlimit="10"></path><path d="M289.277 281.197H286.262" stroke="white" stroke-width="0.162593" stroke-miterlimit="10"></path><path d="M288.325 282.369H285.309" stroke="white" stroke-width="0.162593" stroke-miterlimit="10"></path><path d="M324.469 283.255C325.174 283.255 325.746 282.683 325.746 281.978C325.746 281.273 325.174 280.701 324.469 280.701C323.763 280.701 323.191 281.273 323.191 281.978C323.191 282.683 323.763 283.255 324.469 283.255Z" fill="white"></path><path d="M294.867 281.978C294.867 282.683 295.439 283.255 296.144 283.255C296.85 283.255 297.422 282.683 297.422 281.978C297.422 281.273 296.85 280.701 296.144 280.701C295.439 280.7 294.867 281.272 294.867 281.978Z" fill="white"></path><path d="M300.391 146.469C300.391 146.469 297.859 152.669 297.444 161.437C297.029 170.204 293.271 232.223 293.271 232.223H285.602C285.602 232.223 294.099 177.656 292.996 172.083C291.893 166.509 289.681 163.253 290.662 159.808C291.643 156.364 296.421 147.741 296.421 147.741L300.391 146.469Z" fill="#F74242"></path><path d="M293.465 168.908C293.465 168.908 291.737 165.125 291.79 162.281C291.844 159.437 293.789 156.958 293.789 156.958" stroke="white" stroke-width="0.247492" stroke-miterlimit="10"></path><path d="M300.69 284.057L300.611 285.934H282.98L283.055 285.488C283.138 284.986 283.259 284.512 283.436 284.057H300.69Z" fill="white"></path><path d="M328.046 285.934H311.344C311.381 285.283 311.502 284.652 311.706 284.057H327.962L327.971 284.317L328.046 285.934Z" fill="white"></path><path d="M316.607 269.783L327.802 266.723L327.807 265.896H315.707L316.607 269.783Z" fill="#E89780"></path><path d="M290.212 269.783L302.368 266.958V265.896H290.121L290.212 269.783Z" fill="#E89780"></path><path d="M269.155 158.415L263.895 167.433C263.895 167.433 279.463 182.497 287.269 179.942C295.075 177.387 293.062 169.478 289.351 167.681C285.641 165.883 269.155 158.415 269.155 158.415Z" fill="#F74242"></path><path d="M309.309 199.231L318.043 202.434C318.043 202.434 326.981 184.589 326.958 179.619C326.934 174.648 324.302 174.164 322.282 173.64C320.263 173.117 316.693 173.539 315.66 176.404C314.627 179.27 309.309 199.231 309.309 199.231Z" fill="#F74242"></path><path d="M311.775 162.713L314.664 179.618L309.949 196.784" stroke="white" stroke-width="0.247492" stroke-miterlimit="10"></path><path d="M321.848 194.373L324.779 187.42" stroke="white" stroke-width="0.247492" stroke-miterlimit="10"></path></svg>