<svg xmlns="http://www.w3.org/2000/svg" width="192" height="227" viewBox="0 0 192 227" fill="none"><path d="M14.0107 73.8239C17.6865 73.8239 20.8262 75.1301 23.4541 77.7575C26.082 80.3851 27.3887 83.5228 27.3887 87.1989V145.695C27.3886 149.472 26.0973 152.651 23.5186 155.276C20.9367 157.899 17.7773 159.208 14.0107 159.208C10.2411 159.208 7.05968 157.898 4.43457 155.273C1.80916 152.648 0.500085 149.469 0.5 145.695V87.1989C0.5 83.5232 1.80699 80.3851 4.43457 77.7575C7.05959 75.1326 10.2412 73.8239 14.0107 73.8239Z" fill="url(#paint0_linear_2288_218509)" stroke="white"></path><path d="M134.216 0.546875C134.511 0.458175 134.896 0.485763 135.405 0.71875C135.859 0.989406 136.066 1.2734 136.136 1.55078C136.208 1.83946 136.158 2.22896 135.875 2.75586L126.217 20.5742L125.973 21.0225L126.427 21.2568C136.053 26.2129 143.743 33.1101 149.499 41.9678C155.159 50.6863 158.031 60.1932 158.121 70.5137H33.2979C33.3877 60.1908 36.2596 50.6842 41.9199 41.9678C47.6743 33.1115 55.4073 26.2141 65.126 21.2578L65.583 21.0244L65.3389 20.5742L55.6797 2.75586C55.3952 2.22842 55.3452 1.83955 55.417 1.55176C55.4863 1.27475 55.6941 0.989542 56.1514 0.716797C56.6586 0.485898 57.043 0.45926 57.3379 0.547852C57.5977 0.625974 57.8576 0.814588 58.1035 1.17578L58.208 1.34082L67.9941 19.2881L68.2148 19.6914L68.6357 19.5059C77.1855 15.7248 86.2319 13.8291 95.7773 13.8291C105.321 13.8291 114.367 15.7243 122.92 19.5059L123.341 19.6914L123.562 19.2881L133.355 1.32715C133.628 0.865487 133.922 0.635355 134.216 0.546875ZM67.0703 37.1855C65.4848 37.1856 64.1291 37.762 63.0371 38.9033H63.0361C61.95 40.0412 61.4023 41.4109 61.4023 42.9893C61.4024 44.5716 61.9506 45.937 63.0361 47.0723V47.0732C64.1283 48.2201 65.4816 48.7968 67.0703 48.7969C68.6556 48.7969 70.0303 48.2214 71.167 47.082C72.2979 45.9484 72.8757 44.5774 72.8789 42.9902V42.9893C72.8789 41.4029 72.2995 40.0344 71.167 38.8965L71.166 38.8945L70.9502 38.6885C69.8571 37.6912 68.5563 37.1855 67.0703 37.1855ZM124.479 37.1855C122.891 37.1855 121.518 37.7612 120.383 38.8955C119.247 40.0319 118.671 41.4038 118.671 42.9893C118.671 44.5792 119.247 45.948 120.383 47.082C121.518 48.2214 122.891 48.7969 124.479 48.7969C125.964 48.7969 127.248 48.2901 128.305 47.2822L128.513 47.0742C129.6 45.9385 130.146 44.5695 130.146 42.9893C130.146 41.4109 129.6 40.0443 128.514 38.9043L128.512 38.9033L128.304 38.6953C127.248 37.6923 125.966 37.1856 124.479 37.1855Z" fill="url(#paint1_linear_2288_218509)" stroke="white"></path><path d="M58.9912 212.353L58.8535 181.469L58.8516 180.971H48.2861C44.2434 180.971 40.8361 179.571 38.0283 176.766H38.0273C35.2229 173.961 33.8243 170.554 33.8242 166.509V76.4062H157.7V166.512C157.7 170.557 156.3 173.963 153.495 176.769C150.682 179.576 147.32 180.974 143.373 180.974H132.67V212.354C132.67 216.124 131.362 219.308 128.736 221.934C126.111 224.559 122.926 225.868 119.159 225.868C115.389 225.868 112.208 224.559 109.583 221.934C106.958 219.308 105.649 216.124 105.649 212.354V180.974H85.877V212.354C85.877 216.124 84.5678 219.308 81.9424 221.934C79.3169 224.559 76.1334 225.868 72.3662 225.868C68.693 225.868 65.5532 224.561 62.9258 221.934C60.3007 219.308 58.9912 216.124 58.9912 212.354V212.353Z" fill="url(#paint2_linear_2288_218509)" stroke="white"></path><path d="M177.523 73.8239C181.293 73.8239 184.478 75.1145 187.103 77.6931C189.725 80.2745 191.034 83.4343 191.034 87.1989V145.695C191.034 149.469 189.725 152.648 187.1 155.273C184.474 157.899 181.291 159.208 177.523 159.208C173.85 159.208 170.71 157.901 168.082 155.273C165.457 152.648 164.149 149.469 164.148 145.695V87.1989C164.148 83.4347 165.458 80.2746 168.08 77.6931L168.079 77.6921C170.707 75.1112 173.845 73.824 177.523 73.8239Z" fill="url(#paint3_linear_2288_218509)" stroke="white"></path><defs><linearGradient id="paint0_linear_2288_218509" x1="2.66601" y1="141.9" x2="35.3344" y2="134.237" gradientUnits="userSpaceOnUse"><stop stop-color="#42E8E0"></stop><stop offset="0.0047" stop-color="#42E6DF"></stop><stop offset="0.1358" stop-color="#40B6CB"></stop><stop offset="0.2707" stop-color="#3E8DB9"></stop><stop offset="0.4074" stop-color="#3C6BAA"></stop><stop offset="0.5467" stop-color="#3B519F"></stop><stop offset="0.6893" stop-color="#3A3F97"></stop><stop offset="0.8375" stop-color="#393493"></stop><stop offset="1" stop-color="#393091"></stop></linearGradient><linearGradient id="paint1_linear_2288_218509" x1="44.822" y1="56.3744" x2="103.337" y2="-18.963" gradientUnits="userSpaceOnUse"><stop stop-color="#42E8E0"></stop><stop offset="0.0047" stop-color="#42E6DF"></stop><stop offset="0.1358" stop-color="#40B6CB"></stop><stop offset="0.2707" stop-color="#3E8DB9"></stop><stop offset="0.4074" stop-color="#3C6BAA"></stop><stop offset="0.5467" stop-color="#3B519F"></stop><stop offset="0.6893" stop-color="#3A3F97"></stop><stop offset="0.8375" stop-color="#393493"></stop><stop offset="1" stop-color="#393091"></stop></linearGradient><linearGradient id="paint2_linear_2288_218509" x1="45.2619" y1="195.35" x2="158.435" y2="127.102" gradientUnits="userSpaceOnUse"><stop stop-color="#42E8E0"></stop><stop offset="0.0047" stop-color="#42E6DF"></stop><stop offset="0.1358" stop-color="#40B6CB"></stop><stop offset="0.2707" stop-color="#3E8DB9"></stop><stop offset="0.4074" stop-color="#3C6BAA"></stop><stop offset="0.5467" stop-color="#3B519F"></stop><stop offset="0.6893" stop-color="#3A3F97"></stop><stop offset="0.8375" stop-color="#393493"></stop><stop offset="1" stop-color="#393091"></stop></linearGradient><linearGradient id="paint3_linear_2288_218509" x1="166.314" y1="141.9" x2="198.98" y2="134.238" gradientUnits="userSpaceOnUse"><stop stop-color="#42E8E0"></stop><stop offset="0.0047" stop-color="#42E6DF"></stop><stop offset="0.1358" stop-color="#40B6CB"></stop><stop offset="0.2707" stop-color="#3E8DB9"></stop><stop offset="0.4074" stop-color="#3C6BAA"></stop><stop offset="0.5467" stop-color="#3B519F"></stop><stop offset="0.6893" stop-color="#3A3F97"></stop><stop offset="0.8375" stop-color="#393493"></stop><stop offset="1" stop-color="#393091"></stop></linearGradient></defs></svg>