<svg xmlns="http://www.w3.org/2000/svg" width="500" height="300" viewBox="0 0 500 300" fill="none"><rect width="500" height="300" rx="24" fill="white"></rect><path d="M391.829 208.197C392.073 163.018 328.832 126.051 250.577 125.628C172.322 125.205 108.686 161.487 108.442 206.666C108.198 251.845 171.438 288.812 249.694 289.235C327.949 289.657 391.585 253.375 391.829 208.197Z" fill="#EAEFFC"></path><path d="M318.975 53.9316L247.329 10.2344C246.854 9.96061 246.425 9.93486 246.116 10.1145L242.406 12.2704C242.715 12.0908 243.144 12.1166 243.619 12.3904L317.193 54.9252C318.127 55.4647 318.885 56.7761 318.881 57.8497L318.641 223.367C318.64 223.9 318.451 224.275 318.146 224.452L319.93 223.459C320.234 223.282 320.422 222.906 320.424 222.373L320.664 56.8561C320.667 55.7825 319.91 54.4711 318.975 53.9316Z" fill="#E6E6E6"></path><path d="M318.898 57.8368L318.877 66.5338L318.656 223.353C318.656 224.427 317.898 224.858 316.961 224.322L243.39 181.788C242.443 181.24 241.685 179.935 241.695 178.861L241.906 22.0423L241.927 13.3453C241.938 12.2711 242.696 11.84 243.633 12.3768L317.213 54.9102C318.139 55.4572 318.898 56.7625 318.898 57.8368Z" fill="#BFBFBF"></path><path d="M316.825 58.1391L316.804 66.5284L316.591 220.662C316.591 221.697 315.86 222.114 314.955 221.596L245.401 181.381C244.487 180.853 243.756 179.594 243.766 178.557L243.969 24.424L243.989 16.0347C244 14.9991 244.731 14.5823 245.635 15.1008L315.199 55.3149C316.093 55.8442 316.825 57.1035 316.825 58.1391Z" fill="#1F2125"></path><path d="M318.894 57.8368L318.873 66.5338L241.902 22.0423L241.923 13.3453C241.934 12.2711 242.692 11.84 243.629 12.3768L317.209 54.9102C318.136 55.4572 318.894 56.7625 318.894 57.8368Z" fill="#BFBFBF"></path><path d="M253.756 39.845L250.595 38.0205C250.088 37.727 249.676 36.9402 249.676 36.2631C249.676 35.586 250.088 35.2742 250.595 35.5677L253.756 37.3922C254.264 37.6857 254.676 38.4726 254.676 39.1496C254.676 39.8267 254.264 40.1378 253.756 39.845Z" fill="#006EFF"></path><path d="M253.756 82.8536L250.595 81.029C250.088 80.7356 249.676 79.9487 249.676 79.2716C249.676 78.5945 250.088 78.2828 250.595 78.5762L253.756 80.4008C254.264 80.6942 254.676 81.4811 254.676 82.1582C254.676 82.836 254.264 83.147 253.756 82.8536Z" fill="#006EFF"></path><path d="M262.646 87.9883L256.318 84.3345C255.811 84.041 255.398 83.2541 255.398 82.5771C255.398 81.9 255.811 81.5889 256.318 81.8817L262.646 85.5355C263.154 85.8289 263.566 86.6158 263.566 87.2929C263.566 87.97 263.154 88.2817 262.646 87.9883Z" fill="#B3D4FF"></path><path d="M285.473 101.166L265.252 89.4908C264.743 89.198 264.332 88.4112 264.332 87.7334C264.332 87.0563 264.744 86.7446 265.252 87.038L285.473 98.7131C285.982 99.0066 286.393 99.7934 286.393 100.471C286.393 101.148 285.982 101.459 285.473 101.166Z" fill="#FFAD66"></path><path d="M266.24 47.051L256.654 41.5171C256.146 41.2236 255.734 40.4367 255.734 39.7597C255.734 39.0826 256.146 38.7708 256.654 39.0643L266.24 44.5982C266.748 44.8916 267.159 45.6785 267.159 46.3556C267.16 47.0327 266.748 47.3438 266.24 47.051Z" fill="#B3D4FF"></path><path d="M297.991 65.385L269.17 48.7447C268.662 48.4512 268.25 47.665 268.25 46.9873C268.25 46.3102 268.662 45.9984 269.17 46.2919L297.991 62.9322C298.5 63.2257 298.911 64.0126 298.911 64.6896C298.911 65.3667 298.5 65.6778 297.991 65.385Z" fill="#FFAD66"></path><path d="M256.732 45.7679L253.572 43.9434C253.064 43.6499 252.652 42.8631 252.652 42.186C252.652 41.5089 253.064 41.1971 253.572 41.4906L256.732 43.3151C257.24 43.6086 257.652 44.3955 257.652 45.0726C257.652 45.7503 257.241 46.0614 256.732 45.7679Z" fill="#006EFF"></path><path d="M269.216 52.9739L259.631 47.44C259.122 47.1465 258.711 46.3596 258.711 45.6826C258.711 45.0055 259.122 44.6937 259.631 44.9872L269.216 50.5211C269.724 50.8146 270.136 51.6014 270.136 52.2785C270.136 52.9563 269.724 53.2674 269.216 52.9739Z" fill="#B3D4FF"></path><path d="M300.968 71.3079L272.146 54.6676C271.638 54.3741 271.227 53.5872 271.227 52.9102C271.227 52.2331 271.639 51.9213 272.146 52.2148L300.968 68.8551C301.476 69.1486 301.888 69.9355 301.888 70.6126C301.888 71.2903 301.476 71.6014 300.968 71.3079Z" fill="#FFAD66"></path><path d="M256.732 50.3232L253.572 48.4986C253.064 48.2052 252.652 47.4183 252.652 46.7412C252.652 46.0641 253.064 45.7524 253.572 46.0458L256.732 47.8704C257.24 48.1638 257.652 48.9507 257.652 49.6278C257.652 50.3049 257.241 50.6166 256.732 50.3232Z" fill="#006EFF"></path><path d="M256.732 54.6446L253.572 52.8201C253.064 52.5266 252.652 51.7397 252.652 51.0626C252.652 50.3856 253.064 50.0738 253.572 50.3673L256.732 52.1918C257.24 52.4852 257.652 53.2721 257.652 53.9492C257.652 54.6263 257.241 54.9381 256.732 54.6446Z" fill="#006EFF"></path><path d="M256.732 72.0759L253.572 70.2513C253.064 69.9579 252.652 69.171 252.652 68.4939C252.652 67.8168 253.064 67.5051 253.572 67.7985L256.732 69.6231C257.24 69.9165 257.652 70.7034 257.652 71.3805C257.652 72.0576 257.241 72.3687 256.732 72.0759Z" fill="#006EFF"></path><path d="M256.732 76.3193L253.572 74.4947C253.064 74.2013 252.652 73.4144 252.652 72.7373C252.652 72.0602 253.064 71.7485 253.572 72.0419L256.732 73.8665C257.24 74.1599 257.652 74.9468 257.652 75.6239C257.652 76.301 257.241 76.6121 256.732 76.3193Z" fill="#006EFF"></path><path d="M256.732 88.4268L253.572 86.6022C253.064 86.3088 252.652 85.5219 252.652 84.8448C252.652 84.1677 253.064 83.8559 253.572 84.1494L256.732 85.9739C257.24 86.2674 257.652 87.0543 257.652 87.7314C257.652 88.4085 257.241 88.7195 256.732 88.4268Z" fill="#006EFF"></path><path d="M265.37 93.4144L259.22 89.8636C258.713 89.5702 258.301 88.7833 258.301 88.1062C258.301 87.4291 258.713 87.1174 259.22 87.4108L265.37 90.9616C265.879 91.2551 266.29 92.042 266.29 92.719C266.29 93.3961 265.879 93.7072 265.37 93.4144Z" fill="#B3D4FF"></path><path d="M289.212 107.18L268.189 95.0417C267.681 94.7489 267.27 93.9621 267.27 93.2843C267.27 92.6072 267.681 92.2955 268.189 92.5889L289.212 104.726C289.72 105.02 290.132 105.807 290.132 106.484C290.132 107.161 289.72 107.473 289.212 107.18Z" fill="#FFAD66"></path><path d="M300.475 101.573L297.314 99.748C296.807 99.4552 296.395 98.6684 296.395 97.9906C296.395 97.3135 296.807 97.0018 297.314 97.2952L300.475 99.1198C300.982 99.4132 301.394 100.2 301.394 100.877C301.394 101.554 300.982 101.866 300.475 101.573Z" fill="#006EFF"></path><path d="M254.951 57.441L251.791 55.6164C251.283 55.323 250.871 54.5361 250.871 53.859C250.871 53.1819 251.283 52.8702 251.791 53.1636L254.951 54.9882C255.459 55.2816 255.871 56.0685 255.871 56.7456C255.871 57.4227 255.46 57.7344 254.951 57.441Z" fill="#006EFF"></path><path d="M263.691 62.4876L257.642 58.9958C257.134 58.7023 256.723 57.9154 256.723 57.2384C256.723 56.5613 257.134 56.2495 257.642 56.543L263.691 60.0348C264.199 60.3283 264.61 61.1145 264.61 61.7922C264.61 62.4693 264.199 62.7804 263.691 62.4876Z" fill="#B3D4FF"></path><path d="M296.21 81.2622L291.943 78.7985C291.436 78.505 291.023 77.7182 291.023 77.0411C291.023 76.364 291.436 76.0522 291.943 76.3457L296.21 78.8094C296.718 79.1028 297.13 79.8897 297.13 80.5668C297.13 81.2439 296.719 81.555 296.21 81.2622Z" fill="#B3D4FF"></path><path d="M276.263 69.7444L266.424 64.0634C265.916 63.7699 265.504 62.9831 265.504 62.306C265.504 61.6289 265.916 61.3171 266.424 61.6106L276.263 67.2916C276.772 67.585 277.183 68.3719 277.183 69.049C277.183 69.7268 276.772 70.0378 276.263 69.7444Z" fill="#FFAD66"></path><path d="M254.951 62.1711L251.791 60.3466C251.283 60.0531 250.871 59.2662 250.871 58.5891C250.871 57.912 251.283 57.6003 251.791 57.8937L254.951 59.7183C255.459 60.0117 255.871 60.7986 255.871 61.4757C255.871 62.1528 255.46 62.4646 254.951 62.1711Z" fill="#006EFF"></path><path d="M254.951 79.4275L251.791 77.603C251.283 77.3095 250.871 76.5226 250.871 75.8455C250.871 75.1684 251.283 74.8567 251.791 75.1501L254.951 76.9747C255.459 77.2681 255.871 78.055 255.871 78.7321C255.871 79.4092 255.46 79.7203 254.951 79.4275Z" fill="#006EFF"></path><path d="M263.691 67.2176L257.642 63.7252C257.134 63.4317 256.723 62.6448 256.723 61.9677C256.723 61.2906 257.134 60.9789 257.642 61.2723L263.691 64.7642C264.199 65.0576 264.61 65.8445 264.61 66.5216C264.61 67.1994 264.199 67.5104 263.691 67.2176Z" fill="#B3D4FF"></path><path d="M263.691 80.3371L259.678 78.0205C259.17 77.7277 258.758 76.9408 258.758 76.2631C258.758 75.586 259.17 75.2742 259.678 75.5677L263.691 77.8843C264.199 78.1777 264.61 78.9639 264.61 79.6417C264.61 80.3195 264.199 80.6305 263.691 80.3371Z" fill="#B3D4FF"></path><path d="M280.866 90.2533L276.853 87.9368C276.346 87.6433 275.934 86.8564 275.934 86.1793C275.934 85.5023 276.346 85.1905 276.853 85.484L280.866 87.8005C281.374 88.094 281.786 88.8802 281.786 89.558C281.786 90.2357 281.374 90.5468 280.866 90.2533Z" fill="#B3D4FF"></path><path d="M308.336 97.8096L255.049 67.0441C254.54 66.7507 254.129 65.9638 254.129 65.2867C254.129 64.6096 254.54 64.2985 255.049 64.5913L308.336 95.3568C308.844 95.6503 309.256 96.4372 309.256 97.1143C309.256 97.792 308.844 98.1031 308.336 97.8096Z" fill="#F2F2F2"></path><path d="M274.024 73.1819L266.424 68.7935C265.916 68.5 265.504 67.7131 265.504 67.036C265.504 66.3589 265.916 66.0472 266.424 66.3406L274.024 70.7291C274.532 71.0226 274.944 71.8095 274.944 72.4866C274.944 73.1636 274.532 73.4747 274.024 73.1819Z" fill="#FFAD66"></path><path d="M274.024 86.3013L266.424 81.9128C265.916 81.6194 265.504 80.8332 265.504 80.1554C265.504 79.4783 265.916 79.1666 266.424 79.46L274.024 83.8485C274.532 84.142 274.944 84.9289 274.944 85.6059C274.944 86.2837 274.532 86.5948 274.024 86.3013Z" fill="#FFAD66"></path><path d="M294.482 98.1133L283.752 91.9179C283.244 91.6244 282.832 90.8376 282.832 90.1605C282.832 89.4834 283.244 89.1716 283.752 89.4651L294.482 95.6605C294.99 95.954 295.402 96.7408 295.402 97.4179C295.402 98.095 294.99 98.4061 294.482 98.1133Z" fill="#F2F2F2"></path><path d="M289.314 77.2811L279.474 71.6001C278.967 71.3066 278.555 70.5197 278.555 69.8427C278.555 69.1656 278.967 68.8538 279.474 69.1473L289.314 74.8283C289.822 75.1217 290.234 75.9086 290.234 76.5857C290.234 77.2628 289.822 77.5739 289.314 77.2811Z" fill="#F2F2F2"></path><path d="M269.216 57.5291L259.631 51.9952C259.122 51.7018 258.711 50.9149 258.711 50.2378C258.711 49.5607 259.122 49.249 259.631 49.5424L269.216 55.0763C269.724 55.3698 270.136 56.1567 270.136 56.8338C270.136 57.5108 269.724 57.8219 269.216 57.5291Z" fill="#B3D4FF"></path><path d="M289.822 69.4285L280.236 63.8946C279.728 63.6012 279.316 62.8143 279.316 62.1372C279.316 61.4601 279.728 61.1484 280.236 61.4418L289.822 66.9757C290.33 67.2692 290.741 68.0554 290.741 68.7332C290.741 69.4102 290.329 69.722 289.822 69.4285Z" fill="#B3D4FF"></path><path d="M276.999 62.024L272.146 59.2222C271.638 58.9287 271.227 58.1425 271.227 57.4647C271.227 56.7877 271.639 56.4759 272.146 56.7694L276.999 59.5712C277.507 59.8647 277.919 60.6516 277.919 61.3286C277.919 62.0064 277.507 62.3175 276.999 62.024Z" fill="#FFAD66"></path><path d="M308.715 80.3364L293.06 71.2985C292.553 71.005 292.141 70.2181 292.141 69.541C292.141 68.8639 292.553 68.5522 293.06 68.8456L308.715 77.8836C309.223 78.1764 309.634 78.9632 309.634 79.641C309.634 80.3181 309.222 80.6298 308.715 80.3364Z" fill="#FFAD66"></path><path d="M256.732 92.2805L253.572 90.456C253.064 90.1625 252.652 89.3756 252.652 88.6986C252.652 88.0215 253.064 87.7097 253.572 88.0032L256.732 89.8277C257.24 90.1212 257.652 90.9081 257.652 91.5851C257.652 92.2629 257.241 92.574 256.732 92.2805Z" fill="#006EFF"></path><path d="M269.216 99.4865L259.631 93.9526C259.122 93.6591 258.711 92.8722 258.711 92.1951C258.711 91.5181 259.122 91.2063 259.631 91.4998L269.216 97.0337C269.724 97.3265 270.136 98.1133 270.136 98.7911C270.136 99.4689 269.724 99.7799 269.216 99.4865Z" fill="#B3D4FF"></path><path d="M289.822 111.387L280.236 105.853C279.728 105.559 279.316 104.772 279.316 104.095C279.316 103.418 279.728 103.106 280.236 103.4L289.822 108.934C290.33 109.227 290.741 110.014 290.741 110.691C290.741 111.368 290.329 111.679 289.822 111.387Z" fill="#B3D4FF"></path><path d="M276.999 103.982L272.146 101.18C271.638 100.887 271.227 100.1 271.227 99.4227C271.227 98.7457 271.639 98.4339 272.146 98.7274L276.999 101.529C277.507 101.823 277.919 102.61 277.919 103.287C277.919 103.964 277.507 104.275 276.999 103.982Z" fill="#FFAD66"></path><path d="M308.715 122.294L293.06 113.256C292.553 112.962 292.141 112.175 292.141 111.498C292.141 110.821 292.553 110.51 293.06 110.803L308.715 119.841C309.223 120.134 309.634 120.921 309.634 121.598C309.634 122.276 309.222 122.587 308.715 122.294Z" fill="#FFAD66"></path><path d="M253.756 96.7205L250.595 94.8953C250.088 94.6019 249.676 93.815 249.676 93.1379C249.676 92.4608 250.088 92.149 250.595 92.4425L253.756 94.267C254.264 94.5605 254.676 95.3474 254.676 96.0245C254.676 96.7022 254.264 97.014 253.756 96.7205Z" fill="#006EFF"></path><path d="M253.756 139.729L250.595 137.905C250.088 137.611 249.676 136.824 249.676 136.147C249.676 135.47 250.088 135.158 250.595 135.452L253.756 137.277C254.264 137.57 254.676 138.357 254.676 139.034C254.676 139.711 254.264 140.023 253.756 139.729Z" fill="#006EFF"></path><path d="M262.646 144.864L256.318 141.21C255.811 140.917 255.398 140.13 255.398 139.453C255.398 138.775 255.811 138.464 256.318 138.757L262.646 142.411C263.154 142.704 263.566 143.491 263.566 144.168C263.566 144.845 263.154 145.157 262.646 144.864Z" fill="#B3D4FF"></path><path d="M285.473 158.041L265.252 146.366C264.743 146.073 264.332 145.287 264.332 144.609C264.332 143.932 264.744 143.62 265.252 143.914L285.473 155.589C285.982 155.882 286.393 156.669 286.393 157.346C286.393 158.023 285.982 158.335 285.473 158.041Z" fill="#FFAD66"></path><path d="M266.24 103.926L256.654 98.3926C256.146 98.0991 255.734 97.3122 255.734 96.6351C255.734 95.9581 256.146 95.6463 256.654 95.9398L266.24 101.474C266.748 101.767 267.159 102.554 267.159 103.231C267.16 103.908 266.748 104.22 266.24 103.926Z" fill="#B3D4FF"></path><path d="M297.991 122.261L269.17 105.62C268.662 105.327 268.25 104.541 268.25 103.863C268.25 103.186 268.662 102.874 269.17 103.167L297.991 119.808C298.5 120.101 298.911 120.888 298.911 121.565C298.911 122.242 298.5 122.554 297.991 122.261Z" fill="#FFAD66"></path><path d="M256.732 102.644L253.572 100.82C253.064 100.526 252.652 99.7393 252.652 99.0622C252.652 98.3851 253.064 98.0734 253.572 98.3668L256.732 100.191C257.24 100.485 257.652 101.272 257.652 101.949C257.652 102.626 257.241 102.937 256.732 102.644Z" fill="#006EFF"></path><path d="M269.216 109.85L259.631 104.316C259.122 104.023 258.711 103.236 258.711 102.559C258.711 101.882 259.122 101.57 259.631 101.863L269.216 107.397C269.724 107.691 270.136 108.478 270.136 109.155C270.136 109.832 269.724 110.143 269.216 109.85Z" fill="#B3D4FF"></path><path d="M300.968 128.183L272.146 111.543C271.638 111.25 271.227 110.463 271.227 109.786C271.227 109.109 271.639 108.797 272.146 109.09L300.968 125.731C301.476 126.024 301.888 126.811 301.888 127.488C301.888 128.166 301.476 128.477 300.968 128.183Z" fill="#FFAD66"></path><path d="M256.732 107.199L253.572 105.374C253.064 105.081 252.652 104.294 252.652 103.617C252.652 102.94 253.064 102.628 253.572 102.921L256.732 104.746C257.24 105.039 257.652 105.826 257.652 106.503C257.652 107.181 257.241 107.492 256.732 107.199Z" fill="#006EFF"></path><path d="M256.732 111.52L253.572 109.696C253.064 109.402 252.652 108.615 252.652 107.938C252.652 107.261 253.064 106.949 253.572 107.243L256.732 109.067C257.24 109.361 257.652 110.148 257.652 110.825C257.652 111.502 257.241 111.814 256.732 111.52Z" fill="#006EFF"></path><path d="M256.732 128.951L253.572 127.127C253.064 126.833 252.652 126.046 252.652 125.369C252.652 124.692 253.064 124.381 253.572 124.674L256.732 126.499C257.24 126.792 257.652 127.579 257.652 128.256C257.652 128.933 257.241 129.245 256.732 128.951Z" fill="#006EFF"></path><path d="M256.732 133.195L253.572 131.37C253.064 131.077 252.652 130.29 252.652 129.613C252.652 128.936 253.064 128.624 253.572 128.917L256.732 130.742C257.24 131.035 257.652 131.822 257.652 132.499C257.652 133.177 257.241 133.488 256.732 133.195Z" fill="#006EFF"></path><path d="M256.732 145.302L253.572 143.478C253.064 143.184 252.652 142.397 252.652 141.72C252.652 141.043 253.064 140.731 253.572 141.025L256.732 142.849C257.24 143.143 257.652 143.93 257.652 144.607C257.652 145.285 257.241 145.596 256.732 145.302Z" fill="#006EFF"></path><path d="M265.37 150.29L259.22 146.739C258.713 146.446 258.301 145.659 258.301 144.982C258.301 144.305 258.713 143.993 259.22 144.286L265.37 147.837C265.879 148.131 266.29 148.917 266.29 149.595C266.29 150.272 265.879 150.583 265.37 150.29Z" fill="#B3D4FF"></path><path d="M289.212 164.055L268.189 151.917C267.681 151.624 267.27 150.838 267.27 150.16C267.27 149.483 267.681 149.171 268.189 149.464L289.212 161.602C289.72 161.895 290.132 162.682 290.132 163.359C290.132 164.037 289.72 164.349 289.212 164.055Z" fill="#FFAD66"></path><path d="M300.475 158.448L297.314 156.624C296.807 156.331 296.395 155.544 296.395 154.866C296.395 154.189 296.807 153.877 297.314 154.171L300.475 155.995C300.982 156.289 301.394 157.076 301.394 157.753C301.394 158.43 300.982 158.742 300.475 158.448Z" fill="#006EFF"></path><path d="M254.951 114.317L251.791 112.492C251.283 112.199 250.871 111.412 250.871 110.735C250.871 110.057 251.283 109.746 251.791 110.039L254.951 111.864C255.459 112.157 255.871 112.944 255.871 113.621C255.871 114.299 255.46 114.61 254.951 114.317Z" fill="#006EFF"></path><path d="M263.691 119.363L257.642 115.871C257.134 115.578 256.723 114.791 256.723 114.114C256.723 113.437 257.134 113.125 257.642 113.418L263.691 116.91C264.199 117.204 264.61 117.99 264.61 118.668C264.61 119.345 264.199 119.657 263.691 119.363Z" fill="#B3D4FF"></path><path d="M296.21 138.138L291.943 135.674C291.436 135.381 291.023 134.594 291.023 133.917C291.023 133.239 291.436 132.928 291.943 133.221L296.21 135.685C296.718 135.978 297.13 136.765 297.13 137.442C297.13 138.12 296.719 138.431 296.21 138.138Z" fill="#B3D4FF"></path><path d="M276.263 126.621L266.424 120.94C265.916 120.646 265.504 119.859 265.504 119.182C265.504 118.505 265.916 118.193 266.424 118.487L276.263 124.168C276.772 124.461 277.183 125.248 277.183 125.925C277.183 126.602 276.772 126.913 276.263 126.621Z" fill="#FFAD66"></path><path d="M254.951 119.047L251.791 117.222C251.283 116.929 250.871 116.142 250.871 115.465C250.871 114.788 251.283 114.476 251.791 114.769L254.951 116.594C255.459 116.887 255.871 117.674 255.871 118.351C255.871 119.029 255.46 119.34 254.951 119.047Z" fill="#006EFF"></path><path d="M254.951 136.303L251.791 134.478C251.283 134.185 250.871 133.398 250.871 132.721C250.871 132.044 251.283 131.732 251.791 132.026L254.951 133.85C255.459 134.144 255.871 134.931 255.871 135.608C255.871 136.285 255.46 136.596 254.951 136.303Z" fill="#006EFF"></path><path d="M263.691 124.093L257.642 120.601C257.134 120.307 256.723 119.52 256.723 118.843C256.723 118.166 257.134 117.854 257.642 118.148L263.691 121.64C264.199 121.933 264.61 122.72 264.61 123.397C264.61 124.075 264.199 124.387 263.691 124.093Z" fill="#B3D4FF"></path><path d="M263.691 137.213L259.678 134.896C259.17 134.603 258.758 133.816 258.758 133.139C258.758 132.461 259.17 132.15 259.678 132.443L263.691 134.76C264.199 135.054 264.61 135.841 264.61 136.518C264.61 137.195 264.199 137.506 263.691 137.213Z" fill="#B3D4FF"></path><path d="M280.866 147.129L276.853 144.812C276.346 144.519 275.934 143.732 275.934 143.055C275.934 142.378 276.346 142.066 276.853 142.359L280.866 144.676C281.374 144.969 281.786 145.756 281.786 146.433C281.786 147.111 281.374 147.422 280.866 147.129Z" fill="#B3D4FF"></path><path d="M308.336 154.686L255.049 123.92C254.54 123.627 254.129 122.84 254.129 122.163C254.129 121.486 254.54 121.175 255.049 121.468L308.336 152.233C308.844 152.527 309.256 153.313 309.256 153.99C309.256 154.668 308.844 154.979 308.336 154.686Z" fill="#F2F2F2"></path><path d="M274.024 130.057L266.424 125.669C265.916 125.375 265.504 124.589 265.504 123.912C265.504 123.234 265.916 122.923 266.424 123.216L274.024 127.605C274.532 127.898 274.944 128.685 274.944 129.362C274.944 130.04 274.532 130.351 274.024 130.057Z" fill="#FFAD66"></path><path d="M274.024 143.177L266.424 138.788C265.916 138.495 265.504 137.709 265.504 137.031C265.504 136.354 265.916 136.042 266.424 136.336L274.024 140.724C274.532 141.017 274.944 141.804 274.944 142.481C274.944 143.159 274.532 143.47 274.024 143.177Z" fill="#FFAD66"></path><path d="M294.482 154.989L283.752 148.793C283.244 148.5 282.832 147.713 282.832 147.036C282.832 146.359 283.244 146.047 283.752 146.341L294.482 152.536C294.99 152.829 295.402 153.616 295.402 154.293C295.402 154.971 294.99 155.282 294.482 154.989Z" fill="#F2F2F2"></path><path d="M289.314 134.157L279.474 128.476C278.967 128.182 278.555 127.395 278.555 126.718C278.555 126.041 278.967 125.729 279.474 126.023L289.314 131.704C289.822 131.997 290.234 132.784 290.234 133.461C290.234 134.138 289.822 134.45 289.314 134.157Z" fill="#F2F2F2"></path><path d="M269.216 114.405L259.631 108.871C259.122 108.577 258.711 107.79 258.711 107.113C258.711 106.436 259.122 106.124 259.631 106.418L269.216 111.952C269.724 112.245 270.136 113.032 270.136 113.709C270.136 114.386 269.724 114.698 269.216 114.405Z" fill="#B3D4FF"></path><path d="M289.822 126.304L280.236 120.77C279.728 120.477 279.316 119.69 279.316 119.013C279.316 118.336 279.728 118.024 280.236 118.317L289.822 123.851C290.33 124.145 290.741 124.932 290.741 125.609C290.741 126.286 290.329 126.598 289.822 126.304Z" fill="#B3D4FF"></path><path d="M276.999 118.9L272.146 116.098C271.638 115.805 271.227 115.018 271.227 114.341C271.227 113.664 271.639 113.352 272.146 113.646L276.999 116.447C277.507 116.741 277.919 117.528 277.919 118.205C277.919 118.882 277.507 119.194 276.999 118.9Z" fill="#FFAD66"></path><path d="M308.715 137.212L293.06 128.174C292.553 127.88 292.141 127.094 292.141 126.417C292.141 125.739 292.553 125.428 293.06 125.721L308.715 134.759C309.223 135.052 309.634 135.839 309.634 136.516C309.634 137.194 309.222 137.505 308.715 137.212Z" fill="#FFAD66"></path><path d="M256.732 149.157L253.572 147.332C253.064 147.039 252.652 146.252 252.652 145.575C252.652 144.898 253.064 144.586 253.572 144.879L256.732 146.704C257.24 146.997 257.652 147.784 257.652 148.461C257.652 149.138 257.241 149.449 256.732 149.157Z" fill="#006EFF"></path><path d="M269.216 156.363L259.631 150.829C259.122 150.535 258.711 149.748 258.711 149.071C258.711 148.394 259.122 148.082 259.631 148.376L269.216 153.91C269.724 154.203 270.136 154.989 270.136 155.667C270.136 156.344 269.724 156.655 269.216 156.363Z" fill="#B3D4FF"></path><path d="M289.822 168.262L280.236 162.728C279.728 162.435 279.316 161.648 279.316 160.971C279.316 160.294 279.728 159.982 280.236 160.275L289.822 165.809C290.33 166.103 290.741 166.89 290.741 167.567C290.741 168.244 290.329 168.555 289.822 168.262Z" fill="#B3D4FF"></path><path d="M276.999 160.858L272.146 158.056C271.638 157.762 271.227 156.975 271.227 156.298C271.227 155.621 271.639 155.309 272.146 155.603L276.999 158.405C277.507 158.698 277.919 159.485 277.919 160.162C277.919 160.84 277.507 161.151 276.999 160.858Z" fill="#FFAD66"></path><path d="M308.715 179.17L293.06 170.132C292.553 169.839 292.141 169.052 292.141 168.375C292.141 167.698 292.553 167.386 293.06 167.679L308.715 176.717C309.223 177.01 309.634 177.797 309.634 178.475C309.634 179.152 309.222 179.463 308.715 179.17Z" fill="#FFAD66"></path><path d="M309.195 55.9058C309.195 57.4288 310.271 59.2845 311.599 60.051C312.926 60.8169 314.002 60.2035 314.002 58.6806C314.002 57.1577 312.926 55.302 311.599 54.5354C310.271 53.7696 309.195 54.3829 309.195 55.9058Z" fill="#404040"></path><path d="M302.48 52.0291C302.48 53.552 303.556 55.4077 304.884 56.1743C306.211 56.9401 307.287 56.3267 307.287 54.8038C307.287 53.2809 306.211 51.4252 304.884 50.6587C303.557 49.8928 302.48 50.5062 302.48 52.0291Z" fill="#404040"></path><path d="M295.766 48.1523C295.766 49.6752 296.842 51.5309 298.169 52.2975C299.496 53.064 300.572 52.45 300.572 50.9271C300.572 49.4041 299.496 47.5484 298.169 46.7819C296.842 46.016 295.766 46.6294 295.766 48.1523Z" fill="#404040"></path><path d="M283.681 269.178L211.608 227.582C210.065 226.692 210.258 225.136 212.04 224.107L216.132 221.745C217.913 220.717 220.608 220.605 222.15 221.496L294.223 263.092C295.766 263.983 295.573 265.538 293.792 266.567L289.7 268.929C287.918 269.957 285.223 270.068 283.681 269.178Z" fill="#DBE2F9"></path><path d="M290.771 60.369L224.452 22.0797C223.207 21.3606 222.082 21.3403 221.206 21.8371L214.664 25.6217L222.365 31.6104L224.248 31.1332V188.293C224.248 191.978 226.49 196.26 229.254 197.856L287.403 240.421V243.045L294.172 239.093L294.171 239.066C295.153 238.415 295.776 237.05 295.776 235.121V69.9329C295.776 66.2465 293.535 61.9651 290.771 60.369Z" fill="#999999"></path><path d="M280.626 74.4V66.9833L274.104 71.8828L245.6 59.9373L224.244 44.3936V31.1305L222.352 31.6036L214.664 25.6223L221.203 21.8377C222.081 21.3477 223.197 21.3647 224.447 22.0743L290.762 60.3765C292.587 61.4243 294.175 63.6372 295.037 66.0703L280.626 74.4Z" fill="#E6E6E6"></path><path d="M284.188 242.742L217.869 204.453C215.104 202.857 212.863 198.575 212.863 194.889V29.7011C212.863 26.0155 215.104 24.3211 217.869 25.9172L284.188 64.2065C286.952 65.8026 289.193 70.0847 289.193 73.7704V238.958C289.193 242.644 286.952 244.339 284.188 242.742Z" fill="#CCCCCC"></path><path d="M214.324 195.865V30.4155C214.324 27.7289 215.958 26.494 217.972 27.6577L284.081 65.825C286.096 66.9881 287.729 70.1091 287.729 72.7951V238.245C287.729 240.931 286.096 242.166 284.081 241.003L217.972 202.835C215.958 201.672 214.324 198.551 214.324 195.865Z" fill="#333333"></path><path d="M285.789 74.5518V234.814C285.789 237.198 284.106 238.141 282.043 236.95L220.018 201.14C217.941 199.941 216.258 197.036 216.258 194.653V34.4075C216.258 32.0245 217.941 31.0648 220.018 32.2637L231.349 38.8061C231.823 39.0793 232.238 39.6784 232.369 40.2755L232.895 42.67C233.29 44.9636 235.089 47.5133 237.196 48.7299L264.851 64.6965C266.958 65.9131 268.773 65.4495 269.153 63.6033L269.678 61.8154C269.809 61.3694 270.225 61.2508 270.697 61.5233L282.044 68.0738C284.107 69.2646 285.789 72.1675 285.789 74.5518Z" fill="#80C5FF"></path><path d="M239.727 46.4079C239.727 47.6827 238.826 48.1965 237.715 47.5546C236.604 46.9128 235.703 45.3594 235.703 44.0845C235.703 42.8096 236.604 42.2959 237.715 42.9377C238.826 43.5789 239.727 45.1323 239.727 46.4079Z" fill="#666666"></path><path d="M238.818 45.8826C238.818 46.5814 238.325 46.8626 237.716 46.5115C237.107 46.1598 236.613 45.3085 236.613 44.6098C236.613 43.911 237.107 43.6297 237.716 43.9815C238.325 44.3326 238.818 45.1838 238.818 45.8826Z" fill="#333333"></path><path d="M260.693 55.6782L241.017 44.3177C240.693 44.1306 240.43 43.6284 240.43 43.1966V42.4003C240.43 41.9679 240.693 41.7693 241.017 41.957L260.693 53.3176C261.017 53.5047 261.28 54.0069 261.28 54.4386V55.235C261.28 55.6667 261.017 55.8653 260.693 55.6782Z" fill="black"></path><path d="M293.941 95.3908C293.551 95.1638 293.011 95.1963 292.413 95.5413C291.226 96.2265 290.269 97.8836 290.273 99.2473L290.329 118.882C290.331 119.555 290.571 120.031 290.957 120.256L292.148 120.948C291.761 120.724 291.522 120.247 291.52 119.574L291.464 99.9393C291.46 98.5756 292.417 96.9178 293.604 96.2333C294.201 95.8883 294.742 95.8565 295.132 96.0828L293.941 95.3908Z" fill="#E6E6E6"></path><path d="M293.605 96.2326C294.791 95.5474 295.754 96.0964 295.758 97.46L295.813 117.094C295.817 118.445 294.86 120.115 293.674 120.8C292.487 121.485 291.524 120.924 291.52 119.573L291.465 99.9386C291.461 98.5756 292.418 96.9178 293.605 96.2326Z" fill="#BFBFBF"></path><path d="M293.958 98.4401C294.931 97.8782 295.721 98.3282 295.725 99.4472L295.77 115.553C295.773 116.661 294.988 118.031 294.015 118.593C293.042 119.155 292.251 118.695 292.249 117.586L292.203 101.48C292.2 100.362 292.985 99.0026 293.958 98.4401Z" fill="#CCCCCC"></path><path d="M236.171 62.1367L224.592 55.4519C224.216 55.2344 223.875 55.2147 223.629 55.3577L221.453 56.6224C221.699 56.4794 222.04 56.4991 222.416 56.7166L233.994 63.4014C234.743 63.8338 235.35 64.8843 235.348 65.7451L235.31 79.0495C235.309 79.4765 235.158 79.776 234.915 79.9177L237.091 78.653C237.334 78.512 237.485 78.2118 237.486 77.7848L237.523 64.4804C237.526 63.6196 236.92 62.5698 236.171 62.1367Z" fill="#8482FF"></path><path d="M233.99 63.4021C234.739 63.8345 235.345 64.885 235.343 65.7458L235.306 79.0502C235.303 79.9109 234.693 80.2552 233.944 79.8228L222.366 73.1381C221.617 72.7057 221.013 71.6599 221.016 70.7991L221.054 57.4947C221.056 56.634 221.664 56.2843 222.412 56.7167L233.99 63.4021Z" fill="#4D4BB7"></path><path d="M227.358 68.9617L226.27 71.8815L221.738 69.2654L224.551 65.2971C224.946 64.74 225.934 65.3107 226.329 66.3232L227.358 68.9617Z" fill="white"></path><path d="M229.143 73.54L226.27 71.8815L227.357 68.9617L229.143 73.54Z" fill="#E6E6E6"></path><path d="M233.672 76.1568L229.141 73.5407L227.355 68.9617L228.731 65.2747C229.143 64.17 230.797 65.1256 231.209 66.7055L233.672 76.1568Z" fill="white"></path><path d="M227.375 63.7728C227.375 64.414 226.923 64.6722 226.363 64.3496C225.805 64.027 225.352 63.2455 225.352 62.6043C225.352 61.9632 225.804 61.705 226.363 62.0276C226.923 62.3502 227.375 63.1316 227.375 63.7728Z" fill="#E6E6E6"></path><path d="M278.762 112.615L244.465 92.7889C244.074 92.5632 243.721 92.5415 243.465 92.6899L241.289 93.9546C241.545 93.8062 241.898 93.8272 242.289 94.0536L276.585 113.879C277.363 114.328 277.989 115.412 277.986 116.309L277.973 121.164C277.971 121.609 277.815 121.922 277.562 122.069L279.738 120.804C279.991 120.657 280.148 120.344 280.149 119.899L280.163 115.044C280.165 114.148 279.54 113.063 278.762 112.615Z" fill="#8482FF"></path><path d="M276.587 113.879C277.365 114.328 277.991 115.413 277.988 116.309L277.974 121.164C277.972 122.057 277.341 122.419 276.565 121.971L242.268 102.145C241.491 101.696 240.864 100.608 240.867 99.7149L240.881 94.8601C240.883 93.9635 241.514 93.6049 242.29 94.0536L276.587 113.879Z" fill="#4D4BB7"></path><path d="M275.64 116.851L243.702 98.3133C243.403 98.1405 243.16 98.3241 243.16 98.7227C243.16 99.1212 243.402 99.5841 243.702 99.7569L275.64 118.295C275.939 118.468 276.181 118.284 276.181 117.886C276.181 117.487 275.939 117.024 275.64 116.851Z" fill="white"></path><path d="M278.762 127.204L244.465 107.378C244.074 107.153 243.721 107.131 243.465 107.28L241.289 108.545C241.545 108.396 241.898 108.417 242.289 108.644L276.585 128.47C277.363 128.918 277.989 130.003 277.986 130.899L277.973 135.754C277.971 136.199 277.815 136.512 277.562 136.659L279.738 135.394C279.991 135.247 280.148 134.934 280.149 134.489L280.163 129.635C280.165 128.737 279.54 127.653 278.762 127.204Z" fill="#8482FF"></path><path d="M276.587 128.469C277.365 128.918 277.991 130.002 277.988 130.899L277.974 135.754C277.972 136.647 277.341 137.009 276.565 136.56L242.268 116.734C241.491 116.286 240.864 115.198 240.867 114.304L240.881 109.45C240.883 108.553 241.514 108.194 242.29 108.643L276.587 128.469Z" fill="#4D4BB7"></path><path d="M275.64 131.441L243.702 112.903C243.403 112.73 243.16 112.914 243.16 113.312C243.16 113.711 243.402 114.174 243.702 114.346L275.64 132.885C275.939 133.057 276.181 132.874 276.181 132.475C276.181 132.077 275.939 131.614 275.64 131.441Z" fill="white"></path><path d="M236.171 183.79L224.592 177.106C224.216 176.888 223.875 176.868 223.629 177.011L221.453 178.276C221.699 178.133 222.04 178.153 222.416 178.37L233.994 185.055C234.743 185.487 235.35 186.538 235.348 187.399L235.31 200.703C235.309 201.13 235.158 201.43 234.915 201.571L237.091 200.306C237.334 200.165 237.485 199.865 237.486 199.438L237.523 186.133C237.526 185.273 236.92 184.223 236.171 183.79Z" fill="#8482FF"></path><path d="M233.99 185.055C234.739 185.487 235.345 186.538 235.343 187.399L235.306 200.703C235.303 201.564 234.693 201.908 233.944 201.476L222.366 194.791C221.617 194.359 221.013 193.313 221.016 192.452L221.054 179.148C221.056 178.287 221.664 177.937 222.412 178.37L233.99 185.055Z" fill="#4D4BB7"></path><path d="M233.61 189.575V189.594L228.094 190.057L222.496 183.158C222.496 182.942 222.649 182.854 222.838 182.963L233.268 188.986C233.457 189.095 233.61 189.359 233.61 189.575Z" fill="white"></path><path d="M228.094 190.495L233.61 190.03V196.746C233.61 196.962 233.457 197.049 233.268 196.941L222.838 190.918C222.649 190.809 222.496 190.545 222.496 190.329V183.592L228.012 190.392L228.094 190.495Z" fill="white"></path><path d="M278.287 151.266L226.771 121.523C226.248 121.221 225.773 121.192 225.43 121.392L223.254 122.656C223.597 122.457 224.071 122.486 224.595 122.788L276.111 152.531C277.153 153.133 277.992 154.586 277.989 155.784L277.978 159.661C277.977 160.256 277.767 160.676 277.428 160.873L279.604 159.608C279.943 159.411 280.153 158.992 280.154 158.396L280.165 154.519C280.169 153.322 279.329 151.868 278.287 151.266Z" fill="#8482FF"></path><path d="M276.108 152.531C277.151 153.133 277.99 154.586 277.986 155.784L277.976 159.661C277.972 160.859 277.128 161.344 276.085 160.742L224.569 130.999C223.53 130.399 222.688 128.94 222.691 127.743L222.702 123.866C222.706 122.668 223.554 122.188 224.593 122.789L276.108 152.531Z" fill="#4D4BB7"></path><path d="M274.753 155.454L225.166 126.652C224.867 126.48 224.625 126.663 224.625 127.061C224.625 127.46 224.867 127.923 225.166 128.095L274.753 156.897C275.052 157.07 275.294 156.887 275.294 156.488C275.294 156.09 275.052 155.627 274.753 155.454Z" fill="white"></path><path d="M278.287 168.596L226.771 138.853C226.248 138.551 225.773 138.523 225.43 138.722L223.254 139.987C223.597 139.787 224.071 139.816 224.595 140.118L276.111 169.861C277.153 170.463 277.992 171.917 277.989 173.114L277.978 176.991C277.977 177.587 277.767 178.006 277.428 178.203L279.604 176.938C279.943 176.741 280.153 176.322 280.154 175.726L280.165 171.849C280.169 170.651 279.329 169.197 278.287 168.596Z" fill="#8482FF"></path><path d="M276.108 169.86C277.151 170.462 277.99 171.916 277.986 173.114L277.976 176.991C277.972 178.189 277.128 178.673 276.085 178.071L224.569 148.329C223.53 147.729 222.688 146.27 222.691 145.073L222.702 141.195C222.706 139.998 223.554 139.518 224.593 140.118L276.108 169.86Z" fill="#4D4BB7"></path><path d="M274.753 172.783L225.166 143.981C224.867 143.809 224.625 143.992 224.625 144.391C224.625 144.789 224.867 145.252 225.166 145.425L274.753 174.227C275.052 174.4 275.294 174.216 275.294 173.818C275.294 173.419 275.052 172.956 274.753 172.783Z" fill="white"></path><path d="M278.287 185.925L226.771 156.182C226.248 155.879 225.773 155.852 225.43 156.05L223.254 157.315C223.597 157.116 224.071 157.144 224.595 157.446L276.111 187.189C277.153 187.791 277.992 189.245 277.989 190.442L277.978 194.319C277.977 194.915 277.767 195.335 277.428 195.531L279.604 194.266C279.943 194.069 280.153 193.65 280.154 193.055L280.165 189.177C280.169 187.98 279.329 186.526 278.287 185.925Z" fill="#8482FF"></path><path d="M276.108 187.189C277.151 187.791 277.99 189.245 277.986 190.442L277.976 194.319C277.972 195.517 277.128 196.001 276.085 195.4L224.569 165.657C223.53 165.057 222.688 163.598 222.691 162.401L222.702 158.524C222.706 157.326 223.554 156.847 224.593 157.446L276.108 187.189Z" fill="#4D4BB7"></path><path d="M274.753 190.112L225.166 161.31C224.867 161.138 224.625 161.321 224.625 161.72C224.625 162.118 224.867 162.581 225.166 162.754L274.753 191.556C275.052 191.729 275.294 191.545 275.294 191.147C275.294 190.748 275.052 190.285 274.753 190.112Z" fill="white"></path><path d="M257.303 195.972L245.725 189.287C245.349 189.07 245.008 189.05 244.762 189.193L242.586 190.457C242.832 190.314 243.173 190.334 243.549 190.552L255.127 197.236C255.876 197.669 256.483 198.719 256.48 199.58L256.442 212.884C256.441 213.311 256.29 213.611 256.047 213.753L258.223 212.488C258.466 212.347 258.617 212.047 258.618 211.62L258.656 198.315C258.659 197.455 258.052 196.405 257.303 195.972Z" fill="#8482FF"></path><path d="M255.124 197.237C255.873 197.669 256.48 198.72 256.477 199.581L256.439 212.885C256.436 213.746 255.826 214.091 255.077 213.658L243.499 206.973C242.75 206.541 242.146 205.495 242.148 204.634L242.186 191.33C242.189 190.469 242.796 190.119 243.545 190.552L255.124 197.237Z" fill="#4D4BB7"></path><path d="M254.086 209.196L244.523 203.675C243.946 203.342 243.477 202.532 243.477 201.87V196.601C243.477 195.938 243.946 195.671 244.523 196.004L254.086 201.525C254.663 201.859 255.133 202.668 255.133 203.33V208.6C255.133 209.261 254.664 209.529 254.086 209.196ZM244.523 196.504C244.187 196.309 243.913 196.466 243.913 196.852V202.122C243.913 202.508 244.187 202.98 244.523 203.174L254.086 208.695C254.423 208.89 254.697 208.733 254.697 208.347V203.078C254.697 202.692 254.423 202.219 254.086 202.025L244.523 196.504Z" fill="white"></path><path d="M249.305 205.576C247.903 204.766 246.762 202.799 246.762 201.189C246.762 199.579 247.903 198.929 249.305 199.739C250.708 200.549 251.848 202.517 251.848 204.126C251.848 205.735 250.708 206.386 249.305 205.576ZM249.305 200.239C248.143 199.568 247.198 200.107 247.198 201.44C247.198 202.774 248.144 204.404 249.305 205.075C250.467 205.746 251.413 205.207 251.413 203.874C251.413 202.541 250.467 200.91 249.305 200.239Z" fill="white"></path><path d="M252.324 200.916L246.285 197.429V196.166C246.285 195.732 246.594 195.556 246.972 195.774L251.637 198.468C252.016 198.687 252.323 199.218 252.323 199.652V200.916H252.324ZM246.722 197.181L251.888 200.164V199.4C251.888 199.242 251.776 199.048 251.637 198.968L246.972 196.275C246.834 196.195 246.722 196.259 246.722 196.418V197.181Z" fill="white"></path><path d="M278.814 208.366L267.236 201.682C266.859 201.464 266.517 201.444 266.27 201.588L264.094 202.852C264.34 202.709 264.683 202.729 265.06 202.946L276.638 209.631C277.387 210.064 277.991 211.112 277.988 211.973L277.95 225.278C277.948 225.706 277.798 226.006 277.555 226.147L279.732 224.883C279.975 224.742 280.125 224.441 280.127 224.013L280.165 210.709C280.167 209.847 279.564 208.799 278.814 208.366Z" fill="#8482FF"></path><path d="M276.635 209.631C277.384 210.064 277.987 211.112 277.985 211.973L277.947 225.278C277.944 226.139 277.337 226.485 276.588 226.053L265.01 219.368C264.261 218.935 263.654 217.888 263.656 217.028L263.695 203.722C263.697 202.862 264.308 202.514 265.057 202.946L276.635 209.631Z" fill="#4D4BB7"></path><path d="M270.874 209.341C268.227 207.813 266.082 208.611 266.082 211.124C266.082 212.751 266.985 214.695 268.338 216.281C268.275 216.705 267.999 217.595 266.789 216.912C266.789 216.912 268.46 218.754 270.044 217.888C270.314 218.088 270.59 218.276 270.874 218.439C273.52 219.967 275.666 219.169 275.666 216.657C275.666 214.144 273.52 210.869 270.874 209.341Z" fill="white"></path><path d="M277.986 86.2302L245.123 67.257C244.515 66.9059 243.965 66.8734 243.567 67.1045L241.391 68.3692C241.788 68.1381 242.339 68.1706 242.947 68.5217L275.809 87.4949C277.018 88.1923 277.994 89.8847 277.99 91.2761L277.958 102.665C277.956 103.354 277.712 103.84 277.319 104.068L279.496 102.803C279.889 102.575 280.132 102.09 280.134 101.4L280.167 90.0114C280.171 88.62 279.194 86.9276 277.986 86.2302Z" fill="#8482FF"></path><path d="M275.809 87.4949C277.017 88.1923 277.994 89.8847 277.99 91.2761L277.958 102.665C277.953 104.053 276.97 104.613 275.762 103.916L242.9 84.9425C241.691 84.2451 240.715 82.5527 240.719 81.1646L240.751 69.7763C240.755 68.3848 241.739 67.8243 242.947 68.5217L275.809 87.4949Z" fill="#4D4BB7"></path><path d="M274.987 90.229L244.002 72.267C243.703 72.0942 243.461 72.2779 243.461 72.6764C243.461 73.0749 243.704 73.5378 244.002 73.71L274.987 91.672C275.286 91.8448 275.528 91.6611 275.528 91.2626C275.528 90.8641 275.286 90.4012 274.987 90.229Z" fill="white"></path><path d="M274.987 94.5301L244.002 76.5681C243.703 76.3953 243.461 76.579 243.461 76.9775C243.461 77.376 243.704 77.8389 244.002 78.0118L274.987 95.9737C275.286 96.1465 275.528 95.9629 275.528 95.5644C275.528 95.1652 275.286 94.7022 274.987 94.5301Z" fill="white"></path><path d="M274.987 98.8311L244.002 80.8692C243.703 80.6963 243.461 80.88 243.461 81.2785C243.461 81.677 243.704 82.14 244.002 82.3128L274.987 100.275C275.286 100.448 275.528 100.264 275.528 99.8654C275.528 99.4662 275.286 99.0033 274.987 98.8311Z" fill="white"></path><path d="M236.171 91.9077L224.592 85.223C224.216 85.0054 223.875 84.9858 223.629 85.1288L221.453 86.3935C221.699 86.2505 222.04 86.2701 222.416 86.4877L233.994 93.1724C234.743 93.6048 235.35 94.6554 235.348 95.5161L235.31 108.821C235.309 109.248 235.158 109.547 234.915 109.689L237.091 108.424C237.334 108.283 237.485 107.983 237.486 107.556L237.523 94.2514C237.526 93.3907 236.92 92.3401 236.171 91.9077Z" fill="#8482FF"></path><path d="M233.99 93.1725C234.739 93.6049 235.345 94.6554 235.343 95.5162L235.306 108.821C235.303 109.681 234.693 110.026 233.944 109.593L222.366 102.908C221.617 102.476 221.013 101.43 221.016 100.57L221.054 87.2651C221.056 86.4044 221.664 86.0546 222.412 86.4871L233.99 93.1725Z" fill="#4D4BB7"></path><path d="M228.06 93.655C225.875 92.3937 224.105 93.4022 224.105 95.9099C224.105 98.4149 225.875 101.47 228.06 102.731C230.243 103.991 232.015 102.982 232.015 100.476C232.015 97.9683 230.244 94.915 228.06 93.655ZM227.095 99.7264V95.6463L230.174 99.4647L227.095 99.7264Z" fill="white"></path><path d="M217.914 226.768L220.895 225.452L224.041 209.582L221.06 210.897L217.914 226.768Z" fill="#733118"></path><path d="M221.383 209.258L224.364 207.943L227.597 191.633L224.615 192.949L221.383 209.258Z" fill="#733118"></path><path d="M224.938 191.311L227.918 189.995L231.151 173.686L228.17 175.001L224.938 191.311Z" fill="#733118"></path><path d="M237.126 218.401L240.107 217.086L224.364 207.943L221.383 209.258L237.126 218.401Z" fill="#AB512E"></path><path d="M228.5 173.363L231.481 172.047L234.713 155.742L231.732 157.058L228.5 173.363Z" fill="#733118"></path><path d="M240.681 200.454L243.663 199.138L227.918 189.995L224.938 191.311L240.681 200.454Z" fill="#AB512E"></path><path d="M235.221 139.452L238.202 138.136L235.508 136.538L232.527 137.854L235.221 139.452Z" fill="#AB512E"></path><path d="M232.055 155.419L235.035 154.104L238.201 138.136L235.22 139.452L232.055 155.419Z" fill="#733118"></path><path d="M244.244 182.506L247.225 181.19L231.481 172.047L228.5 173.363L244.244 182.506Z" fill="#AB512E"></path><path d="M247.798 164.562L250.78 163.247L235.035 154.104L232.055 155.419L247.798 164.562Z" fill="#AB512E"></path><path d="M236.344 237.507L239.325 236.192L256.632 148.875L253.652 150.191L236.344 237.507Z" fill="#733118"></path><path d="M215.219 225.17L217.912 226.768L221.058 210.897L236.802 220.04L233.656 235.911L236.346 237.507L253.654 150.191L250.964 148.595L247.799 164.562L232.055 155.419L235.22 139.452L232.527 137.854L215.219 225.17ZM244.242 182.506L228.498 173.363L231.73 157.058L247.474 166.202L244.242 182.506ZM240.684 200.454L224.94 191.311L228.173 175.002L243.916 184.145L240.684 200.454ZM221.383 209.258L224.616 192.95L240.36 202.093L237.127 218.402L221.383 209.258Z" fill="#8C3C1D"></path><path d="M253.655 150.191L256.636 148.876L253.946 147.279L250.965 148.595L253.655 150.191Z" fill="#AB512E"></path><path d="M254.873 123.853C254.858 123.748 254.821 123.628 254.722 123.592C254.632 123.559 254.534 123.611 254.455 123.668C254.15 123.888 253.908 124.195 253.765 124.544C253.783 124.087 253.81 123.604 253.923 123.161C254.04 122.704 254.159 122.244 254.265 121.784C254.429 121.066 254.535 120.314 254.366 119.598C254.303 119.327 254.166 119.032 253.899 118.953C253.604 118.866 253.27 119.163 253.321 119.467C253.158 119.427 252.957 119.398 252.848 119.526C252.782 119.605 252.776 119.716 252.774 119.818C252.766 120.261 252.764 120.705 252.77 121.148C252.649 120.997 252.452 120.854 252.276 120.936C252.102 121.016 252.082 121.253 252.093 121.445C252.139 122.318 252.274 123.195 252.175 124.063C252.13 124.461 252.036 124.852 251.916 125.233C251.708 125.889 250.679 128.009 250.262 128.367C249.373 129.131 248.3 129.641 247.23 130.095C245.457 130.849 243.607 131.398 241.777 131.993C240.745 132.328 239.716 132.677 238.709 133.084C238.411 133.204 238.173 133.17 237.87 133.101C236.417 132.77 234.983 132.3 233.695 131.548C233.117 131.21 232.571 130.814 232.078 130.36C231.397 129.734 230.957 128.831 230.165 128.344C229.245 127.778 228.103 127.41 227.232 128.301C226.544 129.005 226.572 130.184 227.033 131.053C227.495 131.922 228.298 132.55 229.087 133.14C231.911 135.253 234.941 137.268 238.394 137.989C238.501 138.012 238.613 138.033 238.719 138.006C238.9 137.961 239.011 137.796 239.089 137.619C239.177 137.724 239.265 137.828 239.362 137.924C239.44 138.002 239.528 138.081 239.637 138.099C239.751 138.118 239.863 138.067 239.967 138.017C241.118 137.468 242.269 136.919 243.389 136.31C244.775 135.557 246.108 134.708 247.389 133.79C248.036 133.326 252.173 130.365 252.809 129.976C253.055 129.826 253.301 129.675 253.523 129.491C253.604 129.423 253.683 129.351 253.735 129.259C253.791 129.162 253.815 129.05 253.838 128.941C253.929 128.51 254.057 128.081 254.107 127.642C254.192 126.9 254.191 126.135 254.476 125.431C254.573 125.191 254.705 124.967 254.788 124.723C254.885 124.445 254.913 124.144 254.873 123.853Z" fill="#FFB78C"></path><path d="M232.19 129.671C233.687 130.864 235.368 131.813 237.03 132.769C237.083 132.799 237.141 132.836 237.152 132.897C237.158 132.935 237.144 132.973 237.129 133.009C236.602 134.319 235.829 135.568 234.696 136.411C234.346 136.672 233.934 136.895 233.495 136.948C233.317 136.969 233.05 136.983 232.885 136.899C232.73 136.82 232.704 136.701 232.631 136.536C232.488 136.211 232.326 135.894 232.15 135.587C231.807 134.984 231.408 134.414 230.966 133.881C230.167 132.918 229.224 132.068 228.558 131.01C228.325 130.64 228.126 130.238 228.065 129.805C228.015 129.446 228.07 129.057 228.226 128.729C228.39 128.384 228.391 128.152 228.388 127.759C228.388 127.714 228.389 127.664 228.419 127.631C228.461 127.585 228.534 127.593 228.595 127.606C229.266 127.746 229.934 127.945 230.514 128.31C230.934 128.573 231.296 128.917 231.67 129.242C231.84 129.387 232.014 129.531 232.19 129.671Z" fill="#4D4D4D"></path><path d="M218.297 210.037C218.32 210.668 218.501 211.368 219.043 211.692C219.317 211.856 219.647 211.898 219.967 211.903C220.551 211.913 221.137 211.809 221.682 211.599C222.271 211.373 222.807 211.027 223.388 210.78C225.861 209.726 228.775 210.573 231.348 209.793C231.957 209.609 232.621 209.227 232.688 208.594C232.73 208.21 232.53 207.839 232.281 207.544C231.75 206.913 230.982 206.519 230.19 206.291C229.398 206.062 228.571 205.986 227.751 205.894C226.102 205.708 224.459 205.451 222.801 205.376C221.791 205.33 220.731 205.361 219.782 205.749C219.393 205.908 219.113 206.036 218.988 206.44C218.821 206.976 218.65 207.513 218.521 208.061C218.369 208.707 218.272 209.371 218.297 210.037Z" fill="#1F2125"></path><path d="M226.504 156.803C226.684 155.462 226.807 154.09 226.537 152.764C226.424 152.209 226.272 151.242 225.717 150.996C225.065 150.708 224.328 150.628 223.623 150.699C222.794 150.782 221.996 151.067 221.25 151.437C219.937 152.086 218.751 153.008 217.853 154.165C216.358 156.092 215.713 158.54 216.127 160.956C216.329 162.135 216.793 163.243 217.119 164.388C217.436 165.507 217.484 166.623 217.443 167.788C217.393 169.246 217.173 170.691 217.014 172.14C216.712 174.886 216.631 177.651 216.638 180.412C216.641 181.815 216.668 183.219 216.7 184.622C216.732 186.089 216.346 187.394 216.093 188.815C215.569 191.763 216.24 194.569 216.952 197.407C217.707 200.42 218.198 203.491 218.758 206.545C218.788 206.709 218.821 206.878 218.92 207.012C219.022 207.149 219.18 207.231 219.338 207.296C220.162 207.635 221.098 207.62 221.966 207.42C222.834 207.219 223.651 206.842 224.46 206.469C223.683 203.106 223.36 199.657 223.224 196.213C223.141 194.127 223.126 192.04 223.119 189.953C223.115 188.909 223.113 187.866 223.105 186.823C223.102 186.353 223.056 185.865 223.115 185.398C223.122 185.34 223.131 185.281 223.141 185.224C223.214 184.82 223.354 184.43 223.435 184.028C223.549 183.47 223.525 182.826 223.128 182.419C223.122 182.414 223.115 182.411 223.109 182.406C223.599 182.201 224.08 181.977 224.54 181.715C224.61 181.676 224.681 181.634 224.728 181.569C224.775 181.503 224.792 181.423 224.808 181.344C225.243 179.216 225.378 177.028 225.21 174.862C225.131 173.835 224.886 172.857 224.788 171.836C224.682 170.718 224.689 169.592 224.757 168.472C224.998 164.543 225.983 160.702 226.504 156.803Z" fill="#BFBFBF"></path><path d="M238.265 210.689C237.92 209.92 236.447 209.692 235.797 209.49C234.946 209.225 234.082 209.006 233.209 208.829C231.459 208.475 229.677 208.286 227.893 208.225C226.832 208.188 225.742 208.197 224.723 208.531C224.373 208.644 223.968 208.799 223.799 209.151C223.622 209.516 223.543 209.982 223.429 210.371C223.256 210.96 223.109 211.559 223.033 212.169C222.976 212.628 222.962 213.105 223.106 213.545C223.388 214.403 224.288 214.99 225.191 214.988C225.759 214.988 226.305 214.786 226.863 214.68C228.079 214.448 229.329 214.673 230.566 214.738C231.472 214.786 232.381 214.746 233.282 214.649C234.113 214.559 235.178 214.527 235.95 214.195C237.226 213.647 238.253 212.526 238.336 211.09C238.345 210.942 238.319 210.809 238.265 210.689Z" fill="#4D4D4D"></path><path d="M234.037 152.65C233.394 153.635 232.025 153.823 230.854 153.705C228.597 153.477 226.474 152.48 224.613 151.183C224.088 150.817 223.56 150.417 222.935 150.277C221.115 149.869 220.453 151.679 219.748 152.916C218.754 154.659 217.806 156.475 217.394 158.454C216.926 160.698 217.19 163.087 218.137 165.174C218.594 166.181 219.205 167.121 219.556 168.169C220.189 170.056 219.928 172.11 219.69 174.087C219.249 177.749 218.915 181.447 219.126 185.125C219.091 186.03 219.179 186.946 219.271 187.85C219.367 188.801 219.464 189.752 219.56 190.702C219.802 193.093 220.175 195.359 220.86 197.658C221.454 199.651 222.253 201.584 222.696 203.615C223.159 205.742 223.221 207.933 223.481 210.095C223.494 210.204 223.51 210.319 223.579 210.405C223.656 210.499 223.78 210.537 223.899 210.567C225.329 210.925 226.895 210.705 228.171 209.967C228.654 209.687 229.136 209.265 229.164 208.707C229.176 208.488 229.113 208.272 229.054 208.06C227.382 202.157 227 195.79 227.504 189.687C227.622 188.252 228.221 187.046 228.736 185.726C229.282 184.325 229.807 182.915 230.285 181.49C231.248 178.624 232.03 175.686 232.424 172.684C232.817 169.687 232.823 166.649 233.206 163.65C233.624 160.375 234.492 157.136 234.426 153.835C234.416 153.406 234.366 152.925 234.037 152.65Z" fill="#F2F2F2"></path><path d="M219.393 140.496C220.169 143.214 221.599 145.935 221.057 148.708C220.733 150.369 219.731 151.806 218.726 153.168C218.632 153.296 218.534 153.431 218.512 153.589C218.489 153.76 218.56 153.93 218.636 154.085C219.607 156.094 221.509 157.541 223.587 158.355C225.665 159.168 227.92 159.408 230.149 159.507C231.44 159.564 232.796 159.562 233.944 158.968C234.642 154.466 235.071 149.922 235.227 145.369C235.254 144.582 235.277 143.778 235.551 143.041C235.965 141.933 236.928 141.03 237.05 139.854C237.166 138.75 236.507 137.726 235.84 136.84C233.28 133.435 230.178 130.48 227.091 127.543C226.18 126.676 225.261 125.802 224.196 125.131C223.568 124.734 222.951 124.757 222.325 125.19C221.918 125.47 221.606 125.868 221.337 126.282C220.847 127.037 220.48 127.866 220.152 128.703C220.137 128.741 220.123 128.779 220.108 128.816C218.652 132.592 218.276 136.581 219.393 140.496Z" fill="#1F2125"></path><path d="M221.797 125.367C221.725 125.681 221.697 126.028 221.887 126.29C222.098 126.579 222.491 126.646 222.842 126.711C224.445 127.013 225.98 127.803 227.026 129.054C227.422 129.528 227.753 130.07 228.247 130.443C228.493 130.628 228.795 130.77 229.1 130.727C229.875 130.619 229.526 129.878 229.531 129.383C229.537 128.684 229.713 127.941 229.824 127.251C230.051 125.834 230.34 124.426 230.69 123.034C230.096 122.883 229.562 122.564 229.037 122.249C228.232 121.766 227.426 121.282 226.672 120.723C226.233 120.396 225.804 120.04 225.3 119.825C224.783 119.604 224.214 119.546 223.656 119.558C223.185 119.569 222.706 119.499 222.508 120.031C222.419 120.271 222.424 120.534 222.426 120.791C222.436 121.76 222.411 122.737 222.242 123.695C222.155 124.185 222.001 124.641 221.862 125.116C221.841 125.196 221.817 125.28 221.797 125.367Z" fill="#FFB78C"></path><path d="M234.443 116.595C234.492 116.824 234.535 117.068 234.456 117.289C234.404 117.434 234.303 117.56 234.269 117.711C234.218 117.941 234.334 118.171 234.446 118.377C234.799 119.025 235.151 119.673 235.503 120.321C235.198 120.737 234.535 120.732 234.204 121.129C234.037 121.33 233.985 121.6 233.939 121.858C233.746 122.932 233.554 124.005 233.361 125.079C232.311 125.328 231.248 125.523 230.179 125.664C229.923 125.698 229.655 125.726 229.416 125.632C229.213 125.551 229.053 125.39 228.907 125.226C228.541 124.816 228.223 124.362 227.96 123.879C227.841 123.659 227.719 123.418 227.496 123.304C227.298 123.202 227.063 123.222 226.841 123.233C224.38 123.359 221.89 121.934 220.817 119.716C219.745 117.499 220.199 114.617 221.953 112.887C223.255 111.601 225.113 111 226.94 110.889C228.253 110.81 229.593 110.977 230.826 111.442C231.453 111.678 232.05 111.993 232.59 112.388C233.199 112.834 233.412 113.387 233.686 114.081C234.007 114.895 234.261 115.738 234.443 116.595Z" fill="#FFE5CC"></path><path d="M227.861 119.234C227.091 119.665 227.781 120.827 228.055 121.402C228.361 122.044 228.645 122.703 228.79 123.399C228.903 123.941 228.986 124.652 228.784 125.184C228.634 125.582 228.237 125.876 227.882 126.109C227.459 126.386 226.986 126.577 226.501 126.722C224.577 127.294 222.44 127.118 220.635 126.237C219.351 125.61 218.245 124.631 217.449 123.445C217.095 122.918 216.665 122.306 216.72 121.655C216.788 120.841 217.096 119.995 217.308 119.207C217.79 117.412 218.496 115.661 219.563 114.138C220.63 112.616 222.074 111.329 223.792 110.62C226.308 109.581 229.32 109.359 231.602 111.073C232.017 111.385 232.403 111.757 232.635 112.222C233.227 113.404 232.542 115.366 232.007 116.463C231.399 117.711 230.286 118.799 228.913 119.006C228.556 119.06 228.176 119.057 227.861 119.234Z" fill="#733118"></path><path d="M259.813 124.986C259.775 124.916 259.729 124.844 259.657 124.811C259.584 124.778 259.479 124.805 259.459 124.882C259.557 123.99 259.523 123.083 259.36 122.2C259.338 122.084 259.312 121.964 259.238 121.872C259.163 121.78 259.026 121.729 258.923 121.788C258.836 121.838 258.797 121.952 258.704 121.991C258.63 122.022 258.546 121.995 258.465 121.992C258.172 121.978 257.965 122.265 257.819 122.52C256.578 124.7 255.587 127.024 254.876 129.43C254.706 130.008 254.603 130.69 254.586 131.295C254.582 131.437 254.589 131.582 254.553 131.72C254.528 131.817 254.482 131.908 254.436 131.997C254.297 132.268 246.787 139.952 246.131 140.389C246.037 140.451 245.943 140.512 245.849 140.572C244.747 140.034 243.54 139.712 242.421 139.198C240.235 138.197 238.494 136.456 236.607 134.966C235.465 134.064 234.224 133.242 232.847 132.745C232.207 132.513 231.502 132.321 230.817 132.307C230.323 132.298 230.062 132.528 229.719 132.855C229.151 133.398 228.67 134.012 228.361 134.739C228.008 135.57 227.835 136.508 228.147 137.366C228.444 138.185 228.974 138.91 229.601 139.508C230.45 140.318 231.475 140.917 232.504 141.479C236.447 143.636 240.623 145.381 244.963 146.547C245.455 146.68 245.969 146.806 246.47 146.711C248.281 146.373 254.709 137.472 256.728 134.729C257.568 133.926 258.257 132.963 258.692 131.885C258.91 131.345 259.069 130.785 259.223 130.225C259.46 129.369 259.686 128.51 259.903 127.648C260.016 127.196 260.128 126.739 260.129 126.272C260.13 125.826 260.027 125.378 259.813 124.986Z" fill="#FFE5CC"></path><path d="M236.066 143.234C236.966 142.292 237.87 141.337 238.583 140.241C239.101 139.446 240.017 138 239.523 137.013C239.457 136.883 239.35 136.778 239.244 136.676C237.38 134.889 235.244 133.387 232.931 132.24C232.481 132.017 232.021 131.806 231.535 131.68C230.646 131.451 229.702 131.52 228.807 131.724C228.503 131.793 228.2 131.879 227.93 132.034C226.285 132.982 226.273 135.582 226.76 137.154C227.325 138.976 228.688 140.481 230.309 141.486C231.929 142.491 233.796 143.037 235.672 143.376C235.733 143.386 235.795 143.397 235.855 143.383C235.94 143.364 236.006 143.298 236.066 143.234Z" fill="#4D4D4D"></path><path d="M174.588 223.011L132.133 222.934C130.948 222.932 129.985 222.376 129.981 221.692L129.957 217.336C129.954 216.652 130.911 216.1 132.095 216.102L174.551 216.178C175.736 216.18 176.699 216.737 176.703 217.421L176.726 221.777C176.731 222.46 175.773 223.014 174.588 223.011Z" fill="#FFC066"></path><path d="M134.839 208.114C133.955 208.238 133.1 208.745 132.691 209.538C132.123 210.641 132.502 211.975 132.374 213.208C132.275 214.155 131.873 215.044 131.701 215.981C131.491 217.13 131.637 218.187 132.183 219.226C132.475 219.781 132.885 220.34 133.415 220.684C134.073 221.111 134.822 221.425 135.605 221.463C136.387 221.503 137.205 221.241 137.737 220.665C138.109 220.261 138.325 219.716 138.33 219.167C138.335 218.622 138.141 218.094 137.89 217.61C137.63 217.107 137.233 216.63 137.038 216.098C136.639 215.008 137.784 214.086 138.572 213.587C138.708 213.501 138.85 213.417 138.947 213.288C139.033 213.172 139.075 213.031 139.115 212.892C139.299 212.259 139.485 211.616 139.48 210.956C139.475 210.297 139.253 209.609 138.746 209.188C138.284 208.804 137.635 208.656 137.083 208.44C136.373 208.161 135.602 208.007 134.839 208.114Z" fill="#6865F7"></path><path d="M161.955 210.024C161.677 208.45 161.067 206.957 160.485 205.468C159.065 201.836 157.766 198.104 155.578 194.876C153.735 192.155 151.318 189.88 148.923 187.629C148.444 187.178 147.917 186.949 147.411 186.597C147.164 186.425 146.441 185.327 146.798 185.022C145.235 186.351 143.973 188.268 143.133 190.302C142.639 191.5 142.292 192.738 142.116 193.923C141.889 195.448 142.017 197.057 142.686 198.446C143.355 199.836 144.608 200.98 146.112 201.323C146.375 201.383 146.667 201.431 146.846 201.634C146.934 201.734 146.984 201.861 147.04 201.983C147.681 203.396 149.069 204.535 149.985 205.781C150.539 206.536 151.066 207.31 151.598 208.08C151.226 207.994 150.851 207.916 150.472 207.862C149.236 207.685 147.981 207.69 146.733 207.704C146.189 207.709 145.645 207.716 145.101 207.727C143.454 207.761 141.807 207.828 140.167 207.99C139.348 208.071 138.534 208.183 137.721 208.311C137.366 208.366 137.2 208.392 136.955 208.687C136.75 208.932 136.606 209.227 136.518 209.533C136.377 210.025 136.37 210.545 136.403 211.056C136.444 211.704 136.555 212.356 136.793 212.963C136.908 213.254 137.052 213.534 137.233 213.789C137.322 213.915 137.418 214.041 137.528 214.149C137.681 214.301 137.683 214.287 137.872 214.212C139.23 213.673 140.559 213.532 142.016 213.561C144.823 213.62 147.626 213.982 150.35 214.663C152.125 215.106 153.869 215.685 155.67 216.005C157.073 216.255 158.666 216.26 160.009 215.739C162.426 214.803 162.329 212.134 161.955 210.024Z" fill="#333333"></path><path d="M161.085 217.399C161.072 217.449 161.059 217.499 161.047 217.549C160.948 217.956 160.877 218.374 160.898 218.793C160.951 219.814 161.607 220.595 162.638 220.708C163.263 220.778 163.889 220.639 164.514 220.567C166.193 220.376 167.884 220.673 169.568 220.816C171.253 220.958 173.027 220.927 174.525 220.145C175.308 219.735 176.033 219.045 176.119 218.165C176.132 218.029 176.129 217.889 176.08 217.762C176.006 217.572 175.84 217.436 175.674 217.319C175.066 216.89 174.373 216.598 173.681 216.325C172.902 216.017 172.116 215.728 171.321 215.465C169.928 215.002 168.509 214.617 167.066 214.346C166.346 214.21 165.621 214.104 164.892 214.03C164.575 213.999 164.171 214.038 163.869 213.939C163.648 213.866 163.551 213.625 163.386 213.478C163.014 213.672 162.714 214.094 162.475 214.429C161.836 215.324 161.363 216.336 161.085 217.399Z" fill="#9996FF"></path><path d="M175.894 194.811C175.834 194.036 175.69 193.032 175.054 192.5C174.588 192.109 174.064 191.708 173.466 191.601C173.287 191.52 173.102 191.452 172.915 191.394C170.912 190.777 168.759 191.198 166.689 191.523C163.395 192.041 160.068 192.301 156.743 192.54C154.311 192.715 151.861 192.872 149.425 192.652C148.637 192.581 147.177 192.63 146.703 191.932C146.451 191.561 146.277 191.141 146.194 190.7C146.155 190.49 146.008 189.591 146.21 189.44C144.892 190.423 143.957 191.87 143.446 193.433C143.153 194.331 142.95 195.332 142.895 196.346C142.798 198.1 143.139 199.888 144.201 201.238C145.072 202.344 146.374 203.052 147.733 203.417C149.093 203.781 150.517 203.825 151.924 203.794C156.9 203.682 161.832 202.624 166.475 200.82C166.136 201.552 165.82 202.294 165.55 203.053C165.094 204.334 164.753 205.654 164.413 206.972C163.895 209.013 163.36 211.05 162.834 213.088C162.724 213.512 162.401 214.186 162.442 214.618C162.477 214.988 162.797 215.141 163.116 215.311C163.925 215.745 164.88 215.84 165.783 215.823C166.4 215.81 168.089 215.834 168.493 215.265C168.643 215.055 173.853 202.059 174.865 199.428C175.447 197.914 176.021 196.468 175.894 194.811Z" fill="#424242"></path><path d="M186.264 195.548C186.133 195.25 185.923 194.996 185.715 194.746C185.828 194.724 185.874 194.571 185.829 194.465C185.784 194.358 185.682 194.288 185.584 194.224C185.151 193.94 184.716 193.656 184.283 193.371C184.012 193.194 183.74 193.016 183.444 192.886C183.095 192.734 182.719 192.653 182.343 192.591C181.663 192.478 180.929 192.469 180.265 192.277C179.75 192.128 176.675 189.863 176.201 189.38C174.711 187.864 173.329 186.244 171.819 184.749C170.309 183.253 168.655 181.87 166.75 180.927C166.306 180.708 165.841 180.511 165.348 180.462C165.269 180.454 165.183 180.452 165.116 180.496C165.033 180.551 165.006 180.659 164.989 180.757C164.714 182.309 165.213 184.2 166.211 185.4C166.766 186.068 167.39 186.846 168.104 187.35C168.771 187.82 169.414 188.26 170.048 188.798C170.796 189.431 171.544 190.066 172.292 190.699C173.456 191.685 174.622 192.674 175.884 193.534C177.11 194.371 178.366 195.191 179.704 195.843C180.995 196.471 182.388 196.933 183.733 197.449C184.068 197.578 184.443 197.706 184.774 197.569C184.855 197.535 184.93 197.486 185.015 197.466C185.198 197.422 185.404 197.512 185.573 197.43C185.655 197.39 185.714 197.316 185.77 197.244C185.871 197.113 185.972 196.983 186.073 196.852C186.161 196.74 186.248 196.626 186.306 196.496C186.438 196.197 186.394 195.845 186.264 195.548Z" fill="#FFB78C"></path><path d="M166.661 174.672C166.378 173.576 166.09 172.466 165.53 171.484C164.969 170.501 164.095 169.644 163 169.357C161.566 168.983 160.063 169.639 158.838 170.474C157.683 171.259 156.653 172.212 155.676 173.21C153.527 175.405 151.628 177.829 149.767 180.271C148.744 181.612 147.732 182.959 146.729 184.314C145.81 185.556 144.893 186.812 144.21 188.198C144.023 188.579 143.725 189.107 143.864 189.538C144.01 189.994 144.449 190.459 144.763 190.808C145.475 191.601 146.357 192.236 147.311 192.705C148.831 193.451 150.521 193.792 152.208 193.931C153.122 194.006 154.046 194.024 154.953 193.888C155.749 193.769 156.899 193.575 157.448 192.961C158.119 192.209 160.955 188.821 161.798 187.963C161.85 187.91 161.907 187.855 161.978 187.834C162.086 187.805 162.197 187.862 162.297 187.911C163.179 188.346 164.246 188.318 165.165 187.966C166.083 187.613 166.863 186.961 167.495 186.208C168.192 185.377 168.733 184.396 168.935 183.33C169.07 182.62 169.047 181.874 168.838 181.181C168.635 180.506 168.136 180.044 167.88 179.414C167.623 178.784 167.53 178.039 167.36 177.381C167.127 176.479 166.894 175.575 166.661 174.672Z" fill="#D9D9D9"></path><path d="M164.422 168.684C164.345 168.707 164.255 168.74 164.229 168.817C164.207 168.885 164.245 168.957 164.284 169.018C164.507 169.365 164.798 169.664 165.044 169.996C165.612 170.76 165.934 171.683 166.11 172.619C166.286 173.554 166.322 174.509 166.368 175.459C166.389 175.894 166.448 176.394 166.812 176.633C166.851 176.659 166.895 176.681 166.942 176.681C167.05 176.682 167.121 176.571 167.171 176.475C167.558 175.742 168.055 175.056 168.697 174.532C169.34 174.008 170.138 173.654 170.966 173.623C170.45 172.691 170.37 171.583 170.382 170.517C170.393 169.452 170.482 168.373 170.259 167.33C170.176 166.946 170.044 166.558 169.779 166.269C169.504 165.971 169.094 165.802 168.689 165.821C167.791 165.864 167.35 166.634 166.801 167.208C166.149 167.889 165.325 168.406 164.422 168.684Z" fill="#FFB78C"></path><path d="M175.1 161.51C176.345 161.934 177.373 162.841 178.073 163.941C178.646 164.843 179.074 165.87 178.951 166.953C178.871 167.662 178.695 168.353 178.529 169.044C178.37 169.702 178.13 170.424 177.533 170.742C177.364 170.832 177.165 170.89 177.049 171.042C176.959 171.158 176.934 171.309 176.911 171.453C176.85 171.841 176.788 172.229 176.727 172.617C176.673 172.964 176.548 173.386 176.202 173.448C176.078 173.471 175.951 173.437 175.825 173.422C175.245 173.351 174.689 173.678 174.248 174.061C173.806 174.444 173.417 174.9 172.904 175.181C171.995 175.677 170.762 175.486 170.047 174.735C169.755 174.428 169.549 174.047 169.416 173.646C169.373 173.518 169.336 173.384 169.249 173.281C169.171 173.188 169.062 173.129 168.957 173.069C166.989 171.937 165.936 169.652 165.612 167.406C165.494 166.588 165.461 165.729 165.767 164.961C166.058 164.235 166.626 163.657 167.219 163.145C168.091 162.392 169.069 161.726 170.176 161.407C170.964 161.18 171.793 161.136 172.613 161.15C173.454 161.163 174.304 161.239 175.1 161.51Z" fill="#FFE5CC"></path><path d="M178.806 168.093C178.674 168.303 178.48 168.489 178.192 168.678C177.617 169.054 176.95 169.282 176.292 169.463C175.359 169.721 174.393 169.858 173.473 170.159C172.553 170.46 171.653 170.952 171.105 171.75C170.569 172.529 170.615 173.451 170.216 174.291C170.159 174.411 170.094 174.533 169.985 174.609C169.883 174.68 169.754 174.702 169.63 174.716C167.445 174.981 165.235 173.845 163.87 172.118C162.506 170.391 161.91 168.153 161.834 165.954C161.829 165.795 161.827 165.63 161.892 165.486C161.967 165.319 162.12 165.201 162.268 165.092C163.485 164.193 164.732 163.333 166.006 162.517C167.116 161.805 168.258 161.121 169.506 160.697C171.728 159.943 174.303 160.103 176.278 161.37C177.384 162.08 178.257 163.149 178.748 164.367C179.188 165.461 179.473 167.03 178.806 168.093Z" fill="#733118"></path><path d="M191.801 225.895L172.928 214.998C172.566 214.789 172.611 214.424 173.03 214.182L191.574 203.476C191.992 203.234 192.625 203.208 192.987 203.417L211.86 214.313C212.222 214.523 212.176 214.888 211.758 215.129L193.214 225.836C192.796 226.078 192.163 226.104 191.801 225.895Z" fill="#FFC066"></path><path d="M192.509 215.468L174.469 205.053L192.396 194.703L210.435 205.118L192.509 215.468Z" fill="#F2F2F2"></path><path d="M192.503 214.332L176.438 205.057L192.403 195.839L208.468 205.115L192.503 214.332Z" fill="#E6E6E6"></path><path d="M192.508 224.621V215.468L210.435 205.118V214.271L192.508 224.621Z" fill="#BFBFBF"></path><path d="M174.469 205.053V214.206L192.509 224.621V215.468L174.469 205.053Z" fill="#E6E6E6"></path><path d="M180.354 207.317L179.084 206.588L178.868 203.651L178.418 197.382L179.679 197.994L180.039 202.976L180.354 207.317Z" fill="#4D4D4D"></path><path d="M179.679 197.993L178.414 197.381L194.15 188.297L195.414 188.909L179.679 197.993Z" fill="#737373"></path><path d="M196.776 207.687L189.957 211.623L188.885 212.245L188.795 212.299L188.786 212.182L188.11 211.794L186.84 211.065L186.174 210.677L184.904 209.948L184.228 209.56L182.958 208.821L182.301 208.443L181.022 207.704L180.355 207.317L180.04 202.976L179.68 197.994L195.416 188.905L195.479 189.807L195.578 191.086L195.641 191.986V191.995L195.731 193.274L195.794 194.175L195.893 195.463L195.956 196.355L196.046 197.643L196.073 197.958L196.109 198.544L196.208 199.832L196.776 207.687Z" fill="#1F2125"></path><path d="M182.297 208.443L181.018 207.704L180.649 202.625L180.352 198.535L181.622 199.148L181.82 201.949L182.297 208.443Z" fill="#4D4D4D"></path><path d="M181.616 199.148L180.352 198.536L196.086 189.451L197.352 190.063L181.616 199.148Z" fill="#737373"></path><path d="M198.718 208.84L190.854 213.379L190.052 212.92L188.881 212.245L188.791 212.299L188.782 212.182L188.107 211.794L186.836 211.065L186.17 210.677L184.9 209.948L184.224 209.56L182.954 208.821L182.297 208.443L181.82 201.949L181.621 199.148L195.574 191.086L197.348 190.059L197.412 190.968L197.51 192.247L197.574 193.139L197.664 194.436L197.736 195.328L197.826 196.616L197.889 197.508V197.517L197.988 198.796V198.805L198.006 199.075L198.718 208.84Z" fill="#1F2125"></path><path d="M184.217 209.56L182.946 208.821L182.424 201.598L182.289 199.688L183.55 200.3L183.595 200.922L184.217 209.56Z" fill="#4D4D4D"></path><path d="M183.554 200.302L182.289 199.69L198.024 190.605L199.289 191.217L183.554 200.302Z" fill="#737373"></path><path d="M200.624 209.641L192.499 214.334L190.851 213.379L190.049 212.92L188.878 212.245L188.788 212.299L188.779 212.182L188.103 211.794L186.833 211.065L186.167 210.677L184.897 209.948L184.221 209.56L183.599 200.922L183.555 200.3L195.724 193.274L199.291 191.221L199.354 192.112L199.453 193.4L199.516 194.292V194.301L199.606 195.581L199.669 196.481L199.768 197.769L199.94 200.192L200.624 209.641Z" fill="#1F2125"></path><path d="M186.163 210.677L184.893 209.948L184.227 200.841L185.496 201.453L186.163 210.677Z" fill="#4D4D4D"></path><path d="M185.503 201.456L184.238 200.844L199.973 191.759L201.238 192.371L185.503 201.456Z" fill="#737373"></path><path d="M202.421 208.606L200.628 209.641L192.503 214.334L190.855 213.379L190.053 212.92L188.882 212.245L188.792 212.299L188.783 212.182L188.107 211.794L186.837 211.065L186.171 210.677L185.504 201.453L193.818 196.661L195.89 195.463L197.664 194.436L199.457 193.4L201.241 192.373L201.304 193.265L201.403 194.554L201.466 195.445L201.556 196.742L201.889 201.318L202.421 208.606Z" fill="#1F2125"></path><path d="M188.115 211.794L186.845 211.065L186.188 201.994L187.449 202.606L188.115 211.794Z" fill="#4D4D4D"></path><path d="M187.453 202.61L186.188 201.998L201.923 192.914L203.188 193.526L187.453 202.61Z" fill="#737373"></path><path d="M204.204 207.578L202.421 208.606L200.629 209.641L192.504 214.334L190.855 213.379L190.053 212.92L188.882 212.245L188.792 212.299L188.783 212.182L188.108 211.794L187.441 202.606L195.783 197.796L196.044 197.643L197.827 196.616L199.611 195.581L201.403 194.554L203.178 193.526L203.241 194.418L203.34 195.707V195.715L203.826 202.435L204.204 207.578Z" fill="#1F2125"></path><path d="M190.056 212.92L188.885 212.245L188.795 212.299L188.786 212.182L188.129 203.156L189.39 203.769L189.957 211.623L190.056 212.92Z" fill="#4D4D4D"></path><path d="M189.39 203.764L188.125 203.152L203.86 194.067L205.125 194.68L189.39 203.764Z" fill="#737373"></path><path d="M205.982 206.543L204.208 207.578L202.425 208.606L200.632 209.641L192.507 214.334L190.859 213.379L190.057 212.92L189.958 211.623L189.391 203.769L196.209 199.832L197.768 198.931L197.993 198.805L199.578 197.886L199.776 197.769L201.56 196.742L203.343 195.715L205.127 194.68L205.766 203.552L205.982 206.543Z" fill="#1F2125"></path><path d="M193.829 209.448L196.104 209.662V210.675L192.281 210.341L196.104 205.603V206.616L193.829 209.448Z" fill="#F2F2F2"></path><path d="M197.825 211.065L197.09 211.49C197.816 208.821 198.358 206.821 198.716 205.489L199.528 202.489L200.264 202.065L197.825 211.065Z" fill="#F2F2F2"></path><path d="M203.361 203.945L201.078 203.735V202.732L204.909 203.052L201.078 207.804V206.782L203.361 203.945Z" fill="#F2F2F2"></path><path d="M190.77 205.073C190.674 204.926 190.533 204.814 190.397 204.701C190.009 204.377 189.649 204.019 189.311 203.643C188.628 202.881 188.015 202.021 187.136 201.499C186.474 201.106 179.488 197.602 177.679 196.704C176.651 196.194 175.609 195.709 174.587 195.187C173.392 194.576 172.88 193.425 172.367 192.255C171.837 191.049 171.306 189.839 170.935 188.574C170.605 187.457 170.408 186.306 170.165 185.168C169.93 184.072 169.552 182.993 169.236 181.912C169.031 181.209 168.818 180.498 168.424 179.881C168.144 179.443 167.78 179.064 167.385 178.727C166.882 178.298 166.264 177.917 165.607 177.985C165.308 178.015 165.026 178.138 164.766 178.286C162.987 179.301 162.447 181.278 162.668 183.2C162.877 185.015 163.73 186.682 164.507 188.335C165.263 189.946 165.961 191.585 166.783 193.164C167.192 193.949 167.631 194.718 168.121 195.455C168.851 196.552 169.565 197.471 170.606 198.271C171.153 198.691 171.785 198.982 172.403 199.28C173.208 199.667 180.38 202.181 181.589 202.625C181.72 202.673 181.847 202.735 181.977 202.788C182.103 202.908 182.284 202.955 182.456 203.001C182.594 203.039 182.709 203.107 182.835 203.161C182.967 203.224 183.098 203.289 183.23 203.353C183.421 203.476 183.601 203.615 183.764 203.788C184.105 204.147 184.341 204.587 184.633 204.984C184.797 205.207 184.979 205.42 185.201 205.588C185.51 205.824 185.882 205.964 186.253 206.079C186.669 206.209 187.094 206.312 187.523 206.388C188.129 206.496 188.755 206.549 189.357 206.419C189.82 206.319 190.259 206.11 190.629 205.813C190.712 205.746 190.794 205.672 190.838 205.574C190.911 205.413 190.866 205.22 190.77 205.073Z" fill="#FFE5CC"></path><path d="M162.336 181.199C162.311 181.589 162.329 181.998 162.369 182.441C162.572 184.708 163.291 186.906 164.248 188.971C164.338 189.166 164.435 189.365 164.595 189.507C164.809 189.698 165.133 189.679 165.403 189.707C166.443 189.814 167.495 189.538 168.436 189.081C169.377 188.625 170.221 187.994 171.048 187.353C171.112 187.304 171.178 187.252 171.21 187.177C171.248 187.09 171.233 186.991 171.216 186.898C170.913 185.235 170.427 183.609 169.815 182.034C169.414 181.003 168.949 179.978 168.227 179.14C167.69 178.517 166.994 178.001 166.202 177.757C164.092 177.108 162.459 179.296 162.336 181.199Z" fill="#F2F2F2"></path><path d="M155.212 137.516L149.312 140.945C149.333 140.934 149.352 140.919 149.369 140.901L155.269 137.473C155.252 137.49 155.233 137.505 155.212 137.516Z" fill="#4D4BB7"></path><path d="M141.508 124.381L147.407 120.953C147.469 120.916 147.548 120.904 147.638 120.922L141.738 124.351C141.648 124.333 141.57 124.345 141.508 124.381Z" fill="#4D4BB7"></path><path d="M150.625 139.642L156.524 136.213L155.267 137.473L149.367 140.901L150.625 139.642Z" fill="#4D4BB7"></path><path d="M141.734 124.352L147.634 120.923L149.663 121.338L143.764 124.767L141.734 124.352Z" fill="#4D4BB7"></path><path d="M163.728 144.309L157.828 147.738C157.93 147.679 157.993 147.552 157.994 147.37L163.893 143.941C163.893 144.123 163.83 144.25 163.728 144.309Z" fill="#4D4BB7"></path><path d="M158.011 144.926L163.911 141.497L163.904 143.941L158.004 147.37L158.011 144.926Z" fill="#4D4BB7"></path><path d="M142.613 115.109L148.513 111.68C148.62 111.618 148.766 111.631 148.919 111.72C148.979 111.755 149.039 111.8 149.099 111.857L143.2 115.285C143.14 115.228 143.08 115.183 143.02 115.148C142.866 115.061 142.72 115.047 142.613 115.109Z" fill="#4D4BB7"></path><path d="M143.203 115.286L149.102 111.858L151.123 113.78L145.224 117.209L143.203 115.286Z" fill="#4D4BB7"></path><path d="M149.745 119.742L155.645 116.314C154.133 117.192 153.196 119.06 153.188 121.715C153.173 127.067 156.936 133.585 161.594 136.273L155.694 139.702C151.036 137.013 147.274 130.495 147.289 125.144C147.296 122.488 148.233 120.621 149.745 119.742Z" fill="#4D4BB7"></path><path d="M167.587 136.86L161.688 140.288C160.154 141.179 158.032 141.054 155.691 139.702L161.591 136.273C163.933 137.625 166.055 137.75 167.587 136.86Z" fill="#4D4BB7"></path><path d="M171.595 144.608L165.695 148.036C165.89 147.923 165.925 147.584 165.756 147.216L171.656 143.788C171.825 144.154 171.79 144.494 171.595 144.608Z" fill="#4D4BB7"></path><path d="M164.512 144.512L170.411 141.084L171.661 143.787L165.762 147.216L164.512 144.512Z" fill="#4D4BB7"></path><path d="M166.214 142.824L172.114 139.396C171.638 140.088 171.066 140.65 170.412 141.084L164.512 144.513C165.166 144.078 165.738 143.516 166.214 142.824Z" fill="#4D4BB7"></path><path d="M149.445 111.845L155.345 108.416L156.592 111.118L150.692 114.546L149.445 111.845Z" fill="#4D4BB7"></path><path d="M154.887 107.878C154.77 107.81 154.651 107.784 154.549 107.811L151.702 108.54C151.676 108.547 151.652 108.556 151.63 108.569L145.73 111.998C145.752 111.985 145.776 111.976 145.802 111.969L148.649 111.24C148.751 111.212 148.87 111.239 148.987 111.307C149.163 111.408 149.335 111.601 149.447 111.845L155.347 108.416C155.235 108.173 155.063 107.98 154.887 107.878Z" fill="#9996FF"></path><path d="M174.716 141.491L168.816 144.919C168.877 144.883 168.926 144.824 168.954 144.74L174.854 141.311C174.825 141.395 174.778 141.455 174.716 141.491Z" fill="#4D4BB7"></path><path d="M150.695 114.546L156.595 111.118C157.455 111.158 158.369 111.338 159.327 111.677L153.427 115.105C152.468 114.766 151.555 114.586 150.695 114.546Z" fill="#4D4BB7"></path><path d="M170.049 141.529L175.948 138.101L174.849 141.311L168.949 144.74L170.049 141.529Z" fill="#4D4BB7"></path><path d="M175.581 137.058L173.556 135.133L167.656 138.562L169.681 140.487C169.983 140.775 170.146 141.238 170.049 141.53L175.949 138.101C176.046 137.81 175.883 137.346 175.581 137.058Z" fill="#9996FF"></path><path d="M167.666 135.263L173.566 131.835C173.621 132.408 173.65 132.978 173.649 133.531C173.647 134.092 173.615 134.628 173.556 135.134L167.656 138.563C167.715 138.056 167.747 137.521 167.748 136.96C167.75 136.406 167.721 135.835 167.666 135.263Z" fill="#4D4BB7"></path><path d="M158.074 117.791L163.974 114.363C164.932 115.131 165.843 116.004 166.705 116.958L160.805 120.387C159.943 119.432 159.032 118.559 158.074 117.791Z" fill="#4D4BB7"></path><path d="M158.081 115.343L163.981 111.915L163.974 114.363L158.074 117.791L158.081 115.343Z" fill="#4D4BB7"></path><path d="M163.413 110.926L159.905 108.901C159.746 108.809 159.601 108.8 159.498 108.861L153.598 112.289C153.702 112.229 153.846 112.238 154.006 112.329L157.514 114.355C157.831 114.538 158.086 114.979 158.084 115.343L163.984 111.915C163.984 111.551 163.729 111.109 163.413 110.926Z" fill="#9996FF"></path><path d="M164.562 125.703L170.462 122.274C171.113 123.458 171.679 124.682 172.15 125.92L166.25 129.349C165.78 128.11 165.213 126.887 164.562 125.703Z" fill="#4D4BB7"></path><path d="M175.833 132.22L169.934 135.649C170.08 135.564 170.141 135.345 170.075 135.064L175.975 131.635C176.041 131.917 175.98 132.135 175.833 132.22Z" fill="#4D4BB7"></path><path d="M168.996 130.598L174.895 127.169L175.972 131.635L170.073 135.063L168.996 130.598Z" fill="#4D4BB7"></path><path d="M174.353 126.403C174.294 126.369 174.234 126.345 174.175 126.334L172.15 125.921L166.25 129.349L168.275 129.763C168.334 129.774 168.394 129.798 168.453 129.832C168.693 129.97 168.916 130.276 168.992 130.598L174.891 127.169C174.816 126.846 174.593 126.541 174.353 126.403Z" fill="#9996FF"></path><path d="M165.824 124.45L171.724 121.021L170.462 122.274L164.562 125.703L165.824 124.45Z" fill="#4D4BB7"></path><path d="M169.679 140.487C169.981 140.775 170.143 141.238 170.047 141.53L168.948 144.74C168.87 144.971 168.645 145.02 168.405 144.881C168.347 144.847 168.287 144.802 168.23 144.747L166.209 142.824C165.733 143.516 165.161 144.078 164.506 144.512L165.757 147.216C165.943 147.622 165.881 147.994 165.628 148.064L162.777 148.791C162.677 148.819 162.56 148.792 162.443 148.724C162.267 148.623 162.092 148.428 161.98 148.186L160.737 145.482C159.873 145.444 158.96 145.264 158.001 144.926L157.994 147.37C157.993 147.738 157.737 147.88 157.42 147.697L153.912 145.671C153.594 145.488 153.34 145.051 153.341 144.683L153.348 142.24C152.39 141.472 151.479 140.598 150.621 139.642L149.363 140.902C149.25 141.014 149.076 141.007 148.9 140.906C148.783 140.839 148.666 140.73 148.565 140.586L145.731 136.578C145.476 136.215 145.416 135.772 145.604 135.581L146.865 134.328C146.214 133.14 145.648 131.921 145.181 130.684L143.156 130.271C143.097 130.26 143.037 130.235 142.978 130.201C142.736 130.062 142.512 129.753 142.436 129.433L141.359 124.967C141.264 124.565 141.429 124.291 141.731 124.351L143.76 124.768C143.708 124.197 143.675 123.625 143.677 123.063C143.678 122.511 143.714 121.977 143.769 121.469L141.744 119.544C141.442 119.256 141.279 118.793 141.376 118.501L142.474 115.291C142.552 115.057 142.776 115.011 143.017 115.15C143.077 115.184 143.137 115.23 143.197 115.286L145.218 117.209C145.69 116.515 146.262 115.949 146.916 115.518L145.666 112.815C145.48 112.408 145.542 112.035 145.798 111.968L148.645 111.239C148.747 111.212 148.866 111.238 148.983 111.306C149.158 111.407 149.331 111.601 149.442 111.844L150.689 114.546C151.549 114.585 152.463 114.765 153.422 115.104L153.428 112.656C153.429 112.292 153.686 112.146 154.002 112.329L157.51 114.354C157.828 114.537 158.082 114.979 158.081 115.343L158.074 117.79C159.032 118.558 159.943 119.432 160.805 120.386L162.059 119.128C162.171 119.014 162.346 119.021 162.521 119.122C162.638 119.19 162.756 119.299 162.857 119.444L165.694 123.455C165.945 123.815 166.005 124.259 165.817 124.449L164.556 125.702C165.206 126.886 165.772 128.11 166.243 129.348L168.269 129.761C168.328 129.773 168.388 129.797 168.447 129.83C168.686 129.969 168.91 130.274 168.986 130.596L170.063 135.063C170.157 135.465 169.992 135.739 169.69 135.678L167.661 135.262C167.716 135.835 167.745 136.405 167.744 136.958C167.743 137.519 167.71 138.054 167.652 138.561L169.679 140.487ZM155.687 139.702C160.34 142.389 164.128 140.23 164.143 134.878C164.158 129.532 160.395 123.018 155.742 120.331C151.085 117.642 147.297 119.796 147.282 125.144C147.266 130.495 151.029 137.013 155.687 139.702Z" fill="#6865F7"></path><path d="M171.601 120.027L168.764 116.016C168.664 115.871 168.546 115.762 168.429 115.694C168.281 115.608 168.135 115.59 168.025 115.654L162.125 119.083C162.235 119.019 162.381 119.037 162.529 119.123C162.646 119.19 162.764 119.3 162.864 119.445L165.702 123.456C165.953 123.816 166.013 124.259 165.825 124.449L171.725 121.021C171.913 120.831 171.853 120.387 171.601 120.027Z" fill="#9996FF"></path><path d="M174.156 143.454L180.056 140.025C180.072 140.017 180.089 140.009 180.107 140.004L174.207 143.433C174.189 143.438 174.172 143.445 174.156 143.454Z" fill="#4D4BB7"></path><path d="M187.544 150.796L181.645 154.224C181.688 154.199 181.722 154.157 181.743 154.096L187.643 150.668C187.622 150.727 187.588 150.77 187.544 150.796Z" fill="#4D4BB7"></path><path d="M174.207 143.433L180.107 140.004L181.343 139.686L175.443 143.114L174.207 143.433Z" fill="#4D4BB7"></path><path d="M182.221 152.7L188.12 149.272L187.646 150.668L181.746 154.096L182.221 152.7Z" fill="#4D4BB7"></path><path d="M173.004 135.767L178.903 132.338C178.978 132.295 179.083 132.302 179.199 132.369L173.299 135.798C173.184 135.73 173.078 135.724 173.004 135.767Z" fill="#4D4BB7"></path><path d="M173.301 135.798L179.201 132.369L180.724 133.248L174.824 136.677L173.301 135.798Z" fill="#4D4BB7"></path><path d="M193.708 153.462L187.809 156.891C187.913 156.83 187.956 156.674 187.909 156.471L193.809 153.042C193.856 153.245 193.812 153.402 193.708 153.462Z" fill="#4D4BB7"></path><path d="M187.445 154.538L193.345 151.109L193.81 153.042L187.91 156.471L187.445 154.538Z" fill="#4D4BB7"></path><path d="M193.443 147.395L187.543 150.823C186.447 151.461 184.928 151.372 183.254 150.405L189.153 146.977C190.828 147.943 192.346 148.032 193.443 147.395Z" fill="#4D4BB7"></path><path d="M178.998 136.114L184.898 132.685C183.815 133.315 183.143 134.653 183.138 136.556C183.127 140.385 185.821 145.052 189.153 146.976L183.254 150.404C179.922 148.48 177.227 143.814 177.238 139.984C177.243 138.082 177.915 136.744 178.998 136.114Z" fill="#4D4BB7"></path><path d="M175.668 130.832L181.567 127.403C181.646 127.357 181.753 127.37 181.86 127.431C181.943 127.479 182.027 127.557 182.099 127.66L176.199 131.088C176.127 130.986 176.043 130.908 175.96 130.86C175.854 130.798 175.747 130.785 175.668 130.832Z" fill="#9996FF"></path><path d="M196.767 152.676L190.867 156.105C190.882 156.096 190.896 156.086 190.908 156.073L196.808 152.645C196.796 152.657 196.782 152.668 196.767 152.676Z" fill="#4D4BB7"></path><path d="M176.207 131.088L182.107 127.66L183.337 129.403L177.437 132.831L176.207 131.088Z" fill="#4D4BB7"></path><path d="M177.438 132.831L183.337 129.403C183.843 129.158 184.401 129.011 185.002 128.971L179.102 132.4C178.502 132.439 177.943 132.587 177.438 132.831Z" fill="#4D4BB7"></path><path d="M192.398 154.588L198.298 151.16L196.814 152.645L190.914 156.074L192.398 154.588Z" fill="#4D4BB7"></path><path d="M198.208 150.453L196.978 148.711L191.078 152.14L192.308 153.882C192.491 154.142 192.532 154.46 192.398 154.588L198.298 151.16C198.432 151.032 198.39 150.713 198.208 150.453Z" fill="#9996FF"></path><path d="M191.718 150.26L197.618 146.831C197.482 147.543 197.266 148.17 196.978 148.711L191.078 152.14C191.366 151.599 191.582 150.972 191.718 150.26Z" fill="#4D4BB7"></path><path d="M181.809 131.111L187.708 127.682L188.173 129.62L182.274 133.049L181.809 131.111Z" fill="#4D4BB7"></path><path d="M187.318 127.132C187.275 127.107 187.232 127.09 187.189 127.082L184.797 126.593C184.733 126.581 184.678 126.589 184.634 126.615L178.734 130.043C178.778 130.018 178.834 130.009 178.897 130.021L181.29 130.51C181.332 130.518 181.376 130.535 181.418 130.56C181.59 130.659 181.75 130.879 181.804 131.111L187.704 127.683C187.65 127.45 187.49 127.231 187.318 127.132Z" fill="#9996FF"></path><path d="M199.431 147.74L193.531 151.168C193.604 151.126 193.65 151.036 193.65 150.907L199.55 147.479C199.55 147.607 199.504 147.698 199.431 147.74Z" fill="#4D4BB7"></path><path d="M182.273 133.049L188.173 129.62C188.513 129.772 188.853 129.938 189.204 130.14C189.551 130.341 189.891 130.568 190.231 130.808L184.331 134.237C183.992 133.997 183.652 133.77 183.304 133.569C182.953 133.366 182.613 133.201 182.273 133.049Z" fill="#4D4BB7"></path><path d="M191.098 143.823L196.998 140.394C197.282 141.266 197.494 142.139 197.624 143.006L191.725 146.435C191.593 145.567 191.382 144.694 191.098 143.823Z" fill="#4D4BB7"></path><path d="M193.664 148.021L199.564 144.593L199.556 147.479L193.656 150.907L193.664 148.021Z" fill="#4D4BB7"></path><path d="M199.153 143.885L197.63 143.006L191.73 146.435L193.253 147.314C193.482 147.446 193.665 147.758 193.664 148.022L199.564 144.593C199.565 144.329 199.382 144.017 199.153 143.885Z" fill="#9996FF"></path><path d="M187.496 137.246L193.396 133.817C193.994 134.549 194.55 135.34 195.052 136.166L189.153 139.595C188.65 138.769 188.094 137.978 187.496 137.246Z" fill="#4D4BB7"></path><path d="M187.97 135.854L193.87 132.426L193.396 133.817L187.496 137.246L187.97 135.854Z" fill="#4D4BB7"></path><path d="M193.61 131.677L191.223 129.407C191.18 129.366 191.137 129.333 191.094 129.308C190.986 129.246 190.882 129.236 190.806 129.28L184.906 132.708C184.982 132.664 185.086 132.674 185.194 132.736C185.237 132.761 185.28 132.794 185.323 132.835L187.71 135.105C187.924 135.312 188.042 135.643 187.972 135.854L193.871 132.425C193.941 132.216 193.824 131.884 193.61 131.677Z" fill="#9996FF"></path><path d="M189.152 139.595L195.052 136.166L196.288 135.848L190.389 139.276L189.152 139.595Z" fill="#4D4BB7"></path><path d="M193.253 147.314C193.482 147.446 193.664 147.758 193.663 148.022L193.655 150.908C193.655 151.167 193.471 151.271 193.242 151.139L191.719 150.26C191.583 150.973 191.367 151.6 191.079 152.14L192.309 153.883C192.492 154.142 192.534 154.46 192.399 154.589L190.916 156.074C190.834 156.155 190.709 156.15 190.582 156.077C190.499 156.029 190.415 155.951 190.343 155.848L189.113 154.106C188.607 154.35 188.049 154.498 187.448 154.538L187.913 156.471C187.981 156.761 187.862 156.956 187.648 156.911L185.256 156.426C185.214 156.418 185.172 156.401 185.131 156.377C184.958 156.277 184.796 156.056 184.741 155.826L184.276 153.888C183.936 153.735 183.597 153.566 183.25 153.365C182.899 153.162 182.559 152.94 182.219 152.699L181.745 154.095C181.689 154.261 181.526 154.294 181.353 154.195C181.312 154.171 181.27 154.139 181.229 154.1L178.842 151.826C178.628 151.623 178.51 151.292 178.58 151.082L179.054 149.69C178.456 148.958 177.9 148.167 177.398 147.341L176.162 147.66C176.089 147.679 176.005 147.66 175.922 147.612C175.794 147.538 175.67 147.398 175.589 147.224L174.118 144.033C173.985 143.75 174.028 143.48 174.212 143.432L175.448 143.113C175.164 142.242 174.952 141.368 174.82 140.501L173.297 139.622C173.068 139.49 172.886 139.173 172.887 138.915L172.895 136.028C172.896 135.765 173.079 135.665 173.308 135.797L174.831 136.676C174.967 135.964 175.183 135.337 175.471 134.796L174.241 133.053C174.058 132.794 174.017 132.476 174.151 132.342L175.635 130.861C175.716 130.781 175.842 130.785 175.968 130.859C176.052 130.907 176.136 130.984 176.208 131.087L177.438 132.83C177.943 132.586 178.502 132.438 179.102 132.398L178.638 130.464C178.57 130.175 178.688 129.98 178.903 130.02L181.295 130.509C181.338 130.517 181.381 130.534 181.424 130.559C181.595 130.658 181.755 130.878 181.809 131.109L182.274 133.047C182.614 133.2 182.954 133.365 183.305 133.568C183.653 133.768 183.992 133.995 184.332 134.235L184.806 132.839C184.862 132.671 185.023 132.636 185.194 132.735C185.237 132.76 185.28 132.793 185.323 132.834L187.71 135.104C187.923 135.311 188.041 135.642 187.972 135.853L187.497 137.245C188.096 137.977 188.651 138.767 189.154 139.594L190.39 139.274C190.462 139.255 190.546 139.275 190.63 139.323C190.757 139.396 190.882 139.537 190.963 139.711L192.433 142.898C192.566 143.185 192.523 143.455 192.34 143.503L191.104 143.822C191.388 144.694 191.6 145.567 191.731 146.434L193.253 147.314ZM183.256 150.405C186.585 152.327 189.297 150.781 189.307 146.952C189.318 143.123 186.624 138.456 183.296 136.535C179.963 134.611 177.251 136.156 177.241 139.985C177.23 143.815 179.923 148.48 183.256 150.405Z" fill="#6865F7"></path><path d="M198.326 139.47L196.855 136.283C196.775 136.11 196.65 135.97 196.523 135.896C196.439 135.848 196.356 135.829 196.283 135.848L190.383 139.276C190.455 139.257 190.539 139.277 190.623 139.325C190.75 139.398 190.875 139.539 190.956 139.713L192.426 142.9C192.546 143.159 192.523 143.403 192.384 143.484L198.283 140.055C198.423 139.973 198.445 139.729 198.326 139.47Z" fill="#9996FF"></path><path fill-rule="evenodd" clip-rule="evenodd" d="M347.906 196.593V195.463L346.336 194.557V195.687L347.906 196.593Z" fill="#231F20"></path><path fill-rule="evenodd" clip-rule="evenodd" d="M350.723 198.219V197.09L349.152 196.183V197.313L350.723 198.219Z" fill="#231F20"></path><path fill-rule="evenodd" clip-rule="evenodd" d="M353.691 199.917L353.215 198.529L351.848 197.74L352.018 198.968C352.578 199.291 353.141 199.62 353.691 199.917Z" fill="#231F20"></path><path fill-rule="evenodd" clip-rule="evenodd" d="M339.441 191.708V190.579L337.871 189.672V190.802L339.441 191.708Z" fill="#231F20"></path><path fill-rule="evenodd" clip-rule="evenodd" d="M342.258 193.335V192.205L340.688 191.298V192.428L342.258 193.335Z" fill="#231F20"></path><path fill-rule="evenodd" clip-rule="evenodd" d="M345.066 194.956V193.826L343.496 192.92V194.049L345.066 194.956Z" fill="#231F20"></path><path fill-rule="evenodd" clip-rule="evenodd" d="M331.661 184.999L332.601 184.852L332.597 183.281L331.613 183.074C331.616 183.718 331.629 184.36 331.661 184.999Z" fill="#231F20"></path><path fill-rule="evenodd" clip-rule="evenodd" d="M333.604 188.291L334.196 187.55C333.739 187.282 333.29 186.782 332.993 186.213L332.164 186.646C332.527 187.335 333.061 187.946 333.604 188.291Z" fill="#231F20"></path><path fill-rule="evenodd" clip-rule="evenodd" d="M336.587 190.06L336.643 188.962L335.275 188.173L334.906 189.087L336.587 190.06Z" fill="#231F20"></path><path fill-rule="evenodd" clip-rule="evenodd" d="M331.613 175.04L332.597 175.608V173.806L331.613 173.238V175.04Z" fill="#231F20"></path><path fill-rule="evenodd" clip-rule="evenodd" d="M331.613 178.272L332.597 178.841V177.038L331.613 176.47V178.272Z" fill="#231F20"></path><path fill-rule="evenodd" clip-rule="evenodd" d="M331.613 181.518L332.597 182.017V180.26L331.613 179.691V181.518Z" fill="#231F20"></path><path fill-rule="evenodd" clip-rule="evenodd" d="M331.613 165.332L332.597 165.901V164.265L331.613 163.438V165.332Z" fill="#231F20"></path><path fill-rule="evenodd" clip-rule="evenodd" d="M331.613 168.564L332.597 169.132V167.33L331.613 166.762V168.564Z" fill="#231F20"></path><path fill-rule="evenodd" clip-rule="evenodd" d="M331.613 171.785L332.597 172.354V170.552L331.613 169.984V171.785Z" fill="#231F20"></path><path fill-rule="evenodd" clip-rule="evenodd" d="M335.785 161.184L335.991 162.432L337.428 163.262V162.132L335.785 161.184Z" fill="#231F20"></path><path fill-rule="evenodd" clip-rule="evenodd" d="M332.84 159.758L333.554 161.191C333.974 161.199 334.451 161.564 334.901 161.806L334.451 160.429C333.904 160.149 333.344 159.755 332.84 159.758Z" fill="#231F20"></path><path fill-rule="evenodd" clip-rule="evenodd" d="M331.629 161.9L332.599 163.001C332.601 162.74 332.593 162.475 332.604 162.219C332.617 161.966 332.679 161.745 332.786 161.575L331.909 160.228C331.776 160.429 331.693 160.687 331.665 160.982C331.642 161.278 331.639 161.589 331.629 161.9Z" fill="#231F20"></path><path fill-rule="evenodd" clip-rule="evenodd" d="M344.32 166.11V167.24L345.891 168.146V167.017L344.32 166.11Z" fill="#231F20"></path><path fill-rule="evenodd" clip-rule="evenodd" d="M341.5 164.484V165.613L343.07 166.52V165.39L341.5 164.484Z" fill="#231F20"></path><path fill-rule="evenodd" clip-rule="evenodd" d="M338.695 162.863V163.993L340.266 164.9V163.77L338.695 162.863Z" fill="#231F20"></path><path fill-rule="evenodd" clip-rule="evenodd" d="M352.897 171.064L352.562 171.999C353.018 172.266 353.474 172.516 353.93 172.798L354.546 172.081C354.007 171.721 353.456 171.395 352.897 171.064Z" fill="#231F20"></path><path fill-rule="evenodd" clip-rule="evenodd" d="M349.961 169.369V170.498L351.476 171.373L351.561 170.293L349.961 169.369Z" fill="#231F20"></path><path fill-rule="evenodd" clip-rule="evenodd" d="M347.156 167.748V168.877L348.727 169.784V168.655L347.156 167.748Z" fill="#231F20"></path><path fill-rule="evenodd" clip-rule="evenodd" d="M356.375 180.367L355.391 179.799V181.601L356.375 182.169V180.367Z" fill="#231F20"></path><path fill-rule="evenodd" clip-rule="evenodd" d="M356.373 176.994L355.391 176.824V178.393L356.375 178.925L356.373 176.994Z" fill="#231F20"></path><path fill-rule="evenodd" clip-rule="evenodd" d="M355.72 173.423L354.91 173.89C355.24 174.445 355.411 175.076 355.393 175.588L356.342 175.48C356.338 174.856 356.119 174.098 355.72 173.423Z" fill="#231F20"></path><path fill-rule="evenodd" clip-rule="evenodd" d="M356.375 190.075L355.391 189.507V191.309L356.375 191.877V190.075Z" fill="#231F20"></path><path fill-rule="evenodd" clip-rule="evenodd" d="M356.375 186.843L355.391 186.275V188.077L356.375 188.645V186.843Z" fill="#231F20"></path><path fill-rule="evenodd" clip-rule="evenodd" d="M356.375 183.622L355.391 183.054V184.856L356.375 185.424V183.622Z" fill="#231F20"></path><path fill-rule="evenodd" clip-rule="evenodd" d="M356.163 199.89L355.268 198.564C355.097 198.951 354.735 199.131 354.305 199.054L354.994 200.488C355.508 200.563 355.944 200.344 356.163 199.89Z" fill="#231F20"></path><path fill-rule="evenodd" clip-rule="evenodd" d="M356.375 196.63L355.391 195.839V197.408L356.356 198.537C356.375 197.919 356.375 197.274 356.375 196.63Z" fill="#231F20"></path><path fill-rule="evenodd" clip-rule="evenodd" d="M356.375 193.33L355.391 192.762V194.563L356.375 195.132V193.33Z" fill="#231F20"></path><path d="M352.116 202.689L337.621 194.32C337.346 194.161 337.095 194.146 336.914 194.252L334.547 195.628C334.729 195.522 334.979 195.537 335.254 195.696L349.75 204.065C350.3 204.383 350.742 205.148 350.74 205.78L350.692 222.437C350.692 222.746 350.582 222.964 350.405 223.067L352.772 221.691C352.949 221.588 353.059 221.37 353.06 221.061L353.107 204.404C353.109 203.772 352.667 203.007 352.116 202.689Z" fill="#4D4D4D"></path><path d="M349.751 204.065C350.302 204.383 350.744 205.148 350.741 205.78L350.694 222.437C350.692 223.061 350.247 223.314 349.697 222.997L335.201 214.628C334.658 214.314 334.209 213.545 334.211 212.92L334.258 196.263C334.26 195.631 334.712 195.381 335.255 195.695L349.751 204.065Z" fill="black"></path><path d="M352.116 174.32L337.621 165.951C337.346 165.792 337.095 165.778 336.914 165.883L334.547 167.259C334.729 167.153 334.979 167.168 335.254 167.327L349.75 175.696C350.3 176.014 350.742 176.779 350.74 177.411L350.692 194.068C350.692 194.377 350.582 194.595 350.405 194.698L352.772 193.322C352.949 193.219 353.059 193.001 353.06 192.692L353.107 176.035C353.109 175.402 352.667 174.638 352.116 174.32Z" fill="#7981F2"></path><path d="M349.751 175.695C350.302 176.013 350.744 176.778 350.741 177.41L350.694 194.067C350.692 194.691 350.247 194.945 349.697 194.627L335.201 186.258C334.658 185.944 334.209 185.175 334.211 184.551L334.258 167.893C334.26 167.261 334.712 167.012 335.255 167.325L349.751 175.695Z" fill="#4D4BB7"></path><path d="M352.116 145.95L337.621 137.581C337.346 137.423 337.095 137.408 336.914 137.514L334.547 138.889C334.729 138.784 334.979 138.799 335.254 138.957L349.75 147.326C350.3 147.644 350.742 148.409 350.74 149.042L350.692 165.699C350.692 166.008 350.582 166.226 350.405 166.329L352.772 164.953C352.949 164.85 353.059 164.632 353.06 164.323L353.107 147.666C353.109 147.033 352.667 146.268 352.116 145.95Z" fill="white"></path><path d="M349.751 147.326C350.302 147.644 350.744 148.409 350.741 149.042L350.694 165.699C350.692 166.323 350.247 166.577 349.697 166.259L335.201 157.89C334.658 157.576 334.209 156.807 334.211 156.182L334.258 139.525C334.26 138.893 334.712 138.643 335.255 138.957L349.751 147.326Z" fill="#E6E6E6"></path><path d="M352.116 119.363L337.621 110.994C337.346 110.835 337.095 110.82 336.914 110.926L334.547 112.302C334.729 112.196 334.979 112.211 335.254 112.369L349.75 120.738C350.3 121.056 350.742 121.821 350.74 122.454L350.692 139.11C350.692 139.419 350.582 139.638 350.405 139.741L352.772 138.365C352.949 138.262 353.059 138.044 353.06 137.735L353.107 121.078C353.109 120.446 352.667 119.68 352.116 119.363Z" fill="#ADDAFF"></path><path d="M349.751 120.738C350.302 121.056 350.744 121.821 350.741 122.454L350.694 139.111C350.692 139.735 350.247 139.989 349.697 139.671L335.201 131.302C334.658 130.988 334.209 130.219 334.211 129.595L334.258 112.937C334.26 112.305 334.712 112.056 335.255 112.369L349.751 120.738Z" fill="#80C5FF"></path><path d="M348.271 233.877L334.922 226.164C334.083 225.68 334.188 224.834 335.156 224.275L336.457 223.527C337.424 222.968 338.889 222.908 339.728 223.392L353.077 231.105C353.915 231.589 353.81 232.434 352.842 232.993L351.542 233.741C350.574 234.3 349.109 234.361 348.271 233.877Z" fill="#FFC066"></path></svg>