<svg xmlns="http://www.w3.org/2000/svg" width="500" height="300" viewBox="0 0 500 300" fill="none"><g clip-path="url(#clip0_2332_354)"><rect width="500" height="300" fill="white"></rect><path opacity="0.38" d="M119.82 46.0438V31.8821H110.845C110.241 29.6588 109.358 27.5511 108.238 25.5965L114.586 19.2476L104.573 9.23402L98.224 15.5829C96.2686 14.4629 94.1616 13.5798 91.9384 12.9756V4H77.7766V12.9749C75.5534 13.5791 73.4457 14.4622 71.491 15.5822L65.1421 9.23337L55.1279 19.2476L61.4768 25.5965C60.3568 27.5518 59.4737 29.6588 58.8694 31.8821H49.8945V46.0438H58.8694C59.4737 48.2671 60.3568 50.3748 61.4768 52.3294L55.1279 58.6783L65.1415 68.6919L71.4903 62.343C73.4457 63.463 75.5527 64.3461 77.7759 64.9503V73.9253H91.9377V64.9503C94.161 64.3461 96.2686 63.463 98.2233 62.343L104.572 68.6919L114.586 58.6783L108.237 52.3294C109.357 50.3741 110.24 48.2671 110.844 46.0438H119.82ZM84.8575 52.199C77.5474 52.199 71.6214 46.273 71.6214 38.9623C71.6214 31.6522 77.5474 25.7256 84.8575 25.7256C92.1675 25.7256 98.0942 31.6516 98.0942 38.9623C98.0936 46.273 92.1675 52.199 84.8575 52.199Z" fill="#8FCEFD"></path><path opacity="0.38" d="M472.003 268.478V256.137H464.181C463.654 254.2 462.886 252.363 461.909 250.659L467.441 245.127L458.715 236.401L453.183 241.933C451.479 240.957 449.642 240.187 447.705 239.661V231.84H435.364V239.661C433.427 240.187 431.591 240.956 429.886 241.933L424.354 236.401L415.628 245.127L421.16 250.659C420.184 252.363 419.414 254.199 418.888 256.137H411.066V268.478H418.888C419.414 270.415 420.183 272.252 421.16 273.955L415.628 279.488L424.354 288.214L429.886 282.682C431.59 283.658 433.427 284.427 435.364 284.954V292.775H447.705V284.954C449.642 284.427 451.479 283.658 453.183 282.682L458.715 288.214L467.441 279.488L461.909 273.955C462.885 272.252 463.654 270.415 464.181 268.478H472.003ZM441.535 273.842C435.165 273.842 430.001 268.677 430.001 262.307C430.001 255.937 435.165 250.773 441.535 250.773C447.906 250.773 453.07 255.937 453.07 262.307C453.07 268.677 447.905 273.842 441.535 273.842Z" fill="#8FCEFD"></path><path opacity="0.38" d="M466.919 45.3938H28V255.231H466.919V45.3938Z" fill="#8FCEFD"></path><path d="M116.428 101.467H113.636V92.1952H63.5892V101.467H60.7966C56.0118 101.467 52.1328 105.346 52.1328 110.131V254.895H125.093V110.131C125.092 105.346 121.214 101.467 116.428 101.467Z" fill="#59C2FC"></path><path d="M112.901 106.016H110.463V97.0193H66.7643V106.016H64.3261C60.1482 106.016 56.7617 109.78 56.7617 114.423V254.895H120.466V114.423C120.465 109.78 117.079 106.016 112.901 106.016Z" fill="#202060"></path><path d="M113.033 117.849H64.1914V135.641H113.033V117.849Z" fill="url(#paint0_linear_2332_354)"></path><path d="M113.033 146.268H64.1914V164.06H113.033V146.268Z" fill="url(#paint1_linear_2332_354)"></path><path d="M113.033 174.687H64.1914V192.479H113.033V174.687Z" fill="url(#paint2_linear_2332_354)"></path><path d="M113.033 203.106H64.1914V254.896H113.033V203.106Z" fill="url(#paint3_linear_2332_354)"></path><path d="M79.6263 221.226C82.2017 218.65 82.2017 214.475 79.6263 211.899C77.0509 209.324 72.8753 209.324 70.2999 211.899C67.7245 214.475 67.7245 218.65 70.2999 221.226C72.8753 223.801 77.0509 223.801 79.6263 221.226Z" fill="white"></path><path d="M81.3958 240.121C82.2292 236.576 80.0304 233.026 76.4847 232.192C72.939 231.359 69.3891 233.558 68.5558 237.104C67.7224 240.649 69.9212 244.199 73.4669 245.032C77.0126 245.866 80.5625 243.667 81.3958 240.121Z" fill="white"></path><path d="M113.032 181.58H72.8789V186.925H113.032V181.58Z" fill="#9F88FA"></path><path d="M113.032 153.1H72.8789V158.445H113.032V153.1Z" fill="#9F88FA"></path><path d="M113.032 124.621H72.8789V129.966H113.032V124.621Z" fill="#9F88FA"></path><path d="M331.268 218.398C338.636 218.398 344.608 212.302 344.608 204.781V106.86C344.608 99.3399 338.635 93.2434 331.268 93.2434H163.648C156.281 93.2434 150.309 99.3399 150.309 106.86V204.781C150.309 212.302 156.281 218.398 163.648 218.398H227.57V231.975H194.55V238.375H300.366V231.975H267.345V218.398H331.268Z" fill="#59C2FC"></path><path d="M265.994 209.34H226.219V231.742H265.994V209.34Z" fill="#202060"></path><path d="M331.26 88.8965H163.64C156.273 88.8965 150.301 94.9929 150.301 102.513V200.434C150.301 207.954 156.273 214.051 163.64 214.051H331.26C338.628 214.051 344.6 207.954 344.6 200.434V102.513C344.6 94.9929 338.627 88.8965 331.26 88.8965Z" fill="#4141AA"></path><path d="M325.238 95.6411H169.663C162.825 95.6411 157.281 101.08 157.281 107.791V195.157C157.281 201.866 162.824 207.306 169.663 207.306H325.239C332.077 207.306 337.62 201.867 337.62 195.157V107.791C337.62 101.081 332.077 95.6411 325.238 95.6411Z" fill="url(#paint4_linear_2332_354)"></path><path d="M300.476 234.028H194.434V233.811C194.434 230.396 197.202 227.628 200.617 227.628H294.292C297.707 227.628 300.476 230.396 300.476 233.811V234.028Z" fill="#4141AA"></path><path d="M456.266 102.218H363.051V160.076H456.266V102.218Z" fill="#4141AA"></path><path d="M456.266 167.058H363.051V224.916H456.266V167.058Z" fill="#4141AA"></path><path d="M452.751 106.521H366.555V155.773H452.751V106.521Z" fill="url(#paint5_linear_2332_354)"></path><path d="M452.751 171.361H366.555V220.613H452.751V171.361Z" fill="white"></path><path opacity="0.35" d="M354.943 48.4923V38.3348H348.506C348.072 36.7403 347.44 35.2284 346.636 33.8263L351.19 29.2727L344.007 22.0905L339.453 26.6441C338.051 25.8404 336.539 25.2078 334.945 24.774V18.3367H324.787V24.774C323.193 25.2078 321.681 25.8404 320.279 26.6441L315.725 22.0905L308.543 29.2727L313.096 33.8263C312.293 35.2284 311.66 36.7403 311.226 38.3348H304.789V48.4923H311.226C311.66 50.0868 312.293 51.5986 313.096 53.0007L308.543 57.5544L315.725 64.7366L320.279 60.183C321.681 60.9867 323.193 61.6193 324.787 62.0531V68.4904H334.945V62.0531C336.539 61.6193 338.051 60.9867 339.453 60.183L344.007 64.7366L351.19 57.5544L346.636 53.0007C347.44 51.5986 348.072 50.0868 348.506 48.4923H354.943ZM329.866 52.9078C324.623 52.9078 320.372 48.6569 320.372 43.4139C320.372 38.1708 324.623 33.9199 329.866 33.9199C335.11 33.9199 339.36 38.1708 339.36 43.4139C339.36 48.6569 335.11 52.9078 329.866 52.9078Z" fill="#4141AA"></path><path d="M351.104 45.0904V34.9322H344.667C344.233 33.3377 343.601 31.8259 342.797 30.4238L347.35 25.8701L340.168 18.6879L335.615 23.2415C334.212 22.4378 332.701 21.8052 331.106 21.3714V14.9341H320.949V21.3714C319.354 21.8052 317.842 22.4378 316.44 23.2415L311.887 18.6879L304.703 25.8701L309.257 30.4238C308.453 31.8259 307.82 33.3377 307.387 34.9322H300.949V45.0897H307.387C307.82 46.6842 308.453 48.196 309.257 49.5981L304.703 54.1518L311.885 61.334L316.439 56.7804C317.841 57.5841 319.353 58.2167 320.947 58.6505V65.0878H331.105V58.6512C332.699 58.2174 334.211 57.5847 335.613 56.781L340.167 61.3347L347.349 54.1524L342.796 49.5988C343.599 48.1967 344.232 46.6848 344.666 45.0904H351.104ZM326.026 49.5052C320.783 49.5052 316.533 45.2543 316.533 40.0113C316.533 34.7682 320.783 30.5174 326.026 30.5174C331.269 30.5174 335.52 34.7682 335.52 40.0113C335.521 45.255 331.27 49.5052 326.026 49.5052Z" fill="url(#paint6_linear_2332_354)"></path><path opacity="0.35" d="M394.43 73.8812V66.5027H389.754C389.439 65.3446 388.979 64.2465 388.396 63.2279L391.704 59.9201L386.486 54.7029L383.179 58.0106C382.16 57.4271 381.062 56.9675 379.904 56.6524V51.9768H372.526V56.6524C371.368 56.9675 370.27 57.4271 369.251 58.0106L365.943 54.7029L360.726 59.9201L364.034 63.2279C363.45 64.2465 362.991 65.3446 362.676 66.5027H358V73.8812H362.676C362.991 75.0393 363.45 76.1373 364.034 77.156L360.726 80.4637L365.943 85.681L369.251 82.3732C370.27 82.9568 371.368 83.4164 372.526 83.7314V88.4071H379.904V83.7314C381.062 83.4164 382.16 82.9568 383.179 82.3732L386.486 85.681L391.704 80.4637L388.396 77.156C388.979 76.1373 389.439 75.0393 389.754 73.8812H394.43ZM376.214 77.0882C372.405 77.0882 369.318 74.0006 369.318 70.1919C369.318 66.3833 372.405 63.2957 376.214 63.2957C380.022 63.2957 383.11 66.3833 383.11 70.1919C383.11 74.0006 380.022 77.0882 376.214 77.0882Z" fill="#4141AA"></path><path d="M391.641 71.4095V64.0316H386.965C386.65 62.8735 386.19 61.7755 385.607 60.7568L388.914 57.4491L383.697 52.2318L380.389 55.5396C379.371 54.956 378.273 54.4964 377.115 54.1814V49.5057H369.737V54.1814C368.579 54.4964 367.481 54.956 366.462 55.5396L363.154 52.2318L357.937 57.4491L361.245 60.7568C360.661 61.7755 360.202 62.8735 359.887 64.0316H355.211V71.4095H359.887C360.202 72.5682 360.661 73.6656 361.245 74.6843L357.937 77.992L363.154 83.2092L366.462 79.9015C367.481 80.4851 368.579 80.9447 369.737 81.2597V85.9353H377.115V81.2597C378.273 80.9447 379.371 80.4851 380.389 79.9015L383.697 83.2092L388.914 77.992L385.607 74.6843C386.19 73.6656 386.65 72.5676 386.965 71.4095H391.641ZM373.425 74.6165C369.616 74.6165 366.529 71.5289 366.529 67.7202C366.529 63.9116 369.616 60.8239 373.425 60.8239C377.233 60.8239 380.321 63.9116 380.321 67.7202C380.321 71.5289 377.233 74.6165 373.425 74.6165Z" fill="url(#paint7_linear_2332_354)"></path><path opacity="0.35" d="M164.691 238.354H110.909C108.547 238.354 106.633 240.269 106.633 242.631V272.267C106.633 274.629 108.547 276.543 110.909 276.543H148.297L164.949 286.882L164.691 276.543C167.053 276.543 168.967 274.629 168.967 272.267V242.631C168.968 240.269 167.053 238.354 164.691 238.354ZM119.613 263.15C116.406 263.15 113.806 260.55 113.806 257.343C113.806 254.136 116.406 251.536 119.613 251.536C122.82 251.536 125.419 254.136 125.419 257.343C125.419 260.55 122.82 263.15 119.613 263.15ZM137.801 263.15C134.594 263.15 131.994 260.55 131.994 257.343C131.994 254.136 134.594 251.536 137.801 251.536C141.008 251.536 143.607 254.136 143.607 257.343C143.607 260.55 141.007 263.15 137.801 263.15ZM155.988 263.15C152.781 263.15 150.181 260.55 150.181 257.343C150.181 254.136 152.781 251.536 155.988 251.536C159.195 251.536 161.795 254.136 161.795 257.343C161.795 260.55 159.195 263.15 155.988 263.15Z" fill="#4141AA"></path><path d="M160.979 234.632H107.199C104.837 234.632 102.922 236.547 102.922 238.909V268.545C102.922 270.907 104.837 272.822 107.199 272.822H144.586L161.238 283.16L160.98 272.822C163.342 272.822 165.256 270.907 165.256 268.545V238.909C165.256 236.548 163.342 234.632 160.979 234.632ZM115.901 259.429C112.694 259.429 110.094 256.829 110.094 253.622C110.094 250.415 112.694 247.815 115.901 247.815C119.108 247.815 121.708 250.415 121.708 253.622C121.708 256.829 119.108 259.429 115.901 259.429ZM134.089 259.429C130.882 259.429 128.282 256.829 128.282 253.622C128.282 250.415 130.882 247.815 134.089 247.815C137.296 247.815 139.896 250.415 139.896 253.622C139.895 256.829 137.295 259.429 134.089 259.429ZM152.276 259.429C149.069 259.429 146.47 256.829 146.47 253.622C146.47 250.415 149.069 247.815 152.276 247.815C155.483 247.815 158.083 250.415 158.083 253.622C158.083 256.829 155.483 259.429 152.276 259.429Z" fill="url(#paint8_linear_2332_354)"></path><path d="M390.756 144.125L377.777 131.147L390.756 118.169L392.794 120.208L381.855 131.147L392.794 142.086L390.756 144.125Z" fill="#202060"></path><path d="M428.55 144.125L426.512 142.086L437.451 131.147L426.512 120.208L428.55 118.169L441.529 131.147L428.55 144.125Z" fill="#202060"></path><path d="M414.373 118.567L402.766 142.484L405.359 143.743L416.967 119.826L414.373 118.567Z" fill="#202060"></path><path d="M421.977 182.246H399.797C397.424 182.246 395.5 184.17 395.5 186.543V208.724C395.5 211.097 397.424 213.021 399.797 213.021H421.977C424.35 213.021 426.274 211.097 426.274 208.724V186.543C426.274 184.17 424.35 182.246 421.977 182.246Z" fill="#4141AA"></path><path d="M419.52 179.185H397.34C394.967 179.185 393.043 181.109 393.043 183.482V205.663C393.043 208.036 394.967 209.959 397.34 209.959H419.52C421.893 209.959 423.817 208.036 423.817 205.663V183.482C423.818 181.109 421.893 179.185 419.52 179.185Z" fill="url(#paint9_linear_2332_354)"></path><path d="M415.116 194.573L403.023 187.591V201.554L415.116 194.573Z" fill="white"></path><path d="M132.203 44.3383H89.5732C88.4132 44.3383 87.4727 43.3978 87.4727 42.2377V41.0629C87.4727 39.9028 88.4132 38.9623 89.5732 38.9623H132.203C133.363 38.9623 134.303 39.9028 134.303 41.0629V42.2377C134.303 43.3978 133.363 44.3383 132.203 44.3383Z" fill="#8FCEFD"></path><path d="M162.911 75.71H89.5732C88.4132 75.71 87.4727 74.7695 87.4727 73.6094V72.4346C87.4727 71.2745 88.4132 70.334 89.5732 70.334H162.911C164.071 70.334 165.011 71.2745 165.011 72.4346V73.6094C165.011 74.7701 164.071 75.71 162.911 75.71Z" fill="#8FCEFD"></path><path d="M132.203 64.7405H89.5732C88.4132 64.7405 87.4727 63.8 87.4727 62.64V61.4651C87.4727 60.305 88.4132 59.3645 89.5732 59.3645H132.203C133.363 59.3645 134.303 60.305 134.303 61.4651V62.64C134.303 63.8 133.363 64.7405 132.203 64.7405Z" fill="#8FCEFD"></path><path d="M162.907 44.3383H142.632C141.472 44.3383 140.531 43.3978 140.531 42.2377V41.0629C140.531 39.9028 141.472 38.9623 142.632 38.9623H162.907C164.067 38.9623 165.007 39.9028 165.007 41.0629V42.2377C165.007 43.3978 164.067 44.3383 162.907 44.3383Z" fill="#8FCEFD"></path><path d="M162.907 64.7405H142.632C141.472 64.7405 140.531 63.8 140.531 62.64V61.4651C140.531 60.305 141.472 59.3645 142.632 59.3645H162.907C164.067 59.3645 165.007 60.305 165.007 61.4651V62.64C165.007 63.8 164.067 64.7405 162.907 64.7405Z" fill="#8FCEFD"></path><path d="M118.293 54.6973H89.6965C88.4681 54.6973 87.4727 53.7019 87.4727 52.4734V51.2295C87.4727 50.001 88.4681 49.0056 89.6965 49.0056H118.293C119.521 49.0056 120.516 50.001 120.516 51.2295V52.4734C120.516 53.7019 119.52 54.6973 118.293 54.6973Z" fill="#8FCEFD"></path><path d="M148.39 54.6973H128.419C127.191 54.6973 126.195 53.7019 126.195 52.4734V51.2295C126.195 50.001 127.191 49.0056 128.419 49.0056H148.39C149.619 49.0056 150.614 50.001 150.614 51.2295V52.4734C150.614 53.7019 149.619 54.6973 148.39 54.6973Z" fill="#8FCEFD"></path><path d="M162.787 54.6973H158.529C157.3 54.6973 156.305 53.7019 156.305 52.4734V51.2295C156.305 50.001 157.3 49.0056 158.529 49.0056H162.787C164.016 49.0056 165.011 50.001 165.011 51.2295V52.4734C165.011 53.7019 164.016 54.6973 162.787 54.6973Z" fill="#8FCEFD"></path><path d="M360.936 245.595H400.918C402.078 245.595 403.018 244.654 403.018 243.494V242.624C403.018 241.463 402.078 240.523 400.918 240.523H360.936C359.776 240.523 358.836 241.463 358.836 242.624V243.494C358.837 244.654 359.776 245.595 360.936 245.595Z" fill="#8FCEFD"></path><path d="M331.964 275.193H400.918C402.078 275.193 403.018 274.252 403.018 273.092V272.221C403.018 271.061 402.078 270.121 400.918 270.121H331.964C330.804 270.121 329.863 271.061 329.863 272.221V273.092C329.864 274.252 330.804 275.193 331.964 275.193Z" fill="#8FCEFD"></path><path d="M360.936 264.843H400.918C402.078 264.843 403.018 263.902 403.018 262.742V261.872C403.018 260.712 402.078 259.771 400.918 259.771H360.936C359.776 259.771 358.836 260.712 358.836 261.872V262.742C358.837 263.903 359.776 264.843 360.936 264.843Z" fill="#8FCEFD"></path><path d="M331.964 245.595H350.855C352.015 245.595 352.955 244.654 352.955 243.494V242.624C352.955 241.463 352.015 240.523 350.855 240.523H331.964C330.804 240.523 329.863 241.463 329.863 242.624V243.494C329.864 244.654 330.804 245.595 331.964 245.595Z" fill="#8FCEFD"></path><path d="M331.964 264.843H350.855C352.015 264.843 352.955 263.902 352.955 262.742V261.872C352.955 260.712 352.015 259.771 350.855 259.771H331.964C330.804 259.771 329.863 260.712 329.863 261.872V262.742C329.864 263.903 330.804 264.843 331.964 264.843Z" fill="#8FCEFD"></path><path d="M374.068 255.368H400.795C402.024 255.368 403.019 254.373 403.019 253.145V252.222C403.019 250.994 402.024 249.998 400.795 249.998H374.068C372.839 249.998 371.844 250.994 371.844 252.222V253.145C371.844 254.372 372.839 255.368 374.068 255.368Z" fill="#8FCEFD"></path><path d="M345.673 255.368H364.263C365.492 255.368 366.487 254.373 366.487 253.145V252.222C366.487 250.994 365.491 249.998 364.263 249.998H345.673C344.445 249.998 343.449 250.994 343.449 252.222V253.145C343.449 254.372 344.445 255.368 345.673 255.368Z" fill="#8FCEFD"></path><path d="M332.087 255.368H335.853C337.082 255.368 338.077 254.373 338.077 253.145V252.222C338.077 250.994 337.082 249.998 335.853 249.998H332.087C330.859 249.998 329.863 250.994 329.863 252.222V253.145C329.863 254.372 330.859 255.368 332.087 255.368Z" fill="#8FCEFD"></path><path d="M206.505 110.079H185.319C182.604 110.079 180.402 107.878 180.402 105.164V83.9777C180.402 81.2625 182.604 79.0619 185.319 79.0619H206.505C209.22 79.0619 211.42 81.2632 211.42 83.9777V105.164C211.421 107.878 209.22 110.079 206.505 110.079Z" fill="#4141AA"></path><path d="M203.664 105.768H182.478C179.763 105.768 177.562 103.567 177.562 100.852V79.6661C177.562 76.951 179.763 74.7504 182.478 74.7504H203.664C206.379 74.7504 208.58 76.9517 208.58 79.6661V100.852C208.581 103.567 206.379 105.768 203.664 105.768Z" fill="white"></path><path d="M202.568 87.8793V86.5386H199.187L200.575 83.196L199.336 82.6821L197.736 86.5386H191.48L192.867 83.196L191.628 82.6821L190.028 86.5386H183.074V87.88H189.471L187.596 92.4013H183.074V93.7428H187.039L185.067 98.4952L186.306 99.0091L188.491 93.7428H194.747L192.775 98.4952L194.014 99.0091L196.199 93.7428H202.568V92.4013H196.755L198.631 87.88H202.568V87.8793ZM195.303 92.4007H189.047L190.923 87.8793H197.179L195.303 92.4007Z" fill="#8FCEFD"></path><path d="M310.723 224.971H289.538C286.822 224.971 284.621 222.769 284.621 220.054V198.868C284.621 196.153 286.822 193.952 289.538 193.952H310.723C313.439 193.952 315.639 196.153 315.639 198.868V220.054C315.639 222.77 313.439 224.971 310.723 224.971Z" fill="#4141AA"></path><path d="M307.883 220.659H286.697C283.982 220.659 281.781 218.458 281.781 215.743V194.557C281.781 191.842 283.983 189.64 286.697 189.64H307.883C310.598 189.64 312.799 191.842 312.799 194.557V215.743C312.799 218.458 310.597 220.659 307.883 220.659Z" fill="white"></path><path d="M297.133 204.341C299.885 204.341 302.117 202.109 302.117 199.356C302.117 196.604 299.885 194.372 297.133 194.372C294.38 194.372 292.148 196.604 292.148 199.356C292.148 202.109 294.38 204.341 297.133 204.341Z" fill="#8FCEFD"></path><path d="M297.132 204.341C292.544 204.341 288.824 207.502 288.824 211.402V216.743H305.44V211.401C305.441 207.502 301.721 204.341 297.132 204.341Z" fill="#8FCEFD"></path><path d="M61.9292 73.9727C62.6057 71.1182 60.84 68.2557 57.9854 67.5793C55.1309 66.9028 52.2685 68.6685 51.592 71.523C50.9156 74.3776 52.6813 77.24 55.5358 77.9165C58.3903 78.5929 61.2528 76.8272 61.9292 73.9727Z" fill="#9F88FA"></path><path d="M433.006 73.4274C435.708 70.726 435.708 66.3461 433.006 63.6446C430.305 60.9432 425.925 60.9431 423.223 63.6446C420.522 66.346 420.522 70.726 423.223 73.4274C425.925 76.1289 430.305 76.1289 433.006 73.4274Z" fill="#202060"></path><path d="M195.143 262.234C197.844 259.533 197.844 255.153 195.143 252.451C192.442 249.75 188.062 249.75 185.36 252.451C182.659 255.153 182.659 259.533 185.36 262.234C188.062 264.936 192.442 264.936 195.143 262.234Z" fill="#202060"></path><path d="M431.581 260.207C434.514 260.207 436.892 257.829 436.892 254.896C436.892 251.962 434.514 249.584 431.581 249.584C428.648 249.584 426.27 251.962 426.27 254.896C426.27 257.829 428.648 260.207 431.581 260.207Z" fill="#9F88FA"></path><path d="M52.1276 265.383C58.6227 265.383 63.888 260.117 63.888 253.622C63.888 247.127 58.6227 241.862 52.1276 241.862C45.6325 241.862 40.3672 247.127 40.3672 253.622C40.3672 260.117 45.6325 265.383 52.1276 265.383Z" stroke="#9F88FA" stroke-width="3.22769" stroke-miterlimit="10"></path><path d="M471.231 179.678V266.89H410.883" stroke="#8FCEFD" stroke-width="0.645537" stroke-miterlimit="10" stroke-dasharray="1.94 1.94"></path><path d="M211.77 265.383H310.435" stroke="#8FCEFD" stroke-width="0.645537" stroke-miterlimit="10" stroke-dasharray="1.94 1.94"></path><path d="M211.77 270.854H310.435" stroke="#8FCEFD" stroke-width="0.645537" stroke-miterlimit="10" stroke-dasharray="1.94 1.94"></path><path d="M92.3592 107.579C92.3592 109.651 90.6795 111.331 88.6073 111.331C86.5352 111.331 84.8555 109.651 84.8555 107.579C84.8555 105.507 86.5352 103.827 88.6073 103.827C90.6795 103.827 92.3592 105.507 92.3592 107.579Z" fill="white"></path><path d="M169.012 107.579C169.012 109.651 167.332 111.331 165.26 111.331C163.187 111.331 161.508 109.651 161.508 107.579C161.508 105.507 163.187 103.827 165.26 103.827C167.332 103.827 169.012 105.507 169.012 107.579Z" fill="white"></path><path d="M88.6094 107.579H165.013" stroke="white" stroke-width="0.645537" stroke-miterlimit="10"></path><path d="M332.41 197.741C332.41 199.813 330.73 201.492 328.658 201.492C326.586 201.492 324.906 199.813 324.906 197.741C324.906 195.668 326.586 193.989 328.658 193.989C330.73 193.989 332.41 195.668 332.41 197.741Z" fill="white"></path><path d="M328.66 197.741H355.765V131.147H372.182" stroke="white" stroke-width="0.645537" stroke-miterlimit="10"></path><path d="M375.898 131.147C375.898 133.2 374.233 134.865 372.179 134.865C370.126 134.865 368.461 133.2 368.461 131.147C368.461 129.094 370.126 127.429 372.179 127.429C374.233 127.429 375.898 129.094 375.898 131.147Z" fill="white"></path><g opacity="0.7"><path d="M194.443 117.93H164.457V120.56H194.443V117.93Z" fill="white"></path><path d="M194.443 123.386H164.457V126.016H194.443V123.386Z" fill="white"></path><path d="M194.443 128.841H164.457V131.472H194.443V128.841Z" fill="white"></path><path d="M194.443 134.297H164.457V136.928H194.443V134.297Z" fill="white"></path></g><g opacity="0.7"><path d="M331.323 141.975H306.414V144.605H331.323V141.975Z" fill="white"></path><path d="M331.323 147.431H306.414V150.061H331.323V147.431Z" fill="white"></path><path d="M331.323 152.886H306.414V155.517H331.323V152.886Z" fill="white"></path><path d="M331.323 158.342H306.414V160.973H331.323V158.342Z" fill="white"></path></g><path d="M278.965 67.8605H268.648V78.1775H278.965V67.8605Z" fill="#8FCEFD"></path><path d="M292.208 67.8605H281.891V78.1775H292.208V67.8605Z" fill="#8FCEFD"></path><path d="M305.446 67.8605H295.129V78.1775H305.446V67.8605Z" fill="#8FCEFD"></path><path d="M224.708 164.558H210.031L207.854 171.212H193.363L209.471 127.18H225.392L241.437 171.212H226.885L224.708 164.558ZM221.349 154.172L217.369 141.92L213.389 154.172H221.349ZM280.583 142.293C280.583 145.071 279.94 147.6 278.655 149.88C277.37 152.119 275.463 153.902 272.934 155.229C270.446 156.556 267.419 157.219 263.854 157.219H258.381V171.212H244.574V127.18H263.854C269.244 127.18 273.369 128.549 276.23 131.285C279.132 134.021 280.583 137.691 280.583 142.293ZM262.299 146.335C265.16 146.335 266.59 144.988 266.59 142.293C266.59 139.598 265.16 138.25 262.299 138.25H258.381V146.335H262.299ZM298.769 127.18V171.212H284.962V127.18H298.769Z" fill="white"></path><path d="M172.696 179.19H170.214L169.757 180.456H168.973L171.031 174.796H171.888L173.938 180.456H173.154L172.696 179.19ZM172.484 178.585L171.455 175.711L170.426 178.585H172.484ZM178.64 176.43C178.64 176.903 178.477 177.298 178.15 177.614C177.829 177.924 177.336 178.079 176.672 178.079H175.578V180.456H174.835V174.764H176.672C177.315 174.764 177.802 174.919 178.134 175.229C178.471 175.539 178.64 175.94 178.64 176.43ZM176.672 177.467C177.086 177.467 177.391 177.377 177.587 177.197C177.783 177.018 177.881 176.762 177.881 176.43C177.881 175.727 177.478 175.376 176.672 175.376H175.578V177.467H176.672ZM183.369 176.43C183.369 176.903 183.206 177.298 182.879 177.614C182.558 177.924 182.065 178.079 181.401 178.079H180.307V180.456H179.564V174.764H181.401C182.044 174.764 182.531 174.919 182.863 175.229C183.201 175.539 183.369 175.94 183.369 176.43ZM181.401 177.467C181.815 177.467 182.12 177.377 182.316 177.197C182.512 177.018 182.61 176.762 182.61 176.43C182.61 175.727 182.207 175.376 181.401 175.376H180.307V177.467H181.401ZM185.036 179.851H187.029V180.456H184.293V174.764H185.036V179.851ZM188.561 174.764V180.456H187.818V174.764H188.561ZM189.55 177.606C189.55 177.05 189.675 176.552 189.926 176.111C190.176 175.665 190.516 175.316 190.946 175.066C191.382 174.815 191.864 174.69 192.392 174.69C193.012 174.69 193.554 174.84 194.017 175.139C194.48 175.439 194.817 175.863 195.03 176.413H194.139C193.982 176.07 193.753 175.806 193.453 175.621C193.159 175.436 192.806 175.343 192.392 175.343C191.994 175.343 191.638 175.436 191.322 175.621C191.006 175.806 190.759 176.07 190.579 176.413C190.399 176.751 190.309 177.148 190.309 177.606C190.309 178.057 190.399 178.455 190.579 178.798C190.759 179.135 191.006 179.397 191.322 179.582C191.638 179.767 191.994 179.859 192.392 179.859C192.806 179.859 193.159 179.77 193.453 179.59C193.753 179.405 193.982 179.141 194.139 178.798H195.03C194.817 179.342 194.48 179.764 194.017 180.064C193.554 180.358 193.012 180.505 192.392 180.505C191.864 180.505 191.382 180.382 190.946 180.137C190.516 179.887 190.176 179.541 189.926 179.1C189.675 178.659 189.55 178.161 189.55 177.606ZM199.5 179.19H197.018L196.56 180.456H195.776L197.834 174.796H198.692L200.742 180.456H199.958L199.5 179.19ZM199.288 178.585L198.259 175.711L197.23 178.585H199.288ZM205.142 174.764V175.368H203.59V180.456H202.847V175.368H201.287V174.764H205.142ZM206.8 174.764V180.456H206.057V174.764H206.8ZM210.647 180.513C210.119 180.513 209.637 180.39 209.202 180.145C208.766 179.895 208.42 179.549 208.164 179.108C207.914 178.662 207.789 178.161 207.789 177.606C207.789 177.05 207.914 176.552 208.164 176.111C208.42 175.665 208.766 175.319 209.202 175.074C209.637 174.823 210.119 174.698 210.647 174.698C211.18 174.698 211.665 174.823 212.101 175.074C212.536 175.319 212.879 175.662 213.13 176.103C213.38 176.544 213.505 177.045 213.505 177.606C213.505 178.166 213.38 178.667 213.13 179.108C212.879 179.549 212.536 179.895 212.101 180.145C211.665 180.39 211.18 180.513 210.647 180.513ZM210.647 179.868C211.044 179.868 211.401 179.775 211.717 179.59C212.038 179.405 212.288 179.141 212.468 178.798C212.653 178.455 212.746 178.057 212.746 177.606C212.746 177.148 212.653 176.751 212.468 176.413C212.288 176.07 212.041 175.806 211.725 175.621C211.409 175.436 211.05 175.343 210.647 175.343C210.244 175.343 209.885 175.436 209.569 175.621C209.253 175.806 209.003 176.07 208.818 176.413C208.638 176.751 208.548 177.148 208.548 177.606C208.548 178.057 208.638 178.455 208.818 178.798C209.003 179.141 209.253 179.405 209.569 179.59C209.89 179.775 210.25 179.868 210.647 179.868ZM218.961 180.456H218.218L215.229 175.923V180.456H214.486V174.755H215.229L218.218 179.28V174.755H218.961V180.456ZM226.211 176.43C226.211 176.903 226.048 177.298 225.721 177.614C225.4 177.924 224.907 178.079 224.243 178.079H223.149V180.456H222.405V174.764H224.243C224.885 174.764 225.372 174.919 225.705 175.229C226.042 175.539 226.211 175.94 226.211 176.43ZM224.243 177.467C224.657 177.467 224.961 177.377 225.157 177.197C225.353 177.018 225.451 176.762 225.451 176.43C225.451 175.727 225.049 175.376 224.243 175.376H223.149V177.467H224.243ZM230.132 180.456L228.776 178.128H227.878V180.456H227.135V174.764H228.972C229.402 174.764 229.764 174.837 230.058 174.984C230.358 175.131 230.581 175.33 230.728 175.58C230.875 175.831 230.948 176.117 230.948 176.438C230.948 176.83 230.834 177.175 230.605 177.475C230.382 177.774 230.044 177.973 229.593 178.071L231.022 180.456H230.132ZM227.878 177.532H228.972C229.375 177.532 229.677 177.434 229.878 177.238C230.08 177.037 230.181 176.77 230.181 176.438C230.181 176.1 230.08 175.839 229.878 175.654C229.682 175.469 229.38 175.376 228.972 175.376H227.878V177.532ZM234.684 180.513C234.155 180.513 233.674 180.39 233.238 180.145C232.803 179.895 232.457 179.549 232.201 179.108C231.951 178.662 231.825 178.161 231.825 177.606C231.825 177.05 231.951 176.552 232.201 176.111C232.457 175.665 232.803 175.319 233.238 175.074C233.674 174.823 234.155 174.698 234.684 174.698C235.217 174.698 235.702 174.823 236.137 175.074C236.573 175.319 236.916 175.662 237.166 176.103C237.417 176.544 237.542 177.045 237.542 177.606C237.542 178.166 237.417 178.667 237.166 179.108C236.916 179.549 236.573 179.895 236.137 180.145C235.702 180.39 235.217 180.513 234.684 180.513ZM234.684 179.868C235.081 179.868 235.438 179.775 235.753 179.59C236.075 179.405 236.325 179.141 236.505 178.798C236.69 178.455 236.782 178.057 236.782 177.606C236.782 177.148 236.69 176.751 236.505 176.413C236.325 176.07 236.077 175.806 235.761 175.621C235.446 175.436 235.086 175.343 234.684 175.343C234.281 175.343 233.921 175.436 233.606 175.621C233.29 175.806 233.039 176.07 232.854 176.413C232.675 176.751 232.585 177.148 232.585 177.606C232.585 178.057 232.675 178.455 232.854 178.798C233.039 179.141 233.29 179.405 233.606 179.59C233.927 179.775 234.286 179.868 234.684 179.868ZM242.835 176.413C242.677 176.081 242.448 175.825 242.149 175.646C241.849 175.46 241.501 175.368 241.103 175.368C240.706 175.368 240.347 175.46 240.025 175.646C239.71 175.825 239.459 176.087 239.274 176.43C239.094 176.767 239.005 177.159 239.005 177.606C239.005 178.052 239.094 178.444 239.274 178.781C239.459 179.119 239.71 179.38 240.025 179.565C240.347 179.745 240.706 179.835 241.103 179.835C241.659 179.835 242.116 179.669 242.475 179.337C242.835 179.005 243.044 178.556 243.104 177.989H240.834V177.385H243.896V177.957C243.853 178.425 243.706 178.855 243.455 179.247C243.205 179.633 242.875 179.941 242.467 180.17C242.059 180.393 241.604 180.505 241.103 180.505C240.575 180.505 240.093 180.382 239.658 180.137C239.222 179.887 238.877 179.541 238.621 179.1C238.37 178.659 238.245 178.161 238.245 177.606C238.245 177.05 238.37 176.552 238.621 176.111C238.877 175.665 239.222 175.319 239.658 175.074C240.093 174.823 240.575 174.698 241.103 174.698C241.708 174.698 242.241 174.848 242.704 175.147C243.172 175.447 243.512 175.869 243.725 176.413H242.835ZM247.876 180.456L246.52 178.128H245.622V180.456H244.879V174.764H246.716C247.146 174.764 247.508 174.837 247.802 174.984C248.102 175.131 248.325 175.33 248.472 175.58C248.619 175.831 248.693 176.117 248.693 176.438C248.693 176.83 248.578 177.175 248.35 177.475C248.126 177.774 247.789 177.973 247.337 178.071L248.766 180.456H247.876ZM245.622 177.532H246.716C247.119 177.532 247.421 177.434 247.623 177.238C247.824 177.037 247.925 176.77 247.925 176.438C247.925 176.1 247.824 175.839 247.623 175.654C247.427 175.469 247.125 175.376 246.716 175.376H245.622V177.532ZM253.212 179.19H250.729L250.272 180.456H249.488L251.546 174.796H252.403L254.453 180.456H253.669L253.212 179.19ZM252.999 178.585L251.971 175.711L250.942 178.585H252.999ZM261.124 174.804V180.456H260.38V176.242L258.502 180.456H257.98L256.093 176.234V180.456H255.35V174.804H256.15L258.241 179.476L260.331 174.804H261.124ZM268.158 174.804V180.456H267.414V176.242L265.536 180.456H265.013L263.127 176.234V180.456H262.384V174.804H263.184L265.275 179.476L267.365 174.804H268.158ZM270.161 174.764V180.456H269.418V174.764H270.161ZM275.903 180.456H275.16L272.171 175.923V180.456H271.428V174.755H272.171L275.16 179.28V174.755H275.903V180.456ZM281.481 176.413C281.323 176.081 281.095 175.825 280.795 175.646C280.496 175.46 280.148 175.368 279.75 175.368C279.353 175.368 278.993 175.46 278.672 175.646C278.356 175.825 278.106 176.087 277.921 176.43C277.741 176.767 277.651 177.159 277.651 177.606C277.651 178.052 277.741 178.444 277.921 178.781C278.106 179.119 278.356 179.38 278.672 179.565C278.993 179.745 279.353 179.835 279.75 179.835C280.305 179.835 280.763 179.669 281.122 179.337C281.481 179.005 281.691 178.556 281.751 177.989H279.481V177.385H282.543V177.957C282.499 178.425 282.352 178.855 282.102 179.247C281.852 179.633 281.522 179.941 281.114 180.17C280.706 180.393 280.251 180.505 279.75 180.505C279.222 180.505 278.74 180.382 278.305 180.137C277.869 179.887 277.523 179.541 277.268 179.1C277.017 178.659 276.892 178.161 276.892 177.606C276.892 177.05 277.017 176.552 277.268 176.111C277.523 175.665 277.869 175.319 278.305 175.074C278.74 174.823 279.222 174.698 279.75 174.698C280.354 174.698 280.888 174.848 281.351 175.147C281.819 175.447 282.159 175.869 282.371 176.413H281.481ZM286.446 174.764V180.456H285.703V174.764H286.446ZM292.188 180.456H291.444L288.456 175.923V180.456H287.712V174.755H288.456L291.444 179.28V174.755H292.188V180.456ZM296.958 174.764V175.368H295.406V180.456H294.663V175.368H293.103V174.764H296.958ZM298.616 175.368V177.271H300.69V177.883H298.616V179.843H300.935V180.456H297.873V174.755H300.935V175.368H298.616ZM305.056 180.456L303.701 178.128H302.803V180.456H302.059V174.764H303.897C304.327 174.764 304.689 174.837 304.983 174.984C305.282 175.131 305.506 175.33 305.653 175.58C305.8 175.831 305.873 176.117 305.873 176.438C305.873 176.83 305.759 177.175 305.53 177.475C305.307 177.774 304.969 177.973 304.517 178.071L305.947 180.456H305.056ZM302.803 177.532H303.897C304.3 177.532 304.602 177.434 304.803 177.238C305.005 177.037 305.105 176.77 305.105 176.438C305.105 176.1 305.005 175.839 304.803 175.654C304.607 175.469 304.305 175.376 303.897 175.376H302.803V177.532ZM310.245 174.764V175.368H307.771V177.287H309.78V177.891H307.771V180.456H307.028V174.764H310.245ZM314.507 179.19H312.025L311.568 180.456H310.784L312.841 174.796H313.699L315.749 180.456H314.965L314.507 179.19ZM314.295 178.585L313.266 175.711L312.237 178.585H314.295ZM316.368 177.606C316.368 177.05 316.493 176.552 316.744 176.111C316.994 175.665 317.334 175.316 317.764 175.066C318.2 174.815 318.682 174.69 319.21 174.69C319.831 174.69 320.372 174.84 320.835 175.139C321.298 175.439 321.635 175.863 321.848 176.413H320.957C320.8 176.07 320.571 175.806 320.271 175.621C319.978 175.436 319.624 175.343 319.21 175.343C318.812 175.343 318.456 175.436 318.14 175.621C317.824 175.806 317.577 176.07 317.397 176.413C317.217 176.751 317.127 177.148 317.127 177.606C317.127 178.057 317.217 178.455 317.397 178.798C317.577 179.135 317.824 179.397 318.14 179.582C318.456 179.767 318.812 179.859 319.21 179.859C319.624 179.859 319.978 179.77 320.271 179.59C320.571 179.405 320.8 179.141 320.957 178.798H321.848C321.635 179.342 321.298 179.764 320.835 180.064C320.372 180.358 319.831 180.505 319.21 180.505C318.682 180.505 318.2 180.382 317.764 180.137C317.334 179.887 316.994 179.541 316.744 179.1C316.493 178.659 316.368 178.161 316.368 177.606ZM323.697 175.368V177.271H325.771V177.883H323.697V179.843H326.016V180.456H322.954V174.755H326.016V175.368H323.697Z" fill="white"></path></g><defs><linearGradient id="paint0_linear_2332_354" x1="64.1912" y1="126.745" x2="113.032" y2="126.745" gradientUnits="userSpaceOnUse"><stop stop-color="#00FFAB"></stop><stop offset="0.9995" stop-color="#251DFA"></stop></linearGradient><linearGradient id="paint1_linear_2332_354" x1="64.1912" y1="155.164" x2="113.032" y2="155.164" gradientUnits="userSpaceOnUse"><stop stop-color="#00FFAB"></stop><stop offset="0.9995" stop-color="#251DFA"></stop></linearGradient><linearGradient id="paint2_linear_2332_354" x1="64.1912" y1="183.583" x2="113.032" y2="183.583" gradientUnits="userSpaceOnUse"><stop stop-color="#00FFAB"></stop><stop offset="0.9995" stop-color="#251DFA"></stop></linearGradient><linearGradient id="paint3_linear_2332_354" x1="64.1912" y1="229.001" x2="113.032" y2="229.001" gradientUnits="userSpaceOnUse"><stop stop-color="#00FFAB"></stop><stop offset="0.9995" stop-color="#251DFA"></stop></linearGradient><linearGradient id="paint4_linear_2332_354" x1="157.281" y1="151.474" x2="337.62" y2="151.474" gradientUnits="userSpaceOnUse"><stop stop-color="#00FFAB"></stop><stop offset="0.9995" stop-color="#251DFA"></stop></linearGradient><linearGradient id="paint5_linear_2332_354" x1="366.555" y1="131.147" x2="452.751" y2="131.147" gradientUnits="userSpaceOnUse"><stop stop-color="#03D4C6"></stop><stop offset="0.999" stop-color="#03FCA9"></stop></linearGradient><linearGradient id="paint6_linear_2332_354" x1="300.949" y1="40.0114" x2="351.104" y2="40.0114" gradientUnits="userSpaceOnUse"><stop stop-color="#03D4C6"></stop><stop offset="0.999" stop-color="#03FCA9"></stop></linearGradient><linearGradient id="paint7_linear_2332_354" x1="355.21" y1="67.7205" x2="391.64" y2="67.7205" gradientUnits="userSpaceOnUse"><stop stop-color="#03D4C6"></stop><stop offset="0.999" stop-color="#03FCA9"></stop></linearGradient><linearGradient id="paint8_linear_2332_354" x1="102.922" y1="258.897" x2="165.256" y2="258.897" gradientUnits="userSpaceOnUse"><stop stop-color="#03D4C6"></stop><stop offset="0.999" stop-color="#03FCA9"></stop></linearGradient><linearGradient id="paint9_linear_2332_354" x1="393.043" y1="194.573" x2="423.817" y2="194.573" gradientUnits="userSpaceOnUse"><stop stop-color="#00FFAB"></stop><stop offset="0.9995" stop-color="#251DFA"></stop></linearGradient><clipPath id="clip0_2332_354"><rect width="500" height="300" rx="24" fill="white"></rect></clipPath></defs></svg>