<svg xmlns="http://www.w3.org/2000/svg" width="322" height="292" viewBox="0 0 322 292" fill="none"><path d="M130.742 291.362C130.742 291.362 135.169 271.117 140.151 275.908C145.132 280.701 148.821 250.445 154.356 256.496C159.89 262.547 152.142 275.324 163.211 272.394C174.279 269.463 173.172 277.531 171.143 283.005C169.114 288.48 181.289 291.362 181.289 291.362H130.742Z" fill="#F6921E"></path><path d="M265.305 291.369C265.305 291.369 270.762 248.253 284.102 247.379C297.443 246.505 278.341 280.881 292.895 273.889C307.448 266.897 295.927 286.124 308.357 282.047C320.788 277.968 321.091 291.369 321.091 291.369H265.305Z" fill="#F67406"></path><path d="M273.625 291.369C273.625 291.369 273.705 290.72 273.843 289.584C273.99 288.45 274.206 286.829 274.521 284.892C274.832 282.955 275.232 280.702 275.704 278.295C275.959 277.096 276.188 275.849 276.482 274.595C276.767 273.34 277.046 272.061 277.378 270.795C277.542 270.162 277.705 269.529 277.868 268.898C278.049 268.271 278.23 267.648 278.408 267.029C278.749 265.787 279.15 264.584 279.535 263.42C279.895 262.246 280.345 261.147 280.736 260.093C281.107 259.03 281.586 258.077 281.97 257.174C282.338 256.262 282.806 255.489 283.177 254.784C283.367 254.433 283.544 254.105 283.708 253.802C283.891 253.51 284.076 253.251 284.235 253.013C284.875 252.065 285.242 251.524 285.242 251.524C285.242 251.524 284.886 252.073 284.264 253.032C284.111 253.273 283.931 253.534 283.755 253.83C283.597 254.136 283.426 254.467 283.243 254.82C282.888 255.532 282.436 256.31 282.071 257.221C281.695 258.125 281.223 259.077 280.86 260.141C280.477 261.197 280.036 262.295 279.684 263.47C279.307 264.634 278.915 265.838 278.583 267.081C278.408 267.7 278.232 268.323 278.056 268.95C277.897 269.58 277.737 270.214 277.577 270.848C277.238 272.11 276.95 273.384 276.658 274.637C276.355 275.887 276.118 277.131 275.856 278.328C275.368 280.729 274.953 282.979 274.63 284.912C273.969 288.776 273.625 291.369 273.625 291.369Z" fill="#401A4C"></path><path d="M291.16 291.369C291.16 291.369 291.274 290.465 291.549 289.127C291.696 288.46 291.86 287.68 292.09 286.857C292.31 286.031 292.58 285.161 292.866 284.295C293.171 283.436 293.501 282.585 293.847 281.803C294.19 281.019 294.568 280.314 294.898 279.716C295.078 279.425 295.242 279.158 295.387 278.921C295.53 278.683 295.685 278.495 295.797 278.331C296.029 278.008 296.162 277.823 296.162 277.823C296.162 277.823 296.039 278.014 295.825 278.35C295.723 278.52 295.578 278.714 295.449 278.959C295.315 279.201 295.164 279.474 294.999 279.771C294.84 280.072 294.684 280.407 294.511 280.755C294.337 281.104 294.189 281.488 294.01 281.873C293.674 282.654 293.356 283.504 293.059 284.361C292.464 286.075 291.99 287.83 291.661 289.152C291.333 290.475 291.16 291.369 291.16 291.369Z" fill="#401A4C"></path><path d="M313.445 284.595C313.445 284.595 313.319 285.021 313.132 285.658C312.936 286.292 312.674 287.136 312.412 287.982C312.141 288.823 311.887 289.669 311.698 290.304C311.509 290.939 311.398 291.369 311.398 291.369C311.398 291.369 311.45 290.928 311.586 290.276C311.721 289.623 311.958 288.768 312.216 287.92C312.488 287.076 312.779 286.239 313.023 285.62C313.266 285.001 313.445 284.595 313.445 284.595Z" fill="#401A4C"></path><path d="M152.611 260.594C151.977 263.126 151.4 265.672 150.845 268.221C150.299 270.773 149.805 273.336 149.363 275.907C148.905 278.475 148.516 281.055 148.19 283.644C147.892 286.236 147.66 288.835 147.535 291.443C147.579 288.832 147.764 286.224 148.054 283.628C148.357 281.034 148.724 278.447 149.162 275.871C150.107 270.736 151.191 265.62 152.611 260.594Z" fill="#401A4C"></path><path d="M138.714 279.597C138.3 280.547 137.919 281.51 137.548 282.476C137.183 283.443 136.824 284.413 136.518 285.4C136.2 286.383 135.915 287.377 135.683 288.383C135.459 289.39 135.274 290.409 135.195 291.443C135.199 289.361 135.706 287.315 136.322 285.337C136.974 283.366 137.751 281.434 138.714 279.597Z" fill="#401A4C"></path><path d="M167.864 276.019C167.327 276.504 166.863 277.062 166.43 277.64C165.988 278.21 165.595 278.816 165.215 279.429C164.469 280.663 163.834 281.963 163.286 283.296C162.711 284.62 162.283 286.001 161.867 287.384C161.664 288.077 161.502 288.782 161.316 289.48L160.852 291.6L161.218 289.458C161.384 288.753 161.529 288.042 161.714 287.342C162.1 285.945 162.532 284.556 163.096 283.217C163.662 281.881 164.3 280.571 165.081 279.345C165.87 278.13 166.753 276.953 167.864 276.019Z" fill="#401A4C"></path><path d="M113.868 269.051C109.446 269.051 105.828 265.433 105.828 261.011V246.713C105.828 242.291 109.446 238.673 113.868 238.673C118.29 238.673 121.908 242.291 121.908 246.713V261.011C121.908 265.433 118.29 269.051 113.868 269.051Z" stroke="#D3D1E8" stroke-miterlimit="10"></path><path d="M117.903 269.051C113.481 269.051 109.863 265.433 109.863 261.011V246.713C109.863 242.291 113.481 238.673 117.903 238.673C122.325 238.673 125.943 242.291 125.943 246.713V261.011C125.943 265.433 122.325 269.051 117.903 269.051Z" stroke="#D3D1E8" stroke-miterlimit="10"></path><path d="M135.138 251.742H99.0508V291.6H135.138V251.742Z" fill="#E3E2EF"></path><path d="M135.141 251.742H127.727V291.6H135.141V251.742Z" fill="#D3D1E8"></path><path d="M258.373 73.8386H308.939C308.939 73.8386 307.742 68.0842 299.438 68.0842C302.642 59.8637 284.86 54.52 280.393 62.7405C274.281 48.7649 246.873 57.5507 258.373 73.8386Z" fill="#F3CCB6"></path><path d="M13.2267 72.2238H54.7516C54.7516 72.2238 53.7682 67.4978 46.9491 67.4978C49.5814 60.7469 34.978 56.3583 31.3093 63.1099C26.2901 51.633 3.78258 58.8484 13.2267 72.2238Z" fill="#F3CCB6"></path><path d="M29.0139 46.0346H68.6657C68.6657 46.0346 71.2558 34.4568 54.5441 39.238C52.5745 26.8866 37.5762 25.6913 34.7161 33.6599C25.5158 24.4604 19.7969 43.2688 29.0139 46.0346Z" fill="#F3CCB6"></path><path d="M177.388 281.288H183.415V142.785H177.388C172.536 142.785 168.602 146.719 168.602 151.572V272.503C168.602 277.355 172.536 281.288 177.388 281.288Z" fill="#5986E4"></path><path d="M179.544 281.288H185.572V142.785H179.544C174.692 142.785 170.758 146.719 170.758 151.572V272.503C170.759 277.355 174.692 281.288 179.544 281.288Z" fill="#356FE4"></path><path d="M104.66 152.135C104.66 152.135 107.719 153.205 108.124 152.423C108.529 151.641 104.569 148.281 100.883 151.133" fill="#E3BAA1"></path><path d="M52.1893 113.85C49.3066 111.22 45.1336 107.228 47.4923 97.4304C48.0366 95.2532 43.9673 89.7854 48.9046 90.2514C53.8425 90.7173 49.9424 85.8185 55.7933 87.6329C61.6443 89.4472 58.832 84.4643 64.3658 87.2279C69.8996 89.9915 67.4502 84.7299 70.0811 84.8206C72.7119 84.9113 76.8719 96.7954 65.9015 96.1604C62.2793 95.8882 62.0159 98.8819 59.29 96.7047C56.5641 94.5274 57.1084 99.6077 54.9312 98.7005C52.7539 97.7933 53.5094 105.323 53.5094 105.323L52.1893 113.85Z" fill="#5986E4"></path><path d="M113.641 125.843C115.428 124.663 119.304 121.14 118.982 120.598C118.659 120.057 116.008 121.408 116.008 121.408C116.008 121.408 118.691 119.289 118.254 118.524C117.817 117.759 114.778 119.547 114.778 119.547C114.778 119.547 117.569 117.181 116.947 116.605C116.324 116.028 113.286 118.187 113.286 118.187C113.286 118.187 115.668 116.033 115.196 115.568C114.724 115.103 111.402 116.795 107.775 119.089C107.775 119.089 110.337 117.102 109.9 116.338C109.463 115.573 104.491 117.071 104.881 121.714" fill="#E3BAA1"></path><path d="M108.56 128.676C108.56 128.676 116.572 125.3 115.765 122.609C114.958 119.917 111.83 114.882 104.123 121.627C96.4173 128.372 108.56 128.676 108.56 128.676Z" fill="#E3BAA1"></path><path d="M71.8703 122.94C71.8703 122.94 58.9673 117.38 54.5156 121.934L69.8085 140.977C73.6716 138.505 77.5253 136.021 81.0358 133.078L71.8703 122.94Z" fill="#F67406"></path><path d="M83.1314 135.392L81.0398 133.078C77.5293 136.02 73.6749 138.505 69.8125 140.977L71.6624 143.282C74.4834 146.794 78.9366 150.33 83.225 148.949C95.027 145.148 111.06 126.798 111.06 126.798L104.927 120.351L83.1314 135.392Z" fill="#E3BAA1"></path><path d="M111.375 119.531C111.375 119.531 111.54 119.386 111.792 119.178C112.043 118.97 112.39 118.71 112.73 118.442C113.079 118.186 113.419 117.921 113.676 117.723C113.934 117.526 114.099 117.382 114.099 117.382C114.099 117.382 113.979 117.567 113.754 117.809C113.531 118.052 113.197 118.336 112.854 118.606C112.502 118.865 112.141 119.111 111.857 119.273C111.572 119.437 111.375 119.531 111.375 119.531Z" fill="#401A4C"></path><path d="M113.004 120.868L115.945 118.447C115.945 118.447 115.804 118.642 115.563 118.91C115.324 119.18 114.973 119.509 114.606 119.817C114.23 120.116 113.84 120.397 113.53 120.58C113.222 120.765 113.004 120.868 113.004 120.868Z" fill="#401A4C"></path><path d="M114.719 122.342C114.719 122.342 114.884 122.188 115.137 121.968C115.389 121.746 115.74 121.471 116.084 121.187C116.432 120.91 116.781 120.634 117.043 120.427C117.305 120.22 117.468 120.065 117.468 120.065C117.468 120.065 117.351 120.259 117.122 120.511C116.897 120.765 116.559 121.063 116.212 121.348C115.857 121.622 115.493 121.884 115.206 122.061C114.918 122.237 114.719 122.342 114.719 122.342Z" fill="#401A4C"></path><path d="M182.606 106.481V212.982C182.606 215.399 180.647 217.357 178.23 217.357H112.067C109.65 217.357 107.691 215.399 107.691 212.982V106.481C107.691 104.064 109.65 102.106 112.067 102.106H178.23C180.646 102.106 182.606 104.064 182.606 106.481Z" fill="#F67406"></path><path d="M140.689 199.749V198.923C140.689 197.866 141.554 197.002 142.61 197.002V189.611H137.648V199.749H140.689Z" fill="#FFAA24"></path><path d="M140.69 199.749H137.648V209.887H140.69V199.749Z" fill="#FFAA24"></path><path d="M137.647 189.611H137.594C136.12 189.611 134.926 190.806 134.926 192.279V199.749H137.647V189.611Z" fill="#FFAA24"></path><path d="M147.573 199.749H144.531V209.887H147.573V199.749Z" fill="#FFAA24"></path><path d="M142.613 197.002C143.67 197.002 144.534 197.866 144.534 198.923V199.749H147.576V189.611H142.614V197.002H142.613Z" fill="#FFAA24"></path><path d="M150.296 199.749V192.279C150.296 190.806 149.101 189.611 147.628 189.611H147.574V199.749H150.296Z" fill="#FFAA24"></path><path d="M134.926 199.749V207.219C134.926 208.693 136.12 209.887 137.594 209.887H137.647V199.749H134.926Z" fill="#FFAA24"></path><path d="M147.574 209.887H147.628C149.101 209.887 150.296 208.693 150.296 207.219V199.749H147.575L147.574 209.887Z" fill="#FFAA24"></path><path d="M140.691 198.923V209.888H144.534V198.923C144.534 197.866 143.669 197.002 142.612 197.002C141.556 197.002 140.691 197.866 140.691 198.923Z" fill="#FFAA24"></path><path d="M137.656 189.611V199.749H140.698V198.923C140.698 197.866 141.562 197.002 142.619 197.002V189.611" stroke="#401A4C" stroke-width="0.2835" stroke-miterlimit="10"></path><path d="M140.698 209.887V199.749H137.656V209.887" stroke="#401A4C" stroke-width="0.2835" stroke-miterlimit="10"></path><path d="M134.934 199.749H137.654V189.611H137.601" stroke="#401A4C" stroke-width="0.2835" stroke-miterlimit="10"></path><path d="M147.58 209.887V199.749H144.539V209.887" stroke="#401A4C" stroke-width="0.2835" stroke-miterlimit="10"></path><path d="M142.617 189.611V197.002C143.674 197.002 144.538 197.866 144.538 198.923V199.749H147.58V189.611" stroke="#401A4C" stroke-width="0.2835" stroke-miterlimit="10"></path><path d="M147.628 189.611H147.574V199.749H150.296" stroke="#401A4C" stroke-width="0.2835" stroke-miterlimit="10"></path><path d="M137.601 209.887H137.654V199.749H134.934" stroke="#401A4C" stroke-width="0.2835" stroke-miterlimit="10"></path><path d="M150.296 199.749H147.574V209.887H147.628" stroke="#401A4C" stroke-width="0.2835" stroke-miterlimit="10"></path><path d="M144.534 209.887V198.922C144.534 197.865 143.669 197.001 142.612 197.001C141.556 197.001 140.691 197.865 140.691 198.922V209.887" stroke="#401A4C" stroke-width="0.2835" stroke-miterlimit="10"></path><path d="M154.863 186.41V209.887H162.547V186.41H154.863Z" fill="#F1F1F1"></path><path d="M154.863 160.799V184.276H162.547V160.799H154.863Z" fill="#F1F1F1"></path><path d="M154.863 135.187V158.664H162.547V135.187H154.863Z" fill="#F1F1F1"></path><path d="M154.863 109.576V133.053H162.547V109.576H154.863Z" fill="#F1F1F1"></path><path d="M119.301 204.34V209.058H131.36V204.34H119.301Z" fill="#F1F1F1"></path><path d="M119.301 197.997V201.829H131.36V197.997H119.301Z" fill="#F1F1F1"></path><path d="M119.301 190.984V195.486H131.36V190.984H119.301Z" fill="#F1F1F1"></path><path d="M119.301 183.88V188.474H131.36V183.88H119.301Z" fill="#F1F1F1"></path><path d="M119.301 176.666V181.369H131.36V176.666H119.301Z" fill="#F1F1F1"></path><path d="M119.301 170.274V174.156H131.36V170.274H119.301Z" fill="#F1F1F1"></path><path d="M119.301 163.284V167.763H131.36V163.284H119.301Z" fill="#F1F1F1"></path><path d="M119.301 155.926V160.773H131.36V155.926H119.301Z" fill="#F1F1F1"></path><path d="M119.301 147.353V153.415H131.36V147.353H119.301Z" fill="#F1F1F1"></path><path d="M170.461 195.588V209.888H173.235V195.588H170.461Z" fill="#401A4C"></path><path d="M170.461 175.312V189.612H173.235V175.312H170.461Z" fill="#401A4C"></path><path d="M170.461 109.576V145.646H173.235V109.576H170.461Z" fill="#401A4C"></path><path d="M125.321 135.187C132.128 135.187 137.647 129.669 137.647 122.862C137.647 116.055 132.128 110.537 125.321 110.537C118.514 110.537 112.996 116.055 112.996 122.862C112.996 129.669 118.514 135.187 125.321 135.187Z" fill="#F67406" stroke="#F1F1F1" stroke-width="0.5669" stroke-miterlimit="10"></path><path d="M125.321 132.519C132.128 132.519 137.647 128.196 137.647 122.862C137.647 117.528 132.128 113.204 125.321 113.204C118.514 113.204 112.996 117.528 112.996 122.862C112.996 128.196 118.514 132.519 125.321 132.519Z" fill="#F67406" stroke="#F1F1F1" stroke-width="0.5669" stroke-miterlimit="10"></path><path d="M125.321 119.394C132.129 119.394 137.647 120.947 137.647 122.862C137.647 124.777 132.128 126.33 125.321 126.33C118.514 126.33 112.996 124.777 112.996 122.862C112.996 120.947 118.514 119.394 125.321 119.394Z" fill="#F67406" stroke="#F1F1F1" stroke-width="0.5669" stroke-miterlimit="10"></path><path d="M125.324 135.187V110.592" stroke="#F1F1F1" stroke-width="0.5669" stroke-miterlimit="10"></path><path d="M119.301 133.62V112.159" stroke="#F1F1F1" stroke-width="0.5669" stroke-miterlimit="10"></path><path d="M131.359 133.62V112.159" stroke="#F1F1F1" stroke-width="0.5669" stroke-miterlimit="10"></path><path d="M28.9649 283.212L28.1797 289.496H51.68C51.68 289.496 50.0464 286.794 43.5742 285.6C43.3231 283.401 43.3231 283.401 43.3231 283.401L28.9649 283.212Z" fill="#76768C"></path><path d="M51.6813 289.496H28.0547V291.507H51.6813V289.496Z" fill="#B4B4D5"></path><path d="M28.5312 286.523C28.5312 286.523 28.7947 286.533 29.1779 286.635C29.5567 286.742 30.056 286.959 30.4603 287.321C30.6519 287.509 30.8326 287.716 30.9473 287.942C31.0169 288.049 31.059 288.164 31.0924 288.275C31.1338 288.383 31.1621 288.488 31.1744 288.588C31.2201 288.784 31.2092 288.951 31.2049 289.065C31.202 289.179 31.2005 289.245 31.2005 289.245C31.1875 289.248 31.186 288.978 31.0619 288.616C31.0155 288.432 30.9168 288.229 30.7934 288.032C30.6809 287.826 30.5053 287.642 30.3224 287.472C29.9573 287.126 29.4907 286.899 29.1401 286.744C28.7853 286.591 28.5312 286.523 28.5312 286.523Z" fill="#401A4C"></path><path d="M41.3763 282.961C41.4344 284.302 41.4678 285.642 41.4714 286.983L41.3741 286.887C42.404 286.865 43.4287 286.943 44.4469 287.077C45.4608 287.227 46.4739 287.46 47.4087 287.884C46.4413 287.546 45.434 287.372 44.4244 287.252C43.4142 287.131 42.3931 287.083 41.3785 287.078C41.3262 287.079 41.2827 287.035 41.2812 286.983C41.2849 285.642 41.3183 284.302 41.3763 282.961Z" fill="#401A4C"></path><path d="M48.1045 286.784C48.1045 286.784 48.0102 286.93 47.8854 287.154C47.7591 287.376 47.5907 287.67 47.4557 287.978C47.3048 288.279 47.1901 288.596 47.1052 288.836C47.0167 289.076 46.9688 289.244 46.9688 289.244C46.9688 289.244 46.9695 289.201 46.9709 289.125C46.9731 289.049 46.9688 288.938 46.9927 288.809C47.0116 288.68 47.0384 288.528 47.0878 288.372C47.1371 288.215 47.1974 288.05 47.2692 287.891C47.4238 287.576 47.6161 287.282 47.791 287.086C47.9652 286.891 48.1045 286.784 48.1045 286.784Z" fill="#401A4C"></path><path d="M68.1759 283.042L67.3906 289.326H90.8909C90.8909 289.326 89.2573 286.624 82.7851 285.43C82.534 283.231 82.534 283.231 82.534 283.231L68.1759 283.042Z" fill="#76768C"></path><path d="M90.8915 289.326H67.2656V291.337H90.8915V289.326Z" fill="#B4B4D5"></path><path d="M67.7344 286.353C67.7344 286.353 67.9978 286.362 68.381 286.464C68.7599 286.571 69.2592 286.788 69.6634 287.15C69.855 287.339 70.0357 287.545 70.1504 287.771C70.2201 287.878 70.2621 287.993 70.2955 288.104C70.3369 288.213 70.3652 288.317 70.3775 288.417C70.4233 288.613 70.4124 288.78 70.408 288.895C70.4051 289.009 70.4037 289.074 70.4037 289.074C70.3906 289.077 70.3891 288.808 70.265 288.445C70.2186 288.261 70.1199 288.059 69.9965 287.861C69.884 287.655 69.7084 287.471 69.5255 287.302C69.1605 286.956 68.6938 286.728 68.3433 286.573C67.9877 286.421 67.7344 286.353 67.7344 286.353Z" fill="#401A4C"></path><path d="M80.5912 282.791C80.6492 284.131 80.6826 285.472 80.6862 286.812L80.589 286.717C81.6188 286.694 82.6436 286.772 83.6618 286.906C84.6757 287.057 85.6888 287.289 86.6235 287.713C85.6561 287.376 84.6488 287.202 83.6393 287.081C82.6291 286.961 81.6079 286.912 80.5933 286.907C80.5411 286.909 80.4975 286.864 80.4961 286.812C80.499 285.472 80.5324 284.131 80.5912 282.791Z" fill="#401A4C"></path><path d="M87.3194 286.614C87.3194 286.614 87.225 286.76 87.1002 286.984C86.9739 287.206 86.8055 287.5 86.6706 287.808C86.5196 288.11 86.4049 288.427 86.32 288.667C86.2315 288.907 86.1836 289.075 86.1836 289.075C86.1836 289.075 86.1843 289.031 86.1858 288.956C86.1879 288.88 86.1836 288.769 86.2075 288.64C86.2264 288.511 86.2533 288.359 86.3026 288.203C86.352 288.046 86.4122 287.881 86.4841 287.721C86.6386 287.406 86.831 287.112 87.0059 286.917C87.18 286.72 87.3194 286.614 87.3194 286.614Z" fill="#401A4C"></path><path d="M40.2071 171.365L26.5508 284.972H48.1663L57.8848 197.002L66.1924 230.477L66.0117 284.162L85.3651 283.796L84.8172 229.985C84.7997 228.307 84.5958 226.638 84.2082 225.006L71.4577 171.364L40.2071 171.365Z" fill="#356FE4"></path><path d="M27.0586 276.427C27.0586 276.427 28.378 276.405 30.3578 276.371C32.3369 276.358 34.9765 276.341 37.6153 276.324C40.2541 276.342 42.8936 276.358 44.8727 276.371C46.8518 276.405 48.1719 276.427 48.1719 276.427C48.1719 276.427 46.8525 276.448 44.8727 276.482C42.8936 276.495 40.2541 276.512 37.6153 276.529C34.9765 276.511 32.3369 276.495 30.3578 276.482C28.378 276.448 27.0586 276.427 27.0586 276.427Z" fill="#401A4C"></path><path d="M66.2695 276.005C66.2695 276.005 67.4634 275.983 69.2545 275.95C71.0457 275.937 73.4334 275.919 75.8211 275.902C78.2088 275.92 80.5965 275.937 82.3876 275.95C84.1787 275.983 85.3726 276.005 85.3726 276.005C85.3726 276.005 84.1787 276.027 82.3876 276.06C80.5965 276.073 78.2088 276.09 75.8211 276.107C73.4334 276.09 71.0457 276.072 69.2545 276.06C67.4634 276.027 66.2695 276.005 66.2695 276.005Z" fill="#401A4C"></path><path d="M43.8385 175.857C43.8385 175.857 40.7287 201.006 37.6189 226.154C34.4075 251.29 31.1953 276.426 31.1953 276.426C31.1953 276.426 34.3051 251.277 37.4149 226.129C40.6264 200.993 43.8385 175.857 43.8385 175.857Z" fill="#401A4C"></path><path d="M43.8398 185.943C43.8398 185.943 44.8203 186.098 46.2783 185.941C46.6419 185.899 47.0346 185.851 47.4403 185.748C47.8539 185.68 48.2633 185.51 48.6987 185.383C48.9055 185.289 49.116 185.195 49.3286 185.098L49.648 184.95L49.947 184.758C50.1451 184.626 50.3534 184.506 50.5472 184.364L51.0864 183.883C51.2787 183.734 51.4355 183.551 51.5814 183.359C51.733 183.173 51.884 182.986 52.0342 182.802C52.2773 182.395 52.5089 181.984 52.7157 181.581C52.8725 181.154 53.0234 180.74 53.1671 180.348C53.2723 179.945 53.3377 179.553 53.4168 179.196C53.4545 179.016 53.4901 178.845 53.5242 178.681C53.5387 178.515 53.5525 178.357 53.5663 178.209C53.5909 177.913 53.6127 177.653 53.6309 177.44C53.6664 177.013 53.6875 176.768 53.6875 176.768C53.6875 176.768 53.6795 177.013 53.6657 177.442C53.6584 177.656 53.6505 177.917 53.6403 178.217C53.6345 178.366 53.6287 178.526 53.6229 178.694C53.5938 178.86 53.5634 179.034 53.5314 179.216C53.4625 179.578 53.4073 179.977 53.3123 180.389C53.1751 180.791 53.0299 181.215 52.8797 181.653C52.6722 182.067 52.4392 182.49 52.1932 182.91C52.0408 183.102 51.8869 183.294 51.733 183.488C51.5843 183.687 51.4246 183.877 51.2279 184.031L50.6669 184.522C50.4666 184.666 50.2511 184.788 50.0464 184.921L49.7372 185.115L49.4085 185.264C49.1893 185.36 48.9759 185.462 48.7604 185.549C48.3155 185.68 47.8924 185.836 47.47 185.894C47.0549 185.986 46.6557 186.023 46.2878 186.056C45.5504 186.109 44.9343 186.076 44.5075 186.032C44.0801 185.994 43.8398 185.943 43.8398 185.943Z" fill="#401A4C"></path><path d="M59.4715 177.397C59.5514 181.837 59.5368 186.278 59.5681 190.718L59.4715 190.622L61.9848 190.621L61.8875 190.718C61.9187 186.278 61.9042 181.837 61.9848 177.397C62.0653 181.837 62.0508 186.278 62.082 190.718C62.0828 190.772 62.0392 190.815 61.9862 190.816H61.9848L59.4715 190.815C59.4185 190.816 59.375 190.773 59.375 190.72V190.718C59.4062 186.278 59.3917 181.837 59.4715 177.397Z" fill="#401A4C"></path><path d="M67.2915 178.026C67.2915 178.026 67.2602 178.218 67.2515 178.558C67.2392 178.727 67.2515 178.933 67.253 179.168C67.2777 179.402 67.2784 179.669 67.3285 179.954C67.3597 180.242 67.425 180.548 67.507 180.868C67.5883 181.187 67.708 181.516 67.8416 181.847C67.9918 182.173 68.1457 182.51 68.3685 182.816C68.5528 183.146 68.8329 183.412 69.0797 183.703C69.3489 183.97 69.6479 184.213 69.9433 184.444C70.2692 184.632 70.5718 184.851 70.8969 185.005C71.2279 185.147 71.5472 185.286 71.8506 185.417C72.1692 185.508 72.4704 185.595 72.749 185.674C73.0256 185.763 73.2846 185.82 73.5191 185.851C73.752 185.891 73.9545 185.926 74.1222 185.955C74.4575 186.013 74.649 186.046 74.649 186.046C74.649 186.046 74.456 186.026 74.1178 185.989C73.9487 185.971 73.7426 185.949 73.5067 185.925C73.3884 185.912 73.2629 185.899 73.1301 185.885C73.0009 185.854 72.8644 185.821 72.7222 185.787C72.4377 185.716 72.1293 185.64 71.8027 185.56C71.4899 185.434 71.1604 185.302 70.8193 185.165C70.4855 185.012 70.1705 184.792 69.8337 184.601C69.5275 184.367 69.2147 184.12 68.9338 183.846C68.6805 183.543 68.3968 183.264 68.2095 182.921C67.9838 182.602 67.8285 182.253 67.6783 181.916C67.5411 181.575 67.4344 181.231 67.3626 180.903C67.2907 180.573 67.2363 180.26 67.2145 179.967C67.1717 179.676 67.1891 179.405 67.1797 179.169C67.1942 178.931 67.1949 178.724 67.2182 178.555C67.2479 178.215 67.2915 178.026 67.2915 178.026Z" fill="#401A4C"></path><path d="M57.8867 197.002C57.8867 197.002 58.3403 196.823 59.0203 196.555C59.7025 196.293 60.6206 195.969 61.5401 195.648C62.464 195.341 63.3886 195.036 64.0889 194.827C64.7914 194.624 65.2596 194.489 65.2596 194.489C65.2596 194.489 64.806 194.668 64.1259 194.936C63.4437 195.198 62.5257 195.522 61.6062 195.843C60.6823 196.15 59.7577 196.455 59.0573 196.664C58.3548 196.867 57.8867 197.002 57.8867 197.002Z" fill="#401A4C"></path><path d="M62.7442 103.502H52.1875V122.604H62.7442V103.502Z" fill="#E3BAA1"></path><path d="M60.7305 115.064H62.7408V116.682L60.7305 115.064Z" fill="#401A4C"></path><path d="M68.2736 108.907C68.2736 112.365 65.481 115.064 62.0358 115.064H58.4253C54.9802 115.064 52.1875 112.365 52.1875 108.907V96.7061C52.1875 93.2486 54.9802 90.432 58.4253 90.432H62.0358C65.481 90.432 68.2736 93.2486 68.2736 96.7061V108.907Z" fill="#E3BAA1"></path><path d="M50.7478 108.824C52.2697 108.824 53.5035 107.629 53.5035 106.155C53.5035 104.68 52.2697 103.485 50.7478 103.485C49.2259 103.485 47.9922 104.68 47.9922 106.155C47.9922 107.629 49.2259 108.824 50.7478 108.824Z" fill="#E3BAA1"></path><path d="M60.2797 102.602C60.2797 103.09 60.0649 103.485 59.8 103.485C59.5351 103.485 59.3203 103.09 59.3203 102.602C59.3203 102.114 59.5351 101.719 59.8 101.719C60.0649 101.719 60.2797 102.114 60.2797 102.602Z" fill="#401A4C"></path><path d="M68.0376 102.602C68.0376 103.09 67.8227 103.485 67.5578 103.485C67.2929 103.485 67.0781 103.09 67.0781 102.602C67.0781 102.114 67.2929 101.719 67.5578 101.719C67.8235 101.719 68.0376 102.114 68.0376 102.602Z" fill="#401A4C"></path><path d="M64.7789 101.987C64.7789 101.987 64.7753 102.437 64.7992 103.109C64.8072 103.445 64.8334 103.837 64.8762 104.251C64.8987 104.458 64.9292 104.67 64.98 104.879C65.0315 105.079 65.1084 105.305 65.2405 105.403C65.2971 105.453 65.3675 105.432 65.5097 105.438C65.6462 105.447 65.7703 105.495 65.8733 105.576C66.078 105.742 66.1593 105.989 66.1803 106.21C66.2203 106.663 66.0432 107.066 65.8225 107.334C65.599 107.609 65.3211 107.731 65.1345 107.79C64.9429 107.846 64.8305 107.852 64.8305 107.852C64.8087 107.84 65.3377 107.807 65.7318 107.264C65.9241 107.006 66.0483 106.62 66.004 106.229C65.9829 106.037 65.9038 105.84 65.7565 105.727C65.6854 105.671 65.591 105.64 65.5039 105.636C65.4611 105.628 65.4031 105.642 65.3377 105.639C65.2623 105.644 65.1824 105.612 65.1237 105.572C64.8965 105.385 64.853 105.14 64.792 104.923C64.7426 104.7 64.7158 104.48 64.6969 104.268C64.6592 103.843 64.673 103.447 64.6817 103.109C64.7143 102.433 64.7789 101.987 64.7789 101.987Z" fill="#401A4C"></path><path d="M58.418 101.575C58.418 101.575 58.476 101.463 58.6132 101.333C58.7489 101.201 58.9761 101.07 59.2337 101.022C59.3622 101.002 59.4935 101.008 59.6133 101.024C59.733 101.043 59.8382 101.087 59.9224 101.129C60.0908 101.217 60.1735 101.315 60.1772 101.307C60.1772 101.307 60.0574 101.268 59.884 101.238C59.7127 101.204 59.4863 101.177 59.2685 101.225C58.8316 101.293 58.418 101.575 58.418 101.575Z" fill="#401A4C"></path><path d="M66.4453 101.575C66.4453 101.575 66.5034 101.463 66.6405 101.333C66.7762 101.201 67.0041 101.07 67.2618 101.022C67.3902 101.002 67.5216 101.008 67.6413 101.024C67.7611 101.043 67.8663 101.087 67.9505 101.129C68.1189 101.217 68.2016 101.315 68.2052 101.307C68.2052 101.307 68.0855 101.268 67.912 101.238C67.7408 101.204 67.5143 101.177 67.2966 101.225C66.8583 101.293 66.4453 101.575 66.4453 101.575Z" fill="#401A4C"></path><path d="M61.5 108.823C61.5 108.823 61.6197 108.967 61.8259 109.142C62.0312 109.314 62.3194 109.536 62.6547 109.621C62.8165 109.681 62.9907 109.695 63.1518 109.693C63.3129 109.682 63.4689 109.671 63.5967 109.629C63.8579 109.567 64.0314 109.491 64.0314 109.491C64.0314 109.491 63.9937 109.518 63.9276 109.564C63.8594 109.608 63.7694 109.69 63.6351 109.738C63.5691 109.764 63.5009 109.804 63.4189 109.82C63.3383 109.836 63.2548 109.873 63.1634 109.871C62.9827 109.883 62.7831 109.878 62.5959 109.819C62.217 109.704 61.9173 109.442 61.7424 109.222C61.5682 108.999 61.5 108.823 61.5 108.823Z" fill="#401A4C"></path><path d="M50.5148 107.852C50.419 107.781 50.3348 107.703 50.2601 107.602C50.194 107.5 50.1418 107.388 50.112 107.267C50.0612 107.024 50.1011 106.766 50.202 106.539C50.4016 106.079 50.8813 105.755 51.3901 105.731L51.2935 105.852C51.2485 105.631 51.1774 105.416 51.0577 105.228C50.9408 105.037 50.7688 104.889 50.5787 104.771C50.3856 104.657 50.1628 104.588 49.9342 104.572C49.7063 104.552 49.4668 104.582 49.2578 104.697C49.6468 104.408 50.2107 104.41 50.6534 104.631C51.1164 104.848 51.3988 105.332 51.4946 105.813C51.5054 105.869 51.4699 105.922 51.4147 105.933L51.3973 105.935C51.1803 105.943 50.9655 106.008 50.7819 106.126C50.5968 106.244 50.4495 106.414 50.3421 106.607C50.2368 106.801 50.1839 107.028 50.2093 107.25C50.2201 107.361 50.2528 107.47 50.3014 107.575C50.3566 107.676 50.4306 107.769 50.5148 107.852Z" fill="#401A4C"></path><path d="M50.8304 119.236C51.2717 119.163 51.7238 119.096 52.1861 119.04C58.8724 121.743 60.7949 122.269 62.8683 119.548C69.0872 120.778 71.8741 122.94 71.8741 122.94L74.6421 178.706L36.9375 175.219L40.7905 130.127C41.26 124.631 45.3888 120.144 50.8304 119.236Z" fill="#F67406"></path><path d="M51.3828 119.15C51.9387 119.538 52.5324 119.867 53.1326 120.176C53.732 120.487 54.3497 120.763 54.9796 121.003C55.6066 121.25 56.2467 121.466 56.8999 121.633C57.2243 121.725 57.5545 121.789 57.8833 121.862C58.2113 121.937 58.5459 121.978 58.8776 122.038L58.8856 122.04C59.8239 122.249 60.8356 122.238 61.7094 121.819C62.5789 121.403 63.2603 120.617 63.6181 119.706C63.3133 120.634 62.6696 121.486 61.7704 121.942C60.8755 122.416 59.8094 122.435 58.8442 122.227L58.8514 122.228C58.5154 122.172 58.1758 122.133 57.8427 122.061C57.5081 121.994 57.1757 121.918 56.8484 121.823C56.1894 121.647 55.545 121.422 54.9143 121.166C53.658 120.644 52.4547 119.983 51.3828 119.15Z" fill="#401A4C"></path><path d="M72.293 131.15C72.293 131.15 72.3561 131.976 72.4512 133.215C72.5397 134.455 72.6304 136.109 72.7183 137.764C72.7923 139.418 72.8627 141.074 72.8953 142.316C72.9215 143.559 72.9382 144.388 72.9382 144.388C72.9382 144.388 72.8743 143.562 72.7792 142.322C72.6907 141.083 72.6 139.429 72.5129 137.774C72.4396 136.119 72.3684 134.464 72.3358 133.221C72.3104 131.978 72.293 131.15 72.293 131.15Z" fill="#401A4C"></path><path d="M60.2807 106.934C60.2807 107.441 59.6501 107.852 58.8728 107.852C58.0948 107.852 57.4648 107.441 57.4648 106.934C57.4648 106.427 58.0955 106.016 58.8728 106.016C59.6508 106.016 60.2807 106.427 60.2807 106.934Z" fill="#E39FA1"></path><mask id="mask0_2288_233240" style="mask-type:luminance" maskUnits="userSpaceOnUse" x="52" y="90" width="17" height="26"><path d="M68.2853 108.907C68.2853 112.365 65.4927 115.064 62.0476 115.064H58.437C54.9919 115.064 52.1992 112.365 52.1992 108.907V96.7061C52.1992 93.2486 54.9919 90.432 58.437 90.432H62.0476C65.4927 90.432 68.2853 93.2486 68.2853 96.7061V108.907Z" fill="white"></path></mask><g mask="url(#mask0_2288_233240)"><path d="M69.4643 106.934C69.4643 107.441 68.8337 107.852 68.0564 107.852C67.2784 107.852 66.6484 107.441 66.6484 106.934C66.6484 106.427 67.2791 106.016 68.0564 106.016C68.8337 106.016 69.4643 106.427 69.4643 106.934Z" fill="#E39FA1"></path></g><path d="M102.172 160.728C104.133 161.586 109.198 162.925 109.476 162.361C109.755 161.796 107.182 160.305 107.182 160.305C107.182 160.305 110.417 161.405 110.822 160.622C111.227 159.84 108.075 158.261 108.075 158.261C108.075 158.261 111.578 159.318 111.723 158.482C111.869 157.646 108.406 156.269 108.406 156.269C108.406 156.269 111.509 157.099 111.642 156.45C111.776 155.801 108.55 153.933 104.654 152.135" fill="#E3BAA1"></path><path d="M97.0342 158.009C97.0342 158.009 104.222 162.9 106.043 160.76C107.864 158.62 110.39 153.258 100.54 150.455C90.6897 147.652 97.0342 158.009 97.0342 158.009Z" fill="#E3BAA1"></path><path d="M61.7446 129.095C58.8656 124.585 48.7588 117.086 44.4922 128.675L54.2542 144.145C58.2922 141.671 62.5073 139.579 66.4205 137.075C66.4205 137.075 62.9892 131.045 61.7446 129.095Z" fill="#F67406"></path><path d="M66.426 137.075C66.426 137.075 66.1139 136.588 65.6458 135.858C65.1835 135.124 64.5906 134.132 63.9998 133.138C63.4214 132.138 62.8451 131.135 62.4307 130.373C62.0222 129.607 61.75 129.096 61.75 129.096C61.75 129.096 62.0621 129.583 62.5302 130.313C62.9925 131.047 63.5854 132.039 64.1762 133.033C64.7546 134.034 65.3308 135.036 65.7452 135.799C66.1531 136.565 66.426 137.075 66.426 137.075Z" fill="#401A4C"></path><path d="M44.4922 128.675C44.4922 128.675 45.1214 129.63 46.0641 131.063C46.9902 132.506 48.2254 134.431 49.4599 136.355C50.6654 138.298 51.8716 140.241 52.7758 141.698C53.6627 143.166 54.2542 144.144 54.2542 144.144C54.2542 144.144 53.625 143.189 52.6822 141.757C51.7562 140.313 50.5217 138.389 49.2865 136.465C48.081 134.522 46.8755 132.579 45.9713 131.122C45.0829 129.654 44.4922 128.675 44.4922 128.675Z" fill="#401A4C"></path><path d="M69.2031 141.817L66.4242 137.075C62.5102 139.579 58.2959 141.67 54.2578 144.145L56.914 148.354C59.3184 152.165 63.2926 154.708 67.7596 155.297L100.875 159.737L102.098 150.759L69.2031 141.817Z" fill="#E3BAA1"></path><path d="M106.242 155.404C106.242 155.404 106.453 155.465 106.765 155.562C107.076 155.66 107.482 155.811 107.893 155.951C108.297 156.105 108.705 156.246 109.011 156.354C109.316 156.464 109.527 156.524 109.527 156.524C109.527 156.524 109.307 156.523 108.981 156.466C108.656 156.411 108.236 156.285 107.823 156.144C107.414 155.989 107.012 155.819 106.721 155.669C106.429 155.519 106.242 155.404 106.242 155.404Z" fill="#401A4C"></path><path d="M106 157.491L109.63 158.644C109.63 158.644 109.39 158.632 109.034 158.576C108.677 158.522 108.211 158.406 107.752 158.266C107.297 158.113 106.85 157.938 106.528 157.778C106.205 157.619 106 157.491 106 157.491Z" fill="#401A4C"></path><path d="M105.699 159.737C105.699 159.737 105.918 159.792 106.241 159.884C106.564 159.976 106.986 160.12 107.411 160.254C107.832 160.397 108.254 160.539 108.57 160.646C108.885 160.753 109.104 160.805 109.104 160.805C109.104 160.805 108.877 160.813 108.542 160.758C108.207 160.707 107.773 160.585 107.344 160.449C106.921 160.3 106.503 160.136 106.199 159.992C105.896 159.847 105.699 159.737 105.699 159.737Z" fill="#401A4C"></path><path d="M51.981 103.502V106.933H53.3012C53.3012 106.933 53.09 101.966 54.315 101.058C55.5394 100.151 53.9971 97.974 54.8136 96.4318C55.6301 94.8896 57.8937 99.2441 60.5267 96.8854C63.1597 94.5268 66.8515 99.8494 71.5377 94.4665C76.2231 89.0837 57.8987 88.3579 54.315 89.9909C50.7313 91.6245 48.3327 101.954 51.981 103.502Z" fill="#5986E4"></path><path d="M105.238 118.868C107.224 115.713 109.376 116.051 109.488 116.75C109.6 117.449 108.289 119.561 108.289 119.561C108.289 119.561 109.764 122.105 107.296 124.014" fill="#E3BAA1"></path><path d="M53.1641 142.395C53.1641 142.395 53.9196 141.934 55.0525 141.241C56.189 140.553 57.7174 139.662 59.248 138.772C60.7851 137.894 62.3237 137.019 63.4878 136.38C64.6555 135.748 65.4342 135.326 65.4342 135.326C65.4342 135.326 64.6787 135.788 63.5458 136.481C62.4093 137.168 60.8809 138.06 59.3503 138.95C57.8132 139.827 56.2746 140.702 55.1098 141.341C53.9428 141.974 53.1641 142.395 53.1641 142.395Z" fill="#401A4C"></path><path d="M72.7344 136.663C72.7344 136.663 73.1364 136.311 73.7395 135.781C74.347 135.257 75.1736 134.579 76.0017 133.903C76.8392 133.239 77.6781 132.577 78.3204 132.096C78.9671 131.621 79.3982 131.304 79.3982 131.304C79.3982 131.304 78.9961 131.657 78.393 132.186C77.7863 132.711 76.9589 133.388 76.1309 134.064C75.2933 134.728 74.4544 135.39 73.8121 135.871C73.1655 136.347 72.7344 136.663 72.7344 136.663Z" fill="#401A4C"></path><path d="M72.9453 142.832C72.9453 142.832 73.9135 143.071 75.3657 143.43C76.8164 143.795 78.7433 144.308 80.6694 144.824C82.5919 145.354 84.5137 145.887 85.9492 146.306C87.3833 146.732 88.3391 147.016 88.3391 147.016C88.3391 147.016 87.3709 146.777 85.9187 146.418C84.468 146.053 82.5411 145.539 80.615 145.023C78.6925 144.494 76.7707 143.961 75.3352 143.541C73.9018 143.115 72.9453 142.832 72.9453 142.832Z" fill="#401A4C"></path><path d="M81.043 137.075C81.043 137.075 81.2832 136.858 81.654 136.546C82.0249 136.234 82.5351 135.839 83.0475 135.447C83.5678 135.066 84.0904 134.688 84.4946 134.42C84.8988 134.152 85.1746 133.983 85.1746 133.983C85.1746 133.983 84.9344 134.2 84.5636 134.512C84.1934 134.824 83.6825 135.219 83.1701 135.611C82.649 135.991 82.1272 136.37 81.723 136.637C81.3187 136.906 81.043 137.075 81.043 137.075Z" fill="#401A4C"></path><path d="M67.2438 88.6642C67.2438 88.6642 65.7198 87.4987 64.195 86.3324C63.8162 86.0341 63.4344 85.7591 63.0324 85.5609C62.6354 85.357 62.2427 85.2075 61.9016 85.0986C61.2165 84.8809 60.7383 84.8199 60.7383 84.8199C60.7383 84.8199 61.2187 84.8613 61.9154 85.0522C62.2631 85.148 62.6644 85.283 63.0752 85.4731C63.4903 85.6567 63.9011 85.9282 64.2872 86.2083C65.8577 87.3121 67.4275 88.416 67.4275 88.416C67.4971 88.4654 67.5138 88.5612 67.4652 88.6308C67.4159 88.7005 67.3201 88.7172 67.2504 88.6686C67.2482 88.6671 67.2453 88.6649 67.2438 88.6642Z" fill="#5986E4"></path><path d="M71.84 93.9331C71.84 93.9331 72.2457 93.6718 72.7312 93.1181C73.2189 92.573 73.7436 91.7174 73.9839 90.7579C74.2277 89.7978 74.2386 88.7926 74.2132 88.0473C74.1842 87.2998 74.1065 86.8055 74.1065 86.8055C74.1065 86.8055 74.203 87.2961 74.2625 88.0444C74.317 88.789 74.3482 89.8043 74.137 90.7942C73.928 91.7892 73.4185 92.6993 72.9308 93.2864C72.4482 93.8816 72.0164 94.1864 72.0164 94.1864L72.0127 94.1893C71.9431 94.2386 71.8465 94.2219 71.7979 94.1523C71.7486 94.0826 71.7653 93.9861 71.8349 93.9374C71.8364 93.936 71.8386 93.9345 71.84 93.9331Z" fill="#5986E4"></path><path d="M60.9314 89.316C60.9314 89.316 59.2506 88.3899 57.5697 87.4631C57.151 87.2244 56.7322 87.0088 56.3055 86.8724C55.8824 86.7294 55.4723 86.6401 55.1182 86.5828C54.4084 86.4689 53.9258 86.4798 53.9258 86.4798C53.9258 86.4798 54.4069 86.4493 55.1247 86.5349C55.4825 86.5785 55.8991 86.6518 56.3345 86.7788C56.7721 86.8985 57.2192 87.1061 57.6423 87.326C59.3594 88.1845 61.0758 89.0424 61.0758 89.0424C61.152 89.0808 61.1832 89.173 61.1448 89.2492C61.1063 89.3254 61.0141 89.3566 60.9379 89.3181C60.9365 89.3189 60.9328 89.3167 60.9314 89.316Z" fill="#5986E4"></path><path d="M267.931 190.96H257.105V131.945H267.931C283.351 131.945 291.543 145.156 291.543 161.453C291.543 177.749 283.351 190.96 267.931 190.96Z" fill="#356FE4"></path><path d="M200.324 290.923H263.36C271.232 290.923 277.613 284.542 277.613 276.67V146.199C277.613 138.327 271.232 131.945 263.36 131.945H200.324C192.452 131.945 186.07 138.327 186.07 146.199V276.67C186.07 284.542 192.452 290.923 200.324 290.923Z" fill="#356FE4"></path><path d="M277.608 188.552C277.608 188.552 277.586 184.623 277.553 178.732C277.54 172.84 277.522 164.983 277.506 157.127C277.51 155.163 277.514 153.199 277.518 151.266C277.52 150.299 277.522 149.341 277.525 148.393C277.525 147.442 277.543 146.513 277.486 145.593C277.374 143.766 276.934 142.024 276.261 140.484C275.591 138.943 274.694 137.608 273.715 136.518C272.741 135.418 271.672 134.575 270.656 133.954C269.651 133.305 268.673 132.924 267.869 132.629C267.049 132.38 266.395 132.206 265.938 132.149C265.485 132.072 265.242 132.031 265.242 132.031C265.242 132.031 265.485 132.069 265.94 132.141C266.398 132.191 267.054 132.357 267.88 132.596C268.689 132.883 269.676 133.252 270.695 133.891C271.223 134.18 271.723 134.581 272.266 134.978C272.774 135.42 273.308 135.886 273.797 136.444C274.788 137.538 275.699 138.88 276.382 140.431C277.066 141.98 277.52 143.738 277.641 145.586C277.702 146.505 277.689 147.448 277.692 148.392C277.695 149.34 277.697 150.299 277.699 151.265C277.703 153.199 277.707 155.163 277.711 157.127C277.694 164.983 277.676 172.839 277.664 178.731C277.631 184.624 277.608 188.552 277.608 188.552Z" fill="#401A4C"></path><path d="M189.308 290.923H252.344C260.216 290.923 266.598 284.542 266.598 276.67V146.199C266.598 138.327 260.216 131.945 252.344 131.945H189.308C181.436 131.945 175.055 138.327 175.055 146.199V276.67C175.055 284.542 181.436 290.923 189.308 290.923Z" fill="#5986E4"></path><path d="M186.07 198.989H255.582V149.61H186.07V198.989Z" fill="white"></path><path d="M246.657 211.435H253.106C254.472 211.435 255.579 210.327 255.579 208.961V208.823C255.579 207.457 254.472 206.349 253.106 206.349H246.657C245.291 206.349 244.184 207.457 244.184 208.823V208.961C244.184 210.327 245.291 211.435 246.657 211.435Z" fill="white"></path><path d="M233.485 211.435H239.934C241.3 211.435 242.407 210.327 242.407 208.961V208.823C242.407 207.457 241.3 206.349 239.934 206.349H233.485C232.119 206.349 231.012 207.457 231.012 208.823V208.961C231.012 210.327 232.119 211.435 233.485 211.435Z" fill="white"></path><path d="M201.708 211.435H208.157C209.523 211.435 210.63 210.327 210.63 208.961V208.823C210.63 207.457 209.523 206.349 208.157 206.349H201.708C200.342 206.349 199.234 207.457 199.234 208.823V208.961C199.234 210.327 200.342 211.435 201.708 211.435Z" fill="white"></path><path d="M188.544 211.435H194.993C196.358 211.435 197.466 210.327 197.466 208.961V208.823C197.466 207.457 196.358 206.349 194.993 206.349H188.544C187.178 206.349 186.07 207.457 186.07 208.823V208.961C186.07 210.327 187.178 211.435 188.544 211.435Z" fill="white"></path><path d="M215.392 213.308H225.379C226.817 213.308 227.983 212.142 227.983 210.705V207.079C227.983 205.642 226.817 204.476 225.379 204.476H215.392C213.955 204.476 212.789 205.642 212.789 207.079V210.705C212.789 212.142 213.955 213.308 215.392 213.308Z" fill="#F67406"></path><path d="M238.732 230.17H253.563C254.677 230.17 255.581 229.266 255.581 228.152V220.946C255.581 219.832 254.677 218.929 253.563 218.929H238.732C237.618 218.929 236.715 219.832 236.715 220.946V228.152C236.715 229.266 237.618 230.17 238.732 230.17Z" fill="#B4B4D5"></path><path d="M188.088 230.17H202.918C204.032 230.17 204.936 229.266 204.936 228.152V220.946C204.936 219.832 204.032 218.929 202.918 218.929H188.088C186.974 218.929 186.07 219.832 186.07 220.946V228.152C186.07 229.266 186.974 230.17 188.088 230.17Z" fill="#B4B4D5"></path><path d="M213.412 230.17H228.243C229.357 230.17 230.26 229.266 230.26 228.152V220.946C230.26 219.832 229.357 218.929 228.243 218.929H213.412C212.298 218.929 211.395 219.832 211.395 220.946V228.152C211.395 229.266 212.297 230.17 213.412 230.17Z" fill="#B4B4D5"></path><path d="M238.732 245.157H253.563C254.677 245.157 255.581 244.254 255.581 243.139V235.934C255.581 234.82 254.677 233.916 253.563 233.916H238.732C237.618 233.916 236.715 234.82 236.715 235.934V243.139C236.715 244.254 237.618 245.157 238.732 245.157Z" fill="#B4B4D5"></path><path d="M188.088 245.157H202.918C204.032 245.157 204.936 244.254 204.936 243.139V235.934C204.936 234.82 204.032 233.916 202.918 233.916H188.088C186.974 233.916 186.07 234.82 186.07 235.934V243.139C186.07 244.254 186.974 245.157 188.088 245.157Z" fill="#B4B4D5"></path><path d="M213.412 245.157H228.243C229.357 245.157 230.26 244.254 230.26 243.139V235.934C230.26 234.82 229.357 233.916 228.243 233.916H213.412C212.298 233.916 211.395 234.82 211.395 235.934V243.139C211.395 244.254 212.297 245.157 213.412 245.157Z" fill="#B4B4D5"></path><path d="M238.732 260.145H253.563C254.677 260.145 255.581 259.242 255.581 258.128V250.922C255.581 249.808 254.677 248.904 253.563 248.904H238.732C237.618 248.904 236.715 249.808 236.715 250.922V258.128C236.715 259.242 237.618 260.145 238.732 260.145Z" fill="#B4B4D5"></path><path d="M188.088 260.145H202.918C204.032 260.145 204.936 259.242 204.936 258.128V250.922C204.936 249.808 204.032 248.904 202.918 248.904H188.088C186.974 248.904 186.07 249.808 186.07 250.922V258.128C186.07 259.242 186.974 260.145 188.088 260.145Z" fill="#B4B4D5"></path><path d="M213.412 260.145H228.243C229.357 260.145 230.26 259.242 230.26 258.128V250.922C230.26 249.808 229.357 248.904 228.243 248.904H213.412C212.298 248.904 211.395 249.808 211.395 250.922V258.128C211.395 259.242 212.297 260.145 213.412 260.145Z" fill="#B4B4D5"></path><path d="M238.732 275.132H253.563C254.677 275.132 255.581 274.229 255.581 273.115V265.909C255.581 264.795 254.677 263.891 253.563 263.891H238.732C237.618 263.891 236.715 264.795 236.715 265.909V273.115C236.715 274.23 237.618 275.132 238.732 275.132Z" fill="white"></path><path d="M188.088 275.132H202.918C204.032 275.132 204.936 274.229 204.936 273.115V265.909C204.936 264.795 204.032 263.891 202.918 263.891H188.088C186.974 263.891 186.07 264.795 186.07 265.909V273.115C186.07 274.23 186.974 275.132 188.088 275.132Z" fill="#F67406"></path><path d="M213.412 275.132H228.243C229.357 275.132 230.26 274.229 230.26 273.115V265.909C230.26 264.795 229.357 263.891 228.243 263.891H213.412C212.298 263.891 211.395 264.795 211.395 265.909V273.115C211.395 274.23 212.297 275.132 213.412 275.132Z" fill="#F6921E"></path><path d="M268.429 89.4646C275.495 89.4646 281.276 95.5746 281.276 103.043V118.896H255.582V111.346V108V103.043C255.582 95.5754 261.363 89.4646 268.429 89.4646Z" fill="#D3D1E8"></path><path d="M185.092 140.243H256.573C257.146 140.243 257.614 139.774 257.614 139.201V139.143C257.614 138.57 257.146 138.101 256.573 138.101H185.092C184.52 138.101 184.051 138.57 184.051 139.143V139.201C184.051 139.774 184.52 140.243 185.092 140.243Z" fill="#401A4C"></path><path d="M198.917 89.4646H268.429C261.363 89.4646 255.582 95.5746 255.582 103.043V139.172H186.07V103.043C186.07 95.5754 191.852 89.4646 198.917 89.4646Z" fill="#E3E2EF"></path><path d="M150.864 59.2288C153.797 60.6556 158.225 62.0824 162.641 62.0824C167.397 62.0824 169.706 60.112 169.397 57.1234C169.101 54.2705 166.759 52.6398 161.052 50.6694C153.169 48.0197 147.774 43.8082 147.085 37.1502C146.277 29.3376 152.179 23.3596 162.981 23.3596C168.144 23.3596 172.061 24.4468 174.905 25.6697L173.46 34.0259C171.535 33.1426 168.14 31.8523 163.656 31.8523C159.172 31.8523 157.209 33.8902 157.455 36.2677C157.758 39.1888 160.473 40.4799 166.615 42.7217C175.008 45.7111 179.249 49.9226 179.917 56.3766C180.712 64.0528 175.484 70.6426 162.916 70.6426C157.685 70.6426 152.374 69.2158 149.645 67.7897L150.864 59.2288Z" fill="#356FE4"></path><path d="M164.994 17.2502H161.996V76.7504H164.994V17.2502Z" fill="#356FE4"></path><path d="M163.504 0V9.79755" stroke="#356FE4" stroke-miterlimit="10"></path><path d="M147.434 2.83411L150.784 12.0409" stroke="#356FE4" stroke-miterlimit="10"></path><path d="M133.289 10.9957L139.586 18.5014" stroke="#356FE4" stroke-miterlimit="10"></path><path d="M122.801 23.5004L131.285 28.3991" stroke="#356FE4" stroke-miterlimit="10"></path><path d="M195.719 28.3991L204.203 23.5004" stroke="#356FE4" stroke-miterlimit="10"></path><path d="M187.418 18.5014L193.715 10.9957" stroke="#356FE4" stroke-miterlimit="10"></path><path d="M176.227 12.0409L179.577 2.83411" stroke="#356FE4" stroke-miterlimit="10"></path><path d="M119.428 74.2371C120.902 74.9542 123.126 75.6705 125.345 75.6705C127.734 75.6705 128.894 74.6806 128.739 73.179C128.591 71.7456 127.414 70.9263 124.546 69.9364C120.586 68.6054 117.875 66.4891 117.529 63.1441C117.123 59.2186 120.089 56.2155 125.516 56.2155C128.11 56.2155 130.078 56.7612 131.507 57.3759L130.781 61.5744C129.814 61.1309 128.108 60.4821 125.856 60.4821C123.603 60.4821 122.617 61.5061 122.741 62.7007C122.892 64.1682 124.257 64.817 127.343 65.9433C131.56 67.4449 133.69 69.5612 134.026 72.8038C134.425 76.6604 131.799 79.9712 125.484 79.9712C122.856 79.9712 120.188 79.2542 118.817 78.5379L119.428 74.2371Z" fill="#D3D1E8"></path><path d="M126.53 53.1462H125.023V83.0411H126.53V53.1462Z" fill="#D3D1E8"></path><path d="M125.777 44.4794V49.4014" stroke="#E3E2EF" stroke-miterlimit="10"></path><path d="M117.699 45.9033L119.383 50.5285" stroke="#E3E2EF" stroke-miterlimit="10"></path><path d="M110.594 50.0038L113.758 53.7748" stroke="#E3E2EF" stroke-miterlimit="10"></path><path d="M105.328 56.2865L109.591 58.7475" stroke="#E3E2EF" stroke-miterlimit="10"></path><path d="M141.965 58.7475L146.228 56.2865" stroke="#E3E2EF" stroke-miterlimit="10"></path><path d="M137.781 53.7748L140.945 50.0038" stroke="#E3E2EF" stroke-miterlimit="10"></path><path d="M132.168 50.5285L133.852 45.9033" stroke="#E3E2EF" stroke-miterlimit="10"></path><path d="M196.18 59.6655C197.273 60.1975 198.925 60.7294 200.571 60.7294C202.345 60.7294 203.206 59.995 203.09 58.8802C202.98 57.8163 202.107 57.2081 199.978 56.4737C197.038 55.4859 195.027 53.9147 194.77 51.4319C194.468 48.5188 196.67 46.2893 200.698 46.2893C202.623 46.2893 204.084 46.695 205.144 47.1508L204.606 50.2671C203.887 49.9376 202.621 49.4565 200.949 49.4565C199.277 49.4565 198.545 50.2163 198.637 51.1032C198.75 52.1925 199.763 52.6737 202.053 53.5097C205.183 54.6245 206.765 56.195 207.014 58.6016C207.31 61.4646 205.36 63.922 200.674 63.922C198.723 63.922 196.742 63.39 195.725 62.858L196.18 59.6655Z" fill="#D3D1E8"></path><path d="M201.457 44.0112H200.34V66.2001H201.457V44.0112Z" fill="#D3D1E8"></path><path d="M200.898 37.5782V41.2324" stroke="#E3E2EF" stroke-miterlimit="10"></path><path d="M194.898 38.6356L196.148 42.0684" stroke="#E3E2EF" stroke-miterlimit="10"></path><path d="M189.633 41.6787L191.981 44.4779" stroke="#E3E2EF" stroke-miterlimit="10"></path><path d="M185.715 46.3423L188.879 48.169" stroke="#E3E2EF" stroke-miterlimit="10"></path><path d="M212.906 48.169L216.07 46.3423" stroke="#E3E2EF" stroke-miterlimit="10"></path><path d="M209.816 44.4779L212.165 41.6787" stroke="#E3E2EF" stroke-miterlimit="10"></path><path d="M205.641 42.0684L206.89 38.6356" stroke="#E3E2EF" stroke-miterlimit="10"></path><path d="M54.9128 223.954C53.8148 223.986 52.7813 224.458 51.93 225.119C51.0657 225.775 50.353 226.613 49.7513 227.514C48.5582 229.329 47.7809 231.404 47.3963 233.534C47.008 235.65 46.9913 237.914 47.8274 239.925C48.2447 240.921 48.9037 241.821 49.7651 242.477C50.6179 243.146 51.6542 243.56 52.7233 243.769C51.6492 243.592 50.5925 243.211 49.7042 242.557C48.8188 241.902 48.1373 240.989 47.7018 239.98C46.8295 237.94 46.8222 235.645 47.1945 233.497C47.6075 231.344 48.4138 229.259 49.6389 227.437C50.2565 226.534 50.9851 225.692 51.8705 225.038C52.753 224.395 53.8148 223.952 54.9128 223.954Z" fill="#401A4C"></path><path d="M82.7835 218.998C82.0367 219.793 81.4416 220.712 80.9024 221.653C80.3588 222.593 79.8827 223.573 79.4785 224.58C78.6758 226.592 78.1337 228.73 78.0807 230.894C77.9987 233.044 78.49 235.263 79.7608 237.026C80.3857 237.908 81.1782 238.663 82.0599 239.292C82.9461 239.92 83.9258 240.403 84.9317 240.819C83.9142 240.435 82.9163 239.981 82.0026 239.375C81.1041 238.752 80.2935 237.994 79.6497 237.106C78.3398 235.328 77.8136 233.071 77.876 230.889C77.953 228.693 78.5241 226.545 79.3529 224.529C80.1984 222.525 81.2631 220.569 82.7835 218.998Z" fill="#401A4C"></path></svg>