<svg xmlns="http://www.w3.org/2000/svg" width="500" height="300" viewBox="0 0 500 300" fill="none"><rect width="500" height="300" rx="24" fill="white"></rect><path d="M299.098 16.5017L304.056 13.62L339.51 13.4635L334.551 16.3459L299.098 16.5017Z" fill="#CF3C3E"></path><path d="M353.56 97.6401L348.602 100.522C370.009 88.0811 369.895 59.1579 369.887 57.371L374.846 54.4893C374.853 56.2762 374.967 85.1994 353.56 97.6401Z" fill="#9C2E2F"></path><path d="M334.553 16.3459L369.887 57.3702C369.895 59.4899 370.054 99.7658 334.3 105.469C298.692 58.5653 299.079 18.6046 299.1 16.5017L334.553 16.3459Z" fill="#E64345"></path><path d="M336.098 100.834C308.879 64.0346 304.226 32.175 303.461 20.7038L332.62 20.5754L365.634 58.9056C365.509 62.3875 364.849 70.3564 361.582 78.5076C356.697 90.6885 348.132 98.1894 336.098 100.834Z" fill="#FFC61A"></path><path d="M334.551 16.3459L339.51 13.4635L374.843 54.4885L369.885 57.3702L334.551 16.3459Z" fill="#BF3739"></path><path d="M344.916 65.1408C345.49 66.6192 345.779 68.1197 345.774 69.646C345.767 72.4046 344.894 74.1171 343.153 74.7895C341.414 75.4633 338.981 75.0599 335.855 73.5845L335.84 78.9186L332.739 77.1279L332.754 71.8964C329.075 69.6886 325.846 67.0751 323.074 64.068L323.094 57.2038C324.404 58.7051 325.982 60.2777 327.83 61.918C329.678 63.5583 331.324 64.8453 332.772 65.7873L332.794 57.725L331.282 56.1713C328.297 53.0952 326.186 50.4049 324.945 48.0991C323.705 45.7933 323.086 43.4678 323.092 41.1285C323.099 38.6138 323.962 37.0404 325.68 36.4083C327.398 35.7762 329.789 36.1735 332.851 37.5942L332.863 33.6147L335.964 35.4054L335.953 39.2786C339.409 41.4499 342.531 44.0513 345.316 47.0811L343.174 51.9404C340.822 49.475 338.41 47.4017 335.934 45.731L335.912 53.4044C338.851 56.4 340.942 58.7393 342.185 60.4122C343.428 62.0836 344.338 63.6601 344.916 65.1408ZM335.873 67.3949C337.926 68.179 338.955 67.749 338.96 66.1041C338.962 65.3756 338.707 64.6097 338.198 63.8143C337.684 63.0135 336.915 62.0494 335.891 60.9197L335.873 67.3949ZM332.815 50.155L332.832 44.0421C330.885 43.2467 329.91 43.5893 329.906 45.0625C329.903 45.826 330.131 46.5873 330.591 47.3462C331.051 48.109 331.791 49.0435 332.815 50.155Z" fill="#E64345"></path><path d="M197.816 196.271L229.782 177.695C229.772 181.289 232.312 185.688 235.443 187.496L203.478 206.072C200.346 204.264 197.807 199.865 197.816 196.271Z" fill="#D9D7D7"></path><path d="M203.488 206.072L235.453 187.496L244.443 192.685L212.477 211.262L203.488 206.072Z" fill="#CECCCC"></path><path d="M212.469 211.262L244.435 192.685L244.426 195.851L212.461 214.428L212.469 211.262Z" fill="#E0E0E0"></path><path d="M197.883 174.89L197.822 196.271C197.812 199.864 200.352 204.264 203.483 206.071L212.472 211.261L212.463 214.427L203.474 209.237C198.82 206.551 195.051 200.023 195.066 194.68L195.127 173.299L197.883 174.89Z" fill="#999999"></path><path d="M197.877 174.89L229.842 156.315L229.782 177.695L197.816 196.271L197.877 174.89Z" fill="#CECCCC"></path><path d="M195.129 173.3L227.095 154.724L229.85 156.315L197.884 174.89L195.129 173.3Z" fill="#E0E0E0"></path><path d="M272.34 12.0732L275.892 14.4428C277.188 13.6945 278.362 13.6246 279.21 14.1176L275.658 11.748C274.81 11.2549 273.635 11.3248 272.34 12.0732Z" fill="#B3B3B3"></path><path d="M142.634 211.924L142.346 96.913L138.793 94.5434L139.082 209.553C139.086 211.024 139.605 212.058 140.442 212.545L143.995 214.915C143.157 214.428 142.638 213.394 142.634 211.924Z" fill="#999999"></path><path d="M143.441 86.4879L146.995 88.8575L275.884 14.4428L272.332 12.0732L143.441 86.4879Z" fill="#CECCCC"></path><path d="M275.886 14.4428L146.997 88.8575C144.421 90.3443 142.339 93.95 142.348 96.9138L142.636 211.924C142.645 214.883 144.74 216.078 147.316 214.59L276.205 140.175C278.781 138.689 280.862 135.083 280.854 132.124L280.565 17.1133C280.557 14.1495 278.462 12.9552 275.886 14.4428Z" fill="#E0E0E0"></path><path d="M138.793 94.5434L142.346 96.913C142.337 93.95 144.419 90.3443 146.994 88.8567L143.441 86.4871C140.866 87.9747 138.785 91.5804 138.793 94.5434Z" fill="#B3B3B3"></path><path d="M142.586 192.091L142.642 211.924C142.643 212.108 142.651 212.285 142.667 212.455C142.673 212.52 142.686 212.578 142.695 212.641C142.708 212.743 142.72 212.848 142.739 212.945C142.753 213.011 142.772 213.071 142.788 213.134C142.81 213.22 142.829 213.31 142.856 213.391C142.876 213.454 142.903 213.51 142.926 213.57C142.954 213.644 142.98 213.723 143.013 213.792C143.04 213.849 143.073 213.9 143.103 213.955C143.138 214.02 143.171 214.086 143.21 214.147C143.242 214.197 143.28 214.239 143.316 214.286C143.358 214.343 143.398 214.402 143.444 214.453C143.482 214.497 143.526 214.532 143.568 214.573C143.615 214.619 143.661 214.669 143.712 214.71C143.756 214.747 143.805 214.775 143.852 214.807C144.709 215.406 145.945 215.384 147.322 214.588L276.212 140.175C278.787 138.689 280.869 135.083 280.86 132.123L280.806 112.84L142.586 192.091Z" fill="#515A66"></path><path d="M139.027 189.75L139.084 209.554C139.088 211.025 139.607 212.059 140.444 212.546L142.541 214.069L142.592 196.279L142.58 192.086L139.027 189.75Z" fill="#21252B"></path><path d="M151.055 96.7534L151.268 180.027L272.621 108.922V108.921L272.407 25.6497L151.055 96.7534Z" fill="#F2F2F2"></path><path d="M170.566 97.9128L170.721 158.174L258.538 106.718L258.384 46.4573L170.566 97.9128Z" fill="#8FD2FF"></path><path d="M170.688 97.8414L170.72 110.545L258.416 59.1617L258.383 46.4573L170.688 97.8414Z" fill="#7DBDE8"></path><path d="M235.755 88.7117L235.773 95.313L200.725 115.549L200.707 108.947L235.755 88.7117Z" fill="white"></path><path d="M205.757 108.655C206.146 108.431 206.458 108.615 206.459 109.061C206.461 109.507 206.15 110.051 205.762 110.275C205.374 110.499 205.056 110.318 205.055 109.872C205.053 109.426 205.369 108.879 205.757 108.655Z" fill="#174D75"></path><path d="M210.082 106.159C210.47 105.935 210.782 106.119 210.784 106.565C210.785 107.011 210.474 107.555 210.086 107.78C209.698 108.004 209.38 107.822 209.379 107.376C209.377 106.93 209.693 106.383 210.082 106.159Z" fill="#174D75"></path><path d="M214.41 103.663C214.798 103.438 215.116 103.62 215.117 104.066C215.119 104.512 214.803 105.059 214.414 105.283C214.026 105.507 213.708 105.326 213.707 104.88C213.706 104.434 214.022 103.887 214.41 103.663Z" fill="#174D75"></path><path d="M218.733 101.166C219.121 100.942 219.439 101.123 219.44 101.569C219.441 102.015 219.125 102.562 218.737 102.787C218.349 103.011 218.037 102.826 218.035 102.38C218.034 101.934 218.344 101.39 218.733 101.166Z" fill="#174D75"></path><path d="M223.057 98.6695C223.445 98.4454 223.763 98.627 223.764 99.0729C223.766 99.5189 223.45 100.067 223.061 100.29C222.673 100.514 222.361 100.33 222.359 99.8836C222.359 99.4384 222.669 98.8936 223.057 98.6695Z" fill="#174D75"></path><path d="M227.381 96.1738C227.769 95.9497 228.088 96.1305 228.088 96.5772C228.09 97.0232 227.774 97.5702 227.386 97.7943C226.997 98.0184 226.685 97.8338 226.684 97.3878C226.683 96.9419 226.993 96.3979 227.381 96.1738Z" fill="#174D75"></path><path d="M231.714 93.6743C232.103 93.4501 232.415 93.6347 232.416 94.0807C232.418 94.5267 232.107 95.0707 231.719 95.2948C231.331 95.5189 231.013 95.3373 231.012 94.8914C231.01 94.4454 231.327 93.8984 231.714 93.6743Z" fill="#174D75"></path><path d="M235.755 101.791L235.773 108.392L200.725 128.627L200.707 122.025L235.755 101.791Z" fill="white"></path><path d="M205.757 121.734C206.146 121.51 206.458 121.694 206.459 122.14C206.461 122.586 206.15 123.13 205.762 123.354C205.374 123.578 205.056 123.397 205.055 122.951C205.053 122.505 205.369 121.958 205.757 121.734Z" fill="#174D75"></path><path d="M210.082 119.237C210.47 119.013 210.782 119.198 210.784 119.644C210.785 120.09 210.474 120.634 210.086 120.858C209.698 121.082 209.38 120.9 209.379 120.454C209.377 120.008 209.693 119.461 210.082 119.237Z" fill="#174D75"></path><path d="M214.41 116.741C214.798 116.517 215.116 116.698 215.117 117.144C215.119 117.59 214.803 118.137 214.414 118.361C214.026 118.585 213.708 118.404 213.707 117.958C213.706 117.513 214.022 116.965 214.41 116.741Z" fill="#174D75"></path><path d="M218.733 114.245C219.121 114.021 219.439 114.202 219.44 114.648C219.441 115.094 219.125 115.642 218.737 115.866C218.349 116.09 218.037 115.906 218.035 115.46C218.034 115.013 218.344 114.469 218.733 114.245Z" fill="#174D75"></path><path d="M223.057 111.748C223.445 111.524 223.763 111.705 223.764 112.152C223.766 112.598 223.45 113.145 223.061 113.369C222.673 113.593 222.361 113.408 222.359 112.962C222.359 112.516 222.669 111.972 223.057 111.748Z" fill="#174D75"></path><path d="M227.381 109.252C227.769 109.028 228.088 109.209 228.088 109.655C228.09 110.101 227.774 110.648 227.386 110.872C226.997 111.097 226.685 110.912 226.684 110.466C226.683 110.02 226.993 109.476 227.381 109.252Z" fill="#174D75"></path><path d="M231.714 106.752C232.103 106.528 232.415 106.713 232.416 107.159C232.418 107.605 232.107 108.149 231.719 108.373C231.331 108.597 231.013 108.415 231.012 107.969C231.01 107.524 231.327 106.977 231.714 106.752Z" fill="#174D75"></path><path d="M175.848 99.8813C176.734 99.37 177.453 99.7795 177.456 100.798C177.459 101.816 176.745 103.063 175.858 103.575C174.972 104.087 174.253 103.668 174.25 102.65C174.247 101.63 174.962 100.393 175.848 99.8813Z" fill="#E64345"></path><path d="M180.676 97.0999C181.562 96.5879 182.281 96.9981 182.284 98.0162C182.287 99.035 181.572 100.281 180.687 100.793C179.8 101.305 179.081 100.886 179.078 99.8677C179.075 98.8488 179.789 97.6112 180.676 97.0999Z" fill="#FFC61A"></path><path d="M185.481 94.3185C186.367 93.8064 187.086 94.2167 187.089 95.2347C187.092 96.2535 186.377 97.4995 185.491 98.0116C184.605 98.5236 183.886 98.1043 183.883 97.0862C183.88 96.0682 184.594 94.8306 185.481 94.3185Z" fill="#15ADA0"></path><path d="M195.051 105.064L195.778 101.224L196.167 101L195.439 104.84L195.051 105.064Z" fill="white"></path><path d="M196.348 104.317L197.071 100.481L197.487 100.241L198.57 102.479L198.582 102.472C198.593 102.388 198.606 102.289 198.624 102.175C198.641 102.062 198.66 101.942 198.682 101.816C198.704 101.691 198.726 101.57 198.748 101.454L199.164 99.2727L199.538 99.0569L198.815 102.894L198.399 103.134L197.309 100.893L197.297 100.9C197.29 100.957 197.28 101.026 197.268 101.106C197.256 101.186 197.243 101.273 197.228 101.367C197.213 101.462 197.198 101.558 197.18 101.658C197.163 101.759 197.145 101.855 197.126 101.951L196.721 104.102L196.348 104.317Z" fill="white"></path><path d="M200.258 102.059L200.908 98.6155L199.953 99.1671L200.028 98.7728L202.335 97.441L202.264 97.833L201.31 98.3838L200.657 101.829L200.258 102.059Z" fill="white"></path><path d="M202.109 100.988L202.832 97.1516L204.566 96.151L204.49 96.5453L203.152 97.318L202.915 98.5609L204.169 97.8369L204.101 98.2213L202.845 98.9468L202.574 100.369L203.915 99.5949L203.839 99.9892L202.109 100.988Z" fill="white"></path><path d="M204.582 99.5599L205.305 95.7232L206.053 95.2909C206.402 95.0888 206.664 95.0098 206.838 95.0531C207.013 95.0972 207.101 95.259 207.101 95.5424C207.101 95.7111 207.072 95.8805 207.014 96.0514C206.956 96.2224 206.864 96.3948 206.737 96.568C206.611 96.7413 206.443 96.9152 206.238 97.09L206.799 98.2797L206.369 98.5282L205.874 97.3878L205.276 97.7327L204.976 99.3335L204.582 99.5599ZM205.347 97.3544L205.76 97.1158C205.918 97.0246 206.055 96.9266 206.172 96.8233C206.289 96.7185 206.386 96.6106 206.463 96.4997C206.54 96.3887 206.598 96.2733 206.636 96.1563C206.675 96.0393 206.693 95.9223 206.693 95.8053C206.693 95.607 206.637 95.5006 206.524 95.4847C206.411 95.4687 206.24 95.5272 206.013 95.6586L205.629 95.8805L205.347 97.3544Z" fill="white"></path><path d="M207.316 97.9804L208.04 94.1437L208.456 93.9036L209.539 96.1418L209.551 96.135C209.561 96.0514 209.575 95.9519 209.593 95.8379C209.61 95.7247 209.629 95.6055 209.651 95.4793C209.673 95.354 209.695 95.2332 209.716 95.1169L210.133 92.9357L210.507 92.72L209.784 96.5566L209.368 96.7967L208.277 94.5563L208.265 94.5631C208.258 94.6201 208.249 94.6892 208.236 94.769C208.224 94.8488 208.211 94.9361 208.195 95.0303C208.18 95.1253 208.165 95.221 208.148 95.3213C208.13 95.4216 208.113 95.5181 208.094 95.6138L207.689 97.7654L207.316 97.9804Z" fill="white"></path><path d="M210.699 96.0324L211.422 92.1958L213.155 91.1952L213.08 91.5895L211.742 92.3622L211.505 93.6051L212.759 92.8811L212.691 93.2655L211.435 93.991L211.164 95.4133L212.504 94.6391L212.429 95.0334L210.699 96.0324Z" fill="white"></path><path d="M213.711 94.2934L214.361 90.8495L213.406 91.4011L213.481 91.0068L215.788 89.675L215.717 90.067L214.763 90.6178L214.111 94.0632L213.711 94.2934Z" fill="white"></path><path d="M216.805 92.5042L217.528 88.6676L218.412 88.157C218.624 88.0347 218.806 87.9572 218.956 87.9261C219.107 87.8941 219.221 87.9124 219.301 87.9808C219.38 88.0484 219.42 88.1715 219.42 88.3492C219.42 88.505 219.388 88.6607 219.324 88.8165C219.26 88.9722 219.17 89.1211 219.054 89.264C218.938 89.4068 218.801 89.5375 218.646 89.6567V89.678C218.805 89.6301 218.937 89.6332 219.041 89.6894C219.146 89.7456 219.198 89.8679 219.198 90.0579C219.198 90.2926 219.142 90.5206 219.028 90.7447C218.914 90.9696 218.758 91.1777 218.56 91.3722C218.361 91.566 218.135 91.7369 217.879 91.8843L216.805 92.5042ZM217.27 91.8964L217.897 91.5348C218.082 91.4284 218.239 91.3099 218.37 91.1785C218.502 91.0471 218.604 90.9065 218.677 90.7568C218.748 90.6079 218.784 90.4552 218.784 90.2972C218.784 90.1339 218.731 90.0305 218.624 89.9872C218.518 89.9439 218.345 89.9918 218.103 90.1316L217.542 90.456L217.27 91.8964ZM217.612 90.0852L218.197 89.7479C218.348 89.6605 218.484 89.558 218.607 89.4417C218.73 89.3247 218.828 89.1979 218.901 89.0596C218.974 88.9213 219.011 88.7792 219.011 88.6326C219.011 88.4769 218.96 88.3865 218.859 88.3629C218.758 88.3378 218.592 88.3933 218.364 88.5247L217.854 88.8195L217.612 90.0852Z" fill="white"></path><path d="M219.203 91.1162L221.077 86.6147L221.491 86.3754L221.923 89.545L221.532 89.7707L221.396 88.7587L220.216 89.4402L219.635 90.8647L219.203 91.1162ZM220.407 88.979L221.358 88.4298L221.267 87.6852C221.256 87.5758 221.244 87.4558 221.232 87.3243C221.219 87.1937 221.211 87.0751 221.208 86.968L221.194 86.9764C221.144 87.123 221.088 87.2803 221.024 87.4467C220.961 87.6138 220.894 87.7832 220.824 87.9564L220.407 88.979Z" fill="white"></path><path d="M222.363 89.2966L223.087 85.4599L223.503 85.2199L224.586 87.458L224.598 87.4512C224.608 87.3676 224.622 87.2681 224.639 87.1541C224.657 87.0409 224.676 86.9217 224.698 86.7955C224.72 86.6702 224.741 86.5494 224.763 86.4332L225.18 84.252L225.553 84.0362L224.831 87.8729L224.415 88.1129L223.324 85.8725L223.312 85.8793C223.305 85.9363 223.295 86.0054 223.283 86.0852C223.271 86.165 223.258 86.2523 223.243 86.3466C223.228 86.4415 223.213 86.5372 223.195 86.6375C223.178 86.7378 223.16 86.8343 223.141 86.93L222.736 89.0816L222.363 89.2966Z" fill="white"></path><path d="M225.738 87.3479L226.461 83.5112L226.854 83.284L226.496 85.175L226.791 84.6956L228.164 82.5281L228.644 82.2508L227.14 84.6159L227.966 86.0624L227.533 86.3124L226.841 85.0276L226.419 85.5868L226.132 87.1207L225.738 87.3479Z" fill="white"></path><path d="M228.422 85.7996L229.15 81.9598L229.539 81.7357L228.811 85.5754L228.422 85.7996Z" fill="white"></path><path d="M229.711 85.052L230.434 81.2153L230.851 80.9752L231.933 83.2134L231.945 83.2066C231.955 83.123 231.97 83.0235 231.987 82.9095C232.005 82.7963 232.024 82.677 232.046 82.5509C232.068 82.4256 232.09 82.3048 232.111 82.1885L232.527 80.0073L232.901 79.7916L232.179 83.6282L231.762 83.8683L230.672 81.6279L230.66 81.6347C230.652 81.6917 230.643 81.7608 230.63 81.8406C230.618 81.9204 230.606 82.0077 230.59 82.1019C230.575 82.1969 230.56 82.2926 230.542 82.3929C230.525 82.4932 230.507 82.5897 230.488 82.6854L230.083 84.837L229.711 85.052Z" fill="white"></path><path d="M234.525 82.3215C234.121 82.5547 233.806 82.6231 233.579 82.5274C233.352 82.4324 233.238 82.1802 233.238 81.7737C233.238 81.5207 233.267 81.2662 233.325 81.0094C233.383 80.7519 233.466 80.5004 233.574 80.252C233.683 80.0043 233.813 79.7703 233.965 79.5484C234.117 79.3266 234.287 79.1245 234.474 78.9437C234.663 78.7621 234.864 78.6094 235.081 78.4841C235.286 78.3663 235.465 78.2804 235.622 78.2265C235.777 78.1726 235.926 78.1353 236.068 78.1163L235.916 78.5501C235.797 78.5653 235.667 78.5934 235.528 78.6352C235.389 78.677 235.239 78.7446 235.077 78.8381C234.875 78.9543 234.689 79.107 234.516 79.297C234.343 79.4861 234.193 79.7004 234.065 79.9397C233.936 80.179 233.836 80.432 233.764 80.6994C233.693 80.9661 233.657 81.2351 233.657 81.5063C233.657 81.6932 233.69 81.8413 233.756 81.9485C233.823 82.0563 233.923 82.1125 234.057 82.1194C234.191 82.1247 234.36 82.0692 234.564 81.9507C234.691 81.8778 234.808 81.8003 234.915 81.719C235.023 81.6377 235.115 81.5617 235.192 81.4926L235.418 80.3188L234.717 80.7238L234.791 80.334L235.888 79.7004L235.528 81.5625C235.383 81.7 235.229 81.8314 235.066 81.9591C234.904 82.0852 234.723 82.2068 234.525 82.3215Z" fill="white"></path><path d="M195.473 188.689L237.647 212.787C235.672 211.639 232.936 211.801 229.916 213.545L187.742 189.447C190.762 187.704 193.498 187.542 195.473 188.689Z" fill="#CC3B3D"></path><path d="M222.252 239.262L180.078 215.164C178.129 214.031 176.92 211.622 176.91 208.198C176.89 201.305 181.738 192.91 187.736 189.448L229.909 213.546C223.911 217.008 219.064 225.404 219.084 232.296C219.093 235.72 220.303 238.129 222.252 239.262Z" fill="#BD3739"></path><path d="M229.908 213.546C235.908 210.081 240.787 212.861 240.807 219.753C240.827 226.646 235.979 235.041 229.978 238.505C223.98 241.968 219.102 239.188 219.082 232.296C219.062 225.404 223.909 217.008 229.908 213.546Z" fill="#9C2E2F"></path><path d="M220.806 172.751L220.681 216.908L193.031 200.944L193.157 156.787L220.806 172.751Z" fill="white"></path><path d="M194.956 164.65L194.953 165.802L206.408 172.498L206.411 171.347L194.956 164.65Z" fill="#E6E6E6"></path><path d="M206.909 171.615L206.906 172.766L218.361 179.462L218.365 178.311L206.909 171.615Z" fill="#E6E6E6"></path><path d="M194.956 167.62L194.953 168.771L206.408 175.468L206.411 174.317L194.956 167.62Z" fill="#E6E6E6"></path><path d="M206.909 174.584L206.906 175.735L218.361 182.431L218.365 181.28L206.909 174.584Z" fill="#E6E6E6"></path><path d="M194.956 170.59L194.953 171.741L206.408 178.437L206.411 177.286L194.956 170.59Z" fill="#E6E6E6"></path><path d="M206.909 177.554L206.906 178.705L218.361 185.401L218.365 184.25L206.909 177.554Z" fill="#E6E6E6"></path><path d="M194.956 173.559L194.953 174.71L206.408 181.406L206.411 180.255L194.956 173.559Z" fill="#E6E6E6"></path><path d="M206.909 180.523L206.906 181.675L218.361 188.371L218.365 187.219L206.909 180.523Z" fill="#E6E6E6"></path><path d="M194.956 176.529L194.953 177.68L206.408 184.376L206.411 183.225L194.956 176.529Z" fill="#E6E6E6"></path><path d="M206.909 183.493L206.906 184.644L218.361 191.34L218.365 190.189L206.909 183.493Z" fill="#E6E6E6"></path><path d="M194.956 179.498L194.953 180.65L206.408 187.345L206.411 186.194L194.956 179.498Z" fill="#E6E6E6"></path><path d="M206.909 186.462L206.906 187.613L218.361 194.31L218.365 193.159L206.909 186.462Z" fill="#E6E6E6"></path><path d="M194.956 182.468L194.953 183.619L206.408 190.315L206.411 189.164L194.956 182.468Z" fill="#E6E6E6"></path><path d="M206.909 189.432L206.906 190.583L218.361 197.279L218.365 196.128L206.909 189.432Z" fill="#E6E6E6"></path><path d="M194.956 185.438L194.953 186.589L206.408 193.285L206.411 192.134L194.956 185.438Z" fill="#E6E6E6"></path><path d="M206.909 192.401L206.906 193.552L218.361 200.249L218.365 199.098L206.909 192.401Z" fill="#E6E6E6"></path><path d="M194.956 188.407L194.953 189.558L206.408 196.254L206.411 195.103L194.956 188.407Z" fill="#E6E6E6"></path><path d="M206.909 195.37L206.906 196.522L218.361 203.218L218.365 202.067L206.909 195.37Z" fill="#E6E6E6"></path><path d="M194.956 191.376L194.953 192.527L206.408 199.224L206.411 198.073L194.956 191.376Z" fill="#E6E6E6"></path><path d="M206.909 198.34L206.906 199.491L218.361 206.187L218.365 205.036L206.909 198.34Z" fill="#E6E6E6"></path><path d="M112.215 244.196L112.273 234.661C112.272 235.194 112.623 235.727 113.326 236.133L113.267 245.667C112.564 245.262 112.213 244.728 112.215 244.196Z" fill="#BD3739"></path><path d="M224.249 214.669L154.519 257.002L154.461 266.537L224.19 235.257C224.88 234.855 225.225 234.33 225.227 233.806L225.285 213.217C225.284 213.742 224.939 214.267 224.249 214.669Z" fill="#CF3C3E"></path><path d="M149.475 257.003L149.417 266.536L113.27 245.667L113.328 236.133L149.475 257.003Z" fill="#CF3C3E"></path><path d="M224.228 211.745C225.625 212.551 225.635 213.86 224.245 214.668L154.515 257.002C153.128 257.808 150.865 257.808 149.469 257.002L113.322 236.133C111.925 235.326 111.918 234.015 113.305 233.209L183.034 190.876C184.424 190.067 186.684 190.07 188.081 190.876L224.228 211.745Z" fill="#E64345"></path><path d="M154.516 257.003L154.457 266.537C153.07 267.343 150.807 267.343 149.41 266.537L149.469 257.003C150.865 257.809 153.128 257.809 154.516 257.003Z" fill="#BD3739"></path><path d="M156.992 258.656V264.064C156.992 265.63 158.59 266.689 160.033 266.08L221.298 240.226C222.997 239.508 224.101 237.843 224.101 235.998V230.979C224.101 225.481 218.082 222.103 213.389 224.967L156.992 258.656Z" fill="#BF3739"></path><path d="M152.883 216.678L152.887 215.457C152.886 215.673 153.028 215.888 153.313 216.052L153.309 217.273C153.024 217.109 152.882 216.894 152.883 216.678Z" fill="#21252B"></path><path d="M165.258 216.939L165.255 218.159C165.254 218.372 165.115 218.584 164.836 218.746L164.84 217.525C165.118 217.363 165.258 217.151 165.258 216.939Z" fill="#21252B"></path><path d="M164.847 217.525L164.844 218.746L161.387 220.755L161.391 219.534L164.847 217.525Z" fill="#21252B"></path><path d="M159.347 219.534L159.343 220.755L153.312 217.273L153.316 216.052L159.347 219.534Z" fill="#21252B"></path><path d="M164.841 216.344C165.406 216.67 165.409 217.2 164.848 217.525L161.391 219.534C160.829 219.861 159.916 219.86 159.351 219.534L153.32 216.052C152.756 215.726 152.751 215.197 153.314 214.871L156.77 212.862C157.331 212.536 158.246 212.536 158.81 212.862L164.841 216.344Z" fill="#2B3138"></path><path d="M161.387 219.534L161.384 220.755C160.821 221.081 159.908 221.081 159.344 220.755L159.348 219.534C159.912 219.86 160.825 219.861 161.387 219.534Z" fill="#21252B"></path><path d="M163.105 222.568L163.109 221.347C163.109 221.562 163.251 221.778 163.536 221.942L163.532 223.163C163.247 222.999 163.105 222.783 163.105 222.568Z" fill="#21252B"></path><path d="M175.482 222.827L175.478 224.048C175.477 224.261 175.337 224.473 175.059 224.635L175.062 223.414C175.341 223.252 175.481 223.04 175.482 222.827Z" fill="#21252B"></path><path d="M175.061 223.415L175.058 224.635L171.602 226.644L171.605 225.423L175.061 223.415Z" fill="#21252B"></path><path d="M169.56 225.423L169.557 226.644L163.527 223.163L163.531 221.942L169.56 225.423Z" fill="#21252B"></path><path d="M175.058 222.232C175.624 222.559 175.626 223.088 175.065 223.414L171.608 225.423C171.046 225.749 170.134 225.749 169.568 225.423L163.54 221.942C162.974 221.616 162.971 221.087 163.533 220.761L166.99 218.752C167.55 218.426 168.464 218.425 169.03 218.752L175.058 222.232Z" fill="#2B3138"></path><path d="M171.602 225.423L171.598 226.644C171.036 226.971 170.125 226.971 169.559 226.644L169.562 225.423C170.129 225.75 171.04 225.75 171.602 225.423Z" fill="#21252B"></path><path d="M173.289 228.458L173.293 227.237C173.292 227.453 173.434 227.668 173.719 227.832L173.715 229.053C173.431 228.888 173.288 228.673 173.289 228.458Z" fill="#21252B"></path><path d="M185.665 228.717L185.662 229.938C185.661 230.15 185.521 230.362 185.242 230.524L185.246 229.303C185.525 229.141 185.665 228.93 185.665 228.717Z" fill="#21252B"></path><path d="M185.246 229.303L185.242 230.525L181.785 232.534L181.789 231.313L185.246 229.303Z" fill="#21252B"></path><path d="M179.751 231.313L179.747 232.534L173.719 229.053L173.722 227.832L179.751 231.313Z" fill="#21252B"></path><path d="M185.246 228.122C185.812 228.449 185.813 228.977 185.253 229.303L181.796 231.312C181.234 231.639 180.322 231.639 179.756 231.312L173.727 227.831C173.162 227.505 173.158 226.976 173.72 226.65L177.177 224.641C177.737 224.315 178.652 224.315 179.217 224.641L185.246 228.122Z" fill="#2B3138"></path><path d="M181.794 231.313L181.79 232.534C181.228 232.86 180.316 232.86 179.75 232.534L179.754 231.313C180.32 231.639 181.231 231.639 181.794 231.313Z" fill="#21252B"></path><path d="M145.934 220.727L145.937 219.506C145.937 219.721 146.079 219.937 146.363 220.101L146.36 221.322C146.075 221.159 145.933 220.943 145.934 220.727Z" fill="#21252B"></path><path d="M158.308 220.988L158.305 222.209C158.305 222.422 158.166 222.634 157.887 222.795L157.891 221.574C158.169 221.413 158.308 221.201 158.308 220.988Z" fill="#21252B"></path><path d="M157.89 221.575L157.886 222.795L154.43 224.804L154.433 223.583L157.89 221.575Z" fill="#21252B"></path><path d="M152.39 223.583L152.386 224.804L146.355 221.322L146.359 220.101L152.39 223.583Z" fill="#21252B"></path><path d="M157.888 220.393C158.452 220.719 158.456 221.249 157.895 221.575L154.438 223.583C153.876 223.91 152.963 223.909 152.398 223.583L146.367 220.101C145.803 219.775 145.798 219.247 146.361 218.92L149.817 216.911C150.378 216.585 151.293 216.585 151.857 216.911L157.888 220.393Z" fill="#2B3138"></path><path d="M154.438 223.583L154.434 224.804C153.872 225.131 152.959 225.13 152.395 224.804L152.398 223.583C152.963 223.909 153.876 223.911 154.438 223.583Z" fill="#21252B"></path><path d="M156.137 226.618L156.141 225.398C156.14 225.613 156.283 225.828 156.567 225.992L156.564 227.213C156.278 227.048 156.136 226.833 156.137 226.618Z" fill="#21252B"></path><path d="M168.513 226.878L168.509 228.098C168.508 228.311 168.369 228.523 168.09 228.685L168.094 227.464C168.372 227.302 168.512 227.089 168.513 226.878Z" fill="#21252B"></path><path d="M168.085 227.464L168.081 228.685L164.625 230.694L164.628 229.473L168.085 227.464Z" fill="#21252B"></path><path d="M162.591 229.473L162.588 230.694L156.559 227.213L156.562 225.992L162.591 229.473Z" fill="#21252B"></path><path d="M168.082 226.283C168.648 226.609 168.65 227.139 168.089 227.464L164.632 229.473C164.07 229.799 163.158 229.799 162.592 229.473L156.563 225.992C155.997 225.666 155.994 225.138 156.556 224.811L160.013 222.802C160.574 222.476 161.487 222.476 162.053 222.802L168.082 226.283Z" fill="#2B3138"></path><path d="M164.633 229.473L164.63 230.694C164.068 231.02 163.156 231.02 162.59 230.694L162.594 229.473C163.159 229.799 164.071 229.799 164.633 229.473Z" fill="#21252B"></path><path d="M166.324 232.507L166.328 231.286C166.327 231.502 166.47 231.717 166.754 231.881L166.75 233.102C166.466 232.938 166.323 232.723 166.324 232.507Z" fill="#21252B"></path><path d="M178.701 232.766L178.697 233.987C178.696 234.2 178.556 234.412 178.277 234.574L178.28 233.353C178.56 233.192 178.7 232.979 178.701 232.766Z" fill="#21252B"></path><path d="M178.288 233.353L178.285 234.574L174.828 236.583L174.832 235.362L178.288 233.353Z" fill="#21252B"></path><path d="M172.778 235.362L172.775 236.583L166.746 233.102L166.749 231.881L172.778 235.362Z" fill="#21252B"></path><path d="M178.277 232.171C178.843 232.498 178.845 233.028 178.284 233.353L174.827 235.361C174.265 235.688 173.353 235.688 172.787 235.361L166.758 231.88C166.193 231.554 166.189 231.026 166.751 230.699L170.208 228.69C170.769 228.364 171.683 228.364 172.248 228.69L178.277 232.171Z" fill="#2B3138"></path><path d="M174.821 235.362L174.817 236.583C174.255 236.91 173.343 236.91 172.777 236.583L172.781 235.362C173.347 235.689 174.258 235.689 174.821 235.362Z" fill="#21252B"></path><path d="M138.969 224.778L138.972 223.557C138.971 223.772 139.113 223.987 139.397 224.152L139.393 225.372C139.109 225.208 138.968 224.993 138.969 224.778Z" fill="#21252B"></path><path d="M151.345 225.037L151.341 226.258C151.34 226.47 151.201 226.682 150.922 226.845L150.926 225.624C151.205 225.462 151.345 225.25 151.345 225.037Z" fill="#21252B"></path><path d="M150.925 225.625L150.922 226.846L147.465 228.854L147.469 227.633L150.925 225.625Z" fill="#21252B"></path><path d="M145.425 227.633L145.421 228.854L139.391 225.372L139.394 224.151L145.425 227.633Z" fill="#21252B"></path><path d="M150.923 224.442C151.487 224.768 151.492 225.297 150.929 225.624L147.473 227.633C146.912 227.959 145.997 227.959 145.433 227.633L139.402 224.151C138.837 223.825 138.834 223.295 139.395 222.969L142.852 220.961C143.414 220.634 144.327 220.635 144.892 220.961L150.923 224.442Z" fill="#2B3138"></path><path d="M147.466 227.633L147.462 228.854C146.901 229.18 145.986 229.18 145.422 228.854L145.426 227.633C145.989 227.959 146.905 227.959 147.466 227.633Z" fill="#21252B"></path><path d="M149.168 230.668L149.172 229.447C149.171 229.662 149.313 229.878 149.597 230.042L149.593 231.263C149.309 231.099 149.168 230.883 149.168 230.668Z" fill="#21252B"></path><path d="M161.537 230.927L161.533 232.148C161.533 232.36 161.393 232.572 161.113 232.734L161.117 231.513C161.397 231.352 161.536 231.139 161.537 230.927Z" fill="#21252B"></path><path d="M161.116 231.513L161.112 232.734L157.656 234.743L157.659 233.522L161.116 231.513Z" fill="#21252B"></path><path d="M155.622 233.522L155.619 234.743L149.59 231.263L149.594 230.042L155.622 233.522Z" fill="#21252B"></path><path d="M161.121 230.332C161.687 230.659 161.69 231.187 161.128 231.513L157.671 233.522C157.11 233.848 156.197 233.849 155.631 233.522L149.602 230.041C149.036 229.714 149.034 229.186 149.595 228.86L153.052 226.851C153.614 226.524 154.526 226.524 155.092 226.851L161.121 230.332Z" fill="#2B3138"></path><path d="M157.665 233.522L157.661 234.743C157.1 235.069 156.187 235.07 155.621 234.743L155.625 233.522C156.191 233.849 157.104 233.848 157.665 233.522Z" fill="#21252B"></path><path d="M159.371 236.557L159.374 235.336C159.373 235.551 159.515 235.766 159.8 235.93L159.796 237.151C159.512 236.988 159.37 236.772 159.371 236.557Z" fill="#21252B"></path><path d="M171.748 236.816L171.744 238.037C171.744 238.249 171.604 238.462 171.324 238.624L171.328 237.403C171.608 237.24 171.747 237.028 171.748 236.816Z" fill="#21252B"></path><path d="M171.327 237.403L171.324 238.624L167.867 240.632L167.871 239.412L171.327 237.403Z" fill="#21252B"></path><path d="M165.826 239.412L165.822 240.632L159.793 237.152L159.797 235.93L165.826 239.412Z" fill="#21252B"></path><path d="M171.323 236.221C171.889 236.548 171.892 237.076 171.33 237.403L167.873 239.412C167.313 239.738 166.4 239.738 165.834 239.412L159.804 235.93C159.24 235.605 159.237 235.074 159.797 234.749L163.254 232.74C163.816 232.414 164.73 232.414 165.294 232.74L171.323 236.221Z" fill="#2B3138"></path><path d="M167.868 239.412L167.864 240.633C167.303 240.958 166.39 240.959 165.824 240.633L165.828 239.412C166.394 239.738 167.307 239.738 167.868 239.412Z" fill="#21252B"></path><path d="M131.996 228.825L132 227.605C131.999 227.82 132.141 228.035 132.426 228.199L132.422 229.42C132.138 229.257 131.995 229.041 131.996 228.825Z" fill="#21252B"></path><path d="M144.372 229.086L144.368 230.307C144.367 230.52 144.228 230.732 143.949 230.893L143.953 229.673C144.232 229.511 144.371 229.299 144.372 229.086Z" fill="#21252B"></path><path d="M143.952 229.673L143.949 230.893L140.492 232.902L140.495 231.681L143.952 229.673Z" fill="#21252B"></path><path d="M138.452 231.681L138.449 232.902L132.418 229.42L132.421 228.199L138.452 231.681Z" fill="#21252B"></path><path d="M143.95 228.491C144.515 228.817 144.518 229.347 143.957 229.673L140.501 231.681C139.938 232.008 139.025 232.007 138.461 231.681L132.43 228.199C131.865 227.873 131.861 227.345 132.423 227.018L135.88 225.009C136.44 224.683 137.355 224.683 137.92 225.009L143.95 228.491Z" fill="#2B3138"></path><path d="M140.493 231.681L140.489 232.902C139.927 233.229 139.014 233.228 138.449 232.902L138.453 231.681C139.018 232.007 139.931 232.009 140.493 231.681Z" fill="#21252B"></path><path d="M142.191 234.716L142.194 233.495C142.194 233.71 142.337 233.926 142.621 234.09L142.618 235.311C142.333 235.146 142.191 234.931 142.191 234.716Z" fill="#21252B"></path><path d="M154.568 234.975L154.564 236.196C154.563 236.409 154.423 236.621 154.145 236.783L154.148 235.562C154.427 235.4 154.567 235.187 154.568 234.975Z" fill="#21252B"></path><path d="M154.155 235.562L154.152 236.783L150.695 238.792L150.699 237.571L154.155 235.562Z" fill="#21252B"></path><path d="M148.653 237.571L148.65 238.792L142.621 235.311L142.624 234.09L148.653 237.571Z" fill="#21252B"></path><path d="M154.149 234.381C154.715 234.707 154.716 235.236 154.156 235.562L150.699 237.571C150.137 237.897 149.225 237.897 148.659 237.571L142.63 234.09C142.064 233.763 142.061 233.235 142.623 232.908L146.08 230.899C146.64 230.574 147.553 230.573 148.119 230.899L154.149 234.381Z" fill="#2B3138"></path><path d="M150.696 237.571L150.692 238.792C150.13 239.118 149.218 239.118 148.652 238.792L148.656 237.571C149.222 237.897 150.133 237.897 150.696 237.571Z" fill="#21252B"></path><path d="M152.402 240.605L152.406 239.384C152.405 239.6 152.547 239.815 152.832 239.979L152.829 241.2C152.544 241.036 152.402 240.821 152.402 240.605Z" fill="#21252B"></path><path d="M164.779 240.864L164.775 242.085C164.774 242.298 164.634 242.51 164.355 242.672L164.359 241.451C164.638 241.29 164.778 241.077 164.779 240.864Z" fill="#21252B"></path><path d="M164.351 241.451L164.347 242.672L160.891 244.681L160.894 243.46L164.351 241.451Z" fill="#21252B"></path><path d="M158.857 243.46L158.853 244.681L152.824 241.2L152.827 239.979L158.857 243.46Z" fill="#21252B"></path><path d="M164.355 240.27C164.921 240.597 164.923 241.126 164.362 241.452L160.905 243.46C160.343 243.787 159.431 243.787 158.865 243.46L152.836 239.979C152.272 239.653 152.267 239.124 152.829 238.798L156.286 236.789C156.847 236.463 157.761 236.463 158.326 236.789L164.355 240.27Z" fill="#2B3138"></path><path d="M160.899 243.46L160.895 244.681C160.333 245.008 159.421 245.008 158.855 244.681L158.859 243.46C159.425 243.787 160.337 243.787 160.899 243.46Z" fill="#21252B"></path><path d="M125.031 232.875L125.035 231.654C125.034 231.87 125.176 232.085 125.461 232.249L125.457 233.47C125.173 233.306 125.03 233.091 125.031 232.875Z" fill="#33C2B5"></path><path d="M137.399 233.135L137.395 234.356C137.394 234.569 137.255 234.781 136.977 234.943L136.98 233.722C137.259 233.56 137.398 233.348 137.399 233.135Z" fill="#33C2B5"></path><path d="M136.987 233.723L136.983 234.944L133.527 236.952L133.53 235.731L136.987 233.723Z" fill="#33C2B5"></path><path d="M131.487 235.731L131.484 236.952L125.453 233.47L125.456 232.25L131.487 235.731Z" fill="#33C2B5"></path><path d="M136.986 232.541C137.55 232.866 137.553 233.396 136.992 233.722L133.536 235.731C132.973 236.057 132.06 236.057 131.496 235.731L125.465 232.249C124.901 231.923 124.896 231.394 125.458 231.067L128.915 229.059C129.476 228.733 130.39 228.733 130.955 229.059L136.986 232.541Z" fill="#38D4C7"></path><path d="M133.528 235.731L133.524 236.952C132.962 237.279 132.049 237.278 131.484 236.952L131.488 235.731C132.053 236.057 132.966 236.058 133.528 235.731Z" fill="#33C2B5"></path><path d="M135.219 238.766L135.223 237.545C135.222 237.76 135.365 237.976 135.65 238.14L135.646 239.361C135.361 239.196 135.218 238.981 135.219 238.766Z" fill="#DBA51B"></path><path d="M147.595 239.025L147.591 240.246C147.59 240.459 147.451 240.67 147.172 240.832L147.176 239.611C147.454 239.45 147.594 239.238 147.595 239.025Z" fill="#DBA51B"></path><path d="M147.182 239.611L147.179 240.832L143.723 242.841L143.726 241.62L147.182 239.611Z" fill="#DBA51B"></path><path d="M141.673 241.62L141.669 242.841L135.641 239.361L135.644 238.14L141.673 241.62Z" fill="#DBA51B"></path><path d="M147.172 238.43C147.738 238.757 147.74 239.286 147.179 239.611L143.722 241.62C143.16 241.947 142.248 241.947 141.682 241.62L135.653 238.139C135.087 237.812 135.084 237.284 135.646 236.958L139.103 234.949C139.664 234.623 140.577 234.622 141.143 234.949L147.172 238.43Z" fill="#EDB21D"></path><path d="M143.716 241.62L143.712 242.841C143.15 243.168 142.238 243.168 141.672 242.841L141.676 241.62C142.242 241.947 143.153 241.947 143.716 241.62Z" fill="#DBA51B"></path><path d="M145.434 244.655L145.437 243.434C145.437 243.649 145.579 243.864 145.864 244.029L145.86 245.249C145.576 245.086 145.433 244.87 145.434 244.655Z" fill="#33C2B5"></path><path d="M157.802 244.914L157.798 246.135C157.798 246.348 157.658 246.56 157.379 246.722L157.383 245.501C157.662 245.339 157.802 245.126 157.802 244.914Z" fill="#33C2B5"></path><path d="M157.382 245.501L157.379 246.722L153.922 248.731L153.926 247.51L157.382 245.501Z" fill="#33C2B5"></path><path d="M151.888 247.51L151.884 248.731L145.855 245.25L145.859 244.029L151.888 247.51Z" fill="#33C2B5"></path><path d="M157.386 244.32C157.952 244.646 157.954 245.175 157.393 245.501L153.937 247.51C153.374 247.836 152.463 247.836 151.897 247.51L145.867 244.029C145.303 243.703 145.298 243.175 145.861 242.848L149.317 240.839C149.878 240.513 150.793 240.513 151.357 240.839L157.386 244.32Z" fill="#38D4C7"></path><path d="M153.93 247.51L153.927 248.731C153.364 249.057 152.453 249.057 151.887 248.731L151.891 247.51C152.457 247.836 153.368 247.836 153.93 247.51Z" fill="#33C2B5"></path><path d="M214.088 214.576L192.723 227.346C192.56 227.444 192.356 227.446 192.191 227.35L161.68 209.735C161.334 209.534 161.33 209.035 161.673 208.83L183.039 196.059C183.202 195.961 183.406 195.96 183.57 196.055L214.081 213.67C214.428 213.872 214.432 214.371 214.088 214.576Z" fill="white"></path><path d="M161.673 208.831C161.33 209.036 161.334 209.535 161.68 209.736L192.191 227.351C192.356 227.446 192.56 227.444 192.723 227.347L199.191 223.481L167.64 205.264L161.673 208.831Z" fill="#C8D2D6"></path><path d="M115.568 241.078L115.559 244.145L145.886 261.822L145.894 258.754L115.568 241.078Z" fill="#A83133"></path><path d="M328.207 232.401L334.008 229.03C335.265 228.3 336.044 226.747 336.051 224.54L330.25 227.911C330.243 230.118 329.464 231.671 328.207 232.401Z" fill="#21252B"></path><path d="M272.43 61.3315L266.629 64.7024C267.904 63.9617 269.669 64.0665 271.617 65.1917L277.418 61.8207C275.469 60.6956 273.704 60.5915 272.43 61.3315Z" fill="#21252B"></path><path d="M330.242 227.911L336.043 224.54L336.36 103.92L330.56 107.291L330.242 227.911Z" fill="#292E36"></path><path d="M323.574 95.1891L329.375 91.819L277.418 61.8207L271.617 65.1924L323.574 95.1891Z" fill="#292E36"></path><path d="M271.623 65.1924C267.751 62.9565 264.603 64.7503 264.591 69.2001L264.273 189.82C264.261 194.263 267.388 199.68 271.261 201.915L323.218 231.913C327.091 234.149 330.238 232.355 330.251 227.911L330.568 107.292C330.581 102.842 327.454 97.4266 323.582 95.1899L271.623 65.1924Z" fill="#3E4651"></path><path d="M330.558 107.291L336.358 103.92C336.371 99.4702 333.244 94.0541 329.371 91.8182L323.57 95.1891C327.444 97.4258 330.571 102.841 330.558 107.291Z" fill="#21252B"></path><path d="M270.765 75.2103C270.118 74.8373 269.591 75.1374 269.589 75.8804L269.297 187.775C269.295 188.511 269.819 189.419 270.465 189.792L322.422 219.79C323.069 220.163 323.595 219.863 323.598 219.126L323.891 107.231C323.893 106.489 323.369 105.582 322.723 105.208L270.765 75.2103Z" fill="white"></path><path d="M291.11 81.2039C290.56 80.8871 290.142 81.2974 290.421 82.1293C290.548 82.5099 290.832 82.8191 291.179 83.0197L300.859 88.6083C301.259 88.8393 301.621 88.6524 301.632 88.1897C301.644 87.6943 301.294 87.0843 300.864 86.8351L291.11 81.2039Z" fill="#E3F6FF"></path><path d="M303.321 88.2527C302.771 87.9359 302.359 88.3492 302.635 89.1796C302.76 89.5587 303.042 89.8672 303.389 90.067L303.716 90.2554C304.116 90.4863 304.478 90.2987 304.489 89.8368C304.501 89.3414 304.151 88.7314 303.72 88.4822L303.321 88.2527Z" fill="#E3F6FF"></path><path d="M289.851 203.7C288.705 203.038 287.77 203.57 287.766 204.892L287.762 206.633C287.758 207.951 288.686 209.558 289.833 210.22L296.369 213.994C297.515 214.655 298.45 214.124 298.453 212.806L298.458 211.064C298.462 209.742 297.533 208.135 296.387 207.473L289.851 203.7Z" fill="#B0BEC5"></path><path d="M316.912 117.343C318.344 118.17 319.503 120.178 319.499 121.824L319.275 200.562C319.271 202.208 318.104 202.873 316.672 202.046L275.407 178.222C273.975 177.395 272.816 175.386 272.82 173.741L273.044 95.0022C273.048 93.3566 274.215 92.6919 275.647 93.5185L316.912 117.343Z" fill="#8FD2FF"></path><path d="M276.992 134.623L276.973 141.688L314.49 163.349L314.51 156.283L276.992 134.623Z" fill="white"></path><path d="M309.099 155.97C308.683 155.73 308.349 155.927 308.348 156.405C308.346 156.882 308.679 157.465 309.094 157.705C309.51 157.945 309.85 157.75 309.852 157.273C309.853 156.795 309.515 156.21 309.099 155.97Z" fill="#174D75"></path><path d="M304.47 153.298C304.055 153.058 303.72 153.256 303.719 153.733C303.717 154.21 304.05 154.793 304.465 155.033C304.88 155.273 305.221 155.078 305.222 154.601C305.224 154.123 304.886 153.538 304.47 153.298Z" fill="#174D75"></path><path d="M299.84 150.626C299.424 150.386 299.084 150.58 299.082 151.057C299.081 151.534 299.419 152.12 299.834 152.36C300.25 152.6 300.59 152.406 300.592 151.929C300.593 151.451 300.255 150.866 299.84 150.626Z" fill="#174D75"></path><path d="M295.211 147.954C294.795 147.714 294.455 147.908 294.453 148.385C294.452 148.862 294.79 149.449 295.205 149.688C295.621 149.928 295.955 149.731 295.957 149.253C295.958 148.776 295.626 148.194 295.211 147.954Z" fill="#174D75"></path><path d="M290.582 145.282C290.166 145.042 289.826 145.236 289.824 145.713C289.823 146.19 290.162 146.777 290.576 147.016C290.992 147.256 291.326 147.059 291.328 146.582C291.329 146.104 290.997 145.521 290.582 145.282Z" fill="#174D75"></path><path d="M285.968 142.61C285.553 142.37 285.212 142.563 285.211 143.041C285.209 143.518 285.547 144.105 285.963 144.344C286.379 144.584 286.713 144.387 286.714 143.91C286.716 143.432 286.384 142.849 285.968 142.61Z" fill="#174D75"></path><path d="M281.326 139.934C280.91 139.694 280.576 139.891 280.574 140.368C280.573 140.846 280.905 141.428 281.321 141.668C281.737 141.908 282.077 141.714 282.079 141.237C282.08 140.76 281.741 140.174 281.326 139.934Z" fill="#174D75"></path><path d="M276.992 148.622L276.973 155.689L314.49 177.349L314.51 170.283L276.992 148.622Z" fill="white"></path><path d="M309.099 169.97C308.683 169.73 308.349 169.927 308.348 170.405C308.346 170.882 308.679 171.464 309.094 171.704C309.51 171.945 309.85 171.751 309.852 171.273C309.853 170.796 309.515 170.209 309.099 169.97Z" fill="#174D75"></path><path d="M304.47 167.298C304.055 167.058 303.72 167.255 303.719 167.733C303.717 168.21 304.05 168.793 304.465 169.033C304.88 169.273 305.221 169.079 305.222 168.602C305.224 168.124 304.886 167.537 304.47 167.298Z" fill="#174D75"></path><path d="M299.84 164.625C299.424 164.385 299.084 164.579 299.082 165.057C299.081 165.534 299.419 166.12 299.834 166.36C300.25 166.6 300.59 166.405 300.592 165.928C300.593 165.451 300.255 164.865 299.84 164.625Z" fill="#174D75"></path><path d="M295.211 161.953C294.795 161.713 294.455 161.908 294.453 162.385C294.452 162.862 294.79 163.448 295.205 163.688C295.621 163.928 295.955 163.73 295.957 163.252C295.958 162.776 295.626 162.193 295.211 161.953Z" fill="#174D75"></path><path d="M290.582 159.281C290.166 159.041 289.826 159.236 289.824 159.713C289.823 160.19 290.162 160.776 290.576 161.016C290.992 161.256 291.326 161.058 291.328 160.58C291.329 160.103 290.997 159.521 290.582 159.281Z" fill="#174D75"></path><path d="M285.968 156.609C285.553 156.369 285.212 156.563 285.211 157.041C285.209 157.518 285.547 158.104 285.963 158.344C286.379 158.584 286.713 158.386 286.714 157.909C286.716 157.431 286.384 156.849 285.968 156.609Z" fill="#174D75"></path><path d="M281.326 153.933C280.91 153.693 280.576 153.891 280.574 154.368C280.573 154.845 280.905 155.428 281.321 155.668C281.737 155.908 282.077 155.714 282.079 155.236C282.08 154.759 281.741 154.174 281.326 153.933Z" fill="#174D75"></path><path d="M316.903 117.343L275.639 93.5193C274.207 92.6927 273.04 93.3574 273.035 95.003L272.984 112.965L319.439 139.786L319.49 121.824C319.495 120.178 318.335 118.17 316.903 117.343Z" fill="#7DBDE8"></path><path d="M281.055 105.55L281.675 105.908L283.133 110.863L283.183 110.892L284.641 107.621L285.261 107.979V112.934L284.775 112.653V108.889L284.734 108.865L283.393 111.855L282.923 111.584L281.583 107.045L281.541 107.021V110.785L281.055 110.505V105.55ZM288.08 111.818V112.35L286.203 111.266V110.734L288.08 111.818ZM281.055 118.505V113.55L282.555 114.416C282.854 114.589 283.1 114.791 283.294 115.022C283.488 115.252 283.633 115.494 283.728 115.749C283.823 116.002 283.87 116.25 283.87 116.492C283.87 116.705 283.838 116.862 283.772 116.962C283.708 117.064 283.622 117.125 283.516 117.144C283.412 117.164 283.298 117.158 283.175 117.126V117.174C283.306 117.26 283.438 117.389 283.571 117.562C283.703 117.736 283.815 117.939 283.904 118.171C283.993 118.403 284.038 118.65 284.038 118.911C284.038 119.159 283.989 119.355 283.891 119.497C283.794 119.638 283.639 119.707 283.428 119.701C283.217 119.695 282.943 119.595 282.605 119.4L281.055 118.505ZM281.574 118.272L282.605 118.868C282.944 119.063 283.185 119.127 283.328 119.057C283.472 118.987 283.544 118.843 283.544 118.626C283.544 118.458 283.507 118.282 283.433 118.097C283.359 117.911 283.253 117.735 283.116 117.571C282.979 117.405 282.817 117.268 282.63 117.16L281.574 116.55V118.272ZM281.574 116.027L282.538 116.584C282.694 116.674 282.835 116.72 282.961 116.722C283.088 116.724 283.189 116.682 283.263 116.596C283.338 116.51 283.376 116.381 283.376 116.206C283.376 115.989 283.31 115.766 283.179 115.539C283.048 115.31 282.84 115.113 282.555 114.948L281.574 114.382V116.027ZM285.068 120.822L284.523 120.507L286.098 116.462L286.635 116.772L288.21 122.636L287.665 122.322L286.383 117.411L286.35 117.391L285.068 120.822ZM285.269 119.002L287.464 120.27V120.802L285.269 119.535V119.002ZM292.281 120.032V124.986L291.778 124.696L289.44 119.456L289.398 119.432V123.322L288.878 123.022V118.068L289.381 118.358L291.728 123.612L291.77 123.637V119.737L292.281 120.032ZM293.32 125.587V120.632L293.84 120.932V123.39L293.89 123.419L295.818 122.074L296.496 122.466L294.695 123.661L296.496 127.421L295.868 127.058L294.376 123.893L293.84 124.28V125.887L293.32 125.587ZM281.574 121.85V126.805L281.055 126.505V121.55L281.574 121.85ZM286.018 124.416V129.371L285.515 129.08L283.177 123.84L283.136 123.816V127.706L282.616 127.406V122.452L283.119 122.742L285.465 127.996L285.507 128.021V124.121L286.018 124.416ZM289.991 128.258C289.945 128.069 289.884 127.888 289.809 127.715C289.735 127.542 289.646 127.379 289.543 127.228C289.441 127.077 289.325 126.94 289.195 126.816C289.065 126.693 288.922 126.587 288.767 126.497C288.513 126.35 288.282 126.293 288.074 126.324C287.866 126.355 287.7 126.483 287.577 126.707C287.455 126.932 287.393 127.258 287.393 127.687C287.393 128.116 287.455 128.514 287.58 128.881C287.704 129.248 287.872 129.568 288.084 129.843C288.297 130.117 288.536 130.331 288.801 130.484C289.047 130.626 289.263 130.69 289.45 130.677C289.639 130.664 289.786 130.576 289.89 130.414C289.997 130.251 290.05 130.018 290.05 129.715L290.209 129.845L288.918 129.1V128.568L290.552 129.511V130.044C290.552 130.452 290.477 130.763 290.326 130.977C290.177 131.193 289.97 131.307 289.706 131.321C289.443 131.334 289.142 131.242 288.801 131.045C288.421 130.826 288.087 130.53 287.8 130.157C287.513 129.785 287.29 129.363 287.129 128.889C286.97 128.417 286.89 127.919 286.89 127.397C286.89 127.005 286.936 126.679 287.026 126.418C287.119 126.157 287.249 125.964 287.416 125.84C287.584 125.716 287.782 125.661 288.011 125.676C288.24 125.69 288.492 125.777 288.767 125.936C288.994 126.066 289.205 126.228 289.4 126.42C289.597 126.611 289.772 126.822 289.926 127.055C290.081 127.286 290.21 127.531 290.314 127.789C290.417 128.045 290.488 128.305 290.527 128.568L289.991 128.258Z" fill="white"></path><path d="M231.043 219.7L231.049 217.609C231.048 218.194 231.433 218.779 232.206 219.225L232.2 221.317C231.427 220.87 231.041 220.284 231.043 219.7Z" fill="#1268A8"></path><path d="M317.01 229.489L317.004 231.58C317.002 232.157 316.622 232.733 315.863 233.174L315.869 231.083C316.628 230.641 317.008 230.065 317.01 229.489Z" fill="#1268A8"></path><path d="M315.866 231.083L315.86 233.174L287.156 249.855L287.162 247.763L315.866 231.083Z" fill="#0F5489"></path><path d="M281.635 247.763L281.629 249.855L232.199 221.316L232.205 219.225L281.635 247.763Z" fill="#0F5489"></path><path d="M315.859 227.876C317.393 228.762 317.401 230.195 315.874 231.083L287.171 247.763C285.648 248.648 283.172 248.648 281.638 247.763L232.208 219.225C230.674 218.339 230.663 216.904 232.186 216.018L260.89 199.337C262.417 198.45 264.896 198.452 266.429 199.337L315.859 227.876Z" fill="#1C9DFF"></path><path d="M287.176 247.763L287.17 249.855C285.647 250.74 283.171 250.74 281.637 249.855L281.643 247.763C283.177 248.648 285.653 248.648 287.176 247.763Z" fill="#1268A8"></path><path d="M243.053 212.418L236.375 216.299L285.725 244.791L292.403 240.91L243.053 212.418Z" fill="#0F5489"></path><path d="M286.174 218.124L279.496 222.005L301.122 234.556L307.8 230.675L286.174 218.124Z" fill="#177DCC"></path><path d="M270.84 222.603L268.386 224.029L258.203 218.151L260.657 216.724L270.84 222.603Z" fill="white"></path><path d="M258.97 215.753L256.516 217.179L246.332 211.299L248.786 209.873L258.97 215.753Z" fill="white"></path><path d="M294.572 236.306L292.118 237.732L281.934 231.851L284.388 230.425L294.572 236.306Z" fill="white"></path><path d="M282.701 229.455L280.247 230.881L270.062 225.001L272.516 223.575L282.701 229.455Z" fill="white"></path><path d="M261.715 212.783L264.144 211.371L265.722 212.283L264.134 213.206C263.669 213.476 262.916 213.476 262.45 213.207L261.715 212.783Z" fill="#FFC61A"></path><path d="M255.21 206.216L256.788 207.127L254.359 208.539L253.624 208.114C253.158 207.845 253.156 207.409 253.621 207.139L255.21 206.216Z" fill="#FFC61A"></path><path d="M257.616 207.607L263.306 210.892L260.877 212.303L255.188 209.018L257.616 207.607Z" fill="#FFC61A"></path><path d="M269.736 207.155L267.307 208.566L261.617 205.281L264.046 203.87L269.736 207.155Z" fill="#FFC61A"></path><path d="M271.297 208.059C271.763 208.328 271.765 208.764 271.3 209.034L269.712 209.957L268.133 209.046L270.562 207.634L271.297 208.059Z" fill="#FFC61A"></path><path d="M270.563 207.634L268.134 209.046L269.713 209.957L268.771 210.505L258.262 204.437L259.204 203.89L260.783 204.801L263.211 203.39L264.043 203.87L261.614 205.281L267.303 208.566L269.732 207.155L270.563 207.634Z" fill="#EDB21D"></path><path d="M256.145 205.668L258.263 204.437L268.772 210.505L266.654 211.736L256.145 205.668Z" fill="#FFC61A"></path><path d="M266.649 211.736L265.706 212.284L264.128 211.372L261.699 212.783L260.868 212.303L263.297 210.892L257.607 207.607L255.178 209.018L254.348 208.539L256.776 207.127L255.197 206.216L256.139 205.668L266.649 211.736Z" fill="#EDB21D"></path><path d="M263.219 203.39L260.79 204.802L259.211 203.89L260.8 202.967C261.265 202.696 262.017 202.696 262.483 202.965L263.219 203.39Z" fill="#FFC61A"></path><path d="M378.52 215.869L318.969 181.261C320.753 182.298 323.223 182.155 325.945 180.583C331.355 177.46 335.739 169.865 335.722 163.649L395.273 198.257C395.29 204.472 390.906 212.067 385.497 215.19C382.775 216.761 380.305 216.905 378.52 215.869Z" fill="white"></path><path d="M376.589 219.184L317.038 184.577C314.787 183.269 313.39 180.491 313.379 176.546L372.93 211.154C372.942 215.098 374.339 217.876 376.589 219.184Z" fill="white"></path><path d="M372.93 211.154L313.379 176.546L316.101 174.975L375.652 209.582L372.93 211.154Z" fill="#CFCFCF"></path><path d="M397.842 137.541L397.996 196.682C398.018 204.622 392.412 214.328 385.501 218.318C378.59 222.308 372.952 219.095 372.93 211.155L375.651 209.584C375.669 215.8 380.082 218.314 385.491 215.191C390.901 212.068 395.285 204.474 395.267 198.257L395.114 139.116L397.842 137.541Z" fill="#E6E6E6"></path><path d="M395.274 198.257L335.724 163.649L335.57 104.509L395.121 139.116L395.274 198.257Z" fill="white"></path><path d="M395.121 139.116L335.57 104.509L338.297 102.934L397.847 137.541L395.121 139.116Z" fill="#F5F5F5"></path><path d="M390.67 148.789L390.627 164.225L339.426 134.664L339.469 119.227L390.67 148.789Z" fill="#F8484B"></path><path d="M351.25 142.003V129.714L354.97 131.862C355.712 132.29 356.323 132.791 356.805 133.366C357.286 133.936 357.645 134.537 357.881 135.169C358.116 135.797 358.234 136.411 358.234 137.011C358.234 137.539 358.152 137.928 357.99 138.178C357.83 138.43 357.619 138.58 357.356 138.628C357.096 138.678 356.814 138.663 356.509 138.583V138.703C356.834 138.915 357.162 139.236 357.491 139.666C357.82 140.096 358.095 140.599 358.317 141.175C358.539 141.751 358.65 142.364 358.65 143.012C358.65 143.628 358.528 144.112 358.286 144.464C358.043 144.816 357.661 144.985 357.137 144.971C356.614 144.957 355.934 144.708 355.095 144.224L351.25 142.003ZM352.538 141.427L355.095 142.903C355.937 143.39 356.535 143.547 356.888 143.375C357.245 143.201 357.423 142.844 357.423 142.303C357.423 141.887 357.331 141.45 357.148 140.992C356.964 140.53 356.703 140.095 356.363 139.687C356.024 139.275 355.622 138.935 355.158 138.667L352.538 137.155V141.427ZM352.538 135.859L354.929 137.239C355.317 137.463 355.667 137.577 355.979 137.581C356.294 137.587 356.543 137.483 356.727 137.269C356.914 137.057 357.008 136.735 357.008 136.303C357.008 135.763 356.845 135.211 356.519 134.647C356.193 134.079 355.677 133.59 354.97 133.182L352.538 131.778V135.859ZM362.056 135.953V148.243L360.767 147.499V135.209L362.056 135.953ZM364.64 149.735V137.445L365.929 138.19V149.159L370.876 152.015V153.335L364.64 149.735ZM351.25 162.003V149.714L352.538 150.458V161.427L357.486 164.284V165.604L351.25 162.003Z" fill="white"></path><path d="M339.402 138.932L339.395 141.44L364.361 156.035L364.369 153.526L339.402 138.932Z" fill="#E6E6E6"></path><path d="M365.444 154.11L365.438 156.618L390.404 171.213L390.411 168.704L365.444 154.11Z" fill="#E6E6E6"></path><path d="M339.402 143.935L339.395 146.444L364.361 161.039L364.369 158.53L339.402 143.935Z" fill="#E6E6E6"></path><path d="M365.444 159.113L365.438 161.622L390.404 176.217L390.411 173.708L365.444 159.113Z" fill="#E6E6E6"></path><path d="M339.402 148.939L339.395 151.448L364.361 166.043L364.369 163.534L339.402 148.939Z" fill="#E6E6E6"></path><path d="M365.444 164.117L365.438 166.626L390.404 181.22L390.411 178.712L365.444 164.117Z" fill="#E6E6E6"></path><path d="M339.402 153.943L339.395 156.451L364.361 171.047L364.369 168.537L339.402 153.943Z" fill="#E6E6E6"></path><path d="M365.444 169.121L365.438 171.629L390.404 186.224L390.411 183.715L365.444 169.121Z" fill="#E6E6E6"></path><path d="M339.402 158.946L339.395 161.455L364.361 176.05L364.369 173.541L339.402 158.946Z" fill="#E6E6E6"></path><path d="M365.444 174.124L365.438 176.633L390.404 191.228L390.411 188.719L365.444 174.124Z" fill="#E6E6E6"></path><path d="M339.402 163.95L339.395 166.459L364.361 181.054L364.369 178.544L339.402 163.95Z" fill="#E6E6E6"></path><path d="M365.444 179.128L365.438 181.637L390.404 196.232L390.411 193.722L365.444 179.128Z" fill="#E6E6E6"></path><path d="M339.402 168.954L339.395 171.462L364.361 186.058L364.369 183.549L339.402 168.954Z" fill="#E6E6E6"></path><path d="M365.444 184.132L365.438 186.64L390.404 201.236L390.411 198.726L365.444 184.132Z" fill="#E6E6E6"></path><path d="M292.363 266.718L259.598 285.759L197.824 250.093L230.589 231.052L292.363 266.718Z" fill="#30B7AB"></path><path d="M292.365 266.718L292.358 269.154L259.594 288.195L259.601 285.759L292.365 266.718Z" fill="#2BA49A"></path><path d="M259.597 285.759L259.591 288.195L197.816 252.53L197.823 250.093L259.597 285.759Z" fill="#1E726B"></path><path d="M281.035 263.15C277.777 265.044 277.768 268.107 281.004 270.021L265.582 278.983C262.263 277.117 256.979 277.13 253.716 279.027C253.563 279.115 253.42 279.209 253.28 279.305L209.605 254.09C209.767 254.006 209.932 253.926 210.085 253.837C213.348 251.94 213.352 248.879 210.121 246.963L225.542 238.001C228.857 239.869 234.146 239.854 237.404 237.96L281.035 263.15Z" fill="#42CEBD"></path><path d="M254.852 250.4C260.878 253.879 260.91 259.525 254.923 263.004C248.936 266.482 239.19 266.482 233.165 263.004C227.14 259.525 227.108 253.879 233.094 250.4C239.08 246.922 248.826 246.921 254.852 250.4Z" fill="#30B7AB"></path><path d="M292.363 261.984L259.598 281.025L197.824 245.36L230.589 226.319L292.363 261.984Z" fill="#30B7AB"></path><path d="M292.365 261.984L292.358 264.421L259.594 283.461L259.601 281.025L292.365 261.984Z" fill="#2BA49A"></path><path d="M259.597 281.025L259.591 283.461L197.816 247.796L197.823 245.36L259.597 281.025Z" fill="#1E726B"></path><path d="M281.035 258.416C277.777 260.31 277.768 263.373 281.004 265.287L265.582 274.249C262.263 272.383 256.979 272.396 253.716 274.293C253.563 274.381 253.42 274.475 253.28 274.571L209.605 249.355C209.767 249.271 209.932 249.19 210.085 249.102C213.348 247.206 213.352 244.145 210.121 242.229L225.542 233.266C228.857 235.134 234.146 235.119 237.404 233.226L281.035 258.416Z" fill="#42CEBD"></path><path d="M259.386 252C259.399 247.078 252.522 243.069 244.025 243.045C235.528 243.021 228.629 246.992 228.615 251.914C228.601 256.836 235.478 260.845 243.975 260.869C252.472 260.892 259.372 256.922 259.386 252Z" fill="#30B7AB"></path><path d="M292.363 257.25L259.598 276.291L197.824 240.626L230.589 221.585L292.363 257.25Z" fill="#30B7AB"></path><path d="M292.365 257.25L292.358 259.687L259.594 278.728L259.601 276.291L292.365 257.25Z" fill="#2BA49A"></path><path d="M259.597 276.291L259.591 278.728L197.816 243.062L197.823 240.626L259.597 276.291Z" fill="#1E726B"></path><path d="M281.035 253.682C277.777 255.576 277.768 258.639 281.004 260.553L265.582 269.515C262.263 267.649 256.979 267.662 253.716 269.559C253.563 269.648 253.42 269.741 253.28 269.838L209.605 244.622C209.767 244.538 209.932 244.457 210.085 244.369C213.348 242.473 213.352 239.412 210.121 237.496L225.542 228.533C228.857 230.401 234.146 230.386 237.404 228.493L281.035 253.682Z" fill="#42CEBD"></path><path d="M259.386 247.268C259.399 242.346 252.522 238.337 244.025 238.313C235.528 238.289 228.629 242.26 228.615 247.182C228.601 252.104 235.478 256.113 243.975 256.137C252.472 256.16 259.372 252.19 259.386 247.268Z" fill="#30B7AB"></path><path d="M139.794 91.6617C143.978 89.2458 147.375 91.1892 147.389 95.99C147.402 100.791 144.027 106.645 139.843 109.06C135.665 111.472 132.268 109.528 132.254 104.728C132.241 99.9277 135.617 94.0739 139.794 91.6617Z" fill="#17BAAC"></path><path d="M139.74 73.6673C147.492 69.1917 154.793 68.4555 160.293 71.5895L154.202 82.1468C150.336 79.9435 145.211 80.4685 139.768 83.6108C134.325 86.7531 129.214 92.1381 125.379 98.7873L119.242 95.2895C124.706 85.8262 131.988 78.143 139.74 73.6673Z" fill="#17BAAC"></path><path d="M139.702 59.474C150.757 53.0922 161.163 52.0415 169.005 56.5102L162.908 67.0645C156.705 63.5302 148.475 64.369 139.73 69.4182C130.986 74.4666 122.778 83.1185 116.615 93.7913L110.484 90.2973C118.27 76.8059 128.648 65.8565 139.702 59.474Z" fill="#17BAAC"></path><path d="M139.659 45.2813C154.015 36.9926 167.527 35.6281 177.706 41.4287L171.608 51.9898C162.793 46.9626 151.235 48.577 139.69 55.2422C128.145 61.9074 116.613 73.6233 107.852 88.799L101.715 85.3012C111.834 67.7824 125.309 53.5662 139.659 45.2813Z" fill="#17BAAC"></path><path d="M139.075 91.2454C134.897 93.6575 131.522 99.5113 131.535 104.311C131.542 106.698 132.385 108.379 133.745 109.169L134.461 109.585C133.101 108.795 132.258 107.115 132.252 104.728C132.238 99.9277 135.613 94.0739 139.791 91.6617C141.896 90.4461 143.802 90.3345 145.178 91.1337L144.461 90.7174C143.085 89.9181 141.179 90.0306 139.075 91.2454Z" fill="#13998E"></path><path d="M139.025 73.251C131.273 77.7266 123.991 85.4106 118.527 94.8739L119.243 95.2902C124.707 85.8262 131.988 78.143 139.741 73.6673C147.493 69.1917 154.794 68.4556 160.294 71.5895L159.577 71.1731C154.078 68.0392 146.777 68.7754 139.025 73.251Z" fill="#13998E"></path><path d="M138.984 59.0584C127.929 65.4409 117.551 76.3902 109.766 89.8824L110.482 90.2987C118.267 76.8066 128.646 65.8572 139.7 59.4747C150.754 53.0929 161.161 52.0422 169.003 56.5117L168.287 56.0954C160.444 51.6251 150.038 52.6758 138.984 59.0584Z" fill="#13998E"></path><path d="M139.661 45.2813C154.017 36.9926 167.529 35.6281 177.708 41.4287L176.991 41.0123C166.812 35.2118 153.3 36.5762 138.944 44.865C124.594 53.1499 111.12 67.3661 101 84.8856L101.716 85.302C111.835 67.7824 125.311 53.5662 139.661 45.2813Z" fill="#13998E"></path><path d="M353.352 244.452L353.338 249.273C353.33 252.156 351.436 255.034 347.652 257.233C340.034 261.66 327.637 261.66 319.965 257.231C316.107 255.004 314.179 252.079 314.188 249.158L314.201 244.338C314.193 247.258 316.12 250.183 319.979 252.411C327.651 256.84 340.047 256.84 347.665 252.413C351.45 250.214 353.344 247.336 353.352 244.452Z" fill="#EDB21D"></path><path d="M347.565 236.376C355.237 240.806 355.277 247.986 347.659 252.413C340.041 256.84 327.645 256.84 319.973 252.411C312.305 247.984 312.265 240.803 319.882 236.376C327.501 231.949 339.897 231.949 347.565 236.376Z" fill="#FFC61A"></path><path d="M333.835 252.777C329.184 252.777 324.669 251.71 321.448 249.85C318.718 248.275 317.151 246.274 317.148 244.361C317.146 242.47 318.683 240.491 321.365 238.932C324.558 237.076 329.054 236.012 333.702 236.012C338.351 236.012 342.864 237.078 346.083 238.936C348.814 240.513 350.383 242.514 350.386 244.427C350.388 246.318 348.852 248.297 346.17 249.856C342.978 251.713 338.481 252.777 333.835 252.777Z" fill="#EDB21D"></path><path d="M337.253 246.84C337.201 247.466 336.764 248.017 335.946 248.492C334.931 249.082 333.722 249.353 332.318 249.304C330.914 249.255 329.431 248.868 327.869 248.145L325.592 249.468L324.187 248.657L326.401 247.37C324.682 246.346 323.515 245.363 322.898 244.424L325.112 243.137C325.425 243.659 325.886 244.209 326.496 244.794C327.106 245.377 327.729 245.856 328.363 246.23L332.289 243.949L331.726 243.248C331.011 242.324 330.695 241.532 330.775 240.868C330.855 240.206 331.347 239.613 332.251 239.088C333.216 238.527 334.389 238.284 335.767 238.359C337.147 238.434 338.551 238.807 339.98 239.478L341.744 238.454L343.148 239.266L341.416 240.272C342.797 241.125 343.867 242.075 344.624 243.12L341.931 243.792C341.26 242.902 340.421 242.116 339.413 241.438L335.593 243.658L336.09 244.299C336.917 245.366 337.305 246.214 337.253 246.84ZM329.852 246.992C331.279 247.599 332.428 247.649 333.295 247.144C333.7 246.909 333.893 246.632 333.868 246.315C333.848 245.999 333.623 245.576 333.2 245.047L329.852 246.992ZM334.702 242.545L337.966 240.649C337.317 240.373 336.717 240.223 336.162 240.203C335.608 240.183 335.137 240.285 334.753 240.508C334.355 240.74 334.148 241.006 334.13 241.304C334.116 241.603 334.305 242.017 334.702 242.545Z" fill="#FFC61A"></path><path d="M353.352 236.722L353.338 241.543C353.33 244.426 351.436 247.304 347.652 249.503C340.034 253.93 327.637 253.93 319.965 249.501C316.107 247.273 314.179 244.348 314.188 241.428L314.201 236.607C314.193 239.528 316.12 242.453 319.979 244.68C327.651 249.11 340.047 249.11 347.665 244.683C351.45 242.483 353.344 239.605 353.352 236.722Z" fill="#EDB21D"></path><path d="M347.565 228.645C355.237 233.075 355.277 240.255 347.659 244.683C340.041 249.11 327.645 249.11 319.973 244.68C312.305 240.253 312.265 233.073 319.882 228.645C327.501 224.218 339.897 224.218 347.565 228.645Z" fill="#FFC61A"></path><path d="M333.835 245.047C329.184 245.047 324.669 243.98 321.448 242.12C318.718 240.544 317.151 238.544 317.148 236.631C317.146 234.739 318.683 232.761 321.365 231.202C324.558 229.346 329.054 228.281 333.702 228.281C338.351 228.281 342.864 229.347 346.083 231.206C348.814 232.783 350.383 234.784 350.386 236.697C350.388 238.588 348.852 240.567 346.17 242.125C342.978 243.982 338.481 245.047 333.835 245.047Z" fill="#EDB21D"></path><path d="M337.253 239.109C337.201 239.734 336.764 240.285 335.946 240.761C334.931 241.35 333.722 241.622 332.318 241.573C330.914 241.524 329.431 241.138 327.869 240.414L325.592 241.737L324.187 240.926L326.401 239.639C324.682 238.615 323.515 237.633 322.898 236.693L325.112 235.406C325.425 235.927 325.886 236.478 326.496 237.062C327.106 237.646 327.729 238.125 328.363 238.499L332.289 236.218L331.726 235.517C331.011 234.594 330.695 233.802 330.775 233.138C330.855 232.476 331.347 231.883 332.251 231.358C333.216 230.797 334.389 230.553 335.767 230.629C337.147 230.703 338.551 231.076 339.98 231.748L341.744 230.724L343.148 231.535L341.416 232.542C342.797 233.394 343.867 234.345 344.624 235.39L341.931 236.062C341.26 235.171 340.421 234.386 339.413 233.707L335.593 235.927L336.09 236.569C336.917 237.635 337.305 238.483 337.253 239.109ZM329.852 239.261C331.279 239.867 332.428 239.918 333.295 239.413C333.7 239.178 333.893 238.901 333.868 238.584C333.848 238.267 333.623 237.845 333.2 237.315L329.852 239.261ZM334.702 234.815L337.966 232.919C337.317 232.642 336.717 232.493 336.162 232.473C335.608 232.452 335.137 232.554 334.753 232.778C334.355 233.009 334.148 233.275 334.13 233.574C334.116 233.873 334.305 234.287 334.702 234.815Z" fill="#FFC61A"></path><path d="M353.352 228.991L353.338 233.812C353.33 236.695 351.436 239.573 347.652 241.772C340.034 246.199 327.637 246.199 319.965 241.77C316.107 239.542 314.179 236.617 314.188 233.696L314.201 228.875C314.193 231.796 316.12 234.721 319.979 236.948C327.651 241.378 340.047 241.378 347.665 236.951C351.45 234.753 353.344 231.874 353.352 228.991Z" fill="#EDB21D"></path><path d="M347.565 220.915C355.237 225.344 355.277 232.525 347.659 236.952C340.041 241.379 327.645 241.379 319.973 236.949C312.305 232.522 312.265 225.342 319.882 220.914C327.501 216.488 339.897 216.488 347.565 220.915Z" fill="#FFC61A"></path><path d="M333.835 237.315C329.184 237.315 324.669 236.249 321.448 234.389C318.718 232.813 317.151 230.813 317.148 228.9C317.146 227.008 318.683 225.03 321.365 223.471C324.558 221.615 329.054 220.55 333.702 220.55C338.351 220.55 342.864 221.616 346.083 223.475C348.814 225.052 350.383 227.053 350.386 228.966C350.388 230.857 348.852 232.835 346.17 234.394C342.978 236.251 338.481 237.315 333.835 237.315Z" fill="#EDB21D"></path><path d="M337.253 231.379C337.201 232.004 336.764 232.555 335.946 233.031C334.931 233.62 333.722 233.891 332.318 233.843C330.914 233.794 329.431 233.407 327.869 232.683L325.592 234.007L324.187 233.195L326.401 231.909C324.682 230.884 323.515 229.903 322.898 228.963L325.112 227.676C325.425 228.197 325.886 228.748 326.496 229.332C327.106 229.916 327.729 230.394 328.363 230.769L332.289 228.487L331.726 227.787C331.011 226.864 330.695 226.071 330.775 225.407C330.855 224.745 331.347 224.152 332.251 223.627C333.216 223.067 334.389 222.823 335.767 222.899C337.147 222.973 338.551 223.346 339.98 224.018L341.744 222.993L343.148 223.804L341.416 224.811C342.797 225.663 343.867 226.614 344.624 227.658L341.931 228.331C341.26 227.44 340.421 226.655 339.413 225.976L335.593 228.196L336.09 228.838C336.917 229.905 337.305 230.753 337.253 231.379ZM329.852 231.531C331.279 232.137 332.428 232.187 333.295 231.683C333.7 231.447 333.893 231.171 333.868 230.854C333.848 230.537 333.623 230.115 333.2 229.585L329.852 231.531ZM334.702 227.084L337.966 225.188C337.317 224.91 336.717 224.762 336.162 224.742C335.608 224.721 335.137 224.823 334.753 225.046C334.355 225.277 334.148 225.544 334.13 225.843C334.116 226.142 334.305 226.556 334.702 227.084Z" fill="#FFC61A"></path><path d="M353.352 221.261L353.338 226.081C353.33 228.964 351.436 231.842 347.652 234.042C340.033 238.469 327.637 238.469 319.965 234.04C316.107 231.812 314.179 228.887 314.188 225.967L314.201 221.146C314.193 224.066 316.12 226.991 319.979 229.219C327.651 233.648 340.047 233.648 347.665 229.221C351.45 227.023 353.344 224.144 353.352 221.261Z" fill="#EDB21D"></path><path d="M347.565 213.185C355.237 217.614 355.277 224.794 347.659 229.222C340.041 233.649 327.645 233.649 319.973 229.22C312.305 224.793 312.265 217.612 319.882 213.185C327.501 208.757 339.897 208.757 347.565 213.185Z" fill="#FFC61A"></path><path d="M333.835 229.585C329.184 229.585 324.669 228.518 321.448 226.659C318.718 225.083 317.151 223.083 317.148 221.17C317.146 219.279 318.683 217.3 321.365 215.741C324.558 213.885 329.054 212.821 333.702 212.821C338.351 212.821 342.864 213.887 346.083 215.745C348.814 217.322 350.383 219.323 350.386 221.236C350.388 223.127 348.852 225.107 346.17 226.665C342.978 228.521 338.481 229.585 333.835 229.585Z" fill="#EDB21D"></path><path d="M337.253 223.649C337.201 224.274 336.764 224.825 335.946 225.3C334.931 225.89 333.722 226.161 332.318 226.112C330.914 226.064 329.431 225.676 327.869 224.953L325.592 226.276L324.187 225.465L326.401 224.179C324.682 223.154 323.515 222.172 322.898 221.233L325.112 219.946C325.425 220.467 325.886 221.018 326.496 221.603C327.106 222.186 327.729 222.665 328.363 223.039L332.289 220.758L331.726 220.056C331.011 219.133 330.695 218.341 330.775 217.677C330.855 217.014 331.347 216.422 332.251 215.897C333.216 215.336 334.389 215.092 335.767 215.168C337.147 215.243 338.551 215.616 339.98 216.287L341.744 215.263L343.148 216.074L341.416 217.081C342.797 217.933 343.867 218.883 344.624 219.928L341.931 220.6C341.26 219.71 340.421 218.924 339.413 218.245L335.593 220.465L336.09 221.106C336.917 222.174 337.305 223.022 337.253 223.649ZM329.852 223.8C331.279 224.407 332.428 224.457 333.295 223.952C333.7 223.717 333.893 223.44 333.868 223.124C333.848 222.807 333.623 222.384 333.2 221.855L329.852 223.8ZM334.702 219.354L337.966 217.457C337.317 217.18 336.717 217.031 336.162 217.011C335.608 216.991 335.137 217.093 334.753 217.316C334.355 217.548 334.148 217.814 334.13 218.112C334.116 218.412 334.305 218.826 334.702 219.354Z" fill="#FFC61A"></path><path d="M328.235 264.616L328.221 269.436C328.213 272.32 326.319 275.198 322.534 277.397C314.917 281.824 302.52 281.824 294.848 277.395C290.989 275.167 289.062 272.242 289.07 269.322L289.084 264.501C289.076 267.422 291.003 270.346 294.862 272.574C302.534 277.003 314.93 277.003 322.548 272.576C326.332 270.378 328.226 267.499 328.235 264.616Z" fill="#EDB21D"></path><path d="M322.448 256.54C330.12 260.969 330.16 268.149 322.542 272.576C314.924 277.003 302.527 277.003 294.856 272.574C287.188 268.147 287.147 260.967 294.765 256.539C302.383 252.113 314.78 252.113 322.448 256.54Z" fill="#FFC61A"></path><path d="M308.717 272.94C304.067 272.94 299.552 271.874 296.331 270.014C293.601 268.438 292.034 266.438 292.031 264.525C292.029 262.634 293.566 260.655 296.248 259.096C299.441 257.24 303.938 256.176 308.584 256.176C313.234 256.176 317.747 257.242 320.966 259.1C323.697 260.677 325.266 262.678 325.269 264.592C325.271 266.482 323.734 268.461 321.052 270.02C317.86 271.876 313.364 272.94 308.717 272.94Z" fill="#EDB21D"></path><path d="M312.155 267.004C312.104 267.629 311.667 268.18 310.848 268.655C309.833 269.245 308.624 269.516 307.22 269.468C305.816 269.419 304.333 269.031 302.771 268.308L300.494 269.632L299.089 268.82L301.303 267.533C299.584 266.509 298.418 265.527 297.801 264.587L300.015 263.301C300.328 263.822 300.788 264.373 301.398 264.957C302.008 265.54 302.631 266.019 303.266 266.394L307.191 264.112L306.628 263.411C305.913 262.488 305.597 261.695 305.677 261.031C305.758 260.37 306.249 259.776 307.153 259.251C308.118 258.691 309.291 258.448 310.669 258.523C312.049 258.597 313.454 258.97 314.883 259.642L316.646 258.617L318.051 259.428L316.319 260.435C317.7 261.287 318.77 262.238 319.525 263.282L316.834 263.954C316.162 263.064 315.323 262.278 314.314 261.6L310.494 263.82L310.991 264.461C311.82 265.53 312.208 266.378 312.155 267.004ZM304.754 267.156C306.181 267.762 307.33 267.812 308.198 267.308C308.603 267.072 308.795 266.796 308.771 266.479C308.75 266.162 308.525 265.739 308.102 265.21L304.754 267.156ZM309.605 262.709L312.868 260.813C312.22 260.535 311.62 260.386 311.064 260.367C310.51 260.346 310.04 260.448 309.656 260.671C309.258 260.902 309.05 261.169 309.033 261.467C309.019 261.767 309.208 262.181 309.605 262.709Z" fill="#FFC61A"></path><path d="M374.477 269.477L374.463 274.298C374.455 277.181 372.561 280.059 368.777 282.259C361.159 286.685 348.762 286.686 341.09 282.256C337.232 280.029 335.304 277.104 335.313 274.183L335.326 269.363C335.318 272.283 337.245 275.208 341.104 277.436C348.776 281.865 361.172 281.865 368.79 277.438C372.574 275.239 374.469 272.361 374.477 269.477Z" fill="#EDB21D"></path><path d="M368.69 261.401C376.362 265.831 376.402 273.011 368.784 277.438C361.166 281.865 348.77 281.865 341.098 277.436C333.43 273.009 333.39 265.828 341.007 261.401C348.626 256.974 361.023 256.974 368.69 261.401Z" fill="#FFC61A"></path><path d="M354.959 277.802C350.308 277.802 345.793 276.735 342.573 274.875C339.843 273.3 338.276 271.299 338.273 269.387C338.271 267.495 339.808 265.517 342.49 263.958C345.683 262.102 350.18 261.038 354.827 261.038C359.476 261.038 363.989 262.103 367.208 263.962C369.939 265.539 371.508 267.541 371.511 269.453C371.513 271.344 369.977 273.323 367.295 274.881C364.101 276.738 359.605 277.802 354.959 277.802Z" fill="#EDB21D"></path><path d="M358.386 271.865C358.334 272.491 357.897 273.041 357.079 273.517C356.064 274.107 354.854 274.378 353.45 274.329C352.046 274.28 350.563 273.893 349.001 273.17L346.725 274.493L345.32 273.682L347.534 272.395C345.814 271.371 344.648 270.388 344.031 269.449L346.245 268.162C346.558 268.684 347.019 269.234 347.629 269.819C348.239 270.402 348.862 270.881 349.497 271.255L353.422 268.974L352.859 268.273C352.145 267.349 351.828 266.557 351.908 265.893C351.989 265.231 352.48 264.638 353.384 264.113C354.35 263.552 355.522 263.309 356.9 263.384C358.281 263.459 359.685 263.832 361.115 264.503L362.877 263.479L364.282 264.29L362.55 265.297C363.931 266.149 365.001 267.099 365.757 268.144L363.065 268.816C362.393 267.926 361.554 267.14 360.546 266.462L356.726 268.682L357.223 269.323C358.05 270.391 358.439 271.239 358.386 271.865ZM350.984 272.017C352.412 272.624 353.561 272.674 354.428 272.169C354.833 271.934 355.025 271.657 355.001 271.34C354.981 271.024 354.756 270.6 354.333 270.072L350.984 272.017ZM355.835 267.57L359.098 265.674C358.45 265.397 357.85 265.248 357.295 265.228C356.741 265.208 356.271 265.31 355.886 265.533C355.488 265.765 355.281 266.031 355.263 266.329C355.249 266.628 355.438 267.042 355.835 267.57Z" fill="#FFC61A"></path></svg>