<svg xmlns="http://www.w3.org/2000/svg" width="500" height="300" viewBox="0 0 500 300" fill="none"><rect width="500" height="300" rx="24" fill="white"></rect><path d="M187.561 27.3189C212.042 3.00575 253.322 12.7279 289.656 50.3739C325.989 88.0198 356.384 97.1194 378.001 127.616C409.851 172.548 357.104 261.213 220.556 252.352C84.0082 243.491 102.14 137.523 141.558 114.847C180.977 92.1703 157.088 57.5829 187.561 27.3189Z" fill="#0064D6"></path><path d="M235.33 284.254C302.187 284.254 356.386 282.328 356.386 279.952C356.386 277.577 302.187 275.651 235.33 275.651C168.472 275.651 114.273 277.577 114.273 279.952C114.273 282.328 168.472 284.254 235.33 284.254Z" fill="#80D2E8"></path><path d="M335.819 278.245H221.785C216.901 278.245 212.941 274.285 212.941 269.401V45.2357C212.941 40.3515 216.901 36.3918 221.785 36.3918H335.819C340.703 36.3918 344.663 40.3515 344.663 45.2357V269.401C344.663 274.286 340.703 278.245 335.819 278.245Z" fill="#031547"></path><path d="M337.05 50.3738H220.559V255.849H337.05V50.3738Z" fill="#0064D6"></path><path d="M296.61 43.0134H252.758V44.8663H296.61V43.0134Z" fill="#000019"></path><path d="M302.477 46.3073C303.784 46.3073 304.844 45.2474 304.844 43.9399C304.844 42.6324 303.784 41.5725 302.477 41.5725C301.169 41.5725 300.109 42.6324 300.109 43.9399C300.109 45.2474 301.169 46.3073 302.477 46.3073Z" fill="#000019"></path><path opacity="0.6" d="M303.122 44.3766C303.661 44.3766 304.099 43.9391 304.099 43.3995C304.099 42.8598 303.661 42.4224 303.122 42.4224C302.582 42.4224 302.145 42.8598 302.145 43.3995C302.145 43.9391 302.582 44.3766 303.122 44.3766Z" fill="white"></path><path opacity="0.6" d="M302.476 44.5933C302.751 44.5933 302.975 44.3699 302.975 44.0943C302.975 43.8186 302.751 43.5952 302.476 43.5952C302.2 43.5952 301.977 43.8186 301.977 44.0943C301.977 44.3699 302.2 44.5933 302.476 44.5933Z" fill="white"></path><mask id="mask0_2332_348" style="mask-type:luminance" maskUnits="userSpaceOnUse" x="271" y="259" width="16" height="17"><path d="M278.812 275.15C283.038 275.15 286.464 271.724 286.464 267.498C286.464 263.272 283.038 259.846 278.812 259.846C274.586 259.846 271.16 263.272 271.16 267.498C271.16 271.724 274.586 275.15 278.812 275.15Z" fill="white"></path></mask><g mask="url(#mask0_2332_348)"><path d="M278.812 275.15C283.038 275.15 286.464 271.724 286.464 267.498C286.464 263.272 283.038 259.846 278.812 259.846C274.586 259.846 271.16 263.272 271.16 267.498C271.16 271.724 274.586 275.15 278.812 275.15Z" fill="#C0D9E6"></path></g><mask id="mask1_2332_348" style="mask-type:luminance" maskUnits="userSpaceOnUse" x="271" y="259" width="16" height="17"><path d="M278.812 275.15C283.038 275.15 286.464 271.724 286.464 267.498C286.464 263.272 283.038 259.846 278.812 259.846C274.586 259.846 271.16 263.272 271.16 267.498C271.16 271.724 274.586 275.15 278.812 275.15Z" fill="white"></path></mask><g mask="url(#mask1_2332_348)"><path d="M277.48 275.15C281.706 275.15 285.132 271.724 285.132 267.498C285.132 263.272 281.706 259.846 277.48 259.846C273.254 259.846 269.828 263.272 269.828 267.498C269.828 271.724 273.254 275.15 277.48 275.15Z" fill="white"></path></g><path d="M316.678 81.1122L267.884 66.5681C264.871 65.6701 261.701 67.3846 260.803 70.3968L251.793 100.624C250.895 103.637 252.61 106.806 255.622 107.704L275.542 113.642L272.706 122.546L277.35 123.93L284.495 116.311L304.415 122.249C307.428 123.147 310.598 121.432 311.496 118.42L320.506 88.1933C321.404 85.1799 319.69 82.0102 316.678 81.1122Z" fill="#000006"></path><path d="M312.037 79.728L263.243 65.184C260.23 64.2859 257.06 66.0005 256.163 69.0127L247.153 99.2396C246.255 102.252 247.969 105.422 250.981 106.32L270.901 112.258L272.709 122.546L279.855 114.927L299.774 120.865C302.787 121.763 305.957 120.048 306.855 117.036L315.865 86.8092C316.764 83.7957 315.049 80.626 312.037 79.728Z" fill="#031547"></path><path d="M280.166 87.5812L274.875 105.082L286.588 108.623C288.332 109.151 290.205 108.366 291.053 106.754L296.118 97.1298C297.231 95.0151 296.14 92.4105 293.853 91.7194L289.215 90.3167L292.504 85.7049C293.267 84.6345 293.411 83.2405 292.88 82.0374C292.545 81.2758 291.555 81.0782 290.953 81.652C287.966 84.4974 284.298 86.5276 280.301 87.5467L280.166 87.5812Z" fill="white"></path><path d="M269.233 84.2777L263.941 101.778L272.195 104.274L277.486 86.7729L269.233 84.2777Z" fill="#0064D6"></path><path d="M302.987 110.973L277.089 115.939C275.49 116.245 274.442 117.79 274.749 119.389L277.824 135.433C278.131 137.032 279.676 138.079 281.274 137.773L291.848 135.746L292.67 140.515L295.135 140.043L296.6 134.835L307.173 132.808C308.772 132.502 309.82 130.957 309.513 129.357L306.437 113.314C306.131 111.714 304.586 110.666 302.987 110.973Z" fill="#C55E33"></path><path d="M300.519 111.445L274.62 116.411C273.021 116.717 271.973 118.262 272.28 119.861L275.356 135.905C275.662 137.504 277.207 138.551 278.806 138.245L289.38 136.218L292.667 140.515L294.132 135.307L304.705 133.28C306.304 132.974 307.351 131.428 307.045 129.829L303.969 113.786C303.662 112.187 302.117 111.138 300.519 111.445Z" fill="#F9A146"></path><path d="M294.473 118.207C294.679 119.305 293.956 120.363 292.858 120.569C291.76 120.775 290.702 120.052 290.496 118.954C290.29 117.856 291.013 116.798 292.111 116.592C293.21 116.386 294.267 117.109 294.473 118.207Z" fill="white"></path><path d="M296.457 128.775C296.664 129.874 295.94 130.931 294.842 131.137C293.744 131.344 292.687 130.62 292.48 129.522C292.274 128.424 292.997 127.367 294.096 127.16C295.194 126.954 296.251 127.677 296.457 128.775Z" fill="white"></path><path d="M286.266 125.219C286.472 126.317 285.749 127.375 284.651 127.581C283.553 127.787 282.495 127.064 282.289 125.966C282.083 124.868 282.806 123.81 283.904 123.604C285.002 123.398 286.06 124.121 286.266 125.219Z" fill="white"></path><path d="M292.482 118.58L284.273 125.593L294.466 129.149" stroke="white" stroke-width="2" stroke-miterlimit="10"></path><path d="M233.465 157.318H322.82" stroke="#E2F4FF" stroke-width="6" stroke-miterlimit="10" stroke-linecap="round"></path><path d="M233.465 166.833H322.82" stroke="#E2F4FF" stroke-width="6" stroke-miterlimit="10" stroke-linecap="round"></path><path d="M233.465 176.349H296.533" stroke="#E2F4FF" stroke-width="6" stroke-miterlimit="10" stroke-linecap="round"></path><path d="M233.465 185.864H267.748" stroke="#E2F4FF" stroke-width="6" stroke-miterlimit="10" stroke-linecap="round"></path><path d="M238.28 145.08C238.28 143.261 236.805 141.786 234.986 141.786C233.166 141.786 231.691 143.261 231.691 145.08C231.691 146.9 233.166 148.375 234.986 148.375C236.805 148.375 238.28 146.9 238.28 145.08Z" fill="#F9A146"></path><path d="M248.425 145.08C248.425 143.261 246.95 141.786 245.13 141.786C243.311 141.786 241.836 143.261 241.836 145.08C241.836 146.9 243.311 148.375 245.13 148.375C246.95 148.375 248.425 146.9 248.425 145.08Z" fill="#75C043"></path><path d="M250.61 231.479C259.725 231.479 267.114 224.089 267.114 214.974C267.114 205.859 259.725 198.47 250.61 198.47C241.495 198.47 234.105 205.859 234.105 214.974C234.105 224.089 241.495 231.479 250.61 231.479Z" fill="#DAA141"></path><path d="M248.516 231.479C257.631 231.479 265.02 224.089 265.02 214.974C265.02 205.859 257.631 198.47 248.516 198.47C239.401 198.47 232.012 205.859 232.012 214.974C232.012 224.089 239.401 231.479 248.516 231.479Z" fill="#FDCE4C"></path><mask id="mask2_2332_348" style="mask-type:luminance" maskUnits="userSpaceOnUse" x="235" y="202" width="27" height="26"><path d="M257.502 223.772C262.354 218.819 262.271 210.869 257.317 206.018C252.363 201.166 244.414 201.248 239.562 206.202C234.711 211.156 234.793 219.106 239.747 223.957C244.701 228.809 252.65 228.726 257.502 223.772Z" fill="white"></path></mask><g mask="url(#mask2_2332_348)"><path d="M253.386 226.565C259.778 223.879 262.782 216.519 260.095 210.126C257.408 203.734 250.048 200.73 243.656 203.417C237.264 206.104 234.26 213.464 236.947 219.856C239.634 226.248 246.994 229.252 253.386 226.565Z" fill="#DAA141"></path></g><mask id="mask3_2332_348" style="mask-type:luminance" maskUnits="userSpaceOnUse" x="235" y="202" width="27" height="26"><path d="M253.374 226.565C259.766 223.879 262.77 216.519 260.083 210.126C257.397 203.734 250.037 200.73 243.644 203.417C237.252 206.104 234.248 213.464 236.935 219.856C239.622 226.248 246.982 229.252 253.374 226.565Z" fill="white"></path></mask><g mask="url(#mask3_2332_348)"><path d="M250.523 229.568C257.457 229.568 263.078 223.947 263.078 217.013C263.078 210.079 257.457 204.458 250.523 204.458C243.59 204.458 237.969 210.079 237.969 217.013C237.969 223.947 243.59 229.568 250.523 229.568Z" fill="#FBC23F"></path></g><path d="M250.937 232.939V209.165H252.46V232.939H250.937ZM256.063 216.298C255.952 215.356 255.5 214.626 254.708 214.106C253.915 213.586 252.943 213.326 251.792 213.326C250.95 213.326 250.213 213.462 249.581 213.734C248.956 214.007 248.467 214.381 248.114 214.858C247.767 215.335 247.594 215.877 247.594 216.483C247.594 216.991 247.715 217.427 247.956 217.793C248.204 218.152 248.52 218.452 248.903 218.693C249.287 218.929 249.69 219.124 250.111 219.279C250.532 219.427 250.919 219.548 251.272 219.641L253.203 220.161C253.698 220.291 254.249 220.47 254.856 220.699C255.469 220.928 256.054 221.241 256.611 221.637C257.175 222.027 257.639 222.529 258.004 223.142C258.37 223.755 258.552 224.507 258.552 225.398C258.552 226.426 258.283 227.355 257.744 228.184C257.212 229.014 256.432 229.673 255.404 230.162C254.383 230.652 253.141 230.896 251.68 230.896C250.318 230.896 249.139 230.676 248.142 230.237C247.151 229.797 246.371 229.184 245.802 228.398C245.238 227.612 244.92 226.699 244.845 225.658H247.223C247.285 226.377 247.526 226.971 247.947 227.441C248.374 227.906 248.913 228.252 249.563 228.482C250.219 228.704 250.925 228.816 251.68 228.816C252.559 228.816 253.349 228.673 254.048 228.389C254.748 228.098 255.302 227.695 255.711 227.181C256.119 226.661 256.323 226.055 256.323 225.361C256.323 224.73 256.147 224.216 255.794 223.82C255.441 223.423 254.977 223.102 254.401 222.854C253.825 222.606 253.203 222.39 252.535 222.204L250.194 221.535C248.708 221.108 247.532 220.498 246.665 219.706C245.799 218.913 245.365 217.876 245.365 216.595C245.365 215.53 245.653 214.601 246.229 213.809C246.811 213.01 247.591 212.391 248.569 211.951C249.554 211.506 250.652 211.283 251.866 211.283C253.092 211.283 254.181 211.503 255.135 211.942C256.088 212.375 256.844 212.97 257.401 213.725C257.964 214.48 258.261 215.338 258.292 216.298H256.063Z" fill="#DAA141"></path><path d="M279.332 238.858H268.938V245.961H279.332V238.858Z" fill="#E2F4FF"></path><path d="M293.828 226.236H283.434V245.96H293.828V226.236Z" fill="#E2F4FF"></path><path d="M308.324 199.347H297.93V245.961H308.324V199.347Z" fill="#E2F4FF"></path><path d="M322.828 188.521H312.434V245.961H322.828V188.521Z" fill="#E2F4FF"></path><path d="M279.332 242.409H268.938V245.961H279.332V242.409Z" fill="#FDCE4C"></path><path d="M293.828 232.784H283.434V245.96H293.828V232.784Z" fill="#FDCE4C"></path><path d="M308.324 238.858H297.93V245.961H308.324V238.858Z" fill="#FDCE4C"></path><path d="M322.828 204.167H312.434V245.961H322.828V204.167Z" fill="#FDCE4C"></path><path d="M237.364 246.546V235.637H238.063V246.546H237.364ZM239.716 238.91C239.665 238.478 239.458 238.143 239.094 237.904C238.73 237.666 238.284 237.546 237.756 237.546C237.37 237.546 237.032 237.609 236.742 237.734C236.455 237.859 236.23 238.031 236.069 238.249C235.909 238.468 235.83 238.717 235.83 238.995C235.83 239.228 235.885 239.428 235.996 239.596C236.11 239.761 236.255 239.899 236.431 240.009C236.607 240.117 236.792 240.207 236.985 240.278C237.178 240.346 237.355 240.401 237.517 240.444L238.404 240.683C238.631 240.742 238.884 240.825 239.162 240.93C239.444 241.035 239.712 241.178 239.968 241.36C240.226 241.539 240.439 241.769 240.607 242.051C240.775 242.332 240.858 242.677 240.858 243.086C240.858 243.558 240.735 243.984 240.488 244.365C240.243 244.745 239.885 245.048 239.414 245.272C238.945 245.497 238.375 245.609 237.705 245.609C237.08 245.609 236.539 245.508 236.081 245.306C235.627 245.105 235.269 244.823 235.007 244.463C234.749 244.102 234.603 243.683 234.569 243.205H235.659C235.688 243.535 235.799 243.808 235.992 244.024C236.188 244.237 236.435 244.396 236.733 244.501C237.034 244.603 237.358 244.654 237.705 244.654C238.108 244.654 238.471 244.589 238.792 244.458C239.113 244.325 239.367 244.14 239.554 243.904C239.742 243.666 239.836 243.387 239.836 243.069C239.836 242.779 239.755 242.544 239.593 242.362C239.431 242.18 239.218 242.032 238.953 241.919C238.689 241.805 238.404 241.705 238.097 241.62L237.023 241.313C236.341 241.117 235.801 240.838 235.404 240.474C235.006 240.11 234.807 239.634 234.807 239.046C234.807 238.558 234.939 238.132 235.203 237.768C235.471 237.401 235.828 237.117 236.277 236.916C236.729 236.711 237.233 236.609 237.79 236.609C238.353 236.609 238.853 236.71 239.29 236.911C239.728 237.11 240.074 237.383 240.33 237.73C240.588 238.076 240.725 238.47 240.739 238.91H239.716ZM245.511 236.728V245.455H244.454V237.836H244.403L242.272 239.251V238.177L244.454 236.728H245.511ZM237.637 260.575C236.995 260.575 236.448 260.4 235.996 260.051C235.544 259.698 235.199 259.188 234.961 258.521C234.722 257.85 234.603 257.041 234.603 256.092C234.603 255.149 234.722 254.343 234.961 253.676C235.202 253.005 235.549 252.494 236 252.142C236.455 251.786 237 251.609 237.637 251.609C238.273 251.609 238.817 251.786 239.269 252.142C239.723 252.494 240.07 253.005 240.309 253.676C240.55 254.343 240.671 255.149 240.671 256.092C240.671 257.041 240.551 257.85 240.313 258.521C240.074 259.188 239.729 259.698 239.277 260.051C238.826 260.4 238.279 260.575 237.637 260.575ZM237.637 259.637C238.273 259.637 238.767 259.33 239.12 258.717C239.472 258.103 239.648 257.228 239.648 256.092C239.648 255.336 239.567 254.693 239.405 254.161C239.246 253.63 239.016 253.225 238.715 252.947C238.417 252.669 238.057 252.529 237.637 252.529C237.006 252.529 236.513 252.84 236.158 253.463C235.803 254.082 235.625 254.958 235.625 256.092C235.625 256.847 235.705 257.49 235.864 258.018C236.023 258.546 236.252 258.948 236.55 259.224C236.851 259.499 237.213 259.637 237.637 259.637ZM245.137 260.575C244.495 260.575 243.948 260.4 243.496 260.051C243.044 259.698 242.699 259.188 242.461 258.521C242.222 257.85 242.103 257.041 242.103 256.092C242.103 255.149 242.222 254.343 242.461 253.676C242.702 253.005 243.049 252.494 243.5 252.142C243.955 251.786 244.5 251.609 245.137 251.609C245.773 251.609 246.317 251.786 246.769 252.142C247.223 252.494 247.57 253.005 247.809 253.676C248.05 254.343 248.171 255.149 248.171 256.092C248.171 257.041 248.051 257.85 247.813 258.521C247.574 259.188 247.229 259.698 246.777 260.051C246.326 260.4 245.779 260.575 245.137 260.575ZM245.137 259.637C245.773 259.637 246.267 259.33 246.62 258.717C246.972 258.103 247.148 257.228 247.148 256.092C247.148 255.336 247.067 254.693 246.905 254.161C246.746 253.63 246.516 253.225 246.215 252.947C245.917 252.669 245.557 252.529 245.137 252.529C244.506 252.529 244.013 252.84 243.658 253.463C243.303 254.082 243.125 254.958 243.125 256.092C243.125 256.847 243.205 257.49 243.364 258.018C243.523 258.546 243.752 258.948 244.05 259.224C244.351 259.499 244.713 259.637 245.137 259.637Z" fill="#FDCE4C"></path><path d="M234.613 247.622V243.465H235.116V247.176H237.048V247.622H234.613ZM239.03 247.687C238.748 247.687 238.501 247.62 238.289 247.486C238.078 247.352 237.912 247.165 237.793 246.924C237.676 246.683 237.617 246.402 237.617 246.08C237.617 245.755 237.676 245.471 237.793 245.229C237.912 244.987 238.078 244.799 238.289 244.665C238.501 244.531 238.748 244.464 239.03 244.464C239.311 244.464 239.557 244.531 239.768 244.665C239.981 244.799 240.146 244.987 240.264 245.229C240.383 245.471 240.442 245.755 240.442 246.08C240.442 246.402 240.383 246.683 240.264 246.924C240.146 247.165 239.981 247.352 239.768 247.486C239.557 247.62 239.311 247.687 239.03 247.687ZM239.03 247.257C239.243 247.257 239.419 247.202 239.557 247.092C239.695 246.983 239.797 246.839 239.864 246.66C239.93 246.481 239.963 246.288 239.963 246.08C239.963 245.871 239.93 245.677 239.864 245.497C239.797 245.317 239.695 245.172 239.557 245.061C239.419 244.95 239.243 244.894 239.03 244.894C238.816 244.894 238.64 244.95 238.502 245.061C238.364 245.172 238.262 245.317 238.195 245.497C238.129 245.677 238.096 245.871 238.096 246.08C238.096 246.288 238.129 246.481 238.195 246.66C238.262 246.839 238.364 246.983 238.502 247.092C238.64 247.202 238.816 247.257 239.03 247.257ZM241.173 247.622V244.504H241.636V244.975H241.669C241.726 244.821 241.828 244.696 241.977 244.6C242.126 244.504 242.294 244.456 242.481 244.456C242.516 244.456 242.56 244.456 242.613 244.458C242.665 244.459 242.705 244.461 242.732 244.464V244.951C242.716 244.947 242.679 244.941 242.621 244.933C242.564 244.923 242.504 244.919 242.44 244.919C242.288 244.919 242.153 244.95 242.034 245.014C241.916 245.076 241.823 245.163 241.754 245.274C241.686 245.383 241.652 245.509 241.652 245.649V247.622H241.173ZM244.512 247.687C244.212 247.687 243.953 247.621 243.735 247.488C243.518 247.354 243.351 247.168 243.234 246.928C243.117 246.687 243.059 246.407 243.059 246.088C243.059 245.768 243.117 245.487 243.234 245.243C243.351 244.998 243.515 244.808 243.725 244.671C243.936 244.533 244.182 244.464 244.464 244.464C244.626 244.464 244.786 244.491 244.945 244.545C245.103 244.599 245.247 244.687 245.377 244.809C245.507 244.929 245.61 245.089 245.688 245.288C245.765 245.487 245.803 245.732 245.803 246.023V246.226H243.4V245.812H245.316C245.316 245.636 245.281 245.479 245.211 245.341C245.142 245.203 245.043 245.094 244.914 245.014C244.787 244.934 244.637 244.894 244.464 244.894C244.273 244.894 244.108 244.942 243.968 245.036C243.83 245.13 243.724 245.251 243.65 245.402C243.575 245.552 243.538 245.713 243.538 245.885V246.161C243.538 246.396 243.579 246.596 243.66 246.76C243.742 246.922 243.857 247.046 244.003 247.131C244.149 247.215 244.319 247.257 244.512 247.257C244.638 247.257 244.752 247.239 244.853 247.204C244.956 247.168 245.045 247.113 245.119 247.042C245.194 246.969 245.251 246.878 245.292 246.77L245.755 246.9C245.706 247.057 245.624 247.195 245.509 247.314C245.394 247.431 245.252 247.523 245.083 247.59C244.914 247.655 244.723 247.687 244.512 247.687ZM246.532 247.622V244.504H246.995V244.992H247.035C247.1 244.825 247.205 244.696 247.35 244.604C247.495 244.511 247.669 244.464 247.872 244.464C248.077 244.464 248.249 244.511 248.385 244.604C248.523 244.696 248.631 244.825 248.708 244.992H248.74C248.82 244.831 248.94 244.703 249.1 244.608C249.259 244.512 249.451 244.464 249.674 244.464C249.953 244.464 250.181 244.551 250.358 244.726C250.535 244.899 250.624 245.169 250.624 245.536V247.622H250.145V245.536C250.145 245.306 250.082 245.141 249.956 245.042C249.83 244.944 249.682 244.894 249.512 244.894C249.292 244.894 249.123 244.961 249.002 245.093C248.882 245.224 248.822 245.391 248.822 245.592V247.622H248.334V245.487C248.334 245.31 248.277 245.167 248.162 245.059C248.047 244.949 247.899 244.894 247.717 244.894C247.593 244.894 247.477 244.927 247.368 244.994C247.261 245.06 247.175 245.152 247.108 245.27C247.044 245.386 247.011 245.521 247.011 245.674V247.622H246.532ZM234.548 254.622V251.504H235.027V254.622H234.548ZM234.791 250.985C234.698 250.985 234.617 250.953 234.55 250.889C234.484 250.826 234.45 250.749 234.45 250.66C234.45 250.571 234.484 250.494 234.55 250.431C234.617 250.367 234.698 250.335 234.791 250.335C234.885 250.335 234.965 250.367 235.031 250.431C235.099 250.494 235.132 250.571 235.132 250.66C235.132 250.749 235.099 250.826 235.031 250.889C234.965 250.953 234.885 250.985 234.791 250.985ZM235.904 255.791V251.504H236.367V252H236.424C236.459 251.946 236.508 251.877 236.57 251.793C236.634 251.707 236.724 251.632 236.842 251.565C236.961 251.498 237.122 251.464 237.325 251.464C237.588 251.464 237.819 251.53 238.019 251.661C238.219 251.792 238.376 251.978 238.488 252.219C238.6 252.46 238.657 252.744 238.657 253.071C238.657 253.402 238.6 253.688 238.488 253.93C238.376 254.171 238.22 254.358 238.021 254.49C237.822 254.622 237.593 254.687 237.333 254.687C237.133 254.687 236.973 254.654 236.852 254.588C236.732 254.52 236.639 254.444 236.574 254.358C236.509 254.272 236.459 254.2 236.424 254.143H236.383V255.791H235.904ZM236.375 253.063C236.375 253.299 236.41 253.507 236.479 253.686C236.548 253.865 236.648 254.005 236.781 254.107C236.914 254.207 237.076 254.257 237.268 254.257C237.468 254.257 237.636 254.204 237.77 254.099C237.905 253.992 238.006 253.848 238.074 253.668C238.143 253.487 238.178 253.285 238.178 253.063C238.178 252.844 238.144 252.647 238.076 252.471C238.01 252.293 237.909 252.153 237.774 252.05C237.64 251.946 237.471 251.894 237.268 251.894C237.073 251.894 236.91 251.944 236.777 252.042C236.644 252.14 236.544 252.276 236.477 252.452C236.409 252.627 236.375 252.831 236.375 253.063ZM241.596 252.203L241.165 252.325C241.138 252.253 241.098 252.183 241.046 252.115C240.994 252.046 240.924 251.99 240.834 251.945C240.745 251.9 240.631 251.878 240.491 251.878C240.301 251.878 240.142 251.922 240.014 252.01C239.889 252.096 239.826 252.207 239.826 252.341C239.826 252.46 239.869 252.554 239.956 252.623C240.042 252.692 240.178 252.749 240.362 252.795L240.824 252.909C241.103 252.977 241.311 253.08 241.447 253.22C241.584 253.358 241.652 253.536 241.652 253.753C241.652 253.932 241.601 254.092 241.498 254.232C241.397 254.373 241.255 254.484 241.072 254.565C240.889 254.647 240.677 254.687 240.435 254.687C240.117 254.687 239.853 254.618 239.645 254.48C239.437 254.342 239.305 254.14 239.249 253.875L239.704 253.762C239.747 253.929 239.829 254.055 239.949 254.139C240.071 254.223 240.23 254.265 240.426 254.265C240.65 254.265 240.827 254.218 240.958 254.123C241.091 254.027 241.157 253.912 241.157 253.778C241.157 253.67 241.119 253.579 241.044 253.506C240.968 253.431 240.851 253.376 240.694 253.339L240.175 253.218C239.889 253.15 239.68 253.045 239.546 252.903C239.413 252.76 239.347 252.58 239.347 252.365C239.347 252.189 239.396 252.034 239.495 251.898C239.595 251.763 239.731 251.657 239.903 251.58C240.076 251.502 240.272 251.464 240.491 251.464C240.8 251.464 241.042 251.532 241.218 251.667C241.395 251.802 241.521 251.981 241.596 252.203ZM244.338 253.348V251.504H244.817V254.622H244.338V254.094H244.306C244.233 254.253 244.119 254.387 243.965 254.498C243.811 254.608 243.616 254.663 243.38 254.663C243.185 254.663 243.012 254.62 242.861 254.535C242.709 254.448 242.59 254.318 242.503 254.145C242.417 253.971 242.374 253.751 242.374 253.486V251.504H242.853V253.453C242.853 253.68 242.916 253.862 243.043 253.997C243.172 254.132 243.336 254.2 243.535 254.2C243.654 254.2 243.775 254.17 243.898 254.109C244.022 254.048 244.127 253.954 244.21 253.829C244.296 253.703 244.338 253.542 244.338 253.348ZM245.695 254.622V251.504H246.158V251.992H246.198C246.263 251.825 246.368 251.696 246.513 251.604C246.658 251.511 246.831 251.464 247.034 251.464C247.24 251.464 247.411 251.511 247.548 251.604C247.686 251.696 247.793 251.825 247.871 251.992H247.903C247.983 251.831 248.103 251.703 248.262 251.608C248.422 251.512 248.614 251.464 248.837 251.464C249.116 251.464 249.344 251.551 249.521 251.726C249.698 251.899 249.787 252.169 249.787 252.536V254.622H249.308V252.536C249.308 252.306 249.245 252.141 249.119 252.042C248.993 251.944 248.845 251.894 248.674 251.894C248.455 251.894 248.285 251.961 248.165 252.093C248.045 252.224 247.984 252.391 247.984 252.592V254.622H247.497V252.487C247.497 252.31 247.44 252.167 247.325 252.059C247.21 251.949 247.061 251.894 246.88 251.894C246.756 251.894 246.639 251.927 246.531 251.994C246.424 252.06 246.337 252.152 246.271 252.27C246.206 252.386 246.174 252.521 246.174 252.674V254.622H245.695Z" fill="#E2F4FF"></path><path d="M130.258 277.086C130.258 277.086 130.962 279.76 131.889 280.153C132.816 280.546 156.009 280.243 159.104 280.388C162.377 280.54 163.338 278.443 163.574 275.365C163.732 273.298 130.258 277.086 130.258 277.086Z" fill="white"></path><path d="M133.076 263.525C131.885 263.3 131.601 263.169 131.265 265.247C130.9 267.5 129.47 277.022 130.452 277.344C131.084 277.552 155.371 278.101 160.606 277.872C165.84 277.642 163.792 269.099 158.344 268.283C152.895 267.467 151.016 268.731 149.232 267.795C147.448 266.86 144.674 263.995 142.888 263.584C140.677 263.074 133.076 263.525 133.076 263.525Z" fill="#003045"></path><mask id="mask4_2332_348" style="mask-type:luminance" maskUnits="userSpaceOnUse" x="130" y="263" width="34" height="15"><path d="M133.091 263.525C131.901 263.3 131.616 263.17 131.28 265.247C130.916 267.5 129.485 277.022 130.467 277.344C131.099 277.552 155.387 278.102 160.622 277.872C165.856 277.642 163.807 269.1 158.359 268.284C152.911 267.467 151.032 268.731 149.248 267.796C147.464 266.861 144.69 263.995 142.904 263.584C140.693 263.074 133.091 263.525 133.091 263.525Z" fill="white"></path></mask><g mask="url(#mask4_2332_348)"><path d="M128.648 272.133C128.648 272.133 149.775 270.992 151.757 281.826" stroke="white" stroke-width="7" stroke-miterlimit="10"></path></g><path d="M141.559 267.235C141.559 267.235 142.767 266.004 145.198 264.942" stroke="#80D2E8" stroke-width="2" stroke-miterlimit="10" stroke-linecap="round"></path><path d="M143.309 268.44C143.309 268.44 144.272 266.938 147.124 266.097" stroke="#80D2E8" stroke-width="2" stroke-miterlimit="10" stroke-linecap="round"></path><path d="M144.883 269.645C144.883 269.645 146.046 267.985 148.645 267.447" stroke="#80D2E8" stroke-width="2" stroke-miterlimit="10" stroke-linecap="round"></path><path d="M169.188 275.477C169.188 275.477 169.873 278.103 170.8 278.496C171.727 278.889 194.92 278.586 198.015 278.731C201.288 278.883 202.249 276.786 202.485 273.708C202.643 271.642 169.188 275.477 169.188 275.477Z" fill="white"></path><path d="M171.986 261.868C170.796 261.643 170.511 261.512 170.175 263.59C169.81 265.843 168.38 275.365 169.362 275.687C169.994 275.895 194.282 276.444 199.516 276.215C204.751 275.985 202.702 267.442 197.254 266.626C191.806 265.81 189.926 267.074 188.142 266.138C186.359 265.203 183.584 262.338 181.798 261.927C179.588 261.417 171.986 261.868 171.986 261.868Z" fill="#003045"></path><mask id="mask5_2332_348" style="mask-type:luminance" maskUnits="userSpaceOnUse" x="169" y="261" width="34" height="16"><path d="M171.99 261.868C170.799 261.642 170.515 261.512 170.179 263.59C169.814 265.842 168.384 275.364 169.366 275.687C169.998 275.894 194.286 276.444 199.52 276.214C204.754 275.985 202.706 267.442 197.258 266.626C191.809 265.81 189.93 267.073 188.146 266.138C186.363 265.203 183.588 262.338 181.802 261.927C179.591 261.417 171.99 261.868 171.99 261.868Z" fill="white"></path></mask><g mask="url(#mask5_2332_348)"><path d="M167.555 270.476C167.555 270.476 188.681 269.336 190.663 280.169" stroke="white" stroke-width="7" stroke-miterlimit="10"></path></g><path d="M180.469 265.578C180.469 265.578 181.677 264.348 184.108 263.286" stroke="#80D2E8" stroke-width="2" stroke-miterlimit="10" stroke-linecap="round"></path><path d="M182.219 266.783C182.219 266.783 183.182 265.281 186.034 264.441" stroke="#80D2E8" stroke-width="2" stroke-miterlimit="10" stroke-linecap="round"></path><path d="M183.801 267.989C183.801 267.989 184.964 266.329 187.563 265.79" stroke="#80D2E8" stroke-width="2" stroke-miterlimit="10" stroke-linecap="round"></path><path d="M133.202 254.212L132.715 263.49C133.253 263.992 134.295 264.817 135.828 265.213C138.661 265.943 140.989 264.643 141.51 264.334C142.088 260.861 142.667 257.387 143.245 253.914L133.202 254.212Z" fill="#F5BAAA"></path><path d="M172.156 252.65L171.668 261.928C172.207 262.43 173.248 263.255 174.781 263.651C177.614 264.381 179.942 263.081 180.463 262.772C181.041 259.299 181.62 255.825 182.198 252.352L172.156 252.65Z" fill="#F5BAAA"></path><path d="M190.912 117.171C189.204 112.374 201.183 113.329 202.704 113.358C204.225 113.387 210.168 127.902 211.879 133.938C212.599 136.474 210.506 142.615 205.536 140.948C199.956 139.075 196.009 131.479 190.912 117.171Z" fill="#F5BAAA"></path><path d="M184.471 85.5951C190.103 86.2071 196.041 92.4452 199.324 98.1089C202.607 103.773 205.746 114.736 205.746 114.736C205.746 114.736 200.866 120.657 190.327 120.168C190.327 120.168 185.305 110.419 182.988 100.76C180.671 91.1013 180.722 85.188 184.471 85.5951Z" fill="#80D2E8"></path><path d="M207.473 141.278C211.807 142.223 229.995 133.945 238.483 126.673C241.819 123.815 239.803 116.412 232.7 120.447C220.85 127.178 210.303 129.189 210.303 129.189C210.303 129.189 199.899 139.624 207.473 141.278Z" fill="#F5BAAA"></path><mask id="mask6_2332_348" style="mask-type:luminance" maskUnits="userSpaceOnUse" x="190" y="106" width="69" height="36"><path d="M252.577 113.251C248.618 113.53 242.551 115.157 242.157 114.667C241.419 113.747 242.385 112.581 242.577 111.035C242.83 108.992 242.227 105.755 241.142 107.462C240.488 108.491 239.688 110.737 237.607 113.08C235.526 115.423 233.058 119.943 232.883 120.185C232.82 120.272 232.766 120.357 232.708 120.444C232.706 120.446 232.703 120.446 232.7 120.448C220.85 127.179 210.303 129.19 210.303 129.19C207.848 122.412 203.9 113.382 202.7 113.359C201.18 113.33 189.2 112.376 190.909 117.172C196.005 131.48 199.952 139.076 205.532 140.949C206.165 141.162 206.751 141.246 207.29 141.229C207.353 141.244 207.407 141.265 207.473 141.279C211.411 142.139 226.787 135.381 235.931 128.684C235.994 128.661 236.053 128.634 236.101 128.597C237.319 127.663 240.435 126.876 244.868 123.491C249.301 120.106 258.214 115.059 258.546 113.912C258.877 112.765 256.536 112.973 252.577 113.251Z" fill="white"></path></mask><g mask="url(#mask6_2332_348)"><path opacity="0.6" d="M235.204 126.289L209.833 146.616L191.344 136.145L225.798 127.158L235.204 126.289Z" fill="#972229"></path></g><mask id="mask7_2332_348" style="mask-type:luminance" maskUnits="userSpaceOnUse" x="181" y="85" width="25" height="36"><path d="M184.448 85.5949C190.079 86.207 196.017 92.4451 199.3 98.1088C202.584 103.773 205.723 114.736 205.723 114.736C205.723 114.736 200.842 120.657 190.304 120.168C190.304 120.168 185.282 110.419 182.965 100.76C180.647 91.1011 180.699 85.1879 184.448 85.5949Z" fill="white"></path></mask><g mask="url(#mask7_2332_348)"><path d="M185.809 118.507C185.809 118.507 198.003 116.957 206.279 109.892" stroke="white" stroke-width="4" stroke-miterlimit="10"></path></g><mask id="mask8_2332_348" style="mask-type:luminance" maskUnits="userSpaceOnUse" x="181" y="85" width="25" height="36"><path d="M184.448 85.5949C190.079 86.207 196.017 92.4451 199.3 98.1088C202.584 103.773 205.723 114.736 205.723 114.736C205.723 114.736 200.842 120.657 190.304 120.168C190.304 120.168 185.282 110.419 182.965 100.76C180.647 91.1011 180.699 85.1879 184.448 85.5949Z" fill="white"></path></mask><g mask="url(#mask8_2332_348)"><path d="M183.102 114.728C183.102 114.728 195.295 113.178 203.572 106.113" stroke="white" stroke-width="4" stroke-miterlimit="10"></path></g><mask id="mask9_2332_348" style="mask-type:luminance" maskUnits="userSpaceOnUse" x="181" y="85" width="25" height="36"><path d="M184.448 85.5949C190.079 86.207 196.017 92.4451 199.3 98.1088C202.584 103.773 205.723 114.736 205.723 114.736C205.723 114.736 200.842 120.657 190.304 120.168C190.304 120.168 185.282 110.419 182.965 100.76C180.647 91.1011 180.699 85.1879 184.448 85.5949Z" fill="white"></path></mask><g mask="url(#mask9_2332_348)"><path opacity="0.6" d="M183.926 95.5525C183.926 95.5525 189.813 109.215 195.931 122.873L186.278 122.609L183.926 95.5525Z" fill="#972229"></path></g><path d="M232.885 120.184C233.06 119.942 235.529 115.422 237.609 113.079C239.69 110.736 240.491 108.49 241.144 107.461C242.229 105.753 242.831 108.992 242.579 111.033C242.387 112.58 241.421 113.746 242.159 114.666C242.552 115.157 248.62 113.529 252.579 113.25C256.537 112.972 258.88 112.762 258.548 113.91C258.217 115.057 249.304 120.104 244.871 123.489C240.437 126.873 237.322 127.661 236.104 128.595C234.885 129.53 228.808 125.818 232.885 120.184Z" fill="#F5BAAA"></path><path d="M163.184 156.56C163.184 156.56 169.827 206.64 184.294 212.41C198.762 218.179 190.357 155.753 190.357 155.753C190.357 155.753 173.02 149.071 163.184 156.56Z" fill="#192637"></path><path d="M175.794 201.083C175.794 201.083 182.048 192.956 192.041 200.241C193.937 201.624 185.697 238.367 184.022 247.47C183.636 249.57 182.231 255.222 182.231 255.222L171.217 255.264C171.217 255.264 170.312 247.709 170.22 245.691C169.663 233.411 167.747 217.611 175.794 201.083Z" fill="#192637"></path><path d="M145.97 153.443C145.97 153.443 139.657 203.566 152.182 212.826C164.707 222.085 172.456 159.574 172.456 159.574C172.456 159.574 157.388 148.702 145.97 153.443Z" fill="#273548"></path><path d="M145.485 203.125C145.485 203.125 153.18 195.887 161.732 204.819C163.355 206.514 149.202 240.817 145.949 249.483C145.276 251.275 143.064 257.177 143.064 257.177L132.692 256.592C132.692 256.592 131.636 247.518 131.87 245.76C133.486 233.574 134.65 217.977 145.485 203.125Z" fill="#273548"></path><mask id="mask10_2332_348" style="mask-type:luminance" maskUnits="userSpaceOnUse" x="143" y="83" width="49" height="79"><path d="M160.932 83.7726L173.828 84.0623C173.828 84.0623 189.114 84.1493 190.575 90.3751C192.534 98.7261 189.3 109.893 188.878 116.322C188.18 126.952 189.247 151.224 190.944 158.64C190.944 158.64 155.602 164.864 145.16 159.394C145.16 159.394 144.558 155.604 144.529 153.312C144.361 139.521 148.536 126.329 147.651 116.204C146.283 100.574 132.225 85.9306 160.932 83.7726Z" fill="white"></path></mask><g mask="url(#mask10_2332_348)"><path d="M160.932 83.7725L173.828 84.0621C173.828 84.0621 189.114 84.1492 190.575 90.375C192.534 98.726 189.3 109.893 188.878 116.322C188.18 126.952 189.247 151.224 190.944 158.64C190.944 158.64 155.602 164.864 145.16 159.394C145.16 159.394 144.558 155.604 144.529 153.312C144.361 139.521 148.536 126.329 147.651 116.204C146.283 100.574 132.225 85.9305 160.932 83.7725Z" fill="#80D2E8"></path></g><mask id="mask11_2332_348" style="mask-type:luminance" maskUnits="userSpaceOnUse" x="143" y="83" width="49" height="79"><path d="M160.932 83.7726L173.828 84.0623C173.828 84.0623 189.114 84.1493 190.575 90.3751C192.534 98.7261 189.3 109.893 188.878 116.322C188.18 126.952 189.247 151.224 190.944 158.64C190.944 158.64 155.602 164.864 145.16 159.394C145.16 159.394 144.558 155.604 144.529 153.312C144.361 139.521 148.536 126.329 147.651 116.204C146.283 100.574 132.225 85.9306 160.932 83.7726Z" fill="white"></path></mask><g mask="url(#mask11_2332_348)"><path opacity="0.6" d="M160.262 87.2289C160.262 87.2289 162.766 90.4369 168.133 90.1293C173.5 89.8217 174.693 87.3617 174.693 87.3617C174.693 87.3617 173.544 91.372 167.691 91.2256C161.654 91.0736 160.262 87.2289 160.262 87.2289Z" fill="#972229"></path></g><mask id="mask12_2332_348" style="mask-type:luminance" maskUnits="userSpaceOnUse" x="143" y="83" width="49" height="79"><path d="M160.932 83.7726L173.828 84.0623C173.828 84.0623 189.114 84.1493 190.575 90.3751C192.534 98.7261 189.3 109.893 188.878 116.322C188.18 126.952 189.247 151.224 190.944 158.64C190.944 158.64 155.602 164.864 145.16 159.394C145.16 159.394 144.558 155.604 144.529 153.312C144.361 139.521 148.536 126.329 147.651 116.204C146.283 100.574 132.225 85.9306 160.932 83.7726Z" fill="white"></path></mask><g mask="url(#mask12_2332_348)"><path opacity="0.6" d="M157.445 94.5249C157.445 94.5249 167.816 105.902 180.889 133.179L166.209 122.687L157.445 94.5249Z" fill="#972229"></path></g><mask id="mask13_2332_348" style="mask-type:luminance" maskUnits="userSpaceOnUse" x="143" y="83" width="49" height="79"><path d="M160.932 83.7726L173.828 84.0623C173.828 84.0623 189.114 84.1493 190.575 90.3751C192.534 98.7261 189.3 109.893 188.878 116.322C188.18 126.952 189.247 151.224 190.944 158.64C190.944 158.64 155.602 164.864 145.16 159.394C145.16 159.394 144.558 155.604 144.529 153.312C144.361 139.521 148.536 126.329 147.651 116.204C146.283 100.574 132.225 85.9306 160.932 83.7726Z" fill="white"></path></mask><g mask="url(#mask13_2332_348)"><path opacity="0.6" d="M146.396 109.845L193.769 149.058L193.822 162.543L186.476 160.956L142.688 119.041L146.396 109.845Z" fill="#972229"></path></g><mask id="mask14_2332_348" style="mask-type:luminance" maskUnits="userSpaceOnUse" x="160" y="64" width="15" height="24"><path d="M173.802 84.0629C173.489 84.4508 171.361 86.9954 167.743 87.1177C163.578 87.2591 161.122 84.0635 160.906 83.7732C161.53 81.2094 162.091 77.952 162.203 74.1579C162.311 70.517 161.976 67.351 161.536 64.823C165.835 64.92 170.134 65.0163 174.432 65.1133L173.802 84.0629Z" fill="white"></path></mask><g mask="url(#mask14_2332_348)"><path d="M173.802 84.0628C173.489 84.4506 171.883 86.9588 168.265 87.0811C164.1 87.222 161.122 84.0634 160.906 83.7731C161.53 81.2093 162.091 77.9519 162.203 74.1578C162.311 70.5168 161.976 67.3508 161.536 64.8229C165.835 64.9198 170.134 65.0162 174.432 65.1132L173.802 84.0628Z" fill="#F5BAAA"></path></g><mask id="mask15_2332_348" style="mask-type:luminance" maskUnits="userSpaceOnUse" x="160" y="64" width="15" height="24"><path d="M173.802 84.0629C173.489 84.4508 171.361 86.9954 167.743 87.1177C163.578 87.2591 161.122 84.0635 160.906 83.7732C161.53 81.2094 162.091 77.952 162.203 74.1579C162.311 70.517 161.976 67.351 161.536 64.823C165.835 64.92 170.134 65.0163 174.432 65.1133L173.802 84.0629Z" fill="white"></path></mask><g mask="url(#mask15_2332_348)"><path d="M166.238 72.8701C166.238 72.8701 167.466 84.0697 175.965 83.1642C184.465 82.2581 177.474 73.2438 177.474 73.2438L166.238 72.8701Z" fill="#B9484F"></path></g><path d="M185.249 62.4116C184.963 71.001 179.329 77.7839 172.664 77.5622C165.999 77.3404 160.827 70.1981 161.113 61.6087C161.398 53.0193 167.033 46.2364 173.698 46.4582C180.363 46.6799 185.534 53.8228 185.249 62.4116Z" fill="#F5BAAA"></path><path d="M170.879 60.7267C170.848 61.6679 170.473 62.4196 170.042 62.4054C169.611 62.3912 169.288 61.616 169.318 60.6748C169.35 59.7335 169.724 58.9818 170.155 58.996C170.586 59.0103 170.91 59.7848 170.879 60.7267Z" fill="#6B242E"></path><path d="M180.727 61.054C180.695 61.9953 180.321 62.747 179.89 62.7328C179.459 62.7186 179.135 61.9434 179.166 61.0022C179.198 60.0609 179.572 59.3092 180.003 59.3234C180.434 59.3376 180.758 60.1128 180.727 61.054Z" fill="#6B242E"></path><path d="M168.84 68.7708L176.406 70.4285C176.406 70.4285 175.068 72.5216 172.529 72.4346C171.265 72.3913 169.126 71.1233 168.84 68.7708Z" fill="white"></path><path d="M171.927 55.8028L172.146 57.0597C172.146 57.0597 169.668 56.4044 167.473 56.644C167.473 56.644 168.137 55.4687 171.927 55.8028Z" fill="#A64143"></path><path d="M177.598 55.9913L177.297 57.2309C177.297 57.2309 179.812 56.7418 181.987 57.1266C181.987 57.1266 181.402 55.9098 177.598 55.9913Z" fill="#A64143"></path><path d="M164.618 60.9244C165.105 63.7871 164.132 66.341 162.443 66.6282C160.755 66.9154 158.992 64.8272 158.505 61.9645C158.017 59.1018 158.991 56.5478 160.679 56.2606C162.367 55.9728 164.131 58.061 164.618 60.9244Z" fill="#F5BAAA"></path><path d="M161.33 61.4833C161.158 60.4765 161.27 59.5315 161.583 58.8515C161.428 58.8021 161.27 58.7873 161.112 58.8145C160.255 58.9602 159.762 60.256 160.009 61.7081C160.256 63.1608 161.151 64.22 162.007 64.0742C162.165 64.0477 162.309 63.9816 162.439 63.8834C161.919 63.3448 161.501 62.49 161.33 61.4833Z" fill="#6B242E"></path><path d="M175.043 61.392C175.043 61.392 177.304 65.1268 177.331 66.1842C177.358 67.2416 175.066 67.3385 175.066 67.3385L175.043 61.392Z" fill="#A64143"></path><path d="M161.901 56.6707C161.901 56.6707 163.335 65.8864 164.75 67.0266C166.165 68.1667 164.641 61.7822 165.325 56.4255C166.01 51.0688 167.663 48.9472 170.053 49.731C172.442 50.5148 174.757 53.1502 176.336 52.9674C177.915 52.7852 178.575 50.2078 179.9 50.2214C181.224 50.2344 183.421 53.0606 184.017 54.9067C184.017 54.9067 185.655 48.5241 179.579 42.026C173.29 35.3 175.179 42.1217 175.179 42.1217C175.179 42.1217 171.402 38.4882 167.429 37.8428C163.457 37.1974 165.794 41.0224 165.794 41.0224C165.794 41.0224 162.516 39.1843 160.019 40.2516C157.523 41.3188 159.675 43.4256 159.675 43.4256C159.675 43.4256 157.001 43.3039 155.158 45.1617C153.314 47.0196 157.549 48.0609 157.549 48.0609C157.549 48.0609 154.531 50.4524 154.139 53.3627C153.747 56.2729 158.832 54.1378 158.832 54.1378L159.348 57.1105C159.348 57.1105 160.812 55.7813 161.901 56.6707Z" fill="#6B242E"></path><path d="M154.203 121.85C154.203 121.85 167.006 140.7 174.356 142.765C184.635 145.652 176.006 127.398 166.787 115.187C166.787 115.187 162.342 112.571 154.203 121.85Z" fill="#F5BAAA"></path><path d="M176.339 143.064C176.339 143.064 196.916 143.481 212.106 135.036C220.569 130.332 215.633 123.695 210.103 126.306C204.566 128.92 186.623 131.234 174.524 130.961C174.524 130.961 171.593 138.256 176.339 143.064Z" fill="#F5BAAA"></path><path d="M144.004 89.8159C140.813 93.4994 141.554 104.189 146.066 112.358C150.578 120.528 154.343 124.127 154.343 124.127C154.343 124.127 161.058 124.597 168.821 115.528C168.821 115.528 153.408 78.961 144.004 89.8159Z" fill="#80D2E8"></path><path d="M208.974 126.771C209.231 126.619 212.368 123.017 214.887 121.154C217.406 119.291 218.653 117.259 219.505 116.386C220.919 114.939 220.84 118.232 220.171 120.178C219.665 121.652 218.478 122.593 219.011 123.645C219.295 124.207 225.568 123.867 229.498 124.411C233.429 124.956 235.764 125.235 235.203 126.288C234.641 127.342 224.879 130.441 219.842 132.838C214.806 135.235 211.595 135.363 210.21 136.025C208.827 136.689 203.231 130.145 208.974 126.771Z" fill="#F5BAAA"></path><mask id="mask16_2332_348" style="mask-type:luminance" maskUnits="userSpaceOnUse" x="142" y="87" width="27" height="38"><path d="M144 89.8159C140.809 93.4994 141.55 104.189 146.062 112.358C150.574 120.528 154.339 124.127 154.339 124.127C154.339 124.127 161.054 124.597 168.817 115.528C168.817 115.527 153.404 78.961 144 89.8159Z" fill="white"></path></mask><g mask="url(#mask16_2332_348)"><path d="M150.062 122.749C150.062 122.749 161.822 119.171 168.793 110.815" stroke="white" stroke-width="4" stroke-miterlimit="10"></path></g><mask id="mask17_2332_348" style="mask-type:luminance" maskUnits="userSpaceOnUse" x="142" y="87" width="27" height="38"><path d="M144 89.8159C140.809 93.4994 141.55 104.189 146.062 112.358C150.574 120.528 154.339 124.127 154.339 124.127C154.339 124.127 161.054 124.597 168.817 115.528C168.817 115.527 153.404 78.961 144 89.8159Z" fill="white"></path></mask><g mask="url(#mask17_2332_348)"><path d="M146.77 119.478C146.77 119.478 158.529 115.9 165.5 107.544" stroke="white" stroke-width="4" stroke-miterlimit="10"></path></g><path d="M237.922 82.5575L215.448 82.6452C214.06 82.6508 212.94 83.7798 212.945 85.1676L213 99.0897C213.005 100.478 214.134 101.598 215.522 101.592L224.697 101.557L224.637 105.68L226.775 105.672L228.821 101.54L237.996 101.505C239.384 101.499 240.504 100.37 240.499 98.9822L240.444 85.0602C240.439 83.6723 239.31 82.552 237.922 82.5575Z" fill="#B31A28"></path><path d="M235.785 82.5662L213.311 82.6539C211.923 82.6595 210.803 83.7885 210.809 85.1763L210.863 99.0984C210.869 100.486 211.998 101.607 213.385 101.601L222.56 101.565L224.638 105.681L226.684 101.549L235.859 101.513C237.246 101.508 238.367 100.379 238.361 98.9909L238.307 85.0688C238.302 83.681 237.172 82.5606 235.785 82.5662Z" fill="#EE2638"></path><path d="M230.7 88.4368C230.087 87.1811 228.125 86.6555 226.836 87.0589C225.564 87.4566 224.58 88.5208 224.58 88.5208C224.58 88.5208 224.576 88.5171 224.573 88.5146C224.571 88.5171 224.567 88.5208 224.567 88.5208C224.567 88.5208 223.575 87.4646 222.299 87.0768C221.006 86.684 219.049 87.2244 218.445 88.485C217.557 90.3397 218.652 92.9029 221.866 95.4778C223.252 96.5877 224.6 97.1195 224.6 97.1195C224.6 97.1195 224.604 97.1158 224.607 97.1139C224.609 97.1158 224.614 97.1195 224.614 97.1195C224.614 97.1195 225.957 96.5772 227.334 95.4568C230.528 92.8566 231.603 90.2848 230.7 88.4368Z" fill="white"></path><path d="M169.284 65.4578C170.284 65.4578 171.094 65.0775 171.094 64.6085C171.094 64.1395 170.284 63.7593 169.284 63.7593C168.283 63.7593 167.473 64.1395 167.473 64.6085C167.473 65.0775 168.283 65.4578 169.284 65.4578Z" fill="#EE9787"></path><path d="M181.424 65.4578C182.424 65.4578 183.235 65.0775 183.235 64.6085C183.235 64.1395 182.424 63.7593 181.424 63.7593C180.424 63.7593 179.613 64.1395 179.613 64.6085C179.613 65.0775 180.424 65.4578 181.424 65.4578Z" fill="#EE9787"></path><path d="M199.318 25.6686L204.281 27.6259L199.318 29.5832C197.593 30.2632 196.229 31.6282 195.549 33.352L193.592 38.3153L191.634 33.352C190.954 31.6275 189.589 30.2632 187.866 29.5832L182.902 27.6259L187.866 25.6686C189.59 24.9886 190.954 23.6236 191.634 21.8998L193.592 16.9365L195.549 21.8998C196.229 23.6243 197.594 24.9886 199.318 25.6686Z" fill="white"></path><path d="M204.661 71.3185L207.497 72.437L204.661 73.5555C203.676 73.944 202.896 74.7241 202.508 75.7092L201.389 78.5448L200.27 75.7092C199.882 74.7241 199.102 73.944 198.117 73.5555L195.281 72.437L198.117 71.3185C199.102 70.93 199.882 70.1499 200.27 69.1648L201.389 66.3292L202.508 69.1648C202.896 70.1505 203.676 70.93 204.661 71.3185Z" fill="white"></path><path d="M359.657 147.256L362.494 148.375L359.657 149.493C358.672 149.882 357.892 150.662 357.504 151.647L356.385 154.483L355.267 151.647C354.878 150.662 354.098 149.882 353.113 149.493L350.277 148.375L353.113 147.256C354.098 146.868 354.878 146.088 355.267 145.103L356.385 142.266L357.504 145.103C357.893 146.088 358.672 146.868 359.657 147.256Z" fill="white"></path><path d="M193.182 80.4014L194.237 80.8177L193.182 81.234C192.815 81.3785 192.526 81.6688 192.381 82.035L191.964 83.0906L191.548 82.035C191.403 81.6682 191.113 81.3785 190.747 81.234L189.691 80.8177L190.747 80.4014C191.113 80.2569 191.403 79.9666 191.548 79.6003L191.964 78.5448L192.381 79.6003C192.525 79.9666 192.815 80.2569 193.182 80.4014Z" fill="white"></path><path d="M371.388 166.417L372.443 166.833L371.388 167.25C371.021 167.394 370.732 167.685 370.587 168.051L370.171 169.106L369.754 168.051C369.61 167.684 369.32 167.394 368.953 167.25L367.898 166.833L368.953 166.417C369.32 166.273 369.61 165.982 369.754 165.616L370.171 164.561L370.587 165.616C370.732 165.982 371.022 166.273 371.388 166.417Z" fill="white"></path><path d="M115.1 102.886C117.559 88.4985 128.397 86.6166 131.836 95.0528C135.277 103.49 110.983 126.987 115.1 102.886Z" fill="#0064D6"></path><path d="M137.129 81.3204C140.471 79.1389 144.335 84.8792 140.012 87.8024C135.688 90.7257 131.982 84.6797 137.129 81.3204Z" fill="#0064D6"></path><path d="M353.597 83.983C350.866 80.4317 347.628 68.2328 356.374 62.0101C361.626 58.2741 370.201 79.7541 372.437 87.8019C374.828 96.4129 359.065 91.0926 353.597 83.983Z" fill="#0064D6"></path><path d="M144.552 61.2801C144.552 62.6494 143.442 63.7593 142.073 63.7593C140.704 63.7593 139.594 62.6494 139.594 61.2801C139.594 59.9108 140.704 58.8009 142.073 58.8009C143.442 58.8009 144.552 59.9108 144.552 61.2801Z" fill="white"></path><path d="M125.98 34.7268C127.41 34.7268 128.569 33.5676 128.569 32.1377C128.569 30.7078 127.41 29.5486 125.98 29.5486C124.55 29.5486 123.391 30.7078 123.391 32.1377C123.391 33.5676 124.55 34.7268 125.98 34.7268Z" fill="white"></path><path d="M146.351 25.9484C146.351 26.8748 145.6 27.6259 144.674 27.6259C143.747 27.6259 142.996 26.8748 142.996 25.9484C142.996 25.0219 143.747 24.2709 144.674 24.2709C145.6 24.2709 146.351 25.0219 146.351 25.9484Z" fill="white"></path><path d="M138.271 161.608C138.271 162.266 137.738 162.8 137.079 162.8C136.421 162.8 135.887 162.267 135.887 161.608C135.887 160.949 136.42 160.415 137.079 160.415C137.738 160.415 138.271 160.949 138.271 161.608Z" fill="white"></path><path d="M204.669 205.97C205.644 205.97 206.435 205.179 206.435 204.203C206.435 203.228 205.644 202.437 204.669 202.437C203.693 202.437 202.902 203.228 202.902 204.203C202.902 205.179 203.693 205.97 204.669 205.97Z" fill="white"></path><path d="M352.869 234.08C352.869 234.796 352.289 235.376 351.573 235.376C350.857 235.376 350.277 234.796 350.277 234.08C350.277 233.364 350.857 232.784 351.573 232.784C352.289 232.784 352.869 233.365 352.869 234.08Z" fill="white"></path><path d="M359.007 194.076C359.604 194.076 360.087 193.592 360.087 192.995C360.087 192.398 359.604 191.914 359.007 191.914C358.41 191.914 357.926 192.398 357.926 192.995C357.926 193.592 358.41 194.076 359.007 194.076Z" fill="white"></path><path d="M375.286 246.74C375.286 248.151 374.142 249.295 372.731 249.295C371.32 249.295 370.176 248.151 370.176 246.74C370.176 245.329 371.32 244.185 372.731 244.185C374.142 244.185 375.286 245.329 375.286 246.74Z" fill="white"></path><path d="M373.098 267.817C373.098 268.624 372.444 269.278 371.637 269.278C370.83 269.278 370.176 268.624 370.176 267.817C370.176 267.01 370.83 266.356 371.637 266.356C372.444 266.356 373.098 267.011 373.098 267.817Z" fill="white"></path><path d="M378 185.239C378 186.697 376.818 187.878 375.361 187.878C373.904 187.878 372.723 186.696 372.723 185.239C372.723 183.781 373.904 182.601 375.361 182.601C376.819 182.6 378 183.781 378 185.239Z" fill="white"></path><path d="M383.138 105.681C383.759 105.681 384.261 105.178 384.261 104.558C384.261 103.938 383.759 103.435 383.138 103.435C382.518 103.435 382.016 103.938 382.016 104.558C382.016 105.178 382.518 105.681 383.138 105.681Z" fill="white"></path><path d="M353.438 31.0568C353.854 31.0568 354.192 30.7192 354.192 30.3027C354.192 29.8862 353.854 29.5486 353.438 29.5486C353.021 29.5486 352.684 29.8862 352.684 30.3027C352.684 30.7192 353.021 31.0568 353.438 31.0568Z" fill="white"></path><path d="M129.125 173.333C129.48 173.333 129.769 173.045 129.769 172.689C129.769 172.333 129.48 172.045 129.125 172.045C128.769 172.045 128.48 172.333 128.48 172.689C128.48 173.045 128.769 173.333 129.125 173.333Z" fill="white"></path></svg>