<svg xmlns="http://www.w3.org/2000/svg" width="281" height="294" viewBox="0 0 281 294" fill="none"><path d="M249.767 151.671C251.698 152.786 251.708 154.591 249.79 155.706L219.707 173.188C217.789 174.303 214.673 174.303 212.742 173.188L182.463 155.706C180.532 154.591 180.522 152.786 182.44 151.671L212.522 134.19C214.44 133.075 217.557 133.075 219.488 134.19L249.767 151.671Z" fill="#3060A8"></path><path d="M244.817 63.1218L218.549 78.3877C216.874 79.3612 214.153 79.3612 212.467 78.3877L186.027 63.1226C185.179 62.6329 184.755 61.9902 184.757 61.3488L184.5 152.027C184.498 152.669 184.922 153.311 185.77 153.801L212.21 169.066C213.896 170.04 216.618 170.04 218.292 169.066L244.56 153.8C245.392 153.317 245.809 152.684 245.811 152.051L246.068 61.3727C246.066 62.0053 245.65 62.638 244.817 63.1218Z" fill="url(#paint0_linear_2288_185024)"></path><path d="M244.803 59.5983C246.489 60.5718 246.498 62.1476 244.823 63.1212L218.554 78.3862C216.879 79.3598 214.158 79.3598 212.472 78.3862L186.032 63.1212C184.346 62.1476 184.337 60.5711 186.012 59.5975L212.281 44.3325C213.956 43.3589 216.677 43.3589 218.363 44.3325L244.803 59.5983Z" fill="#A4D4ED"></path><path d="M244.823 63.1183L218.552 78.3848C216.882 79.3627 214.157 79.3627 212.473 78.3848L186.035 63.1183C184.344 62.1469 184.337 60.5747 186.014 59.5968L187.412 58.7865L212.278 44.3303C213.955 43.3597 216.68 43.3597 218.364 44.3303L243.426 58.8002L244.802 59.5968C246.485 60.5754 246.499 62.1469 244.823 63.1183Z" fill="#A4D4ED"></path><path opacity="0.4" d="M243.425 58.8002L218.551 73.2565C216.882 74.2271 214.157 74.2271 212.473 73.2565L187.41 58.7865L212.277 44.3303C213.954 43.3597 216.679 43.3597 218.362 44.3303L243.425 58.8002Z" fill="#3060A8"></path><path d="M244.803 50.7297C246.489 51.7032 246.498 53.2797 244.823 54.2533L218.554 69.5184C216.879 70.4919 214.158 70.4919 212.472 69.5184L186.032 54.2533C184.346 53.2797 184.337 51.7032 186.012 50.7297L212.281 35.4646C213.956 34.4911 216.677 34.4911 218.363 35.4646L244.803 50.7297Z" fill="url(#paint1_linear_2288_185024)"></path><path d="M225.064 51.9133C225.617 52.2325 225.62 52.7504 225.07 53.0696L216.45 58.0795C215.9 58.3987 215.007 58.3987 214.453 58.0795L205.776 53.0696C205.223 52.7504 205.22 52.2325 205.77 51.9133L214.391 46.9035C214.94 46.5842 215.833 46.5842 216.387 46.9035L225.064 51.9133Z" fill="url(#paint2_linear_2288_185024)"></path><path opacity="0.2" d="M142.038 48.8036C154.537 48.8036 164.669 42.9537 164.669 35.7376C164.669 28.5214 154.537 22.6716 142.038 22.6716C129.539 22.6716 119.406 28.5214 119.406 35.7376C119.406 42.9537 129.539 48.8036 142.038 48.8036Z" fill="#B5E9FE"></path><path opacity="0.37" d="M83.9786 129.948L17.332 168.426V123.87L83.9786 85.3908V129.948Z" fill="url(#paint3_linear_2288_185024)"></path><path d="M125.092 252.061C128.098 253.796 128.11 256.611 125.124 258.346L78.2913 285.562C75.305 287.298 70.4461 287.3 67.4403 285.564L20.2981 258.347C17.2923 256.612 17.28 253.797 20.2663 252.062L67.0987 224.846C70.085 223.11 74.9439 223.108 77.9497 224.844L125.092 252.061Z" fill="#3F69C4"></path><path d="M119.547 244.083L77.6915 268.407C75.0222 269.959 70.6796 269.96 67.9938 268.409L25.8608 244.084C24.5096 243.304 23.8357 242.28 23.8386 241.257L23.8047 253.236C23.8018 254.259 24.4763 255.283 25.8276 256.063L67.9606 280.389C70.6471 281.94 74.9897 281.938 77.6583 280.386L119.514 256.062C120.841 255.291 121.506 254.282 121.508 253.271L121.542 241.292C121.539 242.303 120.874 243.312 119.547 244.083Z" fill="url(#paint4_linear_2288_185024)"></path><path d="M119.521 238.466C122.208 240.018 122.219 242.532 119.549 244.084L77.6931 268.408C75.0238 269.959 70.682 269.961 67.9954 268.41L25.8624 244.084C23.1758 242.533 23.165 240.018 25.8342 238.467L67.6906 214.143C70.3599 212.592 74.7017 212.59 77.3883 214.141L119.521 238.466Z" fill="#A4D4ED"></path><path d="M116.745 240.054C117.893 240.717 117.899 241.796 116.755 242.461L74.899 266.785C73.7558 267.45 71.8918 267.45 70.7435 266.787L28.6105 242.462C27.4629 241.799 27.4564 240.719 28.6004 240.055L70.4568 215.73C71.6 215.066 73.464 215.066 74.6116 215.728L116.745 240.054Z" fill="url(#paint5_linear_2288_185024)"></path><path d="M62.2929 240.861C62.6706 241.079 62.6728 241.435 62.2965 241.653L48.5235 249.658C48.1472 249.876 47.5341 249.876 47.1564 249.658L33.2924 241.654C32.9147 241.436 32.9125 241.081 33.2888 240.862L47.0618 232.858C47.438 232.639 48.0512 232.639 48.4289 232.857L62.2929 240.861Z" fill="url(#paint6_linear_2288_185024)"></path><path d="M55.4023 248.773C55.8334 249.022 55.8356 249.424 55.4095 249.671C54.9813 249.92 54.2872 249.92 53.8561 249.671C53.4249 249.422 53.4227 249.021 53.851 248.771C54.2764 248.524 54.9711 248.524 55.4023 248.773Z" fill="#FF5A72"></path><path d="M52.7052 250.339C53.1364 250.588 53.1364 250.991 52.7103 251.238C52.282 251.488 51.588 251.488 51.1568 251.238C50.7257 250.989 50.7235 250.588 51.1518 250.339C51.5779 250.09 52.2741 250.089 52.7052 250.339Z" fill="#FF5A72"></path><path d="M58.0911 247.206C58.5223 247.456 58.5245 247.857 58.0962 248.106C57.6701 248.354 56.9739 248.355 56.5427 248.106C56.1116 247.857 56.1116 247.454 56.5377 247.206C56.966 246.958 57.66 246.957 58.0911 247.206Z" fill="#FF5A72"></path><path d="M60.7912 245.64C61.2223 245.889 61.2245 246.291 60.7962 246.54C60.368 246.789 59.6739 246.789 59.2428 246.54C58.8116 246.291 58.8095 245.889 59.2377 245.64C59.666 245.392 60.36 245.391 60.7912 245.64Z" fill="#FF5A72"></path><path d="M63.4865 244.074C63.9176 244.323 63.9198 244.725 63.4915 244.973C63.0633 245.223 62.3692 245.223 61.9381 244.973C61.5069 244.724 61.5048 244.323 61.933 244.074C62.3613 243.824 63.0553 243.824 63.4865 244.074Z" fill="#FF5A72"></path><path d="M64.9755 273.083C65.567 273.424 66.0437 274.25 66.0415 274.929C66.0393 275.608 65.5598 275.886 64.9683 275.545C64.3776 275.204 63.9002 274.374 63.9024 273.695C63.9045 273.016 64.3848 272.742 64.9755 273.083Z" fill="#FFB06D"></path><path d="M61.1513 270.874C61.7428 271.216 62.2195 272.041 62.2173 272.721C62.2151 273.4 61.7356 273.677 61.1441 273.336C60.5526 272.995 60.076 272.166 60.0781 271.486C60.0803 270.807 60.5606 270.533 61.1513 270.874Z" fill="#FFB06D"></path><path d="M57.3271 268.667C57.9179 269.007 58.3981 269.836 58.3959 270.515C58.3938 271.194 57.9106 271.469 57.3199 271.128C56.7284 270.786 56.2517 269.956 56.2539 269.278C56.2561 268.599 56.7363 268.325 57.3271 268.667Z" fill="#FFB06D"></path><path d="M32.0682 250.703L32.0617 252.948L27.8867 250.537L27.8932 248.293L32.0682 250.703Z" fill="url(#paint7_linear_2288_185024)"></path><path d="M37.1847 253.657L37.1782 255.902L33.0039 253.492L33.0097 251.247L37.1847 253.657Z" fill="url(#paint8_linear_2288_185024)"></path><path d="M91.0063 91.7108L10.305 138.304C8.42372 139.39 6.89844 138.238 6.89844 135.729V70.7699C6.89844 68.261 8.42372 65.3477 10.305 64.2608L91.0063 17.6682C92.8876 16.582 94.4129 17.7346 94.4129 20.2435V85.2023C94.4129 87.7105 92.8876 90.6246 91.0063 91.7108Z" fill="url(#paint9_linear_2288_185024)"></path><path d="M80.0352 53.079C73.9081 55.1618 69.0036 50.9788 62.7826 55.3228C56.056 60.02 51.902 72.0157 45.1451 76.2615C38.1434 80.6611 33.9864 73.6147 27.5776 74.0379C23.4683 74.3094 18.5444 78.2981 14.9883 83.456V121.813L86.3255 80.6265V49.2282C84.2398 50.9658 82.1295 52.3676 80.0352 53.079Z" fill="url(#paint10_linear_2288_185024)"></path><path d="M58.3382 89.0776C52.2573 93.0042 46.3273 94.0074 40.6162 94.8588C34.905 95.7096 29.0379 96.5517 22.9476 100.219C20.2314 101.854 17.4452 104.205 14.9883 107V121.813L86.3255 80.6265V62.7059C82.0689 65.8951 77.9625 70.2232 73.9817 74.5116C68.9502 79.9339 63.8125 85.5432 58.3382 89.0776Z" fill="url(#paint11_linear_2288_185024)"></path><path d="M86.3255 85.7216L14.9883 126.909V125.247L86.3255 84.0605V85.7216Z" fill="#3060A8"></path><path d="M21.3203 121.592V67.4283" stroke="#3060A8" stroke-width="0.8564" stroke-miterlimit="10"></path><path d="M32.832 114.946V60.7827" stroke="#3060A8" stroke-width="0.8564" stroke-miterlimit="10"></path><path d="M44.3477 108.3V54.1363" stroke="#3060A8" stroke-width="0.8564" stroke-miterlimit="10"></path><path d="M55.8516 101.654V47.4907" stroke="#3060A8" stroke-width="0.8564" stroke-miterlimit="10"></path><path d="M67.3633 95.0084V40.845" stroke="#3060A8" stroke-width="0.8564" stroke-miterlimit="10"></path><path d="M78.8789 88.3627V34.1986" stroke="#3060A8" stroke-width="0.8564" stroke-miterlimit="10"></path><path d="M54.125 64.1489C54.125 63.0475 54.8978 61.7085 55.8518 61.1582C56.8051 60.6079 57.5786 61.0542 57.5786 62.1549C57.5786 63.2562 56.8058 64.5952 55.8518 65.1455C54.8985 65.6958 54.125 65.2495 54.125 64.1489Z" fill="#3060A8"></path><path d="M65.6406 82.4624C65.6406 81.361 66.4134 80.022 67.3674 79.4717C68.3207 78.9214 69.0942 79.3677 69.0942 80.4684C69.0942 81.5697 68.3214 82.9087 67.3674 83.459C66.4141 84.01 65.6406 83.5637 65.6406 82.4624Z" fill="#3060A8"></path><path d="M19.5938 78.1869C19.5938 77.0856 20.3665 75.7466 21.3205 75.1963C22.2738 74.646 23.0473 75.0923 23.0473 76.1929C23.0473 77.2943 22.2745 78.6332 21.3205 79.1836C20.3665 79.7339 19.5938 79.2883 19.5938 78.1869Z" fill="#3060A8"></path><path d="M77.1484 54.844C77.1484 53.7427 77.9212 52.4037 78.8752 51.8534C79.8285 51.3031 80.602 51.7494 80.602 52.8501C80.602 53.9514 79.8292 55.2904 78.8752 55.8407C77.9212 56.3917 77.1484 55.9454 77.1484 54.844Z" fill="#3060A8"></path><path d="M31.1055 97.4573C31.1055 96.3559 31.8782 95.017 32.8322 94.4667C33.7855 93.9164 34.559 94.3627 34.559 95.4633C34.559 96.5647 33.7863 97.9036 32.8322 98.4539C31.8782 99.005 31.1055 98.5587 31.1055 97.4573Z" fill="#3060A8"></path><path opacity="0.2" d="M142.036 97.9419C153.842 97.9419 163.413 92.4164 163.413 85.6003C163.413 78.7842 153.842 73.2587 142.036 73.2587C130.231 73.2587 120.66 78.7842 120.66 85.6003C120.66 92.4164 130.231 97.9419 142.036 97.9419Z" fill="#FF5A72"></path><path opacity="0.2" d="M132.257 69.9705C137.735 66.808 146.616 66.808 152.093 69.9705C157.571 73.133 157.571 78.2606 152.093 81.4231C146.616 84.5856 137.735 84.5856 132.257 81.4231C126.779 78.2606 126.779 73.133 132.257 69.9705Z" fill="#B5E9FE"></path><path d="M249.108 173.752C255.238 177.29 255.274 183.033 249.18 186.575L153.634 242.101C147.54 245.642 137.625 245.64 131.496 242.101L35.3246 186.576C29.191 183.034 29.1585 177.294 35.2524 173.753L130.799 118.228C136.893 114.686 146.803 114.686 152.937 118.228L249.108 173.752Z" fill="#3060A8"></path><path d="M246.099 178.545L153.305 232.471C147.387 235.911 137.758 235.908 131.805 232.471L38.4034 178.546C35.4056 176.815 33.9084 174.543 33.9149 172.276L33.9063 175.227C33.8998 177.495 35.3969 179.766 38.3947 181.497L131.797 235.423C137.75 238.86 147.379 238.862 153.296 235.423L246.091 181.497C249.031 179.789 250.501 177.553 250.508 175.314L250.516 172.362C250.51 174.6 249.04 176.836 246.099 178.545Z" fill="url(#paint12_linear_2288_185024)"></path><path d="M246.029 166.091C251.982 169.528 252.017 175.105 246.099 178.544L153.304 232.471C147.386 235.91 137.757 235.908 131.804 232.471L38.4026 178.545C32.4452 175.106 32.4141 169.53 38.3325 166.091L131.127 112.165C137.045 108.726 146.67 108.725 152.628 112.165L246.029 166.091Z" fill="url(#paint13_linear_2288_185024)"></path><path d="M145.83 215.696L132.083 223.634L129.09 221.906L142.838 213.969L145.83 215.696Z" fill="#B5E9FE"></path><path d="M159.509 213.094L136.669 226.281L133.676 224.553L156.516 211.367L159.509 213.094Z" fill="#B5E9FE"></path><path d="M174.052 209.992L141.251 228.929L138.258 227.201L171.059 208.263L174.052 209.992Z" fill="#B5E9FE"></path><path d="M24.6463 226.087L5.86844 215.173L5.83594 203.896L24.6138 214.808L24.6463 226.087Z" fill="url(#paint14_linear_2288_185024)"></path><path d="M24.6138 214.808L5.83594 203.896L15.6513 198.228L34.4292 209.141L24.6138 214.808Z" fill="url(#paint15_linear_2288_185024)"></path><path d="M34.4307 209.141L15.6529 198.228L15.6211 186.951L34.399 197.863L34.4307 209.141Z" fill="url(#paint16_linear_2288_185024)"></path><path d="M34.399 197.863L15.6211 186.951L25.4358 181.284L44.2136 192.196L34.399 197.863Z" fill="url(#paint17_linear_2288_185024)"></path><path d="M44.2159 192.196L25.438 181.284L25.4062 170.005L44.1841 180.917L44.2159 192.196Z" fill="url(#paint18_linear_2288_185024)"></path><path d="M44.1841 180.917L25.4062 170.005L35.2216 164.339L53.9995 175.251L44.1841 180.917Z" fill="url(#paint19_linear_2288_185024)"></path><path d="M53.9952 175.251L54.0269 186.53L54.0587 197.807L54.0912 209.086L44.2758 214.752L34.4604 220.419L24.6458 226.087L24.6133 214.808L34.4287 209.141L34.3969 197.863L44.2116 192.196L44.1798 180.917L53.9952 175.251Z" fill="url(#paint20_linear_2288_185024)"></path><path d="M101.232 76.4695C101.68 76.211 102.044 76.4175 102.045 76.9317C102.046 77.4452 101.685 78.0706 101.238 78.3292C100.791 78.587 100.427 78.3797 100.426 77.8662C100.424 77.352 100.785 76.7273 101.232 76.4695Z" fill="#3060A8"></path><path d="M101.232 72.2273C101.68 71.9688 102.044 72.1753 102.045 72.6896C102.046 73.203 101.685 73.8285 101.238 74.087C100.791 74.3448 100.427 74.1376 100.426 73.6241C100.424 73.1099 100.785 72.4859 101.232 72.2273Z" fill="#3060A8"></path><path d="M101.232 67.9859C101.68 67.7273 102.044 67.9331 102.045 68.4481C102.046 68.9615 101.685 69.587 101.238 69.8455C100.791 70.1033 100.427 69.8961 100.426 69.3826C100.424 68.8684 100.785 68.2437 101.232 67.9859Z" fill="#3060A8"></path><path d="M101.232 63.7437C101.68 63.4851 102.044 63.6917 102.045 64.2059C102.046 64.7194 101.685 65.3448 101.238 65.6033C100.791 65.8612 100.427 65.6539 100.426 65.1404C100.424 64.6262 100.785 64.0015 101.232 63.7437Z" fill="#3060A8"></path><path d="M101.232 59.5015C101.68 59.2429 102.044 59.4495 102.045 59.9637C102.046 60.4772 101.685 61.1026 101.238 61.3611C100.791 61.619 100.427 61.4117 100.426 60.8982C100.424 60.384 100.785 59.7593 101.232 59.5015Z" fill="#3060A8"></path><path d="M101.232 55.2593C101.68 55.0008 102.044 55.2066 102.045 55.7215C102.046 56.235 101.685 56.8604 101.238 57.119C100.791 57.3768 100.427 57.1695 100.426 56.656C100.424 56.1418 100.785 55.5171 101.232 55.2593Z" fill="#3060A8"></path><path d="M101.232 51.0171C101.68 50.7585 102.044 50.9643 102.045 51.4793C102.046 51.9927 101.685 52.6182 101.238 52.8767C100.791 53.1345 100.427 52.9273 100.426 52.4138C100.424 51.8996 100.785 51.2749 101.232 51.0171Z" fill="#3060A8"></path><path d="M101.232 46.7749C101.68 46.5164 102.044 46.7222 102.045 47.2371C102.046 47.7506 101.685 48.376 101.238 48.6346C100.791 48.8924 100.427 48.6851 100.426 48.1716C100.424 47.6574 100.785 47.0327 101.232 46.7749Z" fill="#3060A8"></path><path d="M101.232 42.5327C101.68 42.2742 102.044 42.48 102.045 42.9949C102.046 43.5084 101.685 44.1338 101.238 44.3924C100.791 44.6502 100.427 44.4429 100.426 43.9294C100.424 43.4152 100.785 42.7905 101.232 42.5327Z" fill="#3060A8"></path><path d="M101.232 38.2905C101.68 38.032 102.044 38.2385 102.045 38.7527C102.046 39.2662 101.685 39.8916 101.238 40.1502C100.791 40.408 100.427 40.2007 100.426 39.6873C100.424 39.1731 100.785 38.5484 101.232 38.2905Z" fill="#3060A8"></path><path d="M101.232 34.0483C101.68 33.7898 102.044 33.9956 102.045 34.5105C102.046 35.024 101.685 35.6494 101.238 35.908C100.791 36.1658 100.427 35.9585 100.426 35.4451C100.424 34.9308 100.785 34.3061 101.232 34.0483Z" fill="#3060A8"></path><path d="M101.232 29.8069C101.68 29.5483 102.044 29.7542 102.045 30.2691C102.046 30.7826 101.685 31.408 101.238 31.6665C100.791 31.9244 100.427 31.7171 100.426 31.2036C100.424 30.6894 100.785 30.064 101.232 29.8069Z" fill="#3060A8"></path><path d="M101.232 25.5647C101.68 25.3062 102.044 25.512 102.045 26.0269C102.046 26.5404 101.685 27.1658 101.238 27.4244C100.791 27.6822 100.427 27.4749 100.426 26.9614C100.424 26.4472 100.785 25.8225 101.232 25.5647Z" fill="#3060A8"></path><path d="M101.232 21.3225C101.68 21.064 102.044 21.2705 102.045 21.7847C102.046 22.2982 101.685 22.9236 101.238 23.1822C100.791 23.44 100.427 23.2327 100.426 22.7192C100.424 22.205 100.785 21.5803 101.232 21.3225Z" fill="#3060A8"></path><path d="M101.232 17.0803C101.68 16.8218 102.044 17.0276 102.045 17.5425C102.046 18.056 101.685 18.6814 101.238 18.94C100.791 19.1978 100.427 18.9905 100.426 18.477C100.424 17.9628 100.785 17.3381 101.232 17.0803Z" fill="#3060A8"></path><path d="M101.232 12.8381C101.68 12.5796 102.044 12.7854 102.045 13.3003C102.046 13.8138 101.685 14.4392 101.238 14.6978C100.791 14.9556 100.427 14.7483 100.426 14.2348C100.424 13.7206 100.785 13.0959 101.232 12.8381Z" fill="#3060A8"></path><path d="M108.837 90.2765C109.285 90.018 109.648 90.2238 109.65 90.7387C109.652 91.2522 109.291 91.8776 108.843 92.1362C108.397 92.394 108.033 92.1867 108.031 91.6732C108.03 91.159 108.391 90.5343 108.837 90.2765Z" fill="#426DC9"></path><path d="M108.837 86.0343C109.285 85.7758 109.648 85.9816 109.65 86.4965C109.652 87.01 109.291 87.6354 108.843 87.894C108.397 88.1518 108.033 87.9445 108.031 87.4311C108.03 86.9169 108.391 86.2922 108.837 86.0343Z" fill="#426DC9"></path><path d="M108.837 81.7921C109.285 81.5336 109.648 81.7401 109.65 82.2543C109.652 82.7678 109.291 83.3933 108.843 83.6518C108.397 83.9096 108.033 83.7023 108.031 83.1889C108.03 82.6747 108.391 82.05 108.837 81.7921Z" fill="#426DC9"></path><path d="M108.837 77.5499C109.285 77.2914 109.648 77.4979 109.65 78.0122C109.652 78.5256 109.291 79.1511 108.843 79.4096C108.397 79.6674 108.033 79.4602 108.031 78.9467C108.03 78.4325 108.391 77.8078 108.837 77.5499Z" fill="#426DC9"></path><path d="M108.837 73.3078C109.285 73.0492 109.648 73.2558 109.65 73.77C109.652 74.2835 109.291 74.9089 108.843 75.1674C108.397 75.4253 108.033 75.218 108.031 74.7045C108.03 74.1903 108.391 73.5656 108.837 73.3078Z" fill="#426DC9"></path><path d="M108.837 69.0656C109.285 68.8071 109.648 69.0136 109.65 69.5278C109.652 70.0413 109.291 70.6667 108.843 70.9253C108.397 71.1831 108.033 70.9758 108.031 70.4623C108.03 69.9481 108.391 69.3234 108.837 69.0656Z" fill="#426DC9"></path><path d="M108.837 64.8234C109.285 64.5648 109.648 64.7706 109.65 65.2856C109.652 65.7991 109.291 66.4245 108.843 66.683C108.397 66.9408 108.033 66.7336 108.031 66.2201C108.03 65.7059 108.391 65.0812 108.837 64.8234Z" fill="#426DC9"></path><path d="M108.837 60.5812C109.285 60.3227 109.648 60.5285 109.65 61.0434C109.652 61.5569 109.291 62.1823 108.843 62.4409C108.397 62.6987 108.033 62.4914 108.031 61.978C108.03 61.4638 108.391 60.839 108.837 60.5812Z" fill="#426DC9"></path><path d="M108.837 56.3397C109.285 56.0812 109.648 56.287 109.65 56.802C109.652 57.3154 109.291 57.9409 108.843 58.1994C108.397 58.4572 108.033 58.25 108.031 57.7365C108.03 57.2223 108.391 56.5976 108.837 56.3397Z" fill="#426DC9"></path><path d="M108.837 52.0976C109.285 51.839 109.648 52.0448 109.65 52.5598C109.652 53.0733 109.291 53.6987 108.843 53.9572C108.397 54.215 108.033 54.0078 108.031 53.4943C108.03 52.9801 108.391 52.3554 108.837 52.0976Z" fill="#426DC9"></path><path d="M108.837 47.8554C109.285 47.5968 109.648 47.8034 109.65 48.3176C109.652 48.8311 109.291 49.4565 108.843 49.715C108.397 49.9728 108.033 49.7656 108.031 49.2521C108.03 48.7379 108.391 48.1132 108.837 47.8554Z" fill="#426DC9"></path><path d="M108.837 43.6132C109.285 43.3546 109.648 43.5612 109.65 44.0754C109.652 44.5889 109.291 45.2143 108.843 45.4729C108.397 45.7307 108.033 45.5234 108.031 45.0099C108.03 44.4957 108.391 43.871 108.837 43.6132Z" fill="#426DC9"></path><path d="M108.837 39.371C109.285 39.1125 109.648 39.3183 109.65 39.8332C109.652 40.3467 109.291 40.9721 108.843 41.2307C108.397 41.4885 108.033 41.2812 108.031 40.7677C108.03 40.2535 108.391 39.6288 108.837 39.371Z" fill="#426DC9"></path><path d="M108.837 35.1288C109.285 34.8702 109.648 35.076 109.65 35.591C109.652 36.1045 109.291 36.7299 108.843 36.9884C108.397 37.2462 108.033 37.039 108.031 36.5255C108.03 36.0113 108.391 35.3866 108.837 35.1288Z" fill="#426DC9"></path><path d="M108.837 30.8866C109.285 30.6281 109.648 30.8339 109.65 31.3488C109.652 31.8623 109.291 32.4877 108.843 32.7463C108.397 33.0041 108.033 32.7968 108.031 32.2834C108.03 31.7691 108.391 31.1445 108.837 30.8866Z" fill="#426DC9"></path><path d="M108.837 26.6444C109.285 26.3859 109.648 26.5917 109.65 27.1066C109.652 27.6201 109.291 28.2455 108.843 28.5041C108.397 28.7619 108.033 28.5546 108.031 28.0412C108.03 27.5269 108.391 26.9022 108.837 26.6444Z" fill="#426DC9"></path><path d="M172.346 63.7437C172.794 63.4851 173.157 63.6917 173.158 64.2059C173.16 64.7194 172.799 65.3448 172.351 65.6033C171.904 65.8612 171.541 65.6539 171.539 65.1404C171.538 64.6262 171.899 64.0015 172.346 63.7437Z" fill="#3060A8"></path><path d="M172.346 59.5015C172.794 59.2429 173.157 59.4495 173.158 59.9637C173.16 60.4772 172.799 61.1026 172.351 61.3611C171.904 61.619 171.541 61.4117 171.539 60.8982C171.538 60.384 171.899 59.7593 172.346 59.5015Z" fill="#3060A8"></path><path d="M172.346 55.2593C172.794 55.0008 173.157 55.2066 173.158 55.7215C173.16 56.235 172.799 56.8604 172.351 57.119C171.904 57.3768 171.541 57.1695 171.539 56.656C171.538 56.1418 171.899 55.5171 172.346 55.2593Z" fill="#3060A8"></path><path d="M172.346 51.0171C172.794 50.7586 173.157 50.9644 173.158 51.4793C173.16 51.9928 172.799 52.6182 172.351 52.8768C171.904 53.1346 171.541 52.9273 171.539 52.4138C171.538 51.8996 171.899 51.2749 172.346 51.0171Z" fill="#3060A8"></path><path d="M172.346 46.7749C172.794 46.5164 173.157 46.7222 173.158 47.2371C173.16 47.7506 172.799 48.376 172.351 48.6346C171.904 48.8924 171.541 48.6851 171.539 48.1717C171.538 47.6575 171.899 47.0328 172.346 46.7749Z" fill="#3060A8"></path><path d="M172.346 42.5327C172.794 42.2742 173.157 42.48 173.158 42.9949C173.16 43.5084 172.799 44.1339 172.351 44.3924C171.904 44.6502 171.541 44.443 171.539 43.9295C171.538 43.4153 171.899 42.7906 172.346 42.5327Z" fill="#3060A8"></path><path d="M172.346 38.2905C172.794 38.032 173.157 38.2385 173.158 38.7528C173.16 39.2662 172.799 39.8917 172.351 40.1502C171.904 40.408 171.541 40.2008 171.539 39.6873C171.538 39.1731 171.899 38.5484 172.346 38.2905Z" fill="#3060A8"></path><path d="M172.346 34.0484C172.794 33.7898 173.157 33.9956 173.158 34.5106C173.16 35.0241 172.799 35.6495 172.351 35.908C171.904 36.1659 171.541 35.9586 171.539 35.4451C171.538 34.9309 171.899 34.3062 172.346 34.0484Z" fill="#3060A8"></path><path d="M172.346 29.8069C172.794 29.5483 173.157 29.7542 173.158 30.2691C173.16 30.7826 172.799 31.408 172.351 31.6665C171.904 31.9244 171.541 31.7171 171.539 31.2036C171.538 30.6894 171.899 30.064 172.346 29.8069Z" fill="#3060A8"></path><path d="M172.346 25.5647C172.794 25.3061 173.157 25.512 173.158 26.0269C173.16 26.5404 172.799 27.1658 172.351 27.4243C171.904 27.6822 171.541 27.4749 171.539 26.9614C171.538 26.4472 171.899 25.8225 172.346 25.5647Z" fill="#3060A8"></path><path d="M172.346 21.3225C172.794 21.064 173.157 21.2705 173.158 21.7847C173.16 22.2982 172.799 22.9236 172.351 23.1822C171.904 23.44 171.541 23.2327 171.539 22.7192C171.538 22.205 171.899 21.5803 172.346 21.3225Z" fill="#3060A8"></path><path d="M172.346 17.0803C172.794 16.8218 173.157 17.0276 173.158 17.5425C173.16 18.056 172.799 18.6814 172.351 18.94C171.904 19.1978 171.541 18.9905 171.539 18.4771C171.538 17.9629 171.899 17.3382 172.346 17.0803Z" fill="#3060A8"></path><path d="M172.346 12.8382C172.794 12.5796 173.157 12.7854 173.158 13.3004C173.16 13.8139 172.799 14.4393 172.351 14.6978C171.904 14.9556 171.541 14.7484 171.539 14.2349C171.538 13.7207 171.899 13.096 172.346 12.8382Z" fill="#3060A8"></path><path d="M172.346 8.59595C172.794 8.3374 173.157 8.54395 173.158 9.05816C173.16 9.57164 172.799 10.1971 172.351 10.4556C171.904 10.7134 171.541 10.5062 171.539 9.99268C171.538 9.47848 171.899 8.85378 172.346 8.59595Z" fill="#3060A8"></path><path d="M172.346 4.35378C172.794 4.09523 173.157 4.30106 173.158 4.81599C173.16 5.32947 172.799 5.95489 172.351 6.21344C171.904 6.47126 171.541 6.26399 171.539 5.75051C171.538 5.23631 171.899 4.6116 172.346 4.35378Z" fill="#3060A8"></path><path d="M172.346 0.111571C172.794 -0.146976 173.157 0.0588497 173.158 0.573777C173.16 1.08726 172.799 1.71268 172.351 1.97123C171.904 2.22905 171.541 2.02178 171.539 1.5083C171.538 0.994096 171.899 0.369395 172.346 0.111571Z" fill="#3060A8"></path><path d="M273.381 211.516C273.829 211.258 274.192 211.464 274.193 211.978C274.195 212.492 273.834 213.117 273.386 213.376C272.94 213.634 272.576 213.426 272.574 212.913C272.573 212.399 272.934 211.774 273.381 211.516Z" fill="#3A67C6"></path><path d="M273.381 207.274C273.829 207.015 274.192 207.222 274.193 207.736C274.195 208.25 273.834 208.875 273.386 209.134C272.94 209.391 272.576 209.184 272.574 208.671C272.573 208.157 272.934 207.532 273.381 207.274Z" fill="#3A67C6"></path><path d="M273.381 203.032C273.829 202.773 274.192 202.98 274.193 203.494C274.195 204.007 273.834 204.633 273.386 204.891C272.94 205.149 272.576 204.942 272.574 204.428C272.573 203.915 272.934 203.29 273.381 203.032Z" fill="#3A67C6"></path><path d="M273.381 198.79C273.829 198.532 274.192 198.738 274.193 199.253C274.195 199.766 273.834 200.391 273.386 200.65C272.94 200.908 272.576 200.701 272.574 200.187C272.573 199.673 272.934 199.048 273.381 198.79Z" fill="#3A67C6"></path><path d="M273.381 194.548C273.829 194.29 274.192 194.496 274.193 195.01C274.195 195.524 273.834 196.149 273.386 196.408C272.94 196.666 272.576 196.458 272.574 195.945C272.573 195.431 272.934 194.806 273.381 194.548Z" fill="#3A67C6"></path><path d="M273.381 190.306C273.829 190.047 274.192 190.253 274.193 190.768C274.195 191.282 273.834 191.907 273.386 192.166C272.94 192.423 272.576 192.216 272.574 191.703C272.573 191.188 272.934 190.564 273.381 190.306Z" fill="#3A67C6"></path><path d="M273.381 186.064C273.829 185.805 274.192 186.011 274.193 186.526C274.195 187.039 273.834 187.665 273.386 187.923C272.94 188.181 272.576 187.974 272.574 187.46C272.573 186.946 272.934 186.322 273.381 186.064Z" fill="#3A67C6"></path><path d="M273.381 181.822C273.829 181.563 274.192 181.769 274.193 182.284C274.195 182.797 273.834 183.423 273.386 183.681C272.94 183.939 272.576 183.732 272.574 183.218C272.573 182.704 272.934 182.079 273.381 181.822Z" fill="#3A67C6"></path><path d="M273.381 177.579C273.829 177.321 274.192 177.527 274.193 178.042C274.195 178.555 273.834 179.18 273.386 179.439C272.94 179.697 272.576 179.49 272.574 178.976C272.573 178.462 272.934 177.837 273.381 177.579Z" fill="#3A67C6"></path><path d="M273.381 173.337C273.829 173.079 274.192 173.284 274.193 173.799C274.195 174.313 273.834 174.938 273.386 175.197C272.94 175.455 272.576 175.247 272.574 174.734C272.573 174.22 272.934 173.595 273.381 173.337Z" fill="#3A67C6"></path><path d="M273.381 169.095C273.829 168.836 274.192 169.042 274.193 169.557C274.195 170.071 273.834 170.696 273.386 170.955C272.94 171.212 272.576 171.005 272.574 170.492C272.573 169.977 272.934 169.353 273.381 169.095Z" fill="#3A67C6"></path><path d="M273.381 164.853C273.829 164.594 274.192 164.8 274.193 165.315C274.195 165.828 273.834 166.454 273.386 166.712C272.94 166.97 272.576 166.763 272.574 166.25C272.573 165.735 272.934 165.111 273.381 164.853Z" fill="#3A67C6"></path><path d="M273.381 160.611C273.829 160.353 274.192 160.559 274.193 161.074C274.195 161.587 273.834 162.212 273.386 162.471C272.94 162.729 272.576 162.522 272.574 162.008C272.573 161.494 272.934 160.868 273.381 160.611Z" fill="#3A67C6"></path><path d="M273.381 156.369C273.829 156.111 274.192 156.316 274.193 156.831C274.195 157.345 273.834 157.97 273.386 158.229C272.94 158.487 272.576 158.279 272.574 157.766C272.573 157.252 272.934 156.627 273.381 156.369Z" fill="#3A67C6"></path><path d="M273.381 152.127C273.829 151.868 274.192 152.074 274.193 152.589C274.195 153.103 273.834 153.728 273.386 153.987C272.94 154.244 272.576 154.037 272.574 153.524C272.573 153.009 272.934 152.385 273.381 152.127Z" fill="#3A67C6"></path><path d="M273.381 147.885C273.829 147.626 274.192 147.833 274.193 148.347C274.195 148.86 273.834 149.486 273.386 149.744C272.94 150.002 272.576 149.795 272.574 149.281C272.573 148.767 272.934 148.143 273.381 147.885Z" fill="#3A67C6"></path><path d="M268.065 197.71C268.512 197.451 268.876 197.657 268.877 198.172C268.878 198.686 268.517 199.311 268.07 199.57C267.623 199.827 267.259 199.62 267.258 199.107C267.256 198.592 267.618 197.968 268.065 197.71Z" fill="#3A67C6"></path><path d="M268.065 193.468C268.512 193.209 268.876 193.415 268.877 193.93C268.878 194.443 268.517 195.069 268.07 195.327C267.623 195.585 267.259 195.378 267.258 194.864C267.256 194.35 267.618 193.726 268.065 193.468Z" fill="#3A67C6"></path><path d="M268.065 189.226C268.512 188.967 268.876 189.173 268.877 189.688C268.878 190.201 268.517 190.827 268.07 191.085C267.623 191.343 267.259 191.136 267.258 190.622C267.256 190.108 267.618 189.483 268.065 189.226Z" fill="#3A67C6"></path><path d="M268.065 184.983C268.512 184.725 268.876 184.931 268.877 185.446C268.878 185.959 268.517 186.584 268.07 186.843C267.623 187.101 267.259 186.894 267.258 186.38C267.256 185.866 267.618 185.241 268.065 184.983Z" fill="#3A67C6"></path><path d="M268.065 180.741C268.512 180.483 268.876 180.688 268.877 181.203C268.878 181.717 268.517 182.342 268.07 182.601C267.623 182.859 267.259 182.651 267.258 182.138C267.256 181.624 267.618 180.999 268.065 180.741Z" fill="#3A67C6"></path><path d="M268.065 176.5C268.512 176.241 268.876 176.447 268.877 176.962C268.878 177.475 268.517 178.101 268.07 178.359C267.623 178.617 267.259 178.41 267.258 177.896C267.256 177.382 267.618 176.757 268.065 176.5Z" fill="#3A67C6"></path><path d="M268.065 172.258C268.512 171.999 268.876 172.205 268.877 172.72C268.878 173.233 268.517 173.859 268.07 174.117C267.623 174.375 267.259 174.168 267.258 173.654C267.256 173.14 267.618 172.515 268.065 172.258Z" fill="#3A67C6"></path><path d="M268.065 168.015C268.512 167.757 268.876 167.963 268.877 168.478C268.878 168.991 268.517 169.616 268.07 169.875C267.623 170.133 267.259 169.926 267.258 169.412C267.256 168.898 267.618 168.273 268.065 168.015Z" fill="#3A67C6"></path><path d="M268.065 163.773C268.512 163.515 268.876 163.72 268.877 164.235C268.878 164.749 268.517 165.374 268.07 165.633C267.623 165.891 267.259 165.683 267.258 165.17C267.256 164.656 267.618 164.031 268.065 163.773Z" fill="#3A67C6"></path><path d="M268.065 159.531C268.512 159.272 268.876 159.479 268.877 159.993C268.878 160.507 268.517 161.132 268.07 161.391C267.623 161.648 267.259 161.441 267.258 160.928C267.256 160.413 267.618 159.789 268.065 159.531Z" fill="#3A67C6"></path><path d="M268.065 155.289C268.512 155.03 268.876 155.237 268.877 155.751C268.878 156.264 268.517 156.89 268.07 157.148C267.623 157.406 267.259 157.199 267.258 156.685C267.256 156.171 267.618 155.547 268.065 155.289Z" fill="#3A67C6"></path><path d="M268.065 151.047C268.512 150.788 268.876 150.995 268.877 151.509C268.878 152.022 268.517 152.648 268.07 152.906C267.623 153.164 267.259 152.957 267.258 152.443C267.256 151.929 267.618 151.304 268.065 151.047Z" fill="#3A67C6"></path><path d="M268.065 146.804C268.512 146.546 268.876 146.752 268.877 147.267C268.878 147.78 268.517 148.405 268.07 148.664C267.623 148.922 267.259 148.715 267.258 148.201C267.256 147.687 267.618 147.062 268.065 146.804Z" fill="#3A67C6"></path><path d="M268.065 142.562C268.512 142.304 268.876 142.51 268.877 143.024C268.878 143.538 268.517 144.163 268.07 144.422C267.623 144.68 267.259 144.472 267.258 143.959C267.256 143.445 267.618 142.82 268.065 142.562Z" fill="#3A67C6"></path><path d="M268.065 138.32C268.512 138.061 268.876 138.268 268.877 138.782C268.878 139.296 268.517 139.921 268.07 140.18C267.623 140.437 267.259 140.23 267.258 139.717C267.256 139.203 267.618 138.578 268.065 138.32Z" fill="#3A67C6"></path><path d="M268.065 134.079C268.512 133.82 268.876 134.026 268.877 134.541C268.878 135.054 268.517 135.68 268.07 135.938C267.623 136.196 267.259 135.989 267.258 135.475C267.256 134.961 267.618 134.336 268.065 134.079Z" fill="#3A67C6"></path><path d="M0.8067 188.146C1.25446 187.887 1.61773 188.093 1.61917 188.608C1.62062 189.122 1.25952 189.747 0.811755 190.006C0.365437 190.263 0.00144871 190.056 4.31811e-06 189.543C-0.00144008 189.028 0.359659 188.404 0.8067 188.146Z" fill="#4D7CE1"></path><path d="M0.8067 183.904C1.25446 183.645 1.61773 183.851 1.61917 184.366C1.62062 184.879 1.25952 185.505 0.811755 185.763C0.365437 186.021 0.00144871 185.814 4.31811e-06 185.3C-0.00144008 184.786 0.359659 184.162 0.8067 183.904Z" fill="#4D7CE1"></path><path d="M0.8067 179.661C1.25446 179.403 1.61773 179.609 1.61917 180.124C1.62062 180.637 1.25952 181.263 0.811755 181.521C0.365437 181.779 0.00144871 181.572 4.31811e-06 181.058C-0.00144008 180.544 0.359659 179.919 0.8067 179.661Z" fill="#4D7CE1"></path><path d="M0.8067 175.419C1.25446 175.161 1.61773 175.367 1.61917 175.882C1.62062 176.395 1.25952 177.02 0.811755 177.279C0.365437 177.537 0.00144871 177.33 4.31811e-06 176.816C-0.00144008 176.302 0.359659 175.677 0.8067 175.419Z" fill="#4D7CE1"></path><path d="M0.8067 171.177C1.25446 170.919 1.61773 171.124 1.61917 171.639C1.62062 172.153 1.25952 172.778 0.811755 173.037C0.365437 173.295 0.00144871 173.087 4.31811e-06 172.574C-0.00144008 172.06 0.359659 171.435 0.8067 171.177Z" fill="#4D7CE1"></path><path d="M0.8067 166.935C1.25446 166.676 1.61773 166.882 1.61917 167.397C1.62062 167.911 1.25952 168.536 0.811755 168.795C0.365437 169.052 0.00144871 168.845 4.31811e-06 168.332C-0.00144008 167.817 0.359659 167.193 0.8067 166.935Z" fill="#4D7CE1"></path><path d="M0.8067 162.693C1.25446 162.434 1.61773 162.641 1.61917 163.155C1.62062 163.668 1.25952 164.294 0.811755 164.552C0.365437 164.81 0.00144871 164.603 4.31811e-06 164.089C-0.00144008 163.575 0.359659 162.951 0.8067 162.693Z" fill="#4D7CE1"></path><path d="M0.8067 158.451C1.25446 158.192 1.61773 158.399 1.61917 158.913C1.62062 159.426 1.25952 160.052 0.811755 160.31C0.365437 160.568 0.00144871 160.361 4.31811e-06 159.847C-0.00144008 159.333 0.359659 158.708 0.8067 158.451Z" fill="#4D7CE1"></path><path d="M0.8067 154.208C1.25446 153.95 1.61773 154.156 1.61917 154.671C1.62062 155.184 1.25952 155.809 0.811755 156.068C0.365437 156.326 0.00144871 156.119 4.31811e-06 155.605C-0.00144008 155.091 0.359659 154.466 0.8067 154.208Z" fill="#4D7CE1"></path><path d="M0.8067 149.967C1.25446 149.708 1.61773 149.914 1.61917 150.429C1.62062 150.943 1.25952 151.568 0.811755 151.827C0.365437 152.084 0.00144871 151.877 4.31811e-06 151.364C-0.00144008 150.849 0.359659 150.225 0.8067 149.967Z" fill="#4D7CE1"></path><path d="M0.8067 145.725C1.25446 145.466 1.61773 145.672 1.61917 146.187C1.62062 146.7 1.25952 147.326 0.811755 147.584C0.365437 147.842 0.00144871 147.635 4.31811e-06 147.121C-0.00144008 146.607 0.359659 145.983 0.8067 145.725Z" fill="#4D7CE1"></path><path d="M0.8067 141.482C1.25446 141.224 1.61773 141.43 1.61917 141.945C1.62062 142.458 1.25952 143.084 0.811755 143.342C0.365437 143.6 0.00144871 143.393 4.31811e-06 142.879C-0.00144008 142.365 0.359659 141.74 0.8067 141.482Z" fill="#4D7CE1"></path><path d="M0.8067 137.24C1.25446 136.982 1.61773 137.188 1.61917 137.703C1.62062 138.216 1.25952 138.841 0.811755 139.1C0.365437 139.358 0.00144871 139.151 4.31811e-06 138.637C-0.00144008 138.123 0.359659 137.498 0.8067 137.24Z" fill="#4D7CE1"></path><path d="M0.8067 132.998C1.25446 132.74 1.61773 132.946 1.61917 133.46C1.62062 133.974 1.25952 134.599 0.811755 134.858C0.365437 135.116 0.00144871 134.908 4.31811e-06 134.395C-0.00144008 133.881 0.359659 133.256 0.8067 132.998Z" fill="#4D7CE1"></path><path d="M0.8067 128.756C1.25446 128.497 1.61773 128.704 1.61917 129.218C1.62062 129.732 1.25952 130.357 0.811755 130.616C0.365437 130.873 0.00144871 130.666 4.31811e-06 130.153C-0.00144008 129.638 0.359659 129.014 0.8067 128.756Z" fill="#4D7CE1"></path><path d="M0.8067 124.514C1.25446 124.255 1.61773 124.462 1.61917 124.976C1.62062 125.489 1.25952 126.115 0.811755 126.373C0.365437 126.631 0.00144871 126.424 4.31811e-06 125.91C-0.00144008 125.396 0.359659 124.772 0.8067 124.514Z" fill="#4D7CE1"></path><path d="M85.918 272.258L118.654 291.158C122.166 293.186 127.859 293.186 131.371 291.158L219.383 240.344C222.895 238.317 222.895 235.029 219.383 233.002L187.766 214.747" stroke="#B5E9FE" stroke-width="1.6894" stroke-miterlimit="10" stroke-linecap="round" stroke-linejoin="round"></path><path d="M102.223 262.843L110.77 267.778C114.282 269.805 119.975 269.805 123.487 267.778L180.503 234.86C184.015 232.833 184.014 229.545 180.503 227.517L172.731 223.029" stroke="#B5E9FE" stroke-width="1.6894" stroke-miterlimit="10" stroke-linecap="round" stroke-linejoin="round"></path><path d="M185.07 260.155L204.102 271.144C207.614 273.171 213.308 273.171 216.82 271.144L277.146 236.314C280.657 234.287 280.657 231 277.146 228.972L219.019 195.412" stroke="#B5E9FE" stroke-width="1.6894" stroke-miterlimit="10" stroke-linecap="round" stroke-linejoin="round"></path><path opacity="0.2" d="M224.829 257.02C229.023 254.598 235.822 254.598 240.017 257.02C244.211 259.441 244.211 263.367 240.017 265.789C235.823 268.21 229.023 268.21 224.829 265.789C220.635 263.367 220.635 259.441 224.829 257.02Z" fill="#B5E9FE"></path><path d="M229.074 259.471C230.923 258.403 233.922 258.403 235.77 259.471C237.619 260.538 237.619 262.269 235.77 263.337C233.922 264.404 230.924 264.404 229.074 263.337C227.225 262.269 227.225 260.539 229.074 259.471Z" fill="url(#paint21_linear_2288_185024)"></path><path opacity="0.2" d="M247.438 244.456C251.632 242.035 258.432 242.035 262.626 244.456C266.82 246.878 266.82 250.804 262.626 253.225C258.432 255.646 251.633 255.646 247.439 253.225C243.244 250.804 243.244 246.878 247.438 244.456Z" fill="#B5E9FE"></path><path d="M251.683 246.907C253.532 245.84 256.531 245.84 258.38 246.907C260.229 247.975 260.229 249.706 258.38 250.773C256.531 251.841 253.533 251.841 251.683 250.773C249.835 249.706 249.835 247.976 251.683 246.907Z" fill="url(#paint22_linear_2288_185024)"></path><path opacity="0.2" d="M232.884 202.778C237.077 200.357 243.877 200.357 248.071 202.778C252.265 205.2 252.265 209.126 248.071 211.547C243.878 213.969 237.078 213.969 232.884 211.547C228.69 209.126 228.69 205.2 232.884 202.778Z" fill="#B5E9FE"></path><path d="M237.129 205.229C238.978 204.162 241.976 204.162 243.825 205.229C245.674 206.297 245.674 208.028 243.825 209.095C241.976 210.163 238.978 210.163 237.129 209.095C235.28 208.028 235.28 206.298 237.129 205.229Z" fill="url(#paint23_linear_2288_185024)"></path><path opacity="0.2" d="M138.223 250.656C142.417 248.235 149.217 248.235 153.411 250.656C157.605 253.078 157.605 257.004 153.411 259.425C149.217 261.846 142.418 261.846 138.223 259.425C134.03 257.004 134.03 253.078 138.223 250.656Z" fill="#B5E9FE"></path><path d="M142.469 253.108C144.317 252.041 147.316 252.041 149.165 253.108C151.014 254.176 151.014 255.907 149.165 256.974C147.316 258.042 144.317 258.042 142.469 256.974C140.62 255.907 140.62 254.176 142.469 253.108Z" fill="url(#paint24_linear_2288_185024)"></path><path d="M30.2578 138.895C30.7612 138.033 31.4321 137.025 31.9889 136.674" stroke="#FAB08B" stroke-width="3.0326" stroke-miterlimit="10" stroke-linecap="round" stroke-linejoin="round"></path><path d="M27.3002 153.03C26.9131 149.081 25.8803 145.574 29.8423 139.291" stroke="#01A3F8" stroke-width="3.8698" stroke-miterlimit="10" stroke-linecap="round" stroke-linejoin="round"></path><path d="M26.509 189.303C25.9551 189.54 25.581 190.065 25.5312 190.666C25.4915 191.144 25.5001 191.659 25.6763 191.885C26.0476 192.363 26.4578 192.952 27.3497 192.533C28.2416 192.114 31.815 190.454 31.9847 189.464C32.1545 188.474 30.4465 187.872 27.2847 188.971L26.509 189.303Z" fill="#3060A8"></path><path d="M31.4856 191.18C30.9317 191.418 30.5576 191.943 30.5077 192.544C30.468 193.021 30.4767 193.536 30.6529 193.763C31.0241 194.24 31.4343 194.83 32.3262 194.411C33.2182 193.991 36.7916 192.332 36.9613 191.342C37.131 190.351 35.423 189.75 32.2612 190.848L31.4856 191.18Z" fill="#3060A8"></path><path d="M29.3726 171.066C29.3726 171.066 30.856 180.212 31.4677 181.526C31.4677 181.526 30.3692 191.957 30.8747 192.552C31.3803 193.146 33.2147 193.268 33.5635 192.552C33.913 191.836 36.0789 179.189 35.5842 177.917C35.1104 176.7 33.4761 168.906 33.4761 168.906C33.4761 168.906 28.9746 168.702 29.3726 171.066Z" fill="#FF5A72"></path><path d="M24.7436 168.709C24.7436 168.709 26.227 177.854 26.8387 179.169C26.8387 179.169 25.7402 189.6 26.2457 190.194C26.7513 190.788 28.5857 190.91 28.9345 190.194C29.284 189.478 31.4506 176.831 30.9552 175.559C30.4814 174.342 28.8471 166.548 28.8471 166.548C28.8471 166.548 24.3464 166.346 24.7436 168.709Z" fill="#FF5A72"></path><path d="M34.0717 157.392L34.0399 168.526C34.0717 170.983 33.8507 170.812 33.0245 171.292C33.0245 171.292 31.5462 171.878 30.0036 170.848L26.0134 168.545C25.1786 168.063 24.6651 167.171 24.668 166.207L24.6925 157.328C24.6933 157.172 24.7236 157.018 24.7337 156.862C24.837 155.361 25.4747 153.033 27.1473 152.107C29.7645 150.659 32.2821 152.966 32.3493 153.029C33.8746 154.458 34.0753 155.943 34.0717 157.392Z" fill="#01A3F8"></path><path d="M29.9162 149.926C29.5248 149.7 28.8835 149.688 28.4921 149.899C28.1006 150.11 28.1021 150.521 28.4935 150.747C28.8849 150.974 29.5255 150.974 29.917 150.747C30.3084 150.521 30.3077 150.152 29.9162 149.926Z" fill="#FAA379"></path><path d="M29.9173 150.748C29.5259 150.974 28.8853 150.974 28.4939 150.748C28.2945 150.632 28.1963 150.469 28.1999 150.308L28.1992 152.231L28.2007 152.232C28.2072 152.384 28.3047 152.536 28.4939 152.646C28.8853 152.872 29.5259 152.872 29.9173 152.646C30.1145 152.532 30.212 152.382 30.2105 152.232V150.337C30.2105 150.485 30.113 150.635 29.9173 150.748Z" fill="#FAB08B"></path><path d="M30.207 150.309C30.2078 150.319 30.2093 150.328 30.2093 150.337V150.308L30.207 150.309Z" fill="#FAB08B"></path><path d="M32.7259 145.799V148.223C32.7259 150.16 31.1559 151.729 29.2204 151.729C27.2849 151.729 25.7148 150.16 25.7148 148.223V145.799C25.7148 145.517 25.7488 145.244 25.8116 144.981C25.8268 144.912 25.8456 144.844 25.8679 144.776C26.3049 143.34 27.6417 142.295 29.2204 142.295C30.1874 142.295 31.0642 142.688 31.6997 143.321C32.3338 143.955 32.7259 144.831 32.7259 145.799Z" fill="#FAB08B"></path><path d="M28.5883 141.803C28.0473 141.832 27.6039 141.984 27.2421 142.187C26.8976 141.268 26.1516 140.101 24.6703 140.82C22.3752 141.935 21.0384 144.963 22.9327 146.161C23.6896 146.639 24.5569 146.994 25.3766 147.169C25.3283 148.75 25.6634 150.556 27.4039 151.219C28.2792 151.552 29.3054 151.598 29.7683 151.114C30.232 150.629 30.4421 149.749 30.4421 149.749C30.4421 149.749 29.7893 150.124 29.6629 149.281C29.5365 148.439 29.7893 148.312 30.211 148.502C30.6335 148.691 30.9845 148.134 30.9845 148.134C30.9845 148.134 31.1571 146.978 31.81 146.429C32.4628 145.882 32.7315 144.754 32.7315 144.754C33.2204 143.596 30.5678 141.698 28.5883 141.803Z" fill="#02007D"></path><path d="M39.709 142.512C44.4499 142.512 48.2931 138.668 48.2931 133.928C48.2931 129.187 44.4499 125.343 39.709 125.343C34.9682 125.343 31.125 129.187 31.125 133.928C31.125 138.668 34.9682 142.512 39.709 142.512Z" fill="url(#paint25_radial_2288_185024)"></path><path d="M41.543 144.862C41.7127 143.879 41.8485 142.676 41.6491 142.048" stroke="#FAB08B" stroke-width="3.0326" stroke-miterlimit="10" stroke-linecap="round" stroke-linejoin="round"></path><path d="M32.668 156.258C35.959 154.043 39.3216 152.606 41.6449 145.551" stroke="#01A3F8" stroke-width="3.8698" stroke-miterlimit="10" stroke-linecap="round" stroke-linejoin="round"></path><path d="M189.796 190.959C188.759 191.753 187.667 192.525 186.523 193.275C162.115 209.279 122.41 209.281 97.8427 193.278C87.7088 186.677 81.734 178.382 79.9249 169.797C79.8404 169.367 79.7668 169 79.7097 168.635C79.657 168.323 79.6166 168.066 79.5833 167.797C79.5588 167.628 79.5342 167.452 79.514 167.274C79.4353 166.576 79.3768 165.875 79.3537 165.182C79.353 165.028 79.3479 164.876 79.3472 164.721C79.3306 164.49 79.3291 164.253 79.3356 164.021C79.3313 163.91 79.3342 163.799 79.3457 163.694C79.3407 163.413 79.3508 163.137 79.3696 162.867C79.3688 162.769 79.3725 162.674 79.384 162.578C79.3941 162.308 79.4208 162.032 79.4468 161.761C79.488 161.264 79.5443 160.772 79.6209 160.277C79.6743 159.906 79.7357 159.535 79.8043 159.169C79.8701 158.806 79.9502 158.443 80.0275 158.082C80.1546 157.548 80.2441 157.2 80.3445 156.85C82.106 150.432 86.2391 144.243 92.7252 138.873C93.0978 138.567 93.4791 138.26 93.8677 137.958C94.0598 137.807 94.2562 137.651 94.4527 137.508C94.6881 137.322 94.9279 137.144 95.1792 136.969C95.3323 136.848 95.497 136.729 95.6623 136.616C95.9649 136.402 96.2596 136.188 96.5702 135.979C96.8923 135.758 97.2223 135.536 97.5531 135.32C98.2839 134.841 99.0227 134.377 99.7774 133.929C99.911 133.847 100.049 133.772 100.183 133.694C100.482 133.519 100.78 133.349 101.087 133.174C101.429 132.98 101.779 132.792 102.121 132.605C102.911 132.179 103.713 131.767 104.54 131.37C105.271 131.02 105.767 130.793 106.258 130.569C128.436 120.515 158.382 120.924 180.042 131.788C180.172 131.852 180.307 131.919 180.441 131.986C180.785 132.159 181.137 132.342 181.48 132.525C181.998 132.796 182.342 132.984 182.678 133.177C183.18 133.458 183.536 133.659 183.888 133.868C184.746 134.375 185.497 134.839 186.237 135.321C186.562 135.532 186.879 135.743 187.191 135.962C187.293 136.029 187.392 136.099 187.499 136.168C187.768 136.353 188.042 136.542 188.302 136.738C188.975 137.217 189.228 137.407 189.477 137.596C189.675 137.75 189.83 137.866 189.976 137.987C190.309 138.25 190.543 138.433 190.771 138.618C190.862 138.693 190.958 138.765 191.049 138.84C191.203 138.966 191.357 139.098 191.512 139.224C191.789 139.456 191.967 139.613 192.153 139.77C192.339 139.922 192.518 140.079 192.688 140.242C193.16 140.667 193.623 141.103 194.075 141.54C194.419 141.873 194.749 142.216 195.074 142.556C195.173 142.656 195.271 142.751 195.367 142.855C195.731 143.236 196.077 143.625 196.421 144.015C196.933 144.6 197.281 145.022 197.619 145.447C208.557 159.209 206.855 176.032 192.555 188.68C192.41 188.807 192.269 188.93 192.123 189.057C191.837 189.301 191.551 189.551 191.252 189.793C190.782 190.183 190.295 190.575 189.796 190.959ZM117.59 181.229C131.181 189.763 153.145 189.766 166.651 181.229C176.263 175.154 178.994 166.395 174.869 158.77C173.202 155.682 170.411 152.781 166.491 150.32C153.304 142.039 132.242 141.791 118.664 149.575C118.247 149.813 117.83 150.062 117.426 150.317C109.492 155.332 106.25 162.18 107.676 168.705C108.678 173.286 111.985 177.709 117.59 181.229Z" fill="#3060A8"></path><path d="M175.21 154.597L175.182 164.162C175.188 162.068 174.601 159.972 173.421 157.965C171.841 155.277 169.198 152.751 165.486 150.607C152.997 143.397 133.05 143.18 120.191 149.959C119.797 150.166 119.402 150.383 119.019 150.605C112.666 154.297 109.49 159.13 109.477 163.97L109.504 154.404C109.518 149.565 112.693 144.732 119.046 141.04C119.43 140.817 119.824 140.601 120.219 140.393C133.077 133.616 153.024 133.832 165.513 141.042C169.225 143.185 171.869 145.711 173.448 148.4C174.628 150.406 175.215 152.503 175.21 154.597Z" fill="url(#paint26_linear_2288_185024)"></path><path d="M190.197 174.963C190.06 175.069 189.926 175.173 189.788 175.279C189.516 175.484 189.245 175.694 188.962 175.897C188.516 176.226 188.054 176.555 187.582 176.877C186.6 177.544 185.566 178.193 184.483 178.822C161.368 192.254 123.765 192.257 100.499 178.824C90.9015 173.284 85.2431 166.322 83.5301 159.116C83.4499 158.755 83.3806 158.447 83.3264 158.14C83.2766 157.879 83.2383 157.662 83.2065 157.437C83.1834 157.295 83.1603 157.148 83.1408 156.998C83.0729 156.461 83.0238 155.922 82.9985 155.388L83.0043 153.298C83.0043 153.29 83.0043 153.281 83.0043 153.273L82.9985 155.386C82.9964 155.338 82.9913 155.29 82.9891 155.242C82.9884 155.112 82.9841 154.985 82.9834 154.855C82.9812 154.826 82.9819 154.796 82.9805 154.767L82.9827 153.992C82.9819 153.945 82.9812 153.897 82.9812 153.851L82.9783 154.723C82.9754 154.663 82.9725 154.603 82.9718 154.541L82.9725 154.267C82.9711 154.238 82.9704 154.21 82.9704 154.182L82.9696 154.489C82.9696 154.48 82.9689 154.472 82.9689 154.463L82.9415 164.029C82.9408 164.16 82.9451 164.29 82.9559 164.42C82.9567 164.55 82.961 164.677 82.9617 164.807C82.9834 165.389 83.039 165.977 83.1134 166.564C83.1329 166.713 83.156 166.861 83.1791 167.003C83.2101 167.227 83.2484 167.444 83.299 167.706C83.3531 168.013 83.4218 168.319 83.5026 168.681C85.2157 175.887 90.8748 182.849 100.471 188.39C123.738 201.823 161.34 201.821 184.456 188.387C185.538 187.758 186.573 187.109 187.555 186.443C188.027 186.121 188.489 185.792 188.934 185.464C189.216 185.26 189.488 185.051 189.76 184.845C189.898 184.739 190.031 184.635 190.168 184.529C197.827 178.525 201.67 171.401 201.69 164.254L201.717 154.689C201.699 161.834 197.855 168.959 190.197 174.963Z" fill="url(#paint27_linear_2288_185024)"></path><path d="M187.586 176.877C186.603 177.543 185.569 178.192 184.487 178.821C161.371 192.254 123.769 192.256 100.502 178.824C90.905 173.283 85.2465 166.321 83.5335 159.115C83.4533 158.754 83.384 158.447 83.3298 158.139C83.28 157.878 83.2417 157.661 83.2099 157.437C83.1868 157.294 83.1637 157.147 83.1442 156.998C83.0699 156.411 83.0142 155.823 82.9926 155.241C82.9918 155.111 82.9875 154.984 82.9868 154.854C82.9709 154.659 82.9702 154.46 82.976 154.266C82.9716 154.173 82.9745 154.081 82.9854 153.992C82.9803 153.756 82.9904 153.524 83.0077 153.298C83.007 153.215 83.0106 153.135 83.0215 153.055C83.0316 152.828 83.0561 152.596 83.0814 152.37C83.1204 151.952 83.1738 151.539 83.2461 151.124C83.2966 150.813 83.3544 150.501 83.4201 150.194C83.4822 149.889 83.5588 149.584 83.6317 149.281C83.7523 148.833 83.8368 148.541 83.9321 148.247C85.6004 142.86 89.514 137.665 95.657 133.158C96.0102 132.901 96.3713 132.643 96.7396 132.39C96.9216 132.262 97.1079 132.133 97.2935 132.012C97.5167 131.856 97.7435 131.707 97.9818 131.56C98.1269 131.458 98.2829 131.359 98.4389 131.263C98.7256 131.084 99.0044 130.905 99.2984 130.729C99.6038 130.543 99.9158 130.357 100.229 130.175C100.921 129.773 101.621 129.384 102.336 129.007C102.462 128.938 102.593 128.875 102.719 128.81C103.003 128.663 103.286 128.521 103.576 128.373C103.9 128.211 104.231 128.053 104.555 127.895C105.303 127.538 106.064 127.192 106.846 126.859C107.539 126.565 108.008 126.374 108.474 126.186C129.478 117.748 157.838 118.091 178.35 127.209C178.474 127.263 178.601 127.32 178.729 127.375C179.054 127.52 179.387 127.673 179.713 127.827C180.203 128.054 180.529 128.212 180.847 128.375C181.323 128.611 181.66 128.779 181.993 128.955C182.805 129.381 183.517 129.77 184.217 130.174C184.524 130.352 184.825 130.529 185.121 130.713C185.218 130.769 185.311 130.828 185.412 130.886C185.667 131.042 185.926 131.2 186.173 131.365C186.81 131.767 187.05 131.927 187.286 132.085C187.474 132.215 187.619 132.311 187.758 132.413C188.073 132.634 188.294 132.787 188.511 132.943C188.598 133.006 188.688 133.067 188.774 133.13C188.92 133.236 189.067 133.346 189.213 133.452C189.475 133.647 189.644 133.778 189.82 133.91C189.996 134.038 190.165 134.17 190.326 134.306C190.773 134.663 191.212 135.028 191.639 135.396C191.966 135.675 192.277 135.963 192.585 136.248C192.679 136.333 192.773 136.413 192.863 136.499C193.208 136.819 193.535 137.145 193.861 137.472C194.346 137.963 194.676 138.318 194.996 138.675C205.355 150.226 203.743 164.347 190.201 174.964C190.063 175.07 189.929 175.174 189.792 175.279C189.52 175.484 189.249 175.694 188.966 175.897C188.519 176.226 188.058 176.555 187.586 176.877ZM119.204 167.955C132.075 175.387 152.876 175.389 165.667 167.955C174.769 162.665 177.356 155.04 173.45 148.4C171.871 145.712 169.227 143.185 165.515 141.042C153.026 133.832 133.079 133.615 120.22 140.393C119.826 140.601 119.431 140.817 119.048 141.04C111.534 145.406 108.465 151.369 109.815 157.051C110.763 161.04 113.895 164.891 119.204 167.955Z" fill="url(#paint28_linear_2288_185024)"></path><path d="M174.951 145.146L174.924 154.712C174.93 152.617 174.343 150.521 173.163 148.515C171.583 145.827 168.94 143.3 165.224 141.155C152.739 133.946 132.792 133.73 119.933 140.508C119.539 140.716 119.144 140.932 118.761 141.155C112.407 144.847 109.229 149.679 109.215 154.519L109.242 144.953C109.255 140.114 112.434 135.282 118.788 131.589C119.171 131.367 119.565 131.15 119.96 130.943C132.818 124.165 152.765 124.381 165.251 131.589C168.967 133.735 171.61 136.26 173.189 138.949C174.37 140.955 174.957 143.051 174.951 145.146Z" fill="url(#paint29_linear_2288_185024)"></path><path d="M109.547 147.598L109.52 157.164L83.2422 159.229L83.2689 149.664L109.547 147.598Z" fill="#FFC28F"></path><path d="M201.364 145.224L201.337 154.789C201.314 162.722 196.638 170.644 187.295 176.991C186.313 177.657 185.279 178.306 184.195 178.935L184.223 169.369C185.305 168.74 186.34 168.091 187.322 167.425C196.666 161.079 201.342 153.157 201.364 145.224Z" fill="url(#paint30_linear_2288_185024)"></path><path d="M183.947 120.721C184.257 120.901 184.558 121.078 184.854 121.262C184.951 121.318 185.045 121.377 185.146 121.435C185.401 121.591 185.659 121.748 185.906 121.913C186.543 122.315 186.783 122.476 187.019 122.633C187.716 123.105 188.335 123.548 188.946 124C189.306 124.273 189.572 124.478 189.846 124.688C193.514 127.582 196.313 130.741 198.225 134.044C204.736 145.249 201.116 158.055 187.319 167.426C186.337 168.092 185.303 168.741 184.221 169.37L165.401 158.505C174.504 153.215 177.09 145.589 173.184 138.949C171.604 136.261 168.961 133.735 165.246 131.589C152.76 124.381 132.813 124.164 119.954 130.943C119.56 131.15 119.165 131.367 118.782 131.589C111.268 135.956 108.195 141.917 109.545 147.598L83.2674 149.664C83.1872 149.302 83.1179 148.996 83.0637 148.688C83.0139 148.426 82.9756 148.21 82.9439 147.985C82.9164 147.84 82.8976 147.696 82.8781 147.546C82.8038 146.96 82.7482 146.372 82.7265 145.79C82.7258 145.66 82.7214 145.533 82.7207 145.403C82.7084 145.205 82.7034 145.009 82.7099 144.814C82.7055 144.721 82.7084 144.628 82.7193 144.54C82.7142 144.304 82.7243 144.072 82.7416 143.846C82.7409 143.763 82.7445 143.683 82.7554 143.604C82.7611 143.375 82.79 143.145 82.8153 142.918C82.85 142.499 82.9078 142.088 82.98 141.672C83.0305 141.361 83.0883 141.049 83.154 140.742C83.2161 140.437 83.2927 140.133 83.3656 139.829C83.4862 139.382 83.5671 139.088 83.6661 138.795C85.3827 133.319 89.3859 128.128 95.3909 123.706C95.7441 123.449 96.1052 123.191 96.4735 122.938C96.6555 122.81 96.8418 122.681 97.0274 122.559C97.2506 122.403 97.4774 122.255 97.7157 122.107C97.8609 122.006 98.0168 121.907 98.1736 121.811C98.4603 121.631 98.739 121.452 99.033 121.277C99.3385 121.091 99.6505 120.905 99.9632 120.723C100.655 120.321 101.355 119.931 102.07 119.555C102.197 119.486 102.323 119.421 102.453 119.359C102.736 119.211 103.02 119.069 103.31 118.922C103.682 118.74 104.058 118.556 104.438 118.379C104.814 118.2 105.198 118.025 105.578 117.851C106.073 117.629 106.427 117.48 106.781 117.326C107.6 116.98 108.398 116.656 109.217 116.344C109.627 116.188 110.041 116.034 110.455 115.885C125.404 110.491 143.757 109.317 160.233 112.366C160.685 112.45 161.145 112.539 161.601 112.629C162.961 112.902 164.311 113.207 165.642 113.54C166.049 113.642 166.453 113.746 166.861 113.851C167.422 114.003 167.773 114.097 168.121 114.195C168.734 114.372 169.075 114.469 169.408 114.571C169.516 114.604 169.629 114.634 169.744 114.671C170.065 114.771 170.398 114.872 170.72 114.976C171.308 115.164 171.667 115.285 172.026 115.406C172.546 115.581 172.89 115.702 173.234 115.824C173.758 116.009 174.013 116.104 174.264 116.202C174.465 116.271 174.664 116.347 174.862 116.427C174.989 116.474 175.113 116.52 175.236 116.574C175.532 116.684 175.816 116.796 176.101 116.913C176.648 117.138 176.988 117.279 177.321 117.42C177.729 117.595 178.096 117.759 178.462 117.924C178.788 118.069 179.121 118.222 179.447 118.376C179.776 118.527 180.098 118.687 180.417 118.845C181.057 119.159 181.394 119.328 181.727 119.502C182.539 119.929 183.25 120.319 183.947 120.721Z" fill="url(#paint31_linear_2288_185024)"></path><path d="M184.218 169.37L184.191 178.936L165.371 168.07L165.399 158.505L184.218 169.37Z" fill="#FF9D4A"></path><path d="M119.842 121.438L119.815 131.003L101.93 119.617L101.956 110.051L119.842 121.438Z" fill="#FF8799"></path><path d="M173.069 129.444L173.041 139.01C171.462 136.322 168.815 133.793 165.103 131.65C152.618 124.442 132.671 124.225 119.812 131.003L119.84 121.438C132.699 114.66 152.646 114.876 165.131 122.084C168.842 124.228 171.489 126.756 173.069 129.444Z" fill="url(#paint32_linear_2288_185024)"></path><path d="M198.175 124.526L198.148 134.092L173.047 139.01L173.074 129.444L198.175 124.526Z" fill="#F73450"></path><path d="M183.835 111.217C184.142 111.394 184.442 111.571 184.743 111.757C184.836 111.811 184.933 111.872 185.034 111.93C185.289 112.086 185.548 112.244 185.795 112.408L186.098 112.6C186.432 112.811 186.668 112.968 186.904 113.126C187.095 113.258 187.241 113.355 187.376 113.455C187.691 113.675 187.916 113.831 188.133 113.987C188.219 114.05 188.306 114.108 188.392 114.171C188.542 114.28 188.684 114.387 188.835 114.495C189.097 114.69 189.266 114.822 189.438 114.952C189.536 115.03 189.63 115.106 189.734 115.183C189.802 115.239 189.873 115.293 189.945 115.348C193.459 118.144 196.236 121.239 198.173 124.527L173.073 129.445C171.493 126.757 168.846 124.229 165.134 122.085C152.649 114.877 132.702 114.66 119.843 121.439L101.957 110.052C102.084 109.982 102.211 109.917 102.337 109.853C102.624 109.708 102.903 109.564 103.197 109.418C103.517 109.254 103.848 109.096 104.176 108.94C104.698 108.694 105.081 108.519 105.461 108.345C105.893 108.155 106.18 108.027 106.467 107.904C106.531 107.876 106.597 107.845 106.664 107.819C107.484 107.469 108.289 107.145 109.105 106.839C109.51 106.681 109.924 106.528 110.342 106.381C125.329 100.952 143.681 99.8038 160.119 102.862C160.571 102.946 161.028 103.032 161.483 103.123C162.851 103.395 164.197 103.698 165.525 104.034C165.932 104.136 166.34 104.242 166.748 104.347C166.818 104.362 166.893 104.384 166.964 104.403C167.308 104.499 167.66 104.594 168.008 104.691C168.102 104.715 168.195 104.739 168.284 104.769C168.621 104.869 168.961 104.966 169.294 105.067C169.402 105.1 169.515 105.13 169.631 105.167C169.952 105.267 170.285 105.368 170.607 105.472C170.674 105.493 170.756 105.515 170.827 105.543C171.194 105.66 171.549 105.779 171.912 105.902C172.432 106.077 172.772 106.196 173.12 106.319C173.21 106.35 173.3 106.38 173.386 106.417C173.644 106.506 173.899 106.601 174.146 106.696C174.352 106.767 174.549 106.843 174.748 106.923C174.872 106.968 174.999 107.016 175.122 107.07C175.414 107.178 175.702 107.293 175.983 107.407C176.054 107.435 176.125 107.463 176.196 107.496C176.533 107.635 176.873 107.775 177.203 107.913C177.614 108.091 177.978 108.253 178.345 108.417C178.674 108.565 179.007 108.718 179.333 108.872C179.763 109.072 180.036 109.205 180.302 109.341C180.362 109.367 180.426 109.4 180.486 109.43C180.939 109.653 181.28 109.824 181.609 109.997C182.427 110.425 183.135 110.812 183.835 111.217Z" fill="url(#paint33_linear_2288_185024)"></path><path d="M142.023 155.973V35.7376" stroke="#5C88E4" stroke-width="0.9675" stroke-miterlimit="10"></path><path d="M142.029 159.229C144.317 159.229 146.172 157.374 146.172 155.086C146.172 152.799 144.317 150.944 142.029 150.944C139.741 150.944 137.887 152.799 137.887 155.086C137.887 157.374 139.741 159.229 142.029 159.229Z" fill="#688DDE"></path><path d="M142.029 145.273C144.317 145.273 146.172 143.418 146.172 141.13C146.172 138.842 144.317 136.988 142.029 136.988C139.741 136.988 137.887 138.842 137.887 141.13C137.887 143.418 139.741 145.273 142.029 145.273Z" fill="#4B75D0"></path><path d="M142.029 39.8801C144.317 39.8801 146.172 38.0254 146.172 35.7376C146.172 33.4497 144.317 31.595 142.029 31.595C139.741 31.595 137.887 33.4497 137.887 35.7376C137.887 38.0254 139.741 39.8801 142.029 39.8801Z" fill="#688DDE"></path><path d="M139.957 54.5689C139.957 53.4249 140.884 52.4976 142.028 52.4976C143.172 52.4976 144.1 53.4249 144.1 54.5689C144.1 55.7128 143.172 56.6401 142.028 56.6401C140.884 56.6401 139.957 55.7128 139.957 54.5689Z" fill="#B5E9FE"></path><path d="M139.957 60.7827C139.957 59.6387 140.884 58.7114 142.028 58.7114C143.172 58.7114 144.1 59.6387 144.1 60.7827C144.1 61.9266 143.172 62.8539 142.028 62.8539C140.884 62.8539 139.957 61.9266 139.957 60.7827Z" fill="#688DDE"></path><path d="M139.957 104.66C139.957 103.517 140.884 102.589 142.028 102.589C143.172 102.589 144.1 103.517 144.1 104.66C144.1 105.804 143.172 106.732 142.028 106.732C140.884 106.732 139.957 105.804 139.957 104.66Z" fill="#688DDE"></path><path d="M139.957 110.874C139.957 109.73 140.884 108.803 142.028 108.803C143.172 108.803 144.1 109.73 144.1 110.874C144.1 112.018 143.172 112.946 142.028 112.946C140.884 112.946 139.957 112.018 139.957 110.874Z" fill="#688DDE"></path><path d="M193.719 188.513C193.216 187.651 192.545 186.644 191.988 186.292" stroke="#FAB08B" stroke-width="3.0326" stroke-miterlimit="10" stroke-linecap="round" stroke-linejoin="round"></path><path d="M196.667 202.648C197.054 198.699 198.087 195.192 194.125 188.909" stroke="#01A3F8" stroke-width="3.8698" stroke-miterlimit="10" stroke-linecap="round" stroke-linejoin="round"></path><path d="M197.465 238.921C198.018 239.158 198.393 239.683 198.442 240.284C198.482 240.762 198.473 241.277 198.296 241.503C197.925 241.981 197.515 242.57 196.623 242.151C195.731 241.731 192.158 240.072 191.988 239.082C191.818 238.092 193.526 237.49 196.688 238.588L197.465 238.921Z" fill="#B5E9FE"></path><path d="M192.488 240.798C193.042 241.036 193.416 241.561 193.466 242.162C193.506 242.639 193.497 243.154 193.32 243.381C192.949 243.858 192.539 244.448 191.647 244.029C190.755 243.609 187.181 241.95 187.012 240.959C186.842 239.969 188.55 239.368 191.712 240.466L192.488 240.798Z" fill="#B5E9FE"></path><path d="M194.589 220.684C194.589 220.684 193.106 229.83 192.494 231.143C192.494 231.143 193.593 241.574 193.087 242.169C192.582 242.763 190.747 242.885 190.398 242.169C190.049 241.453 187.883 228.806 188.378 227.535C188.852 226.318 190.486 218.524 190.486 218.524C190.486 218.524 194.987 218.32 194.589 220.684Z" fill="#FF5A72"></path><path d="M199.238 218.327C199.238 218.327 197.754 227.472 197.143 228.787C197.143 228.787 198.241 239.218 197.736 239.813C197.23 240.407 195.396 240.528 195.047 239.813C194.697 239.097 192.532 226.45 193.026 225.178C193.5 223.961 195.134 216.167 195.134 216.167C195.134 216.167 199.635 215.963 199.238 218.327Z" fill="#FF5A72"></path><path d="M189.902 207.01L189.934 218.144C189.902 220.601 190.123 220.43 190.95 220.91C190.95 220.91 192.428 221.495 193.971 220.466L197.961 218.163C198.796 217.68 199.309 216.789 199.306 215.825L199.282 206.946C199.281 206.79 199.251 206.636 199.24 206.48C199.136 204.979 198.499 202.651 196.826 201.725C194.209 200.277 191.691 202.584 191.624 202.647C190.1 204.076 189.899 205.561 189.902 207.01Z" fill="#01A3F8"></path><path d="M194.048 199.544C194.439 199.318 195.081 199.306 195.472 199.517C195.863 199.728 195.861 200.139 195.471 200.365C195.079 200.591 194.439 200.591 194.047 200.365C193.656 200.139 193.656 199.77 194.048 199.544Z" fill="#FAA379"></path><path d="M194.047 200.365C194.439 200.591 195.079 200.591 195.471 200.365C195.67 200.25 195.768 200.087 195.765 199.926H195.765V201.849L195.764 201.85C195.757 202.002 195.66 202.154 195.471 202.264C195.079 202.49 194.439 202.49 194.047 202.264C193.85 202.15 193.752 202 193.754 201.85V199.954C193.754 200.103 193.851 200.253 194.047 200.365Z" fill="#FAB08B"></path><path d="M193.756 199.927C193.755 199.937 193.754 199.946 193.754 199.955V199.926L193.756 199.927Z" fill="#FAB08B"></path><path d="M191.238 195.417V197.841C191.238 199.778 192.808 201.347 194.744 201.347C196.679 201.347 198.249 199.778 198.249 197.841V195.417C198.249 195.135 198.215 194.862 198.153 194.599C198.137 194.53 198.119 194.461 198.096 194.394C197.659 192.958 196.323 191.913 194.744 191.913C193.777 191.913 192.9 192.305 192.265 192.939C191.63 193.573 191.238 194.448 191.238 195.417Z" fill="#FAB08B"></path><path d="M195.382 191.421C195.923 191.45 196.366 191.602 196.728 191.805C197.073 190.886 197.819 189.719 199.3 190.438C201.595 191.552 202.932 194.581 201.037 195.779C200.281 196.257 199.413 196.612 198.594 196.787C198.642 198.368 198.307 200.174 196.566 200.837C195.691 201.17 194.665 201.216 194.202 200.732C193.738 200.247 193.528 199.367 193.528 199.367C193.528 199.367 194.181 199.741 194.307 198.899C194.434 198.057 194.181 197.93 193.759 198.12C193.337 198.309 192.986 197.752 192.986 197.752C192.986 197.752 192.813 196.596 192.16 196.047C191.507 195.5 191.239 194.372 191.239 194.372C190.75 193.214 193.402 191.316 195.382 191.421Z" fill="#02007D"></path><path d="M184.896 217.823C184.07 218.382 183.029 219.002 182.375 219.078" stroke="#FAB08B" stroke-width="3.0326" stroke-miterlimit="10" stroke-linecap="round" stroke-linejoin="round"></path><path d="M191.634 205.045C190.969 208.957 191.045 212.612 185.57 217.633" stroke="#01A3F8" stroke-width="3.8698" stroke-miterlimit="10" stroke-linecap="round" stroke-linejoin="round"></path><path d="M205.466 150.682C204.488 150.488 203.316 150.185 202.801 149.774" stroke="#FAB08B" stroke-width="3.0326" stroke-miterlimit="10" stroke-linecap="round" stroke-linejoin="round"></path><path d="M219.794 148.843C216.191 150.503 213.215 152.628 205.98 150.944" stroke="#B5E9FE" stroke-width="3.8698" stroke-miterlimit="10" stroke-linecap="round" stroke-linejoin="round"></path><path d="M221.582 186.184C222.136 186.421 222.51 186.946 222.56 187.547C222.599 188.024 222.591 188.539 222.414 188.766C222.042 189.243 221.632 189.833 220.74 189.413C219.848 188.994 216.275 187.334 216.105 186.344C215.936 185.354 217.644 184.752 220.805 185.851L221.582 186.184Z" fill="#B5E9FE"></path><path d="M216.605 188.061C217.159 188.299 217.533 188.824 217.583 189.425C217.623 189.902 217.614 190.417 217.437 190.644C217.066 191.121 216.656 191.711 215.764 191.292C214.872 190.872 211.298 189.213 211.129 188.222C210.959 187.232 212.667 186.631 215.829 187.729L216.605 188.061Z" fill="#B5E9FE"></path><path d="M218.707 167.947C218.707 167.947 217.223 177.093 216.612 178.406C216.612 178.406 217.71 188.837 217.205 189.432C216.699 190.026 214.865 190.148 214.516 189.432C214.166 188.716 212 176.069 212.495 174.797C212.969 173.581 214.603 165.787 214.603 165.787C214.603 165.787 219.104 165.583 218.707 167.947Z" fill="#FF5A72"></path><path d="M223.355 165.589C223.355 165.589 221.872 174.735 221.26 176.05C221.26 176.05 222.359 186.48 221.853 187.075C221.347 187.669 219.514 187.79 219.164 187.075C218.815 186.359 216.648 173.712 217.144 172.44C217.617 171.223 219.252 163.429 219.252 163.429C219.252 163.429 223.753 163.226 223.355 165.589Z" fill="#FF5A72"></path><path d="M214.195 154.816L214.227 165.95C214.195 168.407 214.416 168.236 215.243 168.716C215.243 168.716 216.721 169.302 218.264 168.272L222.254 165.969C223.089 165.487 223.602 164.595 223.599 163.631L223.574 154.752C223.573 154.596 223.543 154.442 223.533 154.286C223.429 152.785 222.792 150.457 221.119 149.531C218.502 148.083 215.984 150.39 215.917 150.453C214.393 151.882 214.192 153.367 214.195 154.816Z" fill="#B5E9FE"></path><path d="M218.345 147.35C218.736 147.124 219.377 147.112 219.769 147.323C220.16 147.534 220.158 147.945 219.767 148.171C219.376 148.398 218.735 148.398 218.344 148.171C217.953 147.945 217.953 147.576 218.345 147.35Z" fill="#FAA379"></path><path d="M218.34 148.171C218.732 148.397 219.372 148.397 219.764 148.171C219.963 148.056 220.061 147.893 220.058 147.732L220.058 149.655L220.057 149.656C220.05 149.808 219.953 149.96 219.764 150.07C219.372 150.296 218.732 150.296 218.34 150.07C218.143 149.956 218.045 149.806 218.047 149.656V147.76C218.047 147.909 218.144 148.059 218.34 148.171Z" fill="#FAB08B"></path><path d="M218.049 147.733C218.048 147.743 218.047 147.752 218.047 147.761V147.732L218.049 147.733Z" fill="#FAB08B"></path><path d="M202.448 158.727C201.457 158.605 200.266 158.388 199.723 158.016" stroke="#FAB08B" stroke-width="3.0326" stroke-miterlimit="10" stroke-linecap="round" stroke-linejoin="round"></path><path d="M215.915 153.524C212.843 156.035 210.497 158.839 203.07 159.025" stroke="#B5E9FE" stroke-width="3.8698" stroke-miterlimit="10" stroke-linecap="round" stroke-linejoin="round"></path><path d="M215.551 143.223V145.647C215.551 147.584 217.121 149.153 219.056 149.153C220.992 149.153 222.562 147.584 222.562 145.647V143.223C222.562 142.941 222.528 142.668 222.465 142.405C222.45 142.336 222.431 142.268 222.409 142.2C221.972 140.764 220.635 139.719 219.056 139.719C218.089 139.719 217.213 140.112 216.577 140.745C215.943 141.379 215.551 142.255 215.551 143.223Z" fill="#FAB08B"></path><path d="M215.836 141.587C215.836 141.587 216.432 143.559 217.106 144.124C217.781 144.69 217.386 146.016 217.386 146.016C217.386 146.016 217.749 146.593 218.185 146.396C218.621 146.201 218.883 146.331 218.752 147.202C218.621 148.072 217.947 147.685 217.947 147.685C217.947 147.685 218.164 148.595 218.643 149.095C219.122 149.596 220.134 149.378 221.086 149.204C222.038 149.03 222.589 149.167 222.691 148.264C222.793 147.361 223.3 145.287 223.039 143.524C222.777 141.761 222.081 141.152 221.733 140.826C221.733 140.826 221.907 139.585 219.862 139.477C217.816 139.367 215.331 140.391 215.836 141.587Z" fill="#02007D"></path><defs><linearGradient id="paint0_linear_2288_185024" x1="184.499" y1="115.572" x2="246.068" y2="115.572" gradientUnits="userSpaceOnUse"><stop stop-color="#66D2FE"></stop><stop offset="0.3365" stop-color="#52A7DE"></stop><stop offset="0.7813" stop-color="#3974B7"></stop><stop offset="1" stop-color="#3060A8"></stop></linearGradient><linearGradient id="paint1_linear_2288_185024" x1="184.761" y1="52.4912" x2="246.073" y2="52.4912" gradientUnits="userSpaceOnUse"><stop stop-color="#7097EB"></stop><stop offset="1" stop-color="#A4D4ED"></stop></linearGradient><linearGradient id="paint2_linear_2288_185024" x1="193.707" y1="40.7994" x2="239.122" y2="65.2539" gradientUnits="userSpaceOnUse"><stop stop-color="#FF5A72"></stop><stop offset="0.1515" stop-color="#FF6971"></stop><stop offset="0.7206" stop-color="#FF9C6E"></stop><stop offset="1" stop-color="#FFB06D"></stop></linearGradient><linearGradient id="paint3_linear_2288_185024" x1="17.3317" y1="126.909" x2="83.9787" y2="126.909" gradientUnits="userSpaceOnUse"><stop stop-color="#FF5A72"></stop><stop offset="0.2266" stop-color="#CA5C80"></stop><stop offset="0.603" stop-color="#785E95"></stop><stop offset="0.8698" stop-color="#445FA3"></stop><stop offset="1" stop-color="#3060A8"></stop></linearGradient><linearGradient id="paint4_linear_2288_185024" x1="23.8038" y1="261.404" x2="121.542" y2="261.404" gradientUnits="userSpaceOnUse"><stop stop-color="#4671CF"></stop><stop offset="0.3365" stop-color="#52A7DE"></stop><stop offset="0.7813" stop-color="#3974B7"></stop><stop offset="1" stop-color="#3060A8"></stop></linearGradient><linearGradient id="paint5_linear_2288_185024" x1="31.4263" y1="211.178" x2="98.5008" y2="260.086" gradientUnits="userSpaceOnUse"><stop stop-color="#B0C5F1"></stop><stop offset="1" stop-color="#284FA3"></stop></linearGradient><linearGradient id="paint6_linear_2288_185024" x1="31.8791" y1="232.528" x2="89.9252" y2="264.368" gradientUnits="userSpaceOnUse"><stop stop-color="#FF5A72"></stop><stop offset="0.2266" stop-color="#CA5C80"></stop><stop offset="0.603" stop-color="#785E95"></stop><stop offset="0.8698" stop-color="#445FA3"></stop><stop offset="1" stop-color="#3060A8"></stop></linearGradient><linearGradient id="paint7_linear_2288_185024" x1="23.4106" y1="247.288" x2="45.2902" y2="258.391" gradientUnits="userSpaceOnUse"><stop stop-color="#66D2FE"></stop><stop offset="0.3365" stop-color="#52A7DE"></stop><stop offset="0.7813" stop-color="#3974B7"></stop><stop offset="1" stop-color="#3060A8"></stop></linearGradient><linearGradient id="paint8_linear_2288_185024" x1="23.2652" y1="247.572" x2="45.1448" y2="258.675" gradientUnits="userSpaceOnUse"><stop stop-color="#66D2FE"></stop><stop offset="0.3365" stop-color="#52A7DE"></stop><stop offset="0.7813" stop-color="#3974B7"></stop><stop offset="1" stop-color="#3060A8"></stop></linearGradient><linearGradient id="paint9_linear_2288_185024" x1="6.89865" y1="77.9859" x2="94.4132" y2="77.9859" gradientUnits="userSpaceOnUse"><stop stop-color="#4876D7"></stop><stop offset="0.1924" stop-color="#4974D2"></stop><stop offset="0.734" stop-color="#5983DE"></stop><stop offset="1" stop-color="#789DED"></stop></linearGradient><linearGradient id="paint10_linear_2288_185024" x1="14.9884" y1="85.5207" x2="86.3258" y2="85.5207" gradientUnits="userSpaceOnUse"><stop stop-color="#FF5A72"></stop><stop offset="0.1515" stop-color="#FF6971"></stop><stop offset="0.7206" stop-color="#FF9C6E"></stop><stop offset="1" stop-color="#FFB06D"></stop></linearGradient><linearGradient id="paint11_linear_2288_185024" x1="67.8818" y1="57.5135" x2="-8.64506" y2="218.789" gradientUnits="userSpaceOnUse"><stop stop-color="#FF5A72"></stop><stop offset="0.2266" stop-color="#CA5C80"></stop><stop offset="0.603" stop-color="#785E95"></stop><stop offset="0.8698" stop-color="#445FA3"></stop><stop offset="1" stop-color="#3060A8"></stop></linearGradient><linearGradient id="paint12_linear_2288_185024" x1="33.9063" y1="205.138" x2="250.517" y2="205.138" gradientUnits="userSpaceOnUse"><stop stop-color="white"></stop><stop offset="0.1924" stop-color="#EBF6FB"></stop><stop offset="0.734" stop-color="#B8DDF1"></stop><stop offset="1" stop-color="#A4D4ED"></stop></linearGradient><linearGradient id="paint13_linear_2288_185024" x1="40.9603" y1="116.791" x2="265.467" y2="239.908" gradientUnits="userSpaceOnUse"><stop stop-color="#FF5A72"></stop><stop offset="0.2266" stop-color="#CA5C80"></stop><stop offset="0.603" stop-color="#785E95"></stop><stop offset="0.8698" stop-color="#445FA3"></stop><stop offset="1" stop-color="#3060A8"></stop></linearGradient><linearGradient id="paint14_linear_2288_185024" x1="5.8363" y1="214.991" x2="24.6461" y2="214.991" gradientUnits="userSpaceOnUse"><stop stop-color="#517BD6"></stop><stop offset="1" stop-color="#A4D4ED"></stop></linearGradient><linearGradient id="paint15_linear_2288_185024" x1="5.8363" y1="206.518" x2="34.4293" y2="206.518" gradientUnits="userSpaceOnUse"><stop stop-color="#4471D2"></stop><stop offset="1" stop-color="#A4D4ED"></stop></linearGradient><linearGradient id="paint16_linear_2288_185024" x1="15.621" y1="198.046" x2="34.4308" y2="198.046" gradientUnits="userSpaceOnUse"><stop stop-color="#5580DD"></stop><stop offset="1" stop-color="#A4D4ED"></stop></linearGradient><linearGradient id="paint17_linear_2288_185024" x1="15.621" y1="189.573" x2="44.2139" y2="189.573" gradientUnits="userSpaceOnUse"><stop stop-color="#4F78CF"></stop><stop offset="1" stop-color="#A4D4ED"></stop></linearGradient><linearGradient id="paint18_linear_2288_185024" x1="25.4064" y1="181.101" x2="44.2162" y2="181.101" gradientUnits="userSpaceOnUse"><stop stop-color="#4474DB"></stop><stop offset="1" stop-color="#A4D4ED"></stop></linearGradient><linearGradient id="paint19_linear_2288_185024" x1="25.4064" y1="172.628" x2="53.9994" y2="172.628" gradientUnits="userSpaceOnUse"><stop stop-color="#507BD8"></stop><stop offset="1" stop-color="#A4D4ED"></stop></linearGradient><linearGradient id="paint20_linear_2288_185024" x1="25.7068" y1="192.291" x2="62.0389" y2="214.649" gradientUnits="userSpaceOnUse"><stop stop-color="#92B0F1"></stop><stop offset="1" stop-color="#284FA3"></stop></linearGradient><linearGradient id="paint21_linear_2288_185024" x1="227.688" y1="261.404" x2="237.158" y2="261.404" gradientUnits="userSpaceOnUse"><stop stop-color="#FF5A72"></stop><stop offset="0.1515" stop-color="#FF6971"></stop><stop offset="0.7206" stop-color="#FF9C6E"></stop><stop offset="1" stop-color="#FFB06D"></stop></linearGradient><linearGradient id="paint22_linear_2288_185024" x1="250.297" y1="248.841" x2="259.767" y2="248.841" gradientUnits="userSpaceOnUse"><stop stop-color="#FF5A72"></stop><stop offset="0.1515" stop-color="#FF6971"></stop><stop offset="0.7206" stop-color="#FF9C6E"></stop><stop offset="1" stop-color="#FFB06D"></stop></linearGradient><linearGradient id="paint23_linear_2288_185024" x1="235.742" y1="207.163" x2="245.212" y2="207.163" gradientUnits="userSpaceOnUse"><stop stop-color="#FF5A72"></stop><stop offset="0.1515" stop-color="#FF6971"></stop><stop offset="0.7206" stop-color="#FF9C6E"></stop><stop offset="1" stop-color="#FFB06D"></stop></linearGradient><linearGradient id="paint24_linear_2288_185024" x1="141.082" y1="255.041" x2="150.552" y2="255.041" gradientUnits="userSpaceOnUse"><stop stop-color="#FF5A72"></stop><stop offset="0.1515" stop-color="#FF6971"></stop><stop offset="0.7206" stop-color="#FF9C6E"></stop><stop offset="1" stop-color="#FFB06D"></stop></linearGradient><radialGradient id="paint25_radial_2288_185024" cx="0" cy="0" r="1" gradientUnits="userSpaceOnUse" gradientTransform="translate(37.7876 131.482) scale(8.58418 8.58419)"><stop offset="0.0594" stop-color="#FFB06D"></stop><stop offset="0.1879" stop-color="#FFAB6D"></stop><stop offset="0.3438" stop-color="#FF9C6E"></stop><stop offset="0.5141" stop-color="#FF8370"></stop><stop offset="0.6934" stop-color="#FF6172"></stop><stop offset="0.7277" stop-color="#FF5A72"></stop></radialGradient><linearGradient id="paint26_linear_2288_185024" x1="109.477" y1="149.815" x2="175.21" y2="149.815" gradientUnits="userSpaceOnUse"><stop stop-color="#66D2FE"></stop><stop offset="0.3365" stop-color="#52A7DE"></stop><stop offset="0.7813" stop-color="#3974B7"></stop><stop offset="1" stop-color="#3060A8"></stop></linearGradient><linearGradient id="paint27_linear_2288_185024" x1="91.6025" y1="137.139" x2="223.46" y2="213.379" gradientUnits="userSpaceOnUse"><stop stop-color="#66D2FE"></stop><stop offset="0.3365" stop-color="#52A7DE"></stop><stop offset="0.7813" stop-color="#3974B7"></stop><stop offset="1" stop-color="#3060A8"></stop></linearGradient><linearGradient id="paint28_linear_2288_185024" x1="56.6179" y1="116.302" x2="190.865" y2="176.115" gradientUnits="userSpaceOnUse"><stop stop-color="#3D65BA"></stop><stop offset="1" stop-color="#A4D4ED"></stop></linearGradient><linearGradient id="paint29_linear_2288_185024" x1="109.215" y1="140.364" x2="174.951" y2="140.364" gradientUnits="userSpaceOnUse"><stop stop-color="#FF5A72"></stop><stop offset="0.1515" stop-color="#FF6971"></stop><stop offset="0.7206" stop-color="#FF9C6E"></stop><stop offset="1" stop-color="#FFB06D"></stop></linearGradient><linearGradient id="paint30_linear_2288_185024" x1="199.615" y1="162.277" x2="182.454" y2="161.782" gradientUnits="userSpaceOnUse"><stop stop-color="#FF5A72"></stop><stop offset="0.1515" stop-color="#FF6971"></stop><stop offset="0.7206" stop-color="#FF9C6E"></stop><stop offset="1" stop-color="#FFB06D"></stop></linearGradient><linearGradient id="paint31_linear_2288_185024" x1="35.6451" y1="82.1078" x2="210.654" y2="176.923" gradientUnits="userSpaceOnUse"><stop stop-color="white"></stop><stop offset="0.4624" stop-color="#FFD7B5"></stop><stop offset="0.8236" stop-color="#FFBB81"></stop><stop offset="1" stop-color="#FFB06D"></stop></linearGradient><linearGradient id="paint32_linear_2288_185024" x1="190.893" y1="140.568" x2="64.3123" y2="102.594" gradientUnits="userSpaceOnUse"><stop stop-color="#FF5A72"></stop><stop offset="0.2266" stop-color="#CA5C80"></stop><stop offset="0.603" stop-color="#785E95"></stop><stop offset="0.8698" stop-color="#445FA3"></stop><stop offset="1" stop-color="#3060A8"></stop></linearGradient><linearGradient id="paint33_linear_2288_185024" x1="82.7429" y1="80.4999" x2="186.15" y2="134.067" gradientUnits="userSpaceOnUse"><stop stop-color="white"></stop><stop offset="0.0576" stop-color="#FFF4F6"></stop><stop offset="0.5166" stop-color="#FFA2AF"></stop><stop offset="0.8415" stop-color="#FF6E83"></stop><stop offset="1" stop-color="#FF5A72"></stop></linearGradient></defs></svg>