<svg xmlns="http://www.w3.org/2000/svg" width="500" height="300" viewBox="0 0 500 300" fill="none"><rect width="500" height="300" rx="24" fill="white"></rect><path d="M209.578 78.0794L200.539 79.0826L177.531 60.9307L182.973 59.1226L212.679 76.268L209.578 78.0794Z" fill="#E8F3FF"></path><path d="M221.148 81.6609L217.367 85.3973L209.586 73.7981L212.687 71.9858L221.148 81.6609Z" fill="#E8F3FF"></path><path d="M221.142 128.361L218.049 130.177L213.809 101.862L218.049 83.4725L221.142 81.6611V128.361Z" fill="#A1B4BF"></path><path d="M202.064 70.1374L198.959 71.9537L197.117 68.7992L198.575 66.1747L202.064 65.8521V70.1374Z" fill="#A1B4BF"></path><path d="M182.973 59.1224L179.869 60.9306L177.531 58.6838L178.901 55.2231L182.973 54.833V59.1224Z" fill="#A1B4BF"></path><path d="M202.065 65.8524L198.96 67.663L193.463 67.3181L190.496 62.7785L193.597 60.9688L202.065 65.8524Z" fill="#E8F3FF"></path><path d="M182.977 54.833L179.873 56.6501L174.325 58.3373L171.418 56.544L174.517 54.7334L182.977 54.833Z" fill="#E8F3FF"></path><path d="M209.582 73.798V78.0792L198.961 71.9536V67.6626L190.497 62.7781V67.0643L179.873 60.9305V56.6501L171.418 56.5439V103.253L194.737 139.746L218.05 130.176V83.4722L209.582 73.798Z" fill="#C8DFE8"></path><path d="M197.807 77.8611L175.043 65.415V103.811L194.057 133.83L197.807 131.453L199.159 82.6979L197.807 77.8611Z" fill="#65C6E5"></path><path d="M212.2 86.1674L194.738 76.085V131.087L195.56 132.357L211.936 125.756L212.2 86.1674Z" fill="#428AA8"></path><path d="M194.746 81.4429L201.116 85.1216V104.006L194.742 100.325L194.746 81.4429Z" fill="#65C6E5"></path><path d="M194.739 100.325L188.363 96.6412V77.7593L194.743 81.443L194.739 100.325Z" fill="#428AA8"></path><path d="M189.438 80.1992V95.441L200.044 101.567V86.3231L189.438 80.1992Z" fill="white"></path><path d="M191.853 91.9033L189.32 93.36V95.6685L197.95 100.648V98.3506L195.42 93.9723L191.853 91.9033Z" fill="#7DD2E3"></path><path d="M196.853 93.0926L195.422 93.9723L191.855 91.9033L193.277 91.0269L196.853 93.0926Z" fill="#BAF3FF"></path><path d="M199.373 97.4681L197.953 98.3504L195.422 93.9721L196.852 93.0923L199.373 97.4681Z" fill="#6CB5C4"></path><path d="M199.37 99.7781L197.949 100.649V98.351L199.37 97.4688V99.7781Z" fill="#5F9FAD"></path><path d="M192.719 84.7769L190.906 85.8262V88.7873L192.719 91.9303L195.289 93.4133L197.103 92.3689V89.4021L195.289 86.2599L192.719 84.7769Z" fill="#7DD2E3"></path><path d="M196.028 85.7719L195.289 86.26L192.719 84.7769L193.463 84.2905L196.028 85.7719Z" fill="#BAF3FF"></path><path d="M197.848 88.9158L197.106 89.4022L195.293 86.26L196.032 85.772L197.848 88.9158Z" fill="#6CB5C4"></path><path d="M197.847 91.8796L197.105 92.3693V89.4024L197.847 88.916V91.8796Z" fill="#5F9FAD"></path><path d="M181.094 97.042L180.098 97.6156V102.213L181.094 103.944L208.281 119.643L209.282 119.065V114.47L208.281 112.733L181.094 97.042Z" fill="white"></path><path d="M183.106 101.575L182.452 100.447L181.535 99.9175L180.887 100.292V101.359L181.535 102.479L182.452 103.014L183.106 102.638V101.575Z" fill="#428AA8"></path><path d="M182.452 100.448L181.535 99.9175L182.021 99.6353L182.942 100.167L182.579 100.462L182.452 100.448Z" fill="#65C6E5"></path><path d="M183.104 101.575L182.449 100.448L182.939 100.167L183.596 101.294L183.218 101.621L183.104 101.575Z" fill="#377691"></path><path d="M183.105 102.639V101.575L183.598 101.294V102.357L183.105 102.639Z" fill="#2D5A78"></path><path d="M187.19 103.937L186.533 102.807L185.617 102.283L184.965 102.653V103.719L185.617 104.848L186.533 105.376L187.19 105V103.937Z" fill="#428AA8"></path><path d="M186.536 102.807L185.621 102.283L186.107 101.994L187.023 102.532L186.661 102.825L186.536 102.807Z" fill="#65C6E5"></path><path d="M187.193 103.937L186.535 102.807L187.022 102.532L187.68 103.66L187.309 103.984L187.193 103.937Z" fill="#377691"></path><path d="M187.191 105V103.937L187.679 103.66V104.719L187.191 105Z" fill="#2D5A78"></path><path d="M191.285 106.301L190.628 105.166L189.71 104.64L189.062 105.012V106.074L189.71 107.202L190.628 107.736L191.285 107.362V106.301Z" fill="#428AA8"></path><path d="M190.629 105.166L189.711 104.64L190.195 104.357L191.112 104.889L190.754 105.183L190.629 105.166Z" fill="#65C6E5"></path><path d="M191.282 106.301L190.625 105.166L191.108 104.889L191.767 106.021L191.391 106.349L191.282 106.301Z" fill="#377691"></path><path d="M191.289 107.362V106.301L191.775 106.021V107.079L191.289 107.362Z" fill="#2D5A78"></path><path d="M195.382 108.662L194.725 107.53L193.808 107L193.156 107.374V108.437L193.808 109.569L194.725 110.096L195.382 109.722V108.662Z" fill="#428AA8"></path><path d="M194.721 107.53L193.805 106.999L194.294 106.714L195.207 107.251L194.848 107.545L194.721 107.53Z" fill="#65C6E5"></path><path d="M195.384 108.662L194.727 107.53L195.212 107.251L195.872 108.375L195.497 108.708L195.384 108.662Z" fill="#377691"></path><path d="M195.383 109.722V108.662L195.871 108.375V109.44L195.383 109.722Z" fill="#2D5A78"></path><path d="M199.461 111.021L198.807 109.893L197.888 109.364L197.234 109.734V110.8L197.888 111.929L198.807 112.458L199.461 112.087V111.021Z" fill="#428AA8"></path><path d="M198.81 109.892L197.891 109.364L198.377 109.08L199.303 109.612L198.933 109.91L198.81 109.892Z" fill="#65C6E5"></path><path d="M199.463 111.021L198.809 109.892L199.302 109.612L199.952 110.737L199.576 111.07L199.463 111.021Z" fill="#377691"></path><path d="M199.461 112.087V111.021L199.95 110.737V111.806L199.461 112.087Z" fill="#2D5A78"></path><path d="M203.557 113.378L202.899 112.252L201.976 111.722L201.332 112.097V113.159L201.976 114.286L202.899 114.819L203.557 114.442V113.378Z" fill="#428AA8"></path><path d="M202.899 112.252L201.977 111.722L202.463 111.441L203.385 111.972L203.021 112.266L202.899 112.252Z" fill="#65C6E5"></path><path d="M203.56 113.378L202.902 112.252L203.388 111.972L204.044 113.1L203.67 113.431L203.56 113.378Z" fill="#377691"></path><path d="M203.559 114.442V113.378L204.043 113.101V114.168L203.559 114.442Z" fill="#2D5A78"></path><path d="M207.642 115.739L206.987 114.608L206.071 114.083L205.418 114.455V115.52L206.071 116.652L206.987 117.179L207.642 116.803V115.739Z" fill="#428AA8"></path><path d="M206.99 114.608L206.074 114.083L206.558 113.8L207.479 114.331L207.109 114.627L206.99 114.608Z" fill="#65C6E5"></path><path d="M207.643 115.74L206.988 114.608L207.477 114.331L208.132 115.46L207.758 115.788L207.643 115.74Z" fill="#377691"></path><path d="M207.645 116.804V115.74L208.133 115.46V116.527L207.645 116.804Z" fill="#2D5A78"></path><path d="M212.198 86.1675V123.918L194.737 131.087L177.256 103.739V65.9992L212.198 86.1675ZM214.275 84.9791L175.185 62.4126L173.848 63.1838L175.141 67.7884L174.523 103.761L194.737 134.238L211.444 127.371L212.929 126.992L214.275 126.21V84.9791Z" fill="#D1D1D1"></path><path d="M210.859 86.9495V124.692L193.385 131.865L175.917 104.515V66.7738L210.859 86.9495ZM212.929 85.7578L173.848 63.1831V104.42L193.385 135.011L212.929 126.991V85.7578Z" fill="white"></path><path opacity="0.3" d="M205.066 237.7L269.429 274.854L275.03 271.613L210.68 234.459L205.066 237.7Z" fill="black"></path><path d="M268.738 146.726L263.944 140.062L258.703 132.466L269.744 130.133L275.027 139.278L268.738 146.726Z" fill="#E0DEDC"></path><path d="M263.951 133.475L243.2 126.771L210.211 102.468L216.032 99.1147L269.74 130.133L263.951 133.475Z" fill="white"></path><path d="M269.217 265.707L260.668 177.067L269.239 142.619L275.021 139.279L275.023 262.352L269.217 265.707Z" fill="#D1D1D1"></path><path d="M268.245 142.852L263.304 134.047L210.228 103.545L205.723 106.044L205.895 228.303L210.726 237.259L263.988 267.952L268.563 264.942L268.245 142.852Z" fill="#544540"></path><path d="M229.758 245.375L244.328 253.791L244.327 242.967L229.754 234.561L229.758 245.375Z" fill="#403531"></path><path d="M232.063 238.567L242.009 244.309V249.79L232.055 244.039L232.063 238.567ZM231.488 237.565L231.492 244.388L242.59 250.787V243.966L231.488 237.565Z" fill="#EFCFA3"></path><path d="M248.148 247.434V253.755L259.05 260.04L259.053 253.713L248.148 247.434Z" fill="#403531"></path><path d="M215.04 234.63L225.935 240.939L225.926 234.598L215.023 228.303L215.04 234.63Z" fill="#403531"></path><path d="M268.563 253.191L267.721 254.259L206.455 218.896L205.723 216.589V116.736L206.449 115.337L267.733 150.713L268.563 152.539V223.649V253.191Z" fill="#29617D"></path><path d="M251.424 135.623L210.237 111.858L210.23 109.938L251.411 133.707L251.424 135.623Z" fill="#7DD2E3"></path><path d="M255.232 135.912L255.23 137.815L263.949 142.852L263.939 140.937L255.232 135.912Z" fill="#5F9FAD"></path><path d="M210.212 104.209L262.849 134.571L267.732 143.022L267.719 264.839L263.952 267.021L211.326 236.649L206.453 228.201L206.449 106.396L210.212 104.209ZM210.212 102.469L204.938 105.511L204.952 228.606L210.212 237.737L263.952 268.752L269.221 265.708L269.242 142.619L263.951 133.477L210.212 102.469Z" fill="#F4EFE9"></path><path d="M209.016 123.118V203.36L262.497 234.222V153.969L209.016 123.118Z" fill="#17435C"></path><path opacity="0.4" d="M213.496 131.497V200.252L257.807 225.839V157.088L213.496 131.497Z" fill="black"></path><path d="M233.601 186.054L235.36 177.873L234.232 176.938L232.541 184.857L226.287 190.406L220.297 190.98L220.878 192.462L227.059 191.871L233.601 186.054Z" fill="#65C6E5"></path><path d="M236.571 188.473L237.768 178.903L234.858 173.551L232.27 174.406L230.53 181.872L225.351 186.961L219.508 187.164L220.044 188.646L226.124 188.435L231.591 183.061L233.29 175.757L234.732 175.282L236.565 178.641L235.463 187.328L229.289 193.568L222.847 194.596L223.46 196.065L230.094 195.016L236.571 188.473Z" fill="#65C6E5"></path><path d="M229.724 179.969L231.358 172.806L234.997 171.462L237.596 172.961V171.636L234.59 169.892L230.327 171.468L228.65 178.822L224.618 183.721L218.723 183.799L219.247 185.285L225.415 185.2L229.724 179.969Z" fill="#65C6E5"></path><path d="M239.08 190.344L240.283 179.855L236.723 173.342L235.877 173.752L239.076 179.606L237.979 189.196L231.144 195.987L224.895 197.628L225.573 199.093L231.971 197.416L239.08 190.344Z" fill="#65C6E5"></path><path d="M244.269 194.469L244.323 194.395L245.958 183.716L243.031 176.515L239.854 172.761L239.435 170.577L234.658 166.305L228.37 168.606L227.143 175.714L223.206 179.725L218.754 179.318L219.204 180.8L223.95 181.231L228.231 176.874L229.426 169.933L234.921 167.924L238.484 171.096L239.505 176.494L241.665 181.531L240.416 191.267L234.362 200.167L227.025 200.983L227.612 202.46L235.215 201.616L241.529 192.338L242.862 181.907L240.575 176.57L240.214 174.692L242.219 177.057L244.754 183.298L243.223 193.308L236.727 202.701L231.53 203.594L232.155 205.071L237.592 204.141L244.269 194.469Z" fill="#65C6E5"></path><path d="M223.69 177.17L223.139 175.679L218.711 175.92L219.26 177.4L223.69 177.17Z" fill="#65C6E5"></path><path d="M246.635 196.813L248.035 183.975L243.614 173.752L242.137 170.3L234.151 162.582L226.732 166.253L224.78 173.343L221.836 172.102L218.164 171.976L218.654 173.456L222.166 173.581L225.688 175.072L227.761 167.56L234.431 164.256L241.394 170.983L242.655 173.927L246.846 183.614L245.519 195.761L239.252 205.394L235.571 205.918L236.177 207.4L240.116 206.844L246.635 196.813Z" fill="#65C6E5"></path><path d="M250.631 184.632L243.57 168.975L233.962 159.237L224.749 162.654L221.895 169.724L222.971 170.816L225.716 164.013L234.183 160.882L242.835 169.648L249.433 184.288L247.965 197.921L241.815 208.075L239.335 208.795L240.022 210.25L242.713 209.474L249.082 198.961L250.631 184.632Z" fill="#65C6E5"></path><path d="M244.791 167.437L233.607 155.959L221.949 160.546L218.949 168.024L220.023 169.115L222.918 161.901L233.828 157.604L244.062 168.115L251.671 184.561L250.05 200.452L244.275 209.703L245.295 210.913L251.118 201.582L251.167 201.493L252.858 184.886L244.791 167.437Z" fill="#65C6E5"></path><path d="M221.655 158.461L233.503 154L245.001 165.052L251.365 178.732L252.286 178.481L245.71 164.336L233.259 152.37L220.831 157.046L220.738 157.083L218.734 160.417L219.757 161.616L221.655 158.461Z" fill="#65C6E5"></path><path d="M233.054 150.919L245.779 162.966L251.571 174.776L252.468 174.475L246.465 162.218L232.792 149.28L218.871 154.984L219.618 156.426L233.054 150.919Z" fill="#65C6E5"></path><path d="M245.946 159.381L234.968 148.879L234.609 149.936L245.585 160.434L245.946 159.381Z" fill="#65C6E5"></path><path d="M244.888 155.875L239.859 151.143L239.512 152.21L244.544 156.943L244.888 155.875Z" fill="#65C6E5"></path><path d="M263.816 153.218L262.497 153.969L209.016 123.118L210.334 122.376L263.816 153.218Z" fill="#4290B8"></path><path d="M263.815 233.463L262.496 234.222V153.969L263.815 153.218V233.463Z" fill="#0E2836"></path><path d="M202.732 160.811L202.733 131.747L200.559 132.234L201.628 161.449L202.732 160.811Z" fill="#5F9FAD"></path><path d="M202.728 131.747L200.556 127.986L197.625 128.69L200.812 132.854L202.728 131.747Z" fill="#6CB5C4"></path><path d="M200.56 127.986L153.406 100.758L152.309 101.392L199.005 129.274L199.453 128.626L200.56 127.986Z" fill="#7DD2E3"></path><path d="M201.624 161.449L201.621 132.386L199.45 128.626L152.305 101.392L150.129 102.648L150.135 131.723L152.3 135.472L199.452 162.703L201.624 161.449Z" fill="#BAF3FF"></path><path d="M163.982 124.878L163.986 120.01L162.925 118.173L156.219 114.294L155.152 114.91L155.158 119.78L156.217 121.615L162.921 125.492L163.982 124.878Z" fill="#6CB5C4"></path><path d="M163.217 133.013V131.851L162.968 131.42L155.411 127.043L155.152 127.198L155.163 128.36L155.416 128.798L162.967 133.158L163.217 133.013Z" fill="#8CCCCB"></path><path d="M174.357 145.248L174.351 144.083L174.094 143.639L155.414 132.854L155.165 132.999L155.164 134.172L155.409 134.598L174.102 145.396L174.357 145.248Z" fill="#8CCCCB"></path><path d="M174.343 139.439L174.34 138.278L174.087 137.84L166.537 133.482L166.285 133.628L166.288 134.782L166.54 135.216L174.095 139.582L174.343 139.439Z" fill="#8CCCCB"></path><path d="M160.307 133.923L160.314 133.188L160.144 132.895L155.312 130.101L155.145 130.196L155.154 130.948L155.315 131.226L160.153 134.021L160.307 133.923Z" fill="#8CCCCB"></path><path d="M166.994 137.787L166.995 137.037L166.832 136.754L161.997 133.973L161.833 134.067L161.832 134.802L161.997 135.087L166.836 137.879L166.994 137.787Z" fill="#8CCCCB"></path><path d="M185.483 145.861L185.479 144.706L185.224 144.267L177.668 139.896L177.41 140.045L177.416 141.205L177.668 141.641L185.221 146.012L185.483 145.861Z" fill="#8CCCCB"></path><path d="M196.599 152.285L196.604 151.125L196.347 150.679L188.788 146.331L188.541 146.475L188.539 147.633L188.793 148.074L196.347 152.431L196.599 152.285Z" fill="#8CCCCB"></path><path d="M191.881 132.797L191.886 129.948L190.138 126.919L187.674 125.51L185.924 126.521L185.922 129.353L187.671 132.381L190.131 133.808L191.881 132.797Z" fill="#377691"></path><path d="M196.599 135.52L196.595 132.665L194.857 129.655L192.392 128.232L190.652 129.237L190.648 132.084L192.387 135.094L194.86 136.525L196.599 135.52Z" fill="#65C6E5"></path><path opacity="0.3" d="M202.026 269.891L212.737 276.077V284.821L202.026 291H186.865L176.148 284.821V276.077L186.865 269.891H202.026Z" fill="black"></path><path d="M191.691 273.854L192.203 275.648L189.591 278.886L187.895 280.275L186.642 282.937L185.177 284.26H182.453L181.762 280.099V279.353L189.591 273.854H191.691Z" fill="white"></path><path d="M203.111 278.321L209.251 280.371V281.12L208.933 283.232L204.927 284.852L192.699 285.435L191.163 284.276L190.684 281.42V280.682L200.745 277.419L203.111 278.321Z" fill="white"></path><path d="M189.591 273.112H191.691L192.203 274.913L189.591 278.141L187.895 279.544L186.642 282.171L185.177 283.51H182.453L181.762 279.353L182.386 274.235L189.591 273.112Z" fill="#BAF3FF"></path><path d="M193.778 227.704L193.151 238.536L191.48 249.394L190.625 253.346L189.744 272.856L187.925 276.082H182.776L181.297 273.284L180.195 256.998L181.611 247.303L179.492 224.795L193.778 227.704Z" fill="#418080"></path><path d="M200.745 276.668L203.111 277.586L208.276 278.52L209.251 280.371L208.933 282.498L204.927 284.109L192.699 284.687L191.163 283.538L190.684 280.682L192.203 276.502L200.745 276.668Z" fill="#BAF3FF"></path><path d="M204.927 222.411L205.853 236.633L205.578 249.028L205.853 252.415L200.745 276.668L198.705 279.087H193.683L191.548 276.503L193.227 258.822L195.83 251.758L189.971 231.336L179.492 224.795L178.547 219.44L193.59 218.125L204.927 222.411Z" fill="#389998"></path><path d="M178.357 209.953L180.118 210.48L180.88 213.308L179.24 219.572L178.357 219.959L175.345 217.172L174.113 212.957L176.357 210.718L178.357 209.953Z" fill="#F0C6B4"></path><path d="M173.707 180.882L174.543 177.762L176.861 175.92L180.121 175.254L183.021 176.097L181.657 187.937L177.956 198.108L178.374 209.746L178.241 211.624L176.215 212.958H174.116L170.746 204.659L170.921 199.086L173.707 180.882Z" fill="#FA5C52"></path><path d="M185.803 171.405L188.458 168.911L196.776 171.521L195.62 173.983V179.937L194.2 180.882H189.833L186.16 178.929L184.273 175.92L185.402 173.673L185.803 171.405Z" fill="#F0C6B4"></path><path d="M182.725 176.129L184.27 175.919L186.99 177.997L191.171 179.571L195.733 179.945L201.209 184.591L204.475 187.899L204.225 202.561L204.475 214.868L204.923 222.411L202.231 225.933L198.756 227.704H193.774L187.64 226.491L181.326 222.871L178.543 219.44L179.652 205.499L176.859 187.376V181.391L179.555 177.169L182.725 176.129Z" fill="white"></path><path d="M197.955 159.342L199.418 161.183L200.09 164.895L199.617 165.568L199.985 167.147L199.235 171.949L197.801 173.723L195.621 173.983L195.001 172.826L193.88 172.464L192.203 169.517L194.407 161.523L197.955 159.342Z" fill="#F0C6B4"></path><path d="M188.222 156.975L192.592 155.958L196.7 156.76L198.756 159.645L197.92 159.225L198.445 161.116L198.262 164.417L197.505 165.352L197.54 167.309L196.568 167.686L195.634 167.702L194.679 168.876L194.099 170.857L193.876 172.464L192.839 173.587L190.328 174.101L187.229 173.193L184.37 169.617L183.605 164.48L184.89 159.787L188.222 156.975Z" fill="#853E2A"></path><path d="M229.278 182.919L229.491 183.823L231.409 183.414L233.808 181.391H234.934L234.542 183.023L233.324 184.627L232.768 189.122L231.649 190.893L227.504 192.499L225.559 191.36L224.156 188.57L225.659 184.659L229.278 182.919Z" fill="#F0C6B4"></path><path d="M200.953 186.2L205.279 188.29L214.063 199.569L224.157 188.57L226.183 189.471L227.505 190.996V192.882L221.444 203.751L218.032 207.31L211.017 208.496L198.291 197.349L195.686 193.514L195.18 189.89L196.778 187.169L200.953 186.2Z" fill="#FA5C52"></path><path d="M216.824 203.689L214.062 199.569L218.079 203.316L216.824 203.689Z" fill="#AB281F"></path><path d="M303.253 123.346L301.918 124.119L251.289 94.8882L252.627 94.1138L303.253 123.346Z" fill="white"></path><path d="M303.249 164.751L301.914 165.523V124.119L303.249 123.347V164.751Z" fill="#D1D1D1"></path><path d="M251.289 136.29L301.918 165.523V124.119L251.289 94.8818V136.29Z" fill="#F4EFE9"></path><path d="M303.253 170.224L301.918 170.992L251.289 141.764L252.627 140.987L303.253 170.224Z" fill="white"></path><path d="M303.249 183.472L301.914 184.244V170.992L303.249 170.224V183.472Z" fill="#D1D1D1"></path><path d="M251.289 155.012L301.918 184.244V170.992L251.289 141.76V155.012Z" fill="#F4EFE9"></path><path d="M295.742 177.019V177.033L294.423 177.79L258.764 157.203L257.461 154.915V148.895L257.923 148.629L259.3 153.067L260.603 155.336L294.887 177.509L295.742 177.019Z" fill="#58595B"></path><path d="M295.744 170.996V177.019L294.89 177.509L259.226 156.921L257.926 154.65V148.629L258.766 148.137L294.425 168.715L295.744 170.996Z" fill="#D1D1D1"></path><path d="M261.784 153.863L260.924 152.383L259.716 151.688L258.871 152.179V153.575L259.716 155.05L260.924 155.751L261.784 155.259V153.863Z" fill="#58595B"></path><path d="M260.923 152.383L259.715 151.688L260.355 151.319L261.567 152.011L261.089 152.402L260.923 152.383Z" fill="#808285"></path><path d="M261.782 153.862L260.922 152.382L261.565 152.011L262.427 153.492L261.932 153.921L261.782 153.862Z" fill="#414042"></path><path d="M261.785 155.258V153.863L262.43 153.492V154.888L261.785 155.258Z" fill="#231F20"></path><path d="M267.144 156.962L266.285 155.475L265.079 154.787L264.223 155.273V156.667L265.079 158.152L266.285 158.849L267.144 158.351V156.962Z" fill="#58595B"></path><path d="M266.284 155.476L265.078 154.787L265.719 154.413L266.918 155.114L266.445 155.5L266.284 155.476Z" fill="#808285"></path><path d="M267.144 156.962L266.285 155.476L266.92 155.114L267.786 156.596L267.3 157.025L267.144 156.962Z" fill="#414042"></path><path d="M267.141 158.351V156.962L267.783 156.596V157.985L267.141 158.351Z" fill="#231F20"></path><path d="M272.518 160.062L271.656 158.571L270.453 157.881L269.598 158.371V159.764L270.453 161.244L271.656 161.944L272.518 161.45V160.062Z" fill="#58595B"></path><path d="M271.656 158.571L270.453 157.881L271.085 157.509L272.288 158.211L271.821 158.594L271.656 158.571Z" fill="#808285"></path><path d="M272.518 160.062L271.656 158.571L272.288 158.211L273.152 159.691L272.665 160.122L272.518 160.062Z" fill="#414042"></path><path d="M272.516 161.45V160.062L273.15 159.69V161.08L272.516 161.45Z" fill="#231F20"></path><path d="M277.884 163.162L277.019 161.675L275.816 160.983L274.965 161.472V162.864L275.816 164.346L277.019 165.04L277.884 164.546V163.162Z" fill="#58595B"></path><path d="M277.016 161.675L275.812 160.983L276.457 160.604L277.659 161.306L277.189 161.692L277.016 161.675Z" fill="#808285"></path><path d="M277.881 163.162L277.016 161.675L277.659 161.306L278.521 162.783L278.03 163.222L277.881 163.162Z" fill="#414042"></path><path d="M277.883 164.547V163.163L278.523 162.783V164.186L277.883 164.547Z" fill="#231F20"></path><path d="M283.238 166.253L282.379 164.772L281.173 164.078L280.316 164.562V165.96L281.173 167.44L282.379 168.139L283.238 167.647V166.253Z" fill="#58595B"></path><path d="M282.378 164.772L281.172 164.078L281.809 163.71L283.022 164.403L282.545 164.795L282.378 164.772Z" fill="#808285"></path><path d="M283.238 166.253L282.379 164.772L283.023 164.403L283.885 165.878L283.387 166.318L283.238 166.253Z" fill="#414042"></path><path d="M283.234 167.648V166.253L283.881 165.879V167.281L283.234 167.648Z" fill="#231F20"></path><path d="M293.749 128.735L290.018 129.146L280.516 121.648L282.761 120.901L295.032 127.981L293.749 128.735Z" fill="#E8F3FF"></path><path d="M298.517 130.209L296.948 131.749L293.746 126.964L295.028 126.218L298.517 130.209Z" fill="#E8F3FF"></path><path d="M298.519 147.784L297.247 148.533L295.488 136.846L297.247 130.958L298.519 130.208V147.784Z" fill="#A1B4BF"></path><path d="M290.644 125.452L289.359 126.201L288.605 124.901L289.205 123.815L290.644 123.688V125.452Z" fill="#A1B4BF"></path><path d="M282.761 120.901L281.483 121.648L280.516 120.72L281.085 119.298L282.761 119.136V120.901Z" fill="#A1B4BF"></path><path d="M290.646 123.688L289.361 124.43L287.091 124.288L285.871 122.412L287.143 121.664L290.646 123.688Z" fill="#E8F3FF"></path><path d="M282.758 119.136L281.48 119.884L279.184 120.581L277.988 119.839L279.272 119.091L282.758 119.136Z" fill="#E8F3FF"></path><path d="M293.747 126.964V128.735L289.359 126.201V124.43L285.868 122.412V124.182L281.48 121.648V119.884L277.988 119.839V137.42L287.608 152.486L297.245 148.533V130.958L293.747 126.964Z" fill="#C8DFE8"></path><path d="M288.883 128.643L279.492 123.505V137.648L287.343 150.041L288.883 149.063L289.449 130.634L288.883 128.643Z" fill="#65C6E5"></path><path d="M294.824 132.073L287.605 127.903V148.909L287.949 149.434L294.72 146.716L294.824 132.073Z" fill="#428AA8"></path><path d="M294.83 132.073V145.95L287.612 148.91L280.405 137.619V123.743L294.83 132.073ZM295.688 131.577L279.546 122.258L278.988 122.581L279.528 124.479L279.276 137.632L287.612 150.213L294.51 147.378L295.13 147.22L295.688 146.901V131.577Z" fill="#D1D1D1"></path><path d="M294.275 132.392V146.272L287.068 149.236L279.85 137.938V124.063L294.275 132.392ZM295.13 131.898L278.988 122.581V137.901L287.068 150.532L295.13 147.219V131.898Z" fill="white"></path><path d="M274.959 144.261L254.949 132.705V103.074L274.959 114.628V144.261Z" fill="#65C6E5"></path><path d="M256.633 106.904V130.822L273.278 140.433V116.513L256.633 106.904Z" fill="#F4EFE9"></path><path d="M260.436 125.27L256.469 127.555V131.177L270.008 138.991V135.386L266.037 128.515L260.436 125.27Z" fill="#428AA8"></path><path d="M268.28 127.133L266.039 128.516L260.438 125.27L262.674 123.892L268.28 127.133Z" fill="#65C6E5"></path><path d="M272.238 133.999L270.006 135.386L266.035 128.515L268.276 127.133L272.238 133.999Z" fill="#377691"></path><path d="M272.24 137.623L270.008 138.991V135.386L272.24 133.999V137.623Z" fill="#2D5A78"></path><path d="M261.787 114.085L258.941 115.733V120.381L261.787 125.312L265.82 127.638L268.667 125.998V121.344L265.82 116.415L261.787 114.085Z" fill="#428AA8"></path><path d="M266.979 115.651L265.822 116.415L261.789 114.086L262.954 113.323L266.979 115.651Z" fill="#65C6E5"></path><path d="M269.824 120.581L268.667 121.344L265.82 116.415L266.977 115.651L269.824 120.581Z" fill="#377691"></path><path d="M269.825 125.234L268.668 125.998V121.344L269.825 120.582V125.234Z" fill="#2D5A78"></path><path d="M303.253 117.519L301.918 118.289L251.289 89.0576L252.627 88.2832L303.253 117.519Z" fill="#4290B8"></path><path d="M303.249 122.278L301.914 123.048V118.289L303.249 117.519V122.278Z" fill="#0E2836"></path><path d="M301.918 118.289L251.289 89.0576V93.8137L301.918 123.048V118.289Z" fill="#17435C"></path><path d="M231.315 40.1651L220.594 33.9795L229.876 28.6152L240.589 34.814L231.315 40.1651Z" fill="white"></path><path d="M231.333 33.9922V40.1655L220.595 33.9799L213.027 38.3557V50.7278L220.595 63.8454L267.909 91.1572L275.48 86.7822V74.4094L267.909 61.2851L257.19 55.097V48.8982L249.607 35.8061L238.892 29.6172L231.333 33.9922Z" fill="white"></path><path d="M249.61 35.8061L238.895 29.6172L248.174 24.2554L258.893 30.4385L249.61 35.8061Z" fill="white"></path><path d="M267.911 61.2851L257.191 55.097L266.465 49.7451L277.193 55.9348L267.911 61.2851Z" fill="white"></path><path d="M257.189 48.8982L249.605 35.806L258.889 30.4385L266.462 43.5529L257.189 48.8982Z" fill="#E6E1DD"></path><path d="M275.481 74.4096L267.91 61.2853L277.192 55.9351L284.756 69.0527L275.481 74.4096Z" fill="#E6E1DD"></path><path d="M266.465 49.7416L257.191 55.0968V48.8981L266.465 43.5527V49.7416Z" fill="#D1D1D1"></path><path d="M284.752 81.427L275.477 86.7822V74.4093L284.752 69.0615V81.427Z" fill="#D1D1D1"></path><path d="M249.978 48.7784L244.91 49.3455L232.012 39.1708L236.159 37.5298L252.812 47.1415L249.978 48.7784Z" fill="#E8F3FF"></path><path d="M257.548 47.6227L254.333 50.3329L249.977 43.8353L252.811 42.1992L257.548 47.6227Z" fill="#E8F3FF"></path><path d="M257.547 74.032L254.719 75.6566L252.355 59.8L254.719 49.2633L257.547 47.623V74.032Z" fill="#A1B4BF"></path><path d="M246.848 43.7094L244.018 45.3464L242.086 42.0313L244.018 40.3944L246.848 38.7583V43.7094Z" fill="#A1B4BF"></path><path d="M236.156 37.5295L233.32 39.1705L231.402 35.8588L233.32 34.2186L236.156 32.585V37.5295Z" fill="#A1B4BF"></path><path d="M246.85 38.7584L244.02 40.3945L240.939 40.1995L239.289 37.6589L242.114 36.022L246.85 38.7584Z" fill="#E8F3FF"></path><path d="M236.155 32.585L233.319 34.2186L230.208 35.1758L228.578 34.1651L231.412 32.5249L236.155 32.585Z" fill="#E8F3FF"></path><path d="M249.974 43.8352V48.7781L244.018 45.3462V40.3943L239.287 37.6586V42.6081L233.319 39.1705V34.2185L228.578 34.165V60.574L241.655 81.0229L254.718 75.6562V49.2628L249.974 43.8352Z" fill="#C8DFE8"></path><path d="M230.57 61.0959L241.276 77.68V61.8737L230.976 55.6099L230.57 61.0959Z" fill="#65C6E5"></path><path d="M241.277 61.874L251.329 67.3996V53.393L241.277 47.623V61.874Z" fill="#428AA8"></path><path d="M230.688 39.9956L229.941 40.4326L230.662 43.0143L230.313 60.8576L241.646 77.9454L251.005 74.1012L251.842 73.8774L252.595 73.4494V52.6442L230.688 39.9956ZM251.431 67.1881L241.706 61.572V47.7021L251.431 53.3149V67.1881ZM241.646 76.1793L231.85 60.8445V42.0103L241.043 47.3178L241.011 47.3367L240.101 50.9315L241.011 61.972L245.952 67.2605L251.034 67.7609L251.431 67.5189V72.1557L241.646 76.1793Z" fill="#D1D1D1"></path><path d="M229.941 40.4326V61.2288L240.887 78.3758L251.842 73.8774V53.0853L229.941 40.4326ZM231.103 61.279V56.2522L241.011 61.972V48.1679L250.678 53.7462V67.5601L241.011 61.972V76.5611L240.888 76.6048L231.103 61.279Z" fill="white"></path><path d="M286.795 31.102L280.59 27.5195L285.96 24.416L292.16 28.0034L286.795 31.102Z" fill="white"></path><path d="M286.8 27.5258V31.1017L280.592 27.5192L276.211 30.0508V37.2116L280.592 44.8045L307.968 60.6084L312.349 58.0745V50.9169L307.968 43.3215L301.763 39.7341V36.1582L297.376 28.5784L291.181 24.9951L286.8 27.5258Z" fill="#F7F2E8"></path><path d="M297.374 28.5786L291.18 24.9953L296.546 21.8901L302.746 25.4702L297.374 28.5786Z" fill="white"></path><path d="M307.966 43.3219L301.762 39.7345L307.133 36.6475L313.335 40.2234L307.966 43.3219Z" fill="white"></path><path d="M301.766 36.1584L297.379 28.5787L302.751 25.4702L307.135 33.0598L301.766 36.1584Z" fill="#E6E1DD"></path><path d="M313.337 40.2164L307.969 43.3135L312.349 50.9063L317.718 47.8092L313.337 40.2164Z" fill="#E6E1DD"></path><path d="M307.131 36.6437L301.762 39.734V36.1581L307.131 33.0596V36.6437Z" fill="#D1D1D1"></path><path d="M317.707 54.9734L312.344 58.0745V50.9169L317.707 47.8208V54.9734Z" fill="#D1D1D1"></path><path d="M284.75 46.6538L284.406 45.058L286.806 44.1626V45.4679L284.75 46.6538Z" fill="#939598"></path><path d="M279.872 36.8894H279.35L278.742 36.2401L280.8 35.0566L281.923 35.701L279.872 36.8894Z" fill="#D1D3D4"></path><path d="M287.886 45.9028L287.094 44.5301L289.155 43.3384L289.947 44.7194L287.886 45.9028Z" fill="#A7A9AC"></path><path d="M287.094 44.53L287.417 43.8099L288.287 42.9655L289.471 42.6265L289.155 43.3384L287.094 44.53Z" fill="#939598"></path><path d="M281.691 40.1605L281.477 37.9738L283.742 37.0249V38.9688L283.013 39.6634L281.691 40.1605Z" fill="#939598"></path><path d="M284.372 43.2282L282.836 42.1435L283.434 41.3048L284.881 40.9575L285.845 41.5048L285.793 42.5113L284.372 43.2282Z" fill="#D1D3D4"></path><path d="M281.755 35.2771L281.241 34.8903L280.961 33.8953L283.018 32.7012L283.814 34.0822L281.755 35.2771Z" fill="#A7A9AC"></path><path d="M282.533 35.3508L281.75 35.2775L283.809 34.0825L284.595 34.1623L282.533 35.3508Z" fill="#D1D3D4"></path><path d="M287.419 43.8101L288.542 44.466V41.8983L287.419 41.2514L287.096 40.1692L287.888 39.7108L286.32 36.9932L285.529 37.4492L284.75 36.6295V35.325L282.536 34.0511V35.3506L281.754 35.2765L280.959 33.8955L279.395 34.8024L280.187 36.1834L279.872 36.8896L278.742 36.2402V38.8022L279.872 39.4523L280.187 40.5338L279.395 40.9946L280.959 43.7122L281.754 43.2546L282.536 44.0677V45.3697L284.75 46.6544V45.3466L285.529 45.4256L286.32 46.8099L287.888 45.903L287.096 44.5302L287.419 43.8101ZM285.605 42.4127L284.456 43.0793L282.838 42.1444L281.692 40.1618V38.2862L282.838 37.6253L284.456 38.561L285.605 40.5403V42.4127Z" fill="#BCBEC0"></path><path d="M284.75 35.3246L282.535 34.0506L284.598 32.8589L286.806 34.1411L284.75 35.3246Z" fill="#D1D3D4"></path><path d="M287.892 39.7112L286.324 36.9937L288.385 35.811L289.953 38.5195L287.892 39.7112Z" fill="#D1D3D4"></path><path d="M288.539 44.466V41.8983L290.597 40.7197V43.2735L288.539 44.466Z" fill="#939598"></path><path d="M284.754 36.6303V35.3251L286.81 34.1416V35.446L284.754 36.6303Z" fill="#939598"></path><path d="M287.417 41.2511L287.094 40.1688L289.155 38.9829L289.471 40.0619L287.417 41.2511Z" fill="#A7A9AC"></path><path d="M282.842 42.1435L281.695 40.1609L283.746 38.9692L284.887 40.9576L282.842 42.1435Z" fill="#A7A9AC"></path><path d="M285.533 37.4498L284.754 36.6301L286.81 35.4458L287.593 36.2597L285.533 37.4498Z" fill="#A7A9AC"></path><path d="M288.545 41.8981L287.422 41.2512L289.475 40.062L290.603 40.7196L288.545 41.8981Z" fill="#D1D3D4"></path><path d="M293.012 51.9226L292.77 50.8206L294.443 50.1968V51.1004L293.012 51.9226Z" fill="#5F9FAD"></path><path d="M289.62 45.1319H289.257L288.836 44.685L290.268 43.8579L291.051 44.3097L289.62 45.1319Z" fill="#BAF3FF"></path><path d="M296.087 49.6336L294.656 50.4565L295.207 51.4147L296.638 50.5917L296.087 49.6336Z" fill="#6CB5C4"></path><path d="M294.648 50.4447L294.872 49.9468L295.47 49.3658L296.298 49.1255L296.081 49.6193L294.648 50.4447Z" fill="#5F9FAD"></path><path d="M290.885 47.406L290.738 45.886L292.311 45.2251V46.5806L291.805 47.0604L290.885 47.406Z" fill="#5F9FAD"></path><path d="M292.756 49.5434L291.684 48.7895L292.107 48.1994L293.11 47.9624L293.772 48.3459L293.74 49.0389L292.756 49.5434Z" fill="#BAF3FF"></path><path d="M290.929 44.0159L290.574 43.7468L290.379 43.0473L291.812 42.2251L292.365 43.1855L290.929 44.0159Z" fill="#6CB5C4"></path><path d="M291.478 44.067L290.934 44.0159L292.369 43.1855L292.914 43.2357L291.478 44.067Z" fill="#BAF3FF"></path><path d="M294.872 49.9472L295.657 50.4015V48.6189L294.872 48.167L294.649 47.4157L295.208 47.0939L294.11 45.2034L293.557 45.5203L293.013 44.9533V44.0439L291.474 43.1624V44.0661L290.929 44.015L290.378 43.0464L289.287 43.6817L289.842 44.6389L289.62 45.1302L288.836 44.6833V46.4635L289.62 46.9128L289.842 47.6691L289.287 47.9885L290.378 49.878L290.929 49.5563L291.474 50.1233V51.0335L293.013 51.9207V51.0195L293.557 51.0763L294.11 52.031L295.199 51.4006L294.649 50.4434L294.872 49.9472ZM293.606 48.9785L292.807 49.4419L291.682 48.7884L290.883 47.405V46.0997L291.682 45.6421L292.807 46.2914L293.606 47.6732V48.9785Z" fill="#7DD2E3"></path><path d="M293.012 44.0443L291.473 43.1629L292.908 42.335L294.444 43.2221L293.012 44.0443Z" fill="#BAF3FF"></path><path d="M295.206 47.0948L294.109 45.2052L295.542 44.374L296.628 46.2669L295.206 47.0948Z" fill="#BAF3FF"></path><path d="M295.656 50.4027V48.6201L297.082 47.7905V49.5805L295.656 50.4027Z" fill="#5F9FAD"></path><path d="M293.016 44.9542V44.0448L294.447 43.2227V44.1288L293.016 44.9542Z" fill="#5F9FAD"></path><path d="M294.872 48.1677L294.648 47.4163L296.081 46.5884L296.298 47.3398L294.872 48.1677Z" fill="#6CB5C4"></path><path d="M292.306 46.5835L290.879 47.4077L291.677 48.7904L293.105 47.9662L292.306 46.5835Z" fill="#6CB5C4"></path><path d="M293.559 45.5214L293.016 44.9544L294.447 44.1289L294.99 44.6935L293.559 45.5214Z" fill="#6CB5C4"></path><path d="M295.66 48.6196L294.875 48.1678L296.3 47.3398L297.086 47.79L295.66 48.6196Z" fill="#BAF3FF"></path><path d="M293.837 44.0276L293.441 42.2738L296.109 41.2812V42.7166L293.837 44.0276Z" fill="#2D5A78"></path><path d="M288.426 33.2343H287.853L287.18 32.5142L289.459 31.1982L290.702 31.9093L288.426 33.2343Z" fill="#65C6E5"></path><path d="M297.31 43.1993L296.426 41.6768L298.701 40.3633L299.587 41.894L297.31 43.1993Z" fill="#377691"></path><path d="M296.426 41.6776L296.786 40.8818L297.743 39.9485L299.059 39.5757L298.701 40.3641L296.426 41.6776Z" fill="#2D5A78"></path><path d="M290.441 36.8444L290.215 34.4256L292.721 33.3779V35.5276L291.909 36.2987L290.441 36.8444Z" fill="#2D5A78"></path><path d="M293.419 40.2452L291.711 39.0362L292.379 38.1128L293.985 37.731L295.039 38.3391L294.995 39.4436L293.419 40.2452Z" fill="#65C6E5"></path><path d="M290.521 31.4375L289.952 31.0194L289.637 29.9068L291.91 28.5933L292.795 30.1273L290.521 31.4375Z" fill="#377691"></path><path d="M291.373 31.5277L290.516 31.4372L292.789 30.127L293.65 30.2093L291.373 31.5277Z" fill="#65C6E5"></path><path d="M296.787 40.8816L298.032 41.6125V38.7797L296.787 38.0563L296.427 36.8597L297.312 36.3453L295.572 33.3455L294.694 33.8541L293.838 32.9422V31.5045L291.378 30.0865V31.53L290.519 31.4395L289.636 29.9087L287.904 30.9144L288.782 32.4402L288.426 33.2369L287.18 32.5168V35.347L288.426 36.0655L288.782 37.2654L287.904 37.7765L289.636 40.7821L290.519 40.271L291.378 41.1796V42.6149L293.838 44.0296V42.5943L294.694 42.6766L295.572 44.2041L297.312 43.2017L296.427 41.6791L296.787 40.8816ZM294.774 39.3443L293.505 40.0784L291.711 39.0365L290.44 36.844V34.7734L291.711 34.0418L293.505 35.0763L294.774 37.2728V39.3443Z" fill="#428AA8"></path><path d="M293.84 31.5035L291.379 30.0846L293.655 28.7744L296.111 30.1842L293.84 31.5035Z" fill="#65C6E5"></path><path d="M297.31 36.3441L295.57 33.3443L297.844 32.0308L299.586 35.0363L297.31 36.3441Z" fill="#65C6E5"></path><path d="M298.031 41.612V38.7784L300.308 37.46V40.2952L298.031 41.612Z" fill="#2D5A78"></path><path d="M293.84 32.9411V31.5033L296.111 30.1841V31.621L293.84 32.9411Z" fill="#2D5A78"></path><path d="M296.786 38.0549L296.426 36.8583L298.701 35.5415L299.059 36.7455L296.786 38.0549Z" fill="#377691"></path><path d="M291.713 39.0362L290.441 36.8446L292.721 35.5278L293.987 37.731L291.713 39.0362Z" fill="#377691"></path><path d="M294.696 33.853L293.84 32.9412L296.111 31.6211L296.969 32.5371L294.696 33.853Z" fill="#377691"></path><path d="M298.03 38.7784L296.785 38.055L299.058 36.7456L300.307 37.46L298.03 38.7784Z" fill="#65C6E5"></path><path d="M302.442 56.4451L302.059 54.753L304.625 53.7959V55.1827L302.442 56.4451Z" fill="#17435C"></path><path d="M297.226 46.0446H296.675L296.02 45.3459L298.214 44.0776L299.414 44.7788L297.226 46.0446Z" fill="#4290B8"></path><path d="M307.113 52.921L304.926 54.1895L305.778 55.6581L307.965 54.3896L307.113 52.921Z" fill="#275C78"></path><path d="M304.93 54.1788L305.273 53.4242L306.194 52.518L307.462 52.1567L307.12 52.9131L304.93 54.1788Z" fill="#17435C"></path><path d="M299.161 49.522L298.938 47.1995L301.351 46.1938V48.267L300.578 48.9937L299.161 49.522Z" fill="#17435C"></path><path d="M302.029 52.795L300.391 51.6428L301.029 50.7417L302.584 50.3804L303.593 50.9622L303.549 52.0321L302.029 52.795Z" fill="#4290B8"></path><path d="M299.243 44.3156L298.686 43.9115L298.391 42.8466L300.581 41.5898L301.423 43.0474L299.243 44.3156Z" fill="#275C78"></path><path d="M300.068 44.4061L299.246 44.3156L301.426 43.0474L302.265 43.1321L300.068 44.4061Z" fill="#4290B8"></path><path d="M305.277 53.4241L306.475 54.1129V51.379L305.277 50.6901L304.934 49.5322L305.786 49.0499L304.105 46.1456L303.265 46.6427L302.44 45.7695V44.3737L300.068 43.01V44.4058L299.246 44.3152L298.393 42.8462L296.723 43.8083L297.577 45.2806L297.226 46.0435L296.02 45.3456V48.0771L297.226 48.766L297.577 49.9215L296.723 50.4185L298.393 53.3081L299.246 52.8192L300.068 53.6949V55.0759L302.44 56.4437V55.0627L303.265 55.1417L304.105 56.6107L305.786 55.6478L304.934 54.1788L305.277 53.4241ZM303.342 51.9304L302.117 52.6398L300.39 51.6423L299.164 49.5215V47.5241L300.39 46.8188L302.117 47.8212L303.342 49.9404V51.9304Z" fill="#29617D"></path><path d="M302.442 44.3737L300.07 43.01L302.267 41.7476L304.626 43.1146L302.442 44.3737Z" fill="#4290B8"></path><path d="M305.791 49.0501L304.109 46.1458L306.301 44.8833L307.978 47.7786L305.791 49.0501Z" fill="#4290B8"></path><path d="M306.473 54.1141V51.3801L308.667 50.1226V52.8491L306.473 54.1141Z" fill="#17435C"></path><path d="M302.441 45.7697V44.3739L304.625 43.1147V44.499L302.441 45.7697Z" fill="#17435C"></path><path d="M305.273 50.6904L304.93 49.5325L307.12 48.27L307.462 49.4222L305.273 50.6904Z" fill="#275C78"></path><path d="M300.39 51.6425L299.164 49.5217L301.354 48.2666L302.583 50.38L300.39 51.6425Z" fill="#275C78"></path><path d="M303.267 46.6429L302.441 45.7697L304.625 44.499L305.449 45.3772L303.267 46.6429Z" fill="#275C78"></path><path d="M306.475 51.3803L305.277 50.6906L307.467 49.4224L308.669 50.1227L306.475 51.3803Z" fill="#4290B8"></path><path d="M312.437 76.2898L303.812 71.3107L311.279 66.9858L319.906 71.9798L312.437 76.2898Z" fill="white"></path><path d="M312.444 71.3127V76.2894L303.81 71.3103L297.711 74.8253V84.7917L303.81 95.3507L341.893 117.326L347.983 113.805V103.851L341.893 93.2833L333.261 88.3001V83.3169L327.156 72.7776L318.538 67.7944L312.444 71.3127Z" fill="#F7F2E8"></path><path d="M327.154 72.7777L318.535 67.7945L326.001 63.4771L334.625 68.4537L327.154 72.7777Z" fill="white"></path><path d="M341.894 93.2835L333.262 88.3003L340.73 83.9985L349.356 88.976L341.894 93.2835Z" fill="white"></path><path d="M333.265 83.3168L327.16 72.7776L334.631 68.4536L340.73 79.0101L333.265 83.3168Z" fill="#E6E1DD"></path><path d="M347.985 103.851L341.895 93.2831L349.357 88.9756L355.448 99.5346L347.985 103.851Z" fill="#E6E1DD"></path><path d="M340.727 83.996L333.262 88.3002V83.317L340.727 79.0103V83.996Z" fill="#D1D1D1"></path><path d="M355.448 109.494L347.984 113.805V103.851L355.448 99.5439V109.494Z" fill="#D1D1D1"></path><path d="M309.59 97.9212L309.109 95.7082L312.453 94.4531V96.2686L309.59 97.9212Z" fill="#939598"></path><path d="M302.807 84.3384H302.075L301.234 83.4372L304.094 81.7896L305.66 82.6899L302.807 84.3384Z" fill="#D1D3D4"></path><path d="M313.952 96.8742L312.852 94.9632L315.718 93.3057L316.819 95.2364L313.952 96.8742Z" fill="#A7A9AC"></path><path d="M312.852 94.963L313.302 93.9614L314.507 92.7862L316.157 92.313L315.718 93.3055L312.852 94.963Z" fill="#939598"></path><path d="M305.331 88.8861L305.039 85.8435L308.185 84.5283V87.2327L307.17 88.1989L305.331 88.8861Z" fill="#939598"></path><path d="M309.063 93.1564L306.926 91.6478L307.766 90.4775L309.779 89.9985L311.117 90.7565L311.051 92.1548L309.063 93.1564Z" fill="#D1D3D4"></path><path d="M305.416 82.0897L304.703 81.5605L304.312 80.173L307.178 78.5146L308.285 80.4322L305.416 82.0897Z" fill="#A7A9AC"></path><path d="M306.515 82.195L305.422 82.0896L308.291 80.4321L309.381 80.5441L306.515 82.195Z" fill="#D1D3D4"></path><path d="M313.305 93.9616L314.868 94.8784V91.3025L313.305 90.4055L312.855 88.8961L313.955 88.2624L311.778 84.4807L310.675 85.1111L309.593 83.9762V82.1624L306.512 80.3872V82.1945L305.419 82.0899L304.316 80.1724L302.139 81.434L303.24 83.3524L302.807 84.3384L301.234 83.4372V86.9966L302.807 87.8978L303.24 89.4063L302.139 90.054L304.316 93.8258L305.419 93.1921L306.512 94.3262V96.1335L309.593 97.921V96.1047L310.675 96.2117L311.778 98.1358L313.955 96.8742L312.855 94.9632L313.305 93.9616ZM310.779 92.0185L309.183 92.951L306.925 91.6482L305.334 88.887V86.2814L306.925 85.3589L309.183 86.6617L310.779 89.4137V92.0185Z" fill="#BCBEC0"></path><path d="M309.592 82.1633L306.512 80.3881L309.378 78.7339L312.455 80.5148L309.592 82.1633Z" fill="#D1D3D4"></path><path d="M313.954 88.2625L311.777 84.4808L314.645 82.8315L316.821 86.6017L313.954 88.2625Z" fill="#D1D3D4"></path><path d="M314.871 94.8772V91.3021L317.736 89.6636V93.2164L314.871 94.8772Z" fill="#939598"></path><path d="M309.594 83.9762V82.1631L312.457 80.5146V82.331L309.594 83.9762Z" fill="#939598"></path><path d="M313.302 90.4046L312.852 88.896L315.718 87.2451L316.157 88.7479L313.302 90.4046Z" fill="#A7A9AC"></path><path d="M306.927 91.6478L305.336 88.8858L308.189 87.2324L309.78 89.9985L306.927 91.6478Z" fill="#A7A9AC"></path><path d="M310.677 85.1111L309.594 83.9762L312.457 82.3311L313.541 83.466L310.677 85.1111Z" fill="#A7A9AC"></path><path d="M314.868 91.3021L313.305 90.4042L316.16 88.7476L317.733 89.6636L314.868 91.3021Z" fill="#D1D3D4"></path><path d="M321.081 105.253L320.738 103.714L323.068 102.844V104.105L321.081 105.253Z" fill="#5F9FAD"></path><path d="M316.359 95.7998H315.853L315.262 95.1818L317.257 94.0312L318.347 94.6584L316.359 95.7998Z" fill="#BAF3FF"></path><path d="M324.114 104.53L323.352 103.195L325.344 102.045L326.107 103.382L324.114 104.53Z" fill="#6CB5C4"></path><path d="M323.352 103.196L323.659 102.505L324.491 101.686L325.647 101.357L325.344 102.045L323.352 103.196Z" fill="#5F9FAD"></path><path d="M318.117 98.9667L317.91 96.8524L320.1 95.9331V97.8161L319.396 98.4852L318.117 98.9667Z" fill="#5F9FAD"></path><path d="M320.723 101.941L319.23 100.894L319.825 100.073L321.215 99.7407L322.137 100.27L322.095 101.24L320.723 101.941Z" fill="#BAF3FF"></path><path d="M318.177 94.2439L317.683 93.876L317.41 92.9057L319.407 91.7617L320.175 93.0966L318.177 94.2439Z" fill="#6CB5C4"></path><path d="M318.94 94.3196L318.18 94.2439L320.177 93.0967L320.933 93.1658L318.94 94.3196Z" fill="#BAF3FF"></path><path d="M323.66 102.505L324.757 103.136V100.653L323.66 100.025L323.353 98.9827L324.129 98.5367L322.606 95.9089L321.832 96.3492L321.082 95.5533V94.2917L318.939 93.0613V94.3197L318.178 94.244L317.411 92.9058L315.894 93.7872L316.67 95.1188L316.359 95.8002L315.262 95.1822V97.6585L316.359 98.2865L316.67 99.335L315.894 99.7794L317.411 102.406L318.178 101.963L318.939 102.749V104.014L321.082 105.253V103.995L321.832 104.073L322.606 105.402L324.115 104.53L323.353 103.196L323.66 102.505ZM321.906 101.156L320.792 101.797L319.227 100.894L318.117 98.9663V97.1532L319.227 96.5129L320.792 97.4166L321.906 99.3407V101.156Z" fill="#7DD2E3"></path><path d="M321.084 94.2916L318.941 93.0612L320.934 91.9106L323.07 93.1468L321.084 94.2916Z" fill="#BAF3FF"></path><path d="M324.128 98.5356L322.605 95.9078L324.595 94.7515L326.107 97.3817L324.128 98.5356Z" fill="#BAF3FF"></path><path d="M324.758 103.135V100.653L326.743 99.5024V101.994L324.758 103.135Z" fill="#5F9FAD"></path><path d="M321.082 95.5526V94.2918L323.069 93.147V94.4119L321.082 95.5526Z" fill="#5F9FAD"></path><path d="M323.659 100.026L323.352 98.9829L325.344 97.8291L325.647 98.8751L323.659 100.026Z" fill="#6CB5C4"></path><path d="M319.227 100.894L318.117 98.9669L320.101 97.8164L321.211 99.7406L319.227 100.894Z" fill="#6CB5C4"></path><path d="M321.832 96.3486L321.082 95.5528L323.069 94.4121L323.823 95.1981L321.832 96.3486Z" fill="#6CB5C4"></path><path d="M324.757 100.653L323.66 100.026L325.649 98.875L326.742 99.5029L324.757 100.653Z" fill="#BAF3FF"></path><path d="M322.235 94.2691L321.68 91.8281L325.391 90.4463V92.447L322.235 94.2691Z" fill="#2D5A78"></path><path d="M314.704 79.2543H313.905L312.973 78.2527L316.137 76.4199L317.869 77.4149L314.704 79.2543Z" fill="#65C6E5"></path><path d="M327.063 93.1165L325.832 90.9957L328.997 89.1694L330.23 91.3035L327.063 93.1165Z" fill="#377691"></path><path d="M325.832 90.9952L326.33 89.8949L327.665 88.5962L329.494 88.0728L328.997 89.169L325.832 90.9952Z" fill="#2D5A78"></path><path d="M317.502 84.2755L317.191 80.9119L320.672 79.4561V82.4427L319.546 83.5142L317.502 84.2755Z" fill="#2D5A78"></path><path d="M321.647 89.0078L319.273 87.3281L320.203 86.0409L322.434 85.5117L323.9 86.3578L323.837 87.8951L321.647 89.0078Z" fill="#65C6E5"></path><path d="M317.611 76.76L316.82 76.1708L316.379 74.6301L319.544 72.7998L320.774 74.9338L317.611 76.76Z" fill="#377691"></path><path d="M318.812 76.88L317.613 76.7598L320.776 74.9336L321.973 75.0439L318.812 76.88Z" fill="#65C6E5"></path><path d="M326.329 89.8949L328.061 90.9064V86.9659L326.329 85.9577L325.831 84.2903L327.062 83.5768L324.644 79.4018L323.422 80.1087L322.232 78.8438V76.8439L318.812 74.8753V76.8785L317.614 76.7583L316.381 74.6284L313.977 76.0218L315.196 78.1426L314.704 79.252L312.973 78.2504V82.1868L314.704 83.1859L315.196 84.8557L313.977 85.566L316.381 89.7443L317.614 89.0374L318.812 90.3023V92.2964L322.232 94.2675V92.275L323.422 92.3828L324.644 94.5086L327.062 93.1145L325.831 90.9936L326.329 89.8949ZM323.528 87.7527L321.768 88.7765L319.274 87.328L317.502 84.2755V81.3934L319.274 80.3828L321.768 81.8123L323.528 84.8771V87.7527Z" fill="#428AA8"></path><path d="M322.233 76.8455L318.812 74.8769L321.973 73.0474L325.388 75.0127L322.233 76.8455Z" fill="#65C6E5"></path><path d="M327.059 83.5775L324.641 79.4024L327.803 77.5869L330.225 81.762L327.059 83.5775Z" fill="#65C6E5"></path><path d="M328.062 90.9063V86.9658L331.227 85.1338V89.0767L328.062 90.9063Z" fill="#2D5A78"></path><path d="M322.23 78.8454V76.8455L325.386 75.0127V77.0159L322.23 78.8454Z" fill="#2D5A78"></path><path d="M326.33 85.9589L325.832 84.2915L328.997 82.4653L329.494 84.1426L326.33 85.9589Z" fill="#377691"></path><path d="M319.273 87.3281L317.5 84.2757L320.67 82.4429L322.433 85.5118L319.273 87.3281Z" fill="#377691"></path><path d="M323.421 80.1106L322.23 78.8456L325.386 77.0161L326.582 78.2843L323.421 80.1106Z" fill="#377691"></path><path d="M328.061 86.9663L326.328 85.9589L329.493 84.1426L331.226 85.1343L328.061 86.9663Z" fill="#65C6E5"></path><path d="M334.193 111.538L333.656 109.184L337.234 107.852V109.783L334.193 111.538Z" fill="#17435C"></path><path d="M326.943 97.0742H326.173L325.266 96.1047L328.319 94.3394L329.986 95.3088L326.943 97.0742Z" fill="#4290B8"></path><path d="M338.843 110.433L337.66 108.385L340.706 106.628L341.895 108.669L338.843 110.433Z" fill="#275C78"></path><path d="M337.66 108.384L338.139 107.335L339.426 106.073L341.183 105.576L340.706 106.628L337.66 108.384Z" fill="#17435C"></path><path d="M329.639 101.912L329.324 98.6781L332.685 97.2773V100.159L331.613 101.173L329.639 101.912Z" fill="#17435C"></path><path d="M333.62 106.463L331.34 104.863L332.229 103.608L334.387 103.104L335.792 103.912L335.733 105.402L333.62 106.463Z" fill="#4290B8"></path><path d="M329.748 94.6685L328.974 94.1047L328.562 92.6242L331.611 90.877L332.784 92.9056L329.748 94.6685Z" fill="#275C78"></path><path d="M330.893 94.7883L329.754 94.6681L332.791 92.9053L333.953 93.023L330.893 94.7883Z" fill="#4290B8"></path><path d="M338.139 107.335L339.809 108.296V104.495L338.139 103.535L337.66 101.928L338.842 101.25L336.505 97.214L335.339 97.9053L334.191 96.6947V94.7516L330.89 92.8563V94.7895L329.75 94.6693L328.566 92.625L326.242 93.9624L327.426 96.0141L326.942 97.0757L325.266 96.1054V99.9027L326.942 100.863L327.426 102.474L326.242 103.162L328.566 107.178L329.75 106.496L330.89 107.719V109.641L334.191 111.54V109.62L335.339 109.731L336.505 111.775L338.842 110.435L337.66 108.385L338.139 107.335ZM335.451 105.259L333.739 106.245L331.343 104.863L329.637 101.912V99.1357L331.343 98.1497L333.739 99.5447L335.451 102.492V105.259Z" fill="#29617D"></path><path d="M334.192 94.7516L330.891 92.8554L333.951 91.0991L337.233 92.9978L334.192 94.7516Z" fill="#4290B8"></path><path d="M338.84 101.25L336.504 97.2131L339.556 95.4609L341.893 99.487L338.84 101.25Z" fill="#4290B8"></path><path d="M339.809 108.296V104.494L342.859 102.74V106.54L339.809 108.296Z" fill="#17435C"></path><path d="M334.191 96.6949V94.7519L337.232 92.998V94.9222L334.191 96.6949Z" fill="#17435C"></path><path d="M338.139 103.535L337.66 101.927L340.706 100.172L341.183 101.769L338.139 103.535Z" fill="#275C78"></path><path d="M332.701 100.147L329.656 101.907L331.361 104.856L334.405 103.096L332.701 100.147Z" fill="#275C78"></path><path d="M335.339 97.9052L334.191 96.6946L337.232 94.9219L338.38 96.1457L335.339 97.9052Z" fill="#275C78"></path><path d="M339.807 104.494L338.137 103.534L341.18 101.769L342.857 102.739L339.807 104.494Z" fill="#4290B8"></path><path d="M172.255 20.2967L165.984 16.6838L171.405 13.5474L177.672 17.1694L172.255 20.2967Z" fill="white"></path><path d="M172.256 16.6895V20.2967L165.983 16.6838L161.555 19.2367V26.4749L165.983 34.1427L193.64 50.1038L198.061 47.5485V40.3152L193.64 32.6449L187.371 29.0254V25.4034L182.942 17.7496L176.681 14.1309L172.256 16.6895Z" fill="#F7F2E8"></path><path d="M182.944 16.7494L176.684 13.1307L182.105 10L188.365 13.6113L182.944 16.7494Z" fill="white"></path><path d="M193.64 32.6445L187.371 29.0249L192.8 25.9033L199.063 29.508L193.64 32.6445Z" fill="white"></path><path d="M187.371 25.4032L182.941 17.7494L188.362 14.6113L192.794 22.275L187.371 25.4032Z" fill="#E6E1DD"></path><path d="M199.06 29.5175L193.633 32.645L198.054 40.3166L203.481 37.1891L199.06 29.5175Z" fill="#E6E1DD"></path><path d="M192.795 25.8949L187.371 29.0256V25.4036L192.795 22.2754V25.8949Z" fill="#D1D1D1"></path><path d="M203.486 44.4122L198.062 47.5486V40.3153L203.486 37.1904V44.4122Z" fill="#D1D1D1"></path><path d="M170.182 36.0074L169.832 34.4001L172.262 33.4907V34.8116L170.182 36.0074Z" fill="#939598"></path><path d="M165.253 26.1465H164.72L164.109 25.4938L166.191 24.2964L167.322 24.9457L165.253 26.1465Z" fill="#D1D3D4"></path><path d="M173.346 35.2533L172.551 33.8599L174.632 32.6592L175.43 34.0583L173.346 35.2533Z" fill="#A7A9AC"></path><path d="M172.551 33.8598L172.878 33.1389L173.752 32.2788L174.95 31.9414L174.632 32.6591L172.551 33.8598Z" fill="#939598"></path><path d="M167.082 29.451L166.867 27.2413L169.158 26.2891V28.2445L168.42 28.9523L167.082 29.451Z" fill="#939598"></path><path d="M169.791 32.551L168.242 31.4556L168.848 30.6063L170.312 30.2573L171.281 30.8095L171.232 31.8243L169.791 32.551Z" fill="#D1D3D4"></path><path d="M167.151 24.5145L166.637 24.131L166.348 23.1237L168.426 21.9155L169.233 23.3097L167.151 24.5145Z" fill="#A7A9AC"></path><path d="M167.942 24.5934L167.152 24.5144L169.235 23.3096L170.02 23.3902L167.942 24.5934Z" fill="#D1D3D4"></path><path d="M172.877 33.1387L174.011 33.7995V31.2038L172.877 30.5553L172.551 29.4541L173.346 28.999L171.765 26.2519L170.968 26.7095L170.179 25.8865V24.5656L167.94 23.2759V24.5935L167.151 24.5145L166.348 23.1245L164.769 24.0372L165.568 25.4297L165.253 26.1474L164.109 25.4947V28.083L165.253 28.7324L165.568 29.827L164.769 30.2961L166.348 33.0383L167.151 32.5774L167.94 33.4012V34.7164L170.179 36.0093V34.6941L170.968 34.774L171.765 36.1689L173.346 35.2546L172.551 33.8621L172.877 33.1387ZM171.041 31.7272L169.879 32.3988L168.244 31.4557L167.083 29.4508V27.5563L168.244 26.8872L169.879 27.8337L171.041 29.8319V31.7272Z" fill="#BCBEC0"></path><path d="M170.181 24.5656L167.941 23.2759L170.02 22.0752L172.261 23.3706L170.181 24.5656Z" fill="#D1D3D4"></path><path d="M173.347 28.9996L171.766 26.2525L173.847 25.0542L175.43 27.7898L173.347 28.9996Z" fill="#D1D3D4"></path><path d="M174.012 33.7993V31.2035L176.091 30.0151V32.596L174.012 33.7993Z" fill="#939598"></path><path d="M170.18 25.8865V24.5656L172.26 23.3706V24.6882L170.18 25.8865Z" fill="#939598"></path><path d="M172.878 30.5554L172.551 29.4543L174.632 28.2593L174.95 29.3514L172.878 30.5554Z" fill="#A7A9AC"></path><path d="M168.247 31.4555L167.086 29.4506L169.162 28.2441L170.317 30.2572L168.247 31.4555Z" fill="#A7A9AC"></path><path d="M170.968 26.7106L170.18 25.8868L172.26 24.6885L173.046 25.5123L170.968 26.7106Z" fill="#A7A9AC"></path><path d="M174.013 31.2041L172.879 30.5556L174.951 29.3516L176.092 30.0157L174.013 31.2041Z" fill="#D1D3D4"></path><path d="M178.527 41.3352L178.281 40.22L179.973 39.583V40.5006L178.527 41.3352Z" fill="#5F9FAD"></path><path d="M175.104 34.4718H174.737L174.309 34.0224L175.753 33.1821L176.547 33.6364L175.104 34.4718Z" fill="#BAF3FF"></path><path d="M181.625 39.0165L180.18 39.8477L180.737 40.8165L182.182 39.9853L181.625 39.0165Z" fill="#6CB5C4"></path><path d="M180.18 39.8406L180.403 39.3369L181.009 38.7477L181.85 38.5049L181.627 39.0086L180.18 39.8406Z" fill="#5F9FAD"></path><path d="M176.379 36.7702L176.23 35.2345L177.823 34.5654V35.9349L177.309 36.4213L176.379 36.7702Z" fill="#5F9FAD"></path><path d="M178.269 38.9288L177.184 38.1708L177.612 37.5766L178.624 37.3306L179.295 37.7165L179.265 38.4227L178.269 38.9288Z" fill="#BAF3FF"></path><path d="M176.427 33.34L176.069 33.07L175.871 32.3664L177.318 31.5352L177.873 32.5079L176.427 33.34Z" fill="#6CB5C4"></path><path d="M176.977 33.3909L176.426 33.3399L177.872 32.5078L178.427 32.5588L176.977 33.3909Z" fill="#BAF3FF"></path><path d="M180.404 39.337L181.198 39.7945V37.9963L180.404 37.5387L180.181 36.7783L180.744 36.4548L179.638 34.5455L179.08 34.8656L178.53 34.2904V33.3727L176.977 32.4839V33.39L176.425 33.339L175.87 32.3662L174.764 33.0073L175.327 33.976L175.104 34.4706L174.309 34.0212V35.8137L175.104 36.2721L175.327 37.0383L174.764 37.3585L175.87 39.2654L176.425 38.9452L176.977 39.5172V40.4315L178.53 41.3352V40.4233L179.08 40.4752L179.638 41.4446L180.739 40.8101L180.181 39.8406L180.404 39.337ZM179.129 38.3568L178.323 38.8251L177.182 38.1708L176.378 36.77V35.4516L177.182 34.9891L178.323 35.6458L179.129 37.0416V38.3568Z" fill="#7DD2E3"></path><path d="M178.53 33.3741L176.977 32.4844L178.427 31.6499L179.976 32.5453L178.53 33.3741Z" fill="#BAF3FF"></path><path d="M180.748 36.455L179.641 34.5457L181.087 33.7046L182.185 35.6172L180.748 36.455Z" fill="#BAF3FF"></path><path d="M181.199 39.7947V37.9965L182.643 37.1587V38.9709L181.199 39.7947Z" fill="#5F9FAD"></path><path d="M178.527 34.2905V33.3737L179.973 32.5449V33.4593L178.527 34.2905Z" fill="#5F9FAD"></path><path d="M180.403 37.5388L180.18 36.7783L181.627 35.9463L181.85 36.701L180.403 37.5388Z" fill="#6CB5C4"></path><path d="M177.184 38.1711L176.379 36.7704L177.823 35.9351L178.624 37.3309L177.184 38.1711Z" fill="#6CB5C4"></path><path d="M179.078 34.8655L178.527 34.2902L179.973 33.459L180.525 34.0334L179.078 34.8655Z" fill="#6CB5C4"></path><path d="M181.197 37.9966L180.402 37.539L181.849 36.7012L182.641 37.1588L181.197 37.9966Z" fill="#BAF3FF"></path><path d="M179.362 33.3603L178.965 31.5933L181.658 30.5835V32.0336L179.362 33.3603Z" fill="#2D5A78"></path><path d="M173.898 22.4558H173.315L172.637 21.7274L174.935 20.3975L176.19 21.1184L173.898 22.4558Z" fill="#65C6E5"></path><path d="M182.869 32.5224L181.98 30.981L184.276 29.6543L185.17 31.204L182.869 32.5224Z" fill="#377691"></path><path d="M181.98 30.9812L182.34 30.178L183.31 29.2373L184.633 28.8604L184.276 29.6545L181.98 30.9812Z" fill="#2D5A78"></path><path d="M175.924 26.1042L175.695 23.6591L178.224 22.6016V24.7743L177.405 25.5495L175.924 26.1042Z" fill="#2D5A78"></path><path d="M178.942 29.535L177.215 28.3161L177.895 27.382L179.511 26.9985L180.574 27.6141L180.532 28.7276L178.942 29.535Z" fill="#65C6E5"></path><path d="M176.014 20.6401L175.435 20.2138L175.113 19.0937L177.411 17.7695L178.306 19.3168L176.014 20.6401Z" fill="#377691"></path><path d="M176.88 20.7291L176.012 20.6403L178.304 19.3169L179.179 19.3967L176.88 20.7291Z" fill="#65C6E5"></path><path d="M182.341 30.1778L183.597 30.9177V28.0561L182.341 27.3237L181.981 26.1147L182.87 25.5954L181.114 22.5668L180.228 23.0737L179.358 22.1586V20.7027L176.879 19.274V20.729L176.011 20.6402L175.111 19.0938L173.369 20.1085L174.256 21.6467L173.898 22.4557L172.637 21.7273V24.5864L173.898 25.3065L174.256 26.5245L173.369 27.0422L175.111 30.0725L176.011 29.5639L176.879 30.4807V31.9275L179.358 33.3603V31.9077L180.228 31.9933L181.114 33.5348L182.87 32.5233L181.981 30.9819L182.341 30.1778ZM180.305 28.6248L179.021 29.3713L177.212 28.3162L175.929 26.1032V24.0078L177.212 23.2704L179.021 24.3107L180.305 26.5352V28.6248Z" fill="#428AA8"></path><path d="M179.358 20.7033L176.879 19.2738L179.178 17.9438L181.653 19.3709L179.358 20.7033Z" fill="#65C6E5"></path><path d="M182.873 25.5952L181.117 22.5666L183.413 21.2407L185.174 24.2776L182.873 25.5952Z" fill="#65C6E5"></path><path d="M183.598 30.9172V28.0557L185.896 26.7266V29.5881L183.598 30.9172Z" fill="#2D5A78"></path><path d="M179.363 22.1586V20.7035L181.659 19.3711V20.8261L179.363 22.1586Z" fill="#2D5A78"></path><path d="M182.34 27.3246L181.98 26.1148L184.276 24.7832L184.633 25.9988L182.34 27.3246Z" fill="#377691"></path><path d="M177.213 28.3166L175.93 26.1044L178.23 24.7744L179.509 26.999L177.213 28.3166Z" fill="#377691"></path><path d="M180.233 23.0738L179.363 22.1586L181.659 20.8262L182.526 21.7471L180.233 23.0738Z" fill="#377691"></path><path d="M183.596 28.056L182.34 27.3244L184.633 25.9985L185.894 26.7269L183.596 28.056Z" fill="#65C6E5"></path><path d="M188.042 45.9015L187.652 44.1921L190.248 43.2227V44.6259L188.042 45.9015Z" fill="#17435C"></path><path d="M182.776 35.3949H182.219L181.559 34.692L183.774 33.4106L184.986 34.1143L182.776 35.3949Z" fill="#4290B8"></path><path d="M191.419 45.0955L190.559 43.6116L192.775 42.3335L193.634 43.8174L191.419 45.0955Z" fill="#275C78"></path><path d="M190.559 43.6117L190.908 42.8447L191.839 41.9328L193.118 41.5674L192.775 42.3336L190.559 43.6117Z" fill="#17435C"></path><path d="M184.736 38.9118L184.504 36.5614L186.945 35.54V37.6337L186.161 38.3736L184.736 38.9118Z" fill="#17435C"></path><path d="M187.618 42.2133L185.969 41.0504L186.615 40.1402L188.178 39.7739L189.206 40.3607L189.156 41.4438L187.618 42.2133Z" fill="#4290B8"></path><path d="M184.816 33.6503L184.252 33.2388L183.949 32.1672L186.168 30.8916L187.017 32.3664L184.816 33.6503Z" fill="#275C78"></path><path d="M185.646 33.7332L184.82 33.6501L187.022 32.3662L187.868 32.4551L185.646 33.7332Z" fill="#4290B8"></path><path d="M190.907 42.8447L192.116 43.5459V40.7839L190.907 40.086L190.558 38.919L191.418 38.4268L189.72 35.4962L188.871 35.9998L188.042 35.116V33.7037L185.643 32.3318V33.7325L184.818 33.6494L183.951 32.1655L182.267 33.1375L183.128 34.6246L182.776 35.3941L181.559 34.6913V37.4467L182.776 38.1454L183.128 39.314L182.267 39.8087L183.951 42.7344L184.818 42.2365L185.643 43.1237V44.5244L188.042 45.9021V44.5071L188.871 44.5845L189.72 46.0683L191.418 45.0964L190.558 43.6125L190.907 42.8447ZM188.952 41.3419L187.71 42.0562L185.972 41.0505L184.735 38.9116V36.8895L185.972 36.1743L187.71 37.1891L188.952 39.333V41.3419Z" fill="#29617D"></path><path d="M188.04 33.7048L185.641 32.3329L187.863 31.0581L190.247 32.4358L188.04 33.7048Z" fill="#4290B8"></path><path d="M191.417 38.4278L189.719 35.4979L191.938 34.2256L193.632 37.1447L191.417 38.4278Z" fill="#4290B8"></path><path d="M192.117 43.5462V40.7842L194.333 39.5127V42.2648L192.117 43.5462Z" fill="#17435C"></path><path d="M188.047 35.1177V33.7046L190.253 32.4355V33.8338L188.047 35.1177Z" fill="#17435C"></path><path d="M190.908 40.086L190.559 38.9199L192.775 37.6426L193.118 38.8055L190.908 40.086Z" fill="#275C78"></path><path d="M186.943 37.6299L184.734 38.9082L185.973 41.048L188.182 39.7696L186.943 37.6299Z" fill="#275C78"></path><path d="M188.875 36.0009L188.047 35.1179L190.253 33.834L191.085 34.7203L188.875 36.0009Z" fill="#275C78"></path><path d="M192.115 40.7841L190.906 40.0862L193.117 38.8057L194.332 39.5126L192.115 40.7841Z" fill="#4290B8"></path><path d="M337.732 217.935L336.452 216.968L336.261 218.791L330.949 230.069L336.261 264.733L337.732 263.873V217.935Z" fill="#2D5A78"></path><path d="M337.734 217.935L336.263 218.791L334.553 219.238L334.395 215.56L335.872 214.707L337.734 217.935Z" fill="#377691"></path><path d="M334.394 215.56L308.306 210.233L278.25 183.142L279.73 182.289L335.871 214.707L334.394 215.56Z" fill="#65C6E5"></path><path d="M336.261 218.79L334.393 215.56L278.249 183.142L276.387 184.218V230.158L278.249 233.39L334.393 265.807L336.261 264.732V218.79Z" fill="#428AA8"></path><path d="M300.747 196.133V193.658L298.093 189.063L284.557 181.244L281.898 182.777V185.25L300.747 196.133Z" fill="#428AA8"></path><path d="M298.091 189.063L284.555 181.244L285.273 180.819L298.815 188.643L298.091 189.063Z" fill="#65C6E5"></path><path d="M300.748 193.658L298.094 189.063L298.818 188.643L301.48 193.238L300.748 193.658Z" fill="#377691"></path><path d="M300.75 196.133V193.658L301.482 193.238V195.717L300.75 196.133Z" fill="#2D5A78"></path><path d="M336.259 264.732L333.603 266.256L332.992 265.351L333.603 263.839L336.259 262.305L336.703 263.517L336.259 264.732Z" fill="#2D5A78"></path><path d="M335.781 213.925L334.121 214.878L277.215 182.022L278.866 181.065L335.781 213.925Z" fill="#BAF3FF"></path><path d="M335.784 219.816L334.125 220.771V214.878L335.784 213.926V219.816Z" fill="#5F9FAD"></path><path d="M335.784 261.963L334.125 262.92V220.771L335.784 219.815V261.963Z" fill="#D1D1D1"></path><path d="M334.121 214.877L277.215 182.022V187.912L334.121 220.771V214.877Z" fill="#7DD2E3"></path><path d="M277.215 230.067L334.121 262.92V220.771L277.215 187.912V230.067Z" fill="white"></path><path d="M329.278 174.035L328.48 174.52L307.551 162.435L308.35 161.949L329.278 174.035Z" fill="#65C6E5"></path><path d="M329.278 179.943L328.48 180.423V174.52L329.278 174.035V179.943Z" fill="#2D5A78"></path><path d="M329.278 226.454L328.48 226.934V180.423L329.278 179.942V226.454Z" fill="#D1D1D1"></path><path d="M328.48 174.52L307.551 162.435V168.342L328.48 180.423V174.52Z" fill="#428AA8"></path><path d="M307.551 214.855L328.48 226.934V180.423L307.551 168.342V214.855Z" fill="white"></path><path d="M325.278 209.333L310.977 201.071V179.889L325.278 188.149V209.333Z" fill="#65C6E5"></path><path d="M312.18 182.626V199.724L324.077 206.592V189.498L312.18 182.626Z" fill="white"></path><path d="M314.889 195.755L312.055 197.388V199.978L321.732 205.561V202.986L318.892 198.073L314.889 195.755Z" fill="#428AA8"></path><path d="M320.501 197.087L318.894 198.073L314.891 195.756L316.486 194.773L320.501 197.087Z" fill="#65C6E5"></path><path d="M323.327 201.997L321.731 202.987L318.891 198.073L320.498 197.087L323.327 201.997Z" fill="#377691"></path><path d="M323.327 204.585L321.73 205.561V202.986L323.327 201.996V204.585Z" fill="#2D5A78"></path><path d="M315.862 187.762L313.832 188.94V192.262L315.862 195.788L318.743 197.447L320.781 196.276V192.95L318.743 189.424L315.862 187.762Z" fill="#428AA8"></path><path d="M319.57 188.882L318.745 189.424L315.863 187.762L316.697 187.216L319.57 188.882Z" fill="#65C6E5"></path><path d="M321.607 192.406L320.78 192.95L318.742 189.424L319.568 188.882L321.607 192.406Z" fill="#377691"></path><path d="M321.608 195.729L320.781 196.276V192.95L321.608 192.406V195.729Z" fill="#2D5A78"></path><path d="M311.078 175.616L310.724 175.817L309.426 175.069L309.078 174.46V171.995L309.41 172.187V174.485L309.57 174.755L310.587 175.346L310.742 175.254V172.957L311.077 173.151V175.616H311.078Z" fill="#428AA8"></path><path d="M313.314 176.904L312.955 177.105L311.825 176.454L311.477 175.844L311.714 175.704L311.962 176.143L312.821 176.637L312.97 176.546V176.07L312.816 175.799L311.825 175.228L311.477 174.626V173.786L311.825 173.584L312.955 174.235L313.314 174.846L313.069 174.983L312.816 174.547L311.962 174.054L311.812 174.144V174.648L311.962 174.919L312.955 175.489L313.314 176.104V176.904Z" fill="#428AA8"></path><path d="M314.943 178.251L313.648 177.503V174.632L314.943 175.382V175.773L313.985 175.219V176.029L314.721 176.455V176.845L313.985 176.42V177.308L314.943 177.862V178.251Z" fill="#428AA8"></path><path d="M317.163 177.788L316.812 177.99L316.433 177.773L317.098 179.497L316.755 179.297L316.089 177.576L315.661 177.331V178.668L315.328 178.474V175.604L316.811 176.461L317.162 177.076V177.788H317.163ZM316.823 177.435V177.038L316.67 176.771L315.663 176.189V176.939L316.678 177.525L316.823 177.435Z" fill="#428AA8"></path><path d="M320.322 180.951L319.964 181.153L318.586 180.355V177.488L319.964 178.285L320.322 178.899V180.951ZM319.981 180.59V178.868L319.825 178.592L318.923 178.073V180.16L319.829 180.687L319.981 180.59Z" fill="#428AA8"></path><path d="M322.88 182.835L322.524 182.631L322.274 181.683L321.329 181.137L321.079 181.794L320.715 181.585L321.615 179.236L321.982 179.446L322.88 182.835ZM322.148 181.217L321.8 179.915L321.453 180.816L322.148 181.217Z" fill="#428AA8"></path><path d="M324.653 181.384L324.086 181.055V183.533L323.747 183.341V180.859L323.184 180.534V180.143L324.653 180.991V181.384H324.653Z" fill="#428AA8"></path><path d="M327.196 185.328L326.842 185.123L326.584 184.175L325.643 183.63L325.396 184.288L325.035 184.08L325.936 181.729L326.298 181.939L327.196 185.328ZM326.466 183.708L326.115 182.407L325.769 183.308L326.466 183.708Z" fill="#428AA8"></path><path d="M333.601 220.318L332.313 219.354L332.132 221.171L326.812 232.457L332.132 267.111L333.601 266.256V220.318Z" fill="#2D5A78"></path><path d="M333.597 220.318L332.128 221.171L330.41 221.622L330.258 217.95L331.739 217.091L333.597 220.318Z" fill="#377691"></path><path d="M330.261 217.95L304.172 212.615L274.109 185.526L275.587 184.67L331.743 217.091L330.261 217.95Z" fill="#65C6E5"></path><path d="M332.132 221.171L330.261 217.95L274.109 185.525L272.25 186.604V232.545L274.109 235.771L330.261 268.188L332.132 267.111V221.171Z" fill="#428AA8"></path><path d="M307.883 215.605L302.728 216.177L289.605 205.829L293.82 204.163L310.761 213.938L307.883 215.605Z" fill="#E8F3FF"></path><path d="M315.584 214.428L312.311 217.188L307.879 210.572L310.757 208.908L315.584 214.428Z" fill="#E8F3FF"></path><path d="M315.589 241.295L312.712 242.958L310.297 226.811L312.712 216.086L315.589 214.429V241.295Z" fill="#A1B4BF"></path><path d="M304.699 210.445L301.821 212.11L299.859 208.742L301.821 207.074L304.699 205.411V210.445Z" fill="#A1B4BF"></path><path d="M293.817 204.163L290.94 205.829L288.98 202.457L290.94 200.791L293.817 199.131V204.163Z" fill="#A1B4BF"></path><path d="M304.698 205.411L301.82 207.073L298.689 206.877L297 204.286L299.88 202.625L304.698 205.411Z" fill="#E8F3FF"></path><path d="M293.817 199.131L290.94 200.791L287.769 201.759L286.113 200.734L288.995 199.07L293.817 199.131Z" fill="#E8F3FF"></path><path d="M307.881 210.572V215.605L301.822 212.11V207.073L297.001 204.286V209.321L290.94 205.829V200.791L286.113 200.734V227.603L299.414 248.418L312.708 242.957V216.086L307.881 210.572Z" fill="#C8DFE8"></path><path d="M288.133 228.133L299.031 245.009V228.924L288.548 222.549L288.133 228.133Z" fill="#65C6E5"></path><path d="M299.031 228.924L309.259 234.55V220.297L299.031 214.429V228.924Z" fill="#428AA8"></path><path d="M288.264 206.668L287.5 207.108L288.235 209.732L287.884 227.893L299.414 245.276L308.941 241.363L309.789 241.141L310.555 240.698V219.538L288.264 206.668ZM309.373 234.332L299.479 228.621V214.507L309.373 220.221V234.332ZM299.414 243.478L289.446 227.884V208.715L298.801 214.115L298.766 214.135L297.844 217.788L298.766 229.031L303.797 234.407L308.965 234.913L309.373 234.675V239.388L299.414 243.478Z" fill="#D1D1D1"></path><path d="M287.5 207.108V228.273L298.642 245.714L309.789 241.14L309.79 219.98L287.5 207.108ZM288.68 228.322V223.207L298.766 229.031V214.981L308.606 220.658V234.709L298.766 229.031V243.869L298.642 243.917L288.68 228.322Z" fill="white"></path><path d="M298.092 197.665V195.187L295.436 190.588L281.902 182.772L279.247 184.3L279.238 186.781L298.092 197.665Z" fill="#428AA8"></path><path d="M297.374 198.084V195.605L294.723 191.004L281.178 183.187L278.523 184.723V187.199L297.374 198.084Z" fill="#428AA8"></path><path d="M294.724 191.004L281.18 183.186L281.909 182.772L295.442 190.588L294.724 191.004Z" fill="#65C6E5"></path><path d="M295.455 190.579L294.734 190.995L297.386 195.596L298.106 195.181L295.455 190.579Z" fill="#377691"></path><path d="M297.375 198.084V195.606L298.098 195.188V197.666L297.375 198.084Z" fill="#2D5A78"></path><path d="M367.926 198.922L367.335 198.474L367.251 199.307L364.82 209.178L367.251 218.366L367.926 217.974V198.922Z" fill="#2D5A78"></path><path d="M367.925 198.922L367.25 199.307L366.465 199.517L366.395 197.836L367.07 197.441L367.925 198.922Z" fill="#377691"></path><path d="M366.398 197.836L354.461 195.397L340.703 182.996L341.389 182.61L367.073 197.441L366.398 197.836Z" fill="#65C6E5"></path><path d="M367.251 199.307L366.396 197.836L340.701 182.997L339.848 183.493V202.545L340.701 204.024L366.396 218.858L367.251 218.366V199.307Z" fill="#428AA8"></path><path d="M357.945 208.454C357.945 205.925 359.544 205.189 361.462 206.299C363.15 207.276 364.228 209.222 364.228 211.109C364.228 212.751 363.264 213.028 362.448 212.554C362.004 212.296 361.631 211.838 361.548 211.353L361.534 211.346C361.312 211.564 360.917 211.581 360.596 211.397C359.985 211.038 359.563 210.282 359.563 209.453C359.563 208.352 360.245 207.635 361.144 208.152C361.402 208.302 361.606 208.547 361.734 208.946L361.753 208.961L361.859 208.639L362.57 209.054L362.212 210.831C362.1 211.282 362.217 211.605 362.57 211.808C363.043 212.075 363.501 211.714 363.501 210.723C363.501 209.431 362.896 207.934 361.371 207.05C360.036 206.278 358.716 206.834 358.716 208.856C358.716 210.633 359.775 212.105 360.994 212.807C361.402 213.04 361.854 213.15 362.181 213.145L362.427 214.006C361.955 214.027 361.459 213.874 360.9 213.554C359.344 212.65 357.945 210.755 357.945 208.454ZM361.357 210.595L361.542 209.492C361.462 209.27 361.338 209.112 361.186 209.022C360.719 208.756 360.432 209.327 360.432 209.864C360.432 210.271 360.579 210.558 360.836 210.708C361.004 210.802 361.156 210.778 361.357 210.595Z" fill="white"></path><path opacity="0.3" d="M353.654 197.605L350.138 195.48L339.855 187.708V188.856L353.654 203.772L367.259 204.67V203.962L353.654 197.605Z" fill="black"></path><path d="M367.259 199.308L366.675 198.763L366.937 199.489L364.512 201.293L366.937 204.146L367.259 203.962L367.752 201.082L367.259 199.308Z" fill="#2D5A78"></path><path d="M367.259 199.307L366.937 199.489L366.154 199.705L366.086 198.019L366.404 197.836L367.259 199.307Z" fill="#377691"></path><path d="M366.087 198.019L353.338 194.631L340.395 183.184L340.71 182.997L343.245 183.959L364.033 195.932L366.404 197.836L366.087 198.019Z" fill="#65C6E5"></path><path d="M366.936 199.489L366.086 198.019L340.393 183.184L339.539 183.671V188.324L353.337 203.248L366.936 204.146V199.489Z" fill="#428AA8"></path><path d="M379.417 172.297L358.578 158.356L360.729 157.114L381.913 169.343L381.005 170.736L379.417 172.297Z" fill="#65C6E5"></path><path d="M382.791 180.965L379.762 170.584L381.912 169.343L387.296 178.664L386.327 180.432L382.791 180.965Z" fill="#377691"></path><path d="M385.137 188.703V179.91L387.294 178.665V187.457L385.137 188.703Z" fill="#2D5A78"></path><path d="M385.14 179.91L379.762 170.583L358.578 158.355L353.195 161.46V170.259L358.578 179.58L379.762 191.802L385.14 188.702V179.91Z" fill="#428AA8"></path><path d="M365.344 170.17L366.782 169.343L375.136 179.188L373.705 180.013L367.828 175.924L365.344 170.17Z" fill="#D1D1D1"></path><path d="M365.344 180.219V170.169L373.705 180.012L365.344 180.219Z" fill="white"></path><path d="M334.382 129.877L323.777 123.762L326.165 122.381L336.766 128.502L335.764 130.044L334.382 129.877Z" fill="#65C6E5"></path><path d="M341.885 142.865L334.387 129.877L336.771 128.502L344.272 141.488L343.052 143.191L341.885 142.865Z" fill="#377691"></path><path d="M341.883 155.11V142.865L344.27 141.488V153.731L341.883 155.11Z" fill="#2D5A78"></path><path d="M341.881 142.865L334.383 129.877L323.778 123.762L316.273 128.084V140.336L323.778 153.319L334.383 159.44L341.881 155.111V142.865Z" fill="#428AA8"></path><path d="M334.99 154.654L333.26 155.656L324.907 150.827L319 140.601V130.951L320.73 129.958V139.607L326.63 149.832L334.99 154.654Z" fill="#2D5A78"></path><path d="M339.167 142.594V152.244L334.99 154.654L326.63 149.832L320.73 139.607V129.958L324.908 127.546L333.261 132.367L339.167 142.594Z" fill="#F4EFE9"></path><path d="M326.448 144.754L322.613 144.286L324.335 143.292L328.094 143.084L326.448 144.754Z" fill="#275C78"></path><path d="M326.981 144.435L326.375 144.087L328.097 143.084L328.711 143.439L326.981 144.435Z" fill="#4290B8"></path><path d="M331.678 147.151L331.178 146.862V145.231L332.88 144.245V138.036L330.657 134.184L327.505 132.367L325.276 133.646V139.854L326.978 142.808V144.436L326.373 144.087L322.613 144.287V146.851L324.913 150.828L333.265 155.656L335.438 154.403V151.684L331.678 147.151Z" fill="#29617D"></path><path d="M330.66 134.183L327.508 132.367L329.239 131.367L332.382 133.185L330.66 134.183Z" fill="#4290B8"></path><path d="M331.675 147.152L331.176 146.862L332.902 145.868L333.402 146.155L331.675 147.152Z" fill="#4290B8"></path><path d="M332.401 133.179L330.676 134.175L332.9 138.03L334.625 137.035L332.401 133.179Z" fill="#275C78"></path><path d="M335.44 151.684L331.68 147.151L333.406 146.154L337.166 150.695L335.44 151.684Z" fill="#275C78"></path><path d="M332.907 144.235L332.883 138.036L334.609 137.04V143.251L332.907 144.235Z" fill="#17435C"></path><path d="M331.176 146.862V145.232L332.902 144.236V145.868L331.176 146.862Z" fill="#2D5A78"></path><path d="M335.441 154.402V151.684L337.167 150.695V153.402L335.441 154.402Z" fill="#17435C"></path><path d="M168.755 180.029L166.879 166.652L170.935 165.059V178.768L168.755 180.029Z" fill="#2D5A78"></path><path d="M165.894 166.569L162.816 156.043L165.001 154.781L170.938 165.059L168.757 166.319L165.894 166.569Z" fill="#377691"></path><path d="M161.214 157.625L150.461 148.902L152.643 147.648L165.002 154.781L162.817 156.043L161.214 157.625Z" fill="#65C6E5"></path><path d="M168.759 166.319L162.819 156.043L150.463 148.902L144.531 152.331V166.046L150.463 176.321L162.819 183.454L168.759 180.029V166.319Z" fill="#428AA8"></path><path d="M152.763 157.758L151.589 158.434L152.041 160.462L152.076 169.021L150.117 167.892L148.945 168.568L149.404 169.462L150.117 170.701L152.462 172.582L153.635 171.902V161.542L160.05 163.719L159.899 169.685L159.964 170.869L158.072 169.769L156.899 170.447L157.358 171.347L158.072 172.577L160.415 174.458L161.582 173.787V160.754L152.763 157.758Z" fill="#D1D1D1"></path><path d="M151.587 158.435V170.094L148.944 168.568L148.23 168.979V170.138L148.944 171.374L151.744 172.988L152.461 172.582V162.22L159.541 164.623V171.974L156.897 170.447L156.181 170.866V172.016L156.897 173.252L159.698 174.874L160.414 174.458V161.428L151.587 158.435Z" fill="white"></path><path d="M156.077 70.622L139.25 59.3635L141.537 58.0327L158.638 67.9061L157.36 69.3612L156.077 70.622Z" fill="#65C6E5"></path><path d="M158.797 77.6233L156.352 69.2395L158.635 67.9062L162.982 75.4391L162.202 76.8571L158.797 77.6233Z" fill="#377691"></path><path d="M160.703 94.6221V76.7632L162.983 75.439V93.2938L160.703 94.6221Z" fill="#2D5A78"></path><path d="M160.705 76.7635L156.354 69.2397L139.249 59.3638L134.902 61.8755V79.7279L139.249 87.2566L156.354 97.1407L160.705 94.6224V76.7635Z" fill="#428AA8"></path><path d="M147.799 69.6855L150.16 76.574L155.443 80.5062L153.893 81.4066L151.532 81.4955L151.621 82.6073L152.525 89.1971L150.968 90.0966L147.799 83.6032L143.08 83.7447L143.976 78.192L138.605 72.5775L140.155 71.6879L145.44 73.8499L146.145 72.617L146.247 70.581L147.799 69.6855Z" fill="#D1D1D1"></path><path d="M146.247 70.5811L148.611 77.4703L153.893 81.4067L150.071 83.5053L150.968 90.0967L146.247 84.4995L141.523 84.6386L142.427 79.0933L138.605 72.5776L143.886 74.7454L146.247 70.5811Z" fill="white"></path><path d="M135.631 123.145L117.648 111.121L120.088 109.692L138.36 120.246L136.996 121.799L135.631 123.145Z" fill="#65C6E5"></path><path d="M138.536 130.629L135.922 121.668L138.359 120.247L143.006 128.288L142.176 129.812L138.536 130.629Z" fill="#4290B8"></path><path d="M140.57 144.655V129.714L143.007 128.288V143.23L140.57 144.655Z" fill="#2D5A78"></path><path d="M140.569 129.714L135.921 121.668L117.647 111.121L113 113.802V128.744L117.647 136.787L135.921 147.336L140.569 144.655V129.714Z" fill="#428AA8"></path><path d="M132.332 126.022L119.18 117.519L120.529 116.738L133.84 124.419L133.088 125.278L132.332 126.022Z" fill="#D1D1D1"></path><path d="M133.931 130.137L132.488 125.206L133.836 124.419L136.394 128.847L135.934 129.688L133.931 130.137Z" fill="#D1D1D1"></path><path d="M135.047 137.858V129.627L136.396 128.847V137.072L135.047 137.858Z" fill="#D1D1D1"></path><path d="M129.124 142.111L128.016 134.149L130.468 133.104V141.324L129.124 142.111Z" fill="#D1D1D1"></path><path d="M135.05 129.627L132.492 125.206L119.179 117.52L116.621 118.996V127.22L119.179 131.645L132.492 139.332L135.05 137.859V129.627Z" fill="white"></path><path d="M122.024 127.487L121.166 127.985L119.702 127.146L118.676 125.367V123.671L119.547 123.173V124.861L120.581 126.637L122.024 127.487Z" fill="#D1D1D1"></path><path d="M122.197 125.712V127.392L122.04 127.488H122.027L120.584 126.637L119.551 124.861V123.173L119.71 123.08L121.17 123.917L122.197 125.712Z" fill="#428AA8"></path><path d="M127.281 130.524L126.421 131.022L124.962 130.178L123.934 128.397V126.704L124.8 126.207V127.892L125.836 129.671L127.281 130.524Z" fill="#D1D1D1"></path><path d="M127.451 128.744V130.427L127.293 130.526L127.281 130.524L125.837 129.671L124.801 127.892V126.207L124.962 126.114L126.421 126.957L127.451 128.744Z" fill="#428AA8"></path><path d="M132.537 133.555L131.68 134.053L130.214 133.211L129.188 131.433V129.741L130.054 129.245V130.926L131.094 132.707L132.537 133.555Z" fill="#D1D1D1"></path><path d="M132.706 131.778V133.46L132.55 133.562L132.538 133.555L131.094 132.707L130.055 130.926V129.245L130.221 129.151L131.681 129.986L132.706 131.778Z" fill="#428AA8"></path><path d="M129.124 142.111L125.691 134.819L129.124 136.848V142.111Z" fill="white"></path></svg>