<svg xmlns="http://www.w3.org/2000/svg" width="281" height="277" viewBox="0 0 281 277" fill="none"><path d="M154.516 56.3075L148.155 43.23C147.597 42.0831 148.074 40.7019 149.221 40.1443C150.367 39.5866 151.749 40.0634 152.307 41.2103L158.668 54.2878C159.226 55.4347 158.748 56.8159 157.602 57.3735C156.455 57.9312 155.074 57.4535 154.516 56.3075Z" fill="#999999"></path><path d="M166.966 81.9227L160.604 68.8452C160.047 67.6983 160.523 66.3171 161.67 65.7595C162.817 65.2018 164.198 65.6786 164.756 66.8255L171.117 79.903C171.675 81.0499 171.198 82.4311 170.051 82.9887C168.904 83.5464 167.523 83.0687 166.966 81.9227Z" fill="#999999"></path><path d="M152.478 27.0174L157.439 36.6302C158.987 39.6302 157.805 43.3302 154.807 44.8779L150.265 47.2217C147.265 48.7694 143.564 47.5886 142.017 44.5894L137.056 34.9766C135.508 31.9766 136.69 28.2766 139.688 26.7289L144.23 24.3843C147.23 22.8374 150.93 24.0174 152.478 27.0174ZM145.397 42.8453C145.983 43.9808 147.384 44.4286 148.52 43.8418L153.062 41.4972C154.197 40.9113 154.645 39.5098 154.059 38.3743L149.097 28.7615C148.512 27.626 147.11 27.1783 145.975 27.765L141.432 30.1096C140.297 30.6956 139.85 32.097 140.436 33.2325L145.397 42.8453Z" fill="#CCCCCC"></path><path d="M164.888 52.53L169.849 62.1427C171.398 65.1428 170.215 68.8427 167.217 70.3905L162.675 72.7351C159.675 74.2828 155.975 73.102 154.427 70.1027L149.466 60.49C147.918 57.4899 149.1 53.79 152.099 52.2423L156.641 49.8977C159.64 48.3499 163.341 49.5299 164.888 52.53ZM157.807 68.3578C158.393 69.4934 159.794 69.9411 160.93 69.3543L165.472 67.0105C166.607 66.4246 167.055 65.0232 166.469 63.8877L161.508 54.2749C160.922 53.1394 159.521 52.6916 158.386 53.2784L153.843 55.6222C152.708 56.2081 152.26 57.6095 152.847 58.7451L157.807 68.3578Z" fill="#CCCCCC"></path><path d="M179.423 107.487L173.061 94.4094C172.504 93.2634 172.98 91.8813 174.127 91.3237C175.273 90.766 176.655 91.2429 177.213 92.3897L183.574 105.467C184.132 106.614 183.654 107.995 182.508 108.553C181.362 109.111 179.98 108.633 179.423 107.487Z" fill="#999999"></path><path d="M191.88 133.102L185.518 120.025C184.961 118.879 185.438 117.497 186.584 116.939C187.73 116.381 189.112 116.858 189.67 118.005L196.031 131.082C196.589 132.229 196.111 133.611 194.965 134.168C193.819 134.726 192.438 134.248 191.88 133.102Z" fill="#999999"></path><path d="M177.385 78.1969L182.346 87.8096C183.895 90.8097 182.712 94.5096 179.713 96.0573L175.171 98.4019C172.171 99.9497 168.471 98.7689 166.923 95.7696L161.962 86.1569C160.414 83.1568 161.596 79.4569 164.595 77.9091L169.137 75.5654C172.137 74.0168 175.838 75.1968 177.385 78.1969ZM170.304 94.0247C170.89 95.1602 172.291 95.6072 173.427 95.0212L177.969 92.6775C179.104 92.0915 179.551 90.6901 178.965 89.5546L174.005 79.9418C173.419 78.8063 172.017 78.3585 170.882 78.9445L166.34 81.2891C165.204 81.875 164.757 83.2764 165.343 84.412L170.304 94.0247Z" fill="#CCCCCC"></path><path d="M189.795 103.709L194.755 113.322C196.304 116.322 195.121 120.022 192.123 121.57L187.581 123.915C184.582 125.462 180.881 124.281 179.333 121.282L174.372 111.669C172.824 108.669 174.006 104.969 177.006 103.422L181.548 101.078C184.546 99.5294 188.247 100.709 189.795 103.709ZM182.713 119.537C183.299 120.673 184.7 121.121 185.836 120.534L190.378 118.19C191.514 117.604 191.961 116.203 191.375 115.067L186.414 105.454C185.828 104.319 184.426 103.871 183.291 104.457L178.749 106.802C177.613 107.388 177.166 108.789 177.752 109.925L182.713 119.537Z" fill="#CCCCCC"></path><path d="M204.279 158.604L197.917 145.527C197.359 144.38 197.837 142.999 198.983 142.441C200.129 141.883 201.511 142.36 202.068 143.507L208.43 156.585C208.987 157.731 208.511 159.113 207.364 159.67C206.218 160.228 204.836 159.75 204.279 158.604Z" fill="#999999"></path><path d="M216.727 184.219L210.366 171.142C209.808 169.995 210.285 168.614 211.432 168.056C212.578 167.498 213.96 167.976 214.518 169.122L220.879 182.2C221.437 183.346 220.96 184.728 219.813 185.285C218.667 185.843 217.285 185.365 216.727 184.219Z" fill="#999999"></path><path d="M202.24 129.314L207.201 138.927C208.749 141.927 207.567 145.627 204.568 147.175L200.026 149.519C197.027 151.067 193.326 149.886 191.779 146.886L186.818 137.273C185.269 134.273 186.452 130.573 189.45 129.026L193.992 126.681C196.991 125.134 200.692 126.314 202.24 129.314ZM195.158 145.142C195.744 146.278 197.146 146.725 198.281 146.139L202.823 143.795C203.959 143.209 204.407 141.807 203.82 140.672L198.859 131.059C198.273 129.924 196.872 129.477 195.736 130.063L191.194 132.406C190.059 132.992 189.612 134.394 190.198 135.529L195.158 145.142Z" fill="#CCCCCC"></path><path d="M214.65 154.827L219.611 164.439C221.159 167.44 219.977 171.139 216.978 172.687L212.436 175.032C209.437 176.579 205.736 175.399 204.189 172.399L199.228 162.787C197.679 159.787 198.862 156.087 201.86 154.539L206.402 152.195C209.402 150.647 213.102 151.827 214.65 154.827ZM207.569 170.655C208.155 171.79 209.556 172.237 210.691 171.651L215.234 169.306C216.369 168.721 216.816 167.319 216.23 166.184L211.269 156.571C210.683 155.435 209.282 154.988 208.146 155.574L203.604 157.919C202.469 158.505 202.021 159.906 202.608 161.042L207.569 170.655Z" fill="#CCCCCC"></path><path d="M229.173 209.784L222.811 196.706C222.253 195.56 222.731 194.178 223.877 193.62C225.024 193.063 226.405 193.54 226.963 194.686L233.324 207.764C233.882 208.91 233.405 210.292 232.258 210.85C231.112 211.407 229.731 210.93 229.173 209.784Z" fill="#999999"></path><path d="M241.623 235.399L235.26 222.321C234.703 221.175 235.18 219.793 236.326 219.236C237.472 218.678 238.854 219.155 239.412 220.302L245.773 233.379C246.331 234.525 245.854 235.907 244.707 236.465C243.561 237.023 242.18 236.545 241.623 235.399Z" fill="#999999"></path><path d="M227.134 180.494L232.095 190.106C233.643 193.106 232.461 196.806 229.462 198.354L224.92 200.698C221.921 202.246 218.22 201.065 216.673 198.066L211.712 188.453C210.164 185.453 211.346 181.753 214.344 180.205L218.886 177.861C221.886 176.314 225.586 177.494 227.134 180.494ZM220.053 196.321C220.639 197.457 222.04 197.905 223.175 197.318L227.718 194.973C228.853 194.387 229.301 192.986 228.714 191.85L223.753 182.238C223.167 181.102 221.766 180.654 220.63 181.241L216.088 183.586C214.953 184.172 214.505 185.573 215.092 186.709L220.053 196.321Z" fill="#CCCCCC"></path><path d="M239.545 206.006L244.506 215.619C246.054 218.619 244.872 222.319 241.873 223.867L237.331 226.211C234.332 227.759 230.631 226.578 229.083 223.579L224.122 213.966C222.574 210.966 223.756 207.266 226.756 205.718L231.298 203.374C234.296 201.826 237.997 203.006 239.545 206.006ZM232.464 221.834C233.05 222.97 234.451 223.416 235.587 222.831L240.129 220.487C241.264 219.901 241.711 218.499 241.125 217.364L236.165 207.751C235.579 206.616 234.177 206.169 233.042 206.755L228.5 209.098C227.364 209.684 226.917 211.086 227.503 212.221L232.464 221.834Z" fill="#CCCCCC"></path><path d="M119.335 56.6768L125.95 43.7254C126.529 42.5899 127.92 42.1397 129.056 42.7192C130.191 43.2987 130.641 44.6896 130.062 45.8251L123.448 58.7766C122.868 59.9121 121.477 60.3623 120.342 59.7828C119.205 59.2025 118.755 57.8124 119.335 56.6768Z" fill="#999999"></path><path d="M106.378 82.0456L112.992 69.0941C113.572 67.9586 114.963 67.5084 116.098 68.0879C117.234 68.6674 117.684 70.0583 117.104 71.1938L110.49 84.1453C109.911 85.2808 108.52 85.731 107.384 85.1515C106.249 84.5712 105.798 83.1811 106.378 82.0456Z" fill="#999999"></path><path d="M141.497 37.4247L136.806 47.1724C135.342 50.2145 131.676 51.4979 128.635 50.0343L124.029 47.8182C120.988 46.3545 119.704 42.6893 121.167 39.6472L125.858 29.8995C127.322 26.8574 130.988 25.574 134.029 27.0376L138.635 29.2545C141.676 30.7166 142.961 34.3826 141.497 37.4247ZM124.594 41.296C124.04 42.4477 124.526 43.8361 125.678 44.3898L130.284 46.6067C131.436 47.1611 132.824 46.6746 133.378 45.5229L138.069 35.7751C138.623 34.6234 138.136 33.2349 136.985 32.6813L132.379 30.4652C131.227 29.9108 129.839 30.3973 129.285 31.549L124.594 41.296Z" fill="#CCCCCC"></path><path d="M128.599 62.6915L123.908 72.4393C122.444 75.4814 118.778 76.7648 115.737 75.3011L111.131 73.085C108.09 71.6214 106.805 67.9562 108.269 64.9141L112.96 55.1664C114.423 52.1243 118.09 50.8409 121.131 52.3045L125.737 54.5214C128.777 55.9835 130.062 59.6495 128.599 62.6915ZM111.696 66.5628C111.141 67.7145 111.628 69.103 112.78 69.6566L117.386 71.8736C118.537 72.428 119.926 71.9414 120.479 70.7897L125.17 61.042C125.725 59.8903 125.238 58.5018 124.086 57.9482L119.48 55.7321C118.329 55.1777 116.941 55.6642 116.387 56.8159L111.696 66.5628Z" fill="#CCCCCC"></path><path d="M93.4443 107.363L100.059 94.4118C100.638 93.2763 102.029 92.8262 103.165 93.4056C104.3 93.9851 104.75 95.376 104.171 96.5116L97.5564 109.463C96.9769 110.599 95.586 111.049 94.4505 110.469C93.315 109.889 92.8648 108.499 93.4443 107.363Z" fill="#999999"></path><path d="M80.4876 132.732L87.1019 119.781C87.6814 118.645 89.0723 118.195 90.2079 118.774C91.3434 119.354 91.7936 120.745 91.2141 121.88L84.5997 134.832C84.0202 135.967 82.6293 136.417 81.4938 135.838C80.3583 135.258 79.9073 133.868 80.4876 132.732Z" fill="#999999"></path><path d="M115.606 88.1111L110.916 97.8588C109.452 100.901 105.786 102.184 102.745 100.721L98.1386 98.5046C95.0974 97.0409 93.8131 93.3749 95.2768 90.3337L99.9676 80.5859C101.431 77.5438 105.098 76.2604 108.139 77.7241L112.744 79.9402C115.786 81.403 117.07 85.069 115.606 88.1111ZM98.7044 91.9824C98.15 93.1341 98.6365 94.5226 99.7882 95.0762L104.394 97.2923C105.546 97.8467 106.934 97.3602 107.488 96.2085L112.179 86.4607C112.733 85.3091 112.247 83.9206 111.095 83.3669L106.489 81.1508C105.337 80.5964 103.95 81.083 103.395 82.2347L98.7044 91.9824Z" fill="#CCCCCC"></path><path d="M102.7 113.378L98.0093 123.126C96.5456 126.168 92.8796 127.451 89.8383 125.988L85.2324 123.771C82.1911 122.308 80.9069 118.642 82.3705 115.6L87.0614 105.853C88.525 102.811 92.1918 101.527 95.2323 102.991L99.8382 105.207C102.88 106.67 104.164 110.336 102.7 113.378ZM85.7981 117.249C85.2437 118.401 85.7302 119.789 86.8819 120.343L91.4879 122.56C92.6396 123.114 94.0281 122.628 94.5817 121.476L99.2725 111.728C99.8269 110.577 99.3404 109.188 98.1887 108.635L93.5827 106.419C92.4311 105.864 91.0426 106.351 90.4889 107.502L85.7981 117.249Z" fill="#CCCCCC"></path><path d="M67.5927 157.988L74.207 145.037C74.7865 143.901 76.1774 143.451 77.313 144.031C78.4485 144.61 78.8987 146.001 78.3192 147.137L71.7048 160.088C71.1254 161.224 69.7344 161.674 68.5989 161.094C67.4634 160.514 67.0132 159.124 67.5927 157.988Z" fill="#999999"></path><path d="M54.6357 183.357L61.25 170.406C61.8303 169.27 63.2204 168.82 64.3559 169.399C65.4915 169.979 65.9416 171.37 65.3621 172.505L58.7478 185.457C58.1683 186.592 56.7774 187.042 55.6419 186.463C54.5064 185.883 54.0562 184.493 54.6357 183.357Z" fill="#999999"></path><path d="M89.7548 138.736L85.064 148.484C83.6003 151.526 79.9335 152.809 76.893 151.346L72.2871 149.129C69.2458 147.665 67.9616 144 69.4252 140.958L74.116 131.21C75.5797 128.168 79.2457 126.885 82.287 128.348L86.8929 130.564C89.9334 132.028 91.2184 135.694 89.7548 138.736ZM72.852 142.607C72.2976 143.759 72.7841 145.148 73.9358 145.701L78.5418 147.917C79.6934 148.472 81.0819 147.985 81.6356 146.834L86.3264 137.086C86.8808 135.934 86.3943 134.546 85.2426 133.992L80.6366 131.776C79.4849 131.222 78.0964 131.708 77.5428 132.86L72.852 142.607Z" fill="#CCCCCC"></path><path d="M76.8563 164.003L72.1655 173.751C70.7019 176.793 67.035 178.076 63.9946 176.613L59.3886 174.397C56.3474 172.933 55.0631 169.268 56.5268 166.226L61.2176 156.478C62.6813 153.436 66.3473 152.152 69.3885 153.616L73.9945 155.833C77.0349 157.295 78.32 160.961 76.8563 164.003ZM59.9536 167.874C59.3991 169.026 59.8857 170.414 61.0374 170.968L65.6433 173.184C66.795 173.739 68.1827 173.252 68.7371 172.1L73.4279 162.353C73.9824 161.201 73.4958 159.812 72.3441 159.259L67.7382 157.043C66.5865 156.488 65.198 156.975 64.6444 158.127L59.9536 167.874Z" fill="#CCCCCC"></path><path d="M41.7021 208.675L48.3164 195.723C48.8959 194.588 50.2868 194.138 51.4223 194.717C52.5579 195.297 53.008 196.688 52.4286 197.823L45.8142 210.775C45.2347 211.91 43.8438 212.36 42.7083 211.781C41.5728 211.201 41.1226 209.81 41.7021 208.675Z" fill="#999999"></path><path d="M28.7454 234.043L35.3597 221.092C35.9392 219.957 37.3301 219.506 38.4657 220.086C39.6012 220.665 40.0514 222.056 39.4719 223.192L32.8576 236.143C32.2781 237.279 30.8872 237.729 29.7516 237.149C28.6161 236.569 28.1651 235.179 28.7454 234.043Z" fill="#999999"></path><path d="M63.8642 189.423L59.1733 199.17C57.7097 202.212 54.0437 203.496 51.0024 202.032L46.3965 199.815C43.3552 198.352 42.071 194.686 43.5346 191.644L48.2254 181.897C49.6891 178.855 53.3559 177.571 56.3964 179.035L61.0023 181.252C64.0436 182.714 65.3278 186.381 63.8642 189.423ZM46.9622 193.294C46.4078 194.446 46.8943 195.833 48.046 196.388L52.652 198.604C53.8036 199.158 55.1921 198.672 55.7457 197.52L60.4366 187.772C60.991 186.621 60.5045 185.233 59.3528 184.678L54.7468 182.462C53.5951 181.908 52.2066 182.394 51.653 183.546L46.9622 193.294Z" fill="#CCCCCC"></path><path d="M50.9579 214.689L46.2671 224.437C44.8034 227.479 41.1374 228.763 38.0962 227.299L33.4902 225.083C30.4489 223.619 29.1647 219.954 30.6284 216.912L35.3192 207.164C36.7828 204.122 40.4488 202.839 43.4901 204.302L48.096 206.519C51.1373 207.981 52.4216 211.647 50.9579 214.689ZM34.0559 218.561C33.5015 219.712 33.9881 221.101 35.1397 221.655L39.7457 223.871C40.8974 224.425 42.2859 223.939 42.8395 222.787L47.5303 213.039C48.0839 211.887 47.5982 210.499 46.4465 209.945L41.8406 207.729C40.6889 207.175 39.3004 207.661 38.7468 208.813L34.0559 218.561Z" fill="#CCCCCC"></path><path d="M57.9339 220.931L43.3976 220.511C42.1231 220.474 41.1201 219.411 41.1573 218.137C41.1936 216.863 42.2572 215.86 43.5309 215.897L58.0673 216.317C59.3418 216.354 60.3448 217.417 60.3084 218.692C60.2712 219.965 59.2085 220.968 57.9339 220.931Z" fill="#999999"></path><path d="M86.4027 221.754L71.8663 221.334C70.5918 221.297 69.5888 220.234 69.626 218.959C69.6632 217.685 70.726 216.682 71.9997 216.718L86.5368 217.138C87.8114 217.176 88.8144 218.238 88.7772 219.513C88.74 220.787 87.6772 221.791 86.4027 221.754Z" fill="#999999"></path><path d="M31.032 209.164L41.8498 209.22C45.2256 209.238 47.9574 212 47.9396 215.374L47.9129 220.485C47.8951 223.86 45.1343 226.593 41.7584 226.575L30.9415 226.518C27.5656 226.501 24.8339 223.739 24.8516 220.365L24.8783 215.253C24.8961 211.879 27.6561 209.147 31.032 209.164ZM41.7787 222.772C43.0564 222.779 44.1022 221.744 44.1087 220.466L44.1354 215.355C44.1418 214.077 43.1073 213.031 41.8296 213.025L31.0118 212.968C29.734 212.962 28.6882 213.996 28.6817 215.274L28.6551 220.386C28.6486 221.663 29.6831 222.709 30.9609 222.716L41.7787 222.772Z" fill="#CCCCCC"></path><path d="M59.3953 209.984L70.2131 210.041C73.5889 210.058 76.3206 212.82 76.3029 216.194L76.2762 221.305C76.2584 224.68 73.4976 227.413 70.1225 227.395L59.3047 227.339C55.9289 227.321 53.1971 224.559 53.2149 221.184L53.2416 216.073C53.2586 212.699 56.0194 209.966 59.3953 209.984ZM70.1411 223.592C71.4189 223.598 72.4647 222.564 72.4712 221.286L72.4979 216.174C72.5043 214.896 71.4698 213.851 70.192 213.844L59.3742 213.787C58.0965 213.781 57.0507 214.816 57.0442 216.093L57.0175 221.204C57.0111 222.482 58.0456 223.528 59.3233 223.534L70.1411 223.592Z" fill="#CCCCCC"></path><path d="M114.817 222.575L100.28 222.155C99.0059 222.118 98.0029 221.055 98.0401 219.78C98.0772 218.506 99.14 217.503 100.414 217.54L114.951 217.96C116.225 217.997 117.228 219.06 117.191 220.335C117.154 221.609 116.09 222.612 114.817 222.575Z" fill="#999999"></path><path d="M143.285 223.398L128.749 222.978C127.475 222.94 126.472 221.878 126.509 220.603C126.546 219.329 127.609 218.326 128.883 218.363L143.42 218.783C144.694 218.82 145.697 219.883 145.66 221.158C145.623 222.432 144.56 223.435 143.285 223.398Z" fill="#999999"></path><path d="M87.9148 210.808L98.7326 210.865C102.108 210.883 104.84 213.644 104.822 217.019L104.796 222.131C104.778 225.506 102.017 228.238 98.6421 228.22L87.8243 228.164C84.4484 228.146 81.7167 225.384 81.7345 222.01L81.7611 216.898C81.7789 213.523 84.5389 210.791 87.9148 210.808ZM98.6615 224.416C99.9392 224.423 100.985 223.388 100.992 222.11L101.018 216.999C101.025 215.721 99.9902 214.675 98.7124 214.668L87.8946 214.612C86.6168 214.605 85.571 215.64 85.5645 216.918L85.5379 222.03C85.5314 223.307 86.5659 224.353 87.8437 224.36L98.6615 224.416Z" fill="#CCCCCC"></path><path d="M116.27 211.628L127.088 211.685C130.464 211.702 133.196 214.464 133.178 217.838L133.151 222.95C133.133 226.325 130.373 229.058 126.998 229.04L116.18 228.983C112.804 228.966 110.072 226.204 110.09 222.83L110.117 217.718C110.134 214.343 112.895 211.61 116.27 211.628ZM127.017 225.237C128.295 225.243 129.341 224.209 129.347 222.931L129.374 217.819C129.38 216.541 128.346 215.495 127.068 215.489L116.25 215.432C114.972 215.426 113.926 216.46 113.92 217.738L113.893 222.849C113.887 224.127 114.921 225.173 116.199 225.179L127.017 225.237Z" fill="#CCCCCC"></path><path d="M171.641 224.217L157.105 223.797C155.83 223.76 154.827 222.697 154.864 221.423C154.901 220.148 155.964 219.145 157.238 219.182L171.774 219.602C173.049 219.64 174.052 220.702 174.015 221.977C173.978 223.251 172.915 224.254 171.641 224.217Z" fill="#999999"></path><path d="M200.111 225.04L185.573 224.62C184.299 224.583 183.296 223.52 183.333 222.245C183.37 220.971 184.433 219.968 185.707 220.005L200.244 220.425C201.518 220.462 202.521 221.525 202.484 222.8C202.447 224.074 201.384 225.077 200.111 225.04Z" fill="#999999"></path><path d="M144.739 212.451L155.557 212.507C158.933 212.525 161.664 215.287 161.647 218.661L161.62 223.773C161.602 227.148 158.841 229.88 155.466 229.863L144.648 229.806C141.273 229.788 138.541 227.027 138.559 223.652L138.585 218.541C138.603 215.165 141.363 212.433 144.739 212.451ZM155.486 226.058C156.763 226.065 157.809 225.03 157.816 223.753L157.842 218.641C157.849 217.363 156.814 216.317 155.537 216.311L144.719 216.254C143.441 216.248 142.395 217.282 142.389 218.56L142.362 223.672C142.356 224.95 143.39 225.995 144.668 226.002L155.486 226.058Z" fill="#CCCCCC"></path><path d="M173.095 213.27L183.912 213.327C187.288 213.345 190.02 216.106 190.002 219.48L189.975 224.592C189.958 227.967 187.198 230.7 183.822 230.682L173.004 230.626C169.628 230.608 166.896 227.846 166.914 224.472L166.941 219.36C166.959 215.985 169.719 213.252 173.095 213.27ZM183.842 226.878C185.12 226.884 186.166 225.85 186.172 224.572L186.199 219.46C186.205 218.182 185.171 217.137 183.893 217.13L173.076 217.074C171.798 217.067 170.752 218.102 170.746 219.379L170.719 224.491C170.713 225.769 171.747 226.815 173.025 226.821L183.842 226.878Z" fill="#CCCCCC"></path><path d="M228.528 225.862L213.991 225.442C212.717 225.405 211.714 224.342 211.751 223.067C211.788 221.793 212.851 220.79 214.125 220.827L228.662 221.247C229.936 221.284 230.939 222.347 230.902 223.621C230.866 224.895 229.803 225.898 228.528 225.862Z" fill="#999999"></path><path d="M255.445 222.021L242.594 221.65C241.32 221.613 240.257 222.616 240.22 223.89C240.183 225.165 241.186 226.227 242.46 226.265L254.974 226.627C255.131 225.091 255.271 223.555 255.445 222.021Z" fill="#999999"></path><path d="M201.627 214.095L212.444 214.151C215.819 214.169 218.551 216.931 218.533 220.305L218.507 225.417C218.489 228.792 215.729 231.524 212.353 231.507L201.535 231.45C198.159 231.432 195.428 228.671 195.445 225.296L195.472 220.184C195.491 216.81 198.251 214.078 201.627 214.095ZM212.373 227.703C213.651 227.71 214.697 226.675 214.703 225.397L214.73 220.286C214.736 219.009 213.702 217.963 212.424 217.956L201.606 217.9C200.329 217.893 199.283 218.928 199.276 220.205L199.25 225.317C199.243 226.595 200.278 227.641 201.555 227.647L212.373 227.703Z" fill="#CCCCCC"></path><path d="M229.99 214.915L240.807 214.972C244.183 214.989 246.914 217.751 246.897 221.125L246.87 226.237C246.852 229.612 244.091 232.345 240.716 232.327L229.898 232.27C226.523 232.253 223.791 229.491 223.809 226.117L223.835 221.005C223.853 217.63 226.614 214.897 229.99 214.915ZM240.736 228.523C242.014 228.529 243.06 227.495 243.067 226.217L243.093 221.106C243.1 219.828 242.065 218.782 240.787 218.776L229.97 218.719C228.693 218.713 227.647 219.747 227.64 221.025L227.614 226.137C227.607 227.415 228.642 228.46 229.919 228.467L240.736 228.523Z" fill="#CCCCCC"></path><path d="M137.722 165.55C124.299 165.55 113.379 154.629 113.379 141.207V130.378C113.379 116.955 124.299 106.035 137.722 106.035C151.145 106.035 162.065 116.955 162.065 130.378V141.207C162.064 154.629 151.145 165.55 137.722 165.55ZM137.722 115.057C129.274 115.057 122.401 121.93 122.401 130.378V141.207C122.401 149.655 129.274 156.528 137.722 156.528C146.17 156.528 153.043 149.655 153.043 141.207V130.378C153.042 121.93 146.169 115.057 137.722 115.057Z" fill="#BF981E" stroke="white" stroke-width="10" stroke-miterlimit="10" stroke-linecap="round" stroke-linejoin="round"></path><path d="M152.946 128.673C153.008 129.233 153.043 129.801 153.043 130.378V141.207C153.043 149.655 146.17 156.528 137.722 156.528C129.274 156.528 122.401 149.655 122.401 141.207V130.378C122.401 129.813 122.434 129.255 122.494 128.705C119.415 129.405 116.372 130.326 113.379 131.463V141.207C113.379 154.629 124.299 165.55 137.722 165.55C151.145 165.55 162.065 154.629 162.065 141.207V131.332C159.071 130.241 156.025 129.354 152.946 128.673Z" fill="#B08509" stroke="white" stroke-width="10" stroke-miterlimit="10" stroke-linecap="round" stroke-linejoin="round"></path><path d="M152.181 140.77H123.264C113.114 140.77 104.887 148.997 104.887 159.146V187.138C104.887 191.167 108.153 194.433 112.182 194.433H163.264C167.293 194.433 170.559 191.167 170.559 187.138V159.146C170.558 148.997 162.331 140.77 152.181 140.77Z" fill="#FFD553" stroke="white" stroke-width="10" stroke-miterlimit="10" stroke-linecap="round" stroke-linejoin="round"></path><path d="M137.368 182.807C119.54 182.213 109.372 163.262 110.344 146.081C106.975 149.412 104.887 154.035 104.887 159.146V187.138C104.887 191.167 108.153 194.433 112.182 194.433H163.264C167.293 194.433 170.559 191.167 170.559 187.138V174.636C160.851 180.922 148.285 183.243 137.368 182.807Z" fill="#FFCA28" stroke="white" stroke-width="10" stroke-miterlimit="10" stroke-linecap="round" stroke-linejoin="round"></path><path d="M137.716 167.135C142.43 167.135 146.252 163.313 146.252 158.599C146.252 153.884 142.43 150.062 137.716 150.062C133.001 150.062 129.18 153.884 129.18 158.599C129.18 163.313 133.001 167.135 137.716 167.135Z" fill="#1E1644" stroke="white" stroke-width="10" stroke-miterlimit="10" stroke-linecap="round" stroke-linejoin="round"></path><path d="M135.366 162.473L130.727 184.206H144.605L140.033 162.473H135.366Z" fill="#1E1644" stroke="white" stroke-width="10" stroke-miterlimit="10" stroke-linecap="round" stroke-linejoin="round"></path><path d="M137.722 165.55C124.299 165.55 113.379 154.629 113.379 141.207V130.378C113.379 116.955 124.299 106.035 137.722 106.035C151.145 106.035 162.065 116.955 162.065 130.378V141.207C162.064 154.629 151.145 165.55 137.722 165.55ZM137.722 115.057C129.274 115.057 122.401 121.93 122.401 130.378V141.207C122.401 149.655 129.274 156.528 137.722 156.528C146.17 156.528 153.043 149.655 153.043 141.207V130.378C153.042 121.93 146.169 115.057 137.722 115.057Z" fill="#BF981E"></path><path d="M152.946 128.673C153.008 129.233 153.043 129.801 153.043 130.378V141.207C153.043 149.655 146.17 156.528 137.722 156.528C129.274 156.528 122.401 149.655 122.401 141.207V130.378C122.401 129.813 122.434 129.255 122.494 128.705C119.415 129.405 116.372 130.326 113.379 131.463V141.207C113.379 154.629 124.299 165.55 137.722 165.55C151.145 165.55 162.065 154.629 162.065 141.207V131.332C159.071 130.241 156.025 129.354 152.946 128.673Z" fill="#B08509"></path><path d="M152.181 140.77H123.264C113.114 140.77 104.887 148.997 104.887 159.146V187.138C104.887 191.167 108.153 194.433 112.182 194.433H163.264C167.293 194.433 170.559 191.167 170.559 187.138V159.146C170.558 148.997 162.331 140.77 152.181 140.77Z" fill="#FFD553"></path><path d="M137.368 182.807C119.54 182.213 109.372 163.262 110.344 146.081C106.975 149.412 104.887 154.035 104.887 159.146V187.138C104.887 191.167 108.153 194.433 112.182 194.433H163.264C167.293 194.433 170.559 191.167 170.559 187.138V174.636C160.851 180.922 148.285 183.243 137.368 182.807Z" fill="#FFCA28"></path><path d="M137.716 167.135C142.43 167.135 146.252 163.313 146.252 158.599C146.252 153.884 142.43 150.062 137.716 150.062C133.001 150.062 129.18 153.884 129.18 158.599C129.18 163.313 133.001 167.135 137.716 167.135Z" fill="#1E1644"></path><path d="M135.366 162.473L130.727 184.206H144.605L140.033 162.473H135.366Z" fill="#1E1644"></path><path d="M49.8405 238.914H48.1094V239.26H49.8405V238.914Z" fill="#6352B9"></path><path d="M232.908 239.261H229.388V238.915H232.908V239.261ZM225.867 239.261H222.346V238.915H225.867V239.261ZM218.827 239.261H215.306V238.915H218.827V239.261ZM211.785 239.261H208.265V238.915H211.785V239.261ZM204.744 239.261H201.224V238.915H204.744V239.261ZM197.704 239.261H194.184V238.915H197.704V239.261ZM190.663 239.261H187.143V238.915H190.663V239.261ZM183.622 239.261H180.102V238.915H183.622V239.261ZM176.581 239.261H173.061V238.915H176.581V239.261ZM169.54 239.261H166.02V238.915H169.54V239.261ZM162.5 239.261H158.98V238.915H162.5V239.261ZM155.459 239.261H151.939V238.915H155.459V239.261ZM148.418 239.261H144.899V238.915H148.418V239.261ZM141.377 239.261H137.857V238.915H141.377V239.261ZM134.336 239.261H130.816V238.915H134.336V239.261ZM127.296 239.261H123.775V238.915H127.296V239.261ZM120.255 239.261H116.734V238.915H120.255V239.261ZM113.214 239.261H109.693V238.915H113.214V239.261ZM106.173 239.261H102.652V238.915H106.173V239.261ZM99.1325 239.261H95.612V238.915H99.1325V239.261ZM92.0914 239.261H88.5709V238.915H92.0914V239.261ZM85.0504 239.261H81.5298V238.915H85.0504V239.261ZM78.0101 239.261H74.4896V238.915H78.0101V239.261ZM70.969 239.261H67.4485V238.915H70.969V239.261ZM63.928 239.261H60.4074V238.915H63.928V239.261ZM56.8877 239.261H53.3672V238.915H56.8877V239.261Z" fill="#6352B9"></path><path d="M238.149 238.914H236.418V239.26H238.149V238.914Z" fill="#6352B9"></path><path d="M120.128 38.8782L120.113 39.2246L121.843 39.297L121.857 38.9506L120.128 38.8782Z" fill="#6352B9"></path><path d="M116.523 39.0734L112.926 38.9231L112.941 38.5771L116.537 38.7275L116.523 39.0734ZM109.33 38.7719L105.734 38.6216L105.748 38.2757L109.345 38.426L109.33 38.7719ZM102.137 38.4713L98.5409 38.3201L98.5554 37.9742L102.152 38.1254L102.137 38.4713ZM94.9443 38.1698L91.3478 38.0187L91.3624 37.6728L94.9589 37.8239L94.9443 38.1698ZM87.7513 37.8684L84.1548 37.718L84.1694 37.3721L87.7659 37.5224L87.7513 37.8684ZM80.5583 37.5669L76.9618 37.4166L76.9764 37.0707L80.5729 37.221L80.5583 37.5669ZM73.3653 37.2662L69.7688 37.1151L69.7834 36.7692L73.3799 36.9203L73.3653 37.2662ZM66.1723 36.9648L62.5758 36.8136L62.5904 36.4677L66.1869 36.6189L66.1723 36.9648ZM58.9793 36.6633L55.3828 36.513L55.3974 36.1671L58.9939 36.3174L58.9793 36.6633Z" fill="#6352B9"></path><path d="M50.0692 35.9428L50.0547 36.2892L51.7843 36.3616L51.7988 36.0152L50.0692 35.9428Z" fill="#6352B9"></path><path d="M30.166 102.752L29.6758 104.412L30.0075 104.51L30.4978 102.85L30.166 102.752Z" fill="#6352B9"></path><path d="M31.508 99.4291L31.1758 99.3314L32.1893 95.9094L32.5214 96.0072L31.508 99.4291ZM33.5341 92.5845L33.2019 92.4867L34.2154 89.0647L34.5476 89.1625L33.5341 92.5845ZM35.5603 85.7398L35.2281 85.642L36.2416 82.2201L36.5738 82.3179L35.5603 85.7398ZM37.5864 78.8943L37.2543 78.7965L38.2678 75.3746L38.5999 75.4724L37.5864 78.8943ZM39.6126 72.0496L39.2804 71.9519L40.2939 68.5299L40.6261 68.6277L39.6126 72.0496ZM41.6388 65.205L41.3066 65.1072L42.3201 61.6853L42.6523 61.7831L41.6388 65.205ZM43.6649 58.3603L43.3328 58.2625L44.3463 54.8398L44.6784 54.9376L43.6649 58.3603ZM45.6911 51.5156L45.3589 51.4178L46.3716 47.9959L46.7038 48.0937L45.6911 51.5156ZM47.7173 44.671L47.3851 44.5732L48.3978 41.1512L48.73 41.249L47.7173 44.671Z" fill="#6352B9"></path><path d="M49.8928 36.0653L49.4023 37.7255L49.7341 37.8235L50.2245 36.1633L49.8928 36.0653Z" fill="#6352B9"></path><path d="M5.47467 161.146L5.19531 161.35L6.21618 162.748L6.49554 162.544L5.47467 161.146Z" fill="#6352B9"></path><path d="M43.9516 214.417L41.8559 211.546L42.1355 211.342L44.2312 214.213L43.9516 214.417ZM39.7602 208.676L37.6637 205.806L37.9434 205.601L40.039 208.471L39.7602 208.676ZM35.5681 202.935L33.4724 200.064L33.752 199.86L35.8477 202.73L35.5681 202.935ZM31.3759 197.193L29.2802 194.322L29.5599 194.117L31.6556 196.988L31.3759 197.193ZM27.1838 191.451L25.0881 188.58L25.3685 188.376L27.4642 191.247L27.1838 191.451ZM22.9924 185.71L20.8968 182.839L21.1772 182.634L23.2729 185.505L22.9924 185.71ZM18.8003 179.968L16.7046 177.098L16.9834 176.894L19.0791 179.764L18.8003 179.968ZM14.6081 174.227L12.5125 171.356L12.7921 171.151L14.8878 174.022L14.6081 174.227ZM10.416 168.485L8.32031 165.615L8.59995 165.41L10.6956 168.281L10.416 168.485Z" fill="#6352B9"></path><path d="M46.3386 217.08L46.0586 217.284L47.0793 218.682L47.3593 218.478L46.3386 217.08Z" fill="#6352B9"></path><path d="M26.246 112.235L25.5625 113.826L25.8803 113.962L26.5638 112.372L26.246 112.235Z" fill="#6352B9"></path><path d="M7.4934 156.672L7.17578 156.535L8.4883 153.484L8.80593 153.621L7.4934 156.672ZM10.1193 150.571L9.80163 150.434L11.1142 147.383L11.4318 147.52L10.1193 150.571ZM12.7443 144.469L12.4267 144.332L13.7392 141.282L14.0568 141.419L12.7443 144.469ZM15.3693 138.368L15.0517 138.231L16.3651 135.18L16.6827 135.317L15.3693 138.368ZM17.9952 132.267L17.6776 132.13L18.9901 129.079L19.3077 129.216L17.9952 132.267ZM20.6202 126.165L20.3026 126.029L21.6159 122.978L21.9336 123.114L20.6202 126.165ZM23.2461 120.064L22.9285 119.928L24.241 116.877L24.5586 117.013L23.2461 120.064Z" fill="#6352B9"></path><path d="M5.85552 159.593L5.17188 161.183L5.48967 161.32L6.17331 159.729L5.85552 159.593Z" fill="#6352B9"></path><path d="M137.94 271.256L136.312 270.667L136.43 270.341L138.057 270.931L137.94 271.256Z" fill="#6352B9"></path><path d="M133.012 269.471L129.711 268.275L129.829 267.949L133.13 269.145L133.012 269.471ZM126.41 267.08L123.109 265.883L123.227 265.558L126.528 266.754L126.41 267.08ZM119.808 264.687L116.507 263.491L116.625 263.165L119.926 264.362L119.808 264.687ZM113.205 262.295L109.905 261.099L110.023 260.773L113.323 261.969L113.205 262.295ZM106.604 259.904L103.303 258.707L103.421 258.382L106.722 259.578L106.604 259.904ZM100.002 257.511L96.7003 256.315L96.8183 255.989L100.12 257.186L100.002 257.511ZM93.3996 255.119L90.0989 253.923L90.2169 253.597L93.5176 254.793L93.3996 255.119ZM86.7974 252.727L83.4967 251.531L83.6147 251.206L86.9154 252.402L86.7974 252.727ZM80.1952 250.335L76.8945 249.139L77.0125 248.813L80.3132 250.01L80.1952 250.335ZM73.593 247.943L70.2923 246.747L70.4103 246.421L73.711 247.617L73.593 247.943ZM66.9908 245.551L63.6893 244.355L63.8073 244.03L67.1088 245.226L66.9908 245.551ZM60.3886 243.159L57.0871 241.963L57.2051 241.637L60.5066 242.833L60.3886 243.159ZM53.7864 240.767L50.4857 239.571L50.6037 239.245L53.9044 240.441L53.7864 240.767ZM47.1842 238.375L43.8835 237.179L44.0015 236.854L47.3022 238.05L47.1842 238.375ZM40.582 235.983L37.2812 234.787L37.3992 234.461L40.6999 235.657L40.582 235.983Z" fill="#6352B9"></path><path d="M32.4815 232.671L32.3633 232.997L33.9908 233.587L34.109 233.261L32.4815 232.671Z" fill="#6352B9"></path><path d="M227.083 38.2933L225.352 38.307L225.354 38.6529L227.085 38.6392L227.083 38.2933Z" fill="#6352B9"></path><path d="M145.096 39.2576L145.094 38.9117L148.437 38.8859L148.44 39.2318L145.096 39.2576ZM151.783 39.2059L151.781 38.86L155.124 38.8341L155.127 39.18L151.783 39.2059ZM158.47 39.155L158.468 38.8091L161.811 38.7832L161.814 39.1291L158.47 39.155ZM165.158 39.1033L165.156 38.7574L168.499 38.7315L168.502 39.0774L165.158 39.1033ZM171.845 39.0515L171.843 38.7056L175.186 38.6798L175.189 39.0257L171.845 39.0515ZM178.533 39.0006L178.531 38.6539L181.874 38.628L181.877 38.9748L178.533 39.0006ZM185.22 38.9489L185.218 38.603L188.561 38.5771L188.564 38.9238L185.22 38.9489ZM191.908 38.8972L191.906 38.5505L195.249 38.5246L195.252 38.8705L191.908 38.8972ZM198.595 38.8454L198.593 38.4995L201.936 38.4737L201.939 38.8196L198.595 38.8454ZM205.283 38.7945L205.281 38.4486L208.624 38.4228L208.627 38.7687L205.283 38.7945ZM211.97 38.7428L211.968 38.3969L215.311 38.371L215.314 38.7169L211.97 38.7428ZM218.657 38.6919L218.655 38.3452L221.998 38.3193L222.001 38.6652L218.657 38.6919Z" fill="#6352B9"></path><path d="M141.755 38.947L140.023 38.9607L140.026 39.3066L141.757 39.2929L141.755 38.947Z" fill="#6352B9"></path><path d="M244.085 104.674L243.75 104.759L244.177 106.437L244.512 106.351L244.085 104.674Z" fill="#6352B9"></path><path d="M242.894 101.37L242.03 97.9712L242.365 97.8863L243.229 101.286L242.894 101.37ZM241.165 94.571L240.301 91.1709L240.637 91.0861L241.501 94.4854L241.165 94.571ZM239.436 87.7716L238.572 84.3715L238.908 84.2867L239.772 87.686L239.436 87.7716ZM237.708 80.9722L236.844 77.5721L237.179 77.4873L238.043 80.8874L237.708 80.9722ZM235.979 74.1728L235.114 70.7727L235.45 70.6878L236.314 74.0879L235.979 74.1728ZM234.249 67.3726L233.385 63.9725L233.721 63.8876L234.585 67.2877L234.249 67.3726ZM232.521 60.5732L231.658 57.1739L231.993 57.0882L232.857 60.4883L232.521 60.5732ZM230.793 53.773L229.929 50.3737L230.264 50.2888L231.129 53.6889L230.793 53.773ZM229.063 46.9735L228.199 43.5743L228.535 43.4894L229.399 46.8887L229.063 46.9735Z" fill="#6352B9"></path><path d="M227.238 38.4027L226.902 38.4879L227.329 40.1656L227.664 40.0804L227.238 38.4027Z" fill="#6352B9"></path><path d="M272.009 155.138L271.707 155.308L272.557 156.816L272.859 156.646L272.009 155.138Z" fill="#6352B9"></path><path d="M269.935 152.157L268.158 149.003L268.46 148.833L270.237 151.987L269.935 152.157ZM266.38 145.848L264.603 142.694L264.904 142.524L266.682 145.679L266.38 145.848ZM262.826 139.54L261.048 136.386L261.349 136.216L263.127 139.371L262.826 139.54ZM259.27 133.232L257.493 130.078L257.795 129.908L259.572 133.063L259.27 133.232ZM255.716 126.923L253.938 123.77L254.239 123.6L256.017 126.754L255.716 126.923ZM252.161 120.615L250.383 117.461L250.685 117.291L252.462 120.446L252.161 120.615ZM248.605 114.307L246.828 111.153L247.13 110.983L248.907 114.138L248.605 114.307Z" fill="#6352B9"></path><path d="M244.493 106.331L244.191 106.501L245.041 108.009L245.343 107.839L244.493 106.331Z" fill="#6352B9"></path><path d="M228.36 214.168L227.305 215.54L227.579 215.751L228.634 214.378L228.36 214.168Z" fill="#6352B9"></path><path d="M230.704 211.697L230.43 211.486L232.484 208.811L232.759 209.022L230.704 211.697ZM234.813 206.349L234.539 206.138L236.593 203.463L236.868 203.674L234.813 206.349ZM238.922 201L238.647 200.789L240.702 198.115L240.977 198.326L238.922 201ZM243.031 195.651L242.756 195.44L244.811 192.766L245.086 192.977L243.031 195.651ZM247.14 190.303L246.865 190.092L248.92 187.417L249.195 187.628L247.14 190.303ZM251.25 184.955L250.975 184.744L253.029 182.07L253.303 182.28L251.25 184.955ZM255.358 179.606L255.083 179.395L257.138 176.721L257.412 176.932L255.358 179.606ZM259.467 174.258L259.192 174.047L261.246 171.373L261.521 171.584L259.467 174.258ZM263.576 168.91L263.301 168.699L265.355 166.024L265.629 166.235L263.576 168.91ZM267.685 163.562L267.41 163.351L269.464 160.676L269.739 160.887L267.685 163.562Z" fill="#6352B9"></path><path d="M272.57 156.645L271.516 158.018L271.79 158.229L272.845 156.856L272.57 156.645Z" fill="#6352B9"></path><path d="M29.9982 104.436L29.6562 104.488L29.9166 106.199L30.2586 106.147L29.9982 104.436Z" fill="#6352B9"></path><path d="M46.2663 213.545L45.7555 210.191L46.0974 210.138L46.6082 213.492L46.2663 213.545ZM45.2447 206.835L44.7339 203.481L45.0758 203.429L45.5866 206.783L45.2447 206.835ZM44.2232 200.126L43.7124 196.772L44.055 196.72L44.5658 200.074L44.2232 200.126ZM43.2016 193.418L42.6908 190.063L43.0327 190.011L43.5435 193.365L43.2016 193.418ZM42.18 186.709L41.6692 183.355L42.0111 183.302L42.5219 186.656L42.18 186.709ZM41.1585 180L40.6477 176.645L40.9895 176.592L41.5003 179.947L41.1585 180ZM40.1369 173.291L39.6261 169.937L39.968 169.884L40.4788 173.238L40.1369 173.291ZM39.1153 166.582L38.6045 163.227L38.9472 163.175L39.458 166.529L39.1153 166.582ZM38.0946 159.872L37.5838 156.518L37.9256 156.466L38.4364 159.82L38.0946 159.872ZM37.073 153.163L36.5622 149.809L36.9041 149.757L37.4149 153.111L37.073 153.163ZM36.0514 146.454L35.5406 143.1L35.8825 143.048L36.3933 146.403L36.0514 146.454ZM35.0298 139.746L34.5191 136.391L34.8609 136.339L35.3717 139.694L35.0298 139.746ZM34.0083 133.036L33.4975 129.682L33.8402 129.63L34.351 132.984L34.0083 133.036ZM32.9875 126.327L32.4767 122.973L32.8186 122.921L33.3294 126.275L32.9875 126.327ZM31.9659 119.618L31.4552 116.264L31.797 116.212L32.3078 119.566L31.9659 119.618ZM30.9444 112.909L30.4336 109.555L30.7755 109.503L31.2862 112.857L30.9444 112.909Z" fill="#6352B9"></path><path d="M47.0384 218.611L46.7773 216.899L47.12 216.846L47.3803 218.558L47.0384 218.611Z" fill="#6352B9"></path><path d="M244.164 106.371L243.914 108.084L244.256 108.134L244.507 106.421L244.164 106.371Z" fill="#6352B9"></path><path d="M228.377 216.231L228.035 216.181L228.531 212.803L228.873 212.853L228.377 216.231ZM229.37 209.476L229.028 209.426L229.525 206.048L229.867 206.098L229.37 209.476ZM230.364 202.72L230.022 202.67L230.519 199.292L230.861 199.342L230.364 202.72ZM231.357 195.965L231.015 195.915L231.511 192.537L231.853 192.587L231.357 195.965ZM232.349 189.209L232.007 189.159L232.505 185.781L232.846 185.831L232.349 189.209ZM233.343 182.454L233.001 182.404L233.497 179.026L233.839 179.076L233.343 182.454ZM234.337 175.698L233.994 175.648L234.49 172.27L234.832 172.32L234.337 175.698ZM235.329 168.943L234.987 168.893L235.484 165.515L235.825 165.565L235.329 168.943ZM236.322 162.187L235.981 162.137L236.477 158.759L236.819 158.809L236.322 162.187ZM237.316 155.432L236.974 155.382L237.471 152.004L237.813 152.054L237.316 155.432ZM238.309 148.676L237.967 148.626L238.463 145.249L238.805 145.299L238.309 148.676ZM239.302 141.921L238.96 141.87L239.457 138.493L239.799 138.544L239.302 141.921ZM240.295 135.165L239.953 135.115L240.449 131.738L240.791 131.788L240.295 135.165ZM241.289 128.41L240.947 128.36L241.443 124.983L241.785 125.033L241.289 128.41ZM242.281 121.655L241.939 121.605L242.436 118.227L242.778 118.277L242.281 121.655ZM243.275 114.899L242.932 114.849L243.428 111.471L243.77 111.521L243.275 114.899Z" fill="#6352B9"></path><path d="M227.555 219.566L227.305 221.279L227.647 221.329L227.897 219.616L227.555 219.566Z" fill="#6352B9"></path><path d="M130.985 38.9793L130.809 39.2767L132.297 40.16L132.474 39.8625L130.985 38.9793Z" fill="#6352B9"></path><path d="M239.797 103.9L236.811 102.129L236.988 101.832L239.974 103.603L239.797 103.9ZM233.826 100.359L230.84 98.5886L231.017 98.2912L234.003 100.062L233.826 100.359ZM227.855 96.8179L224.869 95.0471L225.046 94.7497L228.032 96.5204L227.855 96.8179ZM221.883 93.2763L218.897 91.5056L219.074 91.2081L222.06 92.9789L221.883 93.2763ZM215.912 89.7348L212.926 87.964L213.103 87.6666L216.089 89.4374L215.912 89.7348ZM209.94 86.1932L206.955 84.4225L207.132 84.125L210.117 85.8958L209.94 86.1932ZM203.968 82.6517L200.983 80.8809L201.16 80.5835L204.145 82.3543L203.968 82.6517ZM197.996 79.1109L195.011 77.3402L195.188 77.0428L198.173 78.8135L197.996 79.1109ZM192.025 75.5694L189.04 73.7986L189.217 73.5012L192.202 75.272L192.025 75.5694ZM186.054 72.0279L183.068 70.2571L183.245 69.9597L186.231 71.7304L186.054 72.0279ZM180.082 68.4863L177.097 66.7155L177.274 66.4181L180.26 68.1889L180.082 68.4863ZM174.112 64.9448L171.126 63.174L171.303 62.8766L174.289 64.6473L174.112 64.9448ZM168.14 61.4032L165.154 59.6324L165.331 59.335L168.317 61.1058L168.14 61.4032ZM162.168 57.8617L159.183 56.0909L159.36 55.7935L162.345 57.5643L162.168 57.8617ZM156.196 54.3209L153.211 52.5502L153.388 52.2527L156.373 54.0235L156.196 54.3209ZM150.225 50.7794L147.24 49.0086L147.417 48.7112L150.402 50.482L150.225 50.7794ZM144.253 47.2378L141.268 45.4671L141.444 45.1697L144.43 46.9404L144.253 47.2378ZM138.282 43.6963L135.297 41.9255L135.473 41.6281L138.459 43.3989L138.282 43.6963Z" fill="#6352B9"></path><path d="M244.266 106.554L242.777 105.671L242.954 105.374L244.444 106.257L244.266 106.554Z" fill="#6352B9"></path><path d="M27.7296 111.167L26.3125 112.162L26.5112 112.445L27.9283 111.45L27.7296 111.167Z" fill="#6352B9"></path><path d="M30.8316 109.419L30.6328 109.135L33.5375 107.101L33.7363 107.384L30.8316 109.419ZM36.641 105.351L36.4422 105.067L39.3469 103.033L39.5457 103.317L36.641 105.351ZM42.4504 101.282L42.2515 100.999L45.1562 98.9653L45.355 99.2481L42.4504 101.282ZM48.2597 97.2139L48.0609 96.9302L50.9656 94.896L51.1644 95.1797L48.2597 97.2139ZM54.0691 93.1462L53.8703 92.8625L56.7749 90.8283L56.9738 91.112L54.0691 93.1462ZM59.8784 89.0777L59.6796 88.794L62.5843 86.7598L62.7831 87.0435L59.8784 89.0777ZM65.6878 85.0092L65.489 84.7256L68.3937 82.6913L68.5925 82.975L65.6878 85.0092ZM71.4972 80.9407L71.2984 80.6571L74.203 78.6228L74.4018 78.9065L71.4972 80.9407ZM77.3065 76.8722L77.1077 76.5886L80.0124 74.5543L80.2112 74.838L77.3065 76.8722ZM83.1159 72.8046L82.9171 72.5209L85.8218 70.4866L86.0206 70.7703L83.1159 72.8046ZM88.9261 68.7361L88.7273 68.4524L91.6319 66.4181L91.8307 66.7018L88.9261 68.7361ZM94.7346 64.6676L94.5358 64.3839L97.4405 62.3496L97.6393 62.6333L94.7346 64.6676ZM100.545 60.5991L100.346 60.3154L103.251 58.2812L103.449 58.5648L100.545 60.5991ZM106.354 56.5314L106.155 56.2477L109.06 54.2135L109.259 54.4972L106.354 56.5314ZM112.164 52.4629L111.965 52.1792L114.869 50.145L115.068 50.4278L112.164 52.4629ZM117.973 48.3944L117.774 48.1115L120.679 46.0773L120.878 46.3602L117.973 48.3944ZM123.782 44.3267L123.583 44.043L126.488 42.0088L126.687 42.2925L123.782 44.3267Z" fill="#6352B9"></path><path d="M129.586 40.2582L129.387 39.9745L130.805 38.9812L131.004 39.2649L129.586 40.2582Z" fill="#6352B9"></path><path d="M139.576 270.431L137.918 270.929L138.017 271.26L139.675 270.763L139.576 270.431Z" fill="#6352B9"></path><path d="M142.943 269.789L142.844 269.457L146.089 268.484L146.189 268.816L142.943 269.789ZM149.435 267.843L149.335 267.511L152.581 266.537L152.681 266.869L149.435 267.843ZM155.926 265.896L155.826 265.564L159.072 264.591L159.173 264.922L155.926 265.896ZM162.418 263.949L162.317 263.618L165.563 262.645L165.663 262.976L162.418 263.949ZM168.909 262.003L168.809 261.672L172.055 260.698L172.155 261.029L168.909 262.003ZM175.401 260.056L175.3 259.725L178.546 258.752L178.646 259.083L175.401 260.056ZM181.892 258.11L181.792 257.779L185.038 256.806L185.138 257.137L181.892 258.11ZM188.384 256.162L188.283 255.831L191.529 254.858L191.629 255.189L188.384 256.162ZM194.875 254.216L194.775 253.885L198.021 252.912L198.121 253.243L194.875 254.216ZM201.366 252.27L201.266 251.939L204.511 250.965L204.611 251.296L201.366 252.27ZM207.858 250.323L207.758 249.992L211.004 249.019L211.104 249.35L207.858 250.323ZM214.35 248.377L214.249 248.046L217.495 247.073L217.595 247.404L214.35 248.377ZM220.84 246.43L220.74 246.099L223.986 245.125L224.086 245.456L220.84 246.43ZM227.332 244.483L227.231 244.152L230.478 243.179L230.578 243.51L227.332 244.483ZM233.823 242.537L233.723 242.206L236.969 241.232L237.069 241.564L233.823 242.537Z" fill="#6352B9"></path><path d="M240.306 240.59L240.207 240.259L241.865 239.761L241.965 240.093L240.306 240.59Z" fill="#6352B9"></path><path d="M39.1133 129.784L55.8229 122.243L56.6691 83.0283L39.9595 90.5681L39.1133 129.784Z" fill="#4D37BF"></path><path d="M39.9536 90.5681L56.6632 83.0283L19.4244 79.6824L2.71484 87.2221L39.9536 90.5681Z" fill="#A492FF"></path><path d="M2.72119 87.2221L1.875 126.438L39.1138 129.784L39.96 90.5681L2.72119 87.2221Z" fill="#6749FF"></path><path d="M255.566 129.784L272.276 122.243L273.122 83.0283L256.413 90.5681L255.566 129.784Z" fill="#4D37BF"></path><path d="M256.407 90.5681L273.116 83.0283L235.878 79.6824L219.168 87.2221L256.407 90.5681Z" fill="#A492FF"></path><path d="M219.174 87.2221L218.328 126.438L255.567 129.784L256.413 90.5681L219.174 87.2221Z" fill="#6749FF"></path><path d="M54.1875 46.6754L60.717 43.7295L61.0475 28.4051L54.5181 31.3518L54.1875 46.6754Z" fill="#776EBF"></path><path d="M54.5126 31.3518L61.0421 28.4051L46.4904 27.0982L39.9609 30.0441L54.5126 31.3518Z" fill="#C5BEFE"></path><path d="M39.9634 30.0441L39.6328 45.3685L54.1845 46.6753L54.5151 31.3518L39.9634 30.0441Z" fill="#9E92FE"></path><path d="M234.203 47.4617L240.733 44.5158L241.064 29.1915L234.534 32.1382L234.203 47.4617Z" fill="#776EBF"></path><path d="M234.528 32.1382L241.059 29.1915L226.507 27.8838L219.977 30.8305L234.528 32.1382Z" fill="#C5BEFE"></path><path d="M219.979 30.8305L219.648 46.1549L234.2 47.4617L234.531 32.1382L219.979 30.8305Z" fill="#9E92FE"></path><path d="M274.145 165.05L280.674 162.105L281.005 146.78L274.475 149.726L274.145 165.05Z" fill="#776EBF"></path><path d="M274.462 149.726L280.991 146.78L266.44 145.473L259.91 148.419L274.462 149.726Z" fill="#C5BEFE"></path><path d="M259.913 148.419L259.582 163.743L274.134 165.05L274.464 149.726L259.913 148.419Z" fill="#9E92FE"></path><path d="M14.5625 170.379L21.0928 167.433L21.4233 152.109L14.8939 155.055L14.5625 170.379Z" fill="#776EBF"></path><path d="M14.8798 155.055L21.4093 152.109L6.85759 150.801L0.328125 153.748L14.8798 155.055Z" fill="#C5BEFE"></path><path d="M0.330558 153.748L0 169.071L14.5509 170.379L14.8823 155.055L0.330558 153.748Z" fill="#9E92FE"></path><path d="M154.906 68.0111L177.59 57.776L178.739 4.54129L156.055 14.7764L154.906 68.0111Z" fill="#009E9F"></path><path d="M156.059 14.7764L178.743 4.5413L128.192 0L105.508 10.2351L156.059 14.7764Z" fill="#99EDEE"></path><path d="M105.513 10.2351L104.363 63.4698L154.916 68.0111L156.064 14.7764L105.513 10.2351Z" fill="#00D3D4"></path><path d="M61.5117 255.528L84.1956 245.293L85.344 192.057L62.6602 202.293L61.5117 255.528Z" fill="#009E9F"></path><path d="M62.6648 202.293L85.3486 192.057L34.7971 187.516L12.1133 197.751L62.6648 202.293Z" fill="#99EDEE"></path><path d="M12.1102 197.751L10.9609 250.986L61.5132 255.528L62.6617 202.293L12.1102 197.751Z" fill="#00D3D4"></path><path d="M236.152 255.528L258.836 245.293L259.985 192.057L237.302 202.293L236.152 255.528Z" fill="#009E9F"></path><path d="M237.306 202.293L259.989 192.057L209.438 187.516L186.754 197.751L237.306 202.293Z" fill="#99EDEE"></path><path d="M186.758 197.751L185.609 250.986L236.161 255.528L237.31 202.293L186.758 197.751Z" fill="#00D3D4"></path><path d="M140.309 276.074L146.838 273.127L147.169 257.804L140.639 260.75L140.309 276.074Z" fill="#776EBF"></path><path d="M140.634 260.75L147.163 257.804L132.611 256.496L126.082 259.442L140.634 260.75Z" fill="#C5BEFE"></path><path d="M126.084 259.442L125.754 274.766L140.306 276.074L140.636 260.75L126.084 259.442Z" fill="#9E92FE"></path><path d="M51.6193 236.801C52.122 236.189 52.5528 235.512 52.8874 234.804C53.719 233.044 53.8492 230.922 53.0515 229.147C52.358 227.604 50.9275 226.375 49.2634 226.016C48.7672 225.91 45.5812 225.409 45.5012 226.048C46.0088 221.907 43.4047 217.778 39.6401 216.151C34.7368 214.031 29.0551 216.239 26.8544 221.082C27.3288 220.038 24.4936 219.206 23.978 219.184C22.5951 219.126 21.1775 219.72 20.1794 220.664C17.7306 222.978 16.8528 226.758 19.448 229.304C20.7355 230.567 22.663 231.142 24.433 230.791C25.537 233.846 28.2332 236.175 31.293 237.266C34.3529 238.356 37.7352 238.303 40.9042 237.586C41.2533 237.507 41.6178 237.419 41.9645 237.511C42.3702 237.617 42.6725 237.945 42.9837 238.226C45.9094 240.866 49.4404 239.452 51.6193 236.801Z" fill="#FFD553" stroke="white" stroke-width="3" stroke-miterlimit="10"></path><path d="M49.7426 235.594C50.1838 235.058 50.5613 234.464 50.8546 233.842C51.5845 232.298 51.6984 230.436 50.9985 228.879C50.3899 227.525 49.1348 226.447 47.6752 226.133C47.2404 226.039 44.4448 225.599 44.3745 226.161C44.8198 222.527 42.535 218.906 39.2319 217.478C34.9298 215.618 29.9448 217.555 28.014 221.804C28.4302 220.888 25.9426 220.157 25.4908 220.138C24.2777 220.087 23.0339 220.609 22.1586 221.436C20.0096 223.466 19.2402 226.783 21.5169 229.016C22.6467 230.124 24.3375 230.63 25.8901 230.321C26.8591 233.001 29.2239 235.044 31.9087 236.001C34.5936 236.958 37.5613 236.912 40.3407 236.282C40.647 236.213 40.9671 236.137 41.271 236.216C41.6274 236.309 41.8917 236.597 42.1657 236.843C44.7333 239.161 47.8312 237.92 49.7426 235.594Z" fill="#FFD553"></path><path d="M36.4035 222.413C39.0059 222.998 40.6999 225.476 40.3686 228.07C40.8478 228.227 41.3206 228.397 41.7829 228.593C42.4069 225.132 40.1916 221.751 36.7276 220.972C34.3321 220.432 31.9439 221.275 30.3945 222.968C30.6895 223.381 30.9853 223.793 31.2852 224.203C32.4757 222.732 34.4347 221.97 36.4035 222.413Z" fill="#BF981E"></path><path d="M39.2734 226.926L40.5609 229.572L42.9217 227.937L39.2734 226.926Z" fill="#BF981E"></path><path d="M34.3597 231.953C31.7572 231.368 30.0633 228.891 30.3946 226.297C29.9154 226.14 29.4426 225.969 28.9803 225.774C28.3555 229.235 30.5716 232.616 34.0356 233.395C36.4303 233.934 38.8185 233.092 40.3687 231.399C40.0728 230.986 39.7779 230.574 39.478 230.164C38.2867 231.635 36.3276 232.396 34.3597 231.953Z" fill="#BF981E"></path><path d="M31.4959 227.441L30.2084 224.794L27.8477 226.43L31.4959 227.441Z" fill="#BF981E"></path><path d="M144.859 36.8007C146.458 45.2319 140.921 53.364 132.489 54.9635C124.057 56.5629 115.925 51.0251 114.326 42.5931C112.726 34.1619 118.264 26.0298 126.696 24.4304C135.127 22.8309 143.26 28.3695 144.859 36.8007Z" fill="#FFE698" stroke="white" stroke-width="3" stroke-miterlimit="10"></path><path d="M143.629 37.0351C145.099 44.7857 140.008 52.2608 132.258 53.7309C124.507 55.2019 117.032 50.1102 115.562 42.3595C114.091 34.6089 119.182 27.1338 126.933 25.6637C134.683 24.1935 142.158 29.2844 143.629 37.0351Z" fill="#FFE698"></path><path d="M140.607 37.6081C141.761 43.689 137.766 49.5541 131.685 50.7074C125.604 51.8616 119.739 47.8666 118.585 41.7857C117.432 35.7048 121.426 29.8396 127.507 28.6863C133.589 27.533 139.454 31.5272 140.607 37.6081Z" fill="#FFCA28"></path><path d="M125.519 44.0584L126.457 43.8806L125.108 36.766L124.169 36.9438L123.773 34.8586L129.805 33.7142C132.489 33.205 133.957 33.9655 134.291 35.7274C134.549 37.0852 134.303 37.819 133.183 38.5343C134.408 38.6369 135.541 39.3094 135.838 40.8789C136.271 43.1588 135.183 44.4035 132.063 44.9959L125.918 46.1621L125.519 44.0584ZM128.923 38.6046L129.909 38.4179C130.767 38.2555 130.92 37.7406 130.773 36.964C130.632 36.2204 130.097 35.8697 129.483 35.986L128.463 36.1792L128.923 38.6046ZM131.097 42.9996C131.776 42.8711 132.309 42.2334 132.144 41.3606C131.987 40.5354 131.404 40.0263 130.515 40.1952L129.271 40.4312L129.804 43.2445L131.097 42.9996Z" fill="#BF981E"></path><path d="M127.008 32.4206L125.945 32.6221L126.638 36.2708L127.7 36.0693L127.008 32.4206Z" fill="#BF981E"></path><path d="M129.316 31.9809L128.254 32.1826L128.947 35.8313L130.009 35.6296L129.316 31.9809Z" fill="#BF981E"></path><path d="M129.164 43.7635L128.102 43.9651L128.794 47.6138L129.856 47.4122L129.164 43.7635Z" fill="#BF981E"></path><path d="M131.457 43.3432L130.395 43.5448L131.087 47.1935L132.149 46.9919L131.457 43.3432Z" fill="#BF981E"></path><path d="M219.017 216.567L208.155 213.749C204.47 212.793 200.708 215.005 199.752 218.691L198.598 223.138C197.641 226.823 199.854 230.585 203.539 231.541L210.556 233.361C210.897 236.356 212.516 239.204 214.97 240.963C213.937 239.329 214.143 237.216 214.579 235.332C214.648 235.036 214.72 234.742 214.798 234.448C218.352 235.152 221.882 232.97 222.803 229.417L223.957 224.97C224.913 221.285 222.701 217.523 219.017 216.567Z" fill="#A3D165" stroke="white" stroke-width="4" stroke-miterlimit="10" stroke-linecap="round" stroke-linejoin="round"></path><path d="M218.284 217.471L208.356 214.896C204.988 214.022 201.55 216.044 200.676 219.412L199.621 223.477C198.748 226.845 200.77 230.283 204.138 231.157L210.551 232.821C210.863 235.557 212.342 238.16 214.585 239.769C213.641 238.275 213.83 236.344 214.228 234.621C214.29 234.351 214.357 234.082 214.428 233.814C217.677 234.457 220.903 232.463 221.745 229.216L222.8 225.151C223.673 221.783 221.651 218.345 218.284 217.471Z" fill="#FFCA28"></path><path d="M205.507 222.989C205.507 223.791 204.856 224.441 204.055 224.441C203.252 224.441 202.602 223.791 202.602 222.989C202.602 222.186 203.252 221.536 204.055 221.536C204.857 221.536 205.507 222.186 205.507 222.989Z" fill="#BF981E"></path><path d="M218.839 226.537C218.839 227.339 218.188 227.989 217.386 227.989C216.583 227.989 215.934 227.339 215.934 226.537C215.934 225.734 216.584 225.084 217.386 225.084C218.188 225.084 218.839 225.734 218.839 226.537Z" fill="#BF981E"></path><path d="M212.284 224.809C212.284 225.611 211.634 226.262 210.832 226.262C210.03 226.262 209.379 225.611 209.379 224.809C209.379 224.006 210.029 223.356 210.832 223.356C211.635 223.356 212.284 224.007 212.284 224.809Z" fill="#BF981E"></path></svg>