<svg xmlns="http://www.w3.org/2000/svg" width="267" height="287" viewBox="0 0 267 287" fill="none"><path d="M247.378 234.61C247.378 238.345 243.859 242.623 238.012 245.979L167.405 286.777H124.596L109.754 150.801L241.585 226.976C244.184 228.492 247.378 231.09 247.378 234.61Z" fill="#514F5A"></path><path d="M210.326 235.752L210.291 238.47C210.069 240.311 208.622 242.225 205.998 243.746L135.556 284.278C134.33 284.989 132.957 285.553 131.484 285.946C127.386 287.125 122.725 287.049 119.29 285.676C118.799 285.48 118.309 285.26 117.867 285.014L3.09245 218.72C1.03178 217.541 0.0259018 215.947 0.0259018 214.304H0L0.074829 209.89L2.40604 211.608C2.96941 211.117 3.60762 210.676 4.34368 210.233L74.7836 169.702C80.0339 166.683 87.9586 166.34 92.498 168.964L168.901 213.079L207.272 235.234C207.346 235.283 207.419 235.332 207.494 235.382L210.326 235.752Z" fill="#B3B3B3"></path><path d="M210.344 234.548L210.295 238.47C210.074 240.312 208.627 242.225 206.002 243.747L135.561 284.278C134.334 284.99 132.961 285.553 131.488 285.946V213.08H168.904L207.276 235.235C207.35 235.284 207.423 235.333 207.497 235.383L210.344 234.548Z" fill="#4D4D4D"></path><path d="M153.671 273.718L148.031 276.984V273.643L153.671 270.378V273.718Z" fill="#303030"></path><path d="M153.039 273.372V270.743L153.671 270.378V273.718L148.031 276.984V276.272L153.039 273.372Z" fill="#F9F9F9"></path><path d="M153.035 273.372L153.668 273.718V270.378L153.035 270.743V273.372Z" fill="#DCDEDD"></path><path d="M153.039 273.372L150.886 272.456L148.031 274.122V276.272L153.039 273.372Z" fill="#666666"></path><path d="M150.893 272.456L150.887 271.99L153.047 270.743V273.372L150.893 272.456Z" fill="#404040"></path><path d="M119.285 273.868V285.675C122.714 287.056 127.38 287.113 131.49 285.946V273.868H119.285Z" fill="#999999"></path><path d="M3.0837 215.062L117.867 281.338C122.404 283.956 130.328 283.628 135.564 280.599L186.333 251.379L206.007 240.057C207.743 239.046 208.966 237.88 209.663 236.656C211.057 234.211 210.302 231.593 207.274 229.842L92.4892 163.568C87.9527 160.95 80.028 161.277 74.7936 164.307L4.34932 204.834C4.03777 205.02 3.73846 205.205 3.45281 205.403C-0.941953 208.405 -1.18443 212.601 3.0837 215.062Z" fill="#F2F2F2"></path><path d="M86.746 257.164L37.3438 228.641L68.0157 210.933L117.419 239.455L86.746 257.164Z" fill="#F0F0F0"></path><path d="M68.0164 212.622L115.957 240.3L117.42 239.455L68.0164 210.933L37.3438 228.641L38.8065 229.486L68.0164 212.622Z" fill="#DCDEDD"></path><path d="M68.0164 212.622V210.933L37.3438 228.641L38.8065 229.486L68.0164 212.622Z" fill="#808080"></path><path d="M160.203 251.069L154.293 254.462L160.23 257.877L160.708 258.827L162.101 258.954L168.011 255.561L160.203 251.069Z" fill="#CCCCCC"></path><path d="M160.71 257.877L152.902 253.385L158.813 249.991L166.621 254.484L160.71 257.877Z" fill="#999999"></path><path d="M160.71 257.453L153.272 253.172L152.902 253.385L160.71 257.877L166.621 254.484L166.251 254.272L160.71 257.453Z" fill="white"></path><path d="M166.626 254.484V255.434L160.715 258.827V257.876L166.626 254.484Z" fill="#1A1A1A"></path><path d="M152.902 253.385V254.334L160.71 258.827V257.876L152.902 253.385Z" fill="#4D4D4D"></path><path d="M149.827 245.035L143.918 248.429L149.854 251.844L150.332 252.794L151.725 252.921L157.635 249.528L149.827 245.035Z" fill="#CCCCCC"></path><path d="M150.328 251.844L142.52 247.352L148.43 243.958L156.238 248.451L150.328 251.844Z" fill="#999999"></path><path d="M150.328 251.419L142.889 247.139L142.52 247.352L150.328 251.844L156.238 248.451L155.869 248.238L150.328 251.419Z" fill="white"></path><path d="M156.242 248.451V249.401L150.332 252.793V251.843L156.242 248.451Z" fill="#1A1A1A"></path><path d="M142.52 247.352V248.302L150.328 252.793V251.844L142.52 247.352Z" fill="#4D4D4D"></path><path d="M139.488 239.001L133.578 242.395L139.516 245.811L139.994 246.761L141.386 246.887L147.296 243.496L139.488 239.001Z" fill="#CCCCCC"></path><path d="M139.989 245.811L132.18 241.319L138.09 237.926L145.899 242.418L139.989 245.811Z" fill="#999999"></path><path d="M139.989 245.386L132.55 241.107L132.18 241.319L139.989 245.811L145.899 242.418L145.529 242.205L139.989 245.386Z" fill="white"></path><path d="M145.903 242.418V243.368L139.992 246.76V245.81L145.903 242.418Z" fill="#1A1A1A"></path><path d="M132.18 241.319V242.268L139.989 246.761V245.811L132.18 241.319Z" fill="#4D4D4D"></path><path d="M76.3749 201.881L70.4648 205.274L76.4015 208.689L76.8814 209.639L78.273 209.766L84.1844 206.374L76.3749 201.881Z" fill="#CCCCCC"></path><path d="M76.8894 208.689L69.082 204.197L74.9899 200.804L82.7995 205.297L76.8894 208.689Z" fill="#999999"></path><path d="M76.8894 208.265L69.4511 203.986L69.082 204.197L76.8894 208.689L82.7995 205.297L82.4304 205.085L76.8894 208.265Z" fill="white"></path><path d="M82.8046 205.296V206.247L76.8945 209.639V208.689L82.8046 205.296Z" fill="#1A1A1A"></path><path d="M69.082 204.197V205.147L76.8894 209.64V208.689L69.082 204.197Z" fill="#4D4D4D"></path><path d="M66.0148 195.848L60.1055 199.242L66.0421 202.657L66.5213 203.607L67.9129 203.733L73.8236 200.341L66.0148 195.848Z" fill="#CCCCCC"></path><path d="M66.5237 202.658L58.7148 198.165L64.6249 194.772L72.433 199.264L66.5237 202.658Z" fill="#999999"></path><path d="M66.5237 202.233L59.0847 197.953L58.7148 198.165L66.5237 202.658L72.433 199.265L72.0639 199.052L66.5237 202.233Z" fill="white"></path><path d="M72.4367 199.264V200.214L66.5273 203.607V202.657L72.4367 199.264Z" fill="#1A1A1A"></path><path d="M58.7148 198.165V199.115L66.5237 203.607V202.658L58.7148 198.165Z" fill="#4D4D4D"></path><path d="M50.5045 186.872L44.5938 190.265L55.6871 196.625L56.1656 197.574L57.5579 197.701L63.4686 194.308L50.5045 186.872Z" fill="#CCCCCC"></path><path d="M56.1626 196.625L43.1992 189.189L49.1086 185.796L62.0734 193.232L56.1626 196.625Z" fill="#999999"></path><path d="M56.1626 196.199L43.5683 188.976L43.1992 189.189L56.1626 196.625L62.0734 193.232L61.7028 193.019L56.1626 196.199Z" fill="white"></path><path d="M62.0748 193.232V194.181L56.1641 197.574V196.625L62.0748 193.232Z" fill="#1A1A1A"></path><path d="M43.1992 189.189V190.138L56.1626 197.574V196.625L43.1992 189.189Z" fill="#4D4D4D"></path><path d="M124.421 230.234L118.512 233.627L129.162 239.779L129.641 240.729L131.034 240.856L136.943 237.463L124.421 230.234Z" fill="#CCCCCC"></path><path d="M129.642 239.779L117.121 232.55L123.03 229.158L135.553 236.387L129.642 239.779Z" fill="#999999"></path><path d="M129.643 239.354L117.49 232.339L117.121 232.55L129.643 239.779L135.553 236.387L135.183 236.174L129.643 239.354Z" fill="white"></path><path d="M135.547 236.387V237.336L129.637 240.729V239.779L135.547 236.387Z" fill="#1A1A1A"></path><path d="M117.121 232.55V233.5L129.642 240.729V239.779L117.121 232.55Z" fill="#4D4D4D"></path><path d="M111.429 211.87L105.52 215.264L111.456 218.679L111.935 219.628L113.328 219.755L119.238 216.362L111.429 211.87Z" fill="#CCCCCC"></path><path d="M111.935 218.679L104.125 214.186L110.036 210.794L117.844 215.286L111.935 218.679Z" fill="#999999"></path><path d="M111.935 218.255L104.496 213.974L104.125 214.187L111.935 218.679L117.844 215.286L117.475 215.072L111.935 218.255Z" fill="white"></path><path d="M117.847 215.286V216.235L111.938 219.628V218.679L117.847 215.286Z" fill="#1A1A1A"></path><path d="M104.125 214.187V215.137L111.935 219.628V218.679L104.125 214.187Z" fill="#4D4D4D"></path><path d="M152.862 235.917L146.953 239.309L152.889 242.725L153.369 243.674L154.762 243.801L160.672 240.409L152.862 235.917Z" fill="#CCCCCC"></path><path d="M153.367 242.725L145.559 238.232L151.469 234.84L159.277 239.332L153.367 242.725Z" fill="#999999"></path><path d="M153.367 242.301L145.928 238.021L145.559 238.232L153.367 242.725L159.277 239.332L158.908 239.119L153.367 242.301Z" fill="white"></path><path d="M159.282 239.332V240.281L153.371 243.674V242.725L159.282 239.332Z" fill="#1A1A1A"></path><path d="M145.559 238.232V239.183L153.367 243.674V242.725L145.559 238.232Z" fill="#4D4D4D"></path><path d="M142.502 229.883L136.594 233.276L142.53 236.693L143.009 237.642L144.401 237.769L150.31 234.376L142.502 229.883Z" fill="#CCCCCC"></path><path d="M143.007 236.692L135.199 232.201L141.109 228.807L148.918 233.299L143.007 236.692Z" fill="#999999"></path><path d="M143.007 236.267L135.568 231.988L135.199 232.201L143.007 236.693L148.918 233.299L148.548 233.087L143.007 236.267Z" fill="white"></path><path d="M148.922 233.299V234.248L143.012 237.642V236.692L148.922 233.299Z" fill="#1A1A1A"></path><path d="M135.199 232.201V233.149L143.007 237.642V236.693L135.199 232.201Z" fill="#4D4D4D"></path><path d="M132.148 223.85L126.238 227.244L132.176 230.659L132.655 231.609L134.046 231.736L139.957 228.343L132.148 223.85Z" fill="#CCCCCC"></path><path d="M132.653 230.659L124.844 226.166L130.754 222.774L138.562 227.266L132.653 230.659Z" fill="#999999"></path><path d="M132.653 230.234L125.214 225.955L124.844 226.166L132.653 230.659L138.562 227.266L138.193 227.054L132.653 230.234Z" fill="white"></path><path d="M138.566 227.266V228.217L132.656 231.609V230.659L138.566 227.266Z" fill="#1A1A1A"></path><path d="M124.844 226.167V227.117L132.653 231.609V230.659L124.844 226.167Z" fill="#4D4D4D"></path><path d="M121.761 217.903L115.852 221.295L121.788 224.712L122.267 225.662L123.659 225.787L129.57 222.395L121.761 217.903Z" fill="#CCCCCC"></path><path d="M122.265 224.712L114.457 220.22L120.368 216.826L128.176 221.318L122.265 224.712Z" fill="#999999"></path><path d="M122.265 224.286L114.826 220.007L114.457 220.219L122.265 224.712L128.176 221.318L127.807 221.106L122.265 224.286Z" fill="white"></path><path d="M128.18 221.318V222.269L122.27 225.662V224.712L128.18 221.318Z" fill="#1A1A1A"></path><path d="M114.457 220.22V221.169L122.265 225.662V224.712L114.457 220.22Z" fill="#4D4D4D"></path><path d="M101.055 205.838L95.1445 209.231L101.081 212.647L101.56 213.597L102.953 213.724L108.863 210.33L101.055 205.838Z" fill="#CCCCCC"></path><path d="M101.558 212.647L93.75 208.154L99.6601 204.76L107.469 209.253L101.558 212.647Z" fill="#999999"></path><path d="M101.558 212.222L94.1191 207.942L93.75 208.154L101.558 212.647L107.469 209.253L107.099 209.042L101.558 212.222Z" fill="white"></path><path d="M107.473 209.253V210.203L101.562 213.597V212.647L107.473 209.253Z" fill="#1A1A1A"></path><path d="M93.75 208.154V209.103L101.558 213.597V212.647L93.75 208.154Z" fill="#4D4D4D"></path><path d="M90.039 199.723L84.1289 203.117L90.0656 206.531L90.5441 207.483L91.9377 207.608L97.8471 204.215L90.039 199.723Z" fill="#CCCCCC"></path><path d="M90.5411 206.531L82.7344 202.039L88.643 198.646L96.4525 203.138L90.5411 206.531Z" fill="#999999"></path><path d="M90.5411 206.107L83.1035 201.827L82.7344 202.04L90.5411 206.532L96.4525 203.138L96.082 202.926L90.5411 206.107Z" fill="white"></path><path d="M96.4584 203.138V204.088L90.5469 207.482V206.531L96.4584 203.138Z" fill="#1A1A1A"></path><path d="M82.7344 202.039V202.988L90.5411 207.482V206.531L82.7344 202.039Z" fill="#4D4D4D"></path><path d="M79.6522 193.691L73.7422 197.085L79.6789 200.499L80.1581 201.449L81.551 201.576L87.4611 198.183L79.6522 193.691Z" fill="#CCCCCC"></path><path d="M80.1558 200.499L72.3477 196.007L78.2577 192.614L86.0665 197.107L80.1558 200.499Z" fill="#999999"></path><path d="M80.1558 200.074L72.7175 195.795L72.3477 196.007L80.1558 200.5L86.0665 197.107L85.696 196.894L80.1558 200.074Z" fill="white"></path><path d="M86.0709 197.107V198.055L80.1602 201.449V200.499L86.0709 197.107Z" fill="#1A1A1A"></path><path d="M72.3477 196.007V196.957L80.1558 201.449V200.499L72.3477 196.007Z" fill="#4D4D4D"></path><path d="M69.5585 187.766L63.6484 191.159L69.5858 194.575L70.065 195.523L71.4566 195.652L77.368 192.258L69.5585 187.766Z" fill="#CCCCCC"></path><path d="M70.0627 194.575L62.2539 190.082L68.164 186.689L75.9721 191.182L70.0627 194.575Z" fill="#999999"></path><path d="M70.0627 194.15L62.6237 189.87L62.2539 190.082L70.0627 194.575L75.9721 191.182L75.603 190.969L70.0627 194.15Z" fill="white"></path><path d="M75.9757 191.182V192.131L70.0664 195.523V194.575L75.9757 191.182Z" fill="#1A1A1A"></path><path d="M62.2539 190.083V191.032L70.0627 195.523V194.575L62.2539 190.083Z" fill="#4D4D4D"></path><path d="M59.5851 181.67L53.6758 185.064L59.6117 188.479L60.0916 189.429L61.4846 189.555L67.3939 186.163L59.5851 181.67Z" fill="#CCCCCC"></path><path d="M60.0816 188.478L52.2734 183.986L58.1835 180.593L65.9916 185.087L60.0816 188.478Z" fill="#999999"></path><path d="M60.0816 188.055L52.6425 183.774L52.2734 183.986L60.0816 188.478L65.9916 185.087L65.6211 184.874L60.0816 188.055Z" fill="white"></path><path d="M65.996 185.086V186.035L60.0859 189.428V188.478L65.996 185.086Z" fill="#1A1A1A"></path><path d="M52.2734 183.987V184.936L60.0816 189.429V188.478L52.2734 183.987Z" fill="#4D4D4D"></path><path d="M164.465 242.551L158.555 245.944L169.206 252.095L169.685 253.045L171.076 253.172L176.987 249.778L164.465 242.551Z" fill="#CCCCCC"></path><path d="M169.678 252.095L157.156 244.866L163.066 241.474L175.588 248.702L169.678 252.095Z" fill="#999999"></path><path d="M169.678 251.67L157.525 244.655L157.156 244.866L169.678 252.095L175.588 248.702L175.218 248.489L169.678 251.67Z" fill="white"></path><path d="M175.582 248.702V249.652L169.672 253.045V252.095L175.582 248.702Z" fill="#1A1A1A"></path><path d="M157.156 244.866V245.817L169.678 253.045V252.095L157.156 244.866Z" fill="#4D4D4D"></path><path d="M120.155 206.413L114.246 209.806L120.183 213.221L120.663 214.171L122.054 214.298L127.965 210.905L120.155 206.413Z" fill="#CCCCCC"></path><path d="M120.661 213.221L112.852 208.728L118.762 205.335L126.57 209.829L120.661 213.221Z" fill="#999999"></path><path d="M120.661 212.796L113.221 208.516L112.852 208.728L120.661 213.221L126.57 209.829L126.201 209.616L120.661 212.796Z" fill="white"></path><path d="M126.573 209.829V210.778L120.664 214.171V213.221L126.573 209.829Z" fill="#1A1A1A"></path><path d="M112.852 208.729V209.678L120.661 214.171V213.221L112.852 208.729Z" fill="#4D4D4D"></path><path d="M160.949 230.234L155.039 233.628L160.976 237.043L161.456 237.993L162.848 238.12L168.759 234.726L160.949 230.234Z" fill="#CCCCCC"></path><path d="M161.453 237.043L153.645 232.55L159.554 229.158L167.363 233.65L161.453 237.043Z" fill="#999999"></path><path d="M161.453 236.619L154.014 232.339L153.645 232.55L161.453 237.043L167.363 233.65L166.993 233.438L161.453 236.619Z" fill="white"></path><path d="M167.367 233.65V234.601L161.457 237.993V237.043L167.367 233.65Z" fill="#1A1A1A"></path><path d="M153.645 232.551V233.5L161.453 237.993V237.043L153.645 232.551Z" fill="#4D4D4D"></path><path d="M170.762 235.928L164.852 239.321L170.789 242.736L171.267 243.686L172.659 243.812L178.57 240.42L170.762 235.928Z" fill="#CCCCCC"></path><path d="M171.269 242.736L163.461 238.244L169.37 234.851L177.179 239.343L171.269 242.736Z" fill="#999999"></path><path d="M171.27 242.312L163.831 238.032L163.461 238.244L171.27 242.737L177.181 239.343L176.811 239.132L171.27 242.312Z" fill="white"></path><path d="M177.183 239.343V240.293L171.273 243.686V242.736L177.183 239.343Z" fill="#1A1A1A"></path><path d="M163.461 238.244V239.194L171.269 243.686V242.737L163.461 238.244Z" fill="#4D4D4D"></path><path d="M150.954 224.437L145.043 227.829L150.98 231.246L151.459 232.195L152.851 232.322L158.762 228.929L150.954 224.437Z" fill="#CCCCCC"></path><path d="M151.464 231.245L143.656 226.754L149.565 223.36L157.374 227.853L151.464 231.245Z" fill="#999999"></path><path d="M151.464 230.82L144.025 226.541L143.656 226.754L151.464 231.246L157.374 227.853L157.005 227.639L151.464 230.82Z" fill="white"></path><path d="M157.38 227.853V228.803L151.469 232.195V231.245L157.38 227.853Z" fill="#1A1A1A"></path><path d="M143.656 226.754V227.702L151.464 232.195V231.246L143.656 226.754Z" fill="#4D4D4D"></path><path d="M140.886 218.393L134.977 221.786L140.914 225.201L141.393 226.151L142.785 226.278L148.695 222.885L140.886 218.393Z" fill="#CCCCCC"></path><path d="M141.392 225.201L133.582 220.709L139.492 217.317L147.3 221.809L141.392 225.201Z" fill="#999999"></path><path d="M141.392 224.777L133.953 220.498L133.582 220.708L141.392 225.201L147.3 221.809L146.932 221.596L141.392 224.777Z" fill="white"></path><path d="M147.303 221.809V222.758L141.395 226.151V225.201L147.303 221.809Z" fill="#1A1A1A"></path><path d="M133.582 220.709V221.66L141.392 226.151V225.201L133.582 220.709Z" fill="#4D4D4D"></path><path d="M130.5 212.445L124.59 215.839L130.527 219.254L131.006 220.204L132.398 220.331L138.309 216.938L130.5 212.445Z" fill="#CCCCCC"></path><path d="M131.004 219.254L123.195 214.761L129.106 211.368L136.914 215.861L131.004 219.254Z" fill="#999999"></path><path d="M131.004 218.829L123.566 214.549L123.195 214.761L131.004 219.254L136.914 215.861L136.544 215.648L131.004 218.829Z" fill="white"></path><path d="M136.918 215.861V216.811L131.008 220.204V219.254L136.918 215.861Z" fill="#1A1A1A"></path><path d="M123.195 214.761V215.712L131.004 220.205V219.254L123.195 214.761Z" fill="#4D4D4D"></path><path d="M109.784 200.381L103.875 203.773L109.811 207.19L110.29 208.14L111.682 208.266L117.592 204.874L109.784 200.381Z" fill="#CCCCCC"></path><path d="M110.289 207.19L102.48 202.698L108.39 199.304L116.199 203.796L110.289 207.19Z" fill="#999999"></path><path d="M110.289 206.764L102.85 202.484L102.48 202.698L110.289 207.189L116.199 203.796L115.829 203.584L110.289 206.764Z" fill="white"></path><path d="M116.204 203.796V204.745L110.293 208.139V207.19L116.204 203.796Z" fill="#1A1A1A"></path><path d="M102.48 202.698V203.647L110.289 208.139V207.19L102.48 202.698Z" fill="#4D4D4D"></path><path d="M98.7414 194.267L92.832 197.659L98.7687 201.076L99.2486 202.024L100.64 202.151L106.55 198.758L98.7414 194.267Z" fill="#CCCCCC"></path><path d="M99.2463 201.076L91.4375 196.582L97.3468 193.19L105.156 197.682L99.2463 201.076Z" fill="#999999"></path><path d="M99.2463 200.651L91.8073 196.37L91.4375 196.583L99.2463 201.076L105.156 197.682L104.786 197.47L99.2463 200.651Z" fill="white"></path><path d="M105.16 197.682V198.631L99.25 202.024V201.076L105.16 197.682Z" fill="#1A1A1A"></path><path d="M91.4375 196.583V197.532L99.2463 202.024V201.076L91.4375 196.583Z" fill="#4D4D4D"></path><path d="M88.3898 188.233L82.4805 191.627L88.4171 195.042L88.8956 195.992L90.2879 196.119L96.1994 192.727L88.3898 188.233Z" fill="#CCCCCC"></path><path d="M88.894 195.042L81.0859 190.55L86.9974 187.156L94.8048 191.65L88.894 195.042Z" fill="#999999"></path><path d="M88.894 194.618L81.4558 190.337L81.0859 190.55L88.894 195.042L94.8048 191.65L94.4357 191.437L88.894 194.618Z" fill="white"></path><path d="M94.8092 191.651V192.6L88.8984 195.992V195.042L94.8092 191.651Z" fill="#1A1A1A"></path><path d="M81.0859 190.55V191.5L88.894 195.992V195.042L81.0859 190.55Z" fill="#4D4D4D"></path><path d="M78.2929 182.309L72.3828 185.702L78.3195 189.118L78.798 190.068L80.1902 190.194L86.1017 186.801L78.2929 182.309Z" fill="#CCCCCC"></path><path d="M78.8003 189.118L70.9922 184.625L76.903 181.233L84.7118 185.725L78.8003 189.118Z" fill="#999999"></path><path d="M78.8003 188.693L71.3627 184.414L70.9922 184.625L78.8003 189.118L84.7118 185.725L84.342 185.513L78.8003 188.693Z" fill="white"></path><path d="M84.7162 185.725V186.675L78.8047 190.068V189.118L84.7162 185.725Z" fill="#1A1A1A"></path><path d="M70.9922 184.625V185.575L78.8003 190.068V189.119L70.9922 184.625Z" fill="#4D4D4D"></path><path d="M68.3149 176.213L62.4062 179.605L68.3422 183.022L68.8214 183.971L70.2129 184.099L76.1237 180.705L68.3149 176.213Z" fill="#CCCCCC"></path><path d="M68.8206 183.022L61.0117 178.53L66.9225 175.137L74.7306 179.629L68.8206 183.022Z" fill="#999999"></path><path d="M68.8206 182.597L61.3815 178.317L61.0117 178.529L68.8206 183.022L74.7306 179.629L74.3615 179.417L68.8206 182.597Z" fill="white"></path><path d="M74.7343 179.629V180.579L68.8242 183.972V183.022L74.7343 179.629Z" fill="#1A1A1A"></path><path d="M61.0117 178.53V179.479L68.8206 183.972V183.022L61.0117 178.53Z" fill="#4D4D4D"></path><path d="M168.879 224.94L162.969 228.332L168.905 231.749L169.385 232.698L170.778 232.825L176.687 229.432L168.879 224.94Z" fill="#CCCCCC"></path><path d="M169.386 231.749L161.578 227.257L167.487 223.863L175.297 228.356L169.386 231.749Z" fill="#999999"></path><path d="M169.386 231.324L161.947 227.044L161.578 227.257L169.386 231.749L175.297 228.356L174.927 228.142L169.386 231.324Z" fill="white"></path><path d="M175.301 228.356V229.305L169.391 232.698V231.749L175.301 228.356Z" fill="#1A1A1A"></path><path d="M161.578 227.257V228.206L169.386 232.698V231.748L161.578 227.257Z" fill="#4D4D4D"></path><path d="M178.687 230.633L172.777 234.027L178.715 237.442L179.194 238.392L180.585 238.519L186.496 235.126L178.687 230.633Z" fill="#CCCCCC"></path><path d="M179.191 237.442L171.383 232.95L177.294 229.557L185.102 234.049L179.191 237.442Z" fill="#999999"></path><path d="M179.192 237.017L171.753 232.738L171.383 232.951L179.192 237.442L185.102 234.049L184.732 233.836L179.192 237.017Z" fill="white"></path><path d="M185.106 234.049V234.999L179.195 238.391V237.442L185.106 234.049Z" fill="#1A1A1A"></path><path d="M171.383 232.95V233.899L179.191 238.391V237.442L171.383 232.95Z" fill="#4D4D4D"></path><path d="M81.0787 167.812L77.8711 169.571L83.8085 172.988L84.2877 173.936L85.6799 174.063L88.8882 172.303L81.0787 167.812Z" fill="#CCCCCC"></path><path d="M84.2854 172.988L76.4766 168.495L79.6849 166.735L87.4937 171.227L84.2854 172.988Z" fill="#999999"></path><path d="M84.2854 172.563L76.8457 168.282L76.4766 168.494L84.2854 172.988L87.4937 171.227L87.1231 171.015L84.2854 172.563Z" fill="white"></path><path d="M87.4974 171.227V172.177L84.2891 173.936V172.988L87.4974 171.227Z" fill="#1A1A1A"></path><path d="M76.4766 168.495V169.444L84.2854 173.936V172.988L76.4766 168.495Z" fill="#4D4D4D"></path><path d="M91.1145 173.709L87.9062 175.469L93.8429 178.884L94.3228 179.835L95.7144 179.961L98.9227 178.201L91.1145 173.709Z" fill="#CCCCCC"></path><path d="M94.3277 178.884L86.5195 174.392L89.7271 172.633L97.5359 177.124L94.3277 178.884Z" fill="#999999"></path><path d="M94.3277 178.46L86.8894 174.181L86.5195 174.392L94.3277 178.884L97.5359 177.124L97.1661 176.912L94.3277 178.46Z" fill="white"></path><path d="M97.5403 177.124V178.074L94.332 179.835V178.884L97.5403 177.124Z" fill="#1A1A1A"></path><path d="M86.5195 174.391V175.342L94.3277 179.835V178.884L86.5195 174.391Z" fill="#4D4D4D"></path><path d="M101.17 179.605L97.9609 181.367L103.899 184.782L104.378 185.731L105.77 185.859L108.978 184.099L101.17 179.605Z" fill="#CCCCCC"></path><path d="M104.386 184.782L96.5781 180.289L99.7857 178.53L107.594 183.022L104.386 184.782Z" fill="#999999"></path><path d="M104.386 184.357L96.9472 180.077L96.5781 180.289L104.386 184.782L107.594 183.022L107.225 182.81L104.386 184.357Z" fill="white"></path><path d="M107.599 183.021V183.971L104.391 185.731V184.781L107.599 183.021Z" fill="#1A1A1A"></path><path d="M96.5781 180.289V181.239L104.386 185.731V184.782L96.5781 180.289Z" fill="#4D4D4D"></path><path d="M111.229 185.504L108.02 187.264L113.957 190.68L114.435 191.629L115.828 191.756L119.036 189.996L111.229 185.504Z" fill="#CCCCCC"></path><path d="M114.428 190.68L106.621 186.187L109.829 184.427L117.637 188.919L114.428 190.68Z" fill="#999999"></path><path d="M114.429 190.255L106.99 185.975L106.621 186.187L114.429 190.68L117.637 188.919L117.268 188.706L114.429 190.255Z" fill="white"></path><path d="M117.642 188.919V189.869L114.434 191.629V190.68L117.642 188.919Z" fill="#1A1A1A"></path><path d="M106.621 186.187V187.137L114.428 191.63V190.68L106.621 186.187Z" fill="#4D4D4D"></path><path d="M121.286 191.402L118.078 193.16L124.015 196.577L124.495 197.526L125.887 197.653L129.095 195.894L121.286 191.402Z" fill="#CCCCCC"></path><path d="M124.496 196.577L116.688 192.085L119.895 190.325L127.704 194.817L124.496 196.577Z" fill="#999999"></path><path d="M124.496 196.152L117.057 191.872L116.688 192.084L124.496 196.577L127.704 194.817L127.334 194.604L124.496 196.152Z" fill="white"></path><path d="M127.708 194.816V195.766L124.5 197.526V196.577L127.708 194.816Z" fill="#1A1A1A"></path><path d="M116.688 192.085V193.034L124.496 197.526V196.577L116.688 192.085Z" fill="#4D4D4D"></path><path d="M131.34 197.299L128.133 199.059L134.069 202.475L134.549 203.424L135.942 203.552L139.15 201.79L131.34 197.299Z" fill="#CCCCCC"></path><path d="M134.546 202.475L126.738 197.982L129.947 196.222L137.755 200.714L134.546 202.475Z" fill="#999999"></path><path d="M134.546 202.05L127.109 197.771L126.738 197.982L134.546 202.475L137.755 200.714L137.386 200.503L134.546 202.05Z" fill="white"></path><path d="M137.759 200.714V201.665L134.551 203.425V202.475L137.759 200.714Z" fill="#1A1A1A"></path><path d="M126.738 197.982V198.932L134.546 203.425V202.475L126.738 197.982Z" fill="#4D4D4D"></path><path d="M141.403 203.197L138.195 204.957L144.132 208.372L144.61 209.321L146.003 209.449L149.212 207.689L141.403 203.197Z" fill="#CCCCCC"></path><path d="M144.612 208.372L136.805 203.879L140.013 202.12L147.82 206.612L144.612 208.372Z" fill="#999999"></path><path d="M144.612 207.946L137.174 203.667L136.805 203.879L144.612 208.372L147.82 206.612L147.451 206.399L144.612 207.946Z" fill="white"></path><path d="M147.825 206.612V207.562L144.617 209.322V208.372L147.825 206.612Z" fill="#1A1A1A"></path><path d="M136.805 203.879V204.83L144.612 209.322V208.372L136.805 203.879Z" fill="#4D4D4D"></path><path d="M151.463 209.094L148.254 210.855L154.191 214.27L154.67 215.219L156.063 215.346L159.27 213.586L151.463 209.094Z" fill="#CCCCCC"></path><path d="M154.667 214.27L146.859 209.777L150.066 208.017L157.875 212.509L154.667 214.27Z" fill="#999999"></path><path d="M154.667 213.845L147.228 209.565L146.859 209.777L154.667 214.27L157.875 212.508L157.505 212.297L154.667 213.845Z" fill="white"></path><path d="M157.879 212.509V213.46L154.672 215.219V214.27L157.879 212.509Z" fill="#1A1A1A"></path><path d="M146.859 209.777V210.727L154.667 215.219V214.27L146.859 209.777Z" fill="#4D4D4D"></path><path d="M161.516 214.992L158.309 216.752L164.246 220.167L164.725 221.117L166.117 221.244L169.326 219.483L161.516 214.992Z" fill="#CCCCCC"></path><path d="M164.735 220.168L156.926 215.675L160.133 213.916L167.942 218.407L164.735 220.168Z" fill="#999999"></path><path d="M164.735 219.743L157.296 215.463L156.926 215.675L164.735 220.168L167.942 218.407L167.574 218.195L164.735 219.743Z" fill="white"></path><path d="M167.946 218.407V219.358L164.738 221.117V220.168L167.946 218.407Z" fill="#1A1A1A"></path><path d="M156.926 215.675V216.625L164.735 221.117V220.168L156.926 215.675Z" fill="#4D4D4D"></path><path d="M171.586 220.889L168.379 222.649L174.315 226.065L174.794 227.014L176.187 227.142L179.395 225.382L171.586 220.889Z" fill="#CCCCCC"></path><path d="M174.793 226.065L166.984 221.571L170.193 219.812L178.002 224.305L174.793 226.065Z" fill="#999999"></path><path d="M174.793 225.639L167.355 221.361L166.984 221.571L174.793 226.065L178.002 224.305L177.632 224.093L174.793 225.639Z" fill="white"></path><path d="M178.006 224.305V225.254L174.797 227.014V226.065L178.006 224.305Z" fill="#1A1A1A"></path><path d="M166.984 221.572V222.522L174.793 227.014V226.065L166.984 221.572Z" fill="#4D4D4D"></path><path d="M181.633 226.787L178.426 228.546L184.362 231.963L184.842 232.912L186.233 233.039L189.441 231.279L181.633 226.787Z" fill="#CCCCCC"></path><path d="M184.845 231.963L177.035 227.47L180.243 225.711L188.052 230.203L184.845 231.963Z" fill="#999999"></path><path d="M184.845 231.538L177.406 227.258L177.035 227.47L184.845 231.963L188.052 230.203L187.682 229.99L184.845 231.538Z" fill="white"></path><path d="M188.055 230.203V231.153L184.848 232.912V231.963L188.055 230.203Z" fill="#1A1A1A"></path><path d="M177.035 227.47V228.42L184.845 232.912V231.963L177.035 227.47Z" fill="#4D4D4D"></path><path d="M191.708 232.684L188.5 234.444L194.437 237.859L194.916 238.809L196.308 238.936L199.516 237.176L191.708 232.684Z" fill="#CCCCCC"></path><path d="M194.914 237.859L187.105 233.367L190.312 231.608L198.122 236.099L194.914 237.859Z" fill="#999999"></path><path d="M194.914 237.435L187.475 233.155L187.105 233.367L194.914 237.859L198.122 236.099L197.752 235.888L194.914 237.435Z" fill="white"></path><path d="M198.126 236.099V237.05L194.918 238.81V237.859L198.126 236.099Z" fill="#1A1A1A"></path><path d="M187.105 233.367V234.318L194.914 238.81V237.859L187.105 233.367Z" fill="#4D4D4D"></path><path d="M158.903 219.143L152.992 222.535L158.93 225.952L159.409 226.901L160.801 227.029L166.711 223.635L158.903 219.143Z" fill="#CCCCCC"></path><path d="M159.406 225.952L151.598 221.459L157.508 218.066L165.316 222.559L159.406 225.952Z" fill="#999999"></path><path d="M159.406 225.527L151.966 221.247L151.598 221.46L159.406 225.952L165.316 222.56L164.947 222.346L159.406 225.527Z" fill="white"></path><path d="M165.32 222.559V223.508L159.41 226.901V225.952L165.32 222.559Z" fill="#1A1A1A"></path><path d="M151.598 221.459V222.409L159.406 226.901V225.952L151.598 221.459Z" fill="#4D4D4D"></path><path d="M148.804 213.099L142.895 216.492L148.83 219.908L149.31 220.857L150.703 220.984L156.613 217.592L148.804 213.099Z" fill="#CCCCCC"></path><path d="M149.304 219.908L141.496 215.415L147.406 212.021L155.214 216.515L149.304 219.908Z" fill="#999999"></path><path d="M149.304 219.483L141.865 215.203L141.496 215.415L149.304 219.908L155.214 216.515L154.844 216.301L149.304 219.483Z" fill="white"></path><path d="M155.219 216.515V217.464L149.309 220.858V219.908L155.219 216.515Z" fill="#1A1A1A"></path><path d="M141.496 215.415V216.365L149.304 220.858V219.908L141.496 215.415Z" fill="#4D4D4D"></path><path d="M138.421 207.15L132.512 210.544L138.449 213.96L138.928 214.91L140.32 215.038L146.23 211.644L138.421 207.15Z" fill="#CCCCCC"></path><path d="M138.921 213.96L131.113 209.468L137.023 206.075L144.832 210.567L138.921 213.96Z" fill="#999999"></path><path d="M138.921 213.535L131.483 209.256L131.113 209.468L138.921 213.96L144.832 210.567L144.462 210.354L138.921 213.535Z" fill="white"></path><path d="M144.837 210.566V211.516L138.926 214.91V213.96L144.837 210.566Z" fill="#1A1A1A"></path><path d="M131.113 209.468V210.417L138.921 214.91V213.96L131.113 209.468Z" fill="#4D4D4D"></path><path d="M127.961 200.972L122.051 204.365L127.987 207.78L128.467 208.73L129.86 208.857L135.769 205.465L127.961 200.972Z" fill="#CCCCCC"></path><path d="M128.464 207.78L120.656 203.288L126.566 199.896L134.374 204.388L128.464 207.78Z" fill="#999999"></path><path d="M128.464 207.356L121.025 203.076L120.656 203.288L128.464 207.78L134.375 204.387L134.005 204.174L128.464 207.356Z" fill="white"></path><path d="M134.38 204.388V205.338L128.469 208.729V207.78L134.38 204.388Z" fill="#1A1A1A"></path><path d="M120.656 203.288V204.239L128.464 208.73V207.78L120.656 203.288Z" fill="#4D4D4D"></path><path d="M117.704 195.086L111.793 198.479L117.73 201.895L118.209 202.844L119.601 202.972L125.511 199.578L117.704 195.086Z" fill="#CCCCCC"></path><path d="M118.203 201.895L110.395 197.403L116.304 194.01L124.113 198.502L118.203 201.895Z" fill="#999999"></path><path d="M118.203 201.47L110.764 197.19L110.395 197.403L118.203 201.896L124.113 198.502L123.744 198.289L118.203 201.47Z" fill="white"></path><path d="M124.117 198.502V199.452L118.207 202.844V201.895L124.117 198.502Z" fill="#1A1A1A"></path><path d="M110.395 197.403V198.353L118.203 202.844V201.895L110.395 197.403Z" fill="#4D4D4D"></path><path d="M106.68 188.972L100.77 192.365L106.706 195.781L107.185 196.73L108.578 196.857L114.487 193.464L106.68 188.972Z" fill="#CCCCCC"></path><path d="M107.186 195.78L99.3789 191.287L105.288 187.895L113.096 192.386L107.186 195.78Z" fill="#999999"></path><path d="M107.187 195.356L99.748 191.076L99.3789 191.287L107.187 195.781L113.097 192.387L112.728 192.175L107.187 195.356Z" fill="white"></path><path d="M113.101 192.386V193.336L107.191 196.73V195.78L113.101 192.386Z" fill="#1A1A1A"></path><path d="M99.3789 191.287V192.237L107.186 196.73V195.781L99.3789 191.287Z" fill="#4D4D4D"></path><path d="M96.3117 182.939L90.4023 186.332L96.339 189.748L96.8175 190.696L98.2112 190.824L104.121 187.431L96.3117 182.939Z" fill="#CCCCCC"></path><path d="M96.8113 189.748L89.0039 185.255L94.9132 181.862L102.722 186.354L96.8113 189.748Z" fill="#999999"></path><path d="M96.8113 189.323L89.373 185.042L89.0039 185.255L96.8113 189.748L102.722 186.354L102.352 186.141L96.8113 189.323Z" fill="white"></path><path d="M102.727 186.354V187.303L96.8164 190.696V189.748L102.727 186.354Z" fill="#1A1A1A"></path><path d="M89.0039 185.255V186.205L96.8113 190.697V189.748L89.0039 185.255Z" fill="#4D4D4D"></path><path d="M86.2304 177.015L80.3203 180.407L86.257 183.824L86.7362 184.773L88.1277 184.9L94.0385 181.508L86.2304 177.015Z" fill="#CCCCCC"></path><path d="M86.7417 183.824L78.9336 179.33L84.8444 175.938L92.6518 180.43L86.7417 183.824Z" fill="#999999"></path><path d="M86.7417 183.399L79.3034 179.118L78.9336 179.33L86.7417 183.824L92.6518 180.431L92.2826 180.218L86.7417 183.399Z" fill="white"></path><path d="M92.6561 180.43V181.38L86.7461 184.772V183.823L92.6561 180.43Z" fill="#1A1A1A"></path><path d="M78.9336 179.33V180.281L86.7417 184.773V183.824L78.9336 179.33Z" fill="#4D4D4D"></path><path d="M76.2382 170.918L70.3281 174.311L76.2641 177.726L76.7447 178.677L78.1362 178.803L84.0456 175.412L76.2382 170.918Z" fill="#CCCCCC"></path><path d="M76.7392 177.726L68.9297 173.235L74.8412 169.843L82.6493 174.334L76.7392 177.726Z" fill="#999999"></path><path d="M76.7392 177.303L69.3002 173.022L68.9297 173.235L76.7392 177.726L82.6493 174.334L82.2787 174.122L76.7392 177.303Z" fill="white"></path><path d="M82.6522 174.334V175.284L76.7422 178.677V177.726L82.6522 174.334Z" fill="#1A1A1A"></path><path d="M68.9297 173.235V174.185L76.7392 178.677V177.726L68.9297 173.235Z" fill="#4D4D4D"></path><path d="M189.264 236.671L174.637 245.018L178.175 247.066L178.654 248.016L180.046 248.143L194.674 239.796L189.264 236.671Z" fill="#CCCCCC"></path><path d="M178.657 247.066L173.246 243.942L187.874 235.594L193.285 238.72L178.657 247.066Z" fill="#999999"></path><path d="M178.657 246.641L173.617 243.73L173.246 243.942L178.657 247.066L193.285 238.72L192.915 238.506L178.657 246.641Z" fill="white"></path><path d="M193.285 238.72V239.669L178.656 248.016V247.066L193.285 238.72Z" fill="#1A1A1A"></path><path d="M173.246 243.942V244.891L178.657 248.016V247.066L173.246 243.942Z" fill="#4D4D4D"></path><path d="M87.0766 208.27L81.168 211.662L113.97 230.988L114.45 231.938L115.842 232.065L121.751 228.672L87.0766 208.27Z" fill="#CCCCCC"></path><path d="M114.448 230.988L79.7734 210.586L85.6835 207.192L120.358 227.595L114.448 230.988Z" fill="#999999"></path><path d="M114.448 230.563L80.1425 210.374L79.7734 210.586L114.448 230.987L120.358 227.595L119.989 227.382L114.448 230.563Z" fill="white"></path><path d="M120.371 227.595V228.544L114.461 231.937V230.987L120.371 227.595Z" fill="#1A1A1A"></path><path d="M79.7734 210.586V211.536L114.448 231.937V230.988L79.7734 210.586Z" fill="#4D4D4D"></path><path d="M99.7669 79.7215L100.671 79.8891H100.683L102.564 80.2482C102.507 80.4403 102.451 80.6424 102.395 80.8453C102.271 81.3598 102.182 81.9095 102.128 82.4952L100.54 101.564L96.4204 150.795C95.9844 155.878 98.7351 161.759 102.561 163.935L210.744 226.578C210.804 226.614 210.876 226.65 210.948 226.686L209.701 229.938L212.082 228.659C213.539 227.894 214.623 226.256 215.017 223.913C215.068 223.626 215.097 223.326 215.125 223.028L220.806 154.871L220.82 154.727C221.133 151.224 219.921 147.351 217.877 144.565C216.961 143.31 215.875 142.27 214.678 141.589L106.509 78.9458C104.834 78.0018 103.242 77.9306 101.938 78.5523L101.939 78.54L100.311 79.4351L99.7669 79.7215Z" fill="#4D4D4D"></path><path d="M100.309 79.4344L100.671 79.8891H100.682L102.394 80.8453L215.488 145.598L217.874 144.565C216.958 143.31 215.872 142.27 214.675 141.589L106.506 78.9458C104.831 78.0018 103.239 77.9306 101.935 78.5523L101.936 78.54L100.309 79.4344Z" fill="#F2F2F2"></path><path d="M209.891 147.924L213.477 158.624L220.808 154.87L220.823 154.727C221.136 151.224 219.923 147.35 217.879 144.564L209.891 147.924Z" fill="#999999"></path><path d="M96.6751 85.364L95.0878 104.432L90.9672 153.664C90.5319 158.746 93.2818 164.627 97.1204 166.804L177.302 212.524L205.291 229.446C208.423 231.228 211.297 229.972 212.484 226.685C212.669 226.194 212.807 225.658 212.9 225.071C212.952 224.772 212.979 224.485 213.007 224.174L218.715 155.874C219.151 150.793 216.387 144.911 212.562 142.736L172.987 120.042L135.576 97.7748H135.563L104.391 80.0929C101.832 78.6474 99.4488 79.2201 98.0133 81.265C97.3003 82.2917 96.8319 83.6789 96.6751 85.364Z" fill="#B3B3B3"></path><path d="M215.035 151.671L208.116 225.949L94.7344 159.157L101.653 84.8801L215.035 151.671Z" fill="#A9D6FF"></path><path d="M122.754 153.858L124.646 151.942L123.827 148.086L126.6 150.695L129.073 149.818L128.891 153.345L131.243 156.664L128.357 156.231L127.336 159.158L125.732 155.365L122.754 153.858Z" fill="#FFF454"></path><path d="M120.703 134.361L123.492 134.37L124.198 131.183L126.066 134.866L129.039 135.97L127.41 138.243L128.54 142.111L125.663 139.834L123.391 141.121L123.242 137.44L120.703 134.361Z" fill="#FFF454"></path><path d="M126.598 119.585L129.54 121.525L131.601 119.866L132.059 123.652L134.746 126.466L132.085 126.866L131.684 130.262L129.58 126.72L126.646 126.007L128.009 123.421L126.598 119.585Z" fill="#FFF454"></path><path d="M136.324 118.083L138.832 117.287L138.923 113.716L141.233 117.071L144.095 117.387L143.016 120.257L144.696 124.027L141.717 122.442L139.894 124.455L139.132 120.607L136.324 118.083Z" fill="#FFF454"></path><path d="M149.832 119.472L152.809 120.681L154.381 118.334L155.436 122.206L158.334 124.409L156.008 125.595L156.228 129.301L153.735 126.168L150.973 126.253L151.758 123.128L149.832 119.472Z" fill="#FFF454"></path><path d="M161.945 135.17L164.064 133.61L163.538 129.804L166.188 132.69L168.814 132.2L168.336 135.547L170.488 139.048L167.541 138.233L166.242 140.884L164.902 137.032L161.945 135.17Z" fill="#FFF454"></path><path d="M169.855 148.818L172.74 149.237L173.751 146.304L175.362 150.096L178.341 151.592L176.455 153.515L177.284 157.374L174.507 154.774L172.037 155.657L172.208 152.128L169.855 148.818Z" fill="#FFF454"></path><path d="M142.727 181.09L145.056 179.913L144.846 176.208L147.334 179.356L150.099 179.277L149.307 182.398L151.227 186.054L148.246 184.836L146.668 187.175L145.62 183.304L142.727 181.09Z" fill="#FFF454"></path><path d="M156.367 181.528L159.345 183.121L161.175 181.12L161.929 184.967L164.733 187.497L162.223 188.284L162.121 191.853L159.819 188.489L156.951 188.162L158.039 185.299L156.367 181.528Z" fill="#FFF454"></path><path d="M166.332 179.133L168.999 178.747L169.407 175.352L171.503 178.897L174.437 179.623L173.067 182.201L174.475 186.043L171.533 184.091L169.463 185.736L169.014 181.955L166.332 179.133Z" fill="#FFF454"></path><path d="M172.09 169.661L173.727 167.398L172.601 163.527L175.478 165.817L177.759 164.542L177.897 168.222L180.43 171.301L177.638 171.287L176.926 174.466L175.061 170.777L172.09 169.661Z" fill="#FFF454"></path><path d="M130.59 166.418L133.539 167.246L134.844 164.599L136.178 168.455L139.13 170.323L137.009 171.877L137.528 175.679L134.88 172.786L132.247 173.264L132.738 169.925L130.59 166.418Z" fill="#FFF454"></path><path d="M162.838 151.636C164.075 152.357 164.982 154.107 164.86 155.546L163.137 176.031C163.016 177.469 161.913 178.049 160.676 177.329L137.444 163.791C136.207 163.07 135.3 161.32 135.421 159.881L137.144 139.396C137.265 137.957 138.368 137.377 139.605 138.098L162.838 151.636Z" fill="#FCAA2D"></path><path d="M164.867 155.55L163.152 176.025C163.022 177.464 161.921 178.055 160.687 177.323L149.105 170.579L151.195 144.838L162.853 151.633C164.087 152.352 164.984 154.112 164.867 155.55Z" fill="#FF6D40"></path><path d="M153.88 157.195C153.757 158.543 153.088 159.404 152.136 159.622L151.554 166.803C151.518 167.24 151.184 167.42 150.802 167.201L149.439 166.417L148.078 165.621C147.696 165.403 147.419 164.863 147.456 164.414L148.039 157.233C147.208 155.974 146.721 154.42 146.832 153.045C147.016 150.785 148.742 149.872 150.689 151.016C150.741 151.041 150.779 151.067 150.83 151.093C152.706 152.275 154.083 155.024 153.88 157.195Z" fill="#FF6D40"></path><path d="M152.582 131.045C158.341 134.4 162.572 142.564 162.01 149.242L161.835 151.317L159.881 150.178L160.055 148.104C160.512 142.672 157.075 136.036 152.391 133.306C147.707 130.577 143.531 132.776 143.074 138.209L142.899 140.283L140.945 139.145L141.119 137.07C141.682 130.392 146.827 127.691 152.582 131.045Z" fill="#FCAA2D"></path><path d="M153.878 157.195C153.755 158.543 153.086 159.404 152.135 159.622L151.552 166.803C151.517 167.24 151.182 167.419 150.8 167.201L149.438 166.417L150.687 151.016C150.738 151.042 150.777 151.067 150.828 151.093C152.705 152.275 154.081 155.024 153.878 157.195Z" fill="#FCAA2D"></path><path d="M162.007 149.244L161.825 151.311L159.878 150.181L160.047 148.1C160.501 142.667 157.067 136.039 152.384 133.303C152.308 133.252 152.218 133.213 152.141 133.175L152.324 130.914C152.401 130.953 152.491 130.991 152.567 131.043C158.333 134.394 162.562 142.564 162.007 149.244Z" fill="#FF6D40"></path><path d="M214.756 154.587L211.62 188.334L169.906 203.449L135.621 183.249L214.756 154.587Z" fill="#668C6D"></path><path d="M194.499 139.578L112.624 169.695L94.7266 159.157L94.8539 157.815L175.26 128.234L194.499 139.578Z" fill="#668C6D"></path><path d="M143.931 109.785L97.7383 126.779L99.5047 107.723L124.691 98.4565L143.931 109.785Z" fill="#668C6D"></path><path d="M103.379 85.8967L96.6434 158.216L208.292 223.994L208.111 225.949L94.7188 159.162L101.637 84.8894L103.379 85.8967Z" fill="#DCDEDD"></path><path d="M208.111 225.949L94.7188 159.162L96.6434 158.216L208.292 223.995L208.111 225.949Z" fill="#F9F9F9"></path><path d="M157.633 115.04C157.53 116.145 158.116 117.395 158.965 117.89C159.218 118.036 159.486 118.105 159.747 118.105C159.9 118.105 160.063 118.081 160.215 118.023C160.728 117.838 161.173 117.345 161.254 116.481C161.357 115.376 160.772 114.127 159.922 113.632C159.668 113.486 159.409 113.41 159.142 113.41C158.981 113.41 158.811 113.442 158.652 113.505H158.639C158.139 113.702 157.711 114.196 157.633 115.04Z" fill="#F2F2F2"></path><path d="M160.863 116.479C160.849 116.615 160.825 116.74 160.787 116.865C160.787 116.865 160.787 116.865 160.787 116.877C160.671 117.276 160.433 117.563 160.108 117.675C160 117.713 159.892 117.738 159.787 117.738C159.59 117.738 159.386 117.675 159.2 117.563C158.465 117.139 157.94 116.005 158.03 115.045C158.084 114.458 158.32 114.047 158.716 113.873L158.771 113.847C158.88 113.81 159 113.785 159.106 113.785C159.302 113.785 159.494 113.835 159.693 113.96C159.718 113.972 159.756 113.998 159.779 114.023H159.793C160.47 114.483 160.949 115.555 160.863 116.479Z" fill="#518E90"></path><path d="M160.855 116.479C160.841 116.615 160.817 116.741 160.779 116.865C160.779 116.865 160.779 116.865 160.778 116.877C160.671 117.04 160.528 117.164 160.351 117.227C160.27 117.252 160.176 117.276 160.084 117.276C159.927 117.276 159.76 117.227 159.599 117.127C158.988 116.778 158.55 115.843 158.626 115.032C158.67 114.558 158.873 114.209 159.202 114.06L159.256 114.047C159.339 114.01 159.432 113.986 159.524 113.986C159.616 113.986 159.693 113.997 159.77 114.023H159.783C160.462 114.483 160.94 115.556 160.855 116.479Z" fill="#333333"></path><path fill-rule="evenodd" clip-rule="evenodd" d="M68.6808 132.297L70.4716 131.903L69.8442 128.948L68.0469 129.311L68.6808 132.297Z" fill="white"></path><path fill-rule="evenodd" clip-rule="evenodd" d="M69.9336 137.625L71.7115 137.176C71.4511 136.203 71.2388 135.218 70.9999 134.24L69.2148 134.658C69.4559 135.647 69.6703 136.642 69.9336 137.625Z" fill="white"></path><path fill-rule="evenodd" clip-rule="evenodd" d="M75.741 156.575L77.5189 156.126C77.2585 155.154 76.3404 151.383 76.1015 150.404L74.3164 150.822C74.5567 151.811 75.4777 155.592 75.741 156.575Z" fill="white"></path><path fill-rule="evenodd" clip-rule="evenodd" d="M65.8887 116.096L67.7084 115.869C67.5695 114.872 67.4738 113.869 67.3623 112.868L65.5391 113.064C65.6513 114.075 65.7484 115.088 65.8887 116.096Z" fill="white"></path><path fill-rule="evenodd" clip-rule="evenodd" d="M66.6521 121.517L68.4638 121.234L68.0192 118.247L66.2031 118.498L66.6521 121.517Z" fill="white"></path><path fill-rule="evenodd" clip-rule="evenodd" d="M67.5737 126.895L69.376 126.556C69.1746 125.57 69.0242 124.574 68.8472 123.583L67.0391 123.89C67.2182 124.892 67.37 125.897 67.5737 126.895Z" fill="white"></path><path fill-rule="evenodd" clip-rule="evenodd" d="M64.62 99.7092L66.4525 99.6502L66.377 96.6304L64.543 96.6577L64.62 99.7092Z" fill="white"></path><path fill-rule="evenodd" clip-rule="evenodd" d="M64.8782 105.176L66.7086 105.061C66.6323 104.057 66.5935 103.051 66.5467 102.045L64.7148 102.129C64.7623 103.145 64.8012 104.162 64.8782 105.176Z" fill="white"></path><path fill-rule="evenodd" clip-rule="evenodd" d="M65.3095 110.617L67.1356 110.446L66.8751 107.436L65.0469 107.576L65.3095 110.617Z" fill="white"></path><path fill-rule="evenodd" clip-rule="evenodd" d="M64.9023 83.2545L66.7277 83.4257C66.7752 82.4364 66.9753 81.46 67.0925 80.4765L65.2794 80.2002C65.1578 81.219 64.9541 82.227 64.9023 83.2545Z" fill="white"></path><path fill-rule="evenodd" clip-rule="evenodd" d="M64.6016 88.7409L66.4342 88.7956L66.5471 85.7773L64.7152 85.6909L64.6016 88.7409Z" fill="white"></path><path fill-rule="evenodd" clip-rule="evenodd" d="M64.5237 94.1967L66.3578 94.1952C66.3448 93.1879 66.3642 92.1813 66.3822 91.1747L64.5489 91.1445C64.5302 92.1619 64.5108 93.1793 64.5237 94.1967Z" fill="white"></path><path fill-rule="evenodd" clip-rule="evenodd" d="M68.7617 67.2012L70.4763 67.8516L71.598 65.0772L69.9108 64.3577L68.7617 67.2012Z" fill="white"></path><path fill-rule="evenodd" clip-rule="evenodd" d="M67.0156 72.4235L68.7763 72.9358C69.0792 71.9875 69.3288 71.0226 69.6742 70.0873L67.9388 69.4958C67.5855 70.4557 67.3265 71.4486 67.0156 72.4235Z" fill="white"></path><path fill-rule="evenodd" clip-rule="evenodd" d="M65.7188 77.7587L67.5175 78.1134L67.8046 76.6521L68.1694 75.2051L66.3901 74.7598L66.0159 76.2499L65.7188 77.7587Z" fill="white"></path><path fill-rule="evenodd" clip-rule="evenodd" d="M76.1719 52.474L77.7224 53.4526L79.3665 50.9422L77.8498 49.9111L76.1719 52.474Z" fill="white"></path><path fill-rule="evenodd" clip-rule="evenodd" d="M73.3945 57.2142L75.0034 58.0941C75.4948 57.2235 75.9553 56.3357 76.4877 55.4881L74.9105 54.552C74.3673 55.4176 73.896 56.3249 73.3945 57.2142Z" fill="white"></path><path fill-rule="evenodd" clip-rule="evenodd" d="M70.9219 62.1031L72.5854 62.8752C72.984 61.96 73.4488 61.0743 73.8985 60.1821L72.2652 59.3481C71.8054 60.2605 71.3313 61.1656 70.9219 62.1031Z" fill="white"></path><path fill-rule="evenodd" clip-rule="evenodd" d="M86.2188 39.41L87.5621 40.659L89.6335 38.4969L88.3413 37.196L86.2188 39.41Z" fill="white"></path><path fill-rule="evenodd" clip-rule="evenodd" d="M82.6094 43.552L84.0297 44.7119C84.6557 43.9312 85.2975 43.1649 85.9673 42.4217L84.5887 41.2129C83.9038 41.9727 83.2483 42.7555 82.6094 43.552Z" fill="white"></path><path fill-rule="evenodd" clip-rule="evenodd" d="M79.2734 47.8935L80.7614 48.9655C81.3248 48.1381 81.9601 47.3639 82.5566 46.5609L81.106 45.4392C80.4966 46.2587 79.8483 47.0495 79.2734 47.8935Z" fill="white"></path><path fill-rule="evenodd" clip-rule="evenodd" d="M98.6562 28.5872L99.7111 30.0874C100.538 29.5291 101.334 28.9218 102.188 28.403L101.191 26.864C100.318 27.395 99.5024 28.0152 98.6562 28.5872Z" fill="white"></path><path fill-rule="evenodd" clip-rule="evenodd" d="M94.25 31.8834L95.4048 33.308L97.7778 31.479L96.6783 30.0112L94.25 31.8834Z" fill="white"></path><path fill-rule="evenodd" clip-rule="evenodd" d="M90.1289 35.4974L91.3794 36.8379L92.4688 35.8111L93.6085 34.8391L92.4105 33.4504L91.2449 34.4455L90.1289 35.4974Z" fill="white"></path><path fill-rule="evenodd" clip-rule="evenodd" d="M113.039 20.523L113.769 22.2052C114.681 21.7958 115.598 21.4015 116.538 21.0626L115.872 19.3538C114.911 19.7013 113.972 20.1049 113.039 20.523Z" fill="white"></path><path fill-rule="evenodd" clip-rule="evenodd" d="M108.066 22.873L108.909 24.5019L111.592 23.1672L110.811 21.5081L108.066 22.873Z" fill="white"></path><path fill-rule="evenodd" clip-rule="evenodd" d="M103.289 25.5531L104.239 27.1216C105.073 26.5719 105.969 26.1237 106.834 25.625L105.944 24.022C105.058 24.5321 104.143 24.9912 103.289 25.5531Z" fill="white"></path><path fill-rule="evenodd" clip-rule="evenodd" d="M128.746 15.5416L129.114 17.3383C130.085 17.1023 131.076 16.9713 132.059 16.8008L131.762 14.9912C130.755 15.1653 129.74 15.3006 128.746 15.5416Z" fill="white"></path><path fill-rule="evenodd" clip-rule="evenodd" d="M123.406 16.8391L123.9 18.6055C124.866 18.3551 125.821 18.0565 126.797 17.8457L126.372 16.062C125.372 16.2779 124.395 16.5829 123.406 16.8391Z" fill="white"></path><path fill-rule="evenodd" clip-rule="evenodd" d="M118.176 18.4748L118.789 20.2031L121.636 19.2699L121.089 17.52L118.176 18.4748Z" fill="white"></path><path fill-rule="evenodd" clip-rule="evenodd" d="M145.154 13.9743L145.129 15.8076C146.128 15.8033 147.125 15.8688 148.123 15.8997L148.218 14.0686C147.197 14.0362 146.177 13.97 145.154 13.9743Z" fill="white"></path><path fill-rule="evenodd" clip-rule="evenodd" d="M139.664 14.1124L139.771 15.9428C140.766 15.8788 141.761 15.8154 142.76 15.8126L142.728 13.9792C141.705 13.9828 140.685 14.0469 139.664 14.1124Z" fill="white"></path><path fill-rule="evenodd" clip-rule="evenodd" d="M134.203 14.6176L134.441 16.4351L137.416 16.0983L137.251 14.2722L134.203 14.6176Z" fill="white"></path><path fill-rule="evenodd" clip-rule="evenodd" d="M161.54 15.8323L161.16 17.626C162.136 17.8476 163.116 18.0491 164.084 18.3016L164.524 16.5216C163.536 16.264 162.536 16.0575 161.54 15.8323Z" fill="white"></path><path fill-rule="evenodd" clip-rule="evenodd" d="M156.131 14.8655L155.863 16.6794C156.854 16.811 157.837 17.0003 158.823 17.1636L159.154 15.3598C158.147 15.1936 157.144 15 156.131 14.8655Z" fill="white"></path><path fill-rule="evenodd" clip-rule="evenodd" d="M150.701 14.2358L150.551 16.0634C151.546 16.1548 152.542 16.2382 153.533 16.367L153.75 14.5459C152.737 14.415 151.719 14.3294 150.701 14.2358Z" fill="white"></path><path fill-rule="evenodd" clip-rule="evenodd" d="M177.286 20.647L176.605 22.3501C177.53 22.7357 178.47 23.0847 179.379 23.5063L180.111 21.8248C179.185 21.396 178.227 21.0398 177.286 20.647Z" fill="white"></path><path fill-rule="evenodd" clip-rule="evenodd" d="M172.14 18.7402L171.555 20.4778C172.498 20.8146 173.451 21.1247 174.385 21.4873L175.023 19.7684C174.072 19.3993 173.101 19.0827 172.14 18.7402Z" fill="white"></path><path fill-rule="evenodd" clip-rule="evenodd" d="M166.904 17.145L166.418 18.9129C167.386 19.1668 168.342 19.4669 169.302 19.7511L169.844 17.9991C168.866 17.7091 167.892 17.404 166.904 17.145Z" fill="white"></path><path fill-rule="evenodd" clip-rule="evenodd" d="M192.047 27.9788L191.102 29.5502C191.957 30.0718 192.822 30.5783 193.654 31.1367L194.646 29.5941C193.798 29.0264 192.918 28.5105 192.047 27.9788Z" fill="white"></path><path fill-rule="evenodd" clip-rule="evenodd" d="M187.263 25.2744L186.402 26.894C187.297 27.3459 188.16 27.856 189.035 28.3438L189.943 26.7508C189.053 26.2537 188.174 25.7349 187.263 25.2744Z" fill="white"></path><path fill-rule="evenodd" clip-rule="evenodd" d="M182.374 22.8296L181.602 24.4924L184.308 25.8004L185.129 24.1614L182.374 22.8296Z" fill="white"></path><path fill-rule="evenodd" clip-rule="evenodd" d="M205.436 37.5635L204.254 38.9651C205.022 39.609 205.786 40.2566 206.523 40.9365L207.746 39.5702C206.997 38.878 206.217 38.2189 205.436 37.5635Z" fill="white"></path><path fill-rule="evenodd" clip-rule="evenodd" d="M201.15 34.134L200.043 35.5961C200.857 36.1818 201.621 36.8315 202.412 37.4459L203.561 36.017C202.756 35.3917 201.978 34.7305 201.15 34.134Z" fill="white"></path><path fill-rule="evenodd" clip-rule="evenodd" d="M196.708 30.946L195.68 32.4649L198.145 34.1838L199.218 32.6959L196.708 30.946Z" fill="white"></path><path fill-rule="evenodd" clip-rule="evenodd" d="M217.131 49.1577L215.738 50.3514C216.397 51.1054 217.041 51.8739 217.667 52.6567L219.093 51.504C218.457 50.7083 217.803 49.9262 217.131 49.1577Z" fill="white"></path><path fill-rule="evenodd" clip-rule="evenodd" d="M213.462 45.0857L212.137 46.3528C212.838 47.0687 213.497 47.8234 214.179 48.5573L215.542 47.3306C214.848 46.583 214.176 45.8146 213.462 45.0857Z" fill="white"></path><path fill-rule="evenodd" clip-rule="evenodd" d="M209.572 41.2344L208.316 42.5705C209.036 43.2677 209.768 43.952 210.477 44.66L211.772 43.362C211.051 42.6403 210.304 41.9438 209.572 41.2344Z" fill="white"></path><path fill-rule="evenodd" clip-rule="evenodd" d="M226.882 62.426L225.328 63.3995C225.864 64.2471 226.379 65.1091 226.894 65.9696L228.473 65.0371C227.949 64.1629 227.426 63.2873 226.882 62.426Z" fill="white"></path><path fill-rule="evenodd" clip-rule="evenodd" d="M223.865 57.8494L222.359 58.897C222.933 59.7201 223.497 60.549 224.044 61.3901L225.577 60.3835C225.021 59.5294 224.447 58.6862 223.865 57.8494Z" fill="white"></path><path fill-rule="evenodd" clip-rule="evenodd" d="M220.624 53.4395L219.172 54.5597C219.784 55.3541 220.385 56.157 220.977 56.9665L222.459 55.8865C221.857 55.0634 221.246 54.2467 220.624 53.4395Z" fill="white"></path><path fill-rule="evenodd" clip-rule="evenodd" d="M234.624 76.9563L232.949 77.7032C233.355 78.6213 233.759 79.5401 234.138 80.4689L235.832 79.7653C235.446 78.822 235.037 77.8888 234.624 76.9563Z" fill="white"></path><path fill-rule="evenodd" clip-rule="evenodd" d="M232.275 72.0012L230.637 72.8243C231.093 73.718 231.521 74.626 231.955 75.5304L233.614 74.7497C233.173 73.8309 232.738 72.9092 232.275 72.0012Z" fill="white"></path><path fill-rule="evenodd" clip-rule="evenodd" d="M229.704 67.1746L228.105 68.0732C228.596 68.9482 229.08 69.8274 229.545 70.7167L231.167 69.8605C230.694 68.9568 230.203 68.0632 229.704 67.1746Z" fill="white"></path><path fill-rule="evenodd" clip-rule="evenodd" d="M239.825 92.5894L238.035 92.9901C238.248 93.9694 238.463 94.9486 238.651 95.9365L240.451 95.5825C240.26 94.5824 240.042 93.5859 239.825 92.5894Z" fill="white"></path><path fill-rule="evenodd" clip-rule="evenodd" d="M238.472 87.2671L236.711 87.7801C236.991 88.7378 237.253 89.7019 237.493 90.6725L239.272 90.2257C239.027 89.2342 238.758 88.2485 238.472 87.2671Z" fill="white"></path><path fill-rule="evenodd" clip-rule="evenodd" d="M236.73 82.063L235.016 82.7127C235.379 83.6387 235.69 84.5863 236.012 85.5282L237.755 84.9576C237.424 83.9891 237.104 83.0163 236.73 82.063Z" fill="white"></path><path fill-rule="evenodd" clip-rule="evenodd" d="M242.666 108.765L240.855 109.055L241.35 112.067L243.158 111.761L242.666 108.765Z" fill="white"></path><path d="M241.827 103.376L240.016 103.663L240.491 106.666L242.303 106.379L241.827 103.376Z" fill="white"></path><path fill-rule="evenodd" clip-rule="evenodd" d="M240.919 98.0032L239.113 98.3277L239.627 101.308L241.436 101.01L240.919 98.0032Z" fill="white"></path><path fill-rule="evenodd" clip-rule="evenodd" d="M245.42 124.917L243.609 125.209L244.081 128.206L245.893 127.925L245.42 124.917Z" fill="white"></path><path fill-rule="evenodd" clip-rule="evenodd" d="M244.518 119.531L242.711 119.84L243.216 122.833L245.025 122.532L244.518 119.531Z" fill="white"></path><path fill-rule="evenodd" clip-rule="evenodd" d="M243.583 114.171L241.777 114.493L242.305 117.483L244.112 117.168L243.583 114.171Z" fill="white"></path><path fill-rule="evenodd" clip-rule="evenodd" d="M247.705 141.167L245.883 141.38L246.215 144.389L248.039 144.197L247.705 141.167Z" fill="white"></path><path fill-rule="evenodd" clip-rule="evenodd" d="M247.025 135.744L245.207 135.988L245.594 138.993L247.414 138.767L247.025 135.744Z" fill="white"></path><path fill-rule="evenodd" clip-rule="evenodd" d="M246.259 130.353L244.445 130.622L244.883 133.623L246.699 133.367L246.259 130.353Z" fill="white"></path><path fill-rule="evenodd" clip-rule="evenodd" d="M249.062 157.536L247.23 157.622L247.357 160.642L249.19 160.584L249.062 157.536Z" fill="white"></path><path fill-rule="evenodd" clip-rule="evenodd" d="M248.735 152.075L246.906 152.208C246.989 153.213 247.035 154.22 247.101 155.226L248.932 155.118C248.865 154.104 248.818 153.088 248.735 152.075Z" fill="white"></path><path fill-rule="evenodd" clip-rule="evenodd" d="M248.271 146.643L246.445 146.818C246.539 147.822 246.646 148.826 246.718 149.832L248.546 149.679C248.473 148.666 248.365 147.655 248.271 146.643Z" fill="white"></path><path fill-rule="evenodd" clip-rule="evenodd" d="M249.097 173.975L247.265 173.888C247.202 174.888 247.192 175.906 247.086 176.892L248.915 177.028C249.024 176.007 249.033 174.993 249.097 173.975Z" fill="white"></path><path fill-rule="evenodd" clip-rule="evenodd" d="M249.28 168.501L247.447 168.477L247.371 171.495L249.204 171.554L249.28 168.501Z" fill="white"></path><path fill-rule="evenodd" clip-rule="evenodd" d="M249.251 163.044L247.418 163.078C247.447 164.085 247.454 165.091 247.447 166.098L249.281 166.097C249.288 165.079 249.281 164.062 249.251 163.044Z" fill="white"></path><path fill-rule="evenodd" clip-rule="evenodd" d="M246.638 190.277L244.866 189.811L244.055 192.699L245.81 193.227L246.638 190.277Z" fill="white"></path><path fill-rule="evenodd" clip-rule="evenodd" d="M247.845 184.914L246.044 184.57L245.765 186.041L245.426 187.5L247.212 187.913L247.559 186.42L247.845 184.914Z" fill="white"></path><path fill-rule="evenodd" clip-rule="evenodd" d="M248.687 179.494L246.865 179.288C246.746 180.277 246.592 181.262 246.457 182.25L248.269 182.535C248.407 181.521 248.565 180.51 248.687 179.494Z" fill="white"></path><path fill-rule="evenodd" clip-rule="evenodd" d="M241.043 205.772L239.375 205.011C238.98 205.932 238.523 206.826 238.086 207.728L239.732 208.537C240.176 207.618 240.64 206.71 241.043 205.772Z" fill="white"></path><path fill-rule="evenodd" clip-rule="evenodd" d="M243.191 200.724L241.485 200.052L240.348 202.834L242.033 203.557L243.191 200.724Z" fill="white"></path><path fill-rule="evenodd" clip-rule="evenodd" d="M245.059 195.577L243.317 195.002C243.024 195.959 242.675 196.898 242.328 197.837L244.05 198.467C244.404 197.51 244.759 196.553 245.059 195.577Z" fill="white"></path><path fill-rule="evenodd" clip-rule="evenodd" d="M233.121 220.197L231.584 219.196C231.025 220.028 230.5 220.884 229.91 221.695L231.418 222.738C232.018 221.913 232.552 221.044 233.121 220.197Z" fill="white"></path><path fill-rule="evenodd" clip-rule="evenodd" d="M236.001 215.529L234.417 214.605C233.932 215.483 233.378 216.321 232.863 217.181L234.422 218.148C234.946 217.274 235.507 216.421 236.001 215.529Z" fill="white"></path><path fill-rule="evenodd" clip-rule="evenodd" d="M238.644 210.739L237.017 209.894C236.542 210.778 236.089 211.673 235.598 212.547L237.201 213.436C237.701 212.548 238.162 211.637 238.644 210.739Z" fill="white"></path><path fill-rule="evenodd" clip-rule="evenodd" d="M223.098 233.267L221.739 232.036C221.067 232.778 220.383 233.51 219.688 234.231L221.008 235.504C221.717 234.769 222.413 234.023 223.098 233.267Z" fill="white"></path><path fill-rule="evenodd" clip-rule="evenodd" d="M226.672 229.098L225.247 227.944C224.617 228.722 223.974 229.491 223.32 230.249L224.709 231.446C225.375 230.674 226.029 229.89 226.672 229.098Z" fill="white"></path><path fill-rule="evenodd" clip-rule="evenodd" d="M230 224.755L228.515 223.678L226.711 226.083L228.163 227.203L230 224.755Z" fill="white"></path><path fill-rule="evenodd" clip-rule="evenodd" d="M71.2395 138.128L67.5938 153.349L82.5984 148.896L71.2395 138.128Z" fill="white"></path><path fill-rule="evenodd" clip-rule="evenodd" d="M215.34 240.626L229.998 235.137L217.915 225.187L215.34 240.626Z" fill="white"></path><path d="M178.375 77.5969L181.978 75.5031C185.192 73.6352 189.642 73.8986 194.552 76.7335L190.95 78.8272C186.039 75.9924 181.589 75.7297 178.375 77.5969Z" fill="#F2F2F2"></path><path d="M207.012 118.581L203.409 120.675C206.582 118.831 208.55 114.911 208.566 109.34C208.597 98.1266 200.708 84.4616 190.949 78.8272L194.552 76.7334C204.311 82.3679 212.2 96.0321 212.168 107.246C212.153 112.818 210.185 116.737 207.012 118.581Z" fill="#F2F2F2"></path><path d="M190.95 78.8274C200.709 84.4619 208.599 98.1261 208.567 109.34C208.535 120.555 200.594 125.08 190.835 119.445C181.076 113.811 173.187 100.146 173.219 88.9322C173.251 77.7187 181.191 73.1929 190.95 78.8274Z" fill="#DBDBDB"></path><path d="M189.417 84.103C189.417 84.103 181.469 81.366 183.924 101.283C184.026 102.116 184.562 103.027 185.245 103.421L191.706 107.151L189.417 84.103Z" fill="#636363"></path><path d="M194.081 86.7952C194.081 86.7952 202.029 93.2348 199.574 110.318C199.472 111.033 198.936 111.325 198.253 110.93L191.793 107.2L194.081 86.7952Z" fill="#636363"></path><path d="M198.002 97.681C198.002 102.49 195.182 104.76 191.702 102.751C188.223 100.742 185.402 95.2152 185.402 90.406C185.402 85.5968 188.223 83.3268 191.702 85.3356C195.181 87.3445 198.002 92.8718 198.002 97.681Z" fill="#FAD3AA"></path><path d="M197.224 96.8255L192.945 94.3555V94.0015L197.224 96.4715V96.8255Z" fill="#636363"></path><path d="M190.286 92.8238L186.008 90.353V89.999L190.286 92.4691V92.8238Z" fill="#636363"></path><path d="M197.737 94.6339L185.691 87.6791C185.691 86.0149 186.279 84.8486 187.23 84.3118C188.18 83.77 189.493 83.8535 190.943 84.6903L192.49 85.5839C195.39 87.2575 197.737 91.3062 197.737 94.6339Z" fill="#636363"></path><path d="M193.652 107.019L189.637 104.701V98.4021L193.652 100.721V107.019Z" fill="#FAD3AA"></path><path d="M201.965 118.794C199.23 119.913 195.673 119.473 191.794 117.232C187.914 114.992 184.357 111.325 181.621 107.048C181.913 102.571 185.293 100.864 189.412 103.241L194.175 105.991C198.3 108.374 201.673 113.98 201.965 118.794Z" fill="#514F5A"></path><path d="M189.637 103.37L191.644 108.903L193.652 105.689L189.637 103.37Z" fill="#FAD3AA"></path><path d="M193.645 105.689L191.637 108.903L189.63 103.37L188.02 105.525L191.637 117.135L195.255 109.703L193.645 105.689Z" fill="#D0D0D0"></path><path d="M135.828 53.0214L139.431 50.9276C142.645 49.0598 147.095 49.3224 152.006 52.158L148.404 54.2518C143.492 51.4162 139.042 51.1543 135.828 53.0214Z" fill="#F2F2F2"></path><path d="M164.473 94.0053L160.87 96.0991C164.043 94.255 166.011 90.3351 166.027 84.7639C166.058 73.5497 158.169 59.8855 148.41 54.251L152.013 52.1572C161.772 57.7917 169.661 71.4559 169.629 82.6702C169.614 88.2413 167.646 92.1619 164.473 94.0053Z" fill="#F2F2F2"></path><path d="M148.396 54.2517C158.154 59.8862 166.044 73.5504 166.012 84.7647C165.981 95.979 158.039 100.504 148.281 94.8695C138.521 89.235 130.632 75.5708 130.664 64.3565C130.696 53.143 138.636 48.6172 148.396 54.2517Z" fill="#DBDBDB"></path><path d="M162.161 84.2629C162.175 79.2155 158.628 73.0716 154.243 70.5397C149.843 67.9998 146.28 70.0382 146.266 75.0856C146.251 80.125 149.791 86.2725 154.191 88.8131C158.576 91.345 162.147 89.3023 162.161 84.2629Z" fill="#FCAA2D"></path><path d="M161.061 83.6232C161.073 79.2788 158.02 73.9904 154.245 71.811C150.458 69.6244 147.391 71.3793 147.379 75.7237C147.367 80.0616 150.414 85.3529 154.201 87.5395C157.977 89.7189 161.049 87.9611 161.061 83.6232Z" fill="#FFE042"></path><path d="M151.983 72.5199C151.725 72.371 151.516 72.4904 151.516 72.7861V73.7157C151.516 74.0115 151.724 74.3719 151.983 74.5209L153.61 75.4606V85.384C153.61 85.6798 153.819 86.0402 154.077 86.1892L154.791 86.6007C155.048 86.7497 155.258 86.6302 155.258 86.3345V76.411V74.4101L151.983 72.5199Z" fill="#FC912D"></path><path d="M157.349 74.0368C157.363 68.9895 153.816 62.8456 149.43 60.3136C145.031 57.7738 141.468 59.8121 141.453 64.8595C141.439 69.8989 144.979 76.0464 149.379 78.587C153.764 81.1189 157.334 79.0763 157.349 74.0368Z" fill="#FCAA2D"></path><path d="M156.249 73.3976C156.261 69.0532 153.208 63.7648 149.433 61.5854C145.646 59.3989 142.579 61.1537 142.566 65.4981C142.554 69.8361 145.601 75.1273 149.388 77.3139C153.163 79.4933 156.236 77.7356 156.249 73.3976Z" fill="#FFE042"></path><path d="M147.233 62.4074C146.975 62.2584 146.766 62.3779 146.766 62.6736V63.6032C146.766 63.8989 146.975 64.2594 147.233 64.4083L148.86 65.348V75.2715C148.86 75.5672 149.069 75.9277 149.327 76.0766L150.041 76.4889C150.298 76.6378 150.508 76.5184 150.508 76.2227V66.2992V64.2982L147.233 62.4074Z" fill="#FC912D"></path><path d="M150.52 77.5137C150.535 72.4663 146.988 66.3225 142.602 63.7905C138.202 61.2499 134.639 63.289 134.625 68.3364C134.611 73.3758 138.151 79.5233 142.55 82.0632C146.936 84.5958 150.506 82.5531 150.52 77.5137Z" fill="#FCAA2D"></path><path d="M149.421 76.8747C149.433 72.5303 146.38 67.2419 142.605 65.0625C138.818 62.8759 135.751 64.6308 135.738 68.9752C135.726 73.3131 138.773 78.6044 142.56 80.791C146.335 82.9704 149.408 81.2119 149.421 76.8747Z" fill="#FFE042"></path><path d="M140.447 66.2831C140.19 66.1342 139.98 66.2536 139.98 66.5493V67.4789C139.98 67.7747 140.189 68.1351 140.447 68.2841L142.075 69.2237V79.1472C142.075 79.4429 142.284 79.8034 142.542 79.9523L143.256 80.3639C143.513 80.5128 143.723 80.3934 143.723 80.0977V70.1742V68.1733L140.447 66.2831Z" fill="#FC912D"></path><path d="M69.418 29.7055L73.0206 27.6117C76.2346 25.7439 80.6848 26.0072 85.5954 28.8421L81.9928 30.9359C77.0822 28.1003 72.632 27.8377 69.418 29.7055Z" fill="#F2F2F2"></path><path d="M98.0591 70.6902L94.4558 72.7839C97.6289 70.9398 99.5967 67.0199 99.6126 61.4488C99.6442 50.2352 91.7548 36.5703 81.9961 30.9365L85.5987 28.8428C95.3581 34.4773 103.247 48.1415 103.215 59.355C103.2 64.9262 101.232 68.8468 98.0591 70.6902Z" fill="#F2F2F2"></path><path d="M81.9973 30.9364C91.756 36.5709 99.6454 50.2351 99.6138 61.4487C99.5821 72.663 91.6409 77.188 81.8822 71.5535C72.1228 65.919 64.2341 52.2548 64.2657 41.0405C64.2981 29.827 72.2386 25.302 81.9973 30.9364Z" fill="#DBDBDB"></path><path d="M94.4714 67.5504L69.5094 53.1386C68.7101 52.6774 68.0625 51.4391 68.0625 50.3736V35.8567C68.0625 34.7911 68.7101 34.3012 69.5094 34.7624L94.4714 49.1741C95.2707 49.6353 95.9183 50.8736 95.9183 51.9385V66.456C95.9183 67.5223 95.27 68.0123 94.4714 67.5504Z" fill="#98B3AE"></path><path d="M79.6066 51.4212C79.6066 54.6418 77.3315 55.939 74.524 54.3187C71.7172 52.6984 69.4414 48.7734 69.4414 45.5522C69.4414 42.3317 71.7165 41.0337 74.524 42.6547C77.3315 44.2758 79.6066 48.2007 79.6066 51.4212Z" fill="white"></path><path d="M73.7382 43.5693C73.7382 43.5693 71.6214 42.8166 71.9582 47.2553C71.9783 47.5194 72.1654 47.8201 72.3863 47.9482L74.4801 49.157L73.7382 43.5693Z" fill="#636363"></path><path d="M75.2652 44.4543C75.2652 44.4543 77.382 46.1459 77.0453 50.196C77.0252 50.4371 76.8381 50.522 76.6172 50.3946L74.5234 49.1858L75.2652 44.4543Z" fill="#636363"></path><path d="M76.5488 47.9829C76.5488 49.5414 75.6343 50.2775 74.5068 49.6263C73.3793 48.9751 72.4648 47.1843 72.4648 45.6251C72.4648 44.0666 73.3793 43.3306 74.5068 43.9817C75.635 44.6329 76.5488 46.4245 76.5488 47.9829Z" fill="#FAD3AA"></path><path d="M76.447 46.9951L76.1549 46.8267L75.9801 46.2835V46.726L75.5793 46.4943L75.4304 46.0418L75.4102 46.3965L74.9289 46.1188L74.6785 45.6137V45.9734L74.1424 45.664L74.0525 44.8488L73.9698 45.564L73.9395 45.5467L73.8496 45.2661L73.7877 45.459L73.3575 45.2107L73.2761 44.9287L73.161 45.0978L73.1322 45.0812V44.3531L72.9056 44.951L72.543 44.7416C72.543 44.202 72.7336 43.8242 73.0416 43.6501C73.3495 43.4746 73.7748 43.5019 74.2453 43.7731L74.7468 44.0624C75.6858 44.6049 76.447 45.9166 76.447 46.9951Z" fill="#636363"></path><path d="M75.129 51.0092L73.8281 50.258V48.2168L75.129 48.968V51.0092Z" fill="#FAD3AA"></path><path d="M77.8241 54.8256C76.9376 55.1883 75.785 55.0451 74.5273 54.3198C73.2696 53.5938 72.1169 52.4052 71.2305 51.0194C71.3254 49.5682 72.4205 49.0149 73.7552 49.7855L75.2986 50.6769C76.6361 51.4482 77.7291 53.265 77.8241 54.8256Z" fill="#A9D6FF"></path><path d="M73.8281 49.8262L74.4786 51.6199L75.129 50.5781L73.8281 49.8262Z" fill="#FAD3AA"></path><path d="M75.124 50.5781L74.4736 51.6199L73.8231 49.8262L73.3008 50.5248L74.4736 54.2871L75.6464 51.8789L75.124 50.5781Z" fill="#4367C7"></path><path d="M95.9183 51.6717V53.7741L68.0625 37.6909V35.5885C68.0625 34.6718 68.7108 34.302 69.5094 34.7632L94.4714 49.175C95.27 49.6369 95.9183 50.755 95.9183 51.6717Z" fill="#272262"></path><path d="M94.0038 56.0149L81.4987 48.7953C81.2188 48.6341 80.9922 48.201 80.9922 47.8276V47.6009C80.9922 47.2282 81.2188 47.0563 81.4987 47.2182L94.0038 54.4377C94.2837 54.5989 94.5103 55.032 94.5103 55.4054V55.6321C94.5103 56.0048 94.2837 56.1768 94.0038 56.0149Z" fill="white"></path><path d="M94.0038 58.9619L81.4987 51.7423C81.2188 51.5804 80.9922 51.1473 80.9922 50.7746V50.548C80.9922 50.1752 81.2188 50.0033 81.4987 50.1652L94.0038 57.3847C94.2837 57.5459 94.5103 57.979 94.5103 58.3525V58.5791C94.5103 58.9525 94.2837 59.1238 94.0038 58.9619Z" fill="white"></path><path d="M94.0038 61.9099L81.4987 54.6903C81.2188 54.5292 80.9922 54.0953 80.9922 53.7226V53.496C80.9922 53.1232 81.2188 52.9513 81.4987 53.1132L94.0038 60.3327C94.2837 60.4939 94.5103 60.9278 94.5103 61.3005V61.5271C94.5103 61.8998 94.2837 62.0711 94.0038 61.9099Z" fill="white"></path><path d="M94.0038 64.8569L81.4987 57.6374C81.2188 57.4762 80.9922 57.0423 80.9922 56.6696V56.443C80.9922 56.0703 81.2188 55.8983 81.4987 56.0602L94.0038 63.2798C94.2837 63.4416 94.5103 63.8748 94.5103 64.2475V64.4741C94.5103 64.8468 94.2837 65.0188 94.0038 64.8569Z" fill="white"></path><path d="M70.7266 37.4378C70.7266 37.9192 70.3863 38.1135 69.9668 37.871C69.5474 37.6285 69.207 37.0421 69.207 36.5608C69.207 36.0794 69.5474 35.8851 69.9668 36.1276C70.3863 36.3701 70.7266 36.9565 70.7266 37.4378Z" fill="white"></path><path d="M72.5118 38.468C72.5118 38.9494 72.1715 39.1437 71.752 38.9012C71.3325 38.6587 70.9922 38.0723 70.9922 37.591C70.9922 37.1096 71.3325 36.9161 71.752 37.1578C72.1722 37.4003 72.5118 37.9867 72.5118 38.468Z" fill="white"></path><path d="M74.2969 39.4993C74.2969 39.9806 73.9566 40.1749 73.5371 39.9324C73.1177 39.69 72.7773 39.1036 72.7773 38.6222C72.7773 38.1409 73.1177 37.9473 73.5371 38.1891C73.9566 38.4308 74.2969 39.0172 74.2969 39.4993Z" fill="white"></path><path d="M76.0821 40.5294C76.0821 41.0107 75.7418 41.205 75.3223 40.9625C74.9028 40.7201 74.5625 40.1337 74.5625 39.6523C74.5625 39.171 74.9028 38.9767 75.3223 39.2192C75.7425 39.4609 76.0821 40.048 76.0821 40.5294Z" fill="white"></path><path d="M112.223 3.28703L115.826 1.19326C119.04 -0.674587 123.49 -0.411966 128.401 2.42362L124.798 4.51739C119.887 1.68181 115.437 1.41919 112.223 3.28703Z" fill="#F2F2F2"></path><path d="M140.852 44.2707L137.249 46.3645C140.422 44.5204 142.39 40.6005 142.406 35.0294C142.437 23.8158 134.548 10.1509 124.789 4.51711L128.392 2.42334C138.151 8.05782 146.04 21.722 146.008 32.9363C145.992 38.5067 144.024 42.4273 140.852 44.2707Z" fill="#F2F2F2"></path><path d="M124.782 4.51726C134.541 10.1517 142.431 23.8159 142.399 35.0295C142.367 46.2438 134.426 50.7688 124.667 45.1343C114.908 39.4998 107.019 25.8356 107.051 14.6213C107.083 3.40777 115.023 -1.11722 124.782 4.51726Z" fill="#DBDBDB"></path><path d="M132.466 30.2121L132.464 30.2107C133.092 29.1926 133.449 27.8305 133.449 26.1649C133.449 20.6498 129.553 13.9289 124.746 11.1538C119.94 8.37861 116.043 10.6005 116.043 16.1155C116.043 18.0279 116.512 20.085 117.324 22.0723L125.099 40.9127L132.183 30.6237C132.274 30.5057 132.358 30.3805 132.44 30.251L132.466 30.2121Z" fill="white"></path><path d="M129.307 23.7725C129.307 26.662 127.265 27.8255 124.747 26.372C122.229 24.9179 120.188 21.3974 120.188 18.5078C120.188 15.6183 122.229 14.4548 124.747 15.9082C127.265 17.3623 129.307 20.8829 129.307 23.7725Z" fill="#272262"></path><path d="M220.629 65.7651L224.232 63.6713C227.446 61.8034 231.896 62.0661 236.807 64.9016L233.204 66.9954C228.293 64.1598 223.843 63.8972 220.629 65.7651Z" fill="#F2F2F2"></path><path d="M249.266 106.749L245.663 108.843C248.836 106.999 250.804 103.079 250.82 97.5076C250.851 86.294 242.962 72.6291 233.203 66.9947L236.806 64.9009C246.565 70.5354 254.454 84.1996 254.422 95.4138C254.406 100.984 252.438 104.905 249.266 106.749Z" fill="#F2F2F2"></path><path d="M233.204 66.9944C242.963 72.6289 250.852 86.2931 250.821 97.5074C250.789 108.722 242.848 113.247 233.089 107.612C223.33 101.978 215.441 88.3135 215.473 77.0992C215.504 65.8856 223.445 61.3599 233.204 66.9944Z" fill="#DBDBDB"></path><path d="M245.182 91.7366L233.791 72.1199C233.403 71.4508 232.774 71.0874 232.385 71.3083L220.995 77.7724C220.506 78.0508 220.434 78.9322 220.896 79.7892C221.39 80.7029 222.235 81.2095 222.749 80.9159L232.429 75.3966C232.793 75.1893 233.383 75.5297 233.747 76.1571L243.428 92.854C243.942 93.7419 244.787 94.2103 245.28 93.8664C245.742 93.544 245.67 92.5792 245.182 91.7366Z" fill="#99B4AF"></path><path d="M232.433 77.7489L223.676 82.7207V93.6622C223.676 94.8063 224.484 96.2 225.48 96.7748L240.702 105.563C241.699 106.139 242.507 105.678 242.507 104.534V93.5925L233.75 78.5087C233.386 77.8827 232.796 77.5424 232.433 77.7489Z" fill="#272262"></path><path d="M231.554 94.6902L228.468 92.9087C227.988 92.6309 227.598 91.8862 227.598 91.2451V88.0275C227.598 87.3864 227.988 87.0914 228.468 87.3691L231.554 89.1506C232.035 89.4284 232.425 90.1731 232.425 90.8142V94.0318C232.425 94.6729 232.035 94.9679 231.554 94.6902Z" fill="#FFE042"></path><path d="M237.703 98.2373L234.617 96.4558C234.136 96.178 233.746 95.4333 233.746 94.7923V91.5746C233.746 90.9335 234.136 90.6385 234.617 90.9163L237.703 92.6978C238.183 92.9755 238.573 93.7202 238.573 94.3613V97.5789C238.573 98.2207 238.183 98.515 237.703 98.2373Z" fill="#FFE042"></path><path d="M53.5703 72.2609L57.1729 70.1671C60.3869 68.2993 64.8371 68.5619 69.7485 71.3975L66.1459 73.4913C61.2345 70.6557 56.7836 70.3931 53.5703 72.2609Z" fill="#F2F2F2"></path><path d="M82.1998 113.245L78.5965 115.338C81.7695 113.494 83.7374 109.574 83.7532 104.003C83.7848 92.7897 75.8954 79.1247 66.1367 73.491L69.7393 71.3972C79.4987 77.0317 87.3874 90.6959 87.3558 101.909C87.3399 107.481 85.3728 111.401 82.1998 113.245Z" fill="#F2F2F2"></path><path d="M66.1379 73.4914C75.8966 79.1259 83.7861 92.7901 83.7544 104.004C83.7227 115.218 75.7815 119.743 66.0228 114.108C56.2634 108.474 48.3747 94.8097 48.4063 83.5954C48.438 72.3819 56.3785 67.8569 66.1379 73.4914Z" fill="#DBDBDB"></path><path d="M66.7193 85.1616L64.7731 81.6151L55.6641 76.3562V98.4782L77.7753 111.244V91.5443L66.7193 85.1616Z" fill="#FC5C00"></path><path d="M64.7662 86.1421L62.8199 87.4408L53.7109 82.1819L55.6694 98.4781L77.7807 111.244L75.8215 92.5248L64.7662 86.1421Z" fill="#FCAA2D"></path><path d="M73.8039 95.4427L66.5247 91.248L66.3477 89.6672L73.6262 93.8627L73.8039 95.4427Z" fill="#F2F2F2"></path><path d="M168.191 12.4296L171.795 10.3358C175.009 8.46799 179.459 8.73061 184.37 11.5662L180.766 13.66C175.856 10.8244 171.405 10.5618 168.191 12.4296Z" fill="#F2F2F2"></path><path d="M196.829 53.4138L193.225 55.5076C196.398 53.6635 198.366 49.7436 198.382 44.1724C198.414 32.9589 190.524 19.2939 180.766 13.6602L184.369 11.5664C194.128 17.2009 202.017 30.8651 201.985 42.0794C201.969 47.6498 200.001 51.5697 196.829 53.4138Z" fill="#F2F2F2"></path><path d="M180.767 13.6603C190.526 19.2948 198.415 32.959 198.383 44.1726C198.352 55.3868 190.41 59.9118 180.652 54.2774C170.892 48.6429 163.004 34.9787 163.035 23.7644C163.068 12.5508 171.008 8.02585 180.767 13.6603Z" fill="#DBDBDB"></path><path d="M189.739 31.9674C190.699 32.5214 191.477 33.8684 191.473 34.9742L191.428 50.7265C191.426 51.8324 190.643 52.2785 189.683 51.7244L171.652 41.3146C170.692 40.7605 169.914 39.4136 169.918 38.3077L169.963 22.5555C169.965 21.4496 170.748 21.0035 171.708 21.5576L189.739 31.9674Z" fill="#FCAA2D"></path><path d="M177.293 32.9287C177.293 31.1515 178.578 30.46 180.14 31.4299C181.602 32.338 182.789 34.4569 182.773 36.1269C182.764 37.1637 182.311 37.8206 181.622 37.9868V43.5112C181.622 43.8508 181.383 43.9875 181.087 43.8163L178.981 42.6003C178.685 42.4298 178.445 42.0161 178.445 41.6765V36.1521C177.748 35.18 177.293 33.9849 177.293 32.9287Z" fill="#FC5C00"></path><path d="M180.737 16.2195C185.207 18.8004 188.832 25.0774 188.818 30.2132L188.814 31.8084L187.298 30.9327L187.302 29.3376C187.313 25.1608 184.367 20.0574 180.732 17.9586C177.097 15.8597 174.134 17.5513 174.122 21.7288L174.118 23.3239L172.602 22.4483L172.606 20.8531C172.621 15.7173 176.27 13.6408 180.737 16.2195Z" fill="#FCAA2D"></path><path d="M233.059 175.876L236.661 173.783C239.875 171.915 244.325 172.178 249.236 175.013L245.633 177.107C240.723 174.272 236.272 174.009 233.059 175.876Z" fill="#F2F2F2"></path><path d="M261.696 216.86L258.093 218.954C261.266 217.11 263.233 213.19 263.249 207.619C263.281 196.405 255.392 182.74 245.633 177.106L249.235 175.012C258.995 180.647 266.884 194.311 266.852 205.524C266.836 211.097 264.869 215.017 261.696 216.86Z" fill="#F2F2F2"></path><path d="M245.626 177.107C255.385 182.741 263.274 196.406 263.243 207.62C263.211 218.834 255.271 223.359 245.511 217.725C235.752 212.09 227.863 198.426 227.895 187.212C227.926 175.998 235.867 171.472 245.626 177.107Z" fill="#DBDBDB"></path><path d="M253.879 215.34L237.28 205.756C236.597 205.362 236.043 204.304 236.043 203.393V182.266C236.043 181.355 236.597 180.936 237.28 181.331L253.879 190.914C254.562 191.309 255.116 192.367 255.116 193.278V214.406C255.116 215.316 254.562 215.734 253.879 215.34Z" fill="#272262"></path><path d="M253.053 195.197L238.113 186.572V185.395L253.053 194.021V195.197Z" fill="#F2F2F2"></path><path d="M253.053 197.971L238.113 189.345V188.169L253.053 196.794V197.971Z" fill="#F2F2F2"></path><path d="M253.053 200.744L238.113 192.119V190.942L253.053 199.568V200.744Z" fill="#F2F2F2"></path><path d="M253.053 203.517L238.113 194.891V193.715L253.053 202.34V203.517Z" fill="#F2F2F2"></path><path d="M253.053 206.29L238.113 197.664V196.488L253.053 205.114V206.29Z" fill="#F2F2F2"></path><path d="M253.053 209.063L238.113 200.438V199.261L253.053 207.887V209.063Z" fill="#F2F2F2"></path><path d="M253.053 211.837L238.113 203.211V202.034L253.053 210.659V211.837Z" fill="#F2F2F2"></path><path d="M231.527 123.249L235.13 121.155C238.344 119.288 242.794 119.55 247.705 122.386L244.102 124.48C239.192 121.644 234.741 121.381 231.527 123.249Z" fill="#F2F2F2"></path><path d="M260.161 164.233L256.557 166.327C259.73 164.483 261.698 160.563 261.714 154.992C261.746 143.778 253.856 130.113 244.098 124.479L247.7 122.385C257.46 128.02 265.348 141.684 265.317 152.897C265.301 158.469 263.333 162.389 260.161 164.233Z" fill="#F2F2F2"></path><path d="M244.095 124.479C253.854 130.114 261.743 143.778 261.711 154.992C261.68 166.207 253.739 170.732 243.98 165.097C234.22 159.463 226.332 145.798 226.363 134.584C226.395 123.37 234.336 118.845 244.095 124.479Z" fill="#DBDBDB"></path><path d="M254.482 140.863L243.972 130.79L233.461 128.727V136.573C233.461 141.708 235.402 147.712 238.782 153.029L243.972 161.195V161.194L249.161 159.022C252.541 157.607 254.482 153.845 254.482 148.71V140.863Z" fill="#FFAF40"></path><path d="M252.744 141.715L243.979 133.316L235.215 131.595V138.137C235.215 142.419 236.834 147.425 239.652 151.859L243.98 158.667L248.307 156.856C251.125 155.676 252.744 152.539 252.744 148.257V141.715Z" fill="#FF6D40"></path><path d="M242.321 151.822L240.94 149.44C240.63 148.906 240.63 148.329 240.94 148.153L249.717 143.149C250.027 142.972 250.529 143.262 250.839 143.796L252.22 146.179C252.53 146.713 252.53 147.29 252.22 147.466L243.443 152.47C243.133 152.646 242.631 152.356 242.321 151.822Z" fill="white"></path><path d="M244.817 151.68L243.436 152.467C243.126 152.643 242.623 152.353 242.314 151.819L237.729 143.91C237.419 143.375 237.419 142.799 237.729 142.623L239.11 141.835C239.42 141.659 239.922 141.948 240.232 142.482L244.817 150.392C245.127 150.927 245.127 151.503 244.817 151.68Z" fill="white"></path></svg>