<svg xmlns="http://www.w3.org/2000/svg" width="438" height="279" viewBox="0 0 438 279" fill="none"><path d="M218.832 83.6993L171.543 56.3967L218.83 29.095L266.119 56.3976L218.832 83.6993ZM172.882 56.3957L218.832 82.9249L264.779 56.3957L218.83 29.8675L172.882 56.3957Z" fill="#8686F2"></path><path d="M262.538 46.2453V37.4248L218.831 61.5404L175.125 37.4238V46.2443L218.832 71.4783L262.538 46.2453Z" fill="url(#paint0_linear_2288_202810)"></path><path d="M218.832 62.6579L175.125 37.4238L218.831 12.1898L262.538 37.4248L218.832 62.6579Z" fill="url(#paint1_linear_2288_202810)"></path><path opacity="0.5" d="M218.832 61.9314L175.754 37.0602L175.125 37.4239L218.832 62.6579L262.538 37.4248L261.909 37.0611L218.832 61.9314Z" fill="white"></path><path d="M218.828 53.0235L191.809 37.4238L218.827 21.8242L245.847 37.4248L218.828 53.0235Z" fill="#0F054C"></path><path opacity="0.5" d="M218.829 53.0244L191.809 37.4248L218.828 21.8242L245.849 37.4248L218.829 53.0244Z" fill="url(#paint2_linear_2288_202810)"></path><path opacity="0.5" d="M218.824 0L245.845 15.6006V37.4248L218.824 21.8242V0Z" fill="url(#paint3_linear_2288_202810)"></path><path opacity="0.5" d="M218.825 21.8242L191.805 37.4239V15.6006L218.824 0L218.825 21.8242Z" fill="url(#paint4_linear_2288_202810)"></path><path opacity="0.5" d="M218.825 31.2002L191.805 15.6006L218.824 0L245.845 15.6006L218.825 31.2002Z" fill="url(#paint5_linear_2288_202810)"></path><path opacity="0.5" d="M218.824 31.2002V53.0245L245.844 37.4248V15.6006L218.824 31.2002Z" fill="url(#paint6_linear_2288_202810)"></path><path opacity="0.5" d="M191.809 15.6006V37.4239L218.829 53.0245V31.2002L191.809 15.6006Z" fill="url(#paint7_linear_2288_202810)"></path><path d="M99.6853 138.933C98.3451 138.933 97.0274 138.582 95.8742 137.916L51.9814 112.574C51.2906 112.175 50.8789 111.461 50.8789 110.664C50.8789 109.867 51.2915 109.153 51.9814 108.754L131.4 62.9024C131.536 62.8234 131.703 62.8234 131.84 62.9024L179.324 90.3168C180.014 90.7153 180.426 91.4305 180.426 92.2275C180.426 93.0255 180.014 93.7388 179.324 94.1373L103.497 137.916C102.343 138.582 101.025 138.933 99.6853 138.933ZM131.62 63.7914L52.4212 109.516C52.0077 109.756 51.7595 110.184 51.7595 110.663C51.7595 111.142 52.0067 111.571 52.4212 111.81L96.3141 137.152C98.3535 138.33 101.016 138.33 103.057 137.152L178.884 93.3732C179.297 93.1345 179.545 92.7059 179.545 92.2266C179.545 91.7482 179.298 91.3187 178.884 91.08L131.62 63.7914Z" fill="#42E8E0"></path><path d="M185.018 78.0058L180.411 80.4118L134.21 53.7379C133.438 53.2915 132.087 53.3479 131.194 53.8629L51.5122 99.8676C50.7499 99.4409 47.2734 97.7689 47.2734 97.7689L48.9595 102.164L48.9661 102.158C49.0357 102.354 49.186 102.536 49.4379 102.681L98.0958 130.775C98.8684 131.221 100.219 131.165 101.112 130.65L182.652 83.5725C183.019 83.361 183.243 83.1044 183.336 82.845L183.343 82.8488L185.018 78.0058Z" fill="url(#paint8_linear_2288_202810)"></path><path d="M184.303 78.7632L100.736 127.011C99.8212 127.54 98.4368 127.597 97.6454 127.139L47.777 98.3478C46.9847 97.8901 47.0843 97.0912 47.9988 96.563L131.566 48.3149C132.481 47.7867 133.864 47.7294 134.657 48.1871L184.525 76.9785C185.317 77.4362 185.218 78.235 184.303 78.7632Z" fill="url(#paint9_linear_2288_202810)"></path><path d="M184.303 78.2812L100.735 126.529C99.8204 127.058 98.436 127.115 97.6446 126.657L47.7762 97.8658C47.5168 97.7163 47.3627 97.5284 47.2922 97.3263C47.1672 97.7022 47.3176 98.0819 47.7762 98.347L97.6446 127.138C98.4369 127.595 99.8204 127.539 100.735 127.011L184.303 78.7624C184.918 78.4071 185.155 77.9306 185.008 77.5171C184.918 77.7896 184.687 78.0594 184.303 78.2812Z" fill="white"></path><path d="M75.5273 116.574V115.658C75.5273 115.572 75.58 115.531 75.6458 115.569L78.8779 117.435C78.9428 117.473 78.9963 117.573 78.9963 117.661V118.577C78.9963 118.664 78.9437 118.704 78.8779 118.667L75.6458 116.8C75.58 116.762 75.5273 116.661 75.5273 116.574Z" fill="#2842A2"></path><path d="M80.3633 119.365V118.448C80.3633 118.362 80.4159 118.322 80.4817 118.359L83.7138 120.226C83.7787 120.263 83.8323 120.364 83.8323 120.451V121.368C83.8323 121.454 83.7796 121.495 83.7138 121.457L80.4817 119.59C80.4159 119.553 80.3633 119.452 80.3633 119.365Z" fill="#2842A2"></path><path d="M75.8842 104.893L145.33 64.799C145.793 64.532 146.364 64.532 146.826 64.7999L171.555 79.1072C171.911 79.313 171.911 79.8253 171.555 80.0301L102.143 120.105C101.68 120.372 101.111 120.372 100.648 120.105L75.8852 105.816C75.528 105.611 75.528 105.098 75.8842 104.893Z" fill="#ADB1F2"></path><path d="M75.8845 105.817L76.1335 105.961L145.33 66.0105C145.793 65.7435 146.364 65.7435 146.826 66.0114L171.306 80.1749L171.555 80.0311C171.91 79.8262 171.91 79.3131 171.555 79.1082L146.825 64.8009C146.363 64.533 145.792 64.533 145.329 64.7999L75.8835 104.894C75.5283 105.098 75.5283 105.611 75.8845 105.817Z" fill="#9198DB"></path><path d="M148.694 68.423L84.7257 105.354L81.5547 104.088L146.011 66.8741L148.694 68.423Z" fill="#24126A"></path><path d="M155.266 72.2191L98.6862 104.886L96.0039 103.338L152.585 70.6711L155.266 72.2191Z" fill="#24126A"></path><path d="M159.549 74.6919L92.9314 113.153L90.25 111.605L156.867 73.1439L159.549 74.6919Z" fill="#24126A"></path><path d="M163.827 77.1645L97.2097 115.626L94.5273 114.078L161.146 75.6166L163.827 77.1645Z" fill="#24126A"></path><path d="M168.116 79.6373L101.499 118.099L98.8164 116.551L165.434 78.0894L168.116 79.6373Z" fill="#24126A"></path><path d="M84.7231 105.354L82.0408 106.903L79.3594 105.354L82.0408 103.807L84.7231 105.354Z" fill="#24126A"></path><path d="M101.935 103.008L88.612 110.699L85.9297 109.151L99.3498 101.403L101.935 103.008Z" fill="#24126A"></path><path d="M100.613 86.9249L119.338 76.1138C120.07 75.6909 120.07 75.0057 119.338 74.5837L106.533 67.1909C105.801 66.7679 104.615 66.7679 103.883 67.1909L85.1585 78.002C84.4263 78.4249 84.4263 79.1091 85.1585 79.532L97.963 86.9249C98.6942 87.3478 99.8812 87.3478 100.613 86.9249Z" fill="url(#paint10_linear_2288_202810)"></path><path d="M85.1588 78.6279L103.883 67.8168C104.616 67.3939 105.802 67.3939 106.534 67.8168L119.338 75.2097C119.564 75.3403 119.711 75.4963 119.798 75.6617C119.992 75.2924 119.844 74.876 119.338 74.5837L106.534 67.1909C105.802 66.7679 104.616 66.7679 103.883 67.1909L85.1588 78.002C84.6532 78.2942 84.5056 78.7106 84.6992 79.0799C84.7847 78.9155 84.9323 78.7585 85.1588 78.6279Z" fill="#9198DB"></path><path d="M184.884 76.7661L174.32 14.0923L175.17 13.7342L173.894 13.002L173.895 13.0095C173.648 12.8451 173.298 12.8545 172.911 13.0772L88.4847 61.8206C87.7911 62.221 87.2667 63.2473 87.3888 63.9654L98.0364 127.137C98.0919 127.466 98.2544 127.684 98.4809 127.78L99.7291 128.502L99.9433 127.337L99.8719 127.358L183.787 78.9099C184.481 78.5105 185.006 77.4842 184.884 76.7661Z" fill="url(#paint11_linear_2288_202810)"></path><path d="M88.9549 63.5358L87.5667 62.9221C87.4107 63.2774 87.3346 63.6515 87.3882 63.9672L98.0357 127.139C98.0912 127.468 98.2538 127.686 98.4803 127.782L99.7284 128.504L99.9427 127.338L99.8712 127.36L104.117 124.908L88.9549 63.5358Z" fill="url(#paint12_linear_2288_202810)"></path><path d="M185.108 79.6712L100.681 128.416C100.029 128.792 99.4713 128.574 99.3567 127.9L88.7091 64.7276C88.5869 64.0095 89.1123 62.9832 89.805 62.5829L174.232 13.8394C174.884 13.4635 175.441 13.6806 175.556 14.3554L186.203 77.5274C186.326 78.2436 185.801 79.2708 185.108 79.6712Z" fill="#453C9E"></path><path d="M337.812 138.933C336.472 138.933 335.154 138.582 334 137.916L258.173 94.1373C257.483 93.7388 257.07 93.0245 257.07 92.2275C257.07 91.4305 257.483 90.7163 258.173 90.3168L305.657 62.9024C305.795 62.8234 305.961 62.8234 306.098 62.9024L385.516 108.754C386.206 109.153 386.618 109.868 386.618 110.664C386.618 111.461 386.206 112.175 385.517 112.574L341.623 137.916C340.471 138.582 339.152 138.933 337.812 138.933ZM334.442 137.152C336.481 138.33 339.145 138.33 341.184 137.152L385.077 111.81C385.49 111.571 385.739 111.142 385.739 110.663C385.739 110.184 385.49 109.756 385.076 109.516L305.879 63.7924L305.73 63.8779L258.614 91.08C258.201 91.3196 257.953 91.7482 257.953 92.2266C257.953 92.705 258.201 93.1336 258.614 93.3732L334.442 137.152Z" fill="#42E8E0"></path><path d="M252.48 78.0058L257.088 80.4118L303.288 53.7379C304.06 53.2915 305.411 53.3479 306.304 53.8629L385.986 99.8676C386.748 99.4409 390.225 97.7689 390.225 97.7689L388.539 102.164L388.532 102.158C388.463 102.354 388.312 102.536 388.06 102.681L339.402 130.775C338.63 131.221 337.279 131.165 336.386 130.65L254.846 83.5725C254.48 83.361 254.255 83.1044 254.162 82.845L254.155 82.8488L252.48 78.0058Z" fill="url(#paint13_linear_2288_202810)"></path><path d="M253.194 78.7632L336.763 127.011C337.677 127.54 339.061 127.597 339.853 127.139L389.721 98.3478C390.514 97.8901 390.414 97.0912 389.5 96.563L305.931 48.3149C305.016 47.7867 303.633 47.7294 302.841 48.1871L252.972 76.9785C252.18 77.4362 252.28 78.235 253.194 78.7632Z" fill="url(#paint14_linear_2288_202810)"></path><path d="M253.193 78.2812L336.762 126.529C337.676 127.058 339.06 127.115 339.852 126.657L389.72 97.8658C389.98 97.7163 390.134 97.5284 390.204 97.3263C390.329 97.7022 390.179 98.0819 389.72 98.347L339.852 127.138C339.06 127.595 337.676 127.539 336.762 127.011L253.193 78.7624C252.578 78.4071 252.341 77.9306 252.487 77.5171C252.578 77.7896 252.809 78.0594 253.193 78.2812Z" fill="white"></path><path d="M361.967 116.574V115.658C361.967 115.572 361.914 115.531 361.85 115.569L358.617 117.435C358.553 117.473 358.5 117.573 358.5 117.661V118.577C358.5 118.664 358.553 118.704 358.617 118.667L361.85 116.8C361.914 116.762 361.967 116.661 361.967 116.574Z" fill="#2842A2"></path><path d="M357.136 119.365V118.448C357.136 118.362 357.083 118.322 357.019 118.359L353.786 120.226C353.722 120.263 353.668 120.364 353.668 120.451V121.368C353.668 121.454 353.721 121.495 353.786 121.457L357.019 119.59C357.083 119.553 357.136 119.452 357.136 119.365Z" fill="#2842A2"></path><path d="M361.605 104.893L292.16 64.799C291.697 64.532 291.126 64.532 290.664 64.7999L265.934 79.1072C265.579 79.313 265.579 79.8253 265.934 80.0301L335.347 120.105C335.809 120.372 336.379 120.372 336.841 120.105L361.604 105.816C361.961 105.611 361.961 105.098 361.605 104.893Z" fill="#ADB1F2"></path><path d="M361.605 105.817L361.356 105.961L292.159 66.0105C291.696 65.7435 291.125 65.7435 290.663 66.0114L266.183 80.1749L265.935 80.0311C265.579 79.8262 265.579 79.3131 265.934 79.1082L290.663 64.8009C291.125 64.533 291.696 64.533 292.159 64.7999L361.605 104.894C361.96 105.098 361.96 105.611 361.605 105.817Z" fill="#9198DB"></path><path d="M288.809 68.423L352.776 105.354L355.948 104.088L291.49 66.8741L288.809 68.423Z" fill="#24126A"></path><path d="M282.227 72.2191L338.807 104.886L341.49 103.338L284.909 70.6711L282.227 72.2191Z" fill="#24126A"></path><path d="M277.949 74.6919L344.567 113.153L347.249 111.605L280.632 73.1439L277.949 74.6919Z" fill="#24126A"></path><path d="M273.66 77.1645L340.278 115.626L342.96 114.078L276.342 75.6166L273.66 77.1645Z" fill="#24126A"></path><path d="M269.379 79.6373L335.996 118.099L338.679 116.551L272.061 78.0894L269.379 79.6373Z" fill="#24126A"></path><path d="M352.77 105.354L355.452 106.903L358.134 105.354L355.452 103.807L352.77 105.354Z" fill="#24126A"></path><path d="M335.559 103.008L348.882 110.699L351.564 109.151L338.144 101.403L335.559 103.008Z" fill="#24126A"></path><path d="M336.887 86.9249L318.162 76.1138C317.43 75.6909 317.43 75.0057 318.162 74.5837L330.967 67.1909C331.699 66.7679 332.885 66.7679 333.617 67.1909L352.342 78.002C353.074 78.4249 353.074 79.1091 352.342 79.532L339.537 86.9249C338.805 87.3478 337.619 87.3478 336.887 86.9249Z" fill="url(#paint15_linear_2288_202810)"></path><path d="M352.342 78.6279L333.618 67.8168C332.885 67.3939 331.699 67.3939 330.967 67.8168L318.163 75.2097C317.937 75.3403 317.79 75.4963 317.703 75.6617C317.51 75.2924 317.657 74.876 318.163 74.5837L330.967 67.1909C331.699 66.7679 332.885 66.7679 333.618 67.1909L352.342 78.002C352.848 78.2942 352.995 78.7106 352.802 79.0799C352.716 78.9155 352.568 78.7585 352.342 78.6279Z" fill="#9198DB"></path><path d="M252.603 76.7661L263.167 14.0923L262.318 13.7342L263.594 13.002L263.592 13.0095C263.839 12.8451 264.19 12.8545 264.576 13.0772L349.003 61.8206C349.696 62.221 350.221 63.2473 350.099 63.9654L339.451 127.137C339.396 127.466 339.233 127.684 339.007 127.78H339.008L337.758 128.502L337.544 127.337L337.616 127.358L253.7 78.9099C253.007 78.5105 252.482 77.4842 252.603 76.7661Z" fill="url(#paint16_linear_2288_202810)"></path><path d="M348.534 63.5358L349.922 62.9221C350.078 63.2774 350.154 63.6515 350.1 63.9672L339.453 127.139C339.397 127.468 339.235 127.686 339.008 127.782H339.009L337.76 128.504L337.546 127.338L337.617 127.36L333.371 124.908L348.534 63.5358Z" fill="url(#paint17_linear_2288_202810)"></path><path d="M252.379 79.6712L336.806 128.416C337.457 128.792 338.015 128.574 338.13 127.9L348.777 64.7276C348.9 64.0095 348.374 62.9832 347.682 62.5829L263.255 13.8394C262.603 13.4635 262.045 13.6806 261.931 14.3554L251.283 77.5274C251.162 78.2436 251.686 79.2708 252.379 79.6712Z" fill="#453C9E"></path><path d="M218.752 154.048L140.141 108.662L218.751 63.2764L297.362 108.663L218.752 154.048Z" fill="#BCBEFF"></path><path d="M218.748 141.655L161.602 108.662L218.746 75.6693L275.893 108.663L218.748 141.655Z" fill="#453C9E"></path><path d="M218.746 77.9033L273.958 109.78L275.893 108.663L218.746 75.6693L161.602 108.662L163.537 109.779L218.746 77.9033Z" fill="white"></path><path d="M297.36 108.663V134.389L218.75 179.774V154.048L297.36 108.663Z" fill="url(#paint18_linear_2288_202810)"></path><path d="M140.141 108.662V134.388L218.752 179.775V154.048L140.141 108.662Z" fill="#24126A"></path><g opacity="0.51"><path d="M145.465 120.22V128.322L213.426 167.559V159.458L145.465 120.22Z" fill="#453C9E"></path></g><path d="M218.752 152.573L141.418 107.925L140.141 108.662L218.752 154.049L297.362 108.663L296.085 107.926L218.752 152.573Z" fill="white"></path><path d="M285.57 126.691V131.296L230.543 163.066V158.461L285.57 126.691Z" fill="#453C9E"></path><path opacity="0.51" d="M140.141 108.662V134.388L218.752 179.775V154.048L140.141 108.662Z" fill="#453C9E"></path><path d="M195.803 152.681L181.567 144.462L181.566 146.16L195.801 154.38L195.803 152.681Z" fill="#42E8E0"></path><path d="M179.515 143.295L175.658 141.068L175.656 142.765L179.513 144.993L179.515 143.295Z" fill="#42E8E0"></path><path d="M161.448 132.866L153.557 128.309L153.555 130.007L161.446 134.563L161.448 132.866Z" fill="#42E8E0"></path><path d="M168.646 137.024L162.939 133.729L162.938 135.426L168.644 138.721L168.646 137.024Z" fill="#42E8E0"></path><path d="M173.999 140.114L170.142 137.886L170.141 139.584L173.997 141.811L173.999 140.114Z" fill="#42E8E0"></path><path d="M218.84 86.9973L216.344 85.5565L218.84 84.1157L221.336 85.5565L218.84 86.9973Z" fill="#42E8E0"></path><path opacity="0.1" d="M223.832 89.8798L221.336 88.439L223.832 86.9973L226.328 88.439L223.832 89.8798Z" fill="#42E8E0"></path><path opacity="0.4" d="M228.824 92.7624L226.328 91.3216L228.824 89.8799L231.321 91.3216L228.824 92.7624Z" fill="#42E8E0"></path><path d="M233.82 95.6448L231.324 94.2041L233.82 92.7623L236.317 94.2041L233.82 95.6448Z" fill="#42E8E0"></path><path opacity="0.4" d="M238.813 98.5273L236.316 97.0865L238.813 95.6448L241.309 97.0865L238.813 98.5273Z" fill="#42E8E0"></path><path d="M243.805 101.41L241.309 99.9681L243.805 98.5273L246.301 99.9691L243.805 101.41Z" fill="#42E8E0"></path><path d="M248.797 104.292L246.301 102.851L248.797 101.41L251.293 102.851L248.797 104.292Z" fill="#42E8E0"></path><path d="M253.789 107.175L251.293 105.733L253.789 104.292L256.285 105.733L253.789 107.175Z" fill="#42E8E0"></path><path opacity="0.1" d="M258.777 110.057L256.281 108.616L258.777 107.175L261.274 108.616L258.777 110.057Z" fill="#42E8E0"></path><path d="M213.824 89.892L211.328 88.4503L213.824 87.0095L216.321 88.4503L213.824 89.892Z" fill="#42E8E0"></path><path d="M218.817 92.7746L216.32 91.3329L218.817 89.8921L221.313 91.3329L218.817 92.7746Z" fill="#42E8E0"></path><path d="M223.809 95.6571L221.312 94.2153L223.809 92.7745L226.305 94.2153L223.809 95.6571Z" fill="#42E8E0"></path><path d="M228.805 98.5387L226.309 97.0979L228.805 95.6571L231.301 97.0979L228.805 98.5387Z" fill="#42E8E0"></path><path d="M233.797 101.421L231.301 99.9803L233.797 98.5386L236.293 99.9803L233.797 101.421Z" fill="#42E8E0"></path><path d="M238.789 104.304L236.293 102.863L238.789 101.421L241.285 102.863L238.789 104.304Z" fill="#42E8E0"></path><path d="M243.781 107.186L241.285 105.745L243.781 104.304L246.278 105.745L243.781 107.186Z" fill="#42E8E0"></path><path d="M248.774 110.069L246.277 108.628L248.774 107.186L251.27 108.628L248.774 110.069Z" fill="#42E8E0"></path><path d="M253.762 112.951L251.266 111.51L253.762 110.069L256.258 111.51L253.762 112.951Z" fill="#42E8E0"></path><path d="M208.809 92.7857L206.312 91.3449L208.809 89.9032L211.305 91.3449L208.809 92.7857Z" fill="#42E8E0"></path><path d="M213.801 95.6683L211.305 94.2266L213.801 92.7858L216.297 94.2266L213.801 95.6683Z" fill="#42E8E0"></path><path d="M218.793 98.5507L216.297 97.109L218.793 95.6682L221.289 97.109L218.793 98.5507Z" fill="#42E8E0"></path><path opacity="0.1" d="M223.789 101.433L221.293 99.9916L223.789 98.5508L226.285 99.9916L223.789 101.433Z" fill="#42E8E0"></path><path opacity="0.4" d="M228.781 104.316L226.285 102.874L228.781 101.433L231.278 102.874L228.781 104.316Z" fill="#42E8E0"></path><path opacity="0.4" d="M233.774 107.197L231.277 105.757L233.774 104.316L236.27 105.757L233.774 107.197Z" fill="#42E8E0"></path><path d="M238.766 110.08L236.27 108.639L238.766 107.198L241.262 108.639L238.766 110.08Z" fill="#42E8E0"></path><path d="M243.758 112.962L241.262 111.522L243.758 110.08L246.254 111.522L243.758 112.962Z" fill="#42E8E0"></path><path d="M248.746 115.845L246.25 114.404L248.746 112.962L251.242 114.404L248.746 115.845Z" fill="#42E8E0"></path><path opacity="0.4" d="M203.797 95.6796L201.301 94.2389L203.797 92.7971L206.293 94.2389L203.797 95.6796Z" fill="#42E8E0"></path><path opacity="0.4" d="M208.789 98.5621L206.293 97.1213L208.789 95.6796L211.285 97.1213L208.789 98.5621Z" fill="#42E8E0"></path><path opacity="0.1" d="M213.781 101.445L211.285 100.004L213.781 98.5621L216.278 100.004L213.781 101.445Z" fill="#42E8E0"></path><path d="M218.777 104.327L216.281 102.886L218.777 101.445L221.274 102.886L218.777 104.327Z" fill="#42E8E0"></path><path d="M223.77 107.21L221.273 105.768L223.77 104.327L226.266 105.768L223.77 107.21Z" fill="#42E8E0"></path><path d="M228.762 110.092L226.266 108.65L228.762 107.21L231.258 108.65L228.762 110.092Z" fill="#42E8E0"></path><path opacity="0.4" d="M233.754 112.975L231.258 111.533L233.754 110.092L236.25 111.533L233.754 112.975Z" fill="#42E8E0"></path><path d="M238.746 115.857L236.25 114.416L238.746 112.975L241.242 114.416L238.746 115.857Z" fill="#42E8E0"></path><path d="M243.734 118.739L241.238 117.298L243.734 115.857L246.231 117.298L243.734 118.739Z" fill="#42E8E0"></path><path d="M198.789 98.5744L196.293 97.1327L198.789 95.6919L201.285 97.1327L198.789 98.5744Z" fill="#42E8E0"></path><path d="M203.781 101.456L201.285 100.015L203.781 98.5745L206.278 100.015L203.781 101.456Z" fill="#42E8E0"></path><path d="M208.774 104.338L206.277 102.898L208.774 101.457L211.27 102.898L208.774 104.338Z" fill="#42E8E0"></path><path d="M213.77 107.221L211.273 105.78L213.77 104.339L216.266 105.78L213.77 107.221Z" fill="#42E8E0"></path><path d="M218.762 110.103L216.266 108.663L218.762 107.221L221.258 108.663L218.762 110.103Z" fill="#42E8E0"></path><path d="M223.754 112.986L221.258 111.545L223.754 110.104L226.25 111.545L223.754 112.986Z" fill="#42E8E0"></path><path d="M228.746 115.869L226.25 114.428L228.746 112.986L231.242 114.428L228.746 115.869Z" fill="#42E8E0"></path><path d="M233.738 118.751L231.242 117.309L233.738 115.869L236.235 117.309L233.738 118.751Z" fill="#42E8E0"></path><path d="M238.727 121.634L236.23 120.192L238.727 118.751L241.223 120.192L238.727 121.634Z" fill="#42E8E0"></path><path d="M193.774 101.468L191.277 100.027L193.774 98.5856L196.27 100.027L193.774 101.468Z" fill="#42E8E0"></path><path d="M198.766 104.351L196.27 102.909L198.766 101.468L201.262 102.909L198.766 104.351Z" fill="#42E8E0"></path><path opacity="0.4" d="M203.758 107.233L201.262 105.791L203.758 104.351L206.254 105.791L203.758 107.233Z" fill="#42E8E0"></path><path d="M208.754 110.116L206.258 108.674L208.754 107.233L211.25 108.674L208.754 110.116Z" fill="#42E8E0"></path><path opacity="0.1" d="M213.746 112.997L211.25 111.556L213.746 110.116L216.242 111.556L213.746 112.997Z" fill="#42E8E0"></path><path d="M218.738 115.88L216.242 114.439L218.738 112.997L221.235 114.439L218.738 115.88Z" fill="#42E8E0"></path><path d="M223.731 118.762L221.234 117.322L223.731 115.88L226.227 117.322L223.731 118.762Z" fill="#42E8E0"></path><path d="M228.723 121.645L226.227 120.204L228.723 118.762L231.219 120.204L228.723 121.645Z" fill="#42E8E0"></path><path d="M233.711 124.527L231.215 123.087L233.711 121.645L236.207 123.087L233.711 124.527Z" fill="#42E8E0"></path><path d="M188.762 104.362L186.266 102.921L188.762 101.479L191.258 102.921L188.762 104.362Z" fill="#42E8E0"></path><path d="M193.754 107.244L191.258 105.804L193.754 104.362L196.25 105.804L193.754 107.244Z" fill="#42E8E0"></path><path opacity="0.4" d="M198.746 110.127L196.25 108.685L198.746 107.244L201.242 108.686L198.746 110.127Z" fill="#42E8E0"></path><path d="M203.742 113.009L201.246 111.568L203.742 110.127L206.239 111.568L203.742 113.009Z" fill="#42E8E0"></path><path d="M208.735 115.892L206.238 114.45L208.735 113.009L211.231 114.45L208.735 115.892Z" fill="#42E8E0"></path><path opacity="0.1" d="M213.727 118.774L211.23 117.333L213.727 115.892L216.223 117.333L213.727 118.774Z" fill="#42E8E0"></path><path opacity="0.4" d="M218.719 121.657L216.223 120.215L218.719 118.774L221.215 120.215L218.719 121.657Z" fill="#42E8E0"></path><path d="M223.711 124.539L221.215 123.098L223.711 121.657L226.207 123.098L223.711 124.539Z" fill="#42E8E0"></path><path opacity="0.1" d="M228.699 127.421L226.203 125.98L228.699 124.539L231.196 125.98L228.699 127.421Z" fill="#42E8E0"></path><path d="M183.754 107.257L181.258 105.815L183.754 104.374L186.25 105.815L183.754 107.257Z" fill="#42E8E0"></path><path opacity="0.4" d="M188.746 110.138L186.25 108.697L188.746 107.257L191.242 108.697L188.746 110.138Z" fill="#42E8E0"></path><path d="M193.738 113.021L191.242 111.58L193.738 110.138L196.235 111.58L193.738 113.021Z" fill="#42E8E0"></path><path d="M198.735 115.903L196.238 114.462L198.735 113.021L201.231 114.462L198.735 115.903Z" fill="#42E8E0"></path><path d="M203.727 118.786L201.23 117.345L203.727 115.903L206.223 117.345L203.727 118.786Z" fill="#42E8E0"></path><path d="M208.719 121.668L206.223 120.227L208.719 118.786L211.215 120.227L208.719 121.668Z" fill="#42E8E0"></path><path d="M213.711 124.551L211.215 123.109L213.711 121.668L216.207 123.109L213.711 124.551Z" fill="#42E8E0"></path><path opacity="0.4" d="M218.703 127.433L216.207 125.992L218.703 124.551L221.2 125.992L218.703 127.433Z" fill="#42E8E0"></path><path d="M223.692 130.316L221.195 128.874L223.692 127.433L226.188 128.874L223.692 130.316Z" fill="#42E8E0"></path><path d="M178.738 110.15L176.242 108.709L178.738 107.268L181.235 108.709L178.738 110.15Z" fill="#42E8E0"></path><path opacity="0.1" d="M183.731 113.033L181.234 111.591L183.731 110.151L186.227 111.591L183.731 113.033Z" fill="#42E8E0"></path><path d="M188.723 115.915L186.227 114.474L188.723 113.033L191.219 114.474L188.723 115.915Z" fill="#42E8E0"></path><path d="M193.719 118.797L191.223 117.356L193.719 115.916L196.215 117.356L193.719 118.797Z" fill="#42E8E0"></path><path d="M198.711 121.68L196.215 120.239L198.711 118.798L201.207 120.239L198.711 121.68Z" fill="#42E8E0"></path><path d="M203.703 124.562L201.207 123.121L203.703 121.68L206.2 123.121L203.703 124.562Z" fill="#42E8E0"></path><path opacity="0.4" d="M208.695 127.445L206.199 126.004L208.695 124.562L211.192 126.004L208.695 127.445Z" fill="#42E8E0"></path><path d="M213.688 130.327L211.191 128.885L213.688 127.445L216.184 128.886L213.688 130.327Z" fill="#42E8E0"></path><path d="M218.676 133.21L216.18 131.768L218.676 130.327L221.172 131.768L218.676 133.21Z" fill="#42E8E0"></path><path d="M218.752 109.505L140.141 64.1174L218.751 18.733L297.362 64.1193L218.752 109.505Z" fill="#BCBEFF"></path><path d="M218.748 97.1118L161.602 64.1184L218.746 31.125L275.893 64.1194L218.748 97.1118Z" fill="#453C9E"></path><path d="M218.746 33.36L273.958 65.2368L275.893 64.1194L218.746 31.125L161.602 64.1184L163.537 65.235L218.746 33.36Z" fill="white"></path><path d="M297.36 64.1194V89.8459L218.75 135.231V109.505L297.36 64.1194Z" fill="url(#paint19_linear_2288_202810)"></path><path d="M140.141 64.1174V89.8439L218.752 135.231V109.505L140.141 64.1174Z" fill="#24126A"></path><g opacity="0.51"><path d="M145.465 75.6766V83.7781L213.426 123.016V114.914L145.465 75.6766Z" fill="#453C9E"></path></g><path d="M218.752 108.03L141.418 63.3806L140.141 64.1175L218.752 109.505L297.362 64.1193L296.085 63.3816L218.752 108.03Z" fill="white"></path><path d="M285.57 82.1466V86.7519L230.543 118.522V113.916L285.57 82.1466Z" fill="#453C9E"></path><path opacity="0.51" d="M140.141 64.1174V89.8439L218.752 135.231V109.505L140.141 64.1174Z" fill="#453C9E"></path><path d="M195.803 108.138L181.567 99.9182L181.566 101.616L195.801 109.835L195.803 108.138Z" fill="#42E8E0"></path><path d="M179.515 98.751L175.658 96.5236L175.656 98.2219L179.513 100.448L179.515 98.751Z" fill="#42E8E0"></path><path d="M161.448 88.3214L153.557 83.765L153.555 85.4624L161.446 90.0188L161.448 88.3214Z" fill="#42E8E0"></path><path d="M168.646 92.4793L162.939 89.1842L162.938 90.8825L168.644 94.1776L168.646 92.4793Z" fill="#42E8E0"></path><path d="M173.999 95.5695L170.142 93.343L170.141 95.0404L173.997 97.2669L173.999 95.5695Z" fill="#42E8E0"></path><path d="M218.84 42.454L216.344 41.0123L218.84 39.5715L221.336 41.0123L218.84 42.454Z" fill="#42E8E0"></path><path opacity="0.1" d="M223.832 45.3366L221.336 43.8949L223.832 42.4541L226.328 43.8949L223.832 45.3366Z" fill="#42E8E0"></path><path opacity="0.4" d="M228.824 48.2191L226.328 46.7773L228.824 45.3365L231.321 46.7773L228.824 48.2191Z" fill="#42E8E0"></path><path d="M233.82 51.1015L231.324 49.6598L233.82 48.219L236.317 49.6598L233.82 51.1015Z" fill="#42E8E0"></path><path opacity="0.4" d="M238.813 53.9832L236.316 52.5424L238.813 51.1016L241.309 52.5424L238.813 53.9832Z" fill="#42E8E0"></path><path d="M243.805 56.8657L241.309 55.4249L243.805 53.9832L246.301 55.4249L243.805 56.8657Z" fill="#42E8E0"></path><path d="M248.797 59.7482L246.301 58.3075L248.797 56.8657L251.293 58.3075L248.797 59.7482Z" fill="#42E8E0"></path><path d="M253.789 62.6308L251.293 61.19L253.789 59.7483L256.285 61.19L253.789 62.6308Z" fill="#42E8E0"></path><path opacity="0.1" d="M258.777 65.5133L256.281 64.0725L258.777 62.6307L261.274 64.0725L258.777 65.5133Z" fill="#42E8E0"></path><path d="M213.824 45.3479L211.328 43.9071L213.824 42.4653L216.321 43.9071L213.824 45.3479Z" fill="#42E8E0"></path><path d="M218.817 48.2304L216.32 46.7896L218.817 45.3479L221.313 46.7896L218.817 48.2304Z" fill="#42E8E0"></path><path d="M223.809 51.1129L221.312 49.6711L223.809 48.2303L226.305 49.6721L223.809 51.1129Z" fill="#42E8E0"></path><path d="M228.805 53.9954L226.309 52.5537L228.805 51.1129L231.301 52.5537L228.805 53.9954Z" fill="#42E8E0"></path><path d="M233.797 56.8779L231.301 55.4361L233.797 53.9954L236.293 55.4361L233.797 56.8779Z" fill="#42E8E0"></path><path d="M238.789 59.7604L236.293 58.3187L238.789 56.8779L241.285 58.3187L238.789 59.7604Z" fill="#42E8E0"></path><path d="M243.781 62.6429L241.285 61.2012L243.781 59.7604L246.278 61.2012L243.781 62.6429Z" fill="#42E8E0"></path><path d="M248.774 65.5245L246.277 64.0837L248.774 62.6429L251.27 64.0837L248.774 65.5245Z" fill="#42E8E0"></path><path d="M253.762 68.4071L251.266 66.9663L253.762 65.5245L256.258 66.9663L253.762 68.4071Z" fill="#42E8E0"></path><path d="M208.809 48.2425L206.312 46.8008L208.809 45.36L211.305 46.8008L208.809 48.2425Z" fill="#42E8E0"></path><path d="M213.801 51.1241L211.305 49.6833L213.801 48.2426L216.297 49.6833L213.801 51.1241Z" fill="#42E8E0"></path><path d="M218.793 54.0067L216.297 52.5659L218.793 51.1241L221.289 52.5659L218.793 54.0067Z" fill="#42E8E0"></path><path opacity="0.1" d="M223.789 56.8891L221.293 55.4483L223.789 54.0066L226.285 55.4483L223.789 56.8891Z" fill="#42E8E0"></path><path opacity="0.4" d="M228.781 59.7716L226.285 58.3308L228.781 56.889L231.278 58.3308L228.781 59.7716Z" fill="#42E8E0"></path><path opacity="0.4" d="M233.774 62.6541L231.277 61.2124L233.774 59.7716L236.27 61.2124L233.774 62.6541Z" fill="#42E8E0"></path><path d="M238.766 65.5367L236.27 64.095L238.766 62.6542L241.262 64.095L238.766 65.5367Z" fill="#42E8E0"></path><path d="M243.758 68.4193L241.262 66.9775L243.758 65.5367L246.254 66.9775L243.758 68.4193Z" fill="#42E8E0"></path><path d="M248.746 71.3017L246.25 69.86L248.746 68.4192L251.242 69.86L248.746 71.3017Z" fill="#42E8E0"></path><path opacity="0.4" d="M203.797 51.1364L201.301 49.6947L203.797 48.2539L206.293 49.6947L203.797 51.1364Z" fill="#42E8E0"></path><path opacity="0.4" d="M208.789 54.019L206.293 52.5773L208.789 51.1365L211.285 52.5773L208.789 54.019Z" fill="#42E8E0"></path><path opacity="0.1" d="M213.781 56.9016L211.285 55.4598L213.781 54.019L216.278 55.4598L213.781 56.9016Z" fill="#42E8E0"></path><path d="M218.777 59.7831L216.281 58.3423L218.777 56.9015L221.274 58.3423L218.777 59.7831Z" fill="#42E8E0"></path><path d="M223.77 62.6656L221.273 61.2248L223.77 59.7831L226.266 61.2248L223.77 62.6656Z" fill="#42E8E0"></path><path d="M228.762 65.548L226.266 64.1073L228.762 62.6655L231.258 64.1073L228.762 65.548Z" fill="#42E8E0"></path><path opacity="0.4" d="M233.754 68.4306L231.258 66.9898L233.754 65.5481L236.25 66.9898L233.754 68.4306Z" fill="#42E8E0"></path><path d="M238.746 71.3132L236.25 69.8724L238.746 68.4307L241.242 69.8724L238.746 71.3132Z" fill="#42E8E0"></path><path d="M243.734 74.1956L241.238 72.7539L243.734 71.3131L246.231 72.7539L243.734 74.1956Z" fill="#42E8E0"></path><path d="M198.789 54.0302L196.293 52.5894L198.789 51.1477L201.285 52.5894L198.789 54.0302Z" fill="#42E8E0"></path><path d="M203.781 56.9128L201.285 55.472L203.781 54.0303L206.278 55.472L203.781 56.9128Z" fill="#42E8E0"></path><path d="M208.774 59.7952L206.277 58.3535L208.774 56.9127L211.27 58.3545L208.774 59.7952Z" fill="#42E8E0"></path><path d="M213.77 62.6778L211.273 61.2361L213.77 59.7953L216.266 61.2361L213.77 62.6778Z" fill="#42E8E0"></path><path d="M218.762 65.5603L216.266 64.1185L218.762 62.6777L221.258 64.1185L218.762 65.5603Z" fill="#42E8E0"></path><path d="M223.754 68.4419L221.258 67.0011L223.754 65.5603L226.25 67.0011L223.754 68.4419Z" fill="#42E8E0"></path><path d="M228.746 71.3244L226.25 69.8836L228.746 68.4419L231.242 69.8836L228.746 71.3244Z" fill="#42E8E0"></path><path d="M233.738 74.207L231.242 72.7662L233.738 71.3245L236.235 72.7662L233.738 74.207Z" fill="#42E8E0"></path><path d="M238.727 77.0894L236.23 75.6486L238.727 74.2069L241.223 75.6486L238.727 77.0894Z" fill="#42E8E0"></path><path d="M193.774 56.9239L191.277 55.4832L193.774 54.0424L196.27 55.4832L193.774 56.9239Z" fill="#42E8E0"></path><path d="M198.766 59.8065L196.27 58.3657L198.766 56.924L201.262 58.3657L198.766 59.8065Z" fill="#42E8E0"></path><path opacity="0.4" d="M203.758 62.689L201.262 61.2482L203.758 59.8065L206.254 61.2482L203.758 62.689Z" fill="#42E8E0"></path><path d="M208.754 65.5715L206.258 64.1307L208.754 62.689L211.25 64.1307L208.754 65.5715Z" fill="#42E8E0"></path><path opacity="0.1" d="M213.746 68.4539L211.25 67.0132L213.746 65.5714L216.242 67.0132L213.746 68.4539Z" fill="#42E8E0"></path><path d="M218.738 71.3365L216.242 69.8948L218.738 68.454L221.235 69.8948L218.738 71.3365Z" fill="#42E8E0"></path><path d="M223.731 74.2191L221.234 72.7773L223.731 71.3365L226.227 72.7773L223.731 74.2191Z" fill="#42E8E0"></path><path d="M228.723 77.1007L226.227 75.6599L228.723 74.2191L231.219 75.6599L228.723 77.1007Z" fill="#42E8E0"></path><path d="M233.711 79.9831L231.215 78.5424L233.711 77.1016L236.207 78.5424L233.711 79.9831Z" fill="#42E8E0"></path><path d="M188.762 59.8187L186.266 58.3769L188.762 56.9362L191.258 58.3769L188.762 59.8187Z" fill="#42E8E0"></path><path d="M193.754 62.7012L191.258 61.2595L193.754 59.8187L196.25 61.2595L193.754 62.7012Z" fill="#42E8E0"></path><path opacity="0.4" d="M198.746 65.5827L196.25 64.142L198.746 62.7012L201.242 64.142L198.746 65.5827Z" fill="#42E8E0"></path><path d="M203.742 68.4653L201.246 67.0245L203.742 65.5837L206.239 67.0245L203.742 68.4653Z" fill="#42E8E0"></path><path d="M208.735 71.3477L206.238 69.9069L208.735 68.4652L211.231 69.9069L208.735 71.3477Z" fill="#42E8E0"></path><path opacity="0.1" d="M213.727 74.2303L211.23 72.7895L213.727 71.3478L216.223 72.7895L213.727 74.2303Z" fill="#42E8E0"></path><path opacity="0.4" d="M218.719 77.1129L216.223 75.6711L218.719 74.2303L221.215 75.6711L218.719 77.1129Z" fill="#42E8E0"></path><path d="M223.711 79.9954L221.215 78.5537L223.711 77.1129L226.207 78.5537L223.711 79.9954Z" fill="#42E8E0"></path><path opacity="0.1" d="M228.699 82.8779L226.203 81.4362L228.699 79.9954L231.196 81.4362L228.699 82.8779Z" fill="#42E8E0"></path><path d="M183.754 62.7125L181.258 61.2717L183.754 59.83L186.25 61.2717L183.754 62.7125Z" fill="#42E8E0"></path><path opacity="0.4" d="M188.746 65.595L186.25 64.1533L188.746 62.7125L191.242 64.1543L188.746 65.595Z" fill="#42E8E0"></path><path d="M193.738 68.4775L191.242 67.0358L193.738 65.595L196.235 67.0358L193.738 68.4775Z" fill="#42E8E0"></path><path d="M198.735 71.3601L196.238 69.9183L198.735 68.4775L201.231 69.9183L198.735 71.3601Z" fill="#42E8E0"></path><path d="M203.727 74.2426L201.23 72.8009L203.727 71.3601L206.223 72.8009L203.727 74.2426Z" fill="#42E8E0"></path><path d="M208.719 77.1241L206.223 75.6833L208.719 74.2426L211.215 75.6833L208.719 77.1241Z" fill="#42E8E0"></path><path d="M213.711 80.0067L211.215 78.5659L213.711 77.1241L216.207 78.5659L213.711 80.0067Z" fill="#42E8E0"></path><path opacity="0.4" d="M218.703 82.8892L216.207 81.4484L218.703 80.0067L221.2 81.4484L218.703 82.8892Z" fill="#42E8E0"></path><path d="M223.692 85.7717L221.195 84.3299L223.692 82.8892L226.188 84.3309L223.692 85.7717Z" fill="#42E8E0"></path><path d="M178.738 65.6063L176.242 64.1655L178.738 62.7238L181.235 64.1655L178.738 65.6063Z" fill="#42E8E0"></path><path opacity="0.1" d="M183.731 68.4888L181.234 67.0481L183.731 65.6063L186.227 67.0481L183.731 68.4888Z" fill="#42E8E0"></path><path d="M188.723 71.3713L186.227 69.9305L188.723 68.4888L191.219 69.9305L188.723 71.3713Z" fill="#42E8E0"></path><path d="M193.719 74.2539L191.223 72.8131L193.719 71.3713L196.215 72.8131L193.719 74.2539Z" fill="#42E8E0"></path><path d="M198.711 77.1364L196.215 75.6947L198.711 74.2539L201.207 75.6947L198.711 77.1364Z" fill="#42E8E0"></path><path d="M203.703 80.0189L201.207 78.5771L203.703 77.1364L206.2 78.5771L203.703 80.0189Z" fill="#42E8E0"></path><path opacity="0.4" d="M208.695 82.9013L206.199 81.4596L208.695 80.0188L211.192 81.4596L208.695 82.9013Z" fill="#42E8E0"></path><path d="M213.688 85.7829L211.191 84.3421L213.688 82.9014L216.184 84.3421L213.688 85.7829Z" fill="#42E8E0"></path><path d="M218.676 88.6655L216.18 87.2247L218.676 85.783L221.172 87.2247L218.676 88.6655Z" fill="#42E8E0"></path><path d="M303.365 247.973C302.003 247.973 300.663 247.615 299.49 246.939L254.821 221.148C254.12 220.743 253.703 220.019 253.703 219.211C253.703 218.404 254.12 217.679 254.821 217.275L335.643 170.613C335.779 170.534 335.947 170.535 336.083 170.613L336.458 170.828L384.408 198.512C385.107 198.916 385.525 199.641 385.525 200.449C385.525 201.258 385.107 201.982 384.408 202.386L307.24 246.94C306.066 247.615 304.726 247.973 303.365 247.973ZM335.864 171.503L255.26 218.038C254.837 218.284 254.583 218.723 254.583 219.212C254.583 219.702 254.837 220.141 255.26 220.387L299.93 246.176C302.008 247.375 304.719 247.376 306.799 246.176L383.966 201.623C384.389 201.379 384.643 200.94 384.643 200.449C384.643 199.958 384.389 199.52 383.966 199.275L335.864 171.503Z" fill="#42E8E0"></path><path d="M335.956 152.583L325.205 88.8014L326.069 88.4377L324.771 87.6933L324.772 87.7008C324.521 87.5326 324.164 87.5429 323.772 87.7704L237.852 137.376C237.147 137.783 236.613 138.828 236.737 139.558L247.573 203.847C247.63 204.182 247.795 204.405 248.026 204.502H248.025L249.296 205.236L249.514 204.049L249.442 204.071L334.841 154.766C335.545 154.359 336.08 153.315 335.956 152.583Z" fill="url(#paint20_linear_2288_202810)"></path><path d="M238.33 139.119L236.918 138.494C236.759 138.856 236.682 139.236 236.736 139.557L247.573 203.846C247.629 204.181 247.794 204.404 248.026 204.501H248.025L249.295 205.235L249.513 204.049L249.441 204.07L253.762 201.575L238.33 139.119Z" fill="url(#paint21_linear_2288_202810)"></path><path d="M336.192 155.539L250.272 205.144C249.609 205.528 249.041 205.306 248.925 204.619L238.088 140.33C237.964 139.599 238.498 138.554 239.204 138.147L325.123 88.542C325.787 88.1595 326.354 88.3803 326.471 89.0673L337.307 153.357C337.431 154.087 336.897 155.132 336.192 155.539Z" fill="#24126A"></path><g opacity="0.51"><path d="M323.995 92.6464L241.176 140.462L251.446 201.009L334.211 153.225L323.995 92.6464Z" fill="#453C9E"></path></g><path d="M390.199 185.976L385.51 188.425L338.493 161.279C337.707 160.825 336.333 160.881 335.425 161.406L254.333 208.223C253.557 207.789 250.02 206.088 250.02 206.088L251.736 210.56L251.742 210.554C251.814 210.753 251.966 210.939 252.222 211.087L301.74 239.676C302.527 240.13 303.901 240.074 304.809 239.55L387.791 191.64C388.164 191.424 388.393 191.163 388.488 190.899L388.494 190.903L390.199 185.976Z" fill="url(#paint22_linear_2288_202810)"></path><path d="M389.473 186.747L304.427 235.848C303.497 236.386 302.088 236.444 301.283 235.979L250.533 206.678C249.726 206.213 249.828 205.4 250.758 204.862L335.804 155.761C336.735 155.223 338.143 155.165 338.95 155.63L389.7 184.931C390.505 185.396 390.405 186.21 389.473 186.747Z" fill="url(#paint23_linear_2288_202810)"></path><path d="M389.474 186.257L304.428 235.359C303.498 235.896 302.089 235.955 301.283 235.489L250.533 206.189C250.269 206.036 250.112 205.845 250.039 205.64C249.911 206.022 250.065 206.409 250.533 206.678L301.283 235.979C302.089 236.444 303.497 236.386 304.428 235.848L389.474 186.747C390.1 186.385 390.342 185.901 390.193 185.479C390.101 185.756 389.865 186.032 389.474 186.257Z" fill="white"></path><path d="M278.777 225.227V224.295C278.777 224.207 278.831 224.166 278.898 224.204L282.187 226.103C282.253 226.142 282.307 226.244 282.307 226.333V227.265C282.307 227.353 282.254 227.394 282.187 227.356L278.898 225.457C278.831 225.418 278.777 225.316 278.777 225.227Z" fill="#2842A2"></path><path d="M283.699 228.067V227.134C283.699 227.046 283.753 227.005 283.82 227.043L287.109 228.942C287.176 228.981 287.229 229.083 287.229 229.172V230.104C287.229 230.192 287.176 230.233 287.109 230.195L283.82 228.296C283.753 228.258 283.699 228.156 283.699 228.067Z" fill="#2842A2"></path><path d="M263.763 203.934L334.436 163.131C334.907 162.86 335.488 162.86 335.959 163.132L361.125 177.692C361.487 177.901 361.486 178.424 361.125 178.632L290.485 219.416C290.014 219.688 289.434 219.688 288.965 219.416L263.764 204.874C263.402 204.665 263.402 204.143 263.763 203.934Z" fill="#ADB1F2"></path><path d="M263.764 204.874L264.016 205.019L334.437 164.363C334.907 164.091 335.488 164.091 335.959 164.363L360.873 178.778L361.125 178.632C361.487 178.424 361.487 177.902 361.125 177.692L335.959 163.132C335.488 162.86 334.907 162.86 334.437 163.131L263.764 203.934C263.402 204.143 263.402 204.665 263.764 204.874Z" fill="#9198DB"></path><path d="M337.862 166.819L276.472 202.263L273.742 200.687L335.132 165.243L337.862 166.819Z" fill="#24126A"></path><path d="M344.552 170.683L286.972 203.927L284.242 202.351L341.823 169.107L344.552 170.683Z" fill="#24126A"></path><path d="M348.916 173.199L281.12 212.341L278.391 210.765L346.186 171.624L348.916 173.199Z" fill="#24126A"></path><path d="M353.271 175.716L285.475 214.858L282.746 213.282L350.541 174.14L353.271 175.716Z" fill="#24126A"></path><path d="M357.635 178.232L289.839 217.374L287.109 215.798L354.904 176.657L357.635 178.232Z" fill="#24126A"></path><path d="M272.764 204.404L270.035 205.98L267.305 204.404L270.035 202.828L272.764 204.404Z" fill="#24126A"></path><path d="M282.387 206.573L276.722 209.844L273.992 208.268L279.658 204.997L282.387 206.573Z" fill="#24126A"></path><path d="M337.162 213.808L356.219 202.806C356.964 202.376 356.964 201.679 356.219 201.249L343.188 193.725C342.443 193.296 341.236 193.296 340.49 193.725L321.434 204.727C320.689 205.158 320.689 205.854 321.434 206.285L334.465 213.808C335.21 214.238 336.418 214.238 337.162 213.808Z" fill="url(#paint24_linear_2288_202810)"></path><path d="M321.431 205.364L340.487 194.362C341.232 193.933 342.439 193.933 343.184 194.362L356.215 201.886C356.446 202.018 356.596 202.178 356.683 202.347C356.881 201.971 356.73 201.547 356.215 201.25L343.184 193.726C342.44 193.297 341.232 193.297 340.487 193.726L321.431 204.728C320.916 205.025 320.765 205.449 320.963 205.825C321.05 205.657 321.2 205.498 321.431 205.364Z" fill="#9198DB"></path><g opacity="0.11"><mask id="mask0_2288_202810" style="mask-type:luminance" maskUnits="userSpaceOnUse" x="241" y="92" width="94" height="110"><path d="M324.003 92.6466L241.184 140.462L251.454 201.009L334.218 153.226L324.003 92.6466Z" fill="white"></path></mask><g mask="url(#mask0_2288_202810)"><path d="M335.891 155.661L250.845 204.762C249.915 205.3 248.506 205.358 247.701 204.893L196.951 175.592C196.144 175.127 196.246 174.314 197.176 173.776L282.222 124.675C283.154 124.137 284.561 124.079 285.368 124.544L336.118 153.845C336.923 154.31 336.823 155.123 335.891 155.661Z" fill="url(#paint25_linear_2288_202810)"></path><path d="M250.596 164.463L269.652 153.461C270.396 153.031 270.396 152.335 269.652 151.904L256.621 144.381C255.877 143.951 254.669 143.951 253.924 144.381L234.867 155.382C234.123 155.812 234.122 156.509 234.867 156.94L247.898 164.463C248.644 164.894 249.851 164.894 250.596 164.463Z" fill="url(#paint26_linear_2288_202810)"></path><path d="M234.868 156.02L253.924 145.018C254.669 144.587 255.876 144.587 256.621 145.018L269.652 152.541C269.882 152.674 270.032 152.834 270.12 153.001C270.317 152.625 270.167 152.201 269.652 151.904L256.621 144.381C255.877 143.951 254.669 143.951 253.924 144.381L234.868 155.382C234.353 155.679 234.203 156.103 234.4 156.479C234.487 156.312 234.638 156.153 234.868 156.02Z" fill="#9198DB"></path><path d="M226.486 181.657L297.158 140.853C297.629 140.582 298.21 140.582 298.681 140.854L323.847 155.414C324.209 155.623 324.208 156.146 323.847 156.354L253.207 197.138C252.736 197.41 252.157 197.41 251.687 197.138L226.486 182.597C226.125 182.388 226.125 181.867 226.486 181.657Z" fill="#ADB1F2"></path><path d="M226.486 182.597L226.739 182.743L297.159 142.086C297.63 141.814 298.211 141.814 298.682 142.086L323.595 156.501L323.848 156.355C324.21 156.147 324.21 155.625 323.848 155.415L298.682 140.855C298.211 140.583 297.63 140.583 297.159 140.854L226.485 181.657C226.124 181.867 226.125 182.388 226.486 182.597Z" fill="#9198DB"></path><path d="M317.264 154.422L255.695 189.969L258.134 191.377L319.703 155.83L317.264 154.422Z" fill="#24126A"></path><path d="M310.77 150.677L252.25 184.463L254.689 185.871L313.209 152.085L310.77 150.677Z" fill="#24126A"></path><path d="M247.883 186.986L242.418 190.142L244.857 191.55L250.322 188.395L247.883 186.986Z" fill="#24126A"></path><path d="M252.709 191.69L248.902 193.887L251.341 195.295L255.147 193.098L252.709 191.69Z" fill="#24126A"></path><path d="M306.707 148.33L238.352 187.795L240.79 189.203L309.146 149.738L306.707 148.33Z" fill="#24126A"></path><path d="M302.644 145.983L234.289 185.448L236.728 186.856L305.083 147.391L302.644 145.983Z" fill="#24126A"></path><path d="M298.578 143.636L230.223 183.101L232.662 184.509L301.017 145.044L298.578 143.636Z" fill="#24126A"></path></g></g><path d="M272.379 177.925L279.079 174.052L279.276 175.216L272.575 179.088L272.379 177.925Z" fill="#42E8E0"></path><path d="M280.156 173.434L283.808 171.324L284.004 172.488L280.353 174.598L280.156 173.434Z" fill="#42E8E0"></path><path d="M289.488 168.045L292.13 166.519L292.327 167.682L289.685 169.209L289.488 168.045Z" fill="#42E8E0"></path><path d="M287.559 169.159L288.462 168.637L288.658 169.801L287.755 170.322L287.559 169.159Z" fill="#42E8E0"></path><path d="M284.898 170.697L286.538 169.75L286.734 170.913L285.095 171.861L284.898 170.697Z" fill="#42E8E0"></path><path d="M277.68 169.026L280.322 167.499L280.518 168.662L277.876 170.19L277.68 169.026Z" fill="#42E8E0"></path><path d="M271.477 172.609L276.652 169.617L276.849 170.781L271.673 173.772L271.477 172.609Z" fill="#42E8E0"></path><path d="M278.898 153.752L284.073 150.761L284.271 151.924L279.095 154.915L278.898 153.752Z" fill="#42E8E0"></path><path d="M276.234 155.291L277.873 154.344L278.07 155.507L276.431 156.455L276.234 155.291Z" fill="#42E8E0"></path><path d="M279.766 159.075L284.94 156.083L285.138 157.247L279.962 160.239L279.766 159.075Z" fill="#42E8E0"></path><path d="M277.102 160.615L278.741 159.666L278.937 160.83L277.298 161.777L277.102 160.615Z" fill="#42E8E0"></path><path d="M275.08 130.781L265.329 136.416L265.133 135.253L274.884 129.617L275.08 130.781Z" fill="#42E8E0"></path><path d="M278.515 128.795L276.103 130.19L275.906 129.026L278.318 127.631L278.515 128.795Z" fill="#42E8E0"></path><path d="M295.653 127.664L285.903 133.3L285.707 132.136L295.457 126.501L295.653 127.664Z" fill="#42E8E0"></path><path d="M299.086 125.678L296.673 127.073L296.477 125.91L298.889 124.515L299.086 125.678Z" fill="#42E8E0"></path><path d="M268.42 137.547L265.778 139.074L265.582 137.911L268.224 136.383L268.42 137.547Z" fill="#42E8E0"></path><path d="M284.491 134.1L281.849 135.627L281.652 134.463L284.294 132.937L284.491 134.1Z" fill="#42E8E0"></path><path d="M274.618 133.964L269.443 136.956L269.246 135.792L274.422 132.801L274.618 133.964Z" fill="#42E8E0"></path><path d="M277.285 132.426L275.646 133.372L275.449 132.209L277.088 131.261L277.285 132.426Z" fill="#42E8E0"></path><path d="M283.532 128.82L278.357 131.812L278.16 130.648L283.336 127.658L283.532 128.82Z" fill="#42E8E0"></path><path d="M286.191 127.282L284.552 128.229L284.355 127.066L285.995 126.118L286.191 127.282Z" fill="#42E8E0"></path><path d="M284.045 131.441L281.403 132.968L281.207 131.804L283.849 130.277L284.045 131.441Z" fill="#42E8E0"></path><path d="M290.243 127.858L285.068 130.85L284.871 129.686L290.047 126.694L290.243 127.858Z" fill="#42E8E0"></path><path d="M292.903 126.319L291.263 127.266L291.066 126.102L292.706 125.155L292.903 126.319Z" fill="#42E8E0"></path><path d="M271.628 138.608L266.224 141.732L266.027 140.568L271.431 137.444L271.628 138.608Z" fill="#42E8E0"></path><path d="M276.565 135.757L272.657 138.016L272.461 136.852L276.369 134.594L276.565 135.757Z" fill="#42E8E0"></path><path d="M280.233 133.639L277.592 135.165L277.395 134.002L280.036 132.475L280.233 133.639Z" fill="#42E8E0"></path><path d="M305.847 121.782L300.443 124.905L300.246 123.742L305.65 120.618L305.847 121.782Z" fill="#42E8E0"></path><path d="M310.78 118.931L306.872 121.19L306.676 120.026L310.584 117.768L310.78 118.931Z" fill="#42E8E0"></path><path d="M314.451 116.813L311.81 118.339L311.613 117.176L314.254 115.649L314.451 116.813Z" fill="#42E8E0"></path><path d="M303.742 156.9L309.146 153.777L309.343 154.94L303.939 158.064L303.742 156.9Z" fill="#42E8E0"></path><path d="M298.805 159.751L302.713 157.492L302.909 158.656L299.001 160.914L298.805 159.751Z" fill="#42E8E0"></path><path d="M295.141 161.869L297.782 160.343L297.979 161.506L295.337 163.033L295.141 161.869Z" fill="#42E8E0"></path><path d="M301.941 160.866L307.346 157.741L307.542 158.905L302.138 162.029L301.941 160.866Z" fill="#42E8E0"></path><path d="M297.016 163.716L300.924 161.457L301.12 162.62L297.212 164.88L297.016 163.716Z" fill="#42E8E0"></path><path d="M293.344 165.835L295.986 164.307L296.182 165.471L293.54 166.998L293.344 165.835Z" fill="#42E8E0"></path><path d="M280.121 155.95L281.946 154.895L282.143 156.058L280.318 157.114L280.121 155.95Z" fill="#42E8E0"></path><path d="M276.684 157.936L279.096 156.541L279.293 157.705L276.881 159.1L276.684 157.936Z" fill="#42E8E0"></path><path d="M272.113 141.25L266.708 144.374L266.512 143.21L271.917 140.086L272.113 141.25Z" fill="#42E8E0"></path><path d="M277.051 138.399L273.142 140.659L272.945 139.495L276.854 137.236L277.051 138.399Z" fill="#42E8E0"></path><path d="M280.709 136.281L278.068 137.808L277.871 136.645L280.513 135.117L280.709 136.281Z" fill="#42E8E0"></path><path d="M268.983 145.976L267.157 147.032L266.961 145.868L268.786 144.813L268.983 145.976Z" fill="#42E8E0"></path><path d="M272.418 143.99L270.005 145.384L269.809 144.221L272.22 142.827L272.418 143.99Z" fill="#42E8E0"></path><path d="M277.33 141.152L273.443 143.398L273.246 142.236L277.132 139.989L277.33 141.152Z" fill="#42E8E0"></path><path d="M282.602 163.278L284.427 162.224L284.623 163.387L282.798 164.442L282.602 163.278Z" fill="#42E8E0"></path><path d="M279.164 165.264L281.577 163.87L281.773 165.034L279.361 166.428L279.164 165.264Z" fill="#42E8E0"></path><path d="M274.262 168.102L278.149 165.856L278.345 167.02L274.458 169.266L274.262 168.102Z" fill="#42E8E0"></path><path d="M285.383 158.963L289.27 156.717L289.466 157.881L285.58 160.127L285.383 158.963Z" fill="#42E8E0"></path><path d="M279.023 162.429L284.263 159.401L284.46 160.565L279.22 163.593L279.023 162.429Z" fill="#42E8E0"></path><path d="M276.367 163.968L278.006 163.021L278.203 164.184L276.564 165.131L276.367 163.968Z" fill="#42E8E0"></path><path d="M273.805 165.445L275.445 164.498L275.641 165.662L274.001 166.609L273.805 165.445Z" fill="#42E8E0"></path><path d="M274.16 150.427L279.336 147.435L279.532 148.599L274.357 151.59L274.16 150.427Z" fill="#42E8E0"></path><path d="M271.5 151.966L273.139 151.019L273.336 152.182L271.696 153.13L271.5 151.966Z" fill="#42E8E0"></path><path d="M274.52 147.302L276.345 146.247L276.541 147.411L274.716 148.465L274.52 147.302Z" fill="#42E8E0"></path><path d="M280.965 149.431L282.79 148.376L282.986 149.539L281.161 150.595L280.965 149.431Z" fill="#42E8E0"></path><path d="M283.566 147.929L287.947 145.399L288.143 146.563L283.763 149.092L283.566 147.929Z" fill="#42E8E0"></path><path d="M288.727 144.952L291.332 143.446L291.528 144.61L288.923 146.115L288.727 144.952Z" fill="#42E8E0"></path><path d="M271.082 149.287L273.495 147.894L273.691 149.057L271.278 150.451L271.082 149.287Z" fill="#42E8E0"></path><path d="M270.859 146.557L272.685 145.502L272.881 146.665L271.056 147.721L270.859 146.557Z" fill="#42E8E0"></path><path d="M267.422 148.543L269.834 147.148L270.031 148.312L267.618 149.707L267.422 148.543Z" fill="#42E8E0"></path><path d="M278.316 150.96L279.955 150.013L280.152 151.176L278.513 152.124L278.316 150.96Z" fill="#42E8E0"></path><path d="M275.762 152.437L277.402 151.49L277.598 152.653L275.959 153.6L275.762 152.437Z" fill="#42E8E0"></path><path d="M288.352 165.795L293.944 162.563L294.14 163.726L288.548 166.959L288.352 165.795Z" fill="#42E8E0"></path><path d="M282.086 169.414L287.326 166.386L287.522 167.55L282.282 170.578L282.086 169.414Z" fill="#42E8E0"></path><path d="M279.422 170.954L281.061 170.007L281.257 171.17L279.618 172.117L279.422 170.954Z" fill="#42E8E0"></path><path d="M276.867 172.431L278.506 171.483L278.703 172.646L277.064 173.595L276.867 172.431Z" fill="#42E8E0"></path><path d="M275.47 173.239L271.934 175.283L272.13 176.446L275.667 174.402L275.47 173.239Z" fill="#42E8E0"></path><path d="M134.125 247.974C132.763 247.974 131.423 247.615 130.249 246.939L53.0814 202.385C52.3812 201.981 51.9648 201.256 51.9648 200.448C51.9648 199.639 52.3821 198.915 53.0814 198.511L101.407 170.612C101.544 170.534 101.712 170.534 101.846 170.612L182.669 217.273C183.369 217.678 183.787 218.402 183.787 219.21C183.787 220.019 183.369 220.743 182.669 221.147L138 246.94C136.827 247.615 135.487 247.974 134.125 247.974ZM130.689 246.176C132.769 247.374 135.481 247.373 137.559 246.176L182.227 220.385C182.651 220.14 182.905 219.701 182.905 219.211C182.905 218.722 182.651 218.283 182.227 218.037L101.625 171.503L101.47 171.592L53.5203 199.275C53.0974 199.52 52.8436 199.959 52.8436 200.449C52.8436 200.94 53.0964 201.378 53.5203 201.623L130.689 246.176Z" fill="#42E8E0"></path><path d="M101.534 152.583L112.285 88.8015L111.42 88.4378L112.719 87.6934L112.717 87.7009C112.969 87.5327 113.325 87.543 113.718 87.7705L199.637 137.376C200.343 137.783 200.877 138.828 200.753 139.558L189.916 203.848C189.859 204.182 189.693 204.405 189.463 204.502H189.465L188.193 205.236L187.975 204.05L188.048 204.071L102.648 154.766C101.943 154.359 101.41 153.315 101.534 152.583Z" fill="url(#paint27_linear_2288_202810)"></path><path d="M199.156 139.119L200.569 138.494C200.727 138.856 200.804 139.237 200.75 139.557L189.913 203.847C189.856 204.181 189.691 204.404 189.46 204.501L188.19 205.235L187.972 204.049L188.044 204.07L183.723 201.575L199.156 139.119Z" fill="url(#paint28_linear_2288_202810)"></path><path d="M101.298 155.539L187.217 205.145C187.88 205.528 188.448 205.306 188.565 204.619L199.401 140.33C199.525 139.599 198.991 138.554 198.285 138.147L112.366 88.5421C111.703 88.1596 111.135 88.3804 111.019 89.0675L100.182 153.357C100.058 154.087 100.592 155.132 101.298 155.539Z" fill="#24126A"></path><g opacity="0.51"><path d="M113.492 92.6465L196.311 140.462L186.041 201.009L103.277 153.225L113.492 92.6465Z" fill="#453C9E"></path></g><path d="M47.2852 185.976L51.9741 188.425L98.991 161.279C99.7776 160.825 101.152 160.881 102.06 161.406L183.151 208.224C183.927 207.789 187.465 206.088 187.465 206.088L185.749 210.56L185.742 210.554C185.671 210.754 185.518 210.939 185.263 211.087L135.744 239.677C134.957 240.13 133.583 240.074 132.675 239.55L49.6931 191.64C49.3199 191.425 49.0915 191.163 48.9966 190.899L48.99 190.903L47.2852 185.976Z" fill="url(#paint29_linear_2288_202810)"></path><path d="M48.0122 186.747L133.058 235.849C133.989 236.386 135.398 236.444 136.203 235.979L186.953 206.678C187.759 206.213 187.658 205.4 186.727 204.863L101.681 155.761C100.75 155.224 99.3421 155.165 98.5357 155.63L47.7857 184.931C46.9802 185.396 47.0818 186.21 48.0122 186.747Z" fill="url(#paint30_linear_2288_202810)"></path><path d="M48.0114 186.257L133.057 235.359C133.988 235.896 135.397 235.955 136.202 235.489L186.952 206.189C187.216 206.036 187.373 205.845 187.446 205.64C187.573 206.022 187.42 206.409 186.952 206.678L136.202 235.979C135.396 236.444 133.988 236.386 133.057 235.849L48.0114 186.747C47.3855 186.385 47.1439 185.901 47.2924 185.479C47.3855 185.756 47.6204 186.032 48.0114 186.257Z" fill="white"></path><path d="M158.71 225.227V224.295C158.71 224.207 158.656 224.166 158.589 224.204L155.3 226.103C155.233 226.142 155.18 226.244 155.18 226.333V227.265C155.18 227.353 155.233 227.394 155.3 227.356L158.589 225.457C158.656 225.418 158.71 225.316 158.71 225.227Z" fill="#2842A2"></path><path d="M153.788 228.068V227.134C153.788 227.046 153.734 227.005 153.668 227.043L150.378 228.943C150.312 228.981 150.258 229.084 150.258 229.172V230.104C150.258 230.193 150.311 230.233 150.378 230.195L153.668 228.296C153.734 228.258 153.788 228.156 153.788 228.068Z" fill="#2842A2"></path><path d="M173.723 203.934L103.05 163.131C102.579 162.86 101.998 162.86 101.527 163.132L76.3609 177.693C75.999 177.901 76 178.424 76.3609 178.632L147.001 219.416C147.472 219.688 148.052 219.688 148.522 219.416L173.722 204.874C174.085 204.665 174.085 204.143 173.723 203.934Z" fill="#ADB1F2"></path><path d="M173.723 204.874L173.47 205.02L103.05 164.363C102.579 164.091 101.999 164.091 101.528 164.364L76.6142 178.778L76.3613 178.632C75.9995 178.424 75.9995 177.902 76.3604 177.693L101.527 163.132C101.998 162.86 102.578 162.86 103.049 163.131L173.722 203.934C174.085 204.143 174.085 204.665 173.723 204.874Z" fill="#9198DB"></path><path d="M105.531 170.232L165.353 204.77L167.936 203.111L108.272 168.663L105.531 170.232Z" fill="#24126A"></path><path d="M101.648 175.717L155.96 207.074L157.821 204.997L104.376 174.14L101.648 175.717Z" fill="#24126A"></path><path d="M88.5703 173.199L156.365 212.341L159.096 210.765L91.2996 171.624L88.5703 173.199Z" fill="#24126A"></path><path d="M84.2188 175.716L152.015 214.858L154.744 213.282L86.949 174.14L84.2188 175.716Z" fill="#24126A"></path><path d="M79.8555 178.232L147.651 217.374L150.381 215.798L82.5848 176.657L79.8555 178.232Z" fill="#24126A"></path><path d="M164.723 204.404L167.452 205.98L170.181 204.404L167.452 202.828L164.723 204.404Z" fill="#24126A"></path><path d="M155.094 206.573L160.759 209.844L163.488 208.268L157.823 204.997L155.094 206.573Z" fill="#24126A"></path><path d="M100.326 213.808L81.2699 202.806C80.5246 202.376 80.5246 201.679 81.2699 201.249L94.3009 193.725C95.0453 193.296 96.253 193.296 96.9983 193.725L116.055 204.727C116.8 205.158 116.8 205.854 116.055 206.285L103.024 213.808C102.279 214.239 101.072 214.239 100.326 213.808Z" fill="url(#paint31_linear_2288_202810)"></path><path d="M116.055 205.364L96.9988 194.363C96.2535 193.933 95.0467 193.933 94.3014 194.363L81.2704 201.886C81.0402 202.019 80.8907 202.178 80.8024 202.347C80.605 201.971 80.7554 201.547 81.2704 201.25L94.3014 193.726C95.0458 193.297 96.2535 193.297 96.9988 193.726L116.055 204.728C116.57 205.025 116.721 205.449 116.523 205.825C116.435 205.657 116.285 205.498 116.055 205.364Z" fill="#9198DB"></path><g opacity="0.11"><mask id="mask1_2288_202810" style="mask-type:luminance" maskUnits="userSpaceOnUse" x="103" y="92" width="94" height="110"><path d="M113.488 92.6465L196.307 140.462L186.038 201.009L103.273 153.225L113.488 92.6465Z" fill="white"></path></mask><g mask="url(#mask1_2288_202810)"><path d="M101.598 155.661L186.644 204.762C187.576 205.3 188.983 205.358 189.789 204.893L240.539 175.592C241.345 175.127 241.244 174.314 240.313 173.776L155.267 124.675C154.337 124.137 152.928 124.079 152.122 124.544L101.372 153.845C100.566 154.31 100.668 155.123 101.598 155.661Z" fill="url(#paint32_linear_2288_202810)"></path><path d="M186.9 164.463L167.843 153.461C167.099 153.031 167.099 152.335 167.843 151.904L180.874 144.381C181.619 143.951 182.827 143.951 183.572 144.381L202.628 155.382C203.373 155.812 203.373 156.509 202.628 156.94L189.597 164.463C188.853 164.894 187.645 164.894 186.9 164.463Z" fill="url(#paint33_linear_2288_202810)"></path><path d="M202.622 156.02L183.565 145.018C182.82 144.587 181.613 144.587 180.868 145.018L167.837 152.541C167.607 152.674 167.457 152.834 167.369 153.001C167.171 152.625 167.322 152.201 167.837 151.904L180.868 144.381C181.612 143.951 182.82 143.951 183.565 144.381L202.622 155.382C203.137 155.679 203.287 156.103 203.09 156.479C203.001 156.312 202.852 156.153 202.622 156.02Z" fill="#9198DB"></path><path d="M211.004 181.657L140.331 140.853C139.86 140.582 139.279 140.582 138.808 140.854L113.642 155.414C113.28 155.623 113.281 156.146 113.642 156.354L184.282 197.138C184.753 197.41 185.333 197.41 185.803 197.138L211.003 182.596C211.366 182.388 211.366 181.867 211.004 181.657Z" fill="#ADB1F2"></path><path d="M211.004 182.597L210.752 182.743L140.332 142.086C139.861 141.814 139.28 141.814 138.809 142.086L113.895 156.501L113.643 156.355C113.281 156.147 113.281 155.625 113.642 155.415L138.808 140.855C139.279 140.583 139.86 140.583 140.331 140.854L211.004 181.658C211.366 181.867 211.366 182.388 211.004 182.597Z" fill="#9198DB"></path><path d="M120.232 154.422L181.8 189.969L179.362 191.377L117.793 155.83L120.232 154.422Z" fill="#24126A"></path><path d="M126.724 150.677L185.244 184.463L182.805 185.871L124.285 152.085L126.724 150.677Z" fill="#24126A"></path><path d="M189.611 186.986L195.077 190.142L192.638 191.55L187.172 188.395L189.611 186.986Z" fill="#24126A"></path><path d="M184.779 191.69L188.584 193.887L186.145 195.295L182.34 193.098L184.779 191.69Z" fill="#24126A"></path><path d="M130.783 148.33L199.138 187.795L196.699 189.203L128.344 149.738L130.783 148.33Z" fill="#24126A"></path><path d="M134.849 145.983L203.204 185.448L200.765 186.856L132.41 147.391L134.849 145.983Z" fill="#24126A"></path><path d="M138.912 143.636L207.266 183.101L204.828 184.509L136.473 145.044L138.912 143.636Z" fill="#24126A"></path></g></g><path d="M132.031 115.088L138.731 118.961L138.928 117.798L132.228 113.926L132.031 115.088Z" fill="#42E8E0"></path><path d="M139.809 119.58L143.459 121.69L143.655 120.526L140.005 118.416L139.809 119.58Z" fill="#42E8E0"></path><path d="M149.141 124.969L151.783 126.495L151.979 125.332L149.337 123.805L149.141 124.969Z" fill="#42E8E0"></path><path d="M147.211 123.855L148.113 124.377L148.31 123.213L147.407 122.692L147.211 123.855Z" fill="#42E8E0"></path><path d="M144.551 122.316L146.19 123.263L146.386 122.099L144.747 121.152L144.551 122.316Z" fill="#42E8E0"></path><path d="M137.332 123.988L139.973 125.515L140.169 124.351L137.528 122.824L137.332 123.988Z" fill="#42E8E0"></path><path d="M131.129 120.405L136.305 123.397L136.501 122.233L131.326 119.241L131.129 120.405Z" fill="#42E8E0"></path><path d="M138.551 139.261L143.727 142.253L143.923 141.089L138.747 138.098L138.551 139.261Z" fill="#42E8E0"></path><path d="M135.887 137.723L137.527 138.67L137.723 137.506L136.083 136.559L135.887 137.723Z" fill="#42E8E0"></path><path d="M139.418 133.939L144.594 136.93L144.79 135.767L139.614 132.775L139.418 133.939Z" fill="#42E8E0"></path><path d="M136.754 132.399L138.394 133.347L138.59 132.183L136.95 131.236L136.754 132.399Z" fill="#42E8E0"></path><path d="M134.732 162.232L124.982 156.598L124.785 157.761L134.535 163.397L134.732 162.232Z" fill="#42E8E0"></path><path d="M138.168 164.219L135.755 162.824L135.559 163.988L137.971 165.382L138.168 164.219Z" fill="#42E8E0"></path><path d="M155.298 165.35L145.548 159.714L145.352 160.878L155.102 166.513L155.298 165.35Z" fill="#42E8E0"></path><path d="M158.738 167.335L156.325 165.941L156.129 167.104L158.542 168.498L158.738 167.335Z" fill="#42E8E0"></path><path d="M128.073 155.466L125.431 153.94L125.234 155.103L127.876 156.63L128.073 155.466Z" fill="#42E8E0"></path><path d="M144.143 158.914L141.502 157.387L141.305 158.551L143.947 160.077L144.143 158.914Z" fill="#42E8E0"></path><path d="M134.271 159.05L129.095 156.058L128.898 157.222L134.074 160.213L134.271 159.05Z" fill="#42E8E0"></path><path d="M136.937 160.588L135.298 159.641L135.102 160.804L136.741 161.752L136.937 160.588Z" fill="#42E8E0"></path><path d="M143.185 164.193L138.009 161.202L137.812 162.365L142.988 165.356L143.185 164.193Z" fill="#42E8E0"></path><path d="M145.843 165.732L144.204 164.785L144.008 165.948L145.647 166.896L145.843 165.732Z" fill="#42E8E0"></path><path d="M143.697 161.573L141.056 160.046L140.859 161.21L143.5 162.736L143.697 161.573Z" fill="#42E8E0"></path><path d="M149.896 165.156L144.72 162.164L144.523 163.328L149.699 166.319L149.896 165.156Z" fill="#42E8E0"></path><path d="M152.554 166.694L150.915 165.747L150.719 166.911L152.358 167.858L152.554 166.694Z" fill="#42E8E0"></path><path d="M131.281 154.406L125.876 151.282L125.68 152.446L131.085 155.57L131.281 154.406Z" fill="#42E8E0"></path><path d="M136.219 157.256L132.31 154.997L132.113 156.161L136.022 158.42L136.219 157.256Z" fill="#42E8E0"></path><path d="M139.884 159.375L137.243 157.848L137.047 159.011L139.688 160.538L139.884 159.375Z" fill="#42E8E0"></path><path d="M165.5 171.232L160.095 168.108L159.898 169.272L165.304 172.396L165.5 171.232Z" fill="#42E8E0"></path><path d="M170.433 174.083L166.525 171.824L166.328 172.988L170.237 175.246L170.433 174.083Z" fill="#42E8E0"></path><path d="M174.095 176.201L171.454 174.675L171.258 175.838L173.899 177.365L174.095 176.201Z" fill="#42E8E0"></path><path d="M163.391 136.114L168.796 139.237L168.992 138.073L163.587 134.95L163.391 136.114Z" fill="#42E8E0"></path><path d="M158.457 133.263L162.366 135.522L162.562 134.358L158.653 132.1L158.457 133.263Z" fill="#42E8E0"></path><path d="M154.793 131.144L157.435 132.671L157.631 131.507L154.989 129.981L154.793 131.144Z" fill="#42E8E0"></path><path d="M161.594 132.148L166.999 135.272L167.195 134.109L161.79 130.985L161.594 132.148Z" fill="#42E8E0"></path><path d="M156.668 129.298L160.577 131.557L160.773 130.393L156.864 128.134L156.668 129.298Z" fill="#42E8E0"></path><path d="M152.996 127.179L155.638 128.706L155.834 127.542L153.193 126.016L152.996 127.179Z" fill="#42E8E0"></path><path d="M139.77 137.064L141.595 138.119L141.791 136.956L139.966 135.9L139.77 137.064Z" fill="#42E8E0"></path><path d="M136.336 135.078L138.748 136.472L138.945 135.308L136.532 133.914L136.336 135.078Z" fill="#42E8E0"></path><path d="M131.765 151.764L126.36 148.64L126.164 149.804L131.568 152.928L131.765 151.764Z" fill="#42E8E0"></path><path d="M136.703 154.615L132.795 152.355L132.598 153.519L136.507 155.778L136.703 154.615Z" fill="#42E8E0"></path><path d="M140.362 156.733L137.72 155.206L137.523 156.369L140.165 157.896L140.362 156.733Z" fill="#42E8E0"></path><path d="M128.635 147.038L126.81 145.982L126.613 147.146L128.438 148.201L128.635 147.038Z" fill="#42E8E0"></path><path d="M132.07 149.023L129.657 147.629L129.461 148.792L131.874 150.187L132.07 149.023Z" fill="#42E8E0"></path><path d="M136.982 151.862L133.095 149.615L132.898 150.778L136.786 153.025L136.982 151.862Z" fill="#42E8E0"></path><path d="M142.254 129.736L144.08 130.79L144.276 129.627L142.45 128.572L142.254 129.736Z" fill="#42E8E0"></path><path d="M138.816 127.749L141.229 129.144L141.425 127.98L139.013 126.586L138.816 127.749Z" fill="#42E8E0"></path><path d="M133.906 124.912L137.793 127.158L137.99 125.994L134.103 123.748L133.906 124.912Z" fill="#42E8E0"></path><path d="M145.035 134.051L148.921 136.297L149.118 135.133L145.232 132.887L145.035 134.051Z" fill="#42E8E0"></path><path d="M138.676 130.585L143.915 133.613L144.112 132.449L138.872 129.421L138.676 130.585Z" fill="#42E8E0"></path><path d="M136.012 129.046L137.651 129.993L137.847 128.83L136.208 127.882L136.012 129.046Z" fill="#42E8E0"></path><path d="M133.457 127.568L135.096 128.516L135.293 127.352L133.653 126.405L133.457 127.568Z" fill="#42E8E0"></path><path d="M133.809 142.586L138.984 145.578L139.181 144.414L134.005 141.423L133.809 142.586Z" fill="#42E8E0"></path><path d="M131.152 141.048L132.791 141.995L132.988 140.832L131.349 139.884L131.152 141.048Z" fill="#42E8E0"></path><path d="M134.172 145.712L135.997 146.767L136.193 145.603L134.368 144.549L134.172 145.712Z" fill="#42E8E0"></path><path d="M140.617 143.583L142.443 144.637L142.64 143.474L140.814 142.419L140.617 143.583Z" fill="#42E8E0"></path><path d="M143.215 145.084L147.595 147.615L147.792 146.451L143.411 143.921L143.215 145.084Z" fill="#42E8E0"></path><path d="M148.379 148.062L150.984 149.567L151.181 148.404L148.575 146.898L148.379 148.062Z" fill="#42E8E0"></path><path d="M130.734 143.726L133.147 145.12L133.343 143.957L130.931 142.562L130.734 143.726Z" fill="#42E8E0"></path><path d="M130.508 146.457L132.333 147.512L132.529 146.349L130.704 145.293L130.508 146.457Z" fill="#42E8E0"></path><path d="M127.07 144.471L129.483 145.865L129.679 144.701L127.267 143.307L127.07 144.471Z" fill="#42E8E0"></path><path d="M137.965 142.053L139.604 143.001L139.8 141.837L138.161 140.89L137.965 142.053Z" fill="#42E8E0"></path><path d="M135.41 140.576L137.049 141.523L137.246 140.361L135.607 139.412L135.41 140.576Z" fill="#42E8E0"></path><path d="M147.996 127.219L153.588 130.45L153.785 129.287L148.193 126.055L147.996 127.219Z" fill="#42E8E0"></path><path d="M141.738 123.599L146.977 126.627L147.173 125.463L141.935 122.436L141.738 123.599Z" fill="#42E8E0"></path><path d="M139.074 122.06L140.713 123.007L140.91 121.844L139.271 120.896L139.074 122.06Z" fill="#42E8E0"></path><path d="M136.52 120.583L138.159 121.53L138.355 120.366L136.716 119.419L136.52 120.583Z" fill="#42E8E0"></path><path d="M135.123 119.775L131.586 117.731L131.782 116.568L135.32 118.612L135.123 119.775Z" fill="#42E8E0"></path><path d="M99.625 166.82L102.354 168.396L105.084 166.82L102.354 165.244L99.625 166.82Z" fill="#24126A"></path><path d="M92.9336 170.683L98.599 173.954L101.328 172.378L95.6629 169.107L92.9336 170.683Z" fill="#24126A"></path><path d="M218.832 278.143L171.543 250.84L218.83 223.539L266.119 250.84L218.832 278.143ZM172.882 250.839L218.832 277.368L264.779 250.84L218.83 224.312L172.882 250.839Z" fill="#8686F2"></path><path d="M262.538 240.689V231.868L218.831 255.984L175.125 231.867V240.688L218.832 265.922L262.538 240.689Z" fill="url(#paint34_linear_2288_202810)"></path><path d="M218.832 257.101L175.125 231.867L218.831 206.634L262.538 231.868L218.832 257.101Z" fill="url(#paint35_linear_2288_202810)"></path><path opacity="0.5" d="M218.832 256.375L175.754 231.504L175.125 231.867L218.832 257.102L262.538 231.868L261.909 231.505L218.832 256.375Z" fill="white"></path><path d="M218.828 247.468L191.809 231.868L218.827 216.268L245.847 231.869L218.828 247.468Z" fill="#0F054C"></path><path opacity="0.5" d="M218.829 247.468L191.809 231.868L218.828 216.268L245.849 231.868L218.829 247.468Z" fill="url(#paint36_linear_2288_202810)"></path><path opacity="0.5" d="M218.824 194.443L245.845 210.044V231.868L218.824 216.268V194.443Z" fill="url(#paint37_linear_2288_202810)"></path><path opacity="0.5" d="M218.825 216.268L191.805 231.867V210.044L218.824 194.443L218.825 216.268Z" fill="url(#paint38_linear_2288_202810)"></path><path opacity="0.5" d="M218.825 225.644L191.805 210.044L218.824 194.443L245.845 210.044L218.825 225.644Z" fill="url(#paint39_linear_2288_202810)"></path><path opacity="0.5" d="M218.824 225.644V247.468L245.844 231.868V210.044L218.824 225.644Z" fill="url(#paint40_linear_2288_202810)"></path><path opacity="0.5" d="M191.809 210.044V231.867L218.829 247.468V225.644L191.809 210.044Z" fill="url(#paint41_linear_2288_202810)"></path><path d="M390.207 182.024L342.918 154.722L390.205 127.42L437.494 154.722L390.207 182.024ZM344.257 154.722L390.207 181.251L436.154 154.723L390.205 128.194L344.257 154.722Z" fill="#8686F2"></path><path d="M433.913 144.57V135.751L390.206 159.867L346.5 135.75V144.57L390.207 169.805L433.913 144.57Z" fill="url(#paint42_linear_2288_202810)"></path><path d="M390.207 160.984L346.5 135.75L390.206 110.516L433.913 135.751L390.207 160.984Z" fill="url(#paint43_linear_2288_202810)"></path><path opacity="0.5" d="M390.207 160.257L347.129 135.386L346.5 135.75L390.207 160.984L433.913 135.751L433.284 135.387L390.207 160.257Z" fill="white"></path><path d="M390.203 151.35L363.184 135.75L390.202 120.15L417.222 135.75L390.203 151.35Z" fill="#0F054C"></path><path opacity="0.5" d="M390.2 151.35L363.18 135.75L390.199 120.15L417.22 135.751L390.2 151.35Z" fill="url(#paint44_linear_2288_202810)"></path><path opacity="0.5" d="M390.199 98.326L417.22 113.927V135.75L390.199 120.15V98.326Z" fill="url(#paint45_linear_2288_202810)"></path><path opacity="0.5" d="M390.2 120.15L363.18 135.75V113.926L390.199 98.326L390.2 120.15Z" fill="url(#paint46_linear_2288_202810)"></path><path opacity="0.5" d="M390.2 129.526L363.18 113.926L390.199 98.326L417.22 113.927L390.2 129.526Z" fill="url(#paint47_linear_2288_202810)"></path><path opacity="0.5" d="M390.199 129.526V151.351L417.219 135.75V113.927L390.199 129.526Z" fill="url(#paint48_linear_2288_202810)"></path><path opacity="0.5" d="M363.18 113.926V135.75L390.2 151.351V129.526L363.18 113.926Z" fill="url(#paint49_linear_2288_202810)"></path><path d="M47.2885 182.024L0 154.722L47.2867 127.42L94.5761 154.722L47.2885 182.024ZM1.33928 154.722L47.2885 181.251L93.2359 154.723L47.2867 128.194L1.33928 154.722Z" fill="#8686F2"></path><path d="M90.9946 144.57V135.751L47.2879 159.867L3.58203 135.75V144.57L47.2888 169.805L90.9946 144.57Z" fill="url(#paint50_linear_2288_202810)"></path><path d="M47.2888 160.984L3.58203 135.75L47.2879 110.516L90.9946 135.751L47.2888 160.984Z" fill="url(#paint51_linear_2288_202810)"></path><path opacity="0.5" d="M47.2888 160.258L4.21173 135.386L3.58203 135.75L47.2888 160.984L90.9946 135.751L90.3659 135.387L47.2888 160.258Z" fill="white"></path><path d="M47.2854 151.35L20.2656 135.75L47.2844 120.15L74.3051 135.75L47.2854 151.35Z" fill="#0F054C"></path><path opacity="0.5" d="M47.2863 151.351L20.2656 135.75L47.2854 120.15L74.306 135.751L47.2863 151.351Z" fill="url(#paint52_linear_2288_202810)"></path><path opacity="0.5" d="M47.2852 98.3262L74.3058 113.927V135.75L47.2852 120.15V98.3262Z" fill="url(#paint53_linear_2288_202810)"></path><path opacity="0.5" d="M47.2863 120.15L20.2656 135.75V113.926L47.2854 98.3262L47.2863 120.15Z" fill="url(#paint54_linear_2288_202810)"></path><path opacity="0.5" d="M47.2863 129.526L20.2656 113.926L47.2854 98.3262L74.306 113.927L47.2863 129.526Z" fill="url(#paint55_linear_2288_202810)"></path><path opacity="0.5" d="M47.2852 129.526V151.351L74.3049 135.75V113.927L47.2852 129.526Z" fill="url(#paint56_linear_2288_202810)"></path><path opacity="0.5" d="M20.2656 113.926V135.75L47.2863 151.351V129.526L20.2656 113.926Z" fill="url(#paint57_linear_2288_202810)"></path><defs><linearGradient id="paint0_linear_2288_202810" x1="175.125" y1="54.4512" x2="237.413" y2="54.4512" gradientUnits="userSpaceOnUse"><stop offset="0.2473" stop-color="#5761D7"></stop><stop offset="0.4363" stop-color="#6C74DF"></stop><stop offset="0.8245" stop-color="#A2A6F5"></stop><stop offset="1" stop-color="#BCBEFF"></stop></linearGradient><linearGradient id="paint1_linear_2288_202810" x1="175.125" y1="37.4242" x2="262.538" y2="37.4242" gradientUnits="userSpaceOnUse"><stop stop-color="#C0BFF6"></stop><stop offset="0.2938" stop-color="#C5C4F7"></stop><stop offset="0.6399" stop-color="#D3D2F9"></stop><stop offset="1" stop-color="#E9E9FD"></stop></linearGradient><linearGradient id="paint2_linear_2288_202810" x1="191.809" y1="37.4245" x2="245.849" y2="37.4245" gradientUnits="userSpaceOnUse"><stop stop-color="#42E8E0"></stop><stop offset="0.1507" stop-color="#43E3E0"></stop><stop offset="0.3285" stop-color="#45D5DF"></stop><stop offset="0.5199" stop-color="#49BDDD"></stop><stop offset="0.7209" stop-color="#4E9CDB"></stop><stop offset="0.9274" stop-color="#5472D8"></stop><stop offset="1" stop-color="#5761D7"></stop></linearGradient><linearGradient id="paint3_linear_2288_202810" x1="218.824" y1="18.7125" x2="245.845" y2="18.7125" gradientUnits="userSpaceOnUse"><stop stop-color="#42E8E0"></stop><stop offset="0.1507" stop-color="#43E3E0"></stop><stop offset="0.3285" stop-color="#45D5DF"></stop><stop offset="0.5199" stop-color="#49BDDD"></stop><stop offset="0.7209" stop-color="#4E9CDB"></stop><stop offset="0.9274" stop-color="#5472D8"></stop><stop offset="1" stop-color="#5761D7"></stop></linearGradient><linearGradient id="paint4_linear_2288_202810" x1="191.805" y1="18.7122" x2="218.825" y2="18.7122" gradientUnits="userSpaceOnUse"><stop stop-color="#42E8E0"></stop><stop offset="0.1507" stop-color="#43E3E0"></stop><stop offset="0.3285" stop-color="#45D5DF"></stop><stop offset="0.5199" stop-color="#49BDDD"></stop><stop offset="0.7209" stop-color="#4E9CDB"></stop><stop offset="0.9274" stop-color="#5472D8"></stop><stop offset="1" stop-color="#5761D7"></stop></linearGradient><linearGradient id="paint5_linear_2288_202810" x1="191.805" y1="15.6004" x2="245.845" y2="15.6004" gradientUnits="userSpaceOnUse"><stop stop-color="#42E8E0"></stop><stop offset="0.1507" stop-color="#43E3E0"></stop><stop offset="0.3285" stop-color="#45D5DF"></stop><stop offset="0.5199" stop-color="#49BDDD"></stop><stop offset="0.7209" stop-color="#4E9CDB"></stop><stop offset="0.9274" stop-color="#5472D8"></stop><stop offset="1" stop-color="#5761D7"></stop></linearGradient><linearGradient id="paint6_linear_2288_202810" x1="218.824" y1="34.3124" x2="245.844" y2="34.3124" gradientUnits="userSpaceOnUse"><stop stop-color="#42E8E0"></stop><stop offset="0.1507" stop-color="#43E3E0"></stop><stop offset="0.3285" stop-color="#45D5DF"></stop><stop offset="0.5199" stop-color="#49BDDD"></stop><stop offset="0.7209" stop-color="#4E9CDB"></stop><stop offset="0.9274" stop-color="#5472D8"></stop><stop offset="1" stop-color="#5761D7"></stop></linearGradient><linearGradient id="paint7_linear_2288_202810" x1="191.809" y1="34.3122" x2="218.829" y2="34.3122" gradientUnits="userSpaceOnUse"><stop stop-color="#42E8E0"></stop><stop offset="0.1507" stop-color="#43E3E0"></stop><stop offset="0.3285" stop-color="#45D5DF"></stop><stop offset="0.5199" stop-color="#49BDDD"></stop><stop offset="0.7209" stop-color="#4E9CDB"></stop><stop offset="0.9274" stop-color="#5472D8"></stop><stop offset="1" stop-color="#5761D7"></stop></linearGradient><linearGradient id="paint8_linear_2288_202810" x1="47.2723" y1="92.256" x2="185.017" y2="92.256" gradientUnits="userSpaceOnUse"><stop stop-color="#5761D7"></stop><stop offset="0.1779" stop-color="#5C66D9"></stop><stop offset="0.3876" stop-color="#6A73DF"></stop><stop offset="0.6134" stop-color="#8289E8"></stop><stop offset="0.849" stop-color="#A3A7F5"></stop><stop offset="1" stop-color="#BCBEFF"></stop></linearGradient><linearGradient id="paint9_linear_2288_202810" x1="93.553" y1="87.6631" x2="231.371" y2="87.6631" gradientUnits="userSpaceOnUse"><stop stop-color="#C0BFF6"></stop><stop offset="0.2938" stop-color="#C5C4F7"></stop><stop offset="0.6399" stop-color="#D3D2F9"></stop><stop offset="1" stop-color="#E9E9FD"></stop></linearGradient><linearGradient id="paint10_linear_2288_202810" x1="84.609" y1="77.0581" x2="119.887" y2="77.0581" gradientUnits="userSpaceOnUse"><stop stop-color="#C0BFF6"></stop><stop offset="0.2938" stop-color="#C5C4F7"></stop><stop offset="0.6399" stop-color="#D3D2F9"></stop><stop offset="1" stop-color="#E9E9FD"></stop></linearGradient><linearGradient id="paint11_linear_2288_202810" x1="87.3714" y1="70.7008" x2="184.902" y2="70.7008" gradientUnits="userSpaceOnUse"><stop stop-color="#C0BFF6"></stop><stop offset="0.2938" stop-color="#C5C4F7"></stop><stop offset="0.6399" stop-color="#D3D2F9"></stop><stop offset="1" stop-color="#E9E9FD"></stop></linearGradient><linearGradient id="paint12_linear_2288_202810" x1="87.3711" y1="95.7129" x2="104.118" y2="95.7129" gradientUnits="userSpaceOnUse"><stop stop-color="#5761D7"></stop><stop offset="0.1779" stop-color="#5C66D9"></stop><stop offset="0.3876" stop-color="#6A73DF"></stop><stop offset="0.6134" stop-color="#8289E8"></stop><stop offset="0.849" stop-color="#A3A7F5"></stop><stop offset="1" stop-color="#BCBEFF"></stop></linearGradient><linearGradient id="paint13_linear_2288_202810" x1="390.225" y1="92.256" x2="252.48" y2="92.256" gradientUnits="userSpaceOnUse"><stop stop-color="#5761D7"></stop><stop offset="0.1779" stop-color="#5C66D9"></stop><stop offset="0.3876" stop-color="#6A73DF"></stop><stop offset="0.6134" stop-color="#8289E8"></stop><stop offset="0.849" stop-color="#A3A7F5"></stop><stop offset="1" stop-color="#BCBEFF"></stop></linearGradient><linearGradient id="paint14_linear_2288_202810" x1="343.944" y1="87.6631" x2="206.125" y2="87.6631" gradientUnits="userSpaceOnUse"><stop stop-color="#C0BFF6"></stop><stop offset="0.2938" stop-color="#C5C4F7"></stop><stop offset="0.6399" stop-color="#D3D2F9"></stop><stop offset="1" stop-color="#E9E9FD"></stop></linearGradient><linearGradient id="paint15_linear_2288_202810" x1="352.891" y1="77.0581" x2="317.613" y2="77.0581" gradientUnits="userSpaceOnUse"><stop stop-color="#C0BFF6"></stop><stop offset="0.2938" stop-color="#C5C4F7"></stop><stop offset="0.6399" stop-color="#D3D2F9"></stop><stop offset="1" stop-color="#E9E9FD"></stop></linearGradient><linearGradient id="paint16_linear_2288_202810" x1="350.117" y1="70.7008" x2="252.586" y2="70.7008" gradientUnits="userSpaceOnUse"><stop stop-color="#C0BFF6"></stop><stop offset="0.2938" stop-color="#C5C4F7"></stop><stop offset="0.6399" stop-color="#D3D2F9"></stop><stop offset="1" stop-color="#E9E9FD"></stop></linearGradient><linearGradient id="paint17_linear_2288_202810" x1="350.118" y1="95.7129" x2="333.371" y2="95.7129" gradientUnits="userSpaceOnUse"><stop stop-color="#5761D7"></stop><stop offset="0.1779" stop-color="#5C66D9"></stop><stop offset="0.3876" stop-color="#6A73DF"></stop><stop offset="0.6134" stop-color="#8289E8"></stop><stop offset="0.849" stop-color="#A3A7F5"></stop><stop offset="1" stop-color="#BCBEFF"></stop></linearGradient><linearGradient id="paint18_linear_2288_202810" x1="258.055" y1="163.891" x2="258.055" y2="110.171" gradientUnits="userSpaceOnUse"><stop stop-color="#C0BFF6"></stop><stop offset="0.2938" stop-color="#C5C4F7"></stop><stop offset="0.6399" stop-color="#D3D2F9"></stop><stop offset="1" stop-color="#E9E9FD"></stop></linearGradient><linearGradient id="paint19_linear_2288_202810" x1="258.055" y1="119.347" x2="258.055" y2="65.6276" gradientUnits="userSpaceOnUse"><stop stop-color="#C0BFF6"></stop><stop offset="0.2938" stop-color="#C5C4F7"></stop><stop offset="0.6399" stop-color="#D3D2F9"></stop><stop offset="1" stop-color="#E9E9FD"></stop></linearGradient><linearGradient id="paint20_linear_2288_202810" x1="236.719" y1="146.411" x2="335.973" y2="146.411" gradientUnits="userSpaceOnUse"><stop stop-color="#C0BFF6"></stop><stop offset="0.2938" stop-color="#C5C4F7"></stop><stop offset="0.6399" stop-color="#D3D2F9"></stop><stop offset="1" stop-color="#E9E9FD"></stop></linearGradient><linearGradient id="paint21_linear_2288_202810" x1="236.719" y1="171.865" x2="253.762" y2="171.865" gradientUnits="userSpaceOnUse"><stop stop-color="#5761D7"></stop><stop offset="0.1779" stop-color="#5C66D9"></stop><stop offset="0.3876" stop-color="#6A73DF"></stop><stop offset="0.6134" stop-color="#8289E8"></stop><stop offset="0.849" stop-color="#A3A7F5"></stop><stop offset="1" stop-color="#BCBEFF"></stop></linearGradient><linearGradient id="paint22_linear_2288_202810" x1="250.018" y1="200.479" x2="390.199" y2="200.479" gradientUnits="userSpaceOnUse"><stop stop-color="#5761D7"></stop><stop offset="0.1779" stop-color="#5C66D9"></stop><stop offset="0.3876" stop-color="#6A73DF"></stop><stop offset="0.6134" stop-color="#8289E8"></stop><stop offset="0.849" stop-color="#A3A7F5"></stop><stop offset="1" stop-color="#BCBEFF"></stop></linearGradient><linearGradient id="paint23_linear_2288_202810" x1="297.119" y1="195.805" x2="437.374" y2="195.805" gradientUnits="userSpaceOnUse"><stop stop-color="#C0BFF6"></stop><stop offset="0.2938" stop-color="#C5C4F7"></stop><stop offset="0.6399" stop-color="#D3D2F9"></stop><stop offset="1" stop-color="#E9E9FD"></stop></linearGradient><linearGradient id="paint24_linear_2288_202810" x1="320.876" y1="203.767" x2="356.778" y2="203.767" gradientUnits="userSpaceOnUse"><stop stop-color="#C0BFF6"></stop><stop offset="0.2938" stop-color="#C5C4F7"></stop><stop offset="0.6399" stop-color="#D3D2F9"></stop><stop offset="1" stop-color="#E9E9FD"></stop></linearGradient><linearGradient id="paint25_linear_2288_202810" x1="243.537" y1="164.718" x2="383.792" y2="164.718" gradientUnits="userSpaceOnUse"><stop stop-color="#C0BFF6"></stop><stop offset="0.2938" stop-color="#C5C4F7"></stop><stop offset="0.6399" stop-color="#D3D2F9"></stop><stop offset="1" stop-color="#E9E9FD"></stop></linearGradient><linearGradient id="paint26_linear_2288_202810" x1="234.309" y1="154.422" x2="270.21" y2="154.422" gradientUnits="userSpaceOnUse"><stop stop-color="#C0BFF6"></stop><stop offset="0.2938" stop-color="#C5C4F7"></stop><stop offset="0.6399" stop-color="#D3D2F9"></stop><stop offset="1" stop-color="#E9E9FD"></stop></linearGradient><linearGradient id="paint27_linear_2288_202810" x1="200.77" y1="146.411" x2="101.515" y2="146.411" gradientUnits="userSpaceOnUse"><stop stop-color="#C0BFF6"></stop><stop offset="0.2938" stop-color="#C5C4F7"></stop><stop offset="0.6399" stop-color="#D3D2F9"></stop><stop offset="1" stop-color="#E9E9FD"></stop></linearGradient><linearGradient id="paint28_linear_2288_202810" x1="200.767" y1="171.865" x2="183.724" y2="171.865" gradientUnits="userSpaceOnUse"><stop stop-color="#5761D7"></stop><stop offset="0.1779" stop-color="#5C66D9"></stop><stop offset="0.3876" stop-color="#6A73DF"></stop><stop offset="0.6134" stop-color="#8289E8"></stop><stop offset="0.849" stop-color="#A3A7F5"></stop><stop offset="1" stop-color="#BCBEFF"></stop></linearGradient><linearGradient id="paint29_linear_2288_202810" x1="187.466" y1="200.479" x2="47.2852" y2="200.479" gradientUnits="userSpaceOnUse"><stop stop-color="#5761D7"></stop><stop offset="0.1779" stop-color="#5C66D9"></stop><stop offset="0.3876" stop-color="#6A73DF"></stop><stop offset="0.6134" stop-color="#8289E8"></stop><stop offset="0.849" stop-color="#A3A7F5"></stop><stop offset="1" stop-color="#BCBEFF"></stop></linearGradient><linearGradient id="paint30_linear_2288_202810" x1="140.367" y1="195.805" x2="0.111737" y2="195.805" gradientUnits="userSpaceOnUse"><stop stop-color="#C0BFF6"></stop><stop offset="0.2938" stop-color="#C5C4F7"></stop><stop offset="0.6399" stop-color="#D3D2F9"></stop><stop offset="1" stop-color="#E9E9FD"></stop></linearGradient><linearGradient id="paint31_linear_2288_202810" x1="116.613" y1="203.767" x2="80.7118" y2="203.767" gradientUnits="userSpaceOnUse"><stop stop-color="#C0BFF6"></stop><stop offset="0.2938" stop-color="#C5C4F7"></stop><stop offset="0.6399" stop-color="#D3D2F9"></stop><stop offset="1" stop-color="#E9E9FD"></stop></linearGradient><linearGradient id="paint32_linear_2288_202810" x1="193.953" y1="164.718" x2="53.6977" y2="164.718" gradientUnits="userSpaceOnUse"><stop stop-color="#C0BFF6"></stop><stop offset="0.2938" stop-color="#C5C4F7"></stop><stop offset="0.6399" stop-color="#D3D2F9"></stop><stop offset="1" stop-color="#E9E9FD"></stop></linearGradient><linearGradient id="paint33_linear_2288_202810" x1="203.187" y1="154.422" x2="167.285" y2="154.422" gradientUnits="userSpaceOnUse"><stop stop-color="#C0BFF6"></stop><stop offset="0.2938" stop-color="#C5C4F7"></stop><stop offset="0.6399" stop-color="#D3D2F9"></stop><stop offset="1" stop-color="#E9E9FD"></stop></linearGradient><linearGradient id="paint34_linear_2288_202810" x1="175.125" y1="248.895" x2="237.413" y2="248.895" gradientUnits="userSpaceOnUse"><stop offset="0.2473" stop-color="#5761D7"></stop><stop offset="0.4363" stop-color="#6C74DF"></stop><stop offset="0.8245" stop-color="#A2A6F5"></stop><stop offset="1" stop-color="#BCBEFF"></stop></linearGradient><linearGradient id="paint35_linear_2288_202810" x1="175.125" y1="231.868" x2="262.538" y2="231.868" gradientUnits="userSpaceOnUse"><stop stop-color="#C0BFF6"></stop><stop offset="0.2938" stop-color="#C5C4F7"></stop><stop offset="0.6399" stop-color="#D3D2F9"></stop><stop offset="1" stop-color="#E9E9FD"></stop></linearGradient><linearGradient id="paint36_linear_2288_202810" x1="191.809" y1="231.868" x2="245.849" y2="231.868" gradientUnits="userSpaceOnUse"><stop stop-color="#42E8E0"></stop><stop offset="0.1507" stop-color="#43E3E0"></stop><stop offset="0.3285" stop-color="#45D5DF"></stop><stop offset="0.5199" stop-color="#49BDDD"></stop><stop offset="0.7209" stop-color="#4E9CDB"></stop><stop offset="0.9274" stop-color="#5472D8"></stop><stop offset="1" stop-color="#5761D7"></stop></linearGradient><linearGradient id="paint37_linear_2288_202810" x1="218.824" y1="213.156" x2="245.845" y2="213.156" gradientUnits="userSpaceOnUse"><stop stop-color="#42E8E0"></stop><stop offset="0.1507" stop-color="#43E3E0"></stop><stop offset="0.3285" stop-color="#45D5DF"></stop><stop offset="0.5199" stop-color="#49BDDD"></stop><stop offset="0.7209" stop-color="#4E9CDB"></stop><stop offset="0.9274" stop-color="#5472D8"></stop><stop offset="1" stop-color="#5761D7"></stop></linearGradient><linearGradient id="paint38_linear_2288_202810" x1="191.805" y1="213.156" x2="218.825" y2="213.156" gradientUnits="userSpaceOnUse"><stop stop-color="#42E8E0"></stop><stop offset="0.1507" stop-color="#43E3E0"></stop><stop offset="0.3285" stop-color="#45D5DF"></stop><stop offset="0.5199" stop-color="#49BDDD"></stop><stop offset="0.7209" stop-color="#4E9CDB"></stop><stop offset="0.9274" stop-color="#5472D8"></stop><stop offset="1" stop-color="#5761D7"></stop></linearGradient><linearGradient id="paint39_linear_2288_202810" x1="191.805" y1="210.044" x2="245.845" y2="210.044" gradientUnits="userSpaceOnUse"><stop stop-color="#42E8E0"></stop><stop offset="0.1507" stop-color="#43E3E0"></stop><stop offset="0.3285" stop-color="#45D5DF"></stop><stop offset="0.5199" stop-color="#49BDDD"></stop><stop offset="0.7209" stop-color="#4E9CDB"></stop><stop offset="0.9274" stop-color="#5472D8"></stop><stop offset="1" stop-color="#5761D7"></stop></linearGradient><linearGradient id="paint40_linear_2288_202810" x1="218.824" y1="228.756" x2="245.844" y2="228.756" gradientUnits="userSpaceOnUse"><stop stop-color="#42E8E0"></stop><stop offset="0.1507" stop-color="#43E3E0"></stop><stop offset="0.3285" stop-color="#45D5DF"></stop><stop offset="0.5199" stop-color="#49BDDD"></stop><stop offset="0.7209" stop-color="#4E9CDB"></stop><stop offset="0.9274" stop-color="#5472D8"></stop><stop offset="1" stop-color="#5761D7"></stop></linearGradient><linearGradient id="paint41_linear_2288_202810" x1="191.809" y1="228.756" x2="218.829" y2="228.756" gradientUnits="userSpaceOnUse"><stop stop-color="#42E8E0"></stop><stop offset="0.1507" stop-color="#43E3E0"></stop><stop offset="0.3285" stop-color="#45D5DF"></stop><stop offset="0.5199" stop-color="#49BDDD"></stop><stop offset="0.7209" stop-color="#4E9CDB"></stop><stop offset="0.9274" stop-color="#5472D8"></stop><stop offset="1" stop-color="#5761D7"></stop></linearGradient><linearGradient id="paint42_linear_2288_202810" x1="346.5" y1="152.777" x2="408.788" y2="152.777" gradientUnits="userSpaceOnUse"><stop offset="0.2473" stop-color="#5761D7"></stop><stop offset="0.4363" stop-color="#6C74DF"></stop><stop offset="0.8245" stop-color="#A2A6F5"></stop><stop offset="1" stop-color="#BCBEFF"></stop></linearGradient><linearGradient id="paint43_linear_2288_202810" x1="346.5" y1="135.75" x2="433.913" y2="135.75" gradientUnits="userSpaceOnUse"><stop stop-color="#C0BFF6"></stop><stop offset="0.2938" stop-color="#C5C4F7"></stop><stop offset="0.6399" stop-color="#D3D2F9"></stop><stop offset="1" stop-color="#E9E9FD"></stop></linearGradient><linearGradient id="paint44_linear_2288_202810" x1="363.18" y1="135.75" x2="417.22" y2="135.75" gradientUnits="userSpaceOnUse"><stop stop-color="#42E8E0"></stop><stop offset="0.1507" stop-color="#43E3E0"></stop><stop offset="0.3285" stop-color="#45D5DF"></stop><stop offset="0.5199" stop-color="#49BDDD"></stop><stop offset="0.7209" stop-color="#4E9CDB"></stop><stop offset="0.9274" stop-color="#5472D8"></stop><stop offset="1" stop-color="#5761D7"></stop></linearGradient><linearGradient id="paint45_linear_2288_202810" x1="390.199" y1="117.038" x2="417.22" y2="117.038" gradientUnits="userSpaceOnUse"><stop stop-color="#42E8E0"></stop><stop offset="0.1507" stop-color="#43E3E0"></stop><stop offset="0.3285" stop-color="#45D5DF"></stop><stop offset="0.5199" stop-color="#49BDDD"></stop><stop offset="0.7209" stop-color="#4E9CDB"></stop><stop offset="0.9274" stop-color="#5472D8"></stop><stop offset="1" stop-color="#5761D7"></stop></linearGradient><linearGradient id="paint46_linear_2288_202810" x1="363.18" y1="117.038" x2="390.2" y2="117.038" gradientUnits="userSpaceOnUse"><stop stop-color="#42E8E0"></stop><stop offset="0.1507" stop-color="#43E3E0"></stop><stop offset="0.3285" stop-color="#45D5DF"></stop><stop offset="0.5199" stop-color="#49BDDD"></stop><stop offset="0.7209" stop-color="#4E9CDB"></stop><stop offset="0.9274" stop-color="#5472D8"></stop><stop offset="1" stop-color="#5761D7"></stop></linearGradient><linearGradient id="paint47_linear_2288_202810" x1="363.18" y1="113.926" x2="417.22" y2="113.926" gradientUnits="userSpaceOnUse"><stop stop-color="#42E8E0"></stop><stop offset="0.1507" stop-color="#43E3E0"></stop><stop offset="0.3285" stop-color="#45D5DF"></stop><stop offset="0.5199" stop-color="#49BDDD"></stop><stop offset="0.7209" stop-color="#4E9CDB"></stop><stop offset="0.9274" stop-color="#5472D8"></stop><stop offset="1" stop-color="#5761D7"></stop></linearGradient><linearGradient id="paint48_linear_2288_202810" x1="390.199" y1="132.638" x2="417.219" y2="132.638" gradientUnits="userSpaceOnUse"><stop stop-color="#42E8E0"></stop><stop offset="0.1507" stop-color="#43E3E0"></stop><stop offset="0.3285" stop-color="#45D5DF"></stop><stop offset="0.5199" stop-color="#49BDDD"></stop><stop offset="0.7209" stop-color="#4E9CDB"></stop><stop offset="0.9274" stop-color="#5472D8"></stop><stop offset="1" stop-color="#5761D7"></stop></linearGradient><linearGradient id="paint49_linear_2288_202810" x1="363.18" y1="132.638" x2="390.2" y2="132.638" gradientUnits="userSpaceOnUse"><stop stop-color="#42E8E0"></stop><stop offset="0.1507" stop-color="#43E3E0"></stop><stop offset="0.3285" stop-color="#45D5DF"></stop><stop offset="0.5199" stop-color="#49BDDD"></stop><stop offset="0.7209" stop-color="#4E9CDB"></stop><stop offset="0.9274" stop-color="#5472D8"></stop><stop offset="1" stop-color="#5761D7"></stop></linearGradient><linearGradient id="paint50_linear_2288_202810" x1="3.58203" y1="152.777" x2="65.87" y2="152.777" gradientUnits="userSpaceOnUse"><stop offset="0.2473" stop-color="#5761D7"></stop><stop offset="0.4363" stop-color="#6C74DF"></stop><stop offset="0.8245" stop-color="#A2A6F5"></stop><stop offset="1" stop-color="#BCBEFF"></stop></linearGradient><linearGradient id="paint51_linear_2288_202810" x1="3.58203" y1="135.75" x2="90.995" y2="135.75" gradientUnits="userSpaceOnUse"><stop stop-color="#C0BFF6"></stop><stop offset="0.2938" stop-color="#C5C4F7"></stop><stop offset="0.6399" stop-color="#D3D2F9"></stop><stop offset="1" stop-color="#E9E9FD"></stop></linearGradient><linearGradient id="paint52_linear_2288_202810" x1="20.266" y1="135.751" x2="74.306" y2="135.751" gradientUnits="userSpaceOnUse"><stop stop-color="#42E8E0"></stop><stop offset="0.1507" stop-color="#43E3E0"></stop><stop offset="0.3285" stop-color="#45D5DF"></stop><stop offset="0.5199" stop-color="#49BDDD"></stop><stop offset="0.7209" stop-color="#4E9CDB"></stop><stop offset="0.9274" stop-color="#5472D8"></stop><stop offset="1" stop-color="#5761D7"></stop></linearGradient><linearGradient id="paint53_linear_2288_202810" x1="47.2854" y1="117.038" x2="74.3058" y2="117.038" gradientUnits="userSpaceOnUse"><stop stop-color="#42E8E0"></stop><stop offset="0.1507" stop-color="#43E3E0"></stop><stop offset="0.3285" stop-color="#45D5DF"></stop><stop offset="0.5199" stop-color="#49BDDD"></stop><stop offset="0.7209" stop-color="#4E9CDB"></stop><stop offset="0.9274" stop-color="#5472D8"></stop><stop offset="1" stop-color="#5761D7"></stop></linearGradient><linearGradient id="paint54_linear_2288_202810" x1="20.266" y1="117.038" x2="47.2864" y2="117.038" gradientUnits="userSpaceOnUse"><stop stop-color="#42E8E0"></stop><stop offset="0.1507" stop-color="#43E3E0"></stop><stop offset="0.3285" stop-color="#45D5DF"></stop><stop offset="0.5199" stop-color="#49BDDD"></stop><stop offset="0.7209" stop-color="#4E9CDB"></stop><stop offset="0.9274" stop-color="#5472D8"></stop><stop offset="1" stop-color="#5761D7"></stop></linearGradient><linearGradient id="paint55_linear_2288_202810" x1="20.266" y1="113.926" x2="74.306" y2="113.926" gradientUnits="userSpaceOnUse"><stop stop-color="#42E8E0"></stop><stop offset="0.1507" stop-color="#43E3E0"></stop><stop offset="0.3285" stop-color="#45D5DF"></stop><stop offset="0.5199" stop-color="#49BDDD"></stop><stop offset="0.7209" stop-color="#4E9CDB"></stop><stop offset="0.9274" stop-color="#5472D8"></stop><stop offset="1" stop-color="#5761D7"></stop></linearGradient><linearGradient id="paint56_linear_2288_202810" x1="47.2853" y1="132.639" x2="74.3049" y2="132.639" gradientUnits="userSpaceOnUse"><stop stop-color="#42E8E0"></stop><stop offset="0.1507" stop-color="#43E3E0"></stop><stop offset="0.3285" stop-color="#45D5DF"></stop><stop offset="0.5199" stop-color="#49BDDD"></stop><stop offset="0.7209" stop-color="#4E9CDB"></stop><stop offset="0.9274" stop-color="#5472D8"></stop><stop offset="1" stop-color="#5761D7"></stop></linearGradient><linearGradient id="paint57_linear_2288_202810" x1="20.266" y1="132.638" x2="47.2864" y2="132.638" gradientUnits="userSpaceOnUse"><stop stop-color="#42E8E0"></stop><stop offset="0.1507" stop-color="#43E3E0"></stop><stop offset="0.3285" stop-color="#45D5DF"></stop><stop offset="0.5199" stop-color="#49BDDD"></stop><stop offset="0.7209" stop-color="#4E9CDB"></stop><stop offset="0.9274" stop-color="#5472D8"></stop><stop offset="1" stop-color="#5761D7"></stop></linearGradient></defs></svg>