<svg xmlns="http://www.w3.org/2000/svg" width="299" height="281" viewBox="0 0 299 281" fill="none"><g opacity="0.11"><path d="M153.994 191.459C151.225 189.908 147.814 189.907 145.043 191.455L91.7002 221.261C90.8604 221.731 90.8604 222.908 91.7002 223.378L145.488 253.502C147.931 254.871 150.943 254.871 153.386 253.502L207.256 223.406C208.096 222.936 208.096 221.76 207.256 221.289L153.994 191.459Z" fill="url(#paint0_linear_2288_197542)"></path></g><g opacity="0.11"><path d="M153.994 182.742C151.225 181.191 147.814 181.19 145.043 182.738L91.7002 212.544C90.8604 213.014 90.8604 214.191 91.7002 214.661L145.488 244.786C147.931 246.154 150.943 246.154 153.386 244.786L207.256 214.69C208.096 214.22 208.096 213.044 207.256 212.573L153.994 182.742Z" fill="url(#paint1_linear_2288_197542)"></path></g><g opacity="0.11"><path d="M153.994 174.026C151.225 172.475 147.814 172.474 145.043 174.021L91.7002 203.828C90.8604 204.298 90.8604 205.474 91.7002 205.944L145.488 236.069C147.931 237.437 150.943 237.437 153.386 236.069L207.256 205.973C208.096 205.503 208.096 204.328 207.256 203.857L153.994 174.026Z" fill="url(#paint2_linear_2288_197542)"></path></g><g opacity="0.11"><path d="M153.994 165.308C151.225 163.757 147.814 163.756 145.043 165.303L91.7002 195.11C90.8604 195.58 90.8604 196.756 91.7002 197.227L145.488 227.351C147.931 228.72 150.943 228.72 153.386 227.351L207.256 197.256C208.096 196.786 208.096 195.609 207.256 195.139L153.994 165.308Z" fill="url(#paint3_linear_2288_197542)"></path></g><path opacity="0.5" d="M207.256 195.139L153.994 165.308C151.225 163.758 147.814 163.756 145.043 165.303L91.7002 195.11C91.2803 195.345 91.0703 195.756 91.0703 196.168V222.319C91.0703 222.731 91.2803 223.142 91.7002 223.378L145.488 253.502C147.931 254.871 150.943 254.871 153.386 253.502L207.256 223.406C207.676 223.17 207.886 222.76 207.886 222.348V196.196C207.886 195.785 207.676 195.374 207.256 195.139Z" fill="url(#paint4_linear_2288_197542)"></path><g opacity="0.11"><path d="M153.994 165.308C151.225 163.757 147.814 163.756 145.043 165.303L91.7002 195.11C90.8604 195.58 90.8604 196.756 91.7002 197.227L145.488 227.351C147.931 228.72 150.943 228.72 153.386 227.351L207.256 197.256C208.096 196.786 208.096 195.609 207.256 195.139L153.994 165.308Z" fill="url(#paint5_linear_2288_197542)"></path></g><g opacity="0.2"><path d="M152.354 176.537C150.59 175.549 148.417 175.548 146.651 176.534L112.659 195.528C112.124 195.828 112.124 196.577 112.659 196.876L146.934 216.073C148.491 216.945 150.41 216.945 151.967 216.073L186.296 196.895C186.831 196.595 186.831 195.845 186.296 195.546L152.354 176.537Z" fill="#160A5B"></path></g><g opacity="0.5"><path d="M151.397 182.394C150.224 181.737 148.777 181.736 147.603 182.392L123.703 195.747C123.328 195.957 123.328 196.482 123.703 196.692L147.701 210.133C148.792 210.744 150.136 210.744 151.226 210.133L175.262 196.705C175.637 196.495 175.637 195.97 175.262 195.761L151.397 182.394Z" fill="#42E8E0"></path></g><path d="M123.703 196.585L147.603 183.23C148.778 182.573 150.224 182.574 151.398 183.232L175.262 196.597C175.286 196.611 175.296 196.635 175.316 196.651C175.622 196.419 175.613 195.956 175.262 195.76L151.398 182.394C150.224 181.737 148.778 181.736 147.603 182.392L123.703 195.747C123.353 195.944 123.344 196.406 123.649 196.638C123.67 196.622 123.679 196.598 123.703 196.585Z" fill="#42E8E0"></path><path d="M207.255 196.051L153.385 226.147C150.941 227.516 147.93 227.516 145.486 226.147L91.6989 196.023C91.4918 195.906 91.3371 195.747 91.2322 195.566C90.9116 196.118 91.0672 196.872 91.6989 197.227L145.486 227.351C147.93 228.72 150.941 228.72 153.385 227.351L207.255 197.256C207.888 196.901 208.042 196.147 207.723 195.595C207.618 195.775 207.462 195.935 207.255 196.051Z" fill="url(#paint6_linear_2288_197542)"></path><g opacity="0.2"><path d="M73.279 160.187L68.9844 157.782L73.2781 155.378L77.5728 157.782L73.279 160.187Z" fill="#42E8E0"></path><path opacity="0.1" d="M81.864 164.997L77.5703 162.592L81.864 160.187L86.1578 162.592L81.864 164.997Z" fill="#42E8E0"></path><path opacity="0.4" d="M90.4578 169.807L86.1641 167.402L90.4578 164.997L94.7515 167.402L90.4578 169.807Z" fill="#42E8E0"></path><path d="M99.0369 174.617L94.7422 172.212L99.0369 169.807L103.331 172.212L99.0369 174.617Z" fill="#42E8E0"></path><path opacity="0.4" d="M107.63 179.427L103.336 177.022L107.63 174.617L111.923 177.022L107.63 179.427Z" fill="#42E8E0"></path><path d="M116.216 184.236L111.922 181.831L116.216 179.427L120.51 181.831L116.216 184.236Z" fill="#42E8E0"></path><path d="M124.809 189.046L120.516 186.641L124.809 184.236L129.103 186.641L124.809 189.046Z" fill="#42E8E0"></path><path d="M133.395 193.856L129.102 191.451L133.395 189.046L137.689 191.451L133.395 193.856Z" fill="#42E8E0"></path><path opacity="0.1" d="M141.982 198.666L137.688 196.261L141.981 193.856L146.276 196.261L141.982 198.666Z" fill="#42E8E0"></path><path d="M64.6531 165.017L60.3594 162.612L64.6531 160.207L68.9469 162.612L64.6531 165.017Z" fill="#42E8E0"></path><path d="M73.239 169.827L68.9453 167.422L73.239 165.017L77.5328 167.422L73.239 169.827Z" fill="#42E8E0"></path><path d="M81.8328 174.637L77.5391 172.232L81.8328 169.827L86.1265 172.232L81.8328 174.637Z" fill="#42E8E0"></path><path d="M90.4109 179.446L86.1172 177.041L90.4109 174.637L94.7047 177.042L90.4109 179.446Z" fill="#42E8E0"></path><path d="M99.0056 184.255L94.7109 181.851L99.0047 179.446L103.299 181.851L99.0056 184.255Z" fill="#42E8E0"></path><path d="M107.591 189.065L103.297 186.66L107.591 184.255L111.884 186.66L107.591 189.065Z" fill="#42E8E0"></path><path d="M116.184 193.875L111.891 191.47L116.184 189.065L120.478 191.47L116.184 193.875Z" fill="#42E8E0"></path><path d="M124.77 198.685L120.477 196.28L124.77 193.875L129.064 196.28L124.77 198.685Z" fill="#42E8E0"></path><path d="M133.356 203.495L129.062 201.09L133.356 198.685L137.65 201.09L133.356 203.495Z" fill="#42E8E0"></path><path d="M56.029 169.846L51.7344 167.441L56.0281 165.036L60.3228 167.441L56.029 169.846Z" fill="#42E8E0"></path><path d="M64.614 174.656L60.3203 172.251L64.614 169.846L68.9078 172.251L64.614 174.656Z" fill="#42E8E0"></path><path d="M73.2078 179.466L68.9141 177.061L73.2078 174.656L77.5025 177.061L73.2078 179.466Z" fill="#42E8E0"></path><path opacity="0.1" d="M81.7859 184.275L77.4922 181.871L81.7859 179.466L86.0797 181.871L81.7859 184.275Z" fill="#42E8E0"></path><path opacity="0.4" d="M90.3797 189.085L86.0859 186.68L90.3797 184.275L94.6734 186.68L90.3797 189.085Z" fill="#42E8E0"></path><path opacity="0.4" d="M98.9665 193.895L94.6719 191.49L98.9656 189.085L103.26 191.49L98.9665 193.895Z" fill="#42E8E0"></path><path d="M107.559 198.704L103.266 196.299L107.559 193.895L111.853 196.3L107.559 198.704Z" fill="#42E8E0"></path><path d="M116.145 203.514L111.852 201.109L116.145 198.705L120.439 201.11L116.145 203.514Z" fill="#42E8E0"></path><path d="M124.731 208.324L120.438 205.919L124.731 203.514L129.025 205.919L124.731 208.324Z" fill="#42E8E0"></path><path opacity="0.4" d="M47.4109 174.675L43.1172 172.27L47.4109 169.865L51.7046 172.27L47.4109 174.675Z" fill="#42E8E0"></path><path opacity="0.4" d="M55.9978 179.485L51.7031 177.08L55.9969 174.676L60.2915 177.08L55.9978 179.485Z" fill="#42E8E0"></path><path opacity="0.1" d="M64.5906 184.295L60.2969 181.89L64.5906 179.485L68.8844 181.89L64.5906 184.295Z" fill="#42E8E0"></path><path d="M73.1687 189.104L68.875 186.699L73.1687 184.295L77.4625 186.699L73.1687 189.104Z" fill="#42E8E0"></path><path d="M81.7625 193.914L77.4688 191.509L81.7625 189.104L86.0562 191.509L81.7625 193.914Z" fill="#42E8E0"></path><path d="M90.3484 198.724L86.0547 196.319L90.3484 193.914L94.6422 196.319L90.3484 198.724Z" fill="#42E8E0"></path><path opacity="0.4" d="M98.9422 203.534L94.6484 201.129L98.9422 198.724L103.237 201.129L98.9422 203.534Z" fill="#42E8E0"></path><path d="M107.528 208.344L103.234 205.939L107.528 203.534L111.822 205.939L107.528 208.344Z" fill="#42E8E0"></path><path d="M116.114 213.154L111.82 210.749L116.114 208.344L120.408 210.749L116.114 213.154Z" fill="#42E8E0"></path><path d="M38.7781 179.505L34.4844 177.1L38.7781 174.695L43.0718 177.1L38.7781 179.505Z" fill="#42E8E0"></path><path d="M47.3641 184.315L43.0703 181.91L47.3641 179.505L51.6578 181.91L47.3641 184.315Z" fill="#42E8E0"></path><path d="M55.95 189.123L51.6562 186.719L55.95 184.315L60.2446 186.719L55.95 189.123Z" fill="#42E8E0"></path><path d="M64.5359 193.933L60.2422 191.528L64.5359 189.124L68.8296 191.528L64.5359 193.933Z" fill="#42E8E0"></path><path d="M73.1297 198.743L68.8359 196.338L73.1297 193.934L77.4234 196.338L73.1297 198.743Z" fill="#42E8E0"></path><path d="M81.7165 203.553L77.4219 201.148L81.7156 198.743L86.0103 201.148L81.7165 203.553Z" fill="#42E8E0"></path><path d="M90.3094 208.363L86.0156 205.958L90.3094 203.553L94.6031 205.958L90.3094 208.363Z" fill="#42E8E0"></path><path d="M98.8875 213.173L94.5938 210.768L98.8875 208.363L103.181 210.768L98.8875 213.173Z" fill="#42E8E0"></path><path d="M107.481 217.982L103.188 215.578L107.481 213.173L111.775 215.578L107.481 217.982Z" fill="#42E8E0"></path><path d="M30.1687 184.334L25.875 181.929L30.1687 179.524L34.4625 181.929L30.1687 184.334Z" fill="#42E8E0"></path><path d="M38.7556 189.143L34.4609 186.739L38.7547 184.334L43.0493 186.739L38.7556 189.143Z" fill="#42E8E0"></path><path opacity="0.4" d="M47.3484 193.953L43.0547 191.548L47.3484 189.143L51.6421 191.548L47.3484 193.953Z" fill="#42E8E0"></path><path d="M55.9266 198.763L51.6328 196.358L55.9266 193.953L60.2203 196.358L55.9266 198.763Z" fill="#42E8E0"></path><path opacity="0.1" d="M64.5212 203.573L60.2266 201.168L64.5212 198.763L68.815 201.168L64.5212 203.573Z" fill="#42E8E0"></path><path d="M73.1062 208.382L68.8125 205.978L73.1062 203.573L77.4 205.978L73.1062 208.382Z" fill="#42E8E0"></path><path d="M81.7009 213.192L77.4062 210.787L81.7 208.383L85.9947 210.788L81.7009 213.192Z" fill="#42E8E0"></path><path d="M90.2859 218.001L85.9922 215.597L90.2859 213.193L94.5796 215.597L90.2859 218.001Z" fill="#42E8E0"></path><path d="M98.8719 222.811L94.5781 220.406L98.8719 218.001L103.166 220.406L98.8719 222.811Z" fill="#42E8E0"></path><path d="M21.5447 189.163L17.25 186.758L21.5447 184.353L25.8384 186.759L21.5447 189.163Z" fill="#42E8E0"></path><path d="M30.1297 193.972L25.8359 191.567L30.1297 189.163L34.4234 191.567L30.1297 193.972Z" fill="#42E8E0"></path><path opacity="0.4" d="M38.7244 198.782L34.4297 196.377L38.7234 193.972L43.0181 196.377L38.7244 198.782Z" fill="#42E8E0"></path><path d="M47.3016 203.592L43.0078 201.187L47.3016 198.782L51.5953 201.187L47.3016 203.592Z" fill="#42E8E0"></path><path d="M55.8953 208.402L51.6016 205.997L55.8953 203.592L60.189 205.997L55.8953 208.402Z" fill="#42E8E0"></path><path opacity="0.1" d="M64.4812 213.212L60.1875 210.807L64.4812 208.402L68.775 210.807L64.4812 213.212Z" fill="#42E8E0"></path><path opacity="0.4" d="M73.075 218.022L68.7812 215.617L73.075 213.212L77.3687 215.617L73.075 218.022Z" fill="#42E8E0"></path><path d="M81.6609 222.831L77.3672 220.426L81.6609 218.021L85.9556 220.426L81.6609 222.831Z" fill="#42E8E0"></path><path opacity="0.1" d="M90.2469 227.641L85.9531 225.236L90.2469 222.831L94.5406 225.236L90.2469 227.641Z" fill="#42E8E0"></path><path d="M12.9109 193.992L8.61719 191.587L12.9109 189.183L17.2047 191.587L12.9109 193.992Z" fill="#42E8E0"></path><path opacity="0.4" d="M21.4978 198.802L17.2031 196.397L21.4978 193.992L25.7915 196.397L21.4978 198.802Z" fill="#42E8E0"></path><path d="M30.0906 203.611L25.7969 201.207L30.0906 198.802L34.3843 201.207L30.0906 203.611Z" fill="#42E8E0"></path><path d="M38.6687 208.421L34.375 206.016L38.6687 203.611L42.9634 206.017L38.6687 208.421Z" fill="#42E8E0"></path><path d="M47.2625 213.231L42.9688 210.826L47.2625 208.421L51.5562 210.826L47.2625 213.231Z" fill="#42E8E0"></path><path d="M55.8484 218.041L51.5547 215.636L55.8484 213.231L60.1422 215.636L55.8484 218.041Z" fill="#42E8E0"></path><path d="M64.4431 222.85L60.1484 220.445L64.4422 218.041L68.7368 220.445L64.4431 222.85Z" fill="#42E8E0"></path><path opacity="0.4" d="M73.0281 227.66L68.7344 225.255L73.0281 222.85L77.3219 225.255L73.0281 227.66Z" fill="#42E8E0"></path><path d="M81.614 232.47L77.3203 230.065L81.614 227.66L85.9078 230.065L81.614 232.47Z" fill="#42E8E0"></path><path d="M4.29374 198.821L0 196.416L4.29374 194.011L8.58747 196.416L4.29374 198.821Z" fill="#42E8E0"></path><path opacity="0.1" d="M12.8797 203.631L8.58594 201.226L12.8797 198.821L17.1734 201.226L12.8797 203.631Z" fill="#42E8E0"></path><path d="M21.4665 208.441L17.1719 206.036L21.4656 203.631L25.7603 206.036L21.4665 208.441Z" fill="#42E8E0"></path><path d="M30.0515 213.251L25.7578 210.846L30.0515 208.441L34.3453 210.846L30.0515 213.251Z" fill="#42E8E0"></path><path d="M38.6453 218.061L34.3516 215.656L38.6453 213.251L42.939 215.656L38.6453 218.061Z" fill="#42E8E0"></path><path d="M47.2322 222.87L42.9375 220.465L47.2322 218.061L51.5259 220.466L47.2322 222.87Z" fill="#42E8E0"></path><path opacity="0.4" d="M55.825 227.679L51.5312 225.275L55.825 222.87L60.1187 225.275L55.825 227.679Z" fill="#42E8E0"></path><path d="M64.4031 232.489L60.1094 230.084L64.4031 227.679L68.6969 230.084L64.4031 232.489Z" fill="#42E8E0"></path><path d="M72.9969 237.299L68.7031 234.894L72.9969 232.489L77.2906 234.894L72.9969 237.299Z" fill="#42E8E0"></path><path d="M225.943 160.187L221.648 157.782L225.942 155.378L230.237 157.782L225.943 160.187Z" fill="#42E8E0"></path><path opacity="0.1" d="M234.528 164.997L230.234 162.592L234.528 160.187L238.822 162.592L234.528 164.997Z" fill="#42E8E0"></path><path opacity="0.4" d="M243.122 169.807L238.828 167.402L243.122 164.997L247.416 167.402L243.122 169.807Z" fill="#42E8E0"></path><path d="M251.7 174.617L247.406 172.212L251.7 169.807L255.994 172.212L251.7 174.617Z" fill="#42E8E0"></path><path opacity="0.4" d="M260.294 179.427L256 177.022L260.294 174.617L264.587 177.022L260.294 179.427Z" fill="#42E8E0"></path><path d="M268.881 184.236L264.586 181.831L268.88 179.427L273.174 181.831L268.881 184.236Z" fill="#42E8E0"></path><path d="M277.473 189.046L273.18 186.641L277.473 184.236L281.767 186.641L277.473 189.046Z" fill="#42E8E0"></path><path d="M286.059 193.856L281.766 191.451L286.059 189.046L290.353 191.451L286.059 193.856Z" fill="#42E8E0"></path><path opacity="0.1" d="M294.645 198.666L290.352 196.261L294.645 193.856L298.939 196.261L294.645 198.666Z" fill="#42E8E0"></path><path d="M217.317 165.017L213.023 162.612L217.317 160.207L221.611 162.612L217.317 165.017Z" fill="#42E8E0"></path><path d="M225.904 169.827L221.609 167.422L225.903 165.017L230.198 167.422L225.904 169.827Z" fill="#42E8E0"></path><path d="M234.497 174.637L230.203 172.232L234.497 169.827L238.791 172.232L234.497 174.637Z" fill="#42E8E0"></path><path d="M243.075 179.446L238.781 177.041L243.075 174.637L247.369 177.042L243.075 179.446Z" fill="#42E8E0"></path><path d="M251.669 184.255L247.375 181.851L251.669 179.446L255.962 181.851L251.669 184.255Z" fill="#42E8E0"></path><path d="M260.255 189.065L255.961 186.66L260.255 184.255L264.548 186.66L260.255 189.065Z" fill="#42E8E0"></path><path d="M268.848 193.875L264.555 191.47L268.848 189.065L273.143 191.47L268.848 193.875Z" fill="#42E8E0"></path><path d="M277.434 198.685L273.141 196.28L277.434 193.875L281.728 196.28L277.434 198.685Z" fill="#42E8E0"></path><path d="M286.02 203.495L281.727 201.09L286.02 198.685L290.314 201.09L286.02 203.495Z" fill="#42E8E0"></path><path d="M208.692 169.846L204.398 167.441L208.692 165.036L212.986 167.441L208.692 169.846Z" fill="#42E8E0"></path><path d="M217.278 174.656L212.984 172.251L217.278 169.846L221.572 172.251L217.278 174.656Z" fill="#42E8E0"></path><path d="M225.864 179.466L221.57 177.061L225.864 174.656L230.159 177.061L225.864 179.466Z" fill="#42E8E0"></path><path opacity="0.1" d="M234.45 184.275L230.156 181.871L234.45 179.466L238.744 181.871L234.45 184.275Z" fill="#42E8E0"></path><path opacity="0.4" d="M243.044 189.085L238.75 186.68L243.044 184.275L247.337 186.68L243.044 189.085Z" fill="#42E8E0"></path><path opacity="0.4" d="M251.631 193.895L247.336 191.49L251.63 189.085L255.924 191.49L251.631 193.895Z" fill="#42E8E0"></path><path d="M260.223 198.704L255.93 196.299L260.223 193.895L264.517 196.3L260.223 198.704Z" fill="#42E8E0"></path><path d="M268.802 203.514L264.508 201.109L268.802 198.705L273.095 201.11L268.802 203.514Z" fill="#42E8E0"></path><path d="M277.395 208.324L273.102 205.919L277.395 203.514L281.689 205.919L277.395 208.324Z" fill="#42E8E0"></path><path opacity="0.4" d="M200.083 174.675L195.789 172.27L200.083 169.865L204.377 172.27L200.083 174.675Z" fill="#42E8E0"></path><path opacity="0.4" d="M208.67 179.485L204.375 177.08L208.669 174.676L212.963 177.08L208.67 179.485Z" fill="#42E8E0"></path><path opacity="0.1" d="M217.262 184.295L212.969 181.89L217.262 179.485L221.556 181.89L217.262 184.295Z" fill="#42E8E0"></path><path d="M225.841 189.104L221.547 186.699L225.841 184.295L230.134 186.699L225.841 189.104Z" fill="#42E8E0"></path><path d="M234.435 193.914L230.141 191.509L234.435 189.104L238.729 191.509L234.435 193.914Z" fill="#42E8E0"></path><path d="M243.02 198.724L238.727 196.319L243.02 193.914L247.314 196.319L243.02 198.724Z" fill="#42E8E0"></path><path opacity="0.4" d="M251.615 203.534L247.32 201.129L251.614 198.724L255.909 201.129L251.615 203.534Z" fill="#42E8E0"></path><path d="M260.2 208.344L255.906 205.939L260.2 203.534L264.494 205.939L260.2 208.344Z" fill="#42E8E0"></path><path d="M268.786 213.153L264.492 210.749L268.786 208.344L273.08 210.749L268.786 213.153Z" fill="#42E8E0"></path><path d="M191.451 179.505L187.156 177.1L191.451 174.695L195.745 177.1L191.451 179.505Z" fill="#42E8E0"></path><path d="M200.036 184.315L195.742 181.91L200.036 179.505L204.33 181.91L200.036 184.315Z" fill="#42E8E0"></path><path d="M208.631 189.123L204.336 186.719L208.63 184.315L212.923 186.719L208.631 189.123Z" fill="#42E8E0"></path><path d="M217.208 193.933L212.914 191.528L217.208 189.124L221.502 191.528L217.208 193.933Z" fill="#42E8E0"></path><path d="M225.802 198.743L221.508 196.338L225.802 193.934L230.095 196.338L225.802 198.743Z" fill="#42E8E0"></path><path d="M234.388 203.553L230.094 201.148L234.388 198.743L238.682 201.148L234.388 203.553Z" fill="#42E8E0"></path><path d="M242.981 208.363L238.688 205.958L242.981 203.553L247.275 205.958L242.981 208.363Z" fill="#42E8E0"></path><path d="M251.567 213.173L247.273 210.768L251.567 208.363L255.862 210.768L251.567 213.173Z" fill="#42E8E0"></path><path d="M260.153 217.982L255.859 215.578L260.153 213.173L264.447 215.578L260.153 217.982Z" fill="#42E8E0"></path><path d="M182.833 184.334L178.539 181.929L182.833 179.524L187.127 181.929L182.833 184.334Z" fill="#42E8E0"></path><path d="M191.42 189.143L187.125 186.739L191.42 184.334L195.713 186.739L191.42 189.143Z" fill="#42E8E0"></path><path opacity="0.4" d="M200.012 193.953L195.719 191.548L200.012 189.143L204.306 191.548L200.012 193.953Z" fill="#42E8E0"></path><path d="M208.591 198.763L204.297 196.358L208.591 193.953L212.885 196.358L208.591 198.763Z" fill="#42E8E0"></path><path opacity="0.1" d="M217.184 203.573L212.891 201.168L217.184 198.763L221.478 201.168L217.184 203.573Z" fill="#42E8E0"></path><path d="M225.77 208.382L221.477 205.978L225.77 203.573L230.064 205.978L225.77 208.382Z" fill="#42E8E0"></path><path d="M234.365 213.192L230.07 210.787L234.364 208.383L238.659 210.788L234.365 213.192Z" fill="#42E8E0"></path><path d="M242.95 218.001L238.656 215.597L242.95 213.193L247.244 215.597L242.95 218.001Z" fill="#42E8E0"></path><path d="M251.536 222.811L247.242 220.406L251.536 218.002L255.83 220.406L251.536 222.811Z" fill="#42E8E0"></path><path d="M174.208 189.163L169.914 186.758L174.208 184.353L178.502 186.759L174.208 189.163Z" fill="#42E8E0"></path><path d="M182.794 193.972L178.5 191.567L182.794 189.163L187.087 191.567L182.794 193.972Z" fill="#42E8E0"></path><path opacity="0.4" d="M191.381 198.782L187.086 196.377L191.38 193.972L195.674 196.377L191.381 198.782Z" fill="#42E8E0"></path><path d="M199.966 203.592L195.672 201.187L199.966 198.782L204.259 201.187L199.966 203.592Z" fill="#42E8E0"></path><path d="M208.559 208.402L204.266 205.997L208.559 203.592L212.853 205.997L208.559 208.402Z" fill="#42E8E0"></path><path opacity="0.1" d="M217.146 213.212L212.852 210.807L217.146 208.402L221.44 210.807L217.146 213.212Z" fill="#42E8E0"></path><path opacity="0.4" d="M225.739 218.022L221.445 215.617L225.739 213.212L230.033 215.617L225.739 218.022Z" fill="#42E8E0"></path><path d="M234.317 222.831L230.023 220.426L234.317 218.021L238.611 220.426L234.317 222.831Z" fill="#42E8E0"></path><path opacity="0.1" d="M242.911 227.641L238.617 225.236L242.911 222.831L247.205 225.236L242.911 227.641Z" fill="#42E8E0"></path><path d="M165.575 193.992L161.281 191.587L165.575 189.183L169.869 191.587L165.575 193.992Z" fill="#42E8E0"></path><path opacity="0.4" d="M174.162 198.802L169.867 196.397L174.161 193.992L178.456 196.397L174.162 198.802Z" fill="#42E8E0"></path><path d="M182.755 203.611L178.461 201.207L182.755 198.802L187.048 201.207L182.755 203.611Z" fill="#42E8E0"></path><path d="M191.333 208.421L187.039 206.016L191.333 203.611L195.627 206.017L191.333 208.421Z" fill="#42E8E0"></path><path d="M199.927 213.231L195.633 210.826L199.927 208.421L204.22 210.826L199.927 213.231Z" fill="#42E8E0"></path><path d="M208.512 218.041L204.219 215.636L208.512 213.231L212.806 215.636L208.512 218.041Z" fill="#42E8E0"></path><path d="M217.107 222.85L212.812 220.445L217.106 218.041L221.401 220.445L217.107 222.85Z" fill="#42E8E0"></path><path opacity="0.4" d="M225.692 227.66L221.398 225.255L225.692 222.85L229.986 225.255L225.692 227.66Z" fill="#42E8E0"></path><path d="M234.278 232.47L229.984 230.065L234.278 227.66L238.572 230.065L234.278 232.47Z" fill="#42E8E0"></path><path d="M156.958 198.821L152.664 196.416L156.958 194.011L161.252 196.416L156.958 198.821Z" fill="#42E8E0"></path><path opacity="0.1" d="M165.544 203.631L161.25 201.226L165.544 198.821L169.837 201.226L165.544 203.631Z" fill="#42E8E0"></path><path d="M174.131 208.441L169.836 206.036L174.13 203.631L178.424 206.036L174.131 208.441Z" fill="#42E8E0"></path><path d="M182.716 213.251L178.422 210.846L182.716 208.441L187.009 210.846L182.716 213.251Z" fill="#42E8E0"></path><path d="M191.309 218.061L187.016 215.656L191.309 213.251L195.603 215.656L191.309 218.061Z" fill="#42E8E0"></path><path d="M199.895 222.87L195.602 220.465L199.895 218.061L204.189 220.466L199.895 222.87Z" fill="#42E8E0"></path><path opacity="0.4" d="M208.489 227.679L204.195 225.275L208.489 222.87L212.783 225.275L208.489 227.679Z" fill="#42E8E0"></path><path d="M217.068 232.489L212.773 230.084L217.067 227.679L221.362 230.084L217.068 232.489Z" fill="#42E8E0"></path><path d="M225.661 237.299L221.367 234.894L225.661 232.489L229.955 234.894L225.661 237.299Z" fill="#42E8E0"></path><path d="M149.794 116.744L145.5 114.339L149.794 111.934L154.087 114.339L149.794 116.744Z" fill="#42E8E0"></path><path opacity="0.1" d="M158.38 121.554L154.086 119.149L158.38 116.744L162.674 119.149L158.38 121.554Z" fill="#42E8E0"></path><path opacity="0.4" d="M166.973 126.364L162.68 123.959L166.973 121.554L171.267 123.959L166.973 126.364Z" fill="#42E8E0"></path><path d="M175.552 131.174L171.258 128.769L175.552 126.364L179.845 128.769L175.552 131.174Z" fill="#42E8E0"></path><path opacity="0.4" d="M184.146 135.984L179.852 133.579L184.145 131.174L188.44 133.579L184.146 135.984Z" fill="#42E8E0"></path><path d="M192.731 140.792L188.438 138.388L192.731 135.984L197.025 138.388L192.731 140.792Z" fill="#42E8E0"></path><path d="M201.325 145.602L197.031 143.197L201.325 140.793L205.619 143.197L201.325 145.602Z" fill="#42E8E0"></path><path d="M209.911 150.412L205.617 148.007L209.911 145.603L214.205 148.007L209.911 150.412Z" fill="#42E8E0"></path><path opacity="0.1" d="M218.497 155.222L214.203 152.817L218.497 150.412L222.791 152.817L218.497 155.222Z" fill="#42E8E0"></path><path d="M141.17 121.573L136.875 119.168L141.169 116.763L145.463 119.168L141.17 121.573Z" fill="#42E8E0"></path><path d="M149.755 126.383L145.461 123.978L149.755 121.573L154.048 123.978L149.755 126.383Z" fill="#42E8E0"></path><path d="M158.348 131.193L154.055 128.788L158.348 126.383L162.642 128.788L158.348 131.193Z" fill="#42E8E0"></path><path d="M166.927 136.003L162.633 133.598L166.927 131.193L171.22 133.598L166.927 136.003Z" fill="#42E8E0"></path><path d="M175.52 140.812L171.227 138.408L175.52 136.003L179.814 138.408L175.52 140.812Z" fill="#42E8E0"></path><path d="M184.107 145.622L179.812 143.217L184.106 140.812L188.401 143.217L184.107 145.622Z" fill="#42E8E0"></path><path d="M192.7 150.432L188.406 148.027L192.7 145.622L196.994 148.027L192.7 150.432Z" fill="#42E8E0"></path><path d="M201.286 155.242L196.992 152.837L201.286 150.432L205.58 152.837L201.286 155.242Z" fill="#42E8E0"></path><path d="M209.872 160.051L205.578 157.647L209.872 155.242L214.166 157.647L209.872 160.051Z" fill="#42E8E0"></path><path d="M132.544 126.403L128.25 123.998L132.544 121.593L136.837 123.998L132.544 126.403Z" fill="#42E8E0"></path><path d="M141.131 131.213L136.836 128.808L141.13 126.403L145.424 128.808L141.131 131.213Z" fill="#42E8E0"></path><path d="M149.723 136.022L145.43 133.617L149.723 131.213L154.017 133.617L149.723 136.022Z" fill="#42E8E0"></path><path opacity="0.1" d="M158.302 140.832L154.008 138.427L158.302 136.022L162.595 138.427L158.302 140.832Z" fill="#42E8E0"></path><path opacity="0.4" d="M166.895 145.641L162.602 143.236L166.895 140.832L171.189 143.236L166.895 145.641Z" fill="#42E8E0"></path><path opacity="0.4" d="M175.481 150.451L171.188 148.046L175.481 145.641L179.775 148.046L175.481 150.451Z" fill="#42E8E0"></path><path d="M184.075 155.261L179.781 152.856L184.075 150.451L188.37 152.856L184.075 155.261Z" fill="#42E8E0"></path><path d="M192.661 160.071L188.367 157.666L192.661 155.261L196.955 157.666L192.661 160.071Z" fill="#42E8E0"></path><path d="M201.247 164.881L196.953 162.476L201.247 160.071L205.541 162.476L201.247 164.881Z" fill="#42E8E0"></path><path opacity="0.4" d="M123.934 131.232L119.641 128.827L123.934 126.422L128.228 128.827L123.934 131.232Z" fill="#42E8E0"></path><path opacity="0.4" d="M132.52 136.042L128.227 133.637L132.52 131.232L136.814 133.637L132.52 136.042Z" fill="#42E8E0"></path><path opacity="0.1" d="M141.106 140.852L136.812 138.447L141.106 136.042L145.401 138.447L141.106 140.852Z" fill="#42E8E0"></path><path d="M149.692 145.661L145.398 143.256L149.692 140.852L153.986 143.256L149.692 145.661Z" fill="#42E8E0"></path><path d="M158.286 150.471L153.992 148.066L158.286 145.661L162.58 148.066L158.286 150.471Z" fill="#42E8E0"></path><path d="M166.873 155.28L162.578 152.875L166.872 150.471L171.167 152.876L166.873 155.28Z" fill="#42E8E0"></path><path opacity="0.4" d="M175.466 160.09L171.172 157.685L175.466 155.281L179.759 157.686L175.466 160.09Z" fill="#42E8E0"></path><path d="M184.044 164.9L179.75 162.495L184.044 160.09L188.337 162.495L184.044 164.9Z" fill="#42E8E0"></path><path d="M192.637 169.71L188.344 167.305L192.637 164.9L196.931 167.305L192.637 169.71Z" fill="#42E8E0"></path><path d="M115.302 136.061L111.008 133.656L115.302 131.251L119.595 133.656L115.302 136.061Z" fill="#42E8E0"></path><path d="M123.888 140.871L119.594 138.466L123.887 136.061L128.182 138.466L123.888 140.871Z" fill="#42E8E0"></path><path d="M132.481 145.68L128.188 143.276L132.481 140.871L136.775 143.276L132.481 145.68Z" fill="#42E8E0"></path><path d="M141.059 150.49L136.766 148.085L141.059 145.68L145.353 148.085L141.059 150.49Z" fill="#42E8E0"></path><path d="M149.654 155.3L145.359 152.895L149.654 150.49L153.948 152.895L149.654 155.3Z" fill="#42E8E0"></path><path d="M158.239 160.11L153.945 157.705L158.239 155.3L162.533 157.705L158.239 160.11Z" fill="#42E8E0"></path><path d="M166.833 164.92L162.539 162.515L166.833 160.11L171.127 162.515L166.833 164.92Z" fill="#42E8E0"></path><path d="M175.419 169.73L171.125 167.325L175.419 164.92L179.712 167.325L175.419 169.73Z" fill="#42E8E0"></path><path d="M184.005 174.539L179.711 172.134L184.005 169.73L188.298 172.135L184.005 174.539Z" fill="#42E8E0"></path><path d="M106.685 140.891L102.391 138.486L106.685 136.081L110.979 138.486L106.685 140.891Z" fill="#42E8E0"></path><path d="M115.27 145.7L110.977 143.296L115.27 140.891L119.564 143.296L115.27 145.7Z" fill="#42E8E0"></path><path opacity="0.4" d="M123.864 150.509L119.57 148.104L123.864 145.7L128.158 148.104L123.864 150.509Z" fill="#42E8E0"></path><path d="M132.442 155.319L128.148 152.914L132.442 150.509L136.736 152.914L132.442 155.319Z" fill="#42E8E0"></path><path opacity="0.1" d="M141.036 160.129L136.742 157.724L141.036 155.319L145.33 157.724L141.036 160.129Z" fill="#42E8E0"></path><path d="M149.623 164.939L145.328 162.534L149.622 160.129L153.917 162.534L149.623 164.939Z" fill="#42E8E0"></path><path d="M158.216 169.749L153.922 167.344L158.216 164.939L162.509 167.344L158.216 169.749Z" fill="#42E8E0"></path><path d="M166.802 174.559L162.508 172.154L166.802 169.749L171.096 172.154L166.802 174.559Z" fill="#42E8E0"></path><path d="M175.387 179.368L171.094 176.963L175.387 174.559L179.681 176.963L175.387 179.368Z" fill="#42E8E0"></path><path d="M98.0594 145.719L93.7656 143.314L98.0594 140.91L102.353 143.314L98.0594 145.719Z" fill="#42E8E0"></path><path d="M106.646 150.529L102.352 148.124L106.645 145.719L110.94 148.124L106.646 150.529Z" fill="#42E8E0"></path><path opacity="0.4" d="M115.239 155.339L110.945 152.934L115.239 150.529L119.533 152.934L115.239 155.339Z" fill="#42E8E0"></path><path d="M123.817 160.149L119.523 157.744L123.817 155.339L128.112 157.744L123.817 160.149Z" fill="#42E8E0"></path><path d="M132.411 164.958L128.117 162.554L132.411 160.149L136.705 162.554L132.411 164.958Z" fill="#42E8E0"></path><path opacity="0.1" d="M140.997 169.768L136.703 167.363L140.997 164.959L145.291 167.364L140.997 169.768Z" fill="#42E8E0"></path><path opacity="0.4" d="M149.592 174.577L145.297 172.172L149.591 169.768L153.885 172.172L149.592 174.577Z" fill="#42E8E0"></path><path d="M158.177 179.387L153.883 176.982L158.177 174.577L162.47 176.982L158.177 179.387Z" fill="#42E8E0"></path><path opacity="0.1" d="M166.762 184.197L162.469 181.792L166.762 179.387L171.056 181.792L166.762 184.197Z" fill="#42E8E0"></path><path d="M89.4344 150.548L85.1406 148.144L89.4344 145.739L93.7281 148.144L89.4344 150.548Z" fill="#42E8E0"></path><path opacity="0.4" d="M98.0203 155.358L93.7266 152.953L98.0203 150.548L102.314 152.953L98.0203 155.358Z" fill="#42E8E0"></path><path d="M106.607 160.168L102.312 157.763L106.606 155.358L110.901 157.763L106.607 160.168Z" fill="#42E8E0"></path><path d="M115.192 164.978L110.898 162.573L115.192 160.168L119.486 162.573L115.192 164.978Z" fill="#42E8E0"></path><path d="M123.786 169.788L119.492 167.383L123.786 164.978L128.08 167.383L123.786 169.788Z" fill="#42E8E0"></path><path d="M132.373 174.598L128.078 172.193L132.373 169.788L136.667 172.193L132.373 174.598Z" fill="#42E8E0"></path><path d="M140.966 179.407L136.672 177.003L140.966 174.598L145.259 177.003L140.966 179.407Z" fill="#42E8E0"></path><path opacity="0.4" d="M149.544 184.216L145.25 181.812L149.544 179.407L153.837 181.812L149.544 184.216Z" fill="#42E8E0"></path><path d="M158.137 189.026L153.844 186.622L158.137 184.217L162.431 186.622L158.137 189.026Z" fill="#42E8E0"></path><path d="M80.8094 155.378L76.5156 152.973L80.8094 150.568L85.1031 152.973L80.8094 155.378Z" fill="#42E8E0"></path><path opacity="0.1" d="M89.3962 160.187L85.1016 157.782L89.3962 155.378L93.69 157.782L89.3962 160.187Z" fill="#42E8E0"></path><path d="M97.989 164.997L93.6953 162.592L97.989 160.187L102.283 162.592L97.989 164.997Z" fill="#42E8E0"></path><path d="M106.567 169.807L102.273 167.402L106.567 164.997L110.861 167.402L106.567 169.807Z" fill="#42E8E0"></path><path d="M115.161 174.617L110.867 172.212L115.161 169.807L119.455 172.212L115.161 174.617Z" fill="#42E8E0"></path><path d="M123.747 179.427L119.453 177.022L123.747 174.617L128.041 177.022L123.747 179.427Z" fill="#42E8E0"></path><path opacity="0.4" d="M132.342 184.236L128.047 181.831L132.341 179.427L136.635 181.831L132.342 184.236Z" fill="#42E8E0"></path><path d="M140.927 189.046L136.633 186.641L140.927 184.236L145.22 186.641L140.927 189.046Z" fill="#42E8E0"></path><path d="M149.512 193.856L145.219 191.451L149.512 189.046L153.806 191.451L149.512 193.856Z" fill="#42E8E0"></path><path d="M149.794 203.475L145.5 201.071L149.794 198.666L154.087 201.071L149.794 203.475Z" fill="#42E8E0"></path><path opacity="0.1" d="M158.38 208.285L154.086 205.88L158.38 203.476L162.674 205.881L158.38 208.285Z" fill="#42E8E0"></path><path opacity="0.4" d="M166.973 213.094L162.68 210.689L166.973 208.285L171.267 210.689L166.973 213.094Z" fill="#42E8E0"></path><path d="M175.552 217.904L171.258 215.499L175.552 213.094L179.845 215.499L175.552 217.904Z" fill="#42E8E0"></path><path opacity="0.4" d="M184.146 222.714L179.852 220.309L184.145 217.904L188.44 220.309L184.146 222.714Z" fill="#42E8E0"></path><path d="M192.731 227.524L188.438 225.119L192.731 222.714L197.025 225.119L192.731 227.524Z" fill="#42E8E0"></path><path d="M201.325 232.334L197.031 229.929L201.325 227.524L205.619 229.929L201.325 232.334Z" fill="#42E8E0"></path><path d="M209.911 237.144L205.617 234.739L209.911 232.334L214.205 234.739L209.911 237.144Z" fill="#42E8E0"></path><path opacity="0.1" d="M218.497 241.953L214.203 239.548L218.497 237.144L222.791 239.548L218.497 241.953Z" fill="#42E8E0"></path><path d="M141.17 208.305L136.875 205.9L141.169 203.495L145.463 205.9L141.17 208.305Z" fill="#42E8E0"></path><path d="M149.755 213.114L145.461 210.709L149.755 208.305L154.048 210.709L149.755 213.114Z" fill="#42E8E0"></path><path d="M158.348 217.924L154.055 215.519L158.348 213.114L162.642 215.519L158.348 217.924Z" fill="#42E8E0"></path><path d="M166.927 222.733L162.633 220.329L166.927 217.924L171.22 220.329L166.927 222.733Z" fill="#42E8E0"></path><path d="M175.52 227.543L171.227 225.139L175.52 222.734L179.814 225.139L175.52 227.543Z" fill="#42E8E0"></path><path d="M184.107 232.353L179.812 229.948L184.106 227.544L188.401 229.948L184.107 232.353Z" fill="#42E8E0"></path><path d="M192.7 237.163L188.406 234.758L192.7 232.353L196.994 234.758L192.7 237.163Z" fill="#42E8E0"></path><path d="M201.286 241.972L196.992 239.568L201.286 237.163L205.58 239.568L201.286 241.972Z" fill="#42E8E0"></path><path d="M209.872 246.782L205.578 244.377L209.872 241.972L214.166 244.377L209.872 246.782Z" fill="#42E8E0"></path><path d="M132.544 213.133L128.25 210.729L132.544 208.324L136.837 210.729L132.544 213.133Z" fill="#42E8E0"></path><path d="M141.131 217.943L136.836 215.538L141.13 213.133L145.424 215.538L141.131 217.943Z" fill="#42E8E0"></path><path d="M149.723 222.753L145.43 220.348L149.723 217.943L154.017 220.348L149.723 222.753Z" fill="#42E8E0"></path><path opacity="0.1" d="M158.302 227.563L154.008 225.158L158.302 222.753L162.595 225.158L158.302 227.563Z" fill="#42E8E0"></path><path opacity="0.4" d="M166.895 232.373L162.602 229.968L166.895 227.563L171.189 229.968L166.895 232.373Z" fill="#42E8E0"></path><path opacity="0.4" d="M175.481 237.183L171.188 234.778L175.481 232.373L179.775 234.778L175.481 237.183Z" fill="#42E8E0"></path><path d="M184.075 241.992L179.781 239.588L184.075 237.183L188.37 239.588L184.075 241.992Z" fill="#42E8E0"></path><path d="M192.661 246.802L188.367 244.397L192.661 241.992L196.955 244.397L192.661 246.802Z" fill="#42E8E0"></path><path d="M201.247 251.611L196.953 249.206L201.247 246.802L205.541 249.206L201.247 251.611Z" fill="#42E8E0"></path><path opacity="0.4" d="M123.934 217.962L119.641 215.558L123.934 213.154L128.228 215.558L123.934 217.962Z" fill="#42E8E0"></path><path opacity="0.4" d="M132.52 222.772L128.227 220.367L132.52 217.962L136.814 220.368L132.52 222.772Z" fill="#42E8E0"></path><path opacity="0.1" d="M141.106 227.582L136.812 225.177L141.106 222.772L145.401 225.177L141.106 227.582Z" fill="#42E8E0"></path><path d="M149.692 232.392L145.398 229.987L149.692 227.582L153.986 229.987L149.692 232.392Z" fill="#42E8E0"></path><path d="M158.286 237.202L153.992 234.797L158.286 232.392L162.58 234.797L158.286 237.202Z" fill="#42E8E0"></path><path d="M166.873 242.012L162.578 239.607L166.872 237.202L171.167 239.607L166.873 242.012Z" fill="#42E8E0"></path><path opacity="0.4" d="M175.466 246.821L171.172 244.416L175.466 242.012L179.759 244.416L175.466 246.821Z" fill="#42E8E0"></path><path d="M184.044 251.631L179.75 249.226L184.044 246.821L188.337 249.226L184.044 251.631Z" fill="#42E8E0"></path><path d="M192.637 256.441L188.344 254.036L192.637 251.631L196.931 254.036L192.637 256.441Z" fill="#42E8E0"></path><path d="M115.302 222.792L111.008 220.387L115.302 217.982L119.595 220.387L115.302 222.792Z" fill="#42E8E0"></path><path d="M123.888 227.602L119.594 225.197L123.887 222.792L128.182 225.197L123.888 227.602Z" fill="#42E8E0"></path><path d="M132.481 232.412L128.188 230.007L132.481 227.602L136.775 230.007L132.481 232.412Z" fill="#42E8E0"></path><path d="M141.059 237.221L136.766 234.816L141.059 232.412L145.353 234.817L141.059 237.221Z" fill="#42E8E0"></path><path d="M149.654 242.031L145.359 239.626L149.654 237.222L153.948 239.627L149.654 242.031Z" fill="#42E8E0"></path><path d="M158.239 246.84L153.945 244.436L158.239 242.031L162.533 244.436L158.239 246.84Z" fill="#42E8E0"></path><path d="M166.833 251.65L162.539 249.245L166.833 246.84L171.127 249.245L166.833 251.65Z" fill="#42E8E0"></path><path d="M175.419 256.46L171.125 254.055L175.419 251.65L179.712 254.055L175.419 256.46Z" fill="#42E8E0"></path><path d="M184.005 261.27L179.711 258.865L184.005 256.46L188.298 258.865L184.005 261.27Z" fill="#42E8E0"></path><path d="M106.685 227.621L102.391 225.216L106.685 222.811L110.979 225.216L106.685 227.621Z" fill="#42E8E0"></path><path d="M115.27 232.431L110.977 230.026L115.27 227.621L119.564 230.026L115.27 232.431Z" fill="#42E8E0"></path><path opacity="0.4" d="M123.864 237.241L119.57 234.836L123.864 232.431L128.158 234.836L123.864 237.241Z" fill="#42E8E0"></path><path d="M132.442 242.051L128.148 239.646L132.442 237.241L136.736 239.646L132.442 242.051Z" fill="#42E8E0"></path><path opacity="0.1" d="M141.036 246.86L136.742 244.456L141.036 242.051L145.33 244.456L141.036 246.86Z" fill="#42E8E0"></path><path d="M149.623 251.67L145.328 249.265L149.622 246.86L153.917 249.265L149.623 251.67Z" fill="#42E8E0"></path><path d="M158.216 256.479L153.922 254.075L158.216 251.67L162.509 254.075L158.216 256.479Z" fill="#42E8E0"></path><path d="M166.802 261.289L162.508 258.885L166.802 256.48L171.096 258.885L166.802 261.289Z" fill="#42E8E0"></path><path d="M175.387 266.099L171.094 263.694L175.387 261.289L179.681 263.695L175.387 266.099Z" fill="#42E8E0"></path><path d="M98.0594 232.45L93.7656 230.045L98.0594 227.641L102.353 230.045L98.0594 232.45Z" fill="#42E8E0"></path><path d="M106.646 237.26L102.352 234.855L106.645 232.451L110.94 234.855L106.646 237.26Z" fill="#42E8E0"></path><path opacity="0.4" d="M115.239 242.07L110.945 239.665L115.239 237.26L119.533 239.665L115.239 242.07Z" fill="#42E8E0"></path><path d="M123.817 246.88L119.523 244.475L123.817 242.07L128.112 244.475L123.817 246.88Z" fill="#42E8E0"></path><path d="M132.411 251.689L128.117 249.284L132.411 246.88L136.705 249.284L132.411 251.689Z" fill="#42E8E0"></path><path opacity="0.1" d="M140.997 256.499L136.703 254.094L140.997 251.689L145.291 254.094L140.997 256.499Z" fill="#42E8E0"></path><path opacity="0.4" d="M149.592 261.309L145.297 258.904L149.591 256.499L153.885 258.904L149.592 261.309Z" fill="#42E8E0"></path><path d="M158.177 266.119L153.883 263.714L158.177 261.309L162.47 263.714L158.177 266.119Z" fill="#42E8E0"></path><path opacity="0.1" d="M166.762 270.929L162.469 268.524L166.762 266.119L171.056 268.524L166.762 270.929Z" fill="#42E8E0"></path><path d="M89.4344 237.28L85.1406 234.875L89.4344 232.47L93.7281 234.875L89.4344 237.28Z" fill="#42E8E0"></path><path opacity="0.4" d="M98.0203 242.09L93.7266 239.685L98.0203 237.28L102.314 239.685L98.0203 242.09Z" fill="#42E8E0"></path><path d="M106.607 246.899L102.312 244.495L106.606 242.09L110.901 244.495L106.607 246.899Z" fill="#42E8E0"></path><path d="M115.192 251.708L110.898 249.304L115.192 246.9L119.486 249.304L115.192 251.708Z" fill="#42E8E0"></path><path d="M123.786 256.518L119.492 254.113L123.786 251.709L128.08 254.113L123.786 256.518Z" fill="#42E8E0"></path><path d="M132.373 261.328L128.078 258.923L132.373 256.518L136.667 258.923L132.373 261.328Z" fill="#42E8E0"></path><path d="M140.966 266.138L136.672 263.733L140.966 261.328L145.259 263.733L140.966 266.138Z" fill="#42E8E0"></path><path opacity="0.4" d="M149.544 270.948L145.25 268.543L149.544 266.138L153.837 268.543L149.544 270.948Z" fill="#42E8E0"></path><path d="M158.137 275.758L153.844 273.353L158.137 270.948L162.431 273.353L158.137 275.758Z" fill="#42E8E0"></path><path d="M80.8094 242.109L76.5156 239.704L80.8094 237.299L85.1031 239.704L80.8094 242.109Z" fill="#42E8E0"></path><path opacity="0.1" d="M89.3962 246.919L85.1016 244.514L89.3962 242.109L93.69 244.514L89.3962 246.919Z" fill="#42E8E0"></path><path d="M97.989 251.729L93.6953 249.324L97.989 246.919L102.283 249.324L97.989 251.729Z" fill="#42E8E0"></path><path d="M106.567 256.538L102.273 254.133L106.567 251.728L110.861 254.133L106.567 256.538Z" fill="#42E8E0"></path><path d="M115.161 261.348L110.867 258.943L115.161 256.538L119.455 258.943L115.161 261.348Z" fill="#42E8E0"></path><path d="M123.747 266.158L119.453 263.753L123.747 261.348L128.041 263.753L123.747 266.158Z" fill="#42E8E0"></path><path opacity="0.4" d="M132.342 270.968L128.047 268.562L132.341 266.158L136.635 268.563L132.342 270.968Z" fill="#42E8E0"></path><path d="M140.927 275.777L136.633 273.372L140.927 270.968L145.22 273.372L140.927 275.777Z" fill="#42E8E0"></path><path d="M149.512 280.587L145.219 278.182L149.512 275.778L153.806 278.182L149.512 280.587Z" fill="#42E8E0"></path></g><path d="M149.472 81.8398L91.0625 49.1275L149.47 16.4161L207.878 49.1284L149.472 81.8398Z" fill="#BCBEFF"></path><path opacity="0.7" d="M149.476 77.1654L99.4141 49.1275L149.475 21.0896L199.537 49.1284L149.476 77.1654Z" fill="#453C9E"></path><path d="M149.472 207.407L91.0625 174.695L149.47 141.983L207.878 174.696L149.472 207.407Z" fill="white"></path><path d="M207.883 49.1284V174.696L149.477 207.407V81.8398L207.883 49.1284Z" fill="url(#paint7_linear_2288_197542)"></path><path d="M91.0625 49.1275V174.695L149.472 207.407V81.8398L91.0625 49.1275Z" fill="#24126A"></path><g opacity="0.51"><path d="M95.0156 57.4579V170.322L145.51 198.603V85.7385L95.0156 57.4579Z" fill="#453C9E"></path></g><path d="M199.119 79.4664V82.7851L158.234 105.683V102.364L199.119 79.4664Z" fill="#453C9E"></path><path d="M199.119 93.4997V96.8184L158.234 119.716V116.398L199.119 93.4997Z" fill="#453C9E"></path><path d="M199.119 107.533V110.851L158.234 133.75V130.431L199.119 107.533Z" fill="#453C9E"></path><path d="M199.119 121.566V124.885L158.234 147.783V144.464L199.119 121.566Z" fill="#453C9E"></path><path d="M199.119 135.599V138.918L158.234 161.817V158.497L199.119 135.599Z" fill="#453C9E"></path><path d="M199.119 149.632V152.952L158.234 175.85V172.53L199.119 149.632Z" fill="#453C9E"></path><path d="M149.472 80.7769L92.012 48.5956L91.0625 49.1275L149.472 81.8398L207.878 49.1284L206.93 48.5965L149.472 80.7769Z" fill="white"></path><g opacity="0.51"><path d="M91.0625 154.851L149.471 120.641L149.472 81.8398L91.0625 49.1275V154.851Z" fill="#453C9E"></path></g><path d="M147.151 87.487C147.151 86.0495 146.111 84.301 144.828 83.5828C144.182 83.2209 143.598 83.1891 143.177 83.43V83.4291L141.531 84.3629L142.549 84.3965C142.519 84.5456 142.503 84.7084 142.503 84.8839C142.503 86.3214 143.544 88.0698 144.827 88.7881C144.997 88.8836 145.163 88.9545 145.324 89.0054L144.85 89.8646L146.461 88.9508L146.46 88.9499C146.887 88.7172 147.151 88.2107 147.151 87.487Z" fill="url(#paint8_linear_2288_197542)"></path><path d="M145.499 88.4262C145.499 89.8637 144.458 90.4465 143.175 89.7273C141.892 89.0081 140.852 87.2606 140.852 85.8231C140.852 84.3856 141.892 83.8028 143.175 84.522C144.458 85.2412 145.499 86.9887 145.499 88.4262Z" fill="url(#paint9_linear_2288_197542)"></path><path d="M144.517 87.8734C144.517 88.7008 143.918 89.0354 143.18 88.6217C142.443 88.208 141.844 87.2024 141.844 86.3759C141.844 85.5485 142.443 85.2139 143.18 85.6267C143.918 86.0395 144.517 87.0469 144.517 87.8734Z" fill="#3F21D3"></path><path d="M98.1669 58.2898C98.1669 56.8523 97.1265 55.1039 95.8433 54.3856C95.1975 54.0237 94.6146 53.9919 94.1928 54.2328V54.2319L92.5469 55.1657L93.5648 55.1993C93.5348 55.3485 93.5188 55.5112 93.5188 55.6867C93.5188 57.1242 94.5592 58.8726 95.8424 59.5909C96.013 59.6864 96.1789 59.7573 96.3401 59.8082L95.8658 60.6674L97.477 59.7537L97.4761 59.7528C97.9026 59.52 98.1669 59.0136 98.1669 58.2898Z" fill="url(#paint10_linear_2288_197542)"></path><path d="M96.5143 59.2299C96.5143 60.6674 95.4739 61.2503 94.1907 60.5311C92.9076 59.8119 91.8672 58.0643 91.8672 56.6268C91.8672 55.1893 92.9076 54.6065 94.1907 55.3257C95.4739 56.044 96.5143 57.7925 96.5143 59.2299Z" fill="url(#paint11_linear_2288_197542)"></path><path d="M95.5325 58.6772C95.5325 59.5046 94.9336 59.8391 94.1959 59.4254C93.4574 59.0117 92.8594 58.0061 92.8594 57.1796C92.8594 56.3522 93.4583 56.0177 94.1959 56.4314C94.9345 56.8441 95.5325 57.8498 95.5325 58.6772Z" fill="#3F21D3"></path><path d="M147.151 199.941C147.151 198.504 146.111 196.756 144.828 196.037C144.182 195.675 143.598 195.644 143.177 195.884V195.884L141.531 196.817L142.549 196.851C142.519 197 142.503 197.163 142.503 197.338C142.503 198.776 143.544 200.524 144.827 201.243C144.997 201.338 145.163 201.409 145.324 201.46L144.85 202.319L146.461 201.405L146.46 201.404C146.887 201.172 147.151 200.665 147.151 199.941Z" fill="url(#paint12_linear_2288_197542)"></path><path d="M145.499 200.882C145.499 202.319 144.458 202.902 143.175 202.183C141.892 201.464 140.852 199.716 140.852 198.279C140.852 196.841 141.892 196.258 143.175 196.977C144.458 197.696 145.499 199.443 145.499 200.882Z" fill="url(#paint13_linear_2288_197542)"></path><path d="M144.517 200.329C144.517 201.156 143.918 201.491 143.18 201.077C142.442 200.663 141.844 199.658 141.844 198.831C141.844 198.004 142.443 197.669 143.18 198.083C143.918 198.497 144.517 199.501 144.517 200.329Z" fill="#3F21D3"></path><path d="M98.1669 170.744C98.1669 169.307 97.1265 167.558 95.8433 166.84C95.1975 166.478 94.6146 166.446 94.1928 166.687L92.5469 167.62L93.5648 167.654C93.5348 167.803 93.5188 167.966 93.5188 168.141C93.5188 169.579 94.5592 171.327 95.8424 172.045C96.013 172.141 96.1789 172.212 96.3401 172.263L95.8658 173.122L97.477 172.208L97.4761 172.207C97.9026 171.974 98.1669 171.468 98.1669 170.744Z" fill="url(#paint14_linear_2288_197542)"></path><path d="M96.5143 171.684C96.5143 173.122 95.4739 173.705 94.1907 172.986C92.9076 172.266 91.8672 170.519 91.8672 169.081C91.8672 167.644 92.9076 167.061 94.1907 167.78C95.4739 168.498 96.5143 170.247 96.5143 171.684Z" fill="url(#paint15_linear_2288_197542)"></path><path d="M95.5325 171.132C95.5325 171.959 94.9336 172.294 94.1959 171.88C93.4574 171.466 92.8594 170.461 92.8594 169.634C92.8594 168.808 93.4583 168.472 94.1959 168.886C94.9345 169.299 95.5325 170.304 95.5325 171.132Z" fill="#3F21D3"></path><path d="M207.878 32.7123V39.2606L149.472 71.9719L91.0625 39.2587V32.7114L207.878 32.7123Z" fill="url(#paint16_linear_2288_197542)"></path><path d="M149.472 65.4246L91.0625 32.7114L149.47 3.05176e-05L207.878 32.7123L149.472 65.4246Z" fill="#BCBEFF"></path><path d="M149.472 64.659L91.7458 32.3295L91.0625 32.7123L149.472 65.4246L207.878 32.7123L207.195 32.3304L149.472 64.659Z" fill="white"></path><path d="M149.47 57.8789L104.547 32.7187L149.469 7.55936L194.393 32.7196L149.47 57.8789Z" fill="#0F054C"></path><path opacity="0.5" d="M149.463 57.8807L104.539 32.7196L149.463 7.55939L194.387 32.7205L149.463 57.8807Z" fill="url(#paint17_linear_2288_197542)"></path><path opacity="0.5" d="M149.461 1.21478L194.385 26.3759V32.7196L149.461 7.55939V1.21478Z" fill="url(#paint18_linear_2288_197542)"></path><path opacity="0.5" d="M149.463 7.5594L104.539 32.7196V26.375L149.463 1.2148L149.463 7.5594Z" fill="url(#paint19_linear_2288_197542)"></path><path opacity="0.5" d="M149.463 51.5352L104.539 26.375L149.463 1.2148L194.387 26.3759L149.463 51.5352Z" fill="url(#paint20_linear_2288_197542)"></path><path opacity="0.5" d="M149.467 36.4293L131.516 26.375L149.466 16.3216L167.417 26.375L149.467 36.4293Z" fill="#42E8E0"></path><path opacity="0.5" d="M149.466 17.2472L166.591 26.8378L167.417 26.375L149.466 16.3216L131.516 26.375L132.341 26.8378L149.466 17.2472Z" fill="#42E8E0"></path><path opacity="0.5" d="M149.461 51.5352V57.8798L194.384 32.7196V26.3759L149.461 51.5352Z" fill="url(#paint21_linear_2288_197542)"></path><path opacity="0.5" d="M104.539 26.375V32.7196L149.463 57.8798V51.5352L104.539 26.375Z" fill="url(#paint22_linear_2288_197542)"></path><path opacity="0.8" d="M149.471 50.8433L105.165 26.0286L104.547 26.375L149.471 51.5352L194.395 26.3759L193.777 26.0295L149.471 50.8433Z" fill="#42E8E0"></path><defs><linearGradient id="paint0_linear_2288_197542" x1="91.0707" y1="222.412" x2="207.886" y2="222.412" gradientUnits="userSpaceOnUse"><stop stop-color="#5761D7"></stop><stop offset="0.0726" stop-color="#5472D8"></stop><stop offset="0.2791" stop-color="#4E9CDB"></stop><stop offset="0.4801" stop-color="#49BDDD"></stop><stop offset="0.6715" stop-color="#45D5DF"></stop><stop offset="0.8493" stop-color="#43E3E0"></stop><stop offset="1" stop-color="#42E8E0"></stop></linearGradient><linearGradient id="paint1_linear_2288_197542" x1="91.0707" y1="213.695" x2="207.886" y2="213.695" gradientUnits="userSpaceOnUse"><stop stop-color="#5761D7"></stop><stop offset="0.0726" stop-color="#5472D8"></stop><stop offset="0.2791" stop-color="#4E9CDB"></stop><stop offset="0.4801" stop-color="#49BDDD"></stop><stop offset="0.6715" stop-color="#45D5DF"></stop><stop offset="0.8493" stop-color="#43E3E0"></stop><stop offset="1" stop-color="#42E8E0"></stop></linearGradient><linearGradient id="paint2_linear_2288_197542" x1="91.0707" y1="204.978" x2="207.886" y2="204.978" gradientUnits="userSpaceOnUse"><stop stop-color="#5761D7"></stop><stop offset="0.0726" stop-color="#5472D8"></stop><stop offset="0.2791" stop-color="#4E9CDB"></stop><stop offset="0.4801" stop-color="#49BDDD"></stop><stop offset="0.6715" stop-color="#45D5DF"></stop><stop offset="0.8493" stop-color="#43E3E0"></stop><stop offset="1" stop-color="#42E8E0"></stop></linearGradient><linearGradient id="paint3_linear_2288_197542" x1="91.0707" y1="196.261" x2="207.886" y2="196.261" gradientUnits="userSpaceOnUse"><stop stop-color="#5761D7"></stop><stop offset="0.0726" stop-color="#5472D8"></stop><stop offset="0.2791" stop-color="#4E9CDB"></stop><stop offset="0.4801" stop-color="#49BDDD"></stop><stop offset="0.6715" stop-color="#45D5DF"></stop><stop offset="0.8493" stop-color="#43E3E0"></stop><stop offset="1" stop-color="#42E8E0"></stop></linearGradient><linearGradient id="paint4_linear_2288_197542" x1="91.0707" y1="209.336" x2="207.886" y2="209.336" gradientUnits="userSpaceOnUse"><stop stop-color="#5761D7"></stop><stop offset="0.0726" stop-color="#5472D8"></stop><stop offset="0.2791" stop-color="#4E9CDB"></stop><stop offset="0.4801" stop-color="#49BDDD"></stop><stop offset="0.6715" stop-color="#45D5DF"></stop><stop offset="0.8493" stop-color="#43E3E0"></stop><stop offset="1" stop-color="#42E8E0"></stop></linearGradient><linearGradient id="paint5_linear_2288_197542" x1="91.0707" y1="196.261" x2="207.886" y2="196.261" gradientUnits="userSpaceOnUse"><stop stop-color="#5761D7"></stop><stop offset="0.0726" stop-color="#5472D8"></stop><stop offset="0.2791" stop-color="#4E9CDB"></stop><stop offset="0.4801" stop-color="#49BDDD"></stop><stop offset="0.6715" stop-color="#45D5DF"></stop><stop offset="0.8493" stop-color="#43E3E0"></stop><stop offset="1" stop-color="#42E8E0"></stop></linearGradient><linearGradient id="paint6_linear_2288_197542" x1="91.0701" y1="211.972" x2="207.884" y2="211.972" gradientUnits="userSpaceOnUse"><stop stop-color="#5761D7"></stop><stop offset="0.0726" stop-color="#5472D8"></stop><stop offset="0.2791" stop-color="#4E9CDB"></stop><stop offset="0.4801" stop-color="#49BDDD"></stop><stop offset="0.6715" stop-color="#45D5DF"></stop><stop offset="0.8493" stop-color="#43E3E0"></stop><stop offset="1" stop-color="#42E8E0"></stop></linearGradient><linearGradient id="paint7_linear_2288_197542" x1="178.68" y1="172.053" x2="178.68" y2="52.4853" gradientUnits="userSpaceOnUse"><stop stop-color="#C0BFF6"></stop><stop offset="0.2938" stop-color="#C5C4F7"></stop><stop offset="0.6399" stop-color="#D3D2F9"></stop><stop offset="1" stop-color="#E9E9FD"></stop></linearGradient><linearGradient id="paint8_linear_2288_197542" x1="141.531" y1="86.5696" x2="147.151" y2="86.5696" gradientUnits="userSpaceOnUse"><stop stop-color="#C0BFF6"></stop><stop offset="0.2938" stop-color="#C5C4F7"></stop><stop offset="0.6399" stop-color="#D3D2F9"></stop><stop offset="1" stop-color="#E9E9FD"></stop></linearGradient><linearGradient id="paint9_linear_2288_197542" x1="140.851" y1="87.125" x2="145.499" y2="87.125" gradientUnits="userSpaceOnUse"><stop stop-color="#5761D7"></stop><stop offset="0.1779" stop-color="#5C66D9"></stop><stop offset="0.3876" stop-color="#6A73DF"></stop><stop offset="0.6134" stop-color="#8289E8"></stop><stop offset="0.849" stop-color="#A3A7F5"></stop><stop offset="1" stop-color="#BCBEFF"></stop></linearGradient><linearGradient id="paint10_linear_2288_197542" x1="92.5464" y1="57.3726" x2="98.1666" y2="57.3726" gradientUnits="userSpaceOnUse"><stop stop-color="#C0BFF6"></stop><stop offset="0.2938" stop-color="#C5C4F7"></stop><stop offset="0.6399" stop-color="#D3D2F9"></stop><stop offset="1" stop-color="#E9E9FD"></stop></linearGradient><linearGradient id="paint11_linear_2288_197542" x1="91.8668" y1="57.9281" x2="96.5147" y2="57.9281" gradientUnits="userSpaceOnUse"><stop stop-color="#5761D7"></stop><stop offset="0.1779" stop-color="#5C66D9"></stop><stop offset="0.3876" stop-color="#6A73DF"></stop><stop offset="0.6134" stop-color="#8289E8"></stop><stop offset="0.849" stop-color="#A3A7F5"></stop><stop offset="1" stop-color="#BCBEFF"></stop></linearGradient><linearGradient id="paint12_linear_2288_197542" x1="141.531" y1="199.024" x2="147.151" y2="199.024" gradientUnits="userSpaceOnUse"><stop stop-color="#C0BFF6"></stop><stop offset="0.2938" stop-color="#C5C4F7"></stop><stop offset="0.6399" stop-color="#D3D2F9"></stop><stop offset="1" stop-color="#E9E9FD"></stop></linearGradient><linearGradient id="paint13_linear_2288_197542" x1="140.851" y1="199.58" x2="145.499" y2="199.58" gradientUnits="userSpaceOnUse"><stop stop-color="#5761D7"></stop><stop offset="0.1779" stop-color="#5C66D9"></stop><stop offset="0.3876" stop-color="#6A73DF"></stop><stop offset="0.6134" stop-color="#8289E8"></stop><stop offset="0.849" stop-color="#A3A7F5"></stop><stop offset="1" stop-color="#BCBEFF"></stop></linearGradient><linearGradient id="paint14_linear_2288_197542" x1="92.5464" y1="169.827" x2="98.1666" y2="169.827" gradientUnits="userSpaceOnUse"><stop stop-color="#C0BFF6"></stop><stop offset="0.2938" stop-color="#C5C4F7"></stop><stop offset="0.6399" stop-color="#D3D2F9"></stop><stop offset="1" stop-color="#E9E9FD"></stop></linearGradient><linearGradient id="paint15_linear_2288_197542" x1="91.8668" y1="170.383" x2="96.5147" y2="170.383" gradientUnits="userSpaceOnUse"><stop stop-color="#5761D7"></stop><stop offset="0.1779" stop-color="#5C66D9"></stop><stop offset="0.3876" stop-color="#6A73DF"></stop><stop offset="0.6134" stop-color="#8289E8"></stop><stop offset="0.849" stop-color="#A3A7F5"></stop><stop offset="1" stop-color="#BCBEFF"></stop></linearGradient><linearGradient id="paint16_linear_2288_197542" x1="62.1836" y1="52.3417" x2="211.874" y2="52.3417" gradientUnits="userSpaceOnUse"><stop stop-color="#5761D7"></stop><stop offset="0.1645" stop-color="#5E67DA"></stop><stop offset="0.4051" stop-color="#727AE2"></stop><stop offset="0.6924" stop-color="#9297EE"></stop><stop offset="1" stop-color="#BCBEFF"></stop></linearGradient><linearGradient id="paint17_linear_2288_197542" x1="104.539" y1="32.72" x2="194.387" y2="32.72" gradientUnits="userSpaceOnUse"><stop stop-color="#42E8E0"></stop><stop offset="0.1507" stop-color="#43E3E0"></stop><stop offset="0.3285" stop-color="#45D5DF"></stop><stop offset="0.5199" stop-color="#49BDDD"></stop><stop offset="0.7209" stop-color="#4E9CDB"></stop><stop offset="0.9274" stop-color="#5472D8"></stop><stop offset="1" stop-color="#5761D7"></stop></linearGradient><linearGradient id="paint18_linear_2288_197542" x1="149.461" y1="16.9675" x2="194.386" y2="16.9675" gradientUnits="userSpaceOnUse"><stop stop-color="#42E8E0"></stop><stop offset="0.1507" stop-color="#43E3E0"></stop><stop offset="0.3285" stop-color="#45D5DF"></stop><stop offset="0.5199" stop-color="#49BDDD"></stop><stop offset="0.7209" stop-color="#4E9CDB"></stop><stop offset="0.9274" stop-color="#5472D8"></stop><stop offset="1" stop-color="#5761D7"></stop></linearGradient><linearGradient id="paint19_linear_2288_197542" x1="104.539" y1="16.967" x2="149.464" y2="16.967" gradientUnits="userSpaceOnUse"><stop stop-color="#42E8E0"></stop><stop offset="0.1507" stop-color="#43E3E0"></stop><stop offset="0.3285" stop-color="#45D5DF"></stop><stop offset="0.5199" stop-color="#49BDDD"></stop><stop offset="0.7209" stop-color="#4E9CDB"></stop><stop offset="0.9274" stop-color="#5472D8"></stop><stop offset="1" stop-color="#5761D7"></stop></linearGradient><linearGradient id="paint20_linear_2288_197542" x1="104.539" y1="26.3753" x2="194.387" y2="26.3753" gradientUnits="userSpaceOnUse"><stop stop-color="#42E8E0"></stop><stop offset="0.1507" stop-color="#43E3E0"></stop><stop offset="0.3285" stop-color="#45D5DF"></stop><stop offset="0.5199" stop-color="#49BDDD"></stop><stop offset="0.7209" stop-color="#4E9CDB"></stop><stop offset="0.9274" stop-color="#5472D8"></stop><stop offset="1" stop-color="#5761D7"></stop></linearGradient><linearGradient id="paint21_linear_2288_197542" x1="149.461" y1="42.1278" x2="194.385" y2="42.1278" gradientUnits="userSpaceOnUse"><stop stop-color="#42E8E0"></stop><stop offset="0.1507" stop-color="#43E3E0"></stop><stop offset="0.3285" stop-color="#45D5DF"></stop><stop offset="0.5199" stop-color="#49BDDD"></stop><stop offset="0.7209" stop-color="#4E9CDB"></stop><stop offset="0.9274" stop-color="#5472D8"></stop><stop offset="1" stop-color="#5761D7"></stop></linearGradient><linearGradient id="paint22_linear_2288_197542" x1="104.539" y1="42.1275" x2="149.464" y2="42.1275" gradientUnits="userSpaceOnUse"><stop stop-color="#42E8E0"></stop><stop offset="0.1507" stop-color="#43E3E0"></stop><stop offset="0.3285" stop-color="#45D5DF"></stop><stop offset="0.5199" stop-color="#49BDDD"></stop><stop offset="0.7209" stop-color="#4E9CDB"></stop><stop offset="0.9274" stop-color="#5472D8"></stop><stop offset="1" stop-color="#5761D7"></stop></linearGradient></defs></svg>