<svg xmlns="http://www.w3.org/2000/svg" width="293" height="282" viewBox="0 0 293 282" fill="none"><path d="M147.973 281.371C227.896 281.371 292.687 244.203 292.687 198.353C292.687 152.503 227.896 115.335 147.973 115.335C68.0488 115.335 3.25781 152.503 3.25781 198.353C3.25781 244.203 68.0488 281.371 147.973 281.371Z" fill="#E3E6E8"></path><path d="M194.746 104.927L221.485 89.4893L246.433 103.893L219.694 119.33L194.746 104.927Z" fill="#FFD673"></path><path d="M231.318 94.7061L204.18 110.374L212.042 114.913L239.18 99.2445L231.318 94.7061Z" fill="#FDF9FF"></path><path d="M246.435 132.61V103.894L219.516 119.242V148.421L246.435 132.61Z" fill="#EFB33A"></path><path d="M194.719 134.083V104.903L219.514 119.241V148.421L194.719 134.083Z" fill="#F4C45B"></path><path d="M212.049 114.911L204.188 110.372V119.95L212.049 124.864V114.911Z" fill="#E8E8E8"></path><path d="M204.188 132.316V139.928L212.049 144.467V136.928L204.188 132.316Z" fill="#E8E8E8"></path><path d="M207.133 80.046L225.133 69.6533L241.928 79.3499L223.928 89.7426L207.133 80.046Z" fill="#FFD673"></path><path d="M231.754 73.166L213.484 83.7136L218.777 86.7694L237.046 76.2218L231.754 73.166Z" fill="#FDF9FF"></path><path d="M241.927 98.6818V79.3496L223.805 89.682V109.325L241.927 98.6818Z" fill="#EFB33A"></path><path d="M207.113 99.6744V80.0303L223.805 89.6827V109.326L207.113 99.6744Z" fill="#F4C45B"></path><path d="M218.777 86.7677L213.484 83.7119V90.16L218.777 93.4674V86.7677Z" fill="#E8E8E8"></path><path d="M213.484 98.4844V103.609L218.777 106.665V101.589L213.484 98.4844Z" fill="#E8E8E8"></path><path d="M165.645 121.759L192.383 106.321L217.331 120.725L190.592 136.163L165.645 121.759Z" fill="#FFD673"></path><path d="M202.216 111.537L175.078 127.205L182.939 131.744L210.077 116.076L202.216 111.537Z" fill="#FDF9FF"></path><path d="M217.334 149.441V120.725L190.414 136.073V165.252L217.334 149.441Z" fill="#EFB33A"></path><path d="M165.617 150.914V121.734L190.412 136.072V165.252L165.617 150.914Z" fill="#F4C45B"></path><path d="M182.948 131.742L175.086 127.203V136.781L182.948 141.695V131.742Z" fill="#E8E8E8"></path><path d="M175.086 149.148V156.761L182.948 161.299V153.76L175.086 149.148Z" fill="#E8E8E8"></path><path d="M178.012 101.018L196.012 90.625L212.807 100.322L194.807 110.714L178.012 101.018Z" fill="#FFD673"></path><path d="M202.633 94.1367L184.363 104.685L189.656 107.74L207.925 97.1925L202.633 94.1367Z" fill="#FDF9FF"></path><path d="M212.806 119.653V100.321L194.684 110.654V130.297L212.806 119.653Z" fill="#EFB33A"></path><path d="M177.992 120.645V101.002L194.684 110.654V130.298L177.992 120.645Z" fill="#F4C45B"></path><path d="M189.656 107.739L184.363 104.684V111.132L189.656 114.439V107.739Z" fill="#E8E8E8"></path><path d="M184.363 119.455V124.58L189.656 127.635V122.561L184.363 119.455Z" fill="#E8E8E8"></path><path d="M191.793 73.5411L209.793 63.1484L226.588 72.845L208.587 83.237L191.793 73.5411Z" fill="#FFD673"></path><path d="M216.414 66.6602L198.145 77.2078L203.437 80.2635L221.706 69.7159L216.414 66.6602Z" fill="#FDF9FF"></path><path d="M226.587 92.1762V72.8447L208.465 83.1771V102.821L226.587 92.1762Z" fill="#EFB33A"></path><path d="M191.773 93.1688V73.5254L208.466 83.1778V102.821L191.773 93.1688Z" fill="#F4C45B"></path><path d="M203.437 80.2618L198.145 77.2061V83.6541L203.437 86.9622V80.2618Z" fill="#E8E8E8"></path><path d="M198.145 91.9785V97.103L203.437 100.159V95.0834L198.145 91.9785Z" fill="#E8E8E8"></path><path d="M161.546 171.678H161.549V166.11L157.549 168.123L150.522 164.063C148.235 162.743 144.522 162.743 142.236 164.063L71.6228 204.834L67.6003 202.872V208.377L67.6031 208.375C67.5127 209.305 68.0749 210.249 69.3017 210.956L78.6254 216.343C80.9114 217.662 84.6226 217.662 86.9108 216.343L159.843 174.233C161.059 173.531 161.623 172.598 161.546 171.678Z" fill="#414494"></path><path d="M71.6228 204.834L67.6003 202.871V208.377L67.6031 208.375C67.5127 209.305 68.0749 210.248 69.3017 210.956L78.6254 216.342C79.7386 216.983 81.1918 217.306 82.6528 217.324V198.465L71.6228 204.834Z" fill="#29287B"></path><path d="M78.6245 210.459C80.9105 211.784 84.6217 211.784 86.9099 210.461L159.842 168.354C162.131 167.027 162.131 164.89 159.842 163.57L150.522 158.186C148.235 156.865 144.522 156.865 142.235 158.186L69.3015 200.293C67.0141 201.614 67.0141 203.757 69.3015 205.079L78.6245 210.459Z" fill="#4B53B2"></path><path d="M185.071 34.2038L180.299 31.4824C180.201 31.4046 180.092 31.3408 179.974 31.2959L179.97 31.2931C179.511 31.1179 178.917 31.1929 178.269 31.5679L41.0115 110.813C39.5394 111.663 38.3477 113.73 38.3477 115.43V220.832C38.3477 221.684 38.6456 222.282 39.1258 222.558C39.1994 222.599 39.2737 222.632 39.3494 222.658L44.0961 225.386L45.0831 220.25L43.6663 220.841L178.269 143.128C179.743 142.273 180.936 140.209 180.936 138.509V37.0773L185.071 34.2038Z" fill="#29287B"></path><path d="M180.3 31.4824C180.202 31.4046 180.093 31.3408 179.976 31.2959L179.971 31.2931C179.512 31.1179 178.918 31.1929 178.27 31.5679L41.0128 110.813C40.3742 111.183 39.7944 111.788 39.3359 112.488L131.089 170.367L178.27 143.129C179.744 142.274 180.937 140.21 180.937 138.509V37.0773L185.072 34.2038L180.3 31.4824Z" fill="#4B53B2"></path><path d="M185.868 141.326C185.87 143.026 184.675 145.092 183.204 145.943L45.9451 225.187C44.4723 226.037 43.2812 225.349 43.2812 223.651V118.245C43.2812 116.545 44.4716 114.481 45.9451 113.628L183.204 34.3837C184.676 33.5334 185.868 34.2232 185.868 35.9218V141.326Z" fill="#414494"></path><path d="M183.278 133.606L45.8672 212.94V118.06L183.278 38.7246V133.606Z" fill="#E3E6E8"></path><path d="M72.1653 138.529L57.4375 147.031V132.304L72.1653 123.801V138.529Z" fill="#B8C8D1"></path><path d="M72.1653 157.983L57.4375 166.485V151.758L72.1653 143.255V157.983Z" fill="#B8C8D1"></path><path d="M72.1653 177.436L57.4375 185.939V171.211L72.1653 162.708V177.436Z" fill="#B8C8D1"></path><path d="M91.9459 126.913L77.2188 135.416V120.689L91.9459 112.186V126.913Z" fill="#B8C8D1"></path><path d="M91.9459 146.367L77.2188 154.869V140.142L91.9459 131.639V146.367Z" fill="#B8C8D1"></path><path d="M91.9459 165.821L77.2188 174.323V159.596L91.9459 151.093V165.821Z" fill="#B8C8D1"></path><path d="M111.724 115.298L96.9961 123.801V109.074L111.724 100.57V115.298Z" fill="#B8C8D1"></path><path d="M111.724 134.751L96.9961 143.254V128.527L111.724 120.023V134.751Z" fill="#B8C8D1"></path><path d="M111.724 154.204L96.9961 162.707V147.98L111.724 139.477V154.204Z" fill="#B8C8D1"></path><path d="M131.505 103.683L116.777 112.186V97.4585L131.505 88.9551V103.683Z" fill="#B8C8D1"></path><path d="M131.505 123.136L116.777 131.639V116.912L131.505 108.408V123.136Z" fill="#B8C8D1"></path><path d="M131.505 142.589L116.777 151.092V136.365L131.505 127.861V142.589Z" fill="#B8C8D1"></path><path d="M151.286 92.0677L136.559 100.57V85.8433L151.286 77.3398V92.0677Z" fill="#B8C8D1"></path><path d="M151.286 111.521L136.559 120.024V105.296L151.286 96.793V111.521Z" fill="#B8C8D1"></path><path d="M151.286 130.975L136.559 139.478V124.75L151.286 116.247V130.975Z" fill="#B8C8D1"></path><path d="M171.063 80.4524L156.336 88.9552V74.228L171.063 65.7246V80.4524Z" fill="#B8C8D1"></path><path d="M171.063 99.9056L156.336 108.408V93.6812L171.063 85.1777V99.9056Z" fill="#B8C8D1"></path><path d="M171.063 119.36L156.336 127.862V113.135L171.063 104.632V119.36Z" fill="#B8C8D1"></path><path d="M181.933 39.5027V132.56L45.8672 211.118V212.94L183.278 133.606V38.7246L181.933 39.5027Z" fill="#4B53B2"></path><path d="M190.637 86.9107L195.248 84.2489C196.338 83.6194 197.221 82.2265 197.221 81.1364V70.335L188.664 75.2758V86.0772C188.664 87.1666 189.547 87.5402 190.637 86.9107Z" fill="#B73456"></path><path d="M182.083 91.8521L186.693 89.1903C187.783 88.5608 188.667 87.1679 188.667 86.0778V75.2764L180.109 80.2172V91.0186C180.109 92.108 180.993 92.4816 182.083 91.8521Z" fill="#D9D9D9"></path><path d="M173.524 96.7925L178.135 94.1307C179.225 93.5012 180.108 92.1083 180.108 91.0182V80.2168L171.551 85.1576V95.959C171.551 97.0477 172.435 97.4214 173.524 96.7925Z" fill="#B73456"></path><path d="M164.969 101.733L169.58 99.0712C170.67 98.4416 171.554 97.0487 171.554 95.9586V85.1572L162.996 90.098V100.899C162.996 101.989 163.879 102.362 164.969 101.733Z" fill="#D9D9D9"></path><path d="M156.411 106.674L161.022 104.013C162.112 103.383 162.995 101.99 162.995 100.9V90.0986L154.438 95.0395V105.841C154.438 106.93 155.321 107.303 156.411 106.674Z" fill="#B73456"></path><path d="M147.852 111.614L152.463 108.952C153.553 108.323 154.436 106.93 154.436 105.839V95.0381L145.879 99.9789V110.78C145.879 111.87 146.763 112.243 147.852 111.614Z" fill="#D9D9D9"></path><path d="M139.294 116.555L143.904 113.893C144.994 113.264 145.878 111.871 145.878 110.781V99.9795L137.32 104.92V115.722C137.32 116.811 138.204 117.184 139.294 116.555Z" fill="#B73456"></path><path d="M130.739 121.495L135.35 118.833C136.44 118.203 137.323 116.81 137.323 115.72V104.919L128.766 109.86V120.661C128.766 121.751 129.649 122.124 130.739 121.495Z" fill="#D9D9D9"></path><path d="M122.18 126.436L126.791 123.774C127.881 123.145 128.764 121.752 128.764 120.662V109.86L120.207 114.801V125.603C120.207 126.692 121.091 127.065 122.18 126.436Z" fill="#B73456"></path><path d="M113.622 131.376L118.232 128.714C119.323 128.084 120.206 126.691 120.206 125.601V114.8L111.648 119.741V130.542C111.649 131.631 112.532 132.005 113.622 131.376Z" fill="#D9D9D9"></path><path d="M105.067 136.317L109.678 133.655C110.768 133.026 111.651 131.633 111.651 130.543V119.741L103.094 124.682V135.483C103.094 136.573 103.977 136.946 105.067 136.317Z" fill="#B73456"></path><path d="M77.4207 99.8418L111.65 119.735L103.092 124.676L68.8633 104.783L77.4207 99.8418Z" fill="#CD4462"></path><path d="M85.9786 94.9014L120.208 114.795L111.651 119.736L77.4219 99.8422L85.9786 94.9014Z" fill="#EBEBEB"></path><path d="M94.534 89.9609L128.763 109.855L120.206 114.795L85.9766 94.9011L94.534 89.9609Z" fill="#CD4462"></path><path d="M103.093 85.0205L137.322 104.914L128.764 109.855L94.5352 89.9613L103.093 85.0205Z" fill="#EBEBEB"></path><path d="M111.651 80.0801L145.879 99.9738L137.323 104.914L103.094 85.0202L111.651 80.0801Z" fill="#CD4462"></path><path d="M120.205 75.1396L154.434 95.0333L145.877 99.9742L111.648 80.0805L120.205 75.1396Z" fill="#EBEBEB"></path><path d="M128.764 70.1992L162.993 90.0922L154.436 95.033L120.207 75.1393L128.764 70.1992Z" fill="#CD4462"></path><path d="M137.323 65.2588L171.551 85.1525L162.995 90.0926L128.766 70.1996L137.323 65.2588Z" fill="#EBEBEB"></path><path d="M145.877 60.3184L180.106 80.2113L171.549 85.1522L137.32 65.2585L145.877 60.3184Z" fill="#CD4462"></path><path d="M154.44 55.3779L188.669 75.2716L180.112 80.2117L145.883 60.3188L154.44 55.3779Z" fill="#EBEBEB"></path><path d="M162.995 50.4375L197.224 70.3305L188.666 75.2713L154.438 55.3776L162.995 50.4375Z" fill="#CD4462"></path><path d="M13.8047 180.693L14.6067 180.281C14.6445 180.251 14.6866 180.227 14.7321 180.21L14.7335 180.209C14.9109 180.141 15.1401 180.17 15.3897 180.314L68.268 210.804C68.8359 211.132 69.295 211.93 69.295 212.584V253.23C69.295 253.559 69.1801 253.788 68.995 253.896C68.9663 253.911 68.9375 253.924 68.9088 253.934L68.2316 254.382L66.6977 253.005L67.2438 253.233L15.3392 223.266C14.7707 222.937 14.3115 222.141 14.3115 221.485V182.371L13.8047 180.693Z" fill="#82A6E8"></path><path d="M13.5156 221.995C13.5149 222.651 13.9762 223.447 14.5426 223.776L67.4714 254.333C68.0393 254.661 68.4984 254.395 68.4984 253.741V213.095C68.4984 212.439 68.0386 211.643 67.4714 211.315L14.5426 180.757C13.9762 180.429 13.5156 180.694 13.5156 181.35V221.995Z" fill="#7391D5"></path><path d="M29.6231 189.464L14.5426 180.757C13.9762 180.429 13.5156 180.694 13.5156 181.35V192.984C37.6905 203.593 56.1344 226.845 63.8471 252.241L64.3294 252.519C58.7864 228.612 49.0183 204.944 29.6231 189.464Z" fill="#82A6E8"></path><path d="M19.806 190.052L19.3516 189.79C19.3247 189.623 19.2777 189.464 19.2105 189.311C19.1445 189.158 19.0639 189.016 18.9686 188.883C18.8746 188.75 18.7701 188.63 18.6553 188.525C18.5405 188.419 18.4208 188.33 18.2962 188.258C18.069 188.127 17.8632 188.074 17.6787 188.1C17.4955 188.127 17.3495 188.238 17.2408 188.434C17.1333 188.63 17.0796 188.915 17.0796 189.291C17.0796 189.666 17.1333 190.013 17.2408 190.334C17.3495 190.654 17.4955 190.934 17.6787 191.172C17.8632 191.412 18.069 191.597 18.2962 191.728C18.4208 191.8 18.5405 191.849 18.6553 191.876C18.7701 191.903 18.8746 191.905 18.9686 191.881C19.0639 191.857 19.1445 191.807 19.2105 191.731C19.2777 191.654 19.3247 191.549 19.3516 191.415L19.806 191.677C19.7718 191.879 19.7095 192.041 19.6191 192.164C19.5287 192.286 19.4163 192.37 19.2819 192.416C19.1476 192.459 18.9967 192.465 18.8294 192.431C18.6633 192.399 18.4855 192.328 18.2962 192.219C17.9762 192.034 17.6916 191.779 17.4424 191.455C17.1932 191.131 16.9971 190.761 16.8542 190.345C16.7113 189.93 16.6398 189.494 16.6398 189.037C16.6398 188.58 16.7113 188.226 16.8542 187.976C16.9971 187.725 17.1932 187.582 17.4424 187.545C17.6916 187.508 17.9762 187.582 18.2962 187.767C18.4855 187.877 18.6633 188.011 18.8294 188.17C18.9967 188.33 19.1476 188.511 19.2819 188.711C19.4163 188.91 19.5287 189.123 19.6191 189.35C19.7095 189.576 19.7718 189.81 19.806 190.052ZM20.5402 193.455V189.122L21.8081 189.854C22.1013 190.024 22.3419 190.22 22.53 190.445C22.7182 190.667 22.8574 190.905 22.9478 191.158C23.0382 191.41 23.0834 191.664 23.0834 191.919C23.0834 192.175 23.0382 192.375 22.9478 192.52C22.8574 192.665 22.7188 192.741 22.5319 192.745C22.345 192.749 22.1062 192.667 21.8155 192.499L20.7894 191.906V191.433L21.8008 192.017C22.0011 192.132 22.1624 192.191 22.2845 192.194C22.4079 192.198 22.4971 192.153 22.552 192.061C22.6082 191.968 22.6363 191.835 22.6363 191.661C22.6363 191.488 22.6082 191.32 22.552 191.158C22.4958 190.995 22.4061 190.843 22.2827 190.702C22.1593 190.558 21.9963 190.428 21.7935 190.311L20.9946 189.85V193.718L20.5402 193.455ZM22.3065 192.529L23.23 195.008L22.7023 194.704L21.7935 192.232L22.3065 192.529ZM23.8406 195.361V191.028L26.1052 192.335V192.801L24.295 191.756V193.22L25.9879 194.197V194.663L24.295 193.685V195.158L26.1345 196.22V196.685L23.8406 195.361ZM28.0822 197.81L26.9242 197.141V192.808L28.1335 193.507C28.4975 193.717 28.809 193.983 29.0679 194.306C29.3269 194.628 29.5254 194.99 29.6634 195.393C29.8014 195.794 29.8705 196.219 29.8705 196.668C29.8705 197.119 29.8008 197.467 29.6616 197.713C29.5223 197.957 29.3196 198.089 29.0533 198.11C28.787 198.13 28.4633 198.03 28.0822 197.81ZM27.3786 196.938L28.0529 197.328C28.3631 197.507 28.6203 197.586 28.8242 197.566C29.0282 197.545 29.1803 197.436 29.2805 197.239C29.3806 197.041 29.4307 196.766 29.4307 196.414C29.4307 196.064 29.3813 195.734 29.2823 195.424C29.1834 195.113 29.0356 194.833 28.8389 194.585C28.6422 194.334 28.3973 194.124 28.1042 193.955L27.3786 193.536V196.938ZM31.0871 195.212V199.545L30.6327 199.283V194.95L31.0871 195.212ZM31.7929 196.085V195.619L34.6073 197.244V197.71L33.4273 197.029V200.896L32.9729 200.634V196.766L31.7929 196.085ZM19.806 197.052L19.3516 196.79C19.3247 196.623 19.2777 196.464 19.2105 196.311C19.1445 196.158 19.0639 196.016 18.9686 195.883C18.8746 195.75 18.7701 195.63 18.6553 195.525C18.5405 195.419 18.4208 195.33 18.2962 195.258C18.069 195.127 17.8632 195.074 17.6787 195.1C17.4955 195.127 17.3495 195.238 17.2408 195.434C17.1333 195.63 17.0796 195.915 17.0796 196.291C17.0796 196.666 17.1333 197.013 17.2408 197.334C17.3495 197.654 17.4955 197.934 17.6787 198.172C17.8632 198.412 18.069 198.597 18.2962 198.728C18.4208 198.8 18.5405 198.849 18.6553 198.876C18.7701 198.903 18.8746 198.905 18.9686 198.881C19.0639 198.857 19.1445 198.807 19.2105 198.731C19.2777 198.654 19.3247 198.549 19.3516 198.415L19.806 198.677C19.7718 198.879 19.7095 199.041 19.6191 199.164C19.5287 199.286 19.4163 199.37 19.2819 199.416C19.1476 199.459 18.9967 199.465 18.8294 199.431C18.6633 199.399 18.4855 199.328 18.2962 199.219C17.9762 199.034 17.6916 198.779 17.4424 198.455C17.1932 198.131 16.9971 197.761 16.8542 197.345C16.7113 196.93 16.6398 196.494 16.6398 196.037C16.6398 195.58 16.7113 195.226 16.8542 194.976C16.9971 194.725 17.1932 194.582 17.4424 194.545C17.6916 194.508 17.9762 194.582 18.2962 194.767C18.4855 194.877 18.6633 195.011 18.8294 195.17C18.9967 195.33 19.1476 195.511 19.2819 195.711C19.4163 195.91 19.5287 196.123 19.6191 196.35C19.7095 196.576 19.7718 196.81 19.806 197.052ZM20.6941 200.544L20.2178 200.269L21.5956 196.732L22.0647 197.002L23.4425 202.131L22.9661 201.856L21.8448 197.561L21.8155 197.544L20.6941 200.544ZM20.87 198.953L22.7902 200.062V200.527L20.87 199.419V198.953ZM24.027 202.468V198.135L25.2949 198.868C25.5881 199.037 25.8287 199.234 26.0168 199.458C26.2049 199.681 26.3442 199.918 26.4345 200.171C26.5249 200.423 26.5701 200.677 26.5701 200.933C26.5701 201.188 26.5249 201.388 26.4345 201.533C26.3442 201.679 26.2055 201.754 26.0186 201.759C25.8317 201.762 25.5929 201.68 25.3022 201.512L24.2762 200.92V200.446L25.2876 201.03C25.4879 201.145 25.6491 201.205 25.7713 201.208C25.8946 201.211 25.9838 201.167 26.0388 201.074C26.095 200.981 26.1231 200.848 26.1231 200.674C26.1231 200.501 26.095 200.333 26.0388 200.171C25.9826 200.009 25.8928 199.857 25.7694 199.715C25.6461 199.572 25.483 199.442 25.2802 199.325L24.4814 198.863V202.731L24.027 202.468ZM25.7933 201.542L26.7167 204.022L26.189 203.717L25.2802 201.246L25.7933 201.542ZM28.4853 205.043L27.3273 204.374V200.041L28.5366 200.739C28.9006 200.949 29.2121 201.216 29.471 201.539C29.73 201.861 29.9285 202.223 30.0665 202.626C30.2045 203.027 30.2736 203.452 30.2736 203.9C30.2736 204.352 30.2039 204.7 30.0647 204.945C29.9254 205.189 29.7227 205.322 29.4564 205.343C29.1901 205.363 28.8664 205.263 28.4853 205.043ZM27.7817 204.171L28.456 204.56C28.7662 204.739 29.0234 204.819 29.2273 204.798C29.4313 204.778 29.5834 204.669 29.6836 204.471C29.7837 204.274 29.8338 203.999 29.8338 203.646C29.8338 203.297 29.7843 202.967 29.6854 202.657C29.5865 202.346 29.4387 202.066 29.242 201.817C29.0453 201.567 28.8004 201.357 28.5073 201.188L27.7817 200.769V204.171Z" fill="white"></path><path d="M23.3051 224.642C23.0901 224.518 22.9289 224.372 22.8214 224.203C22.7156 224.033 22.645 223.832 22.6098 223.598C22.5762 223.363 22.5594 223.087 22.5594 222.769V220.322C22.5594 220.018 22.577 219.776 22.6123 219.596C22.6492 219.418 22.7206 219.31 22.8264 219.272C22.9339 219.235 23.0935 219.278 23.3051 219.4C23.5201 219.524 23.6796 219.666 23.7838 219.825C23.8879 219.984 23.9551 220.172 23.9853 220.389C24.0172 220.607 24.0332 220.869 24.0332 221.173V223.62C24.0332 223.858 24.0248 224.063 24.008 224.234C23.9929 224.405 23.961 224.537 23.9122 224.629C23.8652 224.722 23.793 224.772 23.6956 224.778C23.5982 224.781 23.468 224.736 23.3051 224.642ZM23.3001 224.197C23.3605 224.232 23.4101 224.248 23.4487 224.245C23.4873 224.24 23.5167 224.209 23.5369 224.151C23.5587 224.091 23.573 224 23.5797 223.876C23.5881 223.751 23.5923 223.585 23.5923 223.38V220.887C23.5923 220.642 23.5839 220.453 23.5671 220.319C23.5503 220.183 23.5209 220.081 23.4789 220.012C23.4369 219.943 23.3773 219.887 23.3001 219.842C23.2262 219.799 23.1674 219.788 23.1237 219.807C23.08 219.827 23.0481 219.893 23.028 220.005C23.0095 220.118 23.0003 220.297 23.0003 220.542V223.038C23.0003 223.243 23.0045 223.414 23.0128 223.548C23.0212 223.681 23.0364 223.79 23.0582 223.874C23.08 223.957 23.1103 224.023 23.1489 224.072C23.1892 224.121 23.2396 224.162 23.3001 224.197ZM25.4364 225.87C25.156 225.708 24.9511 225.49 24.8217 225.215C24.6924 224.941 24.6235 224.583 24.6151 224.142L24.6126 223.978C24.6126 223.756 24.6269 223.564 24.6555 223.4C24.684 223.236 24.7268 223.106 24.7839 223.009C24.8427 222.911 24.9141 222.853 24.9981 222.836C24.8738 222.661 24.7848 222.46 24.731 222.234C24.6773 222.005 24.6504 221.742 24.6504 221.445C24.6504 221.003 24.71 220.715 24.8293 220.583C24.9502 220.451 25.1543 220.468 25.4415 220.634C25.7287 220.799 25.9311 221.017 26.0486 221.287C26.1662 221.554 26.225 221.91 26.225 222.354C26.225 222.649 26.199 222.879 26.1469 223.045C26.0948 223.209 26.0033 223.305 25.8723 223.332C25.9546 223.447 26.0218 223.587 26.0738 223.751C26.1276 223.914 26.1671 224.093 26.1922 224.29C26.2174 224.485 26.23 224.692 26.23 224.911V225.051C26.23 225.495 26.1671 225.783 26.0411 225.914C25.9168 226.045 25.7153 226.031 25.4364 225.87ZM25.4415 225.434C25.5339 225.487 25.6044 225.499 25.6531 225.468C25.7018 225.436 25.7346 225.359 25.7514 225.237C25.7682 225.113 25.7766 224.943 25.7766 224.728V224.565C25.7766 224.193 25.748 223.904 25.6909 223.698C25.6355 223.494 25.5523 223.359 25.4415 223.295C25.3273 223.229 25.2366 223.265 25.1694 223.403C25.1039 223.54 25.0711 223.798 25.0711 224.178V224.344C25.0711 224.658 25.0963 224.898 25.1467 225.063C25.1971 225.226 25.2954 225.349 25.4415 225.434ZM25.4364 222.914C25.5087 222.956 25.57 222.96 25.6204 222.927C25.6724 222.895 25.7119 222.814 25.7388 222.684C25.7673 222.554 25.7816 222.359 25.7816 222.101C25.7816 221.874 25.769 221.693 25.7438 221.559C25.7186 221.424 25.6808 221.32 25.6304 221.246C25.58 221.172 25.5154 221.113 25.4364 221.067C25.3592 221.022 25.2954 221.01 25.245 221.029C25.1946 221.047 25.1568 221.11 25.1316 221.22C25.1064 221.327 25.0938 221.494 25.0938 221.719C25.0938 221.971 25.1073 222.177 25.1341 222.338C25.161 222.499 25.1996 222.625 25.25 222.716C25.3004 222.806 25.3625 222.872 25.4364 222.914ZM27.5527 227.092C27.3696 226.986 27.226 226.857 27.1219 226.703C27.0177 226.55 26.9438 226.361 26.9002 226.136C26.8565 225.909 26.8347 225.635 26.8347 225.313V225.135L27.2529 225.377V225.493C27.2529 225.78 27.2613 225.999 27.2781 226.151C27.2949 226.3 27.3276 226.411 27.3763 226.484C27.425 226.557 27.4964 226.62 27.5905 226.674C27.6912 226.733 27.7609 226.734 27.7996 226.679C27.8382 226.624 27.86 226.515 27.8651 226.353C27.8701 226.191 27.8726 225.979 27.8726 225.717V225.141C27.8306 225.162 27.7744 225.166 27.7038 225.154C27.6333 225.141 27.5577 225.111 27.4771 225.064C27.2722 224.946 27.1177 224.798 27.0135 224.619C26.9111 224.44 26.8422 224.221 26.807 223.965C26.7717 223.708 26.7541 223.405 26.7541 223.058V222.933C26.7541 222.71 26.7608 222.508 26.7742 222.328C26.7893 222.149 26.8221 222.005 26.8725 221.896C26.9229 221.788 26.9993 221.725 27.1017 221.708C27.2059 221.691 27.3453 221.733 27.5199 221.834C27.698 221.936 27.8399 222.055 27.9457 222.19C28.0515 222.325 28.1313 222.475 28.185 222.639C28.2388 222.804 28.2741 222.985 28.2908 223.181C28.3093 223.375 28.3186 223.585 28.3186 223.81V225.928C28.3186 226.285 28.3001 226.572 28.2631 226.789C28.2262 227.005 28.1531 227.141 28.044 227.198C27.9348 227.253 27.771 227.218 27.5527 227.092ZM27.5275 224.68C27.5896 224.716 27.6451 224.74 27.6938 224.753C27.7425 224.764 27.7828 224.769 27.8147 224.77C27.8466 224.769 27.8659 224.769 27.8726 224.769V223.498C27.8726 223.154 27.8525 222.89 27.8122 222.703C27.7735 222.518 27.6803 222.383 27.5325 222.298C27.4284 222.237 27.3511 222.228 27.3007 222.269C27.252 222.31 27.2201 222.399 27.205 222.536C27.1899 222.673 27.1823 222.855 27.1823 223.082V223.358C27.1823 223.635 27.1891 223.86 27.2025 224.033C27.2176 224.206 27.2495 224.343 27.2982 224.443C27.3469 224.541 27.4234 224.62 27.5275 224.68ZM29.8528 228.362V227.37L28.8325 226.781V226.42L29.8075 223.216L30.266 223.48V227.192L30.6414 227.409V227.825L30.266 227.608V228.6L29.8528 228.362ZM29.2079 226.581L29.8528 226.954V224.181L29.2079 226.581ZM33.0599 230.272C32.8685 230.161 32.7198 230.032 32.614 229.883C32.5099 229.736 32.4368 229.578 32.3948 229.411C32.3528 229.243 32.3319 229.075 32.3319 228.906V228.376L32.7727 228.631V229.198C32.7727 229.346 32.7929 229.473 32.8332 229.579C32.8735 229.684 32.9474 229.768 33.0549 229.83C33.1506 229.885 33.222 229.887 33.269 229.837C33.3161 229.786 33.3396 229.672 33.3396 229.494V227.876C33.3396 227.669 33.3203 227.502 33.2816 227.377C33.243 227.25 33.1716 227.157 33.0675 227.096C32.9835 227.048 32.913 227.053 32.8559 227.111C32.8004 227.17 32.7727 227.297 32.7727 227.491L32.3848 227.214V224.704L33.6747 225.448V225.926L32.8004 225.421V226.73C32.8273 226.672 32.8769 226.642 32.9491 226.641C33.023 226.639 33.1019 226.662 33.1859 226.711C33.3102 226.783 33.416 226.883 33.5033 227.011C33.5907 227.139 33.6579 227.319 33.7049 227.552C33.7519 227.783 33.7754 228.091 33.7754 228.477V229.195C33.7754 229.434 33.767 229.641 33.7502 229.818C33.7334 229.993 33.7007 230.13 33.652 230.23C33.605 230.329 33.5336 230.383 33.4378 230.394C33.3438 230.404 33.2178 230.363 33.0599 230.272ZM35.214 231.518C35.0376 231.417 34.8949 231.298 34.7857 231.163C34.6782 231.028 34.5967 230.877 34.5413 230.711C34.4859 230.545 34.4481 230.364 34.4279 230.169C34.4095 229.972 34.4002 229.761 34.4002 229.536V227.36C34.4002 227.003 34.4212 226.722 34.4632 226.518C34.5052 226.311 34.5833 226.186 34.6975 226.144C34.8134 226.1 34.9805 226.141 35.1989 226.267C35.3903 226.378 35.5373 226.51 35.6397 226.665C35.7422 226.817 35.8136 227.006 35.8539 227.233C35.8959 227.459 35.9169 227.733 35.9169 228.055V228.23L35.4911 227.984V227.859C35.4911 227.587 35.4835 227.377 35.4684 227.229C35.4533 227.081 35.4222 226.969 35.3752 226.893C35.3299 226.816 35.261 226.751 35.1686 226.698C35.0662 226.639 34.9914 226.631 34.9444 226.673C34.8991 226.715 34.8705 226.812 34.8587 226.964C34.847 227.116 34.8411 227.329 34.8411 227.603V228.246C34.8898 228.214 34.9494 228.201 35.02 228.206C35.0922 228.211 35.1678 228.235 35.2467 228.279C35.4499 228.393 35.6045 228.535 35.7103 228.707C35.8178 228.877 35.8917 229.091 35.932 229.347C35.9723 229.601 35.9924 229.909 35.9924 230.272V230.516C35.9924 230.813 35.974 231.059 35.937 231.255C35.9001 231.451 35.8262 231.576 35.7153 231.63C35.6045 231.685 35.4374 231.647 35.214 231.518ZM35.2064 231.06C35.3072 231.118 35.3828 231.135 35.4332 231.11C35.4835 231.084 35.5171 231.011 35.5339 230.889C35.5524 230.765 35.5616 230.587 35.5616 230.352V230.011C35.5616 229.732 35.5541 229.507 35.539 229.335C35.5238 229.162 35.4919 229.025 35.4432 228.925C35.3962 228.826 35.3231 228.748 35.224 228.691C35.1569 228.652 35.0956 228.628 35.0401 228.619C34.9847 228.611 34.9394 228.608 34.9041 228.611C34.8705 228.615 34.8495 228.616 34.8411 228.615V229.846C34.8411 230.082 34.8495 230.279 34.8663 230.436C34.8831 230.593 34.9175 230.722 34.9696 230.822C35.0217 230.92 35.1006 230.999 35.2064 231.06ZM36.7558 232.348C36.786 231.901 36.8314 231.489 36.8918 231.111C36.9523 230.733 37.0195 230.389 37.0934 230.078C37.1673 229.768 37.2404 229.492 37.3126 229.251C37.4133 228.911 37.5007 228.653 37.5746 228.474C37.6502 228.297 37.6888 228.205 37.6905 228.198L36.4258 227.467V227.037L38.1162 228.013V228.391C38.1129 228.416 38.0717 228.532 37.9928 228.739C37.9139 228.945 37.8257 229.229 37.7283 229.59C37.6611 229.838 37.5939 230.118 37.5267 230.43C37.4612 230.744 37.4024 231.085 37.3504 231.454C37.3 231.823 37.2622 232.213 37.237 232.625L36.7558 232.348ZM39.3835 233.923C39.0895 233.753 38.8838 233.519 38.7662 233.22C38.6487 232.922 38.5899 232.53 38.5899 232.045V231.847L39.0308 232.102V232.288C39.0308 232.54 39.0392 232.744 39.0559 232.899C39.0744 233.053 39.1097 233.175 39.1618 233.265C39.2155 233.355 39.2936 233.429 39.3961 233.488C39.5002 233.548 39.5783 233.56 39.6304 233.524C39.6824 233.489 39.7177 233.401 39.7362 233.263C39.7563 233.125 39.7664 232.934 39.7664 232.689C39.7664 232.416 39.7504 232.193 39.7185 232.019C39.6883 231.846 39.6379 231.708 39.5674 231.603C39.4985 231.499 39.4036 231.412 39.2827 231.343L39.1718 231.279V230.848L39.2777 230.909C39.3952 230.977 39.4893 231.009 39.5598 231.005C39.6304 231.001 39.6816 230.941 39.7135 230.823C39.7454 230.706 39.7614 230.512 39.7614 230.243C39.7614 229.989 39.7454 229.79 39.7135 229.645C39.6816 229.499 39.6371 229.388 39.58 229.312C39.5245 229.235 39.4607 229.176 39.3885 229.135C39.3163 229.093 39.2541 229.082 39.2021 229.103C39.1517 229.122 39.1131 229.189 39.0862 229.303C39.0593 229.418 39.0459 229.596 39.0459 229.839V229.946L38.6025 229.69V229.559C38.6025 229.115 38.6604 228.818 38.7763 228.668C38.8922 228.515 39.0971 228.524 39.391 228.694C39.6866 228.864 39.8974 229.099 40.0234 229.396C40.1493 229.692 40.2123 230.061 40.2123 230.503C40.2123 230.792 40.1779 231.021 40.109 231.188C40.0402 231.356 39.926 231.429 39.7664 231.407C39.8756 231.526 39.9629 231.669 40.0284 231.837C40.0956 232.006 40.1443 232.186 40.1745 232.378C40.2048 232.57 40.2199 232.764 40.2199 232.96C40.2199 233.445 40.1552 233.77 40.0259 233.936C39.8966 234.1 39.6824 234.096 39.3835 233.923ZM23.2421 232.545V228.164C23.2018 228.195 23.1405 228.211 23.0582 228.212C22.9776 228.212 22.8928 228.2 22.8037 228.178C22.7164 228.155 22.6417 228.125 22.5795 228.089V227.705C22.6685 227.741 22.7668 227.762 22.8743 227.768C22.9835 227.775 23.0851 227.759 23.1791 227.72C23.2749 227.682 23.3462 227.613 23.3933 227.512L23.6981 227.688V232.808L23.2421 232.545ZM24.8041 233.447V233.132C24.8209 232.989 24.8452 232.86 24.8772 232.747C24.9107 232.633 24.9544 232.521 25.0082 232.412C25.0636 232.303 25.1316 232.185 25.2122 232.059L25.5926 231.423C25.6464 231.33 25.6892 231.239 25.7211 231.148C25.753 231.058 25.7774 230.967 25.7942 230.874C25.811 230.779 25.8219 230.679 25.8269 230.575C25.832 230.47 25.8345 230.357 25.8345 230.236C25.8345 229.973 25.8253 229.77 25.8068 229.627C25.79 229.483 25.7598 229.377 25.7161 229.307C25.6741 229.236 25.6153 229.18 25.5397 229.138C25.4675 229.097 25.4079 229.088 25.3609 229.114C25.3138 229.137 25.2794 229.21 25.2576 229.333C25.2357 229.454 25.2248 229.641 25.2248 229.893V230.591L24.7839 230.337V229.801C24.7839 229.452 24.8049 229.176 24.8469 228.971C24.8889 228.766 24.9662 228.64 25.0787 228.593C25.1929 228.544 25.36 228.585 25.58 228.714C25.7547 228.816 25.8916 228.952 25.9907 229.119C26.0898 229.287 26.1603 229.487 26.2023 229.719C26.2443 229.948 26.2653 230.211 26.2653 230.506C26.2653 230.715 26.2535 230.899 26.23 231.058C26.2082 231.216 26.1738 231.36 26.1267 231.49C26.0814 231.619 26.0218 231.748 25.9479 231.876L25.5826 232.485C25.5154 232.592 25.46 232.687 25.4163 232.77C25.3726 232.852 25.3374 232.933 25.3105 233.015C25.2853 233.095 25.2651 233.189 25.25 233.297L26.1998 233.845V234.253L24.8041 233.447ZM27.598 235.118C27.4066 235.007 27.2579 234.878 27.1521 234.73C27.048 234.582 26.9749 234.425 26.9329 234.257C26.8909 234.089 26.8699 233.921 26.8699 233.752V233.223L27.3108 233.477V234.045C27.3108 234.192 27.331 234.319 27.3713 234.426C27.4116 234.53 27.4855 234.614 27.593 234.676C27.6887 234.731 27.7601 234.734 27.8071 234.683C27.8542 234.633 27.8777 234.518 27.8777 234.34V232.722C27.8777 232.515 27.8584 232.349 27.8197 232.223C27.7811 232.096 27.7097 232.003 27.6056 231.943C27.5216 231.894 27.4511 231.899 27.394 231.957C27.3385 232.016 27.3108 232.143 27.3108 232.337L26.9229 232.061V229.55L28.2127 230.295V230.772L27.3385 230.267V231.576C27.3654 231.518 27.415 231.488 27.4872 231.487C27.5611 231.486 27.64 231.509 27.724 231.557C27.8483 231.629 27.9541 231.729 28.0414 231.857C28.1288 231.985 28.196 232.165 28.243 232.398C28.29 232.629 28.3135 232.937 28.3135 233.323V234.042C28.3135 234.28 28.3051 234.488 28.2883 234.664C28.2715 234.839 28.2388 234.976 28.1901 235.076C28.143 235.175 28.0717 235.23 27.9759 235.24C27.8819 235.25 27.7559 235.209 27.598 235.118ZM29.8528 236.362V235.37L28.8325 234.781V234.42L29.8075 231.216L30.266 231.48V235.192L30.6414 235.409V235.825L30.266 235.608V236.6L29.8528 236.362ZM29.2079 234.581L29.8528 234.954V232.181L29.2079 234.581ZM33.0045 238.24C32.7106 238.07 32.5048 237.836 32.3873 237.537C32.2697 237.238 32.2109 236.847 32.2109 236.362V236.164L32.6518 236.419V236.605C32.6518 236.857 32.6602 237.061 32.677 237.216C32.6955 237.37 32.7307 237.492 32.7828 237.582C32.8366 237.671 32.9147 237.746 33.0171 237.805C33.1212 237.865 33.1993 237.877 33.2514 237.841C33.3035 237.805 33.3387 237.718 33.3572 237.579C33.3774 237.442 33.3875 237.251 33.3875 237.006C33.3875 236.733 33.3715 236.509 33.3396 236.336C33.3094 236.163 33.259 236.024 33.1884 235.92C33.1196 235.816 33.0247 235.729 32.9037 235.659L32.7929 235.595V235.165L32.8987 235.226C33.0163 235.294 33.1103 235.326 33.1809 235.322C33.2514 235.318 33.3026 235.257 33.3345 235.14C33.3665 235.023 33.3824 234.829 33.3824 234.56C33.3824 234.306 33.3665 234.106 33.3345 233.962C33.3026 233.815 33.2581 233.704 33.201 233.629C33.1456 233.552 33.0818 233.493 33.0096 233.451C32.9373 233.41 32.8752 233.399 32.8231 233.419C32.7727 233.439 32.7341 233.506 32.7072 233.62C32.6804 233.734 32.6669 233.913 32.6669 234.155V234.263L32.2235 234.007V233.876C32.2235 233.432 32.2815 233.135 32.3974 232.984C32.5132 232.832 32.7182 232.841 33.0121 233.011C33.3077 233.181 33.5185 233.415 33.6444 233.713C33.7704 234.009 33.8334 234.378 33.8334 234.82C33.8334 235.109 33.7989 235.337 33.7301 235.505C33.6612 235.673 33.547 235.746 33.3875 235.723C33.4966 235.843 33.584 235.986 33.6495 236.154C33.7166 236.323 33.7654 236.503 33.7956 236.695C33.8258 236.887 33.8409 237.081 33.8409 237.277C33.8409 237.762 33.7763 238.087 33.6469 238.253C33.5176 238.417 33.3035 238.412 33.0045 238.24ZM35.1308 239.467C34.8369 239.298 34.6312 239.064 34.5136 238.765C34.396 238.466 34.3372 238.074 34.3372 237.59V237.392L34.7781 237.646V237.833C34.7781 238.085 34.7865 238.288 34.8033 238.443C34.8218 238.598 34.8571 238.72 34.9091 238.81C34.9629 238.899 35.041 238.973 35.1434 239.033C35.2476 239.093 35.3257 239.105 35.3777 239.069C35.4298 239.033 35.4651 238.946 35.4835 238.807C35.5037 238.669 35.5138 238.478 35.5138 238.234C35.5138 237.961 35.4978 237.737 35.4659 237.563C35.4357 237.391 35.3853 237.252 35.3147 237.147C35.2459 237.044 35.151 236.957 35.0301 236.887L34.9192 236.823V236.393L35.025 236.454C35.1426 236.522 35.2366 236.554 35.3072 236.55C35.3777 236.546 35.429 236.485 35.4609 236.368C35.4928 236.25 35.5087 236.057 35.5087 235.787C35.5087 235.533 35.4928 235.334 35.4609 235.19C35.429 235.043 35.3844 234.932 35.3273 234.857C35.2719 234.78 35.2081 234.721 35.1359 234.679C35.0636 234.637 35.0015 234.627 34.9494 234.647C34.8991 234.666 34.8604 234.733 34.8336 234.848C34.8067 234.962 34.7932 235.141 34.7932 235.383V235.491L34.3498 235.235V235.104C34.3498 234.66 34.4078 234.362 34.5237 234.212C34.6396 234.06 34.8445 234.069 35.1384 234.238C35.434 234.409 35.6448 234.643 35.7707 234.941C35.8967 235.237 35.9597 235.606 35.9597 236.048C35.9597 236.337 35.9253 236.565 35.8564 236.733C35.7875 236.901 35.6733 236.973 35.5138 236.951C35.6229 237.07 35.7103 237.214 35.7758 237.382C35.843 237.55 35.8917 237.731 35.9219 237.923C35.9521 238.115 35.9672 238.309 35.9672 238.505C35.9672 238.989 35.9026 239.315 35.7733 239.481C35.6439 239.644 35.4298 239.64 35.1308 239.467ZM37.3126 240.727C37.1211 240.617 36.9725 240.487 36.8666 240.339C36.7625 240.191 36.6895 240.034 36.6475 239.866C36.6055 239.698 36.5845 239.53 36.5845 239.361V238.832L37.0254 239.086V239.654C37.0254 239.801 37.0455 239.928 37.0858 240.035C37.1261 240.14 37.2 240.223 37.3075 240.285C37.4033 240.34 37.4746 240.343 37.5217 240.292C37.5687 240.242 37.5922 240.127 37.5922 239.949V238.332C37.5922 238.124 37.5729 237.958 37.5343 237.833C37.4956 237.706 37.4243 237.612 37.3201 237.552C37.2362 237.503 37.1656 237.508 37.1085 237.566C37.0531 237.626 37.0254 237.752 37.0254 237.946L36.6374 237.67V235.159L37.9273 235.904V236.381L37.0531 235.876V237.185C37.08 237.127 37.1295 237.098 37.2017 237.097C37.2756 237.095 37.3546 237.118 37.4385 237.166C37.5628 237.238 37.6686 237.338 37.756 237.466C37.8433 237.594 37.9105 237.774 37.9575 238.007C38.0045 238.238 38.0281 238.546 38.0281 238.932V239.651C38.0281 239.889 38.0197 240.097 38.0029 240.273C37.9861 240.448 37.9533 240.585 37.9046 240.685C37.8576 240.784 37.7862 240.839 37.6905 240.849C37.5964 240.859 37.4704 240.818 37.3126 240.727ZM39.4389 241.955C39.2474 241.844 39.0988 241.715 38.993 241.567C38.8888 241.419 38.8158 241.262 38.7738 241.094C38.7318 240.926 38.7108 240.758 38.7108 240.589V240.06L39.1517 240.314V240.881C39.1517 241.029 39.1718 241.156 39.2121 241.263C39.2525 241.367 39.3264 241.451 39.4338 241.513C39.5296 241.568 39.601 241.57 39.648 241.52C39.695 241.47 39.7185 241.355 39.7185 241.177V239.559C39.7185 239.352 39.6992 239.185 39.6606 239.06C39.622 238.933 39.5506 238.84 39.4464 238.78C39.3625 238.731 39.2919 238.736 39.2348 238.794C39.1794 238.853 39.1517 238.98 39.1517 239.174L38.7637 238.897V236.387L40.0536 237.132V237.609L39.1794 237.104V238.413C39.2063 238.355 39.2558 238.325 39.328 238.324C39.4019 238.322 39.4809 238.346 39.5649 238.394C39.6891 238.466 39.795 238.566 39.8823 238.694C39.9696 238.822 40.0368 239.002 40.0838 239.235C40.1309 239.466 40.1544 239.774 40.1544 240.16V240.879C40.1544 241.117 40.146 241.325 40.1292 241.501C40.1124 241.676 40.0796 241.813 40.0309 241.913C39.9839 242.012 39.9125 242.066 39.8168 242.077C39.7227 242.087 39.5968 242.046 39.4389 241.955Z" fill="white"></path><path d="M29.0344 209.392C28.9636 210.884 28.4658 211.962 27.7031 212.48L31.8637 214.883C32.3769 215.179 32.7926 215.003 32.7926 214.49V211.561L29.0344 209.392Z" fill="#EDBA3B"></path><path d="M32.7926 210.984V207.892C32.7926 207.379 32.3769 206.724 31.8637 206.428L27.7031 204.025C28.4925 205.474 28.9993 207.195 29.0407 208.818L32.7926 210.984Z" fill="#EDBA3B"></path><path d="M20.0527 203.629C20.094 202.054 20.6009 200.918 21.3902 200.381L17.2296 197.979C16.7165 197.683 16.3008 197.858 16.3008 198.371V201.463L20.0527 203.629Z" fill="#EDBA3B"></path><path d="M16.3008 202.039V204.968C16.3008 205.481 16.7165 206.137 17.2296 206.432L21.3902 208.835C20.6275 207.436 20.1298 205.783 20.059 204.209L16.3008 202.039Z" fill="#EDBA3B"></path><path d="M27.1924 203.73L21.9039 200.677C21.0802 201.238 20.5586 202.443 20.5586 204.127C20.5586 205.811 21.0802 207.62 21.9039 209.131L27.1924 212.184C28.0161 211.623 28.5377 210.418 28.5377 208.734C28.5377 207.05 28.0161 205.241 27.1924 203.73Z" fill="#EDBA3B"></path><path d="M58.2708 218.757L57.5312 218.33V213.924L58.2708 214.351V218.757Z" fill="#EDBA3B"></path><path d="M60.0247 219.771L59.2852 219.344V214.938L60.0247 215.365V219.771Z" fill="#EDBA3B"></path><path d="M61.7826 220.784L61.043 220.357V215.952L61.7826 216.379V220.784Z" fill="#EDBA3B"></path><path d="M63.5404 221.798L62.8008 221.371V216.966L63.5404 217.393V221.798Z" fill="#EDBA3B"></path><path d="M56.7578 213.138L64.3135 217.5L60.5356 213.401L56.7578 213.138Z" fill="#EDBA3B"></path><path d="M63.9107 222.465L57.1641 218.57V217.669L63.9107 221.565V222.465Z" fill="#EDBA3B"></path><path d="M51.5341 130.033C62.8988 114.923 65.1818 97.4613 56.6334 91.0318C48.085 84.6023 31.9422 91.6392 20.5775 106.749C9.21288 121.859 6.92987 139.321 15.4783 145.75C24.0267 152.18 40.1695 145.143 51.5341 130.033Z" fill="#CD4462"></path><path d="M54.7529 132.715C66.1175 117.605 68.4006 100.144 59.8521 93.7144C51.3037 87.2849 35.161 94.3218 23.7963 109.432C12.4316 124.542 10.1486 142.003 18.697 148.433C27.2455 154.862 43.3882 147.825 54.7529 132.715Z" fill="#B73456"></path><path d="M51.955 130.612C61.2668 118.231 63.1376 103.924 56.1335 98.6565C49.1294 93.3885 35.9028 99.1544 26.591 111.535C17.2792 123.916 15.4084 138.223 22.4125 143.491C29.4166 148.759 42.6432 142.993 51.955 130.612Z" fill="#E3E6E8"></path><path d="M39.2708 108.135C38.7892 108.413 38.3945 108.246 38.3945 107.765V103.071C38.3945 102.59 38.7885 101.968 39.2708 101.689C39.7524 101.411 40.1471 101.578 40.1471 102.06V106.753C40.1471 107.235 39.7524 107.856 39.2708 108.135Z" fill="#AFAFAF"></path><path d="M39.2708 140.59C38.7892 140.868 38.3945 140.701 38.3945 140.22V135.526C38.3945 135.045 38.7885 134.423 39.2708 134.145C39.7524 133.866 40.1471 134.033 40.1471 134.515V139.208C40.1471 139.69 39.7524 140.311 39.2708 140.59Z" fill="#AFAFAF"></path><path d="M52.2773 113.631C52.2773 113.15 52.6713 112.528 53.1536 112.25L57.847 109.54C58.3286 109.262 58.7233 109.429 58.7233 109.91C58.7233 110.392 58.3293 111.014 57.847 111.292L53.1536 114.001C52.6713 114.28 52.2773 114.113 52.2773 113.631Z" fill="#AFAFAF"></path><path d="M19.8203 132.369C19.8203 131.887 20.2143 131.265 20.6966 130.987L25.39 128.277C25.8716 127.999 26.2662 128.166 26.2662 128.648C26.2662 129.129 25.8723 129.751 25.39 130.029L20.6966 132.739C20.215 133.017 19.8203 132.851 19.8203 132.369Z" fill="#AFAFAF"></path><path d="M46.0949 106.129C45.6848 106.113 45.5565 105.645 45.8095 105.089L48.2736 99.6723C48.5267 99.1164 49.0693 98.6747 49.4794 98.6909C49.8895 98.707 50.0178 99.1753 49.7647 99.7312L47.3006 105.148C47.0475 105.704 46.505 106.146 46.0949 106.129Z" fill="#AFAFAF"></path><path d="M29.056 143.59C28.6459 143.574 28.5176 143.106 28.77 142.55L31.2341 137.133C31.4871 136.577 32.0297 136.136 32.4398 136.152C32.8499 136.168 32.9782 136.636 32.7252 137.192L30.261 142.609C30.0087 143.165 29.4661 143.606 29.056 143.59Z" fill="#AFAFAF"></path><path d="M50.3406 121.578C50.5937 121.022 51.1363 120.58 51.5464 120.596L55.5408 120.754C55.9509 120.77 56.0792 121.238 55.8261 121.794C55.5731 122.35 55.0305 122.792 54.6204 122.776L50.6259 122.618C50.2165 122.602 50.0876 122.134 50.3406 121.578Z" fill="#AFAFAF"></path><path d="M22.7197 120.486C22.9728 119.93 23.5154 119.488 23.9255 119.504L27.9199 119.662C28.33 119.678 28.4583 120.146 28.2052 120.702C27.9521 121.258 27.4095 121.7 26.9994 121.684L23.005 121.526C22.5949 121.511 22.4666 121.042 22.7197 120.486Z" fill="#AFAFAF"></path><path d="M50.5564 108.162C50.3173 107.883 50.4631 107.26 50.8817 106.779L54.9546 102.096C55.3731 101.616 55.9108 101.452 56.1499 101.731C56.3889 102.011 56.2431 102.633 55.8246 103.114L51.7516 107.797C51.3338 108.278 50.7961 108.442 50.5564 108.162Z" fill="#AFAFAF"></path><path d="M22.3884 140.548C22.1494 140.268 22.2952 139.646 22.7137 139.165L26.7866 134.482C27.2052 134.001 27.7428 133.837 27.9819 134.117C28.2209 134.397 28.0751 135.019 27.6566 135.5L23.5837 140.183C23.1658 140.664 22.6282 140.828 22.3884 140.548Z" fill="#AFAFAF"></path><path d="M45.7292 128.697C46.1477 128.216 46.6854 128.052 46.9244 128.332L49.256 131.059C49.4951 131.339 49.3493 131.961 48.9307 132.442C48.5122 132.923 47.9745 133.087 47.7355 132.807L45.4039 130.08C45.1648 129.8 45.3114 129.178 45.7292 128.697Z" fill="#AFAFAF"></path><path d="M29.6042 109.839C30.0227 109.358 30.5604 109.194 30.7994 109.473L33.131 112.2C33.3701 112.48 33.2243 113.103 32.8057 113.584C32.3872 114.064 31.8495 114.228 31.6105 113.949L29.2789 111.222C29.0398 110.941 29.1864 110.32 29.6042 109.839Z" fill="#AFAFAF"></path><path d="M40.1343 121.723C40.7688 120.88 40.8963 119.905 40.4191 119.546C39.942 119.188 39.0409 119.58 38.4065 120.424C37.7721 121.267 37.6446 122.242 38.1217 122.601C38.5989 122.96 39.4999 122.567 40.1343 121.723Z" fill="#4B53B2"></path><path d="M39.267 121.076C38.7489 119.889 38.4797 118.557 38.2863 117.181C38.1026 115.8 38.0171 114.363 38.0157 112.876C38.0136 111.391 38.0991 109.854 38.2828 108.262C38.4755 106.663 38.7454 105.021 39.267 103.232C39.7886 104.419 40.0584 105.75 40.2512 107.125C40.4349 108.506 40.5204 109.944 40.5183 111.432C40.5169 112.919 40.4314 114.456 40.2477 116.049C40.0542 117.648 39.785 119.29 39.267 121.076Z" fill="#4B53B2"></path><path d="M154.333 221.315C154.333 221.315 154.479 224.467 154.244 225.062C154.012 225.655 152.621 225.531 152.104 225.384C150.394 224.899 145.735 221.756 145.838 220.068C145.883 219.378 146.919 218.483 148.41 219.599C149.887 220.706 151.796 221.409 152.013 220.924C152.228 220.438 154.333 221.315 154.333 221.315Z" fill="#414494"></path><path d="M169.725 218.425C169.725 218.425 169.848 221.562 169.614 222.155C169.382 222.749 167.991 222.622 167.471 222.475C165.765 221.994 160.934 218.879 161.037 217.191C161.082 216.498 162.453 215.845 164.559 217.02C166.173 217.92 166.776 218.589 166.993 218.103C167.207 217.618 169.725 218.425 169.725 218.425Z" fill="#414494"></path><path d="M176.51 142.075C176.51 142.075 180.526 149.495 180.954 162.675C180.235 165.201 173.98 163.754 173.185 162.671C172.393 161.592 172.8 155.696 172.8 155.696H175.973L175.011 149.36L176.51 142.075Z" fill="#E8AC8F"></path><path d="M173.523 155.871C173.53 155.768 173.535 155.697 173.535 155.697L174.79 154.28L175.746 149.361L176.822 142.273C176.822 142.273 179.648 145.551 180.882 154.353C178.226 155.547 175.943 156.686 173.523 155.871Z" fill="#82A6E8"></path><path d="M169.725 218.688C169.884 216.399 171.377 195.082 171.454 194.378C172.156 187.807 173.84 181.987 174.199 180.594C175.498 175.507 175.33 169.023 175.33 169.023L163.461 169.521C163.461 169.521 164.302 179.727 164.176 192.419C164.152 194.796 166.255 216.172 166.275 218.488C166.275 218.488 166.973 219.709 168.885 219.321C169.636 219.168 169.725 218.688 169.725 218.688Z" fill="#E8AC8F"></path><path d="M163.461 169.521L175.33 169.023C175.33 169.023 175.497 175.507 174.199 180.594C173.917 181.684 173.203 186.654 172.405 191.407C170.394 193.017 166.205 192.647 164.115 191.95C163.915 191.85 163.753 191.725 163.615 191.583C163.681 179.439 163.461 169.521 163.461 169.521Z" fill="#414494"></path><path d="M159.162 196.109C160.175 193.741 164.621 184.905 165.641 182.674C170.407 173.673 169.69 169.608 169.69 169.608L154.855 169.023C154.855 169.023 153.425 190.708 152.272 195.374C152.084 196.119 151.49 220.824 151.332 221.438C151.332 221.438 151.912 222.48 153.563 222.289C154.156 222.221 154.355 221.728 154.355 221.728L159.162 196.109Z" fill="#E8AC8F"></path><path d="M169.688 169.609C169.688 169.609 170.405 173.674 165.64 182.675C164.812 184.486 162.43 189.955 160.756 193.478C158.686 194.145 153.984 193.092 152.762 191.197C153.792 183.752 154.853 169.023 154.853 169.023L169.688 169.609Z" fill="#414494"></path><path d="M162.38 126.144C162.38 126.144 160.008 126.045 159.023 128.749C158.884 129.129 158.835 129.551 158.944 129.945C159.152 130.694 158.856 131.836 158.548 132.679C157.973 134.25 159.081 136.957 160.124 138.272C161.401 138.737 162.356 137.769 162.356 137.769L163.159 140.604L169.474 138.994C169.474 138.994 168.714 136.74 169.474 133.26C170.234 129.778 169.952 128.037 167.68 126.874C165.41 125.716 162.38 126.144 162.38 126.144Z" fill="#E8AC8F"></path><path d="M156.943 127.262C157 127.125 157.689 126.383 157.853 126.495C157.208 126.058 156.742 125.266 156.916 124.508C157.09 123.749 158.08 123.231 158.711 123.688C158.39 123.16 158.381 122.456 158.69 121.92C158.998 121.383 159.612 121.038 160.23 121.051C160.674 121.06 161.181 121.349 161.169 121.794C161.636 121.634 162.102 121.475 162.569 121.315C163.126 121.125 163.696 120.933 164.285 120.938C164.874 120.942 165.495 121.184 165.802 121.686C165.863 121.787 165.924 121.907 166.039 121.936C166.123 121.957 166.209 121.92 166.287 121.884C167.029 121.533 167.735 121.039 168.552 120.954C169.368 120.868 170.336 121.426 170.287 122.246C170.986 122.427 171.832 122.15 172.385 122.615C172.822 122.982 172.847 123.634 172.837 124.204C172.831 124.576 172.793 125.008 172.483 125.213C172.836 125.353 173.195 125.497 173.482 125.744C173.769 125.991 173.976 126.365 173.924 126.74C173.841 127.346 173.165 127.688 172.928 128.252C173.548 128.767 174.211 129.355 174.327 130.153C174.465 131.098 173.738 131.998 172.86 132.372C172.929 132.786 172.998 133.2 173.067 133.614C173.109 133.865 173.15 134.13 173.06 134.369C172.826 134.989 171.962 134.996 171.307 134.89C171.101 135.431 171.493 136.144 171.102 136.569C170.977 136.704 170.797 136.773 170.623 136.829C169.714 137.121 168.74 137.203 167.795 137.07C167.991 137.431 167.792 137.907 167.455 138.141C167.118 138.376 166.688 138.423 166.278 138.433C165.89 138.442 165.492 138.423 165.136 138.269C164.78 138.116 164.472 137.804 164.417 137.419C164.066 137.807 163.401 137.784 162.995 137.455C162.588 137.126 162.416 136.574 162.427 136.051C162.437 135.528 162.606 135.023 162.774 134.528C161.198 135.098 161.724 132.65 162.043 132.044C160.51 131.581 160.608 130.484 159.59 129.508C158.941 128.885 157.946 128.887 157.283 128.307C156.955 128.021 156.765 127.694 156.943 127.262Z" fill="#2E3368"></path><path d="M154.369 145.711C154.369 145.711 157.17 142.407 163.025 140.227C165.793 139.192 168.879 138.841 168.879 138.841C168.879 138.841 173.647 138.097 177.01 142.508C177.975 143.775 179.317 147.178 177.408 151.932C175.498 156.686 176.019 162.556 175.69 164.939C175.271 167.963 175.338 176.457 175.338 176.457C175.338 176.457 175.162 177.089 170.903 177.915C170.903 177.915 167.698 178.465 167.207 178.517C163.291 178.935 159.307 178.901 153.684 176.068C154.309 172.553 156.004 164.754 156.678 161.471C157.349 158.188 154.369 145.711 154.369 145.711Z" fill="#82A6E8"></path><path d="M149.01 189.322C149.83 187.663 150.432 186.252 150.922 185.1L151.102 185.168C150.611 186.324 150.006 187.74 149.184 189.407C149.159 189.454 149.102 189.475 149.054 189.451C149.006 189.428 148.987 189.37 149.01 189.322Z" fill="#BCBADF"></path><path d="M154.364 155.552C154.364 155.552 154.646 163.195 154.364 165.175C154.081 167.154 148.791 180.589 148.34 182.822C147.888 185.057 149.974 187.239 152.042 186.381C153.172 185.91 153.06 185.483 152.844 185.2C152.551 184.817 151.374 183.945 151.374 183.945C151.374 183.945 152.157 180.775 153.245 177.968C153.901 176.275 157.785 168.778 158.057 164.863C158.326 160.948 159.103 155.863 159.103 155.863L154.364 155.552Z" fill="#E8AC8F"></path><path d="M152.953 165.268C153.159 163.829 153.989 159.05 154.052 156.192C154.041 154.72 153.492 152.423 153.392 151.28C153.098 147.896 153.508 146.829 154.554 145.528C154.858 145.149 155.308 144.896 155.768 144.672C158.512 143.322 160.404 145.638 160.511 150.627C160.526 151.331 160.523 152.091 160.507 152.874L159.895 153.828C159.895 153.828 159.778 161.965 158.368 166.087C157.097 169.8 154.525 176.368 153.689 177.984C152.961 179.388 152.1 181.558 151.785 182.411C150.408 182.689 150.047 180.664 149.266 179.872C150.68 175.583 152.711 166.959 152.953 165.268Z" fill="#E8AC8F"></path><path d="M153.32 157.44C153.338 156.74 153.353 156.089 153.365 155.535C153.355 154.063 153.498 152.422 153.397 151.28C153.104 147.896 153.513 146.829 154.56 145.528C154.864 145.149 155.314 144.896 155.773 144.672C158.518 143.322 160.41 145.638 160.516 150.627C160.531 151.331 160.529 152.091 160.513 152.874H160.518C160.518 152.874 160.518 155.375 160.299 158.329C157.972 158.513 155.646 158.456 153.32 157.44Z" fill="#82A6E8"></path><path d="M152.035 183.475C152.036 183.475 152.036 183.475 152.036 183.475C152.225 183.475 152.392 183.616 152.55 183.906C153.344 185.383 153.211 194.259 153.205 194.636C153.204 194.69 153.162 194.732 153.108 194.732C153.108 194.732 153.108 194.732 153.107 194.732C153.054 194.731 153.011 194.686 153.011 194.634C153.013 194.542 153.15 185.432 152.379 183.998C152.261 183.779 152.146 183.667 152.037 183.667C151.901 183.668 151.738 183.812 151.546 184.074L151.398 183.956C151.631 183.642 151.834 183.475 152.035 183.475Z" fill="#BCBADF"></path><path d="M157.732 209.549L152.926 212.158L144.719 188.299L146.581 188.436L155.63 192.545L157.732 209.549Z" fill="#EFB33A"></path><path d="M146.581 187.166L155.63 192.545L153.221 194.21L144.719 188.299L146.581 187.166Z" fill="#DBA326"></path><path d="M152.924 212.158L140.234 203.526L144.717 188.299L153.358 194.176L152.924 212.158Z" fill="#F4C45B"></path><path d="M147.154 191.405C148.113 189.823 149.463 187.424 150.049 186.317L150.223 186.401C149.635 187.511 148.282 189.915 147.32 191.505C147.291 191.551 147.232 191.566 147.187 191.538C147.141 191.511 147.127 191.451 147.154 191.405Z" fill="#BCBADF"></path><path d="M151.741 184.229L151.453 184.008C152.205 185.473 151.972 194.548 151.97 194.64C151.968 194.694 152.011 194.738 152.064 194.74H152.065C152.118 194.741 152.162 194.698 152.163 194.646C152.173 194.289 152.375 186.361 151.741 184.229Z" fill="#BCBADF"></path><path d="M220.636 5.28951C206.944 -2.61595 195.844 2.07531 195.844 15.7677C195.844 22.1415 198.251 29.3417 202.203 36.0154L200.376 46.2385L210.98 47.3475C213.948 50.3171 217.211 52.8961 220.637 54.8737C234.329 62.7792 245.429 58.0879 245.429 44.3948C245.429 30.7031 234.329 13.195 220.636 5.28951Z" fill="#B73456"></path><path d="M218.394 7.5317C204.702 -0.373765 193.602 4.3175 193.602 18.0099C193.602 24.3836 196.009 31.5839 199.961 38.2576L198.134 48.4807L208.738 49.5897C211.706 52.5592 214.969 55.1383 218.395 57.1159C232.087 65.0214 243.187 60.3301 243.187 46.637C243.186 32.9453 232.086 15.4372 218.394 7.5317Z" fill="#CD4462"></path><path d="M226.903 59.894V57.7282C226.903 56.2308 227.169 55.0142 227.702 54.0784C228.246 53.1358 229.033 52.5877 230.064 52.434C231.106 52.2736 232.368 52.6213 233.85 53.477C235.355 54.346 236.617 55.4557 237.636 56.8061C238.655 58.1431 239.424 59.5903 239.945 61.1479C240.466 62.6921 240.727 64.2129 240.727 65.7102V67.8761C240.727 69.3735 240.461 70.5968 239.928 71.546C239.407 72.4885 238.631 73.0433 237.601 73.2104C236.582 73.3708 235.332 73.0231 233.85 72.1674C232.345 71.2984 231.077 70.192 230.046 68.8483C229.016 67.4913 228.234 66.0373 227.702 64.4865C227.169 62.9222 226.903 61.3914 226.903 59.894ZM230.446 59.7738V61.9397C230.446 63.183 230.7 64.4465 231.21 65.7299C231.719 67.0001 232.599 67.9961 233.85 68.7181C235.065 69.4201 235.922 69.4268 236.42 68.7383C236.929 68.0431 237.184 67.0738 237.184 65.8304V63.6646C237.184 62.4212 236.941 61.1712 236.455 59.9144C235.968 58.6443 235.1 57.6483 233.85 56.9263C232.634 56.2243 231.76 56.2143 231.227 56.8961C230.706 57.5712 230.446 58.5305 230.446 59.7738ZM209.188 26.1623V23.9964C209.188 22.4991 209.455 21.2825 209.987 20.3466C210.532 19.4041 211.319 18.856 212.349 18.7023C213.391 18.5419 214.653 18.8895 216.135 19.7452C217.64 20.6143 218.902 21.724 219.921 23.0743C220.94 24.4113 221.71 25.8586 222.231 27.4162C222.752 28.9603 223.013 30.4811 223.013 31.9785V34.1444C223.013 35.6417 222.746 36.865 222.214 37.8142C221.693 38.7568 220.917 39.3116 219.887 39.4786C218.868 39.639 217.617 39.2914 216.135 38.4357C214.63 37.5666 213.362 36.4602 212.332 35.1166C211.301 33.7595 210.52 32.3056 209.987 30.7547C209.455 29.1905 209.188 27.6597 209.188 26.1623ZM212.731 26.0421V28.2079C212.731 29.4513 212.986 30.7147 213.495 31.9982C214.005 33.2683 214.885 34.2644 216.135 34.9864C217.351 35.6883 218.208 35.695 218.706 35.0065C219.215 34.3113 219.47 33.3421 219.47 32.0987V29.9328C219.47 28.6895 219.227 27.4394 218.74 26.1827C218.254 24.9126 217.386 23.9165 216.135 23.1945C214.92 22.4926 214.045 22.4825 213.513 23.1643C212.992 23.8395 212.731 24.7987 212.731 26.0421ZM210.508 58.1286L234.961 31.1768L238.921 33.4631L214.468 60.415L210.508 58.1286Z" fill="#F6F6F6"></path><path d="M186.936 35.8856C190.227 33.4104 189.348 26.6881 184.973 20.8709C180.597 15.0538 174.383 12.3446 171.092 14.8199C167.801 17.2952 168.68 24.0175 173.055 29.8346C177.43 35.6518 183.645 38.3609 186.936 35.8856Z" fill="#FFD673"></path><path d="M185.795 36.5868C189.086 34.1116 188.207 27.3892 183.832 21.5721C179.457 15.7549 173.242 13.0458 169.951 15.5211C166.66 17.9963 167.539 24.7187 171.914 30.5358C176.289 36.353 182.504 39.0621 185.795 36.5868Z" fill="#EFB33A"></path><path d="M177.868 34.8673C173.006 32.0604 169.051 25.822 169.051 20.9603C169.051 16.0987 173.006 14.4275 177.868 17.2337C182.729 20.0406 186.684 26.279 186.684 31.1406C186.684 36.0029 182.729 37.6742 177.868 34.8673ZM177.868 17.6494C173.234 14.975 169.466 16.5677 169.466 21.2001C169.466 25.8325 173.234 31.7779 177.868 34.4523C182.501 37.1267 186.269 35.534 186.269 30.9016C186.269 26.2692 182.501 20.3238 177.868 17.6494Z" fill="#FFD673"></path><path d="M179.078 39.0299V20.7903L180.09 21.3746V39.6142L179.078 39.0299ZM182.484 28.2288C182.41 27.4641 182.109 26.7302 181.583 26.0272C181.056 25.3242 180.411 24.7518 179.645 24.31C179.086 23.987 178.597 23.8089 178.177 23.7756C177.762 23.7447 177.437 23.8445 177.202 24.0748C176.972 24.3076 176.857 24.6567 176.857 25.1222C176.857 25.5116 176.937 25.8928 177.097 26.2657C177.262 26.6362 177.472 26.9877 177.727 27.3202C177.982 27.6479 178.249 27.952 178.529 28.2322C178.808 28.5077 179.065 28.7488 179.3 28.9554L180.583 30.0954C180.912 30.3852 181.278 30.7343 181.682 31.1428C182.089 31.5537 182.478 32.018 182.848 32.5358C183.222 33.0511 183.531 33.614 183.773 34.2244C184.016 34.8347 184.137 35.4819 184.137 36.1659C184.137 36.9544 183.958 37.5636 183.601 37.9934C183.247 38.4256 182.728 38.6322 182.046 38.6132C181.367 38.5966 180.542 38.308 179.571 37.7475C178.666 37.2249 177.883 36.6039 177.221 35.8842C176.562 35.167 176.044 34.3975 175.666 33.5757C175.291 32.7563 175.08 31.9334 175.03 31.1069L176.61 32.019C176.651 32.5937 176.811 33.1423 177.091 33.6648C177.375 34.185 177.733 34.6576 178.165 35.0827C178.601 35.5055 179.07 35.8617 179.571 36.1515C180.156 36.4888 180.68 36.6823 181.145 36.7322C181.61 36.7774 181.978 36.6812 182.249 36.4437C182.521 36.2015 182.656 35.8144 182.656 35.2824C182.656 34.7979 182.539 34.336 182.305 33.8966C182.07 33.4572 181.762 33.0321 181.379 32.6212C180.997 32.2103 180.583 31.8054 180.139 31.4064L178.584 29.9956C177.597 29.0978 176.815 28.1787 176.24 27.2382C175.664 26.2977 175.376 25.3358 175.376 24.3526C175.376 23.5356 175.567 22.9336 175.95 22.5465C176.336 22.157 176.854 21.9813 177.504 22.0193C178.158 22.055 178.889 22.3056 179.695 22.7711C180.509 23.2413 181.233 23.828 181.867 24.531C182.5 25.2292 183.002 25.975 183.372 26.7682C183.747 27.5639 183.944 28.3357 183.965 29.0838L182.484 28.2288Z" fill="#F6F6F6"></path><path d="M159.699 27.5603C161.566 26.1563 161.068 22.3432 158.586 19.0435C156.104 15.7438 152.579 14.2071 150.712 15.6111C148.845 17.0151 149.344 20.8282 151.826 24.1279C154.307 27.4276 157.833 28.9643 159.699 27.5603Z" fill="#FFD673"></path><path d="M159.086 28.0857C160.953 26.6817 160.454 22.8686 157.972 19.5689C155.491 16.2692 151.966 14.7325 150.099 16.1365C148.232 17.5405 148.731 21.3536 151.212 24.6533C153.694 27.953 157.219 29.4897 159.086 28.0857Z" fill="#EFB33A"></path><path d="M154.587 27.1098C151.829 25.5177 149.586 21.979 149.586 19.2211C149.586 16.4633 151.829 15.5155 154.587 17.1075C157.345 18.6996 159.588 22.2384 159.588 24.9962C159.588 27.754 157.345 28.7018 154.587 27.1098ZM154.587 17.3431C151.959 15.8261 149.821 16.7297 149.821 19.3571C149.821 21.9853 151.96 25.3572 154.587 26.8742C157.215 28.3912 159.353 27.4876 159.353 24.8602C159.353 22.2327 157.215 18.8601 154.587 17.3431Z" fill="#FFD673"></path><path d="M155.289 29.6933V19.3475L155.863 19.6789V30.0247L155.289 29.6933ZM157.221 23.5667C157.179 23.1329 157.009 22.7167 156.71 22.3179C156.412 21.9192 156.045 21.5945 155.611 21.3439C155.294 21.1607 155.016 21.0596 154.778 21.0408C154.543 21.0232 154.359 21.0798 154.226 21.2105C154.095 21.3425 154.03 21.5405 154.03 21.8046C154.03 22.0255 154.075 22.2417 154.166 22.4532C154.259 22.6634 154.378 22.8627 154.523 23.0513C154.668 23.2372 154.819 23.4097 154.978 23.5686C155.137 23.7249 155.282 23.8617 155.415 23.9789L156.143 24.6255C156.33 24.7899 156.538 24.9879 156.766 25.2196C156.997 25.4527 157.218 25.716 157.428 26.0097C157.64 26.302 157.815 26.6213 157.953 26.9675C158.091 27.3138 158.159 27.6808 158.159 28.0688C158.159 28.5161 158.058 28.8616 157.855 29.1054C157.654 29.3506 157.36 29.4678 156.973 29.457C156.588 29.4475 156.12 29.2838 155.569 28.9659C155.056 28.6695 154.612 28.3172 154.236 27.909C153.863 27.5022 153.569 27.0657 153.354 26.5996C153.142 26.1348 153.022 25.6681 152.994 25.1993L153.89 25.7166C153.913 26.0426 154.004 26.3538 154.163 26.6501C154.324 26.9452 154.526 27.2133 154.771 27.4544C155.019 27.6942 155.285 27.8963 155.569 28.0606C155.901 28.2519 156.198 28.3617 156.462 28.39C156.726 28.4156 156.934 28.3611 157.088 28.2264C157.242 28.089 157.319 27.8694 157.319 27.5677C157.319 27.2928 157.253 27.0308 157.12 26.7816C156.987 26.5324 156.812 26.2912 156.595 26.0582C156.378 25.8251 156.143 25.5954 155.891 25.3691L155.009 24.5689C154.45 24.0596 154.006 23.5383 153.68 23.0048C153.353 22.4714 153.19 21.9258 153.19 21.3681C153.19 20.9046 153.298 20.5632 153.515 20.3436C153.734 20.1227 154.028 20.023 154.397 20.0446C154.768 20.0648 155.182 20.2069 155.639 20.471C156.101 20.7377 156.512 21.0705 156.871 21.4692C157.231 21.8653 157.515 22.2883 157.725 22.7382C157.938 23.1895 158.05 23.6274 158.061 24.0517L157.221 23.5667Z" fill="#F6F6F6"></path><path d="M163.889 11.4723C165.125 10.543 164.795 8.019 163.152 5.83479C161.509 3.65057 159.176 2.63325 157.94 3.56252C156.705 4.49179 157.035 7.01577 158.678 9.19999C160.32 11.3842 162.654 12.4015 163.889 11.4723Z" fill="#FFD673"></path><path d="M163.19 12.1734C164.426 11.2442 164.096 8.72017 162.453 6.53596C160.81 4.35174 158.477 3.33442 157.241 4.26369C156.006 5.19296 156.336 7.71694 157.978 9.90116C159.621 12.0854 161.955 13.1027 163.19 12.1734Z" fill="#EFB33A"></path><path d="M160.209 11.527C158.383 10.4733 156.898 8.13051 156.898 6.30504C156.898 4.47957 158.383 3.85216 160.209 4.9058C162.034 5.95944 163.519 8.30226 163.519 10.1277C163.519 11.9532 162.034 12.5806 160.209 11.527ZM160.209 5.06212C158.469 4.05756 157.054 4.65623 157.054 6.39547C157.054 8.13472 158.469 10.3668 160.209 11.3714C161.948 12.3759 163.363 11.7772 163.363 10.038C163.363 8.29806 161.948 6.06599 160.209 5.06212Z" fill="#FFD673"></path><path d="M160.687 12.956V6.10773L161.067 6.3271V13.1754L160.687 12.956ZM161.966 8.9006C161.938 8.61347 161.826 8.33793 161.628 8.07398C161.43 7.81003 161.188 7.59512 160.9 7.42925C160.69 7.30797 160.507 7.24108 160.349 7.22859C160.193 7.21699 160.071 7.25444 159.983 7.34093C159.897 7.42832 159.853 7.5594 159.853 7.73417C159.853 7.88041 159.883 8.02353 159.944 8.16353C160.005 8.30264 160.084 8.43462 160.18 8.55946C160.276 8.68252 160.376 8.79666 160.481 8.90189C160.586 9.00533 160.683 9.09584 160.771 9.17342L161.253 9.60146C161.376 9.71025 161.514 9.84134 161.665 9.99472C161.818 10.149 161.964 10.3233 162.103 10.5177C162.243 10.7112 162.359 10.9226 162.45 11.1517C162.541 11.3809 162.587 11.6239 162.587 11.8807C162.587 12.1768 162.52 12.4055 162.385 12.5669C162.253 12.7292 162.058 12.8067 161.802 12.7996C161.547 12.7933 161.237 12.685 160.873 12.4745C160.533 12.2783 160.239 12.0451 159.99 11.7749C159.743 11.5056 159.548 11.2167 159.406 10.9082C159.266 10.6005 159.186 10.2916 159.168 9.98125L159.761 10.3237C159.776 10.5395 159.836 10.7455 159.941 10.9416C160.048 11.1369 160.182 11.3144 160.344 11.474C160.508 11.6327 160.684 11.7665 160.873 11.8753C161.092 12.0019 161.289 12.0746 161.463 12.0933C161.638 12.1103 161.776 12.0742 161.878 11.985C161.98 11.8941 162.031 11.7487 162.031 11.549C162.031 11.3671 161.987 11.1936 161.899 11.0287C161.811 10.8637 161.695 10.7041 161.551 10.5498C161.408 10.3955 161.253 10.2435 161.086 10.0937L160.502 9.56398C160.131 9.2269 159.838 8.8818 159.622 8.52867C159.405 8.17555 159.297 7.8144 159.297 7.44524C159.297 7.13849 159.369 6.91245 159.513 6.7671C159.658 6.62087 159.853 6.55489 160.097 6.56917C160.342 6.58255 160.616 6.67664 160.919 6.85142C161.225 7.02799 161.497 7.24825 161.734 7.51221C161.972 7.77438 162.161 8.05438 162.3 8.35222C162.44 8.65094 162.514 8.94075 162.522 9.22164L161.966 8.9006Z" fill="#F6F6F6"></path><path d="M201.094 146.973L241.994 123.359L280.155 145.392L239.254 169.005L201.094 146.973Z" fill="#82A6E8"></path><path d="M257.076 132.066L216.176 155.68L228.025 162.521L268.924 138.907L257.076 132.066Z" fill="#4B53B2"></path><path d="M279.333 172.732V145.92L239.281 169.044V195.856L279.333 172.732Z" fill="#5B84CE"></path><path d="M280.155 154.431V145.392L239.254 169.005V178.045L280.155 154.431Z" fill="#5B84CE"></path><path d="M265.931 181.185V153.805L254.082 160.646V188.025L265.931 181.185Z" fill="#414494"></path><path d="M201.914 174.248V147.436L239.284 169.045V195.857L201.914 174.248Z" fill="#7391D5"></path><path d="M201.094 155.978V146.939L239.254 169.006V178.045L201.094 155.978Z" fill="#7391D5"></path><path d="M227.587 131.658L265.934 153.805L254.085 160.646L215.738 138.499L227.587 131.658Z" fill="#4B53B2"></path><path d="M216.18 183.057V155.678L228.028 162.518V189.898L216.18 183.057Z" fill="#414494"></path><path d="M239.641 143.329C239.641 143.329 246.002 130.538 247.133 127.256C248.265 123.973 260.726 132.259 262.069 133.594C263.411 134.93 256.641 146.272 247.36 150.687C240.342 149.555 239.641 143.329 239.641 143.329Z" fill="#7878DD"></path><path d="M247.361 149.894C247.361 149.894 255.284 138.122 256.869 135.405C258.454 132.689 260.168 132.721 260.83 132.915C261.493 133.109 261.988 133.406 262.239 133.783C262.491 134.16 263.057 135.707 260.679 138.914C258.302 142.122 253.209 148.422 247.36 150.687C246.4 150.49 247.361 149.894 247.361 149.894Z" fill="#3C3C83"></path><path d="M80.6548 195.652C80.6415 195.652 80.6282 195.652 80.6148 195.65C80.347 195.629 80.1473 195.393 80.1697 195.125C80.2209 194.482 81.4778 179.29 84.6703 174.297C85.4877 173.019 86.3247 172.45 87.201 172.549C89.5038 172.815 91.2452 177.746 93.8803 185.209L94.7419 187.639C94.833 187.892 94.6998 188.171 94.4475 188.26C94.2021 188.349 93.9154 188.22 93.8257 187.966L92.9641 185.534C90.7222 179.191 88.7888 173.713 87.0909 173.517C86.6058 173.488 86.0814 173.901 85.4919 174.822C82.4284 179.611 81.1532 195.048 81.1399 195.205C81.1189 195.46 80.9058 195.652 80.6548 195.652Z" fill="#AFAFAF"></path><path d="M75.1289 236.849L85.4852 242.104L108.505 185.185L99.3732 181.476L75.2789 193.86L75.1289 236.849Z" fill="#DD5277"></path><path d="M75.1289 236.849H81.8679L82.238 194.755L99.3732 181.476L75.2789 193.86L75.1289 236.849Z" fill="#CD4462"></path><path d="M99.3716 181.476L75.3867 193.785L84.4096 197.569L108.504 185.185L99.3716 181.476Z" fill="#99284B"></path><path d="M85.4841 242.104L116.913 220.724L108.504 185.185L84.4102 197.569L85.4841 242.104Z" fill="#B73456"></path><path d="M75.1289 236.848L81.8903 234.267L85.4852 242.103L75.1289 236.848Z" fill="#DD5277"></path><path d="M89.9567 198.207C89.7345 198.207 89.5347 198.055 89.4835 197.831C89.3082 197.08 85.236 179.359 88.4719 174.297C89.2459 173.09 90.3254 172.517 91.5747 172.668C95.3146 173.094 100.467 179.948 103.557 188.613C103.648 188.866 103.515 189.145 103.263 189.235C103.015 189.322 102.731 189.195 102.641 188.94C99.764 180.874 94.7503 174.009 91.4646 173.636C90.5764 173.521 89.8677 173.924 89.2935 174.823C86.2763 179.542 90.3885 197.431 90.4306 197.611C90.4916 197.874 90.3296 198.134 90.0674 198.195C90.0289 198.204 89.9924 198.207 89.9567 198.207Z" fill="#AFAFAF"></path><path d="M95.5527 216.191C95.5429 216.191 95.5331 216.191 95.5233 216.19C95.3263 216.175 95.1798 216.001 95.1966 215.804C95.2345 215.333 96.1577 204.174 98.502 200.507C99.1027 199.569 99.7168 199.152 100.36 199.224C102.051 199.419 103.331 203.04 105.266 208.521L105.898 210.306C105.966 210.492 105.868 210.697 105.682 210.763C105.502 210.829 105.291 210.733 105.225 210.546L104.593 208.76C102.946 204.102 101.527 200.078 100.28 199.934C99.9236 199.913 99.5381 200.216 99.1055 200.892C96.856 204.41 95.9187 215.748 95.9089 215.863C95.8934 216.05 95.7371 216.191 95.5527 216.191Z" fill="#AFAFAF"></path><path d="M91.4922 246.448L99.0983 250.307L116.006 208.503L109.298 205.779L91.6022 214.874L91.4922 246.448Z" fill="#F4C45B"></path><path d="M91.4922 246.448H96.4414L96.7134 215.533L109.298 205.779L91.6022 214.874L91.4922 246.448Z" fill="#F4C45B"></path><path d="M109.295 205.779L91.6797 214.82L98.3065 217.599L116.002 208.503L109.295 205.779Z" fill="#D1952C"></path><path d="M99.1012 250.307L122.184 234.606L116.008 208.504L98.3125 217.599L99.1012 250.307Z" fill="#EFB33A"></path><path d="M91.4922 246.448L96.4582 244.552L99.0983 250.307L91.4922 246.448Z" fill="#F4C45B"></path><path d="M102.384 218.068C102.221 218.068 102.074 217.956 102.036 217.792C101.908 217.24 98.9169 204.225 101.293 200.508C101.862 199.621 102.655 199.201 103.572 199.311C106.319 199.624 110.104 204.659 112.373 211.022C112.44 211.208 112.342 211.413 112.156 211.478C111.975 211.543 111.765 211.449 111.7 211.262C109.587 205.338 105.905 200.296 103.492 200.021C102.84 199.937 102.319 200.232 101.897 200.893C99.681 204.359 102.701 217.497 102.732 217.629C102.777 217.822 102.658 218.013 102.466 218.058C102.437 218.065 102.411 218.068 102.384 218.068Z" fill="#AFAFAF"></path><path d="M255.075 191.105C255.075 191.105 254.9 192.325 254.464 193.241C254.029 194.156 253.898 195.987 253.898 195.987C253.898 195.987 256.512 198.612 259.019 200.634C261.526 202.656 263.444 203.092 265.275 202.656C266.147 202.482 266.363 200.782 265.71 200.041C265.056 199.299 258.823 194.941 259.084 192.805C258.038 191.759 255.075 191.105 255.075 191.105Z" fill="#AFAFAF"></path><path d="M265.275 201.839C263.444 202.275 261.525 201.839 259.019 199.817C256.757 197.993 254.416 195.685 253.978 195.249C253.922 195.675 253.898 195.988 253.898 195.988C253.898 195.988 256.512 198.613 259.019 200.634C261.526 202.657 263.444 203.093 265.275 202.657C265.91 202.529 266.192 201.593 266.049 200.807C265.955 201.318 265.693 201.755 265.275 201.839Z" fill="#5B5B5B"></path><path d="M270.311 179.729C270.311 179.729 270.135 180.949 269.699 181.865C269.264 182.78 269.133 184.611 269.133 184.611C269.133 184.611 272.254 186.483 274.451 188.839C276.87 191.434 278.679 191.716 280.51 191.28C281.382 191.106 281.598 189.406 280.945 188.665C280.291 187.923 274.058 183.565 274.319 181.429C273.274 180.383 270.311 179.729 270.311 179.729Z" fill="#AFAFAF"></path><path d="M280.51 190.462C278.679 190.897 277.262 190.647 274.451 187.902C272.373 185.871 269.652 184.308 269.213 183.872C269.157 184.298 269.133 184.741 269.133 184.741C269.133 184.741 271.612 186.147 273.863 188.467C276.721 191.416 278.679 191.715 280.51 191.28C281.146 191.152 281.428 190.216 281.285 189.43C281.19 189.942 280.928 190.378 280.51 190.462Z" fill="#5B5B5B"></path><path d="M244.969 158.191C244.969 158.191 250.926 163.109 259.951 169.474C256.512 176.462 254.854 189.638 254.724 191.55C256.685 195.031 259.3 193.462 259.3 193.462C259.3 193.462 267.759 170.113 269.459 167.498C271.159 164.882 257.603 153.837 257.603 153.837L244.969 158.191Z" fill="#2E3368"></path><path d="M259.949 152.53C259.949 152.53 267.694 157.685 275.743 162.024C271.768 168.484 269.984 178.396 270.254 180.293C272.738 182.616 274.535 181.341 274.535 181.341C274.535 181.341 282.805 163.025 283.924 160.113C285.042 157.202 267.967 143.893 267.967 143.893L259.949 152.53Z" fill="#2E3368"></path><path d="M274.753 141.971C275.078 141.786 275.314 141.519 275.486 141.213L273.961 142.062C274.405 142.023 274.722 141.991 274.753 141.971Z" fill="#E0E0E0"></path><path d="M277.795 137.621C272.98 139.301 265.199 127.975 263.73 126.754C263.023 126.17 262.827 125.15 262.793 123.888H259.199C260.11 127.756 261.499 131.501 262.008 132.196C262.948 133.477 273.72 143.906 276.314 139.907C274.695 139.073 278.111 139.49 277.795 137.621Z" fill="#FF6485"></path><path d="M258.637 156.663C258.309 153.096 257.891 149.596 258.763 147.976C259.507 146.59 258.356 141.699 258.356 141.699L241.506 142.355C241.506 142.355 239.161 147.199 241.775 154.076C243.267 157.999 252.396 164.129 253.823 164.98C253.3 161.76 254.686 155.744 258.637 156.663Z" fill="#2E3368"></path><path d="M263.486 140.813C263.486 140.813 265.887 113.913 258.518 111.091C251.143 108.271 244.391 114.987 241.509 121.491C238.629 127.996 239.649 142.062 239.625 145.08C249.736 152.038 263.77 144.157 263.486 140.813Z" fill="#FF5573"></path><path d="M256.729 115.995L256.367 118.332L257.652 119.145V137.874L259.949 140.122L261.47 135.682L258.918 118.799L259.463 116.872L258.353 115.586L256.729 115.995Z" fill="#2E3368"></path><path d="M260.595 100.323C260.595 100.323 262.434 103.267 260.787 109.659C259.448 114.84 259.289 116.298 257.127 116.515C254.963 116.736 250.302 115.27 249.662 111.168C249.019 111.029 247.198 108.565 248.234 106.602C249.275 104.642 250.004 106.785 250.004 106.785C250.004 106.785 249.963 102.511 252.983 100.953C256.006 99.3951 260.595 100.323 260.595 100.323Z" fill="#E8AC8F"></path><path d="M253.493 105.458C253.505 105.208 255.799 108.483 259.487 107.424C258.219 107.042 257.926 106.15 257.926 106.15C257.926 106.15 259.162 107.796 261.281 107.239C260.376 106.863 259.941 106.463 259.941 106.463C259.941 106.463 261.345 107.204 262.692 106.666C261.843 106.302 261.971 105.741 261.971 105.741C261.971 105.741 262.721 106.491 264.179 105.219C263.586 105.14 263.645 102.417 261.502 100.456C259.358 98.4948 257.126 96.5508 254.254 97.0345C254.958 96.3013 254.855 96.1323 255.87 96.2929C254.723 95.6542 252.202 96.154 251.486 97.2126C249.254 96.3573 246.481 99.7454 247.869 107.872C247.893 107.668 248.083 106.344 248.872 106.097C249.66 105.847 250.324 107.394 250.143 107.785C249.967 108.18 249.878 110.497 249.878 110.497L250.899 111.032C250.899 111.032 250.582 109.016 251.305 108.407C252.036 107.802 253.355 108.555 253.493 105.458Z" fill="#2E3368"></path><path d="M261.421 160.617L285.649 146.629V145.601L246.574 151.017V152.05L261.421 160.617Z" fill="#414494"></path><path d="M261.421 159.591L285.649 145.601L270.805 137.027L246.574 151.017L261.421 159.591Z" fill="#4B53B2"></path><path d="M267.948 146.857C266.922 146.781 265.759 147.031 263.955 147.063C262.15 147.098 262.219 146.081 262.148 144.626C261.579 145.045 261.386 146.345 260.467 147.011C259.547 147.678 258.817 147.294 258.817 147.294L258.767 146.994C252.236 145.841 246.367 140.709 245.335 139.161C244.273 137.565 245.759 130.983 246.011 126.646C246.011 126.646 245.021 122.774 241.527 124.748C238.034 126.729 239.86 140.879 239.86 142.474C239.86 144.059 252.826 149.783 258.949 150.343C259.983 150.94 261.24 151.483 262.476 151.56C267.751 151.458 268.973 146.925 267.948 146.857Z" fill="url(#paint0_linear_2_102902)"></path><path d="M267.946 146.857C266.92 146.781 265.757 147.031 263.953 147.063C262.148 147.098 262.217 146.081 262.146 144.626C261.577 145.045 261.291 146.275 260.313 146.85C259.84 147.127 259.185 147.051 259.185 147.051L258.765 146.994C252.233 145.842 246.365 140.709 245.333 139.161C244.648 138.13 245.025 135.018 245.446 131.774C245.801 128.92 247.82 125.318 247.416 120.736C247.416 120.736 247.103 115.768 243.611 117.745C241.818 118.762 240.254 125.075 239.381 130.363C238.549 136.981 238.903 141.366 238.903 142.374C238.903 143.959 252.824 149.784 258.946 150.344C259.98 150.941 261.238 151.483 262.474 151.561C267.749 151.458 268.97 146.925 267.946 146.857Z" fill="#E8AC8F"></path><path d="M258.92 146.577C253.585 144.737 246.214 140.483 245.333 139.161C244.648 138.13 245.025 135.018 245.446 131.774C245.801 128.92 247.82 125.318 247.416 120.736C247.416 120.736 247.103 115.768 243.611 117.745C241.818 118.762 240.254 125.075 239.381 130.363C238.549 136.981 238.903 141.366 238.903 142.374C238.903 143.684 240.186 147.673 258.544 150.871C258.386 149.746 257.856 147.701 258.92 146.577Z" fill="#FF6485"></path><path d="M285.652 128.459L261.423 159.59L260.633 159.168L260.634 142.026L284.863 128.04L285.652 128.459Z" fill="#B8C8D1"></path><path d="M285.649 145.6L261.422 159.589V142.446L285.651 128.459L285.649 145.6Z" fill="#9EBAC6"></path><path d="M252.253 110.018C252.253 108.664 251.154 106.931 249.8 106.149C248.951 105.659 248.203 105.659 247.763 106.06L247.762 106.059L246.926 106.902L247.374 107.468C247.509 108.773 248.537 110.325 249.799 111.054C250.017 111.18 250.225 111.262 250.426 111.325L250.969 112.011L251.866 111.115L251.862 111.111C252.107 110.871 252.253 110.504 252.253 110.018Z" fill="#757575"></path><path d="M250.887 112.092C251.702 111.479 251.484 109.816 250.402 108.376C249.319 106.937 247.781 106.267 246.967 106.879C246.152 107.492 246.37 109.155 247.452 110.595C248.535 112.034 250.073 112.704 250.887 112.092Z" fill="#8E8E8E"></path><path d="M248.593 106.063C248.593 106.063 248.257 100.397 252.252 98.294C256.246 96.1909 258.599 96.9992 260.547 99.6035C258.144 98.4987 255.398 97.9729 252.77 100.602C250.141 103.231 250.579 107.262 250.579 107.262L248.593 106.063Z" fill="#757575"></path><path d="M283.47 80.2651L268.339 89.0006L262.584 98.0319L261.766 97.2138V84.8533C261.766 83.8424 262.585 82.549 263.597 81.9651L283.47 70.4914C284.481 69.9075 286.116 70.9814 286.116 71.993L285.301 77.3769C285.301 78.3878 284.482 79.6811 283.47 80.2651Z" fill="#B8C8D1"></path><path d="M284.29 81.0821L269.159 89.8183L262.586 98.0315V85.671C262.586 84.6601 263.405 83.3667 264.417 82.7828L284.29 71.3091C285.301 70.7252 286.121 71.0715 286.121 72.083V78.1946C286.121 79.2055 285.301 80.4988 284.29 81.0821Z" fill="#9EBAC6"></path><path d="M99.0199 52.8721L100.334 53.3978L101.318 56.2019L106.457 53.9818L107.772 54.5076L102.738 59.754L99.9025 63.7457L95.737 70.1993L94.4226 69.6735L95.301 64.0478L91.582 62.5701L96.7212 58.856L99.0199 52.8721Z" fill="#EEDC34"></path><path d="M100.336 53.3975L102.634 56.7273L107.773 54.5072L104.055 60.2794L104.933 64.8908L100.336 65.1284L95.739 70.1989L96.6174 64.5732L92.8984 63.0954L98.0376 59.3814L100.336 53.3975Z" fill="#ECB82B"></path><path d="M83.1566 61.5352L84.471 62.0609L85.4553 64.8657L90.5945 62.6449L91.9089 63.1706L86.8756 68.4171L84.0392 72.4088L79.8744 78.8624L78.56 78.3366L79.4377 72.7116L75.7188 71.2331L80.8587 67.5191L83.1566 61.5352Z" fill="#EEDC34"></path><path d="M84.4691 62.0605L86.7678 65.3911L91.907 63.1703L88.1881 68.9425L89.0658 73.5538L84.4691 73.7915L79.8725 78.862L80.7502 73.237L77.0312 71.7585L82.1712 68.0445L84.4691 62.0605Z" fill="#ECB82B"></path><path d="M67.8012 70.1992L69.1156 70.725L70.0991 73.5291L75.2383 71.3089L76.5528 71.8347L71.5201 77.0805L68.6837 81.0728L64.519 87.5258L63.2045 87L64.0822 81.375L60.3633 79.8972L65.5025 76.1832L67.8012 70.1992Z" fill="#EEDC34"></path><path d="M69.1176 70.7246L71.4155 74.0545L76.5547 71.8343L72.8365 77.6059L73.7142 82.2179L69.1176 82.4549L64.5209 87.5254L65.3986 81.9004L61.6797 80.4226L66.8189 76.7086L69.1176 70.7246Z" fill="#ECB82B"></path><path d="M130.047 35.2822L131.362 35.808L132.345 38.6121L137.484 36.3912L138.799 36.917L133.766 42.1635L130.93 46.1558L126.765 52.6088L125.451 52.083L126.328 46.458L122.609 44.9795L127.749 41.2662L130.047 35.2822Z" fill="#EEDC34"></path><path d="M131.36 35.8076L133.658 39.1375L138.797 36.9166L135.079 42.6889L135.956 47.3009L131.36 47.5379L126.763 52.6084L127.641 46.9834L123.922 45.5049L129.061 41.7916L131.36 35.8076Z" fill="#ECB82B"></path><path d="M114.695 43.9453L116.009 44.4711L116.994 47.2752L122.133 45.055L123.447 45.5808L118.414 50.8266L115.578 54.8189L111.413 61.2719L110.098 60.7461L110.976 55.1211L107.258 53.6433L112.397 49.9293L114.695 43.9453Z" fill="#EEDC34"></path><path d="M116.007 44.4707L118.306 47.8006L123.445 45.5804L119.726 51.352L120.604 55.964L116.007 56.201L111.411 61.2715L112.289 55.6464L108.57 54.1687L113.71 50.4546L116.007 44.4707Z" fill="#ECB82B"></path><path d="M20.1318 105.644V103.749L26.2943 92.4012C27.0175 91.0713 27.6131 89.9344 28.0811 88.9905C28.549 88.0396 28.8954 87.201 29.1203 86.4746C29.3512 85.7378 29.4667 85.0395 29.4667 84.3798C29.4667 83.6219 29.3087 83.057 28.9927 82.6851C28.6827 82.3096 28.2573 82.1272 27.7164 82.1377C27.1755 82.1483 26.5678 82.3483 25.8932 82.7378C25.1761 83.1519 24.5501 83.6853 24.0153 84.3379C23.4866 84.9801 23.0763 85.6906 22.7846 86.4696C22.499 87.2451 22.3562 88.0433 22.3562 88.8644L20.2048 90.1066C20.2048 88.8434 20.457 87.589 20.9614 86.3433C21.4658 85.0977 22.1526 83.9573 23.0216 82.9221C23.8968 81.8835 24.8783 81.0501 25.9661 80.422C27.0601 79.7903 28.0294 79.4973 28.8742 79.5429C29.7189 79.5885 30.3814 79.9253 30.8615 80.5534C31.3416 81.1814 31.5816 82.0499 31.5816 83.1587C31.5816 83.9517 31.4571 84.7991 31.2079 85.7008C30.9648 86.5921 30.5394 87.6764 29.9316 88.9536C29.33 90.2203 28.4943 91.8257 27.4247 93.7696L23.2313 101.37V101.538L31.9098 96.5274V98.8433L20.1318 105.644ZM34.8361 92.7325V90.585L43.0406 70.8579L44.3898 70.0789V73.4053L43.4782 73.9317L37.2792 88.8375V89.006L48.3279 82.6264V84.9423L34.8361 92.7325ZM43.624 92.0795V87.0057V86.0057V70.521L45.7754 69.2788V90.8373L43.624 92.0795ZM22.3197 130.654V140.381L20.1683 141.623V120.064L22.3197 118.822V126.738L22.502 126.633C22.8302 125.608 23.3225 124.661 23.9788 123.791C24.6413 122.91 25.5225 122.152 26.6225 121.517C27.5766 120.966 28.4123 120.704 29.1294 120.732C29.8465 120.754 30.4026 121.103 30.7977 121.78C31.1988 122.446 31.3993 123.475 31.3993 124.864V135.138L29.2479 136.38V126.275C29.2479 124.99 28.9592 124.164 28.3819 123.796C27.8106 123.417 27.0175 123.52 26.0026 124.106C25.2976 124.513 24.6656 125.05 24.1064 125.717C23.5534 126.38 23.1158 127.135 22.7937 127.98C22.4777 128.822 22.3197 129.714 22.3197 130.654Z" fill="#5B84CE"></path><path d="M226.836 228.804C226.836 227.183 228.15 225.11 229.771 224.174C230.788 223.587 231.682 223.587 232.209 224.068L232.21 224.067L233.211 225.076L232.675 225.754C232.514 227.316 231.283 229.173 229.772 230.045C229.511 230.196 229.263 230.294 229.022 230.369L228.372 231.19L227.299 230.117L227.304 230.112C227.01 229.825 226.836 229.386 226.836 228.804Z" fill="#757575"></path><path d="M232.594 229.48C233.89 227.758 234.15 225.767 233.175 225.034C232.201 224.301 230.36 225.103 229.065 226.825C227.769 228.548 227.509 230.539 228.484 231.272C229.458 232.005 231.299 231.203 232.594 229.48Z" fill="#8E8E8E"></path><path d="M210.07 238.385C210.07 236.764 211.385 234.691 213.005 233.755C214.022 233.168 214.916 233.168 215.444 233.649L215.444 233.649L216.445 234.657L215.909 235.335C215.748 236.897 214.518 238.754 213.006 239.626C212.745 239.777 212.497 239.875 212.256 239.95L211.606 240.771L210.534 239.698L210.538 239.693C210.245 239.406 210.07 238.967 210.07 238.385Z" fill="#757575"></path><path d="M215.829 239.06C217.124 237.338 217.384 235.347 216.41 234.614C215.435 233.881 213.595 234.683 212.299 236.405C211.003 238.128 210.743 240.119 211.718 240.852C212.693 241.585 214.533 240.783 215.829 239.06Z" fill="#8E8E8E"></path><path d="M204.527 216.888C204.527 215.267 205.842 213.194 207.463 212.258C208.479 211.671 209.374 211.671 209.901 212.152L209.901 212.151L210.902 213.16L210.366 213.838C210.205 215.4 208.975 217.257 207.463 218.129C207.202 218.28 206.954 218.378 206.713 218.453L206.063 219.274L204.991 218.201L204.995 218.196C204.702 217.909 204.527 217.47 204.527 216.888Z" fill="#757575"></path><path d="M210.282 217.564C211.577 215.842 211.837 213.851 210.863 213.118C209.888 212.385 208.048 213.187 206.752 214.909C205.457 216.632 205.196 218.623 206.171 219.356C207.146 220.089 208.986 219.287 210.282 217.564Z" fill="#8E8E8E"></path><path d="M187.754 226.467C187.754 224.846 189.068 222.773 190.689 221.837C191.706 221.25 192.6 221.25 193.127 221.731L193.128 221.731L194.129 222.739L193.593 223.417C193.431 224.979 192.201 226.836 190.69 227.708C190.429 227.859 190.181 227.957 189.94 228.032L189.29 228.853L188.217 227.78L188.221 227.775C187.928 227.488 187.754 227.049 187.754 226.467Z" fill="#757575"></path><path d="M193.512 227.143C194.808 225.421 195.068 223.43 194.093 222.697C193.119 221.964 191.278 222.766 189.983 224.488C188.687 226.211 188.427 228.202 189.402 228.935C190.376 229.668 192.217 228.866 193.512 227.143Z" fill="#8E8E8E"></path><path d="M186.728 224.201L210.887 210.141V202.413C211.242 202.22 211.617 202.037 212.004 201.86V210.783L187.895 224.815L209.36 235.437L235.616 220.093V210.462H236.734V220.734L209.861 236.438C209.575 236.605 209.226 236.616 208.93 236.47L186.772 225.505C186.242 225.243 186.217 224.499 186.728 224.201Z" fill="#AFAFAF"></path><path d="M201.441 211.81L246.571 179.522L243.274 207.009L204.992 229.109L201.441 211.81ZM245.161 181.905L202.682 212.297L205.775 227.369L242.232 206.323L245.161 181.905Z" fill="#AFAFAF"></path><path d="M179.543 200.102L224.672 167.814L221.417 194.906L183.093 217.401L179.543 200.102ZM223.262 170.197L180.783 200.589L183.876 215.661L220.375 194.22L223.262 170.197Z" fill="#AFAFAF"></path><path d="M183.637 216.387L183.109 217.371L205.03 229.11L205.557 228.125L183.637 216.387Z" fill="#AFAFAF"></path><path d="M220.375 194.286L224.238 163.8C224.268 163.567 224.394 163.356 224.586 163.22L232.193 157.831C232.792 157.407 233.571 157.334 234.238 157.64L255.066 167.187C255.702 167.478 255.791 168.345 255.228 168.76L247.496 174.458C247.361 174.557 247.273 174.709 247.252 174.875L243.277 207.008L242.784 207.293L220.375 194.286ZM253.888 167.877L233.55 158.555C233.383 158.478 233.188 158.497 233.038 158.603L225.576 163.888C225.42 163.998 225.317 164.169 225.293 164.359L221.565 193.778L242.3 205.789L246.186 174.384C246.216 174.139 246.347 173.916 246.546 173.77L253.934 168.326C254.095 168.207 254.07 167.961 253.888 167.877Z" fill="#AFAFAF"></path><path d="M241.329 179.109L238.402 204.299L238.746 204.339L241.672 179.149L241.329 179.109Z" fill="#AFAFAF"></path><path d="M237.895 177.148L234.969 202.338L235.312 202.378L238.239 177.188L237.895 177.148Z" fill="#AFAFAF"></path><path d="M234.458 175.185L231.531 200.375L231.875 200.415L234.801 175.225L234.458 175.185Z" fill="#AFAFAF"></path><path d="M231.028 173.227L228.102 198.417L228.445 198.457L231.371 173.267L231.028 173.227Z" fill="#AFAFAF"></path><path d="M227.591 171.264L224.664 196.454L225.007 196.494L227.934 171.304L227.591 171.264Z" fill="#AFAFAF"></path><path d="M218.442 195.759L218.266 196.057L239.378 208.557L239.554 208.26L218.442 195.759Z" fill="#AFAFAF"></path><path d="M215.582 197.561L215.406 197.858L236.519 210.359L236.695 210.062L215.582 197.561Z" fill="#AFAFAF"></path><path d="M212.723 199.364L212.547 199.661L233.659 212.162L233.835 211.864L212.723 199.364Z" fill="#AFAFAF"></path><path d="M209.613 201.013L209.438 201.31L230.55 213.81L230.726 213.513L209.613 201.013Z" fill="#AFAFAF"></path><path d="M206.582 202.742L206.406 203.039L227.519 215.54L227.694 215.243L206.582 202.742Z" fill="#AFAFAF"></path><path d="M203.496 204.404L203.32 204.701L224.433 217.202L224.609 216.905L203.496 204.404Z" fill="#AFAFAF"></path><path d="M200.68 206.23L200.504 206.526L221.616 219.027L221.792 218.73L200.68 206.23Z" fill="#AFAFAF"></path><path d="M197.652 207.88L197.477 208.177L218.589 220.677L218.765 220.381L197.652 207.88Z" fill="#AFAFAF"></path><path d="M194.73 209.69L194.555 209.986L215.667 222.487L215.843 222.19L194.73 209.69Z" fill="#AFAFAF"></path><path d="M191.594 211.336L191.418 211.633L212.53 224.133L212.706 223.837L191.594 211.336Z" fill="#AFAFAF"></path><path d="M209.804 225.991L209.98 225.693L188.863 213.201L188.688 213.498L209.804 225.991Z" fill="#AFAFAF"></path><path d="M206.898 227.756L207.073 227.459L185.957 214.967L185.781 215.264L206.898 227.756Z" fill="#AFAFAF"></path><path d="M217.308 197.055L220.126 172.373L219.784 172.334L216.965 197.016L217.308 197.055Z" fill="#AFAFAF"></path><path d="M214.491 198.804L217.31 174.122L216.967 174.082L214.148 198.764L214.491 198.804Z" fill="#AFAFAF"></path><path d="M211.671 200.551L214.49 175.869L214.147 175.829L211.328 200.511L211.671 200.551Z" fill="#AFAFAF"></path><path d="M208.89 201.996L211.674 177.616L211.331 177.576L208.547 201.956L208.89 201.996Z" fill="#AFAFAF"></path><path d="M206.086 203.573L208.757 180.182L208.413 180.142L205.742 203.534L206.086 203.573Z" fill="#AFAFAF"></path><path d="M203.262 205.374L205.889 182.371L205.545 182.332L202.918 205.334L203.262 205.374Z" fill="#AFAFAF"></path><path d="M200.476 206.849L203.063 184.204L202.719 184.165L200.133 206.81L200.476 206.849Z" fill="#AFAFAF"></path><path d="M197.644 208.706L200.202 186.311L199.858 186.271L197.301 208.666L197.644 208.706Z" fill="#AFAFAF"></path><path d="M194.847 210.266L197.366 188.209L197.022 188.17L194.504 210.226L194.847 210.266Z" fill="#AFAFAF"></path><path d="M192.024 212.075L194.497 190.416L194.154 190.376L191.68 212.036L192.024 212.075Z" fill="#AFAFAF"></path><path d="M189.203 213.804L191.65 192.374L191.307 192.334L188.859 213.764L189.203 213.804Z" fill="#AFAFAF"></path><path d="M186.414 215.291L188.805 194.358L188.461 194.318L186.07 215.251L186.414 215.291Z" fill="#AFAFAF"></path><path d="M183.582 217.187L185.969 196.289L185.625 196.249L183.238 217.147L183.582 217.187Z" fill="#AFAFAF"></path><path d="M181.882 207.853L183.1 198.44L182.758 198.396L181.539 207.808L181.882 207.853Z" fill="#AFAFAF"></path><path d="M233.185 190.825L215.581 180.661L199.156 190.144L216.76 200.307L233.185 190.825Z" fill="#FFD673"></path><path d="M209.106 184.096L226.972 194.411L221.797 197.399L203.93 187.083L209.106 184.096Z" fill="#FDF9FF"></path><path d="M199.156 209.049V190.144L216.879 200.248V219.459L199.156 209.049Z" fill="#EFB33A"></path><path d="M233.204 210.019V190.809L216.879 200.248V219.459L233.204 210.019Z" fill="#F4C45B"></path><path d="M221.797 197.398L226.973 194.409V200.716L221.797 203.95V197.398Z" fill="#E8E8E8"></path><path d="M226.973 208.856V213.868L221.797 216.857V211.893L226.973 208.856Z" fill="#E8E8E8"></path><path d="M227.623 177.879L215.772 171.037L204.715 177.421L216.566 184.263L227.623 177.879Z" fill="#FFD673"></path><path d="M211.414 173.35L223.442 180.293L219.958 182.305L207.93 175.361L211.414 173.35Z" fill="#FDF9FF"></path><path d="M204.715 190.148V177.421L216.646 184.224V197.156L204.715 190.148Z" fill="#EFB33A"></path><path d="M227.635 190.802V177.869L216.645 184.224V197.156L227.635 190.802Z" fill="#F4C45B"></path><path d="M219.953 182.304L223.438 180.292V184.537L219.953 186.715V182.304Z" fill="#E8E8E8"></path><path d="M223.438 190.019V193.392L219.953 195.404V192.063L223.438 190.019Z" fill="#E8E8E8"></path><path d="M201.438 211.809L246.567 179.521L243.27 207.008L204.988 229.109L201.438 211.809ZM245.157 181.904L202.678 212.296L205.771 227.368L242.228 206.322L245.157 181.904Z" fill="#AFAFAF"></path><path d="M202.95 183.349C202.901 183.686 202.891 184.029 202.93 184.368C202.937 184.492 202.927 184.616 202.926 184.74L180.775 200.588L183.868 215.66L197.151 207.857C197.446 208.139 197.782 208.379 198.152 208.558L183.085 217.402L179.535 200.102L202.95 183.349Z" fill="#AFAFAF"></path><path d="M224.25 168.507L223.723 169.491L245.617 181.216L246.144 180.231L224.25 168.507Z" fill="#AFAFAF"></path><path d="M180.445 199.848L179.918 200.833L201.812 212.557L202.339 211.573L180.445 199.848Z" fill="#AFAFAF"></path><path d="M183.633 216.387L183.105 217.371L205.026 229.11L205.553 228.125L183.633 216.387Z" fill="#AFAFAF"></path><path d="M255.058 167.187L234.229 157.64C233.563 157.334 232.783 157.407 232.185 157.831L224.578 163.22C224.386 163.356 224.259 163.567 224.23 163.799L222.949 173.905C223.324 173.9 223.699 173.947 224.057 174.045L225.284 164.358C225.308 164.168 225.411 163.997 225.568 163.886L233.03 158.601C233.18 158.495 233.375 158.477 233.542 158.553L253.88 167.876C254.061 167.958 254.087 168.206 253.926 168.324L246.537 173.769C246.338 173.915 246.209 174.137 246.178 174.383L242.293 205.787L233.61 200.758C233.601 201.072 233.56 201.383 233.495 201.667C233.479 201.736 233.456 201.803 233.435 201.871L242.775 207.292L243.268 207.007L247.243 174.874C247.264 174.707 247.352 174.556 247.487 174.457L255.219 168.759C255.782 168.345 255.693 167.478 255.058 167.187Z" fill="#AFAFAF"></path><path d="M198.235 210.505L197.922 210.572L201.386 226.765L201.699 226.698L198.235 210.505Z" fill="#AFAFAF"></path><path d="M194.606 208.495L194.293 208.562L197.757 224.753L198.07 224.686L194.606 208.495Z" fill="#AFAFAF"></path><path d="M190.977 206.483L190.664 206.55L194.128 222.742L194.441 222.675L190.977 206.483Z" fill="#AFAFAF"></path><path d="M187.345 204.471L187.031 204.538L190.495 220.73L190.809 220.663L187.345 204.471Z" fill="#AFAFAF"></path><path d="M183.712 202.46L183.398 202.527L186.862 218.719L187.176 218.652L183.712 202.46Z" fill="#AFAFAF"></path><path d="M239.171 208.498L241.99 183.816L241.646 183.776L238.828 208.458L239.171 208.498Z" fill="#AFAFAF"></path><path d="M236.355 210.245L239.173 185.563L238.831 185.523L236.012 210.205L236.355 210.245Z" fill="#AFAFAF"></path><path d="M233.538 211.993L236.357 187.311L236.014 187.271L233.195 211.953L233.538 211.993Z" fill="#AFAFAF"></path><path d="M230.718 213.74L233.537 189.059L233.194 189.02L230.375 213.701L230.718 213.74Z" fill="#AFAFAF"></path><path d="M227.894 215.488L230.619 191.623L230.276 191.584L227.551 215.449L227.894 215.488Z" fill="#AFAFAF"></path><path d="M225.078 217.237L227.753 193.814L227.409 193.774L224.734 217.197L225.078 217.237Z" fill="#AFAFAF"></path><path d="M222.257 218.984L224.922 195.647L224.579 195.607L221.914 218.945L222.257 218.984Z" fill="#AFAFAF"></path><path d="M219.444 220.733L222.068 197.755L221.726 197.715L219.102 220.693L219.444 220.733Z" fill="#AFAFAF"></path><path d="M216.71 221.708L219.229 199.652L218.886 199.612L216.367 221.669L216.71 221.708Z" fill="#AFAFAF"></path><path d="M213.886 223.518L216.36 201.858L216.017 201.818L213.543 223.478L213.886 223.518Z" fill="#AFAFAF"></path><path d="M211.07 225.245L213.517 203.815L213.174 203.775L210.727 225.206L211.07 225.245Z" fill="#AFAFAF"></path><path d="M208.281 226.734L210.671 205.802L210.328 205.762L207.938 226.695L208.281 226.734Z" fill="#AFAFAF"></path><path d="M205.445 228.63L207.831 207.731L207.488 207.691L205.102 228.59L205.445 228.63Z" fill="#AFAFAF"></path><path d="M203.748 219.295L204.966 209.882L204.624 209.839L203.406 219.252L203.748 219.295Z" fill="#AFAFAF"></path><defs><linearGradient id="paint0_linear_2_102902" x1="268.28" y1="137.874" x2="239.382" y2="137.874" gradientUnits="userSpaceOnUse"><stop stop-color="#F6E0C3"></stop><stop offset="1" stop-color="#ECB673"></stop></linearGradient></defs></svg>