<svg xmlns="http://www.w3.org/2000/svg" width="500" height="300" viewBox="0 0 500 300" fill="none"><rect width="500" height="300" rx="24" fill="white"></rect><path opacity="0.6" d="M455.084 100.51L376.649 55.2253L274.161 114.396C273.04 115.043 273.04 116.661 274.161 117.308L346.96 159.339C348.887 160.451 351.261 160.451 353.188 159.339L455.084 100.51Z" fill="url(#paint0_linear_2288_192006)"></path><path opacity="0.6" d="M55 101.923L133.435 56.6384L235.923 115.809C237.044 116.456 237.044 118.074 235.923 118.721L163.124 160.752C161.197 161.864 158.823 161.864 156.896 160.752L55 101.923Z" fill="url(#paint1_linear_2288_192006)"></path><path opacity="0.6" d="M59.8164 245.473L136.94 290L237.714 231.819C238.816 231.183 238.816 229.591 237.714 228.955L163.07 185.86L59.8164 245.473Z" fill="url(#paint2_linear_2288_192006)"></path><path opacity="0.6" d="M454.372 244.467L377.248 288.995L276.475 230.813C275.373 230.176 275.373 228.586 276.475 227.949L351.119 184.854L454.372 244.467Z" fill="url(#paint3_linear_2288_192006)"></path><path d="M306.099 202.036C306.028 202.036 305.957 202.017 305.892 201.981L262.433 176.89C262.236 176.775 262.168 176.523 262.282 176.325C262.396 176.128 262.649 176.06 262.847 176.174L306.305 201.264C306.503 201.379 306.571 201.632 306.457 201.829C306.381 201.962 306.242 202.036 306.099 202.036Z" fill="#42E8E0"></path><path d="M264.16 162.219C264.017 162.219 263.878 162.145 263.802 162.012C263.687 161.815 263.755 161.562 263.953 161.447L307.412 136.357C307.609 136.242 307.863 136.311 307.977 136.508C308.092 136.706 308.024 136.959 307.825 137.073L264.367 162.165C264.302 162.201 264.23 162.219 264.16 162.219Z" fill="#42E8E0"></path><path d="M241.567 166.313C241.497 166.313 241.426 166.296 241.361 166.258L197.902 141.167C197.704 141.053 197.637 140.801 197.751 140.602C197.864 140.405 198.119 140.337 198.316 140.451L241.774 165.541C241.972 165.656 242.039 165.908 241.926 166.106C241.849 166.239 241.71 166.313 241.567 166.313Z" fill="#42E8E0"></path><path d="M349.853 160.5C348.575 160.5 347.317 160.164 346.216 159.529L273.806 117.723C273.15 117.343 272.758 116.664 272.758 115.905C272.758 115.146 273.15 114.466 273.806 114.087L319.151 87.9078C319.279 87.8341 319.436 87.8341 319.565 87.9078L395.404 131.694C396.061 132.073 396.454 132.753 396.454 133.512C396.454 134.27 396.061 134.951 395.404 135.33L353.489 159.53C352.388 160.164 351.131 160.5 349.853 160.5ZM346.63 158.813C348.581 159.938 351.126 159.938 353.076 158.813L394.991 134.613C395.389 134.383 395.627 133.97 395.627 133.512C395.627 133.052 395.389 132.64 394.991 132.41L319.358 88.744L319.213 88.8277L274.22 114.805C273.823 115.034 273.586 115.447 273.586 115.906C273.586 116.366 273.823 116.777 274.22 117.008L346.63 158.813Z" fill="#42E8E0"></path><path d="M319.275 70.9912L329.363 11.1416L328.552 10.8001L329.77 10.1012L329.769 10.1079C330.005 9.95053 330.34 9.95974 330.708 10.1723L411.33 56.7196C411.993 57.1021 412.494 58.0823 412.378 58.7679L402.209 119.094C402.156 119.408 402.001 119.616 401.785 119.708L401.786 119.709L400.593 120.398L400.388 119.285L400.455 119.305L320.321 73.0395C319.659 72.657 319.158 71.6759 319.275 70.9912Z" fill="url(#paint4_linear_2288_192006)"></path><path d="M410.875 58.3568L412.2 57.77C412.349 58.1099 412.422 58.4664 412.371 58.7678L402.203 119.094C402.149 119.408 401.994 119.616 401.778 119.708L401.779 119.709L400.586 120.398L400.381 119.284L400.449 119.305L396.395 116.964L410.875 58.3568Z" fill="url(#paint5_linear_2288_192006)"></path><path d="M319.052 73.7644L399.675 120.312C400.298 120.671 400.83 120.463 400.94 119.819L411.108 59.4927C411.224 58.8072 410.723 57.827 410.061 57.4445L329.438 10.8972C328.816 10.5381 328.283 10.7457 328.174 11.3894L318.005 71.7153C317.889 72.4016 318.39 73.3818 319.052 73.7644Z" fill="#24126A"></path><g opacity="0.51"><path d="M330.491 14.7483L408.205 59.6164L398.568 116.431L320.906 71.5929L330.491 14.7483Z" fill="#453C9E"></path></g><path d="M268.379 102.325L272.778 104.623L316.897 79.1508C317.635 78.7248 318.924 78.7784 319.776 79.2705L395.868 123.202C396.597 122.794 399.916 121.198 399.916 121.198L398.306 125.394L398.299 125.389C398.232 125.576 398.089 125.75 397.849 125.889L351.383 152.715C350.645 153.141 349.355 153.088 348.503 152.596L270.637 107.64C270.287 107.438 270.073 107.193 269.984 106.945L269.979 106.949L268.379 102.325Z" fill="url(#paint6_linear_2288_192006)"></path><path d="M269.054 103.048L348.858 149.123C349.731 149.627 351.052 149.682 351.809 149.245L399.43 121.751C400.187 121.314 400.091 120.551 399.218 120.046L319.415 73.972C318.541 73.4673 317.221 73.4129 316.464 73.8498L268.843 101.344C268.086 101.781 268.181 102.544 269.054 103.048Z" fill="url(#paint7_linear_2288_192006)"></path><path d="M269.054 102.588L348.857 148.662C349.73 149.167 351.052 149.221 351.809 148.784L399.43 121.29C399.678 121.147 399.825 120.968 399.893 120.775C400.012 121.134 399.869 121.497 399.43 121.75L351.809 149.245C351.052 149.682 349.731 149.627 348.857 149.123L269.054 103.048C268.467 102.709 268.241 102.254 268.38 101.859C268.467 102.118 268.688 102.376 269.054 102.588Z" fill="white"></path><path d="M372.926 139.156V138.281C372.926 138.198 372.876 138.159 372.813 138.195L369.726 139.977C369.664 140.013 369.613 140.109 369.613 140.192V141.068C369.613 141.151 369.663 141.189 369.726 141.153L372.813 139.371C372.876 139.335 372.926 139.239 372.926 139.156Z" fill="#2842A2"></path><path d="M368.309 141.82V140.945C368.309 140.862 368.259 140.823 368.196 140.859L365.109 142.642C365.047 142.678 364.996 142.774 364.996 142.857V143.732C364.996 143.815 365.046 143.854 365.109 143.818L368.196 142.035C368.259 142 368.309 141.904 368.309 141.82Z" fill="#2842A2"></path><path d="M387.012 119.176L320.696 80.8886C320.254 80.6333 319.709 80.6333 319.267 80.8895L295.653 94.5526C295.314 94.7484 295.314 95.2381 295.653 95.434L361.937 133.704C362.379 133.959 362.924 133.959 363.365 133.704L387.011 120.058C387.352 119.861 387.352 119.372 387.012 119.176Z" fill="#ADB1F2"></path><path d="M387.012 120.057L386.775 120.194L320.696 82.0444C320.254 81.7891 319.709 81.7891 319.267 82.0452L295.89 95.5702L295.653 95.4329C295.314 95.2371 295.313 94.7474 295.653 94.5515L319.268 80.8884C319.71 80.6331 320.255 80.6323 320.697 80.8876L387.012 119.175C387.352 119.372 387.352 119.861 387.012 120.057Z" fill="#9198DB"></path><path d="M317.488 84.3492L375.093 117.607L377.654 116.128L320.05 82.8701L317.488 84.3492Z" fill="#24126A"></path><path d="M311.211 87.9746L365.242 119.17L367.804 117.691L313.772 86.4963L311.211 87.9746Z" fill="#24126A"></path><path d="M307.121 90.3359L370.737 127.065L373.298 125.586L309.682 88.8577L307.121 90.3359Z" fill="#24126A"></path><path d="M303.027 92.697L366.643 129.426L369.204 127.947L305.589 91.2188L303.027 92.697Z" fill="#24126A"></path><path d="M298.941 95.0583L362.557 131.787L365.118 130.308L301.503 93.5801L298.941 95.0583Z" fill="#24126A"></path><path d="M378.578 119.617L381.139 121.095L383.701 119.617L381.139 118.138L378.578 119.617Z" fill="#24126A"></path><path d="M369.539 121.652L374.856 124.721L377.417 123.243L372.1 120.173L369.539 121.652Z" fill="#24126A"></path><path d="M318.147 128.441L300.266 118.118C299.567 117.714 299.567 117.06 300.266 116.656L312.494 109.597C313.193 109.193 314.326 109.193 315.025 109.597L332.906 119.921C333.605 120.324 333.605 120.979 332.906 121.382L320.679 128.442C319.98 128.844 318.846 128.844 318.147 128.441Z" fill="url(#paint8_linear_2288_192006)"></path><path d="M332.904 120.517L315.023 110.194C314.324 109.791 313.19 109.791 312.491 110.194L300.264 117.254C300.048 117.379 299.907 117.528 299.824 117.686C299.639 117.333 299.781 116.935 300.264 116.656L312.491 109.597C313.19 109.193 314.324 109.193 315.023 109.597L332.904 119.921C333.387 120.199 333.528 120.597 333.343 120.95C333.26 120.792 333.12 120.642 332.904 120.517Z" fill="#9198DB"></path><g opacity="0.11"><mask id="mask0_2288_192006" style="mask-type:luminance" maskUnits="userSpaceOnUse" x="320" y="14" width="89" height="103"><path d="M330.491 14.748L408.205 59.6162L398.568 116.431L320.906 71.5926L330.491 14.748Z" fill="white"></path></mask><g mask="url(#mask0_2288_192006)"><path d="M319.336 73.8768L399.139 119.951C400.012 120.456 401.334 120.51 402.09 120.073L449.712 92.5789C450.468 92.142 450.373 91.3795 449.5 90.8747L369.697 44.8004C368.823 44.2957 367.502 44.2412 366.745 44.6782L319.124 72.1726C318.368 72.6104 318.462 73.3729 319.336 73.8768Z" fill="url(#paint9_linear_2288_192006)"></path><path d="M399.378 82.1376L381.497 71.8135C380.798 71.41 380.798 70.7554 381.497 70.352L393.724 63.2923C394.423 62.8889 395.557 62.8889 396.255 63.2923L414.136 73.6165C414.835 74.0199 414.835 74.6745 414.136 75.0779L401.908 82.1376C401.21 82.541 400.077 82.541 399.378 82.1376Z" fill="url(#paint10_linear_2288_192006)"></path><path d="M414.138 74.214L396.257 63.8907C395.558 63.4873 394.425 63.4873 393.726 63.8907L381.498 70.9504C381.282 71.0751 381.142 71.2249 381.059 71.3823C380.874 71.029 381.015 70.6315 381.498 70.3527L393.726 63.2931C394.425 62.8896 395.558 62.8896 396.257 63.2931L414.138 73.6172C414.621 73.8959 414.762 74.2935 414.577 74.6467C414.495 74.4885 414.354 74.3387 414.138 74.214Z" fill="#9198DB"></path><path d="M421.996 98.2711L355.681 59.9839C355.239 59.7286 354.694 59.7285 354.252 59.9847L330.637 73.6478C330.298 73.8436 330.298 74.3333 330.637 74.5292L396.922 112.799C397.364 113.054 397.908 113.054 398.349 112.799L421.996 99.1534C422.335 98.9575 422.335 98.467 421.996 98.2711Z" fill="#ADB1F2"></path><path d="M421.997 99.1532L421.759 99.2905L355.681 61.1396C355.239 60.8843 354.694 60.8843 354.252 61.1404L330.875 74.6654L330.637 74.5281C330.298 74.3323 330.298 73.8426 330.637 73.6467L354.252 59.9836C354.694 59.7283 355.239 59.7275 355.681 59.9828L421.997 98.2701C422.336 98.4668 422.336 98.9573 421.997 99.1532Z" fill="#9198DB"></path><path d="M336.812 72.7151L394.585 106.071L392.296 107.392L334.523 74.0368L336.812 72.7151Z" fill="#24126A"></path><path d="M342.902 69.2012L397.814 100.904L395.525 102.226L340.613 70.522L342.902 69.2012Z" fill="#24126A"></path><path d="M401.913 103.271L407.042 106.233L404.754 107.554L399.625 104.593L401.913 103.271Z" fill="#24126A"></path><path d="M397.378 107.685L400.949 109.747L398.661 111.068L395.09 109.007L397.378 107.685Z" fill="#24126A"></path><path d="M346.714 66.9988L410.855 104.031L408.567 105.352L344.426 68.3196L346.714 66.9988Z" fill="#24126A"></path><path d="M350.527 64.7966L414.668 101.828L412.379 103.15L348.238 66.1175L350.527 64.7966Z" fill="#24126A"></path><path d="M354.343 62.5942L418.484 99.626L416.196 100.948L352.055 63.9159L354.343 62.5942Z" fill="#24126A"></path></g></g><path d="M347.93 35.7507L354.217 39.3843L354.402 38.2928L348.114 34.6592L347.93 35.7507Z" fill="#42E8E0"></path><path d="M355.234 39.9643L358.66 41.9448L358.845 40.8532L355.419 38.8728L355.234 39.9643Z" fill="#42E8E0"></path><path d="M363.992 45.021L366.471 46.454L366.656 45.3616L364.176 43.9294L363.992 45.021Z" fill="#42E8E0"></path><path d="M362.18 43.9763L363.027 44.4659L363.211 43.3744L362.364 42.8848L362.18 43.9763Z" fill="#42E8E0"></path><path d="M359.684 42.5325L361.222 43.4215L361.406 42.33L359.868 41.4402L359.684 42.5325Z" fill="#42E8E0"></path><path d="M352.906 44.101L355.385 45.5332L355.57 44.4417L353.09 43.0095L352.906 44.101Z" fill="#42E8E0"></path><path d="M347.094 40.7387L351.95 43.5462L352.135 42.4538L347.279 39.6472L347.094 40.7387Z" fill="#42E8E0"></path><path d="M354.055 58.4331L358.911 61.2405L359.095 60.1482L354.239 57.3416L354.055 58.4331Z" fill="#42E8E0"></path><path d="M351.555 56.989L353.092 57.8779L353.277 56.7864L351.739 55.8975L351.555 56.989Z" fill="#42E8E0"></path><path d="M354.863 53.4384L359.72 56.2459L359.904 55.1535L355.047 52.3469L354.863 53.4384Z" fill="#42E8E0"></path><path d="M352.363 51.9944L353.902 52.8834L354.086 51.7919L352.547 50.9021L352.363 51.9944Z" fill="#42E8E0"></path><path d="M350.47 79.9876L341.321 74.7L341.137 75.7915L350.286 81.0799L350.47 79.9876Z" fill="#42E8E0"></path><path d="M353.694 81.8509L351.431 80.5435L351.246 81.635L353.51 82.9433L353.694 81.8509Z" fill="#42E8E0"></path><path d="M369.774 82.9124L360.626 77.6248L360.441 78.7163L369.59 84.0039L369.774 82.9124Z" fill="#42E8E0"></path><path d="M372.998 84.7756L370.735 83.4673L370.551 84.5596L372.814 85.8679L372.998 84.7756Z" fill="#42E8E0"></path><path d="M344.217 73.6387L341.739 72.2065L341.555 73.2981L344.033 74.7311L344.217 73.6387Z" fill="#42E8E0"></path><path d="M359.303 76.8739L356.825 75.4409L356.641 76.5324L359.119 77.9654L359.303 76.8739Z" fill="#42E8E0"></path><path d="M350.037 77.001L345.18 74.1943L344.996 75.2858L349.853 78.0925L350.037 77.001Z" fill="#42E8E0"></path><path d="M352.539 78.4451L351.001 77.5562L350.816 78.6477L352.355 79.5374L352.539 78.4451Z" fill="#42E8E0"></path><path d="M358.4 81.8275L353.544 79.02L353.359 80.1124L358.216 82.919L358.4 81.8275Z" fill="#42E8E0"></path><path d="M360.894 83.2713L359.356 82.3823L359.172 83.4738L360.71 84.3636L360.894 83.2713Z" fill="#42E8E0"></path><path d="M358.878 79.3691L356.399 77.936L356.215 79.0275L358.693 80.4606L358.878 79.3691Z" fill="#42E8E0"></path><path d="M364.697 82.7307L359.84 79.9241L359.656 81.0156L364.513 83.823L364.697 82.7307Z" fill="#42E8E0"></path><path d="M367.199 84.1753L365.661 83.2864L365.477 84.3779L367.014 85.2668L367.199 84.1753Z" fill="#42E8E0"></path><path d="M347.236 72.6435L342.165 69.7122L341.98 70.8045L347.052 73.7358L347.236 72.6435Z" fill="#42E8E0"></path><path d="M351.859 75.3187L348.192 73.1985L348.008 74.2908L351.675 76.4102L351.859 75.3187Z" fill="#42E8E0"></path><path d="M355.303 77.3065L352.825 75.8735L352.641 76.965L355.119 78.3981L355.303 77.3065Z" fill="#42E8E0"></path><path d="M379.338 88.4326L374.267 85.5012L374.082 86.5927L379.154 89.5241L379.338 88.4326Z" fill="#42E8E0"></path><path d="M383.969 91.1078L380.301 88.9875L380.117 90.0799L383.785 92.1993L383.969 91.1078Z" fill="#42E8E0"></path><path d="M387.413 93.095L384.934 91.6628L384.75 92.7543L387.228 94.1874L387.413 93.095Z" fill="#42E8E0"></path><path d="M377.359 55.4792L382.431 58.4105L382.615 57.319L377.544 54.3877L377.359 55.4792Z" fill="#42E8E0"></path><path d="M372.734 52.8039L376.402 54.9241L376.586 53.8318L372.919 51.7124L372.734 52.8039Z" fill="#42E8E0"></path><path d="M369.297 50.8159L371.775 52.2489L371.96 51.1574L369.481 49.7244L369.297 50.8159Z" fill="#42E8E0"></path><path d="M375.68 51.7583L380.751 54.6896L380.936 53.5981L375.864 50.6667L375.68 51.7583Z" fill="#42E8E0"></path><path d="M371.047 49.0832L374.714 51.2034L374.899 50.1119L371.231 47.9917L371.047 49.0832Z" fill="#42E8E0"></path><path d="M367.609 47.096L370.088 48.5282L370.273 47.4367L367.794 46.0037L367.609 47.096Z" fill="#42E8E0"></path><path d="M355.203 56.3706L356.916 57.3608L357.1 56.2693L355.387 55.2791L355.203 56.3706Z" fill="#42E8E0"></path><path d="M351.973 54.5073L354.237 55.8156L354.421 54.7241L352.158 53.4158L351.973 54.5073Z" fill="#42E8E0"></path><path d="M347.686 70.1642L342.615 67.2329L342.43 68.3252L347.501 71.2566L347.686 70.1642Z" fill="#42E8E0"></path><path d="M352.321 72.8394L348.653 70.72L348.469 71.8115L352.137 73.9309L352.321 72.8394Z" fill="#42E8E0"></path><path d="M355.753 74.8273L353.274 73.3943L353.09 74.4866L355.568 75.9188L355.753 74.8273Z" fill="#42E8E0"></path><path d="M344.752 65.7295L343.04 64.7393L342.855 65.8308L344.568 66.821L344.752 65.7295Z" fill="#42E8E0"></path><path d="M347.971 67.5927L345.708 66.2844L345.523 67.3768L347.787 68.6851L347.971 67.5927Z" fill="#42E8E0"></path><path d="M352.586 70.2562L348.938 68.1477L348.754 69.2401L352.401 71.3477L352.586 70.2562Z" fill="#42E8E0"></path><path d="M357.531 49.4941L359.244 50.4843L359.428 49.392L357.715 48.4026L357.531 49.4941Z" fill="#42E8E0"></path><path d="M354.309 47.6307L356.573 48.939L356.757 47.8466L354.494 46.5383L354.309 47.6307Z" fill="#42E8E0"></path><path d="M349.695 44.9675L353.343 47.0752L353.527 45.9837L349.88 43.876L349.695 44.9675Z" fill="#42E8E0"></path><path d="M360.141 53.5429L363.788 55.6514L363.972 54.5591L360.325 52.4514L360.141 53.5429Z" fill="#42E8E0"></path><path d="M354.176 50.291L359.092 53.1327L359.276 52.0404L354.36 49.1995L354.176 50.291Z" fill="#42E8E0"></path><path d="M351.672 48.8472L353.21 49.7362L353.395 48.6447L351.856 47.7549L351.672 48.8472Z" fill="#42E8E0"></path><path d="M349.277 47.461L350.816 48.3499L351 47.2584L349.461 46.3687L349.277 47.461Z" fill="#42E8E0"></path><path d="M349.609 61.5533L354.466 64.3599L354.65 63.2684L349.794 60.4609L349.609 61.5533Z" fill="#42E8E0"></path><path d="M347.109 60.1088L348.647 60.9986L348.831 59.9063L347.294 59.0173L347.109 60.1088Z" fill="#42E8E0"></path><path d="M349.941 64.4856L351.655 65.4758L351.839 64.3843L350.126 63.394L349.941 64.4856Z" fill="#42E8E0"></path><path d="M355.988 62.4877L357.701 63.478L357.886 62.3856L356.172 61.3962L355.988 62.4877Z" fill="#42E8E0"></path><path d="M358.43 63.8972L362.54 66.271L362.725 65.1795L358.615 62.8057L358.43 63.8972Z" fill="#42E8E0"></path><path d="M363.27 66.6912L365.715 68.1033L365.899 67.0118L363.454 65.5989L363.27 66.6912Z" fill="#42E8E0"></path><path d="M346.719 62.6223L348.982 63.9306L349.167 62.8382L346.903 61.5308L346.719 62.6223Z" fill="#42E8E0"></path><path d="M346.504 65.1848L348.216 66.175L348.401 65.0835L346.689 64.0933L346.504 65.1848Z" fill="#42E8E0"></path><path d="M343.281 63.3214L345.545 64.6297L345.73 63.5382L343.465 62.229L343.281 63.3214Z" fill="#42E8E0"></path><path d="M353.5 61.0529L355.038 61.9419L355.223 60.8504L353.685 59.9614L353.5 61.0529Z" fill="#42E8E0"></path><path d="M351.105 59.6667L352.643 60.5556L352.828 59.4641L351.29 58.5752L351.105 59.6667Z" fill="#42E8E0"></path><path d="M362.918 47.1328L368.165 50.1654L368.35 49.0739L363.103 46.0413L362.918 47.1328Z" fill="#42E8E0"></path><path d="M357.039 43.736L361.956 46.5778L362.14 45.4855L357.224 42.6445L357.039 43.736Z" fill="#42E8E0"></path><path d="M354.543 42.2921L356.081 43.181L356.266 42.0895L354.727 41.1997L354.543 42.2921Z" fill="#42E8E0"></path><path d="M352.141 40.9061L353.679 41.795L353.863 40.7035L352.325 39.8137L352.141 40.9061Z" fill="#42E8E0"></path><path d="M350.831 40.1484L347.512 38.2299L347.696 37.1384L351.015 39.0561L350.831 40.1484Z" fill="#42E8E0"></path><path d="M160.077 161.909C158.798 161.909 157.54 161.573 156.44 160.938L114.525 136.738C113.868 136.359 113.477 135.678 113.477 134.92C113.477 134.161 113.869 133.482 114.525 133.102L190.365 89.3167C190.493 89.243 190.65 89.2422 190.779 89.3158L191.131 89.5184L236.124 115.495C236.781 115.874 237.173 116.554 237.173 117.313C237.173 118.073 236.78 118.752 236.124 119.131L163.714 160.937C162.612 161.573 161.355 161.909 160.077 161.909ZM190.572 90.152L114.939 133.818C114.54 134.048 114.304 134.46 114.304 134.92C114.304 135.38 114.541 135.792 114.939 136.021L156.854 160.221C158.803 161.346 161.348 161.346 163.3 160.221L235.71 118.415C236.108 118.186 236.346 117.774 236.346 117.314C236.346 116.854 236.108 116.442 235.71 116.213L190.572 90.152Z" fill="#42E8E0"></path><path d="M190.655 72.3994L180.567 12.5498L181.378 12.2083L180.159 11.5094L180.161 11.5161C179.924 11.3587 179.59 11.3679 179.222 11.5805L98.5991 58.1278C97.937 58.5103 97.4356 59.4905 97.552 60.1761L107.72 120.502C107.774 120.817 107.929 121.025 108.146 121.116H108.144L109.337 121.805L109.542 120.692L109.474 120.713L189.609 74.4477C190.27 74.0643 190.771 73.0841 190.655 72.3994Z" fill="url(#paint11_linear_2288_192006)"></path><path d="M99.0472 59.765L97.7221 59.1782C97.5731 59.5181 97.5003 59.8746 97.5514 60.176L107.72 120.502C107.773 120.817 107.928 121.025 108.144 121.116L109.336 121.805L109.541 120.692L109.473 120.713L113.528 118.372L99.0472 59.765Z" fill="url(#paint12_linear_2288_192006)"></path><path d="M190.876 75.1725L110.254 121.72C109.631 122.079 109.099 121.871 108.989 121.227L98.8215 60.9009C98.7052 60.2154 99.2066 59.2352 99.8687 58.8527L180.491 12.3054C181.114 11.9463 181.646 12.1539 181.756 12.7984L191.924 73.1243C192.04 73.8098 191.539 74.79 190.876 75.1725Z" fill="#24126A"></path><g opacity="0.51"><path d="M179.436 16.1567L101.723 61.0249L111.36 117.839L189.021 73.0013L179.436 16.1567Z" fill="#453C9E"></path></g><path d="M241.557 103.733L237.158 106.031L193.039 80.559C192.301 80.133 191.012 80.1866 190.16 80.6787L114.067 124.61C113.339 124.203 110.02 122.606 110.02 122.606L111.63 126.802L111.637 126.797C111.704 126.984 111.847 127.158 112.087 127.297L158.553 154.124C159.291 154.55 160.58 154.496 161.433 154.005L239.299 109.049C239.649 108.847 239.863 108.602 239.952 108.354L239.957 108.358L241.557 103.733Z" fill="url(#paint13_linear_2288_192006)"></path><path d="M240.879 104.457L161.075 150.531C160.202 151.036 158.881 151.09 158.124 150.653L110.503 123.159C109.746 122.722 109.842 121.959 110.715 121.455L190.518 75.3802C191.392 74.8763 192.712 74.821 193.469 75.258L241.09 102.752C241.847 103.189 241.752 103.952 240.879 104.457Z" fill="url(#paint14_linear_2288_192006)"></path><path d="M240.878 103.996L161.076 150.071C160.202 150.574 158.881 150.63 158.124 150.193L110.503 122.698C110.256 122.555 110.108 122.376 110.04 122.184C109.921 122.542 110.065 122.905 110.503 123.158L158.124 150.652C158.881 151.089 160.202 151.034 161.076 150.53L240.878 104.456C241.466 104.117 241.692 103.661 241.553 103.266C241.466 103.527 241.245 103.784 240.878 103.996Z" fill="white"></path><path d="M137.008 140.564V139.689C137.008 139.606 137.058 139.567 137.12 139.603L140.207 141.385C140.269 141.421 140.32 141.518 140.32 141.601V142.476C140.32 142.559 140.27 142.597 140.207 142.561L137.12 140.779C137.058 140.743 137.008 140.647 137.008 140.564Z" fill="#2842A2"></path><path d="M141.625 143.229V142.353C141.625 142.27 141.675 142.232 141.738 142.268L144.825 144.05C144.887 144.086 144.938 144.182 144.938 144.265V145.14C144.938 145.223 144.888 145.262 144.825 145.226L141.738 143.444C141.676 143.409 141.625 143.311 141.625 143.229Z" fill="#2842A2"></path><path d="M122.919 120.584L189.235 82.2968C189.677 82.0415 190.222 82.0415 190.664 82.2977L214.278 95.9608C214.617 96.1566 214.617 96.6463 214.277 96.8422L147.993 135.112C147.551 135.367 147.007 135.367 146.565 135.112L122.919 121.466C122.579 121.27 122.579 120.78 122.919 120.584Z" fill="#ADB1F2"></path><path d="M122.919 121.465L123.157 121.603L189.235 83.4526C189.677 83.1973 190.222 83.1973 190.664 83.4534L214.041 96.9784L214.278 96.8411C214.617 96.6453 214.618 96.1556 214.279 95.9597L190.664 82.2966C190.222 82.0413 189.677 82.0405 189.235 82.2958L122.92 120.583C122.579 120.78 122.579 121.269 122.919 121.465Z" fill="#9198DB"></path><path d="M192.443 85.7569L134.839 119.015L132.277 117.536L189.882 84.2778L192.443 85.7569Z" fill="#24126A"></path><path d="M198.725 89.3823L144.694 120.577L142.133 119.098L196.164 87.9041L198.725 89.3823Z" fill="#24126A"></path><path d="M202.81 91.7435L139.194 128.472L136.633 126.993L200.248 90.2644L202.81 91.7435Z" fill="#24126A"></path><path d="M206.903 94.1045L143.288 130.833L140.727 129.354L204.342 92.6255L206.903 94.1045Z" fill="#24126A"></path><path d="M210.989 96.4661L147.374 133.195L144.812 131.716L208.428 94.9871L210.989 96.4661Z" fill="#24126A"></path><path d="M131.357 121.025L128.796 122.503L126.234 121.025L128.796 119.546L131.357 121.025Z" fill="#24126A"></path><path d="M140.389 123.06L135.073 126.128L132.512 124.65L137.828 121.581L140.389 123.06Z" fill="#24126A"></path><path d="M191.787 129.849L209.668 119.526C210.367 119.123 210.367 118.468 209.668 118.065L197.44 111.005C196.741 110.602 195.608 110.602 194.909 111.005L177.028 121.328C176.329 121.732 176.329 122.386 177.028 122.79L189.256 129.849C189.955 130.253 191.088 130.253 191.787 129.849Z" fill="url(#paint15_linear_2288_192006)"></path><path d="M177.029 121.926L194.91 111.602C195.609 111.198 196.743 111.198 197.442 111.602L209.669 118.661C209.885 118.786 210.026 118.935 210.109 119.093C210.294 118.74 210.152 118.342 209.669 118.064L197.442 111.004C196.743 110.601 195.609 110.601 194.91 111.004L177.029 121.327C176.546 121.606 176.405 122.004 176.59 122.357C176.673 122.2 176.813 122.05 177.029 121.926Z" fill="#9198DB"></path><g opacity="0.11"><mask id="mask1_2288_192006" style="mask-type:luminance" maskUnits="userSpaceOnUse" x="101" y="16" width="89" height="102"><path d="M179.448 16.157L101.734 61.0251L111.372 117.84L189.033 73.0016L179.448 16.157Z" fill="white"></path></mask><g mask="url(#mask1_2288_192006)"><path d="M190.605 75.2858L110.802 121.36C109.929 121.864 108.607 121.919 107.851 121.482L60.2294 93.9879C59.4727 93.5509 59.5682 92.7884 60.4412 92.2836L140.244 46.2093C141.118 45.7046 142.439 45.6502 143.196 46.0871L190.817 73.5815C191.574 74.0185 191.479 74.7819 190.605 75.2858Z" fill="url(#paint16_linear_2288_192006)"></path><path d="M110.564 83.5464L128.445 73.2231C129.144 72.8197 129.144 72.1651 128.445 71.7617L116.218 64.702C115.519 64.2986 114.385 64.2986 113.686 64.702L95.8054 75.0261C95.1065 75.4296 95.1065 76.0841 95.8054 76.4876L108.033 83.5473C108.732 83.9499 109.865 83.9499 110.564 83.5464Z" fill="url(#paint17_linear_2288_192006)"></path><path d="M95.8029 75.623L113.684 65.2989C114.383 64.8955 115.516 64.8955 116.214 65.2989L128.442 72.3586C128.658 72.4833 128.798 72.6323 128.881 72.7905C129.066 72.4372 128.926 72.0396 128.442 71.7609L116.214 64.7013C115.515 64.2978 114.382 64.2978 113.684 64.7013L95.8029 75.0254C95.3199 75.3041 95.1785 75.7017 95.3634 76.055C95.4463 75.8976 95.5878 75.7478 95.8029 75.623Z" fill="#9198DB"></path><path d="M87.9501 99.6798L154.266 61.3925C154.708 61.1372 155.253 61.1372 155.695 61.3934L179.309 75.0565C179.648 75.2523 179.648 75.742 179.309 75.9379L113.025 114.208C112.583 114.463 112.039 114.463 111.597 114.208L87.9509 100.562C87.6102 100.366 87.6102 99.8757 87.9501 99.6798Z" fill="#ADB1F2"></path><path d="M87.9502 100.562L88.1879 100.699L154.267 62.5494C154.709 62.2941 155.254 62.2941 155.696 62.5502L179.073 76.0761L179.31 75.9388C179.649 75.7429 179.649 75.2532 179.31 75.0574L155.695 61.3943C155.253 61.139 154.708 61.1381 154.266 61.3934L87.9502 99.6807C87.6104 99.8758 87.6104 100.366 87.9502 100.562Z" fill="#9198DB"></path><path d="M173.128 74.1243L115.355 107.48L117.644 108.801L175.417 75.446L173.128 74.1243Z" fill="#24126A"></path><path d="M167.038 70.6104L112.125 102.313L114.413 103.635L169.326 71.9312L167.038 70.6104Z" fill="#24126A"></path><path d="M108.027 104.68L102.898 107.642L105.187 108.963L110.316 106.002L108.027 104.68Z" fill="#24126A"></path><path d="M112.555 109.094L108.984 111.156L111.273 112.478L114.844 110.416L112.555 109.094Z" fill="#24126A"></path><path d="M163.227 68.408L99.0859 105.44L101.374 106.761L165.516 69.7288L163.227 68.408Z" fill="#24126A"></path><path d="M159.407 66.2058L95.2656 103.238L97.5541 104.559L161.695 67.5267L159.407 66.2058Z" fill="#24126A"></path><path d="M155.594 64.0034L91.4531 101.035L93.7416 102.357L157.883 65.3251L155.594 64.0034Z" fill="#24126A"></path></g></g><path d="M130.988 96.1778L137.275 92.5442L137.46 93.6357L131.172 97.2701L130.988 96.1778Z" fill="#42E8E0"></path><path d="M138.293 91.9643L141.719 89.9839L141.903 91.0762L138.478 93.0558L138.293 91.9643Z" fill="#42E8E0"></path><path d="M147.051 86.9076L149.529 85.4746L149.714 86.5669L147.236 87.9991L147.051 86.9076Z" fill="#42E8E0"></path><path d="M145.238 87.9523L146.085 87.4626L146.27 88.5542L145.422 89.0438L145.238 87.9523Z" fill="#42E8E0"></path><path d="M142.742 89.3968L144.281 88.5071L144.465 89.5986L142.926 90.4884L142.742 89.3968Z" fill="#42E8E0"></path><path d="M135.965 87.8274L138.443 86.3953L138.628 87.4868L136.149 88.9198L135.965 87.8274Z" fill="#42E8E0"></path><path d="M130.152 91.1899L135.01 88.3833L135.194 89.4748L130.337 92.2814L130.152 91.1899Z" fill="#42E8E0"></path><path d="M137.113 73.4956L141.97 70.689L142.154 71.7805L137.297 74.5871L137.113 73.4956Z" fill="#42E8E0"></path><path d="M134.613 74.9395L136.151 74.0505L136.335 75.1429L134.797 76.0318L134.613 74.9395Z" fill="#42E8E0"></path><path d="M137.922 78.4904L142.778 75.6838L142.963 76.7753L138.106 79.5828L137.922 78.4904Z" fill="#42E8E0"></path><path d="M135.422 79.9349L136.96 79.0452L137.145 80.1375L135.606 81.0264L135.422 79.9349Z" fill="#42E8E0"></path><path d="M133.528 51.9409L124.379 57.2285L124.195 56.137L133.344 50.8494L133.528 51.9409Z" fill="#42E8E0"></path><path d="M136.753 50.0777L134.49 51.386L134.305 50.2936L136.569 48.9854L136.753 50.0777Z" fill="#42E8E0"></path><path d="M152.833 49.0163L143.684 54.3039L143.5 53.2124L152.649 47.9248L152.833 49.0163Z" fill="#42E8E0"></path><path d="M156.057 47.1528L153.794 48.4611L153.609 47.3696L155.873 46.0613L156.057 47.1528Z" fill="#42E8E0"></path><path d="M127.276 58.29L124.797 59.723L124.613 58.6307L127.092 57.1985L127.276 58.29Z" fill="#42E8E0"></path><path d="M142.362 55.0546L139.883 56.4877L139.699 55.3962L142.178 53.9631L142.362 55.0546Z" fill="#42E8E0"></path><path d="M133.095 54.9274L128.239 57.7349L128.055 56.6425L132.911 53.8359L133.095 54.9274Z" fill="#42E8E0"></path><path d="M135.598 53.4833L134.06 54.3723L133.875 53.2808L135.413 52.3918L135.598 53.4833Z" fill="#42E8E0"></path><path d="M141.459 50.101L136.602 52.9085L136.418 51.817L141.275 49.0095L141.459 50.101Z" fill="#42E8E0"></path><path d="M143.953 48.6572L142.415 49.5461L142.23 48.4546L143.768 47.5657L143.953 48.6572Z" fill="#42E8E0"></path><path d="M141.937 52.5593L139.458 53.9923L139.273 52.9008L141.752 51.4678L141.937 52.5593Z" fill="#42E8E0"></path><path d="M147.756 49.198L142.899 52.0046L142.715 50.9131L147.571 48.1064L147.756 49.198Z" fill="#42E8E0"></path><path d="M150.258 47.754L148.719 48.6429L148.535 47.5506L150.073 46.6616L150.258 47.754Z" fill="#42E8E0"></path><path d="M130.295 59.2851L125.223 62.2164L125.039 61.1249L130.111 58.1936L130.295 59.2851Z" fill="#42E8E0"></path><path d="M134.918 56.6098L131.251 58.7301L131.066 57.6377L134.733 55.5183L134.918 56.6098Z" fill="#42E8E0"></path><path d="M138.362 54.6229L135.883 56.0551L135.699 54.9635L138.178 53.5305L138.362 54.6229Z" fill="#42E8E0"></path><path d="M162.397 43.496L157.325 46.4274L157.141 45.3359L162.212 42.4045L162.397 43.496Z" fill="#42E8E0"></path><path d="M167.028 40.8216L163.36 42.941L163.176 41.8495L166.843 39.7292L167.028 40.8216Z" fill="#42E8E0"></path><path d="M170.472 38.8336L167.993 40.2657L167.809 39.1742L170.287 37.7412L170.472 38.8336Z" fill="#42E8E0"></path><path d="M160.418 76.4495L165.49 73.519L165.674 74.6106L160.602 77.5419L160.418 76.4495Z" fill="#42E8E0"></path><path d="M155.793 79.1248L159.461 77.0054L159.645 78.0969L155.977 80.2163L155.793 79.1248Z" fill="#42E8E0"></path><path d="M152.355 81.1127L154.835 79.6797L155.019 80.772L152.54 82.2042L152.355 81.1127Z" fill="#42E8E0"></path><path d="M158.738 80.1701L163.81 77.2388L163.994 78.3303L158.922 81.2616L158.738 80.1701Z" fill="#42E8E0"></path><path d="M154.105 82.8453L157.773 80.7251L157.958 81.8174L154.29 83.9368L154.105 82.8453Z" fill="#42E8E0"></path><path d="M150.668 84.8326L153.146 83.4004L153.331 84.4919L150.852 85.9249L150.668 84.8326Z" fill="#42E8E0"></path><path d="M138.254 75.5581L139.967 74.5679L140.151 75.6594L138.439 76.6496L138.254 75.5581Z" fill="#42E8E0"></path><path d="M135.031 77.4213L137.295 76.113L137.48 77.2054L135.216 78.5128L135.031 77.4213Z" fill="#42E8E0"></path><path d="M130.745 61.7645L125.673 64.6958L125.488 63.6035L130.56 60.6721L130.745 61.7645Z" fill="#42E8E0"></path><path d="M135.379 59.0891L131.711 61.2093L131.527 60.117L135.195 57.9976L135.379 59.0891Z" fill="#42E8E0"></path><path d="M138.812 57.1013L136.333 58.5343L136.148 57.4428L138.628 56.0098L138.812 57.1013Z" fill="#42E8E0"></path><path d="M127.811 66.1992L126.098 67.1894L125.914 66.0979L127.627 65.1077L127.811 66.1992Z" fill="#42E8E0"></path><path d="M131.03 64.3359L128.766 65.6442L128.582 64.5527L130.845 63.2444L131.03 64.3359Z" fill="#42E8E0"></path><path d="M135.644 61.6723L131.997 63.7808L131.812 62.6885L135.46 60.5808L135.644 61.6723Z" fill="#42E8E0"></path><path d="M140.59 82.4343L142.302 81.4441L142.487 82.5364L140.774 83.5258L140.59 82.4343Z" fill="#42E8E0"></path><path d="M137.367 84.2985L139.631 82.9902L139.816 84.0817L137.552 85.39L137.367 84.2985Z" fill="#42E8E0"></path><path d="M132.754 86.9612L136.402 84.8535L136.586 85.945L132.939 88.0527L132.754 86.9612Z" fill="#42E8E0"></path><path d="M143.199 78.3857L146.847 76.2781L147.031 77.3696L143.384 79.4773L143.199 78.3857Z" fill="#42E8E0"></path><path d="M137.227 81.6376L142.143 78.7966L142.328 79.8881L137.412 82.7291L137.227 81.6376Z" fill="#42E8E0"></path><path d="M134.73 83.0823L136.269 82.1934L136.453 83.2849L134.915 84.1738L134.73 83.0823Z" fill="#42E8E0"></path><path d="M132.336 84.4684L133.874 83.5786L134.059 84.6701L132.521 85.5599L132.336 84.4684Z" fill="#42E8E0"></path><path d="M132.668 70.3752L137.525 67.5686L137.709 68.6601L132.852 71.4676L132.668 70.3752Z" fill="#42E8E0"></path><path d="M130.168 71.8201L131.706 70.9312L131.89 72.0227L130.352 72.9116L130.168 71.8201Z" fill="#42E8E0"></path><path d="M133 67.4431L134.713 66.4529L134.898 67.5452L133.184 68.5346L133 67.4431Z" fill="#42E8E0"></path><path d="M139.051 69.4412L140.763 68.4509L140.948 69.5433L139.235 70.5327L139.051 69.4412Z" fill="#42E8E0"></path><path d="M141.488 68.0316L145.599 65.6577L145.783 66.7492L141.673 69.1231L141.488 68.0316Z" fill="#42E8E0"></path><path d="M146.328 65.2384L148.773 63.8254L148.957 64.9169L146.512 66.3299L146.328 65.2384Z" fill="#42E8E0"></path><path d="M129.777 69.3064L132.041 67.998L132.226 69.0904L129.961 70.3987L129.777 69.3064Z" fill="#42E8E0"></path><path d="M129.562 66.7441L131.275 65.7539L131.46 66.8463L129.747 67.8356L129.562 66.7441Z" fill="#42E8E0"></path><path d="M126.34 68.6073L128.603 67.2998L128.788 68.3913L126.524 69.6996L126.34 68.6073Z" fill="#42E8E0"></path><path d="M136.559 70.876L138.097 69.9871L138.281 71.0786L136.744 71.9684L136.559 70.876Z" fill="#42E8E0"></path><path d="M134.164 72.262L135.702 71.373L135.887 72.4646L134.348 73.3543L134.164 72.262Z" fill="#42E8E0"></path><path d="M145.977 84.7957L151.224 81.7639L151.408 82.8554L146.162 85.888L145.977 84.7957Z" fill="#42E8E0"></path><path d="M140.098 88.1922L145.014 85.3513L145.199 86.4428L140.283 89.2846L140.098 88.1922Z" fill="#42E8E0"></path><path d="M137.602 89.6372L139.14 88.7483L139.324 89.8398L137.786 90.7287L137.602 89.6372Z" fill="#42E8E0"></path><path d="M135.199 91.0233L136.738 90.1335L136.922 91.2259L135.383 92.1148L135.199 91.0233Z" fill="#42E8E0"></path><path d="M133.889 91.781L130.57 93.6987L130.754 94.791L134.073 92.8725L133.889 91.781Z" fill="#42E8E0"></path><path d="M321.036 255.854C319.778 255.854 318.542 255.524 317.46 254.899L276.273 231.12C275.625 230.745 275.238 230.075 275.238 229.327C275.238 228.578 275.625 227.909 276.273 227.535L350.794 184.51C350.922 184.436 351.08 184.436 351.208 184.51L351.554 184.709L395.766 210.234C396.413 210.608 396.8 211.278 396.8 212.027C396.8 212.776 396.414 213.445 395.766 213.819L324.614 254.899C323.532 255.525 322.294 255.854 321.036 255.854ZM351.003 185.346L276.687 228.252C276.298 228.477 276.066 228.879 276.066 229.328C276.066 229.776 276.298 230.179 276.688 230.404L317.874 254.184C319.787 255.287 322.287 255.287 324.201 254.184L395.353 213.103C395.742 212.879 395.974 212.477 395.974 212.027C395.974 211.578 395.742 211.175 395.353 210.951L351.003 185.346Z" fill="#42E8E0"></path><path d="M401.105 198.684L396.781 200.941L353.429 175.912C352.703 175.493 351.437 175.545 350.599 176.029L275.829 219.198C275.114 218.798 271.852 217.229 271.852 217.229L273.434 221.353C273.434 221.353 273.439 221.348 273.441 221.348C273.506 221.531 273.647 221.702 273.884 221.838L319.542 248.199C320.268 248.618 321.534 248.566 322.372 248.082L398.886 203.907C399.23 203.709 399.441 203.468 399.528 203.225L399.534 203.229L401.105 198.684Z" fill="url(#paint18_linear_2288_192006)"></path><path d="M400.437 199.394L322.021 244.668C321.163 245.163 319.864 245.217 319.12 244.788L272.326 217.772C271.583 217.342 271.676 216.593 272.535 216.098L350.951 170.824C351.809 170.329 353.108 170.275 353.851 170.704L400.645 197.72C401.388 198.149 401.295 198.899 400.437 199.394Z" fill="url(#paint19_linear_2288_192006)"></path><path d="M400.437 198.943L322.021 244.216C321.163 244.711 319.864 244.765 319.121 244.336L272.326 217.32C272.083 217.179 271.938 217.003 271.872 216.814C271.754 217.167 271.895 217.523 272.326 217.772L319.121 244.788C319.864 245.218 321.162 245.163 322.021 244.668L400.437 199.395C401.015 199.061 401.236 198.614 401.1 198.226C401.015 198.481 400.797 198.734 400.437 198.943Z" fill="white"></path><path d="M298.367 234.875V234.015C298.367 233.934 298.417 233.896 298.478 233.932L301.511 235.683C301.572 235.718 301.622 235.812 301.622 235.895V236.754C301.622 236.835 301.572 236.873 301.511 236.838L298.478 235.087C298.417 235.051 298.367 234.956 298.367 234.875Z" fill="#2842A2"></path><path d="M302.906 237.493V236.633C302.906 236.552 302.956 236.515 303.017 236.55L306.05 238.301C306.111 238.336 306.161 238.431 306.161 238.513V239.372C306.161 239.453 306.111 239.491 306.05 239.456L303.017 237.705C302.956 237.67 302.906 237.575 302.906 237.493Z" fill="#2842A2"></path><path d="M298.711 223.913L363.875 186.29C364.309 186.039 364.845 186.04 365.279 186.291L388.483 199.717C388.816 199.909 388.816 200.39 388.483 200.583L323.349 238.188C322.916 238.438 322.381 238.438 321.946 238.188L298.71 224.779C298.378 224.588 298.378 224.106 298.711 223.913Z" fill="#ADB1F2"></path><path d="M298.711 224.78L298.944 224.915L363.875 187.427C364.309 187.176 364.845 187.177 365.279 187.428L388.25 200.718L388.483 200.584C388.816 200.391 388.816 199.91 388.483 199.717L365.279 186.292C364.844 186.041 364.309 186.041 363.875 186.291L298.711 223.914C298.378 224.106 298.378 224.588 298.711 224.78Z" fill="#9198DB"></path><path d="M367.027 189.692L307.003 224.347L304.027 223.159L364.511 188.239L367.027 189.692Z" fill="#24126A"></path><path d="M373.195 193.254L320.102 223.907L317.586 222.454L370.678 191.801L373.195 193.254Z" fill="#24126A"></path><path d="M377.219 195.575L314.708 231.665L312.191 230.212L374.702 194.122L377.219 195.575Z" fill="#24126A"></path><path d="M381.231 197.895L318.72 233.985L316.203 232.532L378.715 196.442L381.231 197.895Z" fill="#24126A"></path><path d="M385.253 200.215L322.744 236.305L320.227 234.852L382.737 198.762L385.253 200.215Z" fill="#24126A"></path><path d="M307.003 224.347L304.486 225.8L301.969 224.347L304.486 222.894L307.003 224.347Z" fill="#24126A"></path><path d="M323.159 222.144L310.658 229.362L308.141 227.909L320.733 220.639L323.159 222.144Z" fill="#24126A"></path><path d="M321.907 207.053L339.478 196.909C340.164 196.513 340.164 195.87 339.478 195.474L327.463 188.536C326.776 188.14 325.662 188.14 324.976 188.536L307.405 198.681C306.719 199.077 306.719 199.72 307.405 200.116L319.42 207.053C320.107 207.45 321.221 207.45 321.907 207.053Z" fill="url(#paint20_linear_2288_192006)"></path><path d="M307.407 199.268L324.978 189.124C325.664 188.727 326.778 188.727 327.464 189.124L339.479 196.061C339.691 196.184 339.83 196.331 339.911 196.486C340.093 196.139 339.955 195.748 339.479 195.474L327.464 188.536C326.778 188.14 325.664 188.14 324.978 188.536L307.407 198.681C306.933 198.955 306.794 199.345 306.975 199.692C307.056 199.538 307.195 199.39 307.407 199.268Z" fill="#9198DB"></path><path d="M400.983 197.521L391.07 138.711L391.867 138.375L390.669 137.689L390.671 137.695C390.438 137.541 390.11 137.55 389.748 137.759L310.526 183.498C309.875 183.874 309.383 184.837 309.497 185.51L319.489 244.788C319.541 245.097 319.694 245.302 319.906 245.391L319.906 245.392L321.077 246.069L321.279 244.975L321.212 244.995L399.954 199.534C400.604 199.158 401.097 198.195 400.983 197.521Z" fill="url(#paint21_linear_2288_192006)"></path><path d="M310.966 185.106L309.664 184.53C309.518 184.863 309.446 185.214 309.496 185.51L319.488 244.788C319.541 245.097 319.693 245.302 319.906 245.391L319.905 245.392L321.077 246.069L321.279 244.975L321.212 244.995L325.196 242.695L310.966 185.106Z" fill="url(#paint22_linear_2288_192006)"></path><path d="M401.195 200.246L321.973 245.985C321.361 246.338 320.838 246.134 320.73 245.501L310.739 186.223C310.625 185.549 311.118 184.587 311.768 184.211L390.99 138.472C391.602 138.119 392.125 138.323 392.233 138.956L402.224 198.234C402.338 198.907 401.846 199.87 401.195 200.246Z" fill="#453C9E"></path><path d="M218.307 201.814C217.337 201.814 216.386 201.573 215.629 201.137L198.128 191.033C197.169 190.478 196.617 189.655 196.617 188.773C196.617 187.969 197.073 187.246 197.866 186.787L282.078 138.166C283.395 137.406 285.495 137.471 286.962 138.318L304.464 148.422C305.424 148.977 305.975 149.801 305.975 150.684C305.975 151.488 305.519 152.211 304.725 152.668L220.513 201.288C219.926 201.626 219.142 201.814 218.307 201.814ZM284.28 138.469C283.611 138.469 282.971 138.605 282.491 138.881L198.28 187.502C197.749 187.808 197.444 188.271 197.444 188.772C197.445 189.35 197.844 189.913 198.542 190.316L216.042 200.42C217.196 201.085 219.09 201.154 220.1 200.572L304.312 151.952C304.843 151.645 305.148 151.183 305.148 150.683C305.148 150.104 304.748 149.54 304.05 149.137L286.549 139.033C285.902 138.659 285.072 138.469 284.28 138.469Z" fill="#42E8E0"></path><path opacity="0.6" d="M218.303 201.4C217.442 201.4 216.546 201.189 215.832 200.778L198.331 190.674C197.503 190.196 197.027 189.502 197.027 188.771C197.027 188.12 197.407 187.526 198.069 187.144L282.281 138.523C283.463 137.841 285.425 137.908 286.752 138.675L304.254 148.779C305.082 149.257 305.558 149.951 305.558 150.682C305.558 151.333 305.179 151.927 304.516 152.309L220.303 200.929C219.756 201.245 219.044 201.4 218.303 201.4Z" fill="url(#paint23_linear_2288_192006)"></path><path d="M270.286 110.544C268.072 111.822 265.979 113.623 264.115 115.75C261.528 107.441 253.638 104.863 244.303 110.253C236.581 114.712 229.85 123.481 226.29 132.773C225.11 132.81 223.796 133.199 222.404 134.002C217.364 136.912 213.278 143.988 213.278 149.807C213.278 149.933 213.291 150.048 213.294 150.169C211.857 150.268 210.268 150.776 208.597 151.741C202.151 155.462 196.926 164.513 196.926 171.955C196.926 179.398 202.151 182.414 208.597 178.692L270.286 143.076C278.066 138.583 284.374 127.659 284.374 118.676C284.374 109.693 278.066 106.052 270.286 110.544Z" fill="url(#paint24_linear_2288_192006)"></path><path d="M270.287 110.544C269.003 111.285 267.762 112.207 266.58 113.26L259.682 109.274L259.683 109.276C255.894 106.612 250.408 106.728 244.303 110.252C236.581 114.711 229.85 123.481 226.289 132.772C225.109 132.81 223.795 133.198 222.403 134.002C217.363 136.911 213.277 143.987 213.277 149.807C213.277 149.932 213.29 150.047 213.294 150.168C211.857 150.267 210.268 150.775 208.597 151.74C202.151 155.462 196.926 164.512 196.926 171.954C196.926 175.643 198.211 178.239 200.291 179.472L200.286 179.475L200.339 179.506C200.343 179.507 200.346 179.51 200.35 179.512L217.247 189.319L220.937 171.566L270.286 143.074C278.066 138.582 284.374 127.658 284.374 118.674C284.375 109.693 278.067 106.052 270.287 110.544Z" fill="url(#paint25_radial_2288_192006)"></path><path d="M297.443 119.548L280.324 109.602L280.325 109.606C277.769 108.084 274.217 108.275 270.287 110.544C269.003 111.285 267.762 112.207 266.581 113.26L259.682 109.274L259.683 109.276C255.894 106.612 250.408 106.728 244.303 110.252C236.581 114.711 229.85 123.481 226.289 132.772C225.109 132.81 223.795 133.198 222.403 134.002C217.363 136.911 213.277 143.987 213.277 149.807C213.277 149.932 213.29 150.047 213.294 150.168C211.857 150.267 210.268 150.775 208.597 151.74C202.151 155.462 196.926 164.512 196.926 171.954C196.926 175.643 198.211 178.239 200.291 179.472L200.286 179.475L200.339 179.506C200.343 179.507 200.346 179.51 200.35 179.512L217.247 189.319L220.937 171.566L270.286 143.074C276.593 139.433 281.93 131.565 283.727 123.93L297.443 119.548Z" fill="url(#paint26_linear_2288_192006)"></path><path d="M287.236 120.383C285.022 121.661 282.929 123.461 281.065 125.587C278.478 117.279 270.588 114.702 261.253 120.091C253.531 124.55 246.8 133.319 243.239 142.61C242.059 142.648 240.745 143.036 239.353 143.84C234.313 146.75 230.228 153.826 230.228 159.645C230.228 159.771 230.24 159.885 230.243 160.007C228.806 160.106 227.217 160.614 225.546 161.579C219.1 165.3 213.875 174.35 213.875 181.793C213.875 189.236 219.101 192.252 225.546 188.532L287.235 152.915C295.016 148.423 301.323 137.499 301.323 128.515C301.323 119.532 295.017 115.891 287.236 120.383Z" fill="url(#paint27_linear_2288_192006)"></path><path d="M281.631 125.927C283.496 123.8 285.589 122.001 287.803 120.722C291.607 118.525 295.057 118.278 297.591 119.644C295.017 117.91 291.332 118.019 287.238 120.383C285.152 121.587 283.175 123.259 281.395 125.227C281.477 125.456 281.558 125.689 281.631 125.927Z" fill="white"></path><path d="M214.441 182.133C214.441 174.69 219.667 165.64 226.112 161.918C227.783 160.953 229.371 160.445 230.809 160.346C230.805 160.224 230.793 160.11 230.793 159.985C230.793 154.166 234.878 147.089 239.917 144.18C241.309 143.376 242.623 142.988 243.804 142.95C247.364 133.659 254.095 124.888 261.818 120.43C267.463 117.171 272.578 116.83 276.314 118.904C272.538 116.462 267.189 116.664 261.253 120.09C253.53 124.549 246.799 133.319 243.239 142.61C242.058 142.648 240.744 143.036 239.352 143.84C234.312 146.75 230.228 153.826 230.228 159.645C230.228 159.771 230.24 159.884 230.243 160.007C228.806 160.105 227.217 160.614 225.546 161.579C219.1 165.301 213.875 174.351 213.875 181.794C213.875 185.616 215.255 188.267 217.469 189.441C215.588 188.136 214.441 185.62 214.441 182.133Z" fill="white"></path><path d="M193.064 256.934C191.808 256.934 190.571 256.604 189.487 255.978L118.335 214.898C117.687 214.525 117.301 213.855 117.301 213.106C117.301 212.358 117.687 211.688 118.335 211.313L162.892 185.589C163.02 185.516 163.178 185.516 163.306 185.589L237.828 228.613C238.476 228.988 238.862 229.658 238.862 230.406C238.862 231.155 238.476 231.823 237.829 232.199L196.641 255.978C195.558 256.604 194.322 256.934 193.064 256.934ZM189.901 255.262C191.817 256.366 194.313 256.366 196.227 255.262L237.414 231.484C237.803 231.258 238.035 230.856 238.035 230.407C238.035 229.958 237.804 229.555 237.414 229.331L163.1 186.425L118.75 212.031C118.361 212.256 118.129 212.658 118.129 213.107C118.129 213.557 118.361 213.959 118.75 214.183L189.901 255.262Z" fill="#42E8E0"></path><path d="M112.988 199.763L117.312 202.02L160.664 176.991C161.39 176.572 162.656 176.624 163.494 177.108L238.264 220.277C238.98 219.877 242.241 218.308 242.241 218.308L240.659 222.431L240.652 222.426C240.587 222.61 240.446 222.78 240.209 222.918L194.551 249.279C193.825 249.697 192.559 249.645 191.721 249.162L115.207 204.987C114.863 204.788 114.652 204.548 114.565 204.304L114.559 204.309L112.988 199.763Z" fill="url(#paint28_linear_2288_192006)"></path><path d="M113.66 200.474L192.076 245.747C192.934 246.243 194.233 246.296 194.976 245.868L241.77 218.851C242.513 218.422 242.421 217.673 241.562 217.177L163.146 171.904C162.288 171.408 160.989 171.355 160.245 171.783L113.451 198.8C112.708 199.229 112.801 199.979 113.66 200.474Z" fill="url(#paint29_linear_2288_192006)"></path><path d="M113.659 200.022L192.075 245.295C192.933 245.791 194.232 245.845 194.975 245.416L241.77 218.4C242.013 218.259 242.158 218.082 242.224 217.894C242.342 218.246 242.201 218.603 241.77 218.852L194.975 245.868C194.232 246.297 192.934 246.243 192.075 245.747L113.659 200.474C113.081 200.141 112.86 199.694 112.996 199.306C113.081 199.56 113.298 199.814 113.659 200.022Z" fill="white"></path><path d="M215.727 235.954V235.094C215.727 235.013 215.678 234.976 215.617 235.011L212.583 236.762C212.522 236.797 212.473 236.892 212.473 236.974V237.834C212.473 237.915 212.522 237.953 212.583 237.918L215.617 236.167C215.678 236.131 215.727 236.036 215.727 235.954Z" fill="#2842A2"></path><path d="M211.196 238.573V237.713C211.196 237.632 211.146 237.594 211.085 237.629L208.052 239.38C207.991 239.416 207.941 239.51 207.941 239.592V240.452C207.941 240.533 207.991 240.571 208.052 240.536L211.085 238.785C211.146 238.749 211.196 238.654 211.196 238.573Z" fill="#2842A2"></path><path d="M215.393 224.993L150.229 187.37C149.795 187.119 149.26 187.12 148.825 187.371L125.621 200.796C125.288 200.989 125.288 201.47 125.622 201.663L190.756 239.268C191.189 239.518 191.724 239.518 192.158 239.268L215.395 225.859C215.727 225.667 215.727 225.185 215.393 224.993Z" fill="#ADB1F2"></path><path d="M215.394 225.859L215.16 225.994L150.23 188.506C149.795 188.255 149.26 188.256 148.826 188.507L125.855 201.798L125.621 201.663C125.288 201.47 125.287 200.989 125.621 200.796L148.825 187.371C149.26 187.12 149.794 187.12 150.229 187.37L215.393 224.993C215.728 225.185 215.728 225.667 215.394 225.859Z" fill="#9198DB"></path><path d="M147.074 190.771L207.099 225.426L210.074 224.238L149.591 189.318L147.074 190.771Z" fill="#24126A"></path><path d="M140.906 194.333L193.998 224.987L196.515 223.534L143.422 192.88L140.906 194.333Z" fill="#24126A"></path><path d="M136.883 196.654L199.393 232.745L201.91 231.292L139.4 195.201L136.883 196.654Z" fill="#24126A"></path><path d="M132.871 198.974L195.382 235.065L197.899 233.612L135.388 197.521L132.871 198.974Z" fill="#24126A"></path><path d="M128.848 201.294L191.358 237.385L193.875 235.932L131.365 199.841L128.848 201.294Z" fill="#24126A"></path><path d="M207.098 225.426L209.614 226.879L212.131 225.426L209.614 223.973L207.098 225.426Z" fill="#24126A"></path><path d="M190.945 223.224L203.447 230.442L205.964 228.989L193.372 221.718L190.945 223.224Z" fill="#24126A"></path><path d="M192.187 208.132L174.617 197.988C173.93 197.591 173.93 196.948 174.617 196.553L186.632 189.616C187.319 189.219 188.432 189.219 189.119 189.616L206.689 199.76C207.376 200.157 207.376 200.8 206.689 201.196L194.674 208.133C193.988 208.529 192.875 208.529 192.187 208.132Z" fill="url(#paint30_linear_2288_192006)"></path><path d="M206.691 200.348L189.12 190.203C188.434 189.807 187.32 189.807 186.633 190.203L174.618 197.141C174.407 197.263 174.268 197.41 174.186 197.565C174.005 197.219 174.143 196.828 174.618 196.553L186.633 189.617C187.32 189.22 188.434 189.22 189.12 189.617L206.691 199.761C207.165 200.035 207.304 200.425 207.122 200.773C207.041 200.616 206.902 200.47 206.691 200.348Z" fill="#9198DB"></path><path d="M113.122 198.599L123.034 139.789L122.237 139.454L123.435 138.767L123.433 138.774C123.665 138.619 123.994 138.628 124.357 138.838L203.579 184.576C204.229 184.952 204.721 185.916 204.608 186.589L194.616 245.866C194.563 246.175 194.411 246.38 194.198 246.47L193.027 247.147L192.826 246.053L192.893 246.073L114.151 200.612C113.5 200.237 113.008 199.273 113.122 198.599Z" fill="url(#paint31_linear_2288_192006)"></path><path d="M203.139 186.185L204.442 185.609C204.588 185.943 204.659 186.294 204.609 186.59L194.617 245.867C194.564 246.176 194.412 246.381 194.199 246.471H194.2L193.028 247.148L192.828 246.054L192.895 246.074L188.91 243.774L203.139 186.185Z" fill="url(#paint32_linear_2288_192006)"></path><path d="M112.908 201.326L192.13 247.064C192.742 247.418 193.265 247.213 193.373 246.581L203.365 187.303C203.479 186.629 202.986 185.666 202.336 185.291L123.114 139.552C122.502 139.199 121.979 139.403 121.871 140.036L111.88 199.314C111.765 199.987 112.257 200.95 112.908 201.326Z" fill="#453C9E"></path><defs><linearGradient id="paint0_linear_2288_192006" x1="310.859" y1="138.497" x2="363.365" y2="47.5551" gradientUnits="userSpaceOnUse"><stop stop-color="#42E8E0"></stop><stop offset="0.0185" stop-color="#40DEDA"></stop><stop offset="0.1149" stop-color="#37ADBC"></stop><stop offset="0.2166" stop-color="#2E82A2"></stop><stop offset="0.3219" stop-color="#285E8C"></stop><stop offset="0.4319" stop-color="#22417A"></stop><stop offset="0.5479" stop-color="#1E2A6C"></stop><stop offset="0.6729" stop-color="#1A1A63"></stop><stop offset="0.813" stop-color="#19105D"></stop><stop offset="1" stop-color="#180D5B"></stop></linearGradient><linearGradient id="paint1_linear_2288_192006" x1="199.225" y1="139.91" x2="146.718" y2="48.9678" gradientUnits="userSpaceOnUse"><stop stop-color="#42E8E0"></stop><stop offset="0.0185" stop-color="#40DEDA"></stop><stop offset="0.1149" stop-color="#37ADBC"></stop><stop offset="0.2166" stop-color="#2E82A2"></stop><stop offset="0.3219" stop-color="#285E8C"></stop><stop offset="0.4319" stop-color="#22417A"></stop><stop offset="0.5479" stop-color="#1E2A6C"></stop><stop offset="0.6729" stop-color="#1A1A63"></stop><stop offset="0.813" stop-color="#19105D"></stop><stop offset="1" stop-color="#180D5B"></stop></linearGradient><linearGradient id="paint2_linear_2288_192006" x1="201.629" y1="208.122" x2="150.001" y2="297.542" gradientUnits="userSpaceOnUse"><stop stop-color="#42E8E0"></stop><stop offset="0.0185" stop-color="#40DEDA"></stop><stop offset="0.1149" stop-color="#37ADBC"></stop><stop offset="0.2166" stop-color="#2E82A2"></stop><stop offset="0.3219" stop-color="#285E8C"></stop><stop offset="0.4319" stop-color="#22417A"></stop><stop offset="0.5479" stop-color="#1E2A6C"></stop><stop offset="0.6729" stop-color="#1A1A63"></stop><stop offset="0.813" stop-color="#19105D"></stop><stop offset="1" stop-color="#180D5B"></stop></linearGradient><linearGradient id="paint3_linear_2288_192006" x1="312.559" y1="207.116" x2="364.188" y2="296.537" gradientUnits="userSpaceOnUse"><stop stop-color="#42E8E0"></stop><stop offset="0.0185" stop-color="#40DEDA"></stop><stop offset="0.1149" stop-color="#37ADBC"></stop><stop offset="0.2166" stop-color="#2E82A2"></stop><stop offset="0.3219" stop-color="#285E8C"></stop><stop offset="0.4319" stop-color="#22417A"></stop><stop offset="0.5479" stop-color="#1E2A6C"></stop><stop offset="0.6729" stop-color="#1A1A63"></stop><stop offset="0.813" stop-color="#19105D"></stop><stop offset="1" stop-color="#180D5B"></stop></linearGradient><linearGradient id="paint4_linear_2288_192006" x1="412.393" y1="65.1985" x2="319.257" y2="65.1985" gradientUnits="userSpaceOnUse"><stop stop-color="#C0BFF6"></stop><stop offset="0.2938" stop-color="#C5C4F7"></stop><stop offset="0.6399" stop-color="#D3D2F9"></stop><stop offset="1" stop-color="#E9E9FD"></stop></linearGradient><linearGradient id="paint5_linear_2288_192006" x1="412.387" y1="89.0836" x2="396.395" y2="89.0836" gradientUnits="userSpaceOnUse"><stop stop-color="#5761D7"></stop><stop offset="0.1779" stop-color="#5C66D9"></stop><stop offset="0.3876" stop-color="#6A73DF"></stop><stop offset="0.6134" stop-color="#8289E8"></stop><stop offset="0.849" stop-color="#A3A7F5"></stop><stop offset="1" stop-color="#BCBEFF"></stop></linearGradient><linearGradient id="paint6_linear_2288_192006" x1="399.917" y1="115.933" x2="268.378" y2="115.933" gradientUnits="userSpaceOnUse"><stop stop-color="#5761D7"></stop><stop offset="0.1779" stop-color="#5C66D9"></stop><stop offset="0.3876" stop-color="#6A73DF"></stop><stop offset="0.6134" stop-color="#8289E8"></stop><stop offset="0.849" stop-color="#A3A7F5"></stop><stop offset="1" stop-color="#BCBEFF"></stop></linearGradient><linearGradient id="paint7_linear_2288_192006" x1="355.715" y1="111.547" x2="224.107" y2="111.547" gradientUnits="userSpaceOnUse"><stop stop-color="#C0BFF6"></stop><stop offset="0.2938" stop-color="#C5C4F7"></stop><stop offset="0.6399" stop-color="#D3D2F9"></stop><stop offset="1" stop-color="#E9E9FD"></stop></linearGradient><linearGradient id="paint8_linear_2288_192006" x1="333.43" y1="119.019" x2="299.742" y2="119.019" gradientUnits="userSpaceOnUse"><stop stop-color="#C0BFF6"></stop><stop offset="0.2938" stop-color="#C5C4F7"></stop><stop offset="0.6399" stop-color="#D3D2F9"></stop><stop offset="1" stop-color="#E9E9FD"></stop></linearGradient><linearGradient id="paint9_linear_2288_192006" x1="405.997" y1="82.3763" x2="274.388" y2="82.3763" gradientUnits="userSpaceOnUse"><stop stop-color="#C0BFF6"></stop><stop offset="0.2938" stop-color="#C5C4F7"></stop><stop offset="0.6399" stop-color="#D3D2F9"></stop><stop offset="1" stop-color="#E9E9FD"></stop></linearGradient><linearGradient id="paint10_linear_2288_192006" x1="414.661" y1="72.7152" x2="380.973" y2="72.7152" gradientUnits="userSpaceOnUse"><stop stop-color="#C0BFF6"></stop><stop offset="0.2938" stop-color="#C5C4F7"></stop><stop offset="0.6399" stop-color="#D3D2F9"></stop><stop offset="1" stop-color="#E9E9FD"></stop></linearGradient><linearGradient id="paint11_linear_2288_192006" x1="97.5356" y1="66.6067" x2="190.672" y2="66.6067" gradientUnits="userSpaceOnUse"><stop stop-color="#C0BFF6"></stop><stop offset="0.2938" stop-color="#C5C4F7"></stop><stop offset="0.6399" stop-color="#D3D2F9"></stop><stop offset="1" stop-color="#E9E9FD"></stop></linearGradient><linearGradient id="paint12_linear_2288_192006" x1="97.5347" y1="90.4918" x2="113.527" y2="90.4918" gradientUnits="userSpaceOnUse"><stop stop-color="#5761D7"></stop><stop offset="0.1779" stop-color="#5C66D9"></stop><stop offset="0.3876" stop-color="#6A73DF"></stop><stop offset="0.6134" stop-color="#8289E8"></stop><stop offset="0.849" stop-color="#A3A7F5"></stop><stop offset="1" stop-color="#BCBEFF"></stop></linearGradient><linearGradient id="paint13_linear_2288_192006" x1="110.018" y1="117.342" x2="241.557" y2="117.342" gradientUnits="userSpaceOnUse"><stop stop-color="#5761D7"></stop><stop offset="0.1779" stop-color="#5C66D9"></stop><stop offset="0.3876" stop-color="#6A73DF"></stop><stop offset="0.6134" stop-color="#8289E8"></stop><stop offset="0.849" stop-color="#A3A7F5"></stop><stop offset="1" stop-color="#BCBEFF"></stop></linearGradient><linearGradient id="paint14_linear_2288_192006" x1="154.218" y1="112.956" x2="285.826" y2="112.956" gradientUnits="userSpaceOnUse"><stop stop-color="#C0BFF6"></stop><stop offset="0.2938" stop-color="#C5C4F7"></stop><stop offset="0.6399" stop-color="#D3D2F9"></stop><stop offset="1" stop-color="#E9E9FD"></stop></linearGradient><linearGradient id="paint15_linear_2288_192006" x1="176.504" y1="120.427" x2="210.192" y2="120.427" gradientUnits="userSpaceOnUse"><stop stop-color="#C0BFF6"></stop><stop offset="0.2938" stop-color="#C5C4F7"></stop><stop offset="0.6399" stop-color="#D3D2F9"></stop><stop offset="1" stop-color="#E9E9FD"></stop></linearGradient><linearGradient id="paint16_linear_2288_192006" x1="103.945" y1="83.7851" x2="235.553" y2="83.7851" gradientUnits="userSpaceOnUse"><stop stop-color="#C0BFF6"></stop><stop offset="0.2938" stop-color="#C5C4F7"></stop><stop offset="0.6399" stop-color="#D3D2F9"></stop><stop offset="1" stop-color="#E9E9FD"></stop></linearGradient><linearGradient id="paint17_linear_2288_192006" x1="95.2816" y1="74.124" x2="128.97" y2="74.124" gradientUnits="userSpaceOnUse"><stop stop-color="#C0BFF6"></stop><stop offset="0.2938" stop-color="#C5C4F7"></stop><stop offset="0.6399" stop-color="#D3D2F9"></stop><stop offset="1" stop-color="#E9E9FD"></stop></linearGradient><linearGradient id="paint18_linear_2288_192006" x1="271.852" y1="212.056" x2="401.105" y2="212.056" gradientUnits="userSpaceOnUse"><stop stop-color="#5761D7"></stop><stop offset="0.1779" stop-color="#5C66D9"></stop><stop offset="0.3876" stop-color="#6A73DF"></stop><stop offset="0.6134" stop-color="#8289E8"></stop><stop offset="0.849" stop-color="#A3A7F5"></stop><stop offset="1" stop-color="#BCBEFF"></stop></linearGradient><linearGradient id="paint19_linear_2288_192006" x1="315.281" y1="207.746" x2="444.603" y2="207.746" gradientUnits="userSpaceOnUse"><stop stop-color="#C0BFF6"></stop><stop offset="0.2938" stop-color="#C5C4F7"></stop><stop offset="0.6399" stop-color="#D3D2F9"></stop><stop offset="1" stop-color="#E9E9FD"></stop></linearGradient><linearGradient id="paint20_linear_2288_192006" x1="306.89" y1="197.795" x2="339.993" y2="197.795" gradientUnits="userSpaceOnUse"><stop stop-color="#C0BFF6"></stop><stop offset="0.2938" stop-color="#C5C4F7"></stop><stop offset="0.6399" stop-color="#D3D2F9"></stop><stop offset="1" stop-color="#E9E9FD"></stop></linearGradient><linearGradient id="paint21_linear_2288_192006" x1="309.481" y1="191.829" x2="400.999" y2="191.829" gradientUnits="userSpaceOnUse"><stop stop-color="#C0BFF6"></stop><stop offset="0.2938" stop-color="#C5C4F7"></stop><stop offset="0.6399" stop-color="#D3D2F9"></stop><stop offset="1" stop-color="#E9E9FD"></stop></linearGradient><linearGradient id="paint22_linear_2288_192006" x1="309.481" y1="215.299" x2="325.195" y2="215.299" gradientUnits="userSpaceOnUse"><stop stop-color="#5761D7"></stop><stop offset="0.1779" stop-color="#5C66D9"></stop><stop offset="0.3876" stop-color="#6A73DF"></stop><stop offset="0.6134" stop-color="#8289E8"></stop><stop offset="0.849" stop-color="#A3A7F5"></stop><stop offset="1" stop-color="#BCBEFF"></stop></linearGradient><linearGradient id="paint23_linear_2288_192006" x1="197.027" y1="169.726" x2="305.558" y2="169.726" gradientUnits="userSpaceOnUse"><stop stop-color="#42E8E0"></stop><stop offset="0.0185" stop-color="#40DEDA"></stop><stop offset="0.1149" stop-color="#37ADBC"></stop><stop offset="0.2166" stop-color="#2E82A2"></stop><stop offset="0.3219" stop-color="#285E8C"></stop><stop offset="0.4319" stop-color="#22417A"></stop><stop offset="0.5479" stop-color="#1E2A6C"></stop><stop offset="0.6729" stop-color="#1A1A63"></stop><stop offset="0.813" stop-color="#19105D"></stop><stop offset="1" stop-color="#180D5B"></stop></linearGradient><linearGradient id="paint24_linear_2288_192006" x1="196.926" y1="161.52" x2="284.374" y2="161.52" gradientUnits="userSpaceOnUse"><stop stop-color="#5761D7"></stop><stop offset="0.1779" stop-color="#5C66D9"></stop><stop offset="0.3876" stop-color="#6A73DF"></stop><stop offset="0.6134" stop-color="#8289E8"></stop><stop offset="0.849" stop-color="#A3A7F5"></stop><stop offset="1" stop-color="#BCBEFF"></stop></linearGradient><radialGradient id="paint25_radial_2288_192006" cx="0" cy="0" r="1" gradientUnits="userSpaceOnUse" gradientTransform="translate(217.479 135.271) scale(41.7142)"><stop stop-color="#2B237C"></stop><stop offset="1" stop-color="#180D5B"></stop></radialGradient><linearGradient id="paint26_linear_2288_192006" x1="196.926" y1="148.373" x2="297.443" y2="148.373" gradientUnits="userSpaceOnUse"><stop stop-color="#5761D7"></stop><stop offset="0.1779" stop-color="#5C66D9"></stop><stop offset="0.3876" stop-color="#6A73DF"></stop><stop offset="0.6134" stop-color="#8289E8"></stop><stop offset="0.849" stop-color="#A3A7F5"></stop><stop offset="1" stop-color="#BCBEFF"></stop></linearGradient><linearGradient id="paint27_linear_2288_192006" x1="213.876" y1="171.359" x2="301.324" y2="171.359" gradientUnits="userSpaceOnUse"><stop stop-color="#C0BFF6"></stop><stop offset="0.2938" stop-color="#C5C4F7"></stop><stop offset="0.6399" stop-color="#D3D2F9"></stop><stop offset="1" stop-color="#E9E9FD"></stop></linearGradient><linearGradient id="paint28_linear_2288_192006" x1="242.242" y1="213.135" x2="112.989" y2="213.135" gradientUnits="userSpaceOnUse"><stop stop-color="#5761D7"></stop><stop offset="0.1779" stop-color="#5C66D9"></stop><stop offset="0.3876" stop-color="#6A73DF"></stop><stop offset="0.6134" stop-color="#8289E8"></stop><stop offset="0.849" stop-color="#A3A7F5"></stop><stop offset="1" stop-color="#BCBEFF"></stop></linearGradient><linearGradient id="paint29_linear_2288_192006" x1="198.815" y1="208.825" x2="69.4927" y2="208.825" gradientUnits="userSpaceOnUse"><stop stop-color="#C0BFF6"></stop><stop offset="0.2938" stop-color="#C5C4F7"></stop><stop offset="0.6399" stop-color="#D3D2F9"></stop><stop offset="1" stop-color="#E9E9FD"></stop></linearGradient><linearGradient id="paint30_linear_2288_192006" x1="207.205" y1="198.874" x2="174.102" y2="198.874" gradientUnits="userSpaceOnUse"><stop stop-color="#C0BFF6"></stop><stop offset="0.2938" stop-color="#C5C4F7"></stop><stop offset="0.6399" stop-color="#D3D2F9"></stop><stop offset="1" stop-color="#E9E9FD"></stop></linearGradient><linearGradient id="paint31_linear_2288_192006" x1="204.623" y1="192.908" x2="113.106" y2="192.908" gradientUnits="userSpaceOnUse"><stop stop-color="#C0BFF6"></stop><stop offset="0.2938" stop-color="#C5C4F7"></stop><stop offset="0.6399" stop-color="#D3D2F9"></stop><stop offset="1" stop-color="#E9E9FD"></stop></linearGradient><linearGradient id="paint32_linear_2288_192006" x1="204.625" y1="216.378" x2="188.911" y2="216.378" gradientUnits="userSpaceOnUse"><stop stop-color="#5761D7"></stop><stop offset="0.1779" stop-color="#5C66D9"></stop><stop offset="0.3876" stop-color="#6A73DF"></stop><stop offset="0.6134" stop-color="#8289E8"></stop><stop offset="0.849" stop-color="#A3A7F5"></stop><stop offset="1" stop-color="#BCBEFF"></stop></linearGradient></defs></svg>