<svg xmlns="http://www.w3.org/2000/svg" width="500" height="450" viewBox="0 0 500 450" fill="none"><rect width="500" height="450" rx="24" fill="white"></rect><path d="M500 366.446H0V366.696H500V366.446Z" fill="#EBEBEB"></path><path d="M449.903 382.542H416.781V382.792H449.903V382.542Z" fill="#EBEBEB"></path><path d="M331.22 385.256H322.527V385.506H331.22V385.256Z" fill="#EBEBEB"></path><path d="M415.778 373.256H396.586V373.506H415.778V373.256Z" fill="#EBEBEB"></path><path d="M95.6539 374.936H52.4609V375.186H95.6539V374.936Z" fill="#EBEBEB"></path><path d="M110.888 374.936H104.555V375.186H110.888V374.936Z" fill="#EBEBEB"></path><path d="M225.145 379.159H131.469V379.409H225.145V379.159Z" fill="#EBEBEB"></path><path d="M237.014 321.848H43.915C40.768 321.848 38.207 319.287 38.207 316.14V44.708C38.207 41.561 40.768 39 43.915 39H237.014C240.16 39 242.721 41.561 242.721 44.708V316.14C242.721 319.287 240.16 321.848 237.014 321.848ZM43.915 39.251C40.905 39.251 38.457 41.699 38.457 44.709V316.141C38.457 319.151 40.905 321.599 43.915 321.599H237.014C240.023 321.599 242.471 319.151 242.471 316.141V44.708C242.471 41.699 240.023 39.25 237.014 39.25L43.915 39.251Z" fill="#EBEBEB"></path><path d="M453.313 321.848H260.215C257.068 321.848 254.508 319.287 254.508 316.14V44.708C254.508 41.561 257.069 39 260.215 39H453.313C456.461 39 459.021 41.561 459.021 44.708V316.14C459.022 319.287 456.461 321.848 453.313 321.848ZM260.215 39.251C257.206 39.251 254.758 41.699 254.758 44.709V316.141C254.758 319.151 257.206 321.599 260.215 321.599H453.313C456.323 321.599 458.771 319.151 458.771 316.141V44.708C458.771 41.699 456.323 39.25 453.313 39.25L260.215 39.251Z" fill="#EBEBEB"></path><path d="M373.163 114.058H358.996V158.169H373.163V114.058Z" fill="#E6E6E6"></path><path d="M411.572 158.169H364.554L357.453 106.54H404.471L411.572 158.169Z" fill="#F0F0F0"></path><path d="M416.667 158.169H368.101L361 106.54H409.566L416.667 158.169Z" fill="#F5F5F5"></path><path d="M371.606 154.101L365.625 110.609H406.053L412.035 154.101H371.606Z" fill="white"></path><path d="M379.594 140.932L377.349 124.606C377.098 122.779 378.517 121.151 380.361 121.151H395.052C396.571 121.151 397.858 122.272 398.065 123.777L400.31 140.103C400.561 141.93 399.142 143.558 397.298 143.558H382.607C381.088 143.559 379.801 142.437 379.594 140.932Z" fill="#F5F5F5"></path><path d="M284.944 65.731H73.1562V196.385H284.944V65.731Z" fill="#E6E6E6"></path><path d="M290.386 65.731H75.6992V196.385H290.386V65.731Z" fill="#F0F0F0"></path><path d="M284.944 196.385H73.1562V206.496H284.944V196.385Z" fill="#E6E6E6"></path><path d="M299.453 196.385H84.7656V206.496H299.453V196.385Z" fill="#F0F0F0"></path><path d="M282.766 188.767V73.3481L83.3136 73.3481L83.3136 188.767L282.766 188.767Z" fill="#FAFAFA"></path><path d="M97.9609 188.768L142.67 73.3481H163.775L119.066 188.768H97.9609Z" fill="white"></path><path d="M123.598 188.768L168.307 73.3481H176.535L131.826 188.768H123.598Z" fill="white"></path><path d="M201.816 188.768L246.525 73.3481H254.753L210.044 188.768H201.816Z" fill="white"></path><path d="M282.766 188.767V73.3481H281.799V188.767H282.766Z" fill="#E6E6E6"></path><path d="M445.503 158.169H400.664V366.446H445.503V158.169Z" fill="#E6E6E6"></path><path d="M440.995 366.446H445.505V353.617H436.266L440.995 366.446Z" fill="#F0F0F0"></path><path d="M366.929 158.169H322.09V366.446H366.929V158.169Z" fill="#E6E6E6"></path><path d="M445.502 158.169H362.992V358.574H445.502V158.169Z" fill="#F0F0F0"></path><path d="M367.503 366.446H362.992V353.617H372.232L367.503 366.446Z" fill="#F0F0F0"></path><path d="M442.004 161.839H366.492V256.38H442.004V161.839Z" fill="#E6E6E6"></path><path d="M412.421 169.196H396.068C388.965 169.196 382.174 166.275 377.289 161.119H431.201C426.315 166.275 419.524 169.196 412.421 169.196Z" fill="#F0F0F0"></path><path d="M442.004 260.207H366.492V354.748H442.004V260.207Z" fill="#E6E6E6"></path><path d="M412.421 267.564H396.068C388.965 267.564 382.174 264.643 377.289 259.487H431.201C426.315 264.643 419.524 267.564 412.421 267.564Z" fill="#F0F0F0"></path><path d="M129.5 223.937H204.124L214.939 268.004H140.315L129.5 223.937Z" fill="#E6E6E6"></path><path d="M140.312 268.004L140.615 270.439H215.243L214.941 268.004H140.312Z" fill="#E6E6E6"></path><path d="M131.797 223.937H206.421L217.236 268.004H142.612L131.797 223.937Z" fill="#F0F0F0"></path><path d="M144.19 265.99L134.363 225.95H204.842L214.67 265.99H144.19Z" fill="white"></path><path d="M162.055 268.004L162.357 270.439H244.534L244.232 268.004H162.055Z" fill="#F0F0F0"></path><path d="M263.286 270.439H254.344V366.436H263.286V270.439Z" fill="#E6E6E6"></path><path d="M266.108 270.439H259.898V366.436H266.108V270.439Z" fill="#F0F0F0"></path><path d="M152.824 281.427H268.031V270.44H152.824V281.427Z" fill="#F0F0F0"></path><path d="M148.825 281.426H139.883V366.436H148.825V281.426Z" fill="#E6E6E6"></path><path d="M151.644 281.426H145.434V366.436H151.644V281.426Z" fill="#F0F0F0"></path><path d="M92.235 281.426H83.293V366.436H92.235V281.426Z" fill="#E6E6E6"></path><path d="M95.0577 281.426H88.8477V366.436H95.0577V281.426Z" fill="#F0F0F0"></path><path d="M206.7 281.426H197.758V366.436H206.7V281.426Z" fill="#E6E6E6"></path><path d="M209.522 281.426H203.312V366.436H209.522V281.426Z" fill="#F0F0F0"></path><path d="M152.825 270.439H83.293V281.426H152.825V270.439Z" fill="#E6E6E6"></path><path d="M292.345 366.446H290.168L283.952 335.804L282.86 330.436L276.078 297.044H250.073L235.982 366.446H233.805L248.163 295.763C248.265 295.268 248.697 294.914 249.208 294.914H276.95C277.453 294.914 277.893 295.268 277.987 295.763L283.944 325.092L285.036 330.452L292.345 366.446Z" fill="#F0F0F0"></path><path d="M334.092 366.446H331.915L317.816 297.044H291.819L285.037 330.452L283.952 335.804L277.728 366.446H275.551L282.86 330.437L283.945 325.093L289.902 295.764C290.004 295.269 290.444 294.915 290.947 294.915H318.689C319.2 294.915 319.632 295.269 319.734 295.764L334.092 366.446Z" fill="#F0F0F0"></path><path d="M269.992 295.978H317.772C326.894 295.978 331.948 289.775 334.526 279.562L335.795 273.721C336.838 268.922 335.054 263.829 331.007 261.048C329.045 259.7 326.668 258.91 324.104 258.91H294.152C287.946 258.91 286.31 260.387 282.025 269.733C277.739 279.079 269.992 295.978 269.992 295.978Z" fill="#F0F0F0"></path><path d="M249.294 286.823H296.052V295.978H245.136C243.818 295.978 242.75 294.91 242.75 293.592V293.367C242.75 289.753 245.68 286.823 249.294 286.823Z" fill="#F0F0F0"></path><path d="M249.998 411.609C357.08 411.609 443.887 406.539 443.887 400.286C443.887 394.032 357.08 388.963 249.998 388.963C142.916 388.963 56.1094 394.032 56.1094 400.286C56.1094 406.539 142.916 411.609 249.998 411.609Z" fill="#F5F5F5"></path><path d="M203.031 368.299L196.632 372.42L185.031 358.927L191.43 354.806L203.031 368.299Z" fill="#FF8B7B"></path><path opacity="0.2" d="M191.436 354.808L185.035 358.931L191.018 365.884L197.419 361.762L191.436 354.808Z" fill="black"></path><path d="M154.115 390.302L146.763 391.021L139.113 373.522L146.465 372.803L154.115 390.302Z" fill="#FF8B7B"></path><path opacity="0.2" d="M139.117 373.526L143.059 382.546H150.728L146.472 372.807L139.117 373.526Z" fill="black"></path><path d="M98.2273 154.055C94.5233 154.392 94.4293 148.111 87.9313 151.069C79.6713 154.829 82.4563 160.661 76.0123 160.414C69.5683 160.167 65.2343 165.205 66.6793 168.963C68.1243 172.722 70.3463 176.258 65.7903 177.768C61.2343 179.278 58.1233 180.611 58.7903 184.389C59.4573 188.167 62.6793 189.69 57.2343 192.095C51.7903 194.5 52.3453 204.926 57.6783 204.935C63.0113 204.944 57.9003 210.142 62.6783 215.414C67.4563 220.686 74.7283 221.463 77.7593 218.815C80.7893 216.167 84.1703 214.056 89.8693 218.056C95.5673 222.056 105.213 223.056 104.779 216.723C104.345 210.39 98.8043 206.223 104.019 202.918C109.234 199.612 116.027 197.992 113.893 191.575C112.547 187.526 108.463 184.093 111.762 181.096C117.11 176.238 117.137 165.238 110.58 162.45C106.769 160.826 110.442 152.944 98.2273 154.055Z" fill="#263238"></path><path d="M91.112 203.465C90.936 206.432 90.553 209.141 90.108 211.952C89.642 214.735 89.031 217.498 88.306 220.248C87.587 223 86.698 225.728 85.59 228.407C85.048 229.749 84.432 231.077 83.769 232.389C83.438 233.046 83.082 233.696 82.713 234.342C82.537 234.667 82.33 234.983 82.14 235.304L81.848 235.783C81.683 236.03 81.459 236.382 81.194 236.666C80.687 237.267 79.964 237.798 79.225 238.137C78.471 238.492 77.727 238.631 77.063 238.685C75.73 238.774 74.703 238.522 73.818 238.247C72.058 237.668 70.705 236.892 69.42 236.089C66.882 234.464 64.691 232.673 62.587 230.801C58.429 227.012 54.656 223.029 51.125 218.727L53.93 216.083C55.925 217.842 57.963 219.633 60.028 221.334C62.074 223.063 64.158 224.735 66.283 226.295C68.391 227.859 70.538 229.378 72.686 230.522C73.744 231.091 74.835 231.56 75.686 231.754C76.103 231.859 76.439 231.843 76.465 231.823C76.474 231.811 76.409 231.816 76.266 231.864C76.135 231.906 75.983 232.038 75.904 232.107C75.884 232.137 75.868 232.147 75.855 232.157C75.851 232.153 75.813 232.224 75.847 232.165L76.066 231.761C76.209 231.489 76.365 231.23 76.498 230.949C76.777 230.399 77.048 229.842 77.301 229.271C77.808 228.13 78.284 226.964 78.702 225.761C79.544 223.363 80.243 220.878 80.864 218.359C81.477 215.837 81.955 213.266 82.368 210.682C82.796 208.126 83.118 205.436 83.347 202.979L91.112 203.465Z" fill="#FF8B7B"></path><path d="M96.9217 204.409C96.5217 206.829 94.5117 211.399 92.8917 214.809C91.7117 217.269 90.7517 219.119 90.7517 219.119L89.3517 218.499L77.7617 213.339C78.6417 207.089 80.0717 200.289 86.9617 197.269C91.2917 195.369 97.6317 200.089 96.9217 204.409Z" fill="#407BFF"></path><path opacity="0.6" d="M96.9217 204.409C96.5217 206.829 94.5117 211.399 92.8917 214.809C91.7117 217.269 90.7517 219.119 90.7517 219.119L89.3517 218.499L77.7617 213.339C78.6417 207.089 80.0717 200.289 86.9617 197.269C91.2917 195.369 97.6317 200.089 96.9217 204.409Z" fill="black"></path><path opacity="0.3" d="M92.8916 214.81C91.7116 217.27 90.7516 219.12 90.7516 219.12L89.3516 218.5C89.5416 216.03 90.0316 212.14 91.3716 210.39C92.2016 211.66 92.6616 213.22 92.8916 214.81Z" fill="black"></path><path d="M54.3713 218.342L55.2953 211.608L47.7383 214.088C47.7383 214.088 48.9443 218.164 51.6333 219.831L54.3713 218.342Z" fill="#FF8B7B"></path><path d="M51.8647 205.86L46.5977 208.748L47.7367 214.087L55.2937 211.608L51.8647 205.86Z" fill="#FF8B7B"></path><path d="M194.27 370.402L201.219 365.419C201.472 365.238 201.803 365.266 202.015 365.487L206.75 370.417C207.241 370.928 207.138 371.82 206.547 372.228C204.095 373.924 202.825 374.619 199.769 376.81C197.889 378.158 193.929 381.417 191.333 383.279C188.794 385.1 186.758 382.673 187.672 381.665C191.771 377.146 192.86 374.066 193.509 371.524C193.627 371.065 193.901 370.668 194.27 370.402Z" fill="#263238"></path><path d="M145.788 388.749H154.817C155.146 388.749 155.442 388.977 155.53 389.298L157.493 396.442C157.697 397.183 157.151 397.864 156.391 397.871C153.209 397.9 151.701 397.886 147.73 397.886C145.287 397.886 138.967 397.886 135.594 397.886C132.295 397.886 131.605 394.55 132.97 394.248C139.091 392.893 142.62 391.025 144.508 389.243C144.85 388.922 145.307 388.749 145.788 388.749Z" fill="#263238"></path><path d="M132.053 231.51C126.363 233.31 114.273 237.13 102.583 240.83C82.1826 200.45 85.0926 198.31 85.0926 198.31C85.0926 198.31 89.8026 195.62 94.7026 193.38C95.4426 193.04 96.1926 192.71 96.9326 192.4C101.173 190.62 105.283 189.49 110.313 188.16C110.983 187.98 111.653 187.82 112.323 187.66C118.053 186.34 123.353 185.85 123.353 185.85C123.793 191.44 124.233 196.17 124.713 200.28C125.333 205.64 126.003 209.93 126.753 213.64C128.163 220.54 129.853 225.44 132.053 231.51Z" fill="#407BFF"></path><path opacity="0.6" d="M132.053 231.51C126.363 233.31 114.273 237.13 102.583 240.83C82.1826 200.45 85.0926 198.31 85.0926 198.31C85.0926 198.31 89.8026 195.62 94.7026 193.38C95.4426 193.04 96.1926 192.71 96.9326 192.4C101.173 190.62 105.283 189.49 110.313 188.16C110.983 187.98 111.653 187.82 112.323 187.66C118.053 186.34 123.353 185.85 123.353 185.85C123.793 191.44 124.233 196.17 124.713 200.28C125.333 205.64 126.003 209.93 126.753 213.64C128.163 220.54 129.853 225.44 132.053 231.51Z" fill="black"></path><path opacity="0.3" d="M126.752 213.64C123.922 209.62 121.212 200.33 121.912 196.84L124.712 200.28C125.332 205.64 126.002 209.93 126.752 213.64Z" fill="black"></path><path d="M103.625 205.849C103.625 205.849 111.062 204.241 113.451 207.464C116.729 204.242 115.573 191.619 113.989 187.119C112.739 187.23 110.316 188.161 110.316 188.161L105.07 196.277L103.625 205.849Z" fill="white"></path><path d="M103.622 205.849C103.622 205.849 98.5951 206.971 98.0951 211.055C91.1191 205.849 91.5851 198.217 93.1681 193.717C94.3071 193.022 96.9291 192.399 96.9291 192.399L102.177 198.173L103.622 205.849Z" fill="white"></path><path d="M105.341 179.642C106.296 183.319 107.862 186.96 110.315 188.161C110.315 188.161 112.624 194.777 103.624 205.85C94.2062 199.139 96.9332 192.396 96.9332 192.396C101.372 189.73 100.121 186.207 98.2262 183.126L100.838 178.938C101.994 177.084 104.792 177.527 105.341 179.642Z" fill="#FF8B7B"></path><path opacity="0.2" d="M105.342 179.638C104.792 177.528 101.992 177.088 100.832 178.938L99.9922 180.278C99.9922 180.288 99.9922 180.288 99.9922 180.288C100.062 181.178 100.102 181.908 100.092 182.288C100.012 184.888 103.662 184.767 106.632 183.517C106.112 182.308 105.682 180.978 105.342 179.638Z" fill="black"></path><path d="M87.2511 169.584C89.8461 176.678 90.7931 179.736 95.5471 182.358C102.698 186.303 110.844 181.564 110.42 173.837C110.039 166.883 105.859 156.45 97.9301 155.68C90.1171 154.922 84.6551 162.49 87.2511 169.584Z" fill="#FF8B7B"></path><path d="M105.636 158.928C103.202 156.575 100.657 153.845 95.7386 154.378C90.3156 154.966 88.1776 158.245 88.1776 158.245L83.5156 168.435C83.5156 168.435 86.4076 181.556 91.1796 175.425C93.9246 171.899 94.0366 166.551 92.9656 162.548C94.4906 162.402 96.4876 161.856 98.4866 161.264C100.684 162.086 103.156 162.09 104.988 160.406C105.386 160.04 105.68 159.749 105.89 159.521L106.055 159.328C106.629 158.636 106.175 158.711 105.636 158.928ZM99.3386 161.01C101.282 160.427 103.158 159.855 104.536 159.621C103.93 160.401 102.146 161.631 99.3386 161.01Z" fill="#263238"></path><path d="M87.6136 176.793C88.3966 178.149 89.7326 179.018 90.9806 179.331C92.8576 179.802 93.7456 178.111 93.1806 176.366C92.6726 174.795 91.0836 172.657 89.2196 172.961C87.3836 173.26 86.7186 175.242 87.6136 176.793Z" fill="#FF8B7B"></path><path d="M102.58 240.835C102.58 240.835 101.541 301.233 109.472 323.052C117.075 343.97 139.742 379.931 139.742 379.931L152.878 379.593C152.878 379.593 132.01 334.064 128.587 316.051C122.91 286.179 124.163 234.006 124.163 234.006L102.58 240.835Z" fill="#407BFF"></path><path opacity="0.3" d="M114.383 245.999L117.913 235.989L124.163 234.009C124.163 234.009 123.593 257.739 124.963 282.349C119.297 271.469 114.382 251.469 114.383 245.999Z" fill="black"></path><path d="M137.89 380.612L154.117 380.198L153.179 375.212L135.461 376.052L137.89 380.612Z" fill="#263238"></path><path d="M109.043 238.885C109.043 238.885 129.537 285.781 142.787 312.468C153.489 334.023 186.789 362.948 186.789 362.948L195.914 356.615C195.914 356.615 170.863 322.36 163.473 307.742C139.821 260.955 145.653 241.676 132.051 231.51L109.043 238.885Z" fill="#407BFF"></path><path d="M187.289 365.97L198.011 358.341L195.576 353.659L183.797 362.571L187.289 365.97Z" fill="#263238"></path><path d="M131.948 229.641L134.112 231.858C134.28 232.03 134.104 232.315 133.763 232.423L102.855 242.202C102.589 242.286 102.328 242.225 102.258 242.064L101.158 239.51C101.082 239.333 101.263 239.106 101.554 239.014L131.398 229.572C131.617 229.502 131.84 229.53 131.948 229.641Z" fill="#263238"></path><path d="M128.992 234.246L129.791 233.993C129.95 233.943 130.045 233.822 130.003 233.725L128.544 230.416C128.501 230.319 128.336 230.281 128.177 230.331L127.378 230.584C127.219 230.634 127.124 230.755 127.166 230.852L128.625 234.161C128.667 234.259 128.832 234.297 128.992 234.246Z" fill="#407BFF"></path><path d="M105.188 241.778L105.987 241.525C106.145 241.475 106.24 241.354 106.198 241.257L104.739 237.948C104.696 237.851 104.532 237.813 104.373 237.863L103.573 238.116C103.414 238.166 103.32 238.287 103.362 238.384L104.82 241.693C104.863 241.79 105.029 241.828 105.188 241.778Z" fill="#407BFF"></path><path d="M117.09 238.012L117.889 237.759C118.048 237.709 118.144 237.588 118.101 237.491L116.642 234.182C116.599 234.085 116.434 234.047 116.275 234.097L115.476 234.35C115.317 234.4 115.222 234.521 115.264 234.618L116.723 237.927C116.766 238.024 116.931 238.062 117.09 238.012Z" fill="#407BFF"></path><path d="M99.6939 168.029C99.8689 168.617 100.323 169.002 100.707 168.887C101.091 168.772 101.261 168.203 101.086 167.614C100.911 167.026 100.457 166.641 100.072 166.756C99.6889 166.871 99.5189 167.441 99.6939 168.029Z" fill="#263238"></path><path d="M106.342 166.049C106.517 166.637 106.971 167.022 107.356 166.907C107.741 166.792 107.91 166.223 107.735 165.634C107.56 165.046 107.106 164.661 106.722 164.776C106.337 164.891 106.167 165.461 106.342 166.049Z" fill="#263238"></path><path d="M106.562 164.86L107.854 164.032C107.854 164.032 107.457 165.351 106.562 164.86Z" fill="#263238"></path><path d="M104.688 167.574C104.688 167.574 106.441 169.81 107.903 170.705C107.342 171.661 105.923 171.723 105.923 171.723L104.688 167.574Z" fill="#FF5652"></path><path d="M103.923 174.944C103.977 174.899 104.002 174.825 103.981 174.753C103.952 174.658 103.852 174.603 103.757 174.632C101.182 175.399 99.4318 173.956 99.4138 173.941C99.3378 173.877 99.2218 173.889 99.1598 173.962C99.0958 174.038 99.1048 174.151 99.1808 174.216C99.2578 174.281 101.091 175.802 103.86 174.977C103.883 174.971 103.905 174.959 103.923 174.944Z" fill="#263238"></path><path d="M97.176 166.413C97.223 166.374 97.261 166.323 97.284 166.262C97.847 164.757 99.141 164.452 99.154 164.449C99.347 164.407 99.471 164.213 99.428 164.019C99.385 163.825 99.192 163.702 98.998 163.746C98.929 163.761 97.309 164.141 96.609 166.01C96.539 166.196 96.634 166.404 96.82 166.474C96.945 166.52 97.08 166.493 97.176 166.413Z" fill="#263238"></path><path d="M108.366 162.278C108.374 162.257 108.381 162.236 108.385 162.213C108.423 162.018 108.295 161.829 108.099 161.791C106.141 161.414 104.971 162.598 104.922 162.649C104.783 162.792 104.788 163.021 104.931 163.159C105.074 163.297 105.301 163.293 105.44 163.151C105.484 163.107 106.405 162.2 107.963 162.499C108.136 162.532 108.304 162.436 108.366 162.278Z" fill="#263238"></path><path d="M127.826 192.905C129.017 193.8 130.018 194.629 131.06 195.532C132.084 196.425 133.09 197.333 134.076 198.263C136.029 200.143 137.903 202.107 139.682 204.172C141.47 206.231 143.137 208.405 144.67 210.7C145.068 211.26 145.417 211.866 145.791 212.446C146.164 213.028 146.528 213.617 146.861 214.233C147.206 214.857 147.537 215.41 147.89 216.094L148.42 217.204L148.85 218.324C149.889 221.329 150.125 224.288 150.124 227.123C150.066 229.96 149.758 232.708 149.235 235.383C148.717 238.058 148.041 240.667 147.264 243.231C146.429 245.792 145.565 248.274 144.442 250.776L140.826 249.441C141.446 247.039 142.038 244.517 142.479 242.033C142.959 239.547 143.334 237.051 143.551 234.573C143.765 232.096 143.871 229.64 143.715 227.271C143.636 226.092 143.502 224.938 143.292 223.832C143.069 222.734 142.755 221.697 142.382 220.748L142.081 220.059L141.735 219.424C141.469 218.964 141.101 218.417 140.791 217.918C140.478 217.403 140.13 216.903 139.773 216.408C139.414 215.914 139.087 215.405 138.703 214.923C137.244 212.958 135.601 211.106 133.955 209.255C132.293 207.415 130.515 205.662 128.688 203.965C127.783 203.107 126.858 202.27 125.922 201.45C124.994 200.654 124 199.808 123.133 199.112L127.826 192.905Z" fill="#FF8B7B"></path><path d="M141.922 247.046L136.445 251.071L143.486 254.77C143.486 254.77 145.572 251.067 144.897 247.976L141.922 247.046Z" fill="#FF8B7B"></path><path d="M134.703 257.534L140.443 259.305L143.483 254.77L136.441 251.071L134.703 257.534Z" fill="#FF8B7B"></path><path d="M123.353 185.85C127.183 185.677 134.71 195.089 134.71 195.089L126.894 206.145C126.894 206.145 118.112 199.164 117.432 194.275C116.855 190.124 118.475 186.07 123.353 185.85Z" fill="#407BFF"></path><path opacity="0.6" d="M123.353 185.85C127.183 185.677 134.71 195.089 134.71 195.089L126.894 206.145C126.894 206.145 118.112 199.164 117.432 194.275C116.855 190.124 118.475 186.07 123.353 185.85Z" fill="black"></path><path d="M191.642 373.531C191.6 373.531 191.559 373.529 191.519 373.524C191.177 373.484 190.907 373.28 190.718 372.92C190.576 372.648 190.637 372.432 190.714 372.299C191.2 371.458 193.948 371.322 194.259 371.31C194.332 371.307 194.398 371.347 194.429 371.412C194.46 371.477 194.45 371.554 194.402 371.608C193.766 372.34 192.584 373.531 191.642 373.531ZM193.838 371.696C192.741 371.782 191.282 372.036 191.026 372.479C190.994 372.535 190.966 372.616 191.037 372.752C191.169 373.004 191.34 373.139 191.561 373.165C192.078 373.228 192.915 372.683 193.838 371.696Z" fill="#407BFF"></path><path d="M194.087 371.677C193.163 371.677 191.351 371.169 191.017 370.431C190.948 370.278 190.882 369.978 191.217 369.67C191.43 369.475 191.684 369.39 191.978 369.42C193.077 369.533 194.362 371.308 194.417 371.383C194.454 371.435 194.461 371.504 194.435 371.563C194.409 371.622 194.353 371.661 194.289 371.668C194.228 371.674 194.16 371.677 194.087 371.677ZM191.865 369.775C191.71 369.775 191.577 369.828 191.461 369.935C191.29 370.092 191.31 370.203 191.345 370.283C191.565 370.768 192.985 371.269 193.909 371.317C193.45 370.748 192.595 369.847 191.94 369.779C191.915 369.776 191.889 369.775 191.865 369.775Z" fill="#407BFF"></path><path d="M141.785 390.239C141.087 390.239 140.437 390.131 140.022 389.817C139.739 389.603 139.584 389.311 139.564 388.95C139.549 388.681 139.679 388.535 139.791 388.459C140.611 387.905 143.684 389.301 144.293 389.587C144.363 389.62 144.404 389.693 144.396 389.77C144.388 389.847 144.331 389.909 144.256 389.926C143.599 390.071 142.655 390.239 141.785 390.239ZM140.346 388.682C140.191 388.682 140.07 388.706 139.992 388.758C139.955 388.783 139.917 388.823 139.923 388.93C139.938 389.184 140.041 389.381 140.239 389.53C140.768 389.931 142.016 389.983 143.632 389.685C142.523 389.202 141.071 388.682 140.346 388.682Z" fill="#407BFF"></path><path d="M144.211 389.93C144.188 389.93 144.165 389.926 144.143 389.917C143.124 389.5 141.069 387.852 141.184 387.001C141.209 386.814 141.337 386.58 141.801 386.525C143.597 386.313 144.355 389.572 144.387 389.711C144.402 389.777 144.379 389.845 144.328 389.889C144.295 389.916 144.253 389.93 144.211 389.93ZM141.966 386.875C141.926 386.875 141.885 386.877 141.844 386.882C141.655 386.905 141.553 386.961 141.541 387.049C141.474 387.543 142.894 388.845 143.933 389.415C143.696 388.628 143.047 386.875 141.966 386.875Z" fill="#407BFF"></path><path d="M99.9102 166.84L101.202 166.012C101.202 166.012 100.805 167.331 99.9102 166.84Z" fill="#263238"></path><path d="M288.628 93.7148H143.295C136.695 93.7148 131.555 99.1148 131.873 105.715L145.496 388.286C145.814 394.886 151.475 400.286 158.074 400.286H303.407C310.007 400.286 315.147 394.886 314.828 388.286L301.205 105.715C300.889 99.1148 295.228 93.7148 288.628 93.7148Z" fill="black"></path><path d="M293.963 93.7148H148.63C142.03 93.7148 136.89 99.1148 137.209 105.715L150.832 388.286C151.15 394.886 156.811 400.286 163.411 400.286H308.744C315.344 400.286 320.484 394.886 320.165 388.286L306.542 105.715C306.223 99.1148 300.563 93.7148 293.963 93.7148Z" fill="#263238"></path><path d="M163.024 392.286C160.856 392.286 158.936 390.454 158.831 388.286L145.208 105.715C145.103 103.547 146.847 101.715 149.015 101.715H294.348C296.516 101.715 298.436 103.547 298.541 105.715L312.164 388.286C312.268 390.454 310.525 392.286 308.357 392.286H163.024Z" fill="#407BFF"></path><path opacity="0.1" d="M162.928 390.286C161.862 390.286 160.883 389.351 160.832 388.286L147.209 105.715C147.158 104.65 148.047 103.715 149.113 103.715H294.446C295.511 103.715 296.491 104.65 296.542 105.715L310.165 388.286C310.216 389.351 309.327 390.286 308.261 390.286H162.928Z" fill="black"></path><g opacity="0.3"><path d="M206.793 374.006H177.96C176.342 374.006 174.962 372.69 174.884 371.072L172.777 327.358C172.739 326.563 173.014 325.814 173.552 325.25C174.089 324.686 174.822 324.376 175.616 324.376H204.449C206.067 324.376 207.447 325.692 207.525 327.31L209.632 371.024C209.67 371.819 209.395 372.568 208.857 373.132C208.32 373.696 207.587 374.006 206.793 374.006ZM175.615 325.376C175.097 325.376 174.621 325.576 174.275 325.94C173.928 326.304 173.75 326.791 173.775 327.31L175.883 371.024C175.936 372.117 176.867 373.006 177.96 373.006H206.793C207.311 373.006 207.787 372.806 208.133 372.442C208.48 372.078 208.658 371.591 208.633 371.072L206.526 327.358C206.473 326.265 205.542 325.376 204.449 325.376H175.615Z" fill="#FAFAFA"></path><path d="M204.078 335.567H176.973C176.697 335.567 176.473 335.343 176.473 335.067C176.473 334.791 176.697 334.567 176.973 334.567H204.078C204.354 334.567 204.578 334.791 204.578 335.067C204.578 335.343 204.354 335.567 204.078 335.567Z" fill="#FAFAFA"></path><path d="M204.347 341.217H177.242C176.966 341.217 176.742 340.993 176.742 340.717C176.742 340.441 176.966 340.217 177.242 340.217H204.347C204.623 340.217 204.847 340.441 204.847 340.717C204.847 340.993 204.623 341.217 204.347 341.217Z" fill="#FAFAFA"></path><path d="M204.621 346.866H177.516C177.24 346.866 177.016 346.642 177.016 346.366C177.016 346.09 177.24 345.866 177.516 345.866H204.621C204.897 345.866 205.121 346.09 205.121 346.366C205.121 346.643 204.897 346.866 204.621 346.866Z" fill="#FAFAFA"></path><path d="M204.894 352.516H177.789C177.513 352.516 177.289 352.292 177.289 352.016C177.289 351.74 177.513 351.516 177.789 351.516H204.894C205.17 351.516 205.394 351.74 205.394 352.016C205.394 352.292 205.17 352.516 204.894 352.516Z" fill="#FAFAFA"></path><path d="M205.167 358.165H178.062C177.787 358.165 177.562 357.941 177.562 357.665C177.562 357.389 177.787 357.165 178.062 357.165H205.167C205.443 357.165 205.667 357.389 205.667 357.665C205.667 357.941 205.443 358.165 205.167 358.165Z" fill="#FAFAFA"></path><path d="M199.883 363.815H178.336C178.06 363.815 177.836 363.591 177.836 363.315C177.836 363.039 178.06 362.815 178.336 362.815H199.883C200.159 362.815 200.383 363.039 200.383 363.315C200.383 363.591 200.159 363.815 199.883 363.815Z" fill="#FAFAFA"></path></g><g opacity="0.3"><path d="M224.936 213.679L205.166 216.839C204.044 214.304 203.058 212.546 202.207 211.564C201.356 210.582 199.978 209.592 198.074 208.592L198.821 224.085C209.813 226.98 217.209 230.035 221.006 233.25C226.034 237.574 228.708 243.058 229.029 249.703C229.217 253.597 228.523 257.17 226.948 260.422C225.372 263.674 223.29 266.389 220.7 268.568C218.109 270.747 215.32 272.328 212.333 273.311C209.345 274.293 205.661 274.873 201.278 275.052L201.409 277.775C201.513 279.934 199.847 281.684 197.688 281.684C195.529 281.684 193.694 279.934 193.59 277.775L193.459 275.052C188.188 274.588 183.89 273.74 180.564 272.508C177.238 271.276 174.335 269.572 171.856 267.394C169.376 265.217 167.434 262.869 166.027 260.352C164.62 257.835 163.51 254.792 162.695 251.221L184.209 248.704C185.022 252.238 186.01 254.791 187.176 256.362C188.34 257.933 190.201 259.326 192.76 260.539L191.848 241.615C184.539 239.614 179.341 237.881 176.254 236.415C173.166 234.951 170.438 232.601 168.069 229.368C165.699 226.135 164.403 222.196 164.179 217.551C163.872 211.192 165.839 205.877 170.078 201.608C174.317 197.339 180.817 194.972 189.577 194.507L189.51 193.115C189.406 190.956 191.072 189.205 193.231 189.205C195.39 189.205 197.225 190.955 197.329 193.115L197.396 194.507C205.417 195.007 211.623 196.899 216.012 200.184C220.4 203.469 223.375 207.967 224.936 213.679ZM190.242 208.324C187.993 209.078 186.449 210.011 185.611 211.123C184.772 212.235 184.389 213.545 184.462 215.051C184.538 216.63 185.057 218.002 186.019 219.168C186.981 220.334 188.61 221.31 190.907 222.095L190.242 208.324ZM200.604 261.074C203.605 260.394 205.774 259.274 207.11 257.716C208.445 256.158 209.066 254.412 208.973 252.478C208.892 250.794 208.221 249.246 206.959 247.831C205.698 246.417 203.304 245.102 199.776 243.888L200.604 261.074Z" fill="#FAFAFA"></path></g><path opacity="0.2" d="M277.199 130.603H178.234L187.881 330.714C188.694 347.582 203.027 361.256 219.895 361.256H318.86L309.213 161.144C308.401 144.277 294.067 130.603 277.199 130.603Z" fill="black"></path><path d="M301.449 130.603H208.776H178.234C195.101 130.603 209.435 144.277 210.248 161.145L218.101 324.034C218.914 340.902 233.247 354.576 250.115 354.576H312.247C329.115 354.576 342.13 340.902 341.316 324.034L333.463 161.145C332.65 144.278 318.317 130.603 301.449 130.603Z" fill="#FAFAFA"></path><path d="M279.187 324.035C280 340.903 266.985 354.577 250.117 354.577H280.659H373.332C390.2 354.577 403.215 340.903 402.402 324.035H279.187Z" fill="#E6E6E6"></path><path d="M318.803 231.715H231.718C230.47 231.715 229.399 230.694 229.339 229.445C229.279 228.197 230.251 227.175 231.499 227.175H318.584C319.833 227.175 320.903 228.196 320.963 229.445C321.023 230.693 320.051 231.715 318.803 231.715Z" fill="#407BFF"></path><path d="M319.483 245.888H232.397C231.149 245.888 230.078 244.866 230.018 243.618C229.958 242.369 230.93 241.348 232.179 241.348H319.264C320.513 241.348 321.583 242.37 321.643 243.618C321.704 244.866 320.731 245.888 319.483 245.888Z" fill="#407BFF"></path><path d="M320.17 260.061H233.085C231.837 260.061 230.766 259.04 230.706 257.791C230.646 256.542 231.618 255.521 232.866 255.521H319.951C321.199 255.521 322.27 256.542 322.33 257.791C322.391 259.04 321.419 260.061 320.17 260.061Z" fill="#407BFF"></path><path d="M320.853 274.234H233.768C232.519 274.234 231.449 273.213 231.389 271.964C231.329 270.715 232.301 269.694 233.55 269.694H320.636C321.884 269.694 322.955 270.715 323.015 271.964C323.074 273.213 322.102 274.234 320.853 274.234Z" fill="#407BFF"></path><path d="M286.916 288.407H234.452C233.204 288.407 232.133 287.386 232.073 286.137C232.013 284.889 232.985 283.867 234.234 283.867H286.698C287.946 283.867 289.017 284.888 289.077 286.137C289.137 287.386 288.165 288.407 286.916 288.407Z" fill="#407BFF"></path><path d="M292.951 202.319C303.253 191.764 302.626 174.444 291.55 163.633C280.475 152.821 263.144 152.613 252.842 163.168C242.539 173.723 243.166 191.043 254.242 201.854C265.318 212.665 282.649 212.874 292.951 202.319Z" fill="#407BFF"></path><path d="M295.481 182.752C295.669 186.652 294.856 190.312 293.271 193.507C289.802 200.544 282.574 205.331 273.991 205.331C265.407 205.331 257.719 200.545 253.571 193.507C251.677 190.312 250.512 186.652 250.324 182.752C249.723 170.28 259.342 160.173 271.814 160.173C284.286 160.173 294.88 170.28 295.481 182.752Z" fill="white"></path><path opacity="0.4" d="M293.27 193.507C289.801 200.544 282.573 205.331 273.99 205.331C265.406 205.331 257.718 200.545 253.57 193.507C259.071 189.71 265.786 187.493 273.13 187.493C280.474 187.493 287.402 189.709 293.27 193.507Z" fill="#407BFF"></path><path opacity="0.4" d="M279.899 182.241C283.687 178.362 283.458 171.994 279.386 168.019C275.315 164.044 268.944 163.966 265.156 167.846C261.368 171.726 261.597 178.093 265.669 182.068C269.74 186.043 276.111 186.121 279.899 182.241Z" fill="#407BFF"></path><path d="M356.758 392.785H349.412L348.68 375.772H356.026L356.758 392.785Z" fill="#B55B52"></path><path opacity="0.2" d="M348.684 375.777L349.059 384.546H356.409L356.033 375.777H348.684Z" fill="black"></path><path d="M419.289 372.85L412.304 375.126L403.523 360.094L410.508 357.819L419.289 372.85Z" fill="#B55B52"></path><path opacity="0.2" d="M410.511 357.822L403.523 360.099L408.053 367.846L415.041 365.569L410.511 357.822Z" fill="black"></path><path d="M381.593 146.965C382.506 148.08 383.281 149.073 384.065 150.155C384.846 151.216 385.608 152.285 386.355 153.367C387.84 155.535 389.256 157.756 390.584 160.044C393.226 164.634 395.626 169.434 397.323 174.76L397.486 175.256L397.57 175.517L397.68 175.926L397.879 176.747L397.991 177.496C398.128 178.498 398.131 179.37 398.096 180.208C398.009 181.871 397.746 183.334 397.435 184.742C396.816 187.549 395.887 190.075 394.924 192.554C392.925 197.486 390.55 202.042 387.773 206.506L382.803 204.115C384.303 199.433 385.762 194.624 386.901 189.957C387.482 187.631 387.939 185.288 388.195 183.119C388.316 182.041 388.37 180.992 388.31 180.129C388.281 179.707 388.239 179.31 388.163 179.068L388.118 178.884C388.096 178.854 388.079 178.823 388.066 178.792L388.05 178.745L387.972 178.561L387.804 178.169L387.139 176.603L386.387 175.04C385.891 173.998 385.339 172.955 384.785 171.92C383.651 169.853 382.414 167.803 381.14 165.77C379.845 163.744 378.499 161.735 377.119 159.745C375.768 157.77 374.264 155.753 372.914 153.941L381.593 146.965Z" fill="#B55B52"></path><path d="M383.227 202.923L380.352 209.277H388.567C388.567 209.277 389.875 204.456 386.896 202.509L383.227 202.923Z" fill="#B55B52"></path><path d="M381.313 216.418L388.936 214.943L388.567 209.277H380.352L381.313 216.418Z" fill="#B55B52"></path><path d="M345.222 114.741C345.222 115.333 344.908 115.814 344.521 115.814C344.134 115.814 343.82 115.334 343.82 114.741C343.82 114.148 344.134 113.668 344.521 113.668C344.908 113.668 345.222 114.149 345.222 114.741Z" fill="#263238"></path><path d="M344.964 115.814C344.964 115.814 343.617 119.232 342.133 120.882C343.181 121.861 344.964 121.413 344.964 121.413V115.814Z" fill="#A02724"></path><path d="M347.32 111.458C347.249 111.458 347.178 111.437 347.117 111.392C345.858 110.485 344.657 110.933 344.645 110.938C344.466 111.007 344.264 110.918 344.195 110.739C344.126 110.56 344.215 110.358 344.394 110.289C344.457 110.265 345.962 109.702 347.524 110.828C347.68 110.94 347.715 111.158 347.603 111.314C347.535 111.408 347.428 111.458 347.32 111.458Z" fill="#263238"></path><path d="M364.345 121.573C363.291 126.947 362.24 136.795 366 140.381C366 140.381 364.531 145.833 354.545 145.833C343.564 145.833 349.297 140.382 349.297 140.382C355.29 138.951 355.135 134.504 354.091 130.329L364.345 121.573Z" fill="#B55B52"></path><path d="M367.442 142.252C368.229 140.526 369.096 138.551 367.303 137.933C365.331 137.252 354.535 136.558 350.813 137.836C347.091 139.114 348.146 142.614 348.146 142.614L367.442 142.252Z" fill="#263238"></path><path d="M410.8 376.875C410.256 377.396 409.649 377.817 409.189 377.745C408.996 377.715 408.741 377.586 408.623 377.144C408.561 376.912 408.599 376.686 408.738 376.473C409.339 375.547 411.765 375.151 411.868 375.135C411.936 375.124 412.004 375.154 412.041 375.212C412.079 375.269 412.079 375.344 412.042 375.401C411.833 375.726 411.348 376.351 410.8 376.875ZM409.168 376.498C409.113 376.551 409.066 376.606 409.029 376.663C408.946 376.791 408.923 376.919 408.959 377.055C409.043 377.37 409.193 377.394 409.243 377.402C409.755 377.482 410.844 376.451 411.51 375.558C410.783 375.713 409.651 376.037 409.168 376.498Z" fill="#407BFF"></path><path d="M412.013 375.433C411.993 375.453 411.967 375.467 411.938 375.475C411.103 375.702 408.929 375.555 408.475 374.856C408.393 374.729 408.294 374.468 408.56 374.143C408.732 373.933 408.964 373.815 409.25 373.793C410.349 373.707 411.941 375.118 412.008 375.178C412.055 375.221 412.076 375.286 412.061 375.348C412.054 375.38 412.037 375.41 412.013 375.433ZM408.883 374.305C408.864 374.323 408.846 374.342 408.829 374.363C408.685 374.539 408.742 374.628 408.767 374.666C409.035 375.079 410.552 375.311 411.495 375.203C411.005 374.815 409.981 374.084 409.276 374.139C409.116 374.152 408.986 374.207 408.883 374.305Z" fill="#407BFF"></path><path d="M346.461 393.162C345.519 393.162 344.608 393.032 344.303 392.609C344.196 392.461 344.112 392.208 344.317 391.848C344.432 391.646 344.618 391.509 344.869 391.441C346.091 391.108 348.659 392.572 348.768 392.634C348.831 392.67 348.865 392.742 348.853 392.813C348.841 392.885 348.787 392.941 348.715 392.956C348.246 393.049 347.34 393.162 346.461 393.162ZM345.297 391.737C345.175 391.737 345.061 391.749 344.96 391.777C344.8 391.821 344.688 391.9 344.62 392.021C344.497 392.237 344.541 392.344 344.586 392.406C344.928 392.881 346.785 392.891 348.151 392.699C347.469 392.348 346.155 391.737 345.297 391.737Z" fill="#407BFF"></path><path d="M348.681 392.959C348.657 392.959 348.633 392.954 348.61 392.944C347.724 392.546 345.967 390.958 346.101 390.127C346.132 389.932 346.271 389.689 346.749 389.641C347.104 389.605 347.429 389.705 347.714 389.939C348.649 390.706 348.847 392.685 348.854 392.769C348.86 392.831 348.832 392.891 348.782 392.927C348.752 392.948 348.717 392.959 348.681 392.959ZM346.889 389.981C346.855 389.981 346.82 389.983 346.785 389.986C346.472 390.018 346.452 390.141 346.445 390.182C346.364 390.68 347.558 391.929 348.463 392.473C348.368 391.895 348.106 390.711 347.493 390.208C347.308 390.056 347.109 389.981 346.889 389.981Z" fill="#407BFF"></path><path d="M411.698 374.313L417.662 368.608C417.879 368.4 418.211 368.371 418.461 368.538L424.023 372.254C424.6 372.639 424.658 373.471 424.149 373.942C422.032 375.898 420.904 376.743 418.281 379.252C416.667 380.795 411.84 386.052 409.612 388.184C407.433 390.269 404.985 388.39 405.707 387.318C408.942 382.511 410.965 377.894 411.149 375.464C411.182 375.026 411.381 374.617 411.698 374.313Z" fill="#263238"></path><path d="M349.462 391.934H357.485C357.785 391.934 358.045 392.143 358.11 392.436L359.561 398.966C359.711 399.643 359.197 400.285 358.504 400.273C355.61 400.224 351.428 400.054 347.791 400.054C343.538 400.054 339.865 400.286 334.877 400.286C331.861 400.286 331.024 397.237 332.286 396.961C338.033 395.704 342.726 395.569 347.692 392.507C348.232 392.174 348.828 391.934 349.462 391.934Z" fill="#263238"></path><path d="M338.976 157.072C336.061 161.367 333.048 165.386 329.806 169.362C326.57 173.317 323.161 177.168 319.403 180.837L317.957 182.199L317.596 182.539L317.338 182.774L316.97 183.091C316.475 183.486 315.964 183.83 315.464 184.1C313.439 185.195 311.63 185.472 310.012 185.625C306.775 185.878 304.026 185.442 301.354 184.912C296.042 183.765 291.249 181.979 286.504 179.693L288.335 174.49C293.05 175.369 297.951 176.155 302.524 176.426C304.79 176.554 307.064 176.518 308.792 176.164C309.639 175.995 310.311 175.679 310.454 175.518C310.497 175.48 310.492 175.455 310.479 175.455C310.471 175.454 310.463 175.456 310.458 175.458C310.46 175.454 310.44 175.474 310.462 175.45L310.536 175.368L310.832 175.041L312.016 173.738C315.141 170.176 318.168 166.38 321.111 162.496C324.057 158.638 326.996 154.637 329.807 150.754L338.976 157.072Z" fill="#B55B52"></path><path d="M379.155 142.042C386.04 143.621 393.936 162.393 393.936 162.393L380.107 171.871C380.107 171.871 374.869 164.542 370.974 156.342C366.893 147.75 372.115 140.428 379.155 142.042Z" fill="#407BFF"></path><path opacity="0.3" d="M374.219 154.012L380.759 171.421L380.109 171.871C380.109 171.871 377.279 167.901 374.219 162.541V154.012Z" fill="black"></path><path d="M337.998 142.42C337.998 142.42 330.179 151.252 337.563 205.917C349.402 205.917 371.095 205.917 376.856 205.917C377.127 199.885 373.337 170.461 379.154 142.041C379.154 142.041 372.419 140.689 366 140.38C360.979 140.138 353.711 139.978 349.297 140.381C343.479 140.912 337.998 142.42 337.998 142.42Z" fill="#407BFF"></path><path opacity="0.3" d="M342.362 158.224C342.232 158.384 341.372 167.254 334.602 175.044C334.442 171.524 334.382 168.364 334.392 165.534L342.362 158.224Z" fill="black"></path><path d="M345.751 148.376C346.72 155.332 333.014 173.102 333.014 173.102L319.242 163.623C319.242 163.623 323.06 153.83 329.493 147.413C336.837 140.086 344.697 140.805 345.751 148.376Z" fill="#407BFF"></path><path d="M289.316 175.018L283.93 169.444L278.18 176.86C278.18 176.86 282.556 181.085 287.771 179.891L289.316 175.018Z" fill="#B55B52"></path><path d="M276.523 166.376L274.062 174.159L278.181 176.859L283.931 169.443L276.523 166.376Z" fill="#B55B52"></path><path d="M364.986 113.485C364.539 120.762 364.647 125.044 360.972 128.779C355.443 134.397 346.461 131.065 344.724 123.801C343.161 117.263 344.155 106.46 351.278 103.564C358.296 100.711 365.433 106.208 364.986 113.485Z" fill="#B55B52"></path><path d="M371.324 98.2978C373.569 100.363 372.615 102.659 371.449 103.09C375.074 103.84 375.61 106.729 373.7 112.826C371.871 118.665 367.462 126.494 361.955 126.974C353.677 127.696 351.254 119.072 351.199 110.512C346.512 110.794 348.533 106.643 342.788 107.605C337.823 108.436 339.662 104.533 335.417 102.834C330.49 100.862 331.48 93.2828 336.075 95.4528C336.075 95.4528 333.941 96.8588 336.426 98.1718C338.911 99.4848 338.669 96.4458 343.574 96.0778C348.478 95.7088 349.052 99.9098 354.794 97.3808C362.023 94.1968 366.729 94.0708 371.324 98.2978Z" fill="#263238"></path><path d="M368.57 103.022C368.57 103.022 369.509 101.291 371.756 101.769C374.003 102.248 374.192 103.237 375.602 103.109C377.012 102.981 376.5 104.482 376.5 104.482C376.5 104.482 376.121 103.35 374.419 103.98C372.718 104.61 371.609 103.065 370.878 103.759C370.146 104.451 368.57 103.022 368.57 103.022Z" fill="#263238"></path><path d="M355.124 115.464C354.807 117.347 353.736 119.036 352.552 120.089C350.771 121.672 349.227 120.402 349.174 118.235C349.126 116.284 349.996 113.11 352.047 112.352C354.067 111.604 355.486 113.31 355.124 115.464Z" fill="#B55B52"></path><path d="M351.5 205.918C351.5 205.918 359.837 262.06 364.414 283.093C369.426 306.126 404.269 367.292 404.269 367.292L417.062 363.124C417.062 363.124 389.313 307.985 386.453 285.181C383.349 260.431 376.854 205.918 376.854 205.918H351.5Z" fill="#263238"></path><path d="M400.692 363.244C400.637 363.262 403.614 367.726 403.614 367.726L418.008 363.036L416.315 358.738L400.692 363.244Z" fill="#407BFF"></path><path opacity="0.3" d="M356.772 225.921C366.412 227.811 365.392 263.761 364.232 282.251C361.452 269.181 357.382 244.031 354.602 226.181C355.242 225.861 355.962 225.761 356.772 225.921Z" fill="black"></path><path d="M337.563 205.918C337.563 205.918 336.551 260.845 337.35 283.248C338.181 306.55 346.32 382.849 346.32 382.849H358.765C358.765 382.849 359.222 307.912 359.775 285.027C360.379 260.078 363.391 205.919 363.391 205.919H337.563V205.918Z" fill="#263238"></path><path d="M343.925 377.891C343.868 377.891 344.627 383.058 344.627 383.058H359.765L360.174 378.447L343.925 377.891Z" fill="#407BFF"></path></svg>