<svg xmlns="http://www.w3.org/2000/svg" width="500" height="450" viewBox="0 0 500 450" fill="none"><rect width="500" height="450" rx="24" fill="white"></rect><path d="M214.509 205.976C218.765 203.465 225.75 203.435 230.03 205.911L271.994 230.193C276.273 232.669 276.283 236.737 272.017 239.235L192.423 285.828C188.155 288.324 181.179 288.317 176.919 285.811L135.72 261.571C131.459 259.065 131.458 254.958 135.714 252.447L214.509 205.976Z" fill="#0683FF"></path><path d="M214.509 205.158C218.765 202.647 225.75 202.618 230.03 205.094L271.994 229.376C276.273 231.852 276.283 235.92 272.017 238.417L192.423 285.01C188.155 287.507 181.179 287.499 176.919 284.993L135.72 260.753C131.459 258.247 131.458 254.14 135.714 251.63L214.509 205.158Z" fill="#06E6FF"></path><path d="M175.27 274.24C179.477 277.345 187.002 277.762 192.079 275.17C197.156 272.577 197.86 267.957 193.655 264.852C189.449 261.744 181.922 261.328 176.845 263.921C171.768 266.513 171.063 271.132 175.27 274.24Z" fill="#FF277D"></path><path d="M189.192 266.914C193.399 270.019 200.924 270.436 206.002 267.843C211.077 265.249 211.783 260.63 207.577 257.524C203.371 254.417 195.844 254 190.769 256.594C185.689 259.186 184.985 263.804 189.192 266.914Z" fill="#FFB700"></path><path d="M228.855 204.514C229.262 204.691 229.659 204.88 230.03 205.094L238.501 209.995L144 265.626L135.72 260.754C135.308 260.513 134.95 260.252 134.617 259.983L228.855 204.514Z" fill="#2D2EBC"></path><path d="M150.42 269.404L147.961 267.956L242.5 212.309L244.974 213.741L150.42 269.404Z" fill="#2D2EBC"></path><path d="M242.604 243.606C242.956 243.606 243.284 243.532 243.551 243.378L263.091 232.139C263.89 231.68 263.834 230.672 262.965 229.891C262.097 229.108 260.746 228.848 259.947 229.306L240.408 240.546C239.608 241.005 239.666 242.012 240.535 242.793C241.111 243.316 241.903 243.606 242.604 243.606Z" fill="#0668FF"></path><path d="M218.799 257.249C219.152 257.249 219.48 257.175 219.746 257.022L239.286 245.783C240.084 245.323 240.028 244.318 239.16 243.535C238.293 242.754 236.94 242.492 236.143 242.951L216.604 254.189C215.804 254.649 215.861 255.655 216.729 256.436C217.307 256.959 218.099 257.249 218.799 257.249Z" fill="#0668FF"></path><path d="M367.747 318.154L157.672 440L57 380.179L267.059 259.665L367.747 318.154Z" fill="url(#paint0_linear_2099_8359)"></path><path d="M247.695 406.854L235.527 343.499L139.086 330.874L139.569 327.182L238.677 340.156L251.35 406.152L247.695 406.854Z" fill="#111581"></path><path d="M266.599 389.917L253.986 329.897L159.086 314.991L160.096 308.554L259.438 324.158L272.975 388.577L266.599 389.917Z" fill="#111581"></path><path d="M285.493 372.948L273.079 313.87L179.129 299.112L180.574 289.918L280.866 305.671L294.601 371.034L285.493 372.948Z" fill="#111581"></path><path d="M261.938 12.3099L267.412 9.55712L267.416 9.56627C269.171 8.66814 271.387 8.80543 273.803 10.215L362.655 62.0756C368.33 65.3879 372.932 74.4127 372.932 82.2316V310.101C372.932 314.703 371.33 317.846 368.861 318.991L368.876 319.001L362.884 321.951L360.952 318.513L361.522 312.105C361.522 312.105 362.736 309.552 363.398 308.298L283.266 261.528C277.591 258.215 272.99 249.191 272.99 241.372V18.0202L269.811 15.9276L261.938 12.3099Z" fill="#2D2EBC"></path><path d="M257.32 249.301C257.32 257.12 261.922 266.144 267.597 269.456L356.449 321.317C362.125 324.63 366.726 320.976 366.726 313.158V85.2872C366.726 77.4683 362.125 68.4434 356.449 65.1312L267.597 13.2717C261.922 9.9595 257.32 13.6127 257.32 21.4304V249.301Z" fill="#6275F1"></path><path d="M263.594 15.5886C264.217 15.5886 264.984 15.8448 265.812 16.3277L354.665 68.1883C359.284 70.8839 363.187 78.7142 363.187 85.2872V313.157C363.187 315.97 362.332 318.999 360.455 318.999C359.83 318.999 359.063 318.744 358.234 318.258L269.382 266.399C264.763 263.703 260.86 255.871 260.86 249.3V21.4304C260.86 18.617 261.716 15.5886 263.594 15.5886ZM263.594 12.0498C259.907 12.0498 257.32 15.5691 257.32 21.4304V249.301C257.32 257.12 261.922 266.144 267.597 269.456L356.449 321.317C357.869 322.147 359.224 322.54 360.455 322.54C364.141 322.54 366.726 319.019 366.726 313.158V85.2872C366.726 77.4683 362.125 68.4434 356.449 65.1312L267.597 13.2717C266.178 12.4422 264.823 12.0498 263.594 12.0498Z" fill="#475DE6"></path><path d="M360.454 319.389C359.829 319.389 359.063 319.133 358.233 318.648L269.381 266.789C264.762 264.093 260.859 256.262 260.859 249.69V249.3C260.859 255.87 264.762 263.703 269.381 266.399L358.233 318.258C359.063 318.742 359.83 318.998 360.454 318.998C362.331 318.998 363.186 315.97 363.186 313.157V313.547C363.186 316.36 362.331 319.389 360.454 319.389Z" fill="#8196E6"></path><path d="M263.594 12.0498C264.823 12.0498 266.178 12.4422 267.598 13.2717L356.45 65.1312C362.126 68.4434 366.727 77.4683 366.727 85.2872V85.6773C366.727 77.8584 362.126 68.8336 356.45 65.5214L267.598 13.6619C266.178 12.8324 264.823 12.4399 263.594 12.4399C259.907 12.4399 257.32 15.9593 257.32 21.8206V21.4304C257.32 15.5691 259.907 12.0487 263.594 12.0498Z" fill="#8196E6"></path><path d="M264.91 240.963L353.043 292.404V86.3011L264.91 34.8604V240.963Z" fill="#06E6FF"></path><path d="M264.91 56.0964V95.4781C293.736 153.309 326.672 219.607 353.043 272.759V233.227C338.757 204.45 322.471 171.665 306.225 139.011C290.602 107.607 276.794 79.8964 264.91 56.0964ZM264.91 130.278V204.777C273.266 221.578 281.764 238.676 290.244 255.75L342.427 286.207C326.265 253.641 306.542 213.926 286.878 174.403C279.101 158.77 271.776 144.056 264.91 130.278ZM308.156 91.3158C300.402 75.7295 293.097 61.0573 286.249 47.3153L273.946 40.1348C298.81 90.0069 327.254 147.237 353.043 199.201V181.645C339.23 153.82 323.674 122.509 308.156 91.3158Z" fill="url(#paint1_linear_2099_8359)"></path><path d="M300.469 46.6675C300.469 50.331 302.561 54.5574 305.141 56.11C307.722 57.6625 309.814 55.9509 309.814 52.2875C309.814 48.6263 307.722 44.3988 305.141 42.8451C302.561 41.2948 300.469 43.0064 300.469 46.6675Z" fill="#8B9DF1"></path><path d="M300.469 46.538C300.469 50.094 302.561 54.1956 305.141 55.7024C307.722 57.2092 309.814 55.548 309.814 51.992C309.814 48.4384 307.722 44.3356 305.141 42.8288C302.561 41.3231 300.469 42.9844 300.469 46.538Z" fill="#4347DE"></path><path d="M301.523 47.155C301.523 49.9066 303.142 53.0816 305.139 54.2474C307.136 55.4133 308.754 54.1273 308.754 51.3768C308.754 48.6264 307.136 45.4514 305.139 44.2856C303.142 43.1197 301.523 44.4057 301.523 47.155Z" fill="#2C137C"></path><path d="M303.344 48.2204C303.344 49.5842 304.147 51.1574 305.135 51.7352C306.125 52.3129 306.927 51.6757 306.927 50.3119C306.927 48.9492 306.125 47.3749 305.135 46.7971C304.147 46.2193 303.344 46.8566 303.344 48.2204Z" fill="#070028"></path><g opacity="0.2"><path d="M302.277 46.1446C302.277 47.5084 303.08 49.0815 304.069 49.6593C305.059 50.2371 305.861 49.5998 305.861 48.236C305.861 46.8734 305.059 45.2991 304.069 44.7213C303.079 44.1447 302.277 44.7819 302.277 46.1446Z" fill="white"></path></g><g opacity="0.2"><path d="M305.422 51.0015C305.422 51.8516 305.922 52.831 306.539 53.1914C307.155 53.5518 307.655 53.1547 307.655 52.3047C307.655 51.4557 307.155 50.4752 306.539 50.1148C305.922 49.7556 305.422 50.1526 305.422 51.0015Z" fill="white"></path></g><g opacity="0.2"><path d="M303.266 49.1146C303.266 49.5894 303.545 50.1375 303.889 50.3377C304.234 50.5391 304.513 50.3171 304.513 49.8423C304.513 49.3675 304.234 48.8206 303.889 48.6192C303.545 48.4179 303.266 48.6398 303.266 49.1146Z" fill="white"></path></g><path d="M293.996 42.811C293.996 44.2835 294.835 45.9825 295.868 46.6049C296.902 47.2285 297.741 46.542 297.741 45.0695C297.741 43.597 296.902 41.898 295.868 41.2745C294.835 40.6521 293.996 41.3386 293.996 42.811Z" fill="#8B9DF1"></path><path d="M293.996 42.7541C293.996 44.1785 294.835 45.8226 295.868 46.4256C296.902 47.0297 297.741 46.3638 297.741 44.9394C297.741 43.5149 296.902 41.8708 295.868 41.2667C294.835 40.6649 293.996 41.3296 293.996 42.7541Z" fill="#4347DE"></path><path d="M294.776 266.358C295.707 265.821 296.837 265.888 297.964 266.547L314.469 276.402C316.661 277.681 318.378 281.003 318.378 283.963C318.378 285.72 317.754 287.086 316.666 287.711C316.249 287.949 315.794 288.069 315.317 288.069C314.725 288.069 314.101 287.886 313.476 287.522L296.967 277.664C294.778 276.384 293.062 273.066 293.062 270.107C293.062 268.349 293.687 266.983 294.776 266.358Z" fill="#9E9FF1"></path><path d="M294.776 266.033C295.707 265.496 296.837 265.563 297.964 266.222L314.469 276.077C316.661 277.356 318.378 280.678 318.378 283.637C318.378 285.395 317.754 286.761 316.666 287.386C316.249 287.624 315.794 287.744 315.317 287.744C314.725 287.744 314.101 287.561 313.476 287.197L296.967 277.339C294.778 276.06 293.062 272.741 293.062 269.782C293.062 268.025 293.687 266.658 294.776 266.033Z" fill="#475DE6"></path><path d="M297.462 276.499L313.975 286.359C315.868 287.463 317.401 286.247 317.401 283.639C317.401 281.034 315.868 278.026 313.975 276.922L297.462 267.062C295.57 265.958 294.039 267.179 294.039 269.784C294.039 272.389 295.571 275.396 297.462 276.499Z" fill="#83A7FD"></path><path d="M313.975 277.244L297.462 267.384C295.611 266.303 294.113 267.458 294.051 269.95C294.049 269.894 294.039 269.837 294.039 269.781C294.039 267.176 295.571 265.955 297.462 267.059L313.975 276.919C315.868 278.023 317.401 281.031 317.401 283.636C317.401 283.691 317.391 283.737 317.389 283.791C317.325 281.228 315.827 278.325 313.975 277.244Z" fill="#AEECFD"></path><path d="M334.246 219.376C339.531 219.376 343.542 216.005 344.365 209.972C345.592 200.968 339.239 189.44 330.169 184.217L289.682 161.242C280.624 156.035 272.271 159.09 271.047 168.097C269.817 177.105 276.174 188.631 285.237 193.852L325.729 216.831C328.725 218.554 331.64 219.376 334.246 219.376Z" fill="#BE0649"></path><path d="M332.265 220.776C337.551 220.776 341.561 217.405 342.385 211.373C343.611 202.368 337.258 190.84 328.189 185.617L287.702 162.642C278.644 157.435 270.291 160.49 269.066 169.498C267.836 178.505 274.193 190.031 283.257 195.252L323.748 218.232C326.745 219.955 329.66 220.776 332.265 220.776Z" fill="#FF277D"></path><path d="M269.066 170.006C270.291 160.998 278.644 157.943 287.701 163.15L328.188 186.125C336.554 190.942 342.593 201.12 342.519 209.738C342.841 201.016 336.718 190.528 328.188 185.616L287.701 162.641C278.643 157.434 270.29 160.489 269.066 169.497C268.971 170.196 268.935 170.914 268.93 171.641C268.949 171.088 268.993 170.543 269.066 170.006Z" fill="#FF6FAB"></path><path d="M330.125 109.341L338.931 114.488L353.121 86.322L344.314 81.1758L330.125 109.341Z" fill="#FF277D"></path><path d="M321.32 104.195L330.127 109.34L344.316 81.1754L335.51 76.0303L321.32 104.195Z" fill="white"></path><path d="M312.516 99.0487L321.322 104.195L335.511 76.0302L326.705 70.8828L312.516 99.0487Z" fill="#FF277D"></path><path d="M303.707 93.9023L312.513 99.0485L326.703 70.8826L317.896 65.7363L303.707 93.9023Z" fill="white"></path><path d="M294.898 88.7566L303.705 93.9028L317.894 65.7369L309.088 60.5918L294.898 88.7566Z" fill="#FF277D"></path><path d="M286.094 83.6091L294.901 88.7565L309.091 60.5917L300.284 55.4443L286.094 83.6091Z" fill="white"></path><path d="M277.289 78.4636L286.094 83.6087L300.285 55.4439L291.478 50.2988L277.289 78.4636Z" fill="#FF277D"></path><path d="M268.48 73.317L277.288 78.4644L291.477 50.2996L282.671 45.1533L268.48 73.317Z" fill="white"></path><path d="M259.672 68.1716L268.478 73.3167L282.669 45.1531L273.862 40.0068L259.672 68.1716Z" fill="#FF277D"></path><path d="M250.867 63.0251L259.675 68.1714L273.865 40.0066L265.059 34.8604L250.867 63.0251Z" fill="white"></path><path d="M338.926 114.487V121.898C338.926 124.866 336.963 126.124 334.541 124.707C332.12 123.29 330.156 119.735 330.156 116.768V109.355L338.926 114.487Z" fill="white"></path><path d="M330.155 109.356V116.769C330.155 119.737 328.192 120.994 325.771 119.576C323.349 118.16 321.387 114.605 321.387 111.637V104.225L330.155 109.356Z" fill="#FF277D"></path><path d="M321.301 104.17V111.583C321.301 114.551 319.338 115.808 316.917 114.391C314.495 112.973 312.531 109.42 312.531 106.452V99.0391L321.301 104.17Z" fill="white"></path><path d="M312.53 99.0396V106.452C312.53 109.42 310.568 110.676 308.146 109.26C305.725 107.844 303.762 104.29 303.762 101.321V93.9082L312.53 99.0396Z" fill="#FF277D"></path><path d="M303.67 93.854V101.266C303.67 104.233 301.708 105.491 299.285 104.074C296.865 102.658 294.902 99.1032 294.902 96.1354V88.7227L303.67 93.854Z" fill="white"></path><path d="M294.902 88.723V96.1358C294.902 99.1036 292.938 100.361 290.517 98.9434C288.096 97.5259 286.133 93.9722 286.133 91.0044V83.5928L294.902 88.723Z" fill="#FF277D"></path><path d="M286.038 83.5386V90.9502C286.038 93.918 284.074 95.1754 281.654 93.759C279.232 92.3415 277.27 88.7878 277.27 85.82V78.4072L286.038 83.5386Z" fill="white"></path><path d="M277.269 78.4076V85.8203C277.269 88.7882 275.306 90.0456 272.884 88.628C270.463 87.2104 268.5 83.6568 268.5 80.6889V73.2773L277.269 78.4076Z" fill="#FF277D"></path><path d="M268.409 73.2222V80.6349C268.409 83.6028 266.447 84.859 264.025 83.4426C261.603 82.0262 259.641 78.4714 259.641 75.5036V68.0908L268.409 73.2222Z" fill="white"></path><path d="M259.64 68.0912V75.5039C259.64 78.4718 257.677 79.7291 255.255 78.3127C252.834 76.8952 250.871 73.3415 250.871 70.3737V62.9609L259.64 68.0912Z" fill="#FF277D"></path><path d="M275.854 178.928C275.532 178.287 275.371 177.789 275.371 177.432C275.371 177.061 275.637 176.728 276.17 176.433C276.479 176.268 276.808 176.285 277.154 176.483C277.501 176.681 277.984 177.314 278.604 178.382C278.777 178.723 279.025 179.1 279.347 179.513C279.669 179.911 279.966 180.188 280.239 180.344C281.391 181.003 281.967 180.79 281.967 179.705C281.967 179.377 281.805 179.014 281.483 178.616C281.174 178.21 280.784 177.823 280.313 177.454C279.842 177.085 279.334 176.638 278.789 176.112C278.244 175.572 277.737 175.018 277.266 174.449C276.795 173.88 276.399 173.183 276.077 172.357C275.767 171.523 275.612 170.65 275.612 169.737C275.612 168.481 276.015 167.62 276.82 167.153C277.637 166.678 278.746 166.841 280.146 167.642C280.889 168.067 281.564 168.567 282.171 169.142C282.79 169.71 283.218 170.176 283.453 170.539L283.917 171.211C284.301 171.844 284.493 172.304 284.493 172.589C284.493 172.874 284.345 173.182 284.047 173.511C283.626 173.984 283.193 174.093 282.747 173.838C282.487 173.689 282.165 173.362 281.781 172.857C281.744 172.807 281.669 172.694 281.558 172.516C281.459 172.345 281.366 172.199 281.279 172.078C281.019 171.744 280.685 171.46 280.276 171.226C279.879 171 279.545 170.922 279.272 170.995C279.012 171.06 278.882 171.293 278.882 171.692C278.882 172.077 279.037 172.48 279.347 172.899C279.669 173.326 280.065 173.717 280.536 174.072C281.007 174.426 281.521 174.856 282.078 175.36C282.635 175.85 283.149 176.358 283.62 176.884C284.091 177.41 284.481 178.083 284.791 178.902C285.113 179.714 285.274 180.583 285.274 181.511C285.274 182.438 285.113 183.167 284.791 183.696C284.469 184.211 284.047 184.512 283.527 184.6C282.524 184.783 281.452 184.548 280.313 183.896C279.731 183.564 279.18 183.17 278.659 182.715C278.139 182.247 277.718 181.799 277.396 181.372C276.739 180.54 276.281 179.836 276.021 179.259L275.854 178.928ZM293.597 176.703L298.613 191.514C298.824 192.12 298.929 192.544 298.929 192.786C298.929 193.3 298.57 193.558 297.852 193.561C297.43 193.563 297.096 193.493 296.848 193.351C296.613 193.217 296.415 193.039 296.254 192.819C296.105 192.605 295.994 192.406 295.919 192.221C295.857 192.043 295.764 191.776 295.641 191.419L294.674 188.556L289.528 185.613L288.562 187.372C288.438 187.586 288.339 187.737 288.264 187.822C288.203 187.915 288.091 187.987 287.93 188.038C287.781 188.081 287.583 188.032 287.335 187.891C287.1 187.756 286.772 187.447 286.351 186.964C285.632 186.153 285.273 185.491 285.273 184.978C285.273 184.735 285.378 184.431 285.589 184.067L290.605 174.971C290.742 174.721 290.946 174.574 291.219 174.53C291.503 174.493 291.801 174.563 292.11 174.74C292.779 175.123 293.275 175.777 293.597 176.703ZM292.092 180.979L290.866 183.21L293.337 184.623L292.092 180.979ZM303.233 193.621L308.287 196.51C308.696 196.744 308.993 196.971 309.179 197.192C309.364 197.398 309.488 197.633 309.55 197.896C309.612 198.16 309.643 198.484 309.643 198.87C309.643 199.241 309.612 199.523 309.55 199.716C309.488 199.908 309.383 200.005 309.234 200.006C308.999 200.014 308.677 199.901 308.268 199.667L301.58 195.843C300.712 195.347 300.205 194.785 300.056 194.158C299.982 193.887 299.945 193.502 299.945 193.003V181.103C299.945 180.775 299.951 180.536 299.963 180.386C299.988 180.229 300.05 180.072 300.149 179.914C300.322 179.628 300.805 179.712 301.598 180.165C302.465 180.661 302.979 181.219 303.14 181.839C303.202 182.117 303.233 182.506 303.233 183.005V193.621ZM314.138 199.235L319.86 202.507C320.145 202.67 320.356 202.805 320.492 202.912C320.641 203.011 320.808 203.171 320.994 203.391C321.328 203.782 321.495 204.434 321.495 205.347C321.495 206.346 321.266 206.8 320.808 206.709C320.597 206.674 320.275 206.533 319.842 206.285L312.484 202.078C311.617 201.582 311.109 201.021 310.961 200.394C310.886 200.123 310.849 199.738 310.849 199.238V187.338C310.849 186.611 310.967 186.186 311.202 186.064C311.438 185.927 311.883 186.046 312.54 186.422L319.86 190.608C320.145 190.771 320.356 190.905 320.492 191.012C320.641 191.111 320.808 191.271 320.994 191.491C321.328 191.882 321.495 192.534 321.495 193.447C321.495 194.446 321.266 194.9 320.808 194.809C320.597 194.775 320.275 194.633 319.842 194.385L314.138 191.124V193.285L317.817 195.389C318.101 195.552 318.312 195.687 318.448 195.793C318.597 195.892 318.764 196.052 318.95 196.272C319.284 196.663 319.452 197.316 319.452 198.229C319.452 199.227 319.216 199.678 318.746 199.58C318.535 199.545 318.213 199.404 317.779 199.156L314.138 197.074V199.235Z" fill="white"></path><path d="M382.848 177.169C382.848 194.086 372.08 202.145 358.795 195.174C345.512 188.201 334.743 168.84 334.743 151.924C334.743 142.189 332.3 137.983 343.872 132.695C348.016 130.801 353.157 130.96 358.795 133.92C372.08 140.891 382.848 160.256 382.848 177.169Z" fill="#FF5F00"></path><path d="M379.367 179.119C379.367 196.035 368.599 204.095 355.316 197.124C342.031 190.15 331.262 170.79 331.262 153.874C331.262 136.96 342.031 128.899 355.316 135.87C368.599 142.84 379.367 162.205 379.367 179.119Z" fill="#FFA500"></path><path d="M355.316 136.449C368.522 143.38 379.239 162.561 379.362 179.405C379.363 179.309 379.367 179.215 379.367 179.118C379.367 162.204 368.599 142.84 355.316 135.869C342.031 128.898 331.262 136.959 331.262 153.873C331.262 153.97 331.266 154.069 331.267 154.166C331.39 137.451 342.108 129.518 355.316 136.449Z" fill="#FFE500"></path><path d="M373.11 176.402C373.11 188.916 365.145 194.878 355.318 189.721C345.492 184.565 337.523 170.242 337.523 157.727C337.523 145.215 345.492 139.253 355.318 144.41C365.145 149.565 373.11 163.89 373.11 176.402Z" fill="#FFE500"></path><path d="M355.318 145.483C365.05 150.589 372.944 164.686 373.096 177.11C373.102 176.875 373.11 176.642 373.11 176.402C373.11 163.89 365.145 149.565 355.318 144.409C345.492 139.252 337.523 145.215 337.523 157.726C337.523 157.847 337.536 157.971 337.537 158.092C337.835 146.069 345.681 140.425 355.318 145.483Z" fill="#FFFF4B"></path><path d="M354.433 151.054C355.083 151.465 355.594 152.508 355.594 153.416V154.247C357.188 155.524 358.539 157.097 359.78 158.983C360.213 159.597 360.592 160.406 360.592 161.314C360.592 162.487 359.918 162.966 359.079 162.436C358.808 162.264 358.539 161.979 358.267 161.581C357.322 160.187 356.405 159.037 355.487 158.152V165.415C359.593 169.456 361.347 172.878 361.347 176.925C361.347 181.086 359.026 182.376 355.593 180.655V182.926C355.593 183.833 355.083 184.227 354.432 183.815C353.785 183.404 353.242 182.342 353.242 181.436V179.09C351.216 177.502 349.353 175.3 347.705 172.629C347.245 171.922 346.977 171.145 346.977 170.35C346.977 169.178 347.624 168.681 348.465 169.21C348.788 169.416 349.111 169.772 349.354 170.193C350.622 172.282 351.865 173.941 353.353 175.262V167.808C349.407 163.87 347.574 160.624 347.574 156.349C347.574 152.302 349.869 150.956 353.244 152.719V151.924C353.243 151.018 353.786 150.642 354.433 151.054ZM353.353 163.271V156.572C351.624 155.705 350.761 156.444 350.761 158.107C350.761 159.697 351.274 161.006 353.353 163.271ZM355.487 169.881V176.766C357.216 177.598 358.164 176.986 358.164 175.17C358.164 173.505 357.567 172.107 355.487 169.881Z" fill="#FFFF3F"></path><path d="M354.433 151.052C355.083 151.453 355.594 152.473 355.594 153.36V154.173C357.188 155.421 358.539 156.96 359.78 158.803C360.213 159.404 360.592 160.194 360.592 161.081C360.592 162.228 359.918 162.696 359.079 162.178C358.808 162.01 358.539 161.732 358.267 161.343C357.322 159.979 356.405 158.854 355.487 157.991V165.092C359.593 169.043 361.347 172.388 361.347 176.346C361.347 180.414 359.026 181.675 355.593 179.993V182.214C355.593 183.102 355.083 183.486 354.432 183.083C353.785 182.682 353.242 181.644 353.242 180.757V178.464C351.216 176.911 349.353 174.759 347.705 172.147C347.245 171.456 346.977 170.696 346.977 169.919C346.977 168.774 347.624 168.287 348.465 168.806C348.788 169.007 349.111 169.355 349.354 169.767C350.622 171.809 351.865 173.431 353.353 174.723V167.436C349.407 163.587 347.574 160.413 347.574 156.233C347.574 152.277 349.869 150.96 353.244 152.684V151.906C353.243 151.015 353.786 150.649 354.433 151.052ZM353.353 162.995V156.446C351.624 155.598 350.761 156.32 350.761 157.946C350.761 159.501 351.274 160.781 353.353 162.995ZM355.487 169.458V176.189C357.216 177.001 358.164 176.404 358.164 174.628C358.164 173.001 357.567 171.634 355.487 169.458Z" fill="#FF9400"></path><path d="M414.119 226.523C414.119 236.193 407.964 240.8 400.369 236.815C392.776 232.829 386.619 221.761 386.619 212.091C386.619 206.526 385.223 204.121 391.837 201.098C394.206 200.016 397.146 200.107 400.369 201.798C407.963 205.783 414.119 216.854 414.119 226.523Z" fill="#FF5F00"></path><path d="M412.13 227.635C412.13 237.306 405.975 241.913 398.38 237.928C390.785 233.942 384.629 222.874 384.629 213.203C384.629 203.535 390.785 198.926 398.38 202.911C405.974 206.897 412.13 217.968 412.13 227.635Z" fill="#FFA500"></path><path d="M398.38 203.245C405.93 207.207 412.056 218.172 412.127 227.801C412.127 227.746 412.13 227.692 412.13 227.637C412.13 217.968 405.975 206.899 398.38 202.914C390.785 198.929 384.629 203.537 384.629 213.206C384.629 213.262 384.632 213.319 384.632 213.373C384.703 203.817 390.83 199.282 398.38 203.245Z" fill="#FFE500"></path><path d="M408.551 226.083C408.551 233.237 403.997 236.645 398.379 233.697C392.763 230.749 388.207 222.561 388.207 215.407C388.207 208.254 392.763 204.846 398.379 207.794C403.997 210.741 408.551 218.93 408.551 226.083Z" fill="#FFE500"></path><path d="M398.379 208.408C403.942 211.327 408.456 219.386 408.543 226.487C408.546 226.353 408.551 226.22 408.551 226.082C408.551 218.93 403.997 210.741 398.379 207.794C392.763 204.846 388.207 208.255 388.207 215.407C388.207 215.475 388.214 215.546 388.215 215.616C388.386 208.743 392.87 205.517 398.379 208.408Z" fill="#FFFF4B"></path><path d="M397.874 211.593C398.246 211.827 398.538 212.423 398.538 212.943V213.418C399.448 214.148 400.221 215.047 400.931 216.125C401.178 216.476 401.396 216.938 401.396 217.456C401.396 218.127 401.01 218.401 400.531 218.098C400.375 218 400.222 217.837 400.066 217.61C399.526 216.812 399.002 216.155 398.477 215.65V219.802C400.824 222.112 401.827 224.068 401.827 226.382C401.827 228.76 400.501 229.497 398.538 228.514V229.813C398.538 230.332 398.246 230.557 397.874 230.321C397.504 230.086 397.194 229.48 397.194 228.96V227.621C396.035 226.712 394.971 225.455 394.03 223.927C393.767 223.524 393.613 223.079 393.613 222.624C393.613 221.955 393.984 221.67 394.465 221.973C394.649 222.091 394.834 222.295 394.973 222.535C395.697 223.73 396.408 224.678 397.258 225.433V221.172C395.002 218.921 393.954 217.066 393.954 214.622C393.954 212.309 395.267 211.539 397.196 212.547V212.093C397.194 211.572 397.504 211.358 397.874 211.593ZM397.257 218.578V214.748C396.269 214.253 395.776 214.675 395.776 215.626C395.776 216.534 396.069 217.282 397.257 218.578ZM398.477 222.355V226.291C399.465 226.766 400.007 226.417 400.007 225.379C400.007 224.427 399.666 223.628 398.477 222.355Z" fill="#FFFF3F"></path><path d="M397.874 211.592C398.246 211.821 398.538 212.404 398.538 212.912V213.377C399.448 214.091 400.221 214.969 400.931 216.023C401.178 216.366 401.396 216.818 401.396 217.325C401.396 217.981 401.01 218.248 400.531 217.952C400.375 217.856 400.222 217.697 400.066 217.475C399.526 216.696 399.002 216.053 398.477 215.559V219.618C400.824 221.876 401.827 223.789 401.827 226.051C401.827 228.377 400.501 229.098 398.538 228.136V229.405C398.538 229.912 398.246 230.132 397.874 229.901C397.504 229.673 397.194 229.079 397.194 228.572V227.261C396.035 226.373 394.971 225.143 394.03 223.65C393.767 223.255 393.613 222.82 393.613 222.376C393.613 221.722 393.984 221.443 394.465 221.74C394.649 221.856 394.834 222.054 394.973 222.29C395.697 223.457 396.408 224.384 397.258 225.122V220.957C395.002 218.755 393.954 216.942 393.954 214.552C393.954 212.29 395.267 211.537 397.196 212.523V212.079C397.194 211.571 397.504 211.362 397.874 211.592ZM397.257 218.419V214.675C396.269 214.19 395.776 214.603 395.776 215.534C395.776 216.421 396.069 217.154 397.257 218.419ZM398.477 222.113V225.961C399.465 226.426 400.007 226.083 400.007 225.069C400.007 224.14 399.666 223.358 398.477 222.113Z" fill="#FF9400"></path><path d="M442.649 349.565L405.031 371.866V338.04L442.649 315.74V349.565Z" fill="#F4734E"></path><path d="M347.137 337.464L405.028 371.866V338.04L347.137 303.64V337.464Z" fill="#F4CAA0"></path><path d="M349.211 335.933L356.899 340.503V331.517L349.211 326.948V335.933Z" fill="#F46C33"></path><path d="M419.957 360.203L407.48 367.617V353.038L419.957 345.623V360.203Z" fill="#A52113"></path><path d="M426.014 357.072L421.66 359.658V354.572L426.014 351.985V357.072Z" fill="#A52113"></path><path d="M358.891 341.857L361.42 343.36V340.404L358.891 338.899V341.857Z" fill="#F46C33"></path><path d="M364.305 345.075L366.834 346.578V343.622L364.305 342.118V345.075Z" fill="#F46C33"></path><path d="M442.646 315.74L405.028 338.04L347.137 303.64L384.744 282.105L442.646 315.74Z" fill="#F49A61"></path><path d="M364.699 293.585L421.461 328.3L427.236 324.876L370.495 290.266L364.699 293.585Z" fill="#F4EFA4"></path><path d="M421.469 328.299V340.125L422.198 340.745L422.918 339.282L423.639 339.896L424.36 338.433L425.081 339.047L425.803 337.584L426.523 338.198L427.252 336.719V324.895L421.469 328.299Z" fill="#F4D38B"></path><path d="M421.469 328.299L427.251 324.895C427.251 324.895 424.316 326.135 421.469 328.299Z" fill="#FFFFE8"></path><path opacity="0.31" d="M412.919 308.119C414.173 304.124 409.139 298.986 401.675 296.642C394.211 294.298 387.143 295.637 385.888 299.631C384.634 303.626 389.668 308.764 397.132 311.108C404.597 313.452 411.664 312.114 412.919 308.119Z" fill="#F4734E"></path><path d="M419.803 287.08C419.803 303.418 409.403 311.203 396.572 304.471C383.742 297.736 373.341 279.036 373.341 262.698C373.341 253.295 370.982 249.233 382.157 244.125C386.159 242.296 391.126 242.45 396.572 245.308C409.403 252.042 419.803 270.744 419.803 287.08Z" fill="#FF5F00"></path><path d="M416.443 288.963C416.443 305.301 406.042 313.085 393.213 306.353C380.383 299.619 369.98 280.919 369.98 264.581C369.98 248.245 380.382 240.459 393.213 247.191C406.042 253.923 416.443 272.627 416.443 288.963Z" fill="#FFA500"></path><path d="M393.213 247.751C405.969 254.445 416.32 272.972 416.437 289.24C416.439 289.147 416.443 289.057 416.443 288.964C416.443 272.628 406.042 253.925 393.213 247.192C380.382 240.459 369.98 248.244 369.98 264.581C369.98 264.675 369.985 264.77 369.986 264.864C370.104 248.719 380.456 241.057 393.213 247.751Z" fill="#FFE500"></path><path d="M410.395 286.338C410.395 298.426 402.701 304.183 393.21 299.203C383.72 294.223 376.023 280.388 376.023 268.301C376.023 256.217 383.72 250.458 393.21 255.438C402.701 260.42 410.395 274.254 410.395 286.338Z" fill="#FFE500"></path><path d="M393.21 256.476C402.609 261.408 410.235 275.022 410.381 287.023C410.387 286.796 410.395 286.571 410.395 286.339C410.395 274.254 402.702 260.419 393.21 255.438C383.72 250.458 376.023 256.216 376.023 268.301C376.023 268.418 376.036 268.537 376.037 268.655C376.324 257.042 383.902 251.592 393.21 256.476Z" fill="#FFFF4B"></path><path d="M392.36 261.858C392.988 262.254 393.481 263.262 393.481 264.139V264.942C395.02 266.176 396.326 267.695 397.525 269.517C397.943 270.11 398.308 270.891 398.308 271.767C398.308 272.901 397.657 273.363 396.847 272.85C396.585 272.685 396.326 272.41 396.064 272.026C395.151 270.679 394.265 269.568 393.378 268.713V275.729C397.344 279.632 399.038 282.937 399.038 286.845C399.038 290.865 396.797 292.109 393.481 290.448V292.641C393.481 293.518 392.988 293.899 392.36 293.5C391.735 293.104 391.211 292.077 391.211 291.202V288.936C389.254 287.401 387.455 285.276 385.864 282.696C385.42 282.013 385.16 281.262 385.16 280.494C385.16 279.363 385.786 278.882 386.598 279.394C386.91 279.593 387.222 279.936 387.456 280.342C388.681 282.359 389.882 283.962 391.318 285.238V278.039C387.507 274.235 385.736 271.101 385.736 266.972C385.736 263.064 387.952 261.763 391.211 263.465V262.698C391.211 261.822 391.735 261.461 392.36 261.858ZM391.318 273.657V267.187C389.649 266.35 388.814 267.064 388.814 268.669C388.814 270.205 389.31 271.47 391.318 273.657ZM393.378 280.041V286.691C395.049 287.494 395.964 286.904 395.964 285.15C395.964 283.542 395.386 282.191 393.378 280.041Z" fill="#FFFF3F"></path><path d="M392.36 261.854C392.988 262.242 393.481 263.227 393.481 264.084V264.869C395.02 266.075 396.326 267.561 397.525 269.34C397.943 269.921 398.308 270.684 398.308 271.541C398.308 272.649 397.657 273.101 396.847 272.6C396.585 272.438 396.326 272.169 396.064 271.793C395.151 270.477 394.265 269.391 393.378 268.556V275.415C397.344 279.23 399.038 282.461 399.038 286.284C399.038 290.214 396.797 291.431 393.481 289.806V291.951C393.481 292.807 392.988 293.179 392.36 292.79C391.735 292.402 391.211 291.4 391.211 290.544V288.328C389.254 286.828 387.455 284.749 385.864 282.228C385.42 281.56 385.16 280.826 385.16 280.076C385.16 278.969 385.786 278.499 386.598 279C386.91 279.195 387.222 279.531 387.456 279.928C388.681 281.901 389.882 283.467 391.318 284.715V277.676C387.507 273.958 385.736 270.893 385.736 266.857C385.736 263.035 387.952 261.764 391.211 263.429V262.678C391.211 261.82 391.735 261.465 392.36 261.854ZM391.318 273.391V267.065C389.649 266.246 388.814 266.943 388.814 268.513C388.814 270.015 389.31 271.251 391.318 273.391ZM393.378 279.632V286.133C395.049 286.918 395.964 286.34 395.964 284.626C395.964 283.055 395.386 281.735 393.378 279.632Z" fill="#FF9400"></path><path d="M171.653 96.4559C169.566 95.2237 167.859 96.1973 167.859 98.6206V136.562C167.859 138.985 169.569 141.972 171.659 143.199L237.854 182.075C239.943 183.303 241.654 182.323 241.654 179.9V142.226C241.654 139.803 239.947 136.811 237.86 135.579L171.653 96.4559Z" fill="#06E6FF"></path><path d="M237.864 135.579L171.657 96.4559C169.57 95.2237 167.863 96.1973 167.863 98.6206V98.8757C167.863 96.4525 169.57 95.4788 171.657 96.7111L237.864 135.834C239.951 137.066 241.658 140.058 241.658 142.482V142.226C241.657 139.803 239.95 136.812 237.864 135.579Z" fill="#06FFFF"></path><path d="M171.285 100.22L236.116 138.529C237.16 139.147 238.225 141.012 238.225 142.226V178.32L173.393 140.243C172.348 139.63 171.285 137.772 171.285 136.562V100.22Z" fill="#0688FF"></path><path d="M218.197 146.791C218.197 138.776 215.053 130.01 210.272 123.257L191.434 112.125C186.004 113.17 182.34 118.724 182.34 127.375C182.34 134.911 185.133 143.099 189.438 149.665L210.092 161.795C214.971 160.296 218.197 154.906 218.197 146.791Z" fill="#0673FF"></path><path d="M236.116 138.529L171.285 100.22V100.539L236.116 138.849C237.16 139.466 238.225 141.331 238.225 142.545V142.226C238.225 141.012 237.16 139.147 236.116 138.529Z" fill="#06FFFF"></path><path d="M212.08 143.479C212.08 151.917 206.791 155.893 200.266 152.361C193.741 148.829 188.453 139.125 188.453 130.687C188.453 122.249 193.742 118.272 200.266 121.805C206.791 125.337 212.08 135.04 212.08 143.479Z" fill="#06E6FF"></path><path d="M199.591 125.58C200.074 125.88 200.454 126.648 200.454 127.313V127.924C201.637 128.86 202.64 130.014 203.561 131.397C203.884 131.848 204.164 132.442 204.164 133.107C204.164 133.969 203.663 134.321 203.041 133.93C202.839 133.805 202.64 133.596 202.439 133.305C201.736 132.282 201.056 131.436 200.374 130.789V136.118C203.422 139.084 204.726 141.594 204.726 144.563C204.726 147.618 203.001 148.563 200.453 147.299V148.965C200.453 149.631 200.073 149.921 199.59 149.619C199.109 149.317 198.708 148.539 198.708 147.873V146.151C197.203 144.986 195.82 143.371 194.596 141.411C194.255 140.892 194.055 140.322 194.055 139.739C194.055 138.879 194.536 138.514 195.159 138.903C195.399 139.054 195.639 139.315 195.82 139.624C196.762 141.156 197.685 142.374 198.789 143.342V137.873C195.858 134.985 194.496 132.603 194.496 129.466C194.496 126.496 196.201 125.51 198.708 126.803V126.219C198.708 125.553 199.111 125.279 199.591 125.58ZM198.79 134.544V129.629C197.506 128.991 196.865 129.535 196.865 130.754C196.865 131.921 197.244 132.881 198.79 134.544ZM200.374 139.395V144.447C201.657 145.057 202.36 144.607 202.36 143.276C202.361 142.055 201.917 141.027 200.374 139.395Z" fill="#FAFFFF"></path><path d="M199.591 125.579C200.074 125.876 200.454 126.636 200.454 127.294V127.898C201.637 128.824 202.64 129.966 203.561 131.335C203.884 131.781 204.164 132.368 204.164 133.026C204.164 133.879 203.663 134.227 203.041 133.84C202.839 133.715 202.64 133.51 202.439 133.22C201.736 132.208 201.056 131.372 200.374 130.73V136.004C203.422 138.938 204.726 141.421 204.726 144.359C204.726 147.381 203.001 148.317 200.453 147.067V148.716C200.453 149.375 200.073 149.661 199.59 149.362C199.109 149.064 198.708 148.294 198.708 147.635V145.931C197.203 144.779 195.82 143.181 194.596 141.241C194.255 140.728 194.055 140.164 194.055 139.587C194.055 138.736 194.536 138.374 195.159 138.76C195.399 138.91 195.639 139.167 195.82 139.474C196.762 140.99 197.685 142.195 198.789 143.153V137.742C195.858 134.884 194.496 132.528 194.496 129.423C194.496 126.485 196.201 125.508 198.708 126.788V126.21C198.708 125.553 199.111 125.28 199.591 125.579ZM198.79 134.448V129.585C197.506 128.955 196.865 129.491 196.865 130.7C196.865 131.854 197.244 132.804 198.79 134.448ZM200.374 139.247V144.246C201.657 144.849 202.36 144.404 202.36 143.087C202.361 141.879 201.917 140.863 200.374 139.247Z" fill="#0688FF"></path><path opacity="0.6" d="M179.282 117.049C177.195 115.816 175.488 116.79 175.488 119.213V145.447L237.858 182.076C239.948 183.303 241.657 182.324 241.657 179.901V153.906L179.282 117.049Z" fill="#0688FF"></path><path d="M182.935 123.688C180.848 122.456 179.141 123.43 179.141 125.853V163.794C179.141 166.218 180.85 169.205 182.94 170.431L249.136 209.307C251.225 210.535 252.935 209.556 252.935 207.132V169.459C252.935 167.036 251.228 164.044 249.141 162.812L182.935 123.688Z" fill="#06E6FF"></path><path d="M249.141 162.812L182.935 123.688C180.848 122.456 179.141 123.43 179.141 125.853V126.108C179.141 123.685 180.848 122.711 182.935 123.943L249.141 163.067C251.228 164.299 252.935 167.291 252.935 169.714V169.459C252.935 167.036 251.228 164.045 249.141 162.812Z" fill="#06FFFF"></path><path d="M182.57 127.452L247.401 165.762C248.445 166.379 249.51 168.245 249.51 169.458V205.552L184.678 167.476C183.633 166.862 182.57 165.004 182.57 163.794V127.452Z" fill="#0688FF"></path><path d="M229.474 174.023C229.474 166.009 226.33 157.242 221.55 150.49L202.712 139.357C197.282 140.402 193.617 145.957 193.617 154.607C193.617 162.144 196.41 170.331 200.715 176.897L221.369 189.027C226.249 187.528 229.474 182.138 229.474 174.023Z" fill="#0673FF"></path><path d="M247.401 165.762L182.57 127.452V127.771L247.401 166.081C248.445 166.699 249.51 168.564 249.51 169.778V169.458C249.51 168.245 248.445 166.38 247.401 165.762Z" fill="#06FFFF"></path><path d="M223.362 170.712C223.362 179.15 218.072 183.125 211.547 179.593C205.022 176.062 199.734 166.357 199.734 157.919C199.734 149.481 205.024 145.504 211.547 149.037C218.073 152.569 223.362 162.273 223.362 170.712Z" fill="#06E6FF"></path><path d="M210.872 152.812C211.355 153.113 211.735 153.881 211.735 154.545V155.156C212.918 156.092 213.921 157.247 214.842 158.63C215.165 159.081 215.445 159.674 215.445 160.339C215.445 161.202 214.944 161.553 214.322 161.163C214.12 161.037 213.921 160.829 213.72 160.537C213.018 159.514 212.337 158.669 211.655 158.021V163.35C214.703 166.316 216.007 168.826 216.007 171.795C216.007 174.85 214.282 175.795 211.734 174.532V176.198C211.734 176.864 211.354 177.153 210.871 176.851C210.391 176.549 209.989 175.771 209.989 175.105V173.383C208.485 172.218 207.101 170.603 205.877 168.643C205.536 168.125 205.336 167.554 205.336 166.972C205.336 166.111 205.818 165.746 206.44 166.135C206.68 166.286 206.921 166.547 207.101 166.856C208.043 168.388 208.966 169.606 210.07 170.574V165.106C207.139 162.218 205.778 159.836 205.778 156.699C205.778 153.728 207.482 152.742 209.989 154.035V153.452C209.99 152.786 210.392 152.511 210.872 152.812ZM210.071 161.776V156.861C208.788 156.224 208.146 156.767 208.146 157.987C208.147 159.154 208.527 160.114 210.071 161.776ZM211.656 166.627V171.68C212.94 172.289 213.642 171.84 213.642 170.508C213.642 169.287 213.198 168.26 211.656 166.627Z" fill="#FAFFFF"></path><path d="M210.872 152.811C211.355 153.108 211.735 153.868 211.735 154.526V155.13C212.918 156.057 213.921 157.199 214.842 158.567C215.165 159.013 215.445 159.6 215.445 160.258C215.445 161.112 214.944 161.459 214.322 161.073C214.12 160.948 213.921 160.742 213.72 160.452C213.018 159.44 212.337 158.605 211.655 157.963V163.236C214.703 166.17 216.007 168.654 216.007 171.592C216.007 174.613 214.282 175.549 211.734 174.3V175.948C211.734 176.607 211.354 176.893 210.871 176.595C210.391 176.296 209.989 175.526 209.989 174.867V173.164C208.485 172.012 207.101 170.413 205.877 168.474C205.536 167.96 205.336 167.396 205.336 166.82C205.336 165.968 205.818 165.607 206.44 165.992C206.68 166.142 206.921 166.4 207.101 166.706C208.043 168.222 208.966 169.427 210.07 170.386V164.974C207.139 162.116 205.778 159.76 205.778 156.655C205.778 153.717 207.482 152.74 209.989 154.02V153.442C209.99 152.786 210.392 152.512 210.872 152.811ZM210.071 161.68V156.818C208.788 156.187 208.146 156.724 208.146 157.932C208.147 159.086 208.527 160.036 210.071 161.68ZM211.656 166.48V171.478C212.94 172.081 213.642 171.636 213.642 170.319C213.642 169.111 213.198 168.095 211.656 166.48Z" fill="#0688FF"></path><path d="M238.132 192.86C238.132 197.213 235.361 199.288 231.941 197.494C228.523 195.698 225.751 190.716 225.751 186.362C225.751 183.857 225.123 182.775 228.1 181.413C229.166 180.926 230.49 180.967 231.94 181.729C235.361 183.524 238.132 188.507 238.132 192.86Z" fill="#FF5F00"></path><path d="M237.236 193.362C237.236 197.716 234.465 199.79 231.046 197.996C227.628 196.201 224.855 191.218 224.855 186.865C224.855 182.512 227.628 180.437 231.046 182.231C234.465 184.025 237.236 189.009 237.236 193.362Z" fill="#FFA500"></path><path d="M231.046 182.38C234.445 184.164 237.204 189.101 237.235 193.436C237.235 193.411 237.236 193.387 237.236 193.361C237.236 189.008 234.465 184.024 231.046 182.23C227.628 180.436 224.855 182.511 224.855 186.864C224.855 186.889 224.857 186.914 224.857 186.94C224.889 182.639 227.646 180.597 231.046 182.38Z" fill="#FFE500"></path><path d="M235.624 192.663C235.624 195.884 233.573 197.418 231.045 196.091C228.516 194.763 226.465 191.077 226.465 187.856C226.465 184.636 228.516 183.101 231.045 184.429C233.573 185.756 235.624 189.442 235.624 192.663Z" fill="#FFE500"></path><path d="M231.045 184.705C233.549 186.019 235.581 189.647 235.62 192.844C235.621 192.783 235.624 192.724 235.624 192.662C235.624 189.441 233.573 185.755 231.045 184.428C228.516 183.101 226.465 184.635 226.465 187.855C226.465 187.886 226.468 187.918 226.468 187.949C226.545 184.856 228.564 183.404 231.045 184.705Z" fill="#FFFF4B"></path><path d="M230.816 186.14C230.983 186.245 231.115 186.514 231.115 186.747V186.961C231.525 187.29 231.872 187.695 232.192 188.18C232.303 188.338 232.402 188.546 232.402 188.779C232.402 189.081 232.228 189.205 232.013 189.068C231.943 189.023 231.873 188.95 231.803 188.848C231.56 188.489 231.324 188.193 231.088 187.966V189.835C232.145 190.875 232.596 191.756 232.596 192.797C232.596 193.868 231.999 194.2 231.116 193.757V194.342C231.116 194.575 230.984 194.677 230.817 194.571C230.65 194.465 230.511 194.192 230.511 193.959V193.355C229.989 192.946 229.509 192.38 229.086 191.692C228.968 191.51 228.898 191.31 228.898 191.105C228.898 190.803 229.065 190.675 229.282 190.812C229.365 190.865 229.448 190.956 229.511 191.065C229.837 191.603 230.157 192.03 230.539 192.369V190.451C229.523 189.437 229.052 188.602 229.052 187.501C229.052 186.46 229.642 186.113 230.511 186.566V186.362C230.509 186.131 230.649 186.033 230.816 186.14ZM230.538 189.284V187.56C230.093 187.336 229.871 187.526 229.871 187.954C229.871 188.364 230.003 188.7 230.538 189.284ZM231.087 190.985V192.757C231.532 192.971 231.776 192.813 231.776 192.347C231.776 191.918 231.621 191.558 231.087 190.985Z" fill="#FFFF3F"></path><path d="M230.816 186.138C230.983 186.241 231.115 186.504 231.115 186.732V186.941C231.525 187.263 231.872 187.658 232.192 188.132C232.303 188.287 232.402 188.49 232.402 188.718C232.402 189.013 232.228 189.133 232.013 189C231.943 188.957 231.873 188.886 231.803 188.785C231.56 188.434 231.324 188.145 231.088 187.923V189.75C232.145 190.767 232.596 191.627 232.596 192.646C232.596 193.692 231.999 194.017 231.116 193.584V194.155C231.116 194.384 230.984 194.482 230.817 194.378C230.65 194.275 230.511 194.007 230.511 193.779V193.189C229.989 192.79 229.509 192.236 229.086 191.563C228.968 191.385 228.898 191.19 228.898 190.99C228.898 190.695 229.065 190.57 229.282 190.703C229.365 190.754 229.448 190.845 229.511 190.95C229.837 191.475 230.157 191.893 230.539 192.226V190.35C229.523 189.36 229.052 188.543 229.052 187.467C229.052 186.449 229.642 186.11 230.511 186.554V186.354C230.509 186.129 230.649 186.034 230.816 186.138ZM230.538 189.212V187.527C230.093 187.308 229.871 187.495 229.871 187.912C229.871 188.313 230.003 188.642 230.538 189.212ZM231.087 190.875V192.607C231.532 192.816 231.776 192.662 231.776 192.205C231.776 191.788 231.621 191.435 231.087 190.875Z" fill="#FF9400"></path><path d="M250.975 248.256L234.039 258.295V243.067L250.975 233.026V248.256Z" fill="#F4734E"></path><path d="M207.977 242.807L234.04 258.295V243.067L207.977 227.579V242.807Z" fill="#F4CAA0"></path><path d="M208.91 242.119L212.371 244.176V240.13L208.91 238.073V242.119Z" fill="#F46C33"></path><path d="M240.762 253.044L235.145 256.382V249.818L240.762 246.479V253.044Z" fill="#A52113"></path><path d="M243.487 251.635L241.527 252.8V250.509L243.487 249.345V251.635Z" fill="#A52113"></path><path d="M213.266 244.785L214.405 245.462V244.131L213.266 243.454V244.785Z" fill="#F46C33"></path><path d="M215.707 246.234L216.845 246.91V245.58L215.707 244.902V246.234Z" fill="#F46C33"></path><path d="M250.976 233.026L234.04 243.067L207.977 227.579L224.908 217.884L250.976 233.026Z" fill="#F49A61"></path><path d="M215.883 223.052L241.438 238.682L244.037 237.141L218.493 221.558L215.883 223.052Z" fill="#F4EFA4"></path><path d="M241.438 238.682V244.005L241.765 244.284L242.09 243.625L242.415 243.902L242.738 243.243L243.063 243.52L243.388 242.861L243.712 243.138L244.04 242.472V237.148L241.438 238.682Z" fill="#F4D38B"></path><path d="M241.438 238.682L244.042 237.148C244.042 237.148 242.719 237.707 241.438 238.682Z" fill="#FFFFE8"></path><path opacity="0.31" d="M237.598 229.6C238.163 227.802 235.896 225.489 232.536 224.433C229.175 223.378 225.993 223.981 225.429 225.779C224.864 227.577 227.13 229.891 230.491 230.946C233.851 232.001 237.033 231.399 237.598 229.6Z" fill="#F4734E"></path><path d="M240.692 220.125C240.692 227.48 236.009 230.985 230.233 227.954C224.456 224.922 219.773 216.502 219.773 209.147C219.773 204.913 218.711 203.085 223.742 200.786C225.544 199.962 227.78 200.032 230.232 201.318C236.011 204.349 240.692 212.77 240.692 220.125Z" fill="#FF5F00"></path><path d="M239.184 220.972C239.184 228.328 234.501 231.832 228.725 228.802C222.949 225.77 218.266 217.35 218.266 209.995C218.266 202.64 222.949 199.135 228.725 202.165C234.501 205.197 239.184 213.618 239.184 220.972Z" fill="#FFA500"></path><path d="M228.721 202.418C234.465 205.432 239.124 213.772 239.177 221.097C239.177 221.055 239.18 221.015 239.18 220.972C239.18 213.618 234.497 205.197 228.721 202.166C222.945 199.136 218.262 202.64 218.262 209.996C218.262 210.038 218.264 210.08 218.264 210.123C218.318 202.853 222.978 199.405 228.721 202.418Z" fill="#FFE500"></path><path d="M236.459 219.791C236.459 225.232 232.995 227.825 228.722 225.582C224.45 223.34 220.984 217.111 220.984 211.67C220.984 206.23 224.45 203.637 228.722 205.878C232.994 208.122 236.459 214.351 236.459 219.791Z" fill="#FFE500"></path><path d="M228.722 206.346C232.954 208.567 236.386 214.696 236.453 220.098C236.455 219.996 236.459 219.894 236.459 219.79C236.459 214.35 232.995 208.122 228.722 205.879C224.45 203.637 220.984 206.229 220.984 211.671C220.984 211.723 220.99 211.777 220.99 211.83C221.121 206.601 224.532 204.147 228.722 206.346Z" fill="#FFFF4B"></path><path d="M228.336 208.769C228.619 208.947 228.841 209.402 228.841 209.796V210.158C229.534 210.713 230.121 211.397 230.661 212.217C230.85 212.485 231.015 212.836 231.015 213.231C231.015 213.741 230.722 213.949 230.357 213.72C230.239 213.645 230.122 213.522 230.003 213.348C229.592 212.741 229.193 212.241 228.794 211.857V215.016C230.579 216.773 231.342 218.261 231.342 220.02C231.342 221.83 230.333 222.391 228.84 221.643V222.63C228.84 223.025 228.618 223.196 228.335 223.017C228.054 222.838 227.818 222.377 227.818 221.982V220.962C226.937 220.271 226.127 219.314 225.411 218.152C225.21 217.844 225.094 217.507 225.094 217.161C225.094 216.652 225.375 216.436 225.741 216.666C225.882 216.755 226.022 216.91 226.128 217.092C226.68 218.001 227.22 218.722 227.867 219.297V216.056C226.151 214.343 225.353 212.932 225.353 211.073C225.353 209.314 226.351 208.728 227.819 209.494V209.149C227.819 208.753 228.055 208.589 228.336 208.769ZM227.867 214.081V211.168C227.115 210.791 226.74 211.112 226.74 211.835C226.74 212.526 226.963 213.096 227.867 214.081ZM228.795 216.955V219.949C229.547 220.311 229.959 220.045 229.959 219.255C229.959 218.532 229.699 217.923 228.795 216.955Z" fill="#FFFF3F"></path><path d="M228.336 208.767C228.619 208.941 228.841 209.385 228.841 209.772V210.125C229.534 210.668 230.121 211.337 230.661 212.139C230.85 212.4 231.015 212.744 231.015 213.13C231.015 213.629 230.722 213.832 230.357 213.607C230.239 213.534 230.122 213.413 230.003 213.244C229.592 212.652 229.193 212.162 228.794 211.787V214.875C230.579 216.593 231.342 218.047 231.342 219.768C231.342 221.537 230.333 222.085 228.84 221.354V222.319C228.84 222.705 228.618 222.873 228.335 222.697C228.054 222.523 227.818 222.071 227.818 221.686V220.688C226.937 220.013 226.127 219.077 225.411 217.941C225.21 217.64 225.094 217.311 225.094 216.972C225.094 216.474 225.375 216.263 225.741 216.488C225.882 216.576 226.022 216.727 226.128 216.906C226.68 217.793 227.22 218.499 227.867 219.061V215.892C226.151 214.218 225.353 212.838 225.353 211.02C225.353 209.299 226.351 208.727 227.819 209.477V209.139C227.819 208.753 228.055 208.593 228.336 208.767ZM227.867 213.962V211.114C227.115 210.746 226.74 211.059 226.74 211.766C226.74 212.442 226.963 212.998 227.867 213.962ZM228.795 216.772V219.698C229.547 220.052 229.959 219.792 229.959 219.02C229.959 218.313 229.699 217.718 228.795 216.772Z" fill="#FF9400"></path><path d="M151.661 139.959C151.036 139.959 150.529 139.451 150.529 138.826C150.529 135.293 148.129 131.177 145.289 129.837C144.515 129.472 143.392 129.164 142.44 129.766C141.535 130.34 141.015 131.617 141.015 133.269C141.015 133.895 140.509 134.402 139.883 134.402C139.257 134.402 138.75 133.894 138.75 133.269C138.75 130.825 139.653 128.851 141.228 127.853C142.65 126.953 144.436 126.929 146.258 127.788C149.925 129.518 152.797 134.367 152.797 138.827C152.794 139.451 152.287 139.959 151.661 139.959Z" fill="white"></path><path d="M122.828 179.19L150.695 195.71V147.895L122.828 131.375V179.19Z" fill="#06E6FF"></path><path d="M159.877 189.804L150.695 195.71V147.895L159.877 142.524V189.804Z" fill="#FF56B0"></path><path d="M159.877 189.804L150.695 195.71V147.895L159.877 142.524V189.804Z" fill="#068AE0"></path><path d="M155.289 145.21L159.88 142.524V189.804L155.289 192.757V145.21Z" fill="#06B4FF"></path><path d="M122.828 131.375L150.695 147.895L159.877 142.524L132.018 126.036L122.828 131.375Z" fill="#06B4FF"></path><path d="M132.016 126.036V136.114L150.693 147.27L158.42 142.319L156.989 140.816" fill="#065EE0"></path><path d="M132.012 127.35L157.643 142.517L150.699 146.579L125.067 131.384L132.012 127.35ZM132.018 126.036L122.828 131.375L150.695 147.895L159.877 142.524L132.018 126.036Z" fill="#8AFFFF"></path><path d="M143.168 145.224C142.542 145.224 142.035 144.716 142.035 144.091C142.035 140.558 139.635 136.442 136.795 135.101C136.021 134.736 134.898 134.427 133.948 135.031C133.043 135.605 132.523 136.882 132.523 138.534C132.523 139.16 132.016 139.667 131.39 139.667C130.765 139.667 130.258 139.159 130.258 138.534C130.258 136.09 131.161 134.116 132.735 133.118C134.157 132.215 135.943 132.192 137.764 133.053C141.431 134.784 144.304 139.633 144.304 144.092C144.302 144.717 143.794 145.224 143.168 145.224Z" fill="white"></path><path d="M158.239 170.636C157.527 170.636 156.949 170.059 156.949 169.347C156.949 164.274 160.217 158.758 164.387 156.79C166.459 155.813 168.49 155.84 170.107 156.865C171.897 158 172.925 160.246 172.925 163.026C172.925 163.737 172.348 164.315 171.635 164.315C170.922 164.315 170.346 163.737 170.346 163.026C170.346 161.147 169.755 159.694 168.726 159.042C167.641 158.355 166.365 158.707 165.485 159.122C162.254 160.647 159.526 165.329 159.526 169.347C159.527 170.059 158.95 170.636 158.239 170.636Z" fill="white"></path><path d="M191.03 215.254L159.336 234.043V179.662L191.03 160.873V215.254Z" fill="#FF277D"></path><path d="M148.895 227.326L159.338 234.043V179.662L148.895 173.554V227.326Z" fill="#FF56B0"></path><path d="M148.895 227.326L159.338 234.043V179.662L148.895 173.554V227.326Z" fill="#FF56B0"></path><path d="M154.116 176.607L148.895 173.554V227.326L154.116 230.685V176.607Z" fill="#DD3D99"></path><path d="M191.032 160.874L159.338 179.662L148.895 173.554L180.581 154.802L191.032 160.874Z" fill="#AB0A41"></path><path d="M180.58 154.802V166.264L159.338 178.952L150.551 173.322L152.177 171.611" fill="#79081A"></path><path d="M180.587 156.296L188.486 160.884L159.333 178.166L151.437 173.547L180.587 156.296ZM180.581 154.802L148.895 173.554L159.338 179.662L191.032 160.874L180.581 154.802Z" fill="#FF70AA"></path><path d="M167.895 176.625C167.183 176.625 166.605 176.047 166.605 175.335C166.605 170.262 169.873 164.747 174.043 162.78C176.115 161.802 178.147 161.829 179.763 162.854C181.553 163.989 182.581 166.235 182.581 169.015C182.581 169.727 182.004 170.304 181.291 170.304C180.579 170.304 180.002 169.727 180.002 169.015C180.002 167.136 179.412 165.683 178.382 165.031C177.297 164.344 176.022 164.696 175.142 165.111C171.911 166.636 169.182 171.317 169.182 175.336C169.183 176.048 168.607 176.625 167.895 176.625Z" fill="white"></path><path d="M410.786 339.178C410.032 339.178 409.422 338.567 409.422 337.814C409.422 333.56 406.534 328.606 403.114 326.992C402.182 326.553 400.831 326.182 399.685 326.906C398.596 327.597 397.97 329.135 397.97 331.123C397.97 331.876 397.359 332.487 396.606 332.487C395.853 332.487 395.242 331.876 395.242 331.123C395.242 328.181 396.329 325.804 398.225 324.603C399.938 323.518 402.086 323.49 404.278 324.525C408.692 326.607 412.151 332.445 412.151 337.814C412.151 338.567 411.54 339.178 410.786 339.178Z" fill="white"></path><path d="M376.078 386.403L409.625 406.29V348.731L376.078 328.844V386.403Z" fill="#06E6FF"></path><path d="M420.68 399.181L409.625 406.291V348.732L420.68 342.266V399.181Z" fill="#FF56B0"></path><path d="M420.68 399.181L409.625 406.291V348.732L420.68 342.266V399.181Z" fill="#068AE0"></path><path d="M415.152 345.499L420.68 342.266V399.181L415.152 402.736V345.499Z" fill="#06B4FF"></path><path d="M376.078 328.844L409.625 348.731L420.679 342.266L387.141 322.419L376.078 328.844Z" fill="#06B4FF"></path><path d="M387.145 322.419V334.55L409.629 347.98L418.93 342.021L417.209 340.21" fill="#065EE0"></path><path d="M387.135 324L417.989 342.259L409.631 347.148L378.775 328.856L387.135 324ZM387.141 322.419L376.078 328.845L409.625 348.733L420.678 342.267L387.141 322.419Z" fill="#8AFFFF"></path><path d="M400.564 345.517C399.81 345.517 399.2 344.906 399.2 344.154C399.2 339.901 396.311 334.945 392.891 333.33C391.959 332.891 390.607 332.519 389.462 333.246C388.373 333.937 387.747 335.474 387.747 337.463C387.747 338.216 387.136 338.827 386.383 338.827C385.63 338.827 385.02 338.216 385.02 337.463C385.02 334.52 386.106 332.144 388.002 330.942C389.714 329.857 391.864 329.829 394.056 330.863C398.47 332.947 401.928 338.785 401.928 344.154C401.928 344.906 401.318 345.517 400.564 345.517Z" fill="white"></path><path d="M107.27 429.115C127.466 429.115 143.838 420.407 143.838 409.665C143.838 398.923 127.466 390.215 107.27 390.215C87.0748 390.215 70.7031 398.923 70.7031 409.665C70.7031 420.407 87.0748 429.115 107.27 429.115Z" fill="url(#paint2_linear_2099_8359)"></path><path d="M160.563 387.388C170.828 387.388 179.149 382.962 179.149 377.503C179.149 372.043 170.828 367.618 160.563 367.618C150.298 367.618 141.977 372.043 141.977 377.503C141.977 382.962 150.298 387.388 160.563 387.388Z" fill="url(#paint3_linear_2099_8359)"></path><path d="M195.221 362.938C201.78 362.938 207.098 360.109 207.098 356.62C207.098 353.131 201.78 350.302 195.221 350.302C188.661 350.302 183.344 353.131 183.344 356.62C183.344 360.109 188.661 362.938 195.221 362.938Z" fill="url(#paint4_linear_2099_8359)"></path><path d="M103.297 250.879C110.86 250.879 116.992 244.747 116.992 237.183C116.992 229.62 110.86 223.488 103.297 223.488C95.7331 223.488 89.6016 229.62 89.6016 237.183C89.6016 244.747 95.7331 250.879 103.297 250.879Z" fill="#F0B8A5"></path><path d="M105.376 248.426V258.998L92.2773 253.712V243.37H98.8274L105.376 248.426Z" fill="#F0B8A5"></path><path d="M74.5431 275.382C74.5431 275.382 74.36 291.515 90.1683 296.559L90.3445 289.609C90.3445 289.609 80.7774 288.696 80.6389 272.835L74.5431 275.382Z" fill="#F0C7B3"></path><path d="M74.543 275.382C74.543 275.382 74.5064 280.22 77.0498 285.424L81.7407 280.733C81.0954 278.629 80.6675 276.052 80.64 272.835L74.543 275.382Z" fill="#F0AD9B"></path><path d="M83.3663 254.906C83.3663 254.906 74.5406 254.093 71.6562 275.393C71.6562 275.393 72.8656 278.046 78.3917 278.046C82.7862 278.046 83.3663 275.393 83.3663 275.393V254.906Z" fill="#0089E3"></path><path d="M88.4885 403.105V407.633C88.4885 409.633 90.0353 411.354 92.0341 411.424C93.3979 411.471 95.0191 411.083 96.6426 409.665C102.292 404.732 103.21 399.933 103.243 397.46C103.257 396.406 102.515 395.49 101.477 395.309C99.4022 394.947 94.5134 396.885 93.1771 398.245C87.7357 403.775 88.4885 403.105 88.4885 403.105Z" fill="#FBFBF9"></path><path d="M84.2656 320.798C84.2656 320.798 91.1921 362.026 88.4897 403.105C88.4897 403.105 93.9094 407.785 97.4596 400.736C97.4596 400.736 105.653 362.671 100.248 330.243" fill="#423BE1"></path><path d="M102.025 349.827C88.7998 340.406 85.4922 323.511 85.4922 323.511L90.881 324.705L100.249 330.242C101.321 336.662 101.852 343.303 102.025 349.827Z" fill="#2F26D5"></path><path d="M103.97 407.262C103.97 407.262 103.305 408.78 103.141 410.879C102.918 413.714 105.101 416.161 107.931 416.429C111.441 416.761 116.783 416.954 121.861 415.907C126.385 414.975 128.889 413.287 130.246 411.9C131.276 410.848 130.926 409.112 129.592 408.487C127.253 407.393 123.031 405.851 116.994 405.306" fill="#FBFBF9"></path><path d="M83.365 308.883C83.365 308.883 78.3583 325.376 99.9776 336.997C99.9776 336.997 111.743 366.184 103.968 407.262C103.968 407.262 108.6 412.667 116.991 407.262C116.991 407.262 128.624 352.402 115.922 314.027C95.3839 294.028 83.365 308.883 83.365 308.883Z" fill="#1E24B8"></path><path d="M92.2767 253.711C92.2767 253.711 84.4624 249.808 80.6914 258.997C76.9204 268.187 83.3663 308.883 83.3663 308.883C83.3663 308.883 86.7918 314.7 98.8268 317.843C110.862 320.986 116.993 312.814 116.993 312.814C116.993 312.814 114.634 269.759 114.319 267.559C114.005 265.359 112.076 261.642 103.298 258.159C94.5203 254.675 92.2767 253.711 92.2767 253.711Z" fill="#00FFED"></path><path d="M108.949 283.405C108.949 283.405 120.163 302.255 143.125 307.45C143.125 307.45 144.705 311.867 149.834 311.864C154.962 311.86 157.642 306.652 157.642 306.652C157.642 306.652 158.746 306.258 160.559 304.363L151.485 302.553C151.485 302.553 152.831 298.243 144.384 301.136C144.384 301.136 129.268 297.277 117.546 279.033" fill="#F0C7B3"></path><path d="M144.383 301.136C144.383 301.136 146.442 299.221 148.498 298.759C148.498 298.759 151.275 297.602 152.618 295.267C152.901 294.776 153.53 294.555 154.053 294.774C154.481 294.952 154.876 295.369 154.924 296.287C155.033 298.381 151.483 302.554 151.483 302.554L161.199 304.292C162.403 304.507 162.765 306.099 161.741 306.769C160.796 307.385 159.314 307.853 157.002 307.665C151.36 307.206 151.569 307.055 151.569 307.055L146.975 305.245L144.383 301.136Z" fill="#F0C7B3"></path><path d="M115.735 279.955L109.153 283.3L109.098 283.644C109.725 284.636 112.379 288.632 117.094 293.157L119.378 281.703C118.998 281.172 118.622 280.615 118.247 280.056L115.735 279.955Z" fill="#F0AD9B"></path><path d="M99.9479 271.251C101.711 275.273 104.36 280.2 108.315 286.125C108.315 286.125 117.66 286.383 120.847 277.76C120.847 277.76 117 270.268 109.955 264.011C104.833 259.461 97.1974 264.975 99.9479 271.251Z" fill="#0089E3"></path><path d="M105.376 232.934C105.376 232.934 104.105 234.265 105.992 234.516C105.561 233.975 107.855 233.143 107.431 232.596C107.205 232.304 106.977 232.012 106.741 231.727C106.492 231.426 105.678 230.56 106.824 231.742C104.971 229.83 104.23 227.457 105.201 225.135C104.669 224.208 110.358 219.707 110.147 218.622C108.294 218.414 91.6435 217.606 90.901 229.049C90.901 229.049 85.3783 238.048 92.1286 245.208L92.2785 247.58L98.467 249.64C98.467 249.64 103.299 247.479 103.299 242.344C103.299 242.344 99.3652 241.501 100.607 237.934C101.367 235.745 104.514 235.594 105.379 238.048L106.244 241.117C106.244 241.117 109.185 237.848 107.4 234.366L105.376 232.934Z" fill="#E93800"></path><path d="M107.398 234.365L110.146 231.312C110.146 231.312 112.366 231.725 115.063 230.182C115.063 230.182 120.513 226.454 118.27 219.027L114.001 220.211C114.001 220.211 115.175 216.204 111.416 214.34L110.382 217.826L103.972 218.744L95.7305 224.714" fill="#E93800"></path><defs><linearGradient id="paint0_linear_2099_8359" x1="135.017" y1="477.039" x2="273.49" y2="248.138" gradientUnits="userSpaceOnUse"><stop stop-color="#111581" stop-opacity="0"></stop><stop offset="0.1164" stop-color="#111A84" stop-opacity="0.1171"></stop><stop offset="0.247" stop-color="#10278B" stop-opacity="0.2485"></stop><stop offset="0.3845" stop-color="#0E3E97" stop-opacity="0.3869"></stop><stop offset="0.5269" stop-color="#0C5DA9" stop-opacity="0.5302"></stop><stop offset="0.673" stop-color="#0986BF" stop-opacity="0.6772"></stop><stop offset="0.8222" stop-color="#05B7DA" stop-opacity="0.8273"></stop><stop offset="0.9712" stop-color="#01F1FA" stop-opacity="0.9773"></stop><stop offset="0.9938" stop-color="#00FAFF"></stop></linearGradient><linearGradient id="paint1_linear_2099_8359" x1="260.977" y1="144.518" x2="362.769" y2="184.736" gradientUnits="userSpaceOnUse"><stop stop-color="#BAFFFF"></stop><stop offset="1" stop-color="#06E6FF" stop-opacity="0"></stop></linearGradient><linearGradient id="paint2_linear_2099_8359" x1="74.1591" y1="431.1" x2="172.741" y2="367.279" gradientUnits="userSpaceOnUse"><stop stop-color="#111581" stop-opacity="0"></stop><stop offset="0.1609" stop-color="#0E3C96" stop-opacity="0.1619"></stop><stop offset="0.7402" stop-color="#04C4E1" stop-opacity="0.7448"></stop><stop offset="0.9938" stop-color="#00FAFF"></stop></linearGradient><linearGradient id="paint3_linear_2099_8359" x1="143.734" y1="388.398" x2="193.84" y2="355.959" gradientUnits="userSpaceOnUse"><stop stop-color="#111581" stop-opacity="0"></stop><stop offset="0.1609" stop-color="#0E3C96" stop-opacity="0.1619"></stop><stop offset="0.7402" stop-color="#04C4E1" stop-opacity="0.7448"></stop><stop offset="0.9938" stop-color="#00FAFF"></stop></linearGradient><linearGradient id="paint4_linear_2099_8359" x1="184.466" y1="363.583" x2="216.486" y2="342.853" gradientUnits="userSpaceOnUse"><stop stop-color="#111581" stop-opacity="0"></stop><stop offset="0.1609" stop-color="#0E3C96" stop-opacity="0.1619"></stop><stop offset="0.7402" stop-color="#04C4E1" stop-opacity="0.7448"></stop><stop offset="0.9938" stop-color="#00FAFF"></stop></linearGradient></defs></svg>