<svg xmlns="http://www.w3.org/2000/svg" width="433" height="281" viewBox="0 0 433 281" fill="none"><path d="M372.355 101.641C400.204 101.641 422.781 79.0647 422.781 51.2155C422.781 23.3663 400.204 0.790039 372.355 0.790039C344.506 0.790039 321.93 23.3663 321.93 51.2155C321.93 79.0647 344.506 101.641 372.355 101.641Z" fill="#1B2E40"></path><path d="M58.7653 195.612C86.6145 195.612 109.191 173.036 109.191 145.187C109.191 117.337 86.6145 94.7612 58.7653 94.7612C30.9161 94.7612 8.33984 117.337 8.33984 145.187C8.33984 173.036 30.9161 195.612 58.7653 195.612Z" fill="#1B2E40"></path><path d="M123.07 101.641C150.919 101.641 173.495 79.0647 173.495 51.2155C173.495 23.3663 150.919 0.790039 123.07 0.790039C95.2208 0.790039 72.6445 23.3663 72.6445 51.2155C72.6445 79.0647 95.2208 101.641 123.07 101.641Z" fill="#1B2E40"></path><path d="M422.251 121.38C427.736 114.521 426.623 104.514 419.764 99.029C412.905 93.5437 402.898 94.6571 397.413 101.516C391.927 108.375 393.041 118.382 399.9 123.867C406.758 129.352 416.765 128.239 422.251 121.38Z" fill="#1B2E40"></path><path d="M295.093 32.593C303.875 32.593 310.994 25.4737 310.994 16.6915C310.994 7.90938 303.875 0.790039 295.093 0.790039C286.311 0.790039 279.191 7.90938 279.191 16.6915C279.191 25.4737 286.311 32.593 295.093 32.593Z" fill="#1B2E40"></path><path d="M421.669 204.264C426.668 200.434 427.616 193.278 423.786 188.279C419.957 183.28 412.8 182.332 407.801 186.161C402.802 189.991 401.854 197.148 405.684 202.146C409.513 207.145 416.67 208.093 421.669 204.264Z" fill="#1B2E40"></path><path d="M189.359 27.5538C196.968 27.5538 203.136 21.3857 203.136 13.7769C203.136 6.16813 196.968 0 189.359 0C181.75 0 175.582 6.16813 175.582 13.7769C175.582 21.3857 181.75 27.5538 189.359 27.5538Z" fill="#1B2E40"></path><path d="M24.6128 89.484C32.2216 89.484 38.3897 83.3159 38.3897 75.7071C38.3897 68.0983 32.2216 61.9302 24.6128 61.9302C17.0041 61.9302 10.8359 68.0983 10.8359 75.7071C10.8359 83.3159 17.0041 89.484 24.6128 89.484Z" fill="#1B2E40"></path><path d="M419.046 161.332C422.169 148.347 414.175 135.288 401.19 132.165C388.205 129.041 375.147 137.035 372.023 150.02C368.899 163.005 376.894 176.064 389.878 179.187C402.863 182.311 415.922 174.317 419.046 161.332Z" fill="#1B2E40"></path><path d="M240.884 48.5476C254.239 48.5476 265.065 37.7214 265.065 24.3666C265.065 11.0118 254.239 0.185547 240.884 0.185547C227.529 0.185547 216.703 11.0118 216.703 24.3666C216.703 37.7214 227.529 48.5476 240.884 48.5476Z" fill="#1B2E40"></path><path d="M52.0374 241.957C61.4806 232.514 61.4806 217.204 52.0374 207.76C42.5942 198.317 27.2838 198.317 17.8406 207.76C8.39741 217.204 8.39741 232.514 17.8406 241.957C27.2838 251.4 42.5942 251.4 52.0374 241.957Z" fill="#1B2E40"></path><path d="M41.3607 48.5476C54.7155 48.5476 65.5417 37.7214 65.5417 24.3666C65.5417 11.0118 54.7155 0.185547 41.3607 0.185547C28.0059 0.185547 17.1797 11.0118 17.1797 24.3666C17.1797 37.7214 28.0059 48.5476 41.3607 48.5476Z" fill="#1B2E40"></path><path d="M371.357 236.975C384.712 236.975 395.538 226.149 395.538 212.794C395.538 199.439 384.712 188.613 371.357 188.613C358.002 188.613 347.176 199.439 347.176 212.794C347.176 226.149 358.002 236.975 371.357 236.975Z" fill="#1B2E40"></path><path d="M433 226.164H0V280.53H433V226.164Z" fill="#30506E"></path><path d="M82.473 141.204C85.2774 137.143 84.2583 131.577 80.1969 128.773C76.1354 125.968 70.5696 126.988 67.7652 131.049C64.9609 135.11 65.9799 140.676 70.0414 143.481C74.1028 146.285 79.6686 145.266 82.473 141.204Z" fill="#AAB1BA"></path><path d="M103.231 130.758C102.885 128.941 102.37 127.198 101.712 125.539L106.796 123.521C105.189 119.473 102.849 115.816 99.8412 112.654L95.8766 116.424C94.6221 115.105 93.248 113.912 91.7741 112.857L94.9575 108.407C91.4098 105.869 87.4701 104.055 83.2486 103.017L81.9421 108.331C80.1951 107.902 78.3961 107.634 76.5625 107.544L76.8321 102.079C74.1776 101.948 71.4959 102.131 68.8632 102.623L68.6513 102.667C67.0769 103.027 65.5349 103.468 64.0667 103.981L65.8386 109.056C64.0927 109.653 62.4358 110.411 60.877 111.306L58.2616 106.559C54.3537 108.712 51.0109 111.505 48.3257 114.861L52.6996 118.36C51.579 119.776 50.5935 121.296 49.7569 122.898L44.7774 120.371C42.8272 124.212 41.6523 128.399 41.2852 132.815L46.6549 133.262C46.476 135.051 46.4627 136.876 46.633 138.721L41.3342 139.24C41.4358 140.281 41.5854 141.332 41.7776 142.361C42.3763 145.561 43.3994 148.65 44.8179 151.541L49.6571 149.167C50.493 150.8 51.4774 152.332 52.5899 153.752L48.1964 157.055C50.8677 160.608 54.1406 163.513 57.9251 165.69L60.7194 160.835C62.277 161.744 63.9212 162.507 65.6325 163.11L63.8958 168.358C67.8408 169.664 72.0969 170.243 76.5452 170.079L76.3478 164.705C77.6843 164.647 79.0318 164.499 80.3845 164.246C80.8411 164.161 81.2926 164.063 81.7401 163.957L82.9992 169.275C87.2496 168.269 91.2066 166.487 94.7607 163.98L91.6061 159.509C93.0979 158.457 94.476 157.27 95.7288 155.967L99.672 159.759C102.69 156.621 105.053 152.987 106.696 148.956L101.63 146.891C102.311 145.219 102.837 143.477 103.193 141.684L108.56 142.751C109.406 138.493 109.427 134.154 108.624 129.855L108.605 129.753L103.231 130.758ZM79.5543 159.801C66.4754 162.247 53.8907 153.626 51.4451 140.548C48.9995 127.469 57.6196 114.884 70.698 112.439C83.7769 109.993 96.3616 118.613 98.8072 131.692C101.253 144.771 92.6326 157.355 79.5543 159.801Z" fill="#AAB1BA"></path><path d="M69.8641 107.993C54.3298 110.898 44.0919 125.845 46.9965 141.379C49.9011 156.913 64.8488 167.151 80.3825 164.247C95.9168 161.342 106.155 146.394 103.25 130.861C100.346 115.327 85.3984 105.088 69.8641 107.993ZM77.5016 148.84C70.4766 150.153 63.7172 145.523 62.4032 138.499C61.0898 131.474 65.7194 124.714 72.7444 123.4C79.7694 122.087 86.5294 126.717 87.8428 133.742C89.1568 140.767 84.5266 147.527 77.5016 148.84Z" fill="#E7EAED"></path><path d="M92.0966 132.946C90.3438 123.572 81.323 117.394 71.9488 119.146C62.5741 120.899 56.396 129.919 58.1488 139.294C59.9016 148.669 68.9224 154.848 78.2966 153.094C87.6708 151.341 93.8494 142.321 92.0966 132.946ZM62.4026 138.499C61.0892 131.474 65.7188 124.714 72.7438 123.4C79.7688 122.087 86.5288 126.716 87.8422 133.741C89.1557 140.766 84.526 147.526 77.501 148.84C70.4755 150.153 63.716 145.524 62.4026 138.499Z" fill="#C4CDD6"></path><path d="M266.875 55.3612C269.882 52.2388 269.79 47.2692 266.667 44.2613C263.545 41.2533 258.575 41.3461 255.567 44.4685C252.559 47.5909 252.652 52.5605 255.775 55.5684C258.897 58.5763 263.867 58.4835 266.875 55.3612Z" fill="#AAB1BA"></path><path d="M286.339 49.1787C286.292 47.5541 286.089 45.9704 285.749 44.4399L290.439 43.399C289.61 39.6637 288.09 36.1662 285.922 33.0041L281.958 35.7216C281.054 34.403 280.028 33.1762 278.897 32.0561L282.278 28.6401C279.554 25.9439 276.39 23.8222 272.874 22.3338L271 26.7603C269.545 26.1442 268.022 25.6616 266.444 25.3279L267.44 20.6255C265.155 20.1417 262.804 19.9269 260.452 19.9876L260.262 19.9962C258.847 20.0886 257.448 20.2572 256.103 20.4968L256.933 25.1455C255.336 25.4197 253.793 25.8463 252.316 26.4052L250.71 21.9239C247.02 23.2466 243.732 25.2032 240.935 27.74L244.241 31.3847C243.072 32.4568 242.006 33.6374 241.057 34.9105L237.09 32.0244C234.864 35.0848 233.261 38.5517 232.327 42.3304L236.922 43.466C236.518 44.993 236.252 46.5743 236.142 48.1978L231.475 47.9097C231.418 48.8277 231.401 49.7589 231.424 50.678C231.498 53.537 231.954 56.3584 232.782 59.0638L237.31 57.6788C237.807 59.2116 238.448 60.678 239.215 62.0642L234.944 64.3175C236.766 67.7706 239.2 70.7461 242.179 73.1628L245.279 69.3415C246.504 70.3466 247.824 71.2374 249.224 71.9995L246.986 76.3093C250.225 77.9911 253.836 79.0869 257.717 79.5649L258.294 74.877C259.462 75.0121 260.651 75.0721 261.859 75.0415C262.267 75.0311 262.672 75.0092 263.075 74.9797L263.426 79.7675C267.253 79.487 270.933 78.4934 274.365 76.8139L272.252 72.4972C273.692 71.7923 275.053 70.9546 276.321 69.9996L279.212 73.8383C282.267 71.5371 284.823 68.7145 286.809 65.4474L282.703 62.9504C283.526 61.5954 284.225 60.1578 284.784 58.6521L289.29 60.3247C290.617 56.7498 291.24 52.9902 291.142 49.1492L291.139 49.0569L286.339 49.1787ZM261.757 71.0689C250.073 71.3673 240.359 62.1375 240.061 50.4534C239.762 38.7694 248.992 29.0557 260.676 28.7572C272.36 28.4588 282.073 37.6886 282.372 49.3727C282.671 61.0567 273.441 70.7704 261.757 71.0689Z" fill="#AAB1BA"></path><path d="M260.568 24.7857C246.69 25.1402 235.728 36.6776 236.083 50.5556C236.437 64.4329 247.974 75.3959 261.852 75.0408C275.73 74.6858 286.692 63.1489 286.338 49.271C285.983 35.3936 274.445 24.4312 260.568 24.7857ZM261.5 61.2766C255.225 61.4371 250.007 56.4796 249.846 50.204C249.686 43.9283 254.643 38.7104 260.919 38.5499C267.195 38.3894 272.413 43.347 272.573 49.6232C272.733 55.8993 267.776 61.1161 261.5 61.2766Z" fill="#E7EAED"></path><path d="M260.835 35.0699C252.638 35.2795 246.163 42.0943 246.372 50.2919C246.582 58.4894 253.397 64.9648 261.594 64.7552C269.792 64.5456 276.267 57.7308 276.057 49.5332C275.848 41.3357 269.033 34.8603 260.835 35.0699ZM261.505 61.2762C255.23 61.4367 250.012 56.4791 249.851 50.2035C249.691 43.9279 254.648 38.71 260.924 38.5495C267.2 38.389 272.418 43.3465 272.578 49.6227C272.738 55.8989 267.781 61.1157 261.505 61.2762Z" fill="#C4CDD6"></path><path d="M396.195 150.192C396.283 148.198 396.177 146.24 395.899 144.335L401.737 143.483C401.058 138.833 399.512 134.412 397.14 130.344L392.041 133.315C391.052 131.618 389.906 130.024 388.622 128.55L393.071 124.671C389.978 121.124 386.294 118.24 382.121 116.1L379.427 121.352C377.7 120.467 375.878 119.739 373.976 119.187L375.619 113.517C372.864 112.719 370.004 112.244 367.117 112.106L366.884 112.099C365.142 112.085 363.413 112.165 361.745 112.338L362.342 118.106C360.361 118.299 358.433 118.682 356.574 119.233L355.009 113.6C350.371 114.888 346.167 116.988 342.514 119.843L346.235 124.605C344.706 125.813 343.294 127.163 342.017 128.637L337.418 124.745C334.415 128.292 332.14 132.395 330.656 136.938L336.182 138.743C335.549 140.577 335.08 142.49 334.801 144.469L329.109 143.695C328.957 144.814 328.852 145.953 328.799 147.082C328.631 150.59 328.937 154.086 329.706 157.475L335.377 156.186C335.848 158.109 336.5 159.962 337.315 161.729L331.881 164.104C333.801 168.498 336.515 172.362 339.945 175.59L344.086 171.188C345.496 172.53 347.032 173.74 348.678 174.799L345.549 179.877C349.366 182.229 353.689 183.895 358.4 184.831L359.529 179.14C360.946 179.411 362.398 179.592 363.881 179.663C364.381 179.687 364.88 179.696 365.376 179.697L365.374 185.593C370.086 185.594 374.683 184.708 379.038 182.96L376.839 177.482C378.666 176.749 380.409 175.845 382.048 174.79L385.243 179.752C389.192 177.209 392.578 173.982 395.305 170.159L390.499 166.731C391.63 165.146 392.616 163.448 393.436 161.654L398.804 164.108C400.752 159.849 401.853 155.3 402.079 150.587L402.084 150.474L396.195 150.192ZM364.114 174.789C349.777 174.102 338.71 161.923 339.397 147.585C340.084 133.246 352.263 122.181 366.601 122.867C380.939 123.554 392.005 135.734 391.319 150.072C390.632 164.41 378.452 175.476 364.114 174.789Z" fill="#C4CDD6"></path><path d="M366.836 117.994C349.806 117.178 335.34 130.322 334.524 147.351C333.709 164.381 346.853 178.847 363.882 179.663C380.911 180.479 395.378 167.335 396.193 150.306C397.009 133.276 383.865 118.81 366.836 117.994ZM364.691 162.773C356.989 162.404 351.045 155.862 351.414 148.161C351.783 140.46 358.325 134.516 366.026 134.884C373.728 135.253 379.672 141.796 379.303 149.497C378.934 157.198 372.392 163.142 364.691 162.773Z" fill="#E7EAED"></path><path d="M383.607 149.703C384.09 139.626 376.312 131.065 366.235 130.583C356.158 130.1 347.598 137.877 347.115 147.955C346.632 158.032 354.41 166.592 364.487 167.075C374.564 167.558 383.124 159.78 383.607 149.703ZM364.693 162.773C356.991 162.404 351.047 155.862 351.416 148.161C351.785 140.46 358.327 134.516 366.028 134.885C373.73 135.253 379.674 141.795 379.305 149.497C378.936 157.198 372.394 163.142 364.693 162.773Z" fill="#C4CDD6"></path><path d="M206.902 43.1961C206.806 41.1645 206.516 39.1882 206.056 37.2813L211.9 35.8726C210.778 31.2181 208.798 26.8772 206.014 22.9698L201.116 26.4598C199.955 24.8305 198.645 23.3191 197.204 21.9433L201.356 17.5937C197.888 14.2827 193.882 11.6997 189.448 9.91686L187.204 15.4968C185.37 14.759 183.453 14.1897 181.472 13.8075L182.611 7.90197C179.743 7.34888 176.797 7.13296 173.855 7.2617L173.618 7.27671C171.849 7.42451 170.102 7.66699 168.425 7.99723L169.568 13.7942C167.576 14.1735 165.655 14.7416 163.82 15.4748L161.709 9.90474C157.123 11.6431 153.053 14.1655 149.612 17.402L153.831 21.8867C152.392 23.2544 151.085 24.7555 149.926 26.3697L144.899 22.8485C142.183 26.7277 140.256 31.1015 139.173 35.8495L144.947 37.1664C144.476 39.0861 144.179 41.0703 144.079 43.1037L138.233 42.8485C138.183 43.998 138.183 45.1636 138.233 46.3131C138.389 49.888 139.025 53.4074 140.121 56.7738L145.755 54.9385C146.412 56.8454 147.246 58.6646 148.238 60.3816L142.946 63.2971C145.303 67.5757 148.415 71.2435 152.196 74.1995L155.988 69.3487C157.543 70.579 159.214 71.6632 160.983 72.5852L158.281 78.0272C162.372 80.0582 166.914 81.3468 171.78 81.8572L172.396 75.9788C173.86 76.1214 175.349 76.1699 176.86 76.1041C177.37 76.0816 177.876 76.0452 178.38 75.999L178.927 81.9808C183.708 81.5431 188.29 80.217 192.546 78.0381L189.805 72.6857C191.591 71.7712 193.275 70.6922 194.839 69.4688L198.544 74.2064C202.314 71.2585 205.448 67.6692 207.859 63.5373L202.665 60.5063C203.665 58.7922 204.506 56.9782 205.171 55.0822L210.847 57.0729C212.426 52.5708 213.12 47.8523 212.91 43.05L212.905 42.9351L206.902 43.1961ZM176.642 71.1379C162.032 71.7758 149.671 60.448 149.033 45.8374C148.395 31.2268 159.722 18.8655 174.333 18.2276C188.944 17.5902 201.305 28.9175 201.943 43.528C202.58 58.1386 191.253 70.4999 176.642 71.1379Z" fill="#C4CDD6"></path><path d="M174.12 13.2605C156.766 14.0179 143.312 28.7001 144.07 46.0536C144.827 63.4071 159.509 76.8612 176.863 76.1038C194.217 75.3463 207.67 60.6641 206.913 43.3107C206.156 25.9572 191.474 12.503 174.12 13.2605ZM176.112 58.8923C168.264 59.2347 161.624 53.1507 161.282 45.3025C160.939 37.4542 167.023 30.8149 174.871 30.4725C182.719 30.1301 189.359 36.2141 189.701 44.0623C190.044 51.91 183.959 58.5494 176.112 58.8923Z" fill="#E7EAED"></path><path d="M174.12 13.2605C156.766 14.0179 143.312 28.7001 144.07 46.0536C144.827 63.4071 159.509 76.8612 176.863 76.1038C194.217 75.3463 207.67 60.6641 206.913 43.3107C206.156 25.9572 191.474 12.503 174.12 13.2605ZM176.112 58.8923C168.264 59.2347 161.624 53.1507 161.282 45.3025C160.939 37.4542 167.023 30.8149 174.871 30.4725C182.719 30.1301 189.359 36.2141 189.701 44.0623C190.044 51.91 183.959 58.5494 176.112 58.8923Z" fill="#E7EAED"></path><path d="M174.618 24.6342C163.546 25.1174 154.962 34.4852 155.445 45.5573C155.928 56.6294 165.296 65.2138 176.368 64.7306C187.44 64.2473 196.025 54.8795 195.542 43.8074C195.058 32.7353 185.691 24.151 174.618 24.6342ZM176.114 58.8926C168.266 59.2349 161.626 53.151 161.284 45.3027C160.941 37.4544 167.025 30.8151 174.874 30.4728C182.722 30.1304 189.361 36.2143 189.704 44.0626C190.046 51.9103 183.961 58.5496 176.114 58.8926Z" fill="#C4CDD6"></path><path opacity="0.15" d="M288.78 256.287H143.869C139.951 256.287 136.746 253.082 136.746 249.164C136.746 245.246 139.951 242.041 143.869 242.041H288.78C292.698 242.041 295.904 245.246 295.904 249.164C295.904 253.082 292.698 256.287 288.78 256.287Z" fill="black"></path><path d="M340.3 203.433H92.6472C87.1025 203.433 82.5664 198.896 82.5664 193.352V57.8337C82.5664 52.289 87.1025 47.7529 92.6472 47.7529H340.3C345.845 47.7529 350.381 52.289 350.381 57.8337V193.352C350.381 198.896 345.844 203.433 340.3 203.433Z" fill="#D1D3D6"></path><path d="M82.5664 188.616V193.296C82.5664 198.871 87.0783 203.432 92.5929 203.432H340.354C345.869 203.432 350.381 198.871 350.381 193.296V188.616H82.5664Z" fill="#E7EAED"></path><path d="M336.906 180.577H96.0336C93.405 180.577 91.2539 178.427 91.2539 175.797V61.8353C91.2539 59.2067 93.4045 57.0562 96.0336 57.0562H336.906C339.535 57.0562 341.686 59.2067 341.686 61.8353V175.798C341.686 178.427 339.535 180.577 336.906 180.577Z" fill="#30506E"></path><path d="M313.399 57.0562H119.543V180.578H313.399V57.0562Z" fill="#21384D"></path><path d="M308.132 57.0562H124.816V180.578H308.132V57.0562Z" fill="#609EC7"></path><path d="M308.132 95.0625H124.816V142.57H308.132V95.0625Z" fill="white"></path><path d="M263.103 234.938H169.883L172.81 203.433H260.176L263.103 234.938Z" fill="#D1D3D6"></path><path opacity="0.1" d="M261.096 213.377L260.173 203.433H172.807L172.383 207.995L261.096 213.377Z" fill="black"></path><path d="M143.238 243.368H289.756L263.107 234.938H169.887L143.238 243.368Z" fill="#E7EAED"></path><path d="M289.756 243.368H143.238V249.185H289.756V243.368Z" fill="#D1D3D6"></path><path opacity="0.2" d="M229.584 59.3301H97.9686C95.4098 59.3301 93.3164 61.4235 93.3164 63.9822V132.467C131.573 111.774 190.774 80.0789 229.584 59.3301Z" fill="white"></path><path opacity="0.15" d="M310.35 197.01H236.158C234.079 197.01 232.379 195.31 232.379 193.231V156.757C232.379 154.679 234.079 152.978 236.158 152.978H310.35C312.428 152.978 314.129 154.678 314.129 156.238V192.712C314.129 195.309 312.428 197.01 310.35 197.01Z" fill="black"></path><path d="M312.855 194.671H238.662C236.584 194.671 234.883 192.971 234.883 190.892V154.418C234.883 152.34 236.583 150.639 238.662 150.639H312.854C314.932 150.639 316.633 152.339 316.633 153.899V190.373C316.633 192.97 314.933 194.671 312.855 194.671Z" fill="#FAFDFF"></path><path d="M245.464 172.831H240.621V188.042H245.464V172.831Z" fill="#FFDD00"></path><path opacity="0.15" d="M245.457 172.831H244.246V188.042H245.457V172.831Z" fill="black"></path><path d="M256.522 161.419H251.68V188.042H256.522V161.419Z" fill="#ADCF65"></path><path opacity="0.15" d="M256.515 161.419H255.305V188.042H256.515V161.419Z" fill="black"></path><path d="M267.573 157.27H262.73V188.041H267.573V157.27Z" fill="#F54747"></path><path opacity="0.15" d="M267.566 157.27H266.355V188.041H267.566V157.27Z" fill="black"></path><path d="M278.64 171.274H273.797V188.041H278.64V171.274Z" fill="#609EC7"></path><path opacity="0.15" d="M278.633 171.274H277.422V188.041H278.633V171.274Z" fill="black"></path><path d="M289.706 165.569H284.863V188.042H289.706V165.569Z" fill="#FFDD00"></path><path opacity="0.15" d="M289.699 165.569H288.488V188.042H289.699V165.569Z" fill="black"></path><path d="M300.757 158.307H295.914V188.041H300.757V158.307Z" fill="#ADCF65"></path><path opacity="0.15" d="M300.75 158.307H299.539V188.041H300.75V158.307Z" fill="black"></path><path d="M311.815 168.681H306.973V188.041H311.815V168.681Z" fill="#F54747"></path><path opacity="0.15" d="M311.808 168.681H310.598V188.041H311.808V168.681Z" fill="black"></path><path opacity="0.15" d="M354.716 145.7C357.612 130.404 347.559 115.655 332.262 112.76C316.966 109.864 302.217 119.917 299.322 135.213C296.426 150.51 306.479 165.258 321.775 168.154C337.072 171.05 351.82 160.997 354.716 145.7Z" fill="black"></path><path d="M335.225 164.245C350.399 160.757 359.872 145.629 356.385 130.456C352.897 115.282 337.769 105.808 322.596 109.296C307.422 112.783 297.948 127.911 301.436 143.085C304.923 158.259 320.051 167.732 335.225 164.245Z" fill="#FFDD00"></path><path d="M332.12 158.684C344.236 156.908 352.616 145.646 350.84 133.531C349.063 121.416 337.801 113.035 325.686 114.812C313.571 116.588 305.19 127.85 306.967 139.965C308.744 152.08 320.005 160.461 332.12 158.684Z" fill="#FFA91D"></path><path opacity="0.15" d="M181.018 180.475C185.948 190.9 181.493 203.347 171.068 208.276C160.643 213.206 148.196 208.752 143.267 198.327C138.337 187.902 142.792 175.454 153.217 170.525C163.642 165.595 176.089 170.05 181.018 180.475Z" fill="black"></path><path d="M171.048 209.985C180.957 204.087 184.209 191.272 178.31 181.363C172.412 171.454 159.597 168.203 149.688 174.101C139.779 180 136.528 192.814 142.426 202.723C148.325 212.632 161.139 215.884 171.048 209.985Z" fill="#FFDD00"></path><path d="M175.173 199.155C179.1 190.979 175.656 181.169 167.481 177.241C159.305 173.314 149.495 176.758 145.568 184.933C141.641 193.109 145.084 202.919 153.26 206.846C161.435 210.773 171.246 207.33 175.173 199.155Z" fill="#FFA91D"></path><path opacity="0.15" d="M139.765 270.218H48.4864C44.8717 270.218 41.9141 267.26 41.9141 263.646C41.9141 260.031 44.8717 257.073 48.4864 257.073H139.765C143.379 257.073 146.337 260.031 146.337 263.646C146.337 267.26 143.38 270.218 139.765 270.218Z" fill="black"></path><path d="M133.784 253.891L128.371 177.037H60.2379L54.8242 253.891H133.784Z" fill="#B83333"></path><path d="M70.041 179.483L60.2379 177.037L54.8242 253.891L75.4546 256.337L70.041 179.483Z" fill="#962A2A"></path><path d="M70.029 179.483L57.4131 185.097L52 264.223L75.4426 256.337L70.029 179.483Z" fill="#6E1F1F"></path><path d="M118.546 179.483L128.35 177.037L133.763 253.891L113.133 256.337L118.546 179.483Z" fill="#962A2A"></path><path d="M118.546 179.483L131.162 185.097L136.575 264.223L113.133 256.337L118.546 179.483Z" fill="#6E1F1F"></path><path d="M131.171 185.097H57.4131L52 264.223H136.585L131.171 185.097Z" fill="#F54747"></path><path d="M112.689 239.206C119.484 239.206 124.992 233.698 124.992 226.904C124.992 220.11 119.484 214.602 112.689 214.602C105.895 214.602 100.387 220.11 100.387 226.904C100.387 233.698 105.895 239.206 112.689 239.206Z" fill="#609EC7"></path><path d="M94.8272 226.504C96.2988 217.349 90.0699 208.734 80.9145 207.262C71.7591 205.791 63.1441 212.02 61.6725 221.175C60.2008 230.331 66.4297 238.945 75.5852 240.417C84.7406 241.889 93.3555 235.66 94.8272 226.504Z" fill="#FFDD00"></path><path d="M108.435 244.137C109.595 237.045 104.785 230.355 97.6922 229.196C90.5998 228.037 83.9105 232.847 82.7513 239.939C81.5921 247.032 86.4019 253.721 93.4944 254.88C100.587 256.039 107.276 251.23 108.435 244.137Z" fill="#FAFDFF"></path><path d="M82.12 192.032C82.12 193.097 81.2563 193.961 80.1912 193.961C79.1254 193.961 78.2617 193.097 78.2617 192.032C78.2617 190.966 79.1254 190.103 80.1912 190.103C81.2563 190.103 82.12 190.966 82.12 192.032Z" fill="#6E1F1F"></path><path d="M110.335 192.032C110.335 193.097 109.471 193.961 108.406 193.961C107.34 193.961 106.477 193.097 106.477 192.032C106.477 190.966 107.34 190.103 108.406 190.103C109.471 190.103 110.335 190.966 110.335 192.032Z" fill="#6E1F1F"></path><path d="M108.403 192.032V204.411C108.403 212.17 102.056 218.517 94.2974 218.517C86.5392 218.517 80.1914 212.17 80.1914 204.411V192.032" stroke="#FAFDFF" stroke-width="1.13631" stroke-miterlimit="10" stroke-linecap="round" stroke-linejoin="round"></path><path opacity="0.15" d="M380.835 268.654H319.046C315.568 268.654 312.723 265.809 312.723 262.331C312.723 258.854 315.568 256.008 319.046 256.008H380.835C384.312 256.008 387.158 258.853 387.158 262.331C387.157 265.809 384.312 268.654 380.835 268.654Z" fill="black"></path><path d="M376.43 255.015L372.597 194.474H324.349L320.516 255.015H376.43Z" fill="#538AAD"></path><path d="M331.291 196.206L324.349 194.474L320.516 255.015L335.124 256.747L331.291 196.206Z" fill="#487896"></path><path d="M331.291 196.206L322.357 200.181L318.523 262.331L335.124 256.746L331.291 196.206Z" fill="#3A6078"></path><path d="M365.654 196.206L372.596 194.474L376.43 255.015L361.82 256.747L365.654 196.206Z" fill="#487896"></path><path d="M365.654 196.206L374.588 200.181L378.421 262.331L361.82 256.746L365.654 196.206Z" fill="#3A6078"></path><path d="M374.588 200.181H322.357L318.523 262.331H378.422L374.588 200.181Z" fill="#609EC7"></path><path d="M366.347 235.885C370.707 231.525 370.707 224.456 366.347 220.096C361.987 215.736 354.918 215.736 350.558 220.096C346.198 224.456 346.198 231.525 350.558 235.885C354.918 240.245 361.987 240.245 366.347 235.885Z" fill="#ADCF65"></path><path d="M328.293 238.097L332.462 253.826L344.764 256.093L361.14 226.244L328.293 238.097Z" fill="#FAFDFF"></path><path d="M338.487 206.458C339.241 206.458 339.853 205.846 339.853 205.092C339.853 204.338 339.241 203.726 338.487 203.726C337.733 203.726 337.121 204.338 337.121 205.092C337.121 205.846 337.733 206.458 338.487 206.458Z" fill="#3A6078"></path><path d="M359.837 205.092C359.837 205.847 359.226 206.458 358.471 206.458C357.717 206.458 357.105 205.846 357.105 205.092C357.105 204.337 357.717 203.726 358.471 203.726C359.226 203.725 359.837 204.337 359.837 205.092Z" fill="#3A6078"></path><path d="M358.458 205.092V213.859C358.458 219.352 353.963 223.848 348.469 223.848C342.976 223.848 338.48 219.352 338.48 213.859V205.092" stroke="#FAFDFF" stroke-width="0.804629" stroke-miterlimit="10" stroke-linecap="round" stroke-linejoin="round"></path><path opacity="0.15" d="M82.6094 57.8347V100.684C86.1432 101.552 89.8335 102.021 93.6347 102.021C119.088 102.021 139.721 81.3882 139.721 55.9353C139.721 53.1416 139.458 50.4108 138.982 47.7539H92.6902C87.1461 47.7539 82.6094 52.29 82.6094 57.8347Z" fill="black"></path><path d="M93.6417 97.8391C116.784 97.8391 135.545 79.0783 135.545 55.9356C135.545 32.793 116.784 14.0322 93.6417 14.0322C70.4991 14.0322 51.7383 32.793 51.7383 55.9356C51.7383 79.0783 70.4991 97.8391 93.6417 97.8391Z" fill="#F54747"></path><path d="M120.085 82.378C134.689 67.7742 134.689 44.0969 120.085 29.4931C105.481 14.8894 81.804 14.8894 67.2002 29.4931C52.5965 44.0969 52.5965 67.7742 67.2002 82.378C81.804 96.9817 105.481 96.9817 120.085 82.378Z" stroke="white" stroke-width="0.592229" stroke-miterlimit="10"></path><path opacity="0.2" d="M116.116 75.173L104.981 64.038C104.992 62.7303 104.503 61.4192 103.511 60.4267L101.773 58.689C105.568 51.8025 104.551 42.9734 98.7117 37.1348C91.6342 30.0573 80.1591 30.0573 73.0816 37.1348C66.0041 44.2123 66.0041 55.6874 73.0816 62.7649C78.9202 68.6035 87.7499 69.6208 94.6357 65.826L96.3735 67.5637C97.366 68.5562 98.6771 69.0446 99.9847 69.0336L111.12 80.1687C112.494 81.5427 114.742 81.5427 116.116 80.1687C117.49 78.7952 117.49 76.547 116.116 75.173ZM76.8348 59.0117C71.8305 54.0068 71.8305 45.893 76.8348 40.8881C81.8397 35.8837 89.9536 35.8837 94.9585 40.8881C99.9628 45.8924 99.9628 54.0068 94.9585 59.0117C89.9536 64.016 81.8397 64.016 76.8348 59.0117Z" fill="black"></path><path d="M116.105 72.2848L104.094 60.2739C104.084 61.5533 103.595 62.8292 102.624 63.8003C101.654 64.7708 100.377 65.2598 99.0977 65.2702L111.108 77.281C112.483 78.6551 114.731 78.6551 116.105 77.281C117.479 75.907 117.479 73.6588 116.105 72.2848Z" fill="#CDD6E0"></path><path opacity="0.2" d="M104.094 60.2739C104.084 61.5533 103.595 62.8292 102.624 63.8003C101.654 64.7708 100.377 65.2598 99.0977 65.2702L102.131 68.3035C103.28 67.964 104.362 67.3434 105.264 66.4404C106.167 65.5381 106.788 64.4561 107.127 63.3072L104.094 60.2739Z" fill="black"></path><path d="M96.5721 57.7445C95.3331 58.9835 93.9573 60.0007 92.4961 60.8055L96.366 64.6754C98.3289 66.6383 101.541 66.6383 103.504 64.6754C105.466 62.7125 105.466 59.5008 103.504 57.5378L99.6337 53.668C98.8283 55.1298 97.811 56.5056 96.5721 57.7445Z" fill="#E7EAED"></path><path opacity="0.2" d="M103.715 57.7722C103.646 57.6937 103.579 57.6135 103.504 57.5378L99.6337 53.668C98.8283 55.1292 97.811 56.505 96.5721 57.7439C95.3331 58.9829 93.9573 60.0002 92.4961 60.805L96.366 64.6748C96.441 64.7499 96.5213 64.8169 96.6004 64.8861C98.0229 64.0299 99.3664 62.9919 100.593 61.7645C101.821 60.5388 102.859 59.1948 103.715 57.7722Z" fill="black"></path><path d="M73.0738 34.2466C65.9962 41.3241 65.9962 52.7992 73.0738 59.8767C80.1513 66.9542 91.6264 66.9542 98.7039 59.8767C105.781 52.7992 105.781 41.3241 98.7039 34.2466C91.6264 27.1685 80.1513 27.1685 73.0738 34.2466ZM94.9507 56.1235C89.9458 61.1278 81.8319 61.1278 76.827 56.1235C71.8227 51.1186 71.8227 43.0047 76.827 37.9998C81.8319 32.9955 89.9458 32.9955 94.9507 37.9998C99.955 43.0047 99.955 51.1186 94.9507 56.1235Z" fill="white"></path><path opacity="0.15" d="M350.963 57.8357C350.963 52.291 346.426 47.7549 340.882 47.7549H293.949V60.0261C293.949 60.9106 294.039 61.7748 294.205 62.6126L286.622 75.3872C285.607 77.0967 287.188 79.1728 289.106 78.6497L302.93 74.8803L305.861 74.0813L308.429 73.3816H328.507V94.5241C328.507 101.312 334.061 106.866 340.849 106.866H350.963V57.8357Z" fill="black"></path><path d="M393.157 87.5884L402.984 104.143C403.921 105.723 402.461 107.641 400.689 107.158L370.801 99.0098L393.157 87.5884Z" fill="#859E4D"></path><path opacity="0.15" d="M393.157 87.5884L370.801 99.0098L389.091 103.997C393.19 102.725 396.46 99.5276 397.838 95.4753L393.157 87.5884Z" fill="black"></path><path d="M344.048 102.29H383.863C390.652 102.29 396.205 96.7361 396.205 89.9484V68.4584C396.205 61.6706 390.651 56.1167 383.863 56.1167H344.049C337.26 56.1167 331.707 61.6706 331.707 68.4584V89.9484C331.706 96.7361 337.26 102.29 344.048 102.29Z" fill="#ADCF65"></path><path d="M387.467 81.6804H340.451C339.087 81.6804 337.973 80.5656 337.973 79.2025C337.973 77.8394 339.087 76.7246 340.451 76.7246H387.468C388.831 76.7246 389.946 77.8394 389.946 79.2025C389.945 80.565 388.831 81.6804 387.467 81.6804Z" fill="white"></path><path d="M379.967 92.1814H347.951C346.587 92.1814 345.473 91.0666 345.473 89.7035C345.473 88.3404 346.587 87.2256 347.951 87.2256H379.967C381.33 87.2256 382.445 88.3404 382.445 89.7035C382.445 91.066 381.329 92.1814 379.967 92.1814Z" fill="white"></path><path d="M383.342 71.1795H344.576C343.212 71.1795 342.098 70.0646 342.098 68.7015C342.098 67.3385 343.212 66.2236 344.576 66.2236H383.342C384.705 66.2236 385.82 67.3385 385.82 68.7015C385.82 70.0646 384.705 71.1795 383.342 71.1795Z" fill="white"></path><path opacity="0.15" d="M344.049 56.1157C337.26 56.1157 331.707 61.6697 331.707 68.4574V73.6112H356.54C365.239 73.6112 372.356 66.4939 372.356 57.7952V56.1157H344.049Z" fill="black"></path><path d="M300.446 52.8965L289.813 70.8111C288.799 72.5206 290.379 74.5967 292.297 74.0736L324.639 65.256L300.446 52.8965Z" fill="#FFA91D"></path><path opacity="0.15" d="M300.448 52.8965L295.824 60.6859C297.313 65.4385 301.24 69.1363 306.123 70.3042L324.641 65.2555L300.448 52.8965Z" fill="black"></path><path d="M353.581 68.8052H310.496C303.151 68.8052 297.141 62.7952 297.141 55.4498V32.1948C297.141 24.8494 303.151 18.8394 310.496 18.8394H353.581C360.926 18.8394 366.936 24.8494 366.936 32.1948V55.4498C366.936 62.7952 360.926 68.8052 353.581 68.8052Z" fill="#FFDD00"></path><path d="M357.493 46.5047H306.596C305.121 46.5047 303.914 45.2975 303.914 43.8224C303.914 42.3473 305.121 41.1401 306.596 41.1401H357.493C358.968 41.1401 360.175 42.3473 360.175 43.8224C360.175 45.2975 358.968 46.5047 357.493 46.5047Z" fill="white"></path><path d="M349.375 57.8724H314.717C313.242 57.8724 312.035 56.6652 312.035 55.1901C312.035 53.715 313.242 52.5078 314.717 52.5078H349.375C350.85 52.5078 352.058 53.715 352.058 55.1901C352.058 56.6652 350.85 57.8724 349.375 57.8724Z" fill="white"></path><path d="M353.026 35.1375H311.061C309.586 35.1375 308.379 33.9303 308.379 32.4552C308.379 30.9802 309.586 29.7729 311.061 29.7729H353.026C354.501 29.7729 355.709 30.9802 355.709 32.4552C355.709 33.9303 354.501 35.1375 353.026 35.1375Z" fill="white"></path><path opacity="0.15" d="M289.726 217.576C297.174 207.543 295.079 193.373 285.047 185.925C275.015 178.476 260.844 180.571 253.396 190.603C245.948 200.635 248.043 214.806 258.075 222.254C268.107 229.702 282.278 227.608 289.726 217.576Z" fill="black"></path><path d="M287.417 223.591C297.299 215.944 299.111 201.734 291.464 191.851C283.818 181.969 269.608 180.157 259.725 187.804C249.843 195.451 248.031 209.661 255.678 219.543C263.325 229.425 277.535 231.237 287.417 223.591Z" fill="#FFDD00"></path><path d="M285.683 218.72C292.871 212.019 293.265 200.76 286.564 193.573C279.863 186.385 268.604 185.991 261.416 192.692C254.229 199.393 253.835 210.652 260.536 217.839C267.237 225.027 278.496 225.421 285.683 218.72Z" fill="#FFA91D"></path><path opacity="0.15" d="M229.504 75.4931C238.768 69.7231 241.6 57.5359 235.83 48.2724C230.06 39.0089 217.873 36.1768 208.609 41.9469C199.346 47.717 196.513 59.9041 202.284 69.1676C208.054 78.4312 220.241 81.2632 229.504 75.4931Z" fill="black"></path><path d="M229.504 72.6049C238.768 66.8349 241.6 54.6477 235.83 45.3842C230.06 36.1207 217.873 33.2887 208.609 39.0587C199.346 44.8288 196.513 57.0159 202.284 66.2795C208.054 75.543 220.241 78.375 229.504 72.6049Z" fill="#FFDD00"></path><path d="M228.213 68.4045C235.155 63.3557 236.69 53.6349 231.642 46.6926C226.593 39.7503 216.872 38.2153 209.93 43.2641C202.987 48.3129 201.452 58.0336 206.501 64.976C211.55 71.9183 221.271 73.4533 228.213 68.4045Z" fill="#FFA91D"></path><path opacity="0.15" d="M133.841 154.611H88.9974C85.9179 154.611 83.3984 152.092 83.3984 149.012V121.905C83.3984 118.825 85.9179 116.306 88.9974 116.306H133.841C136.921 116.306 139.44 118.825 139.44 121.905V149.012C139.44 152.092 136.921 154.611 133.841 154.611Z" fill="black"></path><path d="M130.626 151.2H85.7826C82.7031 151.2 80.1836 148.681 80.1836 145.601V118.494C80.1836 115.414 82.7031 112.895 85.7826 112.895H130.626C133.706 112.895 136.225 115.414 136.225 118.494V145.601C136.225 148.681 133.706 151.2 130.626 151.2Z" fill="#ADCF65"></path><path opacity="0.15" d="M122.811 144.698H93.5779C91.7259 144.698 90.2109 143.183 90.2109 141.331V126.477C90.2109 124.625 91.7264 123.11 93.5779 123.11H122.811C124.663 123.11 126.178 124.625 126.178 126.477V141.331C126.178 143.183 124.663 144.698 122.811 144.698Z" fill="black"></path><path d="M121.366 142.842H95.0449C93.2777 142.842 91.832 141.396 91.832 139.629V124.466C91.832 122.699 93.2777 121.253 95.0449 121.253H121.366C123.133 121.253 124.578 122.699 124.578 124.466V139.629C124.578 141.396 123.133 142.842 121.366 142.842Z" fill="#CFD2D4"></path><path d="M108.205 127.326L91.832 136.039V139.629C91.832 141.396 93.2777 142.841 95.0449 142.841H121.366C123.133 142.841 124.578 141.396 124.578 139.629V136.039L108.205 127.326Z" fill="#E7EAED"></path><path opacity="0.15" d="M108.205 138.552L124.578 129.688V124.466C124.578 122.699 123.133 121.253 121.366 121.253H95.0449C93.2777 121.253 91.832 122.699 91.832 124.466V129.688L108.205 138.552Z" fill="black"></path><path d="M108.205 136.768L124.578 128.056V124.466C124.578 122.699 123.133 121.253 121.366 121.253H95.0449C93.2777 121.253 91.832 122.699 91.832 124.466V128.056L108.205 136.768Z" fill="white"></path><path d="M335.041 149.496L319.93 121.735L321.708 120.767L336.819 148.528L335.041 149.496ZM330.449 126.805C329.721 125.777 328.729 125.211 327.473 125.108C326.217 125.004 324.916 125.318 323.572 126.05C322.589 126.585 321.815 127.213 321.251 127.932C320.694 128.648 320.361 129.396 320.252 130.177C320.15 130.954 320.292 131.697 320.677 132.405C321 132.998 321.418 133.431 321.932 133.704C322.45 133.966 323.009 134.116 323.611 134.154C324.209 134.185 324.803 134.157 325.393 134.07C325.979 133.976 326.507 133.871 326.978 133.755L329.565 133.134C330.226 132.971 330.983 132.831 331.837 132.712C332.698 132.59 333.58 132.584 334.483 132.692C335.389 132.789 336.25 133.08 337.066 133.563C337.882 134.047 338.573 134.809 339.14 135.85C339.793 137.05 340.069 138.306 339.967 139.617C339.873 140.924 339.381 142.19 338.492 143.414C337.61 144.635 336.316 145.709 334.61 146.638C333.019 147.504 331.503 147.997 330.059 148.117C328.623 148.233 327.323 148.013 326.158 147.457C325 146.897 324.047 146.034 323.299 144.866L326.076 143.355C326.604 144.155 327.264 144.695 328.055 144.977C328.849 145.248 329.698 145.31 330.603 145.164C331.511 145.007 332.406 144.689 333.288 144.209C334.314 143.65 335.145 142.982 335.781 142.205C336.413 141.42 336.805 140.598 336.955 139.738C337.102 138.871 336.955 138.033 336.514 137.223C336.112 136.486 335.58 135.998 334.916 135.76C334.252 135.521 333.505 135.441 332.675 135.517C331.846 135.594 330.981 135.737 330.082 135.945L326.925 136.652C324.918 137.097 323.157 137.133 321.641 136.758C320.125 136.384 318.96 135.449 318.146 133.952C317.469 132.709 317.215 131.441 317.383 130.15C317.555 128.847 318.072 127.629 318.935 126.494C319.801 125.347 320.943 124.389 322.36 123.617C323.791 122.838 325.203 122.402 326.596 122.309C327.985 122.209 329.245 122.423 330.375 122.951C331.513 123.475 332.405 124.287 333.051 125.388L330.449 126.805Z" fill="#FFDD00"></path><path d="M164.297 201.55L154.289 180.387L155.645 179.746L165.653 200.909L164.297 201.55ZM161.855 184.578C161.36 183.787 160.65 183.327 159.725 183.198C158.801 183.069 157.826 183.246 156.801 183.731C156.052 184.086 155.453 184.517 155.006 185.025C154.564 185.531 154.286 186.07 154.173 186.643C154.065 187.214 154.138 187.769 154.394 188.309C154.608 188.761 154.899 189.098 155.267 189.322C155.639 189.537 156.047 189.672 156.49 189.725C156.931 189.773 157.371 189.777 157.811 189.738C158.248 189.693 158.643 189.637 158.997 189.571L160.935 189.221C161.431 189.128 161.997 189.056 162.633 189.005C163.275 188.951 163.928 188.983 164.591 189.101C165.256 189.211 165.881 189.462 166.464 189.854C167.047 190.246 167.526 190.838 167.902 191.632C168.334 192.547 168.485 193.487 168.355 194.452C168.23 195.415 167.814 196.33 167.105 197.198C166.401 198.063 165.399 198.804 164.099 199.419C162.886 199.992 161.744 200.293 160.671 200.321C159.605 200.347 158.652 200.13 157.814 199.67C156.982 199.207 156.313 198.528 155.809 197.634L157.926 196.633C158.283 197.246 158.748 197.673 159.321 197.915C159.897 198.149 160.522 198.23 161.197 198.161C161.875 198.083 162.55 197.885 163.223 197.567C164.005 197.197 164.648 196.738 165.151 196.19C165.651 195.636 165.975 195.045 166.123 194.415C166.267 193.78 166.194 193.154 165.902 192.537C165.636 191.975 165.263 191.592 164.782 191.388C164.301 191.183 163.752 191.092 163.135 191.114C162.518 191.136 161.873 191.205 161.2 191.321L158.835 191.711C157.333 191.957 156.029 191.909 154.924 191.568C153.819 191.228 152.996 190.487 152.457 189.346C152.008 188.398 151.874 187.451 152.053 186.503C152.235 185.547 152.668 184.667 153.354 183.864C154.043 183.053 154.927 182.392 156.007 181.881C157.099 181.365 158.161 181.102 159.195 181.092C160.226 181.076 161.149 181.288 161.962 181.725C162.782 182.161 163.407 182.799 163.839 183.64L161.855 184.578Z" fill="#FFDD00"></path><path d="M267.087 214.65L280.929 193.393L282.291 194.28L268.449 215.537L267.087 214.65ZM281.36 202.755C281.808 201.849 281.83 200.933 281.424 200.006C281.018 199.08 280.301 198.281 279.271 197.611C278.518 197.121 277.78 196.813 277.057 196.689C276.339 196.569 275.684 196.619 275.091 196.84C274.503 197.064 274.033 197.448 273.679 197.99C273.384 198.444 273.238 198.904 273.241 199.372C273.253 199.837 273.361 200.289 273.563 200.729C273.769 201.162 274.016 201.571 274.302 201.955C274.592 202.333 274.868 202.666 275.129 202.954L276.553 204.544C276.921 204.949 277.309 205.43 277.718 205.988C278.132 206.55 278.474 207.17 278.741 207.849C279.018 208.525 279.141 209.244 279.111 210.005C279.08 210.766 278.806 211.545 278.287 212.342C277.688 213.261 276.907 213.934 275.942 214.362C274.983 214.794 273.902 214.929 272.698 214.768C271.5 214.611 270.247 214.107 268.941 213.256C267.723 212.463 266.797 211.58 266.161 210.606C265.532 209.637 265.191 208.634 265.139 207.6C265.094 206.569 265.34 205.567 265.879 204.593L268.005 205.977C267.642 206.656 267.512 207.328 267.614 207.994C267.726 208.657 268.006 209.281 268.454 209.864C268.911 210.446 269.477 210.956 270.152 211.396C270.938 211.908 271.727 212.24 272.518 212.393C273.313 212.54 274.043 212.503 274.708 212.281C275.376 212.054 275.912 211.631 276.315 211.011C276.683 210.446 276.824 209.884 276.74 209.324C276.655 208.764 276.427 208.206 276.056 207.65C275.686 207.093 275.256 206.537 274.766 205.981L273.063 204.021C271.983 202.774 271.286 201.544 270.973 200.331C270.659 199.117 270.875 197.938 271.622 196.792C272.242 195.84 273.04 195.177 274.016 194.804C275.001 194.429 276.059 194.329 277.19 194.506C278.33 194.68 279.442 195.121 280.527 195.827C281.623 196.541 282.469 197.372 283.066 198.32C283.666 199.263 283.995 200.234 284.054 201.234C284.118 202.237 283.884 203.177 283.353 204.053L281.36 202.755Z" fill="#FFDD00"></path><path d="M215.563 64.22L222.926 43.3224L224.264 43.794L216.902 64.6916L215.563 64.22ZM225.223 51.1792C225.416 50.3175 225.245 49.5354 224.71 48.8328C224.174 48.1303 223.4 47.6007 222.388 47.2441C221.648 46.9833 220.958 46.8749 220.319 46.9188C219.685 46.9646 219.139 47.1423 218.681 47.4521C218.229 47.7638 217.909 48.1863 217.721 48.7196C217.563 49.1658 217.534 49.5869 217.634 49.9828C217.74 50.3751 217.925 50.7368 218.187 51.0679C218.452 51.3936 218.745 51.6896 219.067 51.9561C219.391 52.2171 219.694 52.443 219.975 52.6339L221.512 53.6893C221.907 53.9569 222.336 54.2854 222.799 54.6746C223.266 55.0658 223.684 55.5218 224.051 56.0427C224.425 56.56 224.678 57.1446 224.809 57.7965C224.941 58.4484 224.868 59.1662 224.592 59.9498C224.274 60.8532 223.75 61.5861 223.019 62.1485C222.294 62.7129 221.404 63.0509 220.35 63.1625C219.3 63.2761 218.133 63.1067 216.849 62.6542C215.652 62.2324 214.683 61.6739 213.943 60.9789C213.208 60.2857 212.713 59.5054 212.455 58.6378C212.204 57.7722 212.206 56.8707 212.463 55.9335L214.553 56.6697C214.385 57.3202 214.413 57.9174 214.637 58.4614C214.869 59.0018 215.235 59.4734 215.736 59.876C216.243 60.2752 216.829 60.5917 217.493 60.8256C218.266 61.0979 219.004 61.2172 219.707 61.1835C220.412 61.1444 221.024 60.9622 221.542 60.6371C222.062 60.3065 222.43 59.8364 222.645 59.2269C222.84 58.6718 222.844 58.1655 222.657 57.7079C222.469 57.2503 222.161 56.8236 221.731 56.4276C221.302 56.0316 220.822 55.6484 220.292 55.2781L218.442 53.9656C217.268 53.1299 216.423 52.2296 215.906 51.2646C215.39 50.2996 215.33 49.2538 215.727 48.1273C216.057 47.1913 216.597 46.4641 217.349 45.9458C218.108 45.424 218.985 45.1214 219.981 45.038C220.985 44.951 222.02 45.0954 223.086 45.4712C224.164 45.8508 225.054 46.3814 225.755 47.0631C226.459 47.7393 226.939 48.4957 227.195 49.3322C227.456 50.1706 227.452 51.0163 227.182 51.8694L225.223 51.1792Z" fill="#FFDD00"></path><path d="M188.573 111.503H184.002C183.732 110.189 183.259 109.034 182.583 108.039C181.92 107.043 181.109 106.208 180.15 105.532C179.204 104.844 178.154 104.328 176.999 103.984C175.844 103.64 174.64 103.468 173.386 103.468C171.101 103.468 169.031 104.045 167.175 105.2C165.332 106.355 163.864 108.057 162.77 110.305C161.689 112.554 161.149 115.312 161.149 118.581C161.149 121.849 161.689 124.608 162.77 126.856C163.864 129.105 165.332 130.806 167.175 131.961C169.031 133.116 171.101 133.694 173.386 133.694C174.64 133.694 175.844 133.522 176.999 133.178C178.154 132.834 179.204 132.324 180.15 131.648C181.109 130.96 181.92 130.118 182.583 129.123C183.259 128.115 183.732 126.961 184.002 125.658H188.573C188.229 127.587 187.602 129.313 186.693 130.837C185.784 132.361 184.654 133.657 183.302 134.726C181.95 135.783 180.433 136.587 178.75 137.14C177.079 137.693 175.291 137.97 173.386 137.97C170.167 137.97 167.304 137.183 164.798 135.611C162.291 134.038 160.319 131.802 158.882 128.902C157.444 126.002 156.725 122.562 156.725 118.581C156.725 114.6 157.444 111.159 158.882 108.26C160.319 105.36 162.291 103.124 164.798 101.551C167.304 99.9782 170.167 99.1919 173.386 99.1919C175.291 99.1919 177.079 99.4683 178.75 100.021C180.433 100.574 181.95 101.385 183.302 102.454C184.654 103.511 185.784 104.801 186.693 106.324C187.602 107.836 188.229 109.562 188.573 111.503ZM195.959 137.454V99.7079H208.713C211.662 99.7079 214.083 100.212 215.975 101.219C217.867 102.214 219.268 103.584 220.177 105.329C221.086 107.074 221.541 109.058 221.541 111.282C221.541 113.506 221.086 115.478 220.177 117.198C219.268 118.919 217.873 120.27 215.993 121.253C214.113 122.224 211.711 122.709 208.787 122.709H198.466V118.581H208.639C210.654 118.581 212.276 118.286 213.505 117.696C214.746 117.106 215.643 116.271 216.196 115.19C216.761 114.096 217.044 112.794 217.044 111.282C217.044 109.771 216.761 108.45 216.196 107.32C215.631 106.189 214.728 105.317 213.487 104.703C212.246 104.076 210.605 103.763 208.566 103.763H200.53V137.454H195.959ZM213.726 120.498L223.015 137.454H217.707L208.566 120.498H213.726ZM229.157 99.7079H234.613L247.44 131.04H247.883L260.71 99.7079H266.166V137.454H261.89V108.776H261.521L249.726 137.454H245.597L233.802 108.776H233.433V137.454H229.157V99.7079Z" fill="black"></path><path d="M188.573 108.782H184.002C183.732 107.467 183.259 106.312 182.583 105.317C181.92 104.322 181.109 103.486 180.15 102.81C179.204 102.122 178.154 101.606 176.999 101.262C175.844 100.918 174.64 100.746 173.386 100.746C171.101 100.746 169.031 101.324 167.175 102.479C165.332 103.634 163.864 105.335 162.77 107.584C161.689 109.832 161.149 112.591 161.149 115.859C161.149 119.127 161.689 121.886 162.77 124.134C163.864 126.383 165.332 128.085 167.175 129.24C169.031 130.395 171.101 130.972 173.386 130.972C174.64 130.972 175.844 130.8 176.999 130.456C178.154 130.112 179.204 129.602 180.15 128.926C181.109 128.238 181.92 127.397 182.583 126.401C183.259 125.394 183.732 124.239 184.002 122.936H188.573C188.229 124.865 187.602 126.592 186.693 128.115C185.784 129.639 184.654 130.935 183.302 132.004C181.95 133.061 180.433 133.866 178.75 134.419C177.079 134.972 175.291 135.248 173.386 135.248C170.167 135.248 167.304 134.462 164.798 132.889C162.291 131.316 160.319 129.08 158.882 126.18C157.444 123.28 156.725 119.84 156.725 115.859C156.725 111.878 157.444 108.438 158.882 105.538C160.319 102.638 162.291 100.402 164.798 98.8293C167.304 97.2566 170.167 96.4702 173.386 96.4702C175.291 96.4702 177.079 96.7467 178.75 97.2996C180.433 97.8525 181.95 98.6634 183.302 99.7324C184.654 100.789 185.784 102.079 186.693 103.603C187.602 105.114 188.229 106.84 188.573 108.782ZM195.959 134.732V96.9863H208.713C211.662 96.9863 214.083 97.49 215.975 98.4976C217.867 99.4928 219.268 100.863 220.177 102.608C221.086 104.352 221.541 106.337 221.541 108.561C221.541 110.785 221.086 112.757 220.177 114.477C219.268 116.197 217.873 117.549 215.993 118.532C214.113 119.502 211.711 119.988 208.787 119.988H198.466V115.859H208.639C210.654 115.859 212.276 115.564 213.505 114.974C214.746 114.385 215.643 113.549 216.196 112.468C216.761 111.374 217.044 110.072 217.044 108.561C217.044 107.049 216.761 105.728 216.196 104.598C215.631 103.468 214.728 102.595 213.487 101.981C212.246 101.354 210.605 101.041 208.566 101.041H200.53V134.732H195.959ZM213.726 117.776L223.015 134.732H217.707L208.566 117.776H213.726ZM229.157 96.9863H234.613L247.44 128.318H247.883L260.71 96.9863H266.166V134.732H261.89V106.054H261.521L249.726 134.732H245.597L233.802 106.054H233.433V134.732H229.157V96.9863Z" fill="#30506E"></path></svg>