<svg xmlns="http://www.w3.org/2000/svg" width="500" height="300" viewBox="0 0 500 300" fill="none"><rect width="500" height="300" rx="24" fill="white"></rect><path d="M249.642 188.688C248.707 188.688 247.812 188.494 247.129 188.099L190.634 155.483C189.905 155.062 189.503 154.457 189.504 153.781C189.504 153 190.054 152.236 191.012 151.684L246.75 119.503C248.456 118.519 250.961 118.423 252.455 119.286L308.95 151.903C309.679 152.324 310.081 152.928 310.08 153.604C310.08 154.385 309.53 155.15 308.572 155.701L252.835 187.882C251.909 188.416 250.749 188.688 249.642 188.688ZM247.566 187.342C248.774 188.04 250.987 187.94 252.396 187.125L308.134 154.944C308.804 154.557 309.204 154.057 309.204 153.604C309.205 153.155 308.827 152.844 308.512 152.661L252.017 120.044C250.809 119.349 248.597 119.449 247.186 120.262L191.448 152.443C190.778 152.83 190.379 153.33 190.379 153.783C190.378 154.231 190.755 154.543 191.071 154.725L247.566 187.342Z" fill="#8686F2"></path><path opacity="0.5" d="M183.328 192.438C183.177 192.438 183.03 192.359 182.949 192.218C182.829 192.009 182.9 191.741 183.109 191.621L218.798 171.016C219.004 170.897 219.275 170.966 219.396 171.177C219.516 171.386 219.444 171.653 219.235 171.775L183.547 192.379C183.478 192.418 183.404 192.438 183.328 192.438Z" fill="url(#paint0_linear_2288_189321)"></path><path opacity="0.5" d="M316.175 192.322C316.1 192.322 316.024 192.302 315.956 192.263L280.469 171.775C280.26 171.654 280.188 171.387 280.308 171.177C280.429 170.966 280.7 170.896 280.906 171.016L316.393 191.505C316.602 191.625 316.674 191.892 316.554 192.102C316.473 192.243 316.326 192.322 316.175 192.322Z" fill="url(#paint1_linear_2288_189321)"></path><path opacity="0.5" d="M249.643 261.142C248.204 261.142 246.767 260.77 245.484 260.028C230.936 251.596 182.496 223.591 181.334 223.074C181.102 223.008 180.987 222.771 181.054 222.539C181.12 222.308 181.38 222.179 181.615 222.248C182.369 222.465 245.288 258.904 245.923 259.271C248.215 260.6 251.072 260.598 253.372 259.269L317.361 222.18C317.568 222.06 317.836 222.129 317.96 222.339C318.08 222.548 318.01 222.816 317.8 222.938L253.81 260.026C252.524 260.77 251.084 261.142 249.643 261.142Z" fill="url(#paint2_linear_2288_189321)"></path><path d="M309.641 129.823V136.756L249.646 171.395L189.648 136.756V129.823L309.641 129.823Z" fill="url(#paint3_linear_2288_189321)"></path><path d="M249.646 164.462L189.648 129.823L249.644 95.1843L309.641 129.823L249.646 164.462Z" fill="#BCBEFF"></path><path d="M249.646 163.652L190.35 129.417L189.648 129.823L249.646 164.462L309.641 129.823L308.94 129.418L249.646 163.652Z" fill="white"></path><path d="M249.646 156.472L203.5 129.83L249.644 103.189L295.791 129.831L249.646 156.472Z" fill="#0F054C"></path><path opacity="0.5" d="M249.647 156.474L203.5 129.83L249.645 103.189L295.792 129.831L249.647 156.474Z" fill="url(#paint4_linear_2288_189321)"></path><path opacity="0.5" d="M249.645 96.4704L295.791 123.113V129.831L249.645 103.188V96.4704Z" fill="url(#paint5_linear_2288_189321)"></path><path opacity="0.5" d="M249.647 103.188L203.5 129.83V123.112L249.645 96.4704L249.647 103.188Z" fill="url(#paint6_linear_2288_189321)"></path><path opacity="0.5" d="M249.647 149.756L203.5 123.112L249.645 96.4704L295.792 123.113L249.647 149.756Z" fill="url(#paint7_linear_2288_189321)"></path><path opacity="0.5" d="M249.647 133.759L231.207 123.112L249.646 112.466L268.086 123.113L249.647 133.759Z" fill="#42E8E0"></path><path opacity="0.5" d="M249.646 113.447L267.238 123.603L268.086 123.113L249.646 112.467L231.207 123.113L232.056 123.602L249.646 113.447Z" fill="#42E8E0"></path><path opacity="0.5" d="M249.645 149.756V156.473L295.79 129.831V123.113L249.645 149.756Z" fill="url(#paint8_linear_2288_189321)"></path><path opacity="0.5" d="M203.5 123.112V129.83L249.647 156.473V149.756L203.5 123.112Z" fill="url(#paint9_linear_2288_189321)"></path><path opacity="0.8" d="M249.647 149.022L204.135 122.746L203.5 123.112L249.647 149.756L295.792 123.113L295.157 122.746L249.647 149.022Z" fill="#42E8E0"></path><g opacity="0.11"><path d="M160.891 179.045C158.475 177.65 155.5 177.649 153.083 179.041L106.549 205.846C105.817 206.269 105.817 207.326 106.549 207.749L153.471 234.839C155.603 236.07 158.229 236.07 160.361 234.839L207.355 207.774C208.088 207.351 208.088 206.294 207.355 205.871L160.891 179.045Z" fill="url(#paint10_linear_2288_189321)"></path></g><g opacity="0.11"><path d="M160.891 171.206C158.475 169.811 155.5 169.81 153.083 171.202L106.549 198.007C105.817 198.43 105.817 199.487 106.549 199.91L153.471 227C155.603 228.231 158.229 228.231 160.361 227L207.355 199.935C208.088 199.512 208.088 198.455 207.355 198.032L160.891 171.206Z" fill="url(#paint11_linear_2288_189321)"></path></g><g opacity="0.11"><path d="M160.891 163.367C158.475 161.972 155.5 161.971 153.083 163.363L106.549 190.167C105.817 190.591 105.817 191.648 106.549 192.071L153.471 219.161C155.603 220.392 158.229 220.392 160.361 219.161L207.355 192.096C208.088 191.673 208.088 190.616 207.355 190.193L160.891 163.367Z" fill="url(#paint12_linear_2288_189321)"></path></g><g opacity="0.11"><path d="M160.891 155.528C158.475 154.133 155.5 154.131 153.083 155.524L106.549 182.328C105.817 182.751 105.817 183.809 106.549 184.232L153.471 211.322C155.603 212.553 158.229 212.553 160.361 211.322L207.355 184.257C208.088 183.834 208.088 182.777 207.355 182.353L160.891 155.528Z" fill="url(#paint13_linear_2288_189321)"></path></g><path opacity="0.5" d="M207.355 182.353L160.891 155.528C158.476 154.133 155.5 154.131 153.084 155.524L106.55 182.328C106.183 182.54 106 182.91 106 183.28V199.042C106 199.411 106.183 199.782 106.55 199.993L153.471 227.084C155.603 228.315 158.23 228.315 160.362 227.084L207.356 200.019C207.723 199.807 207.905 199.437 207.905 199.067V183.305C207.904 182.936 207.721 182.565 207.355 182.353Z" fill="url(#paint14_linear_2288_189321)"></path><g opacity="0.11"><path d="M160.891 155.528C158.475 154.133 155.5 154.131 153.083 155.524L106.549 182.328C105.817 182.751 105.817 183.809 106.549 184.232L153.471 211.322C155.603 212.553 158.229 212.553 160.361 211.322L207.355 184.257C208.088 183.834 208.088 182.777 207.355 182.353L160.891 155.528Z" fill="url(#paint15_linear_2288_189321)"></path></g><g opacity="0.5"><path d="M158.623 170.894C157.599 170.302 156.338 170.302 155.313 170.892L134.464 182.902C134.137 183.09 134.137 183.562 134.464 183.751L155.399 195.838C156.35 196.387 157.522 196.387 158.473 195.838L179.44 183.762C179.767 183.573 179.767 183.101 179.44 182.913L158.623 170.894Z" fill="#42E8E0"></path></g><path d="M134.465 183.654L155.315 171.645C156.339 171.055 157.601 171.056 158.625 171.646L179.443 183.665C179.464 183.677 179.472 183.699 179.49 183.713C179.756 183.505 179.748 183.089 179.443 182.912L158.625 170.893C157.601 170.301 156.34 170.301 155.315 170.891L134.465 182.901C134.159 183.077 134.152 183.494 134.418 183.702C134.436 183.688 134.444 183.667 134.465 183.654Z" fill="#42E8E0"></path><path d="M207.355 183.175L160.361 210.24C158.229 211.471 155.603 211.471 153.47 210.24L106.548 183.149C106.368 183.045 106.232 182.902 106.141 182.739C105.862 183.235 105.997 183.913 106.548 184.232L153.47 211.322C155.602 212.553 158.228 212.553 160.361 211.322L207.355 184.257C207.906 183.938 208.042 183.26 207.762 182.764C207.671 182.927 207.535 183.07 207.355 183.175Z" fill="url(#paint16_linear_2288_189321)"></path><g opacity="0.11"><path d="M346.274 179.045C343.858 177.65 340.882 177.649 338.466 179.041L291.932 205.846C291.2 206.269 291.2 207.326 291.932 207.749L338.854 234.839C340.985 236.07 343.612 236.07 345.743 234.839L392.737 207.774C393.47 207.351 393.47 206.294 392.737 205.871L346.274 179.045Z" fill="url(#paint17_linear_2288_189321)"></path></g><g opacity="0.11"><path d="M346.274 171.206C343.858 169.811 340.882 169.81 338.466 171.202L291.932 198.007C291.2 198.43 291.2 199.487 291.932 199.91L338.854 227C340.985 228.231 343.612 228.231 345.743 227L392.737 199.935C393.47 199.512 393.47 198.455 392.737 198.032L346.274 171.206Z" fill="url(#paint18_linear_2288_189321)"></path></g><g opacity="0.11"><path d="M346.274 163.367C343.858 161.972 340.882 161.971 338.466 163.363L291.932 190.167C291.2 190.591 291.2 191.648 291.932 192.071L338.854 219.161C340.985 220.392 343.612 220.392 345.743 219.161L392.737 192.096C393.47 191.673 393.47 190.616 392.737 190.193L346.274 163.367Z" fill="url(#paint19_linear_2288_189321)"></path></g><g opacity="0.11"><path d="M346.274 155.528C343.858 154.133 340.882 154.131 338.466 155.524L291.932 182.328C291.2 182.751 291.2 183.809 291.932 184.232L338.854 211.322C340.985 212.553 343.612 212.553 345.743 211.322L392.737 184.257C393.47 183.834 393.47 182.777 392.737 182.353L346.274 155.528Z" fill="url(#paint20_linear_2288_189321)"></path></g><path opacity="0.5" d="M392.737 182.353L346.273 155.528C343.858 154.133 340.882 154.131 338.466 155.524L291.932 182.328C291.565 182.54 291.383 182.91 291.383 183.28V199.042C291.383 199.411 291.566 199.782 291.932 199.993L338.854 227.084C340.985 228.315 343.612 228.315 345.743 227.084L392.737 200.019C393.104 199.807 393.286 199.437 393.286 199.067V183.305C393.286 182.936 393.103 182.565 392.737 182.353Z" fill="url(#paint21_linear_2288_189321)"></path><g opacity="0.11"><path d="M346.274 155.528C343.858 154.133 340.882 154.131 338.466 155.524L291.932 182.328C291.2 182.751 291.2 183.809 291.932 184.232L338.854 211.322C340.985 212.553 343.612 212.553 345.743 211.322L392.737 184.257C393.47 183.834 393.47 182.777 392.737 182.353L346.274 155.528Z" fill="url(#paint22_linear_2288_189321)"></path></g><g opacity="0.5"><path d="M344.006 170.894C342.982 170.302 341.721 170.302 340.696 170.892L319.846 182.902C319.52 183.09 319.52 183.562 319.846 183.751L340.782 195.838C341.733 196.387 342.905 196.387 343.856 195.838L364.824 183.762C365.151 183.573 365.151 183.101 364.824 182.913L344.006 170.894Z" fill="#42E8E0"></path></g><path d="M319.848 183.654L340.698 171.645C341.722 171.055 342.983 171.056 344.008 171.646L364.825 183.665C364.847 183.677 364.855 183.699 364.873 183.713C365.138 183.505 365.131 183.089 364.825 182.912L344.008 170.893C342.983 170.301 341.722 170.301 340.698 170.891L319.848 182.901C319.542 183.077 319.534 183.494 319.801 183.702C319.819 183.688 319.827 183.667 319.848 183.654Z" fill="#42E8E0"></path><path d="M392.737 183.175L345.743 210.24C343.612 211.471 340.985 211.471 338.853 210.24L291.931 183.149C291.75 183.045 291.615 182.902 291.524 182.739C291.245 183.235 291.38 183.913 291.931 184.232L338.853 211.322C340.985 212.553 343.611 212.553 345.743 211.322L392.737 184.257C393.29 183.938 393.425 183.26 393.145 182.764C393.053 182.927 392.918 183.07 392.737 183.175Z" fill="url(#paint23_linear_2288_189321)"></path><path opacity="0.502" d="M380.668 117.607V89.7349C380.022 80.236 376.263 71.1816 369.953 62.9043V90.7763C376.263 99.0536 380.022 108.108 380.668 117.607ZM366.728 86.8614V58.9894C364.503 56.481 362.037 54.0544 359.349 51.719V79.591C362.037 81.9264 364.502 84.353 366.728 86.8614ZM354.783 75.8759V48.0039C351.856 45.7708 348.716 43.6344 345.377 41.605V69.477C348.715 71.5064 351.856 73.6428 354.783 75.8759ZM339.062 74.1242V29.7794C364.74 43.4016 380.767 62.8838 380.767 84.438V128.782C380.767 107.228 364.74 87.7464 339.062 74.1242Z" fill="#42E8E0"></path><path opacity="0.502" d="M292.103 52.8351V44.8277C290.144 44.4525 288.164 44.1032 286.164 43.7807V51.7882C288.164 52.1107 290.144 52.4599 292.103 52.8351ZM281.419 43.0712V35.984C279.389 35.704 277.339 35.4515 275.273 35.2265V42.3137C277.339 42.5387 279.388 42.7912 281.419 43.0712ZM302.386 47.0812V37.4196C300.505 36.9539 298.601 36.5126 296.676 36.0973V45.759C298.602 46.1743 300.506 46.6156 302.386 47.0812ZM270.367 41.8363V27.5722C268.274 27.3921 266.166 27.2411 264.042 27.1184V41.3824C266.166 41.5051 268.275 41.6561 270.367 41.8363ZM247.419 41.0324V26.7684C245.268 26.8006 243.13 26.8635 241.006 26.9556V41.2196C243.13 41.1283 245.268 41.0654 247.419 41.0324ZM236.02 41.4917V23.552C233.918 23.6896 231.831 23.8564 229.761 24.0515V41.9912C231.831 41.7961 233.918 41.6294 236.02 41.4917ZM259.001 41.1488V20.6282C257.081 20.5606 255.149 20.5165 253.207 20.4977C252.978 20.4953 252.748 20.4937 252.518 20.4922V41.0135C252.748 41.0151 252.978 41.0174 253.207 41.019C255.149 41.0379 257.081 41.0811 259.001 41.1488ZM224.905 42.5033V16.8329C222.858 17.0721 220.829 17.3387 218.818 17.6329V43.3033C220.829 43.0091 222.858 42.7424 224.905 42.5033ZM205.746 14.6368C220.504 11.492 236.515 9.84408 253.207 10.0116C275.493 10.235 296.369 13.6661 314.521 19.5246V63.8686C296.37 58.0101 275.494 54.5782 253.207 54.3556C236.515 54.1881 220.504 55.836 205.746 58.9808V14.6368Z" fill="#42E8E0"></path><path opacity="0.502" d="M130.301 74.7849V65.8571C127.649 69.6752 125.531 73.6507 124 77.7527V104.196C125.531 100.093 127.649 96.1188 130.301 92.3007V83.3729C131.07 82.267 131.883 81.1736 132.741 80.0944V84.9091C134.365 82.8632 136.146 80.8676 138.074 78.9271V74.1124C146.44 65.6943 157.58 58.3098 170.769 52.3632V43.7752C168.422 44.8332 166.14 45.9368 163.927 47.0836C162.82 47.6578 161.73 48.2422 160.657 48.8377C152.188 53.5391 144.827 58.8982 138.83 64.7748C138.576 65.0233 138.324 65.2735 138.075 65.5236V60.7089C136.147 62.6494 134.366 64.6458 132.741 66.6909V71.5056C131.883 72.5856 131.07 73.679 130.301 74.7849ZM122.273 74.5057C127.316 52.8658 148.516 34.2291 178.586 22.6301V66.9741C148.516 78.5724 127.316 97.2098 122.273 118.85V74.5057Z" fill="#42E8E0"></path><path opacity="0.7529" d="M138.074 65.5244C138.323 65.2735 138.574 65.0241 138.828 64.7756V73.3628C143.309 68.9728 148.55 64.8723 154.444 61.1187C156.442 59.8468 158.513 58.6158 160.656 57.4257V48.8385C161.728 48.243 162.818 47.6586 163.926 47.0844V55.6716C166.139 54.5247 168.421 53.4212 170.768 52.3632C157.578 58.3098 146.438 65.6935 138.073 74.1116V65.5244H138.074ZM130.301 74.7849C131.069 73.679 131.883 72.5856 132.74 71.5064V80.0936C131.883 81.1728 131.069 82.2662 130.301 83.3721V74.7849Z" fill="#42E8E0"></path><path opacity="0.8784" d="M163.926 47.0836C166.138 45.9368 168.421 44.8332 170.768 43.7752V52.3624C168.42 53.4204 166.138 54.524 163.926 55.6708V47.0836Z" fill="#42E8E0"></path><path opacity="0.8784" d="M138.828 64.7748C143.309 60.3856 148.55 56.2844 154.444 52.5308V61.118C148.55 64.8716 143.309 68.9728 138.828 73.362V64.7748Z" fill="#42E8E0"></path><path opacity="0.9725" d="M154.445 52.5307C156.442 51.2588 158.514 50.0278 160.657 48.8377V57.4249C158.514 58.6142 156.442 59.846 154.445 61.1179V52.5307Z" fill="#42E8E0"></path><path opacity="0.7529" d="M124 77.7527C125.531 73.6499 127.649 69.6752 130.301 65.8571V74.7849C127.649 78.603 125.531 82.5784 124 86.6805V95.2677C125.531 91.1649 127.649 87.1894 130.301 83.3721V92.2999C127.649 96.118 125.531 100.093 124 104.196V77.7527Z" fill="#42E8E0"></path><path opacity="0.8784" d="M124 86.6805C125.531 82.5777 127.649 78.603 130.301 74.7849V83.3721C127.649 87.1902 125.531 91.1656 124 95.2677V86.6805Z" fill="#42E8E0"></path><path opacity="0.7529" d="M132.738 80.0936C134.363 78.0477 136.143 76.0521 138.072 74.1116V78.9263C136.143 80.8669 134.363 82.8632 132.738 84.9084V80.0936ZM132.738 66.6917C134.363 64.6458 136.143 62.6502 138.072 60.7097V65.5244C136.143 67.465 134.363 69.4613 132.738 71.5072V66.6917Z" fill="#42E8E0"></path><path opacity="0.8784" d="M132.738 71.5064C134.363 69.4605 136.143 67.4649 138.072 65.5236V74.1108C136.143 76.0513 134.363 78.0477 132.738 80.0928V71.5064Z" fill="#42E8E0"></path><path opacity="0.7529" d="M369.953 62.9043C376.263 71.1816 380.022 80.236 380.667 89.7349V117.607C380.021 108.108 376.263 99.0536 369.953 90.7763V62.9043Z" fill="#42E8E0"></path><path d="M359.348 51.7182C362.037 54.0536 364.502 56.481 366.727 58.9886V86.8607C364.502 84.3522 362.036 81.9256 359.348 79.5902V51.7182Z" fill="#42E8E0"></path><path opacity="0.7529" d="M345.379 41.605C348.717 43.6344 351.858 45.7708 354.784 48.0039V75.8759C351.858 73.6428 348.717 71.5064 345.379 69.477V41.605Z" fill="#42E8E0"></path><path opacity="0.7529" d="M296.68 36.0965C298.605 36.5126 300.509 36.9531 302.39 37.4188V47.0804C300.509 46.6148 298.605 46.1735 296.68 45.7582V36.0965Z" fill="#42E8E0"></path><path opacity="0.7529" d="M286.164 43.7807C288.164 44.1032 290.144 44.4524 292.104 44.8277V52.8351C290.144 52.4599 288.164 52.1107 286.164 51.7882V43.7807Z" fill="#42E8E0"></path><path opacity="0.7529" d="M275.273 35.2274C277.341 35.4523 279.39 35.7048 281.42 35.9848V43.072C279.39 42.792 277.34 42.5395 275.273 42.3145V35.2274Z" fill="#42E8E0"></path><path opacity="0.7529" d="M264.039 27.1184C266.163 27.2403 268.272 27.3921 270.364 27.5722V41.8363C268.272 41.6561 266.164 41.5051 264.039 41.3824V27.1184Z" fill="#42E8E0"></path><path opacity="0.7529" d="M252.52 20.4914C252.749 20.4929 252.979 20.4953 253.209 20.4969C255.151 20.5165 257.083 20.5598 259.003 20.6274V41.1488C257.083 41.0811 255.151 41.0371 253.209 41.0174C252.979 41.0151 252.749 41.0135 252.52 41.0119V20.4914Z" fill="#42E8E0"></path><path d="M241.008 26.9555C243.132 26.8635 245.27 26.8006 247.421 26.7683V41.0324C245.27 41.0646 243.132 41.1275 241.008 41.2196V26.9555Z" fill="#42E8E0"></path><path opacity="0.7529" d="M229.762 24.0515C231.832 23.8564 233.919 23.6896 236.021 23.552V41.4917C233.919 41.6294 231.832 41.7961 229.762 41.9912V24.0515Z" fill="#42E8E0"></path><path d="M218.82 17.6321C220.831 17.3387 222.86 17.0713 224.907 16.8322V42.5025C222.86 42.7416 220.831 43.0083 218.82 43.3025V17.6321Z" fill="#42E8E0"></path><g opacity="0.11"><path d="M245.744 236.676C248.015 235.365 250.812 235.363 253.084 236.672L296.834 261.873C297.523 262.27 297.523 263.264 296.834 263.662L252.72 289.132C250.716 290.289 248.247 290.289 246.242 289.132L202.06 263.687C201.371 263.289 201.371 262.295 202.06 261.897L245.744 236.676Z" fill="url(#paint24_linear_2288_189321)"></path></g><g opacity="0.11"><path d="M245.744 229.306C248.015 227.995 250.812 227.993 253.084 229.302L296.834 254.503C297.523 254.9 297.523 255.894 296.834 256.292L252.72 281.762C250.716 282.919 248.247 282.919 246.242 281.762L202.06 256.317C201.371 255.919 201.371 254.925 202.06 254.527L245.744 229.306Z" fill="url(#paint25_linear_2288_189321)"></path></g><g opacity="0.11"><path d="M245.744 221.935C248.015 220.624 250.812 220.623 253.084 221.932L296.834 247.132C297.523 247.53 297.523 248.524 296.834 248.922L252.72 274.392C250.716 275.549 248.247 275.549 246.242 274.392L202.06 248.946C201.371 248.549 201.371 247.555 202.06 247.157L245.744 221.935Z" fill="url(#paint26_linear_2288_189321)"></path></g><g opacity="0.11"><path d="M245.744 214.565C248.015 213.254 250.812 213.252 253.084 214.561L296.834 239.762C297.523 240.159 297.523 241.153 296.834 241.551L252.72 267.021C250.716 268.178 248.247 268.178 246.242 267.021L202.06 241.576C201.371 241.179 201.371 240.184 202.06 239.786L245.744 214.565Z" fill="url(#paint27_linear_2288_189321)"></path></g><path opacity="0.11" d="M202.059 239.786L245.743 214.565C248.014 213.254 250.811 213.252 253.083 214.561L296.834 239.762C297.178 239.961 297.35 240.309 297.35 240.656V262.767C297.35 263.114 297.178 263.463 296.834 263.661L252.719 289.132C250.715 290.289 248.246 290.289 246.242 289.132L202.06 263.687C201.715 263.488 201.543 263.14 201.543 262.792V240.681C201.542 240.333 201.714 239.985 202.059 239.786Z" fill="url(#paint28_linear_2288_189321)"></path><g opacity="0.11"><path d="M244.96 196.493C247.713 194.904 251.105 194.902 253.861 196.488L306.91 227.046C307.745 227.528 307.745 228.733 306.91 229.215L253.419 260.098C250.988 261.502 247.994 261.502 245.564 260.098L191.99 229.244C191.154 228.762 191.154 227.557 191.99 227.075L244.96 196.493Z" fill="url(#paint29_linear_2288_189321)"></path></g><g opacity="0.11"><path d="M244.96 187.557C247.713 185.967 251.105 185.965 253.861 187.552L306.91 218.109C307.745 218.592 307.745 219.797 306.91 220.279L253.419 251.162C250.988 252.565 247.994 252.565 245.564 251.162L191.99 220.308C191.154 219.826 191.154 218.621 191.99 218.139L244.96 187.557Z" fill="url(#paint30_linear_2288_189321)"></path></g><g opacity="0.11"><path d="M244.96 178.62C247.713 177.031 251.105 177.029 253.861 178.616L306.91 209.173C307.745 209.655 307.745 210.86 306.91 211.342L253.419 242.226C250.988 243.629 247.994 243.629 245.564 242.226L191.99 211.372C191.154 210.889 191.154 209.684 191.99 209.202L244.96 178.62Z" fill="url(#paint31_linear_2288_189321)"></path></g><g opacity="0.11"><path d="M244.96 169.683C247.713 168.093 251.105 168.092 253.861 169.678L306.91 200.236C307.745 200.718 307.745 201.923 306.91 202.405L253.419 233.288C250.988 234.692 247.994 234.692 245.564 233.288L191.99 202.434C191.154 201.952 191.154 200.747 191.99 200.265L244.96 169.683Z" fill="url(#paint32_linear_2288_189321)"></path></g><path opacity="0.5" d="M191.989 200.265L244.959 169.683C247.713 168.093 251.105 168.092 253.86 169.678L306.909 200.236C307.327 200.476 307.535 200.899 307.535 201.32V228.131C307.535 228.552 307.326 228.975 306.909 229.215L253.418 260.098C250.988 261.502 247.994 261.502 245.563 260.098L191.989 229.244C191.572 229.004 191.363 228.581 191.363 228.16V201.35C191.363 200.928 191.573 200.506 191.989 200.265Z" fill="url(#paint33_linear_2288_189321)"></path><g opacity="0.11"><path d="M244.96 169.683C247.713 168.093 251.105 168.092 253.861 169.678L306.91 200.236C307.745 200.718 307.745 201.923 306.91 202.405L253.419 233.288C250.988 234.692 247.994 234.692 245.564 233.288L191.99 202.434C191.154 201.952 191.154 200.747 191.99 200.265L244.96 169.683Z" fill="url(#paint34_linear_2288_189321)"></path></g><path d="M191.989 201.2L245.563 232.054C247.993 233.457 250.987 233.457 253.418 232.054L306.909 201.171C307.115 201.052 307.269 200.889 307.374 200.703C307.692 201.269 307.538 202.042 306.909 202.405L253.418 233.288C250.987 234.692 247.993 234.692 245.563 233.288L191.989 202.434C191.36 202.071 191.206 201.298 191.524 200.732C191.63 200.918 191.784 201.081 191.989 201.2Z" fill="url(#paint35_linear_2288_189321)"></path><path opacity="0.2" d="M249.449 218.278C265.58 218.278 278.656 210.728 278.656 201.416C278.656 192.103 265.58 184.554 249.449 184.554C233.319 184.554 220.242 192.103 220.242 201.416C220.242 210.728 233.319 218.278 249.449 218.278Z" fill="#180D5B"></path><path d="M260.561 187.118C260.561 187.118 261.272 187.858 262.008 188.73C262.744 189.603 264.816 190.816 265.686 191.357C266.556 191.897 270.543 194.918 271.376 197.894C272.209 200.87 269.36 201.263 266.446 200.746C263.532 200.229 260.81 197.541 260.016 196.57C259.223 195.6 256.466 193.396 252.89 191.546C249.314 189.695 251.476 187.206 251.476 187.206L260.561 187.118Z" fill="#160A5B"></path><path d="M234.016 195.956C234.016 195.956 233.427 197.294 233.259 199.015C233.093 200.736 232.851 204.466 232.762 205.558C232.673 206.65 232.637 209.319 234.558 211.876C236.479 214.432 237.471 215.442 240.023 214.437C242.576 213.432 242.518 209.147 242.066 206.943C241.615 204.74 241.195 199.809 241.241 199.292C241.287 198.774 241.095 198.444 241.095 198.444L234.016 195.956Z" fill="#160A5B"></path><path d="M269.375 136.568C269.375 136.568 268.837 156.216 264.258 166.645C264.258 166.645 260.979 175.83 260.545 186.757C260.545 186.757 261.302 188.637 260.228 190.167C259.155 191.697 252.433 193.097 251.322 188.073C250.211 183.049 250.638 173.647 251.859 169.727C253.08 165.807 251.425 155.002 251.425 155.002C251.425 155.002 249.587 156.176 247.179 163.939C244.77 171.701 242.998 174.663 242.17 176.807C241.342 178.951 240.579 192.107 241.104 198.531C241.104 198.531 235.66 199.304 234.087 196.702C232.513 194.1 231.987 180.637 232.386 176.345C232.784 172.053 234.579 158.304 234.332 154.05C234.085 149.795 233.2 146.34 234.173 142.091C235.146 137.842 263.871 128.401 263.871 128.401L269.375 136.568Z" fill="#24126A"></path><path d="M234.332 154.05C234.085 149.795 233.2 146.34 234.173 142.091C234.538 140.493 238.826 138.163 244.036 135.875C252.827 135.073 263.977 134.141 264.744 134.258C265.439 134.364 267.257 135.054 268.762 135.658L269.376 136.569C269.376 136.569 269.343 137.764 269.225 139.715C267.175 140.328 263.23 139.695 263.23 139.695C262.675 141.074 259.249 145.974 254.988 148.088C250.727 150.202 238.26 149.477 237.544 150.281C236.828 151.085 236.69 161.842 236.769 163.209C236.849 164.576 235.595 173.187 234.435 180.801C233.295 188.291 235.031 197.395 235.087 197.688C234.685 197.429 234.335 197.111 234.087 196.702C232.513 194.1 231.987 180.638 232.386 176.346C232.784 172.053 234.579 158.304 234.332 154.05Z" fill="#160A5B"></path><path d="M259.759 72.3048C259.759 72.3048 266.132 73.7584 268.277 74.2618C268.632 74.3452 268.919 74.5954 269.053 74.9352C269.672 76.5021 271.224 81.3703 270.054 88.4787C268.617 97.2138 269.073 103.096 269.073 103.096L272.02 118.438C272.02 118.438 275.726 133.049 275.406 133.449C275.086 133.848 266.873 140.099 264.306 139.219C261.739 138.339 262.583 136.886 262.583 136.886C262.583 136.886 260.503 147.475 251.299 147.374C242.094 147.272 234.575 147.301 233.012 143.581C231.45 139.86 233.439 124.219 235.063 118.027C236.686 111.834 240.544 99.4901 240.544 99.4901L227.062 84.5685L238.584 75.769C238.584 75.769 241.336 70.6546 242.468 70.004C243.599 69.3543 244.19 69.9041 244.19 69.9041L259.759 72.3048Z" fill="#453C9E"></path><path d="M264.149 135.846C264.141 136.377 264.451 137.169 266.105 137.736C267.892 138.349 272.271 135.687 275.143 133.683C273.709 134.875 266.654 140.024 264.307 139.218C263.797 139.044 263.426 138.846 263.152 138.642C263.678 137.464 263.99 136.446 264.149 135.846Z" fill="url(#paint36_linear_2288_189321)"></path><path d="M233.082 142.34C234.731 146.266 242.667 146.235 252.381 146.343C254.851 146.37 256.834 145.665 258.419 144.602C256.738 146.204 254.433 147.408 251.301 147.374C242.097 147.272 234.578 147.301 233.015 143.581C232.502 142.359 232.374 139.85 232.488 136.815C232.466 139.281 232.635 141.275 233.082 142.34Z" fill="url(#paint37_linear_2288_189321)"></path><path d="M242.722 69.8766C242.722 69.8766 240.368 72.7249 243.755 76.5681C245.839 78.9342 249.425 84.0368 252.481 89.3345C254.39 92.6437 256.154 94.408 257.154 97.2515C257.154 97.2515 257.294 93.8731 257.428 88.6572C257.555 83.7347 257.621 78.6196 257.4 77.3311C256.947 74.6787 245.323 68.5866 242.722 69.8766Z" fill="#F0F6FF"></path><path d="M251.524 78.4426C251.524 78.4426 252.73 79.1922 253.146 79.1301C253.562 79.0679 254.897 77.7708 254.897 77.7708C254.897 77.7708 258.239 77.7103 258.603 76.2795C258.968 74.8479 259.208 73.4045 259.546 72.6612C259.884 71.9178 261.325 68.3467 261.336 66.897C261.347 65.4481 261.293 62.8595 261.918 61.4892C262.544 60.119 263.388 46.4056 250.146 46.7926C236.905 47.1796 241.018 60.9292 241.018 60.9292C241.018 60.9292 240.051 61.3413 240.637 63.1112C241.222 64.881 241.353 65.0643 241.652 65.9429C241.951 66.8215 242.098 67.3847 242.94 68.0981L243.159 69.7287C243.159 69.7287 242.531 72.2191 244.176 74.6394C245.823 77.0582 251.524 78.4426 251.524 78.4426Z" fill="#FCD1C5"></path><path d="M268.642 74.4207C268.642 74.4207 270.054 74.6307 274.635 86.1551C277.192 92.5862 281.137 99.2455 281.973 104.025C282.809 108.804 282.343 113.913 281.398 114.273C280.489 114.619 264.029 120.778 258.877 122.723C258.593 122.831 258.283 122.652 258.229 122.352L256.809 114.403L267.023 110.457C267.023 110.457 268.969 108.079 270.797 107.187C270.797 107.187 268.75 103.413 268.88 102.383C269.01 101.353 268.697 90.6921 269.894 86.3541C271.092 82.0152 268.642 74.4207 268.642 74.4207Z" fill="#24126A"></path><path d="M262.656 104.877C262.656 104.877 264.063 103.932 264.41 103.797C264.758 103.663 266.64 103.02 266.999 102.86C267.266 102.741 268.361 102.832 268.91 102.887C269.109 102.907 269.283 103.022 269.378 103.198C269.813 104.004 271.024 106.351 270.888 107.247C270.888 107.247 267.487 109.396 267.108 110.354L266.565 110.47C266.563 110.47 264.285 105.584 262.656 104.877Z" fill="#FCD1C5"></path><path d="M235.062 118.027C235.453 116.537 235.973 114.69 236.537 112.745L257.224 121.612C257.224 121.612 251.032 129.226 240.179 128.738C237.211 128.604 235.047 127.534 233.457 126.614C233.937 123.228 234.52 120.098 235.062 118.027Z" fill="#24126A"></path><path d="M227.062 84.5685C227.062 84.5685 232.518 85.3197 236.925 92.3054C241.333 99.2919 244.546 107.376 244.546 107.376L244.698 108.286C245.095 110.661 247.626 112.024 249.826 111.041C254.48 108.963 261.373 105.821 262.658 104.878C262.658 104.878 266.78 107.156 267.904 112.54C268.801 116.834 268.573 116.847 268.573 116.847C268.573 116.847 250.203 125.421 243.109 125.337C236.015 125.253 227.014 101.927 226.023 97.106C225.032 92.2834 223.94 85.9309 227.062 84.5685Z" fill="#24126A"></path><path d="M227.062 84.5685C227.062 84.5685 232.518 85.3197 236.925 92.3054C241.333 99.2919 244.546 107.376 244.546 107.376L244.698 108.286C245.095 110.661 247.626 112.024 249.826 111.041C254.48 108.963 261.373 105.821 262.658 104.878C262.658 104.878 266.78 107.156 267.904 112.54C268.801 116.834 268.573 116.847 268.573 116.847C268.573 116.847 250.203 125.421 243.109 125.337C236.015 125.253 227.014 101.927 226.023 97.106C225.032 92.2834 223.94 85.9309 227.062 84.5685Z" fill="#4846A5"></path><path d="M247.19 112.127C247.19 112.127 244.872 114.295 243.864 113.108C242.855 111.921 243.152 111.789 243.152 111.789C243.152 111.789 241.068 111.77 240.814 110.464C240.56 109.157 239.533 109.848 239.474 108.393C239.415 106.937 241.161 107.236 241.161 107.236L247.19 112.127Z" fill="#453C9E"></path><path d="M249.989 110.969C249.989 110.969 249.352 110.376 248.53 109.68C247.708 108.985 246.378 106.108 246.154 105.854C245.93 105.6 243.157 103.474 241.822 103.437C240.485 103.4 241.477 104.896 241.785 105.107C242.092 105.318 243.397 105.967 243.397 105.967C243.397 105.967 244.739 107.094 244.892 107.259C245.044 107.424 241.16 106.992 240.544 107.371C239.927 107.75 240.07 108.742 240.505 109.013C240.94 109.282 241.273 109.273 241.273 109.273C241.273 109.273 240.835 110.442 242.001 110.984C243.167 111.526 243.435 111.224 243.435 111.224C243.435 111.224 243.536 113.244 245.46 112.844L249.989 110.969Z" fill="#FCD1C5"></path><path d="M262.214 54.4775C262.214 54.4775 263.943 59.9805 259.393 58.4144C254.843 56.8491 250.727 54.229 249.298 55.2264C248.21 55.9862 248.261 58.3145 248.346 59.3827C248.376 59.7469 248.28 60.1079 248.073 60.4092L246.725 62.3694C246.573 62.5904 246.483 62.8484 246.464 63.1167L246.368 64.4806C246.344 64.8236 246.068 65.0957 245.725 65.1154L245.415 65.1335C245.068 65.1531 244.761 64.9109 244.701 64.5687L244.351 62.5653C244.351 62.5653 243.279 59.8704 241.015 60.9292C241.015 60.9292 239.502 58.895 240.005 54.546C240.507 50.1969 242.456 45.6756 250.99 44.9519C259.523 44.2283 262.214 54.4775 262.214 54.4775Z" fill="#AA8383"></path><path d="M249.168 83.2864L250.445 82.2953C250.445 82.2953 251.626 83.2769 252.086 84.3176C252.546 85.3582 252.085 88.6659 252.085 88.6659L252.474 89.3352L252.953 88.4598L253.357 84.5488C253.357 84.5488 252.923 81.6581 252.881 81.5842C252.838 81.5103 250.418 81.8414 250.418 81.8414C250.418 81.8414 249.579 82.4809 249.168 83.2864Z" fill="#C4CCD6"></path><path d="M255.309 79.3936C255.309 79.3936 256.673 79.484 257.288 79.9945C257.288 79.9945 255.856 80.0645 255.629 80.0905C255.401 80.1172 255.309 79.3936 255.309 79.3936Z" fill="#C4CCD6"></path><path d="M252.712 79.7011L250.422 81.8414C250.422 81.8414 252.432 82.7665 252.993 84.5638C252.993 84.5638 255.485 85.0295 255.712 84.1265C255.94 83.2242 255.706 80.951 256.003 79.9426C256.301 78.9342 252.712 79.7011 252.712 79.7011Z" fill="#24126A"></path><path d="M255.619 84.0745C255.619 84.0745 256.045 85.949 256.509 86.723C256.974 87.4962 257.451 88.3638 257.451 88.3638L257.394 99.3517C257.394 99.3517 253.353 91.0217 252.477 89.3352C252.477 89.3352 252.611 85.3228 252.993 84.5638C253.374 83.8047 255.619 84.0745 255.619 84.0745Z" fill="#24126A"></path><path d="M244.768 67.8378C247.423 75.4976 254.891 77.7708 254.891 77.7708C254.891 77.7708 253.556 79.0679 253.14 79.13C252.724 79.1922 251.518 78.4426 251.518 78.4426C251.518 78.4426 245.816 77.0582 244.17 74.6378C242.525 72.2175 243.153 69.7272 243.153 69.7272L242.934 68.0966C244.119 68.4859 244.768 67.8378 244.768 67.8378Z" fill="#E2B1A6"></path><path d="M238.691 76.8041C238.691 76.8041 239.739 80.4193 239.874 80.5553C240.01 80.6914 242.508 80.4027 242.508 80.4027L241.294 82.7011C241.294 82.7011 253.866 96.1841 256.472 103.436C256.472 103.436 250.523 94.2428 240.053 83.2651L241.535 81.0226L238.965 81.5244L238.691 76.8041Z" fill="#24126A"></path><path d="M259.347 73.6121L260.014 74.3735L259.23 75.1051L261.555 77.206C261.555 77.206 262.266 91.9538 259.427 101.723C259.427 101.723 263.281 92.7624 262.407 76.8041L259.891 75.098L260.715 74.2878L259.347 73.6121Z" fill="#24126A"></path><path d="M251.424 155.002C251.424 155.002 251.394 155.022 251.338 155.071L254.594 151.604C253.091 153.724 254.822 163.432 255.002 165.654C255.183 167.876 253.263 172.467 252.545 177.845C251.829 183.215 253.298 190.882 253.302 190.904C252.37 190.365 251.63 189.467 251.322 188.074C250.211 183.05 250.638 173.648 251.859 169.728C253.08 165.808 251.424 155.002 251.424 155.002Z" fill="#160A5B"></path><path d="M243.108 125.335C236.014 125.251 227.013 101.925 226.022 97.1044C225.857 96.3005 225.69 95.4518 225.539 94.5928C225.565 94.6628 227.403 99.6994 229.175 104.164C230.961 108.66 240.441 122.289 245.286 123.177C249.655 123.977 265.37 116.641 268.414 115.193C268.69 116.831 268.573 116.846 268.573 116.846C268.573 116.846 250.203 125.419 243.108 125.335Z" fill="url(#paint38_linear_2288_189321)"></path><path d="M245.417 65.1327C245.07 65.1524 244.764 64.9101 244.704 64.5679L244.353 62.5645C244.353 62.5645 243.282 59.8696 241.018 60.9284C241.018 60.9284 239.59 58.9965 239.976 54.8866C242.493 58.6646 248.077 60.4085 248.077 60.4085L246.729 62.3686C246.577 62.5897 246.486 62.8477 246.467 63.1159L246.371 64.4798C246.347 64.8228 246.072 65.095 245.729 65.1146L245.417 65.1327Z" fill="#936D6D"></path><path opacity="0.502" d="M162.344 176.658V169.165C163.845 169.969 165.379 170.754 166.946 171.517V179.01C165.38 178.247 163.845 177.462 162.344 176.658ZM147.588 167.296V153.488C148.835 154.428 150.12 155.35 151.442 156.254V170.061C150.12 169.158 148.835 168.235 147.588 167.296ZM154.622 172.155V155.87C156.001 156.744 157.416 157.601 158.865 158.437V174.723C157.416 173.886 156.001 173.03 154.622 172.155ZM135.752 156.604V138.535C136.71 139.588 137.709 140.626 138.751 141.65V159.719C137.709 158.695 136.71 157.657 135.752 156.604ZM141.284 162.103V142.528C142.39 143.528 143.538 144.511 144.724 145.477V165.052C143.538 164.086 142.39 163.102 141.284 162.103ZM127.182 144.786V123.563C127.819 124.712 128.502 125.85 129.232 126.974V148.197C128.503 147.073 127.819 145.935 127.182 144.786ZM131.035 150.821V123.212C131.837 124.316 132.683 125.408 133.573 126.484V154.093C132.683 153.015 131.837 151.925 131.035 150.821ZM124.236 138.524V107.343C124.699 108.532 125.212 109.711 125.773 110.878V142.06C125.212 140.892 124.699 139.713 124.236 138.524ZM176.413 145.444C146.746 133.491 126.249 114.611 121.957 92.9796V137.324C126.249 158.955 146.746 177.835 176.413 189.787V145.444Z" fill="#42E8E0"></path><path opacity="0.502" d="M263.402 194.702V184.699C268.507 184.421 273.527 183.972 278.444 183.363V193.366C273.527 193.975 268.507 194.424 263.402 194.702ZM239.412 194.749V176.519C242.47 176.673 245.56 176.767 248.677 176.799C250.808 176.82 252.927 176.812 255.034 176.775V195.005C252.927 195.042 250.808 195.051 248.677 195.029C245.56 194.997 242.47 194.903 239.412 194.749ZM216.29 192.357V164.484C221.126 165.251 226.076 165.86 231.124 166.304V194.176C226.076 193.732 221.126 193.122 216.29 192.357ZM286.346 192.238V162.801C291.146 162.022 295.835 161.088 300.395 160.01V189.446C295.835 190.525 291.146 191.458 286.346 192.238ZM312.224 150.125C293.325 155.941 271.646 159.146 248.677 158.916C232.668 158.756 217.387 156.94 203.32 153.759V198.103C217.387 201.284 232.669 203.101 248.677 203.26C271.646 203.49 293.325 200.285 312.224 194.469V150.125Z" fill="#42E8E0"></path><path opacity="0.502" d="M344.085 162.808V154.221C364.779 142.002 378.25 125.71 380.452 107.587V116.174C378.25 134.298 364.779 150.589 344.085 162.808ZM380.751 130.107V85.7634C380.091 107.453 363.326 126.815 337.109 140.164V184.508C363.326 171.159 380.091 151.798 380.751 130.107Z" fill="#42E8E0"></path><path opacity="0.7529" d="M380.449 107.586C378.247 125.71 364.776 142.001 344.082 154.22V162.807C364.776 150.589 378.247 134.297 380.449 116.173V107.586Z" fill="#42E8E0"></path><path d="M231.123 166.303C226.075 165.859 221.124 165.25 216.289 164.484V192.356C221.124 193.122 226.074 193.731 231.123 194.175V166.303Z" fill="#42E8E0"></path><path d="M278.444 183.363C273.527 183.972 268.507 184.421 263.402 184.699V194.702C268.507 194.424 273.527 193.975 278.444 193.366V183.363Z" fill="#42E8E0"></path><path d="M300.396 160.01C295.836 161.088 291.148 162.022 286.348 162.801V192.238C291.147 191.459 295.836 190.525 300.396 189.446V160.01Z" fill="#42E8E0"></path><path opacity="0.7529" d="M255.032 176.774C252.925 176.811 250.805 176.82 248.675 176.798C245.558 176.766 242.468 176.673 239.41 176.518V194.748C242.468 194.903 245.558 194.996 248.675 195.028C250.805 195.049 252.925 195.041 255.032 195.004V176.774Z" fill="#42E8E0"></path><path d="M125.775 110.878C125.214 109.711 124.701 108.532 124.238 107.343V138.524C124.702 139.713 125.214 140.892 125.775 142.06V110.878Z" fill="#42E8E0"></path><path d="M129.233 126.974C128.503 125.85 127.82 124.712 127.184 123.563V144.786C127.82 145.935 128.503 147.073 129.233 148.197V126.974Z" fill="#42E8E0"></path><path opacity="0.7529" d="M133.573 126.484C132.683 125.407 131.837 124.316 131.035 123.212V150.821C131.837 151.925 132.683 153.016 133.573 154.093V126.484Z" fill="#42E8E0"></path><path d="M138.752 141.65C137.711 140.626 136.711 139.588 135.754 138.535V156.604C136.711 157.657 137.711 158.695 138.752 159.718V141.65Z" fill="#42E8E0"></path><path opacity="0.7529" d="M144.726 145.477C143.54 144.511 142.392 143.527 141.285 142.528V162.103C142.392 163.102 143.54 164.086 144.726 165.052V145.477Z" fill="#42E8E0"></path><path opacity="0.7529" d="M151.444 156.254C150.122 155.35 148.837 154.427 147.59 153.488V167.295C148.837 168.235 150.122 169.157 151.444 170.061V156.254Z" fill="#42E8E0"></path><path opacity="0.7529" d="M158.864 158.437C157.414 157.6 156 156.744 154.621 155.87V172.155C156 173.03 157.415 173.887 158.865 174.723V158.437H158.864Z" fill="#42E8E0"></path><path opacity="0.7529" d="M166.946 171.517C165.379 170.754 163.845 169.969 162.344 169.165V176.659C163.845 177.463 165.379 178.247 166.946 179.01V171.517Z" fill="#42E8E0"></path><defs><linearGradient id="paint0_linear_2288_189321" x1="182.891" y1="181.698" x2="219.454" y2="181.698" gradientUnits="userSpaceOnUse"><stop stop-color="#5761D7"></stop><stop offset="0.0726" stop-color="#5472D8"></stop><stop offset="0.2791" stop-color="#4E9CDB"></stop><stop offset="0.4801" stop-color="#49BDDD"></stop><stop offset="0.6715" stop-color="#45D5DF"></stop><stop offset="0.8493" stop-color="#43E3E0"></stop><stop offset="1" stop-color="#42E8E0"></stop></linearGradient><linearGradient id="paint1_linear_2288_189321" x1="280.25" y1="181.639" x2="316.612" y2="181.639" gradientUnits="userSpaceOnUse"><stop stop-color="#42E8E0"></stop><stop offset="0.1507" stop-color="#43E3E0"></stop><stop offset="0.3285" stop-color="#45D5DF"></stop><stop offset="0.5199" stop-color="#49BDDD"></stop><stop offset="0.7209" stop-color="#4E9CDB"></stop><stop offset="0.9274" stop-color="#5472D8"></stop><stop offset="1" stop-color="#5761D7"></stop></linearGradient><linearGradient id="paint2_linear_2288_189321" x1="181.035" y1="241.632" x2="318.02" y2="241.632" gradientUnits="userSpaceOnUse"><stop stop-color="#5761D7"></stop><stop offset="0.0726" stop-color="#5472D8"></stop><stop offset="0.2791" stop-color="#4E9CDB"></stop><stop offset="0.4801" stop-color="#49BDDD"></stop><stop offset="0.6715" stop-color="#45D5DF"></stop><stop offset="0.8493" stop-color="#43E3E0"></stop><stop offset="1" stop-color="#42E8E0"></stop></linearGradient><linearGradient id="paint3_linear_2288_189321" x1="159.984" y1="150.609" x2="313.746" y2="150.609" gradientUnits="userSpaceOnUse"><stop stop-color="#5761D7"></stop><stop offset="0.1645" stop-color="#5E67DA"></stop><stop offset="0.4051" stop-color="#727AE2"></stop><stop offset="0.6924" stop-color="#9297EE"></stop><stop offset="1" stop-color="#BCBEFF"></stop></linearGradient><linearGradient id="paint4_linear_2288_189321" x1="203.5" y1="129.831" x2="295.792" y2="129.831" gradientUnits="userSpaceOnUse"><stop stop-color="#42E8E0"></stop><stop offset="0.1507" stop-color="#43E3E0"></stop><stop offset="0.3285" stop-color="#45D5DF"></stop><stop offset="0.5199" stop-color="#49BDDD"></stop><stop offset="0.7209" stop-color="#4E9CDB"></stop><stop offset="0.9274" stop-color="#5472D8"></stop><stop offset="1" stop-color="#5761D7"></stop></linearGradient><linearGradient id="paint5_linear_2288_189321" x1="249.645" y1="113.151" x2="295.792" y2="113.151" gradientUnits="userSpaceOnUse"><stop stop-color="#42E8E0"></stop><stop offset="0.1507" stop-color="#43E3E0"></stop><stop offset="0.3285" stop-color="#45D5DF"></stop><stop offset="0.5199" stop-color="#49BDDD"></stop><stop offset="0.7209" stop-color="#4E9CDB"></stop><stop offset="0.9274" stop-color="#5472D8"></stop><stop offset="1" stop-color="#5761D7"></stop></linearGradient><linearGradient id="paint6_linear_2288_189321" x1="203.5" y1="113.15" x2="249.647" y2="113.15" gradientUnits="userSpaceOnUse"><stop stop-color="#42E8E0"></stop><stop offset="0.1507" stop-color="#43E3E0"></stop><stop offset="0.3285" stop-color="#45D5DF"></stop><stop offset="0.5199" stop-color="#49BDDD"></stop><stop offset="0.7209" stop-color="#4E9CDB"></stop><stop offset="0.9274" stop-color="#5472D8"></stop><stop offset="1" stop-color="#5761D7"></stop></linearGradient><linearGradient id="paint7_linear_2288_189321" x1="203.5" y1="123.113" x2="295.792" y2="123.113" gradientUnits="userSpaceOnUse"><stop stop-color="#42E8E0"></stop><stop offset="0.1507" stop-color="#43E3E0"></stop><stop offset="0.3285" stop-color="#45D5DF"></stop><stop offset="0.5199" stop-color="#49BDDD"></stop><stop offset="0.7209" stop-color="#4E9CDB"></stop><stop offset="0.9274" stop-color="#5472D8"></stop><stop offset="1" stop-color="#5761D7"></stop></linearGradient><linearGradient id="paint8_linear_2288_189321" x1="249.645" y1="139.793" x2="295.79" y2="139.793" gradientUnits="userSpaceOnUse"><stop stop-color="#42E8E0"></stop><stop offset="0.1507" stop-color="#43E3E0"></stop><stop offset="0.3285" stop-color="#45D5DF"></stop><stop offset="0.5199" stop-color="#49BDDD"></stop><stop offset="0.7209" stop-color="#4E9CDB"></stop><stop offset="0.9274" stop-color="#5472D8"></stop><stop offset="1" stop-color="#5761D7"></stop></linearGradient><linearGradient id="paint9_linear_2288_189321" x1="203.5" y1="139.793" x2="249.647" y2="139.793" gradientUnits="userSpaceOnUse"><stop stop-color="#42E8E0"></stop><stop offset="0.1507" stop-color="#43E3E0"></stop><stop offset="0.3285" stop-color="#45D5DF"></stop><stop offset="0.5199" stop-color="#49BDDD"></stop><stop offset="0.7209" stop-color="#4E9CDB"></stop><stop offset="0.9274" stop-color="#5472D8"></stop><stop offset="1" stop-color="#5761D7"></stop></linearGradient><linearGradient id="paint10_linear_2288_189321" x1="106" y1="206.881" x2="207.905" y2="206.881" gradientUnits="userSpaceOnUse"><stop stop-color="#5761D7"></stop><stop offset="0.0726" stop-color="#5472D8"></stop><stop offset="0.2791" stop-color="#4E9CDB"></stop><stop offset="0.4801" stop-color="#49BDDD"></stop><stop offset="0.6715" stop-color="#45D5DF"></stop><stop offset="0.8493" stop-color="#43E3E0"></stop><stop offset="1" stop-color="#42E8E0"></stop></linearGradient><linearGradient id="paint11_linear_2288_189321" x1="106" y1="199.041" x2="207.905" y2="199.041" gradientUnits="userSpaceOnUse"><stop stop-color="#5761D7"></stop><stop offset="0.0726" stop-color="#5472D8"></stop><stop offset="0.2791" stop-color="#4E9CDB"></stop><stop offset="0.4801" stop-color="#49BDDD"></stop><stop offset="0.6715" stop-color="#45D5DF"></stop><stop offset="0.8493" stop-color="#43E3E0"></stop><stop offset="1" stop-color="#42E8E0"></stop></linearGradient><linearGradient id="paint12_linear_2288_189321" x1="106" y1="191.202" x2="207.905" y2="191.202" gradientUnits="userSpaceOnUse"><stop stop-color="#5761D7"></stop><stop offset="0.0726" stop-color="#5472D8"></stop><stop offset="0.2791" stop-color="#4E9CDB"></stop><stop offset="0.4801" stop-color="#49BDDD"></stop><stop offset="0.6715" stop-color="#45D5DF"></stop><stop offset="0.8493" stop-color="#43E3E0"></stop><stop offset="1" stop-color="#42E8E0"></stop></linearGradient><linearGradient id="paint13_linear_2288_189321" x1="106" y1="183.363" x2="207.905" y2="183.363" gradientUnits="userSpaceOnUse"><stop stop-color="#5761D7"></stop><stop offset="0.0726" stop-color="#5472D8"></stop><stop offset="0.2791" stop-color="#4E9CDB"></stop><stop offset="0.4801" stop-color="#49BDDD"></stop><stop offset="0.6715" stop-color="#45D5DF"></stop><stop offset="0.8493" stop-color="#43E3E0"></stop><stop offset="1" stop-color="#42E8E0"></stop></linearGradient><linearGradient id="paint14_linear_2288_189321" x1="105.999" y1="191.244" x2="207.904" y2="191.244" gradientUnits="userSpaceOnUse"><stop stop-color="#5761D7"></stop><stop offset="0.0726" stop-color="#5472D8"></stop><stop offset="0.2791" stop-color="#4E9CDB"></stop><stop offset="0.4801" stop-color="#49BDDD"></stop><stop offset="0.6715" stop-color="#45D5DF"></stop><stop offset="0.8493" stop-color="#43E3E0"></stop><stop offset="1" stop-color="#42E8E0"></stop></linearGradient><linearGradient id="paint15_linear_2288_189321" x1="106" y1="183.363" x2="207.905" y2="183.363" gradientUnits="userSpaceOnUse"><stop stop-color="#5761D7"></stop><stop offset="0.0726" stop-color="#5472D8"></stop><stop offset="0.2791" stop-color="#4E9CDB"></stop><stop offset="0.4801" stop-color="#49BDDD"></stop><stop offset="0.6715" stop-color="#45D5DF"></stop><stop offset="0.8493" stop-color="#43E3E0"></stop><stop offset="1" stop-color="#42E8E0"></stop></linearGradient><linearGradient id="paint16_linear_2288_189321" x1="105.999" y1="197.492" x2="207.903" y2="197.492" gradientUnits="userSpaceOnUse"><stop stop-color="#5761D7"></stop><stop offset="0.0726" stop-color="#5472D8"></stop><stop offset="0.2791" stop-color="#4E9CDB"></stop><stop offset="0.4801" stop-color="#49BDDD"></stop><stop offset="0.6715" stop-color="#45D5DF"></stop><stop offset="0.8493" stop-color="#43E3E0"></stop><stop offset="1" stop-color="#42E8E0"></stop></linearGradient><linearGradient id="paint17_linear_2288_189321" x1="291.382" y1="206.881" x2="393.287" y2="206.881" gradientUnits="userSpaceOnUse"><stop stop-color="#5761D7"></stop><stop offset="0.0726" stop-color="#5472D8"></stop><stop offset="0.2791" stop-color="#4E9CDB"></stop><stop offset="0.4801" stop-color="#49BDDD"></stop><stop offset="0.6715" stop-color="#45D5DF"></stop><stop offset="0.8493" stop-color="#43E3E0"></stop><stop offset="1" stop-color="#42E8E0"></stop></linearGradient><linearGradient id="paint18_linear_2288_189321" x1="291.382" y1="199.041" x2="393.287" y2="199.041" gradientUnits="userSpaceOnUse"><stop stop-color="#5761D7"></stop><stop offset="0.0726" stop-color="#5472D8"></stop><stop offset="0.2791" stop-color="#4E9CDB"></stop><stop offset="0.4801" stop-color="#49BDDD"></stop><stop offset="0.6715" stop-color="#45D5DF"></stop><stop offset="0.8493" stop-color="#43E3E0"></stop><stop offset="1" stop-color="#42E8E0"></stop></linearGradient><linearGradient id="paint19_linear_2288_189321" x1="291.382" y1="191.202" x2="393.287" y2="191.202" gradientUnits="userSpaceOnUse"><stop stop-color="#5761D7"></stop><stop offset="0.0726" stop-color="#5472D8"></stop><stop offset="0.2791" stop-color="#4E9CDB"></stop><stop offset="0.4801" stop-color="#49BDDD"></stop><stop offset="0.6715" stop-color="#45D5DF"></stop><stop offset="0.8493" stop-color="#43E3E0"></stop><stop offset="1" stop-color="#42E8E0"></stop></linearGradient><linearGradient id="paint20_linear_2288_189321" x1="291.382" y1="183.363" x2="393.287" y2="183.363" gradientUnits="userSpaceOnUse"><stop stop-color="#5761D7"></stop><stop offset="0.0726" stop-color="#5472D8"></stop><stop offset="0.2791" stop-color="#4E9CDB"></stop><stop offset="0.4801" stop-color="#49BDDD"></stop><stop offset="0.6715" stop-color="#45D5DF"></stop><stop offset="0.8493" stop-color="#43E3E0"></stop><stop offset="1" stop-color="#42E8E0"></stop></linearGradient><linearGradient id="paint21_linear_2288_189321" x1="291.381" y1="191.244" x2="393.286" y2="191.244" gradientUnits="userSpaceOnUse"><stop stop-color="#5761D7"></stop><stop offset="0.0726" stop-color="#5472D8"></stop><stop offset="0.2791" stop-color="#4E9CDB"></stop><stop offset="0.4801" stop-color="#49BDDD"></stop><stop offset="0.6715" stop-color="#45D5DF"></stop><stop offset="0.8493" stop-color="#43E3E0"></stop><stop offset="1" stop-color="#42E8E0"></stop></linearGradient><linearGradient id="paint22_linear_2288_189321" x1="291.382" y1="183.363" x2="393.287" y2="183.363" gradientUnits="userSpaceOnUse"><stop stop-color="#5761D7"></stop><stop offset="0.0726" stop-color="#5472D8"></stop><stop offset="0.2791" stop-color="#4E9CDB"></stop><stop offset="0.4801" stop-color="#49BDDD"></stop><stop offset="0.6715" stop-color="#45D5DF"></stop><stop offset="0.8493" stop-color="#43E3E0"></stop><stop offset="1" stop-color="#42E8E0"></stop></linearGradient><linearGradient id="paint23_linear_2288_189321" x1="291.382" y1="197.492" x2="393.286" y2="197.492" gradientUnits="userSpaceOnUse"><stop stop-color="#5761D7"></stop><stop offset="0.0726" stop-color="#5472D8"></stop><stop offset="0.2791" stop-color="#4E9CDB"></stop><stop offset="0.4801" stop-color="#49BDDD"></stop><stop offset="0.6715" stop-color="#45D5DF"></stop><stop offset="0.8493" stop-color="#43E3E0"></stop><stop offset="1" stop-color="#42E8E0"></stop></linearGradient><linearGradient id="paint24_linear_2288_189321" x1="297.351" y1="262.846" x2="201.543" y2="262.846" gradientUnits="userSpaceOnUse"><stop stop-color="#5761D7"></stop><stop offset="0.0726" stop-color="#5472D8"></stop><stop offset="0.2791" stop-color="#4E9CDB"></stop><stop offset="0.4801" stop-color="#49BDDD"></stop><stop offset="0.6715" stop-color="#45D5DF"></stop><stop offset="0.8493" stop-color="#43E3E0"></stop><stop offset="1" stop-color="#42E8E0"></stop></linearGradient><linearGradient id="paint25_linear_2288_189321" x1="297.351" y1="255.476" x2="201.543" y2="255.476" gradientUnits="userSpaceOnUse"><stop stop-color="#5761D7"></stop><stop offset="0.0726" stop-color="#5472D8"></stop><stop offset="0.2791" stop-color="#4E9CDB"></stop><stop offset="0.4801" stop-color="#49BDDD"></stop><stop offset="0.6715" stop-color="#45D5DF"></stop><stop offset="0.8493" stop-color="#43E3E0"></stop><stop offset="1" stop-color="#42E8E0"></stop></linearGradient><linearGradient id="paint26_linear_2288_189321" x1="297.351" y1="248.105" x2="201.543" y2="248.105" gradientUnits="userSpaceOnUse"><stop stop-color="#5761D7"></stop><stop offset="0.0726" stop-color="#5472D8"></stop><stop offset="0.2791" stop-color="#4E9CDB"></stop><stop offset="0.4801" stop-color="#49BDDD"></stop><stop offset="0.6715" stop-color="#45D5DF"></stop><stop offset="0.8493" stop-color="#43E3E0"></stop><stop offset="1" stop-color="#42E8E0"></stop></linearGradient><linearGradient id="paint27_linear_2288_189321" x1="297.351" y1="240.735" x2="201.543" y2="240.735" gradientUnits="userSpaceOnUse"><stop stop-color="#5761D7"></stop><stop offset="0.0726" stop-color="#5472D8"></stop><stop offset="0.2791" stop-color="#4E9CDB"></stop><stop offset="0.4801" stop-color="#49BDDD"></stop><stop offset="0.6715" stop-color="#45D5DF"></stop><stop offset="0.8493" stop-color="#43E3E0"></stop><stop offset="1" stop-color="#42E8E0"></stop></linearGradient><linearGradient id="paint28_linear_2288_189321" x1="297.35" y1="251.79" x2="201.542" y2="251.79" gradientUnits="userSpaceOnUse"><stop stop-color="#5761D7"></stop><stop offset="0.0726" stop-color="#5472D8"></stop><stop offset="0.2791" stop-color="#4E9CDB"></stop><stop offset="0.4801" stop-color="#49BDDD"></stop><stop offset="0.6715" stop-color="#45D5DF"></stop><stop offset="0.8493" stop-color="#43E3E0"></stop><stop offset="1" stop-color="#42E8E0"></stop></linearGradient><linearGradient id="paint29_linear_2288_189321" x1="307.536" y1="228.226" x2="191.364" y2="228.226" gradientUnits="userSpaceOnUse"><stop stop-color="#5761D7"></stop><stop offset="0.0726" stop-color="#5472D8"></stop><stop offset="0.2791" stop-color="#4E9CDB"></stop><stop offset="0.4801" stop-color="#49BDDD"></stop><stop offset="0.6715" stop-color="#45D5DF"></stop><stop offset="0.8493" stop-color="#43E3E0"></stop><stop offset="1" stop-color="#42E8E0"></stop></linearGradient><linearGradient id="paint30_linear_2288_189321" x1="307.536" y1="219.289" x2="191.364" y2="219.289" gradientUnits="userSpaceOnUse"><stop stop-color="#5761D7"></stop><stop offset="0.0726" stop-color="#5472D8"></stop><stop offset="0.2791" stop-color="#4E9CDB"></stop><stop offset="0.4801" stop-color="#49BDDD"></stop><stop offset="0.6715" stop-color="#45D5DF"></stop><stop offset="0.8493" stop-color="#43E3E0"></stop><stop offset="1" stop-color="#42E8E0"></stop></linearGradient><linearGradient id="paint31_linear_2288_189321" x1="307.536" y1="210.352" x2="191.364" y2="210.352" gradientUnits="userSpaceOnUse"><stop stop-color="#5761D7"></stop><stop offset="0.0726" stop-color="#5472D8"></stop><stop offset="0.2791" stop-color="#4E9CDB"></stop><stop offset="0.4801" stop-color="#49BDDD"></stop><stop offset="0.6715" stop-color="#45D5DF"></stop><stop offset="0.8493" stop-color="#43E3E0"></stop><stop offset="1" stop-color="#42E8E0"></stop></linearGradient><linearGradient id="paint32_linear_2288_189321" x1="307.536" y1="201.416" x2="191.364" y2="201.416" gradientUnits="userSpaceOnUse"><stop stop-color="#5761D7"></stop><stop offset="0.0726" stop-color="#5472D8"></stop><stop offset="0.2791" stop-color="#4E9CDB"></stop><stop offset="0.4801" stop-color="#49BDDD"></stop><stop offset="0.6715" stop-color="#45D5DF"></stop><stop offset="0.8493" stop-color="#43E3E0"></stop><stop offset="1" stop-color="#42E8E0"></stop></linearGradient><linearGradient id="paint33_linear_2288_189321" x1="307.536" y1="214.821" x2="191.363" y2="214.821" gradientUnits="userSpaceOnUse"><stop stop-color="#5761D7"></stop><stop offset="0.0726" stop-color="#5472D8"></stop><stop offset="0.2791" stop-color="#4E9CDB"></stop><stop offset="0.4801" stop-color="#49BDDD"></stop><stop offset="0.6715" stop-color="#45D5DF"></stop><stop offset="0.8493" stop-color="#43E3E0"></stop><stop offset="1" stop-color="#42E8E0"></stop></linearGradient><linearGradient id="paint34_linear_2288_189321" x1="307.536" y1="201.416" x2="191.364" y2="201.416" gradientUnits="userSpaceOnUse"><stop stop-color="#5761D7"></stop><stop offset="0.0726" stop-color="#5472D8"></stop><stop offset="0.2791" stop-color="#4E9CDB"></stop><stop offset="0.4801" stop-color="#49BDDD"></stop><stop offset="0.6715" stop-color="#45D5DF"></stop><stop offset="0.8493" stop-color="#43E3E0"></stop><stop offset="1" stop-color="#42E8E0"></stop></linearGradient><linearGradient id="paint35_linear_2288_189321" x1="307.535" y1="217.522" x2="191.364" y2="217.522" gradientUnits="userSpaceOnUse"><stop stop-color="#5761D7"></stop><stop offset="0.0726" stop-color="#5472D8"></stop><stop offset="0.2791" stop-color="#4E9CDB"></stop><stop offset="0.4801" stop-color="#49BDDD"></stop><stop offset="0.6715" stop-color="#45D5DF"></stop><stop offset="0.8493" stop-color="#43E3E0"></stop><stop offset="1" stop-color="#42E8E0"></stop></linearGradient><linearGradient id="paint36_linear_2288_189321" x1="275.289" y1="136.19" x2="263.051" y2="136.9" gradientUnits="userSpaceOnUse"><stop stop-color="#5761D7"></stop><stop offset="0.0726" stop-color="#5472D8"></stop><stop offset="0.2791" stop-color="#4E9CDB"></stop><stop offset="0.4801" stop-color="#49BDDD"></stop><stop offset="0.6715" stop-color="#45D5DF"></stop><stop offset="0.8493" stop-color="#43E3E0"></stop><stop offset="1" stop-color="#42E8E0"></stop></linearGradient><linearGradient id="paint37_linear_2288_189321" x1="258.219" y1="141.161" x2="232.617" y2="142.646" gradientUnits="userSpaceOnUse"><stop stop-color="#5761D7"></stop><stop offset="0.0726" stop-color="#5472D8"></stop><stop offset="0.2791" stop-color="#4E9CDB"></stop><stop offset="0.4801" stop-color="#49BDDD"></stop><stop offset="0.6715" stop-color="#45D5DF"></stop><stop offset="0.8493" stop-color="#43E3E0"></stop><stop offset="1" stop-color="#42E8E0"></stop></linearGradient><linearGradient id="paint38_linear_2288_189321" x1="268.099" y1="108.017" x2="226.458" y2="110.432" gradientUnits="userSpaceOnUse"><stop stop-color="#5761D7"></stop><stop offset="0.0726" stop-color="#5472D8"></stop><stop offset="0.2791" stop-color="#4E9CDB"></stop><stop offset="0.4801" stop-color="#49BDDD"></stop><stop offset="0.6715" stop-color="#45D5DF"></stop><stop offset="0.8493" stop-color="#43E3E0"></stop><stop offset="1" stop-color="#42E8E0"></stop></linearGradient></defs></svg>