<svg xmlns="http://www.w3.org/2000/svg" width="500" height="300" viewBox="0 0 500 300" fill="none"><rect width="500" height="300" rx="24" fill="white"></rect><path d="M224.863 113.192C224.156 112.785 223.611 112.765 223.266 113.076L218.74 115.659L218.596 115.825L211.434 111.804C210.932 111.516 210.542 111.491 210.286 111.693L205.762 114.293L219.782 123.536L224.312 120.93V119.241L225.369 120.441L229.899 117.836V116.084L224.863 113.192Z" fill="#FDDA5C"></path><path d="M220.337 115.797C219.095 115.083 218.33 115.523 218.33 116.951V120.975L206.907 114.41C205.99 113.884 205.426 114.208 205.426 115.261V115.322L219.785 123.536V118.03C219.785 117.513 220.063 117.355 220.515 117.617L225.371 120.443V118.691L220.337 115.797Z" fill="#FAA226"></path><path d="M206.324 123.856C205.617 123.449 205.072 123.429 204.727 123.74L200.201 126.323L200.057 126.489L192.895 122.468C192.393 122.18 192.003 122.155 191.747 122.357L187.223 124.957L201.243 134.199L205.773 131.593V129.904L206.83 131.105L211.36 128.499V126.748L206.324 123.856Z" fill="#FDDA5C"></path><path d="M201.798 126.461C200.556 125.747 199.791 126.187 199.791 127.615V131.639L188.368 125.074C187.451 124.547 186.887 124.871 186.887 125.925V125.986L201.246 134.2V128.693C201.246 128.176 201.524 128.019 201.976 128.281L206.832 131.106V129.355L201.798 126.461Z" fill="#FAA226"></path><path d="M187.785 134.519C187.078 134.113 186.533 134.093 186.188 134.403L181.662 136.987L181.518 137.153L174.356 133.132C173.854 132.843 173.464 132.819 173.208 133.02L168.684 135.621L182.704 144.864L187.234 142.258V140.569L188.291 141.769L192.821 139.163V137.412L187.785 134.519Z" fill="#FDDA5C"></path><path d="M183.259 137.125C182.017 136.411 181.251 136.851 181.251 138.279V142.303L169.829 135.737C168.912 135.211 168.348 135.535 168.348 136.588V136.649L182.707 144.864V139.357C182.707 138.84 182.985 138.682 183.437 138.945L188.293 141.77V140.018L183.259 137.125Z" fill="#FAA226"></path><path d="M169.242 145.183C168.535 144.777 167.99 144.757 167.645 145.068L163.119 147.651L162.975 147.817L155.813 143.796C155.311 143.508 154.921 143.483 154.665 143.685L150.141 146.285L164.161 155.528L168.691 152.922V151.233L169.748 152.434L174.278 149.828V148.077L169.242 145.183Z" fill="#FDDA5C"></path><path d="M164.716 147.788C163.474 147.074 162.708 147.514 162.708 148.942V152.966L151.286 146.401C150.369 145.874 149.805 146.199 149.805 147.252V147.313L164.164 155.527V150.02C164.164 149.504 164.442 149.346 164.894 149.608L169.75 152.434V150.683L164.716 147.788Z" fill="#FAA226"></path><path d="M303.176 126.462C303.884 126.056 304.429 126.035 304.774 126.347L309.3 128.93L309.444 129.096L316.606 125.075C317.107 124.787 317.498 124.762 317.754 124.963L322.278 127.564L308.257 136.807L303.727 134.201V132.512L302.671 133.712L298.141 131.107V129.355L303.176 126.462Z" fill="#FDDA5C"></path><path d="M307.706 129.067C308.948 128.353 309.713 128.793 309.713 130.221V134.245L321.136 127.679C322.053 127.152 322.617 127.477 322.617 128.53V128.591L308.258 136.805V131.298C308.258 130.781 307.98 130.624 307.528 130.886L302.672 133.712V131.96L307.706 129.067Z" fill="#FAA226"></path><path d="M284.637 115.798C285.345 115.392 285.89 115.372 286.234 115.683L290.761 118.266L290.905 118.432L298.067 114.411C298.568 114.123 298.959 114.098 299.215 114.3L303.739 116.9L289.718 126.142L285.188 123.536V121.847L284.132 123.048L279.602 120.442V118.691L284.637 115.798Z" fill="#FDDA5C"></path><path d="M289.167 118.403C290.409 117.689 291.174 118.129 291.174 119.557V123.581L302.597 117.015C303.514 116.489 304.078 116.813 304.078 117.866V117.927L289.719 126.141V120.635C289.719 120.118 289.441 119.96 288.989 120.223L284.133 123.048V121.296L289.167 118.403Z" fill="#FAA226"></path><path d="M266.098 105.134C266.806 104.728 267.351 104.708 267.695 105.019L272.222 107.602L272.366 107.768L279.528 103.747C280.029 103.459 280.42 103.434 280.676 103.636L285.2 106.236L271.179 115.479L266.649 112.873V111.184L265.593 112.384L261.062 109.779V108.027L266.098 105.134Z" fill="#FDDA5C"></path><path d="M270.628 107.74C271.87 107.026 272.635 107.466 272.635 108.894V112.918L284.058 106.353C284.974 105.826 285.539 106.15 285.539 107.204V107.265L271.18 115.479V109.972C271.18 109.455 270.902 109.298 270.45 109.56L265.594 112.385V110.634L270.628 107.74Z" fill="#FAA226"></path><path d="M243.395 102.528C242.687 102.122 242.142 102.101 241.797 102.412L237.271 104.995L237.127 105.161L229.965 101.14C229.463 100.852 229.072 100.827 228.817 101.029L224.293 103.629L238.314 112.872L242.844 110.266V108.577L243.9 109.777L248.43 107.172V105.42L243.395 102.528Z" fill="#FDDA5C"></path><path d="M238.868 105.134C237.626 104.419 236.861 104.86 236.861 106.287V110.311L225.438 103.746C224.522 103.219 223.957 103.543 223.957 104.597V104.658L238.316 112.872V107.365C238.316 106.848 238.594 106.691 239.046 106.953L243.902 109.778V108.027L238.868 105.134Z" fill="#FAA226"></path><path d="M321.723 137.126C322.431 136.719 322.976 136.699 323.32 137.01L327.847 139.594L327.991 139.76L335.153 135.739C335.654 135.45 336.045 135.425 336.301 135.627L340.825 138.228L326.804 147.47L322.274 144.864V143.175L321.218 144.375L316.688 141.77V140.018L321.723 137.126Z" fill="#FDDA5C"></path><path d="M326.253 139.731C327.495 139.017 328.26 139.457 328.26 140.885V144.909L339.683 138.343C340.599 137.816 341.164 138.141 341.164 139.194V139.255L326.805 147.469V141.962C326.805 141.445 326.527 141.288 326.075 141.55L321.219 144.375V142.624L326.253 139.731Z" fill="#FAA226"></path><path d="M156.266 153.367L167.871 152.859L247.077 107.336C249.963 105.677 254.33 105.496 256.83 106.933L324.794 145.996L335.082 145.546V153.209C335.09 153.312 335.089 153.416 335.082 153.52V153.562H335.08C334.996 154.609 334.198 155.694 332.705 156.551L244.283 207.373C241.396 209.031 237.029 209.212 234.53 207.775L157.953 163.762C156.814 163.108 156.266 162.23 156.272 161.312H156.266V153.367H156.266Z" fill="#2E466C"></path><path d="M256.829 98.7513L333.405 142.763C335.905 144.2 335.591 146.709 332.705 148.369L244.282 199.189C241.396 200.848 237.029 201.028 234.529 199.591L157.953 155.58C155.454 154.143 155.767 151.634 158.654 149.974L247.076 99.1536C249.963 97.4946 254.33 97.3145 256.829 98.7513Z" fill="#607ACE"></path><path d="M172.102 145.891L181.651 145.473L246.826 108.014C249.201 106.649 252.794 106.501 254.851 107.683L310.776 139.826L319.241 139.456V145.762C319.248 145.847 319.247 145.932 319.241 146.018V146.053H319.24C319.171 146.914 318.514 147.806 317.286 148.512L244.527 190.33C242.152 191.696 238.559 191.844 236.501 190.661L173.49 154.445C172.553 153.906 172.102 153.184 172.107 152.428H172.102V145.891Z" fill="#2E466C"></path><path d="M254.851 101.105L317.862 137.32C319.919 138.503 319.661 140.567 317.286 141.933L244.526 183.751C242.151 185.116 238.558 185.264 236.501 184.082L173.49 147.867C171.433 146.685 171.692 144.62 174.066 143.254L246.825 101.436C249.201 100.071 252.794 99.9228 254.851 101.105Z" fill="#FDDA5C"></path><path d="M330.177 152.549L335.211 155.442C336.453 156.156 337.219 157.475 337.219 158.904V162.928L348.638 169.465C349.584 170.006 350.154 171.022 350.123 172.108L345.598 174.709L331.736 165.5V159.564L325.652 155.151L330.177 152.549Z" fill="#FDDA5C"></path><path d="M344.117 172.095L332.694 165.529V161.505C332.694 160.078 331.929 158.758 330.687 158.044L325.652 155.151V156.901L330.509 159.658C330.96 159.915 331.239 160.392 331.239 160.909V166.416L345.598 174.708V174.647C345.598 173.595 345.033 172.622 344.117 172.095Z" fill="#FAA226"></path><path d="M311.634 163.213L316.668 166.106C317.91 166.82 318.676 168.139 318.676 169.567V173.592L330.095 180.129C331.041 180.67 331.611 181.686 331.58 182.771L327.055 185.373L313.193 176.164V170.228L307.109 165.815L311.634 163.213Z" fill="#FDDA5C"></path><path d="M325.574 182.759L314.151 176.194V172.17C314.151 170.742 313.386 169.423 312.144 168.708L307.109 165.815V167.567L311.966 170.324C312.417 170.58 312.696 171.057 312.696 171.574V177.081L327.055 185.373V185.312C327.055 184.259 326.49 183.285 325.574 182.759Z" fill="#FAA226"></path><path d="M293.107 173.877L298.141 176.77C299.383 177.484 300.148 178.803 300.148 180.231V184.256L311.568 190.793C312.514 191.334 313.084 192.35 313.052 193.435L308.527 196.037L294.666 186.828V180.892L288.582 176.479L293.107 173.877Z" fill="#FDDA5C"></path><path d="M307.047 193.423L295.624 186.857V182.833C295.624 181.405 294.858 180.086 293.616 179.372L288.582 176.478V178.23L293.439 180.987C293.89 181.243 294.168 181.721 294.168 182.238V187.744L308.527 196.036V195.976C308.527 194.923 307.963 193.949 307.047 193.423Z" fill="#FAA226"></path><path d="M274.564 184.541L279.598 187.434C280.84 188.148 281.605 189.467 281.605 190.895V194.919L293.025 201.457C293.971 201.998 294.541 203.014 294.509 204.099L289.984 206.701L276.123 197.492V191.556L270.039 187.143L274.564 184.541Z" fill="#FDDA5C"></path><path d="M288.504 204.087L277.081 197.521V193.497C277.081 192.069 276.315 190.75 275.073 190.036L270.039 187.142V188.893L274.896 191.65C275.347 191.906 275.625 192.384 275.625 192.901V198.408L289.984 206.7V206.639C289.984 205.587 289.42 204.613 288.504 204.087Z" fill="#FAA226"></path><path d="M256.021 195.204L261.055 198.098C262.297 198.812 263.063 200.131 263.063 201.559V205.583L274.482 212.121C275.428 212.662 275.998 213.677 275.966 214.763L271.441 217.365L257.58 208.155V202.219L251.496 197.807L256.021 195.204Z" fill="#FDDA5C"></path><path d="M269.961 214.75L258.538 208.185V204.161C258.538 202.733 257.772 201.413 256.53 200.699L251.496 197.806V199.557L256.353 202.314C256.804 202.57 257.083 203.048 257.083 203.564V209.071L271.441 217.363V217.302C271.441 216.25 270.877 215.277 269.961 214.75Z" fill="#FAA226"></path><path d="M164.947 163.213L159.912 166.106C158.67 166.82 157.905 168.139 157.905 169.567V173.592L146.485 180.129C145.54 180.67 144.97 181.686 145.001 182.771L149.526 185.373L163.387 176.164V170.228L169.471 165.815L164.947 163.213Z" fill="#FDDA5C"></path><path d="M151.004 182.759L162.427 176.194V172.17C162.427 170.742 163.193 169.423 164.435 168.708L169.469 165.815V167.567L164.612 170.324C164.161 170.58 163.882 171.057 163.882 171.574V177.081L149.523 185.373V185.312C149.523 184.259 150.088 183.285 151.004 182.759Z" fill="#FAA226"></path><path d="M183.49 173.877L178.455 176.77C177.213 177.484 176.448 178.803 176.448 180.231V184.256L165.028 190.793C164.083 191.334 163.513 192.35 163.544 193.435L168.069 196.037L181.93 186.828V180.892L188.014 176.479L183.49 173.877Z" fill="#FDDA5C"></path><path d="M169.547 193.423L180.97 186.857V182.833C180.97 181.405 181.736 180.086 182.978 179.372L188.012 176.478V178.23L183.155 180.987C182.704 181.243 182.425 181.721 182.425 182.238V187.744L168.066 196.036V195.976C168.067 194.923 168.631 193.949 169.547 193.423Z" fill="#FAA226"></path><path d="M202.017 184.541L196.983 187.434C195.741 188.148 194.975 189.467 194.975 190.895V194.919L183.556 201.457C182.61 201.998 182.04 203.014 182.072 204.099L186.596 206.701L200.458 197.492V191.556L206.542 187.143L202.017 184.541Z" fill="#FDDA5C"></path><path d="M188.075 204.087L199.498 197.521V193.497C199.498 192.069 200.263 190.75 201.505 190.036L206.539 187.142V188.893L201.683 191.65C201.231 191.906 200.953 192.384 200.953 192.901V198.408L186.594 206.7V206.639C186.594 205.586 187.158 204.613 188.075 204.087Z" fill="#FAA226"></path><path d="M220.56 195.204L215.526 198.098C214.284 198.812 213.518 200.131 213.518 201.559V205.583L202.099 212.121C201.153 212.662 200.583 213.677 200.615 214.763L205.139 217.365L219.001 208.155V202.219L225.085 197.807L220.56 195.204Z" fill="#FDDA5C"></path><path d="M206.614 214.75L218.037 208.185V204.161C218.037 202.733 218.802 201.414 220.044 200.699L225.078 197.806V199.557L220.222 202.314C219.77 202.57 219.492 203.048 219.492 203.565V209.071L205.133 217.364V217.303C205.133 216.25 205.698 215.277 206.614 214.75Z" fill="#FAA226"></path><path d="M344.117 172.095L332.694 165.529V161.505C332.694 160.078 331.929 158.758 330.687 158.044L325.652 155.151V156.901L330.509 159.658C330.96 159.915 331.239 160.392 331.239 160.909V166.416L345.598 174.708V174.647C345.598 173.595 345.033 172.622 344.117 172.095Z" fill="#FAA226"></path><path d="M123.655 96.7221L172.5 124.739L108.303 161.636C103.805 164.221 103.316 168.131 107.211 170.37L155.096 197.897L155.094 197.898L106.352 225.906" stroke="#2E466C" stroke-width="1.2982" stroke-miterlimit="10" stroke-linecap="round" stroke-linejoin="round"></path><path d="M359.987 232.555L311.214 204.523L247.054 241.399C242.557 243.984 235.753 244.265 231.858 242.026L175.578 209.673L126.836 237.68" stroke="#2E466C" stroke-width="1.2982" stroke-miterlimit="10" stroke-linecap="round" stroke-linejoin="round"></path><path d="M378.725 92.9495L329.66 121.144L385.919 153.484C389.814 155.723 389.325 159.633 384.827 162.218L331.709 192.748L380.482 220.78" stroke="#2E466C" stroke-width="1.2982" stroke-miterlimit="10" stroke-linecap="round" stroke-linejoin="round"></path><path d="M358.233 81.1745L309.169 109.367L261.265 81.8277C257.37 79.5889 250.566 79.87 246.069 82.4547L192.937 112.992L192.987 112.963L144.141 84.9464" stroke="#2E466C" stroke-width="1.2982" stroke-miterlimit="10" stroke-linecap="round" stroke-linejoin="round"></path><path d="M360.522 81.1745C360.522 79.9152 359.496 78.8951 358.232 78.8951C356.967 78.8951 355.941 79.9159 355.941 81.1745C355.941 82.4338 356.967 83.4545 358.232 83.4545C359.497 83.4545 360.522 82.4338 360.522 81.1745Z" fill="#2E466C"></path><path d="M381.01 92.9496C381.01 91.6903 379.984 90.6695 378.719 90.6695C377.454 90.6695 376.43 91.6903 376.43 92.9496C376.43 94.2088 377.455 95.2296 378.719 95.2296C379.984 95.2296 381.01 94.2088 381.01 92.9496Z" fill="#2E466C"></path><path d="M146.44 84.3594C146.44 83.1001 145.415 82.08 144.15 82.08C142.885 82.08 141.859 83.1007 141.859 84.3594C141.859 85.6186 142.885 86.6394 144.15 86.6394C145.415 86.6394 146.44 85.6186 146.44 84.3594Z" fill="#2E466C"></path><path d="M123.568 98.9347C124.833 98.9347 125.858 97.9139 125.858 96.6546C125.858 95.3954 124.833 94.3746 123.568 94.3746C122.303 94.3746 121.277 95.3954 121.277 96.6546C121.277 97.9139 122.303 98.9347 123.568 98.9347Z" fill="#2E466C"></path><path d="M129.135 237.917C129.135 236.658 128.109 235.638 126.845 235.638C125.58 235.638 124.555 236.659 124.555 237.917C124.555 239.176 125.58 240.198 126.845 240.198C128.109 240.197 129.135 239.176 129.135 237.917Z" fill="#2E466C"></path><path d="M359.994 234.972C361.258 234.972 362.284 233.951 362.284 232.692C362.284 231.432 361.258 230.412 359.994 230.412C358.729 230.412 357.703 231.432 357.703 232.692C357.703 233.951 358.729 234.972 359.994 234.972Z" fill="#2E466C"></path><path d="M380.431 223.06C381.696 223.06 382.721 222.04 382.721 220.78C382.721 219.521 381.696 218.5 380.431 218.5C379.166 218.5 378.141 219.521 378.141 220.78C378.141 222.04 379.166 223.06 380.431 223.06Z" fill="#2E466C"></path><path d="M108.498 225.906C108.498 224.647 107.473 223.626 106.208 223.626C104.943 223.626 103.918 224.647 103.918 225.906C103.918 227.164 104.943 228.185 106.208 228.185C107.473 228.185 108.498 227.165 108.498 225.906Z" fill="#2E466C"></path><path d="M111.613 244.185L65.6992 248.141V261.973L65.7032 261.972C65.7315 264.977 67.569 267.841 71.3008 269.986C79.6014 274.757 94.1013 274.159 103.686 268.65C109.002 265.595 111.685 261.671 111.609 257.967H111.613V244.185Z" fill="#FAA226"></path><path d="M73.6282 237.509C83.2136 232 97.7127 231.402 106.013 236.172C114.314 240.943 113.274 249.276 103.688 254.785C94.1028 260.294 79.6036 260.893 71.3029 256.122C63.0023 251.351 64.0435 243.017 73.6282 237.509Z" fill="#FDDA5C"></path><path d="M111.617 224.645L65.7031 228.601V242.432H65.7071C65.7354 245.437 67.5729 248.302 71.3047 250.447C79.6053 255.218 94.1052 254.62 103.69 249.11C109.006 246.055 111.689 242.131 111.613 238.427L111.617 238.427V224.645Z" fill="#92B938"></path><path d="M90.2446 239.517C102.895 237.982 112.443 230.962 111.571 223.837C110.699 216.713 99.7361 212.182 87.0855 213.717C74.435 215.252 64.8869 222.272 65.7592 229.396C66.6315 236.521 77.594 241.052 90.2446 239.517Z" fill="#A8C760"></path><path d="M111.609 205.105C111.58 202.101 109.742 199.236 106.011 197.091C97.7106 192.32 83.2108 192.918 73.626 198.428C68.3338 201.469 65.6518 205.372 65.7032 209.06L65.6992 209.061V222.893L65.7032 222.892C65.7315 225.897 67.569 228.761 71.3008 230.906C79.6014 235.677 94.1013 235.079 103.686 229.57C109.002 226.514 111.685 222.591 111.609 218.887H111.613V205.104L111.609 205.105Z" fill="#EF651D"></path><path d="M73.6282 198.428C83.2136 192.919 97.7127 192.321 106.013 197.091C114.314 201.862 113.274 210.196 103.688 215.705C94.1028 221.213 79.6036 221.812 71.3029 217.041C63.0023 212.271 64.0435 203.937 73.6282 198.428Z" fill="#FAA226"></path><path d="M363.352 52.1542L441.151 58.6295L441.146 70.8363C441.143 71.8545 440.4 72.9264 438.941 73.765L412.996 88.6771C410.324 90.2129 406.282 90.3799 403.968 89.0499L364.913 66.6031C363.845 65.9892 363.339 65.1637 363.359 64.3014L363.352 52.1542Z" fill="#607ACE"></path><path d="M400.536 33.8476L439.59 56.2944C441.904 57.6244 441.614 59.9477 438.942 61.4835L412.997 76.3956C410.325 77.9314 406.283 78.0984 403.968 76.7684L364.914 54.3216C362.6 52.9916 362.89 50.6683 365.562 49.1325L391.507 34.2204C394.179 32.684 398.222 32.5176 400.536 33.8476Z" fill="#495D1C"></path><path d="M398.68 79.7692C398.68 80.9066 399.374 82.2281 400.231 82.7201C401.088 83.2128 401.783 82.69 401.783 81.5526C401.783 80.4152 401.089 79.0937 400.231 78.601C399.374 78.1089 398.68 78.6318 398.68 79.7692Z" fill="#FDDA5C"></path><path d="M394.145 77.1504C394.145 78.2878 394.839 79.6093 395.696 80.102C396.553 80.5947 397.248 80.0719 397.248 78.9345C397.248 77.7971 396.553 76.4755 395.696 75.9828C394.839 75.4895 394.145 76.0123 394.145 77.1504Z" fill="#FDDA5C"></path><path d="M389.605 74.5309C389.605 75.6683 390.3 76.9899 391.157 77.4826C392.014 77.9753 392.708 77.4524 392.708 76.315C392.708 75.1776 392.014 73.8561 391.157 73.3634C390.3 72.8707 389.605 73.3935 389.605 74.5309Z" fill="#FDDA5C"></path><path d="M385.07 71.9121C385.07 73.0496 385.765 74.3711 386.622 74.8638C387.479 75.3565 388.174 74.8336 388.174 73.6962C388.174 72.5588 387.479 71.2373 386.622 70.7446C385.765 70.2519 385.07 70.7747 385.07 71.9121Z" fill="#FDDA5C"></path><path d="M366.516 61.319C366.516 63.1247 367.619 65.2226 368.978 66.0043C370.339 66.7859 371.441 65.9565 371.441 64.1508C371.441 62.345 370.339 60.2471 368.978 59.4655C367.619 58.6832 366.516 59.5133 366.516 61.319Z" fill="#FDDA5C"></path><path d="M407.892 77.7923C406.445 77.7923 405.128 77.4936 404.184 76.9511L365.129 54.5049C364.235 53.9906 363.771 53.3256 363.788 52.5813L363.781 40.8868L440.726 47.2907L440.721 59.1063C440.718 60.0072 439.993 60.9409 438.731 61.6668L412.786 76.5789C411.444 77.3494 409.661 77.7923 407.892 77.7923Z" fill="#CADAF1"></path><path d="M364.207 41.3488L440.297 47.6819L440.292 59.1038C440.29 59.8395 439.625 60.6598 438.514 61.2986L412.569 76.2108C411.29 76.9459 409.584 77.3672 407.889 77.3672C406.515 77.3672 405.275 77.0887 404.395 76.5829L365.34 54.1361C364.816 53.8354 364.195 53.3224 364.212 52.5709L364.207 41.3488ZM363.352 40.4243L363.359 52.5715C363.339 53.4331 363.846 54.2593 364.913 54.8732L403.968 77.32C405.016 77.9228 406.419 78.2176 407.889 78.2176C409.663 78.2176 411.534 77.7871 412.996 76.9472L438.941 62.0351C440.4 61.1971 441.143 60.1245 441.146 59.1064L441.151 46.8996L363.352 40.4243Z" fill="#2E466C"></path><path d="M396.615 22.1275C397.978 22.1275 399.209 22.4033 400.08 22.9039L439.134 45.3507C439.639 45.6409 440.24 46.131 440.24 46.8183C440.24 47.5325 439.584 48.3364 438.486 48.9673L412.541 63.8795C411.27 64.6093 409.575 65.028 407.889 65.028C406.526 65.028 405.295 64.7522 404.424 64.2516L365.37 41.8048C364.865 41.5146 364.264 41.0245 364.264 40.3372C364.264 39.623 364.92 38.8191 366.018 38.1882L391.963 23.2761C393.234 22.5462 394.929 22.1275 396.615 22.1275ZM396.615 21.2194C394.84 21.2194 392.969 21.6499 391.507 22.4898L365.562 37.4019C362.89 38.9377 362.6 41.261 364.914 42.591L403.968 65.0378C405.017 65.6406 406.42 65.9354 407.889 65.9354C409.664 65.9354 411.535 65.505 412.997 64.665L438.942 49.7529C441.614 48.2172 441.904 45.8939 439.59 44.5638L400.536 22.117C399.487 21.5149 398.084 21.2194 396.615 21.2194Z" fill="#2E466C"></path><path d="M398.68 68.0393C398.68 69.1767 399.374 70.4982 400.231 70.9902C401.088 71.4829 401.783 70.9601 401.783 69.8227C401.783 68.6853 401.089 67.3638 400.231 66.871C399.374 66.379 398.68 66.9018 398.68 68.0393Z" stroke="#2E466C" stroke-width="1.2982" stroke-miterlimit="10"></path><path d="M394.145 65.4205C394.145 66.5579 394.839 67.8794 395.696 68.3721C396.553 68.8648 397.248 68.342 397.248 67.2046C397.248 66.0672 396.553 64.7456 395.696 64.2536C394.839 63.7602 394.145 64.2831 394.145 65.4205Z" stroke="#2E466C" stroke-width="1.2982" stroke-miterlimit="10"></path><path d="M389.605 62.8017C389.605 63.9391 390.3 65.2606 391.157 65.7526C392.014 66.2453 392.708 65.7225 392.708 64.5851C392.708 63.4477 392.014 62.1262 391.157 61.6335C390.3 61.1408 389.605 61.6643 389.605 62.8017Z" stroke="#2E466C" stroke-width="1.2982" stroke-miterlimit="10"></path><path d="M385.07 60.1822C385.07 61.3196 385.765 62.6412 386.622 63.1339C387.479 63.6266 388.174 63.1037 388.174 61.9663C388.174 60.8289 387.479 59.5074 386.622 59.0147C385.765 58.522 385.07 59.0448 385.07 60.1822Z" stroke="#2E466C" stroke-width="1.2982" stroke-miterlimit="10"></path><path d="M366.508 49.5891C366.508 51.3948 367.611 53.4927 368.971 54.2744C370.331 55.056 371.433 54.2265 371.433 52.4208C371.433 50.6151 370.331 48.5172 368.971 47.7356C367.611 46.9533 366.508 47.7834 366.508 49.5891Z" stroke="#2E466C" stroke-width="1.2982" stroke-miterlimit="10"></path><path d="M363.352 27.2885L441.151 33.7637L441.146 45.9712C441.143 46.9893 440.4 48.0612 438.941 48.8999L412.996 63.812C410.324 65.3477 406.282 65.5148 403.968 64.1848L364.913 41.738C363.845 41.1241 363.339 40.2985 363.359 39.4363L363.352 27.2885Z" fill="#EF651D"></path><path d="M400.536 8.98117L439.59 31.4273C441.904 32.7573 441.614 35.0806 438.942 36.6164L412.997 51.5285C410.325 53.0643 406.283 53.2313 403.968 51.9013L364.914 29.4545C362.6 28.1245 362.89 25.8012 365.562 24.2654L391.507 9.35332C394.179 7.81821 398.222 7.65113 400.536 8.98117Z" fill="#FAA226"></path><path d="M398.68 54.9034C398.68 56.0408 399.374 57.3623 400.231 57.8544C401.088 58.3471 401.783 57.8242 401.783 56.6868C401.783 55.5494 401.089 54.2279 400.231 53.7352C399.374 53.2425 398.68 53.7653 398.68 54.9034Z" fill="#FDDA5C"></path><path d="M394.145 52.2839C394.145 53.4213 394.839 54.7429 395.696 55.2349C396.553 55.7276 397.248 55.2048 397.248 54.0674C397.248 52.93 396.553 51.6084 395.696 51.1157C394.839 50.6237 394.145 51.1465 394.145 52.2839Z" fill="#FDDA5C"></path><path d="M389.605 49.6651C389.605 50.8026 390.3 52.1241 391.157 52.6168C392.014 53.1095 392.708 52.5866 392.708 51.4492C392.708 50.3118 392.014 48.9903 391.157 48.4976C390.3 48.0049 389.605 48.5277 389.605 49.6651Z" fill="#FDDA5C"></path><path d="M385.07 47.0464C385.07 48.1838 385.765 49.5053 386.622 49.998C387.479 50.4907 388.174 49.9679 388.174 48.8304C388.174 47.693 387.479 46.3715 386.622 45.8788C385.765 45.3861 385.07 45.909 385.07 47.0464Z" fill="#FDDA5C"></path><path d="M366.516 36.4526C366.516 38.2583 367.619 40.3562 368.978 41.1379C370.339 41.9195 371.441 41.0901 371.441 39.2844C371.441 37.4787 370.339 35.3807 368.978 34.5991C367.619 33.8175 366.516 34.6476 366.516 36.4526Z" fill="#FDDA5C"></path><path d="M462.992 253.527V249.334L421.601 226.671L422.618 179.698L419.388 177.841C419.033 177.542 418.529 177.515 417.969 177.837L369.645 205.611C368.57 206.229 367.699 207.885 367.699 209.312V253.956C367.699 256.476 369.05 258.805 371.242 260.065L409.753 282.199C410.994 282.912 412.871 282.99 413.946 282.372L462.27 254.598C462.767 254.312 463.001 253.928 462.992 253.527Z" fill="#2E466C"></path><path d="M371.012 255.744L409.75 278.009C410.991 278.722 412.868 278.8 413.943 278.182L462.267 250.408C463.341 249.79 463.207 248.712 461.966 247.999L423.228 225.734L371.012 255.744Z" fill="#FDDA5C"></path><path d="M441.441 257.881L426.814 266.288C426.38 266.537 425.846 266.537 425.412 266.288L416.39 261.102C416.016 260.887 416.016 260.35 416.39 260.135L431.017 251.728C431.451 251.479 431.985 251.479 432.418 251.728L441.441 256.913C441.815 257.129 441.815 257.666 441.441 257.881Z" fill="#2E466C"></path><path d="M421.281 179.74L372.957 207.514C371.882 208.132 371.012 209.788 371.012 211.214V255.744L423.227 225.733V181.204C423.227 179.778 422.356 179.123 421.281 179.74Z" fill="#607ACE"></path><path d="M419.805 183.102L373.904 209.484C373.124 209.932 372.645 210.76 372.645 211.655V246.254C372.645 247.171 373.641 247.743 374.439 247.285L420.34 220.903C421.12 220.455 421.599 219.628 421.599 218.732V184.133C421.599 183.217 420.602 182.644 419.805 183.102Z" fill="white"></path><path d="M421.599 184.133C421.599 183.217 420.603 182.644 419.805 183.102L373.904 209.484C373.124 209.932 372.645 210.76 372.645 211.655V246.254C372.645 246.886 373.12 247.345 373.676 247.425L421.599 184.424V184.133Z" fill="#F8EBE5"></path><path d="M443.828 240.178L396.15 267.581C395.797 267.784 395.181 267.759 394.774 267.524L377.11 257.372C376.703 257.138 376.659 256.784 377.012 256.581L424.689 229.178C425.042 228.976 425.658 229.001 426.065 229.235L443.73 239.388C444.137 239.622 444.181 239.976 443.828 240.178Z" fill="#2E466C"></path><path d="M380.418 255.472L378.071 256.821C377.908 256.915 377.929 257.077 378.116 257.185L379.153 257.781C379.34 257.888 379.624 257.9 379.786 257.807L382.134 256.458C382.297 256.365 382.276 256.202 382.089 256.094L381.052 255.497C380.865 255.391 380.581 255.379 380.418 255.472Z" fill="white"></path><path d="M383.86 253.496L381.512 254.846C381.35 254.939 381.37 255.102 381.558 255.21L382.594 255.805C382.782 255.913 383.065 255.925 383.228 255.832L385.576 254.483C385.738 254.389 385.718 254.226 385.53 254.118L384.494 253.523C384.305 253.415 384.022 253.403 383.86 253.496Z" fill="white"></path><path d="M387.293 251.52L384.946 252.869C384.783 252.963 384.804 253.126 384.991 253.234L386.028 253.829C386.215 253.937 386.499 253.948 386.662 253.855L389.009 252.506C389.172 252.413 389.151 252.25 388.964 252.142L387.927 251.547C387.739 251.438 387.455 251.427 387.293 251.52Z" fill="white"></path><path d="M390.731 249.545L388.383 250.894C388.221 250.988 388.241 251.15 388.429 251.258L389.465 251.854C389.653 251.962 389.936 251.973 390.099 251.88L392.447 250.531C392.609 250.437 392.589 250.275 392.401 250.167L391.365 249.571C391.176 249.463 390.893 249.451 390.731 249.545Z" fill="white"></path><path d="M394.164 247.569L391.817 248.918C391.654 249.011 391.675 249.174 391.862 249.282L392.899 249.878C393.086 249.986 393.37 249.997 393.533 249.904L395.88 248.555C396.043 248.461 396.022 248.299 395.835 248.191L394.798 247.595C394.61 247.488 394.326 247.476 394.164 247.569Z" fill="white"></path><path d="M397.606 245.594L395.258 246.943C395.096 247.036 395.116 247.199 395.304 247.307L396.34 247.903C396.528 248.011 396.811 248.022 396.974 247.929L399.322 246.58C399.484 246.487 399.464 246.324 399.276 246.216L398.24 245.62C398.051 245.512 397.768 245.5 397.606 245.594Z" fill="white"></path><path d="M401.039 243.618L398.692 244.967C398.529 245.06 398.55 245.223 398.737 245.331L399.774 245.926C399.961 246.035 400.245 246.046 400.408 245.953L402.755 244.604C402.918 244.511 402.897 244.347 402.71 244.239L401.673 243.643C401.485 243.536 401.201 243.524 401.039 243.618Z" fill="white"></path><path d="M404.485 241.642L402.137 242.991C401.975 243.084 401.995 243.247 402.183 243.355L403.219 243.951C403.407 244.058 403.69 244.07 403.853 243.977L406.201 242.628C406.363 242.535 406.343 242.372 406.155 242.264L405.119 241.668C404.93 241.56 404.647 241.548 404.485 241.642Z" fill="white"></path><path d="M407.918 239.666L405.571 241.015C405.408 241.108 405.429 241.271 405.616 241.379L406.653 241.975C406.84 242.082 407.124 242.094 407.287 242.001L409.634 240.652C409.797 240.559 409.776 240.396 409.589 240.288L408.552 239.692C408.364 239.585 408.08 239.573 407.918 239.666Z" fill="white"></path><path d="M411.36 237.691L409.012 239.04C408.85 239.133 408.87 239.296 409.058 239.404L410.094 239.999C410.282 240.107 410.565 240.119 410.728 240.026L413.076 238.677C413.238 238.584 413.218 238.42 413.03 238.312L411.994 237.717C411.805 237.609 411.522 237.597 411.36 237.691Z" fill="white"></path><path d="M414.793 235.715L412.446 237.064C412.283 237.157 412.304 237.32 412.491 237.428L413.528 238.024C413.715 238.132 413.999 238.143 414.161 238.05L416.509 236.701C416.672 236.608 416.651 236.445 416.464 236.337L415.427 235.741C415.239 235.633 414.955 235.621 414.793 235.715Z" fill="white"></path><path d="M418.231 233.739L415.883 235.088C415.721 235.181 415.741 235.344 415.929 235.453L416.965 236.048C417.153 236.156 417.436 236.167 417.599 236.074L419.947 234.725C420.109 234.632 420.089 234.469 419.901 234.361L418.865 233.765C418.676 233.657 418.393 233.646 418.231 233.739Z" fill="white"></path><path d="M421.672 231.763L419.325 233.112C419.162 233.205 419.182 233.368 419.37 233.476L420.407 234.072C420.594 234.179 420.878 234.191 421.04 234.098L423.388 232.749C423.551 232.656 423.53 232.493 423.343 232.385L422.306 231.789C422.118 231.681 421.834 231.67 421.672 231.763Z" fill="white"></path><path d="M425.106 229.788L422.758 231.137C422.596 231.23 422.616 231.393 422.804 231.501L423.84 232.097C424.028 232.204 424.311 232.216 424.474 232.123L426.822 230.774C426.984 230.681 426.964 230.518 426.776 230.41L425.74 229.814C425.552 229.706 425.268 229.694 425.106 229.788Z" fill="white"></path><path d="M382.735 256.801L380.387 258.15C380.225 258.244 380.245 258.406 380.433 258.514L383.143 260.072C383.331 260.18 383.615 260.192 383.777 260.099L386.125 258.75C386.287 258.657 386.267 258.493 386.079 258.385L383.369 256.827C383.181 256.719 382.897 256.708 382.735 256.801Z" fill="white"></path><path d="M386.176 254.826L383.829 256.175C383.666 256.268 383.686 256.431 383.874 256.539L386.585 258.097C386.772 258.205 387.056 258.216 387.219 258.123L389.566 256.774C389.729 256.681 389.708 256.518 389.521 256.41L386.81 254.852C386.622 254.744 386.339 254.732 386.176 254.826Z" fill="white"></path><path d="M389.61 252.85L387.262 254.199C387.1 254.292 387.12 254.455 387.308 254.563L390.018 256.121C390.205 256.229 390.489 256.24 390.652 256.147L392.999 254.798C393.162 254.705 393.141 254.542 392.954 254.434L390.243 252.876C390.056 252.769 389.772 252.757 389.61 252.85Z" fill="white"></path><path d="M393.047 250.874L390.7 252.223C390.537 252.316 390.557 252.48 390.745 252.588L393.455 254.146C393.643 254.253 393.927 254.265 394.089 254.172L396.437 252.823C396.599 252.729 396.579 252.567 396.391 252.459L393.68 250.901C393.493 250.792 393.21 250.781 393.047 250.874Z" fill="white"></path><path d="M396.481 248.898L394.133 250.247C393.971 250.34 393.991 250.504 394.179 250.612L396.89 252.17C397.077 252.277 397.361 252.289 397.523 252.196L399.871 250.847C400.034 250.754 400.013 250.591 399.826 250.483L397.115 248.925C396.927 248.817 396.643 248.805 396.481 248.898Z" fill="white"></path><path d="M399.922 246.923L397.575 248.272C397.412 248.365 397.432 248.528 397.62 248.636L400.331 250.194C400.519 250.302 400.802 250.313 400.965 250.22L403.312 248.871C403.475 248.778 403.455 248.615 403.267 248.507L400.557 246.949C400.368 246.841 400.085 246.829 399.922 246.923Z" fill="white"></path><path d="M403.356 244.947L401.008 246.296C400.846 246.389 400.866 246.552 401.054 246.66L403.765 248.218C403.952 248.326 404.236 248.337 404.398 248.244L406.746 246.895C406.909 246.802 406.888 246.639 406.701 246.531L403.99 244.973C403.802 244.865 403.518 244.854 403.356 244.947Z" fill="white"></path><path d="M406.801 242.971L404.454 244.32C404.291 244.414 404.311 244.577 404.499 244.685L407.21 246.243C407.397 246.351 407.681 246.362 407.844 246.269L410.191 244.92C410.354 244.826 410.333 244.664 410.146 244.556L407.435 242.998C407.247 242.89 406.964 242.878 406.801 242.971Z" fill="white"></path><path d="M410.235 240.995L407.887 242.344C407.725 242.437 407.745 242.601 407.933 242.709L410.643 244.267C410.831 244.375 411.115 244.386 411.277 244.293L413.625 242.944C413.787 242.851 413.767 242.688 413.579 242.58L410.869 241.022C410.681 240.913 410.397 240.902 410.235 240.995Z" fill="white"></path><path d="M413.676 239.02L411.329 240.369C411.166 240.462 411.186 240.625 411.374 240.733L414.085 242.291C414.272 242.399 414.556 242.411 414.719 242.318L417.066 240.969C417.229 240.875 417.208 240.712 417.021 240.604L414.311 239.046C414.122 238.938 413.839 238.926 413.676 239.02Z" fill="white"></path><path d="M417.11 237.044L414.762 238.393C414.6 238.487 414.62 238.649 414.808 238.757L417.518 240.315C417.706 240.423 417.99 240.435 418.152 240.341L420.5 238.992C420.662 238.899 420.642 238.736 420.455 238.628L417.744 237.07C417.556 236.962 417.272 236.951 417.11 237.044Z" fill="white"></path><path d="M420.547 235.068L418.2 236.417C418.037 236.511 418.057 236.673 418.245 236.781L420.956 238.339C421.144 238.447 421.427 238.458 421.59 238.365L423.937 237.016C424.1 236.923 424.08 236.76 423.892 236.652L421.181 235.094C420.993 234.987 420.71 234.975 420.547 235.068Z" fill="white"></path><path d="M423.989 233.093L421.641 234.442C421.478 234.535 421.499 234.698 421.686 234.806L424.397 236.364C424.584 236.472 424.868 236.483 425.03 236.39L427.378 235.041C427.541 234.948 427.52 234.785 427.333 234.677L424.622 233.119C424.435 233.011 424.151 232.999 423.989 233.093Z" fill="white"></path><path d="M427.422 231.116L425.075 232.465C424.912 232.559 424.932 232.722 425.12 232.83L427.831 234.388C428.019 234.495 428.302 234.507 428.465 234.414L430.812 233.065C430.975 232.972 430.955 232.809 430.767 232.701L428.057 231.143C427.868 231.035 427.585 231.023 427.422 231.116Z" fill="white"></path><path d="M388.434 258.105L384.368 260.442C384.205 260.535 384.225 260.698 384.413 260.806L387.124 262.364C387.312 262.472 387.595 262.484 387.758 262.391L391.824 260.054C391.986 259.96 391.966 259.797 391.778 259.689L389.067 258.131C388.88 258.023 388.596 258.011 388.434 258.105Z" fill="white"></path><path d="M391.875 256.129L389.528 257.478C389.365 257.571 389.386 257.734 389.573 257.842L392.283 259.4C392.471 259.509 392.755 259.52 392.917 259.427L395.265 258.078C395.427 257.984 395.407 257.821 395.219 257.713L392.509 256.155C392.322 256.048 392.038 256.036 391.875 256.129Z" fill="white"></path><path d="M395.309 254.154L392.961 255.503C392.799 255.596 392.819 255.759 393.007 255.867L395.718 257.425C395.905 257.532 396.189 257.544 396.351 257.451L398.699 256.102C398.862 256.008 398.841 255.846 398.654 255.738L395.943 254.18C395.755 254.072 395.472 254.06 395.309 254.154Z" fill="white"></path><path d="M398.743 252.177L396.395 253.527C396.232 253.62 396.253 253.783 396.44 253.891L399.151 255.449C399.339 255.556 399.623 255.568 399.785 255.475L402.133 254.126C402.295 254.032 402.275 253.87 402.087 253.762L399.376 252.204C399.189 252.096 398.905 252.084 398.743 252.177Z" fill="white"></path><path d="M402.18 250.202L399.832 251.551C399.67 251.644 399.69 251.807 399.878 251.915L402.589 253.474C402.776 253.582 403.06 253.593 403.223 253.5L405.57 252.151C405.733 252.058 405.712 251.895 405.525 251.786L402.814 250.228C402.626 250.12 402.343 250.108 402.18 250.202Z" fill="white"></path><path d="M405.621 248.226L403.274 249.575C403.111 249.668 403.132 249.831 403.319 249.939L406.03 251.497C406.218 251.606 406.501 251.617 406.664 251.524L409.012 250.175C409.174 250.081 409.154 249.918 408.966 249.81L406.255 248.252C406.068 248.145 405.784 248.133 405.621 248.226Z" fill="white"></path><path d="M409.055 246.251L406.707 247.6C406.545 247.693 406.565 247.856 406.753 247.964L409.463 249.522C409.651 249.63 409.934 249.641 410.097 249.548L412.445 248.199C412.607 248.106 412.587 247.943 412.399 247.835L409.688 246.277C409.501 246.169 409.218 246.157 409.055 246.251Z" fill="white"></path><path d="M412.496 244.275L410.149 245.624C409.986 245.717 410.007 245.88 410.194 245.988L412.905 247.546C413.093 247.654 413.376 247.665 413.539 247.572L415.887 246.223C416.049 246.13 416.029 245.967 415.841 245.859L413.131 244.301C412.943 244.193 412.659 244.182 412.496 244.275Z" fill="white"></path><path d="M415.938 242.299L413.59 243.648C413.428 243.742 413.448 243.905 413.636 244.013L416.347 245.571C416.534 245.678 416.818 245.69 416.98 245.597L419.328 244.248C419.491 244.155 419.47 243.992 419.283 243.884L416.572 242.326C416.384 242.217 416.1 242.206 415.938 242.299Z" fill="white"></path><path d="M419.375 240.323L417.028 241.672C416.865 241.766 416.886 241.928 417.073 242.037L419.784 243.595C419.972 243.703 420.255 243.714 420.418 243.621L422.766 242.272C422.928 242.179 422.908 242.016 422.72 241.907L420.009 240.349C419.822 240.241 419.538 240.23 419.375 240.323Z" fill="white"></path><path d="M422.809 238.348L420.461 239.697C420.299 239.791 420.319 239.953 420.507 240.061L423.218 241.619C423.405 241.727 423.689 241.738 423.851 241.645L426.199 240.296C426.362 240.203 426.341 240.04 426.154 239.932L423.443 238.374C423.255 238.266 422.972 238.254 422.809 238.348Z" fill="white"></path><path d="M426.243 236.372L423.895 237.721C423.732 237.815 423.753 237.977 423.94 238.085L426.651 239.643C426.838 239.751 427.122 239.762 427.284 239.669L429.632 238.32C429.795 238.227 429.774 238.064 429.587 237.956L426.876 236.398C426.689 236.29 426.405 236.279 426.243 236.372Z" fill="white"></path><path d="M431.402 233.408L427.336 235.745C427.174 235.838 427.194 236.002 427.382 236.11L430.093 237.668C430.28 237.776 430.564 237.787 430.726 237.694L434.793 235.357C434.955 235.263 434.935 235.101 434.747 234.993L432.036 233.435C431.849 233.326 431.565 233.315 431.402 233.408Z" fill="white"></path><path d="M394.153 259.408L388.368 262.733C388.205 262.826 388.225 262.99 388.413 263.098L391.124 264.656C391.311 264.764 391.595 264.775 391.758 264.682L397.543 261.357C397.705 261.263 397.685 261.101 397.498 260.993L394.787 259.435C394.599 259.327 394.315 259.315 394.153 259.408Z" fill="white"></path><path d="M397.59 257.433L395.243 258.782C395.08 258.875 395.1 259.038 395.288 259.146L397.999 260.704C398.186 260.812 398.47 260.823 398.633 260.73L400.98 259.381C401.143 259.288 401.123 259.125 400.935 259.017L398.225 257.459C398.036 257.351 397.753 257.339 397.59 257.433Z" fill="white"></path><path d="M401.028 255.457L398.68 256.806C398.517 256.899 398.538 257.062 398.725 257.17L401.436 258.728C401.623 258.836 401.907 258.847 402.07 258.754L404.417 257.405C404.58 257.312 404.559 257.149 404.372 257.041L401.661 255.483C401.474 255.376 401.19 255.364 401.028 255.457Z" fill="white"></path><path d="M404.461 253.481L402.114 254.83C401.951 254.924 401.971 255.087 402.159 255.195L404.87 256.753C405.058 256.861 405.341 256.872 405.504 256.779L407.851 255.43C408.014 255.337 407.994 255.174 407.806 255.066L405.096 253.508C404.908 253.4 404.624 253.388 404.461 253.481Z" fill="white"></path><path d="M407.903 251.505L405.555 252.854C405.392 252.947 405.413 253.111 405.6 253.219L408.311 254.777C408.499 254.885 408.783 254.896 408.945 254.803L411.293 253.454C411.455 253.361 411.435 253.198 411.247 253.09L408.537 251.532C408.349 251.424 408.065 251.412 407.903 251.505Z" fill="white"></path><path d="M411.336 249.53L408.989 250.879C408.826 250.973 408.847 251.135 409.034 251.243L411.744 252.801C411.932 252.909 412.216 252.921 412.378 252.828L414.726 251.479C414.888 251.386 414.868 251.222 414.68 251.114L411.969 249.556C411.783 249.448 411.499 249.436 411.336 249.53Z" fill="white"></path><path d="M414.782 247.554L412.434 248.903C412.271 248.997 412.292 249.159 412.479 249.267L415.19 250.825C415.377 250.933 415.661 250.945 415.823 250.852L418.171 249.503C418.334 249.409 418.313 249.246 418.126 249.138L415.415 247.58C415.228 247.473 414.944 247.461 414.782 247.554Z" fill="white"></path><path d="M418.215 245.579L415.868 246.928C415.705 247.021 415.725 247.184 415.913 247.292L418.623 248.85C418.811 248.957 419.095 248.969 419.257 248.876L421.605 247.527C421.767 247.434 421.747 247.271 421.559 247.163L418.848 245.605C418.661 245.497 418.378 245.485 418.215 245.579Z" fill="white"></path><path d="M421.657 243.602L419.309 244.951C419.146 245.045 419.167 245.208 419.354 245.316L422.065 246.874C422.253 246.981 422.537 246.993 422.699 246.9L425.047 245.551C425.209 245.458 425.189 245.295 425.001 245.187L422.291 243.629C422.103 243.521 421.819 243.509 421.657 243.602Z" fill="white"></path><path d="M425.09 241.627L422.743 242.976C422.58 243.07 422.6 243.232 422.788 243.34L425.499 244.898C425.686 245.007 425.97 245.018 426.133 244.925L428.48 243.576C428.643 243.483 428.623 243.319 428.435 243.211L425.724 241.653C425.536 241.545 425.253 241.533 425.09 241.627Z" fill="white"></path><path d="M428.528 239.651L426.18 241C426.017 241.093 426.038 241.256 426.225 241.364L428.936 242.922C429.123 243.03 429.407 243.042 429.57 242.949L431.917 241.6C432.08 241.507 432.059 241.343 431.872 241.235L429.161 239.677C428.974 239.57 428.69 239.558 428.528 239.651Z" fill="white"></path><path d="M435.407 235.7L429.621 239.025C429.459 239.118 429.479 239.281 429.667 239.389L432.378 240.947C432.565 241.054 432.849 241.066 433.012 240.973L438.797 237.648C438.959 237.554 438.939 237.392 438.751 237.284L436.04 235.726C435.853 235.618 435.569 235.607 435.407 235.7Z" fill="white"></path><path d="M396.406 262.687L392.34 265.024C392.178 265.118 392.198 265.281 392.386 265.389L395.096 266.947C395.283 267.054 395.567 267.066 395.73 266.973L399.796 264.636C399.958 264.542 399.938 264.38 399.75 264.272L397.039 262.714C396.853 262.606 396.569 262.594 396.406 262.687Z" fill="white"></path><path d="M399.848 260.712L397.5 262.061C397.338 262.155 397.358 262.317 397.546 262.425L400.257 263.983C400.444 264.091 400.728 264.103 400.891 264.01L403.238 262.661C403.401 262.567 403.38 262.404 403.193 262.296L400.482 260.738C400.294 260.63 400.011 260.619 399.848 260.712Z" fill="white"></path><path d="M403.282 258.736L400.934 260.085C400.771 260.178 400.792 260.341 400.979 260.449L403.69 262.007C403.878 262.115 404.162 262.127 404.324 262.034L406.672 260.685C406.834 260.591 406.814 260.428 406.626 260.32L403.916 258.762C403.728 258.655 403.444 258.643 403.282 258.736Z" fill="white"></path><path d="M406.715 256.761L404.368 258.11C404.205 258.203 404.225 258.366 404.413 258.474L407.123 260.032C407.311 260.14 407.595 260.151 407.757 260.058L410.105 258.709C410.267 258.616 410.247 258.453 410.059 258.345L407.349 256.787C407.161 256.679 406.878 256.667 406.715 256.761Z" fill="white"></path><path d="M410.153 254.785L407.805 256.134C407.643 256.227 407.663 256.39 407.85 256.498L410.561 258.056C410.749 258.163 411.033 258.175 411.195 258.082L413.543 256.733C413.705 256.64 413.685 256.477 413.497 256.369L410.786 254.811C410.599 254.703 410.315 254.692 410.153 254.785Z" fill="white"></path><path d="M413.594 252.809L411.246 254.158C411.084 254.252 411.104 254.414 411.292 254.523L414.002 256.081C414.19 256.188 414.473 256.2 414.636 256.107L416.984 254.758C417.146 254.665 417.126 254.502 416.938 254.393L414.228 252.835C414.04 252.727 413.757 252.716 413.594 252.809Z" fill="white"></path><path d="M417.028 250.833L414.68 252.182C414.518 252.276 414.538 252.438 414.725 252.546L417.436 254.105C417.624 254.212 417.908 254.224 418.07 254.131L420.418 252.782C420.58 252.689 420.56 252.525 420.372 252.417L417.662 250.859C417.474 250.752 417.19 250.74 417.028 250.833Z" fill="white"></path><path d="M420.469 248.858L418.121 250.207C417.959 250.3 417.979 250.463 418.167 250.571L420.878 252.129C421.065 252.236 421.349 252.248 421.512 252.155L423.859 250.806C424.022 250.713 424.001 250.55 423.814 250.442L421.103 248.884C420.915 248.776 420.632 248.764 420.469 248.858Z" fill="white"></path><path d="M423.911 246.882L421.563 248.231C421.4 248.324 421.421 248.487 421.608 248.595L424.319 250.153C424.507 250.261 424.79 250.272 424.953 250.179L427.301 248.83C427.463 248.737 427.443 248.574 427.255 248.466L424.545 246.908C424.357 246.8 424.073 246.789 423.911 246.882Z" fill="white"></path><path d="M427.348 244.906L425 246.255C424.838 246.348 424.858 246.511 425.046 246.62L427.757 248.178C427.944 248.285 428.228 248.297 428.391 248.204L430.738 246.855C430.901 246.762 430.88 246.599 430.693 246.491L427.982 244.932C427.794 244.824 427.511 244.813 427.348 244.906Z" fill="white"></path><path d="M430.782 242.93L428.434 244.279C428.271 244.372 428.292 244.535 428.479 244.644L431.19 246.202C431.377 246.309 431.661 246.321 431.823 246.228L434.171 244.879C434.334 244.786 434.313 244.623 434.126 244.514L431.415 242.956C431.228 242.849 430.944 242.837 430.782 242.93Z" fill="white"></path><path d="M434.215 240.955L431.868 242.304C431.705 242.397 431.725 242.56 431.913 242.668L434.624 244.226C434.811 244.334 435.095 244.345 435.258 244.252L437.605 242.903C437.768 242.81 437.748 242.647 437.56 242.539L434.85 240.981C434.661 240.873 434.378 240.861 434.215 240.955Z" fill="white"></path><path d="M439.375 237.991L435.309 240.328C435.146 240.421 435.167 240.584 435.354 240.692L438.065 242.25C438.252 242.358 438.536 242.369 438.698 242.276L442.765 239.939C442.927 239.846 442.907 239.683 442.719 239.575L440.008 238.017C439.821 237.909 439.537 237.898 439.375 237.991Z" fill="white"></path><path d="M384.091 212.885L380.78 214.788C380.362 215.028 380.023 215.673 380.023 216.227C380.023 216.782 380.362 217.037 380.78 216.797L384.091 214.893C384.509 214.653 384.848 214.008 384.848 213.453C384.848 212.9 384.509 212.644 384.091 212.885Z" fill="#607ACE"></path><path d="M394.619 206.834L391.308 208.737C390.89 208.978 390.551 209.622 390.551 210.177C390.551 210.732 390.89 210.986 391.308 210.746L394.619 208.843C395.037 208.602 395.376 207.958 395.376 207.403C395.376 206.848 395.037 206.593 394.619 206.834Z" fill="#607ACE"></path><path d="M413.494 195.985L410.183 197.889C409.765 198.129 409.426 198.773 409.426 199.328C409.426 199.883 409.765 200.138 410.183 199.897L413.494 197.994C413.912 197.754 414.251 197.11 414.251 196.555C414.251 196 413.912 195.745 413.494 195.985Z" fill="#607ACE"></path><path d="M398.58 204.56L396.925 205.511C396.507 205.751 396.168 206.396 396.168 206.95C396.168 207.505 396.507 207.76 396.925 207.52L398.58 206.568C398.998 206.328 399.337 205.683 399.337 205.129C399.337 204.574 398.998 204.319 398.58 204.56Z" fill="#607ACE"></path><path d="M381.107 223.094L377.796 224.998C377.378 225.238 377.039 225.883 377.039 226.438C377.039 226.993 377.378 227.248 377.796 227.007L381.107 225.104C381.525 224.863 381.864 224.219 381.864 223.664C381.864 223.109 381.525 222.854 381.107 223.094Z" fill="#607ACE"></path><path d="M399.299 212.638L395.987 214.542C395.569 214.782 395.23 215.427 395.23 215.982C395.23 216.537 395.569 216.791 395.987 216.551L399.299 214.648C399.716 214.407 400.055 213.763 400.055 213.208C400.055 212.653 399.716 212.398 399.299 212.638Z" fill="#607ACE"></path><path d="M393.673 215.872L387.858 219.213C387.441 219.453 387.102 220.098 387.102 220.652C387.102 221.207 387.441 221.462 387.858 221.222L393.673 217.881C394.091 217.641 394.429 216.996 394.429 216.441C394.429 215.886 394.091 215.631 393.673 215.872Z" fill="#607ACE"></path><path d="M385.068 220.82L383.413 221.772C382.995 222.012 382.656 222.656 382.656 223.211C382.656 223.766 382.995 224.021 383.413 223.78L385.068 222.829C385.486 222.589 385.825 221.944 385.825 221.39C385.825 220.835 385.486 220.58 385.068 220.82Z" fill="#607ACE"></path><path d="M390.447 225.047L387.136 226.95C386.718 227.191 386.379 227.835 386.379 228.39C386.379 228.945 386.718 229.199 387.136 228.959L390.447 227.056C390.865 226.815 391.204 226.171 391.204 225.616C391.204 225.061 390.865 224.806 390.447 225.047Z" fill="#607ACE"></path><path d="M405.029 216.662L401.718 218.566C401.3 218.806 400.961 219.45 400.961 220.005C400.961 220.56 401.3 220.815 401.718 220.574L405.029 218.671C405.447 218.431 405.786 217.786 405.786 217.231C405.786 216.677 405.447 216.422 405.029 216.662Z" fill="white"></path><path d="M394.401 222.773L392.745 223.724C392.327 223.964 391.988 224.609 391.988 225.163C391.988 225.718 392.327 225.973 392.745 225.733L394.401 224.781C394.819 224.541 395.158 223.896 395.158 223.341C395.158 222.787 394.819 222.532 394.401 222.773Z" fill="#607ACE"></path><path d="M388.217 210.564L386.745 209.457C386.449 209.234 385.97 209.51 385.675 210.072C385.379 210.635 385.379 211.271 385.675 211.494L386.622 212.206L385.675 214.007C385.379 214.57 385.379 215.206 385.675 215.429C385.97 215.651 386.449 215.376 386.745 214.813L388.217 212.014C388.367 211.728 388.44 211.423 388.437 211.163C388.44 210.899 388.367 210.678 388.217 210.564Z" fill="#EF651D"></path><path d="M399.021 219.984L397.55 218.877C397.254 218.654 396.775 218.93 396.479 219.492C396.184 220.054 396.184 220.69 396.479 220.913L397.427 221.626L396.479 223.427C396.184 223.989 396.184 224.626 396.479 224.848C396.775 225.071 397.254 224.795 397.55 224.233L399.021 221.434C399.172 221.148 399.244 220.843 399.242 220.583C399.244 220.318 399.172 220.098 399.021 219.984Z" fill="#92B938"></path><path d="M418.037 193.429L416.565 192.322C416.27 192.099 415.791 192.375 415.495 192.937C415.2 193.499 415.2 194.136 415.495 194.358L416.442 195.071L415.495 196.872C415.2 197.435 415.2 198.071 415.495 198.293C415.791 198.516 416.27 198.24 416.565 197.678L418.037 194.879C418.188 194.593 418.26 194.288 418.257 194.028C418.261 193.763 418.188 193.543 418.037 193.429Z" fill="#92B938"></path><path d="M401.541 202.91L403.013 200.111C403.308 199.549 403.787 199.273 404.083 199.496C404.378 199.718 404.378 200.354 404.083 200.917L403.136 202.718L404.083 203.431C404.378 203.654 404.378 204.289 404.083 204.852C403.787 205.414 403.308 205.69 403.013 205.467L401.541 204.36C401.39 204.247 401.317 204.026 401.32 203.762C401.317 203.501 401.39 203.196 401.541 202.91Z" fill="#92B938"></path><path d="M377.26 216.863L378.731 214.064C379.027 213.502 379.506 213.226 379.801 213.449C380.097 213.671 380.097 214.308 379.801 214.87L378.854 216.671L379.801 217.384C380.097 217.606 380.097 218.242 379.801 218.805C379.506 219.367 379.027 219.643 378.731 219.42L377.26 218.313C377.109 218.199 377.036 217.979 377.039 217.715C377.036 217.454 377.109 217.149 377.26 216.863Z" fill="#EF651D"></path><path d="M407.379 198.24L405.038 202.694C404.743 203.256 404.743 203.892 405.038 204.115C405.334 204.337 405.813 204.062 406.108 203.5L408.449 199.046C408.745 198.484 408.745 197.848 408.449 197.625C408.154 197.403 407.675 197.678 407.379 198.24Z" fill="#607ACE"></path><path d="M379.715 229.954L377.374 234.407C377.078 234.969 377.078 235.605 377.374 235.827C377.669 236.05 378.149 235.774 378.445 235.212L380.786 230.759C381.081 230.197 381.081 229.56 380.786 229.338C380.49 229.116 380.011 229.391 379.715 229.954Z" fill="#607ACE"></path><path d="M383.895 227.551L381.554 232.004C381.258 232.566 381.258 233.203 381.554 233.425C381.849 233.648 382.328 233.372 382.624 232.81L384.966 228.357C385.261 227.795 385.261 227.158 384.966 226.936C384.67 226.714 384.19 226.989 383.895 227.551Z" fill="#607ACE"></path><path d="M213.2 100.961C205.955 89.9108 212.139 88.8003 227.013 98.4794C241.887 108.159 259.819 124.964 267.064 136.014C274.309 147.064 268.125 148.175 253.25 138.495C238.377 128.816 220.445 112.012 213.2 100.961Z" stroke="#607ACE" stroke-width="4.7257" stroke-miterlimit="10" stroke-linecap="round"></path><path d="M229.83 139.507C248.715 139.244 270.491 127.509 278.469 113.296C286.447 99.0822 277.608 87.7749 258.723 88.0376C239.84 88.301 218.064 100.035 210.085 114.248C202.106 128.462 210.947 139.771 229.83 139.507Z" stroke="#607ACE" stroke-width="4.7257" stroke-miterlimit="10"></path><path d="M270.087 99.3207C269.874 118.121 258.145 139.83 243.89 147.812C229.633 155.793 218.251 147.024 218.464 128.224C218.676 109.426 230.405 87.7153 244.661 79.7338C258.916 71.7516 270.3 80.522 270.087 99.3207Z" stroke="#607ACE" stroke-width="4.7257" stroke-miterlimit="10"></path><path d="M244.269 143.189C260.59 143.189 273.82 130.019 273.82 113.772C273.82 97.5254 260.59 84.3548 244.269 84.3548C227.949 84.3548 214.719 97.5254 214.719 113.772C214.719 130.019 227.949 143.189 244.269 143.189Z" fill="white"></path><path d="M244.276 127.124C251.683 127.124 257.688 121.146 257.688 113.772C257.688 106.398 251.683 100.42 244.276 100.42C236.868 100.42 230.863 106.398 230.863 113.772C230.863 121.146 236.868 127.124 244.276 127.124Z" fill="#CADAF1"></path><path d="M244.663 79.7338C258.918 71.7516 270.302 80.522 270.089 99.3207C269.876 118.121 258.147 139.83 243.892 147.812C231.26 154.883 220.884 148.804 218.832 134.249" stroke="#607ACE" stroke-width="4.7257" stroke-miterlimit="10" stroke-linecap="round"></path><path d="M210.085 114.249C202.106 128.462 210.947 139.771 229.83 139.507C248.714 139.244 270.491 127.509 278.469 113.296C283.83 103.746 281.598 95.5075 273.828 91.2094" stroke="#607ACE" stroke-width="4.7257" stroke-miterlimit="10" stroke-linecap="round"></path><path d="M213.2 100.961C205.955 89.9108 212.139 88.8003 227.013 98.4794C241.887 108.159 259.819 124.964 267.064 136.014C272.045 143.612 270.678 146.511 264.501 144.434" stroke="#607ACE" stroke-width="4.7257" stroke-miterlimit="10" stroke-linecap="round"></path><path d="M261.462 77.1019C261.462 75.0236 259.77 73.3391 257.682 73.3391C255.594 73.3391 253.902 75.0236 253.902 77.1019C253.902 79.1801 255.594 80.8646 257.682 80.8646C259.769 80.8646 261.462 79.1801 261.462 77.1019Z" fill="#EF651D"></path><path d="M213.942 132.467C213.942 130.388 212.25 128.704 210.163 128.704C208.075 128.704 206.383 130.388 206.383 132.467C206.383 134.545 208.075 136.229 210.163 136.229C212.25 136.229 213.942 134.545 213.942 132.467Z" fill="#EF651D"></path><path d="M259.802 122.25C259.802 120.172 258.11 118.488 256.022 118.488C253.934 118.488 252.242 120.172 252.242 122.25C252.242 124.329 253.934 126.013 256.022 126.013C258.11 126.013 259.802 124.329 259.802 122.25Z" fill="#EF651D"></path><path d="M159.492 12.016L153.086 30.4235L165.897 23.0605L159.492 12.016Z" fill="#92B938"></path><path d="M441.714 181.312L435.309 199.72L448.12 192.357L441.714 181.312Z" fill="#607ACE"></path><path d="M441.714 195.892L435.309 214.3L448.12 206.937L441.714 195.892Z" fill="#FAA226"></path><path d="M292.737 41.4314L291.674 36.0569L290.611 42.654L287.945 45.7209L290.611 45.7235L291.674 51.0981L292.737 44.5016L295.403 41.4347L292.737 41.4314Z" stroke="#2E466C" stroke-width="1.067" stroke-miterlimit="10" stroke-linecap="round"></path><path d="M415.187 154.719L414.124 149.344L413.061 155.941L410.395 159.008L413.061 159.011L414.124 164.386L415.187 157.789L417.852 154.722L415.187 154.719Z" stroke="#2E466C" stroke-width="1.067" stroke-miterlimit="10" stroke-linecap="round"></path><path d="M189.351 256.672L188.287 251.297L187.224 257.893L184.559 260.96L187.224 260.964L188.287 266.338L189.351 259.741L192.016 256.674L189.351 256.672Z" stroke="#2E466C" stroke-width="1.067" stroke-miterlimit="10" stroke-linecap="round"></path><path d="M104.983 127.367L103.92 121.991L102.857 128.589L100.191 131.655L102.857 131.658L103.92 137.033L104.983 130.436L107.649 127.369L104.983 127.367Z" stroke="#2E466C" stroke-width="1.067" stroke-miterlimit="10" stroke-linecap="round"></path><path d="M96.8105 52.1156C96.8105 46.1088 91.9191 41.2401 85.8858 41.2401C83.5901 41.2401 81.4623 41.9483 79.7037 43.1526C77.2324 41.2781 74.1568 40.1525 70.8101 40.1525C62.6884 40.1525 56.1042 46.707 56.1042 54.792C56.1042 56.0434 56.2787 57.2516 56.5755 58.4106C52.1757 59.5782 48.9297 63.5611 48.9297 68.3092C48.9297 73.9733 53.542 78.5649 59.2318 78.5649C61.6314 78.5649 65.585 76.3759 65.585 76.3759L91.3333 61.5444L91.3254 61.5378C94.6004 59.6594 96.8105 56.1476 96.8105 52.1156Z" stroke="#2E466C" stroke-width="1.2982" stroke-miterlimit="10" stroke-linecap="round" stroke-linejoin="round"></path><path d="M151.676 43.7042C151.676 33.2087 143.129 24.7005 132.586 24.7005C128.575 24.7005 124.856 25.9381 121.784 28.0426C117.466 24.7673 112.092 22.8004 106.244 22.8004C92.0528 22.8004 80.5483 34.2531 80.5483 48.3803C80.5483 50.5667 80.8537 52.6777 81.3723 54.7035C73.6837 56.7438 68.0117 63.7039 68.0117 71.9999C68.0117 81.8965 76.0708 89.92 86.0129 89.92C90.206 89.92 97.114 86.095 97.114 86.095L142.106 60.1796L142.092 60.1678C147.814 56.8866 151.676 50.7501 151.676 43.7042Z" fill="#607ACE"></path><path d="M169.378 36.3642C164.714 33.6831 158.969 34.5945 155.337 38.219C154.365 37.2755 153.278 36.4231 152.048 35.7169C144.106 31.1521 133.95 33.8607 129.364 41.7675C127.475 45.0258 126.844 48.6549 127.29 52.1189C125.114 53.1508 123.216 54.8228 121.92 57.0577C118.514 62.9314 120.536 70.4425 126.436 73.8338C130.397 76.1106 135.095 75.9422 138.789 73.8141L138.791 73.8253L167.899 57.1324C167.899 57.1324 172.281 54.5195 173.636 52.1831C176.849 46.6448 174.942 39.5622 169.378 36.3642Z" fill="white"></path><path d="M185.03 40.1525C185.03 37.7977 183.113 35.8892 180.747 35.8892C178.382 35.8892 176.465 37.7984 176.465 40.1525C176.465 42.5072 178.382 44.4158 180.747 44.4158C183.113 44.4158 185.03 42.5072 185.03 40.1525Z" fill="white"></path><path d="M41.2826 83.1584C43.6478 83.1584 45.5652 81.2497 45.5652 78.8951C45.5652 76.5405 43.6478 74.6318 41.2826 74.6318C38.9174 74.6318 37 76.5405 37 78.8951C37 81.2497 38.9174 83.1584 41.2826 83.1584Z" stroke="#2E466C" stroke-width="1.2982" stroke-miterlimit="10" stroke-linecap="round" stroke-linejoin="round"></path><path d="M322.997 272.99C328.791 272.99 333.487 268.314 333.487 262.547C333.487 256.78 328.791 252.105 322.997 252.105C317.204 252.105 312.508 256.78 312.508 262.547C312.508 268.314 317.204 272.99 322.997 272.99Z" fill="#607ACE"></path><path d="M291.212 272.99C297.006 272.99 301.702 268.314 301.702 262.547C301.702 256.78 297.006 252.105 291.212 252.105C285.419 252.105 280.723 256.78 280.723 262.547C280.723 268.314 285.419 272.99 291.212 272.99Z" fill="#607ACE"></path><path d="M307.107 282.166C312.9 282.166 317.597 277.49 317.597 271.723C317.597 265.956 312.9 261.281 307.107 261.281C301.314 261.281 296.617 265.956 296.617 271.723C296.617 277.49 301.314 282.166 307.107 282.166Z" fill="#FDDA5C"></path><path d="M307.107 248.244C312.9 248.244 317.597 243.569 317.597 237.801C317.597 232.034 312.9 227.359 307.107 227.359C301.314 227.359 296.617 232.034 296.617 237.801C296.617 243.569 301.314 248.244 307.107 248.244Z" fill="#EF651D"></path><path d="M322.997 257.42C328.791 257.42 333.487 252.745 333.487 246.978C333.487 241.211 328.791 236.536 322.997 236.536C317.204 236.536 312.508 241.211 312.508 246.978C312.508 252.745 317.204 257.42 322.997 257.42Z" fill="#FDDA5C"></path><path d="M291.212 257.42C297.006 257.42 301.702 252.745 301.702 246.978C301.702 241.211 297.006 236.536 291.212 236.536C285.419 236.536 280.723 241.211 280.723 246.978C280.723 252.745 285.419 257.42 291.212 257.42Z" fill="#FDDA5C"></path><path d="M309.419 266.349C315.068 265.07 318.606 259.475 317.322 253.851C316.037 248.227 310.417 244.705 304.768 245.984C299.119 247.262 295.58 252.858 296.865 258.481C298.149 264.105 303.77 267.627 309.419 266.349Z" fill="#EF651D"></path><path d="M229.434 57.3957C233.154 57.3957 236.169 54.394 236.169 50.6912C236.169 46.9884 233.154 43.9866 229.434 43.9866C225.715 43.9866 222.699 46.9884 222.699 50.6912C222.699 54.394 225.715 57.3957 229.434 57.3957Z" fill="#607ACE"></path><path d="M209.028 57.3957C212.747 57.3957 215.763 54.394 215.763 50.6912C215.763 46.9884 212.747 43.9866 209.028 43.9866C205.308 43.9866 202.293 46.9884 202.293 50.6912C202.293 54.394 205.308 57.3957 209.028 57.3957Z" fill="#607ACE"></path><path d="M219.231 63.2872C222.951 63.2872 225.966 60.2854 225.966 56.5826C225.966 52.8798 222.951 49.8781 219.231 49.8781C215.511 49.8781 212.496 52.8798 212.496 56.5826C212.496 60.2854 215.511 63.2872 219.231 63.2872Z" fill="#FDDA5C"></path><path d="M219.231 41.508C222.951 41.508 225.966 38.5063 225.966 34.8035C225.966 31.1007 222.951 28.0989 219.231 28.0989C215.511 28.0989 212.496 31.1007 212.496 34.8035C212.496 38.5063 215.511 41.508 219.231 41.508Z" fill="#EF651D"></path><path d="M229.434 47.4001C233.154 47.4001 236.169 44.3984 236.169 40.6956C236.169 36.9928 233.154 33.991 229.434 33.991C225.715 33.991 222.699 36.9928 222.699 40.6956C222.699 44.3984 225.715 47.4001 229.434 47.4001Z" fill="#FDDA5C"></path><path d="M209.028 47.4001C212.747 47.4001 215.763 44.3984 215.763 40.6956C215.763 36.9928 212.747 33.991 209.028 33.991C205.308 33.991 202.293 36.9928 202.293 40.6956C202.293 44.3984 205.308 47.4001 209.028 47.4001Z" fill="#FDDA5C"></path><path d="M219.231 53.2916C222.951 53.2916 225.966 50.2899 225.966 46.5871C225.966 42.8842 222.951 39.8825 219.231 39.8825C215.511 39.8825 212.496 42.8842 212.496 46.5871C212.496 50.2899 215.511 53.2916 219.231 53.2916Z" fill="#EF651D"></path><path d="M78.2193 162.542C81.9389 162.542 84.9542 159.541 84.9542 155.838C84.9542 152.135 81.9389 149.133 78.2193 149.133C74.4997 149.133 71.4844 152.135 71.4844 155.838C71.4844 159.541 74.4997 162.542 78.2193 162.542Z" fill="#CADAF1" stroke="#2E466C" stroke-miterlimit="10"></path><path d="M57.813 162.542C61.5326 162.542 64.5479 159.541 64.5479 155.838C64.5479 152.135 61.5326 149.133 57.813 149.133C54.0934 149.133 51.0781 152.135 51.0781 155.838C51.0781 159.541 54.0934 162.542 57.813 162.542Z" fill="#CADAF1" stroke="#2E466C" stroke-miterlimit="10"></path><path d="M72.775 166.469C75.4052 163.851 75.4052 159.606 72.775 156.987C70.1449 154.369 65.8807 154.369 63.2505 156.987C60.6204 159.606 60.6204 163.851 63.2505 166.469C65.8807 169.087 70.1449 169.087 72.775 166.469Z" fill="#CADAF1" stroke="#2E466C" stroke-miterlimit="10"></path><path d="M68.024 146.655C71.7436 146.655 74.7589 143.653 74.7589 139.95C74.7589 136.247 71.7436 133.246 68.024 133.246C64.3044 133.246 61.2891 136.247 61.2891 139.95C61.2891 143.653 64.3044 146.655 68.024 146.655Z" fill="#CADAF1" stroke="#2E466C" stroke-miterlimit="10"></path><path d="M84.4519 148.409C85.8754 144.988 84.2435 141.066 80.807 139.649C77.3704 138.232 73.4306 139.856 72.0071 143.277C70.5837 146.698 72.2155 150.62 75.6521 152.038C79.0886 153.455 83.0284 151.83 84.4519 148.409Z" fill="#CADAF1" stroke="#2E466C" stroke-miterlimit="10"></path><path d="M63.6764 149.145C65.5091 145.923 64.3708 141.832 61.134 140.007C57.8972 138.183 53.7876 139.316 51.955 142.538C50.1224 145.761 51.2607 149.852 54.4974 151.676C57.7342 153.5 61.8438 152.367 63.6764 149.145Z" fill="#CADAF1" stroke="#2E466C" stroke-miterlimit="10"></path><path d="M68.024 158.438C71.7436 158.438 74.7589 155.437 74.7589 151.734C74.7589 148.031 71.7436 145.029 68.024 145.029C64.3044 145.029 61.2891 148.031 61.2891 151.734C61.2891 155.437 64.3044 158.438 68.024 158.438Z" fill="#CADAF1" stroke="#2E466C" stroke-miterlimit="10"></path><path d="M442.215 130.551C445.935 130.551 448.95 127.549 448.95 123.846C448.95 120.144 445.935 117.142 442.215 117.142C438.496 117.142 435.48 120.144 435.48 123.846C435.48 127.549 438.496 130.551 442.215 130.551Z" fill="#CADAF1" stroke="#2E466C" stroke-miterlimit="10"></path><path d="M421.809 130.551C425.529 130.551 428.544 127.549 428.544 123.846C428.544 120.144 425.529 117.142 421.809 117.142C418.09 117.142 415.074 120.144 415.074 123.846C415.074 127.549 418.09 130.551 421.809 130.551Z" fill="#CADAF1" stroke="#2E466C" stroke-miterlimit="10"></path><path d="M432.012 136.442C435.732 136.442 438.747 133.441 438.747 129.738C438.747 126.035 435.732 123.033 432.012 123.033C428.293 123.033 425.277 126.035 425.277 129.738C425.277 133.441 428.293 136.442 432.012 136.442Z" fill="#CADAF1" stroke="#2E466C" stroke-miterlimit="10"></path><path d="M432.012 114.664C435.732 114.664 438.747 111.662 438.747 107.959C438.747 104.256 435.732 101.255 432.012 101.255C428.293 101.255 425.277 104.256 425.277 107.959C425.277 111.662 428.293 114.664 432.012 114.664Z" fill="#CADAF1" stroke="#2E466C" stroke-miterlimit="10"></path><path d="M442.215 120.555C445.935 120.555 448.95 117.554 448.95 113.851C448.95 110.148 445.935 107.146 442.215 107.146C438.496 107.146 435.48 110.148 435.48 113.851C435.48 117.554 438.496 120.555 442.215 120.555Z" fill="#CADAF1" stroke="#2E466C" stroke-miterlimit="10"></path><path d="M421.809 120.555C425.529 120.555 428.544 117.554 428.544 113.851C428.544 110.148 425.529 107.146 421.809 107.146C418.09 107.146 415.074 110.148 415.074 113.851C415.074 117.554 418.09 120.555 421.809 120.555Z" fill="#CADAF1" stroke="#2E466C" stroke-miterlimit="10"></path><path d="M432.012 126.447C435.732 126.447 438.747 123.445 438.747 119.742C438.747 116.039 435.732 113.038 432.012 113.038C428.293 113.038 425.277 116.039 425.277 119.742C425.277 123.445 428.293 126.447 432.012 126.447Z" fill="#CADAF1" stroke="#2E466C" stroke-miterlimit="10"></path></svg>