<svg xmlns="http://www.w3.org/2000/svg" width="500" height="300" viewBox="0 0 500 300" fill="none"><rect width="500" height="300" rx="24" fill="white"></rect><path d="M146.009 267.043C203.354 297.652 296.328 297.652 353.672 267.044C411.017 236.434 411.017 186.807 353.672 156.198C296.327 125.589 203.353 125.589 146.008 156.197C88.6639 186.806 88.6639 236.434 146.009 267.043Z" fill="#F0F0F0"></path><path d="M248.026 225.784L289.932 249.879C290.415 250.158 291.199 250.158 291.682 249.879L365.858 207.053C366.341 206.774 366.341 206.321 365.858 206.043L323.953 181.948C323.47 181.669 322.686 181.669 322.203 181.948L248.026 224.774C247.543 225.053 247.543 225.505 248.026 225.784Z" fill="#E0E0E0"></path><path d="M376.048 238.295C375.912 237.222 374.626 236.678 373.918 236.269L345.301 219.699C344.038 218.969 342.473 218.941 341.209 219.67L312.601 236.17C311.758 236.657 310.379 237.587 310.379 238.676C310.379 239.765 311.132 240.006 312.518 240.807C313.904 241.608 340.924 257.217 340.924 257.217C342.371 258.053 344.155 258.054 345.602 257.217L374.912 240.426C375.876 239.769 376.136 238.991 376.048 238.295Z" fill="#E0E0E0"></path><path d="M278.363 153.379L285.113 149.483C285.919 149.018 287.225 149.018 288.03 149.483L330.349 173.916" stroke="#006DAA" stroke-miterlimit="10"></path><path d="M275.625 151.8L285.112 146.323C285.917 145.858 287.223 145.858 288.028 146.323L333.084 172.336" stroke="#006DAA" stroke-miterlimit="10"></path><path d="M335.821 170.756L288.029 143.163C287.224 142.698 285.918 142.698 285.112 143.162L272.891 150.214" stroke="#006DAA" stroke-miterlimit="10"></path><path d="M338.557 169.176L288.029 140.004C287.223 139.539 285.918 139.539 285.112 140.004L270.145 148.641" stroke="#006DAA" stroke-miterlimit="10"></path><path d="M235.853 10.4806L192.255 35.6516C191.45 36.1163 190.797 37.2473 190.797 38.1775V158.025C190.797 158.956 191.45 160.087 192.255 160.551L235.853 185.722C236.659 186.187 237.964 186.187 238.77 185.722L282.366 160.551C283.172 160.087 283.824 158.956 283.824 158.025V38.1782C283.824 37.2479 283.172 36.117 282.366 35.6522L238.769 10.4812C237.964 10.0158 236.658 10.0158 235.853 10.4806Z" fill="#37474F"></path><path d="M283.823 38.1754V158.025C283.823 158.955 283.17 160.086 282.368 160.551L238.767 185.723C238.37 185.959 237.838 186.073 237.312 186.073V62.8553C237.838 62.8553 238.363 62.7341 238.767 62.5051L282.368 37.3334L282.766 37.0034L283.284 36.5723C283.614 37.0707 283.823 37.65 283.823 38.1754Z" fill="#263238"></path><path d="M197.728 49.9733L230.382 68.8254C231.187 69.2902 231.84 70.4211 231.84 71.3513L231.839 83.7809C231.839 84.7111 231.187 85.0876 230.381 84.6229L197.729 65.7707C196.923 65.306 196.27 64.175 196.27 63.2448L196.27 50.8152C196.27 49.885 196.922 49.5085 197.728 49.9733Z" fill="#455A64"></path><path d="M199.008 55.4502C199.008 56.3224 199.661 57.4069 200.466 57.8717L227.647 73.564C228.453 74.0288 229.105 73.6988 229.105 72.8265C229.105 71.9542 228.453 70.8697 227.647 70.405L200.466 54.7126C199.661 54.2478 199.008 54.5779 199.008 55.4502Z" fill="#388BDD"></path><path d="M199.008 61.769C199.008 62.6413 199.661 63.7257 200.466 64.1905L227.647 79.8836C228.453 80.3483 229.105 80.0183 229.105 79.146C229.105 78.2737 228.453 77.1892 227.647 76.7245L200.466 61.0314C199.661 60.5667 199.008 60.8967 199.008 61.769Z" fill="#263238"></path><path d="M200.466 61.0314L215.425 69.668V72.8271L200.466 64.1912C199.661 63.7264 199.008 62.6419 199.008 61.7697C199.008 60.8967 199.661 60.5666 200.466 61.0314Z" fill="#388BDD"></path><path d="M197.728 72.0888L230.382 90.9409C231.187 91.4057 231.84 92.5366 231.84 93.4668L231.839 105.896C231.839 106.827 231.187 107.203 230.381 106.738L197.729 87.8862C196.923 87.4214 196.27 86.2905 196.27 85.3603L196.27 72.9307C196.27 72.0005 196.922 71.624 197.728 72.0888Z" fill="#455A64"></path><path d="M199.008 77.5656C199.008 78.4379 199.661 79.5224 200.466 79.9871L227.647 95.6802C228.453 96.145 229.105 95.8149 229.105 94.9426C229.105 94.0703 228.453 92.9859 227.647 92.5211L200.466 76.8281C199.661 76.3633 199.008 76.6933 199.008 77.5656Z" fill="#388BDD"></path><path d="M199.008 83.8845C199.008 84.7568 199.661 85.8412 200.466 86.306L227.647 101.999C228.453 102.464 229.105 102.134 229.105 101.261C229.105 100.389 228.453 99.3047 227.647 98.84L200.466 83.1469C199.661 82.6821 199.008 83.0122 199.008 83.8845Z" fill="#263238"></path><path d="M200.466 83.1469L223.633 96.5222V99.6813L200.466 86.306C199.661 85.8412 199.008 84.7568 199.008 83.8845C199.008 83.0122 199.661 82.6821 200.466 83.1469Z" fill="#388BDD"></path><path d="M197.728 94.2045L230.382 113.057C231.187 113.521 231.84 114.652 231.84 115.583L231.839 128.012C231.839 128.942 231.187 129.319 230.381 128.854L197.729 110.002C196.923 109.537 196.27 108.406 196.27 107.476L196.27 95.0465C196.27 94.1162 196.922 93.7397 197.728 94.2045Z" fill="#455A64"></path><path d="M199.008 99.6814C199.008 100.554 199.661 101.638 200.466 102.103L227.647 117.796C228.453 118.261 229.105 117.931 229.105 117.058C229.105 116.186 228.453 115.102 227.647 114.637L200.466 98.9438C199.661 98.479 199.008 98.8091 199.008 99.6814Z" fill="#388BDD"></path><path d="M199.008 106C199.008 106.872 199.661 107.957 200.466 108.422L227.647 124.115C228.453 124.58 229.105 124.249 229.105 123.377C229.105 122.505 228.453 121.42 227.647 120.956L200.466 105.263C199.661 104.798 199.008 105.128 199.008 106Z" fill="#263238"></path><path d="M200.466 105.263L209.952 110.74V113.899L200.466 108.422C199.661 107.958 199.008 106.873 199.008 106.001C199.008 105.129 199.661 104.798 200.466 105.263Z" fill="#388BDD"></path><path d="M197.728 116.32L230.382 135.172C231.187 135.637 231.84 136.768 231.84 137.698L231.839 150.128C231.839 151.058 231.187 151.435 230.381 150.97L197.729 132.118C196.923 131.653 196.27 130.522 196.27 129.592L196.27 117.162C196.27 116.232 196.922 115.855 197.728 116.32Z" fill="#455A64"></path><path d="M199.008 121.797C199.008 122.669 199.661 123.754 200.466 124.219L227.647 139.912C228.453 140.376 229.105 140.046 229.105 139.174C229.105 138.302 228.453 137.217 227.647 136.753L200.466 121.06C199.661 120.595 199.008 120.925 199.008 121.797Z" fill="#388BDD"></path><path d="M199.008 128.116C199.008 128.988 199.661 130.073 200.466 130.537L227.647 146.23C228.453 146.695 229.105 146.365 229.105 145.493C229.105 144.621 228.453 143.536 227.647 143.071L200.466 127.378C199.661 126.914 199.008 127.244 199.008 128.116Z" fill="#263238"></path><path d="M200.466 127.378L215.425 136.015V139.174L200.466 130.538C199.661 130.073 199.008 128.989 199.008 128.117C199.008 127.244 199.661 126.914 200.466 127.378Z" fill="#388BDD"></path><path d="M197.728 138.436L230.382 157.288C231.187 157.753 231.84 158.884 231.84 159.814L231.839 172.243C231.839 173.174 231.187 173.55 230.381 173.085L197.729 154.233C196.923 153.768 196.27 152.638 196.27 151.707L196.27 139.278C196.27 138.348 196.922 137.971 197.728 138.436Z" fill="#455A64"></path><path d="M199.008 143.913C199.008 144.785 199.661 145.87 200.466 146.334L227.647 162.027C228.453 162.492 229.105 162.162 229.105 161.29C229.105 160.418 228.453 159.333 227.647 158.868L200.466 143.175C199.661 142.71 199.008 143.041 199.008 143.913Z" fill="#388BDD"></path><path d="M199.008 150.232C199.008 151.104 199.661 152.188 200.466 152.653L227.647 168.346C228.453 168.81 229.105 168.48 229.105 167.608C229.105 166.736 228.453 165.651 227.647 165.186L200.466 149.493C199.661 149.029 199.008 149.359 199.008 150.232Z" fill="#263238"></path><path d="M200.466 149.494L220.897 161.29V164.449L200.466 152.654C199.661 152.189 199.008 151.104 199.008 150.232C199.008 149.36 199.661 149.029 200.466 149.494Z" fill="#388BDD"></path><path d="M244.15 70.4637C245.661 69.588 246.886 70.3855 246.886 72.2453L246.887 144.501C246.887 146.361 245.662 148.579 244.151 149.455C242.64 150.331 241.415 149.533 241.415 147.673L241.414 75.4178C241.413 73.5581 242.639 71.34 244.15 70.4637Z" fill="#37474F"></path><path d="M244.15 147.856C244.906 147.419 245.518 146.312 245.518 145.382L245.517 72.924C245.517 71.9938 244.905 71.5937 244.149 72.0302C243.394 72.466 242.781 73.574 242.781 74.5042L242.782 146.962C242.782 147.891 243.395 148.292 244.15 147.856Z" fill="#263238"></path><path d="M244.15 147.856C244.906 147.419 245.518 146.312 245.518 145.382L245.517 110.74L242.781 112.319L242.782 146.962C242.782 147.891 243.395 148.292 244.15 147.856Z" fill="#388BDD"></path><path d="M252.358 65.7249C253.869 64.8493 255.094 65.6468 255.094 67.5065V139.762C255.094 141.622 253.869 143.84 252.358 144.716C250.847 145.593 249.622 144.794 249.622 142.935L249.621 70.6791C249.622 68.8187 250.846 66.6006 252.358 65.7249Z" fill="#37474F"></path><path d="M252.357 143.117C253.113 142.681 253.725 141.573 253.725 140.643L253.724 68.1855C253.724 67.2553 253.112 66.8552 252.356 67.2917C251.601 67.7281 250.988 68.8355 250.988 69.7657L250.989 142.223C250.989 143.153 251.602 143.553 252.357 143.117Z" fill="#388BDD"></path><path d="M260.565 60.9864C262.076 60.1107 263.301 60.9082 263.301 62.768V135.024C263.301 136.883 262.076 139.101 260.565 139.978C259.054 140.854 257.829 140.056 257.829 138.196L257.828 65.9406C257.829 64.0801 259.054 61.862 260.565 60.9864Z" fill="#37474F"></path><path d="M260.568 138.378C261.324 137.941 261.936 136.834 261.936 135.904L261.935 63.4462C261.935 62.516 261.323 62.1159 260.567 62.5524C259.812 62.9882 259.199 64.0962 259.199 65.0265L259.2 137.484C259.2 138.414 259.812 138.814 260.568 138.378Z" fill="#263238"></path><path d="M260.568 138.378C261.324 137.941 261.936 136.834 261.936 135.904L261.935 79.9348L259.199 81.5144L259.2 137.483C259.2 138.414 259.812 138.814 260.568 138.378Z" fill="#388BDD"></path><path d="M268.775 56.2469C270.286 55.3712 271.511 56.1687 271.511 58.0285L271.512 130.284C271.512 132.144 270.287 134.362 268.776 135.238C267.265 136.115 266.04 135.316 266.04 133.457L266.039 61.2011C266.039 59.3413 267.264 57.1232 268.775 56.2469Z" fill="#37474F"></path><path d="M268.775 133.639C269.531 133.203 270.143 132.095 270.143 131.165L270.142 58.7075C270.142 57.7773 269.53 57.3772 268.774 57.8136C268.019 58.2501 267.406 59.3575 267.406 60.2877L267.407 132.745C267.407 133.675 268.019 134.076 268.775 133.639Z" fill="#263238"></path><path d="M268.774 133.639C269.53 133.203 270.142 132.096 270.142 131.165V118.936L267.406 120.515L267.407 132.745C267.406 133.675 268.019 134.076 268.774 133.639Z" fill="#388BDD"></path><path d="M276.983 51.5084C278.494 50.6327 279.719 51.4302 279.719 53.29V125.546C279.719 127.405 278.494 129.623 276.983 130.5C275.472 131.376 274.247 130.578 274.247 128.718L274.246 56.4625C274.246 54.6021 275.471 52.384 276.983 51.5084Z" fill="#37474F"></path><path d="M276.982 128.901C277.738 128.464 278.35 127.357 278.35 126.427L278.349 53.9689C278.349 53.0387 277.737 52.6386 276.981 53.0751C276.226 53.5109 275.613 54.6189 275.613 55.5492L275.614 128.007C275.614 128.936 276.227 129.336 276.982 128.901Z" fill="#263238"></path><path d="M276.982 128.901C277.738 128.464 278.35 127.357 278.35 126.427L278.349 88.624L275.613 90.2036L275.614 128.006C275.614 128.936 276.227 129.337 276.982 128.901Z" fill="#388BDD"></path><path d="M242.581 158.246L278.553 137.478C279.198 137.106 279.72 137.407 279.72 138.151V151.254C279.72 151.998 279.198 152.903 278.553 153.275L242.581 174.043C241.936 174.415 241.414 174.114 241.414 173.37V160.267C241.414 159.523 241.937 158.618 242.581 158.246Z" fill="#37474F"></path><path d="M244.063 162.131C244.063 163.004 244.716 163.334 245.521 162.869L275.618 145.487C276.424 145.022 277.077 143.937 277.077 143.065C277.077 142.193 276.424 141.863 275.618 142.328L245.52 159.71C244.715 160.175 244.062 161.259 244.063 162.131Z" fill="#263238"></path><path d="M244.063 162.131C244.063 163.004 244.716 163.334 245.521 162.869L267.409 150.225L267.41 147.066L245.52 159.71C244.715 160.175 244.062 161.259 244.063 162.131Z" fill="#388BDD"></path><path d="M244.063 168.451C244.063 169.323 244.716 169.653 245.521 169.188L275.618 151.806C276.424 151.341 277.077 150.257 277.077 149.384C277.077 148.512 276.424 148.182 275.618 148.647L245.52 166.029C244.715 166.495 244.062 167.578 244.063 168.451Z" fill="#263238"></path><path d="M244.063 168.451C244.063 169.323 244.716 169.653 245.521 169.188L253.73 164.449L253.73 161.29L245.521 166.029C244.715 166.495 244.062 167.578 244.063 168.451Z" fill="#388BDD"></path><path d="M282.364 35.6524L238.767 10.4814C237.961 10.0166 236.656 10.0166 235.85 10.4814L192.253 35.6524C191.447 36.1171 191.447 36.8716 192.253 37.3363L235.851 62.5073C236.656 62.9721 237.962 62.9721 238.767 62.5073L282.363 37.3363C283.17 36.8709 283.17 36.1171 282.364 35.6524Z" fill="#455A64"></path><path d="M236.433 56.5245L202.613 36.9987C202.13 36.7199 201.738 36.0409 201.738 35.4832V34.3442C201.738 33.7864 202.13 33.1075 202.613 32.8286L236.432 13.3029C236.915 13.024 237.699 13.024 238.182 13.3029L272.002 32.8286C272.485 33.1075 272.877 33.7864 272.877 34.3442V35.4825C272.877 36.0402 272.485 36.7192 272.002 36.9981L238.183 56.5238C237.7 56.804 236.917 56.804 236.433 56.5245Z" fill="#263238"></path><path d="M202.613 33.8395L236.432 53.3653C236.915 53.6441 237.699 53.6441 238.182 53.3653L272.001 33.8395C272.484 33.5607 272.484 33.108 272.001 32.8292L238.182 13.9777C237.699 13.6988 236.915 13.6988 236.432 13.9777L202.613 32.8292C202.129 33.108 202.129 33.5607 202.613 33.8395Z" fill="#455A64"></path><path d="M237.31 53.5736V56.7327C236.993 56.7327 236.677 56.6654 236.434 56.5239L202.614 36.9968C202.129 36.7207 201.738 36.0404 201.738 35.4813V34.3429C201.738 33.8512 202.041 33.2652 202.452 32.9419C202.136 33.2181 202.19 33.5953 202.614 33.8378L236.434 53.3648C236.676 53.5063 236.993 53.5736 237.31 53.5736Z" fill="#37474F"></path><path d="M236.434 47.0466L213.559 33.8398C213.076 33.5609 212.684 32.8826 212.684 32.3242V31.1859C212.684 30.6282 213.076 29.9492 213.559 29.6703L228.225 21.2028C228.708 20.9239 229.37 20.3345 229.702 19.8866L236.707 10.4511C237.04 10.0032 237.701 9.86574 238.184 10.1446L261.059 23.3508C261.542 23.6297 261.934 24.3086 261.934 24.8664L261.934 32.3242C261.934 32.8819 261.542 33.5609 261.059 33.8398L238.184 47.0466C237.701 47.3255 236.918 47.3255 236.434 47.0466Z" fill="#263238"></path><path d="M238.183 43.8868L252.849 35.4192C253.082 35.2852 253.356 35.0784 253.615 34.8507C253.893 34.6056 254.154 34.3348 254.327 34.1024L261.331 24.6669C261.664 24.219 261.542 23.6296 261.058 23.3507L238.183 10.1445C237.7 9.86566 237.039 10.0024 236.706 10.451L229.701 19.8865C229.368 20.3344 228.828 20.977 228.345 21.2559L213.558 29.6702C213.075 29.9491 213.075 30.4017 213.558 30.6806L236.432 43.8875C236.917 44.1663 237.7 44.1663 238.183 43.8868Z" fill="#455A64"></path><path d="M261.057 23.3507L238.182 10.1446C237.699 9.86569 237.038 10.0024 236.705 10.4504L229.7 19.8859C229.527 20.1189 229.265 20.3863 228.984 20.6315C228.984 20.6315 253.604 34.8555 253.612 34.8494C253.891 34.6042 254.153 34.3362 254.325 34.1031L261.33 24.6676C261.662 24.219 261.54 23.6296 261.057 23.3507Z" fill="#37474F"></path><path d="M219.112 29.902C219.679 29.5747 220.598 29.5747 221.165 29.902C221.731 30.2294 221.731 30.7595 221.165 31.0868C220.598 31.4142 219.68 31.4142 219.112 31.0868C218.546 30.7595 218.546 30.2287 219.112 29.902Z" fill="#388BDD"></path><path d="M223.218 32.2709C223.785 31.9436 224.704 31.9436 225.271 32.2709C225.837 32.5983 225.837 33.1284 225.271 33.4557C224.704 33.7831 223.785 33.7831 223.218 33.4557C222.651 33.1284 222.651 32.5983 223.218 32.2709Z" fill="#388BDD"></path><path d="M227.319 34.6405C227.886 34.3132 228.805 34.3132 229.372 34.6405C229.938 34.9679 229.938 35.498 229.372 35.8254C228.805 36.1527 227.887 36.1527 227.319 35.8254C226.753 35.498 226.753 34.9679 227.319 34.6405Z" fill="#263238"></path><path d="M231.425 37.0104C231.991 36.6831 232.91 36.6831 233.477 37.0104C234.044 37.3378 234.044 37.8679 233.477 38.1952C232.911 38.5226 231.992 38.5226 231.425 38.1952C230.858 37.8679 230.858 37.3371 231.425 37.0104Z" fill="#263238"></path><path d="M223.217 29.555C224.018 29.555 224.667 29.1799 224.667 28.7171C224.667 28.2543 224.018 27.8792 223.217 27.8792C222.415 27.8792 221.766 28.2543 221.766 28.7171C221.766 29.1799 222.415 29.555 223.217 29.555Z" fill="#388BDD"></path><path d="M226.292 30.4941C226.859 30.1667 227.777 30.1667 228.344 30.4941C228.911 30.8214 228.911 31.3515 228.344 31.6789C227.778 32.0062 226.859 32.0062 226.292 31.6789C225.726 31.3515 225.726 30.8214 226.292 30.4941Z" fill="#263238"></path><path d="M231.424 34.2938C232.225 34.2938 232.874 33.9186 232.874 33.4559C232.874 32.9931 232.225 32.6179 231.424 32.6179C230.622 32.6179 229.973 32.9931 229.973 33.4559C229.973 33.9186 230.622 34.2938 231.424 34.2938Z" fill="#388BDD"></path><path d="M234.503 35.2326C235.069 34.9052 235.988 34.9052 236.555 35.2326C237.122 35.5599 237.122 36.09 236.555 36.4174C235.989 36.7448 235.07 36.7448 234.503 36.4174C233.937 36.0907 233.937 35.5599 234.503 35.2326Z" fill="#263238"></path><path d="M225.269 26.3476C225.836 26.0202 226.754 26.0202 227.322 26.3476C227.888 26.6749 227.888 27.205 227.322 27.5324C226.755 27.8598 225.836 27.8598 225.269 27.5324C224.702 27.205 224.702 26.6743 225.269 26.3476Z" fill="#263238"></path><path d="M229.371 28.7172C229.937 28.3898 230.856 28.3898 231.423 28.7172C231.99 29.0446 231.99 29.5747 231.423 29.902C230.857 30.2294 229.938 30.2294 229.371 29.902C228.804 29.5747 228.804 29.0439 229.371 28.7172Z" fill="#388BDD"></path><path d="M233.476 31.0861C234.043 30.7587 234.961 30.7587 235.529 31.0861C236.095 31.4135 236.095 31.9436 235.529 32.2709C234.962 32.5983 234.043 32.5983 233.476 32.2709C232.909 31.9436 232.909 31.4135 233.476 31.0861Z" fill="#263238"></path><path d="M235.554 39.3322C236.121 39.0048 237.04 39.0048 237.606 39.3322C238.172 39.6595 238.172 40.1897 237.606 40.517C237.04 40.8444 236.121 40.8444 235.554 40.517C234.987 40.1897 234.987 39.6595 235.554 39.3322Z" fill="#388BDD"></path><path d="M238.632 37.5551C239.198 37.2277 240.117 37.2277 240.684 37.5551C241.25 37.8824 241.25 38.4126 240.684 38.7399C240.117 39.0673 239.198 39.0673 238.632 38.7399C238.065 38.4126 238.065 37.8818 238.632 37.5551Z" fill="#263238"></path><path d="M237.581 33.4577C238.148 33.1303 239.066 33.1303 239.634 33.4577C240.2 33.785 240.2 34.3151 239.634 34.6425C239.067 34.9699 238.148 34.9699 237.581 34.6425C237.015 34.3151 237.015 33.7844 237.581 33.4577Z" fill="#263238"></path><path d="M228.347 24.5719C228.913 24.2446 229.832 24.2446 230.399 24.5719C230.966 24.8993 230.966 25.4294 230.399 25.7568C229.833 26.0841 228.914 26.0841 228.347 25.7568C227.78 25.4294 227.78 24.8993 228.347 24.5719Z" fill="#388BDD"></path><path d="M233.474 28.3717C234.276 28.3717 234.925 27.9965 234.925 27.5337C234.925 27.071 234.276 26.6958 233.474 26.6958C232.673 26.6958 232.023 27.071 232.023 27.5337C232.023 27.9965 232.673 28.3717 233.474 28.3717Z" fill="#263238"></path><path d="M236.554 29.3112C237.12 28.9838 238.039 28.9838 238.606 29.3112C239.173 29.6386 239.173 30.1687 238.606 30.496C238.04 30.8234 237.121 30.8234 236.554 30.496C235.987 30.1687 235.987 29.6379 236.554 29.3112Z" fill="#388BDD"></path><path d="M241.685 33.1109C242.487 33.1109 243.136 32.7358 243.136 32.273C243.136 31.8102 242.487 31.4351 241.685 31.4351C240.884 31.4351 240.234 31.8102 240.234 32.273C240.234 32.7358 240.884 33.1109 241.685 33.1109Z" fill="#263238"></path><path d="M241.707 35.7795C242.273 35.4521 243.192 35.4521 243.759 35.7795C244.325 36.1068 244.325 36.6369 243.759 36.9643C243.193 37.2916 242.274 37.2916 241.707 36.9643C241.139 36.6369 241.139 36.1068 241.707 35.7795Z" fill="#388BDD"></path><path d="M244.784 34.0026C245.351 33.6752 246.269 33.6752 246.837 34.0026C247.403 34.33 247.403 34.8601 246.837 35.1874C246.27 35.5148 245.351 35.5148 244.784 35.1874C244.218 34.8601 244.218 34.3293 244.784 34.0026Z" fill="#263238"></path><path d="M237.361 44.0963V47.2486C237.031 47.2554 236.694 47.1947 236.438 47.0466L213.563 33.8377C213.078 33.5615 212.688 32.8812 212.688 32.3221V31.1838C212.688 30.692 212.991 30.106 213.401 29.7827C213.085 30.0589 213.139 30.4361 213.563 30.6786L236.438 43.8875C236.693 44.0357 237.03 44.103 237.361 44.0963Z" fill="#37474F"></path><path d="M232.73 19.4912L232.75 19.4636C232.971 19.1645 233.411 19.0729 233.733 19.2588L253.639 30.7521C253.961 30.938 254.042 31.3307 253.82 31.6291L253.799 31.6567C253.577 31.9551 253.136 32.046 252.813 31.8601L232.911 20.3695C232.591 20.1843 232.509 19.7909 232.73 19.4912Z" fill="#263238"></path><path d="M232.729 19.4912L232.75 19.4636C232.971 19.1645 233.411 19.0729 233.733 19.2588L248.533 27.8032L247.707 28.9112L232.913 20.3695C232.591 20.1843 232.509 19.7909 232.729 19.4912Z" fill="#388BDD"></path><path d="M234.374 17.2827L234.394 17.2551C234.615 16.956 235.056 16.8644 235.378 17.0503L255.284 28.5436C255.606 28.7295 255.687 29.1222 255.465 29.4206L255.444 29.4482C255.221 29.7466 254.78 29.8376 254.458 29.6516L234.556 18.1611C234.235 17.9758 234.153 17.5825 234.374 17.2827Z" fill="#263238"></path><path d="M234.374 17.2827L234.394 17.2551C234.615 16.956 235.056 16.8644 235.378 17.0503L240.326 19.9063L239.5 21.0143L234.557 18.1617C234.235 17.9751 234.153 17.5825 234.374 17.2827Z" fill="#388BDD"></path><path d="M236.023 15.074L236.043 15.0463C236.264 14.7473 236.705 14.6557 237.027 14.8416L256.933 26.3349C257.255 26.5208 257.336 26.9135 257.113 27.2119L257.093 27.2395C256.87 27.5379 256.429 27.6288 256.106 27.4429L236.206 15.953C235.884 15.7664 235.801 15.373 236.023 15.074Z" fill="#263238"></path><path d="M236.023 15.074L236.043 15.0463C236.264 14.7473 236.705 14.655 237.027 14.8409L247.396 20.8088L246.57 21.9169L236.207 15.9523C235.883 15.7664 235.801 15.373 236.023 15.074Z" fill="#388BDD"></path><path d="M237.667 12.8652L237.687 12.8376C237.908 12.5385 238.349 12.4469 238.671 12.6328L258.577 24.1261C258.899 24.312 258.98 24.7047 258.758 25.0031L258.737 25.0307C258.515 25.3291 258.073 25.4201 257.751 25.2342L237.849 13.7436C237.528 13.5577 237.446 13.1643 237.667 12.8652Z" fill="#263238"></path><path d="M237.667 12.8652L237.687 12.8376C237.908 12.5385 238.349 12.4469 238.671 12.6328L256.741 23.0652L255.915 24.1733L237.85 13.7442C237.528 13.5577 237.446 13.1643 237.667 12.8652Z" fill="#388BDD"></path><path d="M201.742 197.615L208.492 193.719C209.294 193.256 210.607 193.256 211.409 193.719L251.503 216.867C252.492 217.438 253.728 216.724 253.728 215.582V182.42" stroke="#006DAA" stroke-miterlimit="10"></path><path d="M199.004 196.036L208.491 190.559C209.293 190.095 210.605 190.095 211.407 190.559L254.237 215.287C255.227 215.858 256.463 215.144 256.463 214.001V182.419" stroke="#006DAA" stroke-miterlimit="10"></path><path d="M196.27 194.451L208.491 187.399C209.293 186.936 210.606 186.936 211.408 187.4L256.974 213.707C257.963 214.278 259.199 213.564 259.199 212.422V182.608" stroke="#006DAA" stroke-miterlimit="10"></path><path d="M193.523 192.876L208.491 184.24C209.293 183.777 210.606 183.777 211.408 184.24L259.71 212.128C260.7 212.699 261.936 211.985 261.936 210.843V182.608" stroke="#006DAA" stroke-miterlimit="10"></path><path d="M156.505 56.2846L112.908 81.4556C112.102 81.9204 111.449 83.0513 111.449 83.9815V203.829C111.449 204.76 112.102 205.891 112.908 206.355L156.506 231.526C157.311 231.991 158.617 231.991 159.422 231.526L203.018 206.355C203.824 205.891 204.477 204.76 204.477 203.829V83.9815C204.477 83.0513 203.824 81.9204 203.018 81.4556L159.422 56.2846C158.617 55.8198 157.311 55.8198 156.505 56.2846Z" fill="#37474F"></path><path d="M204.475 83.9789V203.829C204.475 204.758 203.822 205.89 203.021 206.355L159.42 231.526C159.022 231.762 158.49 231.877 157.965 231.877V108.659C158.49 108.659 159.016 108.538 159.42 108.309L203.021 83.1369L203.418 82.8068L203.937 82.3757C204.267 82.8742 204.475 83.4535 204.475 83.9789Z" fill="#263238"></path><path d="M118.381 95.7766L151.035 114.629C151.84 115.094 152.493 116.224 152.493 117.155L152.492 129.584C152.492 130.514 151.839 130.891 151.034 130.426L118.382 111.574C117.577 111.109 116.924 109.978 116.924 109.048V96.6186C116.923 95.6891 117.576 95.3119 118.381 95.7766Z" fill="#455A64"></path><path d="M119.66 101.254C119.66 102.126 120.313 103.21 121.118 103.675L148.299 119.368C149.105 119.832 149.758 119.502 149.758 118.63C149.758 117.758 149.105 116.673 148.299 116.208L121.118 100.516C120.313 100.051 119.66 100.381 119.66 101.254Z" fill="#388BDD"></path><path d="M119.66 107.572C119.66 108.445 120.313 109.529 121.118 109.994L148.299 125.687C149.105 126.152 149.758 125.821 149.758 124.949C149.758 124.077 149.105 122.992 148.299 122.528L121.118 106.835C120.313 106.37 119.66 106.7 119.66 107.572Z" fill="#263238"></path><path d="M121.118 106.835L136.077 115.471V118.63L121.118 109.994C120.313 109.53 119.66 108.445 119.66 107.573C119.66 106.7 120.313 106.37 121.118 106.835Z" fill="#388BDD"></path><path d="M118.382 117.892L151.035 136.744C151.841 137.209 152.494 138.34 152.494 139.27L152.493 151.7C152.493 152.63 151.84 153.006 151.035 152.542L118.382 133.69C117.577 133.225 116.924 132.094 116.924 131.164V118.734C116.924 117.805 117.577 117.427 118.382 117.892Z" fill="#455A64"></path><path d="M119.66 123.37C119.66 124.242 120.313 125.326 121.118 125.791L148.299 141.484C149.105 141.949 149.758 141.619 149.758 140.747C149.758 139.874 149.105 138.79 148.299 138.325L121.118 122.632C120.313 122.167 119.66 122.497 119.66 123.37Z" fill="#388BDD"></path><path d="M119.66 129.688C119.66 130.561 120.313 131.645 121.118 132.11L148.299 147.803C149.105 148.268 149.758 147.938 149.758 147.065C149.758 146.193 149.105 145.109 148.299 144.644L121.118 128.95C120.313 128.485 119.66 128.815 119.66 129.688Z" fill="#263238"></path><path d="M121.118 128.95L144.286 142.325V145.484L121.118 132.11C120.313 131.645 119.66 130.561 119.66 129.688C119.66 128.815 120.313 128.485 121.118 128.95Z" fill="#388BDD"></path><path d="M118.382 140.008L151.035 158.861C151.841 159.325 152.494 160.456 152.494 161.387L152.493 173.816C152.493 174.746 151.84 175.123 151.035 174.658L118.382 155.806C117.577 155.341 116.924 154.21 116.924 153.28V140.85C116.924 139.92 117.577 139.543 118.382 140.008Z" fill="#455A64"></path><path d="M119.66 145.485C119.66 146.358 120.313 147.442 121.118 147.907L148.299 163.599C149.105 164.064 149.758 163.734 149.758 162.862C149.758 161.989 149.105 160.905 148.299 160.44L121.118 144.747C120.313 144.282 119.66 144.612 119.66 145.485Z" fill="#388BDD"></path><path d="M119.66 151.804C119.66 152.677 120.313 153.761 121.118 154.226L148.299 169.918C149.105 170.383 149.758 170.053 149.758 169.181C149.758 168.308 149.105 167.224 148.299 166.759L121.118 151.066C120.313 150.601 119.66 150.931 119.66 151.804Z" fill="#263238"></path><path d="M121.118 151.066L130.604 156.543V159.702L121.118 154.226C120.313 153.761 119.66 152.677 119.66 151.804C119.66 150.931 120.313 150.601 121.118 151.066Z" fill="#388BDD"></path><path d="M118.382 162.124L151.035 180.976C151.841 181.441 152.494 182.572 152.494 183.502L152.493 195.932C152.493 196.862 151.84 197.239 151.035 196.774L118.382 177.922C117.577 177.457 116.924 176.326 116.924 175.396V162.966C116.924 162.036 117.577 161.659 118.382 162.124Z" fill="#455A64"></path><path d="M119.66 167.601C119.66 168.474 120.313 169.558 121.118 170.023L148.299 185.715C149.105 186.18 149.758 185.85 149.758 184.978C149.758 184.105 149.105 183.021 148.299 182.556L121.118 166.864C120.313 166.398 119.66 166.728 119.66 167.601Z" fill="#388BDD"></path><path d="M119.66 173.92C119.66 174.792 120.313 175.877 121.118 176.341L148.299 192.034C149.105 192.499 149.758 192.169 149.758 191.296C149.758 190.424 149.105 189.34 148.299 188.875L121.118 173.182C120.313 172.717 119.66 173.048 119.66 173.92Z" fill="#263238"></path><path d="M121.118 173.182L136.077 181.819V184.978L121.118 176.341C120.313 175.877 119.66 174.792 119.66 173.92C119.66 173.048 120.313 172.717 121.118 173.182Z" fill="#388BDD"></path><path d="M118.381 184.24L151.035 203.092C151.84 203.557 152.493 204.688 152.493 205.618V218.047C152.493 218.977 151.84 219.353 151.035 218.889L118.382 200.036C117.577 199.572 116.924 198.441 116.924 197.511V185.081C116.923 184.151 117.576 183.774 118.381 184.24Z" fill="#455A64"></path><path d="M119.66 189.717C119.66 190.589 120.313 191.673 121.118 192.138L148.299 207.83C149.105 208.295 149.758 207.965 149.758 207.093C149.758 206.221 149.105 205.136 148.299 204.671L121.118 188.979C120.313 188.514 119.66 188.844 119.66 189.717Z" fill="#388BDD"></path><path d="M119.66 196.035C119.66 196.908 120.313 197.992 121.118 198.457L148.299 214.149C149.105 214.614 149.758 214.284 149.758 213.412C149.758 212.539 149.105 211.455 148.299 210.99L121.118 195.298C120.313 194.832 119.66 195.163 119.66 196.035Z" fill="#263238"></path><path d="M121.118 195.298L141.549 207.094V210.253L121.118 198.457C120.313 197.992 119.66 196.908 119.66 196.035C119.66 195.163 120.313 194.832 121.118 195.298Z" fill="#388BDD"></path><path d="M164.803 116.267C166.314 115.391 167.539 116.189 167.539 118.049V190.305C167.539 192.164 166.314 194.382 164.803 195.259C163.292 196.135 162.067 195.337 162.067 193.477L162.066 121.222C162.067 119.361 163.292 117.143 164.803 116.267Z" fill="#37474F"></path><path d="M164.802 193.659C165.557 193.223 166.17 192.115 166.17 191.185V118.727C166.17 117.797 165.557 117.397 164.802 117.834C164.046 118.27 163.434 119.377 163.434 120.308L163.434 192.765C163.434 193.696 164.047 194.096 164.802 193.659Z" fill="#263238"></path><path d="M164.802 193.659C165.558 193.222 166.17 192.115 166.17 191.185L166.17 156.543L163.434 158.122L163.434 192.765C163.434 193.695 164.047 194.095 164.802 193.659Z" fill="#388BDD"></path><path d="M173.014 111.528C174.525 110.652 175.75 111.45 175.75 113.31V185.565C175.75 187.425 174.525 189.643 173.014 190.52C171.503 191.396 170.278 190.598 170.278 188.738L170.277 116.482C170.278 114.623 171.503 112.405 173.014 111.528Z" fill="#37474F"></path><path d="M173.013 188.92C173.769 188.484 174.381 187.377 174.381 186.446L174.381 113.989C174.381 113.059 173.768 112.658 173.013 113.095C172.257 113.531 171.645 114.639 171.645 115.569L171.645 188.027C171.645 188.956 172.257 189.357 173.013 188.92Z" fill="#388BDD"></path><path d="M181.217 106.79C182.728 105.914 183.953 106.711 183.953 108.571V180.827C183.953 182.687 182.728 184.905 181.217 185.781C179.706 186.657 178.481 185.859 178.481 183.999L178.48 111.744C178.481 109.883 179.706 107.665 181.217 106.79Z" fill="#37474F"></path><path d="M181.22 184.182C181.976 183.745 182.588 182.638 182.588 181.708L182.588 109.25C182.588 108.32 181.975 107.92 181.22 108.356C180.464 108.793 179.852 109.9 179.852 110.83L179.852 183.288C179.852 184.217 180.465 184.617 181.22 184.182Z" fill="#263238"></path><path d="M181.22 184.182C181.976 183.745 182.588 182.638 182.588 181.708L182.588 125.739L179.852 127.318L179.852 183.287C179.852 184.218 180.465 184.618 181.22 184.182Z" fill="#388BDD"></path><path d="M189.428 102.051C190.939 101.175 192.164 101.973 192.164 103.832V176.088C192.164 177.948 190.939 180.166 189.428 181.042C187.917 181.919 186.692 181.12 186.692 179.261L186.691 107.005C186.691 105.145 187.917 102.927 189.428 102.051Z" fill="#37474F"></path><path d="M189.427 179.443C190.182 179.006 190.795 177.899 190.795 176.969V104.511C190.795 103.581 190.182 103.181 189.427 103.617C188.671 104.054 188.059 105.161 188.059 106.091L188.059 178.549C188.059 179.479 188.672 179.879 189.427 179.443Z" fill="#263238"></path><path d="M189.427 179.443C190.183 179.006 190.795 177.899 190.795 176.969L190.795 164.739L188.059 166.319L188.059 178.548C188.059 179.479 188.672 179.879 189.427 179.443Z" fill="#388BDD"></path><path d="M197.639 97.3116C199.15 96.4353 200.375 97.2335 200.375 99.0932V171.349C200.375 173.209 199.15 175.427 197.639 176.303C196.128 177.179 194.903 176.381 194.903 174.521L194.902 102.266C194.903 100.406 196.128 98.188 197.639 97.3116Z" fill="#37474F"></path><path d="M197.638 174.704C198.394 174.267 199.006 173.16 199.006 172.23L199.006 99.7722C199.006 98.842 198.393 98.4418 197.638 98.8783C196.882 99.3148 196.27 100.422 196.27 101.352L196.27 173.81C196.27 174.74 196.882 175.14 197.638 174.704Z" fill="#263238"></path><path d="M197.638 174.704C198.394 174.267 199.006 173.16 199.006 172.23L199.006 134.427L196.27 136.007L196.27 173.809C196.27 174.739 196.882 175.14 197.638 174.704Z" fill="#388BDD"></path><path d="M163.233 204.05L199.206 183.282C199.85 182.91 200.372 183.212 200.372 183.956V197.058C200.372 197.802 199.85 198.707 199.206 199.079L163.233 219.847C162.589 220.219 162.066 219.917 162.066 219.174V206.071C162.066 205.327 162.588 204.422 163.233 204.05Z" fill="#37474F"></path><path d="M164.711 207.935C164.711 208.807 165.364 209.137 166.17 208.673L196.267 191.29C197.072 190.825 197.725 189.741 197.725 188.869C197.725 187.996 197.072 187.666 196.267 188.131L166.169 205.513C165.363 205.979 164.71 207.063 164.711 207.935Z" fill="#263238"></path><path d="M164.711 207.935C164.711 208.807 165.364 209.137 166.169 208.672L188.058 196.029L188.059 192.87L166.169 205.513C165.363 205.979 164.71 207.063 164.711 207.935Z" fill="#388BDD"></path><path d="M164.711 214.255C164.711 215.127 165.364 215.457 166.17 214.992L196.267 197.61C197.072 197.145 197.725 196.06 197.725 195.188C197.725 194.316 197.072 193.986 196.267 194.451L166.169 211.833C165.363 212.298 164.71 213.382 164.711 214.255Z" fill="#263238"></path><path d="M164.711 214.255C164.711 215.127 165.364 215.457 166.17 214.992L174.378 210.253L174.379 207.094L166.169 211.833C165.363 212.298 164.71 213.382 164.711 214.255Z" fill="#388BDD"></path><path d="M203.016 81.4556L159.419 56.2846C158.613 55.8198 157.308 55.8198 156.502 56.2846L112.905 81.4556C112.099 81.9204 112.099 82.6748 112.905 83.1395L156.503 108.311C157.309 108.775 158.614 108.775 159.42 108.311L203.016 83.1395C203.822 82.6748 203.822 81.9204 203.016 81.4556Z" fill="#455A64"></path><path d="M157.085 102.328L123.266 82.8027C122.783 82.5238 122.391 81.8449 122.391 81.2871V80.1481C122.391 79.5904 122.782 78.9114 123.266 78.6326L157.085 59.1069C157.568 58.828 158.352 58.828 158.835 59.1069L192.654 78.6326C193.137 78.9114 193.529 79.5904 193.529 80.1481V81.2865C193.529 81.8442 193.137 82.5232 192.654 82.802L158.835 102.328C158.352 102.607 157.568 102.607 157.085 102.328Z" fill="#263238"></path><path d="M123.267 79.643L157.087 99.1687C157.57 99.4476 158.354 99.4476 158.837 99.1687L192.656 79.643C193.139 79.3641 193.139 78.9115 192.656 78.6326L158.836 59.7812C158.353 59.5023 157.569 59.5023 157.086 59.7812L123.267 78.6326C122.783 78.9115 122.783 79.3641 123.267 79.643Z" fill="#455A64"></path><path d="M157.962 99.3769V102.536C157.646 102.536 157.329 102.469 157.087 102.327L123.266 82.8001C122.781 82.5239 122.391 81.8436 122.391 81.2845V80.1462C122.391 79.6545 122.694 79.0684 123.105 78.7451C122.788 79.0213 122.842 79.3985 123.266 79.641L157.087 99.168C157.329 99.3095 157.646 99.3769 157.962 99.3769Z" fill="#37474F"></path><path d="M157.086 92.8497L134.211 79.6428C133.728 79.364 133.336 78.685 133.336 78.1273V76.9889C133.336 76.4312 133.728 75.7522 134.211 75.4734L148.877 67.0058C149.36 66.7269 150.022 66.1375 150.355 65.6896L157.359 56.2541C157.692 55.8062 158.353 55.6688 158.836 55.9483L181.712 69.1545C182.195 69.4334 182.587 70.1123 182.587 70.6701L182.586 78.1279C182.586 78.6857 182.194 79.3646 181.711 79.6435L158.836 92.8504C158.353 93.1292 157.569 93.1292 157.086 92.8497Z" fill="#263238"></path><path d="M158.837 89.6908L173.504 81.2232C173.736 81.0892 174.01 80.8824 174.269 80.6547C174.548 80.4095 174.808 80.1388 174.981 79.9064L181.985 70.4709C182.318 70.0229 182.196 69.4336 181.713 69.1547L158.837 55.9485C158.354 55.6696 157.693 55.8064 157.36 56.2543L150.356 65.6898C150.023 66.1377 149.483 66.7803 149 67.0592L134.212 75.4735C133.729 75.7524 133.729 76.2051 134.212 76.4839L157.087 89.6908C157.57 89.9696 158.354 89.9696 158.837 89.6908Z" fill="#455A64"></path><path d="M181.711 69.154L158.836 55.9478C158.353 55.6689 157.691 55.8056 157.359 56.2536L150.355 65.6891C150.182 65.9221 149.919 66.1895 149.639 66.4341C149.639 66.4341 174.259 80.658 174.266 80.652C174.545 80.4068 174.807 80.1387 174.979 79.9056L181.984 70.4701C182.317 70.0229 182.194 69.4335 181.711 69.154Z" fill="#37474F"></path><path d="M139.763 75.7052C140.329 75.3779 141.248 75.3779 141.815 75.7052C142.382 76.0326 142.382 76.5627 141.815 76.8901C141.249 77.2174 140.33 77.2174 139.763 76.8901C139.196 76.5627 139.196 76.0326 139.763 75.7052Z" fill="#388BDD"></path><path d="M143.868 78.0746C144.435 77.7473 145.353 77.7473 145.921 78.0746C146.488 78.402 146.487 78.9321 145.921 79.2594C145.354 79.5868 144.435 79.5868 143.868 79.2594C143.302 78.9321 143.302 78.4013 143.868 78.0746Z" fill="#388BDD"></path><path d="M147.97 80.4438C148.537 80.1164 149.456 80.1164 150.023 80.4438C150.589 80.7711 150.589 81.3012 150.023 81.6286C149.456 81.9559 148.537 81.9559 147.97 81.6286C147.403 81.3012 147.403 80.7711 147.97 80.4438Z" fill="#263238"></path><path d="M152.074 82.8134C152.64 82.486 153.559 82.486 154.126 82.8134C154.693 83.1408 154.693 83.6709 154.126 83.9982C153.56 84.3256 152.641 84.3256 152.074 83.9982C151.507 83.6709 151.507 83.1408 152.074 82.8134Z" fill="#263238"></path><path d="M142.841 73.9281C143.408 73.6008 144.327 73.6008 144.894 73.9281C145.461 74.2555 145.46 74.7856 144.894 75.113C144.327 75.4403 143.409 75.4403 142.841 75.113C142.274 74.7856 142.274 74.2548 142.841 73.9281Z" fill="#388BDD"></path><path d="M147.972 77.7279C148.774 77.7279 149.423 77.3527 149.423 76.8899C149.423 76.4272 148.774 76.052 147.972 76.052C147.171 76.052 146.521 76.4272 146.521 76.8899C146.521 77.3527 147.171 77.7279 147.972 77.7279Z" fill="#263238"></path><path d="M151.048 78.6669C151.614 78.3395 152.533 78.3395 153.1 78.6669C153.667 78.9943 153.667 79.5244 153.1 79.8517C152.534 80.1791 151.615 80.1791 151.048 79.8517C150.481 79.5244 150.481 78.9943 151.048 78.6669Z" fill="#388BDD"></path><path d="M156.177 82.4664C156.979 82.4664 157.628 82.0912 157.628 81.6285C157.628 81.1657 156.979 80.7905 156.177 80.7905C155.376 80.7905 154.727 81.1657 154.727 81.6285C154.727 82.0912 155.376 82.4664 156.177 82.4664Z" fill="#263238"></path><path d="M145.919 72.1505C146.485 71.8232 147.404 71.8232 147.971 72.1505C148.537 72.4779 148.537 73.008 147.971 73.3354C147.404 73.6627 146.485 73.6627 145.919 73.3354C145.353 73.008 145.353 72.4779 145.919 72.1505Z" fill="#263238"></path><path d="M150.023 74.5204C150.589 74.1931 151.508 74.1931 152.075 74.5204C152.642 74.8478 152.642 75.3779 152.075 75.7052C151.509 76.0326 150.59 76.0326 150.023 75.7052C149.456 75.3779 149.456 74.8478 150.023 74.5204Z" fill="#388BDD"></path><path d="M154.126 76.8898C154.693 76.5624 155.611 76.5624 156.178 76.8898C156.744 77.2172 156.744 77.7473 156.178 78.0746C155.611 78.402 154.693 78.402 154.126 78.0746C153.56 77.7473 153.56 77.2165 154.126 76.8898Z" fill="#263238"></path><path d="M156.202 85.1352C156.769 84.8078 157.687 84.8078 158.255 85.1352C158.821 85.4625 158.821 85.9926 158.255 86.32C157.688 86.6474 156.769 86.6474 156.202 86.32C155.636 85.9933 155.636 85.4625 156.202 85.1352Z" fill="#388BDD"></path><path d="M159.28 83.3583C159.847 83.031 160.766 83.031 161.333 83.3583C161.9 83.6857 161.899 84.2158 161.333 84.5431C160.766 84.8705 159.847 84.8705 159.28 84.5431C158.714 84.2158 158.714 83.6857 159.28 83.3583Z" fill="#263238"></path><path d="M158.23 79.2609C158.797 78.9335 159.715 78.9335 160.282 79.2609C160.849 79.5883 160.849 80.1184 160.282 80.4457C159.716 80.7731 158.797 80.7731 158.23 80.4457C157.663 80.1184 157.663 79.5883 158.23 79.2609Z" fill="#263238"></path><path d="M150.021 71.8057C150.823 71.8057 151.472 71.4306 151.472 70.9678C151.472 70.505 150.823 70.1299 150.021 70.1299C149.22 70.1299 148.57 70.505 148.57 70.9678C148.57 71.4306 149.22 71.8057 150.021 71.8057Z" fill="#388BDD"></path><path d="M153.101 72.7448C153.667 72.4174 154.586 72.4174 155.153 72.7448C155.72 73.0721 155.72 73.6022 155.153 73.9296C154.587 74.257 153.668 74.257 153.101 73.9296C152.534 73.6029 152.534 73.0721 153.101 72.7448Z" fill="#263238"></path><path d="M158.232 76.5443C159.033 76.5443 159.683 76.1691 159.683 75.7063C159.683 75.2436 159.033 74.8684 158.232 74.8684C157.431 74.8684 156.781 75.2436 156.781 75.7063C156.781 76.1691 157.431 76.5443 158.232 76.5443Z" fill="#388BDD"></path><path d="M161.308 77.484C161.874 77.1567 162.793 77.1567 163.36 77.484C163.927 77.8114 163.927 78.3415 163.36 78.6689C162.794 78.9962 161.875 78.9962 161.308 78.6689C160.741 78.3415 160.741 77.8107 161.308 77.484Z" fill="#263238"></path><path d="M162.358 81.5827C162.925 81.2553 163.844 81.2553 164.411 81.5827C164.977 81.91 164.977 82.4401 164.411 82.7675C163.844 83.0949 162.926 83.0949 162.358 82.7675C161.792 82.4408 161.792 81.91 162.358 81.5827Z" fill="#388BDD"></path><path d="M166.463 81.2364C167.264 81.2364 167.913 80.8613 167.913 80.3985C167.913 79.9357 167.264 79.5605 166.463 79.5605C165.661 79.5605 165.012 79.9357 165.012 80.3985C165.012 80.8613 165.661 81.2364 166.463 81.2364Z" fill="#263238"></path><path d="M158.009 89.8995V93.0519C157.679 93.0586 157.342 92.998 157.086 92.8498L134.212 79.6409C133.727 79.3647 133.336 78.6844 133.336 78.1253V76.987C133.336 76.4953 133.639 75.9093 134.05 75.5859C133.733 75.8621 133.787 76.2393 134.212 76.4818L157.086 89.6907C157.342 89.8389 157.679 89.9062 158.009 89.8995Z" fill="#37474F"></path><path d="M153.382 65.2952L153.403 65.2675C153.624 64.9685 154.064 64.8769 154.386 65.0628L174.292 76.5561C174.614 76.742 174.695 77.1347 174.473 77.4331L174.452 77.4607C174.23 77.7591 173.788 77.85 173.466 77.6641L153.564 66.1735C153.243 65.9876 153.161 65.5942 153.382 65.2952Z" fill="#263238"></path><path d="M153.382 65.2952L153.403 65.2675C153.623 64.9685 154.064 64.8769 154.386 65.0628L169.186 73.6071L168.36 74.7152L153.566 66.1735C153.243 65.9876 153.161 65.5942 153.382 65.2952Z" fill="#388BDD"></path><path d="M155.031 63.0867L155.051 63.059C155.272 62.76 155.712 62.6684 156.034 62.8543L175.94 74.3476C176.262 74.5335 176.344 74.9262 176.121 75.2246L176.1 75.2522C175.878 75.5506 175.437 75.6415 175.114 75.4556L155.212 63.965C154.891 63.7791 154.81 63.3857 155.031 63.0867Z" fill="#263238"></path><path d="M155.03 63.0867L155.051 63.059C155.272 62.76 155.712 62.6684 156.034 62.8543L160.982 65.7096L160.156 66.8176L155.214 63.965C154.891 63.7791 154.81 63.3857 155.03 63.0867Z" fill="#388BDD"></path><path d="M156.675 60.8779L156.695 60.8503C156.916 60.5512 157.357 60.4596 157.679 60.6455L177.585 72.1388C177.907 72.3247 177.988 72.7174 177.765 73.0158L177.745 73.0434C177.522 73.3418 177.081 73.4328 176.758 73.2469L156.858 61.7563C156.536 61.5704 156.454 61.177 156.675 60.8779Z" fill="#263238"></path><path d="M156.675 60.8779L156.695 60.8503C156.916 60.5512 157.356 60.459 157.679 60.6449L168.047 66.6121L167.222 67.7201L156.859 61.7556C156.536 61.5697 156.454 61.177 156.675 60.8779Z" fill="#388BDD"></path><path d="M158.32 58.6692L158.34 58.6416C158.561 58.3425 159.001 58.2509 159.323 58.4368L179.23 69.9301C179.551 70.116 179.632 70.5087 179.41 70.8071L179.389 70.8347C179.167 71.1331 178.726 71.224 178.403 71.0381L158.501 59.5475C158.18 59.3616 158.099 58.9683 158.32 58.6692Z" fill="#263238"></path><path d="M158.32 58.6692L158.34 58.6416C158.561 58.3425 159.001 58.2509 159.323 58.4368L177.393 68.8692L176.567 69.9772L158.503 59.5475C158.18 59.3616 158.099 58.9683 158.32 58.6692Z" fill="#388BDD"></path><path d="M250.602 187.669V224.559C250.602 224.838 250.798 225.178 251.039 225.317L286.4 245.707C286.642 245.847 287.033 245.847 287.275 245.707L288.452 245.027C288.694 244.888 288.89 244.549 288.89 244.27V207.38C288.89 207.101 288.663 206.875 288.385 206.875L251.107 187.164C250.828 187.164 250.602 187.391 250.602 187.669Z" fill="#FAFAFA"></path><path d="M288.387 206.875H287.345C287.066 206.875 286.84 207.101 286.84 207.38V245.454C286.84 245.733 287.036 245.846 287.278 245.707L288.454 245.027C288.696 244.888 288.892 244.548 288.892 244.27V207.38C288.892 207.101 288.666 206.875 288.387 206.875Z" fill="#F5F5F5"></path><path d="M321.027 145.399V182.289C321.027 182.568 321.223 182.907 321.465 183.046L358.222 204.251C358.464 204.39 358.855 204.39 359.097 204.251L360.273 203.571C360.515 203.432 360.711 203.092 360.711 202.813V165.923C360.711 165.645 360.485 165.418 360.206 165.418L321.533 144.894C321.254 144.894 321.027 145.12 321.027 145.399Z" fill="#E0E0E0"></path><path d="M360.203 165.417H359.161C358.883 165.417 358.656 165.644 358.656 165.923V203.997C358.656 204.276 358.852 204.389 359.094 204.25L360.271 203.57C360.513 203.431 360.709 203.091 360.709 202.813V165.923C360.709 165.644 360.482 165.417 360.203 165.417Z" fill="#EBEBEB"></path><path d="M247.16 186.512V186.163C247.16 185.605 247.552 184.926 248.035 184.647L322.212 141.821C322.695 141.542 323.479 141.542 323.962 141.821L363.254 164.506C363.737 164.785 364.129 165.464 364.129 166.022V166.37C364.129 166.928 363.737 167.607 363.254 167.886L289.077 210.712C288.594 210.991 287.81 210.991 287.327 210.712L248.035 188.027C247.552 187.749 247.16 187.07 247.16 186.512Z" fill="#F5F5F5"></path><path d="M288.201 208.554V210.925C287.885 210.925 287.568 210.851 287.326 210.716L248.036 188.03C247.551 187.747 247.16 187.074 247.16 186.514V186.164C247.16 185.673 247.463 185.08 247.874 184.763C247.558 185.033 247.611 185.41 248.036 185.659L287.326 208.345C287.568 208.487 287.885 208.554 288.201 208.554Z" fill="#EBEBEB"></path><path d="M248.034 185.658L287.326 208.343C287.809 208.622 288.593 208.622 289.076 208.343L363.253 165.517C363.735 165.238 363.735 164.786 363.253 164.507L323.961 141.822C323.478 141.543 322.694 141.543 322.211 141.822L248.034 184.648C247.551 184.927 247.551 185.379 248.034 185.658Z" fill="#FAFAFA"></path><path d="M311.364 169.821L333.577 156.97C333.974 156.741 334.618 156.741 335.015 156.97L342.048 161.078C342.444 161.307 342.444 161.678 342.048 161.907L319.834 174.758C319.437 174.987 318.794 174.987 318.397 174.758L311.364 170.65C310.967 170.421 310.967 170.05 311.364 169.821Z" fill="#EBEBEB"></path><path d="M315.298 161.849L315.278 161.838L312.925 160.477C312.603 160.291 312.603 159.988 312.925 159.803L331.383 149.143C331.705 148.957 331.705 148.655 331.383 148.47L331.196 148.361C330.874 148.175 330.351 148.175 330.029 148.361L312.091 158.717C311.769 158.903 311.47 158.919 311.46 158.749C311.454 158.645 311.46 158.542 311.479 158.443L312.496 153.177C312.567 152.811 312.362 152.366 312.04 152.181L311.855 152.075C311.532 151.891 311.214 152.037 311.144 152.402L309.971 158.517C309.929 158.734 309.927 158.965 309.96 159.195C310.013 159.563 309.882 159.992 309.559 160.179L298.363 166.643C298.041 166.829 298.041 167.131 298.363 167.317L298.553 167.427C298.875 167.613 299.398 167.613 299.72 167.427L310.42 161.248C310.742 161.062 311.025 160.925 311.049 160.944C311.064 160.955 311.079 160.966 311.095 160.975L314.734 163.076C315.056 163.262 315.579 163.263 315.901 163.078C317.498 162.161 321.919 159.613 323.515 158.694C323.837 158.508 323.944 158.27 323.752 158.162C323.56 158.054 323.132 158.097 322.797 158.259L315.925 161.566C315.591 161.728 315.31 161.855 315.298 161.849Z" fill="#EBEBEB"></path><path d="M334.917 155.269L341.571 159.11C341.968 159.339 342.29 159.874 342.29 160.304C342.29 160.733 341.968 161.268 341.571 161.497L320.083 173.903C319.686 174.132 319.043 174.132 318.646 173.903L311.992 170.062C311.595 169.833 311.273 169.298 311.273 168.868C311.273 168.439 311.595 167.904 311.992 167.675L333.48 155.269C333.877 155.039 334.521 155.039 334.917 155.269Z" fill="#37474F"></path><path d="M319.364 174.075C319.104 174.075 318.844 174.018 318.646 173.903L311.992 170.062C311.595 169.833 311.273 169.298 311.273 168.868C311.273 168.438 311.595 167.904 311.992 167.675L312.684 167.275H319.365V174.075H319.364Z" fill="#263238"></path><path d="M311.989 167.674L333.477 155.268C333.874 155.039 334.517 155.039 334.914 155.268L341.569 159.109C341.965 159.338 341.965 159.71 341.569 159.939L320.081 172.345C319.684 172.574 319.04 172.574 318.643 172.345L311.989 168.504C311.592 168.275 311.592 167.904 311.989 167.674Z" fill="#455A64"></path><path d="M331.631 160.992L332.308 160.601C332.337 160.584 332.335 160.557 332.304 160.539L331.521 160.087C331.49 160.069 331.442 160.068 331.414 160.085L330.737 160.475C330.708 160.492 330.71 160.52 330.741 160.537L331.523 160.989C331.554 161.007 331.602 161.008 331.631 160.992ZM330.296 159.44L329.62 159.831C329.591 159.848 329.593 159.875 329.624 159.893L330.406 160.345C330.437 160.363 330.486 160.364 330.514 160.347L331.19 159.957C331.219 159.94 331.217 159.912 331.186 159.895L330.404 159.443C330.373 159.425 330.325 159.423 330.296 159.44ZM328.11 160.702L326.965 161.362C326.936 161.379 326.938 161.407 326.969 161.424L327.751 161.876C327.782 161.894 327.831 161.895 327.859 161.878L329.004 161.218C329.033 161.201 329.031 161.173 329 161.155L328.218 160.703C328.187 160.686 328.139 160.685 328.11 160.702ZM329.307 160.011L328.63 160.401C328.602 160.418 328.604 160.446 328.635 160.463L329.417 160.915C329.448 160.933 329.496 160.934 329.524 160.917L330.201 160.527C330.23 160.51 330.228 160.482 330.197 160.465L329.415 160.013C329.384 159.995 329.336 159.994 329.307 160.011ZM326.653 161.543L325.977 161.934C325.948 161.95 325.95 161.978 325.981 161.996L326.763 162.448C326.794 162.465 326.841 162.466 326.87 162.45L327.547 162.059C327.576 162.042 327.574 162.014 327.543 161.997L326.761 161.545C326.73 161.527 326.682 161.527 326.653 161.543ZM325.664 162.114L324.988 162.505C324.959 162.522 324.961 162.549 324.992 162.567L325.774 163.019C325.805 163.036 325.853 163.038 325.882 163.021L326.558 162.63C326.587 162.613 326.585 162.586 326.554 162.568L325.772 162.116C325.741 162.099 325.693 162.097 325.664 162.114ZM328.742 163.951L329.418 163.56C329.447 163.543 329.445 163.516 329.414 163.498L328.632 163.046C328.601 163.029 328.552 163.028 328.524 163.044L327.848 163.435C327.819 163.452 327.821 163.479 327.852 163.498L328.634 163.95C328.664 163.966 328.713 163.967 328.742 163.951ZM327.753 164.522L328.429 164.131C328.458 164.114 328.456 164.086 328.425 164.068L327.643 163.616C327.612 163.599 327.564 163.597 327.535 163.614L326.859 164.005C326.83 164.022 326.832 164.049 326.863 164.067L327.645 164.519C327.675 164.537 327.724 164.538 327.753 164.522ZM326.764 165.093L327.44 164.702C327.469 164.685 327.467 164.658 327.436 164.64L326.654 164.188C326.623 164.171 326.575 164.169 326.546 164.186L325.87 164.577C325.841 164.594 325.843 164.621 325.874 164.639L326.656 165.091C326.687 165.108 326.735 165.109 326.764 165.093ZM325.775 165.663L326.452 165.273C326.481 165.256 326.479 165.228 326.448 165.211L325.666 164.759C325.635 164.741 325.587 164.74 325.558 164.757L324.882 165.147C324.853 165.164 324.855 165.192 324.886 165.209L325.668 165.661C325.698 165.679 325.746 165.68 325.775 165.663ZM330.642 161.562L331.319 161.172C331.348 161.155 331.346 161.127 331.315 161.11L330.533 160.658C330.502 160.64 330.454 160.639 330.425 160.656L329.748 161.047C329.719 161.063 329.721 161.091 329.752 161.109L330.534 161.561C330.565 161.579 330.614 161.579 330.642 161.562ZM329.73 163.38L331.24 162.508C331.269 162.491 331.267 162.464 331.236 162.446L329.336 161.349C329.305 161.331 329.257 161.33 329.229 161.347L328.448 161.798C328.419 161.814 328.421 161.842 328.452 161.86L329.458 162.441C329.489 162.458 329.49 162.487 329.462 162.503L328.837 162.864C328.808 162.881 328.81 162.908 328.841 162.926L329.623 163.378C329.653 163.395 329.701 163.397 329.73 163.38ZM324.675 162.685L323.998 163.075C323.969 163.092 323.971 163.12 324.002 163.137L324.784 163.589C324.815 163.607 324.863 163.608 324.892 163.591L325.568 163.201C325.597 163.184 325.595 163.156 325.564 163.139L324.782 162.687C324.753 162.669 324.704 162.669 324.675 162.685ZM323.686 163.256L323.01 163.647C322.981 163.663 322.983 163.691 323.014 163.709L323.796 164.161C323.827 164.179 323.875 164.18 323.904 164.163L324.58 163.773C324.609 163.756 324.607 163.728 324.576 163.711L323.794 163.259C323.764 163.24 323.715 163.239 323.686 163.256ZM318.746 169.658C318.777 169.675 318.825 169.676 318.853 169.66L319.53 169.269C319.559 169.252 319.557 169.224 319.526 169.206L318.744 168.754C318.713 168.737 318.664 168.735 318.636 168.752L317.96 169.143C317.931 169.16 317.933 169.187 317.964 169.206L318.746 169.658ZM315.776 167.823L315.1 168.213C315.071 168.23 315.073 168.258 315.104 168.275L315.886 168.727C315.917 168.745 315.965 168.746 315.993 168.729L316.67 168.339C316.699 168.322 316.697 168.294 316.666 168.277L315.884 167.825C315.853 167.807 315.805 167.807 315.776 167.823ZM317.368 169.162C317.399 169.181 317.446 169.181 317.475 169.165L318.152 168.774C318.181 168.757 318.179 168.729 318.148 168.712L317.366 168.26C317.335 168.242 317.287 168.241 317.258 168.258L316.582 168.649C316.553 168.665 316.555 168.693 316.586 168.711L317.368 169.162ZM320.492 170.004L321.168 169.614C321.197 169.597 321.195 169.569 321.164 169.552L320.382 169.1C320.351 169.082 320.303 169.081 320.274 169.098L319.598 169.488C319.569 169.505 319.571 169.533 319.602 169.551L320.384 170.002C320.414 170.02 320.463 170.021 320.492 170.004ZM319.394 170.573C319.425 170.591 319.473 170.592 319.502 170.575L320.179 170.184C320.208 170.167 320.206 170.14 320.175 170.122L319.393 169.67C319.362 169.653 319.314 169.651 319.285 169.668L318.609 170.059C318.58 170.076 318.582 170.103 318.613 170.121L319.394 170.573ZM316.765 167.252L316.088 167.643C316.059 167.66 316.061 167.687 316.092 167.705L316.875 168.157C316.905 168.174 316.953 168.176 316.982 168.159L317.659 167.768C317.688 167.751 317.685 167.724 317.655 167.706L316.872 167.254C316.842 167.237 316.794 167.235 316.765 167.252ZM321.709 164.398L321.033 164.788C321.004 164.805 321.006 164.833 321.037 164.85L321.819 165.302C321.85 165.32 321.898 165.321 321.926 165.304L322.603 164.914C322.632 164.897 322.63 164.869 322.599 164.852L321.817 164.4C321.786 164.382 321.738 164.381 321.709 164.398ZM317.754 166.681L317.077 167.072C317.048 167.089 317.05 167.116 317.081 167.134L317.863 167.586C317.894 167.603 317.942 167.604 317.971 167.588L318.647 167.197C318.676 167.18 318.674 167.153 318.643 167.135L317.861 166.683C317.831 166.666 317.782 166.665 317.754 166.681ZM322.698 163.827L322.021 164.218C321.992 164.235 321.994 164.262 322.025 164.28L322.807 164.732C322.838 164.749 322.887 164.751 322.915 164.734L323.591 164.343C323.62 164.326 323.618 164.299 323.587 164.281L322.805 163.829C322.775 163.811 322.727 163.81 322.698 163.827ZM320.72 164.969L320.044 165.359C320.015 165.376 320.017 165.404 320.048 165.422L320.83 165.873C320.861 165.891 320.909 165.892 320.938 165.875L321.614 165.485C321.643 165.468 321.641 165.44 321.61 165.423L320.828 164.971C320.797 164.953 320.749 164.952 320.72 164.969ZM319.731 165.539L319.055 165.93C319.026 165.947 319.028 165.974 319.059 165.992L319.841 166.444C319.872 166.461 319.92 166.463 319.949 166.446L320.626 166.055C320.655 166.038 320.653 166.011 320.622 165.993L319.84 165.541C319.809 165.524 319.76 165.523 319.731 165.539ZM318.742 166.111L318.066 166.501C318.037 166.518 318.039 166.546 318.07 166.563L318.852 167.015C318.883 167.033 318.931 167.034 318.96 167.017L319.636 166.626C319.665 166.61 319.663 166.582 319.632 166.564L318.85 166.112C318.82 166.095 318.771 166.094 318.742 166.111ZM323.798 166.806L324.474 166.415C324.503 166.398 324.501 166.37 324.47 166.353L323.688 165.901C323.657 165.884 323.609 165.882 323.58 165.899L322.904 166.29C322.875 166.307 322.877 166.334 322.908 166.352L323.69 166.804C323.72 166.821 323.769 166.822 323.798 166.806ZM332.482 158.178L331.806 158.568C331.777 158.585 331.779 158.613 331.81 158.63L332.592 159.082C332.623 159.1 332.671 159.101 332.7 159.084L333.376 158.694C333.405 158.677 333.403 158.649 333.372 158.632L332.59 158.18C332.559 158.162 332.511 158.162 332.482 158.178ZM331.285 158.869L330.609 159.26C330.58 159.276 330.582 159.304 330.613 159.321L331.395 159.773C331.426 159.791 331.474 159.792 331.503 159.775L332.179 159.385C332.208 159.368 332.206 159.34 332.175 159.322L331.393 158.87C331.362 158.853 331.313 158.853 331.285 158.869ZM333.471 157.607L332.795 157.998C332.766 158.015 332.768 158.042 332.799 158.06L333.581 158.512C333.612 158.529 333.66 158.531 333.688 158.514L334.365 158.123C334.394 158.106 334.392 158.079 334.361 158.061L333.579 157.609C333.548 157.592 333.499 157.59 333.471 157.607ZM328.352 162.885L329.029 162.494C329.058 162.477 329.056 162.45 329.025 162.431L328.242 161.979C328.212 161.962 328.163 161.961 328.135 161.977L327.458 162.368C327.429 162.385 327.432 162.413 327.462 162.43L328.245 162.882C328.276 162.9 328.324 162.902 328.352 162.885ZM334.567 157.038C334.536 157.021 334.488 157.019 334.46 157.036L333.783 157.427C333.754 157.444 333.756 157.471 333.787 157.489L334.569 157.941C334.6 157.958 334.648 157.96 334.677 157.943L335.353 157.552C335.382 157.535 335.38 157.508 335.349 157.49L334.567 157.038ZM324.786 166.234L325.463 165.844C325.492 165.827 325.49 165.799 325.459 165.782L324.677 165.33C324.646 165.312 324.598 165.311 324.569 165.328L323.893 165.718C323.864 165.735 323.866 165.763 323.897 165.78L324.679 166.232C324.709 166.25 324.757 166.251 324.786 166.234ZM336.912 159.233L337.588 158.843C337.617 158.826 337.615 158.798 337.584 158.78L336.802 158.328C336.771 158.31 336.724 158.309 336.695 158.326L336.018 158.717C335.989 158.733 335.991 158.761 336.022 158.779L336.804 159.231C336.835 159.249 336.883 159.25 336.912 159.233ZM334.806 159.159L335.482 158.768C335.511 158.752 335.509 158.724 335.478 158.707L334.696 158.255C334.665 158.237 334.617 158.236 334.588 158.253L333.912 158.643C333.883 158.66 333.885 158.688 333.916 158.705L334.698 159.157C334.728 159.175 334.777 159.176 334.806 159.159ZM335.685 157.683C335.654 157.666 335.606 157.664 335.577 157.681L334.901 158.072C334.872 158.089 334.874 158.116 334.905 158.134L335.687 158.586C335.718 158.604 335.766 158.605 335.795 158.588L336.471 158.197C336.5 158.18 336.498 158.153 336.467 158.135L335.685 157.683ZM335.893 157.563L337.793 158.661C337.823 158.678 337.871 158.68 337.9 158.663L338.577 158.272C338.606 158.255 338.603 158.228 338.573 158.209L336.672 157.112C336.641 157.095 336.593 157.093 336.565 157.11L335.888 157.501C335.861 157.518 335.862 157.545 335.893 157.563ZM333.599 158.823L332.923 159.214C332.894 159.231 332.896 159.258 332.927 159.276L333.71 159.728C333.741 159.746 333.789 159.747 333.818 159.73L334.494 159.339C334.523 159.322 334.521 159.295 334.49 159.277L333.708 158.825C333.676 158.808 333.628 158.807 333.599 158.823ZM326.157 163.12L325.481 163.51C325.452 163.527 325.454 163.555 325.485 163.572L326.267 164.024C326.298 164.042 326.346 164.043 326.375 164.026L327.052 163.636C327.081 163.619 327.079 163.591 327.048 163.573L326.266 163.121C326.235 163.104 326.186 163.103 326.157 163.12ZM335.816 159.802C335.847 159.82 335.894 159.821 335.923 159.804L336.6 159.414C336.629 159.397 336.627 159.369 336.596 159.352L335.814 158.9C335.783 158.882 335.735 158.881 335.706 158.898L335.03 159.288C335.001 159.305 335.003 159.333 335.034 159.35L335.816 159.802ZM327.146 162.549L326.47 162.94C326.441 162.957 326.443 162.984 326.474 163.003L327.256 163.455C327.287 163.473 327.335 163.473 327.363 163.457L328.04 163.066C328.069 163.049 328.067 163.021 328.036 163.004L327.254 162.552C327.223 162.533 327.175 162.532 327.146 162.549ZM319.734 169.086C319.765 169.105 319.813 169.105 319.842 169.088L320.518 168.698C320.547 168.681 320.545 168.653 320.514 168.635L319.732 168.183C319.701 168.166 319.653 168.164 319.624 168.181L318.948 168.572C318.919 168.589 318.921 168.616 318.952 168.634L319.734 169.086ZM318.247 167.687L317.57 168.077C317.541 168.094 317.543 168.122 317.574 168.139L318.356 168.591C318.387 168.609 318.436 168.61 318.464 168.593L319.14 168.203C319.169 168.186 319.167 168.158 319.136 168.14L318.354 167.688C318.324 167.671 318.276 167.671 318.247 167.687ZM320.831 168.518L321.507 168.127C321.536 168.11 321.534 168.083 321.503 168.065L320.721 167.613C320.69 167.595 320.642 167.594 320.614 167.611L319.937 168.002C319.908 168.019 319.91 168.046 319.941 168.064L320.723 168.516C320.754 168.533 320.802 168.535 320.831 168.518ZM321.82 167.947L322.496 167.557C322.525 167.54 322.523 167.512 322.492 167.495L321.71 167.043C321.679 167.025 321.631 167.024 321.602 167.041L320.925 167.431C320.896 167.448 320.898 167.476 320.929 167.493L321.711 167.945C321.742 167.963 321.791 167.964 321.82 167.947ZM322.809 167.376L323.485 166.985C323.514 166.969 323.512 166.941 323.481 166.923L322.699 166.471C322.668 166.453 322.619 166.452 322.591 166.469L321.915 166.86C321.886 166.876 321.888 166.904 321.919 166.921L322.701 167.373C322.731 167.392 322.78 167.393 322.809 167.376ZM319.235 167.116L318.559 167.507C318.53 167.524 318.532 167.551 318.563 167.569L319.345 168.021C319.376 168.039 319.425 168.04 319.453 168.023L320.129 167.633C320.158 167.616 320.156 167.588 320.125 167.571L319.343 167.119C319.313 167.101 319.264 167.099 319.235 167.116ZM320.224 166.545L319.548 166.936C319.519 166.952 319.521 166.98 319.552 166.998L320.334 167.45C320.365 167.468 320.413 167.468 320.442 167.452L321.118 167.061C321.147 167.044 321.145 167.016 321.114 166.999L320.332 166.547C320.302 166.529 320.253 166.529 320.224 166.545ZM324.179 164.262L323.503 164.652C323.474 164.669 323.476 164.697 323.507 164.715L324.289 165.166C324.32 165.184 324.368 165.185 324.397 165.168L325.073 164.777C325.102 164.761 325.1 164.733 325.069 164.715L324.287 164.263C324.257 164.246 324.208 164.245 324.179 164.262ZM323.191 164.833L322.514 165.223C322.485 165.24 322.487 165.268 322.518 165.285L323.3 165.737C323.331 165.756 323.38 165.756 323.408 165.739L324.084 165.349C324.113 165.332 324.111 165.304 324.08 165.286L323.298 164.834C323.268 164.817 323.22 164.816 323.191 164.833ZM325.168 163.691L324.492 164.082C324.463 164.099 324.465 164.126 324.496 164.144L325.278 164.596C325.309 164.614 325.358 164.614 325.386 164.598L326.062 164.207C326.091 164.19 326.089 164.163 326.058 164.145L325.276 163.693C325.246 163.676 325.197 163.674 325.168 163.691ZM321.213 165.974L320.536 166.365C320.507 166.382 320.509 166.41 320.54 166.427L321.322 166.879C321.353 166.897 321.402 166.898 321.43 166.881L322.106 166.49C322.135 166.474 322.133 166.446 322.102 166.428L321.32 165.976C321.29 165.959 321.242 165.958 321.213 165.974ZM322.202 165.403L321.526 165.794C321.497 165.811 321.499 165.838 321.53 165.856L322.312 166.308C322.343 166.325 322.391 166.327 322.419 166.31L323.096 165.919C323.125 165.902 323.123 165.875 323.092 165.857L322.31 165.405C322.279 165.388 322.231 165.387 322.202 165.403ZM321.48 169.433L322.157 169.043C322.186 169.026 322.184 168.998 322.153 168.981L321.371 168.529C321.34 168.511 321.291 168.51 321.263 168.527L320.587 168.917C320.558 168.934 320.56 168.962 320.591 168.98L321.373 169.432C321.403 169.449 321.451 169.45 321.48 169.433ZM315.678 168.848L314.896 168.396C314.865 168.378 314.816 168.377 314.788 168.394L314.111 168.785C314.083 168.801 314.085 168.829 314.116 168.847L314.898 169.299C314.929 169.317 314.977 169.317 315.005 169.301L315.682 168.91C315.71 168.894 315.709 168.865 315.678 168.848ZM317.159 169.282L316.377 168.831C316.346 168.813 316.298 168.812 316.27 168.829L315.229 169.43C315.2 169.447 315.202 169.474 315.233 169.492L316.015 169.944C316.046 169.961 316.094 169.963 316.123 169.946L317.163 169.345C317.192 169.328 317.19 169.301 317.159 169.282ZM314.477 167.974L313.695 167.523C313.664 167.505 313.616 167.504 313.587 167.521L312.755 168.002C312.726 168.019 312.728 168.046 312.759 168.064L313.541 168.516C313.572 168.533 313.62 168.535 313.649 168.518L314.481 168.037C314.51 168.02 314.508 167.992 314.477 167.974ZM315.116 167.606C315.147 167.623 315.195 167.625 315.224 167.608L315.9 167.217C315.929 167.2 315.927 167.173 315.896 167.155L315.114 166.703C315.083 166.685 315.034 166.684 315.006 166.701L314.33 167.092C314.301 167.109 314.303 167.136 314.334 167.155L315.116 167.606ZM318.537 169.777L317.755 169.325C317.724 169.308 317.675 169.307 317.647 169.323L316.346 170.075C316.317 170.091 316.319 170.119 316.35 170.136L317.132 170.588C317.163 170.606 317.211 170.607 317.24 170.59L318.541 169.839C318.57 169.823 318.568 169.796 318.537 169.777ZM319.186 170.694L318.404 170.242C318.373 170.224 318.325 170.223 318.296 170.24L317.464 170.72C317.435 170.737 317.437 170.765 317.468 170.782L318.25 171.234C318.281 171.252 318.329 171.253 318.358 171.236L319.19 170.756C319.219 170.739 319.217 170.711 319.186 170.694ZM322.468 163.362C322.499 163.379 322.547 163.38 322.576 163.364L323.252 162.973C323.281 162.956 323.279 162.929 323.248 162.911L322.466 162.459C322.435 162.442 322.386 162.44 322.358 162.457L321.682 162.848C321.653 162.865 321.655 162.892 321.686 162.91L322.468 163.362ZM320.49 164.503C320.521 164.521 320.569 164.522 320.598 164.505L321.275 164.115C321.304 164.098 321.302 164.07 321.271 164.053L320.489 163.601C320.458 163.583 320.41 163.582 320.381 163.599L319.705 163.989C319.676 164.006 319.678 164.034 319.709 164.052L320.49 164.503ZM316.105 167.035C316.136 167.053 316.184 167.054 316.212 167.037L316.889 166.647C316.918 166.63 316.916 166.602 316.885 166.585L316.103 166.133C316.072 166.115 316.023 166.114 315.995 166.131L315.319 166.521C315.29 166.538 315.292 166.566 315.323 166.583L316.105 167.035ZM321.478 163.932C321.509 163.95 321.558 163.951 321.586 163.934L322.262 163.543C322.291 163.527 322.289 163.499 322.258 163.482L321.476 163.03C321.445 163.012 321.398 163.011 321.369 163.028L320.692 163.418C320.663 163.435 320.665 163.463 320.696 163.481L321.478 163.932ZM319.501 165.074C319.532 165.091 319.58 165.093 319.609 165.076L320.286 164.685C320.314 164.668 320.312 164.641 320.281 164.623L319.499 164.171C319.468 164.153 319.42 164.152 319.392 164.169L318.715 164.559C318.686 164.576 318.688 164.604 318.719 164.622L319.501 165.074ZM319.73 170.767C319.699 170.749 319.65 170.748 319.622 170.765L318.581 171.366C318.552 171.383 318.554 171.41 318.585 171.428L319.367 171.88C319.398 171.897 319.447 171.899 319.475 171.882L320.516 171.281C320.545 171.264 320.543 171.236 320.512 171.219L319.73 170.767ZM318.082 165.894C318.113 165.911 318.161 165.912 318.19 165.896L318.866 165.505C318.895 165.488 318.893 165.46 318.862 165.443L318.08 164.991C318.049 164.973 318.001 164.972 317.972 164.989L317.296 165.38C317.267 165.396 317.269 165.424 317.3 165.442L318.082 165.894ZM317.093 166.464C317.124 166.482 317.173 166.483 317.201 166.466L317.877 166.075C317.906 166.059 317.904 166.031 317.873 166.014L317.091 165.562C317.06 165.543 317.012 165.543 316.984 165.559L316.307 165.95C316.278 165.967 316.28 165.995 316.311 166.012L317.093 166.464ZM338.049 160.19C338.018 160.173 337.97 160.172 337.941 160.188L336.276 161.15C336.247 161.166 336.249 161.194 336.28 161.212L337.063 161.664C337.094 161.681 337.142 161.682 337.171 161.666L338.836 160.704C338.865 160.688 338.863 160.66 338.832 160.642L338.049 160.19ZM335.863 161.452C335.832 161.435 335.784 161.433 335.756 161.45L335.079 161.841C335.05 161.858 335.052 161.885 335.083 161.903L335.865 162.355C335.896 162.373 335.945 162.374 335.973 162.357L336.649 161.967C336.678 161.95 336.676 161.922 336.645 161.904L335.863 161.452ZM322.469 168.863L323.146 168.472C323.174 168.455 323.172 168.428 323.141 168.409L322.359 167.957C322.328 167.94 322.28 167.939 322.252 167.955L321.575 168.346C321.546 168.363 321.548 168.391 321.579 168.408L322.361 168.86C322.392 168.878 322.44 168.88 322.469 168.863ZM333.886 162.594C333.855 162.576 333.806 162.575 333.778 162.592L333.102 162.982C333.073 162.999 333.075 163.027 333.106 163.045L333.888 163.497C333.919 163.515 333.967 163.516 333.996 163.499L334.672 163.108C334.701 163.092 334.699 163.064 334.668 163.046L333.886 162.594ZM339.038 159.619C339.007 159.601 338.959 159.6 338.93 159.617L338.254 160.008C338.225 160.025 338.227 160.052 338.258 160.07L339.04 160.522C339.071 160.539 339.119 160.541 339.148 160.524L339.824 160.133C339.853 160.116 339.851 160.089 339.82 160.071L339.038 159.619ZM340.809 159.5L338.909 158.403C338.878 158.385 338.83 158.384 338.801 158.401L338.125 158.791C338.096 158.808 338.098 158.836 338.129 158.853L340.029 159.951C340.06 159.968 340.108 159.969 340.137 159.953L340.813 159.562C340.842 159.546 340.84 159.518 340.809 159.5ZM330.19 164.727C330.159 164.709 330.111 164.708 330.083 164.725L329.25 165.206C329.221 165.223 329.223 165.25 329.254 165.269L330.036 165.72C330.067 165.738 330.115 165.739 330.144 165.723L330.977 165.242C331.006 165.225 331.003 165.197 330.973 165.18L330.19 164.727ZM332.689 163.285C332.658 163.267 332.609 163.266 332.581 163.283L331.54 163.884C331.511 163.9 331.513 163.928 331.544 163.946L332.326 164.398C332.357 164.415 332.405 164.416 332.434 164.4L333.475 163.799C333.504 163.782 333.502 163.754 333.471 163.737L332.689 163.285ZM327.901 166.049C327.87 166.032 327.822 166.03 327.793 166.047L322.225 169.262C322.196 169.279 322.198 169.307 322.229 169.324L323.011 169.776C323.042 169.794 323.09 169.795 323.119 169.778L328.687 166.563C328.716 166.546 328.714 166.519 328.683 166.5L327.901 166.049ZM322.02 169.445C321.989 169.427 321.94 169.426 321.912 169.443L321.08 169.924C321.051 169.94 321.053 169.968 321.084 169.986L321.866 170.438C321.897 170.455 321.945 170.456 321.973 170.44L322.806 169.959C322.835 169.942 322.833 169.914 322.802 169.897L322.02 169.445ZM329.045 165.388C329.014 165.371 328.966 165.37 328.938 165.386L328.105 165.867C328.076 165.884 328.078 165.912 328.109 165.929L328.891 166.381C328.922 166.399 328.971 166.4 328.999 166.383L329.831 165.902C329.86 165.886 329.858 165.858 329.827 165.84L329.045 165.388ZM320.875 170.106C320.844 170.088 320.796 170.087 320.767 170.103L319.935 170.584C319.906 170.601 319.908 170.629 319.939 170.647L320.721 171.099C320.752 171.117 320.799 171.118 320.828 171.101L321.661 170.62C321.69 170.603 321.688 170.576 321.657 170.557L320.875 170.106ZM331.336 164.066C331.305 164.049 331.257 164.047 331.228 164.064L330.395 164.545C330.366 164.562 330.368 164.59 330.399 164.607L331.181 165.059C331.212 165.077 331.261 165.078 331.289 165.061L332.122 164.58C332.151 164.563 332.149 164.536 332.118 164.518L331.336 164.066ZM334.875 162.023C334.844 162.006 334.795 162.004 334.767 162.021L334.091 162.412C334.062 162.429 334.064 162.456 334.095 162.474L334.877 162.926C334.908 162.943 334.955 162.945 334.984 162.928L335.661 162.537C335.69 162.52 335.688 162.493 335.657 162.475L334.875 162.023ZM337.041 160.45L337.717 160.059C337.746 160.042 337.744 160.015 337.713 159.997L336.931 159.545C336.9 159.528 336.852 159.526 336.823 159.543L336.147 159.934C336.118 159.951 336.12 159.978 336.151 159.996L336.933 160.448C336.964 160.465 337.013 160.466 337.041 160.45ZM332.62 160.421L333.296 160.03C333.325 160.013 333.323 159.986 333.292 159.967L332.51 159.516C332.479 159.499 332.431 159.497 332.403 159.514L331.726 159.905C331.697 159.922 331.699 159.949 331.73 159.967L332.512 160.418C332.543 160.436 332.591 160.438 332.62 160.421ZM330.38 164.295L332.357 163.153C332.386 163.137 332.384 163.109 332.353 163.092L331.571 162.64C331.54 162.622 331.493 162.621 331.464 162.638L329.486 163.779C329.457 163.796 329.459 163.824 329.49 163.841L330.272 164.293C330.302 164.311 330.351 164.312 330.38 164.295ZM335.944 161.018C335.975 161.036 336.024 161.037 336.052 161.02L336.728 160.63C336.757 160.613 336.755 160.585 336.724 160.567L335.942 160.115C335.911 160.097 335.863 160.096 335.834 160.113L335.157 160.504C335.129 160.52 335.131 160.548 335.162 160.566L335.944 161.018ZM334.935 160.375L335.611 159.984C335.64 159.967 335.638 159.94 335.607 159.922L334.825 159.47C334.794 159.452 334.745 159.451 334.717 159.468L334.041 159.859C334.012 159.876 334.014 159.903 334.045 159.921L334.827 160.373C334.858 160.39 334.906 160.392 334.935 160.375ZM329.39 164.866L330.067 164.476C330.096 164.459 330.094 164.431 330.063 164.414L329.281 163.962C329.25 163.944 329.202 163.943 329.173 163.96L328.497 164.35C328.468 164.367 328.47 164.395 328.501 164.412L329.283 164.864C329.313 164.882 329.362 164.883 329.39 164.866ZM333.758 162.28C333.789 162.298 333.838 162.299 333.866 162.282L334.542 161.891C334.571 161.874 334.569 161.847 334.538 161.829L333.756 161.377C333.725 161.36 333.677 161.358 333.649 161.375L332.972 161.766C332.943 161.783 332.945 161.81 332.976 161.829L333.758 162.28ZM324.447 167.721L325.123 167.33C325.152 167.313 325.15 167.286 325.119 167.268L324.337 166.816C324.306 166.799 324.258 166.798 324.229 166.814L323.553 167.205C323.524 167.222 323.526 167.25 323.557 167.267L324.339 167.719C324.369 167.737 324.418 167.738 324.447 167.721ZM325.436 167.15L326.112 166.759C326.141 166.742 326.139 166.715 326.108 166.697L325.326 166.245C325.295 166.228 325.247 166.226 325.218 166.243L324.542 166.634C324.513 166.651 324.515 166.678 324.546 166.696L325.328 167.148C325.358 167.165 325.407 167.167 325.436 167.15ZM323.458 168.292L324.134 167.901C324.163 167.884 324.161 167.856 324.13 167.839L323.348 167.387C323.317 167.369 323.269 167.368 323.24 167.385L322.564 167.776C322.535 167.792 322.537 167.82 322.568 167.838L323.35 168.29C323.381 168.307 323.429 168.308 323.458 168.292ZM327.413 166.008L328.089 165.617C328.118 165.601 328.116 165.573 328.085 165.555L327.303 165.103C327.272 165.085 327.223 165.084 327.195 165.101L326.519 165.491C326.49 165.508 326.492 165.536 326.523 165.553L327.305 166.005C327.336 166.024 327.384 166.025 327.413 166.008ZM326.424 166.579L327.1 166.189C327.129 166.172 327.127 166.144 327.096 166.127L326.314 165.675C326.283 165.657 326.235 165.656 326.206 165.673L325.53 166.063C325.501 166.08 325.503 166.108 325.534 166.125L326.316 166.577C326.347 166.595 326.396 166.595 326.424 166.579ZM328.402 165.438L329.078 165.047C329.107 165.03 329.105 165.002 329.074 164.985L328.292 164.533C328.261 164.515 328.213 164.514 328.185 164.531L327.508 164.922C327.479 164.938 327.481 164.966 327.512 164.984L328.294 165.436C328.325 165.453 328.373 165.454 328.402 165.438ZM332.926 156.992C332.957 157.01 333.005 157.011 333.034 156.994L333.71 156.604C333.739 156.587 333.737 156.559 333.706 156.542L333.498 156.421C333.467 156.404 333.418 156.402 333.39 156.419L332.714 156.81C332.685 156.827 332.687 156.854 332.718 156.872L332.926 156.992ZM328.061 160.132C328.092 160.151 328.14 160.151 328.168 160.135L328.845 159.744C328.874 159.727 328.872 159.699 328.841 159.681L328.059 159.23C328.028 159.212 327.979 159.211 327.951 159.227L327.275 159.618C327.246 159.635 327.248 159.662 327.279 159.681L328.061 160.132ZM330.038 158.991C330.069 159.008 330.117 159.01 330.146 158.993L330.822 158.602C330.851 158.585 330.849 158.558 330.818 158.539L330.036 158.087C330.005 158.07 329.957 158.069 329.928 158.085L329.252 158.476C329.223 158.493 329.225 158.521 329.256 158.538L330.038 158.991ZM326.853 160.83C326.884 160.847 326.932 160.848 326.961 160.832L327.637 160.441C327.666 160.424 327.664 160.397 327.633 160.378L326.851 159.926C326.82 159.909 326.771 159.907 326.743 159.924L326.067 160.315C326.038 160.332 326.04 160.359 326.071 160.378L326.853 160.83ZM329.049 159.561C329.08 159.579 329.129 159.58 329.157 159.563L329.833 159.173C329.862 159.156 329.86 159.128 329.829 159.111L329.047 158.659C329.016 158.64 328.968 158.64 328.94 158.657L328.263 159.047C328.234 159.064 328.236 159.092 328.267 159.11L329.049 159.561ZM324.875 161.971C324.906 161.989 324.954 161.99 324.983 161.973L325.659 161.583C325.688 161.566 325.686 161.538 325.655 161.52L324.873 161.068C324.842 161.051 324.794 161.049 324.765 161.066L324.089 161.457C324.06 161.474 324.062 161.501 324.093 161.519L324.875 161.971ZM325.864 161.4C325.895 161.418 325.943 161.419 325.972 161.402L326.648 161.012C326.677 160.995 326.675 160.967 326.644 160.95L325.862 160.498C325.831 160.48 325.783 160.479 325.754 160.496L325.078 160.886C325.049 160.903 325.051 160.931 325.082 160.949L325.864 161.4ZM330.948 158.134C330.979 158.151 331.028 158.153 331.056 158.136L331.732 157.745C331.761 157.728 331.759 157.701 331.728 157.683L331.52 157.563C331.489 157.546 331.441 157.545 331.412 157.561L330.736 157.952C330.707 157.969 330.709 157.997 330.74 158.014L330.948 158.134ZM333.915 156.421C333.946 156.439 333.994 156.44 334.022 156.423L334.699 156.032C334.728 156.016 334.726 155.988 334.695 155.97L334.487 155.85C334.456 155.832 334.407 155.831 334.379 155.848L333.703 156.239C333.674 156.255 333.676 156.283 333.707 156.301L333.915 156.421ZM335.558 157.37C335.589 157.388 335.637 157.389 335.665 157.372L336.342 156.981C336.371 156.965 336.369 156.937 336.338 156.92L335.556 156.468C335.525 156.45 335.476 156.449 335.448 156.466L334.771 156.856C334.743 156.873 334.745 156.901 334.776 156.918L335.558 157.37ZM338.03 159.879L338.706 159.488C338.735 159.471 338.733 159.443 338.702 159.426L337.92 158.974C337.889 158.956 337.84 158.955 337.812 158.972L337.136 159.363C337.107 159.379 337.109 159.407 337.14 159.425L337.922 159.877C337.953 159.894 338.001 159.895 338.03 159.879ZM331.937 157.563C331.968 157.581 332.016 157.582 332.045 157.565L332.722 157.174C332.751 157.157 332.749 157.13 332.718 157.112L332.51 156.992C332.479 156.974 332.43 156.973 332.402 156.99L331.726 157.38C331.697 157.397 331.699 157.425 331.73 157.442L331.937 157.563ZM323.886 162.542C323.917 162.56 323.966 162.561 323.994 162.544L324.671 162.153C324.699 162.136 324.697 162.109 324.666 162.091L323.884 161.639C323.853 161.621 323.805 161.62 323.777 161.637L323.1 162.027C323.071 162.044 323.073 162.072 323.104 162.089L323.886 162.542Z" fill="#388BDD"></path><path d="M323.403 156.412L315.319 161.081L315.278 161.06L312.227 159.295C311.702 158.992 311.365 158.258 311.479 157.665L312.624 151.738L319.36 146.289L320.707 147.07L319.569 152.997C319.455 153.59 319.785 154.324 320.31 154.627L323.403 156.412Z" fill="#455A64"></path><path d="M315.32 161.081V162.636L311.097 160.198C310.302 159.747 309.797 158.635 309.972 157.739L311.272 150.963L312.626 151.738L311.481 157.665C311.366 158.258 311.703 158.992 312.229 159.295L315.28 161.06L315.32 161.081Z" fill="#263238"></path><path d="M323.405 156.412L315.32 161.081L315.321 162.639L323.406 157.968L323.405 156.412Z" fill="#37474F"></path><path d="M330.828 117.092C331.201 117.307 331.502 117.854 331.502 118.312V143.124C331.502 143.582 331.18 144.139 330.784 144.368L299.856 162.224C299.46 162.453 298.836 162.465 298.463 162.25C298.091 162.035 297.789 161.489 297.789 161.031V136.219C297.789 135.761 298.111 135.203 298.508 134.974L329.435 117.118C329.832 116.889 330.456 116.878 330.828 117.092Z" fill="#455A64"></path><path d="M299.856 162.224C299.46 162.453 298.836 162.465 298.463 162.25C298.091 162.035 297.789 161.489 297.789 161.031V136.219C297.789 135.99 297.87 135.736 298 135.51L322.063 149.403L299.856 162.224Z" fill="#263238"></path><path d="M331.505 143.124V118.312C331.505 117.853 331.183 117.668 330.787 117.897L299.859 135.753C299.463 135.982 299.141 136.539 299.141 136.997V161.809C299.141 162.268 299.463 162.453 299.859 162.224L330.787 144.368C331.184 144.139 331.505 143.582 331.505 143.124Z" fill="#37474F"></path><path d="M329.742 119.283L300.388 136.225C300.07 136.409 299.812 136.855 299.812 137.222V159.251C299.812 159.618 300.07 159.766 300.388 159.583L329.743 142.641C330.06 142.457 330.318 142.012 330.318 141.644V119.615C330.318 119.248 330.06 119.099 329.742 119.283Z" fill="white"></path><path d="M288.696 199.648L271.287 189.604C270.804 189.325 270.412 188.647 270.412 188.088L270.41 177.471C270.41 176.913 270.802 176.234 271.285 175.955L283.218 169.068C283.701 168.789 284.485 168.789 284.968 169.068L302.367 179.113C302.85 179.392 303.242 180.07 303.243 180.628L303.249 191.245C303.249 191.803 302.858 192.482 302.375 192.761L290.448 199.648C289.963 199.927 289.18 199.927 288.696 199.648Z" fill="#263238"></path><path d="M290.441 187.012L302.366 180.124C302.849 179.845 302.849 179.392 302.366 179.114L284.967 169.069C284.484 168.79 283.7 168.79 283.217 169.069L271.284 175.956C270.801 176.235 270.801 176.687 271.284 176.966L288.691 187.013C289.175 187.292 289.958 187.291 290.441 187.012Z" fill="#455A64"></path><path d="M289.57 187.222V199.858C289.253 199.858 288.936 199.784 288.694 199.65L271.289 189.607C270.804 189.324 270.413 188.65 270.413 188.091L270.406 177.469C270.406 177.003 270.695 176.459 271.071 176.126C270.825 176.398 270.892 176.739 271.282 176.963L288.694 187.013C288.936 187.148 289.246 187.222 289.57 187.222Z" fill="#37474F"></path><path d="M275.647 176.597C275.96 176.413 276.474 176.415 276.796 176.601L289.311 183.825C289.633 184.011 289.641 184.312 289.328 184.496C289.016 184.679 288.501 184.678 288.179 184.492L275.665 177.267C275.343 177.081 275.335 176.782 275.647 176.597Z" fill="#37474F"></path><path d="M275.647 176.597C275.96 176.413 276.474 176.415 276.796 176.601L284.415 181L283.283 181.667L275.665 177.267C275.343 177.081 275.335 176.782 275.647 176.597Z" fill="#388BDD"></path><path d="M277.819 175.344C278.132 175.16 278.646 175.162 278.968 175.348L291.483 182.572C291.805 182.758 291.813 183.058 291.5 183.243C291.188 183.427 290.673 183.425 290.351 183.239L277.837 176.014C277.515 175.829 277.507 175.528 277.819 175.344Z" fill="#37474F"></path><path d="M277.819 175.344C278.132 175.16 278.646 175.162 278.969 175.347L279.99 175.934L278.858 176.601L277.837 176.014C277.515 175.828 277.507 175.528 277.819 175.344Z" fill="#388BDD"></path><path d="M279.987 174.091C280.3 173.907 280.814 173.908 281.136 174.094L293.651 181.319C293.973 181.505 293.981 181.805 293.668 181.989C293.356 182.173 292.841 182.172 292.519 181.986L280.005 174.761C279.683 174.575 279.674 174.275 279.987 174.091Z" fill="#37474F"></path><path d="M279.987 174.091C280.3 173.907 280.814 173.908 281.136 174.094L285.561 176.649L284.429 177.316L280.005 174.761C279.683 174.575 279.675 174.275 279.987 174.091Z" fill="#388BDD"></path><path d="M282.163 172.838C282.475 172.654 282.99 172.655 283.312 172.841L295.826 180.066C296.148 180.252 296.156 180.552 295.844 180.736C295.531 180.92 295.016 180.919 294.694 180.733L282.181 173.508C281.858 173.322 281.851 173.022 282.163 172.838Z" fill="#37474F"></path><path d="M282.163 172.838C282.475 172.654 282.99 172.655 283.312 172.841L292.274 178.015L291.142 178.682L282.18 173.508C281.858 173.322 281.851 173.022 282.163 172.838Z" fill="#388BDD"></path><path d="M284.335 171.584C284.647 171.4 285.162 171.402 285.484 171.588L297.998 178.812C298.32 178.998 298.328 179.298 298.016 179.483C297.703 179.667 297.189 179.665 296.867 179.479L284.353 172.254C284.03 172.069 284.022 171.769 284.335 171.584Z" fill="#37474F"></path><path d="M284.335 171.584C284.647 171.4 285.162 171.402 285.484 171.588L296.756 178.092L295.623 178.759L284.352 172.254C284.03 172.069 284.022 171.769 284.335 171.584Z" fill="#388BDD"></path><path d="M290.934 196.194V194.042C290.934 193.485 291.24 192.856 291.618 192.637C291.996 192.419 292.302 192.695 292.302 193.253V195.404C292.302 195.962 291.996 196.592 291.618 196.809C291.24 197.027 290.934 196.752 290.934 196.194Z" fill="#37474F"></path><path d="M291.649 192.961C291.398 193.105 291.195 193.456 291.195 193.746C291.195 194.035 291.398 194.152 291.649 194.008C291.899 193.864 292.102 193.512 292.102 193.223C292.102 192.934 291.899 192.816 291.649 192.961Z" fill="#388BDD"></path><path d="M293.094 194.954V192.803C293.094 192.245 293.4 191.616 293.778 191.398C294.156 191.18 294.462 191.455 294.462 192.013V194.165C294.462 194.723 294.156 195.352 293.778 195.57C293.4 195.788 293.094 195.513 293.094 194.954Z" fill="#37474F"></path><path d="M293.778 194.199C293.527 194.344 293.324 194.695 293.324 194.985C293.324 195.273 293.527 195.391 293.778 195.246C294.028 195.101 294.231 194.749 294.231 194.46C294.232 194.172 294.028 194.055 293.778 194.199Z" fill="#388BDD"></path><path d="M333.417 221.53C333.673 221.87 333.72 222.656 333.98 223.717C334.24 224.779 334.327 225.602 334.153 226.122C333.98 226.642 332.838 227.811 331.438 228.244C330.038 228.678 328.316 228.314 326.648 227.318C324.981 226.321 323.723 225.109 321.349 224.433C318.974 223.758 317.786 223.209 316.662 222.306C315.346 221.249 314.496 219.667 317.015 218.991C319.554 218.31 324.102 219.363 329.084 219.58L333.417 221.53Z" fill="#263238"></path><path d="M333.417 218.416V222.148C333.417 222.148 332.904 223.389 330.776 223.468C329.479 223.517 328.533 222.923 327.953 222.116V218.416H333.417Z" fill="#FFA8A7"></path><path d="M326.293 194.001C326.266 198.643 327.597 220.052 327.597 220.052C327.597 220.052 329.495 222.454 333.619 220.052L335.019 196.297L326.293 194.001Z" fill="#37474F"></path><path d="M322.214 228.828C322.47 229.168 322.517 229.953 322.777 231.015C323.037 232.076 323.124 232.899 322.95 233.419C322.777 233.939 321.635 235.109 320.235 235.542C318.835 235.975 317.112 235.611 315.445 234.615C313.778 233.619 312.52 232.406 310.146 231.731C307.771 231.055 306.583 230.507 305.459 229.604C304.143 228.547 303.293 226.964 305.812 226.288C308.351 225.607 312.899 226.661 317.881 226.877L322.214 228.828Z" fill="#263238"></path><path d="M322.213 225.713V229.445C322.213 229.445 321.701 230.685 319.573 230.765C318.276 230.813 317.33 230.219 316.75 229.413V225.713H322.213Z" fill="#FFA8A7"></path><path d="M315.09 201.298C315.063 205.941 316.394 227.348 316.394 227.348C316.394 227.348 318.292 229.751 322.416 227.348L323.816 203.593L315.09 201.298Z" fill="#37474F"></path><path d="M329.523 245.357C329.523 245.547 329.546 245.721 329.579 245.877C329.664 246.208 329.826 246.455 330.05 246.606L330.066 246.617C330.431 246.852 330.946 246.83 331.512 246.505C332.61 245.872 333.5 244.332 333.5 243.06C333.5 242.444 333.282 242.018 332.94 241.8L332.945 241.794L332.85 241.738H332.845C332.604 241.632 332.318 241.615 331.999 241.705C331.842 241.75 331.68 241.822 331.511 241.917C330.414 242.55 329.523 244.09 329.523 245.357Z" fill="#455A64"></path><path d="M330.067 241.082C330.38 240.903 330.683 240.813 330.952 240.813C331.159 240.813 331.349 240.869 331.512 240.97L331.563 240.999L332.846 241.738C332.605 241.632 332.319 241.615 332 241.705C331.843 241.75 331.68 241.823 331.512 241.917C330.414 242.551 329.524 244.091 329.524 245.357C329.524 245.547 329.546 245.721 329.58 245.877C329.664 246.208 329.826 246.455 330.05 246.606L328.734 245.844L328.711 245.832L328.599 245.765C328.588 245.76 328.577 245.753 328.566 245.742C328.263 245.518 328.078 245.092 328.078 244.521C328.078 243.256 328.969 241.715 330.067 241.082Z" fill="#263238"></path><path d="M351.039 233.788C351.039 233.979 351.061 234.153 351.095 234.309C351.179 234.64 351.341 234.886 351.566 235.037L351.583 235.048C351.947 235.284 352.462 235.261 353.028 234.937C354.126 234.303 355.017 232.763 355.017 231.491C355.017 230.875 354.798 230.449 354.457 230.231L354.462 230.226L354.367 230.17H354.362C354.121 230.063 353.835 230.046 353.516 230.136C353.359 230.181 353.197 230.254 353.028 230.349C351.93 230.982 351.039 232.523 351.039 233.788Z" fill="#455A64"></path><path d="M351.581 229.514C351.895 229.335 352.197 229.246 352.466 229.246C352.673 229.246 352.864 229.302 353.026 229.403L353.077 229.43L354.36 230.17C354.119 230.063 353.833 230.046 353.514 230.136C353.357 230.181 353.195 230.254 353.026 230.349C351.928 230.982 351.038 232.523 351.038 233.788C351.038 233.979 351.06 234.153 351.094 234.309C351.178 234.64 351.34 234.886 351.565 235.037L350.248 234.275L350.226 234.264L350.114 234.196C350.103 234.191 350.092 234.185 350.081 234.174C349.778 233.95 349.594 233.524 349.594 232.953C349.592 231.688 350.483 230.148 351.581 229.514Z" fill="#263238"></path><path d="M347.2 249.874C347.2 250.064 347.178 250.237 347.144 250.394C347.06 250.725 346.898 250.972 346.673 251.122L346.657 251.134C346.292 251.369 345.777 251.347 345.211 251.022C344.113 250.389 343.223 248.848 343.223 247.577C343.223 246.96 343.441 246.535 343.783 246.316L343.778 246.311L343.873 246.255H343.878C344.119 246.149 344.405 246.132 344.724 246.221C344.881 246.266 345.043 246.339 345.212 246.434C346.31 247.067 347.2 248.607 347.2 249.874Z" fill="#455A64"></path><path d="M346.658 245.599C346.344 245.42 346.042 245.33 345.773 245.33C345.566 245.33 345.376 245.386 345.213 245.487L345.162 245.516L343.879 246.255C344.12 246.149 344.406 246.132 344.725 246.221C344.882 246.266 345.044 246.339 345.213 246.434C346.311 247.067 347.201 248.608 347.201 249.874C347.201 250.065 347.179 250.238 347.145 250.395C347.061 250.726 346.899 250.972 346.674 251.123L347.99 250.361L348.013 250.351L348.124 250.283C348.136 250.278 348.147 250.272 348.158 250.261C348.461 250.037 348.646 249.611 348.646 249.04C348.646 247.773 347.756 246.232 346.658 245.599Z" fill="#263238"></path><path d="M361.168 243.033C361.168 243.224 361.146 243.397 361.112 243.554C361.028 243.884 360.866 244.131 360.642 244.282L360.625 244.293C360.261 244.528 359.746 244.505 359.18 244.181C358.082 243.548 357.191 242.007 357.191 240.735C357.191 240.119 357.41 239.693 357.752 239.475L357.746 239.47L357.841 239.414H357.847C358.088 239.307 358.374 239.291 358.693 239.38C358.85 239.425 359.012 239.498 359.18 239.593C360.277 240.227 361.168 241.767 361.168 243.033Z" fill="#455A64"></path><path d="M360.627 238.759C360.313 238.58 360.011 238.49 359.742 238.49C359.534 238.49 359.344 238.546 359.181 238.647L359.131 238.675L357.848 239.415C358.089 239.309 358.374 239.292 358.694 239.381C358.851 239.427 359.013 239.499 359.181 239.594C360.279 240.227 361.169 241.768 361.169 243.034C361.169 243.224 361.147 243.398 361.113 243.554C361.029 243.885 360.867 244.131 360.643 244.282L361.959 243.521L361.981 243.509L362.093 243.442C362.105 243.436 362.115 243.43 362.127 243.419C362.429 243.195 362.615 242.769 362.615 242.198C362.615 240.932 361.725 239.391 360.627 238.759Z" fill="#263238"></path><path d="M334.173 234.643C334.173 234.834 334.151 235.008 334.117 235.164C334.033 235.494 333.87 235.741 333.646 235.892L333.629 235.904C333.265 236.139 332.75 236.116 332.184 235.792C331.086 235.159 330.195 233.618 330.195 232.346C330.195 231.73 330.414 231.304 330.756 231.086L330.75 231.081L330.845 231.025H330.851C331.092 230.918 331.377 230.902 331.697 230.991C331.854 231.036 332.016 231.108 332.184 231.204C333.282 231.837 334.173 233.377 334.173 234.643Z" fill="#455A64"></path><path d="M333.631 230.369C333.317 230.19 333.014 230.1 332.746 230.1C332.538 230.1 332.348 230.156 332.185 230.257L332.135 230.285L330.852 231.025C331.093 230.918 331.378 230.902 331.698 230.991C331.855 231.036 332.017 231.108 332.185 231.204C333.283 231.837 334.174 233.378 334.174 234.643C334.174 234.834 334.151 235.008 334.118 235.164C334.034 235.494 333.871 235.741 333.647 235.892L334.963 235.13L334.985 235.119L335.097 235.052C335.109 235.046 335.119 235.04 335.131 235.029C335.433 234.805 335.618 234.379 335.618 233.808C335.62 232.542 334.729 231.002 333.631 230.369Z" fill="#263238"></path><path d="M346.043 230.44L353.143 228.404V229.92L346.043 234.016V230.44Z" fill="#F5F5F5"></path><path d="M346.044 230.44L345.344 230.011L352.465 228.065L353.144 228.404L346.044 230.44Z" fill="#FAFAFA"></path><path d="M342.972 234.966L332.906 231.194V229.659L342.972 230.558V234.966Z" fill="#F5F5F5"></path><path d="M332.906 229.659L333.646 229.464L343.57 230.105L342.972 230.558L332.906 229.659Z" fill="#FAFAFA"></path><path d="M342.699 234.481C342.699 235.621 346.2 235.621 346.2 234.481V224.526H342.699V234.481Z" fill="#FAFAFA"></path><path d="M345.324 231.891L347.249 244.39H345.933L344.133 231.891C344.583 232.019 344.965 231.984 345.324 231.891Z" fill="#FAFAFA"></path><path d="M344.133 231.891V235.323L345.933 246.506V244.39L344.133 231.891Z" fill="#F5F5F5"></path><path d="M347.25 244.389H345.934V246.505H347.25V244.389Z" fill="#EBEBEB"></path><path d="M343.538 235.221L330.559 242.025V239.93L343.538 231.9V235.221Z" fill="#F5F5F5"></path><path d="M343.537 231.9C343.226 231.856 342.94 231.751 342.704 231.522L329.746 239.382L330.556 239.929L343.537 231.9Z" fill="#FAFAFA"></path><path d="M330.556 242.025V239.93L329.746 239.383V241.414L330.556 242.025Z" fill="#EBEBEB"></path><path d="M359.898 239.622L346.031 234.874V231.759L359.898 237.527V239.622Z" fill="#F5F5F5"></path><path d="M346.031 231.759C346.144 231.729 346.193 231.527 346.202 231.221L360.308 237.358L359.898 237.527L346.031 231.759Z" fill="#FAFAFA"></path><path d="M360.309 237.358V239.386L359.898 239.622V237.527L360.309 237.358Z" fill="#EBEBEB"></path><path d="M347.418 207.184H341.488V227.714C341.488 229.419 347.418 229.419 347.418 227.714V207.184Z" fill="#F0F0F0"></path><path d="M321.621 209.026C321.621 207.968 322.186 206.989 323.102 206.46L343.845 194.485C344.762 193.955 345.891 193.955 346.808 194.485L367.549 206.461C368.466 206.99 369.03 207.968 369.03 209.027L345.326 222.714L321.621 209.026Z" fill="#388BDD"></path><path d="M321.621 209.025V210.739L343.861 223.578C344.315 223.841 344.818 223.97 345.323 223.97C345.833 223.97 346.337 223.841 346.791 223.578L369.03 210.739V209.025L346.791 221.864C346.337 222.127 345.833 222.261 345.323 222.261C344.819 222.261 344.315 222.126 343.861 221.864L321.621 209.025Z" fill="#FAFAFA"></path><path d="M321.621 209.025V210.739L343.861 223.578C344.315 223.841 344.818 223.97 345.323 223.97V222.261C344.819 222.261 344.315 222.126 343.861 221.864L321.621 209.025Z" fill="#F5F5F5"></path><path opacity="0.1" d="M321.622 209.025C321.622 208.558 321.738 208.109 321.939 207.705L344.347 220.642C344.951 220.991 345.695 220.991 346.298 220.643L368.715 207.711C368.915 208.113 369.03 208.561 369.03 209.026L345.326 222.713L321.621 209.026L321.622 209.025Z" fill="black"></path><path d="M361.859 199.689C361.859 199.689 342.618 193.883 339.273 192.968C335.928 192.052 329.511 190.51 327.636 191.35C325.761 192.19 324.809 193.164 324.637 195.869C324.602 196.377 324.637 198.853 324.637 198.853C324.637 198.853 333.937 201.731 341.556 201.731C349.176 201.731 361.859 199.689 361.859 199.689Z" fill="#263238"></path><path d="M345.414 166.987L346.693 173.886L353.766 174.702L352.747 165.18L345.414 166.987Z" fill="#FFA8A7"></path><path d="M338.812 161.479C338.812 161.479 337.884 164.324 338.167 164.5C338.451 164.675 339.714 164.59 339.714 164.59L338.812 161.479Z" fill="#F28F8F"></path><path d="M340.634 152.358C339.415 153.639 338.258 155.786 338.768 161.222C339.328 167.179 341.108 168.767 341.858 169.117C342.979 169.639 346.793 168.726 348.034 167.811C349.586 166.668 352.509 163.821 353.271 160.311C354.167 156.182 353.02 151.491 350.003 150.543C345.758 149.207 341.665 151.272 340.634 152.358Z" fill="#FFA8A7"></path><path d="M337.852 155.289C338.575 156.654 339.942 160.046 343.812 161.008C343.812 161.008 344.027 158.695 345.943 158.673C347.872 158.65 348.513 161.01 347.562 162.661C346.61 164.311 345.414 163.93 345.414 163.93C345.414 163.93 345.606 167.178 347.952 168.339C347.952 168.339 350.767 169.621 353.337 167.982C354.493 167.244 355.829 164.047 356.519 161.479C357.977 156.047 357.718 151.889 354.264 151.044C353.538 148.766 352.368 148.035 350.195 147.891C345.519 147.583 342.496 151.044 338.608 151.044C336.58 151.043 337.026 153.73 337.852 155.289Z" fill="#263238"></path><path d="M354.177 151.43L356.518 150.428C356.241 149.781 355.493 149.482 354.846 149.759C354.2 150.035 353.901 150.783 354.177 151.43Z" fill="#263238"></path><path d="M361.814 197.377C361.807 201.073 362.161 204.919 360.62 207.627C359.131 210.245 352.097 215.91 344.233 214.587C339.097 213.722 322.497 207.396 322.497 207.396C322.497 207.396 315.15 204.679 315.117 202.747C315.109 202.274 315.066 201.783 315.097 201.271C315.252 198.699 316.291 195.929 321.668 196.071C327.541 196.226 344.967 199.081 344.967 199.081L361.814 197.377Z" fill="#37474F"></path><path d="M360.443 173.483C359.808 171.552 357.359 169.451 354.907 169.906C350.405 170.742 345.479 172.201 344.174 172.586L344.173 172.585C344.173 172.585 344.759 182.507 339.668 185.51L338.996 198.146C338.996 198.146 340.256 200.662 342.2 201.898C344.303 203.235 347.231 205.24 352.517 204.801C358.793 204.281 361.857 199.688 361.857 199.688C361.857 199.688 361.8 187.748 361.598 182.404C361.427 177.865 360.879 174.809 360.443 173.483Z" fill="#455A64"></path><path d="M339.54 187.959C339.54 187.959 342.2 185.2 343.136 181.998C343.136 181.998 343.136 186.683 339.488 189.214L339.54 187.959Z" fill="#37474F"></path><path d="M344.172 172.587C341.393 173.421 339.701 173.572 336.63 178.296C333.559 183.019 326.832 192.39 326.166 193.516C325.239 195.082 324.841 196.948 325.64 198.386C326.387 199.729 328.562 199.141 331.609 196.468C334.556 193.883 340.394 186.57 340.394 186.57C340.394 186.57 343.438 179.905 344.172 172.587Z" fill="#FFA8A7"></path><path d="M344.173 172.587C344.173 172.587 341.695 173.106 340.155 173.859C339.681 174.091 338.119 174.69 337.117 176.354C334.968 179.924 331.897 185.005 331.897 185.005C331.897 185.005 331.372 189.43 336.746 190.972L339.604 187.888C340.769 186.631 341.743 185.206 342.452 183.646C343.663 180.985 345.044 176.761 344.173 172.587Z" fill="#455A64"></path><path d="M326.578 199.048C324.007 198.736 318.245 190.84 316.324 188.33C314.403 185.819 312.798 184.331 311.064 183.38C309.33 182.429 307.833 180.931 307.361 177.907C306.922 175.091 309.546 173.296 311.691 176.127C313.053 177.924 314.428 179.059 314.5 178.76C314.573 178.46 314.077 177.208 314.089 175.905C314.104 174.336 315.202 175.367 315.53 175.917C315.858 176.467 316.241 177.362 316.689 178.509C317.237 179.913 317.011 181.334 317.678 182.291C318.345 183.248 327.302 191.83 327.302 191.83L326.578 199.048Z" fill="#FFA8A7"></path><path d="M370.184 174.8V201.293L349.152 213.481V187.002L370.184 174.8Z" fill="#388BDD"></path><path opacity="0.1" d="M370.184 174.8V201.293L349.152 213.481V187.002L370.184 174.8Z" fill="black"></path><path d="M347.238 212.377L349.151 213.481C349.151 213.481 349.151 192.591 349.151 189.197C349.151 188.046 349.499 187.474 349.961 187.22C351.563 186.234 353.683 188.33 353.683 188.33L353.689 186.566L374.006 174.801C372.095 173.697 370.84 172.973 366.984 175.161C363.127 177.35 351.806 183.895 350.015 185C348.58 185.885 347.24 186.917 347.24 189.323C347.239 193.491 347.238 212.377 347.238 212.377Z" fill="#388BDD"></path><path opacity="0.4" d="M350.016 184.999C351.78 183.853 363.127 177.35 366.984 175.161C370.841 172.972 372.095 173.696 374.007 174.8L353.689 186.566C353 185.806 351.62 184.979 350.016 184.999Z" fill="white"></path><path d="M353.684 188.33L374.008 176.52V174.8L353.69 186.566L353.684 188.33Z" fill="#388BDD"></path><path opacity="0.2" d="M353.684 188.33L374.008 176.52V174.8L353.69 186.566L353.684 188.33Z" fill="black"></path><path d="M353.986 221.91C354.303 221.91 354.619 221.826 354.907 221.66C355.483 221.327 355.827 220.732 355.827 220.067V206.17C355.827 205.65 355.405 205.229 354.885 205.229C354.365 205.229 353.944 205.65 353.944 206.17V219.993L352.447 219.128C351.997 218.868 351.422 219.022 351.161 219.473C350.902 219.923 351.055 220.499 351.506 220.759L353.067 221.66C353.355 221.827 353.67 221.91 353.986 221.91Z" fill="#E6E6E6"></path><path d="M365.483 215.209C365.8 215.209 366.115 215.126 366.404 214.96C366.98 214.627 367.323 214.032 367.323 213.367V199.47C367.323 198.949 366.901 198.528 366.381 198.528C365.861 198.528 365.44 198.949 365.44 199.47V213.293L363.943 212.428C363.493 212.168 362.918 212.322 362.657 212.773C362.398 213.223 362.551 213.799 363.002 214.059L364.563 214.96C364.851 215.126 365.167 215.209 365.483 215.209Z" fill="#E6E6E6"></path></svg>