<svg xmlns="http://www.w3.org/2000/svg" width="293" height="280" viewBox="0 0 293 280" fill="none"><path d="M139.016 259.595C139.077 248.326 123.303 239.105 103.783 239C84.2631 238.894 68.3898 247.944 68.3289 259.214C68.2681 270.483 84.0427 279.704 103.562 279.809C123.082 279.915 138.956 270.864 139.016 259.595Z" fill="#F2F2F2"></path><path d="M224.951 264.928L146.686 219.758C145.011 218.791 145.22 217.101 147.155 215.985L151.598 213.419C153.533 212.303 156.458 212.182 158.134 213.148L236.399 258.318C238.074 259.285 237.865 260.975 235.93 262.092L231.487 264.657C229.552 265.774 226.626 265.895 224.951 264.928Z" fill="#F2F2F2"></path><path d="M232.646 43.0025L160.628 1.42301C159.276 0.642085 158.055 0.619606 157.104 1.1598L150 5.2696L158.363 11.7729L160.408 11.2545V181.917C160.408 185.92 162.841 190.57 165.843 192.303L228.989 238.524V241.373L236.339 237.082L236.338 237.053C237.404 236.345 238.081 234.864 238.081 232.768V53.3879C238.082 49.3854 235.648 44.7354 232.646 43.0025Z" fill="#999999"></path><path d="M221.636 58.2388V50.1845L214.554 55.5052L183.602 42.5334L160.411 25.654V11.2516L158.356 11.765L150.008 5.27035L157.109 1.16054C158.063 0.628327 159.274 0.646454 160.631 1.41722L232.645 43.0105C234.626 44.1481 236.351 46.5511 237.287 49.194L221.636 58.2388Z" fill="#E6E6E6"></path><path d="M225.5 241.047L153.482 199.467C150.48 197.734 148.047 193.084 148.047 189.082V9.69986C148.047 5.69737 150.48 3.85782 153.482 5.59078L225.5 47.1703C228.502 48.9039 230.935 53.5532 230.935 57.5557V236.937C230.935 240.939 228.502 242.78 225.5 241.047Z" fill="#CCCCCC"></path><path d="M149.633 190.14V10.475C149.633 7.55797 151.406 6.21656 153.594 7.48039L225.383 48.9272C227.571 50.1903 229.345 53.5793 229.345 56.4964V236.162C229.345 239.079 227.571 240.419 225.383 239.157L153.594 197.71C151.406 196.446 149.633 193.057 149.633 190.14Z" fill="#333333"></path><path d="M227.241 58.4033V232.436C227.241 235.025 225.414 236.049 223.173 234.756L155.818 195.868C153.563 194.566 151.734 191.413 151.734 188.825V14.8103C151.734 12.2224 153.562 11.1798 155.818 12.482L168.123 19.5864C168.636 19.883 169.088 20.5334 169.23 21.1824L169.8 23.7825C170.228 26.2732 172.183 29.0423 174.471 30.3634L204.502 47.7017C206.79 49.0229 208.76 48.5189 209.174 46.5148L209.744 44.573C209.886 44.0886 210.337 43.9596 210.851 44.2561L223.172 51.3692C225.414 52.6628 227.241 55.8148 227.241 58.4033Z" fill="#80C5FF"></path><path d="M212.132 101.603C213.312 102.284 214.262 103.93 214.258 105.29L214.237 112.657C214.234 114.013 213.277 114.563 212.098 113.881L168.915 88.9499C167.735 88.269 166.785 86.618 166.789 85.2628L166.81 77.8959C166.814 76.5356 167.77 75.9904 168.95 76.6712L212.132 101.603Z" fill="#57B2FF"></path><path d="M212.132 127.372C213.312 128.053 214.262 129.703 214.258 131.059L214.237 138.431C214.233 139.787 213.277 140.332 212.098 139.651L168.915 114.719C167.735 114.039 166.785 112.393 166.789 111.037L166.81 103.665C166.814 102.31 167.77 101.76 168.95 102.441L212.132 127.372Z" fill="#57B2FF"></path><path d="M151.736 122.223V134.693L148.039 132.558V120.088L151.736 122.223Z" fill="#B3B3B3"></path><path d="M214.268 161.604L214.251 167.486C214.234 169.293 212.953 170.032 211.376 169.129L151.738 134.693V122.223L211.409 156.659C212.986 157.579 214.268 159.781 214.268 161.604Z" fill="#57B2FF"></path><path d="M179.574 171.237C180.711 171.893 181.631 173.488 181.628 174.794L181.57 194.985C181.567 196.291 180.64 196.814 179.503 196.158L161.932 186.013C160.795 185.357 159.879 183.77 159.883 182.464L159.94 162.273C159.944 160.966 160.866 160.436 162.003 161.093L179.574 171.237Z" fill="#57B2FF"></path><path d="M212.214 190.047C213.351 190.704 214.267 192.295 214.264 193.601L214.206 213.792C214.203 215.099 213.281 215.624 212.144 214.967L194.573 204.823C193.436 204.166 192.516 202.577 192.52 201.27L192.577 181.08C192.58 179.773 193.507 179.245 194.643 179.901L212.214 190.047Z" fill="#57B2FF"></path><path d="M210.952 61.3371C212.786 62.3957 214.268 64.9639 214.262 67.0754L214.213 84.3586C214.207 86.4657 212.715 87.3162 210.881 86.2576L161.009 57.4644C159.176 56.4057 157.693 53.8382 157.699 51.7311L157.749 34.4479C157.754 32.3357 159.247 31.4859 161.08 32.5445L210.952 61.3371Z" fill="#57B2FF"></path><path d="M151.736 68.2704V102.131L148.039 99.9952V66.1343L151.736 68.2704Z" fill="#B3B3B3"></path><path d="M157.258 74.7599L157.176 101.983C157.176 103.79 155.895 104.513 154.301 103.61L151.738 102.131V68.2711L154.4 69.8156C155.993 70.735 157.258 72.9523 157.258 74.7599Z" fill="#57B2FF"></path><path d="M177.217 27.8416C177.217 29.2265 176.239 29.7841 175.032 29.0873C173.826 28.3905 172.848 26.7032 172.848 25.319C172.848 23.9341 173.826 23.3765 175.032 24.0733C176.239 24.7694 177.217 26.4567 177.217 27.8416Z" fill="#666666"></path><path d="M176.226 27.2717C176.226 28.0301 175.69 28.3361 175.029 27.9547C174.368 27.5726 173.832 26.6481 173.832 25.8896C173.832 25.1305 174.368 24.8252 175.029 25.2073C175.69 25.588 176.226 26.5125 176.226 27.2717Z" fill="#333333"></path><path d="M199.985 37.9087L178.618 25.572C178.265 25.369 177.98 24.8238 177.98 24.3546V23.4896C177.98 23.0205 178.265 22.8044 178.618 23.0081L199.985 35.3448C200.338 35.5478 200.623 36.0931 200.623 36.5622V37.4265C200.623 37.8964 200.338 38.1117 199.985 37.9087Z" fill="black"></path><path d="M236.088 81.0334C235.664 80.7869 235.077 80.8224 234.429 81.1965C233.14 81.9405 232.101 83.7409 232.105 85.2208L232.166 106.542C232.168 107.273 232.428 107.791 232.848 108.034L234.141 108.785C233.721 108.542 233.461 108.023 233.458 107.293L233.398 85.972C233.393 84.4913 234.432 82.6917 235.721 81.9477C236.369 81.5736 236.956 81.5388 237.38 81.7846L236.088 81.0334Z" fill="#E6E6E6"></path><path d="M235.722 81.9485C237.01 81.2045 238.056 81.8005 238.06 83.2812L238.12 104.602C238.125 106.07 237.086 107.883 235.797 108.627C234.509 109.371 233.463 108.761 233.459 107.294L233.398 85.9727C233.394 84.4921 234.433 82.6924 235.722 81.9485Z" fill="#BFBFBF"></path><path d="M236.098 84.3448C237.155 83.7343 238.013 84.2237 238.016 85.4383L238.066 102.928C238.068 104.132 237.216 105.619 236.159 106.229C235.102 106.84 234.244 106.34 234.241 105.136L234.191 87.6462C234.189 86.4324 235.041 84.9553 236.098 84.3448Z" fill="#CCCCCC"></path><path d="M145.8 25.7976L128.229 15.6529C127.657 15.3229 127.141 15.2925 126.768 15.51L123.465 17.4293C123.838 17.2125 124.355 17.243 124.927 17.5722L142.498 27.7169C143.635 28.3731 144.555 29.9676 144.551 31.2734L144.494 51.4643C144.492 52.1118 144.263 52.5671 143.895 52.781L147.198 50.8617C147.566 50.6471 147.795 50.1925 147.797 49.5442L147.854 29.3534C147.857 28.0482 146.937 26.4538 145.8 25.7976Z" fill="#8482FF"></path><path d="M142.504 27.7169C143.641 28.3731 144.561 29.9676 144.557 31.2735L144.5 51.4643C144.496 52.7709 143.57 53.2937 142.433 52.6375L124.862 42.4928C123.725 41.8366 122.809 40.2501 122.813 38.9435L122.87 18.7526C122.873 17.446 123.796 16.916 124.933 17.5722L142.504 27.7169Z" fill="#4D4BB7"></path><path d="M132.418 36.1547L130.768 40.5858L123.891 36.6152L128.16 30.5926C128.76 29.7471 130.258 30.6129 130.858 32.1501L132.418 36.1547Z" fill="white"></path><path d="M135.129 43.1032L130.77 40.5857L132.42 36.1547L135.129 43.1032Z" fill="#E6E6E6"></path><path d="M142.005 47.0738L135.128 43.1033L132.418 36.1547L134.505 30.5592C135.131 28.8835 137.641 30.333 138.267 32.7309L142.005 47.0738Z" fill="white"></path><path d="M132.454 28.2795C132.454 29.2526 131.767 29.6441 130.919 29.1547C130.07 28.6653 129.383 27.479 129.383 26.506C129.383 25.5329 130.07 25.1413 130.919 25.6308C131.767 26.1209 132.454 27.3065 132.454 28.2795Z" fill="#E6E6E6"></path><path d="M210.444 102.627L167.261 77.6958C166.668 77.3535 166.131 77.3209 165.744 77.5464L162.441 79.4657C162.829 79.2402 163.365 79.2729 163.958 79.6151L207.141 104.547C208.321 105.227 209.271 106.873 209.267 108.234L209.246 115.601C209.244 116.276 209.006 116.751 208.622 116.974L211.925 115.055C212.309 114.831 212.546 114.356 212.549 113.682L212.57 106.315C212.573 104.954 211.623 103.309 210.444 102.627Z" fill="#8482FF"></path><path d="M207.14 104.546C208.32 105.227 209.27 106.873 209.266 108.234L209.245 115.6C209.242 116.956 208.285 117.506 207.105 116.825L163.923 91.8937C162.743 91.2128 161.793 89.5625 161.797 88.2066L161.818 80.8397C161.822 79.4795 162.778 78.9342 163.958 79.6158L207.14 104.546Z" fill="#4D4BB7"></path><path d="M205.702 109.057L166.099 86.08C165.645 85.8182 165.277 86.0959 165.277 86.7007C165.277 87.3054 165.645 88.008 166.099 88.2697L205.702 111.247C206.156 111.509 206.523 111.231 206.523 110.626C206.523 110.022 206.156 109.319 205.702 109.057Z" fill="white"></path><path d="M210.443 128.397L167.26 103.465C166.668 103.123 166.131 103.092 165.744 103.317L162.441 105.236C162.829 105.011 163.365 105.042 163.958 105.385L207.14 130.316C208.32 130.997 209.27 132.648 209.266 134.003L209.245 141.375C209.243 142.049 209.007 142.522 208.624 142.744L211.927 140.825C212.309 140.602 212.546 140.13 212.548 139.456L212.569 132.084C212.573 130.728 211.623 129.078 210.443 128.397Z" fill="#8482FF"></path><path d="M207.14 130.316C208.32 130.997 209.27 132.648 209.266 134.003L209.245 141.375C209.242 142.73 208.285 143.276 207.105 142.595L163.923 117.663C162.743 116.983 161.793 115.337 161.797 113.981L161.818 106.609C161.822 105.254 162.778 104.704 163.958 105.385L207.14 130.316Z" fill="#4D4BB7"></path><path d="M205.702 134.413L166.099 111.436C165.645 111.174 165.277 111.452 165.277 112.056C165.277 112.661 165.645 113.364 166.099 113.625L205.702 136.603C206.156 136.864 206.523 136.587 206.523 135.982C206.523 135.377 206.156 134.675 205.702 134.413Z" fill="white"></path><path d="M145.8 153.775L128.229 143.63C127.657 143.3 127.141 143.27 126.768 143.487L123.465 145.407C123.838 145.19 124.355 145.22 124.927 145.55L142.498 155.694C143.635 156.351 144.555 157.945 144.551 159.251L144.494 179.442C144.492 180.089 144.263 180.545 143.895 180.758L147.198 178.839C147.566 178.624 147.795 178.17 147.797 177.522L147.854 157.331C147.857 156.025 146.937 154.431 145.8 153.775Z" fill="#8482FF"></path><path d="M142.504 155.694C143.641 156.351 144.561 157.945 144.557 159.251L144.5 179.442C144.496 180.748 143.57 181.271 142.433 180.615L124.862 170.47C123.725 169.814 122.809 168.227 122.813 166.921L122.87 146.73C122.873 145.423 123.796 144.893 124.933 145.55L142.504 155.694Z" fill="#4D4BB7"></path><path d="M141.926 162.554V162.583L133.554 163.285L125.059 152.816C125.059 152.487 125.291 152.355 125.577 152.52L141.407 161.66C141.693 161.825 141.926 162.225 141.926 162.554Z" fill="white"></path><path d="M133.554 163.949L141.926 163.244V173.436C141.926 173.764 141.694 173.897 141.407 173.732L125.577 164.592C125.291 164.427 125.059 164.026 125.059 163.697V153.473L133.43 163.794L133.554 163.949Z" fill="white"></path><path d="M209.713 157.688L131.533 112.55C130.739 112.092 130.019 112.048 129.498 112.351L126.195 114.27C126.715 113.968 127.436 114.01 128.231 114.469L206.41 159.607C207.992 160.52 209.266 162.726 209.261 164.543L209.244 170.427C209.241 171.332 208.923 171.967 208.409 172.267L211.712 170.348C212.226 170.049 212.544 169.412 212.547 168.509L212.564 162.625C212.569 160.807 211.295 158.601 209.713 157.688Z" fill="#8482FF"></path><path d="M206.413 159.607C207.995 160.52 209.269 162.726 209.264 164.543L209.247 170.427C209.242 172.244 207.96 172.98 206.378 172.067L128.198 126.929C126.621 126.019 125.343 123.805 125.348 121.988L125.364 116.104C125.369 114.287 126.656 113.559 128.233 114.469L206.413 159.607Z" fill="#4D4BB7"></path><path d="M204.352 164.044L129.099 120.333C128.645 120.071 128.277 120.349 128.277 120.955C128.277 121.559 128.645 122.262 129.099 122.524L204.352 166.233C204.805 166.495 205.174 166.217 205.174 165.612C205.174 165.008 204.806 164.305 204.352 164.044Z" fill="white"></path><path d="M177.867 172.261L160.296 162.116C159.724 161.787 159.208 161.757 158.834 161.974L155.531 163.893C155.905 163.676 156.422 163.707 156.992 164.036L174.564 174.18C175.701 174.837 176.621 176.43 176.618 177.737L176.56 197.928C176.558 198.575 176.33 199.031 175.961 199.245L179.264 197.326C179.632 197.112 179.862 196.657 179.863 196.009L179.92 175.818C179.924 174.512 179.004 172.918 177.867 172.261Z" fill="#8482FF"></path><path d="M174.562 174.181C175.699 174.837 176.619 176.431 176.616 177.738L176.558 197.928C176.555 199.235 175.628 199.758 174.491 199.102L156.92 188.957C155.783 188.301 154.867 186.714 154.871 185.408L154.928 165.217C154.932 163.91 155.854 163.38 156.991 164.036L174.562 174.181Z" fill="#4D4BB7"></path><path d="M172.987 192.329L158.475 183.95C157.599 183.445 156.887 182.216 156.887 181.211V173.213C156.887 172.208 157.599 171.802 158.475 172.308L172.987 180.687C173.863 181.192 174.575 182.421 174.575 183.425V191.423C174.575 192.43 173.863 192.836 172.987 192.329ZM158.475 173.068C157.964 172.773 157.549 173.01 157.549 173.597V181.594C157.549 182.18 157.964 182.897 158.475 183.192L172.987 191.571C173.498 191.865 173.914 191.629 173.914 191.042V183.045C173.914 182.459 173.498 181.742 172.987 181.447L158.475 173.068Z" fill="white"></path><path d="M165.731 186.837C163.603 185.608 161.871 182.621 161.871 180.179C161.871 177.737 163.603 176.749 165.731 177.978C167.859 179.207 169.59 182.193 169.59 184.636C169.59 187.078 167.859 188.066 165.731 186.837ZM165.731 178.738C163.967 177.72 162.532 178.538 162.532 180.561C162.532 182.585 163.967 185.06 165.731 186.078C167.494 187.096 168.928 186.278 168.928 184.254C168.928 182.231 167.494 179.756 165.731 178.738Z" fill="white"></path><path d="M170.313 179.764L161.148 174.473V172.556C161.148 171.897 161.616 171.63 162.19 171.962L169.27 176.049C169.844 176.381 170.312 177.187 170.312 177.847V179.764H170.313ZM161.81 174.096L169.651 178.622V177.464C169.651 177.224 169.48 176.929 169.27 176.808L162.19 172.721C161.981 172.6 161.81 172.697 161.81 172.938L161.81 174.096Z" fill="white"></path><path d="M210.508 191.071L192.936 180.927C192.364 180.596 191.846 180.566 191.471 180.784L188.168 182.703C188.543 182.486 189.061 182.516 189.633 182.846L207.204 192.991C208.341 193.647 209.257 195.238 209.254 196.545L209.196 216.736C209.194 217.385 208.966 217.841 208.597 218.056L211.9 216.136C212.269 215.922 212.498 215.466 212.499 214.817L212.556 194.626C212.561 193.319 211.645 191.728 210.508 191.071Z" fill="#8482FF"></path><path d="M207.207 192.991C208.344 193.647 209.26 195.238 209.256 196.545L209.199 216.736C209.196 218.043 208.273 218.567 207.136 217.911L189.565 207.767C188.428 207.11 187.508 205.522 187.512 204.215L187.569 184.024C187.573 182.718 188.499 182.19 189.636 182.847L207.207 192.991Z" fill="#4D4BB7"></path><path d="M198.459 192.551C194.443 190.232 191.188 191.443 191.188 195.256C191.188 197.725 192.557 200.676 194.611 203.082C194.515 203.726 194.097 205.076 192.26 204.039C192.26 204.039 194.796 206.836 197.2 205.52C197.61 205.825 198.029 206.109 198.459 206.358C202.476 208.677 205.731 207.465 205.731 203.652C205.731 199.84 202.476 194.869 198.459 192.551Z" fill="white"></path><path d="M209.263 62.3617L159.391 33.5684C158.469 33.0362 157.633 32.9861 157.029 33.3371L153.727 35.2564C154.331 34.9054 155.167 34.9555 156.088 35.4877L205.96 64.2817C207.794 65.3403 209.276 67.9079 209.27 70.02L209.22 87.3032C209.218 88.3503 208.848 89.087 208.252 89.4328L211.555 87.5135C212.151 87.1669 212.52 86.431 212.523 85.3839L212.573 68.1007C212.579 65.9885 211.096 63.4203 209.263 62.3617Z" fill="#8482FF"></path><path d="M205.964 64.281C207.797 65.3396 209.28 67.9078 209.274 70.0193L209.224 87.3025C209.219 89.4096 207.726 90.2602 205.893 89.2015L156.021 60.4083C154.187 59.3496 152.705 56.7814 152.711 54.6743L152.76 37.391C152.766 35.2789 154.258 34.4291 156.092 35.4877L205.964 64.281Z" fill="#4D4BB7"></path><path d="M204.704 68.4299L157.681 41.1709C157.228 40.9092 156.859 41.1869 156.859 41.7916C156.859 42.3963 157.227 43.0989 157.681 43.3607L204.704 70.6197C205.158 70.8814 205.525 70.6037 205.525 69.999C205.525 69.3943 205.158 68.6916 204.704 68.4299Z" fill="white"></path><path d="M204.704 74.9572L157.681 47.6982C157.228 47.4364 156.859 47.7142 156.859 48.3189C156.859 48.9236 157.227 49.6262 157.681 49.888L204.704 77.1469C205.158 77.4087 205.525 77.131 205.525 76.5263C205.525 75.9215 205.158 75.2189 204.704 74.9572Z" fill="white"></path><path d="M204.704 81.4843L157.681 54.2254C157.228 53.9636 156.859 54.2413 156.859 54.846C156.859 55.4508 157.227 56.1534 157.681 56.4151L204.704 83.6741C205.158 83.9359 205.525 83.6582 205.525 83.0534C205.525 82.4487 205.158 81.7461 204.704 81.4843Z" fill="white"></path><path d="M128.595 69.0535C128.547 68.8977 128.468 68.7505 128.447 68.5888C128.424 68.4205 128.464 68.2501 128.468 68.0805C128.477 67.7034 128.295 67.3271 127.994 67.1002C127.874 67.0102 127.736 66.9421 127.637 66.8304C127.542 66.7253 127.49 66.5904 127.414 66.4708C127.044 65.8827 126.233 65.7761 125.541 65.8363C124.106 65.961 122.745 66.5368 121.492 67.2466C119.786 68.2132 118.206 69.4683 117.125 71.1041C116.702 71.7443 116.361 72.4361 116.079 73.1489C115.831 73.7753 115.628 74.4185 115.449 75.0682C115.33 75.4996 115.173 75.9216 115.081 76.361C115.039 76.5626 115.008 76.7743 114.996 76.9788C114.984 77.1738 115.012 77.3631 114.895 77.5349C114.753 77.7423 101.395 94.4425 100.447 95.6208C99.6121 96.6598 98.9363 97.944 97.9618 98.838C95.9315 100.701 93.2958 102.041 90.8371 103.236C88.838 104.207 85.2952 105.085 86.1776 108.145C86.438 109.048 87.1841 109.71 87.8294 110.394C88.9228 111.552 89.806 112.908 90.4238 114.377C90.4607 114.464 90.5028 114.559 90.5862 114.604C90.7051 114.667 90.8487 114.603 90.9676 114.54C94.4516 112.681 103.984 105.953 105.599 104.973C105.601 104.922 105.591 104.872 105.591 104.821C106.079 104.579 106.456 104.13 106.788 103.683C107.963 102.103 109.066 100.47 110.109 98.8003C111.153 97.1297 112.137 95.4228 113.078 93.6928C114.02 91.9591 114.92 90.2015 115.794 88.4323C116.668 86.6609 118.694 82.3749 118.862 82.0174C118.987 81.7499 119.06 81.3467 119.353 81.206C119.541 81.1161 119.757 81.119 119.949 81.0175C120.165 80.9037 120.355 80.7441 120.533 80.5788C122.477 78.7792 123.568 76.2646 125.098 74.1009C125.371 73.7151 125.662 73.3359 126.028 73.0372C126.721 72.4694 127.68 72.1874 128.149 71.4246C128.339 71.1157 128.427 70.7575 128.513 70.4058C128.621 69.9606 128.729 69.49 128.595 69.0535Z" fill="#FFB78C"></path><path d="M77.199 264.215C77.3005 265.423 77.6725 266.541 78.5926 267.178C79.1241 267.546 79.7883 267.669 80.4344 267.694C82.2036 267.763 83.9902 267.142 85.3345 265.99C86.8514 264.69 87.7868 262.785 89.4037 261.612C90.2651 260.987 91.273 260.606 92.2439 260.17C94.6461 259.093 96.8815 257.644 98.8465 255.892C99.2714 255.513 99.7775 255.045 99.9849 254.499C100.318 253.62 99.9675 252.627 99.1931 252.149C98.716 251.854 98.1606 251.714 97.6095 251.616C95.6445 251.265 93.6273 251.39 91.6392 251.571C89.11 251.801 86.5606 252.125 84.1845 253.02C83.152 253.409 82.1579 253.909 81.2486 254.536C80.9049 254.772 80.4075 255.372 79.9986 255.445C79.8521 255.471 78.8805 255.129 78.8986 255.071C78.341 256.837 77.782 258.61 77.4738 260.436C77.2998 261.464 77.0873 262.894 77.199 264.215Z" fill="#4D4BB7"></path><path d="M95.5358 170.456C95.4387 169.768 95.0834 169.148 94.76 168.532C92.571 164.366 91.5769 159.724 89.9911 155.323C89.2254 153.199 88.3241 151.108 87.077 149.219C86.3403 148.101 84.2991 145.114 82.5488 145.738C82.2986 145.827 82.0985 146.015 81.9071 146.199C78.7 149.298 76.0411 152.958 74.0638 156.953C72.0444 161.033 71.1257 164.931 71.1134 169.483C71.104 172.864 71.6144 176.251 72.6745 179.464C73.0487 180.599 73.4873 181.718 73.7208 182.889C73.9681 184.127 73.9826 185.397 73.9956 186.659C74.0471 191.573 74.0986 196.488 74.1501 201.403C74.174 203.661 74.1784 205.929 74.3372 208.168C74.4959 210.408 74.5344 212.836 73.8977 215.007C73.2285 217.293 72.792 219.649 72.5041 222.012C71.7486 228.226 73.0595 234.486 74.3625 240.61C75.5372 246.13 76.7125 251.65 77.8872 257.17C77.9561 257.492 78.0336 257.832 78.2635 258.067C78.4455 258.255 78.7007 258.35 78.9516 258.422C80.4649 258.854 82.1152 258.589 83.5545 257.953C84.9945 257.317 86.2511 256.332 87.4323 255.293C87.744 255.018 88.058 254.731 88.2465 254.361C88.7149 253.439 88.2784 252.339 87.8869 251.383C84.3767 242.82 84.6479 233.095 86.7782 224.088C87.5069 221.009 88.4452 217.969 88.8679 214.833C88.8998 214.598 88.9158 214.36 88.9122 214.123C88.9158 214.108 88.9223 214.092 88.9259 214.076C92.2918 200.202 93.9936 185.983 95.5047 171.786C95.5518 171.344 95.5982 170.897 95.5358 170.456Z" fill="#333333"></path><path d="M121.007 250.089C118.998 249.999 116.974 249.986 114.977 250.26C113.465 250.468 111.777 250.973 110.619 252.009C109.838 252.707 109.237 253.582 108.684 254.472C107.177 256.898 104.398 262.565 108.411 264.204C109.103 264.486 109.88 264.492 110.618 264.379C113.163 263.991 115.35 262.281 117.885 261.833C118.827 261.666 119.789 261.68 120.745 261.653C124.167 261.559 127.669 260.913 130.551 259.067C131.938 258.179 132.837 256.885 133.225 255.274C133.754 253.082 132.416 251.723 130.392 251.26C127.314 250.557 124.16 250.23 121.007 250.089Z" fill="#8482FF"></path><path d="M117.692 248.555C115.65 241.788 114.624 234.717 114.661 227.649C114.69 221.994 113.92 216.049 114.631 210.453C115.346 204.818 114.906 198.667 113.899 193.082C112.268 184.042 108.282 175.471 107.486 166.319C107.186 162.87 107.344 159.376 106.745 155.966C102.656 158.08 97.8051 158.68 93.3233 157.627C90.9871 157.08 88.7872 156.107 86.5467 155.272C85.612 154.883 84.6085 154.8 83.663 154.455C82.8212 154.148 82.2636 153.638 81.5624 153.053C78.0196 157.327 75.9132 162.769 75.6558 168.315C75.4608 172.52 76.3294 176.765 78.1269 180.571C80.0107 184.559 83.0539 187.368 86.327 190.238C89.4847 193.006 92.8071 195.705 95.086 199.233C97.0561 202.282 98.1075 206.169 99.0762 209.635C100.172 213.556 101.025 217.57 101.209 221.646C101.378 225.407 100.868 228.884 101.525 232.656C101.823 234.367 102.236 236.058 102.763 237.713C104.684 243.751 108.136 249.542 107.918 255.874C107.909 256.142 107.901 256.436 108.064 256.648C108.19 256.81 108.391 256.891 108.586 256.954C111.187 257.79 114.044 256.655 116.215 254.998C116.961 254.428 117.683 253.764 118.036 252.894C118.59 251.521 118.12 249.973 117.692 248.555Z" fill="#424242"></path><path d="M71.1698 107.184C70.402 111.335 70.8261 115.901 71.6244 119.808C72.7853 125.488 74.411 131.073 76.4782 136.49C77.3207 138.698 78.2474 140.921 78.4367 143.277C78.7688 147.414 76.8045 151.353 74.8438 155.011C74.6611 155.351 74.4726 155.718 74.511 156.103C74.5429 156.417 74.7213 156.694 74.9026 156.952C77.2823 160.342 80.8882 162.757 84.7877 164.154C88.6872 165.551 92.8775 165.981 97.0192 165.929C100.536 165.885 104.134 165.477 107.284 163.913C107.461 158.748 107.639 153.582 107.592 148.414C107.549 143.555 106.379 138.449 107.537 133.652C107.955 131.917 108.674 130.267 109.127 128.541C109.61 126.701 109.785 124.781 109.646 122.884C109.532 121.339 109.085 119.626 107.745 118.848C107.327 118.606 106.854 118.476 106.427 118.252C104.397 117.185 103.905 114.33 101.948 113.135C101.24 112.703 100.408 112.535 99.6085 112.312C91.0488 109.917 84.5847 99.4036 75.0585 100.917C74.5495 100.997 74.023 101.091 73.5967 101.381C73.1363 101.693 72.8462 102.198 72.6026 102.698C71.9239 104.096 71.4613 105.61 71.1698 107.184Z" fill="#D9D9D9"></path><path d="M75.3641 103.885C75.243 104.121 75.1328 104.362 75.0501 104.613C74.4468 106.454 76.1602 107.673 77.5771 108.458C79.8582 109.722 82.4895 110.285 85.0977 110.296C86.674 110.302 88.246 110.112 89.7861 109.785C90.3799 109.659 90.7889 109.645 91.0876 109.11C91.4364 108.485 91.4785 107.707 91.5162 107.01C91.6017 105.435 91.6445 103.856 91.6873 102.279C91.7533 99.835 91.82 97.3914 91.8859 94.9471C91.9135 93.9153 90.4757 94.2105 89.7085 94.1111C88.597 93.9668 87.4868 93.8073 86.3854 93.5992C84.2022 93.1873 82.0385 92.5855 80.0511 91.5755C79.5254 91.3079 78.6886 90.6655 78.0919 90.6343C77.345 90.5952 77.3552 91.5827 77.2732 92.1838C77.0463 93.8472 77.0891 95.5308 77.0325 97.2051C76.9665 99.1664 76.7541 101.176 75.8731 102.929C75.7128 103.251 75.5287 103.564 75.3641 103.885Z" fill="#FFB78C"></path><path d="M96.0633 79.6072C96.2859 79.9625 96.5093 80.3359 96.5542 80.7528C96.597 81.148 96.4745 81.5425 96.473 81.9405C96.4672 83.3262 97.8188 84.2579 98.9173 85.1019C99.3523 85.4362 99.8106 85.893 99.7417 86.4375C99.7142 86.6558 99.6025 86.8523 99.5032 87.0488C98.7295 88.586 98.6831 90.3349 98.781 92.0178C98.8433 93.0873 99.6663 95.9507 98.5845 96.6366C97.3003 97.4494 95.9074 98.0897 94.4544 98.5349C93.6009 98.7959 92.5713 98.9982 91.7512 98.5277C91.0457 98.1231 90.5693 97.3015 89.9313 96.7708C89.1721 96.1392 88.1519 97.0499 87.3333 97.3197C86.2652 97.672 85.1536 97.891 84.0334 97.9802C81.8559 98.1535 79.6372 97.841 77.5975 97.0586C76.2916 96.5576 75.043 95.8695 74.0141 94.9218C72.8649 93.8639 72.0245 92.5181 71.2501 91.1615C70.2139 89.3473 69.2517 87.4273 69.0291 85.3499C68.7928 83.1391 69.4395 80.9443 70.4909 79.0155C71.5314 77.1071 72.8337 75.6997 74.542 74.3974C77.6954 71.9923 81.8937 71.5007 85.8599 71.4964C87.3035 71.4949 88.5028 71.6138 89.8196 72.1736C91.2031 72.7616 92.3291 73.7108 92.9273 75.0681C93.6466 76.6967 95.1178 78.0939 96.0633 79.6072Z" fill="#FFE5CC"></path><path d="M87.4412 89.8621C87.9132 89.0645 88.6709 88.4729 89.6534 87.9385C91.7243 86.8139 92.0984 84.2485 92.3631 82.1631C92.7039 79.4803 92.6408 76.4712 91.6996 73.9174C90.8368 71.5769 87.9357 70.6321 85.7017 70.3565C82.9449 70.0172 80.0953 70.3239 77.5191 71.3622C73.6892 72.9059 70.493 76.5154 68.7484 80.1808C66.6239 84.6444 66.5869 89.2734 66.9118 94.0814C67.022 95.7064 67.0785 96.8447 68.2133 98.1224C68.9079 98.904 69.7882 99.4978 70.6989 100.011C75.6607 102.807 81.8471 103.326 87.2055 101.397C88.0075 101.108 88.8036 100.76 89.4497 100.204C91.0449 98.8315 90.7983 96.9158 89.4888 95.4265C88.8181 94.6637 87.6739 94.5585 87.1613 93.5963C86.9213 93.1453 86.8821 92.6153 86.8836 92.1041C86.8872 91.1941 87.0815 90.469 87.4412 89.8621Z" fill="#733118"></path><path d="M152.696 70.8467L127.474 56.2847C126.678 55.825 125.956 55.7822 125.436 56.0853L122.133 58.0046C122.653 57.7023 123.375 57.7443 124.172 58.204L149.394 72.766C150.975 73.6789 152.254 75.8926 152.249 77.7053L152.172 104.919C152.17 105.819 151.851 106.453 151.337 106.751L154.64 104.832C155.153 104.534 155.472 103.9 155.475 103L155.552 75.786C155.556 73.9732 154.277 71.7596 152.696 70.8467Z" fill="#8482FF"></path><path d="M149.391 72.766C150.972 73.6789 152.25 75.8926 152.245 77.7053L152.168 104.919C152.163 106.731 150.877 107.464 149.296 106.552L124.073 91.9896C122.491 91.0767 121.213 88.863 121.219 87.0503L121.296 59.8362C121.301 58.0242 122.587 57.2912 124.168 58.2041L149.391 72.766Z" fill="#4D4BB7"></path><path d="M135.878 73.2481C131.439 70.6849 127.844 72.7348 127.844 77.8285C127.844 82.9179 131.439 89.1225 135.878 91.6857C140.313 94.2467 143.912 92.1947 143.912 87.1053C143.912 82.0108 140.313 75.8084 135.878 73.2481ZM133.916 85.5833V77.2949L140.172 85.0526L133.916 85.5833Z" fill="white"></path><path d="M110.395 130.905C118.362 131.591 126.38 131.002 134.348 130.316C134.386 130.313 134.424 130.303 134.464 130.3C136.473 130.105 136.935 128.416 137.724 126.839C138.43 125.428 139.061 123.981 139.679 122.53C142.998 114.731 145.913 106.763 148.454 98.6763C148.916 97.9607 149.675 97.4567 150.351 96.9151C153.106 94.7065 155.354 91.8692 156.874 88.6817C157.36 87.6622 157.767 86.4361 157.233 85.4413C157.067 85.1317 156.817 84.8663 156.693 84.5371C156.547 84.1456 156.595 83.7047 156.471 83.3052C156.192 82.4025 155.142 81.9616 154.699 81.1277C154.522 80.7957 154.408 80.3708 154.056 80.2373C153.766 80.1271 153.431 80.2852 153.232 80.523C153.032 80.7608 152.934 81.0647 152.822 81.354C152.177 83.0079 150.884 84.3993 149.281 85.1643C148.973 85.3122 148.588 85.4311 148.306 85.2375C148.799 84.4501 149.163 83.5822 149.379 82.6794C149.505 82.1566 149.577 81.5867 149.358 81.0958C149.138 80.605 148.529 80.2562 148.044 80.4897C147.57 80.7181 147.455 81.325 147.339 81.8383C147.145 82.6961 146.787 83.5169 146.29 84.2427C145.775 84.9961 145.116 85.6436 144.612 86.4049C144.186 87.0481 143.88 87.7623 143.664 88.5012C143.273 89.8368 143.136 91.2652 143.1 92.6523C143.081 93.3912 142.989 94.159 142.839 94.9168C142.808 94.9951 142.776 95.0741 142.748 95.1517C141.915 97.4401 130.752 118.509 129.133 120.953C128.659 120.948 128.191 120.939 127.747 120.887C122.476 120.273 117.156 119.416 112.311 117.249C109.859 116.152 107.54 114.725 104.965 113.958C102.39 113.19 99.3997 113.181 97.2346 114.772C95.5075 116.041 94.6258 118.093 94.2059 120.137C92.5875 128.021 102.601 130.002 108.287 130.688C108.989 130.773 109.692 130.844 110.395 130.905Z" fill="#FFE5CC"></path><path d="M118.895 124.563C118.921 127.298 118.248 129.896 116.955 132.303C116.492 133.166 116.025 133.483 114.999 133.464C114.268 133.451 113.541 133.362 112.817 133.262C108.736 132.701 104.7 131.806 100.765 130.588C98.8874 130.007 97.2814 129.588 95.618 128.475C94.7095 127.868 93.9082 127.089 93.3383 126.152C92.408 124.621 92.0767 122.791 92.4138 121.031C93.0229 117.856 95.1887 114.925 98.2145 113.686C98.6119 113.522 99.0223 113.388 99.4443 113.306C100.318 113.138 101.219 113.206 102.1 113.335C104.6 113.703 106.998 114.558 109.377 115.411C111.898 116.316 114.417 117.226 116.935 118.14C118.035 118.539 118.098 119.495 118.375 120.508C118.74 121.836 118.882 123.186 118.895 124.563Z" fill="#F2F2F2"></path><path d="M119.073 69.3015C118.382 69.7401 117.633 70.1259 117.106 70.7516C116.333 71.6682 116.166 72.9646 116.315 74.1538C116.38 74.6737 116.507 75.2015 116.808 75.63C117.11 76.0586 117.617 76.3711 118.139 76.3218C118.625 76.2761 119.035 75.9346 119.339 75.5525C119.661 75.1471 119.902 74.678 120.045 74.1799C120.332 73.1807 120.239 72.0416 120.832 71.1874C121.102 70.7966 121.492 70.5073 121.853 70.197C122.307 69.8061 122.727 69.3696 123.061 68.8715C123.301 68.5126 123.498 68.1174 123.573 67.6918C123.649 67.2661 123.594 66.8086 123.364 66.4424C122.728 65.4302 121.903 66.8782 121.479 67.3234C120.761 68.0782 119.951 68.7439 119.073 69.3015Z" fill="#FFE5CC"></path><path d="M272.007 27.6103C267.88 25.2277 264.137 25.0058 261.433 26.5778L257.164 29.0583C259.868 27.4871 263.612 27.7082 267.739 30.0909C275.95 34.8315 282.579 46.314 282.552 55.7489C282.539 60.4264 280.887 63.7198 278.221 65.2686L282.49 62.788C285.155 61.2392 286.808 57.9466 286.821 53.2683C286.848 43.8335 280.218 32.351 272.007 27.6103Z" fill="#4D4D4D"></path><path d="M267.743 30.0909C275.954 34.8315 282.583 46.314 282.556 55.7488C282.53 65.1692 275.857 68.9716 267.646 64.2309C259.448 59.4976 252.805 48.0078 252.832 38.5874C252.859 29.1526 259.544 25.3575 267.743 30.0909Z" fill="black"></path><path d="M268.14 36.9901C262.977 34.01 258.797 36.3926 258.797 42.3166C258.797 48.2355 262.977 55.4509 268.14 58.431C273.298 61.4089 277.482 59.0227 277.482 53.1045C277.482 47.1812 273.298 39.9681 268.14 36.9901ZM265.859 51.3353V41.6967L273.133 50.7182L265.859 51.3353Z" fill="white"></path><path d="M279.122 77.5472L265.162 69.4878C262.968 68.2211 260.981 68.1044 259.546 68.9382L255.277 71.4188C256.712 70.5849 258.7 70.7016 260.894 71.9684L274.853 80.0277C279.197 82.5358 282.718 88.6331 282.703 93.6246L282.657 109.68C282.65 112.16 281.773 113.906 280.358 114.728L284.627 112.247C286.041 111.425 286.919 109.679 286.926 107.199L286.972 91.1433C286.986 86.1526 283.466 80.0553 279.122 77.5472Z" fill="#FFD166"></path><path d="M274.854 80.0277C279.198 82.5358 282.718 88.6331 282.704 93.6246L282.658 109.68C282.643 114.672 279.101 116.691 274.757 114.183L260.796 106.123C256.439 103.608 252.919 97.5103 252.934 92.5188L252.979 76.4632C252.994 71.4717 256.537 69.4523 260.894 71.9676L274.854 80.0277Z" fill="#FFAD66"></path><path d="M268.14 82.6033C262.977 79.6232 258.797 82.0058 258.797 87.9298C258.797 93.8487 262.977 101.064 268.14 104.044C273.298 107.022 277.482 104.636 277.482 98.7176C277.482 92.7937 273.298 85.5805 268.14 82.6033ZM265.859 96.9477V87.3091L273.133 96.3306L265.859 96.9477Z" fill="white"></path><path d="M285.329 130.416L259.188 115.324C258.693 115.038 258.241 115.011 257.913 115.201L253.645 117.682C253.972 117.492 254.424 117.518 254.919 117.804L281.06 132.896C282.053 133.469 282.849 134.849 282.846 135.989L282.761 166.027C282.76 166.585 282.562 166.978 282.243 167.163L286.511 164.683C286.83 164.497 287.028 164.103 287.03 163.546L287.115 133.509C287.118 132.369 286.321 130.989 285.329 130.416Z" fill="#8482FF"></path><path d="M281.062 132.897C282.055 133.47 282.852 134.85 282.848 135.99L282.763 166.028C282.76 167.153 281.959 167.61 280.966 167.037L254.825 151.945C253.845 151.379 253.036 149.992 253.039 148.866L253.124 118.829C253.127 117.688 253.942 117.239 254.921 117.804L281.062 132.897Z" fill="#4D4BB7"></path><path d="M268.14 131.653C262.977 128.673 258.797 131.056 258.797 136.98C258.797 142.899 262.977 150.114 268.14 153.094C273.298 156.072 277.482 153.686 277.482 147.768C277.482 141.844 273.298 134.631 268.14 131.653ZM265.859 145.999V136.36L273.133 145.382L265.859 145.999Z" fill="white"></path><path fill-rule="evenodd" clip-rule="evenodd" d="M278.086 169.509V167.527L275.332 165.937V167.919L278.086 169.509Z" fill="#231F20"></path><path fill-rule="evenodd" clip-rule="evenodd" d="M283.028 172.361V170.38L280.273 168.789V170.771L283.028 172.361Z" fill="#231F20"></path><path fill-rule="evenodd" clip-rule="evenodd" d="M288.235 175.338L287.399 172.905L285 171.52L285.299 173.674C286.281 174.241 287.27 174.818 288.235 175.338Z" fill="#231F20"></path><path fill-rule="evenodd" clip-rule="evenodd" d="M263.251 160.941V158.959L260.496 157.369V159.351L263.251 160.941Z" fill="#231F20"></path><path fill-rule="evenodd" clip-rule="evenodd" d="M268.192 163.793V161.812L265.438 160.222V162.203L268.192 163.793Z" fill="#231F20"></path><path fill-rule="evenodd" clip-rule="evenodd" d="M273.114 166.637V164.655L270.359 163.065V165.046L273.114 166.637Z" fill="#231F20"></path><path fill-rule="evenodd" clip-rule="evenodd" d="M249.599 149.171L251.249 148.915L251.242 146.159L249.516 145.795C249.521 146.926 249.543 148.05 249.599 149.171Z" fill="#231F20"></path><path fill-rule="evenodd" clip-rule="evenodd" d="M253.011 154.946L254.048 153.647C253.247 153.178 252.46 152.3 251.938 151.302L250.484 152.061C251.121 153.269 252.059 154.341 253.011 154.946Z" fill="#231F20"></path><path fill-rule="evenodd" clip-rule="evenodd" d="M258.237 158.049L258.334 156.124L255.937 154.739L255.289 156.343L258.237 158.049Z" fill="#231F20"></path><path fill-rule="evenodd" clip-rule="evenodd" d="M249.516 131.703L251.242 132.7V129.54L249.516 128.543V131.703Z" fill="#231F20"></path><path fill-rule="evenodd" clip-rule="evenodd" d="M249.516 137.373L251.242 138.37V135.208L249.516 134.211V137.373Z" fill="#231F20"></path><path fill-rule="evenodd" clip-rule="evenodd" d="M249.516 143.066L251.242 143.94V140.859L249.516 139.862V143.066Z" fill="#231F20"></path><path fill-rule="evenodd" clip-rule="evenodd" d="M249.516 114.675L251.242 115.672V112.805L249.516 111.354V114.675Z" fill="#231F20"></path><path fill-rule="evenodd" clip-rule="evenodd" d="M249.516 120.344L251.242 121.341V118.18L249.516 117.183V120.344Z" fill="#231F20"></path><path fill-rule="evenodd" clip-rule="evenodd" d="M249.516 125.995L251.242 126.992V123.83L249.516 122.834V125.995Z" fill="#231F20"></path><path fill-rule="evenodd" clip-rule="evenodd" d="M256.828 107.399L257.189 109.588L259.71 111.044V109.063L256.828 107.399Z" fill="#231F20"></path><path fill-rule="evenodd" clip-rule="evenodd" d="M251.668 104.898L252.92 107.411C253.658 107.424 254.494 108.065 255.283 108.49L254.494 106.074C253.534 105.584 252.552 104.893 251.668 104.898Z" fill="#231F20"></path><path fill-rule="evenodd" clip-rule="evenodd" d="M249.539 108.655L251.24 110.586C251.244 110.13 251.231 109.663 251.249 109.215C251.273 108.772 251.382 108.384 251.568 108.085L250.029 105.723C249.796 106.074 249.651 106.529 249.603 107.044C249.562 107.564 249.556 108.109 249.539 108.655Z" fill="#231F20"></path><path fill-rule="evenodd" clip-rule="evenodd" d="M271.797 116.04V118.022L274.551 119.612V117.63L271.797 116.04Z" fill="#231F20"></path><path fill-rule="evenodd" clip-rule="evenodd" d="M266.855 113.188V115.169L269.61 116.759V114.778L266.855 113.188Z" fill="#231F20"></path><path fill-rule="evenodd" clip-rule="evenodd" d="M261.934 110.345V112.327L264.688 113.917V111.935L261.934 110.345Z" fill="#231F20"></path><path fill-rule="evenodd" clip-rule="evenodd" d="M286.844 124.729L286.258 126.37C287.057 126.839 287.857 127.277 288.656 127.77L289.738 126.513C288.791 125.882 287.825 125.309 286.844 124.729Z" fill="#231F20"></path><path fill-rule="evenodd" clip-rule="evenodd" d="M281.695 121.755V123.737L284.353 125.271L284.502 123.376L281.695 121.755Z" fill="#231F20"></path><path fill-rule="evenodd" clip-rule="evenodd" d="M276.773 118.913V120.894L279.528 122.485V120.503L276.773 118.913Z" fill="#231F20"></path><path fill-rule="evenodd" clip-rule="evenodd" d="M292.953 141.047L291.227 140.05V143.211L292.953 144.208V141.047Z" fill="#231F20"></path><path fill-rule="evenodd" clip-rule="evenodd" d="M292.951 135.131L291.227 134.831V137.584L292.953 138.516L292.951 135.131Z" fill="#231F20"></path><path fill-rule="evenodd" clip-rule="evenodd" d="M291.796 128.867L290.375 129.684C290.953 130.659 291.253 131.763 291.223 132.663L292.887 132.473C292.88 131.381 292.495 130.05 291.796 128.867Z" fill="#231F20"></path><path fill-rule="evenodd" clip-rule="evenodd" d="M292.945 158.075L291.219 157.078V160.239L292.945 161.236V158.075Z" fill="#231F20"></path><path fill-rule="evenodd" clip-rule="evenodd" d="M292.945 152.407L291.219 151.41V154.57L292.945 155.567V152.407Z" fill="#231F20"></path><path fill-rule="evenodd" clip-rule="evenodd" d="M292.945 146.756L291.219 145.759V148.921L292.945 149.917V146.756Z" fill="#231F20"></path><path fill-rule="evenodd" clip-rule="evenodd" d="M292.58 175.291L291.01 172.967C290.71 173.645 290.075 173.961 289.32 173.827L290.529 176.342C291.43 176.472 292.196 176.089 292.58 175.291Z" fill="#231F20"></path><path fill-rule="evenodd" clip-rule="evenodd" d="M292.95 169.573L291.223 168.185V170.938L292.916 172.918C292.951 171.834 292.951 170.702 292.95 169.573Z" fill="#231F20"></path><path fill-rule="evenodd" clip-rule="evenodd" d="M292.949 163.785L291.223 162.788V165.949L292.949 166.946V163.785Z" fill="#231F20"></path><path d="M50.1616 107.479L52.9082 109.075C49.8701 110.718 47.8558 110.779 46.5318 110.01L43.7852 108.413C45.1099 109.183 47.1235 109.122 50.1616 107.479Z" fill="#FFD166"></path><path d="M37.8835 113.123L35.1368 111.527C33.3973 110.516 31.6695 108.807 30.0547 106.128L32.8013 107.724C34.4161 110.403 36.144 112.112 37.8835 113.123Z" fill="#FFD166"></path><path d="M21.2472 79.6542L48.5685 63.8806C49.7265 63.2121 50.7728 63.1483 51.5276 63.587L54.2743 65.1836C53.5194 64.745 52.4731 64.8088 51.3152 65.4773L23.9938 81.2509C21.7047 82.5727 19.8442 85.7805 19.8521 88.4249L19.9145 110.398C19.9181 111.702 20.38 112.617 21.1225 113.049L18.3758 111.452C17.6326 111.021 17.1715 110.104 17.1679 108.801L17.1055 86.8282C17.0982 84.1831 18.9581 80.9753 21.2472 79.6542Z" fill="#FFD166"></path><path d="M23.9933 81.2501C21.7042 82.572 19.8443 85.779 19.8516 88.4242L19.9139 110.397C19.9212 113.028 21.7934 114.081 24.0825 112.759L32.8038 107.724C37.9962 116.34 44.3574 114.922 48.5158 112.521C51.1566 110.997 52.8206 109.172 52.9084 109.076C43.5141 114.156 43.9093 104.119 44.2247 101.13L51.4031 96.9853C53.7045 95.6562 55.5528 92.4556 55.5455 89.8257L55.4832 67.8527C55.4759 65.2075 53.6161 64.1482 51.3139 65.4765L23.9933 81.2501Z" fill="#FFAD66"></path><path d="M24.5554 98.5711C24.5206 98.2738 24.5017 97.9606 24.501 97.6306C24.5003 97.3065 24.517 96.9715 24.5496 96.6358L23.359 96.8802C23.1821 96.9157 23.0849 96.7547 23.1408 96.5191L23.7723 93.8993C23.8165 93.7101 23.9478 93.531 24.0884 93.4498C24.1233 93.4302 24.1581 93.4157 24.1929 93.4092L25.3806 93.1663C25.6568 92.4397 25.9889 91.7226 26.3703 91.028L25.63 90.2927C25.5198 90.1811 25.5546 89.9215 25.7025 89.7098L27.3666 87.3576C27.4253 87.2727 27.4949 87.2082 27.5638 87.1691C27.6668 87.1096 27.769 87.1053 27.835 87.1727L28.5702 87.9101C29.0756 87.3503 29.61 86.8384 30.1719 86.3874L30.1676 84.9517C30.1669 84.7378 30.3162 84.479 30.5026 84.3717L32.5604 83.184C32.746 83.0767 32.8968 83.1622 32.8976 83.3761L32.9019 84.8118C33.4646 84.6131 33.9997 84.508 34.5043 84.4841L35.2352 82.8997C35.3005 82.7569 35.402 82.6431 35.5042 82.5843C35.5731 82.5445 35.642 82.5292 35.7022 82.5452L37.3721 82.973C37.5229 83.0121 37.5591 83.2311 37.4497 83.4697L36.7166 85.0554C37.1009 85.3078 37.4359 85.6399 37.7129 86.0474L38.8984 84.9198C38.9332 84.8865 38.9687 84.8597 39.0035 84.8394C39.1449 84.7574 39.2769 84.785 39.3218 84.9227L39.9664 86.8058C40.023 86.9769 39.9273 87.2488 39.7504 87.4178L38.5627 88.5467C38.5946 88.8447 38.6163 89.158 38.617 89.4821C38.6178 89.8113 38.5989 90.147 38.5685 90.482L39.7591 90.2384C39.936 90.2028 40.0331 90.3638 39.9773 90.5995L39.3458 93.2192C39.3008 93.4063 39.1696 93.5875 39.0275 93.6695C38.9926 93.6891 38.9578 93.7036 38.923 93.7101L37.7353 93.953C37.4613 94.6781 37.1292 95.393 36.7478 96.0898L37.4881 96.8251C37.5983 96.9367 37.5635 97.1963 37.4134 97.4095L35.7515 99.761C35.692 99.8458 35.6232 99.9096 35.555 99.9487C35.4513 100.008 35.3498 100.012 35.2831 99.9466L34.5457 99.2077C34.0425 99.7689 33.5081 100.281 32.9461 100.731L32.9505 102.165C32.9512 102.381 32.8018 102.637 32.6155 102.745L30.5577 103.933C30.3721 104.04 30.2212 103.957 30.2205 103.741L30.2162 102.308C29.6535 102.507 29.1184 102.612 28.6115 102.634L27.8828 104.22C27.8169 104.362 27.7146 104.477 27.6109 104.536C27.5428 104.576 27.4739 104.591 27.4152 104.576L25.7431 104.149C25.5952 104.109 25.5582 103.89 25.6677 103.652L26.4008 102.066C26.0165 101.811 25.6815 101.482 25.4023 101.076L24.2168 102.203C24.1827 102.236 24.1479 102.262 24.1138 102.282C23.9732 102.363 23.8405 102.335 23.7955 102.199L23.1509 100.316C23.0944 100.145 23.1901 99.8741 23.367 99.7044L24.5554 98.5711ZM31.575 99.2396C34.3064 97.6625 36.5143 93.8391 36.5049 90.7002C36.4962 87.5635 34.2745 86.3004 31.5424 87.8775C28.8131 89.4531 26.6052 93.2736 26.6147 96.4103C26.6241 99.5492 28.8458 100.815 31.575 99.2396Z" fill="white"></path><path d="M41.3699 87.3988C41.4467 86.8905 41.5714 86.3779 41.7382 85.8667L41.0131 85.6796C40.9051 85.6513 40.8804 85.4933 40.958 85.3251L41.8209 83.4558C41.868 83.3535 41.9412 83.2716 42.0159 83.2288C42.0645 83.2005 42.1138 83.1889 42.1566 83.2005L42.8817 83.3876C43.1761 82.9033 43.5024 82.4392 43.8533 82.0099L43.5749 81.1935C43.5343 81.0702 43.6031 80.8759 43.7286 80.7548L45.1287 79.4236C45.1541 79.3989 45.1795 79.38 45.2041 79.3655C45.3049 79.3075 45.3992 79.3278 45.4311 79.4264L45.7095 80.2451C45.9089 80.1044 46.1076 79.971 46.3113 79.8535C46.5173 79.7346 46.7167 79.6375 46.9161 79.5483L47.1887 78.4113C47.2206 78.275 47.3141 78.1467 47.4149 78.0887C47.4403 78.0742 47.4657 78.064 47.4903 78.0597L48.8934 77.7725C49.0188 77.7493 49.0892 77.8632 49.0486 78.0328L48.7759 79.1669C49.1283 79.1901 49.4561 79.2771 49.7519 79.4199L50.4734 78.3976C50.5154 78.3374 50.5647 78.2917 50.614 78.2634C50.6887 78.2206 50.7619 78.2177 50.8098 78.2649L51.6799 79.1335C51.7589 79.2118 51.7343 79.3982 51.6277 79.5504L50.9062 80.5728C51.0752 80.8904 51.2021 81.258 51.2818 81.6757L52.1751 81.1601C52.3093 81.0826 52.4173 81.1413 52.418 81.2957L52.4231 82.9888C52.4231 83.1404 52.3165 83.326 52.1817 83.4036L51.2884 83.9191C51.2115 84.4274 51.0875 84.94 50.9207 85.4512L51.6458 85.6383C51.7531 85.6666 51.7785 85.8246 51.7009 85.9907L50.8381 87.8621C50.7909 87.9644 50.7177 88.0463 50.643 88.0891C50.5944 88.1174 50.5451 88.129 50.5024 88.1174L49.7773 87.9303C49.4822 88.4147 49.1566 88.8787 48.8057 89.308L49.0841 90.1244C49.1247 90.2477 49.0558 90.442 48.9304 90.5609L47.5302 91.8951C47.5063 91.9183 47.4816 91.9364 47.457 91.9502C47.3555 92.0089 47.2598 91.9893 47.2271 91.8922L46.9487 91.0735C46.7493 91.2142 46.5499 91.3447 46.344 91.4637C46.1402 91.5811 45.9408 91.6812 45.7414 91.7704L45.4688 92.9073C45.4362 93.0422 45.3412 93.172 45.2404 93.23C45.2157 93.2437 45.1918 93.2539 45.1672 93.259L43.7641 93.5432C43.6387 93.5693 43.5683 93.4547 43.6089 93.2851L43.8816 92.151C43.5292 92.1278 43.2014 92.0408 42.9049 91.898L42.1834 92.9203C42.1414 92.9805 42.0921 93.0262 42.0428 93.0545C41.9681 93.0973 41.8948 93.1002 41.847 93.053L40.9769 92.1822C40.8978 92.1068 40.9225 91.9197 41.0298 91.7675L41.7513 90.7451C41.5823 90.4275 41.4554 90.0606 41.3757 89.6422L40.4824 90.1578C40.3482 90.2353 40.2402 90.1737 40.2395 90.0222L40.2344 88.3291C40.2337 88.1746 40.341 87.9919 40.4751 87.9143L41.3699 87.3988ZM46.3396 89.7271C48.2945 88.5988 49.8744 85.8616 49.8679 83.6153C49.8614 81.369 48.2713 80.4626 46.3164 81.5916C44.3638 82.7191 42.7838 85.4556 42.7903 87.7019C42.7968 89.9482 44.3877 90.8546 46.3396 89.7271Z" fill="white"></path><path d="M30.3064 195.85L0.38776 178.577C-0.18651 178.245 -0.114726 177.666 0.54873 177.283L29.946 160.31C30.6094 159.927 31.6122 159.886 32.1865 160.217L62.1051 177.491C62.6794 177.823 62.6069 178.402 61.9442 178.785L32.5469 195.758C31.8834 196.141 30.8799 196.182 30.3064 195.85Z" fill="#F2F2F2"></path><path d="M31.4217 179.321L2.82422 162.811L31.2433 146.403L59.8401 162.914L31.4217 179.321Z" fill="#F2F2F2"></path><path d="M31.4126 177.52L5.94531 162.816L31.2538 148.205L56.7211 162.908L31.4126 177.52Z" fill="#E6E6E6"></path><path d="M31.418 193.831V179.321L59.8364 162.914V177.423L31.418 193.831Z" fill="#BFBFBF"></path><path d="M2.82422 162.811V177.32L31.4217 193.831V179.321L2.82422 162.811Z" fill="#E6E6E6"></path><path d="M12.1442 166.4L10.1314 165.244L9.78843 160.588L9.07422 150.65L11.0733 151.621L11.6447 159.517L12.1442 166.4Z" fill="#4D4D4D"></path><path d="M11.0674 151.619L9.0625 150.649L34.0063 136.247L36.0111 137.218L11.0674 151.619Z" fill="#737373"></path><path d="M38.1773 166.985L27.3677 173.225L25.6681 174.211L25.5252 174.296L25.5107 174.111L24.4398 173.497L22.4269 172.34L21.3698 171.726L19.3569 170.569L18.2859 169.955L16.2724 168.785L15.2297 168.185L13.2024 167.014L12.1452 166.4L11.6456 159.517L11.0742 151.621L36.0209 137.213L36.121 138.641L36.2776 140.668L36.3776 142.097V142.111L36.5205 144.139L36.6205 145.566L36.7779 147.608L36.8772 149.022L37.0201 151.064L37.0636 151.563L37.1201 152.492L37.2775 154.533L38.1773 166.985Z" fill="#1F2125"></path><path d="M15.2408 168.185L13.2134 167.014L12.6276 158.96L12.1562 152.478L14.1698 153.449L14.4838 157.889L15.2408 168.185Z" fill="#4D4D4D"></path><path d="M14.1618 153.449L12.1562 152.478L37.1008 138.078L39.1056 139.048L14.1618 153.449Z" fill="#737373"></path><path d="M41.2664 168.813L28.8007 176.01L27.5296 175.282L25.6734 174.211L25.5305 174.296L25.5161 174.111L24.4451 173.497L22.4322 172.34L21.3751 171.726L19.3622 170.569L18.2913 169.955L16.2777 168.785L15.235 168.185L14.478 157.889L14.1641 153.449L36.2829 140.668L39.0962 139.04L39.1963 140.483L39.3529 142.511L39.453 143.924L39.5958 145.98L39.7104 147.394L39.8532 149.436L39.9526 150.849V150.864L40.1099 152.892V152.906L40.1389 153.334L41.2664 168.813Z" fill="#1F2125"></path><path d="M18.2906 169.955L16.2771 168.785L15.449 157.332L15.2344 154.305L17.2334 155.277L17.3052 156.261L18.2906 169.955Z" fill="#4D4D4D"></path><path d="M17.2283 155.278L15.2227 154.308L40.1672 139.907L42.172 140.877L17.2283 155.278Z" fill="#737373"></path><path d="M44.2947 170.084L31.4142 177.524L28.801 176.01L27.5299 175.282L25.6737 174.211L25.5308 174.296L25.5163 174.111L24.4454 173.497L22.4325 172.34L21.3754 171.726L19.3625 170.569L18.2916 169.955L17.3062 156.261L17.2344 155.277L36.5261 144.138L42.181 140.882L42.2811 142.296L42.4377 144.338L42.5378 145.752V145.766L42.6806 147.794L42.7807 149.222L42.938 151.264L43.2092 155.105L44.2947 170.084Z" fill="#1F2125"></path><path d="M21.3864 171.726L19.3736 170.57L18.3164 156.133L20.33 157.104L21.3864 171.726Z" fill="#4D4D4D"></path><path d="M20.3252 157.108L18.3203 156.137L43.2641 141.736L45.2697 142.707L20.3252 157.108Z" fill="#737373"></path><path d="M47.1409 168.442L44.3 170.084L31.4195 177.524L28.8063 176.01L27.5352 175.282L25.679 174.211L25.5362 174.297L25.5217 174.111L24.4507 173.497L22.4378 172.34L21.3807 171.726L20.3242 157.104L33.5041 149.507L36.7888 147.608L39.6014 145.98L42.443 144.338L45.2702 142.71L45.3702 144.124L45.5276 146.166L45.6276 147.58L45.7705 149.636L46.2983 156.89L47.1409 168.442Z" fill="#1F2125"></path><path d="M24.4422 173.498L22.4294 172.34L21.3867 157.961L23.3858 158.932L24.4422 173.498Z" fill="#4D4D4D"></path><path d="M23.3923 158.938L21.3867 157.968L46.3312 143.566L48.3361 144.536L23.3923 158.938Z" fill="#737373"></path><path d="M49.9612 166.814L47.1334 168.442L44.2925 170.085L31.412 177.524L28.7988 176.01L27.5277 175.282L25.6715 174.211L25.5286 174.297L25.5141 174.111L24.4432 173.498L23.3867 158.932L36.6094 151.307L37.0235 151.064L39.8513 149.436L42.6784 147.794L45.5201 146.166L48.3334 144.538L48.4327 145.952L48.5901 147.994V148.008L49.3608 158.661L49.9612 166.814Z" fill="#1F2125"></path><path d="M27.536 175.282L25.6798 174.211L25.5369 174.296L25.5224 174.111L24.4805 159.803L26.4795 160.774L27.3794 173.225L27.536 175.282Z" fill="#4D4D4D"></path><path d="M26.4814 160.767L24.4766 159.797L49.4203 145.396L51.4259 146.366L26.4814 160.767Z" fill="#737373"></path><path d="M52.7831 165.172L49.9704 166.814L47.1426 168.442L44.3017 170.084L31.4212 177.524L28.808 176.01L27.5369 175.282L27.3803 173.226L26.4805 160.774L37.2901 154.533L39.7605 153.106L40.1172 152.906L42.6304 151.45L42.9451 151.264L45.7722 149.636L48.5993 148.008L51.4264 146.366L52.4408 160.431L52.7831 165.172Z" fill="#1F2125"></path><path d="M33.5084 169.777L37.1142 170.119V171.723L31.0547 171.194L37.1142 163.683V165.289L33.5084 169.777Z" fill="#F2F2F2"></path><path d="M39.8449 172.342L38.6797 173.014C39.8311 168.783 40.6904 165.613 41.2574 163.502L42.5459 158.746L43.7118 158.073L39.8449 172.342Z" fill="#F2F2F2"></path><path d="M48.6157 161.054L44.9961 160.72V159.131L51.0694 159.637L44.9961 167.171V165.551L48.6157 161.054Z" fill="#F2F2F2"></path><path d="M36.8521 253.834C35.8993 254.384 34.3694 254.384 33.4224 253.834L8.48519 239.342C7.55055 238.799 7.55563 237.913 8.50912 237.363L33.6095 222.871C34.5499 222.328 36.0922 222.321 37.0268 222.864L61.9641 237.355C62.9111 237.906 62.8937 238.799 61.9532 239.342L36.8521 253.834Z" fill="#F2F2F2"></path><path d="M36.7171 251.613L59.4871 238.467C59.9178 238.218 60.1353 237.888 60.1346 237.558L60.1222 235.26C60.123 235.59 59.9054 235.92 59.4747 236.168L36.7048 249.315C35.8405 249.814 34.4527 249.814 33.5934 249.315L10.9714 236.168C10.5516 235.925 10.3406 235.604 10.3398 235.282L10.3522 237.58C10.3529 237.902 10.5639 238.222 10.9837 238.466L33.6058 251.613C34.465 252.113 35.8528 252.113 36.7171 251.613Z" fill="#FFAD66"></path><path d="M36.7047 249.316C35.8404 249.814 34.4526 249.814 33.5934 249.316L10.9713 236.169C10.1237 235.676 10.1281 234.873 10.9924 234.373L33.7623 221.227C34.6158 220.734 36.0145 220.727 36.8621 221.221L59.4841 234.367C60.3433 234.866 60.3274 235.677 59.474 236.169L36.7047 249.316Z" fill="#FFD166"></path><path d="M39.5313 230.826C42.0357 230.206 44.3473 229.882 46.4646 229.851L47.1788 231.304C45.1645 231.394 43.0777 231.721 40.9184 232.287C38.7583 232.852 36.7186 233.689 34.7972 234.798C32.8764 235.907 31.4226 237.087 30.4372 238.338C29.4511 239.588 28.8877 240.791 28.7463 241.946L26.207 241.546C26.2737 240.316 26.8437 238.977 27.9168 237.531C28.9899 236.085 30.5684 234.761 32.6494 233.559C34.7326 232.357 37.0261 231.446 39.5313 230.826Z" fill="white"></path><path d="M80.1478 55.0418L74.875 58.1061C74.8931 58.0959 74.9098 58.0829 74.9258 58.0669L80.1986 55.0027C80.1826 55.0186 80.166 55.031 80.1478 55.0418Z" fill="black"></path><path d="M67.9023 43.3019L73.1752 40.2377C73.231 40.2051 73.3014 40.1942 73.3818 40.2109L68.109 43.2751C68.0285 43.2591 67.9582 43.27 67.9023 43.3019Z" fill="black"></path><path d="M76.0536 56.9417L81.3264 53.8767L80.2025 55.0028L74.9297 58.067L76.0536 56.9417Z" fill="black"></path><path d="M68.1094 43.2751L73.3822 40.2109L75.1964 40.5821L69.9228 43.6471L68.1094 43.2751Z" fill="black"></path><path d="M87.7689 61.1137L82.4961 64.178C82.5875 64.125 82.644 64.0112 82.644 63.848L87.9169 60.7838C87.9169 60.947 87.8603 61.0601 87.7689 61.1137Z" fill="black"></path><path d="M82.6472 61.6641L87.92 58.5999L87.9135 60.7838L82.6406 63.848L82.6472 61.6641Z" fill="black"></path><path d="M68.8945 35.0149L74.1674 31.9507C74.2624 31.8956 74.3929 31.9072 74.5299 31.9862C74.5828 32.0167 74.6372 32.058 74.6902 32.1088L69.4173 35.173C69.3637 35.1223 69.31 35.0809 69.2571 35.0505C69.1208 34.9714 68.9895 34.9598 68.8945 35.0149Z" fill="black"></path><path d="M69.4258 35.173L74.6986 32.1088L76.5048 33.8272L71.232 36.8914L69.4258 35.173Z" fill="black"></path><path d="M75.2666 39.1559L80.5395 36.0917C79.1879 36.8769 78.3497 38.5461 78.3432 40.9193C78.3294 45.7027 81.6931 51.5281 85.8558 53.931L80.583 56.9953C76.4203 54.5923 73.0573 48.7662 73.0704 43.9835C73.0769 41.6103 73.9151 39.9412 75.2666 39.1559Z" fill="black"></path><path d="M91.2101 54.4545L85.9373 57.5188C84.5676 58.3149 82.6707 58.2033 80.5781 56.9953L85.851 53.931C87.9436 55.139 89.8397 55.2507 91.2101 54.4545Z" fill="black"></path><path d="M94.7963 61.3798L89.5234 64.444C89.6975 64.3432 89.7286 64.0394 89.5778 63.711L94.8507 60.6467C95.0015 60.9745 94.9703 61.2783 94.7963 61.3798Z" fill="black"></path><path d="M88.4688 61.2943L93.7423 58.2301L94.8597 60.6461L89.5868 63.711L88.4688 61.2943Z" fill="black"></path><path d="M89.9907 59.7854L95.2635 56.7212C94.8379 57.3397 94.3275 57.8415 93.7416 58.2301L88.4688 61.2943C89.0546 60.9064 89.5651 60.4039 89.9907 59.7854Z" fill="black"></path><path d="M74.9961 32.0971L80.2689 29.0329L81.3834 31.4474L76.1098 34.5117L74.9961 32.0971Z" fill="black"></path><path d="M79.863 28.5522C79.7586 28.492 79.6528 28.4681 79.5607 28.492L77.0163 29.1439C76.9931 29.1497 76.9721 29.1591 76.9525 29.17L71.6797 32.2342C71.6993 32.2226 71.7203 32.2139 71.7435 32.2081L74.2878 31.5562C74.3799 31.5323 74.4858 31.5555 74.5902 31.6164C74.7468 31.7071 74.9013 31.8796 75.0006 32.0972L80.2734 29.0329C80.1741 28.8154 80.0197 28.6428 79.863 28.5522Z" fill="#666666"></path><path d="M97.5893 58.5941L92.3164 61.6583C92.3708 61.6264 92.4143 61.5727 92.439 61.4981L97.7118 58.4338C97.6871 58.5085 97.6444 58.5622 97.5893 58.5941Z" fill="black"></path><path d="M76.1211 34.5117L81.3939 31.4474C82.1625 31.483 82.979 31.6439 83.836 31.9463L78.5632 35.0105C77.7069 34.7082 76.8904 34.5472 76.1211 34.5117Z" fill="black"></path><path d="M93.4239 58.6289L98.6967 55.5647L97.715 58.4332L92.4414 61.4981L93.4239 58.6289Z" fill="black"></path><path d="M98.36 54.6322L96.5502 52.9116L91.2773 55.9758L93.0872 57.6964C93.3562 57.9538 93.5019 58.3678 93.4164 58.6289L98.6892 55.5647C98.7755 55.3036 98.6297 54.8896 98.36 54.6322Z" fill="#666666"></path><path d="M91.2814 53.0283L96.5543 49.9641C96.6043 50.476 96.6297 50.9857 96.6289 51.4795C96.6275 51.9812 96.5985 52.4598 96.5463 52.9123L91.2734 55.9765C91.3256 55.524 91.3546 55.0455 91.3561 54.5437C91.3568 54.0499 91.3314 53.5402 91.2814 53.0283Z" fill="black"></path><path d="M82.7188 37.4121L87.9916 34.3478C88.8472 35.0345 89.6622 35.8147 90.4322 36.6681L85.1594 39.7323C84.3894 38.8789 83.5751 38.0987 82.7188 37.4121Z" fill="black"></path><path d="M82.7253 35.2244L87.9981 32.1595L87.9923 34.3478L82.7188 37.412L82.7253 35.2244Z" fill="black"></path><path d="M87.4909 31.2764L84.3556 29.4658C84.2127 29.3832 84.0844 29.3759 83.9916 29.4296L78.7188 32.4938C78.8116 32.4401 78.9406 32.4474 79.0835 32.53L82.2187 34.3406C82.5015 34.5045 82.7299 34.8989 82.7292 35.2245L88.0021 32.1602C88.0021 31.8347 87.7737 31.4395 87.4909 31.2764Z" fill="#666666"></path><path d="M88.5117 44.4831L93.7846 41.4189C94.3661 42.4768 94.8722 43.5702 95.2928 44.6774L90.0199 47.7417C89.5994 46.6344 89.0932 45.5417 88.5117 44.4831Z" fill="black"></path><path d="M98.5775 50.3085L93.3047 53.3727C93.4359 53.2966 93.4903 53.1015 93.4309 52.8499L98.7037 49.7857C98.7632 50.0366 98.7088 50.2324 98.5775 50.3085Z" fill="black"></path><path d="M92.4688 48.8576L97.7416 45.7933L98.7045 49.7857L93.4317 52.8499L92.4688 48.8576Z" fill="black"></path><path d="M97.261 45.1089C97.2081 45.0784 97.1544 45.0566 97.1022 45.0465L95.2924 44.6767L90.0195 47.7409L91.8301 48.1107C91.883 48.1209 91.9367 48.1426 91.9889 48.1723C92.2028 48.2956 92.4029 48.569 92.4703 48.8568L97.7432 45.7926C97.675 45.5055 97.4749 45.2321 97.261 45.1089Z" fill="#666666"></path><path d="M89.6392 43.3629L94.9121 40.2986L93.7846 41.4189L88.5117 44.4831L89.6392 43.3629Z" fill="black"></path><path d="M93.0836 57.6964C93.3526 57.9538 93.4983 58.3678 93.4128 58.6281L92.4303 61.4973C92.3607 61.7039 92.1591 61.7474 91.9445 61.6235C91.8923 61.5937 91.8393 61.5531 91.7878 61.5031L89.9817 59.7846C89.556 60.4031 89.0456 60.9056 88.4597 61.2935L89.5771 63.7095C89.7438 64.0728 89.688 64.4056 89.4625 64.468L86.9145 65.1177C86.8246 65.1423 86.7202 65.1184 86.6158 65.0582C86.4584 64.9676 86.3018 64.7928 86.2018 64.5767L85.0909 62.1607C84.3187 62.1274 83.5023 61.9657 82.6452 61.6641L82.6387 63.848C82.638 64.1772 82.4088 64.3041 82.1253 64.141L78.99 62.3304C78.7065 62.1673 78.4788 61.7765 78.4796 61.4473L78.4854 59.2633C77.6298 58.5766 76.8148 57.7964 76.0483 56.9416L74.9245 58.0676C74.8229 58.1677 74.6678 58.1626 74.5104 58.0712C74.4067 58.0111 74.3016 57.9139 74.211 57.7848L71.6782 54.2022C71.4506 53.8781 71.3969 53.4822 71.5644 53.3118L72.6919 52.1915C72.1104 51.1293 71.6043 50.0402 71.1873 48.9351L69.3768 48.5653C69.3239 48.5545 69.2702 48.5334 69.218 48.503C69.0019 48.3783 68.8011 48.102 68.7329 47.8163L67.77 43.8247C67.6852 43.4658 67.8331 43.2214 68.1028 43.2751L69.9163 43.6471C69.8699 43.1373 69.8409 42.6254 69.8416 42.1237C69.843 41.6299 69.8749 41.1535 69.9242 40.6989L68.1144 38.9782C67.8454 38.7208 67.6997 38.3068 67.786 38.0465L68.7677 35.1773C68.8366 34.9685 69.0375 34.9264 69.2535 35.0511C69.3065 35.0816 69.3608 35.1229 69.4138 35.1737L71.22 36.8921C71.642 36.2722 72.1524 35.7653 72.7383 35.3811L71.621 32.9651C71.4549 32.6018 71.51 32.269 71.7391 32.2088L74.2835 31.5569C74.3756 31.533 74.4814 31.5562 74.5858 31.6171C74.7425 31.7078 74.8969 31.8803 74.9962 32.0979L76.11 34.5124C76.8793 34.5479 77.695 34.7089 78.5521 35.0113L78.5586 32.8237C78.5593 32.4981 78.7892 32.3676 79.072 32.5315L82.2073 34.342C82.49 34.5059 82.7184 34.9003 82.717 35.2259L82.7105 37.4135C83.5661 38.1001 84.3811 38.8803 85.1511 39.7338L86.2721 38.6099C86.3729 38.5076 86.5288 38.5142 86.6854 38.6048C86.7905 38.665 86.8957 38.7636 86.9856 38.8927L89.5212 42.4775C89.746 42.7994 89.7997 43.1961 89.6314 43.3657L88.5039 44.486C89.0854 45.5446 89.5915 46.6373 90.0121 47.7445L91.8227 48.1143C91.8756 48.1245 91.9285 48.1462 91.9814 48.176C92.1953 48.2992 92.3955 48.5726 92.4629 48.8605L93.4258 52.8521C93.5099 53.211 93.3627 53.4553 93.093 53.4017L91.2796 53.0297C91.3296 53.5416 91.3557 54.0514 91.3542 54.5451C91.3528 55.0469 91.3238 55.5255 91.2716 55.9779L93.0836 57.6964ZM80.578 56.9952C84.7371 59.3967 88.1225 57.4672 88.1363 52.6838C88.1501 47.9048 84.7864 42.083 80.6273 39.6816C76.4645 37.2786 73.0791 39.2037 73.0661 43.9828C73.0516 48.7662 76.4152 54.5916 80.578 56.9952Z" fill="#333333"></path><path d="M94.8018 39.4104L92.2661 35.8256C92.1762 35.6965 92.0711 35.5986 91.966 35.5377C91.834 35.4616 91.7035 35.4449 91.6049 35.5022L86.332 38.5664C86.4299 38.5091 86.5612 38.5258 86.6931 38.6019C86.7983 38.6621 86.9034 38.7607 86.9933 38.8898L89.5289 42.4746C89.7537 42.7966 89.8074 43.1932 89.6392 43.3629L94.912 40.2986C95.0802 40.129 95.0266 39.7324 94.8018 39.4104Z" fill="#666666"></path><path d="M70.8945 17.9478L77.1724 14.2991C77.189 14.2897 77.2072 14.2817 77.2267 14.2767L70.9489 17.9253C70.9286 17.9311 70.9112 17.9384 70.8945 17.9478Z" fill="#4D4BB7"></path><path d="M85.1372 25.7606L78.8594 29.4092C78.9058 29.3824 78.942 29.3367 78.9638 29.2729L85.2416 25.6243C85.2199 25.6881 85.1836 25.7338 85.1372 25.7606Z" fill="#4D4BB7"></path><path d="M70.9453 17.926L77.2239 14.2774L78.5392 13.938L72.2606 17.5867L70.9453 17.926Z" fill="#4D4BB7"></path><path d="M79.4656 27.7873L85.7434 24.1393L85.2388 25.6243L78.9609 29.2722L79.4656 27.7873Z" fill="#4D4BB7"></path><path d="M69.6719 9.7681L75.9497 6.11945C76.0294 6.07304 76.1411 6.08102 76.2644 6.15208L69.9866 9.80072C69.8633 9.72966 69.7516 9.72169 69.6719 9.7681Z" fill="#4D4BB7"></path><path d="M69.9883 9.80075L76.2668 6.15283L77.8874 7.0882L71.6096 10.7368L69.9883 9.80075Z" fill="#4D4BB7"></path><path d="M91.7036 28.5979L85.4258 32.2466C85.5367 32.182 85.5831 32.016 85.5324 31.8006L91.8102 28.152C91.8609 28.3673 91.8138 28.5334 91.7036 28.5979Z" fill="#4D4BB7"></path><path d="M85.0312 29.7428L91.3098 26.0942L91.8043 28.152L85.5265 31.7999L85.0312 29.7428Z" fill="#4D4BB7"></path><path d="M91.4133 22.1417L85.1355 25.7903C83.9681 26.469 82.3526 26.3733 80.5703 25.3444L86.8481 21.6965C88.6304 22.7246 90.2459 22.8204 91.4133 22.1417Z" fill="#4D4BB7"></path><path d="M76.0463 10.1378L82.3241 6.4892C81.1712 7.15918 80.4563 8.58398 80.4505 10.6084C80.4389 14.6834 83.3059 19.6488 86.8515 21.6965L80.5737 25.3444C77.0273 23.2968 74.1603 18.3313 74.1719 14.2563C74.1784 12.2319 74.8934 10.8078 76.0463 10.1378Z" fill="#4D4BB7"></path><path d="M72.5078 4.51625L78.7856 0.867601C78.8697 0.818295 78.9829 0.832071 79.0974 0.898054C79.1859 0.94881 79.2751 1.03147 79.3519 1.14096L73.0741 4.78961C72.9973 4.68012 72.9081 4.59818 72.8196 4.5467C72.705 4.48072 72.5919 4.46694 72.5078 4.51625Z" fill="#9996FF"></path><path d="M94.9575 27.7626L88.6797 31.4112C88.6949 31.4025 88.7101 31.3909 88.7232 31.3779L95.001 27.7292C94.9872 27.7423 94.9727 27.7532 94.9575 27.7626Z" fill="#4D4BB7"></path><path d="M73.0703 4.78963L79.3481 1.14099L80.6569 2.99577L74.3791 6.64369L73.0703 4.78963Z" fill="#4D4BB7"></path><path d="M74.3828 6.64364L80.6606 2.99572C81.1986 2.73541 81.7932 2.57879 82.432 2.53601L76.1542 6.18465C75.5154 6.22671 74.9208 6.38405 74.3828 6.64364Z" fill="#4D4BB7"></path><path d="M90.3058 29.7972L96.5844 26.1486L95.0051 27.7285L88.7266 31.3772L90.3058 29.7972Z" fill="#4D4BB7"></path><path d="M96.485 25.3966L95.1762 23.5419L88.8984 27.1905L90.2079 29.0453C90.4023 29.3215 90.4458 29.6594 90.3037 29.7972L96.5815 26.1486C96.7236 26.0115 96.6794 25.6729 96.485 25.3966Z" fill="#9996FF"></path><path d="M89.5754 25.19L95.8532 21.5413C95.7089 22.2998 95.4791 22.9661 95.1723 23.5418L88.8945 27.1905C89.2005 26.6148 89.4304 25.9484 89.5754 25.19Z" fill="#4D4BB7"></path><path d="M79.0352 4.81356L85.313 1.16492L85.8075 3.22707L79.5297 6.87572L79.0352 4.81356Z" fill="#4D4BB7"></path><path d="M84.9035 0.579021C84.8578 0.552917 84.8121 0.534789 84.7664 0.526088L82.2206 0.00547533C82.1532 -0.00685118 82.0945 0.00185057 82.0473 0.0294039L75.7695 3.67732C75.8167 3.64977 75.8754 3.64035 75.9428 3.6534L78.4886 4.17401C78.5343 4.18271 78.58 4.20084 78.6257 4.22694C78.8084 4.33208 78.978 4.56556 79.036 4.81281L85.3139 1.16489C85.2559 0.917636 85.0855 0.684159 84.9035 0.579021Z" fill="#9996FF"></path><path d="M97.7856 22.5093L91.5078 26.158C91.5861 26.1123 91.634 26.0166 91.634 25.8803L97.9118 22.2316C97.9118 22.3672 97.8632 22.4637 97.7856 22.5093Z" fill="#4D4BB7"></path><path d="M79.5312 6.8757L85.8091 3.22705C86.1709 3.38875 86.5327 3.56494 86.9061 3.78102C87.2759 3.99419 87.637 4.23565 87.9988 4.49088L81.721 8.13952C81.3599 7.88429 80.9981 7.64284 80.6283 7.42967C80.2542 7.21359 79.8923 7.03739 79.5312 6.8757Z" fill="#4D4BB7"></path><path d="M88.9258 18.34L95.2036 14.6914C95.506 15.6188 95.7315 16.5484 95.8714 17.4707L89.5936 21.1193C89.4536 20.197 89.2281 19.2682 88.9258 18.34Z" fill="#4D4BB7"></path><path d="M91.6532 22.8081L97.931 19.1594L97.9224 22.2309L91.6445 25.8795L91.6532 22.8081Z" fill="#4D4BB7"></path><path d="M97.4882 18.4068L95.8677 17.4714L89.5898 21.1201L91.2104 22.0554C91.454 22.1961 91.6484 22.5282 91.6476 22.8081L97.9255 19.1594C97.9262 18.8796 97.7319 18.5482 97.4882 18.4068Z" fill="#9996FF"></path><path d="M85.082 11.3415L91.3599 7.69287C91.9965 8.47162 92.5882 9.31344 93.1225 10.193L86.8447 13.8416C86.3111 12.9628 85.7187 12.121 85.082 11.3415Z" fill="#4D4BB7"></path><path d="M85.5867 9.86087L91.8652 6.21295L91.3606 7.69358L85.082 11.3415L85.5867 9.86087Z" fill="#4D4BB7"></path><path d="M91.5904 5.41611L89.0497 3.00012C89.004 2.95589 88.9583 2.92108 88.9127 2.89498C88.7974 2.82827 88.6872 2.81884 88.6059 2.86525L82.3281 6.51317C82.4086 6.46604 82.5196 6.47619 82.6348 6.5429C82.6805 6.569 82.7269 6.60381 82.7719 6.64804L85.3119 9.06403C85.5388 9.28373 85.6643 9.63685 85.5903 9.8609L91.8681 6.21226C91.9428 5.98893 91.8174 5.63582 91.5904 5.41611Z" fill="#9996FF"></path><path d="M86.8477 13.8416L93.1255 10.193L94.4408 9.85364L88.163 13.5023L86.8477 13.8416Z" fill="#4D4BB7"></path><path d="M91.2127 22.0554C91.4563 22.1961 91.6506 22.5282 91.6499 22.808L91.6412 25.8795C91.6405 26.1551 91.4447 26.2667 91.2011 26.1253L89.5805 25.1892C89.4362 25.9477 89.2064 26.614 88.8997 27.1898L90.2084 29.0445C90.4028 29.3208 90.447 29.6587 90.3041 29.7964L88.7249 31.3764C88.6386 31.462 88.5052 31.4576 88.3696 31.3793C88.2812 31.3286 88.192 31.2459 88.1151 31.1364L86.8063 29.2824C86.2683 29.5419 85.6737 29.6993 85.0349 29.7421L85.5294 31.7999C85.6019 32.108 85.4751 32.3154 85.2474 32.2683L82.7016 31.752C82.6574 31.7426 82.6131 31.7252 82.5689 31.6998C82.3847 31.5932 82.2122 31.3583 82.1542 31.1139L81.6596 29.0518C81.2978 28.8901 80.9367 28.7088 80.5669 28.4956C80.1928 28.2796 79.8317 28.0432 79.4706 27.788L78.9659 29.2737C78.9065 29.4506 78.7332 29.4861 78.549 29.3795C78.5048 29.3541 78.4606 29.3208 78.4163 29.2795L75.8756 26.8591C75.6487 26.6438 75.5232 26.2914 75.5972 26.0673L76.1018 24.5867C75.4652 23.8079 74.8735 22.9661 74.3391 22.0866L73.0238 22.4259C72.947 22.4462 72.8571 22.4252 72.7686 22.3744C72.6337 22.2969 72.5003 22.1475 72.4148 21.9619L70.8493 18.5663C70.7079 18.2646 70.7536 17.9775 70.9486 17.9267L72.2639 17.5874C71.9616 16.66 71.7361 15.7305 71.5969 14.8081L69.9763 13.8728C69.7327 13.7321 69.5383 13.3957 69.5391 13.1201L69.5478 10.0487C69.5485 9.76878 69.7443 9.66219 69.9879 9.80286L71.6085 10.7389C71.7528 9.98123 71.9826 9.31415 72.2893 8.73842L70.9805 6.88365C70.7862 6.60739 70.7427 6.2695 70.8848 6.12738L72.4641 4.55176C72.5504 4.4662 72.6838 4.47055 72.8194 4.54886C72.9078 4.59962 72.997 4.68228 73.0739 4.79177L74.3827 6.64582C74.9207 6.38624 75.5152 6.2289 76.154 6.18684L75.6595 4.12904C75.587 3.82088 75.7139 3.6135 75.9416 3.65628L78.4874 4.1769C78.5331 4.1856 78.5787 4.20372 78.6244 4.22983C78.8071 4.33496 78.9768 4.56844 79.0348 4.8157L79.5293 6.87785C79.8912 7.03954 80.2522 7.21574 80.6264 7.43182C80.9962 7.64499 81.3573 7.88645 81.7191 8.14168L82.2238 6.65597C82.2825 6.47688 82.4536 6.4399 82.6363 6.54503C82.682 6.57114 82.7284 6.60594 82.7734 6.65017L85.3134 9.06617C85.5403 9.28587 85.6658 9.63899 85.5918 9.86304L85.0871 11.3437C85.7238 12.1224 86.3154 12.9642 86.8498 13.8438L88.1651 13.5044C88.2427 13.4841 88.3319 13.5052 88.4204 13.5559C88.5552 13.6342 88.6887 13.7829 88.7742 13.9685L90.3397 17.3597C90.4811 17.6657 90.4354 17.9529 90.2403 18.0036L88.925 18.3429C89.2274 19.2703 89.4529 20.1999 89.5928 21.1222L91.2127 22.0554ZM80.5756 25.3444C84.1177 27.3899 87.0035 25.7454 87.0152 21.6704C87.0268 17.5954 84.1597 12.63 80.6177 10.5845C77.0713 8.53685 74.1862 10.1814 74.1746 14.2564C74.1622 18.3313 77.0292 23.2968 80.5756 25.3444Z" fill="#6865F7"></path><path d="M96.6157 13.7089L95.051 10.3177C94.9654 10.1328 94.832 9.9834 94.6971 9.90509C94.6086 9.85433 94.5195 9.83331 94.4419 9.85361L88.1641 13.5023C88.2416 13.482 88.3308 13.503 88.4193 13.5537C88.5542 13.632 88.6876 13.7807 88.7731 13.9663L90.3386 17.3576C90.4662 17.6331 90.4416 17.8934 90.2929 17.9789L96.5707 14.3303C96.7187 14.244 96.7433 13.9844 96.6157 13.7089Z" fill="#9996FF"></path></svg>