<svg xmlns="http://www.w3.org/2000/svg" width="500" height="300" viewBox="0 0 500 300" fill="none"><rect width="500" height="300" rx="24" fill="white"></rect><path d="M356.805 215.344C356.456 218.724 358.14 222.88 355.564 225.096C354.021 226.424 351.591 226.262 350.04 227.58C347.424 229.804 349.154 234.088 351.33 236.745C353.506 239.402 356.17 242.694 354.82 245.852C354.136 247.454 352.561 248.48 351.561 249.906C349.338 253.073 350.409 257.602 352.741 260.689C358.752 268.645 371.342 269.124 379.796 263.838C382.863 261.92 385.646 259.219 386.655 255.746C387.663 252.273 386.407 247.992 383.168 246.382C381.859 245.732 380.178 245.406 379.558 244.083C378.496 241.819 381.482 239.972 383.34 238.299C386.852 235.138 386.564 228.739 382.781 225.907C381.178 224.707 379.008 223.969 378.255 222.114C377.72 220.799 378.085 219.315 378.109 217.895C378.287 207.155 357.946 204.27 356.805 215.344Z" fill="#5BB59B"></path><path d="M367.491 222.053H366.938V266.404H367.491V222.053Z" fill="#0553DD"></path><path d="M367.191 239.571L357.797 231.681L358.153 231.256L367.219 238.872L378.49 230.873L378.81 231.325L367.191 239.571Z" fill="#0553DD"></path><path d="M367.191 258.401L357.797 250.51L358.153 250.086L367.219 257.702L378.49 249.703L378.81 250.155L367.191 258.401Z" fill="#0553DD"></path><path d="M135.024 114.077C134.395 120.182 137.436 127.69 132.783 131.693C129.997 134.091 125.607 133.797 122.806 136.178C118.081 140.196 121.205 147.936 125.135 152.734C129.066 157.532 133.879 163.48 131.441 169.183C130.205 172.077 127.36 173.93 125.552 176.506C121.537 182.227 123.472 190.408 127.685 195.984C138.541 210.354 161.282 211.217 176.553 201.67C182.092 198.207 187.12 193.327 188.942 187.054C190.763 180.78 188.495 173.047 182.645 170.141C180.281 168.966 177.244 168.378 176.124 165.988C174.207 161.899 179.599 158.562 182.956 155.541C189.302 149.832 188.78 138.274 181.947 133.159C179.052 130.992 175.133 129.658 173.772 126.308C172.806 123.932 173.464 121.252 173.507 118.687C173.828 99.2855 137.086 94.073 135.024 114.077Z" fill="#63A590"></path><path d="M154.305 126.196H153.305V255.239H154.305V126.196Z" fill="#0553DD"></path><path d="M153.777 157.838L136.809 143.585L137.452 142.819L153.829 156.574L174.186 142.126L174.766 142.943L153.777 157.838Z" fill="#0553DD"></path><path d="M153.777 191.85L136.809 177.596L137.452 176.83L153.829 190.586L174.186 176.138L174.766 176.954L153.777 191.85Z" fill="#0553DD"></path><mask id="mask0_2332_347" style="mask-type:luminance" maskUnits="userSpaceOnUse" x="172" y="11" width="27" height="22"><path d="M180.492 32.3801L172.3 32.648C172.018 21.2422 179.954 11.8197 190.017 11.5931L198.209 11.3252C188.146 11.5508 180.211 20.9743 180.492 32.3801Z" fill="white"></path></mask><g mask="url(#mask0_2332_347)"><path d="M180.492 32.3801L172.3 32.648C172.209 28.954 172.98 25.4676 174.406 22.4343L182.598 22.1664C181.172 25.1997 180.401 28.686 180.492 32.3801Z" fill="#15289E"></path><path d="M182.602 22.1664L174.41 22.4344C175.56 19.989 177.135 17.8386 179.028 16.1107L187.219 15.8428C185.327 17.5707 183.752 19.7211 182.602 22.1664Z" fill="#15289E"></path><path d="M187.211 15.8427L179.02 16.1107C182.028 13.3651 185.838 11.6866 190.014 11.5931L198.205 11.3252C194.029 11.4187 190.219 13.0971 187.211 15.8427Z" fill="#15289E"></path></g><path d="M185.9 251.547L177.709 251.815L172.293 32.647L180.485 32.38L185.9 251.547Z" fill="#15289E"></path><mask id="mask1_2332_347" style="mask-type:luminance" maskUnits="userSpaceOnUse" x="177" y="251" width="28" height="22"><path d="M204.648 271.783L196.456 272.051C186.393 272.277 178 263.214 177.719 251.815L185.911 251.547C186.192 262.946 194.585 272.01 204.648 271.783Z" fill="white"></path></mask><g mask="url(#mask1_2332_347)"><path d="M204.648 271.783L196.456 272.051C186.393 272.277 178 263.214 177.719 251.815L185.911 251.547C186.192 262.946 194.585 272.01 204.648 271.783Z" fill="#15289E"></path></g><path d="M277.908 52.8273L278.083 59.9007L243.105 60.6865L242.93 53.613L277.908 52.8273Z" fill="#AFC6F5"></path><path d="M231.323 50.9285C234.713 50.8521 237.563 53.9303 237.657 57.7691L238.385 87.2451C238.48 91.0839 235.785 94.2781 232.396 94.3546L201.666 95.045C198.276 95.1214 195.427 92.0513 195.332 88.2125L194.604 58.7365C194.51 54.8977 197.204 51.6954 200.592 51.6199L231.323 50.9285Z" fill="#F6A091"></path><path d="M285.319 39.6153L290.178 236.262L192.715 238.451L187.855 41.8044L285.319 39.6153ZM283.993 217.449L282.072 139.743L196.647 141.662L198.567 219.368L283.993 217.449ZM194.598 58.7355L195.326 88.2116C195.422 92.0504 198.271 95.1205 201.66 95.0441L232.389 94.3537C235.778 94.2772 238.473 91.083 238.378 87.2442L237.65 57.7682C237.556 53.9294 234.706 50.8521 231.317 50.9285L200.586 51.6189C197.198 51.6945 194.503 54.8968 194.598 58.7355ZM282.961 129.159L282.787 122.086L196.212 124.031L196.386 131.104L282.961 129.159ZM282.641 116.207L282.467 109.134L195.892 111.079L196.066 118.152L282.641 116.207ZM243.248 66.5651L243.423 73.6376L278.401 72.8519L278.226 65.7793L243.248 66.5651ZM242.928 53.613L243.103 60.6855L278.081 59.8998L277.906 52.8272L242.928 53.613Z" fill="white"></path><path d="M278.224 65.7802L278.399 72.8528L243.421 73.6385L243.246 66.5651L278.224 65.7802Z" fill="#AFC6F5"></path><path d="M240.872 17.5616C241.766 17.5418 242.515 18.3491 242.54 19.3695C242.565 20.3818 241.857 21.2224 240.964 21.243C240.063 21.2628 239.315 20.4555 239.29 19.4423C239.264 18.4228 239.971 17.5823 240.872 17.5616Z" fill="#15289E"></path><path d="M249.821 26.2666C250.382 26.2541 250.852 26.762 250.868 27.3976C250.884 28.0332 250.439 28.5618 249.877 28.5744L232.391 28.9673C231.83 28.9799 231.36 28.4719 231.344 27.8363C231.329 27.2007 231.773 26.6721 232.335 26.6595L249.821 26.2666Z" fill="#15289E"></path><path d="M242.686 243.228C247.177 243.127 250.939 247.182 251.065 252.276C251.191 257.362 247.634 261.581 243.143 261.682C238.652 261.783 234.89 257.728 234.765 252.642C234.638 247.548 238.195 243.329 242.686 243.228Z" fill="white"></path><path d="M223.432 25.7839C224.479 25.7605 225.355 26.7072 225.384 27.8921C225.414 29.0851 224.585 30.0623 223.538 30.0857C222.492 30.109 221.615 29.1705 221.587 27.9775C221.557 26.7917 222.386 25.8072 223.432 25.7839Z" fill="#15289E"></path><path d="M282.066 139.743L283.986 217.449L198.561 219.367L196.641 141.662L282.066 139.743Z" fill="#AFC6F5"></path><path d="M273.407 9.63584C283.47 9.41019 291.863 18.466 292.145 29.8718L297.56 249.04C297.842 260.438 289.906 269.868 279.843 270.095L204.641 271.784C194.578 272.01 186.185 262.947 185.903 251.548L180.488 32.38C180.205 20.9742 188.142 11.5516 198.205 11.3251L273.407 9.63584ZM290.805 236.931L285.913 38.9186L187.237 41.1347L192.129 239.147L290.805 236.931ZM243.157 262.365C247.98 262.257 251.8 257.726 251.666 252.262C251.531 246.791 247.491 242.436 242.667 242.545C237.844 242.653 234.024 247.185 234.159 252.656C234.294 258.119 238.333 262.473 243.157 262.365ZM232.34 26.6596C231.779 26.6722 231.334 27.2008 231.35 27.8364C231.367 28.472 231.836 28.98 232.398 28.9674L249.884 28.5745C250.445 28.5619 250.89 28.0333 250.873 27.3977C250.858 26.7621 250.388 26.2541 249.826 26.2667L232.34 26.6596ZM223.436 25.784C222.389 25.8073 221.56 26.7918 221.59 27.9776C221.62 29.1706 222.495 30.1091 223.542 30.0858C224.588 30.0624 225.417 29.0851 225.387 27.8922C225.359 26.7063 224.482 25.7606 223.436 25.784ZM240.867 17.5616C239.966 17.5813 239.258 18.4219 239.283 19.4432C239.309 20.4555 240.057 21.2637 240.957 21.243C241.851 21.2233 242.559 20.3827 242.533 19.3695C242.508 18.3491 241.76 17.5418 240.867 17.5616Z" fill="#0D62F9"></path><path d="M282.466 109.135L282.64 116.207L196.065 118.152L195.891 111.079L282.466 109.135Z" fill="#AFC6F5"></path><path d="M282.79 122.087L282.964 129.159L196.389 131.104L196.215 124.031L282.79 122.087Z" fill="#AFC6F5"></path><path d="M328.279 291.24C364.419 291.24 393.715 286.747 393.715 281.206C393.715 275.664 364.419 271.172 328.279 271.172C292.14 271.172 262.844 275.664 262.844 281.206C262.844 286.747 292.14 291.24 328.279 291.24Z" fill="#E0E4ED"></path><path d="M354.056 160.409L350.536 134.191C350.536 134.191 327.81 130.357 320.453 121.252C313.584 112.754 309.529 105.399 309.529 105.399L298.188 114.124C298.188 114.124 310.402 144.661 333.959 156.003" fill="#E26356"></path><path d="M303.279 79.7105L297.197 79.1064C297.005 79.0875 296.811 79.0803 296.615 79.0866C296.597 79.0866 296.579 79.092 296.562 79.0929C296.304 79.1037 296.043 79.1315 295.78 79.1873L271.848 84.2262C271.754 84.246 271.661 84.2685 271.568 84.2937C271.515 84.3081 271.465 84.3332 271.413 84.3494C271.264 84.3953 271.118 84.4465 270.974 84.5058C270.885 84.5418 270.796 84.5787 270.709 84.6191C270.561 84.6883 270.416 84.7675 270.272 84.8511C270.216 84.8834 270.158 84.9068 270.102 84.941C270.082 84.9535 270.065 84.9697 270.045 84.9823C269.816 85.1289 269.593 85.288 269.378 85.4669C269.348 85.4921 269.32 85.5217 269.29 85.5478C269.106 85.706 268.928 85.8759 268.755 86.0566C268.691 86.1241 268.63 86.1951 268.567 86.2652C268.43 86.4198 268.297 86.5808 268.168 86.7489C268.109 86.8262 268.05 86.9017 267.993 86.9817C267.847 87.1849 267.709 87.3971 267.577 87.6164C267.553 87.6551 267.526 87.6893 267.504 87.7279C267.498 87.7369 267.495 87.7459 267.49 87.7549C267.338 88.0165 267.196 88.2889 267.064 88.5703C267.028 88.6458 266.998 88.7258 266.964 88.8031C266.87 89.0135 266.782 89.2275 266.7 89.4477C266.684 89.4909 266.663 89.5322 266.648 89.5763C266.634 89.6167 266.626 89.6608 266.612 89.7012C266.468 90.1193 266.341 90.549 266.243 90.9922C266.239 91.0093 266.233 91.0246 266.228 91.0417C266.219 91.0839 266.217 91.1298 266.208 91.172C266.132 91.5343 266.074 91.9038 266.03 92.2787C266.024 92.33 266.012 92.3776 266.006 92.4289C266.003 92.4531 266.005 92.4792 266.003 92.5035C265.963 92.9143 265.945 93.3306 265.947 93.7513C265.947 93.7891 265.941 93.8259 265.941 93.8646C265.944 94.0588 265.951 94.253 265.963 94.448L267.973 127.483C267.993 127.812 268.031 128.131 268.076 128.445C268.081 128.482 268.082 128.523 268.088 128.559C268.102 128.646 268.12 128.728 268.135 128.812C268.153 128.912 268.17 129.012 268.19 129.11C268.218 129.248 268.25 129.383 268.283 129.518C268.306 129.61 268.327 129.704 268.353 129.795C268.391 129.934 268.433 130.07 268.478 130.206C268.504 130.286 268.527 130.368 268.554 130.447C268.609 130.606 268.67 130.76 268.732 130.913C268.753 130.963 268.771 131.016 268.791 131.066C268.877 131.266 268.968 131.461 269.065 131.649C269.088 131.693 269.113 131.734 269.137 131.777C269.213 131.919 269.29 132.059 269.373 132.194C269.413 132.258 269.454 132.317 269.495 132.379C269.566 132.488 269.637 132.596 269.712 132.698C269.76 132.764 269.81 132.826 269.859 132.889C269.931 132.982 270.004 133.073 270.08 133.161C270.134 133.224 270.189 133.284 270.245 133.343C270.321 133.425 270.397 133.505 270.475 133.581C270.534 133.638 270.593 133.693 270.653 133.748C270.732 133.82 270.813 133.888 270.895 133.954C270.957 134.005 271.02 134.054 271.084 134.102C271.167 134.164 271.253 134.223 271.339 134.28C271.404 134.323 271.469 134.365 271.536 134.406C271.625 134.459 271.715 134.507 271.807 134.555C271.873 134.59 271.94 134.626 272.007 134.657C272.103 134.702 272.201 134.74 272.299 134.779C272.364 134.804 272.429 134.832 272.495 134.854C272.605 134.892 272.717 134.921 272.83 134.95C272.886 134.964 272.942 134.983 272.999 134.995C273.166 135.031 273.335 135.059 273.507 135.077C273.51 135.077 273.513 135.078 273.517 135.079L279.599 135.683C279.425 135.666 279.252 135.637 279.081 135.6C279.026 135.587 278.971 135.569 278.916 135.555C278.803 135.525 278.689 135.495 278.578 135.458C278.512 135.435 278.449 135.408 278.385 135.383C278.286 135.344 278.187 135.306 278.09 135.26C278.023 135.228 277.958 135.193 277.891 135.159C277.799 135.111 277.708 135.062 277.619 135.009C277.553 134.969 277.488 134.927 277.424 134.884C277.337 134.826 277.252 134.768 277.167 134.705C277.104 134.657 277.041 134.609 276.979 134.559C276.897 134.492 276.816 134.423 276.737 134.351C276.677 134.297 276.617 134.242 276.559 134.185C276.481 134.109 276.404 134.029 276.329 133.947C276.273 133.887 276.217 133.828 276.163 133.766C276.088 133.678 276.016 133.587 275.944 133.494C275.894 133.43 275.844 133.368 275.796 133.303C275.722 133.2 275.652 133.092 275.582 132.985C275.54 132.922 275.498 132.862 275.458 132.798C275.376 132.663 275.297 132.522 275.221 132.379C275.199 132.337 275.173 132.297 275.151 132.253C275.054 132.065 274.962 131.87 274.877 131.669C274.856 131.62 274.838 131.567 274.817 131.516C274.755 131.363 274.694 131.21 274.639 131.051C274.612 130.971 274.588 130.89 274.563 130.809C274.52 130.673 274.477 130.538 274.439 130.398C274.414 130.307 274.392 130.214 274.37 130.121C274.336 129.986 274.304 129.851 274.276 129.713C274.256 129.615 274.239 129.515 274.221 129.415C274.2 129.294 274.18 129.172 274.163 129.048C274.118 128.734 274.08 128.415 274.06 128.087L272.05 95.0513C272.036 94.8175 272.035 94.5865 272.034 94.3546C272.032 93.9347 272.05 93.5176 272.09 93.1067C272.097 93.0312 272.109 92.9575 272.117 92.882C272.16 92.5071 272.218 92.1376 272.294 91.7744C272.306 91.715 272.315 91.6548 272.329 91.5964C272.428 91.1532 272.555 90.7225 272.698 90.3045C272.727 90.22 272.755 90.1355 272.787 90.0519C272.868 89.8316 272.956 89.6176 273.05 89.4073C273.084 89.33 273.115 89.2508 273.151 89.1753C273.283 88.8939 273.424 88.6215 273.576 88.3599C273.604 88.3123 273.634 88.2691 273.662 88.2233C273.795 88.003 273.934 87.7908 274.079 87.5868C274.136 87.5077 274.195 87.4321 274.254 87.3548C274.382 87.1867 274.516 87.0249 274.654 86.8702C274.716 86.801 274.777 86.73 274.841 86.6635C275.013 86.4819 275.192 86.3111 275.377 86.1528C275.407 86.1277 275.434 86.098 275.464 86.0737C275.679 85.8948 275.903 85.7348 276.132 85.5883C276.205 85.5415 276.282 85.501 276.357 85.4579C276.5 85.3743 276.646 85.2952 276.794 85.2251C276.882 85.1846 276.97 85.1477 277.059 85.1118C277.203 85.0524 277.35 85.0003 277.499 84.9553C277.643 84.9113 277.786 84.8636 277.933 84.8331L301.865 79.7941C302.129 79.7384 302.389 79.7105 302.647 79.6997C302.858 79.688 303.071 79.6898 303.279 79.7105Z" fill="#1865ED"></path><path d="M301.861 79.7905C305.39 79.047 308.521 82.4273 308.819 87.3063L310.829 120.342C311.125 125.22 308.48 129.816 304.951 130.56L281.019 135.599C277.485 136.343 274.353 132.963 274.056 128.085L272.046 95.0495C271.749 90.1706 274.395 85.5748 277.93 84.8304L301.861 79.7905Z" fill="#3878FF"></path><path d="M347.048 269.072C346.934 270.918 346.77 272.898 345.597 274.328C344.213 276.013 341.849 276.441 339.692 276.758C336.548 277.221 333.404 277.682 330.259 278.144C330.098 278.609 330.642 278.999 331.109 279.157C333.433 279.945 335.965 279.6 338.406 279.347C341.235 279.052 344.077 278.89 346.922 278.861C348.188 278.849 349.689 278.735 350.332 277.645C350.811 276.831 350.591 275.81 350.479 274.872C350.137 272.015 350.94 269.104 350.531 266.255C350.484 265.926 350.378 265.547 350.068 265.429C349.91 265.37 349.735 265.395 349.569 265.428C347.164 265.914 347.182 266.91 347.048 269.072Z" fill="#F9CCDA"></path><path d="M347.9 276.476C345.558 277.907 343.177 278.295 340.452 277.955C340.286 277.934 339.371 277.733 339.204 277.715C339.107 277.193 339.16 276.68 338.731 276.697C336.762 276.773 334.795 276.937 332.84 277.19C332.219 277.27 329.861 277.325 329.612 277.809C329.39 278.239 329.532 278.789 329.845 279.159C330.158 279.528 330.611 279.75 331.064 279.922C333.297 280.774 335.764 280.673 338.151 280.56C341.086 280.422 344.022 280.284 346.957 280.145C347.959 280.097 349.013 280.035 349.855 279.489C351.093 278.686 351.518 277.068 351.548 275.592C351.603 272.909 348.746 275.959 347.9 276.476Z" fill="#004FC1"></path><path d="M301.054 274.001C300.698 275.816 300.275 277.757 298.924 279.02C297.331 280.509 294.932 280.623 292.751 280.654C289.574 280.698 286.396 280.743 283.219 280.787C282.998 281.228 283.486 281.685 283.927 281.903C286.128 282.989 288.683 282.981 291.136 283.05C293.979 283.13 296.818 283.343 299.642 283.688C300.898 283.842 302.402 283.927 303.182 282.93C303.764 282.187 303.681 281.145 303.693 280.201C303.729 277.323 304.909 274.543 304.878 271.666C304.874 271.334 304.819 270.943 304.527 270.785C304.379 270.705 304.201 270.707 304.032 270.719C301.584 270.885 301.471 271.876 301.054 274.001Z" fill="#F9CCDA"></path><path d="M353.411 180.506C353.411 180.506 351.282 202.313 350.484 214.287C349.686 226.261 357.494 251.746 357.228 258.664C356.962 265.582 355.365 269.573 355.365 269.573L338.614 269.424L332.922 182.369L353.411 180.506Z" fill="#0553DD"></path><path d="M337.063 109.071C336.102 111.503 334.859 113.292 334.286 113.066C333.713 112.839 334.028 110.684 334.989 108.252C335.95 105.82 337.193 104.032 337.766 104.258C338.34 104.484 338.024 106.64 337.063 109.071Z" stroke="#0553DD" stroke-miterlimit="10"></path><path d="M357.196 122.51C360.537 115.968 357.942 107.956 351.4 104.616C344.858 101.275 336.847 103.87 333.506 110.412C330.165 116.954 332.76 124.965 339.302 128.306C345.844 131.647 353.855 129.051 357.196 122.51Z" fill="#F9CCDA"></path><path d="M341.754 122.872L338.871 137.611L347.002 140.659L350.206 122.327L341.754 122.872Z" fill="#F9CCDA"></path><path d="M354.107 177.378C354.107 177.378 329.443 179.019 321.62 181.982C317.579 194.295 300.126 265.32 298.434 272.697C301.079 273.279 312.438 274.951 312.438 274.951C312.438 274.951 319.708 267.389 326.814 243.734C334.329 218.716 351.175 191.123 352.455 189.093C354.412 185.986 354.107 177.378 354.107 177.378Z" fill="#3878FF"></path><path d="M275.105 120.963C274.965 120.425 274.778 119.855 274.333 119.521C273.765 119.093 272.953 119.189 272.294 119.457C271.635 119.725 271.035 120.142 270.346 120.323C269.11 120.649 267.643 120.208 266.619 120.973C266.022 121.42 265.738 122.245 265.931 122.965C266.032 123.337 266.243 123.669 266.401 124.02C266.935 125.222 266.838 126.688 267.616 127.749C268.207 128.556 269.184 128.962 270.113 129.333C272.362 130.229 274.612 131.125 276.861 132.021C277.006 132.079 277.172 132.137 277.312 132.067C277.43 132.009 277.491 131.879 277.539 131.757C278.481 129.413 278.078 128.281 276.897 126.383C275.873 124.739 275.586 122.807 275.105 120.963Z" fill="#F9CCDA"></path><path d="M300.931 281.454C298.42 282.564 296.01 282.636 293.353 281.941C293.191 281.899 292.31 281.579 292.147 281.539C292.12 281.008 292.24 280.508 291.813 280.468C289.85 280.284 287.879 280.189 285.908 280.182C285.282 280.18 282.937 279.925 282.627 280.371C282.35 280.768 282.419 281.333 282.681 281.74C282.942 282.147 283.362 282.426 283.788 282.656C285.89 283.793 288.349 284.018 290.73 284.22C293.658 284.469 296.587 284.717 299.515 284.966C300.514 285.05 301.567 285.126 302.473 284.696C303.806 284.063 304.441 282.514 304.664 281.056C305.071 278.405 301.838 281.053 300.931 281.454Z" fill="#004FC1"></path><path d="M273.603 114.92C273.437 114.5 273.209 114.043 272.781 113.9C272.268 113.728 271.705 114.123 271.496 114.622C271.286 115.121 271.337 115.685 271.392 116.223C271.543 117.714 271.695 119.205 271.846 120.696C271.932 121.543 272.121 122.541 272.898 122.892C273.477 123.153 274.202 122.904 274.603 122.411C275.374 121.462 274.863 120.354 274.708 119.301C274.487 117.796 274.163 116.339 273.603 114.92Z" fill="#F9CCDA"></path><path d="M351.112 139.811C350.657 136.626 347.884 134.292 344.668 134.396C337.811 134.616 327.431 135.379 325.728 136.284C323.607 137.411 309.204 141.827 304.788 141.827C300.372 141.827 282.064 125.244 282.064 125.244L273.109 134.891C273.109 134.891 289.462 155.418 295.576 157.795C301.69 160.173 320.885 160.035 320.885 160.035L321.769 182.151C321.769 182.151 350.317 187.927 353.035 183.172C355.752 178.417 354.053 160.409 354.053 160.409L351.112 139.811Z" fill="#F6A091"></path><path d="M320.891 160.035L332.923 158.071L321.617 178.213L320.891 160.035Z" fill="url(#paint0_linear_2332_347)"></path><path d="M333.45 111.34C332.489 113.771 331.245 115.561 330.673 115.334C330.1 115.107 330.415 112.952 331.376 110.521C332.337 108.089 333.58 106.3 334.153 106.526C334.725 106.752 334.411 108.907 333.45 111.34Z" stroke="#0553DD" stroke-miterlimit="10"></path><path d="M331.234 110.715C331.764 110.853 345.731 116.053 345.731 116.053" stroke="#0553DD" stroke-width="0.75" stroke-miterlimit="10"></path><path d="M343.707 111.899C344.21 113.502 343.177 115.603 344.407 116.747C345.092 117.385 346.143 117.338 347.051 117.562C348.699 117.967 350.022 119.46 350.227 121.143C350.432 122.828 349.507 124.594 348.006 125.384C347.555 125.621 347.048 125.785 346.684 126.142C345.992 126.821 346.046 127.963 346.377 128.875C346.708 129.787 347.262 130.623 347.437 131.577C347.752 133.297 346.79 134.954 346.164 136.588C344.148 141.841 345.551 147.784 347.699 152.984C349.327 156.922 351.437 160.77 354.633 163.588C357.829 166.404 362.272 168.06 366.425 167.11C370.578 166.16 374.08 162.172 373.689 157.929C373.543 156.352 372.912 154.867 372.337 153.391C370.698 149.184 369.477 144.397 371.23 140.237C372.169 138.01 373.916 136.098 374.317 133.714C374.836 130.636 372.914 127.601 370.456 125.675C367.998 123.751 365.023 122.629 362.298 121.106C359.573 119.583 356.942 117.448 356.027 114.463C355.378 112.347 355.662 110.013 354.895 107.936C353.859 105.127 350.981 103.269 348.015 102.864C345.629 102.537 339.575 103.015 338.422 105.774C337.1 108.937 342.9 109.332 343.707 111.899Z" fill="#0553DD"></path><path d="M366.683 126.15C368.139 123.861 368.344 120.449 366.253 118.721C365.379 117.999 364.216 117.658 363.427 116.842C362.183 115.556 362.236 113.552 361.962 111.784C361.45 108.463 359.456 105.402 356.634 103.577C353.812 101.752 350.21 101.188 346.961 102.046C346.188 102.251 345.386 102.568 344.928 103.223C344.197 104.269 344.641 105.767 345.479 106.729C346.317 107.691 347.471 108.314 348.427 109.159C350.966 111.403 351.848 114.914 353.087 118.068C354.609 121.943 356.853 125.524 359.65 128.607C363.485 132.836 364.289 129.912 366.683 126.15Z" fill="#0553DD"></path><path d="M377.569 142.635C378.595 144.869 378.744 147.45 378.227 149.854C377.756 152.036 376.749 154.101 375.317 155.816C374.675 156.586 373.924 157.301 372.999 157.689C371.939 158.133 370.747 158.109 369.602 158.016C365.677 157.694 361.404 156.312 359.52 152.854C357.368 148.901 358.449 138.036 363.663 136.634C368.265 135.396 375.616 138.38 377.569 142.635Z" fill="#0553DD"></path><path d="M400 58.8362C398.342 54.2144 393.933 50.9015 388.74 50.9015C386.374 50.9015 384.175 51.5964 382.318 52.7813C379.969 46.4819 373.901 41.9949 366.783 41.9949C360.222 41.9949 354.552 45.8077 351.866 51.3384C350.857 51.0624 349.798 50.9015 348.702 50.9015C343.509 50.9015 339.1 54.2135 337.441 58.8362H400Z" fill="#AFC6F5"></path><path d="M163.56 72.3215C161.901 67.6997 157.492 64.3868 152.3 64.3868C149.933 64.3868 147.734 65.0817 145.877 66.2666C143.529 59.9681 137.46 55.4811 130.343 55.4811C123.782 55.4811 118.112 59.2939 115.426 64.8246C114.416 64.5486 113.358 64.3877 112.26 64.3877C107.067 64.3877 102.659 67.6997 101 72.3224H163.56V72.3215Z" fill="#AFC6F5"></path><path d="M151.611 206.523C151.155 210.944 153.357 216.38 149.988 219.28C147.971 221.017 144.791 220.804 142.763 222.528C139.34 225.437 141.603 231.043 144.45 234.517C147.296 237.992 150.781 242.299 149.017 246.43C148.121 248.526 146.061 249.867 144.753 251.732C141.845 255.875 143.246 261.8 146.297 265.838C154.16 276.245 170.628 276.871 181.687 269.956C185.698 267.447 189.338 263.913 190.658 259.37C191.978 254.828 190.334 249.227 186.098 247.122C184.387 246.272 182.187 245.846 181.376 244.115C179.988 241.155 183.893 238.737 186.323 236.55C190.918 232.415 190.54 224.045 185.592 220.341C183.496 218.771 180.657 217.805 179.672 215.379C178.973 213.658 179.45 211.717 179.481 209.86C179.713 195.811 153.104 192.036 151.611 206.523Z" fill="#5BB59B"></path><path d="M165.572 215.299H164.848V273.312H165.572V215.299Z" fill="#0553DD"></path><path d="M165.199 238.214L152.91 227.891L153.377 227.337L165.237 237.299L179.98 226.836L180.398 227.427L165.199 238.214Z" fill="#0553DD"></path><path d="M165.199 262.845L152.91 252.523L153.377 251.968L165.237 261.929L179.98 251.466L180.398 252.058L165.199 262.845Z" fill="#0553DD"></path><defs><linearGradient id="paint0_linear_2332_347" x1="327.992" y1="173.268" x2="325.907" y2="158.465" gradientUnits="userSpaceOnUse"><stop stop-color="#D37897" stop-opacity="0"></stop><stop offset="0.9368" stop-color="#E26356" stop-opacity="0.7"></stop></linearGradient></defs></svg>