<svg xmlns="http://www.w3.org/2000/svg" width="500" height="300" viewBox="0 0 500 300" fill="none"><rect width="500" height="300" rx="24" fill="white"></rect><path d="M50.4083 288.963C28.3403 249.937 -26.0164 54.6811 160.877 117.906C242.507 145.52 281.649 147.157 322.861 127.983C364.074 108.809 504.093 67.1216 450.596 288.963C371.392 288.963 105.295 288.963 50.4083 288.963Z" fill="#EFF8F7"></path><path d="M151.5 86.8095C153.547 86.8083 155.28 88.1487 155.872 90C157.624 89.5634 159.278 88.8787 160.785 87.9725C159.891 86.2444 160.167 84.0673 161.617 82.6173C163.067 81.1672 165.244 80.8921 166.973 81.7847C167.88 80.2781 168.562 78.6248 169 76.8725C167.149 76.2803 165.809 74.5469 165.809 72.5C165.809 70.4531 167.149 68.7197 168.999 68.1275C168.563 66.3758 167.88 64.7219 166.973 63.2153C165.244 64.1079 163.067 63.8322 161.618 62.3822C160.167 60.9327 159.891 58.7556 160.785 57.0263C159.278 56.1207 157.625 55.4372 155.872 55.0006C155.28 56.8507 153.547 58.1905 151.5 58.1905C149.453 58.1905 147.72 56.8507 147.128 55C145.375 55.4366 143.721 56.1201 142.214 57.0263C143.108 58.7556 142.832 60.9327 141.382 62.3822C139.932 63.8322 137.756 64.1079 136.027 63.2153C135.12 64.7219 134.437 66.3758 134 68.1275C135.851 68.7197 137.191 70.4531 137.191 72.5C137.191 74.5469 135.851 76.2798 134.001 76.8725C134.437 78.6248 135.12 80.2781 136.027 81.7847C137.756 80.8921 139.932 81.1678 141.382 82.6173C142.832 84.0673 143.108 86.2444 142.214 87.9731C143.721 88.8787 145.375 89.5634 147.127 89.9988C147.72 88.1487 149.453 86.8083 151.5 86.8095ZM142.845 72.5C142.845 67.7204 146.72 63.8446 151.5 63.8452C156.28 63.8446 160.156 67.7198 160.155 72.5C160.156 77.2802 156.28 81.1548 151.5 81.1548C146.72 81.1554 142.845 77.2796 142.845 72.5Z" fill="#221BDA"></path><path d="M142.328 77.3349C142.328 77.3139 142.329 77.2937 142.332 77.2752C142.426 76.2458 142.618 75.2293 142.902 74.2491C142.991 73.9401 143.287 73.7715 143.563 73.8715C143.839 73.9699 143.992 74.3007 143.902 74.6081C143.64 75.5108 143.464 76.4475 143.376 77.393C143.347 77.714 143.089 77.9488 142.799 77.9174C142.53 77.8859 142.327 77.6318 142.328 77.3349ZM142.33 80.3021C142.331 80.0052 142.531 79.7511 142.8 79.718C143.09 79.6866 143.348 79.9197 143.379 80.2408C143.467 81.1863 143.645 82.1229 143.908 83.0233C144.003 83.3355 143.848 83.6638 143.572 83.7647C143.295 83.8647 143 83.6953 142.909 83.3879C142.622 82.4069 142.429 81.3896 142.333 80.3634C142.332 80.3433 142.33 80.3215 142.33 80.3021ZM143.956 71.7142C143.956 71.6134 143.979 71.5134 144.027 71.4214C144.489 70.5291 145.036 69.6877 145.655 68.9189C145.85 68.6768 146.181 68.6583 146.396 68.8737C146.613 69.0915 146.63 69.4626 146.437 69.7006C145.868 70.4081 145.363 71.185 144.938 72.0063C144.792 72.2862 144.471 72.3822 144.221 72.2209C144.051 72.1128 143.957 71.9167 143.956 71.7142ZM143.969 85.9187C143.97 85.7162 144.064 85.521 144.231 85.4112C144.484 85.2491 144.804 85.3459 144.949 85.625C145.375 86.4455 145.881 87.2208 146.452 87.9259C146.644 88.1663 146.63 88.5382 146.414 88.7536C146.198 88.9706 145.866 88.9497 145.671 88.7109C145.052 87.9445 144.502 87.1038 144.04 86.2124C143.992 86.1196 143.97 86.0187 143.969 85.9187ZM147.495 67.3215C147.495 67.1408 147.569 66.9625 147.71 66.8471C148.457 66.2388 149.263 65.7169 150.107 65.2949C150.372 65.1626 150.683 65.2933 150.802 65.5886C150.919 65.8855 150.802 66.2316 150.537 66.3639C149.761 66.7511 149.018 67.2344 148.33 67.7943C148.096 67.9838 147.767 67.9266 147.596 67.666C147.528 67.5619 147.495 67.4409 147.495 67.3215ZM147.515 90.3034C147.515 90.184 147.548 90.063 147.617 89.9581C147.787 89.6967 148.115 89.6394 148.351 89.8298C149.04 90.3881 149.783 90.8681 150.56 91.2545C150.826 91.386 150.943 91.737 150.826 92.029C150.708 92.3243 150.397 92.4574 150.132 92.3251C149.288 91.9056 148.481 91.3852 147.732 90.7769C147.591 90.6624 147.515 90.4841 147.515 90.3034ZM152.327 64.9085C152.327 64.6374 152.495 64.393 152.742 64.3349C153.644 64.1203 154.571 64.0114 155.498 64.0098C155.787 64.0074 156.024 64.268 156.025 64.5939C156.025 64.9166 155.791 65.1804 155.501 65.1804C154.647 65.1828 153.793 65.2853 152.963 65.4813C152.678 65.5499 152.4 65.3474 152.338 65.0311C152.33 64.9884 152.327 64.9472 152.327 64.9085ZM152.352 92.7083C152.352 92.668 152.355 92.6268 152.364 92.5865C152.423 92.2702 152.703 92.0677 152.987 92.1339C153.816 92.3299 154.671 92.4292 155.525 92.4292C155.816 92.4292 156.077 92.6922 156.077 93.0157C156.077 93.3392 155.868 93.6014 155.578 93.6014H155.526C154.599 93.6014 153.672 93.4941 152.771 93.2827C152.522 93.223 152.353 92.9794 152.352 92.7083ZM157.62 64.8964C157.621 64.8553 157.624 64.8149 157.632 64.7746C157.691 64.4583 157.97 64.2558 158.254 64.322C159.16 64.5326 160.048 64.852 160.893 65.2699C161.159 65.4006 161.28 65.7443 161.16 66.0444C161.042 66.3389 160.732 66.4736 160.468 66.3413C159.689 65.9573 158.873 65.6628 158.04 65.4692C157.791 65.4111 157.62 65.1675 157.62 64.8964ZM157.697 92.6946C157.698 92.4235 157.865 92.1815 158.112 92.121C158.946 91.9217 159.76 91.6216 160.536 91.2328C160.801 91.0988 161.111 91.2311 161.231 91.5264C161.348 91.8201 161.233 92.1678 160.967 92.3009C160.126 92.7228 159.239 93.0488 158.335 93.2666C158.05 93.3352 157.77 93.1343 157.71 92.8172C157.702 92.7769 157.697 92.7357 157.697 92.6946ZM162.462 67.2876C162.462 67.1674 162.494 67.0472 162.561 66.9439C162.732 66.6817 163.06 66.6229 163.295 66.8124C164.045 67.4167 164.738 68.1105 165.36 68.8761C165.554 69.1173 165.536 69.4868 165.321 69.7038C165.107 69.9217 164.775 69.9031 164.58 69.6619C164.009 68.9584 163.369 68.317 162.679 67.762C162.538 67.6466 162.462 67.4683 162.462 67.2876ZM162.524 90.2711C162.524 90.0904 162.6 89.9129 162.739 89.7984C163.424 89.2385 164.06 88.5955 164.63 87.8848C164.824 87.6427 165.156 87.6234 165.372 87.8396C165.587 88.0542 165.606 88.4253 165.412 88.6657C164.794 89.4369 164.103 90.1348 163.361 90.7431C163.127 90.9343 162.798 90.8778 162.626 90.6164C162.558 90.5123 162.524 90.3921 162.524 90.2711ZM166.016 71.665C166.016 71.465 166.109 71.2681 166.276 71.1584C166.528 70.9954 166.85 71.0914 166.995 71.3698C167.461 72.2645 167.843 73.2124 168.131 74.1918C168.222 74.4983 168.071 74.8299 167.795 74.9308C167.519 75.0324 167.223 74.8638 167.132 74.5556C166.868 73.6569 166.515 72.7816 166.087 71.9595C166.039 71.8675 166.016 71.7659 166.016 71.665ZM166.055 85.8679C166.055 85.7686 166.076 85.6686 166.125 85.5774C166.549 84.7521 166.896 83.876 167.156 82.9724C167.246 82.6651 167.541 82.4957 167.817 82.5941C168.094 82.6925 168.247 83.0241 168.157 83.3306C167.874 84.3133 167.498 85.2636 167.036 86.1599C166.892 86.4423 166.57 86.5383 166.319 86.3777C166.149 86.268 166.055 86.0704 166.055 85.8679ZM167.665 77.2752C167.665 76.9815 167.865 76.7266 168.135 76.6943C168.423 76.6596 168.683 76.892 168.713 77.2147C168.812 78.2352 168.813 79.2937 168.722 80.3037C168.692 80.6248 168.435 80.8596 168.146 80.8281C167.858 80.7958 167.654 80.4998 167.676 80.1851C167.759 79.2525 167.759 78.2804 167.668 77.3381C167.667 77.3179 167.665 77.297 167.665 77.2752Z" fill="white"></path><path d="M380.708 76.238C380.098 74.3478 380.82 72.3492 382.353 71.2495C381.428 69.7628 380.303 68.4398 379.019 67.3182C377.689 68.6589 375.597 69.0509 373.826 68.1449C372.057 67.2388 371.153 65.311 371.463 63.4485C369.801 63.06 368.07 62.9232 366.323 63.0409C366.328 64.9261 365.127 66.6808 363.237 67.2898C361.347 67.8995 359.349 67.1785 358.25 65.6464C356.763 66.5723 355.44 67.6947 354.319 68.9808C355.658 70.3108 356.051 72.403 355.146 74.1727C354.239 75.9437 352.311 76.847 350.45 76.5371C350.061 78.199 349.922 79.9289 350.041 81.6759C351.927 81.6724 353.68 82.8727 354.29 84.7628C354.899 86.653 354.179 88.6516 352.647 89.7506C353.571 91.238 354.696 92.5603 355.982 93.6812C357.31 92.3419 359.403 91.9491 361.174 92.8552C362.943 93.7613 363.847 95.6898 363.537 97.5516C365.199 97.9394 366.929 98.0769 368.676 97.9592C368.671 96.074 369.872 94.32 371.762 93.7103C373.652 93.1012 375.651 93.8216 376.75 95.3537C378.237 94.4278 379.56 93.3047 380.682 92.0193C379.342 90.6893 378.949 88.597 379.855 86.8274C380.761 85.0564 382.689 84.1531 384.551 84.4622C384.938 82.8011 385.077 81.0711 384.959 79.3242C383.072 79.3277 381.318 78.1281 380.708 76.238ZM370.077 88.4921C365.665 89.9158 360.933 87.4917 359.51 83.0783C358.085 78.6648 360.508 73.933 364.921 72.5094C369.334 71.085 374.066 73.5084 375.49 77.9218C376.914 82.3353 374.491 87.0677 370.077 88.4921Z" fill="#221BDA"></path><path d="M379.32 94.5617C379.306 94.5665 379.292 94.5714 379.278 94.5738C378.548 94.7472 377.799 94.8352 377.055 94.8344C376.821 94.8344 376.632 94.6222 376.632 94.3616C376.631 94.101 376.822 93.8881 377.056 93.8897C377.741 93.8897 378.429 93.809 379.101 93.6501C379.33 93.596 379.555 93.759 379.604 94.0139C379.65 94.2527 379.525 94.4875 379.32 94.5617ZM381.361 93.8235C381.157 93.8977 380.931 93.7888 380.844 93.5653C380.749 93.3257 380.847 93.0474 381.059 92.9417C381.687 92.6311 382.288 92.2471 382.843 91.7978C383.034 91.6404 383.298 91.6929 383.435 91.9034C383.572 92.1156 383.529 92.4109 383.34 92.5634C382.738 93.0506 382.086 93.4677 381.402 93.8058C381.389 93.813 381.374 93.8187 381.361 93.8235ZM375.051 94.5585C374.983 94.5827 374.908 94.5883 374.832 94.5714C374.103 94.3971 373.39 94.1365 372.707 93.7977C372.494 93.6912 372.398 93.4129 372.494 93.1741C372.589 92.9353 372.841 92.8296 373.053 92.9345C373.68 93.2475 374.339 93.4879 375.01 93.6476C375.237 93.7025 375.385 93.9534 375.335 94.2083C375.302 94.3794 375.189 94.5084 375.051 94.5585ZM384.819 91.0305C384.68 91.0814 384.521 91.0483 384.405 90.9321C384.231 90.7571 384.217 90.4578 384.373 90.2649C384.833 89.697 385.239 89.0718 385.584 88.4086C385.702 88.1843 385.961 88.1045 386.163 88.2368C386.365 88.3675 386.434 88.6571 386.318 88.8822C385.944 89.6034 385.5 90.2811 385.004 90.8966C384.952 90.962 384.889 91.0055 384.819 91.0305ZM371.152 92.6182C371.029 92.6626 370.888 92.6424 370.774 92.5505C370.171 92.0624 369.612 91.5017 369.114 90.8837C368.957 90.6909 368.969 90.3924 369.143 90.2173C369.317 90.0439 369.585 90.0584 369.741 90.252C370.201 90.82 370.716 91.3371 371.272 91.7857C371.461 91.9398 371.502 92.2358 371.366 92.4456C371.312 92.5303 371.236 92.5884 371.152 92.6182ZM386.958 86.9105C386.875 86.9403 386.784 86.9419 386.695 86.9097C386.473 86.8282 386.351 86.5612 386.425 86.3143C386.64 85.5858 386.785 84.8307 386.859 84.0699C386.883 83.8101 387.095 83.623 387.324 83.6504C387.557 83.6778 387.725 83.911 387.702 84.1708C387.623 84.9977 387.463 85.8173 387.231 86.6087C387.186 86.7572 387.08 86.8661 386.958 86.9105ZM368.297 89.0806C368.111 89.1476 367.902 89.0637 367.8 88.866C367.429 88.1472 367.125 87.3816 366.892 86.5902C366.82 86.3417 366.942 86.0747 367.166 85.994C367.389 85.9141 367.627 86.0497 367.698 86.2981C367.911 87.0283 368.193 87.7334 368.533 88.3965C368.65 88.6224 368.58 88.9112 368.377 89.0419C368.352 89.058 368.324 89.071 368.297 89.0806ZM387.414 82.1765C387.386 82.1861 387.356 82.1934 387.326 82.1966C387.095 82.2241 386.886 82.0361 386.861 81.7763C386.789 81.0164 386.647 80.2604 386.435 79.5303C386.363 79.281 386.478 78.993 386.702 78.9124C386.924 78.8317 387.155 78.9462 387.228 79.1955L387.241 79.2407C387.469 80.0329 387.625 80.8526 387.704 81.6779C387.725 81.903 387.6 82.1087 387.414 82.1765ZM366.978 84.5532C366.951 84.5628 366.923 84.5693 366.892 84.5725C366.66 84.5991 366.451 84.412 366.427 84.1522C366.347 83.3245 366.348 82.4855 366.427 81.6585C366.449 81.3988 366.655 81.21 366.892 81.2382C367.124 81.2648 367.293 81.4972 367.268 81.7578C367.197 82.5177 367.197 83.2898 367.271 84.0513C367.29 84.2788 367.165 84.4854 366.978 84.5532ZM386.081 77.6046C385.895 77.6716 385.686 77.5877 385.584 77.3908C385.239 76.7285 384.831 76.1041 384.373 75.5361C384.215 75.3433 384.229 75.0448 384.403 74.8689C384.576 74.6955 384.843 74.7092 385 74.9036C385.499 75.5192 385.944 76.1968 386.317 76.9173C386.434 77.1423 386.364 77.4336 386.162 77.5635C386.136 77.5804 386.109 77.5941 386.081 77.6046ZM367.425 79.8167C367.344 79.8458 367.251 79.8482 367.164 79.8167C366.942 79.7352 366.819 79.4682 366.892 79.2213C367.122 78.4315 367.427 77.6659 367.801 76.9447C367.918 76.7188 368.178 76.6422 368.379 76.7712C368.583 76.9011 368.652 77.1907 368.535 77.4166C368.191 78.0806 367.909 78.7857 367.698 79.5142C367.653 79.6626 367.549 79.7715 367.425 79.8167ZM383.219 74.0735C383.096 74.1186 382.954 74.0985 382.841 74.0065C382.286 73.5588 381.687 73.1739 381.057 72.8625C380.843 72.7569 380.746 72.4761 380.841 72.2381C380.937 72.0001 381.187 71.892 381.4 71.9977C382.084 72.3365 382.736 72.7544 383.338 73.2401C383.528 73.3926 383.572 73.6878 383.433 73.8992C383.377 73.9847 383.302 74.0444 383.219 74.0735ZM369.557 75.6926C369.419 75.7418 369.26 75.7095 369.142 75.5942C368.969 75.4183 368.954 75.1206 369.111 74.927C369.609 74.305 370.168 73.7443 370.77 73.2562C370.959 73.1021 371.223 73.1489 371.361 73.3603C371.499 73.5717 371.458 73.8677 371.268 74.0202C370.713 74.4696 370.2 74.9867 369.742 75.5571C369.689 75.6216 369.625 75.6684 369.557 75.6926ZM379.317 72.1421C379.248 72.1663 379.174 72.1711 379.098 72.1542C378.426 71.9953 377.737 71.9162 377.052 71.9162C376.817 71.917 376.628 71.7048 376.627 71.4451C376.627 71.1829 376.817 70.9699 377.051 70.9707C377.796 70.9699 378.543 71.057 379.275 71.2297C379.502 71.2837 379.649 71.5346 379.601 71.7896C379.568 71.9622 379.456 72.0921 379.317 72.1421ZM373.007 72.8908C372.804 72.9642 372.578 72.8561 372.491 72.6326C372.395 72.3946 372.491 72.1147 372.706 72.009C373.383 71.6734 374.111 71.4104 374.828 71.2377C375.057 71.1837 375.284 71.3458 375.331 71.6008C375.381 71.8557 375.227 72.1026 375.007 72.1615C374.343 72.3212 373.675 72.5624 373.05 72.873C373.035 72.8803 373.021 72.8859 373.007 72.8908Z" fill="white"></path><path d="M242.802 134.342C244.254 135.199 244.903 136.846 244.522 138.365C245.954 138.799 247.424 139.022 248.885 139.032C249 137.471 250.139 136.091 251.796 135.704C253.453 135.316 255.117 136.039 255.957 137.377C257.252 136.723 258.453 135.874 259.523 134.854C258.467 133.672 258.267 131.919 259.152 130.515C260.039 129.109 261.741 128.48 263.309 128.849C263.759 127.463 263.991 126.041 264 124.627C262.386 124.515 260.961 123.414 260.56 121.81C260.159 120.207 260.906 118.596 262.29 117.784C261.613 116.53 260.736 115.368 259.682 114.334C258.46 115.356 256.649 115.549 255.197 114.692C253.745 113.834 253.096 112.187 253.477 110.668C252.044 110.234 250.575 110.01 249.113 110C248.998 111.562 247.86 112.941 246.202 113.328C244.546 113.716 242.882 112.994 242.042 111.656C240.746 112.31 239.545 113.159 238.477 114.18C239.533 115.361 239.733 117.114 238.847 118.519C237.96 119.924 236.259 120.552 234.69 120.184C234.241 121.57 234.009 122.992 234 124.406C235.613 124.518 237.038 125.619 237.439 127.223C237.839 128.826 237.093 130.437 235.71 131.249C236.386 132.503 237.263 133.667 238.318 134.699C239.54 133.676 241.349 133.482 242.802 134.342ZM242.859 120.887C244.929 117.605 249.358 116.568 252.75 118.572C256.141 120.575 257.212 124.86 255.142 128.143C253.072 131.426 248.643 132.462 245.252 130.458C241.858 128.455 240.788 124.17 242.859 120.887Z" fill="#221BDA"></path><path d="M240.991 120.003C240.997 119.992 241.004 119.982 241.01 119.973C241.362 119.456 241.763 118.981 242.201 118.561C242.34 118.429 242.547 118.445 242.667 118.6C242.785 118.753 242.77 118.987 242.632 119.118C242.227 119.506 241.858 119.943 241.535 120.417C241.426 120.579 241.218 120.61 241.072 120.488C240.937 120.373 240.904 120.163 240.991 120.003ZM240.123 121.593C240.211 121.434 240.392 121.371 240.546 121.451C240.71 121.54 240.78 121.76 240.702 121.942C240.473 122.481 240.294 123.046 240.171 123.625C240.13 123.827 239.951 123.945 239.774 123.899C239.596 123.852 239.488 123.653 239.529 123.455C239.664 122.827 239.858 122.211 240.107 121.626C240.111 121.616 240.117 121.604 240.123 121.593ZM243.509 117.589C243.538 117.535 243.58 117.489 243.632 117.458C244.141 117.148 244.68 116.897 245.237 116.712C245.412 116.653 245.594 116.763 245.647 116.958C245.699 117.153 245.6 117.358 245.426 117.415C244.914 117.586 244.416 117.818 243.948 118.103C243.788 118.2 243.587 118.135 243.501 117.957C243.443 117.837 243.45 117.698 243.509 117.589ZM239.354 125.197C239.414 125.088 239.522 125.018 239.643 125.02C239.826 125.026 239.969 125.194 239.965 125.396C239.952 125.99 239.996 126.59 240.096 127.176C240.128 127.375 240.012 127.568 239.833 127.605C239.654 127.642 239.482 127.511 239.448 127.312C239.341 126.675 239.293 126.025 239.307 125.38C239.309 125.313 239.325 125.25 239.354 125.197ZM246.69 116.527C246.742 116.431 246.835 116.362 246.944 116.352C247.523 116.299 248.107 116.312 248.682 116.395C248.862 116.421 248.991 116.604 248.968 116.805C248.944 117.007 248.78 117.15 248.6 117.124C248.07 117.049 247.531 117.037 246.999 117.085C246.818 117.102 246.658 116.951 246.644 116.749C246.637 116.668 246.655 116.592 246.69 116.527ZM239.968 128.836C240.004 128.773 240.056 128.719 240.124 128.689C240.291 128.611 240.484 128.7 240.554 128.887C240.759 129.437 241.017 129.965 241.32 130.455C241.424 130.623 241.384 130.852 241.235 130.966C241.086 131.082 240.88 131.04 240.777 130.872C240.449 130.34 240.169 129.767 239.947 129.169C239.903 129.056 239.915 128.933 239.968 128.836ZM249.983 116.997C250.062 116.851 250.225 116.782 250.374 116.842C250.92 117.055 251.448 117.335 251.945 117.671C252.1 117.775 252.149 118.001 252.055 118.175L252.055 118.176C251.96 118.349 251.758 118.404 251.603 118.299C251.145 117.988 250.657 117.732 250.156 117.535C249.984 117.468 249.894 117.257 249.954 117.066C249.962 117.041 249.972 117.017 249.983 116.997ZM241.852 131.887C241.865 131.865 241.878 131.844 241.895 131.825C242.019 131.678 242.228 131.671 242.361 131.81C242.747 132.218 243.176 132.581 243.633 132.893C243.789 132.999 243.851 133.235 243.757 133.408C243.662 133.582 243.473 133.645 243.318 133.54L243.29 133.521C242.794 133.183 242.33 132.788 241.909 132.346C241.792 132.225 241.774 132.033 241.852 131.887ZM252.82 118.92C252.833 118.899 252.847 118.877 252.863 118.859C252.987 118.711 253.195 118.704 253.329 118.843C253.751 119.286 254.133 119.781 254.463 120.312C254.567 120.48 254.532 120.708 254.38 120.825C254.23 120.94 254.026 120.899 253.922 120.731C253.617 120.243 253.267 119.787 252.878 119.379C252.761 119.258 252.741 119.064 252.82 118.92ZM244.718 133.828C244.797 133.683 244.959 133.614 245.108 133.672C245.613 133.869 246.137 134.005 246.666 134.08C246.846 134.105 246.974 134.289 246.952 134.491C246.928 134.691 246.765 134.835 246.583 134.81C246.009 134.729 245.439 134.58 244.891 134.368C244.719 134.3 244.628 134.091 244.688 133.899C244.696 133.873 244.706 133.849 244.718 133.828ZM254.712 121.964C254.747 121.9 254.799 121.847 254.866 121.816C255.034 121.738 255.228 121.827 255.298 122.013C255.522 122.609 255.689 123.234 255.798 123.87C255.832 124.07 255.714 124.261 255.535 124.299C255.356 124.338 255.184 124.207 255.15 124.007C255.05 123.422 254.896 122.846 254.69 122.298C254.647 122.185 254.658 122.061 254.712 121.964ZM248.012 134.289C248.064 134.192 248.157 134.125 248.266 134.115C248.796 134.064 249.325 133.952 249.839 133.779C250.013 133.72 250.196 133.831 250.249 134.026C250.301 134.219 250.202 134.425 250.028 134.483C249.471 134.67 248.897 134.793 248.322 134.848C248.14 134.864 247.981 134.714 247.965 134.512C247.959 134.43 247.977 134.355 248.012 134.289ZM255.332 125.603C255.391 125.496 255.498 125.424 255.62 125.426C255.802 125.431 255.946 125.6 255.942 125.801C255.929 126.451 255.857 127.096 255.724 127.727C255.683 127.924 255.505 128.046 255.327 128C255.15 127.953 255.04 127.755 255.082 127.557C255.204 126.98 255.272 126.382 255.283 125.788C255.285 125.719 255.302 125.656 255.332 125.603ZM251.191 133.22C251.221 133.167 251.261 133.121 251.314 133.089C251.783 132.802 252.225 132.46 252.629 132.071C252.766 131.938 252.975 131.955 253.094 132.109C253.213 132.263 253.197 132.496 253.06 132.627C252.621 133.05 252.141 133.422 251.631 133.733C251.47 133.831 251.271 133.766 251.183 133.588C251.125 133.469 251.132 133.328 251.191 133.22ZM254.57 129.208C254.656 129.05 254.839 128.987 254.993 129.067C255.158 129.153 255.228 129.373 255.15 129.556C254.903 130.139 254.593 130.706 254.25 131.213C254.14 131.374 253.932 131.406 253.787 131.284C253.642 131.162 253.619 130.93 253.724 130.769C254.041 130.3 254.326 129.78 254.554 129.241C254.559 129.23 254.565 129.218 254.57 129.208Z" fill="white"></path><path d="M360.901 157.672C360.901 158.563 360.253 159.286 359.455 159.286H312.368C311.57 159.286 310.922 158.563 310.922 157.672V120.817C310.922 119.925 311.57 119.203 312.368 119.203H359.455C360.253 119.203 360.901 119.925 360.901 120.817V157.672Z" fill="#1A3856"></path><path d="M362.73 154.967C362.73 155.859 362.082 156.58 361.283 156.58H314.197C313.398 156.58 312.75 155.859 312.75 154.967V118.112C312.75 117.221 313.398 116.498 314.197 116.498H361.283C362.082 116.498 362.73 117.221 362.73 118.112V154.967Z" fill="#D6D5FF"></path><path d="M360.447 125.012H314.922V154.135H360.447V125.012Z" fill="#FCF3E8"></path><path d="M359.124 122.406C359.848 122.406 360.435 121.751 360.435 120.943C360.435 120.135 359.848 119.48 359.124 119.48C358.4 119.48 357.812 120.135 357.812 120.943C357.812 121.751 358.4 122.406 359.124 122.406Z" fill="#FCF3E8"></path><path d="M354.085 122.406C354.809 122.406 355.396 121.751 355.396 120.943C355.396 120.135 354.809 119.48 354.085 119.48C353.361 119.48 352.773 120.135 352.773 120.943C352.773 121.751 353.361 122.406 354.085 122.406Z" fill="#FCF3E8"></path><path d="M349.014 122.406C349.739 122.406 350.326 121.751 350.326 120.943C350.326 120.135 349.739 119.48 349.014 119.48C348.29 119.48 347.703 120.135 347.703 120.943C347.703 121.751 348.29 122.406 349.014 122.406Z" fill="#FCF3E8"></path><path d="M345.141 131.807H319.731C319.331 131.807 319.008 131.446 319.008 131C319.008 130.555 319.331 130.193 319.731 130.193H345.141C345.541 130.193 345.864 130.555 345.864 131C345.864 131.446 345.541 131.807 345.141 131.807Z" fill="#D6D5FF"></path><path d="M331.19 138.44H319.731C319.331 138.44 319.008 138.079 319.008 137.633C319.008 137.188 319.331 136.826 319.731 136.826H331.19C331.59 136.826 331.914 137.188 331.914 137.633C331.914 138.079 331.59 138.44 331.19 138.44Z" fill="#D6D5FF"></path><path d="M339.689 145.076H319.731C319.331 145.076 319.008 144.716 319.008 144.27C319.008 143.824 319.331 143.463 319.731 143.463H339.689C340.089 143.463 340.412 143.824 340.412 144.27C340.412 144.716 340.089 145.076 339.689 145.076Z" fill="#D6D5FF"></path><path d="M345.138 151.713H328.114C327.714 151.713 327.391 151.352 327.391 150.906C327.391 150.46 327.714 150.1 328.114 150.1H345.138C345.538 150.1 345.861 150.46 345.861 150.906C345.861 151.352 345.538 151.713 345.138 151.713Z" fill="#D6D5FF"></path><path d="M215.546 175.447C215.546 176.092 215.078 176.615 214.499 176.615H170.547C169.968 176.615 169.5 176.092 169.5 175.447V117.035C169.5 116.39 169.968 115.867 170.547 115.867H214.499C215.078 115.867 215.546 116.39 215.546 117.035V175.447Z" fill="#1A3856"></path><path d="M213.64 172.574C213.64 173.219 213.172 173.742 212.594 173.742H168.64C168.062 173.742 167.594 173.219 167.594 172.574V114.162C167.594 113.517 168.062 112.994 168.64 112.994H212.594C213.172 112.994 213.64 113.517 213.64 114.162V172.574Z" fill="#D6D5FF"></path><path d="M205.58 126.408H175.489C175.089 126.408 174.766 126.048 174.766 125.602C174.766 125.156 175.089 124.795 175.489 124.795H205.58C205.979 124.795 206.303 125.156 206.303 125.602C206.303 126.048 205.979 126.408 205.58 126.408Z" fill="#FCF3E8"></path><path d="M194.493 135.553H175.489C175.089 135.553 174.766 135.192 174.766 134.746C174.766 134.3 175.089 133.939 175.489 133.939H194.493C194.892 133.939 195.216 134.3 195.216 134.746C195.216 135.192 194.892 135.553 194.493 135.553Z" fill="#FCF3E8"></path><path d="M205.58 144.699H175.489C175.089 144.699 174.766 144.339 174.766 143.893C174.766 143.447 175.089 143.086 175.489 143.086H205.58C205.979 143.086 206.303 143.447 206.303 143.893C206.303 144.339 205.979 144.699 205.58 144.699Z" fill="#FCF3E8"></path><path d="M205.575 153.841H186.333C185.933 153.841 185.609 153.48 185.609 153.034C185.609 152.589 185.933 152.229 186.333 152.229H205.575C205.974 152.229 206.298 152.589 206.298 153.034C206.298 153.48 205.974 153.841 205.575 153.841Z" fill="#FCF3E8"></path><path d="M205.579 162.985H179.465C179.065 162.985 178.742 162.624 178.742 162.178C178.742 161.732 179.065 161.371 179.465 161.371H205.579C205.978 161.371 206.302 161.732 206.302 162.178C206.302 162.624 205.978 162.985 205.579 162.985Z" fill="#FCF3E8"></path><path d="M304.229 123.049C303.942 123.049 303.703 122.796 303.688 122.473C303.674 122.139 303.904 121.855 304.204 121.839C304.912 121.801 305.302 121.801 305.31 121.801C305.61 121.801 305.853 122.072 305.853 122.406C305.853 122.74 305.61 123.011 305.31 123.011C305.302 123.011 304.931 123.012 304.256 123.048C304.247 123.048 304.238 123.049 304.229 123.049Z" fill="#D6D5FF"></path><path d="M235.265 160.206C235.261 160.206 235.257 160.206 235.254 160.206C234.544 160.191 233.816 160.156 233.089 160.103C232.79 160.081 232.563 159.793 232.584 159.46C232.603 159.126 232.868 158.877 233.16 158.896C233.87 158.949 234.582 158.981 235.275 158.996C235.574 159.003 235.812 159.279 235.806 159.613C235.801 159.943 235.559 160.206 235.265 160.206ZM237.405 160.192C237.113 160.192 236.872 159.934 236.863 159.606C236.854 159.272 237.089 158.992 237.388 158.983C238.096 158.958 238.806 158.911 239.496 158.843C239.792 158.816 240.057 159.06 240.084 159.393C240.11 159.726 239.89 160.018 239.59 160.049C238.88 160.118 238.151 160.167 237.423 160.193C237.417 160.192 237.411 160.192 237.405 160.192ZM230.992 159.898C230.974 159.898 230.953 159.897 230.934 159.894C230.226 159.81 229.512 159.709 228.789 159.59C228.493 159.542 228.287 159.236 228.33 158.904C228.374 158.574 228.65 158.345 228.946 158.392C229.655 158.508 230.357 158.608 231.05 158.691C231.347 158.727 231.563 159.025 231.531 159.358C231.501 159.668 231.266 159.898 230.992 159.898ZM241.668 159.771C241.404 159.771 241.172 159.555 241.133 159.254C241.088 158.924 241.294 158.616 241.59 158.566C242.287 158.451 242.983 158.31 243.661 158.146C243.951 158.072 244.243 158.282 244.306 158.609C244.37 158.936 244.183 159.258 243.891 159.329C243.189 159.498 242.47 159.645 241.749 159.764C241.722 159.768 241.695 159.771 241.668 159.771ZM226.754 159.21C226.722 159.21 226.69 159.207 226.657 159.2C225.958 159.059 225.253 158.904 224.539 158.734C224.246 158.665 224.059 158.344 224.121 158.017C224.184 157.689 224.474 157.484 224.765 157.551C225.468 157.718 226.163 157.87 226.85 158.009C227.145 158.069 227.341 158.384 227.288 158.712C227.24 159.005 227.011 159.21 226.754 159.21ZM245.851 158.759C245.616 158.759 245.399 158.587 245.33 158.322C245.247 158.002 245.413 157.665 245.701 157.572C246.374 157.355 247.045 157.111 247.698 156.843C247.978 156.728 248.291 156.89 248.395 157.203C248.498 157.517 248.354 157.864 248.072 157.979C247.396 158.257 246.7 158.511 246.003 158.736C245.952 158.752 245.901 158.759 245.851 158.759ZM249.867 157.113C249.66 157.113 249.462 156.98 249.372 156.757C249.248 156.453 249.37 156.094 249.643 155.957C250.278 155.638 250.912 155.288 251.526 154.916C251.788 154.757 252.118 154.865 252.262 155.16C252.405 155.454 252.308 155.821 252.043 155.981C251.406 156.365 250.749 156.729 250.089 157.06C250.017 157.096 249.941 157.113 249.867 157.113ZM253.632 154.842C253.453 154.842 253.277 154.744 253.173 154.562C253.012 154.281 253.087 153.907 253.34 153.727C253.924 153.312 254.508 152.867 255.075 152.4C255.316 152.202 255.656 152.259 255.833 152.529C256.011 152.798 255.959 153.176 255.718 153.375C255.131 153.857 254.527 154.319 253.922 154.747C253.832 154.812 253.731 154.842 253.632 154.842ZM257.079 152.016C256.924 152.016 256.771 151.942 256.664 151.8C256.471 151.544 256.5 151.162 256.73 150.947C257.26 150.45 257.79 149.923 258.303 149.381C258.52 149.152 258.863 149.161 259.07 149.403C259.276 149.646 259.267 150.028 259.05 150.259C258.52 150.818 257.976 151.362 257.429 151.874C257.326 151.969 257.203 152.016 257.079 152.016ZM260.188 148.735C260.054 148.735 259.921 148.681 259.816 148.571C259.597 148.341 259.588 147.958 259.794 147.715C260.268 147.156 260.742 146.564 261.206 145.959C261.402 145.706 261.743 145.676 261.971 145.892C262.198 146.11 262.226 146.491 262.031 146.746C261.557 147.366 261.069 147.972 260.582 148.546C260.476 148.672 260.332 148.735 260.188 148.735ZM262.97 145.106C262.854 145.106 262.737 145.064 262.637 144.978C262.401 144.772 262.358 144.393 262.542 144.129C262.981 143.5 263.443 142.87 263.915 142.258C264.111 142.004 264.453 141.975 264.68 142.193C264.908 142.412 264.934 142.794 264.738 143.047C264.277 143.645 263.826 144.259 263.398 144.873C263.292 145.025 263.132 145.106 262.97 145.106ZM265.76 141.483C265.626 141.483 265.492 141.429 265.387 141.317C265.169 141.088 265.16 140.705 265.366 140.462C265.862 139.879 266.375 139.302 266.892 138.747C267.108 138.515 267.451 138.522 267.659 138.763C267.867 139.004 267.86 139.387 267.644 139.619C267.14 140.161 266.638 140.724 266.154 141.294C266.048 141.42 265.904 141.483 265.76 141.483ZM268.846 138.174C268.696 138.174 268.546 138.105 268.438 137.968C268.241 137.716 268.263 137.334 268.488 137.113C269.027 136.588 269.587 136.066 270.151 135.564C270.386 135.356 270.727 135.399 270.914 135.66C271.101 135.921 271.062 136.302 270.828 136.511C270.276 137.001 269.73 137.51 269.204 138.024C269.1 138.125 268.974 138.174 268.846 138.174ZM272.194 135.195C272.027 135.195 271.861 135.109 271.755 134.945C271.579 134.675 271.632 134.296 271.875 134.1C272.463 133.622 273.057 133.164 273.654 132.723C273.903 132.538 274.241 132.615 274.405 132.893C274.571 133.172 274.503 133.547 274.253 133.731C273.668 134.163 273.089 134.612 272.513 135.079C272.416 135.158 272.304 135.195 272.194 135.195ZM275.764 132.556C275.58 132.556 275.401 132.452 275.299 132.264C275.144 131.978 275.226 131.606 275.483 131.434C276.106 131.014 276.732 130.612 277.358 130.228C277.62 130.067 277.95 130.174 278.095 130.467C278.239 130.76 278.144 131.128 277.881 131.288C277.267 131.665 276.655 132.058 276.044 132.47C275.956 132.528 275.859 132.556 275.764 132.556ZM279.518 130.254C279.319 130.254 279.127 130.132 279.032 129.919C278.898 129.62 279.007 129.257 279.275 129.108C279.927 128.745 280.578 128.399 281.228 128.071C281.502 127.933 281.822 128.068 281.946 128.373C282.07 128.677 281.948 129.035 281.676 129.173C281.038 129.496 280.398 129.834 279.759 130.19C279.682 130.234 279.599 130.254 279.518 130.254ZM283.419 128.283C283.206 128.283 283.004 128.141 282.917 127.906C282.805 127.597 282.937 127.243 283.214 127.117C283.891 126.808 284.563 126.517 285.229 126.243C285.512 126.128 285.821 126.289 285.926 126.601C286.03 126.915 285.886 127.263 285.605 127.378C284.951 127.648 284.29 127.933 283.626 128.237C283.558 128.269 283.488 128.283 283.419 128.283ZM287.44 126.629C287.212 126.629 287 126.467 286.925 126.212C286.831 125.895 286.986 125.553 287.27 125.448C287.968 125.193 288.657 124.954 289.334 124.731C289.626 124.636 289.922 124.821 290.008 125.141C290.092 125.462 289.927 125.798 289.64 125.893C288.973 126.112 288.296 126.346 287.611 126.598C287.554 126.619 287.496 126.629 287.44 126.629ZM291.552 125.281C291.311 125.281 291.09 125.1 291.027 124.827C290.952 124.504 291.127 124.173 291.416 124.09C292.133 123.883 292.835 123.695 293.516 123.523C293.808 123.453 294.099 123.655 294.164 123.98C294.23 124.306 294.046 124.63 293.755 124.703C293.083 124.872 292.393 125.057 291.688 125.26C291.642 125.274 291.597 125.281 291.552 125.281ZM295.734 124.231C295.478 124.231 295.252 124.03 295.202 123.741C295.146 123.413 295.338 123.095 295.632 123.032C296.372 122.872 297.084 122.735 297.76 122.613C298.058 122.561 298.334 122.786 298.381 123.116C298.428 123.446 298.227 123.756 297.931 123.808C297.266 123.926 296.565 124.062 295.837 124.22C295.802 124.227 295.768 124.231 295.734 124.231ZM299.967 123.478C299.698 123.478 299.464 123.254 299.43 122.948C299.392 122.618 299.602 122.314 299.899 122.272C300.691 122.16 301.411 122.075 302.05 122.01C302.355 121.982 302.612 122.225 302.639 122.559C302.666 122.891 302.446 123.185 302.148 123.215C301.521 123.279 300.813 123.363 300.036 123.473C300.013 123.476 299.989 123.478 299.967 123.478Z" fill="#D6D5FF"></path><path d="M222.535 158.214C222.493 158.214 222.45 158.208 222.407 158.198C222.055 158.102 221.701 158.004 221.346 157.903C221.056 157.819 220.881 157.49 220.954 157.167C221.029 156.843 221.323 156.645 221.615 156.731C221.965 156.83 222.314 156.928 222.661 157.02C222.952 157.1 223.131 157.426 223.061 157.751C223.002 158.027 222.78 158.214 222.535 158.214Z" fill="#D6D5FF"></path><path d="M307.557 122.412C307.557 123.789 306.556 124.905 305.322 124.905C304.087 124.905 303.086 123.789 303.086 122.412C303.086 121.035 304.087 119.918 305.322 119.918C306.556 119.918 307.557 121.035 307.557 122.412Z" fill="#D6D5FF"></path><path d="M223.713 157.32C223.713 158.697 222.712 159.813 221.478 159.813C220.243 159.813 219.242 158.697 219.242 157.32C219.242 155.944 220.243 154.826 221.478 154.826C222.712 154.826 223.713 155.944 223.713 157.32Z" fill="#D6D5FF"></path><path d="M291.24 175.486C291.24 176.377 290.592 177.099 289.793 177.099H233.907C233.109 177.099 232.461 176.377 232.461 175.486V171.242C232.461 170.352 233.109 169.629 233.907 169.629H289.793C290.592 169.629 291.24 170.352 291.24 171.242V175.486Z" fill="#D6D5FF"></path><path d="M242.788 171.189H234.711V175.761H242.788V171.189Z" fill="#FCF3E8"></path><path d="M252.426 171.189H244.352V175.761H252.426V171.189Z" fill="#FCF3E8"></path><path d="M262.061 171.189H253.984V175.761H262.061V171.189Z" fill="#FCF3E8"></path><path d="M271.718 171.189H263.641V175.761H271.718V171.189Z" fill="#FCF3E8"></path><path d="M302.099 187.56C302.099 188.451 301.451 189.174 300.653 189.174H244.767C243.968 189.174 243.32 188.451 243.32 187.56V183.317C243.32 182.426 243.968 181.703 244.767 181.703H300.653C301.451 181.703 302.099 182.426 302.099 183.317V187.56Z" fill="#D6D5FF"></path><path d="M253.629 183.252H245.555V187.824H253.629V183.252Z" fill="#FCF3E8"></path><path d="M263.279 183.252H255.203V187.824H263.279V183.252Z" fill="#FCF3E8"></path><path d="M198.633 57.9232C198.168 56.1306 197.464 31.1592 220.795 29.5296C219.37 28.2049 212.629 22.7489 212.629 22.7489C212.629 22.7489 218.335 15.9617 220.088 13.7383C193.93 15.0799 181.141 33.4407 181.141 53.2787C181.141 56.3202 181.444 59.2745 182.021 62.1159C185.378 64.3449 190.354 67.4331 194.112 68.8337C195.625 65.4138 197.969 59.3576 198.633 57.9232Z" fill="#C74B50"></path><path d="M239.976 72.7142C233.717 76.4583 227.79 76.4761 223.964 76.4761C208.528 76.4761 201.358 66.8314 198.944 59.0293C198.467 60.1087 194.483 69.8204 194.483 69.8204C194.483 69.8204 185.706 65.4768 182.25 63.2099C186.312 80.8317 201.387 93.7333 224.525 93.7333C233.7 93.7333 241.142 91.7842 247.055 89.0574C247.88 85.9707 248.729 82.734 249.497 77.6854C246.726 76.2171 242.255 73.8953 239.976 72.7142Z" fill="#221BDA"></path><path d="M349.846 40.5379C345.207 22.0658 329.809 10 306.71 10C293.575 10 284.479 13.1036 278.094 17.2591L287.664 21.3106L286.863 31.5911C291.975 27.358 298.41 27.0733 307.831 27.0733C322.948 27.0733 330.383 36.9164 333.167 45.3381L342.628 49.7357L349.846 40.5379Z" fill="#221BDA"></path><path d="M350.083 41.4668L342.836 50.7033L333.488 46.3589C334.199 48.8034 334.517 51.0849 334.517 52.9138C334.517 60.9038 330.241 75.8166 313.907 79.4171L307.781 89.4015L315.96 96.7776C340.841 93.5901 351.333 75.7867 351.333 52.9146C351.333 48.8897 350.907 45.0625 350.083 41.4668Z" fill="#C74B50"></path><path d="M263.825 33.8394C259.759 27.6315 249.503 12.9083 221.088 13.6965C219.531 15.6811 216.22 19.8512 213.734 22.6603C214.576 23.3573 220.284 27.9429 221.834 29.4547C230.015 29.4547 246.374 29.8452 257.176 46.3263C260.872 38.7428 263.825 33.8394 263.825 33.8394Z" fill="#AA0000"></path><path d="M271.972 61.3326C276.141 51.0473 279.631 39.0598 286.088 32.2743L286.901 21.8478L277.316 17.7891C269.564 23.1257 259.025 44.0657 257.672 47.0628C256.318 50.0591 250.839 62.5419 246.943 66.8879C244.9 69.1669 242.823 70.8998 240.773 72.2229C243.237 73.5008 250.318 77.2126 250.318 77.2126C250.318 77.2126 248.729 85.6601 247.934 88.6483C257.828 83.8409 266.913 73.8162 271.972 61.3326Z" fill="#F4357A"></path><path d="M312.9 79.6087C310.832 79.996 308.592 80.217 306.14 80.217C298.083 80.217 280.81 76.5826 272.461 62.2168C271.734 64.9952 268.579 70.6522 265.477 74.4463C282.81 101.249 312.597 97.1475 314.918 96.8909L306.793 89.5624L312.9 79.6087Z" fill="#AA0000"></path><path d="M365.397 202.801C359.863 208.121 355.907 210.159 352.649 212.67C347.322 199.086 336.191 184.938 334.415 178.146C332.64 171.355 333.91 162.954 328.821 159.577C322.311 155.26 320.843 149.392 319.54 150.131C317.096 151.519 320.016 158.179 322.87 161.362C321.474 161.36 321.541 160.981 319.806 160.981C315.872 156.594 302.451 141.783 303.085 148.787C301.436 146.948 298.581 146.523 299.533 150.131C298.074 149.141 292.367 149.707 304.036 165.836C302.657 165.836 298.994 166.084 294.066 159.135C289.715 153 289.386 158.974 292.494 163.43C295.601 167.887 299.946 172.981 302.609 173.724C305.273 174.467 317.735 175.633 319.828 176.164C321.922 176.694 326.616 220.239 346.086 241.957C352.278 248.863 372.344 234.882 378.812 228.904C378.811 214.754 372.247 205.56 365.397 202.801Z" fill="#FFE8DA"></path><path d="M304.055 165.833C306.725 164.82 309.594 164.311 312.395 164.024C315.21 163.718 318.142 163.764 320.862 164.701C315.229 164.249 309.647 165.135 304.055 165.833Z" fill="#BD7347"></path><path d="M303.102 148.787C305.355 150.746 307.447 152.964 309.491 155.185C311.53 157.41 313.568 159.69 315.374 162.158C313.12 160.199 311.028 157.982 308.985 155.761C306.946 153.534 304.909 151.254 303.102 148.787Z" fill="#BD7347"></path><path d="M299.555 150.127C301.333 152.089 302.927 154.283 304.469 156.474C306.006 158.67 307.539 160.921 308.815 163.32C307.033 161.362 305.442 159.163 303.9 156.972C302.364 154.777 300.831 152.525 299.555 150.127Z" fill="#BD7347"></path><path d="M396.512 167.604C387.82 169.373 381.985 172.203 378.686 175.881C375.388 179.56 363.338 191.586 354.586 201.349C359.406 209.272 365.621 218.186 370.569 223.704C370.569 238.984 368.099 260.208 375.55 288.789C389.85 288.789 433.484 288.789 452.004 288.789C448.453 280.3 441.348 258.476 441.348 249.421C444.139 243.478 449.467 237.818 449.467 237.818C449.467 237.818 450.947 238.77 453.42 238.77C455.513 228.795 467.301 186.662 460.166 178.703C453.031 170.745 446.785 168.976 429.044 164.703C420.672 168.948 412.119 173.476 396.512 167.604Z" fill="#1E42B3"></path><path d="M451.732 268.977C449.56 261.442 447.835 253.885 447.835 249.426C440.668 257.421 391.359 288.794 391.359 288.794C391.359 288.794 408.309 288.794 411.938 288.794C420.484 288.793 440.133 273.381 451.732 268.977Z" fill="#1E42B2"></path><path d="M429.062 230.499C430.07 224.981 431.728 219.603 433.408 214.305C435.176 209.023 437.05 203.77 439.464 198.805C438.298 203.948 436.634 208.967 435.05 213.962C433.28 219.545 431.391 225.172 429.062 230.499Z" fill="#1E42B2"></path><path d="M377.053 223.709C376.751 218.207 377.222 212.498 377.997 207.066C378.872 201.555 379.849 196.139 381.621 190.883C381.122 196.067 380.251 201.229 379.553 206.385C378.768 212.167 378.026 217.961 377.053 223.709Z" fill="#1E42B2"></path><path d="M449.454 237.817C443.578 252.338 436.582 265.924 432.963 269.962C429.993 273.275 412.116 283.408 396.685 288.788C378.927 288.788 354.066 288.788 348.992 288.788C348.992 279.732 348.992 279.451 348.992 275.771C354.573 275.771 362.504 273.298 371.129 279.241C387.706 276.349 403.436 263.106 413.507 255.154C418.158 243.551 420.027 236.723 422.563 230.496C430.934 232.759 440.321 236.12 449.454 237.817Z" fill="#FFE8DA"></path><path d="M386.034 104.202C375.767 96.349 372.342 85.3135 378.43 82.5544C384.52 79.7953 385.983 87.8112 390.695 82.5544C395.409 77.2968 395.3 76.6119 400.85 79.7953C406.4 82.9779 418.136 73.071 432.121 88.6695C443.823 101.722 440.146 109.288 437.292 118.101C434.438 126.915 432.193 138.852 422.572 141.399C410.478 136.942 394.452 113.592 386.034 104.202Z" fill="#27252E"></path><path d="M385.939 99.5931C380.946 114.943 374.82 156.509 398.618 159.347C399.291 164.393 398.326 166.547 396.491 167.608C400.083 196.786 429.974 177.016 429.023 164.707C426.677 163.505 422.92 159.466 425.005 137.434C429.145 137.032 431.387 130.815 430.876 125.949C430.365 121.083 424.867 115.91 421.898 127.42C414.377 119.031 417.148 111.467 415.181 105.004C413.266 98.7129 396.979 95.2899 385.939 99.5931Z" fill="#FFE8DA"></path><path d="M384.866 122.789C384.758 123.968 385.286 124.992 386.048 125.079C386.807 125.165 387.511 124.281 387.619 123.102C387.727 121.923 387.197 120.9 386.436 120.812C385.676 120.726 384.973 121.611 384.866 122.789Z" fill="#27252E"></path><path d="M398.311 122.82C398.204 123.999 398.732 125.024 399.493 125.111C400.253 125.196 400.956 124.312 401.063 123.133C401.172 121.955 400.643 120.929 399.882 120.844C399.121 120.757 398.418 121.642 398.311 122.82Z" fill="#27252E"></path><path d="M405.086 159.347C408.541 159.212 412.046 158.362 415.279 157.015C418.722 155.583 421.683 153.502 424.588 151.027C422.01 154.02 419.052 156.358 415.528 157.769C412.283 159.068 408.539 159.909 405.086 159.347Z" fill="#BD7347"></path><path d="M430.453 129.218C431.532 126.352 433.456 123.454 434.101 125.323C434.745 127.191 433.737 134.108 431.184 133.556C431.871 131.831 431.822 129.515 430.453 129.218Z" fill="#27252E"></path><path d="M391.04 125.062C390.673 126.214 390.3 127.363 389.946 128.518C389.4 130.305 388.729 132.243 388.708 134.151C388.673 137.184 393.91 135.667 394.58 133.712C394.347 135.235 392.491 136.104 391.304 136.372C389.791 136.712 388.015 136.29 387.993 134.253C387.972 132.39 388.646 130.489 389.3 128.806C389.8 127.519 390.372 126.252 391.04 125.062Z" fill="#BD7347"></path><path d="M397.477 143.894C398.761 143.727 400.054 143.585 401.316 143.258C402.773 142.88 403.972 142.175 405.275 141.4C403.985 144.409 400.035 145.492 397.477 143.894Z" fill="#B36D43"></path><path d="M388.577 120.107C388.017 119.949 387.458 119.778 386.886 119.677C386.152 119.548 385.451 119.65 384.719 119.669C385.689 118.389 387.854 118.61 388.577 120.107Z" fill="#BD7347"></path><path d="M390.988 115.636C390.988 115.566 388.129 115.197 387.834 115.16C386.656 115.012 385.503 115.171 384.328 115.168C385.833 112.766 389.725 113.052 390.988 115.636Z" fill="#27252E"></path><path d="M402.038 120.142C401.478 119.984 400.919 119.813 400.347 119.712C399.614 119.584 398.912 119.686 398.18 119.704C399.15 118.424 401.316 118.645 402.038 120.142Z" fill="#BD7347"></path><path d="M404.134 116.313C404.134 116.194 400.579 115.642 400.228 115.628C398.914 115.484 397.668 115.645 396.359 115.712C398.219 113.108 402.525 113.572 404.134 116.313Z" fill="#27252E"></path><path d="M90.3219 119.248C80.0473 124.812 73.7686 131.815 73.7686 144.549C73.7686 157.283 56.2635 158.769 65.3969 173.624C78.3353 173.624 84.2335 172.775 93.3661 168.531C97.172 159.193 92.9756 150.268 90.3219 147.308C87.6683 144.348 85.2663 126.914 92.8772 126.914C96.3011 130.734 100.197 136.188 105.923 140.942C120.765 135.848 132.258 125.835 143.674 121.591C151.208 120.992 162.243 93.6138 149.305 87.8843C131.533 80.0128 111.048 71.5291 99.4423 84.475C87.8368 97.4201 87.6589 110.289 90.3219 119.248Z" fill="#27252E"></path><path d="M145.984 96.2674C146.533 95.1202 147.202 94.0472 147.752 92.9033C148.363 91.8053 148.906 90.6258 149.614 89.5996C149.292 92.0925 147.915 94.8854 145.984 96.2674Z" fill="#474454"></path><path d="M91.8854 128.529C91.361 128.529 90.8547 128.21 90.5987 127.653C88.9424 124.066 87.9675 119.824 87.9277 119.645C87.7309 118.781 88.1996 117.904 88.9735 117.684C89.7467 117.466 90.5343 117.988 90.7318 118.851C90.7412 118.891 91.6684 122.922 93.1706 126.175C93.5366 126.967 93.2574 127.94 92.5479 128.348C92.3352 128.471 92.1081 128.529 91.8854 128.529Z" fill="#9E468A"></path><path d="M181.398 214.969C188.502 204.216 194.845 197.141 196.874 192.33C196.874 180.163 198.658 162.477 207.411 165.306C210.709 157.099 213.529 146.976 215.939 147.684C218.348 148.391 215.646 157.666 212.983 166.296C217.676 167.145 223.257 167.146 221.228 173.796C223.07 174.715 223.089 177.526 222.028 178.71C223.424 182.193 221.228 184.458 215.445 186.946C213.797 191.331 211.27 194.665 210.191 195.868C208.796 199.971 204.75 212.138 202.397 219.92C197.381 219.921 188.883 219.073 181.398 214.969Z" fill="#FEEFE6"></path><path d="M207.805 167.074C209.734 167.581 211.645 168.153 213.553 168.747C214.16 168.935 214.765 169.132 215.364 169.348C215.818 169.512 216.385 169.62 216.782 169.935C217.694 170.701 217.509 172.241 216.89 173.146C215.315 175.451 212.268 174.383 210.211 173.8C208.993 173.455 207.644 173.165 206.405 173.544C205.356 173.864 204.932 174.959 204 175.406C204.741 174.911 205.068 173.911 205.85 173.421C206.798 172.826 207.963 172.824 209.017 172.936C211.144 173.164 213.94 174.703 215.908 173.11C216.516 172.618 217.16 171.227 216.389 170.543C216.122 170.195 215.276 170.056 214.9 169.904C214.318 169.67 213.736 169.442 213.151 169.215C211.364 168.52 209.579 167.816 207.805 167.074Z" fill="#BD7347"></path><path d="M221.234 173.799C220.463 175.508 218.882 176.778 217.426 177.684C215.514 178.904 213.326 179.492 211.162 179.806C210.195 179.946 209.11 180.079 208.19 179.617C207.255 179.148 206.967 178.084 207.527 177.124C208.615 175.261 210.809 175.174 212.34 174.024C211.047 175.232 209.165 175.501 208.12 177.091C207.552 177.908 207.744 178.769 208.66 179.042C209.613 179.326 210.626 179.077 211.581 178.942C214.989 178.34 219.043 177.019 221.234 173.799Z" fill="#BD7347"></path><path d="M222.026 178.711C220.247 181.743 216.454 183.217 213.362 183.426C212.26 183.5 208.98 183.832 208.643 182.102C208.347 180.581 210.672 179.41 211.717 179.316C210.883 179.596 209.099 180.672 209.107 181.823C209.118 183.144 213.111 182.682 213.793 182.57C216.685 182.357 219.941 181.02 222.026 178.711Z" fill="#BD7347"></path><path d="M215.444 186.95C214.143 187.453 212.339 187.645 211.066 186.971C209.223 185.994 210.539 183.971 211.686 183.084C211.168 184.05 210.034 185.724 211.52 186.311C212.731 186.833 214.164 186.812 215.444 186.95Z" fill="#BD7347"></path><path d="M86.4383 161.506C74.3403 162.372 64.5589 164.179 60.6598 168.526C52.6547 177.454 37.9378 214.225 28.0436 242.663C20.0522 256.67 22.716 259.641 28.0436 265.584C44.0262 265.584 49.5216 256.845 56.3991 249.174C61.4019 236.44 62.9236 235.807 65.0167 230.499C67.4903 238.35 70.5446 267.074 68.3748 288.791C85.8503 288.791 122.288 288.791 133.324 288.791C133.324 270.539 140.173 243.234 143.598 230.499C151.589 233.469 157.678 238.987 162.244 238.987C168.713 231.771 172.519 219.037 172.519 215.641C160.722 197.389 147.392 174.153 144.359 169.941C141.124 165.449 138.271 164.706 130.422 164.07C122.542 166.546 101.834 170.33 86.4383 161.506Z" fill="#AA0052"></path><path d="M56.3979 249.172C54.9376 248.14 53.1519 247.622 51.4848 247.204C49.1342 246.615 46.725 246.32 44.3187 246.211C40.1296 245.803 35.9115 246.38 31.7188 246.343C35.7104 245.025 39.9582 244.354 44.1227 244.583C46.4668 244.712 48.7335 245.112 50.9886 245.829C52.8814 246.429 55.078 247.48 56.3979 249.172Z" fill="#AA0052"></path><path d="M143.584 230.499C144.013 227.6 144.211 224.783 144.03 221.843C143.811 218.293 143.149 214.797 142.323 211.367C140.94 205.049 138.614 199.006 136.734 192.861C139.609 198.478 142.127 204.385 143.648 210.647C144.53 214.281 145.128 218.033 145.082 221.807C145.045 224.859 144.523 227.647 143.584 230.499Z" fill="#AA0052"></path><path d="M78.3825 202.482C73.8166 211.821 69.2492 220.876 65 230.499C65.8079 233.066 66.6772 237.87 67.4077 243.923C70.0274 230.439 76.2308 211.814 78.3825 202.482Z" fill="#AA0052"></path><path d="M56.3946 249.182C68.6242 261.347 81.6878 273.725 96.3591 279.318C110.738 279.318 121.145 284.815 127.513 288.798C113.333 288.798 98.5897 288.798 83.7997 288.798C72.7627 284.647 38.5358 273.387 28.0391 265.591C31.9714 258.8 41.2451 251.728 56.3946 249.182Z" fill="#FEEFE6"></path><path d="M145.976 96.2637C148.259 112.393 146.61 157.793 122.763 155.53C121.241 160.341 122.716 162.056 123.556 163.435C125.808 163.631 127.615 163.916 130.421 164.072C126.903 175.403 101.123 190.653 86.4375 161.508C88.5198 161.456 90.3822 161.239 91.5907 161.171C94.0296 155.846 98.8841 150.489 100.597 128.417C96.6015 127.144 95.4595 120.565 96.791 115.895C98.1233 111.226 104.402 107.315 105.353 119.246C108.187 116.085 110.871 116.983 112.774 110.496C114.677 104.01 130.437 113.596 145.976 96.2637Z" fill="#FEEFE6"></path><path d="M122.766 155.534C119.28 155.349 115.749 153.733 112.784 151.768C109.563 149.635 107.064 146.709 105.039 143.227C107.445 146.241 109.971 148.908 113.076 151.025C116.051 153.053 119.363 154.657 122.766 155.534Z" fill="#BD7347"></path><path d="M103.025 120.571C102.453 117.529 101.058 114.275 100.107 115.973C99.1566 117.671 98.9656 124.675 101.566 124.675C101.186 122.834 101.629 120.571 103.025 120.571Z" fill="#FEEFE6"></path><path d="M136.507 122.074C136.901 123.488 137.189 124.947 137.407 126.406C137.72 128.503 138.097 131.031 137.499 133.103C136.532 136.453 131.157 133.611 131.18 130.9C131.515 133.026 136.336 135.562 136.893 132.551C137.273 130.502 137.019 128.264 136.86 126.201C136.754 124.824 136.627 123.449 136.507 122.074Z" fill="#BD7347"></path><path d="M132.949 141.649C130.162 142.674 126.475 140.77 125.719 137.545C126.806 138.526 127.8 139.396 129.062 140.094C130.311 140.744 131.639 141.183 132.949 141.649Z" fill="#B36D43"></path><path d="M142.878 122.997C142.768 124.175 142.064 125.059 141.304 124.971C140.542 124.884 140.015 123.858 140.124 122.68C140.232 121.502 140.937 120.617 141.697 120.705C142.458 120.792 142.986 121.818 142.878 122.997Z" fill="#27252E"></path><path d="M139.695 119.535C140.675 118.232 142.838 118.507 143.554 119.979C142.84 119.794 142.171 119.536 141.429 119.497C140.852 119.466 140.273 119.506 139.695 119.535Z" fill="#BD7347"></path><path d="M139.023 113.972C140.455 111.924 143.92 112.373 144.951 114.653C144.435 114.637 139.023 114.06 139.023 113.972Z" fill="#27252E"></path><path d="M130.057 120.698C129.948 121.876 129.243 122.76 128.483 122.673C127.722 122.585 127.195 121.56 127.303 120.381C127.412 119.203 128.117 118.318 128.877 118.406C129.637 118.494 130.164 119.52 130.057 120.698Z" fill="#27252E"></path><path d="M126.914 117.234C127.893 115.931 130.057 116.207 130.773 117.678C130.059 117.495 129.39 117.236 128.648 117.196C128.07 117.165 127.491 117.206 126.914 117.234Z" fill="#BD7347"></path><path d="M126.359 113.195C127.791 111.146 131.256 111.596 132.286 113.877C131.771 113.861 126.359 113.282 126.359 113.195Z" fill="#27252E"></path><path d="M400.808 286.519C400.808 287.456 400.127 288.216 399.286 288.216H355.905C355.064 288.216 354.383 287.456 354.383 286.519V285.387C354.383 284.449 355.064 283.689 355.905 283.689H399.286C400.127 283.689 400.808 284.449 400.808 285.387V286.519Z" fill="#CDC8EB"></path><path d="M368.216 286.518C368.216 287.455 367.535 288.215 366.694 288.215H272.827C271.987 288.215 271.305 287.455 271.305 286.518L264.065 207.002C264.014 206.071 264.746 205.305 265.587 205.305H359.453C360.422 205.305 360.84 205.97 360.975 207.002L368.216 286.518Z" fill="black"></path><path d="M315.433 266.778C305.54 266.778 297.492 257.8 297.492 246.765C297.492 235.729 305.54 226.752 315.433 226.752C325.327 226.752 333.375 235.729 333.375 246.765C333.375 257.8 325.327 266.778 315.433 266.778ZM315.433 227.376C305.849 227.376 298.052 236.074 298.052 246.765C298.052 257.456 305.849 266.154 315.433 266.154C325.018 266.154 332.816 257.456 332.816 246.765C332.816 236.075 325.018 227.376 315.433 227.376Z" fill="white"></path><path d="M311.35 251.777L303.234 248.082V245.447L311.35 241.752V243.941L304.705 246.898V246.63L311.35 249.588V251.777Z" fill="white"></path><path d="M312.438 257.928L316.08 237.209H318.422L314.779 257.928H312.438Z" fill="white"></path><path d="M319.516 251.777V249.588L326.16 246.63V246.898L319.516 243.941V241.752L327.631 245.447V248.082L319.516 251.777Z" fill="white"></path><path d="M110.852 286.519C110.852 287.456 111.532 288.216 112.373 288.216H155.755C156.595 288.216 157.276 287.456 157.276 286.519V285.387C157.276 284.449 156.595 283.689 155.755 283.689H112.373C111.532 283.689 110.852 284.449 110.852 285.387V286.519Z" fill="#CDC8EB"></path><path d="M143.438 286.518C143.438 287.455 144.119 288.215 144.959 288.215H238.826C239.667 288.215 240.348 287.455 240.348 286.518L247.588 207.002C247.639 206.071 246.907 205.305 246.066 205.305H152.199C151.23 205.305 150.812 205.97 150.677 207.002L143.438 286.518Z" fill="black"></path><path d="M196.442 266.778C186.548 266.778 178.5 257.8 178.5 246.765C178.5 235.729 186.548 226.752 196.442 226.752C206.335 226.752 214.383 235.729 214.383 246.765C214.383 257.8 206.335 266.778 196.442 266.778ZM196.442 227.376C186.857 227.376 179.06 236.074 179.06 246.765C179.06 257.456 186.857 266.154 196.442 266.154C206.026 266.154 213.823 257.456 213.823 246.765C213.823 236.075 206.026 227.376 196.442 227.376Z" fill="white"></path><path d="M193.129 258.462C191.954 258.462 191.068 258.137 190.472 257.485C189.874 256.834 189.576 255.879 189.576 254.623V248.895C189.576 248.404 189.457 248.032 189.221 247.78C188.984 247.526 188.655 247.4 188.235 247.4H187.875V245.244H188.235C188.655 245.244 188.984 245.118 189.221 244.866C189.457 244.612 189.576 244.24 189.576 243.748V238.905C189.576 237.64 189.874 236.683 190.472 236.035C191.068 235.387 191.954 235.064 193.129 235.064C193.422 235.064 193.697 235.077 193.955 235.104C194.211 235.129 194.443 235.162 194.651 235.198V237.263H193.479C192.985 237.263 192.614 237.392 192.364 237.648C192.113 237.906 191.987 238.302 191.987 238.838V243.56C191.987 244.451 191.784 245.148 191.377 245.647C190.969 246.145 190.276 246.429 189.295 246.495V246.148C190.275 246.208 190.969 246.49 191.377 246.991C191.784 247.494 191.987 248.192 191.987 249.086V254.689C191.987 255.216 192.113 255.611 192.364 255.872C192.614 256.132 192.985 256.263 193.479 256.263H194.651V258.327C194.443 258.365 194.212 258.396 193.955 258.423C193.698 258.449 193.422 258.462 193.129 258.462Z" fill="white"></path><path d="M199.765 258.464C199.478 258.464 199.204 258.451 198.945 258.426C198.684 258.4 198.447 258.368 198.234 258.33V256.266H199.415C199.915 256.266 200.288 256.135 200.537 255.875C200.783 255.614 200.907 255.219 200.907 254.692V249.089C200.907 248.196 201.115 247.497 201.532 246.995C201.948 246.494 202.638 246.211 203.598 246.151V246.498C202.638 246.432 201.949 246.148 201.532 245.651C201.115 245.151 200.907 244.455 200.907 243.563V238.841C200.907 238.305 200.783 237.91 200.537 237.651C200.288 237.396 199.915 237.266 199.415 237.266H198.234V235.202C198.448 235.166 198.684 235.133 198.945 235.108C199.204 235.081 199.478 235.068 199.765 235.068C200.946 235.068 201.833 235.391 202.427 236.039C203.02 236.687 203.317 237.643 203.317 238.908V243.752C203.317 244.244 203.436 244.615 203.673 244.87C203.909 245.122 204.238 245.248 204.658 245.248H205.019V247.404H204.658C204.238 247.404 203.909 247.529 203.673 247.784C203.436 248.036 203.317 248.407 203.317 248.899V254.627C203.317 255.883 203.02 256.838 202.427 257.489C201.833 258.139 200.946 258.464 199.765 258.464Z" fill="white"></path><path d="M478 288.792C478 288.792 471.027 288.877 458.824 289.026C452.722 289.086 445.313 289.158 436.815 289.241C428.317 289.31 418.728 289.387 408.269 289.471C397.809 289.533 386.478 289.6 374.494 289.671C362.509 289.725 349.87 289.782 336.796 289.84C310.648 289.891 282.755 289.947 254.863 290.001C226.971 289.948 199.079 289.893 172.93 289.842C159.856 289.785 147.217 289.728 135.233 289.675C123.248 289.604 111.917 289.536 101.458 289.473C90.9979 289.389 81.4096 289.312 72.9113 289.243C64.413 289.16 57.0046 289.089 50.9024 289.028C38.7003 288.878 31.7266 288.792 31.7266 288.792C31.7266 288.792 38.7003 288.707 50.9024 288.557C57.0046 288.497 64.413 288.425 72.9113 288.342C81.4096 288.273 90.9979 288.195 101.458 288.112C111.917 288.049 123.248 287.981 135.233 287.91C147.217 287.857 159.856 287.8 172.93 287.743C199.079 287.691 226.971 287.637 254.863 287.584C282.756 287.638 310.648 287.694 336.796 287.745C349.87 287.803 362.509 287.86 374.494 287.914C386.478 287.985 397.809 288.052 408.269 288.114C418.728 288.198 428.317 288.275 436.815 288.344C445.313 288.427 452.722 288.498 458.824 288.559C471.027 288.708 478 288.792 478 288.792Z" fill="#847F9E"></path></svg>