<svg xmlns="http://www.w3.org/2000/svg" width="282" height="312" viewBox="0 0 282 312" fill="none"><path d="M279.501 158.132V150.392L271.692 145.815C271.304 144.032 270.693 142.21 269.887 140.4L275.409 138.116L269.936 129.434L264.414 131.719C263.076 130.129 261.613 128.659 260.058 127.359V119.551L252.318 115.013V122.821C250.762 122.297 249.3 122.052 247.962 122.072L242.44 113.312L236.967 115.577L242.489 124.337C241.684 125.203 241.071 126.306 240.684 127.635L232.875 123.057V130.797L240.684 135.375C241.071 137.157 241.684 138.978 242.489 140.789L236.967 143.073L242.44 151.755L247.962 149.47C249.3 151.061 250.762 152.53 252.318 153.83V161.638L260.058 166.176V158.368C261.613 158.892 263.076 159.138 264.414 159.117L269.936 167.877L275.409 165.612L269.887 156.853C270.692 155.986 271.304 154.883 271.692 153.554L279.501 158.132ZM256.187 148.609C251.761 146.014 248.173 140.322 248.173 135.896C248.173 131.469 251.761 129.985 256.187 132.58C260.613 135.175 264.201 140.867 264.201 145.293C264.201 149.719 260.613 151.204 256.187 148.609Z" fill="#5266D8"></path><path d="M277.121 191.925V187.647L272.806 185.117C272.592 184.132 272.253 183.125 271.808 182.125L274.86 180.862L271.835 176.064L268.783 177.327C268.044 176.449 267.235 175.636 266.376 174.918V170.603L262.097 168.095V172.411C261.237 172.121 260.429 171.985 259.69 171.997L256.638 167.156L253.613 168.408L256.665 173.249C256.22 173.727 255.881 174.337 255.667 175.071L251.352 172.541V176.819L255.667 179.349C255.881 180.334 256.22 181.341 256.665 182.341L253.613 183.604L256.638 188.402L259.69 187.139C260.429 188.017 261.238 188.83 262.097 189.548V193.863L266.376 196.371V192.055C267.236 192.345 268.044 192.481 268.783 192.47L271.835 197.311L274.86 196.059L271.808 191.218C272.253 190.74 272.592 190.13 272.806 189.396L277.121 191.925ZM264.237 186.663C261.79 185.228 259.807 182.082 259.807 179.637C259.807 177.191 261.79 176.37 264.237 177.804C266.683 179.238 268.666 182.384 268.666 184.83C268.666 187.276 266.683 188.097 264.237 186.663Z" fill="#6D7CFA"></path><path d="M34.1 126.874C35.9547 118.95 31.0345 111.023 23.1106 109.168C15.1867 107.313 7.25963 112.233 5.40499 120.157C3.55036 128.081 8.47048 136.008 16.3944 137.863C24.3183 139.718 32.2454 134.798 34.1 126.874Z" stroke="#ABDCFF" stroke-width="2.3833" stroke-miterlimit="10"></path><path d="M30.7503 126.089C32.1748 120.014 28.4049 113.934 22.33 112.51C16.2551 111.085 10.1757 114.855 8.75117 120.93C7.32667 127.005 11.0966 133.084 17.1714 134.509C23.2463 135.933 29.3258 132.164 30.7503 126.089Z" stroke="#C7E8FF" stroke-width="2.3833" stroke-miterlimit="10"></path><path d="M98.9866 47.8578C122.563 43.5177 133.288 75.6345 144.727 93.9834C156.165 112.331 175.598 120.36 193.597 126.873C211.596 133.386 218.401 149.993 221.186 164.973C223.971 179.953 226.205 194.142 249.998 202.84C273.791 211.539 277.17 242.455 260.288 256.659L39.2957 204.122C39.2957 204.122 26.2425 168.88 48.1066 144.599C69.9706 120.318 73.2006 94.926 74.829 79.5274C76.4567 64.128 82.4404 50.9036 98.9866 47.8578Z" fill="#5C7BF1"></path><path d="M244.574 221.063L167.635 266.674C161.448 270.247 153.824 270.247 147.637 266.674L26.2948 196.618L22.5625 190.82V230.555L153.569 306.191C156.086 307.644 159.188 307.644 161.704 306.191L245.88 257.592V219.05L244.574 221.063Z" fill="url(#paint0_linear_2099_23816)"></path><path d="M25.2686 186.65L103.266 141.617C107.933 138.923 113.683 138.923 118.349 141.617L243.174 213.687C246.782 215.77 246.782 220.979 243.174 223.062L165.177 268.093C160.511 270.787 154.762 270.787 150.095 268.093L25.2686 196.025C21.6609 193.941 21.6601 188.733 25.2686 186.65Z" fill="#6772E7"></path><path d="M219.662 210.746L228.885 205.437L228.233 205.06L219.01 210.37L194.901 196.49L204.158 191.161L203.505 190.784L194.248 196.114L170.139 182.233L179.431 176.884L178.779 176.507L169.487 181.857L145.378 167.977L154.704 162.607L154.052 162.23L144.725 167.6L120.616 153.72L129.977 148.331L129.325 147.954L119.964 153.344L101.435 142.676L100.783 143.053L119.311 153.72L95.202 167.6L76.7079 156.952L76.0558 157.329L94.5491 167.976L70.4405 181.857L51.9808 171.228L51.3287 171.605L69.7876 182.233L45.679 196.113L27.2537 185.505L26.6016 185.882L45.0261 196.49L35.5386 201.952L36.1907 202.329L45.679 196.866L69.7876 210.746L60.2657 216.229L60.9178 216.606L70.4405 211.123L94.5491 225.003L84.9928 230.505L85.645 230.882L95.202 225.379L119.311 239.259L109.72 244.781L110.372 245.158L119.964 239.636L144.072 253.517L134.448 259.058L135.1 259.435L144.726 253.893L167.282 266.879L167.934 266.502L145.379 253.516L169.487 239.636L192.01 252.602L192.662 252.225L170.141 239.259L194.25 225.378L216.737 238.326L217.39 237.949L194.902 225.002L219.011 211.122L241.465 224.05L242.117 223.673L219.662 210.746ZM193.594 196.489L169.486 210.37L145.377 196.489L169.486 182.609L193.594 196.489ZM144.724 196.865L168.833 210.746L144.724 224.626L120.616 210.746L144.724 196.865ZM119.962 210.37L95.8534 196.489L119.962 182.609L144.071 196.489L119.962 210.37ZM168.832 182.233L144.724 196.113L120.615 182.233L144.724 168.352L168.832 182.233ZM119.962 154.095L144.071 167.976L119.962 181.856L95.8534 167.976L119.962 154.095ZM95.2005 168.352L119.309 182.233L95.2005 196.113L71.0919 182.233L95.2005 168.352ZM46.3303 196.489L70.439 182.609L94.5476 196.489L70.439 210.37L46.3303 196.489ZM71.0919 210.746L95.2005 196.866L119.309 210.746L95.2005 224.627L71.0919 210.746ZM95.8541 225.003L119.963 211.123L144.071 225.003L119.963 238.883L95.8541 225.003ZM144.724 253.14L120.616 239.259L144.724 225.379L168.833 239.259L144.724 253.14ZM169.486 238.883L145.377 225.003L169.486 211.123L193.594 225.003L169.486 238.883ZM194.247 224.627L170.139 210.746L194.247 196.866L218.356 210.746L194.247 224.627Z" fill="#E6F4FF"></path><path opacity="0.36" d="M227.535 240.922L222.743 252.587L220.447 253.921L215.367 265.952L210.156 268.981L205.844 280.712L214.468 275.64L232.653 255.907L227.535 240.922Z" fill="black"></path><path d="M281.613 278.23V268.973L245.771 257.536L210.148 268.981V278.237C229.946 289.668 261.944 289.661 281.613 278.23Z" fill="url(#paint1_linear_2099_23816)"></path><path d="M281.613 268.973L245.771 248.279L210.148 268.981C229.946 280.411 261.944 280.403 281.613 268.973Z" fill="#6772E7"></path><path d="M271.321 263.013V253.915L245.801 248.278L220.438 253.92V263.018C234.534 271.157 257.317 271.152 271.321 263.013Z" fill="url(#paint2_linear_2099_23816)"></path><path d="M271.321 253.916L245.801 239.182L220.438 253.921C234.534 262.059 257.317 262.054 271.321 253.916Z" fill="#6772E7"></path><path d="M264.238 249.768V240.918L245.828 239.139L227.531 240.921V249.771C237.7 255.642 254.136 255.638 264.238 249.768Z" fill="url(#paint3_linear_2099_23816)"></path><path d="M264.238 240.917L245.828 230.288L227.531 240.921C237.7 246.792 254.136 246.788 264.238 240.917Z" fill="#6772E7"></path><path opacity="0.28" d="M69.4904 106.73L45.1111 120.82V135.686L32.9219 142.731V172.464L57.3011 158.374V143.508L69.4904 136.464V106.73Z" fill="black"></path><path d="M58.8551 159.105L34.4766 173.194V143.461L58.8551 129.372V159.105Z" fill="#7399EB"></path><path d="M71.0511 137.194L46.6719 151.283V121.55L71.0511 107.461V137.194Z" fill="#7399EB"></path><path d="M46.6719 151.283L58.8611 144.238V129.372L46.6719 136.416V151.283Z" fill="#0B4D27"></path><path d="M46.6641 144.494V144.978H57.5743L58.4107 144.494H46.6641Z" fill="#1CC967"></path><path d="M58.8533 142.954H46.6641V143.437H58.8533V142.954Z" fill="#1CC967"></path><path d="M46.6641 146.035V146.518H54.9092L55.7456 146.035H46.6641Z" fill="#1CC967"></path><path d="M49.5784 149.599L50.4162 149.115H46.6641V149.599H49.5784Z" fill="#1CC967"></path><path d="M58.8533 141.414H46.6641V141.897H58.8533V141.414Z" fill="#1CC967"></path><path d="M46.6641 147.575V148.058H52.2442L53.0805 147.575H46.6641Z" fill="#1CC967"></path><path d="M48.6809 135.253L47.8438 135.736H58.8557V135.253H48.6809Z" fill="#1CC967"></path><path d="M51.3449 133.713L50.5078 134.196H58.8547V133.713H51.3449Z" fill="#1CC967"></path><path d="M56.6731 130.632L55.8359 131.116H58.8527V130.632H56.6731Z" fill="#1CC967"></path><path d="M58.8533 139.874H46.6641V140.357H58.8533V139.874Z" fill="#1CC967"></path><path d="M54.009 132.172L53.1719 132.656H58.8537V132.172H54.009Z" fill="#1CC967"></path><path d="M58.8533 136.794H46.6641V137.277H58.8533V136.794Z" fill="#1CC967"></path><path d="M58.8533 138.333H46.6641V138.816H58.8533V138.333Z" fill="#1CC967"></path><path opacity="0.28" d="M94.3863 16.5247V1.6582L70.0078 15.7472V45.4803L82.1971 38.4362V53.3027L106.576 39.2129V9.47984L94.3863 16.5247Z" fill="black"></path><path d="M95.4566 31.8307L71.0781 45.9198V16.1867L95.4566 2.09766V31.8307Z" fill="#0B4D27"></path><path d="M107.645 39.652L83.2656 53.7411V24.008L107.645 9.91895V39.652Z" fill="#0B4D27"></path><path d="M95.4549 31.8304V16.9639L83.2656 24.008V38.8745L95.4549 31.8304Z" fill="#1CC967"></path><path d="M83.2674 32.4062H71.0781V32.8894H83.2674V32.4062Z" fill="#1CC967"></path><path d="M83.2674 30.8652H71.0781V31.3484H83.2674V30.8652Z" fill="#1CC967"></path><path d="M83.2674 33.9463H71.0781V34.4295H83.2674V33.9463Z" fill="#1CC967"></path><path d="M83.2674 24.7041H71.0781V25.1873H83.2674V24.7041Z" fill="#1CC967"></path><path d="M83.2674 26.2451H71.0781V26.7283H83.2674V26.2451Z" fill="#1CC967"></path><path d="M83.2674 27.7852H71.0781V28.2683H83.2674V27.7852Z" fill="#1CC967"></path><path d="M83.2674 29.3252H71.0781V29.8084H83.2674V29.3252Z" fill="#1CC967"></path><path d="M71.0781 44.7275V45.2122H72.3029L73.1408 44.7275H71.0781Z" fill="#1CC967"></path><path d="M71.0781 38.5664V39.0511H82.9639L83.2674 38.8753V38.5664H71.0781Z" fill="#1CC967"></path><path d="M71.0781 43.1875V43.6714H74.9679L75.8058 43.1875H71.0781Z" fill="#1CC967"></path><path d="M71.0781 40.1064V40.5911H80.2988L81.1367 40.1064H71.0781Z" fill="#1CC967"></path><path d="M71.0781 41.6475V42.1314H77.6337L78.4716 41.6475H71.0781Z" fill="#1CC967"></path><path d="M83.2674 37.0264H71.0781V37.5103H83.2674V37.0264Z" fill="#1CC967"></path><path d="M83.2674 35.4863H71.0781V35.9703H83.2674V35.4863Z" fill="#1CC967"></path><path d="M74.9934 13.9229L74.1562 14.4068H95.4538V13.9229H74.9934Z" fill="#1CC967"></path><path d="M80.3286 10.8418L79.4922 11.325H95.4589V10.8418H80.3286Z" fill="#1CC967"></path><path d="M82.9926 9.30176L82.1562 9.78569H95.4579V9.30176H82.9926Z" fill="#1CC967"></path><path d="M88.3207 6.22168L87.4844 6.70485H95.4559V6.22168H88.3207Z" fill="#1CC967"></path><path d="M85.6567 7.76172L84.8203 8.24565H95.4569V7.76172H85.6567Z" fill="#1CC967"></path><path d="M90.9848 4.68066L90.1484 5.16383H95.4549V4.68066H90.9848Z" fill="#1CC967"></path><path d="M93.6496 3.14062L92.8125 3.62456H95.4539V3.14062H93.6496Z" fill="#1CC967"></path><path d="M71.0781 21.624V22.1072H86.5578L87.3942 21.624H71.0781Z" fill="#1CC967"></path><path d="M71.0781 20.084V20.5679H89.2221L90.0592 20.084H71.0781Z" fill="#1CC967"></path><path d="M71.0781 23.1641V23.6472H83.892L84.7291 23.1641H71.0781Z" fill="#1CC967"></path><path d="M77.6645 12.3818L76.8281 12.8658H95.4598V12.3818H77.6645Z" fill="#1CC967"></path><path d="M71.0781 18.543V19.0269H91.8879L92.7243 18.543H71.0781Z" fill="#1CC967"></path><path d="M71.0781 17.0029V17.4861H94.553L95.3893 17.0029H71.0781Z" fill="#1CC967"></path><path d="M72.3293 15.4629L71.4922 15.9461H95.4548V15.4629H72.3293Z" fill="#1CC967"></path><path d="M86.4629 37.0264L85.625 37.5103H107.643V37.0264H86.4629Z" fill="#1CC967"></path><path d="M83.2656 52.4287V52.9126H84.6991L85.537 52.4287H83.2656Z" fill="#1CC967"></path><path d="M83.2656 41.6465V42.1304H103.355L104.193 41.6465H83.2656Z" fill="#1CC967"></path><path d="M94.4614 32.4053L93.625 32.8892H107.647V32.4053H94.4614Z" fill="#1CC967"></path><path d="M89.1348 35.4854L88.2969 35.9693H107.65V35.4854H89.1348Z" fill="#1CC967"></path><path d="M91.7895 33.9463L90.9531 34.4295H107.64V33.9463H91.7895Z" fill="#1CC967"></path><path d="M83.8 38.5654L83.2656 38.8743V39.0501H107.645V38.5654H83.8Z" fill="#1CC967"></path><path d="M83.2656 43.1875V43.6714H100.69L101.528 43.1875H83.2656Z" fill="#1CC967"></path><path d="M83.2656 50.8877V51.3724H87.3641L88.202 50.8877H83.2656Z" fill="#1CC967"></path><path d="M83.2656 47.8076V48.2916H92.695L93.5329 47.8076H83.2656Z" fill="#1CC967"></path><path d="M83.2656 49.3486V49.8326H90.0299L90.8679 49.3486H83.2656Z" fill="#1CC967"></path><path d="M83.2656 44.7266V45.2113H98.0251L98.863 44.7266H83.2656Z" fill="#1CC967"></path><path d="M83.2656 46.2676V46.7523H95.3601L96.198 46.2676H83.2656Z" fill="#1CC967"></path><path d="M83.2656 40.1064V40.5911H106.02L106.858 40.1064H83.2656Z" fill="#1CC967"></path><path d="M107.642 20.083H95.4531V20.5662H107.642V20.083Z" fill="#1CC967"></path><path d="M98.0473 15.4629L97.2109 15.9461H107.64V15.4629H98.0473Z" fill="#1CC967"></path><path d="M107.642 18.543H95.4531V19.0261H107.642V18.543Z" fill="#1CC967"></path><path d="M107.642 17.0029H95.4531V17.4861H107.642V17.0029Z" fill="#1CC967"></path><path d="M106.048 10.8418L105.211 11.325H107.644V10.8418H106.048Z" fill="#1CC967"></path><path d="M100.719 13.9219L99.8828 14.4058H107.646V13.9219H100.719Z" fill="#1CC967"></path><path d="M103.383 12.3818L102.547 12.8658H107.645V12.3818H103.383Z" fill="#1CC967"></path><path d="M107.642 26.2441H95.4531V26.7273H107.642V26.2441Z" fill="#1CC967"></path><path d="M107.642 27.7852H95.4531V28.2683H107.642V27.7852Z" fill="#1CC967"></path><path d="M107.642 29.3252H95.4531V29.8084H107.642V29.3252Z" fill="#1CC967"></path><path d="M107.642 30.8652H95.4531V31.3484H107.642V30.8652Z" fill="#1CC967"></path><path d="M107.642 24.7041H95.4531V25.1873H107.642V24.7041Z" fill="#1CC967"></path><path d="M107.642 23.1641H95.4531V23.6472H107.642V23.1641Z" fill="#1CC967"></path><path d="M107.642 21.624H95.4531V22.1072H107.642V21.624Z" fill="#1CC967"></path><path opacity="0.4" d="M133.913 283.431L87.2853 256.365C84.3534 254.663 81.9766 250.542 81.9766 247.16V214.387C81.9766 211.005 84.3534 209.642 87.2853 211.345L133.913 238.411C136.845 240.113 139.222 244.235 139.222 247.617V280.389C139.222 283.772 136.845 285.133 133.913 283.431Z" fill="black"></path><path d="M132.179 284.281L85.5509 257.215C82.619 255.513 80.2422 251.391 80.2422 248.009V215.236C80.2422 211.854 82.619 210.492 85.5509 212.194L132.179 239.261C135.111 240.963 137.487 245.084 137.487 248.466V281.239C137.487 284.621 135.111 285.983 132.179 284.281Z" fill="#AEC1F8"></path><path d="M91.6877 231.422L90.5998 228.978L90.5356 228.941L89.3995 228.281V230.093L88.0938 229.336V222.829L90.5356 224.246C92.0424 225.121 92.9851 226.57 92.9851 228.03C92.9851 229.006 92.5577 229.473 91.8253 229.411L93.0906 232.236L91.6877 231.422ZM90.4629 225.431L89.3995 224.815V227.083L90.4629 227.701C91.2611 228.164 91.6632 227.97 91.6632 227.264C91.664 226.547 91.2611 225.895 90.4629 225.431Z" fill="#2F91D6"></path><path d="M92.0252 238.362L93.2178 239.055V241.695C92.597 241.874 91.7438 241.666 90.9373 241.198C89.1651 240.169 87.8594 238.008 87.8594 236.047C87.8594 234.085 89.1651 233.44 90.9617 234.483C91.9533 235.059 92.7751 235.926 93.3233 236.978L92.4846 237.383C92.0741 236.643 91.5978 236.135 91.0267 235.803C89.9304 235.167 89.1812 235.577 89.1812 236.814C89.1812 238.031 89.9304 239.331 91.0107 239.958C91.3646 240.163 91.6957 240.28 92.0259 240.267V238.362H92.0252Z" fill="#2F91D6"></path><path d="M93.1734 250.711C93.1734 251.836 92.3997 252.037 90.9174 251.177L88 249.483V242.977L90.756 244.577C92.1658 245.395 92.8913 246.495 92.8913 247.508C92.8913 248.158 92.6015 248.492 92.1421 248.505C92.7705 249.102 93.1734 249.894 93.1734 250.711ZM89.2981 244.864V246.398L90.5955 247.152C91.2323 247.521 91.5786 247.462 91.5786 246.95C91.5786 246.439 91.2323 245.986 90.5955 245.617L89.2981 244.864ZM91.86 249.791C91.86 249.242 91.4968 248.771 90.821 248.379L89.2981 247.496V249.104L90.821 249.988C91.4976 250.38 91.86 250.348 91.86 249.791Z" fill="#2F91D6"></path><path d="M128.809 250.935L97.8065 232.938C97.2232 232.6 96.75 231.779 96.75 231.106C96.75 230.432 97.2232 230.162 97.8065 230.5L128.809 248.497C129.393 248.836 129.866 249.656 129.866 250.329C129.866 251.003 129.393 251.274 128.809 250.935Z" fill="#D9D9D9"></path><path d="M119.023 242.816L97.8065 230.5C97.2232 230.162 96.75 230.433 96.75 231.106C96.75 231.779 97.2232 232.6 97.8065 232.938L119.023 245.254V242.816Z" fill="#B90000"></path><path d="M120.769 245.05C120.769 246.164 119.986 246.612 119.021 246.052C118.056 245.491 117.273 244.134 117.273 243.02C117.273 241.906 118.056 241.458 119.021 242.019C119.987 242.579 120.769 243.936 120.769 245.05Z" fill="#2F91D6"></path><path d="M128.809 261.034L97.8065 243.038C97.2232 242.699 96.75 241.879 96.75 241.206C96.75 240.532 97.2232 240.261 97.8065 240.6L128.809 258.596C129.393 258.935 129.866 259.755 129.866 260.429C129.866 261.102 129.393 261.373 128.809 261.034Z" fill="#D9D9D9"></path><path d="M116.055 251.192L97.8065 240.599C97.2232 240.26 96.75 240.532 96.75 241.204C96.75 241.878 97.2232 242.698 97.8065 243.037L116.055 253.63V251.192Z" fill="#1CC967"></path><path d="M117.808 253.426C117.808 254.54 117.025 254.988 116.06 254.428C115.095 253.867 114.312 252.51 114.312 251.396C114.312 250.282 115.095 249.834 116.06 250.395C117.026 250.956 117.808 252.312 117.808 253.426Z" fill="#2F91D6"></path><path d="M128.809 271.133L97.8065 253.137C97.2232 252.798 96.75 251.978 96.75 251.304C96.75 250.631 97.2232 250.36 97.8065 250.699L128.809 268.695C129.393 269.034 129.866 269.854 129.866 270.528C129.866 271.201 129.393 271.473 128.809 271.133Z" fill="#D9D9D9"></path><path d="M110.042 257.801L97.8065 250.699C97.2232 250.36 96.75 250.631 96.75 251.304C96.75 251.978 97.2232 252.798 97.8065 253.137L110.042 260.239V257.801Z" fill="#03538C"></path><path d="M111.792 260.034C111.792 261.148 111.009 261.596 110.045 261.036C109.079 260.476 108.297 259.119 108.297 258.005C108.297 256.891 109.08 256.443 110.045 257.003C111.009 257.564 111.792 258.921 111.792 260.034Z" fill="#2F91D6"></path><path d="M177.158 177.588C161.623 168.618 141.948 165.47 133.199 170.554C124.45 175.638 129.951 187.025 145.485 195.994C161.011 204.958 180.687 208.107 189.435 203.023C198.185 197.938 192.684 186.551 177.158 177.588Z" fill="#5267FF"></path><path opacity="0.42" d="M168.314 192.793L172.47 182.233L154.354 169.103C145.712 167.472 137.889 167.831 133.202 170.554C128.637 173.207 127.959 177.576 130.553 182.422L168.314 192.793Z" fill="black"></path><path d="M168.312 192.793L149.078 181.716L162.446 133.515L181.68 144.592L168.312 192.793Z" fill="#5267FF"></path><path d="M175.225 188.795L168.312 192.793L181.681 144.592L188.593 140.595L175.225 188.795Z" fill="#020F70"></path><path opacity="0.72" d="M181.27 166.984L154.75 161.247L160.395 140.894L185.409 152.059L181.27 166.984Z" fill="black"></path><path d="M256.183 197.708L248.148 202.349L121.754 120.157L113.719 9.53919L121.754 4.89941L256.183 82.4507V197.708Z" fill="#020F70"></path><path d="M248.148 202.348L113.719 124.797V9.53906L248.148 87.0911V202.348Z" fill="#5267FF"></path><path d="M244.378 195.859L117.492 122.66V16.0283L244.378 89.228V195.859Z" fill="#AEC1F8"></path><path d="M244.375 195.859L208.625 175.236V68.6045L244.375 89.2277V195.859Z" fill="#B3D8F2"></path><path d="M177.863 69.3256C187.156 80.8895 179.375 89.3556 179.375 100.57C179.375 111.785 183.032 125.187 181.157 131.373C178.889 138.859 169.582 141.438 155.72 125.309C141.858 109.179 137.04 90.2653 139.032 76.739C141.624 59.1324 163.271 51.1671 177.863 69.3256Z" fill="#7670F4"></path><path opacity="0.72" d="M184.33 105.531C187.501 103.655 187.439 97.6839 184.191 92.1931C180.943 86.7024 175.74 83.7717 172.569 85.6471C169.398 87.5226 169.461 93.4941 172.709 98.9848C175.956 104.476 181.16 107.406 184.33 105.531Z" fill="#915400"></path><path d="M187.507 99.0854C187.507 104.263 183.828 106.338 179.289 103.72C174.75 101.101 171.07 94.7812 171.07 89.6032C171.07 84.4252 174.75 82.3504 179.289 84.9688C183.828 87.5872 187.507 93.9074 187.507 99.0854Z" fill="url(#paint4_linear_2099_23816)"></path><path opacity="0.72" d="M175.889 78.6682C175.889 80.8876 174.312 81.7775 172.367 80.6552C170.421 79.5329 168.844 76.8235 168.844 74.6034C168.844 72.3833 170.421 71.4941 172.367 72.6164C174.312 73.7395 175.889 76.4489 175.889 78.6682Z" fill="#915400"></path><path d="M176.249 78.1293C176.249 80.3486 174.672 81.2385 172.726 80.1162C170.78 78.9939 169.203 76.2845 169.203 74.0652C169.203 71.8458 170.78 70.9559 172.726 72.0782C174.672 73.2005 176.249 75.9099 176.249 78.1293Z" fill="white"></path><path d="M155.723 125.31C169.585 141.439 178.892 138.86 181.161 131.374C182.576 126.703 180.84 117.92 179.903 109.069L138.672 85.2832C139.292 97.5978 144.587 112.351 155.723 125.31Z" fill="#5D55DC"></path><path d="M187.515 147.038L138.609 118.825V44.167L187.515 72.3802V147.038Z" stroke="#020F70" stroke-width="0.3978" stroke-miterlimit="10"></path><path d="M188.971 74.9444L186.055 73.2617V69.9346L188.971 71.6172V74.9444Z" fill="#020F70"></path><path d="M140.065 46.7315L137.148 45.0488V41.7217L140.065 43.4043V46.7315Z" fill="#020F70"></path><path d="M188.971 149.542L186.055 147.859V144.532L188.971 146.215V149.542Z" fill="#020F70"></path><path d="M140.065 121.328L137.148 119.646V116.319L140.065 118.002V121.328Z" fill="#020F70"></path><path opacity="0.4" d="M256.184 82.4512L248.148 87.0917V202.349L256.184 197.709V82.4512Z" fill="black"></path><path opacity="0.4" d="M162.541 308.374L190.249 292.377C190.249 292.377 188.154 284.648 181.367 287.248C177.562 281.018 172.263 282.122 169.945 283.557C169.144 279.384 165.073 274.723 160.121 274.982C151.657 275.425 150.406 285.544 150.406 285.544C150.406 285.544 142.042 284.387 141.146 291.092C136.828 290.29 131.788 292.042 131.438 296.189L152.542 308.373C155.636 310.16 159.447 310.16 162.541 308.374Z" fill="black"></path><path d="M162.541 310.31L190.249 294.312C190.249 294.312 188.154 286.584 181.367 289.184C177.562 282.953 172.263 284.057 169.945 285.492C169.144 281.32 165.073 276.658 160.121 276.918C151.657 277.36 150.406 287.479 150.406 287.479C150.406 287.479 142.042 286.322 141.146 293.028C136.828 292.227 131.788 293.978 131.438 298.125L152.542 310.31C155.636 312.096 159.447 312.096 162.541 310.31Z" fill="#1C9B64"></path><path d="M159.578 285.214V311.438" stroke="#0B4D27" stroke-width="0.6036" stroke-miterlimit="10" stroke-linecap="round" stroke-linejoin="round"></path><path d="M164.544 285.621C164.544 285.621 163.242 292.622 159.578 293.762" stroke="#0B4D27" stroke-width="0.6036" stroke-miterlimit="10" stroke-linecap="round" stroke-linejoin="round"></path><path d="M152.336 289.04C152.336 289.04 153.542 294.804 159.581 298.326" stroke="#0B4D27" stroke-width="0.6036" stroke-miterlimit="10" stroke-linecap="round" stroke-linejoin="round"></path><path d="M171.301 290.261C171.301 290.261 168.045 301.495 159.578 304.344" stroke="#0B4D27" stroke-width="0.6036" stroke-miterlimit="10" stroke-linecap="round" stroke-linejoin="round"></path><path opacity="0.72" d="M159.572 242.93C159.572 242.93 155.968 250.306 178.429 260.587L188.581 284.614L192.951 288.149L201.318 283.318L197.014 250.64L159.572 242.93Z" fill="black"></path><path d="M196.489 285.601L198.85 288.532C198.85 288.532 202.757 290.73 201.984 292.277C201.21 293.823 197.548 291.829 196 290.689C194.452 289.55 192.866 289.631 192.459 288.614C192.052 287.596 192.671 285.239 192.671 285.239L196.489 285.601Z" fill="#03538C"></path><path d="M204.364 280.492L206.724 283.424C206.724 283.424 210.632 285.622 209.859 287.168C209.085 288.715 205.423 286.72 203.875 285.581C202.327 284.441 200.741 284.523 200.334 283.505C199.927 282.488 200.546 280.131 200.546 280.131L204.364 280.492Z" fill="#03538C"></path><path d="M180.64 230.154C180.64 230.154 199.966 239.722 203.353 246.518C206.712 253.255 205.002 280.586 205.002 280.586C205.002 280.586 202.382 282.498 200.061 281.216C198.107 274.561 193.095 251.91 193.095 251.91L168.695 236.178L180.64 230.154Z" fill="#5267FF"></path><path opacity="0.44" d="M197.458 270.954C199.519 265.669 202.718 260.789 205.225 257.422C204.959 252.75 204.404 248.625 203.353 246.518C199.966 239.722 180.64 230.154 180.64 230.154L168.695 236.177L193.095 251.909C193.095 251.909 195.375 262.205 197.458 270.954Z" fill="black"></path><path d="M161.919 233.057C161.919 233.057 155.651 239.606 160.128 244.853C164.605 250.1 184.225 260.032 184.225 260.032L191.482 286.578C191.482 286.578 194.088 288.206 197.018 285.764C197.018 285.764 197.035 259.137 194.033 252.787C190.969 246.305 171.281 233.057 171.281 233.057H161.919Z" fill="#5267FF"></path><path d="M167.908 242.545L187.014 231.659C187.694 231.272 188.53 231.275 189.206 231.668L203.577 240.021L181.172 252.786L167.896 245.07C166.925 244.506 166.932 243.101 167.908 242.545Z" fill="#03538C"></path><path d="M167.908 241.967L187.014 231.081C187.694 230.694 188.53 230.697 189.206 231.09L203.577 239.442L181.407 252.327L167.896 244.492C166.925 243.928 166.932 242.523 167.908 241.967Z" fill="white"></path><path d="M174.925 243.867L190.007 235.274C190.544 234.969 191.203 234.971 191.738 235.282L199.743 239.889L182.243 250.06L174.915 245.861C174.149 245.416 174.154 244.306 174.925 243.867Z" fill="#D9D9D9"></path><path d="M183.634 202.26C187.693 203.215 189.756 206.046 189.432 211.186C189.108 216.327 189.432 226.235 189.432 226.235C189.432 226.235 190.466 233.473 192.355 236.974C194.888 238.538 193.97 239.686 193.597 240.804C193.225 241.921 191.502 239.715 190.57 238.256C190.57 238.256 185.458 232.195 183.819 228.545C182.179 224.894 183.634 202.26 183.634 202.26Z" fill="#F78080"></path><path d="M176.874 202.614C175.694 203.233 174.526 203.904 173.523 204.503C171.666 205.613 170.288 207.372 169.671 209.445L162.406 233.86C162.406 233.86 165.22 237.383 171.376 236.557C176.81 235.827 180.283 233.518 182.443 230.448C182.838 229.888 182.97 229.146 182.705 228.515C181.9 226.585 183.927 222.3 184.36 220.511C184.578 219.611 185.664 218.479 186.217 217.737C187.975 215.38 189.111 211.1 188.31 207.531C187.873 205.587 186.611 203.927 184.906 202.896L184.818 202.843C182.394 201.377 179.384 201.299 176.874 202.614Z" fill="#60D2A1"></path><path opacity="0.44" d="M174.999 213.286L170.914 236.683L161.008 233.057L174.999 213.286Z" fill="black"></path><path d="M175.566 206.046C179.669 209.232 167.114 232.165 167.114 232.165L181.256 240.371C183.515 241.409 186.368 243.619 185.836 244.301C185.303 244.983 181.366 244.849 179.242 242.936C179.242 242.936 165.422 240.168 161.072 237.99C157.248 236.075 159.567 228.787 161.933 222.477C164.038 216.865 169.87 201.623 175.566 206.046Z" fill="#F78080"></path><path d="M181.172 252.787L203.576 240.022L207.834 223.787C208.009 223.118 207.294 222.57 206.694 222.911L186.669 234.321C186.177 234.602 185.819 235.069 185.675 235.617L181.172 252.787Z" fill="#020F70"></path><path d="M196.966 237.391C196.666 238.52 195.719 239.436 194.852 239.436C193.985 239.436 193.526 238.52 193.826 237.391C194.127 236.261 195.073 235.345 195.94 235.345C196.806 235.345 197.267 236.261 196.966 237.391Z" fill="#D3E5F2"></path><path d="M184.637 191.56C184.763 193.124 183.595 194.494 182.03 194.62C180.466 194.745 179.096 193.578 178.97 192.013C178.845 190.448 180.012 189.078 181.577 188.953C183.142 188.827 184.512 189.995 184.637 191.56Z" fill="#010838"></path><path d="M189.437 197.158C189.144 199.139 188.083 200.491 188.083 200.491C188.083 200.491 187.929 204.014 184.79 204.184C183.719 204.242 183.268 204.028 183.268 204.028L183.054 204.836C182.86 205.563 182.025 205.916 181.379 205.531C180.266 204.868 178.923 203.696 179.381 202.058L180.319 197.599L186.328 194.878L189.437 197.158Z" fill="#F78080"></path><path d="M184.522 197.067C184.522 197.067 183.711 198.972 182.311 199.536C182.311 199.536 182.106 198.586 181.21 198.73C180.351 198.869 179.78 200.644 181.137 201.047L179.381 202.058C179.381 202.058 178.337 198.949 179.04 196.666C180.092 193.251 184.529 191.887 187.684 193.686C189.86 194.926 189.437 197.159 189.437 197.159C189.437 197.159 187.194 198.844 184.522 197.067Z" fill="#010838"></path><path d="M167.116 232.166L164.406 230.513" stroke="#B90000" stroke-width="0.5377" stroke-miterlimit="10"></path><path d="M264.239 227.406C269.505 227.406 273.774 223.137 273.774 217.871C273.774 212.604 269.505 208.335 264.239 208.335C258.972 208.335 254.703 212.604 254.703 217.871C254.703 223.137 258.972 227.406 264.239 227.406Z" fill="#5971D0"></path><path d="M266.07 86.376V107.981C266.07 108.352 266.313 108.722 266.8 109.003C267.774 109.565 269.367 109.565 270.34 109.003C270.827 108.722 271.07 108.352 271.07 107.981V86.376H266.07Z" fill="#6F6EF1"></path><path d="M266.8 87.3983C265.827 86.8364 265.827 85.9167 266.8 85.354C267.773 84.7921 269.367 84.7921 270.34 85.354C271.313 85.916 271.313 86.8357 270.34 87.3983C269.367 87.9602 267.773 87.9602 266.8 87.3983Z" fill="#A9D4F2"></path><path d="M42.4907 101.99L27.3138 93.4433C27.0539 93.2965 26.6968 93.321 26.3069 93.5519C25.5271 94.0137 24.8964 95.1321 24.9064 96.0388C24.911 96.4922 25.0753 96.8094 25.3353 96.9562L40.5122 105.503L42.4907 101.99Z" fill="#1CC967"></path><path d="M41.4788 102.099C42.2586 101.637 42.9046 102.001 42.9145 102.908C42.9245 103.814 42.2938 104.933 41.514 105.395C40.7342 105.856 40.0882 105.492 40.0782 104.586C40.069 103.68 40.699 102.561 41.4788 102.099Z" fill="#A9D4F2"></path><path d="M5.08391 60.1536C10.0708 56.7088 8.85597 51.0515 10.742 47.4552C14.0424 41.1626 17.803 41.2031 21.0827 38.4096C25.2981 34.8188 25.1988 26.2502 30.5702 23.141C33.1481 21.6487 35.0471 21.8742 36.6166 22.7381L36.6197 22.7335L36.6977 22.7786C36.7168 22.7893 36.7351 22.8 36.7535 22.8107L41.1341 25.3221L40.7472 26.2449C41.1425 26.582 41.54 26.8779 41.9498 27.0912C44.9711 28.663 48.088 27.0973 52.9082 29.4023L58.3515 32.4847L56.0763 34.0176C56.6849 37.3462 55.4922 41.2857 53.2217 42.5968C49.7791 44.5845 21.9206 60.6682 8.31241 68.525L8.4095 72.966L3.52814 70.1885L3.52891 70.1839C0.849322 69.1809 1.11308 62.8967 5.08391 60.1536Z" fill="#746EF6"></path><path d="M11.1793 72.4997C23.802 65.2117 54.5137 47.4805 58.1382 45.3881C61.7627 43.2949 62.6449 34.4993 57.8247 32.1935C53.0045 29.8885 49.8877 31.4542 46.8663 29.8824C43.845 28.3106 41.511 22.4453 35.4859 25.933C30.1138 29.043 30.2132 37.6108 25.9985 41.2017C22.7195 43.9952 18.9581 43.9546 15.6578 50.2465C13.7717 53.8427 14.9865 59.5001 9.99969 62.9449C4.9769 66.4142 5.88054 75.5585 11.1793 72.4997Z" fill="#8DA3F1"></path><path d="M210.83 35.0242C206.246 31.8577 207.363 26.6567 205.629 23.3503C202.595 17.5653 199.137 17.6027 196.123 15.0347C192.248 11.7336 192.339 3.85694 187.401 0.998461C185.031 -0.373059 183.285 -0.165878 181.842 0.627676L181.839 0.623856L181.767 0.665137C181.749 0.675075 181.733 0.685015 181.715 0.694954L177.688 3.00376L178.044 3.85159C177.68 4.16121 177.315 4.43338 176.938 4.62985C174.161 6.07477 171.295 4.6352 166.864 6.75441L161.859 9.58843L163.951 10.9974C163.391 14.0569 164.489 17.6792 166.576 18.884C169.74 20.7112 195.351 35.4975 207.861 42.7205L207.772 46.8029L212.259 44.2495L212.259 44.2449C214.723 43.3222 214.481 37.5456 210.83 35.0242Z" fill="#746EF7"></path><path d="M205.222 46.3734C193.617 39.6733 165.384 23.3733 162.052 21.4491C158.719 19.5248 157.909 11.4386 162.34 9.31944C166.771 7.20023 169.636 8.63979 172.415 7.19488C175.192 5.74997 177.338 0.357926 182.876 3.56349C187.815 6.42197 187.723 14.2994 191.598 17.6005C194.613 20.1685 198.071 20.1311 201.104 25.916C202.838 29.2225 201.721 34.4235 206.306 37.59C210.924 40.7795 210.092 49.186 205.222 46.3734Z" fill="#8DA3F1"></path><path opacity="0.72" d="M232.817 59.4497L220.209 52.0378C218.005 50.742 216.219 51.4782 216.219 53.6823V169.239C216.219 171.443 218.005 174.281 220.209 175.577L232.817 182.989C235.021 184.285 236.808 183.549 236.808 181.344V65.7874C236.808 63.5834 235.021 60.7463 232.817 59.4497Z" fill="black"></path><path d="M234.465 83.7223L213.875 71.6171V55.0182C213.875 52.8141 215.662 52.0779 217.866 53.3738L230.473 60.7864C232.677 62.0822 234.464 64.9193 234.464 67.1241V83.7223H234.465Z" fill="#D3E5F2"></path><path d="M213.875 153.977L234.465 166.082V182.681C234.465 184.885 232.678 185.621 230.474 184.325L217.866 176.913C215.662 175.617 213.876 172.78 213.876 170.575L213.875 153.977Z" fill="#F84F00"></path><path d="M234.465 104.312L213.875 92.2068V71.6172L234.465 83.7223V104.312Z" fill="#F8B525"></path><path d="M234.465 124.902L213.875 112.797V92.207L234.465 104.312V124.902Z" fill="#F8A900"></path><path d="M234.465 145.493L213.875 133.387V112.798L234.465 124.902V145.493Z" fill="#F89500"></path><path d="M234.465 166.081L213.875 153.976V133.387L234.465 145.492V166.081Z" fill="#F87800"></path><path d="M229.126 66.8197L229.092 66.7654L229.978 66.4008C230.37 66.2387 230.37 65.6026 229.978 64.9803C229.585 64.3573 228.949 63.9834 228.557 64.1455L227.672 64.5102L227.637 64.4559C227.313 63.9414 226.789 63.6333 226.465 63.7663L225.781 64.0476L228.443 68.2738L229.127 67.9925C229.45 67.8594 229.45 67.3342 229.126 66.8197Z" fill="#020F70"></path><path d="M226.675 64.5903L228.427 67.3724L221.043 70.4067C220.921 70.4067 220.698 70.3027 220.475 70.0695C220.222 69.8058 219.918 69.6552 219.64 69.6552C219.544 69.6552 219.452 69.6728 219.367 69.7079L218.9 69.9006C218.843 69.8838 218.697 69.7989 218.575 69.6055C218.51 69.5023 218.486 69.4197 218.477 69.3685L218.882 69.2018C219.264 69.0443 219.407 68.5902 219.231 68.0979C219.14 67.8456 219.173 67.6981 219.191 67.6751L226.675 64.5903ZM226.838 64.0781L219.035 67.2936C218.758 67.4075 218.682 67.7829 218.845 68.2355C218.946 68.5161 218.898 68.7492 218.726 68.8203L218.228 69.0252C218.007 69.1162 218.007 69.4732 218.228 69.8226C218.413 70.1177 218.696 70.3127 218.913 70.3127C218.953 70.3127 218.991 70.3058 219.026 70.2912L219.524 70.0856C219.559 70.0711 219.599 70.0642 219.641 70.0642C219.803 70.0642 220.003 70.1689 220.179 70.3524C220.462 70.6475 220.784 70.8157 221.044 70.8157C221.112 70.8157 221.175 70.8042 221.232 70.7805L229.035 67.565L226.838 64.0781Z" fill="#020F70"></path><path d="M19.75 129.142V217.53" stroke="#0B4D27" stroke-width="0.6689" stroke-miterlimit="10" stroke-linecap="round" stroke-linejoin="round"></path><path opacity="0.4" d="M33.6719 238.676L78.497 264.556C78.497 264.556 80.8892 249.139 73.644 244.098C74.4582 240.265 74.702 237.823 73.5622 233.671C71.6134 226.572 67.1311 225.53 67.1311 225.53C67.1311 225.53 68.1082 207.449 59.4425 205.445C52.2203 203.776 49.8388 217.139 49.8388 217.139C49.8388 217.139 41.9904 217.853 40.7542 227.037C40.7542 227.037 33.6719 222.963 33.6719 238.676Z" fill="black"></path><path d="M31.5234 238.677L76.3486 264.557C76.3486 264.557 78.7407 249.14 71.4948 244.098C72.3089 240.265 72.5528 237.823 71.4137 233.671C69.465 226.572 64.9827 225.53 64.9827 225.53C64.9827 225.53 65.9597 207.449 57.2941 205.445C50.0726 203.775 47.6904 217.138 47.6904 217.138C47.6904 217.138 39.842 217.852 38.6058 227.036C38.6058 227.036 31.5234 222.963 31.5234 238.677Z" fill="#1C9B64"></path><path d="M56.2753 211.446L52.9375 251.012" stroke="#0B4D27" stroke-width="0.6036" stroke-miterlimit="10" stroke-linecap="round" stroke-linejoin="round"></path><path d="M51.9531 216.006C51.9531 216.006 52.2383 220.466 55.1075 225.197" stroke="#0B4D27" stroke-width="0.6036" stroke-miterlimit="10" stroke-linecap="round" stroke-linejoin="round"></path><path d="M61.3422 222.21C61.3422 222.21 60.249 228.895 54.6016 231.23" stroke="#0B4D27" stroke-width="0.6036" stroke-miterlimit="10" stroke-linecap="round" stroke-linejoin="round"></path><path d="M45.3597 222.21C45.3597 222.21 45.1617 232.692 53.9711 238.677" stroke="#0B4D27" stroke-width="0.6036" stroke-miterlimit="10" stroke-linecap="round" stroke-linejoin="round"></path><path d="M66.5263 233.672C66.5263 233.672 64.8979 246.286 53.5312 245.554" stroke="#0B4D27" stroke-width="0.6036" stroke-miterlimit="10" stroke-linecap="round" stroke-linejoin="round"></path><path opacity="0.4" d="M46.0487 247.042L3.50181 222.953C3.50181 222.953 3.01329 212.577 8.99706 212.025C8.99706 212.025 9.72946 200.361 16.9341 201.949C16.9341 201.949 17.1146 189.371 23.7405 191.081C30.3665 192.79 31.9543 212.401 31.9543 212.401C31.9543 212.401 39.8914 213.916 39.3402 226.658C39.3402 226.658 47.9944 231.394 46.0487 247.042Z" fill="black"></path><path d="M42.5573 244.842L0.00962476 220.752C0.00962476 220.752 -0.478896 210.376 5.50487 209.825C5.50487 209.825 6.23727 198.161 13.442 199.749C13.442 199.749 13.6224 187.171 20.2483 188.88C26.8743 190.59 28.4622 210.201 28.4622 210.201C28.4622 210.201 36.3992 211.715 35.848 224.457C35.848 224.457 44.5022 229.195 42.5573 244.842Z" fill="#1C9B64"></path><path d="M20.2507 194.253L19.75 231.673" stroke="#0B4D27" stroke-width="0.6036" stroke-miterlimit="10" stroke-linecap="round" stroke-linejoin="round"></path><path d="M15.8828 197.835C15.8828 197.835 16.3767 200.278 19.9966 204.754" stroke="#0B4D27" stroke-width="0.6036" stroke-miterlimit="10" stroke-linecap="round" stroke-linejoin="round"></path><path d="M25.2483 204.43C25.2483 204.43 24.1146 210.9 20 212.061" stroke="#0B4D27" stroke-width="0.6036" stroke-miterlimit="10" stroke-linecap="round" stroke-linejoin="round"></path><path d="M10.9182 205.526C10.7768 205.608 11.7806 212 19.9378 217.455" stroke="#0B4D27" stroke-width="0.6036" stroke-miterlimit="10" stroke-linecap="round" stroke-linejoin="round"></path><path d="M32.3316 218.432C32.3316 218.432 25.8861 225.12 19.8281 225.887" stroke="#0B4D27" stroke-width="0.6036" stroke-miterlimit="10" stroke-linecap="round" stroke-linejoin="round"></path><path d="M22.0516 141.256H17.4531L17.457 143.21C17.4677 143.542 17.6871 143.874 18.1244 144.126C19.0196 144.643 20.4844 144.643 21.3796 144.126C21.8169 143.874 22.0371 143.542 22.047 143.21L22.0516 141.256Z" fill="#1F4B6B"></path><path d="M15.2109 136.861V140.719H15.2148C15.2354 141.376 15.6735 142.029 16.5366 142.527C18.3041 143.548 21.197 143.548 22.9645 142.527C23.8277 142.029 24.2657 141.376 24.2864 140.719H24.2902V136.861H15.2109Z" fill="#3785BD"></path><path d="M18.7037 115.036C14.8285 115.483 11.6206 118.579 11.0518 122.438C10.6787 124.969 11.3867 127.329 12.7804 129.134C13.8071 130.464 14.4952 132.023 14.7375 133.686L15.2031 136.88H15.213C15.2214 137.547 15.6618 138.211 16.5371 138.717C18.3047 139.737 21.1976 139.737 22.9651 138.717C23.8404 138.211 24.2808 137.546 24.2892 136.88H24.2991L24.7632 133.697C25.014 131.974 25.7869 130.397 26.8243 128.999C27.9076 127.539 28.5498 125.732 28.5498 123.774C28.5498 118.57 24.0316 114.421 18.7037 115.036Z" fill="url(#paint5_linear_2099_23816)"></path><path d="M22.3426 130.956V121.405L21.4849 122.115L20.6279 121.405L19.7601 122.124L18.8917 121.405L18.024 122.124L17.1562 121.405V130.956" stroke="white" stroke-width="0.6554" stroke-miterlimit="10"></path><path opacity="0.72" d="M156.186 208.4C156.816 206.37 157.136 204.354 157.076 202.469C156.965 198.996 155.575 196.593 153.393 195.425L153.452 195.401L150.238 193.669L150.236 193.672C147.701 192.276 144.066 192.586 140.076 194.924C132.71 199.241 126.933 208.824 127.171 216.326C127.278 219.689 128.577 222.059 130.639 223.267L130.637 223.27L130.794 223.355C130.856 223.388 130.918 223.423 130.981 223.455L133.754 224.978L133.757 224.976C136.299 226.539 140.046 226.288 144.171 223.87C148.074 221.582 151.52 217.813 153.872 213.661L160.679 210.896L156.186 208.4Z" fill="black"></path><path d="M154.572 207.116C155.201 205.086 155.522 203.07 155.462 201.185C155.39 198.931 155.029 197.629 154.015 196.317L155.069 195.892L151.855 194.16L151.853 194.163C149.318 192.767 145.683 193.077 141.693 195.415C134.327 199.733 128.55 209.315 128.788 216.818C128.895 220.18 130.195 222.55 132.256 223.758L132.254 223.762L132.411 223.846C132.473 223.88 132.535 223.915 132.599 223.947L135.372 225.47L136.141 225.026C138.392 225.366 139.631 224.301 142.559 222.587C146.461 220.299 149.907 216.529 152.259 212.378L159.067 209.613L154.572 207.116Z" fill="url(#paint6_linear_2099_23816)"></path><path d="M162.299 211.39L157.806 208.891C158.436 206.861 158.756 204.845 158.696 202.96C158.458 195.458 152.293 192.874 144.927 197.191C137.561 201.509 131.784 211.091 132.023 218.594C132.261 226.097 138.426 228.68 145.792 224.363C149.695 222.075 153.141 218.306 155.493 214.154L162.299 211.39Z" fill="#5267FF"></path><path d="M150.123 205.596C150.123 206.074 150.139 206.512 150.171 206.791L149.802 207.004C149.262 204.612 148.415 204.224 146.918 205.088L146.566 205.291V214.452C146.566 215.761 146.856 215.782 148.282 214.974V215.295C147.6 215.665 146.409 216.329 145.226 217.013C144.042 217.696 142.93 218.362 142.295 218.753V218.432C143.72 217.592 144.011 217.237 144.011 215.928V206.767L143.658 206.97C142.146 207.844 141.315 209.193 140.767 212.222L140.399 212.434C140.43 212.118 140.446 211.663 140.446 211.184C140.446 210.651 140.415 209.564 140.336 208.521C141.785 207.73 143.863 206.531 145.296 205.703C146.73 204.875 148.791 203.684 150.241 202.8C150.154 203.94 150.123 205.064 150.123 205.596Z" fill="white"></path><path opacity="0.84" d="M123.402 204.235C124.12 205.994 121.48 208.735 117.505 210.357C113.53 211.978 109.726 211.867 109.008 210.107C108.29 208.347 110.931 205.606 114.906 203.985C118.88 202.363 122.685 202.475 123.402 204.235Z" fill="black"></path><path d="M113.274 203.296C113.274 203.296 111.943 206.07 112.639 207.094C113.336 208.119 115.045 207.02 116.938 206.409C118.831 205.799 123.471 204.883 123.044 203.784C122.617 202.685 116.755 202.196 116.755 202.196L113.274 203.296Z" fill="black"></path><path d="M113.587 134.117C113.587 134.117 116.151 139.124 114.808 143.765L117.739 202.135C117.739 202.135 115.858 205.188 112.647 203.723C112.647 203.723 108.209 187.685 107.482 178.201L101.498 149.504L100.586 149.015C100.586 149.015 100.277 167.21 98.3229 174.537C96.3688 181.864 83.3845 196.135 83.3845 196.135L80.25 191.023C80.25 191.023 87.8354 175.701 90.5074 171.851C90.5074 171.851 85.4395 137.781 90.9653 129.844L113.587 134.117Z" fill="#020F70"></path><path opacity="0.44" d="M114.461 136.381C114.036 135.01 113.583 134.118 113.583 134.118L90.9614 129.844C90.5065 130.497 90.125 131.331 89.8047 132.305C97.9642 143.802 111.475 137.886 114.461 136.381Z" fill="black"></path><path d="M84.513 106.215C84.513 106.215 81.9749 114.638 80.9344 117.805C79.5675 121.968 83.5972 126.73 91.6566 122.456V108.047L84.513 106.215Z" fill="#F78080"></path><path d="M83.3594 110.029C84.6636 111.697 87.2155 114.014 91.6604 114.97V108.047L84.5168 106.215C84.5168 106.215 84.0107 107.891 83.3594 110.029Z" fill="#B90000"></path><path d="M127.857 103.968L136.582 105.991L151.195 96.5066C151.195 96.5066 151.643 94.7972 152.132 93.8202C152.62 92.8431 154.818 90.74 155.063 90.9984C155.307 91.256 154.249 92.5182 154.249 92.5182C154.249 92.5182 156.324 94.5533 154.493 95.4898C154.33 96.4264 153.841 97.4844 152.743 97.6067C152.743 97.6067 145.963 107.579 143.546 111.008C140.005 116.036 135.138 116.046 125.617 116.046C126.406 111.588 127.857 103.968 127.857 103.968Z" fill="#F78080"></path><path d="M131.496 104.811L127.858 103.968C127.858 103.968 126.407 111.588 125.617 116.045C126.421 116.045 127.181 116.043 127.921 116.04C131.722 113.107 131.693 107.245 131.496 104.811Z" fill="#B90000"></path><path d="M106.047 95.0004C106.047 95.0004 115.043 99.3963 117.363 100.292C119.684 101.188 128.476 103.956 128.476 103.956C128.476 103.956 132.201 110.522 126.407 116.424L117.689 116.045L115.409 131.431C115.409 131.431 116.915 134.2 114.514 135.827C112.113 137.456 104.826 138.865 97.6215 135.664C88.5041 131.614 88.3397 126.545 88.9796 124.428C89.6187 122.312 90.0965 110.521 90.0965 110.521C90.0965 110.521 83.8635 109.776 83.375 105.991C83.375 105.991 87.803 94.927 90.0506 92.4768C94.1201 88.0404 106.047 95.0004 106.047 95.0004Z" fill="#60D2A1"></path><path d="M90.1016 110.521L91.155 98.1348" stroke="#B90000" stroke-width="0.5679" stroke-miterlimit="10"></path><path d="M117.688 116.044L119.072 109.247" stroke="#B90000" stroke-width="0.5679" stroke-miterlimit="10"></path><path d="M120.91 110.754L119.078 114.824" stroke="#B90000" stroke-width="0.5679" stroke-miterlimit="10"></path><path opacity="0.44" d="M90.0997 110.521L90.959 100.411L86.0547 109.266C87.9346 110.256 90.0997 110.521 90.0997 110.521Z" fill="black"></path><path d="M80.2456 191.023C82.1675 191.84 83.4756 193.808 82.7463 195.102C82.0162 196.396 81.8946 198.411 81.8946 198.411C81.8946 198.411 82.8105 202.197 81.8946 202.685C80.9788 203.174 78.9742 202.455 78.3588 201.226C77.7426 199.998 78.4146 198.227 77.1325 195.113C75.8497 192 77.8038 189.985 80.2456 191.023Z" fill="black"></path><path d="M98.0312 148.039L104.137 150.481" stroke="black" stroke-width="0.5679" stroke-miterlimit="10"></path><path opacity="0.44" d="M102.337 142.07L107.505 143.988C107.505 143.988 107.348 147.878 104.276 146.994C101.204 146.11 102.337 142.07 102.337 142.07Z" fill="black"></path><path opacity="0.44" d="M91.8682 138.165L97.0363 140.785C97.0363 140.785 96.8788 144.653 93.807 143.352C90.7353 142.052 91.8682 138.165 91.8682 138.165Z" fill="black"></path><path d="M113.515 84.779L113.943 88.2896H113.241C113.241 88.2896 112.82 91.6504 111.84 91.9661C110.94 92.2559 110.356 92.0296 110.054 92.0258L109.102 96.5012C109.102 96.5012 105.731 97.8444 103.961 96.7451C102.19 95.6457 103.656 94.3025 103.656 94.3025L104.48 89.9066L111.288 83.8311L113.515 84.779Z" fill="#F78080"></path><path d="M111.533 88.3811C111.533 88.3811 111.105 87.0991 110.108 87.4859C109.297 87.8009 108.969 90.3757 110.352 90.5386C110.352 90.5386 109.452 91.5844 107.915 92.433C107.378 92.7296 106.725 92.7388 106.164 92.4865L104.572 91.7702C104.194 91.6005 103.929 91.2557 103.864 90.8459C103.764 90.2129 103.585 89.1625 103.32 87.8926C102.71 84.9615 103.351 82.3974 105.03 81.1765C108.155 78.9036 111.248 80.8408 111.248 80.8408C111.248 80.8408 115.712 79.0121 115.043 82.6137C114.5 85.5418 113.467 87.028 111.533 88.3811Z" fill="#010838"></path><path d="M81.2928 78.0648C82.0985 75.464 82.5091 72.8822 82.4319 70.4679C82.3401 67.5804 81.8776 65.9138 80.5787 64.2326L81.9281 63.6891L77.8112 61.4705L77.8082 61.4751C74.5621 59.6869 69.9062 60.0837 64.7955 63.079C55.3608 68.6087 47.9612 80.882 48.267 90.4926C48.4038 94.799 50.0681 97.8349 52.7087 99.3822L52.7057 99.3868L52.9075 99.4954C52.987 99.5389 53.0657 99.5833 53.1468 99.6246L56.6994 101.575L57.6834 101.007C60.5671 101.441 62.1549 100.079 65.9041 97.8815C70.9032 94.9519 75.3159 90.1233 78.3288 84.8062L87.0472 81.2642L81.2928 78.0648Z" fill="url(#paint7_linear_2099_23816)"></path><path d="M91.1878 83.5383L85.4334 80.3389C86.2392 77.738 86.6497 75.1563 86.5725 72.742C86.2667 63.1314 78.3701 59.8234 68.9362 65.3531C59.5014 70.8827 52.1018 83.1561 52.4076 92.7666C52.7134 102.377 60.6099 105.685 70.0439 100.156C75.043 97.226 79.4557 92.3974 82.4686 87.0803L91.1878 83.5383Z" fill="#1C9B64"></path><path d="M76.8929 71.1583L76.5175 70.8953L71.682 79.8759C71.8411 80.1267 71.8174 80.5823 71.5865 81.0096C71.3136 81.5157 70.8717 81.7719 70.5995 81.5807C70.3266 81.3896 70.3266 80.8246 70.5995 80.3185C70.8296 79.8912 71.1752 79.6611 71.4435 79.7085L76.279 70.7278L75.9036 70.4648C71.1607 75.8645 67.7441 78.6259 67.7441 78.6259L66.2969 84.0493L68.4558 85.5623L70.6156 87.0752L74.2019 83.1503C74.2019 83.1503 74.8157 78.4256 76.8929 71.1583Z" fill="white"></path><path d="M66.3035 95.0439L62.0078 92.0348L65.5498 85.457L69.8455 88.4661L66.3035 95.0439Z" fill="white"></path><defs><linearGradient id="paint0_linear_2099_23816" x1="22.5621" y1="249.05" x2="245.88" y2="249.05" gradientUnits="userSpaceOnUse"><stop offset="0.0191" stop-color="#6DBAF2"></stop><stop offset="0.2965" stop-color="#6BB9F1"></stop><stop offset="0.3965" stop-color="#64B3ED"></stop><stop offset="0.4677" stop-color="#59ABE6"></stop><stop offset="0.5252" stop-color="#489EDC"></stop><stop offset="0.5739" stop-color="#328DCF"></stop><stop offset="0.6118" stop-color="#1B7CC2"></stop><stop offset="0.6365" stop-color="#308CCE"></stop><stop offset="0.6717" stop-color="#469DDB"></stop><stop offset="0.7127" stop-color="#58AAE6"></stop><stop offset="0.7626" stop-color="#64B3ED"></stop><stop offset="0.8307" stop-color="#6BB9F1"></stop><stop offset="1" stop-color="#6DBAF2"></stop></linearGradient><linearGradient id="paint1_linear_2099_23816" x1="210.148" y1="272.171" x2="281.614" y2="272.171" gradientUnits="userSpaceOnUse"><stop stop-color="#1B7CC2"></stop><stop offset="0.0637" stop-color="#308CCE"></stop><stop offset="0.1542" stop-color="#469DDB"></stop><stop offset="0.2599" stop-color="#58AAE6"></stop><stop offset="0.3885" stop-color="#64B3ED"></stop><stop offset="0.5639" stop-color="#6BB9F1"></stop><stop offset="1" stop-color="#6DBAF2"></stop></linearGradient><linearGradient id="paint2_linear_2099_23816" x1="220.438" y1="258.699" x2="271.322" y2="258.699" gradientUnits="userSpaceOnUse"><stop stop-color="#1B7CC2"></stop><stop offset="0.0637" stop-color="#308CCE"></stop><stop offset="0.1542" stop-color="#469DDB"></stop><stop offset="0.2599" stop-color="#58AAE6"></stop><stop offset="0.3885" stop-color="#64B3ED"></stop><stop offset="0.5639" stop-color="#6BB9F1"></stop><stop offset="1" stop-color="#6DBAF2"></stop></linearGradient><linearGradient id="paint3_linear_2099_23816" x1="227.532" y1="246.655" x2="264.238" y2="246.655" gradientUnits="userSpaceOnUse"><stop stop-color="#1B7CC2"></stop><stop offset="0.0637" stop-color="#308CCE"></stop><stop offset="0.1542" stop-color="#469DDB"></stop><stop offset="0.2599" stop-color="#58AAE6"></stop><stop offset="0.3885" stop-color="#64B3ED"></stop><stop offset="0.5639" stop-color="#6BB9F1"></stop><stop offset="1" stop-color="#6DBAF2"></stop></linearGradient><linearGradient id="paint4_linear_2099_23816" x1="171.07" y1="94.3445" x2="187.507" y2="94.3445" gradientUnits="userSpaceOnUse"><stop stop-color="#F89100"></stop><stop offset="1" stop-color="#F86300"></stop></linearGradient><linearGradient id="paint5_linear_2099_23816" x1="19.7513" y1="137.853" x2="19.7513" y2="122.249" gradientUnits="userSpaceOnUse"><stop offset="0.0592" stop-color="#FFBD24"></stop><stop offset="1" stop-color="#FFDF94"></stop></linearGradient><linearGradient id="paint6_linear_2099_23816" x1="143.923" y1="196.434" x2="143.923" y2="228.897" gradientUnits="userSpaceOnUse"><stop stop-color="#3C5EEA"></stop><stop offset="1" stop-color="#F86300"></stop></linearGradient><linearGradient id="paint7_linear_2099_23816" x1="48.2574" y1="80.9895" x2="87.0468" y2="80.9895" gradientUnits="userSpaceOnUse"><stop stop-color="#345EF4"></stop><stop offset="1" stop-color="#F86300"></stop></linearGradient></defs></svg>