<svg xmlns="http://www.w3.org/2000/svg" width="317" height="305" viewBox="0 0 317 305" fill="none"><path d="M46.319 280.725C108.077 313.003 208.206 313.004 269.963 280.725C331.721 248.446 331.721 196.112 269.963 163.834C208.205 131.555 108.076 131.555 46.3182 163.833C-15.4395 196.111 -15.4395 248.446 46.319 280.725Z" fill="#2E5FC9"></path><path d="M154.422 246.651L157.264 248.292C158.16 248.809 159.612 248.809 160.508 248.292L236.369 204.493C237.265 203.976 237.265 203.137 236.369 202.621L233.528 200.979C232.632 200.463 231.18 200.463 230.284 200.979L154.421 244.779C153.526 245.296 153.526 246.134 154.422 246.651Z" fill="#E0E0E0"></path><path d="M278.022 240.492C268.629 245.517 253.399 245.517 244.006 240.492C234.613 235.467 234.613 227.32 244.006 222.295C253.399 217.271 268.629 217.271 278.022 222.295C287.416 227.32 287.416 235.467 278.022 240.492Z" fill="#E0E0E0"></path><path d="M272.195 210.409C272.195 210.409 273.061 202.794 276.848 196.885C280.636 190.976 285.84 187.288 290.696 186.904C295.552 186.52 299.474 190.988 294.278 194.056C289.083 197.124 279.852 200.255 275.603 211.729L272.195 210.409Z" fill="#27DEBF"></path><path opacity="0.1" d="M272.195 210.409C272.195 210.409 273.061 202.794 276.848 196.885C280.636 190.976 285.84 187.288 290.696 186.904C295.552 186.52 299.474 190.988 294.278 194.056C289.083 197.124 279.852 200.255 275.603 211.729L272.195 210.409Z" fill="black"></path><path d="M273.627 208.429C273.61 208.426 273.592 208.421 273.576 208.414C273.443 208.36 273.379 208.208 273.434 208.076C278.558 195.456 288.313 190.186 292.755 189.163C292.894 189.13 293.034 189.219 293.066 189.358C293.098 189.498 293.011 189.637 292.871 189.669C288.519 190.671 278.957 195.849 273.913 208.271C273.866 208.387 273.744 208.45 273.627 208.429Z" fill="white"></path><path d="M299.568 208.58C299.129 209.571 298.047 210.087 297.04 210.493C296.038 210.896 294.941 211.334 294.396 212.272C293.301 214.164 295.1 216.826 293.923 218.67C293.429 219.443 292.511 219.849 291.608 220.012C290.858 220.152 290.094 220.151 289.333 220.215C288.967 220.207 288.605 220.18 288.252 220.131C287.207 219.98 286.076 219.931 285.119 220.465C283.614 221.311 283.152 223.21 282.238 224.675C281.143 226.429 279.206 227.578 277.171 227.855C276.494 227.944 275.237 228.066 274.548 227.682C274.494 227.652 274.449 227.624 274.406 227.591C274.401 227.59 274.397 227.584 274.393 227.579C274.299 227.473 274.18 227.336 274.129 227.263C274.116 227.251 274.109 227.235 274.102 227.219C273.835 226.237 274.27 225.215 274.288 224.202C274.289 224.137 274.291 224.078 274.286 224.018C274.244 222.839 274.211 221.668 274.184 220.492C274.129 218.329 274.104 216.16 274.119 213.995C274.134 212.588 273.965 211.049 274.56 209.724C275.219 208.267 276.857 208.235 277.476 206.805C277.724 206.235 277.856 205.625 278.096 205.048C278.812 203.358 280.548 202.143 282.385 202.053C285.245 201.908 287.813 204.224 290.669 204.014C291.409 203.956 292.13 203.731 292.859 203.596C295.176 203.163 297.854 203.822 299.157 205.783C299.703 206.601 299.966 207.681 299.568 208.58Z" fill="#27DEBF"></path><path d="M273.88 222.714C273.873 222.713 273.867 222.711 273.86 222.71C273.731 222.675 273.653 222.541 273.688 222.411C277.64 207.582 293.264 205.44 296.919 205.704C297.051 205.714 297.154 205.831 297.145 205.965C297.135 206.099 297.018 206.2 296.884 206.191C293.309 205.932 278.027 208.029 274.16 222.537C274.126 222.661 274.004 222.737 273.88 222.714Z" fill="white"></path><path d="M291.236 215.196C291.189 215.187 291.143 215.165 291.107 215.128C291.068 215.089 287.084 211.161 280.475 212.133C280.342 212.151 280.217 212.06 280.198 211.927C280.178 211.794 280.271 211.669 280.404 211.65C287.268 210.641 291.413 214.743 291.454 214.784C291.549 214.88 291.548 215.035 291.453 215.13C291.393 215.188 291.312 215.211 291.236 215.196Z" fill="white"></path><path d="M169.745 139.924V147.384L40.487 222.001V222.008L36.5098 224.3C34.832 223.334 33.4688 220.87 33.4688 218.803V93.1254C33.4688 92.9157 33.5437 92.691 33.656 92.4888C33.7758 92.2865 33.9406 92.1068 34.1204 92.0019L63.5792 74.9918C63.9387 74.7896 66.0359 75.6659 66.3805 75.8756L66.6052 76.003C66.7774 76.1078 66.9647 76.2726 67.122 76.4599C67.2943 76.6621 67.4366 76.8793 67.4965 77.0815L70.163 84.7814L166.052 27.6615C166.396 27.4668 166.951 27.4593 167.31 27.6391L169.093 28.6727C169.273 28.7776 169.43 28.9498 169.55 29.1521C169.67 29.3543 169.737 29.5865 169.737 29.7962V56.0417L169.745 139.924Z" fill="#263238"></path><path d="M169.75 147.382L36.5156 224.299V94.1274L67.1279 76.4582C67.3001 76.6604 67.4424 76.8776 67.5024 77.0799L70.1689 84.7797L70.6782 86.2403L169.556 29.1504C169.675 29.3526 169.743 29.5848 169.743 29.7945L169.75 147.382Z" fill="#37474F"></path><path d="M67.1222 76.4594L36.51 94.1287L33.6562 92.4876C33.7761 92.2854 33.9409 92.1056 34.1206 92.0007L63.5794 74.9906C63.9389 74.7884 64.5157 74.7884 64.8602 74.9981L66.6054 76.0025C66.7777 76.1074 66.9649 76.2722 67.1222 76.4594Z" fill="#455A64"></path><path d="M169.551 29.151L70.6734 86.2409L70.1641 84.7803L166.053 27.6597C166.397 27.465 166.952 27.4575 167.311 27.6372L169.094 28.6716C169.274 28.7765 169.431 28.9488 169.551 29.151Z" fill="#455A64"></path><path d="M77.4273 171.366C76.6648 170.926 76.0469 169.808 76.0469 168.87V45.0877C76.0469 44.1492 76.706 43.0077 77.5187 42.5388L150.639 0.367806C151.452 -0.101077 152.729 -0.125046 153.491 0.315375C154.254 0.755796 154.872 1.87333 154.872 2.81184L154.872 126.594C154.872 127.533 154.213 128.674 153.401 129.143L80.2796 171.314C79.4669 171.783 78.1898 171.806 77.4273 171.366Z" fill="#FAFAFA"></path><path d="M80.2851 171.312L153.406 129.141C154.219 128.673 154.878 127.531 154.878 126.593L154.877 2.81037C154.877 1.87185 154.218 1.49135 153.405 1.96098L80.2843 44.132C79.4716 44.6009 78.8125 45.7424 78.8125 46.6809L78.8133 170.463C78.8133 171.402 79.4724 171.782 80.2851 171.312Z" fill="#F0F0F0"></path><path d="M88.298 49.0467L143.51 17.1693C144.227 16.7559 144.807 17.0907 144.807 17.9184V18.4352C144.807 19.2628 144.227 20.2688 143.51 20.6822L88.2965 52.5595C87.5805 52.973 86.9993 52.6374 87 51.8105V51.2937C87 50.4668 87.5812 49.4609 88.298 49.0467Z" fill="#E0E0E0"></path><path d="M88.298 57.82L143.51 25.9426C144.227 25.5292 144.807 25.8647 144.807 26.6917V27.2092C144.807 28.0361 144.227 29.0428 143.51 29.4563L88.2965 61.3336C87.5805 61.747 86.9993 61.4122 87 60.5846V60.0678C87 59.2394 87.5812 58.2334 88.298 57.82Z" fill="#E0E0E0"></path><path d="M88.298 66.5916L143.51 34.7143C144.227 34.3008 144.807 34.6356 144.807 35.4633V35.9801C144.807 36.8078 144.227 37.8137 143.51 38.2271L88.2965 70.1045C87.5805 70.5179 86.9993 70.1831 87 69.3555V68.8386C87 68.0117 87.5812 67.0058 88.298 66.5916Z" fill="#E0E0E0"></path><path d="M88.298 75.3651L143.51 43.4878C144.227 43.0744 144.807 43.4092 144.807 44.2368V44.7536C144.807 45.5813 144.227 46.5872 143.51 47.0007L88.2965 78.878C87.5805 79.2915 86.9993 78.9567 87 78.129V77.6122C87 76.7845 87.5812 75.7786 88.298 75.3651Z" fill="#E0E0E0"></path><path d="M88.298 84.1385L143.51 52.2611C144.227 51.8477 144.807 52.1825 144.807 53.0101V53.527C144.807 54.3546 144.227 55.3606 143.51 55.774L88.2965 87.6513C87.5805 88.0648 86.9993 87.73 87 86.9023V86.3855C87 85.5586 87.5812 84.5527 88.298 84.1385Z" fill="#E0E0E0"></path><path d="M88.298 92.9743L143.51 61.0969C144.227 60.6835 144.807 61.0183 144.807 61.846V62.3628C144.807 63.1904 144.227 64.1964 143.51 64.6098L88.2965 96.4871C87.5805 96.9006 86.9993 96.5658 87 95.7381V95.2213C87 94.3944 87.5812 93.3885 88.298 92.9743Z" fill="#E0E0E0"></path><path d="M88.298 101.748L143.51 69.8705C144.227 69.4571 144.807 69.7919 144.807 70.6195V71.1363C144.807 71.964 144.227 72.9699 143.51 73.3834L88.2965 105.261C87.5805 105.674 86.9993 105.339 87 104.512V103.995C87 103.167 87.5812 102.161 88.298 101.748Z" fill="#E0E0E0"></path><path d="M88.298 110.519L143.51 78.642C144.227 78.2285 144.807 78.5633 144.807 79.391V79.9086C144.807 80.7362 144.227 81.7422 143.51 82.1556L88.2965 114.033C87.5805 114.446 86.9993 114.112 87 113.284V112.767C87 111.939 87.5812 110.934 88.298 110.519Z" fill="#E0E0E0"></path><path d="M88.298 119.293L143.51 87.4154C144.227 87.002 144.807 87.3368 144.807 88.1644V88.6813C144.807 89.5089 144.227 90.5148 143.51 90.9283L88.2965 122.806C87.5805 123.219 86.9993 122.884 87 122.057V121.54C87 120.712 87.5812 119.706 88.298 119.293Z" fill="#E0E0E0"></path><path d="M88.298 128.066L143.51 96.1887C144.227 95.7753 144.807 96.1101 144.807 96.9378V97.4546C144.807 98.2822 144.227 99.2882 143.51 99.7016L88.2965 131.579C87.5805 131.992 86.9993 131.658 87 130.83V130.313C87 129.486 87.5812 128.48 88.298 128.066Z" fill="#E0E0E0"></path><path d="M88.298 136.877L143.51 105C144.227 104.586 144.807 104.921 144.807 105.749V106.266C144.807 107.093 144.227 108.1 143.51 108.513L88.2965 140.391C87.5805 140.804 86.9993 140.469 87 139.642V139.125C87 138.297 87.5812 137.291 88.298 136.877Z" fill="#E0E0E0"></path><path d="M88.298 145.65L143.51 113.773C144.227 113.359 144.807 113.694 144.807 114.522V115.039C144.807 115.866 144.227 116.872 143.51 117.286L88.2965 149.163C87.5805 149.577 86.9993 149.242 87 148.414V147.897C87 147.07 87.5812 146.064 88.298 145.65Z" fill="#E0E0E0"></path><path d="M88.298 154.423L143.51 122.546C144.227 122.133 144.807 122.468 144.807 123.295V123.813C144.807 124.64 144.227 125.646 143.51 126.06L88.2965 157.937C87.5805 158.351 86.9993 158.016 87 157.188V156.671C87 155.844 87.5812 154.837 88.298 154.423Z" fill="#E0E0E0"></path><path d="M80.0997 171.412C79.2908 171.786 78.1448 171.779 77.4407 171.367C76.6767 170.925 76.0625 169.809 76.0625 168.872V45.0918C76.0625 44.6199 76.2273 44.1031 76.4894 43.6387L79.2533 45.2341C78.9837 45.691 78.8189 46.2153 78.8189 46.6797V170.468C78.8196 171.329 79.3814 171.719 80.0997 171.412Z" fill="#E0E0E0"></path><path d="M87.7867 177.237C87.0242 176.797 86.4062 175.68 86.4062 174.741V50.9588C86.4062 50.0203 87.0654 48.8788 87.8781 48.4099L160.998 6.2389C161.811 5.77002 163.088 5.74605 163.851 6.18647C164.613 6.62689 165.231 7.74442 165.231 8.68294L165.232 132.465C165.232 133.404 164.573 134.545 163.76 135.014L90.6389 177.185C89.8263 177.654 88.5492 177.677 87.7867 177.237Z" fill="#FAFAFA"></path><path d="M90.6444 177.186L163.766 135.015C164.578 134.546 165.237 133.404 165.237 132.466L165.237 8.68341C165.237 7.7449 164.577 7.3644 163.765 7.83403L90.6437 50.0051C89.831 50.474 89.1719 51.6155 89.1719 52.554L89.1726 176.336C89.1726 177.274 89.8318 177.654 90.6444 177.186Z" fill="#F0F0F0"></path><path d="M98.6574 54.9197L153.87 23.0424C154.586 22.6289 155.167 22.9637 155.167 23.7914V24.3082C155.167 25.1359 154.586 26.1418 153.87 26.5553L98.6559 58.4326C97.9391 58.8461 97.3586 58.5112 97.3594 57.6836V57.1668C97.3594 56.3391 97.9406 55.3332 98.6574 54.9197Z" fill="#E0E0E0"></path><path d="M98.6574 63.6911L153.87 31.8137C154.586 31.4003 155.167 31.7358 155.167 32.5627V33.0796C155.167 33.9072 154.586 34.9132 153.87 35.3266L98.6559 67.2039C97.9391 67.6174 97.3586 67.2826 97.3594 66.4549V65.9381C97.3594 65.1112 97.9406 64.1045 98.6574 63.6911Z" fill="#E0E0E0"></path><path d="M98.6574 72.4627L153.87 40.5854C154.586 40.1719 155.167 40.5067 155.167 41.3344V41.8512C155.167 42.6781 154.586 43.6848 153.87 44.0982L98.6559 75.9756C97.9391 76.389 97.3586 76.0542 97.3594 75.2265V74.7097C97.3594 73.8821 97.9406 72.8761 98.6574 72.4627Z" fill="#E0E0E0"></path><path d="M98.6574 81.2381L153.87 49.3607C154.586 48.9473 155.167 49.2821 155.167 50.1098V50.6266C155.167 51.4542 154.586 52.4602 153.87 52.8736L98.6559 84.7509C97.9391 85.1644 97.3586 84.8288 97.3594 84.0019V83.4851C97.3594 82.6582 97.9406 81.6515 98.6574 81.2381Z" fill="#E0E0E0"></path><path d="M98.6574 90.0114L153.87 58.134C154.586 57.7206 155.167 58.0561 155.167 58.8831V59.4006C155.167 60.2283 154.586 61.2342 153.87 61.6477L98.6559 93.525C97.9391 93.9385 97.3586 93.6036 97.3594 92.776V92.2592C97.3594 91.4308 97.9406 90.4248 98.6574 90.0114Z" fill="#E0E0E0"></path><path d="M98.6574 98.8474L153.87 66.9701C154.586 66.5567 155.167 66.8915 155.167 67.7191V68.236C155.167 69.0636 154.586 70.0695 153.87 70.483L98.6559 102.36C97.9391 102.774 97.3586 102.439 97.3594 101.611V101.094C97.3594 100.267 97.9406 99.2609 98.6574 98.8474Z" fill="#E0E0E0"></path><path d="M98.6574 107.621L153.87 75.7436C154.586 75.3301 155.167 75.6649 155.167 76.4926V77.0094C155.167 77.8371 154.586 78.843 153.87 79.2564L98.6559 111.134C97.9391 111.547 97.3586 111.212 97.3594 110.385V109.868C97.3594 109.04 97.9406 108.034 98.6574 107.621Z" fill="#E0E0E0"></path><path d="M98.6574 116.392L153.87 84.515C154.586 84.1016 155.167 84.4364 155.167 85.2641V85.7809C155.167 86.6085 154.586 87.6145 153.87 88.0279L98.6559 119.905C97.9391 120.319 97.3586 119.984 97.3594 119.156V118.639C97.3594 117.812 97.9406 116.807 98.6574 116.392Z" fill="#E0E0E0"></path><path d="M98.6574 125.164L153.87 93.2865C154.586 92.8731 155.167 93.2079 155.167 94.0355V94.5531C155.167 95.38 154.586 96.3867 153.87 96.8001L98.6559 128.677C97.9391 129.091 97.3586 128.756 97.3594 127.928V127.412C97.3594 126.583 97.9406 125.577 98.6574 125.164Z" fill="#E0E0E0"></path><path d="M98.6574 133.937L153.87 102.06C154.586 101.647 155.167 101.981 155.167 102.809V103.326C155.167 104.153 154.586 105.159 153.87 105.573L98.6559 137.45C97.9391 137.864 97.3586 137.528 97.3594 136.701V136.184C97.3594 135.357 97.9406 134.351 98.6574 133.937Z" fill="#E0E0E0"></path><path d="M98.6574 142.748L153.87 110.871C154.586 110.457 155.167 110.792 155.167 111.62V112.136C155.167 112.964 154.586 113.97 153.87 114.383L98.6559 146.261C97.9391 146.674 97.3586 146.339 97.3594 145.512V144.995C97.3594 144.168 97.9406 143.162 98.6574 142.748Z" fill="#E0E0E0"></path><path d="M98.6574 151.521L153.87 119.644C154.586 119.23 155.167 119.565 155.167 120.393V120.91C155.167 121.737 154.586 122.743 153.87 123.157L98.6559 155.034C97.9391 155.448 97.3586 155.112 97.3594 154.285V153.768C97.3594 152.941 97.9406 151.935 98.6574 151.521Z" fill="#E0E0E0"></path><path d="M98.6574 160.297L153.87 128.419C154.586 128.006 155.167 128.341 155.167 129.168V129.685C155.167 130.513 154.586 131.519 153.87 131.932L98.6559 163.81C97.9391 164.223 97.3586 163.888 97.3594 163.061V162.544C97.3594 161.717 97.9406 160.711 98.6574 160.297Z" fill="#E0E0E0"></path><path d="M90.4591 177.282C89.6501 177.656 88.5041 177.649 87.8001 177.237C87.0361 176.795 86.4219 175.679 86.4219 174.743V50.9629C86.4219 50.491 86.5867 49.9742 86.8488 49.5098L89.6127 51.1052C89.343 51.5621 89.1783 52.0864 89.1783 52.5508V176.339C89.179 177.2 89.7408 177.589 90.4591 177.282Z" fill="#E0E0E0"></path><path d="M196.962 44.4746L175.6 136.978L173.63 145.487C173.166 147.502 171.338 149.973 169.548 151.007L42.7999 224.186C41.961 224.673 40.8824 224.942 39.8038 224.987C38.6054 225.04 37.3995 224.815 36.5156 224.298L37.1673 221.474C37.1897 221.384 37.2122 221.295 37.2347 221.197L37.9462 218.104L41.0472 204.681L60.6863 119.638C60.7088 119.533 60.7537 119.429 60.8062 119.324C60.8586 119.226 60.9185 119.129 60.9784 119.039C60.9859 119.024 61.0009 119.009 61.0084 118.994C61.1582 118.799 61.3305 118.635 61.5028 118.53L169.743 56.0394L193.434 42.3624C193.794 42.1526 194.378 42.1526 194.738 42.3624L196.483 43.3661C196.835 43.5758 197.052 44.0701 196.962 44.4746Z" fill="#37474F"></path><path d="M196.976 44.2873C196.961 44.0252 196.766 43.9428 196.474 44.1151L64.5354 120.29C64.3631 120.387 64.1833 120.56 64.041 120.754L61 118.994C61.1498 118.799 61.3221 118.635 61.4943 118.53L193.426 42.3624C193.785 42.1526 194.37 42.1526 194.729 42.3624L196.474 43.3661C196.774 43.5458 196.976 43.9278 196.976 44.2873Z" fill="#455A64"></path><path d="M64.0494 120.754C63.9595 120.874 63.8846 121.002 63.8247 121.121C63.7798 121.219 63.7498 121.309 63.7273 121.391L44.9495 202.719H44.942L40.9872 219.856L40.4929 221.999V222.006L39.8038 224.987C38.6054 225.04 37.3995 224.815 36.5156 224.298L37.1673 221.474C37.1897 221.384 37.2122 221.295 37.2347 221.197L37.9462 218.104L41.0472 204.681L60.6863 119.638C60.7088 119.533 60.7537 119.429 60.8062 119.324C60.8586 119.226 60.9185 119.129 60.9784 119.039C60.9859 119.024 61.0009 119.009 61.0084 118.994L64.0494 120.754Z" fill="#263238"></path><path d="M41.1566 216.444C41.478 216.629 41.6398 217.003 41.5566 217.364L40.487 221.999V222.006L39.95 224.33C39.8578 224.73 39.4901 225.006 39.0804 224.986C38.1299 224.939 37.2168 224.712 36.5098 224.299C34.832 223.333 33.4688 220.868 33.4688 218.801V213.468C33.4688 212.818 34.1713 212.413 34.7338 212.737L36.0888 213.52C36.3495 213.67 36.5098 213.951 36.5098 214.252V216.902C36.5098 217.906 37.9486 218.07 38.1741 217.092L38.4003 216.112C38.5276 215.56 39.153 215.288 39.6436 215.571L41.1566 216.444Z" fill="#263238"></path><path d="M69.1283 196.676L61.9145 192.512C61.9145 192.512 61.907 192.512 61.8996 192.512L61.8247 192.468L61.8172 192.482C58.2301 190.457 53.3129 190.756 47.8645 193.903C42.7675 196.84 38.1198 201.742 34.6144 207.414C30.5638 213.946 28.0156 221.508 28.0156 228.287C28.0156 234.609 30.2275 239.049 33.8078 241.126V241.133L33.8302 241.141L41.1541 245.324C44.7711 247.629 49.8779 247.426 55.5427 244.155C66.5075 237.824 75.3968 222.429 75.3976 209.768C75.3976 203.175 72.985 198.631 69.1283 196.676Z" fill="#2F56A9"></path><path opacity="0.1" d="M41.011 245.241L33.828 241.137L33.8055 241.129V241.122C30.2252 239.047 28.0156 234.605 28.0156 228.284C28.0156 221.505 30.5623 213.947 34.6144 207.416L42.2769 211.835C38.2247 218.367 35.6855 225.917 35.6855 232.688C35.6848 238.732 37.7071 243.054 41.011 245.241Z" fill="black"></path><path opacity="0.4" d="M68.982 196.594C65.4466 194.879 60.7278 195.313 55.5447 198.302C50.4439 201.253 45.7925 206.159 42.2796 211.836L34.6172 207.417C38.1226 201.74 42.774 196.841 47.8673 193.905C53.3126 190.759 58.2336 190.459 61.8214 192.482L61.8289 192.467L61.9038 192.512C61.9113 192.512 61.9188 192.512 61.9188 192.512L68.982 196.594Z" fill="white"></path><path d="M58.295 223.27V230.233C58.295 230.576 58.2141 230.919 58.0523 231.262C57.8905 231.605 57.698 231.84 57.4756 231.969L53.6496 234.178C53.4264 234.306 53.2346 234.293 53.0729 234.136C52.9111 233.981 52.8302 233.732 52.8302 233.388V226.425L48.1241 229.142C47.9009 229.271 47.7092 229.257 47.5474 229.101C47.3848 228.946 47.3047 228.696 47.3047 228.353V223.632C47.3047 223.289 47.3856 222.947 47.5474 222.603C47.7092 222.261 47.9017 222.025 48.1241 221.896L52.8302 219.179V212.215C52.8302 211.873 52.9111 211.53 53.0729 211.187C53.2346 210.844 53.4271 210.608 53.6496 210.48L57.4756 208.271C57.698 208.142 57.8905 208.156 58.0523 208.312C58.2141 208.468 58.295 208.717 58.295 209.059V216.025L62.9711 213.325C63.1935 213.196 63.386 213.21 63.5478 213.366C63.7096 213.523 63.7905 213.772 63.7905 214.115V218.836C63.7905 219.179 63.7096 219.522 63.5478 219.865C63.386 220.208 63.1935 220.443 62.9711 220.572L58.295 223.27Z" fill="white"></path><path d="M250.815 115.051L242.064 114.808C241.476 114.305 232.285 103.932 232.285 103.932C232.285 103.932 228.978 109.151 228.922 109.483C228.867 109.815 237.934 119.512 238.831 120.49C239.327 121.032 239.782 121.465 240.971 121.536C243.342 121.679 252.222 122.303 252.222 122.303L250.815 115.051Z" fill="#B16668"></path><path d="M157.349 246.517C156.587 246.077 155.969 244.959 155.969 244.021V127.605C155.969 126.667 156.628 125.525 157.441 125.056L230.561 82.8854C231.374 82.4165 232.651 82.3925 233.413 82.833C234.176 83.2734 234.794 84.3909 234.794 85.3294L234.794 201.746C234.794 202.684 234.135 203.825 233.323 204.295L160.201 246.466C159.389 246.934 158.112 246.958 157.349 246.517Z" fill="#7A9EEA"></path><path opacity="0.15" d="M159.797 246.629C159.841 246.622 159.894 246.607 159.946 246.584C159.916 246.607 159.879 246.622 159.841 246.629C159.759 246.667 159.669 246.689 159.572 246.719C159.527 246.734 159.474 246.742 159.422 246.757C159.31 246.779 159.197 246.802 159.085 246.809C158.958 246.824 158.823 246.832 158.695 246.832C158.201 246.832 157.722 246.727 157.355 246.517C157.07 246.352 156.8 246.09 156.583 245.776C156.216 245.266 155.977 244.607 155.977 244.023V127.603C155.977 127.364 156.014 127.124 156.089 126.877C156.126 126.75 156.171 126.63 156.224 126.51C156.276 126.383 156.336 126.27 156.403 126.15L159.16 127.746H159.167C159.145 127.783 159.122 127.821 159.1 127.858C158.875 128.285 158.733 128.764 158.733 129.191V245.618C158.733 245.783 158.755 245.933 158.793 246.06C158.853 246.255 158.95 246.405 159.077 246.51C159.167 246.577 159.265 246.622 159.377 246.652C159.43 246.659 159.489 246.667 159.549 246.667C159.617 246.667 159.684 246.659 159.752 246.637C159.767 246.644 159.782 246.637 159.797 246.629Z" fill="black"></path><path opacity="0.3" d="M234.768 85.0536C234.648 84.3195 234.049 84.0574 233.322 84.4768L160.196 126.646C159.791 126.886 159.424 127.291 159.155 127.747L156.398 126.152C156.661 125.695 157.028 125.291 157.44 125.058L230.558 82.8814C231.375 82.417 232.648 82.3946 233.412 82.829C234.101 83.226 234.671 84.1772 234.768 85.0536Z" fill="white"></path><path d="M168.236 131.562L223.448 99.685C224.164 99.2715 224.745 99.6063 224.745 100.434V100.951C224.745 101.778 224.164 102.784 223.448 103.198L168.234 135.075C167.517 135.489 166.937 135.154 166.938 134.326V133.809C166.938 132.982 167.519 131.976 168.236 131.562Z" fill="#FAFAFA"></path><path d="M168.236 142.295L223.448 110.417C224.164 110.004 224.745 110.339 224.745 111.166V111.684C224.745 112.511 224.164 113.518 223.448 113.931L168.234 145.808C167.517 146.222 166.937 145.887 166.938 145.059V144.542C166.938 143.715 167.519 142.708 168.236 142.295Z" fill="#FAFAFA"></path><path d="M168.236 153.029L223.448 121.152C224.164 120.738 224.745 121.073 224.745 121.901V122.418C224.745 123.245 224.164 124.251 223.448 124.665L168.234 156.542C167.517 156.955 166.937 156.62 166.938 155.793V155.276C166.938 154.448 167.519 153.443 168.236 153.029Z" fill="#FAFAFA"></path><path d="M168.236 163.763L223.448 131.886C224.164 131.473 224.745 131.807 224.745 132.635V133.153C224.745 133.98 224.164 134.986 223.448 135.4L168.234 167.277C167.517 167.691 166.937 167.356 166.938 166.528V166.011C166.938 165.184 167.519 164.177 168.236 163.763Z" fill="#FAFAFA"></path><path d="M168.236 174.498L223.448 142.62C224.164 142.207 224.745 142.542 224.745 143.369V143.886C224.745 144.714 224.164 145.72 223.448 146.133L168.234 178.01C167.517 178.424 166.937 178.089 166.938 177.261V176.745C166.938 175.917 167.519 174.911 168.236 174.498Z" fill="#FAFAFA"></path><path d="M168.236 185.23L223.448 153.353C224.164 152.939 224.745 153.274 224.745 154.102V154.619C224.745 155.446 224.164 156.452 223.448 156.866L168.234 188.743C167.517 189.157 166.937 188.822 166.938 187.994V187.477C166.938 186.65 167.519 185.644 168.236 185.23Z" fill="#FAFAFA"></path><path d="M168.236 195.965L223.448 164.087C224.164 163.674 224.745 164.009 224.745 164.836V165.353C224.745 166.181 224.164 167.187 223.448 167.6L168.234 199.478C167.517 199.891 166.937 199.556 166.938 198.728V198.212C166.938 197.384 167.519 196.378 168.236 195.965Z" fill="#FAFAFA"></path><path d="M168.236 206.699L223.448 174.822C224.164 174.408 224.745 174.743 224.745 175.571V176.088C224.745 176.915 224.164 177.922 223.448 178.335L168.234 210.213C167.517 210.626 166.937 210.291 166.938 209.464V208.947C166.938 208.118 167.519 207.112 168.236 206.699Z" fill="#FAFAFA"></path><path d="M168.236 217.431L223.448 185.554C224.164 185.141 224.745 185.475 224.745 186.303V186.82C224.745 187.648 224.164 188.654 223.448 189.067L168.234 220.944C167.517 221.358 166.937 221.023 166.938 220.195V219.678C166.938 218.852 167.519 217.846 168.236 217.431Z" fill="#FAFAFA"></path><path d="M168.236 228.166L223.448 196.289C224.164 195.875 224.745 196.21 224.745 197.038V197.554C224.745 198.382 224.164 199.388 223.448 199.801L168.234 231.679C167.517 232.092 166.937 231.757 166.938 230.93V230.413C166.938 229.585 167.519 228.579 168.236 228.166Z" fill="#FAFAFA"></path><path d="M252.438 113.53H262.829C270.251 113.53 276.268 107.513 276.268 100.091C276.268 93.5103 270.934 88.1758 264.353 88.1758C257.772 88.1758 252.438 93.5103 252.438 100.091V113.53Z" fill="#263238"></path><path d="M273.586 92.8692L276.47 91.321C276.061 90.4948 275.083 90.1713 274.287 90.599C273.491 91.0266 273.176 92.043 273.586 92.8692Z" fill="#263238"></path><path d="M273.406 93.1993L276.473 94.346C276.824 93.4937 276.423 92.5454 275.575 92.2286C274.729 91.9117 273.758 92.3462 273.406 93.1993Z" fill="#263238"></path><path d="M263.146 123.442L248.67 122.815C247.388 121.056 247.423 116.402 248.711 114.914L264.734 115.351L263.146 123.442Z" fill="#27DEBF"></path><path d="M254.312 213.262C254.433 214.778 254.43 215.232 254.43 216.172C254.43 217.112 254.43 221.874 254.43 221.874H259.391V218.529C259.391 217.017 259.514 215.507 259.761 214.015L254.312 213.262Z" fill="#B16668"></path><path d="M254.43 219.431V218.721C254.289 219.803 251.208 223.859 249.24 225.653C247.675 227.08 245.541 228.729 244.998 230.32C244.433 231.975 247.519 232.63 249.543 232.427C251.911 232.191 253.759 230.768 254.634 229.763C255.922 228.287 256.232 227.312 256.833 226.499C257.433 225.686 260.129 224.024 260.454 223.083C260.632 222.567 260.421 221.436 260.17 220.479C259.94 219.602 259.691 218.638 259.391 218.72C259.391 218.827 259.391 219.26 259.391 219.26C259.031 219.66 258.035 220.056 256.911 220.099C256.184 220.128 254.424 219.983 254.43 219.431Z" fill="#263238"></path><path d="M259.39 219.258C259.031 219.657 258.034 220.053 256.91 220.096C256.184 220.123 254.423 219.98 254.429 219.426V218.717C254.288 219.798 251.207 223.854 249.24 225.649C248.865 225.99 248.457 226.346 248.047 226.709C247.215 227.636 247.451 228.445 249.407 228.614C251.362 228.782 253.082 227.602 254.566 225.781C256.05 223.96 259.39 219.258 259.39 219.258Z" fill="#B16668"></path><path d="M269.461 221.662C269.557 222.863 269.562 224.116 269.579 224.651V230.354H274.539V227.009C274.539 225.496 274.663 223.987 274.909 222.495L269.461 221.662Z" fill="#B16668"></path><path d="M269.578 227.908V227.199C269.438 228.281 266.356 232.336 264.388 234.131C262.824 235.558 260.689 237.207 260.146 238.797C259.581 240.453 262.668 241.107 264.691 240.905C267.059 240.668 268.907 239.245 269.783 238.242C271.07 236.765 271.38 235.79 271.981 234.977C272.582 234.165 275.278 232.503 275.603 231.562C275.781 231.045 275.569 229.914 275.319 228.958C275.089 228.081 274.839 227.117 274.54 227.198C274.539 227.305 274.54 227.739 274.54 227.739C274.18 228.138 273.183 228.534 272.06 228.577C271.333 228.606 269.572 228.462 269.578 227.908Z" fill="#263238"></path><path d="M274.539 227.74C274.179 228.139 273.182 228.535 272.059 228.578C271.333 228.606 269.572 228.462 269.579 227.908V227.199C269.437 228.281 266.356 232.336 264.388 234.131C264.013 234.473 263.606 234.828 263.195 235.191C262.363 236.118 262.599 236.927 264.555 237.096C266.511 237.264 268.23 236.085 269.714 234.263C271.199 232.442 274.539 227.74 274.539 227.74Z" fill="#B16668"></path><path d="M254.319 215.615C253.257 206.871 251.516 191.758 251.006 188.456C250.534 185.394 251.722 159.218 252.447 150.91L278.283 149.525C280.25 157.946 278.335 169.299 277.662 176.39C277.007 183.292 276.196 191.359 276.196 191.359C276.196 191.359 278.214 198.39 277.68 203.989C277.34 207.513 275.756 218.161 275.003 222.712C273.671 223.539 271.208 223.675 269.335 222.637C269.421 223.604 268.414 210.85 267.819 205.697C266.992 198.542 266.68 193.326 265.947 189.151C265.024 183.94 264.704 163.519 264.704 163.519L261.728 186.683C261.728 186.683 262.197 189.834 262.197 194.209C262.197 199.38 260.289 211.142 259.688 215.534C258.383 216.441 255.745 216.722 254.319 215.615Z" fill="#455A64"></path><path d="M264.699 163.519C264.699 163.519 259.978 161.863 257.289 159.395C257.289 159.395 259.12 162.555 262.826 164.235L262.865 177.797L264.699 163.519Z" fill="#37474F"></path><path d="M268.459 115.46C268.459 115.46 275.477 116.267 276.317 116.645C272.039 121.328 276.592 125.207 276.592 125.207L273.34 139.541C276.147 143.133 277.75 145.9 278.421 150.182C275.415 155.48 258.522 156.216 252.332 152.268C252.87 144.873 254.072 139.579 253.672 137.359C250.721 128.278 251.64 126.375 251.917 124.302C252.457 120.251 256.478 116.72 258.775 115.24C258.775 115.24 260.495 115.24 260.918 115.24L268.459 115.46Z" fill="#F0F0F0"></path><path d="M256.343 94.0098C255.085 94.7535 253.529 97.9189 253.682 104.555C253.813 110.179 255.636 111.569 256.551 111.969C257.466 112.37 259.232 112.125 260.949 111.839V115.215C260.949 115.215 258.576 117.97 258.726 119.518C258.875 121.066 262.151 121.432 264.37 119.92C266.589 118.407 268.46 115.461 268.46 115.461L268.421 107.7C268.421 107.7 269.431 108.681 271.143 107.183C272.558 105.948 273.034 103.862 271.932 102.744C270.83 101.626 268.794 101.93 268.013 103.525C268.013 103.525 267.058 100.876 263.106 99.5839C259.534 98.4162 257.592 97.0725 256.343 94.0098Z" fill="#B16668"></path><path d="M260.353 103.142C260.332 103.547 260.632 103.891 261.022 103.91C261.412 103.928 261.745 103.614 261.765 103.209C261.785 102.804 261.486 102.46 261.096 102.442C260.705 102.423 260.373 102.737 260.353 103.142Z" fill="#263238"></path><path d="M260.158 107.91L258.516 108.434C258.652 108.904 259.13 109.168 259.584 109.023C260.038 108.879 260.295 108.381 260.158 107.91Z" fill="#9A4A4D"></path><path d="M254.556 100.971L255.988 99.9789C255.726 99.5699 255.195 99.4613 254.799 99.7347C254.404 100.009 254.295 100.562 254.556 100.971Z" fill="#263238"></path><path d="M262.4 101.492L260.969 100.5C261.23 100.091 261.762 99.9828 262.157 100.256C262.553 100.53 262.661 101.084 262.4 101.492Z" fill="#263238"></path><path d="M254.876 102.629C254.856 103.034 255.155 103.377 255.546 103.396C255.936 103.415 256.268 103.101 256.289 102.696C256.309 102.29 256.009 101.947 255.619 101.929C255.23 101.91 254.897 102.224 254.876 102.629Z" fill="#263238"></path><path d="M258.213 102.227L258.1 106.484L255.859 105.79L258.213 102.227Z" fill="#9A4A4D"></path><path d="M260.945 111.84C262.754 111.602 266.475 110.534 267.055 109.062C267.055 109.062 266.862 109.987 265.75 110.94C264.639 111.892 260.945 112.966 260.945 112.966V111.84Z" fill="#9A4A4D"></path><path d="M274.799 133.139L268.812 141.878L273.346 139.54L274.799 133.139Z" fill="#E0E0E0"></path><path d="M272.031 118.553C270.379 120.263 257.989 133.08 257.989 133.08C257.989 133.08 244.199 131.72 239.515 130.38C238.04 129.959 236.846 127.936 236.521 126.236C236.196 124.536 234.881 124.356 234.881 124.356V127.757C234.762 128.619 234.341 129.064 233.11 129.092C228.374 129.196 226.181 127.757 225.604 130.329C225.236 131.97 225.95 133.839 229.078 134.696C233.464 135.898 235.886 135.298 238.559 135.961C240.619 136.471 254.987 139.205 257.812 139.822C259.306 140.148 260.445 140.045 262.067 138.44C263.688 136.834 275.881 125.458 275.881 125.458C279.605 121.737 278.516 117.869 276.434 116.725C275.132 116.006 273.684 116.843 272.031 118.553Z" fill="#B16668"></path><path d="M276.324 116.645C277.235 117.013 278.343 117.976 278.429 120.481C278.515 122.987 276.67 125.259 274.49 127.864C272.311 130.47 271.655 131.16 271.655 131.16C271.655 131.16 266.136 129.156 265.203 125.055C265.203 125.055 269.357 120.657 270.604 119.246C271.851 117.834 274.139 115.675 276.324 116.645Z" fill="#27DEBF"></path><path d="M247.874 21.8653L253.082 24.8718C253.056 24.6397 253.037 24.4082 253.037 24.1828V22.6742C253.037 19.9898 254.922 18.9014 257.247 20.2437C258.188 20.7875 259.054 21.6488 259.755 22.6563C260.136 19.2805 262.784 18.0236 266.001 19.8804C269.478 21.8885 272.298 26.7721 272.298 30.7883V33.0451C272.298 34.0855 272.106 34.9611 271.765 35.6592L276.09 38.1564C277.38 38.9009 278.425 40.7113 278.425 42.2003C278.425 43.6893 277.379 44.2931 276.09 43.5485L247.874 27.2582C246.584 26.5137 245.539 24.7033 245.539 23.2143C245.54 21.7245 246.585 21.1208 247.874 21.8653Z" fill="#7CA0EB"></path><path d="M225.591 37.0356L229.521 39.3044C229.501 39.1291 229.488 38.9546 229.488 38.7838V37.6453C229.488 35.6193 230.91 34.7983 232.664 35.811C233.375 36.2215 234.028 36.8708 234.558 37.6318C234.845 35.0844 236.844 34.1354 239.271 35.5369C241.896 37.0521 244.024 40.738 244.024 43.7685V45.4718C244.024 46.2568 243.879 46.9181 243.622 47.4447L246.886 49.3292C247.859 49.891 248.648 51.2579 248.648 52.3815C248.648 53.505 247.86 53.9611 246.886 53.3986L225.591 41.1043C224.618 40.5425 223.828 39.1756 223.828 38.052C223.829 36.9293 224.618 36.4739 225.591 37.0356Z" fill="#7CA0EB"></path></svg>