<svg xmlns="http://www.w3.org/2000/svg" width="249" height="289" viewBox="0 0 249 289" fill="none"><path d="M74.2816 160.443V173.321L71.1058 175.155L37.1328 194.766V181.888L74.2816 160.443Z" fill="#DBCDBD"></path><path d="M74.2808 160.443L37.1321 181.888L0 160.443L37.14 139.007L74.2808 160.443Z" fill="#CEBBAA"></path><path d="M71.1058 176.989V199.664L37.1328 219.275V196.6L71.1058 176.989Z" fill="#DBCDBD"></path><path d="M37.1328 194.766L71.1058 175.155V176.989L37.1328 196.6V194.766Z" fill="#BAA695"></path><path d="M37.1321 196.6V219.275L3.17578 199.664V176.989L37.1321 196.6Z" fill="#BAA695"></path><path d="M37.1321 181.888V194.766L3.17579 175.155L0 173.321V160.443L37.1321 181.888Z" fill="#BAA695"></path><path d="M37.1321 194.766V196.6L3.17578 176.989V175.163V175.155L37.1321 194.766Z" fill="#A58E7E"></path><path d="M98.9315 127.209V134.53L97.1268 135.572L77.8125 146.721V139.4L98.9315 127.209Z" fill="#DBCDBD"></path><path d="M98.9284 127.209L77.8095 139.4L56.6992 127.209L77.8142 115.021L98.9284 127.209Z" fill="#CEBBAA"></path><path d="M97.1268 136.615V149.506L77.8125 160.654V147.763L97.1268 136.615Z" fill="#DBCDBD"></path><path d="M77.8125 146.721L97.1268 135.572V136.616L77.8125 147.763V146.721Z" fill="#BAA695"></path><path d="M77.8087 147.763V160.654L58.5039 149.506V136.615L77.8087 147.763Z" fill="#BAA695"></path><path d="M77.8095 139.4V146.721L58.5047 135.572L56.6992 134.53V127.209L77.8095 139.4Z" fill="#BAA695"></path><path d="M77.8087 146.721V147.763L58.5039 136.616V135.577V135.572L77.8087 146.721Z" fill="#A58E7E"></path><path d="M54.676 109.559V115.543L53.2001 116.395L37.4141 125.507V119.523L54.676 109.559Z" fill="#DBCDBD"></path><path d="M54.6739 109.559L37.4119 119.523L20.1562 109.559L37.4151 99.5977L54.6739 109.559Z" fill="#CEBBAA"></path><path d="M53.2001 117.247V127.784L37.4141 136.896V126.359L53.2001 117.247Z" fill="#DBCDBD"></path><path d="M37.4141 125.508L53.2001 116.396V117.247L37.4141 126.36V125.508Z" fill="#BAA695"></path><path d="M37.4125 126.359V136.896L21.6328 127.784V117.247L37.4125 126.359Z" fill="#BAA695"></path><path d="M37.4119 119.523V125.507L21.6322 116.395L20.1562 115.543V109.559L37.4119 119.523Z" fill="#BAA695"></path><path d="M37.4125 125.508V126.36L21.6328 117.247V116.399V116.396L37.4125 125.508Z" fill="#A58E7E"></path><path d="M187.399 263.8V266.098L187.391 266.106V263.807L187.399 263.8Z" fill="black"></path><path d="M187.399 70.3203V72.6196L187.391 72.6267V70.3275L187.399 70.3203Z" fill="black"></path><path d="M175.957 285.408C176.406 284.483 176.642 283.341 176.642 282.042V272.783L186.991 266.796V275.586C186.991 277.979 186.123 279.735 184.608 280.404L175.957 285.408Z" fill="#BCBEC0"></path><path d="M186.594 267.483V275.586C186.594 277.814 185.811 279.438 184.447 280.04L184.415 280.055L184.399 280.064L184.377 280.075L184.357 280.087L176.721 284.507C176.932 283.766 177.041 282.938 177.041 282.041V273.011L186.594 267.483ZM187.388 266.106L176.246 272.554V282.042C176.246 284.296 175.515 285.946 174.312 286.819L184.754 280.775L184.769 280.767C186.373 280.058 187.389 278.244 187.389 275.587V266.106H187.388Z" fill="#A7A9AC"></path><path d="M187.388 263.807V266.106L176.246 272.553V270.119L187.388 263.807Z" fill="#808285"></path><path d="M187.388 70.3281V72.6274L176.246 79.075V76.6487L187.388 70.3281Z" fill="#808285"></path><path d="M176.64 67.2882C176.64 62.2205 173.072 56.0388 168.685 53.5085L88.3975 7.15315C87.2471 6.491 86.1332 6.12419 85.082 6.06068L94.1338 0.820632C94.6491 0.540369 95.2445 0.397461 95.8956 0.397461C96.9031 0.397461 97.9964 0.732504 99.1436 1.39386L179.431 47.7484C183.598 50.1525 186.988 56.0253 186.988 60.8406V70.0972L176.639 75.9677V67.2882H176.64Z" fill="#BCBEC0"></path><path d="M95.8994 0.793946C96.8236 0.793946 97.8779 1.12025 98.9482 1.73715L179.236 48.0917C183.225 50.3926 186.594 56.2312 186.594 60.8401V69.8649L177.04 75.2852V67.2877C177.04 62.0937 173.382 55.7573 168.888 53.1642L88.5983 6.80967C87.8011 6.35077 87.0175 6.02684 86.2561 5.84106L94.1083 1.29334L94.3194 1.17345C94.7831 0.921769 95.3143 0.793946 95.8994 0.793946ZM95.8994 0C95.1769 0 94.5171 0.162759 93.9415 0.47478L93.7176 0.601808L82.8438 6.90019C83.4075 6.60167 84.0505 6.44684 84.7548 6.44684C85.7948 6.44684 86.9659 6.78507 88.2037 7.49724L168.492 53.8518C172.761 56.3154 176.247 62.3613 176.247 67.2877V76.6484L187.389 70.3278V60.8401C187.389 55.9137 183.903 49.867 179.634 47.4041L99.3451 1.05039C98.1082 0.337426 96.9387 0 95.8994 0Z" fill="#A7A9AC"></path><path d="M176.641 79.3034L186.99 73.3154V263.575L176.641 269.438V79.3034Z" fill="#BCBEC0"></path><path d="M186.594 74.0037V263.344L177.04 268.757V79.5327L186.594 74.0037ZM187.388 72.627L176.246 79.0746V270.12L187.388 263.807V72.627Z" fill="#A7A9AC"></path><path d="M168.492 53.8521L88.2038 7.49838C86.1285 6.30429 84.2404 6.16217 82.8447 6.90134L82.8074 6.92357C81.3521 7.70719 80.4414 9.46181 80.4414 11.977V226.73C80.4414 231.656 83.9348 237.702 88.2046 240.166L168.492 286.52C170.448 287.648 172.24 287.834 173.605 287.229L174.314 286.819C175.516 285.946 176.248 284.296 176.248 282.042V272.555V270.122V79.075V76.6487V67.2881C176.247 62.3617 172.761 56.3158 168.492 53.8521ZM168.26 258.73L88.4277 212.637V127.452L88.4206 35.2881L124.347 56.0315L168.253 81.3806V109.022L168.26 212.621V258.73Z" fill="#2A323D" stroke="#3A4D57" stroke-miterlimit="10"></path><path d="M161.846 42.9917L149.753 36.0121C149.253 35.7286 148.992 35.3476 148.962 34.9673C148.917 34.5346 149.186 34.0939 149.753 33.7652L149.865 33.7057C150.933 33.0864 152.679 33.0864 153.747 33.7057L165.832 40.6853C166.369 40.9909 166.63 41.3871 166.63 41.7976V41.8047C166.63 42.208 166.369 42.6185 165.832 42.9242L165.72 42.9837C164.653 43.6038 162.914 43.6038 161.846 42.9917Z" fill="#D1D3D4"></path><path d="M166.629 41.8051V44.1115C166.629 44.5148 166.36 44.9173 165.831 45.2309L165.726 45.2905C164.659 45.9098 162.912 45.9098 161.844 45.2905L149.76 38.3109C149.222 38.0052 148.961 37.6019 148.961 37.1914V34.9668C148.991 35.3471 149.252 35.7282 149.753 36.0116L161.845 42.9912C162.912 43.6033 164.652 43.6033 165.719 42.9841L165.831 42.9245C166.368 42.6188 166.629 42.2084 166.629 41.8051Z" fill="#A7A9AC"></path><path d="M125.734 246.658C128.691 248.368 131.111 252.558 131.111 255.979C131.111 259.394 128.691 260.792 125.734 259.082C122.771 257.372 120.352 253.182 120.352 249.766C120.352 246.346 122.771 244.952 125.734 246.658Z" fill="#2A323D" stroke="#3A4D57" stroke-miterlimit="10"></path><path d="M136.616 45.7005C137.263 46.0745 137.787 46.9796 137.784 47.7243C137.782 48.469 137.256 48.7691 136.608 48.3944L118.298 37.823C117.651 37.449 117.123 36.5408 117.125 35.796C117.127 35.0513 117.658 34.7544 118.306 35.1283L136.616 45.7005Z" fill="#3A4D57"></path><path d="M83.5195 23.4111L173.148 75.1598L173.157 270.606L83.5283 218.858L83.5195 23.4111Z" fill="#3E748C"></path><path d="M150.371 67.3594L150.405 82.9723L145.972 85.5368L145.904 85.4947L145.871 69.9659L150.371 67.3594Z" fill="#34687A"></path><path d="M150.373 67.3592L145.873 69.9657L101.055 44.0871L105.555 41.4893L150.373 67.3592Z" fill="#4E8B9B"></path><path d="M145.873 69.9656L145.906 85.4944L101.063 59.607L101.055 44.0869L145.873 69.9656Z" fill="#C64D4A"></path><path d="M102.741 58.6392L102.734 46.9912L144.201 70.9342L144.226 82.5886L102.741 58.6392Z" fill="#FF7D6C"></path><path d="M109.128 55.5411C109.093 55.1756 108.949 54.8249 108.697 54.4889C108.446 54.1529 108.137 53.8793 107.771 53.6682C107.504 53.5138 107.27 53.4287 107.07 53.4128C106.871 53.3981 106.716 53.4457 106.604 53.5558C106.494 53.6671 106.438 53.8339 106.438 54.0564C106.438 54.2426 106.477 54.4247 106.553 54.603C106.632 54.78 106.732 54.948 106.854 55.1069C106.976 55.2636 107.104 55.4089 107.238 55.5428C107.371 55.6745 107.494 55.7897 107.606 55.8884L108.22 56.4333C108.377 56.5718 108.552 56.7386 108.745 56.9339C108.939 57.1302 109.125 57.3521 109.302 57.5996C109.481 57.8459 109.628 58.1149 109.744 58.4066C109.86 58.6983 109.918 59.0077 109.918 59.3346C109.918 59.7114 109.833 60.0026 109.662 60.208C109.493 60.4146 109.245 60.5133 108.919 60.5043C108.594 60.4963 108.2 60.3584 107.736 60.0905C107.303 59.8408 106.929 59.544 106.612 59.2001C106.298 58.8573 106.05 58.4895 105.869 58.0967C105.69 57.7051 105.589 57.3118 105.566 56.9168L106.321 57.3527C106.34 57.6274 106.417 57.8896 106.551 58.1393C106.686 58.3879 106.857 58.6138 107.064 58.817C107.272 59.019 107.496 59.1893 107.736 59.3277C108.015 59.4889 108.266 59.5814 108.488 59.6053C108.71 59.6268 108.886 59.5809 109.016 59.4674C109.146 59.3516 109.21 59.1666 109.21 58.9123C109.21 58.6808 109.154 58.46 109.042 58.25C108.93 58.04 108.783 57.8368 108.6 57.6404C108.417 57.4441 108.22 57.2505 108.007 57.0598L107.264 56.3856C106.792 55.9565 106.419 55.5173 106.144 55.0678C105.868 54.6183 105.731 54.1586 105.731 53.6886C105.731 53.2982 105.822 53.0104 106.005 52.8254C106.19 52.6393 106.437 52.5553 106.748 52.5734C107.061 52.5905 107.41 52.7102 107.795 52.9327C108.184 53.1574 108.53 53.4378 108.833 53.7738C109.136 54.1075 109.376 54.4639 109.553 54.843C109.731 55.2233 109.826 55.5922 109.836 55.9497L109.128 55.5411ZM111.121 61.9221V54.9482L111.852 55.3704V58.476L115.072 60.3353V57.2297L115.804 57.6519V64.6259L115.072 64.2036V61.0844L111.852 59.2252V62.3444L111.121 61.9221ZM122.364 64.9264C122.364 65.662 122.249 66.2312 122.019 66.6342C121.789 67.0371 121.473 67.2681 121.072 67.3271C120.671 67.3861 120.213 67.267 119.698 66.9696C119.183 66.6722 118.725 66.2624 118.323 65.7403C117.922 65.2181 117.607 64.6228 117.377 63.9542C117.147 63.2856 117.032 62.5836 117.032 61.8481C117.032 61.1125 117.147 60.5433 117.377 60.1403C117.607 59.7374 117.922 59.5064 118.323 59.4474C118.725 59.3883 119.183 59.5075 119.698 59.8049C120.213 60.1023 120.671 60.5121 121.072 61.0342C121.473 61.5563 121.789 62.1517 122.019 62.8203C122.249 63.4888 122.364 64.1909 122.364 64.9264ZM121.656 64.5178C121.656 63.9139 121.568 63.3538 121.393 62.8373C121.22 62.322 120.985 61.8719 120.689 61.4871C120.394 61.1034 120.063 60.8061 119.698 60.5949C119.332 60.3838 119.001 60.2992 118.704 60.3412C118.409 60.3844 118.174 60.5631 117.999 60.8776C117.826 61.1931 117.74 61.6528 117.74 62.2567C117.74 62.8606 117.826 63.4202 117.999 63.9355C118.174 64.4519 118.409 64.902 118.704 65.2857C119.001 65.6705 119.332 65.9684 119.698 66.1795C120.063 66.3907 120.394 66.4747 120.689 66.4315C120.985 66.3895 121.22 66.2108 121.393 65.8952C121.568 65.5808 121.656 65.1217 121.656 64.5178ZM123.593 69.1234V62.1494L125.634 63.3276C126.108 63.6012 126.495 63.9236 126.796 64.2947C127.099 64.6648 127.323 65.0587 127.468 65.4764C127.614 65.8941 127.686 66.3084 127.686 66.7193C127.686 67.1302 127.614 67.4616 127.468 67.7136C127.325 67.9667 127.103 68.1064 126.802 68.1325C126.501 68.1563 126.116 68.0326 125.646 67.7613L124.183 66.9168V66.1676L125.622 66.9985C125.947 67.1858 126.207 67.2715 126.404 67.2556C126.6 67.2397 126.743 67.1472 126.831 66.9781C126.922 66.8078 126.967 66.5831 126.967 66.3038C126.967 66.0246 126.922 65.7488 126.831 65.4764C126.743 65.2051 126.599 64.9497 126.401 64.7102C126.202 64.4684 125.939 64.2527 125.61 64.0632L124.325 63.3208V69.5456L123.593 69.1234ZM110.614 66.6557V73.6297L109.906 73.2211L106.615 65.8453L106.556 65.8112V71.2869L105.825 70.8646V63.8907L106.533 64.2993L109.836 71.6955L109.895 71.7296V66.2403L110.614 66.6557ZM117.173 73.9298C117.173 74.6653 117.058 75.2346 116.828 75.6375C116.598 76.0405 116.283 76.2715 115.882 76.3305C115.481 76.3895 115.023 76.2703 114.508 75.9729C113.992 75.6756 113.534 75.2658 113.133 74.7436C112.732 74.2215 112.417 73.6262 112.187 72.9576C111.957 72.289 111.842 71.587 111.842 70.8514C111.842 70.1159 111.957 69.5467 112.187 69.1437C112.417 68.7407 112.732 68.5098 113.133 68.4507C113.534 68.3917 113.992 68.5109 114.508 68.8083C115.023 69.1057 115.481 69.5154 115.882 70.0376C116.283 70.5597 116.598 71.1551 116.828 71.8236C117.058 72.4922 117.173 73.1943 117.173 73.9298ZM116.466 73.5212C116.466 72.9173 116.378 72.3571 116.203 71.8407C116.03 71.3253 115.795 70.8753 115.498 70.4905C115.203 70.1068 114.873 69.8094 114.508 69.5983C114.142 69.3872 113.811 69.3026 113.514 69.3446C113.219 69.3877 112.984 69.5665 112.809 69.8809C112.636 70.1965 112.549 70.6562 112.549 71.2601C112.549 71.8639 112.636 72.4235 112.809 72.9389C112.984 73.4553 113.219 73.9054 113.514 74.289C113.811 74.6738 114.142 74.9718 114.508 75.1829C114.873 75.3941 115.203 75.478 115.498 75.4349C115.795 75.3929 116.03 75.2141 116.203 74.8986C116.378 74.5842 116.466 74.125 116.466 73.5212ZM119.5 78.7601L117.849 70.8327L118.592 71.2618L119.854 77.6705L119.913 77.7045L121.199 72.7669L122.024 73.2436L123.31 79.6659L123.369 79.7L124.631 74.7488L125.374 75.1778L123.723 81.1983L122.968 80.7624L121.635 74.4355L121.588 74.4082L120.255 79.196L119.5 78.7601Z" fill="white"></path><path d="M89.8819 58.6963L70.6875 80.8553L80.3649 86.3772L99.472 64.2372L89.8819 58.6963Z" fill="#FF7D6C"></path><path d="M80.3641 86.3774C80.3641 86.3774 80.3474 88.8743 80.326 91.9263C80.3054 94.9782 78.1276 96.2279 75.4877 94.7035C72.847 93.1791 70.6875 89.4404 70.6875 86.394C70.6875 83.3477 70.6875 80.8555 70.6875 80.8555L80.3641 86.3774Z" fill="#F37164"></path><path d="M99.4749 64.2373L80.2812 86.3963L89.9579 91.9182L109.066 69.7775L99.4749 64.2373Z" fill="#FEC772"></path><path d="M89.9579 91.9184C89.9579 91.9184 89.9404 94.4153 89.9198 97.4673C89.8991 100.519 87.7213 101.769 85.0814 100.244C82.4416 98.7201 80.2812 94.9814 80.2812 91.9351C80.2812 88.8887 80.2812 86.3965 80.2812 86.3965L89.9579 91.9184Z" fill="#E3AF5B"></path><path d="M109.069 69.7773L89.875 91.9364L99.5516 97.4583L118.66 75.3175L109.069 69.7773Z" fill="#FF7D6C"></path><path d="M99.5516 97.4584C99.5516 97.4584 99.5342 99.9554 99.5135 103.007C99.4929 106.059 97.3151 107.309 94.6752 105.785C92.0345 104.26 89.875 100.521 89.875 97.4751C89.875 94.4287 89.875 91.9365 89.875 91.9365L99.5516 97.4584Z" fill="#F37164"></path><path d="M118.667 75.3174L99.4727 97.4772L109.149 102.998L128.257 80.8583L118.667 75.3174Z" fill="#FEC772"></path><path d="M109.149 102.998C109.149 102.998 109.133 105.495 109.111 108.546C109.09 111.598 106.913 112.848 104.273 111.324C101.632 109.799 99.4727 106.061 99.4727 103.014C99.4727 99.9678 99.4727 97.4756 99.4727 97.4756L109.149 102.998Z" fill="#E3AF5B"></path><path d="M128.261 80.8584L109.066 103.017L118.743 108.539L137.851 86.3986L128.261 80.8584Z" fill="#FF7D6C"></path><path d="M118.743 108.539C118.743 108.539 118.726 111.036 118.705 114.088C118.684 117.14 116.506 118.39 113.867 116.866C111.226 115.341 109.066 111.603 109.066 108.556C109.066 105.51 109.066 103.018 109.066 103.018L118.743 108.539Z" fill="#F37164"></path><path d="M137.859 86.3984L118.664 108.557L128.341 114.079L147.449 91.9386L137.859 86.3984Z" fill="#FEC772"></path><path d="M128.341 114.08C128.341 114.08 128.323 116.576 128.303 119.628C128.282 122.68 126.104 123.93 123.464 122.406C120.824 120.881 118.664 117.143 118.664 114.096C118.664 111.05 118.664 108.558 118.664 108.558L128.341 114.08Z" fill="#E3AF5B"></path><path d="M147.452 91.9385L128.258 114.098L137.934 119.62L157.042 97.4794L147.452 91.9385Z" fill="#FF7D6C"></path><path d="M137.934 119.62C137.934 119.62 137.917 122.117 137.896 125.168C137.876 128.22 135.698 129.47 133.058 127.946C130.417 126.421 128.258 122.683 128.258 119.636C128.258 116.59 128.258 114.098 128.258 114.098L137.934 119.62Z" fill="#F37164"></path><path d="M157.046 97.4795L137.852 119.639L147.529 125.16L166.636 103.02L157.046 97.4795Z" fill="#FEC772"></path><path d="M147.528 125.16C147.528 125.16 147.511 127.657 147.49 130.708C147.469 133.76 145.292 135.01 142.652 133.486C140.011 131.961 137.852 128.223 137.852 125.176C137.852 122.13 137.852 119.638 137.852 119.638L147.528 125.16Z" fill="#E3AF5B"></path><path d="M132.085 167.784C131.615 168.157 130.905 168.164 130.114 167.709L119.313 161.477C117.895 160.656 116.73 158.64 116.73 156.998V144.532C116.738 143.696 117.036 143.114 117.522 142.853C117.985 142.592 118.619 142.636 119.321 143.04L124.718 146.153L130.115 149.273C131.533 150.094 132.698 152.11 132.698 153.751V166.217C132.698 166.934 132.474 167.464 132.108 167.77L132.085 167.784Z" fill="#FECA7A"></path><path d="M134.692 152.593V165.059C134.692 165.858 134.415 166.425 133.968 166.701L133.833 166.775L132.109 167.768C132.475 167.462 132.699 166.932 132.699 166.215V153.75C132.699 152.108 131.534 150.092 130.116 149.271L124.72 146.151L119.323 143.038C118.621 142.635 117.986 142.59 117.523 142.851V142.844L119.427 141.747L119.538 141.679C120.001 141.433 120.629 141.486 121.315 141.881L132.109 148.114C133.528 148.935 134.692 150.951 134.692 152.593Z" fill="#E2AD66"></path><path d="M129.463 155.724L128.059 154.913L126.029 151.396C125.913 151.195 125.725 151.087 125.61 151.154C125.494 151.221 125.494 151.437 125.61 151.637L127.221 154.429L122.348 151.615L123.96 150.685C124.076 150.618 124.076 150.401 123.96 150.201C123.844 150.001 123.656 149.892 123.541 149.959L121.51 151.132L120.106 150.321C119.875 150.188 119.688 150.296 119.688 150.563C119.688 150.83 119.875 151.155 120.106 151.289L129.463 156.692C129.694 156.825 129.882 156.717 129.882 156.45C129.882 156.182 129.694 155.858 129.463 155.724ZM121.073 156.772C121.119 157.012 121.285 157.258 121.475 157.368L128.094 161.189C128.284 161.3 128.45 161.245 128.496 161.058L129.474 157.052L120.096 151.637L121.073 156.772ZM127.201 156.554C127.201 156.417 127.298 156.361 127.417 156.43C127.536 156.499 127.633 156.666 127.633 156.804V160.006C127.633 160.144 127.536 160.199 127.417 160.13C127.298 160.061 127.201 159.894 127.201 159.756V156.554ZM125.885 155.794C125.885 155.656 125.982 155.6 126.101 155.669C126.22 155.738 126.317 155.906 126.317 156.043V159.245C126.317 159.382 126.22 159.439 126.101 159.37C125.982 159.301 125.885 159.133 125.885 158.996V155.794ZM124.569 155.034C124.569 154.897 124.666 154.84 124.785 154.909C124.904 154.978 125.001 155.146 125.001 155.283V158.485C125.001 158.623 124.904 158.679 124.785 158.61C124.666 158.541 124.569 158.373 124.569 158.236V155.034ZM123.252 154.274C123.252 154.137 123.349 154.08 123.468 154.15C123.587 154.219 123.684 154.386 123.684 154.523V157.725C123.684 157.863 123.587 157.919 123.468 157.85C123.349 157.781 123.252 157.614 123.252 157.476V154.274ZM121.935 153.514C121.935 153.377 122.032 153.321 122.151 153.39C122.27 153.459 122.367 153.626 122.367 153.764V156.966C122.367 157.103 122.27 157.159 122.151 157.09C122.032 157.021 121.935 156.854 121.935 156.716V153.514Z" fill="#F9F8F7"></path><path d="M156.654 167.589V180.055C156.654 180.772 156.43 181.302 156.064 181.608L156.042 181.623L155.706 181.81C155.258 181.981 154.69 181.907 154.064 181.549L143.27 175.316C141.844 174.495 140.688 172.479 140.688 170.838V158.371C140.688 157.535 140.993 156.953 141.471 156.692C141.941 156.431 142.576 156.475 143.27 156.878L148.675 159.991L154.064 163.112C155.49 163.932 156.654 165.948 156.654 167.589Z" fill="#FF7D6C"></path><path d="M156.065 181.607C156.431 181.302 156.655 180.771 156.655 180.054V167.589C156.655 165.947 155.491 163.931 154.065 163.11L148.676 159.99L143.272 156.877C142.578 156.473 141.943 156.429 141.473 156.69V156.683L143.384 155.586L143.496 155.518C143.959 155.272 144.586 155.325 145.272 155.72L156.066 161.952C157.484 162.773 158.649 164.789 158.649 166.431V178.897C158.649 179.696 158.373 180.263 157.925 180.539L157.791 180.613L156.065 181.607Z" fill="#D4685A"></path><path d="M151.913 173.776V167.553L151.916 167.534L151.913 167.534V167.533L151.908 167.53L146.665 165.314V170.231C146.457 170.034 146.223 169.869 145.98 169.756C145.21 169.397 144.633 169.698 144.692 170.426C144.75 171.155 145.421 172.036 146.191 172.394C146.962 172.753 147.539 172.453 147.481 171.724C147.479 171.711 147.482 171.691 147.482 171.691V167.426L151.096 168.902V172.318C150.888 172.122 150.655 171.956 150.411 171.842C149.641 171.483 149.064 171.784 149.122 172.512C149.181 173.241 149.852 174.123 150.622 174.481C151.393 174.839 151.97 174.539 151.911 173.81C151.911 173.797 151.913 173.776 151.913 173.776Z" fill="#F9F8F7"></path><path d="M156.654 195.253V207.719C156.654 208.45 156.423 208.988 156.042 209.286L156.027 209.293L155.743 209.458L155.706 209.48C155.258 209.644 154.69 209.57 154.064 209.211L143.27 202.979C141.844 202.158 140.688 200.142 140.688 198.5V186.035C140.688 185.199 140.993 184.617 141.471 184.355L141.539 184.318C142.001 184.101 142.606 184.162 143.27 184.542L148.675 187.662L154.064 190.775C155.49 191.595 156.654 193.61 156.654 195.253Z" fill="#3EBFB4"></path><path d="M156.042 209.286C156.422 208.988 156.654 208.45 156.654 207.719V195.253C156.654 193.612 155.489 191.596 154.064 190.775L148.675 187.662L143.271 184.542C142.606 184.161 142.002 184.101 141.539 184.318L143.495 183.183V183.19C143.957 182.944 144.585 182.997 145.271 183.392L156.065 189.624C157.483 190.445 158.648 192.461 158.648 194.103V206.569C158.648 207.367 158.372 207.935 157.924 208.211L157.79 208.285L156.042 209.286Z" fill="#349F96"></path><path d="M145.148 195.996C144.294 194.517 144.294 192.914 145.148 192.422C145.562 192.183 146.111 192.238 146.695 192.575C147.28 192.913 147.829 193.493 148.243 194.209L148.521 194.691L148.798 194.531C149.212 194.292 149.762 194.346 150.346 194.684C150.93 195.021 151.48 195.602 151.893 196.318C152.747 197.795 152.747 199.399 151.893 199.891L148.521 201.839L145.148 195.996Z" fill="#F9F8F7"></path><path d="M132.697 181.414V193.88C132.697 194.611 132.466 195.149 132.085 195.447L132.07 195.454L131.764 195.634L131.749 195.641C131.301 195.805 130.733 195.73 130.114 195.372L119.313 189.139C117.895 188.318 116.73 186.302 116.73 184.66V172.195C116.738 171.359 117.036 170.777 117.522 170.516L117.59 170.478C118.045 170.261 118.657 170.322 119.321 170.702L124.718 173.822L130.115 176.935C131.532 177.756 132.697 179.772 132.697 181.414Z" fill="#F79663"></path><path d="M134.687 180.264V192.73C134.687 193.528 134.41 194.096 133.963 194.372L133.828 194.446L132.082 195.447C132.462 195.148 132.694 194.611 132.694 193.879V181.414C132.694 179.772 131.529 177.756 130.111 176.935L124.715 173.822L119.318 170.702C118.653 170.321 118.041 170.261 117.586 170.478L119.534 169.343V169.35C119.997 169.104 120.624 169.157 121.311 169.552L132.105 175.785C133.523 176.606 134.687 178.622 134.687 180.264Z" fill="#CE7D52"></path><path d="M129.254 182.912L120.207 177.689L124.731 183.362L129.254 182.912Z" fill="#F9F8F7"></path><path d="M124.73 183.854L120.059 177.995V184.218L129.401 189.612V183.389L124.73 183.854Z" fill="#F9F8F7"></path><path d="M108.751 167.574V180.04C108.751 180.771 108.52 181.309 108.139 181.607L108.124 181.615L107.841 181.779L107.803 181.801C107.356 181.965 106.788 181.891 106.162 181.533L95.3679 175.3C93.9419 174.479 92.7852 172.464 92.7852 170.822V158.356C92.7852 157.52 93.0908 156.938 93.5688 156.677L93.6363 156.639C94.0991 156.423 94.7033 156.483 95.3679 156.863L100.772 159.983L106.162 163.097C107.587 163.917 108.751 165.933 108.751 167.574Z" fill="#F24C88"></path><path d="M108.752 167.575C108.752 165.933 107.587 163.917 106.162 163.096L100.773 159.983L95.3683 156.863C94.7038 156.483 94.0996 156.422 93.6367 156.639L95.5922 155.504V155.512C96.0551 155.265 96.6823 155.318 97.3691 155.713L108.163 161.946C109.581 162.767 110.745 164.782 110.745 166.424V178.89C110.745 179.689 110.469 180.256 110.021 180.532L109.887 180.607L108.141 181.607C108.522 181.308 108.753 180.771 108.753 180.04V167.575H108.752Z" fill="#CA3F71"></path><path d="M99.4934 172.454L96.7773 167.735L97.5372 167.297L99.4934 170.7L104.702 167.693L105.462 169.009L99.4934 172.454Z" fill="#F9F8F7"></path><path d="M108.751 139.911V152.377C108.751 153.094 108.528 153.623 108.162 153.93L108.139 153.945L107.803 154.131C107.356 154.303 106.788 154.228 106.162 153.87L95.3679 147.638C93.9419 146.817 92.7852 144.801 92.7852 143.159V130.693C92.7852 129.857 93.0908 129.275 93.5688 129.014C94.0388 128.753 94.6732 128.797 95.3679 129.201L100.772 132.314L106.162 135.434C107.587 136.254 108.751 138.269 108.751 139.911Z" fill="#3EBFB4"></path><path d="M108.749 139.911C108.749 138.269 107.584 136.253 106.159 135.432L100.77 132.312L95.3655 129.199C94.6716 128.796 94.0364 128.751 93.5664 129.012V129.005L95.4774 127.908L95.5894 127.841C96.0523 127.594 96.6795 127.647 97.3662 128.042L108.16 134.275C109.578 135.096 110.743 137.112 110.743 138.753V151.219C110.743 152.018 110.466 152.586 110.019 152.861L109.884 152.936L108.16 153.928C108.526 153.622 108.75 153.092 108.75 152.375V139.911H108.749Z" fill="#349F96"></path><path d="M100.07 144.203C99.6861 143.981 99.374 144.16 99.374 144.604C99.374 145.048 99.6861 145.588 100.07 145.809C100.455 146.032 100.767 145.852 100.767 145.408C100.767 144.964 100.455 144.424 100.07 144.203ZM98.4435 142.105L99.0557 143.197C99.3201 143.058 99.6742 143.084 100.07 143.311C100.464 143.54 100.819 143.923 101.083 144.368L101.696 143.983C101.273 143.271 100.701 142.652 100.07 142.288C99.4384 141.923 98.8667 141.882 98.4435 142.105ZM100.07 137.985C98.4388 137.044 96.9589 136.932 95.8672 137.509L96.4801 138.602C97.4138 138.11 98.6754 138.204 100.07 139.009C101.465 139.814 102.727 141.177 103.661 142.748L104.273 142.362C103.181 140.524 101.701 138.927 100.07 137.985ZM97.1724 139.837L97.7854 140.929C98.3808 140.615 99.1819 140.673 100.07 141.186C100.959 141.7 101.761 142.567 102.355 143.568L102.967 143.182C102.214 141.915 101.195 140.812 100.07 140.162C98.9453 139.513 97.9259 139.439 97.1724 139.837Z" fill="#F9F8F7"></path><path d="M93.6784 159.828C93.0393 159.937 87.2967 161.211 87.2967 161.211L70.5809 165.567C69.4019 165.874 68.4706 166.321 67.7449 166.872C67.4194 167.12 65.7823 166.216 65.3647 166.172C64.4286 166.076 63.2393 166.377 62.6399 167.15C61.7546 168.29 62.0698 169.966 62.6184 171.189C64.0809 174.449 66.5866 174.736 69.7576 175.13C69.9037 175.148 70.041 175.142 70.1927 175.123C70.2125 175.116 70.2395 175.107 70.2602 175.1C70.3697 175.076 70.4745 175.042 70.5746 174.994C70.596 174.987 70.6111 174.982 70.6492 174.976C75.5058 173.279 88.6305 165.794 89.2291 165.758C89.2291 165.758 91.4109 166.63 92.2691 166.017C93.1274 165.404 93.6578 165.034 94.2588 164.984C94.8463 164.916 97.086 165.272 97.6886 165.206C98.2738 165.154 100.887 163.006 100.352 162.017C100.352 162.017 98.3373 160.985 97.7744 160.727C97.2297 160.457 94.3191 159.705 93.6784 159.828Z" fill="#EED7BA"></path><path d="M68.5247 266.077C68.5247 266.077 76.592 263.77 78.322 264.636C80.052 265.501 78.7253 268.846 74.9771 270.98C71.2281 273.114 69.2011 274.44 67.2163 274.959C65.2306 275.479 62.116 275.536 61.6547 273.575C61.1934 271.614 61.4236 269.25 61.9429 268.385C62.4621 267.519 68.5247 266.077 68.5247 266.077Z" fill="#3A4D57"></path><path d="M69.2445 265.546V267.331C69.2445 267.331 68.5538 269.871 65.6432 269.854C62.334 269.835 62.2578 268.106 62.2578 268.106L62.3555 265.621" fill="#E8C8A1"></path><path d="M80.0152 273.089C80.0152 273.089 89.063 270.501 91.0034 271.472C92.9438 272.442 91.456 276.194 87.252 278.587C83.0473 280.981 80.7742 282.468 78.5472 283.05C76.3202 283.632 72.8268 283.698 72.3099 281.498C71.7923 279.299 72.0511 276.647 72.6331 275.676C73.215 274.706 80.0152 273.089 80.0152 273.089Z" fill="#3A4D57"></path><path d="M80.011 272.055V275.288C80.011 275.288 79.6148 277.423 76.4454 277.617C73.276 277.812 72.6289 275.677 72.6289 275.677V273.169L77.4156 272.442L80.011 272.055Z" fill="#E8C8A1"></path><path d="M61.6842 206.91C60.8228 211.042 63.2554 215.821 63.3841 217.633C63.5135 219.444 62.182 232.905 61.4055 242.473C60.6291 252.04 61.3015 267.376 61.3015 267.376C61.3015 267.376 62.6814 269.382 65.7508 268.799C68.8202 268.216 70.5629 266.729 70.5629 266.729C70.5629 266.729 72.6978 234.451 73.3441 230.699C73.9912 226.948 75.1091 211.941 75.1964 209.612C75.2869 207.282 63.4523 198.432 61.6842 206.91Z" fill="#3A4D57"></path><path d="M86.9606 210.946C87.1893 225.006 84.99 239.884 84.7312 241.566C84.4724 243.247 81.9357 273.779 81.9357 273.779C81.9357 273.779 79.2983 279.732 71.0182 275.268C71.0182 275.268 71.8756 247.305 72.0289 242.56C72.1821 237.814 72.9499 227.982 72.6307 223.066C72.3115 218.15 69.5438 216.857 69.2461 210.387C69.2461 210.387 70.3274 204.437 78.1113 204.954C85.8959 205.471 86.9606 210.946 86.9606 210.946Z" fill="#46616D"></path><path d="M89.7167 175.042C90.6425 169.422 87.5993 166.323 80.7904 162.331C77.9766 160.681 67.4973 153.501 62.3549 159.905C57.2125 166.309 62.6463 180.669 62.3549 188.82C62.0636 196.97 60.8028 207.643 60.8028 207.643C60.8028 207.643 63.4228 212.98 72.9311 213.854C82.4402 214.727 88.4559 212.107 88.4559 212.107C88.4559 212.107 86.9998 191.537 89.7167 175.042Z" fill="#BFC1BF"></path><path d="M83.2152 142.926C83.2152 142.926 84.2505 146.742 84.4442 147.519C84.6379 148.295 84.5085 149.395 84.4442 149.912C84.3799 150.428 85.285 151.852 85.1556 152.499C85.0262 153.146 84.4442 157.027 83.2152 158.126C81.9862 159.226 79.7218 158.838 79.7218 158.838C79.7218 158.838 79.9163 162.266 79.7218 162.719C79.5281 163.171 74.2237 162.783 72.0245 161.49C69.8253 160.196 70.6018 156.703 70.6018 156.703L76.2293 142.925L83.2152 142.926Z" fill="#EED7BA"></path><path d="M83.2161 142.925C83.2161 142.925 83.2153 141.826 82.6333 139.885C82.0514 137.945 77.5553 137.492 75.7117 138.074C73.8682 138.656 67.3673 140.662 66.9791 142.214C66.5908 143.766 66.8179 144.284 66.8179 144.284C66.8179 144.284 65.5563 146.419 65.7509 147.679C65.9446 148.941 70.6027 156.703 70.6027 156.703C70.6027 156.703 73.5577 157.092 74.6034 156.218C75.6482 155.345 76.6184 151.949 77.9768 151.561C79.3353 151.173 79.8204 153.696 79.8204 153.696L80.6937 153.017C80.6937 153.017 80.2086 150.203 80.7906 149.233C81.3725 148.263 82.2459 147.486 82.2459 147.486L81.4694 144.479L83.2161 142.925Z" fill="#231F20"></path><path d="M99.9319 213.693C99.7453 213.072 97.774 207.529 97.774 207.529L91.3938 191.476C90.9436 190.344 90.3855 189.475 89.7488 188.823C90.1171 182.731 88.5443 171.985 88.5443 171.985C88.5443 171.985 82.7461 167.984 80.8867 174.858C80.8867 174.858 81.5433 185.553 81.7426 190.08C81.741 190.085 81.7378 190.089 81.7362 190.095L81.764 190.588C81.7871 191.149 81.8006 191.588 81.8006 191.838C81.8006 191.985 81.8236 192.12 81.8593 192.249L81.8601 192.268C81.8696 192.287 81.8815 192.313 81.8911 192.332C81.9276 192.438 81.9752 192.538 82.0348 192.632C82.0443 192.652 82.0514 192.667 82.0618 192.687V192.703C84.3436 197.314 92.8666 209.904 92.9753 210.494C92.9753 210.494 92.5561 212.636 93.2707 213.412C93.9845 214.189 94.7609 214.313 94.8848 214.903C95.0245 215.477 94.9467 217.743 95.0865 218.333C95.2103 218.908 97.6636 221.237 98.5798 220.584C98.5798 220.584 99.3563 218.457 99.5421 217.867C99.7453 217.294 100.134 214.314 99.9319 213.693Z" fill="#EED7BA"></path><path d="M89.2948 170.093C90.9819 172.041 90.5238 183.095 90.6532 186.135C90.7826 189.175 87.5481 190.662 84.5081 190.339C81.468 190.016 81.468 190.016 81.468 190.016C81.468 190.016 80.7567 183.548 80.4335 177.985C80.1096 172.422 83.8618 163.818 89.2948 170.093Z" fill="#ABB2AB"></path><path d="M83.3483 143.663C83.3483 143.663 87.4466 141.662 87.8833 139.893C88.32 138.122 81.0427 135.344 76.6037 139.893C71.5026 145.119 83.3483 143.663 83.3483 143.663Z" fill="#349F96"></path><path d="M67.1742 151.091C67.1742 151.091 69.2425 152.407 74.6953 150.621C80.1481 148.835 83.3446 143.664 83.3446 143.664C83.3446 143.664 83.1881 139.057 79.1454 137.176C75.1026 135.296 69.6807 137.207 67.9888 139.558C66.2961 141.908 65.0115 145.168 65.2465 147.33C65.4816 149.493 67.1742 151.091 67.1742 151.091Z" fill="#3EBFB4"></path><path d="M37.859 163.49C36.4021 159.831 33.8663 157.892 31.621 159.264C29.3757 160.636 32.8643 170.556 33.9806 173.98C35.0961 177.405 35.4724 179.419 36.4839 180.213C37.4954 181.007 46.9156 192.183 46.9156 192.183C46.9156 192.183 46.2836 194.961 46.7171 196.329C47.1514 197.697 47.7349 199.335 48.1962 199.15C48.6575 198.965 48.4725 196.697 48.8568 196.624C49.2402 196.553 49.634 198.663 49.5499 199.274C49.4657 199.886 48.097 202.126 48.4653 202.613C48.8345 203.101 50.5121 201.775 51.337 200.767C52.1612 199.76 52.5391 198.379 52.4573 197.62C52.3755 196.861 52.1056 195.204 52.1056 195.204L50.0278 191.304L42.5909 177.942L37.859 163.49Z" fill="#EED7BA"></path><path d="M39.4363 168.317C39.4363 168.317 41.8792 175.664 42.7772 177.283C43.6751 178.901 44.743 180.638 44.743 180.638C44.743 180.638 43.8887 182.762 42.0865 183.635C40.2842 184.508 40.2842 184.508 40.2842 184.508C40.2842 184.508 37.326 182.261 36.9044 181.237C36.4836 180.214 37.5856 172.921 37.5856 172.921L39.4363 168.317Z" fill="#FC7EB2"></path><path d="M44.7441 180.638C44.7441 180.638 45.7731 180.966 45.7398 182.224C45.7398 182.224 45.4174 183.207 44.1201 184.476C42.8236 185.746 41.1761 186.172 41.1761 186.172C41.1761 186.172 40.3417 185.45 39.7852 184.064C39.7852 184.064 42.2869 182.868 43.1404 182.098C43.9939 181.328 44.7441 180.638 44.7441 180.638Z" fill="#F24C88"></path><path d="M43.7664 266.066C44.0038 268.036 38.0794 267.547 36.4796 266.555C34.8798 265.562 33.6357 263.593 32.5249 262.734C31.4142 261.859 30.4369 261.859 30.3035 261C30.2741 260.749 30.1995 260.037 30.1407 259.06C29.9629 256.675 29.7707 252.691 29.9335 249.892C30.1852 245.938 29.6072 236.814 30.3035 232.119C30.4067 231.453 30.4813 230.757 30.5552 230.031C30.8958 226.432 30.9108 222.27 31.0141 219.811C31.1474 216.849 30.4361 205.089 30.4361 205.089C30.4361 205.089 29.6953 191.507 29.6953 188.308C29.6953 187.227 30.5687 186.635 31.7389 186.338C34.035 185.716 37.4704 186.205 37.4704 186.205C41.5434 205.459 39.8991 216.316 39.8102 222.373C39.7364 227.809 38.2104 231.26 37.5887 237.303C36.9671 243.345 35.7372 251.862 35.9889 254.958C36.1517 257.031 39.514 260.468 41.7649 263.074C42.8478 264.348 43.6775 265.414 43.7664 266.066Z" fill="#E8C8A1"></path><path d="M35.2495 201.269C34.0054 205.09 30.3024 205.46 30.8066 211.636C31.2956 217.797 31.6656 225.085 30.6732 229.528C30.6287 229.69 30.5993 229.868 30.5549 230.031V230.046C29.5926 234.312 28.4223 238.488 27.711 246.56C26.9702 254.958 26.9702 263.474 27.2219 265.563C27.3402 266.54 27.8586 268.584 28.2731 270.628C28.7764 272.983 29.1615 275.338 28.7026 276.063C27.8435 277.411 22.6599 276.063 21.9191 274.819C21.1784 273.59 21.4158 270.88 21.4158 269.398C21.4158 269.131 21.3713 268.154 21.2824 266.703C20.8973 260.097 19.8604 243.612 20.0676 239.776C20.305 235.081 21.6674 227.675 21.2967 222.373C20.9267 217.056 19.0752 212.864 19.6969 203.607C20.3042 194.35 23.7698 193.61 24.0072 188.796C24.17 185.789 28.4946 185.863 31.7386 186.337H31.7537C33.6941 186.633 35.2487 187.063 35.2487 187.063C35.2487 187.063 36.4785 197.432 35.2495 201.269Z" fill="#EED7BA"></path><path d="M38.5149 185.928C38.5149 185.928 35.5217 190.371 24.0127 188.797C24.0127 188.797 18.983 194.629 18.7051 201.202C18.4273 207.774 19.2609 218.049 19.2609 218.049C19.2609 218.049 23.3339 219.808 31.0169 219.808C38.6999 219.808 40.9221 217.401 40.9221 217.401C40.9221 217.401 40.4593 198.332 39.9964 193.426C39.5327 188.52 38.5149 185.928 38.5149 185.928Z" fill="#3F2B3C"></path><path d="M15.0524 171.071C15.8852 165.655 18.0146 164.127 22.8283 160.425C27.642 156.722 33.0575 154.825 35.8339 159.13C38.6112 163.434 39.9529 169.173 39.9529 170.192C39.9529 171.21 38.2864 173.571 38.3333 174.912C38.3793 176.255 38.5183 185.928 38.5183 185.928C38.5183 185.928 37.0836 189.631 30.5574 190.047C24.0311 190.464 23.4293 189.492 23.4293 189.492C23.4293 189.492 22.5965 184.4 21.9947 181.392C21.3936 178.384 14.4871 174.744 15.0524 171.071Z" fill="#EED7BA"></path><path d="M23.4324 189.492C23.4324 189.492 24.0343 190.464 30.5605 190.048C37.0867 189.631 38.5214 185.929 38.5214 185.929C38.5214 185.929 38.3824 176.255 38.3364 174.913C38.2903 173.57 39.9561 171.21 39.9561 170.192C39.9561 169.173 38.6135 163.435 35.8371 159.13C34.8375 157.581 33.4933 156.845 31.961 156.697C32.1881 156.968 34.7541 160.064 34.6954 161.953C34.6334 163.928 28.894 167.816 26.6114 167.816C24.3566 167.816 23.0609 163.97 19.8803 162.744C17.0975 165.054 15.6938 166.923 15.0563 171.071C14.491 174.744 21.3976 178.384 21.9986 181.392C22.5988 184.4 23.4324 189.492 23.4324 189.492Z" fill="#F9F8F7"></path><path d="M32.0379 156.26C32.0379 156.26 31.9918 160.194 31.8529 161.351C31.7139 162.508 28.5207 162.508 27.1321 162.508C25.7434 162.508 24.7717 161.629 24.7256 160.287C24.6796 158.944 24.7566 152.758 24.7566 152.758C24.7566 152.758 26.5771 153.067 29.2614 154.362C31.945 155.658 32.0379 156.26 32.0379 156.26Z" fill="#E8C8A1"></path><path d="M29.2013 160.718C29.2013 160.718 29.9421 162.755 30.4359 164.05C30.9298 165.346 32.7813 185.465 32.0405 192.253C31.2997 199.041 29.6952 201.51 28.3375 201.88C26.9799 202.25 18.7101 198.177 18.7101 198.177C18.7101 198.177 22.1662 189.538 21.9193 186.328C21.6724 183.119 17.7233 177.195 16.3648 172.505C15.0072 167.815 15.5629 167.383 16.2418 166.025C16.9206 164.667 21.0555 160.656 21.0555 160.656L26.4861 161.397L29.2013 160.718Z" fill="#F24C88"></path><path d="M29.2084 160.719C29.2084 160.719 28.0977 163.372 28.0977 164.237C28.0977 165.101 21.0625 160.658 21.0625 160.658L21.4325 158.744L29.2084 160.719Z" fill="#FC7EB2"></path><path d="M35.2487 143.13C35.6806 144.487 35.2486 146.401 35.3725 147.018C35.4964 147.635 35.8663 148.252 35.8663 149.239C35.8663 150.227 35.9283 155.472 34.8787 156.151C33.8299 156.83 28.0285 155.904 26.8558 154.979C25.6832 154.053 24.7574 152.757 24.7574 152.757C24.7574 152.757 23.4617 152.881 22.659 151.831C21.8572 150.783 19.8199 146.586 21.1775 142.019C22.5352 137.452 29.8792 137.267 32.4706 139.119C35.0637 140.969 35.2487 143.13 35.2487 143.13Z" fill="#EED7BA"></path><path d="M43.7663 266.066C44.0037 268.036 38.0793 267.548 36.4795 266.555C34.8797 265.563 33.6356 263.593 32.5248 262.734C31.4141 261.86 30.4368 261.86 30.3034 261.001C30.274 260.749 30.1994 260.038 30.1406 259.061C32.3176 260.675 37.6347 264.422 39.6346 264.155C40.8787 263.977 41.5155 263.577 41.7672 263.074C42.8477 264.348 43.6774 265.415 43.7663 266.066Z" fill="#F24C88"></path><path d="M28.7054 276.064C27.8463 277.412 22.6626 276.064 21.9219 274.82C21.1811 273.591 21.4185 270.88 21.4185 269.399C21.4185 269.132 21.3741 268.154 21.2852 266.703C21.4336 267.295 21.5662 267.932 21.6702 268.584C22.0997 271.368 22.3514 272.479 25.8615 272.909C27.4017 273.101 28.0385 271.961 28.2759 270.628C28.7792 272.983 29.1643 275.338 28.7054 276.064Z" fill="#F24C88"></path><path d="M14.5095 174.789C15.0034 170.16 15.3734 166.766 17.7806 166.334C20.1871 165.902 21.6686 168.926 21.0517 173.986C20.4348 179.046 19.3852 185.65 19.3852 185.65C19.3852 185.65 20.8047 202.312 20.9897 202.929C21.1747 203.546 22.3474 203.978 22.9031 204.781C23.4589 205.583 24.2608 208.854 23.705 209.162C23.1493 209.471 22.5324 207.496 22.1005 207.743C21.6686 207.99 22.0385 209.964 22.3474 210.829C22.6562 211.693 23.4581 212.618 22.9643 212.927C22.4704 213.236 19.6321 212.249 18.8294 210.829C18.0275 209.409 17.5948 205.645 17.6567 204.596C17.7187 203.547 14.3246 187.871 14.1396 186.699C13.9538 185.527 14.5095 174.789 14.5095 174.789Z" fill="#EED7BA"></path><path d="M14.6402 169.419C15.2301 166.569 16.4916 164.975 19.3919 165.469C22.2922 165.963 22.848 170.838 22.0453 174.602C21.2434 178.367 19.9469 185.464 19.9469 186.019C19.9469 186.574 20.5027 192.932 20.5027 192.932C20.5027 192.932 18.4043 194.845 15.134 194.227C15.134 194.227 13.6525 188.056 13.6525 186.575C13.6525 185.094 13.5294 174.788 14.6402 169.419Z" fill="#FC7EB2"></path><path d="M20.3798 191.481C19.331 192.191 17.2945 193.703 14.7944 192.746C14.7944 192.746 14.6094 193.271 14.7015 194.011C14.7944 194.752 15.1334 195.153 15.1334 195.153C15.1334 195.153 16.3061 195.677 18.1877 195.215C20.0702 194.752 20.8411 193.795 20.8411 193.795C20.8411 193.795 20.934 193.147 20.7172 192.406C20.5029 191.667 20.3798 191.481 20.3798 191.481Z" fill="#F24C88"></path><path d="M31.9219 159.052C31.9219 159.052 33.5884 161.119 35.0691 163.804C36.5506 166.488 37.1056 169.821 37.1056 171.024C37.1056 172.227 38.1544 184.94 38.7101 189.291C39.2651 193.642 40.2528 199.442 40.2528 199.442C40.2528 199.442 42.1963 199.905 41.4564 192.963C40.7156 186.02 39.0499 178.707 39.142 176.022C39.2349 173.338 40.9006 172.504 40.7156 169.82C40.5306 167.136 36.6736 158.557 35.0691 157.631C33.4645 156.706 31.9592 156.695 31.9592 156.695L31.9219 159.052Z" fill="#F24C88"></path><path d="M31.9219 159.052C31.9219 159.052 33.6495 159.546 33.8353 161.211C33.8353 161.211 34.2053 160.039 33.7734 158.928C33.3415 157.817 31.96 156.696 31.96 156.696L31.9219 159.052Z" fill="#FC7EB2"></path><path d="M34.4204 141.31C34.4204 141.31 32.5689 147.141 25.5338 150.196C25.5338 150.196 24.6541 147.141 23.2655 148.114C21.8769 149.086 21.9229 150.382 22.4326 151.169C22.9416 151.956 23.564 153.005 24.7573 152.758C24.7573 152.758 24.8597 158.25 24.793 159.268C24.7263 160.287 19.3775 162.415 19.3775 162.415C19.3775 162.415 18.4057 148.746 20.0103 143.377C21.6149 138.008 25.4409 137.268 28.3412 138.07C31.2423 138.872 34.4204 141.31 34.4204 141.31Z" fill="#B38262"></path><path d="M25.7188 137.93C27.9402 136.681 30.4396 137.144 32.245 137.976C34.0496 138.809 35.3922 140.43 35.624 141.541C35.8559 142.651 35.4621 145.197 35.4621 145.197C35.4621 145.197 35.1612 142.836 34.9301 142.095C34.6983 141.355 34.4212 141.309 34.4212 141.309C34.4212 141.309 31.8305 139.455 30.2323 138.763C27.2923 137.491 25.7188 137.93 25.7188 137.93Z" fill="#A87A5C"></path><path d="M148.855 227.587C148.855 227.587 148.855 223.562 148.855 218.643C148.855 213.725 154.432 206.48 161.247 202.545C168.063 198.611 173.639 199.416 173.639 204.334C173.639 209.253 173.639 213.277 173.639 213.277" stroke="#3A4D57" stroke-width="2" stroke-miterlimit="10" stroke-linecap="round"></path><path d="M179.84 216.854L192.232 209.699L192.227 252.628L155.039 274.092L155.05 231.164L179.84 216.854Z" fill="#F46699"></path><path d="M179.846 202.544V216.854L155.056 231.163L151.956 225.799L142.664 224.008L179.846 202.544Z" fill="#D8CDA7"></path><path d="M151.955 225.799L155.054 231.164L155.043 274.092L151.949 268.727L151.955 225.799Z" fill="#CA3F71"></path><path d="M151.953 225.799L151.947 268.728L142.648 266.938L142.66 224.009L151.953 225.799Z" fill="#F24C88"></path><path d="M179.844 202.544V216.854L182.937 215.068V207.909L179.844 202.544Z" fill="#C9BC97"></path><path d="M182.938 207.909V215.068L192.236 209.7L182.938 207.909Z" fill="#C9BC97"></path><path d="M186.029 222.204C185.186 222.69 184.496 222.29 184.496 221.316C184.496 220.343 185.188 219.148 186.034 218.661C186.88 218.174 187.569 218.573 187.567 219.548C187.564 220.523 186.872 221.718 186.029 222.204Z" fill="#CA3F71"></path><path d="M161.244 236.883C160.401 237.369 159.711 236.969 159.711 235.995C159.711 235.021 160.403 233.826 161.249 233.339C162.094 232.853 162.784 233.252 162.782 234.227C162.78 235.203 162.087 236.398 161.244 236.883Z" fill="#CA3F71"></path><path d="M161.246 241.896L186.031 227.587V238.319L161.246 252.628V241.896Z" fill="#F24C88"></path><path d="M161.246 234.741C161.246 234.741 161.246 230.717 161.246 225.798C161.246 220.88 166.823 213.635 173.638 209.7C180.453 205.765 186.03 206.569 186.03 211.489C186.03 216.408 186.03 220.432 186.03 220.432" stroke="#3A4D57" stroke-width="2" stroke-miterlimit="10" stroke-linecap="round"></path><path d="M217.047 218.812C217.047 218.812 217.047 215.848 217.047 212.225C217.047 208.602 221.155 203.266 226.175 200.368C231.195 197.469 235.303 198.062 235.303 201.685C235.303 205.309 235.303 208.273 235.303 208.273" stroke="#3A4D57" stroke-width="2" stroke-miterlimit="10" stroke-linecap="round"></path><path d="M239.87 210.907L248.998 205.637L248.994 237.258L221.602 253.069L221.61 221.447L239.87 210.907Z" fill="#50D6C6"></path><path d="M239.872 200.366V210.907L221.612 221.447L219.329 217.495L212.484 216.177L239.872 200.366Z" fill="#D8CDA7"></path><path d="M219.332 217.495L221.615 221.447L221.607 253.069L219.328 249.116L219.332 217.495Z" fill="#31A395"></path><path d="M219.33 217.495L219.326 249.116L212.477 247.798L212.485 216.177L219.33 217.495Z" fill="#3EBFB4"></path><path d="M239.875 200.366V210.907L242.154 209.59V204.318L239.875 200.366Z" fill="#C9BC97"></path><path d="M242.152 204.317V209.59L249.002 205.636L242.152 204.317Z" fill="#C9BC97"></path><path d="M244.43 214.848C243.809 215.206 243.301 214.911 243.301 214.194C243.301 213.477 243.81 212.597 244.434 212.238C245.057 211.879 245.565 212.174 245.563 212.891C245.561 213.61 245.051 214.49 244.43 214.848Z" fill="#31A395"></path><path d="M226.176 225.66C225.555 226.018 225.047 225.724 225.047 225.007C225.047 224.29 225.557 223.409 226.18 223.05C226.803 222.692 227.311 222.986 227.309 223.704C227.306 224.422 226.797 225.303 226.176 225.66Z" fill="#31A395"></path><path d="M226.176 229.353L244.432 218.812V226.718L226.176 237.258V229.353Z" fill="#3EBFB4"></path><path d="M226.176 224.083C226.176 224.083 226.176 221.118 226.176 217.496C226.176 213.873 230.284 208.537 235.304 205.638C240.324 202.739 244.432 203.332 244.432 206.955C244.432 210.578 244.432 213.543 244.432 213.543" stroke="#3A4D57" stroke-width="2" stroke-miterlimit="10" stroke-linecap="round"></path><path d="M171.293 188.347C171.293 188.347 171.293 182.831 171.293 176.091C171.293 169.35 178.935 159.422 188.275 154.029C197.616 148.637 205.258 149.739 205.258 156.48C205.258 163.221 205.258 168.736 205.258 168.736" stroke="#3A4D57" stroke-width="2" stroke-miterlimit="10" stroke-linecap="round"></path><path d="M213.762 173.638L230.745 163.833L230.737 222.664L179.773 252.08L179.789 193.249L213.762 173.638Z" fill="#F9A885"></path><path d="M213.76 154.027V173.638L179.787 193.248L175.54 185.896L162.805 183.443L213.76 154.027Z" fill="#D8CDA7"></path><path d="M175.539 185.896L179.787 193.248L179.771 252.08L175.531 244.728L175.539 185.896Z" fill="#E28156"></path><path d="M175.54 185.897L175.532 244.728L162.789 242.275L162.805 183.443L175.54 185.897Z" fill="#F79663"></path><path d="M213.758 154.027V173.638L217.997 171.19V161.379L213.758 154.027Z" fill="#C9BC97"></path><path d="M218 161.379V171.19L230.743 163.832L218 161.379Z" fill="#C9BC97"></path><path d="M222.237 180.97C221.082 181.635 220.137 181.088 220.137 179.754C220.137 178.419 221.085 176.782 222.245 176.114C223.404 175.447 224.349 175.994 224.345 177.331C224.341 178.667 223.393 180.305 222.237 180.97Z" fill="#E28156"></path><path d="M188.28 201.088C187.125 201.754 186.18 201.207 186.18 199.872C186.18 198.537 187.128 196.9 188.288 196.233C189.447 195.566 190.392 196.113 190.388 197.449C190.384 198.785 189.436 200.422 188.28 201.088Z" fill="#E28156"></path><path d="M188.273 207.957L222.239 188.347V203.055L188.273 222.664V207.957Z" fill="#F79663"></path><path d="M188.273 198.152C188.273 198.152 188.273 192.637 188.273 185.896C188.273 179.156 195.916 169.228 205.256 163.835C214.597 158.442 222.238 159.545 222.238 166.286C222.238 173.026 222.238 178.542 222.238 178.542" stroke="#3A4D57" stroke-width="2" stroke-miterlimit="10" stroke-linecap="round"></path></svg>