<svg xmlns="http://www.w3.org/2000/svg" width="426" height="279" viewBox="0 0 426 279" fill="none"><path d="M378.76 183.103C376.8 183.103 374.888 183.311 373.043 183.701L371.445 190.384H386.075L384.477 183.701C382.632 183.312 380.721 183.103 378.76 183.103Z" fill="#B1BAC2"></path><path d="M373.043 241.619C374.888 242.008 376.8 242.217 378.76 242.217C380.721 242.217 382.632 242.008 384.477 241.619L386.075 234.936H371.445L373.043 241.619Z" fill="#B1BAC2"></path><path d="M407.722 206.943L401.039 205.345V219.975L407.722 218.377C408.111 216.532 408.32 214.62 408.32 212.66C408.32 210.699 408.111 208.787 407.722 206.943Z" fill="#B1BAC2"></path><path d="M356.484 205.345L349.801 206.943C349.411 208.788 349.203 210.699 349.203 212.66C349.203 214.62 349.411 216.532 349.801 218.377L356.484 219.975V205.345Z" fill="#B1BAC2"></path><path d="M403.277 196.225C402.248 194.645 401.043 193.146 399.657 191.76C398.271 190.373 396.772 189.169 395.192 188.14L389.336 191.735L399.681 202.08L403.277 196.225Z" fill="#B1BAC2"></path><path d="M354.238 229.094C355.268 230.674 356.472 232.173 357.858 233.559C359.244 234.945 360.743 236.15 362.323 237.179L368.179 233.583L357.834 223.239L354.238 229.094Z" fill="#B1BAC2"></path><path d="M389.336 233.584L395.192 237.179C396.772 236.15 398.271 234.945 399.657 233.559C401.043 232.173 402.248 230.674 403.277 229.094L399.681 223.238L389.336 233.584Z" fill="#B1BAC2"></path><path d="M357.858 191.76C356.472 193.146 355.268 194.645 354.238 196.225L357.834 202.081L368.179 191.736L362.323 188.14C360.744 189.169 359.244 190.373 357.858 191.76Z" fill="#B1BAC2"></path><path d="M378.754 188.077C365.177 188.077 354.172 199.083 354.172 212.66C354.172 226.237 365.178 237.243 378.754 237.243C392.331 237.243 403.337 226.237 403.337 212.66C403.336 199.083 392.33 188.077 378.754 188.077ZM378.754 224.849C372.022 224.849 366.564 219.392 366.564 212.659C366.564 205.927 372.022 200.469 378.754 200.469C385.486 200.469 390.943 205.927 390.943 212.659C390.943 219.392 385.486 224.849 378.754 224.849Z" fill="#E7EAED"></path><path d="M378.759 195.346C369.197 195.346 361.445 203.098 361.445 212.66C361.445 222.222 369.197 229.974 378.759 229.974C388.321 229.974 396.073 222.222 396.073 212.66C396.073 203.098 388.321 195.346 378.759 195.346ZM378.759 224.849C372.027 224.849 366.569 219.391 366.569 212.659C366.569 205.927 372.027 200.469 378.759 200.469C385.491 200.469 390.949 205.927 390.949 212.659C390.949 219.392 385.491 224.849 378.759 224.849Z" fill="#C4CDD6"></path><path d="M396.482 127.094C395.095 127.094 393.743 127.242 392.439 127.517L391.309 132.243H401.654L400.524 127.517C399.22 127.242 397.869 127.094 396.482 127.094Z" fill="#C4CDD6"></path><path d="M392.439 168.473C393.743 168.748 395.095 168.896 396.482 168.896C397.868 168.896 399.22 168.748 400.525 168.473L401.655 163.747H391.309L392.439 168.473Z" fill="#C4CDD6"></path><path d="M416.964 143.952L412.238 142.822V153.168L416.964 152.038C417.24 150.733 417.387 149.381 417.387 147.995C417.387 146.608 417.24 145.257 416.964 143.952Z" fill="#C4CDD6"></path><path d="M380.731 142.822L376.005 143.952C375.73 145.257 375.582 146.608 375.582 147.995C375.582 149.382 375.73 150.734 376.005 152.038L380.731 153.168V142.822Z" fill="#C4CDD6"></path><path d="M413.819 136.374C413.092 135.257 412.24 134.197 411.26 133.216C410.279 132.236 409.219 131.384 408.102 130.656L403.961 133.199L411.276 140.515L413.819 136.374Z" fill="#C4CDD6"></path><path d="M379.145 159.616C379.872 160.734 380.724 161.793 381.704 162.774C382.684 163.754 383.745 164.606 384.862 165.334L389.003 162.791L381.687 155.475L379.145 159.616Z" fill="#C4CDD6"></path><path d="M403.961 162.791L408.102 165.334C409.219 164.607 410.279 163.755 411.26 162.774C412.24 161.794 413.092 160.734 413.819 159.617L411.277 155.476L403.961 162.791Z" fill="#C4CDD6"></path><path d="M381.704 133.216C380.724 134.196 379.872 135.257 379.145 136.374L381.687 140.515L389.003 133.199L384.862 130.656C383.745 131.385 382.684 132.236 381.704 133.216Z" fill="#C4CDD6"></path><path d="M396.485 130.612C386.885 130.612 379.102 138.395 379.102 147.995C379.102 157.596 386.885 165.379 396.485 165.379C406.085 165.379 413.868 157.596 413.868 147.995C413.868 138.395 406.086 130.612 396.485 130.612ZM396.485 156.615C391.724 156.615 387.865 152.756 387.865 147.995C387.865 143.235 391.724 139.376 396.485 139.376C401.245 139.376 405.105 143.235 405.105 147.995C405.105 152.756 401.246 156.615 396.485 156.615Z" fill="#E7EAED"></path><path d="M396.478 135.752C389.716 135.752 384.234 141.233 384.234 147.995C384.234 154.757 389.716 160.239 396.478 160.239C403.24 160.239 408.721 154.757 408.721 147.995C408.721 141.233 403.24 135.752 396.478 135.752ZM396.478 156.615C391.717 156.615 387.858 152.756 387.858 147.995C387.858 143.235 391.717 139.376 396.478 139.376C401.238 139.376 405.098 143.235 405.098 147.995C405.098 152.756 401.239 156.615 396.478 156.615Z" fill="#C4CDD6"></path><path d="M392.785 38.9287C391.889 38.9287 391.015 39.0238 390.172 39.2018L389.441 42.2568H396.129L395.399 39.2018C394.556 39.0238 393.682 38.9287 392.785 38.9287Z" fill="#C4CDD6"></path><path d="M390.172 65.6774C391.015 65.8553 391.889 65.9504 392.785 65.9504C393.682 65.9504 394.556 65.8553 395.399 65.6774L396.129 62.6223H389.441L390.172 65.6774Z" fill="#C4CDD6"></path><path d="M406.024 49.8262L402.969 49.0957V55.7835L406.024 55.0529C406.202 54.2098 406.297 53.3358 406.297 52.4396C406.297 51.5434 406.202 50.6699 406.024 49.8262Z" fill="#C4CDD6"></path><path d="M382.602 49.0957L379.546 49.8262C379.369 50.6693 379.273 51.5434 379.273 52.4396C379.273 53.3358 379.369 54.2098 379.546 55.0529L382.602 55.7835V49.0957Z" fill="#C4CDD6"></path><path d="M403.994 44.9274C403.523 44.2051 402.973 43.5201 402.339 42.8864C401.705 42.2528 401.02 41.702 400.298 41.2317L397.621 42.8753L402.35 47.6044L403.994 44.9274Z" fill="#C4CDD6"></path><path d="M381.578 59.9524C382.048 60.6747 382.599 61.3597 383.233 61.9933C383.866 62.627 384.552 63.1778 385.274 63.6481L387.951 62.0044L383.222 57.2754L381.578 59.9524Z" fill="#C4CDD6"></path><path d="M397.621 62.0044L400.298 63.6481C401.02 63.1778 401.705 62.627 402.339 61.9933C402.973 61.3597 403.523 60.6741 403.994 59.9524L402.35 57.2754L397.621 62.0044Z" fill="#C4CDD6"></path><path d="M383.233 42.8857C382.599 43.5193 382.048 44.2049 381.578 44.9267L383.222 47.6036L387.951 42.8746L385.274 41.231C384.552 41.7012 383.866 42.252 383.233 42.8857Z" fill="#C4CDD6"></path><path d="M392.788 41.2026C386.582 41.2026 381.551 46.2339 381.551 52.4403C381.551 58.6467 386.582 63.678 392.788 63.678C398.995 63.678 404.026 58.6467 404.026 52.4403C404.026 46.2339 398.995 41.2026 392.788 41.2026ZM392.788 58.0124C389.711 58.0124 387.216 55.5175 387.216 52.4403C387.216 49.3631 389.711 46.8681 392.788 46.8681C395.866 46.8681 398.361 49.3631 398.361 52.4403C398.361 55.5175 395.866 58.0124 392.788 58.0124Z" fill="#E7EAED"></path><path d="M392.794 44.5249C388.422 44.5249 384.879 48.0683 384.879 52.4397C384.879 56.8111 388.422 60.3545 392.794 60.3545C397.165 60.3545 400.708 56.8111 400.708 52.4397C400.708 48.0683 397.165 44.5249 392.794 44.5249ZM392.794 58.0124C389.716 58.0124 387.222 55.5175 387.222 52.4403C387.222 49.3625 389.716 46.8681 392.794 46.8681C395.871 46.8681 398.366 49.363 398.366 52.4403C398.366 55.5175 395.872 58.0124 392.794 58.0124Z" fill="#C4CDD6"></path><path d="M355.459 86.3154C353.686 86.3154 351.957 86.5039 350.289 86.8563L348.844 92.8999H362.074L360.629 86.8563C358.961 86.5039 357.232 86.3154 355.459 86.3154Z" fill="#4C7E9E"></path><path d="M350.288 139.232C351.957 139.584 353.685 139.773 355.459 139.773C357.232 139.773 358.96 139.584 360.629 139.232L362.074 133.188H348.844L350.288 139.232Z" fill="#4C7E9E"></path><path d="M381.649 107.874L375.605 106.429V119.659L381.649 118.214C382.002 116.546 382.19 114.817 382.19 113.044C382.19 111.271 382.002 109.542 381.649 107.874Z" fill="#4C7E9E"></path><path d="M335.315 106.429L329.271 107.874C328.919 109.542 328.73 111.271 328.73 113.044C328.73 114.818 328.919 116.546 329.271 118.214L335.315 119.66V106.429Z" fill="#4C7E9E"></path><path d="M377.634 98.1821C376.703 96.7532 375.614 95.3978 374.361 94.1439C373.107 92.89 371.751 91.8012 370.323 90.8706L365.027 94.1223L374.383 103.478L377.634 98.1821Z" fill="#4C7E9E"></path><path d="M333.281 127.906C334.212 129.335 335.301 130.69 336.555 131.944C337.808 133.198 339.164 134.287 340.593 135.217L345.888 131.966L336.533 122.61L333.281 127.906Z" fill="#4C7E9E"></path><path d="M365.027 131.966L370.323 135.218C371.752 134.287 373.107 133.198 374.361 131.945C375.615 130.691 376.704 129.335 377.634 127.906L374.383 122.611L365.027 131.966Z" fill="#4C7E9E"></path><path d="M336.555 94.1444C335.301 95.3982 334.212 96.7537 333.281 98.1826L336.533 103.478L345.888 94.1228L340.593 90.8711C339.164 91.8017 337.808 92.8905 336.555 94.1444Z" fill="#4C7E9E"></path><path d="M355.453 90.814C343.175 90.814 333.223 100.767 333.223 113.044C333.223 125.322 343.175 135.274 355.453 135.274C367.73 135.274 377.683 125.322 377.683 113.044C377.683 100.767 367.73 90.814 355.453 90.814ZM355.453 124.068C349.365 124.068 344.429 119.132 344.429 113.044C344.429 106.956 349.364 102.021 355.453 102.021C361.541 102.021 366.476 106.956 366.476 113.044C366.476 119.132 361.541 124.068 355.453 124.068Z" fill="#609EC7"></path><path d="M355.45 97.387C346.803 97.387 339.793 104.397 339.793 113.044C339.793 121.691 346.803 128.702 355.45 128.702C364.097 128.702 371.108 121.692 371.108 113.044C371.107 104.397 364.097 97.387 355.45 97.387ZM355.45 124.068C349.362 124.068 344.427 119.133 344.427 113.044C344.427 106.956 349.362 102.021 355.45 102.021C361.538 102.021 366.474 106.956 366.474 113.044C366.473 119.132 361.538 124.068 355.45 124.068Z" fill="#4C7E9E"></path><path d="M37.4504 65.0164C35.6282 65.0164 33.8515 65.2101 32.1373 65.5718L30.6523 71.7829H44.249L42.7635 65.5718C41.0492 65.2101 39.2725 65.0164 37.4504 65.0164Z" fill="#C4CDD6"></path><path d="M32.1373 119.398C33.8515 119.76 35.6282 119.954 37.4504 119.954C39.2725 119.954 41.0492 119.76 42.7635 119.398L44.249 113.187H30.6523L32.1373 119.398Z" fill="#C4CDD6"></path><path d="M64.3595 87.172L58.1484 85.6865V99.2832L64.3595 97.7976C64.7212 96.0834 64.915 94.3067 64.915 92.4845C64.915 90.6629 64.7218 88.8863 64.3595 87.172Z" fill="#C4CDD6"></path><path d="M16.747 85.6865L10.5359 87.172C10.1742 88.8863 9.98047 90.6629 9.98047 92.4851C9.98047 94.3073 10.1742 96.084 10.5359 97.7982L16.747 99.2837V85.6865Z" fill="#C4CDD6"></path><path d="M60.2333 77.2117C59.277 75.7437 58.1579 74.3503 56.869 73.062C55.5807 71.7737 54.1874 70.6546 52.7194 69.6978L47.2773 73.0393L56.8918 82.6537L60.2333 77.2117Z" fill="#C4CDD6"></path><path d="M14.6641 107.759C15.6204 109.227 16.7395 110.62 18.0284 111.908C19.3167 113.197 20.71 114.316 22.178 115.273L27.62 111.931L18.0056 102.317L14.6641 107.759Z" fill="#C4CDD6"></path><path d="M47.2773 111.931L52.7194 115.273C54.1874 114.316 55.5807 113.197 56.869 111.908C58.1573 110.62 59.2764 109.227 60.2333 107.759L56.8918 102.317L47.2773 111.931Z" fill="#C4CDD6"></path><path d="M18.0284 73.062C16.7401 74.3503 15.621 75.7437 14.6641 77.2117L18.0056 82.6537L27.62 73.0393L22.178 69.6978C20.71 70.6541 19.3167 71.7732 18.0284 73.062Z" fill="#C4CDD6"></path><path d="M37.4474 69.6387C24.8298 69.6387 14.6016 79.8669 14.6016 92.4845C14.6016 105.102 24.8298 115.33 37.4474 115.33C50.0649 115.33 60.2938 105.101 60.2938 92.4845C60.2938 79.8675 50.0649 69.6387 37.4474 69.6387ZM37.4474 103.814C31.1908 103.814 26.1187 98.7416 26.1187 92.4851C26.1187 86.2285 31.1908 81.1564 37.4474 81.1564C43.7039 81.1564 48.7761 86.2285 48.7761 92.4851C48.7761 98.7416 43.7039 103.814 37.4474 103.814Z" fill="#E7EAED"></path><path d="M37.4543 76.394C28.5674 76.394 21.3633 83.5982 21.3633 92.485C21.3633 101.372 28.5674 108.576 37.4543 108.576C46.3411 108.576 53.5452 101.372 53.5452 92.485C53.5452 83.5982 46.3411 76.394 37.4543 76.394ZM37.4543 103.814C31.1977 103.814 26.1256 98.7416 26.1256 92.485C26.1256 86.2285 31.1977 81.1563 37.4543 81.1563C43.7108 81.1563 48.7829 86.2285 48.7829 92.485C48.7829 98.7416 43.7108 103.814 37.4543 103.814Z" fill="#C4CDD6"></path><path d="M359.711 190.286H311.609V223.67H359.711V190.286Z" fill="#D4B792"></path><path opacity="0.15" d="M359.711 219.855L311.609 221.421V223.671H359.711V219.855Z" fill="black"></path><path d="M339.078 190.286H332.254V203.034H339.078V190.286Z" fill="#D4B792"></path><path d="M364.255 223.568H306.965V252.143H364.255V223.568Z" fill="#D4B792"></path><path d="M339.67 223.568H331.543V234.48H339.67V223.568Z" fill="#EDD6B9"></path><path d="M290.561 60.4009C301.68 49.2814 301.68 31.2532 290.561 20.1338C279.441 9.01435 261.413 9.01435 250.294 20.1338C239.174 31.2532 239.174 49.2814 250.294 60.4009C261.413 71.5203 279.441 71.5203 290.561 60.4009Z" fill="#FFDD00"></path><path d="M292.862 35.0478L298.159 33.8202C297.672 31.7168 296.958 29.7009 296.034 27.8046L291.144 30.1875C290.385 28.6308 289.455 27.1739 288.379 25.8377L292.616 22.4291C291.282 20.7714 289.765 19.2684 288.098 17.9463L284.72 22.208C283.376 21.1425 281.913 20.2201 280.35 19.4726L282.696 14.5651C280.793 13.6548 278.771 12.9559 276.663 12.485L275.476 17.7922C273.85 17.4287 272.163 17.2304 270.428 17.2304C270.403 17.2304 270.378 17.2321 270.352 17.2321L270.124 11.7988C268.032 11.821 265.996 12.0707 264.035 12.5206L265.223 17.8278C263.521 18.2211 261.89 18.7981 260.356 19.545L258.078 14.6018C256.135 15.5389 254.319 16.6953 252.651 18.0297L256.017 22.3001C254.68 23.3737 253.467 24.5932 252.4 25.9346L248.109 22.5942C246.785 24.2641 245.641 26.0816 244.714 28.0252L249.661 30.285C248.92 31.823 248.352 33.459 247.966 35.1634L242.645 34.0349C242.197 36.0409 241.953 38.1233 241.953 40.2646C241.953 40.2786 241.954 40.2932 241.954 40.3072L247.393 40.2874C247.395 42.0652 247.604 43.7935 247.987 45.4558L242.671 46.6046C243.148 48.7028 243.849 50.7164 244.761 52.6097L249.703 50.3278C250.459 51.8821 251.387 53.3362 252.459 54.6706L248.183 58.0296C249.528 59.7123 251.061 61.2375 252.749 62.5772L256.095 58.291C257.433 59.3564 258.888 60.28 260.444 61.0298L258.186 65.9776C260.069 66.8756 262.067 67.567 264.15 68.0355L265.319 62.7236C266.962 63.0959 268.67 63.2989 270.427 63.2989C270.435 63.2989 270.442 63.2983 270.45 63.2983L270.456 68.7369C272.631 68.7345 274.747 68.4807 276.782 68.0169L275.572 62.7149C277.272 62.3269 278.903 61.7562 280.438 61.0146L282.805 65.9123C284.732 64.9805 286.534 63.8334 288.189 62.5101L284.795 58.2618C286.141 57.1859 287.363 55.9624 288.438 54.6151L292.688 58.0068C294.01 56.3498 295.158 54.5457 296.088 52.6167L291.188 50.2543C291.928 48.7191 292.496 47.0866 292.883 45.3852L298.186 46.5889C298.648 44.5537 298.901 42.4387 298.901 40.2635C298.901 40.2302 298.898 40.1981 298.898 40.1649H293.459C293.453 38.4063 293.243 36.6944 292.862 35.0478Z" fill="#FFA91D"></path><path d="M270.425 63.3007C283.147 63.3007 293.46 52.9876 293.46 40.2658C293.46 27.544 283.147 17.231 270.425 17.231C257.704 17.231 247.391 27.544 247.391 40.2658C247.391 52.9876 257.704 63.3007 270.425 63.3007Z" fill="#FFA91D"></path><path d="M270.423 60.3727C281.528 60.3727 290.53 51.3705 290.53 40.2657C290.53 29.1609 281.528 20.1587 270.423 20.1587C259.319 20.1587 250.316 29.1609 250.316 40.2657C250.316 51.3705 259.319 60.3727 270.423 60.3727Z" fill="#FFDD00"></path><path d="M269.831 53.9637V23.0719H271.81V53.9637H269.831ZM276.492 32.3394C276.347 31.1166 275.76 30.1674 274.73 29.4916C273.701 28.8158 272.438 28.478 270.941 28.478C269.847 28.478 268.89 28.655 268.069 29.0089C267.257 29.3629 266.621 29.8496 266.163 30.469C265.712 31.0885 265.487 31.7924 265.487 32.5808C265.487 33.2404 265.644 33.8076 265.958 34.2822C266.279 34.7488 266.69 35.139 267.188 35.4528C267.687 35.7585 268.21 36.0119 268.757 36.213C269.304 36.4061 269.807 36.5629 270.266 36.6836L272.776 37.3594C273.419 37.5283 274.135 37.7616 274.923 38.0592C275.72 38.3569 276.48 38.7632 277.204 39.278C277.936 39.7848 278.54 40.4365 279.014 41.2329C279.489 42.0293 279.726 43.0068 279.726 44.1652C279.726 45.5006 279.376 46.7073 278.676 47.7853C277.984 48.8633 276.971 49.7201 275.635 50.3556C274.308 50.9912 272.695 51.3089 270.796 51.3089C269.027 51.3089 267.494 51.0233 266.199 50.4522C264.912 49.881 263.898 49.0846 263.158 48.0629C262.426 47.0412 262.012 45.8546 261.915 44.5031H265.004C265.085 45.4363 265.398 46.2086 265.946 46.82C266.501 47.4233 267.201 47.8738 268.045 48.1715C268.898 48.4611 269.815 48.6059 270.796 48.6059C271.939 48.6059 272.965 48.4209 273.874 48.0508C274.783 47.6727 275.503 47.1498 276.034 46.4821C276.565 45.8063 276.83 45.0179 276.83 44.1169C276.83 43.2964 276.601 42.6287 276.142 42.1138C275.684 41.5989 275.08 41.1806 274.332 40.8588C273.584 40.537 272.776 40.2555 271.907 40.0141L268.866 39.1453C266.935 38.5902 265.407 37.7978 264.28 36.7681C263.154 35.7383 262.591 34.3908 262.591 32.7256C262.591 31.3419 262.965 30.1352 263.713 29.1055C264.469 28.0677 265.483 27.2632 266.754 26.692C268.033 26.1128 269.461 25.8232 271.038 25.8232C272.631 25.8232 274.047 26.1088 275.285 26.68C276.524 27.2431 277.506 28.0154 278.23 28.9969C278.962 29.9783 279.348 31.0925 279.388 32.3394H276.492Z" fill="#FFA91D"></path><path d="M186.566 10.125C183.822 10.125 181.146 10.4167 178.565 10.9617L176.328 20.3147H196.803L194.567 10.9617C191.985 10.4167 189.31 10.125 186.566 10.125Z" fill="#4C7E9E"></path><path d="M178.565 92.0181C181.146 92.563 183.822 92.8548 186.566 92.8548C189.31 92.8548 191.985 92.563 194.567 92.0181L196.803 82.665H176.328L178.565 92.0181Z" fill="#4C7E9E"></path><path d="M227.103 43.4891L217.75 41.2527V61.7279L227.103 59.4914C227.648 56.9096 227.94 54.2343 227.94 51.4903C227.94 48.7456 227.648 46.0704 227.103 43.4891Z" fill="#4C7E9E"></path><path d="M155.393 41.2522L146.04 43.4886C145.495 46.0705 145.203 48.7457 145.203 51.4898C145.203 54.2339 145.495 56.9091 146.04 59.4909L155.393 61.7274V41.2522Z" fill="#4C7E9E"></path><path d="M220.888 28.4897C219.448 26.2784 217.763 24.1808 215.823 22.2407C213.882 20.3001 211.785 18.6151 209.574 17.175L201.379 22.2075L215.857 36.6857L220.888 28.4897Z" fill="#4C7E9E"></path><path d="M152.25 74.4901C153.69 76.7015 155.376 78.799 157.316 80.7397C159.256 82.6803 161.354 84.3654 163.565 85.8054L171.76 80.7729L157.281 66.2947L152.25 74.4901Z" fill="#4C7E9E"></path><path d="M201.371 80.7737L209.567 85.8055C211.777 84.3655 213.875 82.6799 215.816 80.7392C217.757 78.7992 219.442 76.701 220.882 74.4903L215.85 66.2954L201.371 80.7737Z" fill="#4C7E9E"></path><path d="M157.316 22.2401C155.375 24.1807 153.69 26.2783 152.25 28.4891L157.282 36.6839L171.76 22.2057L163.565 17.1738C161.354 18.6144 159.256 20.3001 157.316 22.2401Z" fill="#4C7E9E"></path><path d="M186.572 17.0859C167.571 17.0859 152.168 32.489 152.168 51.4897C152.168 70.4905 167.571 85.8935 186.572 85.8935C205.573 85.8935 220.976 70.4905 220.976 51.4897C220.976 32.489 205.573 17.0859 186.572 17.0859ZM186.572 68.5499C177.15 68.5499 169.513 60.9122 169.513 51.4903C169.513 42.0684 177.15 34.4308 186.572 34.4308C195.994 34.4308 203.632 42.0684 203.632 51.4903C203.632 60.9122 195.994 68.5499 186.572 68.5499Z" fill="#609EC7"></path><path d="M186.575 27.2585C173.193 27.2585 162.344 38.107 162.344 51.4901C162.344 64.8726 173.193 75.7217 186.575 75.7217C199.958 75.7217 210.807 64.8726 210.807 51.4901C210.806 38.107 199.958 27.2585 186.575 27.2585ZM186.575 68.5496C177.153 68.5496 169.516 60.912 169.516 51.4901C169.516 42.0682 177.153 34.4306 186.575 34.4306C195.997 34.4306 203.635 42.0682 203.635 51.4901C203.635 60.9114 195.997 68.5496 186.575 68.5496Z" fill="#4C7E9E"></path><path opacity="0.15" d="M337.94 214.498H88.0648C80.6856 214.498 74.6484 208.461 74.6484 201.081V63.5824C74.6484 56.2032 80.6856 50.166 88.0648 50.166H337.94C345.32 50.166 351.357 56.2032 351.357 63.5824V201.081C351.357 208.461 345.32 214.498 337.94 214.498Z" fill="black"></path><path d="M333.16 209.873H92.8493C85.8232 209.873 80.0742 204.124 80.0742 197.098V67.5661C80.0742 60.54 85.8232 54.791 92.8493 54.791H333.16C340.186 54.791 345.935 60.54 345.935 67.5661V197.098C345.935 204.124 340.186 209.873 333.16 209.873Z" fill="#D1D3D6"></path><path d="M80.0742 194.171V197.098C80.0742 204.124 85.8232 209.873 92.8493 209.873H333.16C340.186 209.873 345.935 204.124 345.935 197.098V194.171H80.0742Z" fill="#EAECF0"></path><path d="M330.725 189.03H95.2795C89.4151 189.03 84.6172 184.232 84.6172 178.368V69.7C84.6172 63.8355 89.4151 59.0376 95.2795 59.0376H330.725C336.59 59.0376 341.388 63.8355 341.388 69.7V178.368C341.388 184.232 336.589 189.03 330.725 189.03Z" fill="#30506E"></path><path opacity="0.15" d="M306.227 189.03H119.766L122.426 59.0376H303.567L306.227 189.03Z" fill="black"></path><path d="M301.67 59.0376H124.344V189.03H301.67V59.0376Z" fill="#E7EAED"></path><path d="M294.7 97.8277H131.313C130.627 97.8277 130.07 97.2711 130.07 96.5849V66.161C130.07 65.4748 130.627 64.9182 131.313 64.9182H294.7C295.386 64.9182 295.943 65.4748 295.943 66.161V96.5849C295.943 97.2711 295.386 97.8277 294.7 97.8277Z" fill="#C4CDD6"></path><path d="M249.427 97.8279H176.578C174.917 97.8279 173.57 96.4812 173.57 94.8201V67.9267C173.57 66.2656 174.917 64.9189 176.578 64.9189H249.427C251.088 64.9189 252.435 66.2656 252.435 67.9267V94.8201C252.435 96.4812 251.088 97.8279 249.427 97.8279Z" fill="#FCFCFC"></path><path d="M259.137 239.031H166.879L171.613 209.873H254.403L259.137 239.031Z" fill="#D1D3D6"></path><path d="M167.784 233.457L166.879 239.03H259.137L257.871 231.229L167.784 233.457Z" fill="#B6B8BA"></path><path d="M171.612 209.873L171.172 212.587L255.385 215.928L254.402 209.873H171.612Z" fill="#B6B8BA"></path><path d="M250.547 209.873L254.841 239.031H259.134L254.4 209.873H250.547Z" fill="#B6B8BA"></path><path d="M171.609 209.873L166.875 239.031H171.169L175.463 209.873H171.609Z" fill="#B6B8BA"></path><path d="M135.312 251.757C135.312 243.456 142.105 236.664 150.406 236.664H275.606C283.907 236.664 290.7 243.456 290.7 251.757H135.312Z" fill="#EAECF0"></path><path d="M171.609 180.65H132.028C130.945 180.65 130.066 179.771 130.066 178.688V108.17C130.066 107.087 130.945 106.208 132.028 106.208H171.609C172.692 106.208 173.571 107.087 173.571 108.17V178.688C173.571 179.771 172.692 180.65 171.609 180.65Z" fill="#C4CDD6"></path><path d="M294.96 138.742H183.923C182.839 138.742 181.961 137.864 181.961 136.781V108.17C181.961 107.087 182.839 106.208 183.923 106.208H294.96C296.044 106.208 296.922 107.087 296.922 108.17V136.781C296.922 137.864 296.043 138.742 294.96 138.742Z" fill="#C4CDD6"></path><path d="M294.96 180.649H183.923C182.839 180.649 181.961 179.771 181.961 178.688V147.743C181.961 146.659 182.839 145.781 183.923 145.781H294.96C296.044 145.781 296.922 146.659 296.922 147.743V178.688C296.922 179.771 296.043 180.649 294.96 180.649Z" fill="#C4CDD6"></path><path d="M142.271 119.838H134.597C134.227 119.838 133.926 119.537 133.926 119.166V111.492C133.926 111.122 134.226 110.821 134.597 110.821H142.271C142.642 110.821 142.943 111.121 142.943 111.492V119.166C142.943 119.537 142.642 119.838 142.271 119.838Z" fill="#21384D"></path><path d="M167.492 113.526H148.622C148.087 113.526 147.648 113.087 147.648 112.552C147.648 112.017 148.087 111.579 148.622 111.579H167.492C168.027 111.579 168.466 112.017 168.466 112.552C168.466 113.088 168.028 113.526 167.492 113.526Z" fill="#21384D"></path><path d="M167.492 119.079H148.622C148.087 119.079 147.648 118.641 147.648 118.106C147.648 117.571 148.087 117.133 148.622 117.133H167.492C168.027 117.133 168.466 117.571 168.466 118.106C168.466 118.641 168.028 119.079 167.492 119.079Z" fill="#21384D"></path><path d="M142.271 147.957H134.597C134.227 147.957 133.926 147.657 133.926 147.286V139.612C133.926 139.242 134.226 138.94 134.597 138.94H142.271C142.642 138.94 142.943 139.241 142.943 139.612V147.286C142.943 147.657 142.642 147.957 142.271 147.957Z" fill="#21384D"></path><path d="M167.492 141.646H148.622C148.087 141.646 147.648 141.208 147.648 140.673C147.648 140.138 148.087 139.699 148.622 139.699H167.492C168.027 139.699 168.466 140.138 168.466 140.673C168.466 141.208 168.028 141.646 167.492 141.646Z" fill="#21384D"></path><path d="M167.492 147.199H148.622C148.087 147.199 147.648 146.761 147.648 146.226C147.648 145.691 148.087 145.253 148.622 145.253H167.492C168.027 145.253 168.466 145.691 168.466 146.226C168.466 146.761 168.028 147.199 167.492 147.199Z" fill="#21384D"></path><path d="M138.434 133.897C135.944 133.897 133.926 131.879 133.926 129.389C133.926 126.9 135.944 124.882 138.434 124.882C140.923 124.882 142.942 126.9 142.942 129.389C142.942 131.879 140.923 133.897 138.434 133.897Z" fill="#30506E"></path><path d="M167.492 127.586H148.622C148.087 127.586 147.648 127.148 147.648 126.613C147.648 126.077 148.087 125.639 148.622 125.639H167.492C168.027 125.639 168.466 126.078 168.466 126.613C168.466 127.148 168.028 127.586 167.492 127.586Z" fill="#30506E"></path><path d="M167.492 133.14H148.622C148.087 133.14 147.648 132.701 147.648 132.166C147.648 131.631 148.087 131.193 148.622 131.193H167.492C168.027 131.193 168.466 131.631 168.466 132.166C168.466 132.701 168.028 133.14 167.492 133.14Z" fill="#30506E"></path><path d="M142.271 176.078H134.597C134.227 176.078 133.926 175.778 133.926 175.406V167.733C133.926 167.362 134.226 167.061 134.597 167.061H142.271C142.642 167.061 142.943 167.362 142.943 167.733V175.406C142.943 175.778 142.642 176.078 142.271 176.078Z" fill="#21384D"></path><path d="M167.492 169.766H148.622C148.087 169.766 147.648 169.328 147.648 168.793C147.648 168.258 148.087 167.82 148.622 167.82H167.492C168.027 167.82 168.466 168.258 168.466 168.793C168.466 169.328 168.028 169.766 167.492 169.766Z" fill="#21384D"></path><path d="M167.492 175.32H148.622C148.087 175.32 147.648 174.881 147.648 174.346C147.648 173.811 148.087 173.373 148.622 173.373H167.492C168.027 173.373 168.466 173.811 168.466 174.346C168.466 174.882 168.028 175.32 167.492 175.32Z" fill="#21384D"></path><path d="M138.434 162.017C135.944 162.017 133.926 159.999 133.926 157.509C133.926 155.02 135.944 153.001 138.434 153.001C140.923 153.001 142.942 155.019 142.942 157.509C142.942 159.999 140.923 162.017 138.434 162.017Z" fill="#30506E"></path><path d="M167.492 155.706H148.622C148.087 155.706 147.648 155.268 147.648 154.733C147.648 154.198 148.087 153.76 148.622 153.76H167.492C168.027 153.76 168.466 154.198 168.466 154.733C168.466 155.268 168.028 155.706 167.492 155.706Z" fill="#30506E"></path><path d="M167.492 161.259H148.622C148.087 161.259 147.648 160.821 147.648 160.286C147.648 159.751 148.087 159.313 148.622 159.313H167.492C168.027 159.313 168.466 159.751 168.466 160.286C168.466 160.821 168.028 161.259 167.492 161.259Z" fill="#30506E"></path><path d="M206.415 127.229C209.047 126.132 210.291 123.109 209.194 120.477C208.096 117.845 205.073 116.601 202.441 117.698C199.809 118.795 198.565 121.818 199.663 124.45C200.76 127.082 203.783 128.326 206.415 127.229Z" fill="#30506E"></path><path d="M196.296 122.475C196.296 117.985 199.935 114.346 204.425 114.346V110.468C197.794 110.468 192.418 115.844 192.418 122.475C192.418 124.367 192.868 126.151 193.648 127.743L197.128 126.042C196.6 124.964 196.296 123.757 196.296 122.475Z" fill="#FFDD00"></path><path d="M212.555 122.475C212.555 124.01 212.122 125.44 211.383 126.665L214.701 128.664C215.793 126.855 216.433 124.742 216.433 122.475C216.433 115.844 211.057 110.468 204.426 110.468V114.346C208.915 114.346 212.555 117.985 212.555 122.475Z" fill="#609EC7"></path><path d="M204.43 134.482C208.794 134.482 212.603 132.146 214.706 128.663L211.387 126.665C209.964 129.023 207.385 130.605 204.43 130.605C201.221 130.605 198.455 128.742 197.133 126.042L193.652 127.744C195.605 131.73 199.691 134.482 204.43 134.482Z" fill="#F54747"></path><path d="M274.975 127.622C272.132 127.85 269.643 125.731 269.415 122.889C269.187 120.047 271.306 117.558 274.148 117.33C276.99 117.101 279.48 119.221 279.708 122.063C279.936 124.905 277.817 127.394 274.975 127.622Z" fill="#30506E"></path><path d="M273.908 114.372C278.383 114.013 282.303 117.35 282.662 121.825L286.528 121.515C285.997 114.905 280.208 109.976 273.598 110.507C271.712 110.659 269.97 111.25 268.445 112.155L270.42 115.488C271.451 114.875 272.631 114.475 273.908 114.372Z" fill="#F54747"></path><path d="M275.207 130.579C273.677 130.701 272.217 130.385 270.937 129.746L269.211 133.214C271.101 134.157 273.258 134.626 275.518 134.444C282.128 133.913 287.056 128.125 286.525 121.515L282.66 121.825C283.019 126.3 279.683 130.22 275.207 130.579Z" fill="#609EC7"></path><path d="M262.59 123.437C262.939 127.787 265.573 131.397 269.213 133.214L270.939 129.746C268.475 128.516 266.692 126.072 266.455 123.126C266.199 119.928 267.835 117.021 270.419 115.487L268.445 112.154C264.627 114.42 262.211 118.713 262.59 123.437Z" fill="#FFDD00"></path><path d="M239.44 127.639C242.292 127.639 244.604 125.327 244.604 122.475C244.604 119.624 242.292 117.312 239.44 117.312C236.589 117.312 234.277 119.624 234.277 122.475C234.277 125.327 236.589 127.639 239.44 127.639Z" fill="#30506E"></path><path d="M233.699 116.727C236.873 113.552 242.021 113.552 245.196 116.727L247.938 113.985C243.248 109.296 235.646 109.296 230.957 113.985C229.619 115.324 228.676 116.903 228.102 118.58L231.766 119.837C232.154 118.702 232.793 117.633 233.699 116.727Z" fill="#609EC7"></path><path d="M245.194 128.224C244.108 129.309 242.791 130.014 241.402 130.357L242.336 134.117C244.387 133.61 246.333 132.569 247.936 130.966C252.625 126.277 252.625 118.674 247.936 113.985L245.194 116.726C248.369 119.902 248.369 125.049 245.194 128.224Z" fill="#FFDD00"></path><path d="M230.955 130.966C234.042 134.053 238.387 135.094 242.337 134.117L241.403 130.358C238.73 131.019 235.787 130.313 233.698 128.224C231.429 125.955 230.791 122.681 231.765 119.838L228.101 118.58C226.662 122.779 227.604 127.615 230.955 130.966Z" fill="#F54747"></path><path d="M195.834 153.759C194.735 153.759 193.844 154.65 193.844 155.749V175.319H197.824V155.749C197.824 154.65 196.933 153.759 195.834 153.759Z" fill="#609EC7"></path><path d="M212.518 160.264C211.418 160.264 210.527 161.155 210.527 162.255V175.32H214.508V162.255C214.508 161.155 213.616 160.264 212.518 160.264Z" fill="#F54747"></path><path d="M204.178 150.913C203.078 150.913 202.188 151.804 202.188 152.903V175.319H206.168V152.903C206.168 151.804 205.277 150.913 204.178 150.913Z" fill="#FFDD00"></path><path d="M282.908 153.76C284.007 153.76 284.898 154.65 284.898 155.75V175.319H280.918V155.75C280.918 154.65 281.81 153.76 282.908 153.76Z" fill="#F54747"></path><path d="M266.225 160.265C267.324 160.265 268.215 161.156 268.215 162.255V175.32H264.234V162.255C264.234 161.156 265.125 160.265 266.225 160.265Z" fill="#609EC7"></path><path d="M274.568 164.828C275.668 164.828 276.559 165.719 276.559 166.819V175.319H272.578V166.819C272.578 165.719 273.469 164.828 274.568 164.828Z" fill="#FFDD00"></path><path d="M231.096 157.323C229.996 157.323 229.105 158.213 229.105 159.313V175.319H233.086V159.313C233.086 158.213 232.195 157.323 231.096 157.323Z" fill="#609EC7"></path><path d="M247.779 156.328C246.68 156.328 245.789 157.219 245.789 158.318V175.32H249.769V158.318C249.769 157.219 248.878 156.328 247.779 156.328Z" fill="#F54747"></path><path d="M239.439 150.913C238.34 150.913 237.449 151.804 237.449 152.903V175.319H241.43V152.903C241.43 151.804 240.539 150.913 239.439 150.913Z" fill="#FFDD00"></path><path opacity="0.2" d="M294.041 62.5344H101.111C95.5095 62.5344 90.9258 67.1182 90.9258 72.7201V151.606L294.041 62.5344Z" fill="white"></path><path opacity="0.15" d="M92.8454 54.7913C85.8192 54.7913 80.0703 60.5402 80.0703 67.5664V109.457H102.36C104.297 109.457 105.867 107.887 105.867 105.95V54.7913H92.8454Z" fill="black"></path><path d="M98.714 105.374H38.7903C37.0358 105.374 35.6133 103.952 35.6133 102.197V16.1025C35.6133 14.348 37.0358 12.9255 38.7903 12.9255H98.714C100.468 12.9255 101.891 14.348 101.891 16.1025V102.197C101.891 103.952 100.468 105.374 98.714 105.374Z" fill="#ADCF65"></path><path d="M97.3377 19.3518H52.3789L40.1406 31.5901V99.9992C40.1406 100.012 40.1511 100.023 40.164 100.023H97.3377C97.3506 100.023 97.3611 100.012 97.3611 99.9992V19.3751C97.3617 19.3623 97.3511 19.3518 97.3377 19.3518Z" fill="#E7EAED"></path><path d="M52.3789 31.5901V19.3518L40.1406 31.5901H52.3789Z" fill="#FCFCFC"></path><path d="M88.2221 37.9628H49.2993C48.8314 37.9628 48.4492 37.58 48.4492 37.1121C48.4492 36.6441 48.832 36.262 49.2993 36.262H88.2221C88.6901 36.262 89.0728 36.6447 89.0728 37.1121C89.0722 37.58 88.6895 37.9628 88.2221 37.9628Z" fill="#21384D"></path><path d="M88.2221 50.0956H49.2993C48.8314 50.0956 48.4492 49.7128 48.4492 49.2449C48.4492 48.7769 48.832 48.3948 49.2993 48.3948H88.2221C88.6901 48.3948 89.0728 48.7775 89.0728 49.2449C89.0722 49.7128 88.6895 50.0956 88.2221 50.0956Z" fill="#21384D"></path><path d="M82.5059 44.0292H55.0064C54.5384 44.0292 54.1562 43.6464 54.1562 43.1791C54.1562 42.7111 54.539 42.3284 55.0064 42.3284H82.5059C82.9739 42.3284 83.3567 42.7111 83.3567 43.1791C83.3567 43.6464 82.9739 44.0292 82.5059 44.0292Z" fill="#21384D"></path><path d="M88.2221 62.2283H49.2993C48.8314 62.2283 48.4492 61.8455 48.4492 61.3776C48.4492 60.9096 48.832 60.5269 49.2993 60.5269H88.2221C88.6901 60.5269 89.0728 60.9096 89.0728 61.3776C89.0722 61.8455 88.6895 62.2283 88.2221 62.2283Z" fill="#21384D"></path><path d="M82.5059 56.162H55.0064C54.5384 56.162 54.1562 55.7792 54.1562 55.3119C54.1562 54.8439 54.539 54.4612 55.0064 54.4612H82.5059C82.9739 54.4612 83.3567 54.8439 83.3567 55.3119C83.3567 55.7792 82.9739 56.162 82.5059 56.162Z" fill="#21384D"></path><path d="M88.2221 74.3603H49.2993C48.8314 74.3603 48.4492 73.9776 48.4492 73.5096C48.4492 73.0417 48.832 72.6589 49.2993 72.6589H88.2221C88.6901 72.6589 89.0728 73.0417 89.0728 73.5096C89.0722 73.9776 88.6895 74.3603 88.2221 74.3603Z" fill="#21384D"></path><path d="M82.5059 68.2939H55.0064C54.5384 68.2939 54.1562 67.9112 54.1562 67.4432C54.1562 66.9753 54.539 66.5925 55.0064 66.5925H82.5059C82.9739 66.5925 83.3567 66.9753 83.3567 67.4432C83.3567 67.9112 82.9739 68.2939 82.5059 68.2939Z" fill="#21384D"></path><path d="M88.2221 86.4931H49.2993C48.8314 86.4931 48.4492 86.1103 48.4492 85.6429C48.4492 85.175 48.832 84.7922 49.2993 84.7922H88.2221C88.6901 84.7922 89.0728 85.175 89.0728 85.6429C89.0722 86.1103 88.6895 86.4931 88.2221 86.4931Z" fill="#21384D"></path><path d="M82.5059 80.4266H55.0064C54.5384 80.4266 54.1562 80.0439 54.1562 79.5759C54.1562 79.108 54.539 78.7258 55.0064 78.7258H82.5059C82.9739 78.7258 83.3567 79.1086 83.3567 79.5759C83.3567 80.0439 82.9739 80.4266 82.5059 80.4266Z" fill="#21384D"></path><path d="M82.5059 92.5593H55.0064C54.5384 92.5593 54.1562 92.1766 54.1562 91.7086C54.1562 91.2407 54.539 90.8579 55.0064 90.8579H82.5059C82.9739 90.8579 83.3567 91.2407 83.3567 91.7086C83.3567 92.1766 82.9739 92.5593 82.5059 92.5593Z" fill="#21384D"></path><path d="M68.769 4.20776C66.5343 4.20776 64.7227 6.01944 64.7227 8.25414C64.7227 10.4888 66.5343 12.3005 68.769 12.3005C71.0037 12.3005 72.8154 10.4888 72.8154 8.25414C72.816 6.01944 71.0037 4.20776 68.769 4.20776ZM68.769 9.55644C68.0502 9.55644 67.4673 8.97356 67.4673 8.25472C67.4673 7.53588 68.0502 6.953 68.769 6.953C69.4879 6.953 70.0707 7.53588 70.0707 8.25472C70.0707 8.97356 69.4879 9.55644 68.769 9.55644Z" fill="#FFA91D"></path><path d="M79.5808 15.8008H57.9492V11.4732C57.9492 10.5537 58.6943 9.80859 59.6139 9.80859H77.9162C78.8357 9.80859 79.5808 10.5537 79.5808 11.4732V15.8008Z" fill="#FFA91D"></path><path d="M78.248 14.7563H59.2799C56.4659 14.7563 54.1641 17.0587 54.1641 19.8722C54.1641 22.6863 56.4664 24.9881 59.2799 24.9881H78.248C81.0621 24.9881 83.3639 22.6857 83.3639 19.8722C83.3639 17.0581 81.0615 14.7563 78.248 14.7563ZM81.2441 19.8722C81.2441 21.6816 79.7639 23.1618 77.9545 23.1618H59.5728C57.7635 23.1618 56.2832 21.6816 56.2832 19.8722C56.2832 18.0629 57.7635 16.5826 59.5728 16.5826H77.9545C79.7639 16.5826 81.2441 18.0629 81.2441 19.8722Z" fill="#FFDD00"></path><path d="M44.2497 172.984C42.6353 172.984 41.0611 173.155 39.5423 173.476L38.2266 178.98H50.2735L48.9572 173.476C47.4384 173.155 45.8642 172.984 44.2497 172.984Z" fill="#4C7E9E"></path><path d="M39.5429 221.168C41.0622 221.489 42.6359 221.661 44.2503 221.661C45.8648 221.661 47.439 221.489 48.9578 221.168L50.2735 215.665H38.2266L39.5429 221.168Z" fill="#4C7E9E"></path><path d="M68.0971 192.614L62.5938 191.298V203.345L68.0971 202.03C68.418 200.511 68.5895 198.937 68.5895 197.322C68.5895 195.707 68.418 194.133 68.0971 192.614Z" fill="#4C7E9E"></path><path d="M25.9137 191.298L20.4104 192.614C20.0895 194.133 19.918 195.707 19.918 197.322C19.918 198.936 20.0895 200.51 20.4104 202.029L25.9137 203.345V191.298Z" fill="#4C7E9E"></path><path d="M64.4446 183.789C63.5974 182.488 62.6055 181.254 61.4637 180.112C60.3218 178.97 59.0878 177.979 57.7867 177.131L52.9648 180.092L61.4835 188.611L64.4446 183.789Z" fill="#4C7E9E"></path><path d="M24.0703 210.855C24.9175 212.156 25.9094 213.39 27.0507 214.532C28.192 215.674 29.4266 216.665 30.7277 217.513L35.5495 214.552L27.0308 206.033L24.0703 210.855Z" fill="#4C7E9E"></path><path d="M52.9648 214.551L57.7867 217.512C59.0878 216.665 60.3218 215.673 61.4637 214.532C62.6055 213.39 63.5969 212.156 64.4446 210.855L61.4841 206.033L52.9648 214.551Z" fill="#4C7E9E"></path><path d="M27.0513 180.112C25.9094 181.254 24.9181 182.488 24.0703 183.789L27.0308 188.611L35.5495 180.092L30.7277 177.132C29.4272 177.979 28.1925 178.971 27.0513 180.112Z" fill="#4C7E9E"></path><path d="M44.258 177.08C33.0787 177.08 24.0156 186.143 24.0156 197.322C24.0156 208.502 33.0787 217.565 44.258 217.565C55.4373 217.565 64.5004 208.502 64.5004 197.322C64.5004 186.142 55.4379 177.08 44.258 177.08ZM44.258 207.36C38.7144 207.36 34.2205 202.866 34.2205 197.322C34.2205 191.779 38.7144 187.285 44.258 187.285C49.8016 187.285 54.2955 191.779 54.2955 197.322C54.2955 202.866 49.8016 207.36 44.258 207.36Z" fill="#609EC7"></path><path d="M44.2571 183.065C36.3832 183.065 30 189.448 30 197.322C30 205.196 36.3832 211.579 44.2571 211.579C52.1311 211.579 58.5142 205.196 58.5142 197.322C58.5142 189.448 52.1311 183.065 44.2571 183.065ZM44.2571 207.36C38.7136 207.36 34.2197 202.866 34.2197 197.322C34.2197 191.779 38.7136 187.285 44.2571 187.285C49.8007 187.285 54.2946 191.779 54.2946 197.322C54.2946 202.866 49.8007 207.36 44.2571 207.36Z" fill="#4C7E9E"></path><path d="M105.862 198.511H46.3633V251.843H105.862V198.511Z" fill="#D4B792"></path><path d="M82.1038 198.511H70.1094V218.876H82.1038V198.511Z" fill="#EDD6B9"></path><path opacity="0.15" d="M320.288 145.724C315.738 145.724 312.016 149.446 312.016 153.996V197.805C312.016 202.355 315.738 206.078 320.288 206.078H342.216C344.507 203.765 345.928 200.589 345.928 197.097V145.724H320.288Z" fill="black"></path><path d="M393.269 201.713H324.159C320.355 201.713 317.242 198.601 317.242 194.797V158.172C317.242 154.369 320.354 151.256 324.159 151.256H393.268C397.072 151.256 400.185 154.369 400.185 158.172V194.797C400.185 198.601 397.073 201.713 393.269 201.713Z" fill="#ADCF65"></path><path d="M400.185 160.787H317.242V171.449H400.185V160.787Z" fill="#30506E"></path><path d="M390.803 182.432H326.632C325.814 182.432 325.145 181.763 325.145 180.945C325.145 180.127 325.814 179.458 326.632 179.458H390.803C391.621 179.458 392.29 180.127 392.29 180.945C392.29 181.763 391.621 182.432 390.803 182.432Z" fill="white"></path><path d="M383.213 191.824H334.21C333.392 191.824 332.723 191.155 332.723 190.337C332.723 189.519 333.392 188.849 334.21 188.849H383.213C384.031 188.849 384.7 189.519 384.7 190.337C384.7 191.155 384.031 191.824 383.213 191.824Z" fill="white"></path><g opacity="0.1"><path d="M359.052 160.787H352.614L341.953 171.449H348.391L359.052 160.787Z" fill="white"></path><path d="M317.246 171.282L327.741 160.787H321.303L317.246 164.844V171.282Z" fill="white"></path><path d="M343.4 160.787H336.962L326.301 171.449H332.738L343.4 160.787Z" fill="white"></path><path d="M374.713 160.787H368.274L357.613 171.449H364.051L374.713 160.787Z" fill="white"></path><path d="M390.365 160.787H383.927L373.266 171.449H379.704L390.365 160.787Z" fill="white"></path><path d="M400.192 167.061V160.787H400.028L389.367 171.449H395.805L400.192 167.061Z" fill="white"></path></g><path opacity="0.15" d="M333.151 54.791H310.312C311.598 60.4962 314.452 65.919 318.893 70.3598C326.266 77.7325 336.338 80.7467 345.926 79.4193V67.5661C345.927 60.54 340.178 54.791 333.151 54.791Z" fill="black"></path><path opacity="0.7" d="M365.137 55.2933C371.294 43.402 366.645 28.7708 354.754 22.6135C342.863 16.4563 328.232 21.1047 322.074 32.996C315.917 44.8873 320.566 59.5185 332.457 65.6757C344.348 71.833 358.979 67.1846 365.137 55.2933Z" fill="#609EC7"></path><path d="M360.805 54.6193C366.601 45.1183 363.597 32.7173 354.096 26.921C344.594 21.1247 332.193 24.128 326.397 33.6291C320.601 43.1301 323.605 55.5311 333.106 61.3274C342.607 67.1237 355.008 64.1204 360.805 54.6193Z" fill="#609EC7"></path><path d="M345.571 42.7626C347.365 39.1214 345.868 34.7152 342.227 32.921C338.586 31.1267 334.18 32.624 332.385 36.2652C330.591 39.9064 332.088 44.3126 335.73 46.1068C339.371 47.9011 343.777 46.4038 345.571 42.7626Z" fill="#FCFCFC"></path><path d="M355.554 51.8861C355.554 54.2065 353.673 56.087 351.353 56.087C349.033 56.087 347.152 54.2059 347.152 51.8861C347.152 49.5656 349.033 47.6851 351.353 47.6851C353.673 47.6851 355.554 49.5656 355.554 51.8861Z" fill="#FCFCFC"></path><path d="M394.427 94.9602C391.871 97.5164 387.687 97.5164 385.131 94.9602L366.019 75.848C363.463 73.2912 363.463 69.1083 366.019 66.5522C368.575 63.996 372.758 63.996 375.315 66.5522L394.427 85.6643C396.983 88.2205 396.983 92.404 394.427 94.9602Z" fill="#F54747"></path><path opacity="0.3" d="M375.315 66.5514C372.758 63.9952 368.575 63.9952 366.019 66.5514C363.463 69.1076 363.463 73.2911 366.019 75.8473L367.767 77.5954C370.041 77.2663 372.232 76.244 373.971 74.5041C375.711 72.7642 376.734 70.5733 377.063 68.2995L375.315 66.5514Z" fill="black"></path><path d="M365.443 65.9809C363.389 68.0353 361.114 69.7309 358.699 71.0857L360.839 73.2253C364.097 76.484 369.429 76.484 372.688 73.2253C375.947 69.9666 375.947 64.6348 372.688 61.3762L370.548 59.2366C369.193 61.6516 367.497 63.9265 365.443 65.9809Z" fill="#F54747"></path><path opacity="0.3" d="M372.235 60.9239L370.548 59.2371C369.193 61.6515 367.497 63.9264 365.443 65.9808C363.389 68.0352 361.114 69.7308 358.699 71.0856L360.386 72.7724C362.771 71.3721 365.019 69.6497 367.066 67.6035C369.112 65.5566 370.834 63.3085 372.235 60.9239Z" fill="black"></path><path d="M321.729 22.2684C309.658 34.3393 309.658 53.9101 321.729 65.9809C333.8 78.0518 353.371 78.0518 365.441 65.9809C377.512 53.9101 377.512 34.3393 365.441 22.2684C353.371 10.197 333.8 10.197 321.729 22.2684ZM360.282 60.8207C351.061 70.0419 336.11 70.0419 326.889 60.8207C317.668 51.5995 317.668 36.6492 326.889 27.4281C336.11 18.2069 351.061 18.2069 360.282 27.4281C369.503 36.6492 369.503 51.5995 360.282 60.8207Z" fill="#F54747"></path><path opacity="0.15" d="M80.0703 113.917V181.446C96.5166 178.992 109.132 164.812 109.132 147.682C109.132 130.552 96.5172 116.371 80.0703 113.917Z" fill="black"></path><path d="M95.1194 167.815C106.239 156.695 106.239 138.667 95.1194 127.548C83.9999 116.428 65.9717 116.428 54.8523 127.548C43.7328 138.667 43.7328 156.695 54.8523 167.815C65.9717 178.934 83.9999 178.934 95.1194 167.815Z" fill="#FFDD00"></path><path d="M97.419 142.464L102.717 141.237C102.23 139.134 101.516 137.118 100.591 135.222L95.7018 137.604C94.9427 136.047 94.0121 134.591 92.9368 133.255L97.1734 129.846C95.839 128.188 94.3225 126.685 92.655 125.363L89.2778 129.625C87.9335 128.56 86.4707 127.637 84.9076 126.89L87.2538 121.982C85.3505 121.072 83.3288 120.373 81.2207 119.902L80.0333 125.209C78.4078 124.846 76.7204 124.647 74.9851 124.647C74.96 124.647 74.9355 124.649 74.9098 124.649L74.6817 119.216C72.5894 119.237 70.5531 119.488 68.592 119.938L69.78 125.245C68.0786 125.638 66.4478 126.215 64.9138 126.962L62.6354 122.019C60.6924 122.956 58.8761 124.112 57.2091 125.447L60.5751 129.717C59.2384 130.791 58.0254 132.01 56.9576 133.352L52.6668 130.011C51.3429 131.681 50.1987 133.499 49.2721 135.442L54.2188 137.702C53.4784 139.24 52.9101 140.876 52.5244 142.58L47.2037 141.452C46.7556 143.458 46.5117 145.541 46.5117 147.682C46.5117 147.696 46.5129 147.71 46.5129 147.724L51.9514 147.704C51.9532 149.482 52.1626 151.21 52.5454 152.873L47.2294 154.022C47.7067 156.12 48.4074 158.133 49.32 160.027L54.2614 157.745C55.0176 159.299 55.9459 160.753 57.0171 162.088L52.7414 165.447C54.0875 167.129 55.6197 168.655 57.3077 169.994L60.6533 165.708C61.9912 166.773 63.4464 167.697 65.0031 168.447L62.7456 173.395C64.6279 174.293 66.6263 174.984 68.7093 175.453L69.878 170.141C71.5216 170.513 73.2295 170.716 74.9857 170.716C74.9939 170.716 75.0015 170.716 75.009 170.716L75.0149 176.154C77.1906 176.152 79.3057 175.898 81.3414 175.434L80.1307 170.132C81.8316 169.744 83.4624 169.174 84.9969 168.432L87.364 173.33C89.2912 172.398 91.093 171.251 92.7483 169.928L89.3537 165.68C90.6998 164.604 91.9221 163.381 92.9969 162.033L97.2475 165.425C98.5702 163.768 99.7173 161.964 100.647 160.035L95.7474 157.672C96.4878 156.137 97.0561 154.505 97.4423 152.803L102.746 154.008C103.208 151.972 103.46 149.857 103.46 147.682C103.46 147.649 103.457 147.617 103.457 147.584H98.0182C98.0101 145.823 97.8006 144.111 97.419 142.464Z" fill="#FFA91D"></path><path d="M74.9841 170.717C87.7059 170.717 98.0189 160.404 98.0189 147.682C98.0189 134.96 87.7059 124.647 74.9841 124.647C62.2623 124.647 51.9492 134.96 51.9492 147.682C51.9492 160.404 62.2623 170.717 74.9841 170.717Z" fill="#FFA91D"></path><path d="M74.982 167.789C86.0868 167.789 95.089 158.787 95.089 147.682C95.089 136.577 86.0868 127.575 74.982 127.575C63.8772 127.575 54.875 136.577 54.875 147.682C54.875 158.787 63.8772 167.789 74.982 167.789Z" fill="#FFDD00"></path><path d="M74.3897 161.38V130.488H76.3687V161.38H74.3897ZM81.0508 139.756C80.906 138.533 80.3187 137.584 79.289 136.908C78.2592 136.232 76.9962 135.894 75.4999 135.894C74.4058 135.894 73.4485 136.071 72.6279 136.425C71.8154 136.779 71.1799 137.266 70.7213 137.885C70.2708 138.505 70.0456 139.209 70.0456 139.997C70.0456 140.657 70.2024 141.224 70.5162 141.699C70.838 142.165 71.2483 142.555 71.747 142.869C72.2458 143.175 72.7687 143.428 73.3158 143.629C73.8628 143.822 74.3656 143.979 74.8241 144.1L77.3341 144.776C77.9777 144.945 78.6937 145.178 79.482 145.476C80.2785 145.773 81.0387 146.179 81.7627 146.694C82.4948 147.201 83.0982 147.853 83.5728 148.649C84.0474 149.446 84.2848 150.423 84.2848 151.581C84.2848 152.917 83.9348 154.124 83.2349 155.202C82.5431 156.28 81.5294 157.136 80.194 157.772C78.8666 158.407 77.2537 158.725 75.3551 158.725C73.5853 158.725 72.0527 158.44 70.7575 157.868C69.4704 157.297 68.4567 156.501 67.7166 155.479C66.9845 154.457 66.5702 153.271 66.4737 151.919H69.5629C69.6433 152.853 69.9571 153.625 70.5041 154.236C71.0592 154.84 71.7591 155.29 72.6038 155.588C73.4565 155.877 74.3736 156.022 75.3551 156.022C76.4974 156.022 77.5232 155.837 78.4322 155.467C79.3413 155.089 80.0613 154.566 80.5922 153.898C81.1232 153.223 81.3886 152.434 81.3886 151.533C81.3886 150.713 81.1594 150.045 80.7008 149.53C80.2423 149.015 79.6389 148.597 78.8908 148.275C78.1426 147.953 77.3341 147.672 76.4653 147.43L73.4244 146.562C71.4936 146.006 69.9651 145.214 68.8389 144.184C67.7126 143.155 67.1495 141.807 67.1495 140.142C67.1495 138.758 67.5235 137.551 68.2717 136.522C69.0279 135.484 70.0415 134.679 71.3126 134.108C72.5917 133.529 74.0197 133.239 75.5964 133.239C77.1893 133.239 78.6052 133.525 79.8441 134.096C81.0829 134.659 82.0644 135.432 82.7884 136.413C83.5205 137.395 83.9066 138.509 83.9469 139.756H81.0508Z" fill="#FFA91D"></path><path opacity="0.15" d="M133.909 57.082C134.068 56.3293 134.189 55.5638 134.289 54.7913H115.724C115.593 55.2236 115.444 55.6478 115.27 56.0597C114.783 57.2097 114.134 58.274 113.35 59.2239C113.089 59.5401 112.813 59.8441 112.523 60.1341C110.203 62.4534 106.999 63.8882 103.46 63.8882C99.9202 63.8882 96.7158 62.4534 94.3965 60.1341C94.1065 59.8441 93.8305 59.5401 93.5691 59.2239C92.7855 58.2746 92.1361 57.2103 91.6495 56.0597C91.4896 55.6816 91.3478 55.2936 91.2241 54.898C84.9547 55.6997 80.0664 61.0881 80.0664 67.5664V71.51C80.5192 72.0334 80.986 72.5492 81.4837 73.0463C82.9412 74.5044 84.5177 75.7706 86.1789 76.8523L91.1454 73.8025C92.7032 74.6485 94.3603 75.3329 96.0914 75.847L97.448 81.5201C99.3881 81.9297 101.398 82.1485 103.46 82.1485C105.521 82.1485 107.531 81.9297 109.471 81.5201L110.828 75.847C112.558 75.3329 114.215 74.648 115.774 73.8025L120.74 76.8523C122.401 75.77 123.978 74.5038 125.435 73.0463C126.893 71.5882 128.16 70.0123 129.241 68.3511L126.192 63.3846C127.038 61.8268 127.722 60.1697 128.236 58.4385L133.909 57.082Z" fill="black"></path><path d="M103.468 24.8716C101.73 24.8716 100.036 25.0565 98.401 25.4014L96.9844 31.3254H109.953L108.536 25.4014C106.9 25.056 105.206 24.8716 103.468 24.8716Z" fill="#4C7E9E"></path><path d="M98.401 76.7399C100.037 77.0853 101.731 77.2697 103.468 77.2697C105.207 77.2697 106.901 77.0847 108.536 76.7399L109.953 70.8159H96.9844L98.401 76.7399Z" fill="#4C7E9E"></path><path d="M129.135 46.0031L123.211 44.5864V57.5547L129.135 56.138C129.48 54.5025 129.665 52.8081 129.665 51.0705C129.665 49.3324 129.48 47.638 129.135 46.0031Z" fill="#4C7E9E"></path><path d="M83.7233 44.5864L77.7993 46.0031C77.4539 47.6386 77.2695 49.333 77.2695 51.0705C77.2695 52.8087 77.4545 54.5031 77.7993 56.138L83.7233 57.5547V44.5864Z" fill="#4C7E9E"></path><path d="M125.205 36.503C124.293 35.1026 123.225 33.7741 121.996 32.5447C120.768 31.3159 119.439 30.2481 118.038 29.3362L112.848 32.5231L122.017 41.6929L125.205 36.503Z" fill="#4C7E9E"></path><path d="M81.7344 65.6382C82.6463 67.0385 83.7141 68.3671 84.9429 69.5965C86.1717 70.8253 87.5002 71.893 88.9006 72.805L94.0911 69.6181L84.9213 60.4482L81.7344 65.6382Z" fill="#4C7E9E"></path><path d="M112.848 69.6179L118.038 72.8048C119.439 71.8929 120.767 70.8251 121.996 69.5963C123.225 68.3675 124.293 67.039 125.205 65.6381L122.018 60.4475L112.848 69.6179Z" fill="#4C7E9E"></path><path d="M84.9429 32.5448C83.7141 33.7736 82.6463 35.1022 81.7344 36.5031L84.9213 41.6937L94.0911 32.5238L88.9006 29.3369C87.5002 30.2489 86.1717 31.316 84.9429 32.5448Z" fill="#4C7E9E"></path><path d="M103.458 29.2803C91.4236 29.2803 81.668 39.0359 81.668 51.0706C81.668 63.1053 91.4236 72.8609 103.458 72.8609C115.493 72.8609 125.249 63.1053 125.249 51.0706C125.249 39.0359 115.492 29.2803 103.458 29.2803ZM103.458 61.8759C97.4906 61.8759 92.653 57.0383 92.653 51.0706C92.653 45.1028 97.4906 40.2653 103.458 40.2653C109.426 40.2653 114.264 45.1028 114.264 51.0706C114.264 57.0383 109.425 61.8759 103.458 61.8759Z" fill="#609EC7"></path><path d="M103.473 35.7234C94.9965 35.7234 88.125 42.5943 88.125 51.071C88.125 59.5471 94.9965 66.4181 103.473 66.4181C111.949 66.4181 118.82 59.5471 118.82 51.071C118.82 42.5943 111.949 35.7234 103.473 35.7234ZM103.473 61.8757C97.5049 61.8757 92.6673 57.0382 92.6673 51.0704C92.6673 45.1027 97.5049 40.2651 103.473 40.2651C109.44 40.2651 114.278 45.1027 114.278 51.0704C114.278 57.0382 109.44 61.8757 103.473 61.8757Z" fill="#4C7E9E"></path><path d="M0 278.304H426C417.99 262.756 399.066 251.757 377.12 251.757H48.8803C26.9342 251.757 8.01106 262.756 0 278.304Z" fill="#30506E"></path><path opacity="0.1" d="M377.982 264.031H47.0595C45.1469 264.031 43.582 262.467 43.582 260.554C43.582 258.641 45.1469 257.076 47.0595 257.076H377.982C379.894 257.076 381.459 258.641 381.459 260.554C381.46 262.467 379.895 264.031 377.982 264.031Z" fill="white"></path><path d="M179.926 92.4873V67.7739H194.841V70.4286H182.919V78.7791H194.069V81.4338H182.919V89.8325H195.034V92.4873H179.926ZM200.235 92.4873V67.7739H208.586C210.516 67.7739 212.101 68.1037 213.34 68.7634C214.579 69.415 215.496 70.312 216.091 71.4543C216.687 72.5967 216.984 73.8959 216.984 75.352C216.984 76.8081 216.687 78.0993 216.091 79.2256C215.496 80.3518 214.583 81.2367 213.352 81.8803C212.121 82.5159 210.549 82.8336 208.634 82.8336H201.876V80.1306H208.537C209.857 80.1306 210.919 79.9375 211.723 79.5514C212.536 79.1652 213.123 78.6182 213.485 77.9102C213.855 77.1943 214.04 76.3415 214.04 75.352C214.04 74.3625 213.855 73.4977 213.485 72.7576C213.115 72.0175 212.524 71.4463 211.711 71.0441C210.898 70.6338 209.824 70.4286 208.489 70.4286H203.228V92.4873H200.235ZM211.868 81.3856L217.95 92.4873H214.474L208.489 81.3856H211.868ZM221.971 92.4873V67.7739H230.321C232.26 67.7739 233.845 68.1238 235.076 68.8237C236.315 69.5156 237.232 70.4528 237.827 71.6353C238.423 72.8179 238.72 74.1373 238.72 75.5934C238.72 77.0495 238.423 78.3728 237.827 79.5634C237.24 80.7541 236.331 81.7033 235.1 82.4113C233.869 83.1112 232.292 83.4611 230.37 83.4611H224.384V80.8063H230.273C231.601 80.8063 232.667 80.5771 233.471 80.1185C234.275 79.66 234.859 79.0405 235.221 78.2602C235.591 77.4718 235.776 76.5829 235.776 75.5934C235.776 74.6039 235.591 73.7189 235.221 72.9386C234.859 72.1583 234.271 71.5469 233.459 71.1044C232.646 70.6539 231.568 70.4286 230.225 70.4286H224.964V92.4873H221.971Z" fill="#30506E"></path></svg>