<svg xmlns="http://www.w3.org/2000/svg" width="244" height="183" viewBox="0 0 244 183" fill="none"><path d="M190.746 127.661C190.746 127.336 190.757 127.013 190.779 126.694" stroke="#403699" stroke-width="0.644457" stroke-miterlimit="10" stroke-linecap="round"></path><path d="M191.043 124.782C192.369 118.468 197.971 113.727 204.68 113.727C212.375 113.727 218.614 119.965 218.614 127.66C218.614 133.913 214.495 139.204 208.824 140.968C208.108 141.191 207.368 141.358 206.608 141.463" stroke="#403699" stroke-width="0.644457" stroke-miterlimit="10" stroke-linecap="round" stroke-dasharray="1.93 1.93"></path><path d="M205.646 141.562C205.327 141.583 205.004 141.594 204.68 141.594" stroke="#403699" stroke-width="0.644457" stroke-miterlimit="10" stroke-linecap="round"></path><path d="M20.7656 84.8473C21.064 84.7191 21.3643 84.6018 21.6666 84.4961" stroke="#403699" stroke-width="0.644457" stroke-miterlimit="10" stroke-linecap="round"></path><path d="M23.5273 83.9846C29.8526 82.7098 36.4203 85.9843 39.069 92.1479C42.1076 99.2182 38.839 107.413 31.7686 110.452C26.0239 112.921 19.5368 111.226 15.6765 106.711C15.1893 106.142 14.7446 105.527 14.3477 104.871" stroke="#403699" stroke-width="0.644457" stroke-miterlimit="10" stroke-linecap="round" stroke-dasharray="1.93 1.93"></path><path d="M13.8767 104.026C13.7304 103.741 13.5931 103.45 13.4648 103.151" stroke="#403699" stroke-width="0.644457" stroke-miterlimit="10" stroke-linecap="round"></path><path d="M120.895 10.6056C121.193 10.4774 121.493 10.3601 121.795 10.2544" stroke="#403699" stroke-width="0.644457" stroke-miterlimit="10" stroke-linecap="round"></path><path d="M123.656 9.74286C129.982 8.46812 136.549 11.7426 139.198 17.9062C142.237 24.9765 138.968 33.1715 131.898 36.2101C126.153 38.679 119.666 36.9841 115.805 32.4696C115.318 31.8999 114.874 31.2858 114.477 30.6291" stroke="#403699" stroke-width="0.644457" stroke-miterlimit="10" stroke-linecap="round" stroke-dasharray="1.93 1.93"></path><path d="M114.006 29.7842C113.859 29.4994 113.722 29.2081 113.594 28.9097" stroke="#403699" stroke-width="0.644457" stroke-miterlimit="10" stroke-linecap="round"></path><path d="M78.7662 87.0727C64.4122 78.9584 59.3539 60.7447 67.4682 46.3907C75.5826 32.0367 93.7962 26.9784 108.15 35.0928C119.813 41.6855 125.339 54.9459 122.649 67.3858C122.029 70.2569 120.97 73.0835 119.449 75.7747" stroke="#403699" stroke-width="0.644457" stroke-miterlimit="10" stroke-linecap="round" stroke-dasharray="1.93 1.93"></path><path d="M227.488 91.9873C227.641 92.2741 227.782 92.5641 227.912 92.8567" stroke="#403699" stroke-width="0.644457" stroke-miterlimit="10" stroke-linecap="round"></path><path d="M228.542 94.6328C230.094 100.282 227.596 106.452 222.21 109.324C215.966 112.655 208.203 110.292 204.873 104.048C202.167 98.9745 203.22 92.8992 207.059 89.0131C207.512 88.5536 208.005 88.1251 208.536 87.7319" stroke="#403699" stroke-width="0.644457" stroke-miterlimit="10" stroke-linecap="round" stroke-dasharray="1.89 1.89"></path><path d="M209.312 87.1975C209.583 87.0267 209.862 86.8643 210.148 86.7109" stroke="#403699" stroke-width="0.644457" stroke-miterlimit="10" stroke-linecap="round"></path><path d="M51.4375 114.866C51.7365 114.989 52.0323 115.118 52.3249 115.25" stroke="#403699" stroke-width="0.644457" stroke-miterlimit="10" stroke-linecap="round"></path><path d="M54.0539 116.106C66.4604 122.79 72.0478 137.911 66.5551 151.222C60.6905 165.437 44.4128 172.205 30.1987 166.34C18.6494 161.575 12.016 149.936 13.08 138.115C13.2701 136.001 13.7064 133.882 14.405 131.795" stroke="#403699" stroke-width="0.644457" stroke-miterlimit="10" stroke-linecap="round" stroke-dasharray="1.93 1.93"></path><path d="M14.7266 130.884C14.8387 130.583 14.9566 130.283 15.0804 129.984" stroke="#403699" stroke-width="0.644457" stroke-miterlimit="10" stroke-linecap="round"></path><path d="M64.5884 143.072V134.115H58.961C58.479 132.402 57.7578 130.794 56.8363 129.32L60.9131 125.243L54.58 118.91L50.4091 123.081C48.9552 122.232 47.3782 121.58 45.7084 121.149V115.234H36.7517V121.052C35.033 121.457 33.4057 122.093 31.9074 122.938L27.8795 118.91L21.5464 125.243L25.3874 129.084C24.3949 130.621 23.6274 132.312 23.1195 134.115H17.8711V143.072H22.8231C23.2401 145.028 23.9735 146.862 24.9517 148.539L21.5464 151.944L27.8795 158.277L31.1901 154.966C32.8824 156.024 34.7526 156.816 36.7517 157.288V161.952H45.7084V157.191C47.656 156.688 49.4811 155.887 51.127 154.823L54.5807 158.277L60.9137 151.944L57.2732 148.303C58.1819 146.692 58.8611 144.935 59.2588 143.072H64.5884V143.072ZM50.132 141.163C49.9857 141.832 49.7569 142.465 49.4753 143.072C48.671 144.807 47.3492 146.232 45.7078 147.19C45.2289 147.469 44.7295 147.708 44.2017 147.899C43.2105 148.259 42.1555 148.487 41.04 148.487C40.0308 148.487 39.0776 148.286 38.167 147.989C37.674 147.828 37.2042 147.632 36.7511 147.395C34.9344 146.445 33.4695 144.937 32.6047 143.072C32.3656 142.555 32.18 142.014 32.0375 141.452C31.8519 140.717 31.7231 139.962 31.7231 139.17C31.7231 138.055 31.9512 137 32.3108 136.008C32.5531 135.341 32.8496 134.702 33.2304 134.115C34.103 132.769 35.323 131.691 36.7511 130.944C37.4723 130.567 38.2308 130.256 39.0473 130.078C39.6905 129.937 40.3543 129.853 41.04 129.853C41.832 129.853 42.588 129.981 43.322 130.167C44.1727 130.382 44.9686 130.718 45.7078 131.149C46.9722 131.887 48.0549 132.889 48.8495 134.114C49.2839 134.784 49.6067 135.523 49.8587 136.297C50.1558 137.206 50.3569 138.16 50.3569 139.17C50.3569 139.856 50.2725 140.52 50.132 141.163Z" fill="#EA47E3"></path><path d="M182.673 55.6279L184.833 46.9361L179.372 45.5789C179.317 43.8002 179.005 42.0659 178.466 40.4122L183.406 37.4394L178.787 29.7658L173.734 32.8077C172.528 31.6335 171.154 30.621 169.637 29.7993L171.064 24.0591L162.372 21.8989L160.969 27.5444C159.204 27.5237 157.471 27.7474 155.813 28.2062L152.876 23.3258L145.202 27.9446L148.004 32.5982C146.67 33.8504 145.517 35.3062 144.589 36.9341L139.496 35.6684L137.336 44.3602L142.142 45.5544C142.075 47.5535 142.343 49.5107 142.889 51.3732L138.763 53.8569L143.382 61.5305L147.393 59.1157C148.781 60.5502 150.405 61.7702 152.231 62.7105L151.106 67.2365L159.798 69.3967L160.946 64.7759C162.958 64.7573 164.922 64.4196 166.775 63.7848L169.295 67.9699L176.968 63.351L174.313 58.9397C175.584 57.5948 176.667 56.0545 177.501 54.3415L182.673 55.6279ZM169.104 50.2885C168.801 50.9027 168.426 51.4621 168.006 51.9828C166.807 53.4722 165.181 54.5368 163.357 55.0704C162.825 55.2257 162.282 55.3372 161.724 55.3959C160.676 55.5061 159.597 55.4726 158.514 55.2038C157.535 54.9602 156.658 54.5355 155.846 54.0277C155.407 53.7532 154.997 53.449 154.615 53.11C153.081 51.7502 152.023 49.9335 151.634 47.9137C151.526 47.355 151.477 46.7846 151.475 46.2046C151.471 45.4474 151.529 44.6831 151.72 43.9142C151.988 42.8315 152.465 41.8629 153.053 40.9877C153.449 40.3981 153.891 39.8496 154.402 39.3721C155.573 38.2765 157.017 37.5244 158.583 37.1442C159.374 36.9521 160.185 36.8329 161.02 36.8568C161.678 36.8755 162.343 36.9541 163.009 37.1191C163.777 37.3098 164.48 37.6172 165.147 37.9749C165.92 38.3893 166.612 38.9068 167.225 39.5036C168.274 40.5244 169.083 41.7579 169.559 43.1389C169.819 43.8936 169.954 44.6889 170.012 45.5002C170.081 46.4553 170.047 47.4291 169.803 48.408C169.637 49.0744 169.395 49.6982 169.104 50.2885Z" stroke="#352789" stroke-width="1.28891" stroke-miterlimit="10"></path><path d="M33.8332 103.212L35.4257 99.9848L33.3982 98.9846C33.529 98.2815 33.5548 97.5738 33.4852 96.8785L35.679 96.1341L34.5228 92.7256L32.2782 93.4873C31.905 92.9228 31.4526 92.4079 30.9274 91.9555L31.9791 89.8242L28.7517 88.2318L27.7173 90.3282C27.0258 90.169 26.3266 90.1085 25.6364 90.1465L24.9011 87.9785L21.4932 89.1347L22.1943 91.2014C21.5634 91.5791 20.9866 92.0521 20.4827 92.6115L18.5912 91.6783L16.9987 94.9058L18.7832 95.7861C18.586 96.5653 18.5235 97.3567 18.5783 98.1345L16.7461 98.7564L17.9022 102.164L19.6842 101.56C20.1063 102.242 20.6393 102.86 21.2753 103.385L20.4466 105.066L23.674 106.658L24.5202 104.943C25.3116 105.108 26.1113 105.143 26.8937 105.053L27.5246 106.911L30.9325 105.755L30.2674 103.796C30.8816 103.377 31.4384 102.865 31.9127 102.264L33.8332 103.212ZM28.9631 99.9545C28.7916 100.17 28.5964 100.357 28.3869 100.525C27.7889 101.007 27.0587 101.286 26.2969 101.339C26.0746 101.355 25.8523 101.352 25.628 101.327C25.2072 101.281 24.7863 101.175 24.3842 100.977C24.0207 100.797 23.7127 100.555 23.4375 100.286C23.2886 100.141 23.1539 99.9867 23.0328 99.8204C22.5468 99.1553 22.2871 98.351 22.3071 97.5255C22.3123 97.2967 22.3419 97.0692 22.3909 96.8411C22.4547 96.5434 22.5423 96.2482 22.6828 95.9627C22.8813 95.5606 23.1514 95.2209 23.4568 94.9277C23.6631 94.7298 23.8835 94.5526 24.1245 94.4089C24.6781 94.0789 25.3096 93.9075 25.9567 93.892C26.2834 93.8843 26.6121 93.9069 26.9382 93.9881C27.1947 94.0519 27.4492 94.1395 27.6961 94.2613C27.9816 94.4025 28.231 94.5829 28.4623 94.7801C28.7304 95.0089 28.9579 95.2718 29.1474 95.5586C29.4715 96.049 29.6836 96.6026 29.7525 97.1859C29.7899 97.5042 29.7751 97.8284 29.728 98.1519C29.6733 98.5328 29.5766 98.9124 29.3968 99.2758C29.2769 99.5233 29.128 99.7476 28.9631 99.9545Z" fill="#352789"></path><path d="M224.369 103.561L225.961 100.334L223.933 99.3334C224.064 98.6303 224.09 97.9227 224.02 97.2273L226.214 96.4829L225.058 93.075L222.813 93.8368C222.44 93.2722 221.988 92.7573 221.463 92.3049L222.514 90.1737L219.287 88.5812L218.252 90.6777C217.561 90.5185 216.862 90.4579 216.172 90.4959L215.436 88.3286L212.028 89.4848L212.729 91.5515C212.099 91.9292 211.522 92.4016 211.018 92.9616L209.126 92.0284L207.534 95.2559L209.318 96.1362C209.121 96.9154 209.059 97.7068 209.113 98.4846L207.281 99.1065L208.437 102.514L210.219 101.91C210.641 102.592 211.174 103.21 211.81 103.735L210.982 105.416L214.209 107.008L215.055 105.293C215.847 105.458 216.647 105.493 217.429 105.403L218.06 107.261L221.468 106.105L220.803 104.146C221.417 103.727 221.974 103.215 222.449 102.614L224.369 103.561ZM219.499 100.303C219.327 100.519 219.132 100.706 218.923 100.874C218.325 101.356 217.594 101.635 216.833 101.688C216.61 101.704 216.388 101.701 216.164 101.676C215.743 101.63 215.322 101.524 214.92 101.326C214.557 101.147 214.248 100.905 213.973 100.636C213.824 100.49 213.69 100.336 213.569 100.17C213.083 99.5048 212.823 98.7005 212.843 97.8749C212.849 97.6462 212.878 97.4187 212.927 97.1905C212.991 96.8928 213.078 96.5976 213.219 96.3121C213.417 95.91 213.687 95.5704 213.993 95.2772C214.199 95.0793 214.419 94.9021 214.66 94.7584C215.214 94.4284 215.845 94.257 216.492 94.2415C216.819 94.2338 217.148 94.2563 217.474 94.3375C217.73 94.4013 217.985 94.489 218.232 94.6108C218.517 94.7513 218.767 94.9324 218.998 95.1296C219.266 95.3584 219.494 95.6207 219.683 95.9074C220.008 96.3979 220.22 96.9515 220.288 97.5347C220.326 97.853 220.311 98.1766 220.264 98.5007C220.209 98.8816 220.112 99.2612 219.933 99.6247C219.812 99.8721 219.664 100.096 219.499 100.303Z" fill="#352789"></path><path d="M212.283 132.99L213.876 129.762L211.847 128.762C211.978 128.059 212.004 127.351 211.934 126.656L214.128 125.911L212.972 122.503L210.727 123.265C210.354 122.7 209.902 122.185 209.377 121.733L210.428 119.602L207.201 118.009L206.167 120.106C205.475 119.946 204.776 119.886 204.086 119.924L203.35 117.756L199.942 118.912L200.644 120.979C200.013 121.356 199.435 121.829 198.932 122.389L197.04 121.456L195.448 124.683L197.232 125.563C197.035 126.343 196.973 127.134 197.027 127.912L195.195 128.534L196.351 131.942L198.133 131.337C198.554 132.019 199.088 132.637 199.724 133.162L198.894 134.843L202.122 136.435L202.968 134.72C203.76 134.885 204.559 134.92 205.342 134.83L205.973 136.689L209.38 135.533L208.715 133.573C209.33 133.155 209.886 132.642 210.361 132.041L212.283 132.99ZM207.413 129.731C207.241 129.946 207.046 130.134 206.837 130.302C206.239 130.784 205.509 131.063 204.747 131.116C204.524 131.132 204.302 131.129 204.078 131.104C203.657 131.057 203.236 130.952 202.834 130.753C202.471 130.574 202.163 130.332 201.887 130.063C201.738 129.917 201.604 129.763 201.483 129.597C200.997 128.932 200.737 128.128 200.757 127.302C200.763 127.073 200.792 126.846 200.841 126.618C200.905 126.32 200.992 126.025 201.133 125.739C201.331 125.337 201.601 124.998 201.907 124.704C202.113 124.507 202.333 124.329 202.574 124.186C203.128 123.856 203.76 123.684 204.407 123.669C204.733 123.661 205.062 123.684 205.388 123.765C205.645 123.829 205.899 123.916 206.146 124.038C206.431 124.179 206.681 124.36 206.912 124.557C207.18 124.786 207.408 125.048 207.597 125.335C207.921 125.826 208.134 126.379 208.202 126.963C208.24 127.281 208.225 127.605 208.178 127.929C208.123 128.309 208.026 128.689 207.847 129.053C207.726 129.3 207.578 129.524 207.413 129.731Z" fill="#00CCFF"></path><path d="M134.228 29.4991L135.821 26.2717L133.793 25.2715C133.924 24.5684 133.949 23.8608 133.88 23.1654L136.073 22.4211L134.917 19.0132L132.673 19.7749C132.3 19.2104 131.847 18.6955 131.322 18.2431L132.374 16.1118L129.146 14.5194L128.112 16.6158C127.42 16.4566 126.721 16.396 126.031 16.4341L125.296 14.2661L121.888 15.4223L122.589 17.489C121.958 17.8667 121.381 18.3397 120.877 18.8991L118.986 17.9659L117.393 21.1934L119.178 22.0737C118.981 22.8529 118.918 23.6443 118.973 24.4221L117.141 25.044L118.297 28.4519L120.078 27.8474C120.5 28.5292 121.033 29.1473 121.669 29.6725L120.84 31.3532L124.067 32.9457L124.913 31.2302C125.705 31.3951 126.505 31.4306 127.287 31.3404L127.918 33.199L131.326 32.0428L130.661 30.0837C131.275 29.6648 131.832 29.1524 132.307 28.5511L134.228 29.4991ZM129.358 26.2414C129.187 26.4567 128.992 26.6442 128.782 26.8124C128.184 27.2945 127.454 27.5735 126.692 27.6264C126.47 27.6418 126.247 27.6392 126.023 27.6141C125.602 27.5677 125.182 27.462 124.779 27.2642C124.416 27.085 124.108 26.8427 123.833 26.5739C123.684 26.4283 123.549 26.2743 123.428 26.108C122.942 25.4429 122.682 24.6386 122.702 23.8131C122.708 23.5843 122.737 23.3562 122.786 23.1287C122.85 22.8309 122.938 22.5358 123.078 22.2503C123.276 21.8481 123.546 21.5085 123.852 21.2153C124.058 21.0174 124.279 20.8402 124.52 20.6965C125.073 20.3665 125.705 20.1951 126.352 20.1796C126.679 20.1719 127.007 20.1945 127.333 20.2757C127.59 20.3395 127.844 20.4271 128.091 20.5489C128.377 20.6894 128.626 20.8705 128.858 21.0677C129.126 21.2965 129.353 21.5588 129.543 21.8462C129.867 22.3366 130.079 22.8902 130.148 23.4735C130.185 23.7918 130.17 24.116 130.123 24.4395C130.068 24.8204 129.971 25.1993 129.792 25.5634C129.671 25.8103 129.523 26.0345 129.358 26.2414Z" fill="#352789"></path><path d="M194.209 148.511H48.906C46.432 148.511 44.4258 146.505 44.4258 144.03V51.8665C44.4258 49.3924 46.4313 47.3862 48.906 47.3862H194.209C196.683 47.3862 198.689 49.3918 198.689 51.8665V144.03C198.689 146.505 196.683 148.511 194.209 148.511Z" fill="#403699"></path><path d="M190.722 143.782H52.3909C51.0685 143.782 49.9961 142.71 49.9961 141.388V54.2635C49.9961 52.941 51.0685 51.8687 52.3909 51.8687H190.722C192.045 51.8687 193.117 52.941 193.117 54.2635V141.388C193.117 142.71 192.045 143.782 190.722 143.782Z" fill="#1A0763"></path><path d="M137.899 148.193H105.215V168.279H137.899V148.193Z" fill="#403699"></path><path d="M137.858 148.534H105.191V155.685H137.858V148.534Z" fill="#2A227C"></path><path d="M145.581 166.22H97.5352V169.157H145.581V166.22Z" fill="#403699"></path><path d="M189.881 54.7988H53.1367V58.7622H189.881V54.7988Z" fill="#352789"></path><path d="M61.7667 55.9561H55.0586V57.584H61.7667V55.9561Z" fill="#00CCFF"></path><path d="M182.684 69.8066H65.1172V71.5364H182.684V69.8066Z" fill="#00CCFF"></path><path d="M183.479 90.6064H83.9648V92.0926H183.479V90.6064Z" fill="#00CCFF"></path><path d="M183.479 123.109H83.9648V124.595H183.479V123.109Z" fill="#00CCFF"></path><path d="M183.479 97.2705H83.9648V98.7566H183.479V97.2705Z" fill="#00CCFF"></path><path d="M103.758 76.2461H65.1172V77.8534H103.758V76.2461Z" fill="#EA47E3"></path><path d="M103.758 130.082H65.1172V131.689H103.758V130.082Z" fill="#00CCFF"></path><path d="M103.758 115.914H65.1172V117.521H103.758V115.914Z" fill="#EA47E3"></path><path d="M103.758 82.834H65.1172V84.4413H103.758V82.834Z" fill="#EA47E3"></path><path d="M182.631 82.834H175.402V84.4413H182.631V82.834Z" fill="#EA47E3"></path><path d="M150.336 76.2461H111.695V77.8534H150.336V76.2461Z" fill="#00CCFF"></path><path d="M150.989 109.594H112.348V111.202H150.989V109.594Z" fill="#00CCFF"></path><path d="M150.989 130.3H112.348V131.907H150.989V130.3Z" fill="#00CCFF"></path><path d="M122.696 103.717H84.0547V105.325H122.696V103.717Z" fill="#EA47E3"></path><path d="M22.5492 26.4888H15.3203V28.096H22.5492V26.4888Z" fill="#EA47E3"></path><path d="M69.0333 26.4736H26.7344V28.0951H69.0333V26.4736Z" fill="#352789"></path><path d="M58.2482 11.874H15.9492V13.4961H58.2482V11.874Z" fill="#352789"></path><path d="M58.2482 16.354H15.9492V17.9761H58.2482V16.354Z" fill="#352789"></path><path d="M79.1993 26.4712H72.0078V28.0959H79.1993V26.4712Z" fill="#352789"></path><path d="M22.5492 31.3677H15.3203V32.975H22.5492V31.3677Z" fill="#EA47E3"></path><path d="M69.0333 31.3535H26.7344V32.9756H69.0333V31.3535Z" fill="#352789"></path><path d="M22.5492 36.2476H15.3203V37.8548H22.5492V36.2476Z" fill="#EA47E3"></path><path d="M53.4278 36.2324H26.7344V37.8545H53.4278V36.2324Z" fill="#352789"></path><path d="M22.5492 41.126H15.3203V42.7333H22.5492V41.126Z" fill="#EA47E3"></path><path d="M53.4278 41.1123H26.7344V42.7338H53.4278V41.1123Z" fill="#352789"></path><path d="M83.977 7.65479H11.0586V22.0784H83.977V7.65479Z" stroke="#EA47E3" stroke-width="0.644457" stroke-miterlimit="10"></path><path d="M67.6602 4.90332H71.465V19.8154H67.7626" stroke="#EA47E3" stroke-width="0.644457" stroke-miterlimit="10"></path><path d="M10.9461 43.1416H7.14062V28.2295H10.843" stroke="#00CCFF" stroke-width="0.644457" stroke-miterlimit="10"></path><path d="M215.428 157.407H173.129V159.029H215.428V157.407Z" fill="#352789"></path><path d="M215.428 161.887H173.129V163.509H215.428V161.887Z" fill="#352789"></path><path d="M216.186 16.7783H189.492V18.3998H216.186V16.7783Z" fill="#352789"></path><path d="M216.186 21.6582H189.492V23.2803H216.186V21.6582Z" fill="#352789"></path><path d="M216.186 28.5273H206.703V30.1494H216.186V28.5273Z" fill="#352789"></path><path d="M216.186 33.4072H206.703V35.0287H216.186V33.4072Z" fill="#352789"></path><path d="M216.186 38.6548H206.703V40.2762H216.186V38.6548Z" fill="#352789"></path><path d="M229.733 38.6548H220.25V40.2762H229.733V38.6548Z" fill="#352789"></path><path d="M216.186 43.5347H206.703V45.1568H216.186V43.5347Z" fill="#352789"></path><path d="M216.186 48.7822H206.703V50.4043H216.186V48.7822Z" fill="#352789"></path><path d="M229.28 48.7822H219.797V50.4043H229.28V48.7822Z" fill="#352789"></path><path d="M216.186 53.6626H206.703V55.2841H216.186V53.6626Z" fill="#352789"></path><path d="M178.647 5.05371H151.953V6.67581H178.647V5.05371Z" fill="#00CCFF"></path><path d="M178.647 9.93506H151.953V11.5572H178.647V9.93506Z" fill="#00CCFF"></path><path d="M241.157 153.189H168.238V167.613H241.157V153.189Z" stroke="#EA47E3" stroke-width="0.644457" stroke-miterlimit="10"></path><path d="M0.644531 175.114H242.471" stroke="#352789" stroke-width="1.28891" stroke-miterlimit="10" stroke-linecap="round"></path><path d="M9.55078 182.314H233.561" stroke="#352789" stroke-width="1.28891" stroke-miterlimit="10" stroke-linecap="round"></path><path d="M202.523 1.47656H146.691V14.9786H202.523V1.47656Z" stroke="#00CCFF" stroke-width="0.644457" stroke-miterlimit="10"></path><path d="M202.831 28.5449H190.266V40.2019H202.831V28.5449Z" stroke="#00CCFF" stroke-width="0.644457" stroke-miterlimit="10"></path><path d="M193.246 33.5525L195.75 37.1112L200.099 31.8389" stroke="#00CCFF" stroke-width="0.644457" stroke-miterlimit="10"></path><path opacity="0.1" d="M190.183 140.725H52.2656L190.183 53.8687V140.725Z" fill="white"></path><path opacity="0.1" d="M56.4813 61.5317H9.85938V78.6298H56.4813V61.5317Z" fill="white"></path><path opacity="0.1" d="M222.677 67.3857H176.055V86.9998H222.677V67.3857Z" fill="white"></path><path opacity="0.1" d="M200.334 0H143.52V18.4179H200.334V0Z" fill="white"></path><path opacity="0.1" d="M113.548 134.639H66.9258V159.597H113.548V134.639Z" fill="white"></path></svg>