<svg xmlns="http://www.w3.org/2000/svg" width="429" height="302" viewBox="0 0 429 302" fill="none"><path d="M59.9761 16.2383C35.6338 16.2383 15.9102 35.9619 15.9102 60.3042C15.9102 84.636 35.6338 104.37 59.9761 104.37C84.3079 104.37 104.042 84.636 104.042 60.3042C104.042 35.9619 84.3079 16.2383 59.9761 16.2383ZM59.9761 80.8782C48.608 80.8782 39.3917 71.6724 39.3917 60.3042C39.3917 48.9361 48.608 39.7198 59.9761 39.7198C71.3443 39.7198 80.5605 48.9361 80.5605 60.3042C80.5605 71.6724 71.3443 80.8782 59.9761 80.8782Z" fill="#2B386F"></path><path d="M68.449 18.0641H51.5039L52.4402 6.06934H67.5127L68.449 18.0641Z" fill="#2B386F"></path><path d="M36.193 23.7743L24.2098 35.7565L16.3906 26.6116L27.0481 15.9541L36.193 23.7743Z" fill="#2B386F"></path><path d="M17.4245 50.6182V67.5643L5.42969 66.628V51.5555L17.4245 50.6182Z" fill="#2B386F"></path><path d="M23.1355 82.873L35.1188 94.8552L25.9739 102.675L15.3164 92.0179L23.1355 82.873Z" fill="#2B386F"></path><path d="M49.9805 101.643H66.9267L65.9893 113.638H50.9178L49.9805 101.643Z" fill="#2B386F"></path><path d="M82.2305 95.9334L94.2127 83.9512L102.033 93.0961L91.3743 103.754L82.2305 95.9334Z" fill="#2B386F"></path><path d="M101.004 69.0897V52.1436L113 53.0799V68.1524L101.004 69.0897Z" fill="#2B386F"></path><path d="M95.2908 36.8346L83.3086 24.8524L92.4524 17.0322L103.111 27.6897L95.2908 36.8346Z" fill="#2B386F"></path><path d="M59.9243 19.2471C37.2614 19.2471 18.8984 37.61 18.8984 60.2729C18.8984 82.926 37.2614 101.299 59.9243 101.299C82.5774 101.299 100.95 82.926 100.95 60.2729C100.95 37.61 82.5774 19.2471 59.9243 19.2471ZM59.9243 79.4274C49.3404 79.4274 40.76 70.8568 40.76 60.2729C40.76 49.6891 49.3404 41.1086 59.9243 41.1086C70.5081 41.1086 79.0886 49.6891 79.0886 60.2729C79.0886 70.8568 70.5081 79.4274 59.9243 79.4274Z" fill="#4A5A9F"></path><path d="M67.8112 20.9475H52.0352L52.9069 9.78027H66.9395L67.8112 20.9475Z" fill="#4A5A9F"></path><path d="M37.78 26.2641L26.6234 37.4196L19.3438 28.9056L29.266 18.9834L37.78 26.2641Z" fill="#4A5A9F"></path><path d="M20.3079 51.2559V67.0329L9.14062 66.1612V52.1286L20.3079 51.2559Z" fill="#4A5A9F"></path><path d="M25.6234 81.2852L36.78 92.4407L28.266 99.7214L18.3438 89.7991L25.6234 81.2852Z" fill="#4A5A9F"></path><path d="M50.6172 98.7598H66.3942L65.5215 109.928H51.4899L50.6172 98.7598Z" fill="#4A5A9F"></path><path d="M80.6445 93.4446L91.8001 82.2891L99.0808 90.8031L89.1575 100.725L80.6445 93.4446Z" fill="#4A5A9F"></path><path d="M98.1211 68.4528V52.6758L109.289 53.5475V67.5801L98.1211 68.4528Z" fill="#4A5A9F"></path><path d="M92.804 38.4225L81.6484 27.267L90.1614 19.9863L100.085 29.9086L92.804 38.4225Z" fill="#4A5A9F"></path><path d="M62.6473 50.2484V69.4459C62.6473 70.4544 61.801 71.2353 60.8257 71.2353C59.8172 71.2353 59.0353 70.4544 59.0353 69.4459V53.4372L57.7346 54.1858C57.4414 54.3812 57.116 54.4457 56.8238 54.4457C56.2052 54.4457 55.6198 54.1203 55.2943 53.5349C54.7412 52.7218 55.0334 51.5833 55.8797 51.0947L59.8816 48.7189C59.9139 48.6867 59.9794 48.6867 60.0116 48.6544C60.0761 48.6544 60.1094 48.5899 60.1739 48.5567C60.2384 48.5567 60.3038 48.5245 60.3693 48.5245C60.4016 48.4922 60.467 48.4922 60.4993 48.4922C60.5648 48.46 60.6625 48.46 60.727 48.46C60.7592 48.46 60.7925 48.46 60.8247 48.46H60.857C60.9547 48.46 61.0202 48.46 61.0847 48.46C61.1169 48.4922 61.1824 48.4922 61.2147 48.4922C61.3124 48.4922 61.3446 48.5245 61.4101 48.5567C61.4424 48.5567 61.5078 48.5567 61.5401 48.5899C61.6378 48.6544 61.6701 48.6877 61.7355 48.6877C61.7678 48.7199 61.8 48.7522 61.8655 48.7854C61.8978 48.8176 61.9632 48.8499 61.9955 48.8831C62.061 48.9154 62.0932 48.9808 62.1255 49.0131C62.1577 49.0453 62.1909 49.0776 62.2232 49.1431C62.2554 49.1753 62.3209 49.2408 62.3532 49.2731L62.3864 49.3385C62.3864 49.3708 62.4186 49.403 62.4186 49.4363C62.4509 49.5017 62.4831 49.534 62.4831 49.5985C62.5154 49.664 62.5154 49.7285 62.5486 49.7617C62.5486 49.8272 62.5809 49.8917 62.5809 49.9239C62.5809 50.0216 62.5809 50.0871 62.6454 50.1516C62.6473 50.1839 62.6473 50.2161 62.6473 50.2484Z" fill="#4A5A9F"></path><path d="M99.7455 16.767C98.5787 26.6521 92.2264 28.463 91.1602 31.0987C90.5905 32.5255 89.8331 36.1532 89.8331 36.1532L79.5043 36.1424C79.5043 36.1424 78.7616 32.5138 78.1879 31.086C77.1334 28.4484 70.7783 26.6248 69.6378 16.7368C68.8843 10.2399 73.7785 -0.0107415 84.7083 8.44843e-06C95.639 0.0107584 100.506 10.2721 99.7455 16.767Z" fill="white"></path><path d="M79.4149 20.3171L78.75 20.4404L81.7987 36.8739L82.4636 36.7505L79.4149 20.3171Z" fill="#4A5A9F"></path><path d="M89.9642 20.3398L86.8789 36.7656L87.5435 36.8905L90.6288 20.4646L89.9642 20.3398Z" fill="#4A5A9F"></path><path d="M84.6837 25.8925C83.7152 25.8915 82.8777 25.0266 82.2864 23.9419C82.003 24.2419 81.702 24.4022 81.4069 24.4022C79.8286 24.4012 79.2051 21.1821 79.1797 21.0452L79.512 20.9827C79.6732 21.8398 80.327 24.063 81.4059 24.064C81.6307 24.064 81.8799 23.9067 82.1203 23.6203C81.6385 22.6245 81.358 21.5055 81.359 20.713C81.36 19.7963 81.7108 19.2695 82.3197 19.2695C82.7076 19.2695 83.0145 19.4445 83.2041 19.7738C83.6908 20.6201 83.3302 22.2873 82.7164 23.3487C82.65 23.464 82.5806 23.5705 82.5102 23.6673C83.0634 24.7217 83.8452 25.5534 84.6817 25.5544C85.4391 25.5544 86.1066 24.8654 86.5894 23.9448C85.9874 23.2724 85.6463 22.1965 85.6473 21.1703C85.6482 20.0005 86.0949 19.2734 86.8112 19.2734C87.3956 19.2744 87.7308 19.8471 87.7298 20.8459C87.7289 21.6922 87.466 22.8757 86.9881 23.8842C87.2607 24.1305 87.5911 24.2829 87.982 24.2829C88.9045 24.2829 89.7313 22.045 89.9717 21.183L90.2971 21.2739C90.2014 21.6169 89.3247 24.6211 87.982 24.6211C87.5471 24.6211 87.1611 24.4579 86.8356 24.1852C86.3147 25.1517 85.5818 25.8925 84.6837 25.8925ZM86.8122 19.6116C86.2033 19.6116 85.9864 20.4511 85.9864 21.1703C85.9854 21.9521 86.2317 22.9685 86.7467 23.6233C87.1523 22.731 87.3917 21.6853 87.3927 20.8459C87.3927 20.4745 87.337 19.6116 86.8122 19.6116ZM82.3197 19.6067C81.8056 19.6067 81.6971 20.2077 81.6971 20.712C81.6962 21.4743 81.9395 22.4447 82.3392 23.3174C82.3675 23.2724 82.3959 23.2265 82.4233 23.1786C82.9813 22.215 83.3184 20.6485 82.9109 19.9419C82.7819 19.7171 82.5884 19.6077 82.3197 19.6067C82.3206 19.6067 82.3206 19.6067 82.3197 19.6067Z" fill="#4A5A9F"></path><path d="M91.0454 35.709L78.3008 35.6963L78.2983 38.1874L91.0429 38.2001L91.0454 35.709Z" fill="#7F92E2"></path><path d="M91.0454 38.6026L78.3008 38.5898L78.2983 41.0809L91.0429 41.0936L91.0454 38.6026Z" fill="#7F92E2"></path><path d="M91.0415 41.4961L78.2969 41.4834L78.2944 43.9735L91.039 43.9862L91.0415 41.4961Z" fill="#7F92E2"></path><path d="M127.685 138.543C98.1275 138.543 74.095 162.586 74.095 192.134C74.095 221.681 98.1275 245.713 127.685 245.713C157.211 245.713 181.244 221.681 181.244 192.134C181.244 162.586 157.211 138.543 127.685 138.543ZM127.685 234.31C104.357 234.31 85.4872 215.43 85.4872 192.134C85.4872 168.826 104.357 149.946 127.685 149.946C150.971 149.946 169.841 168.826 169.841 192.134C169.841 215.43 150.971 234.31 127.685 234.31ZM127.685 138.543C98.1275 138.543 74.095 162.586 74.095 192.134C74.095 221.681 98.1275 245.713 127.685 245.713C157.211 245.713 181.244 221.681 181.244 192.134C181.244 162.586 157.211 138.543 127.685 138.543ZM127.685 234.31C104.357 234.31 85.4872 215.43 85.4872 192.134C85.4872 168.826 104.357 149.946 127.685 149.946C150.971 149.946 169.841 168.826 169.841 192.134C169.841 215.43 150.971 234.31 127.685 234.31ZM127.685 101.796C77.7857 101.796 37.3477 142.245 37.3477 192.134C37.3477 242.012 77.7857 282.45 127.685 282.45C177.542 282.45 217.991 242.012 217.991 192.134C217.991 142.245 177.542 101.796 127.685 101.796ZM127.685 250.855C95.3007 250.855 68.9429 224.518 68.9429 192.134C68.9429 159.76 95.3007 133.402 127.685 133.402C160.049 133.402 186.385 159.76 186.385 192.134C186.385 224.518 160.049 250.855 127.685 250.855ZM127.685 138.543C98.1275 138.543 74.095 162.586 74.095 192.134C74.095 221.681 98.1275 245.713 127.685 245.713C157.211 245.713 181.244 221.681 181.244 192.134C181.244 162.586 157.211 138.543 127.685 138.543ZM127.685 234.31C104.357 234.31 85.4872 215.43 85.4872 192.134C85.4872 168.826 104.357 149.946 127.685 149.946C150.971 149.946 169.841 168.826 169.841 192.134C169.841 215.43 150.971 234.31 127.685 234.31Z" fill="#2A345F"></path><path d="M138.271 103.436H117.59L119.65 82.7939H136.212L138.271 103.436Z" fill="#2A345F"></path><path d="M92.5043 110.015L74.5935 120.356L66.0547 101.449L80.3995 93.167L92.5043 110.015Z" fill="#2A345F"></path><path d="M56.1575 138.596L45.8171 156.506L28.9688 144.401L37.2505 130.058L56.1575 138.596Z" fill="#2A345F"></path><path d="M38.9717 181.521V202.202L18.3281 200.144V183.58L38.9717 181.521Z" fill="#2A345F"></path><path d="M45.5504 227.288L55.8908 245.199L36.9838 253.737L28.7031 239.393L45.5504 227.288Z" fill="#2A345F"></path><path d="M74.1315 263.635L92.0422 273.975L79.9375 290.822L65.5938 282.542L74.1315 263.635Z" fill="#2A345F"></path><path d="M117.059 280.819H137.74L135.68 301.463H119.117L117.059 280.819Z" fill="#2A345F"></path><path d="M162.82 274.242L180.731 263.901L189.27 282.808L174.925 291.09L162.82 274.242Z" fill="#2A345F"></path><path d="M199.168 245.661L209.508 227.75L226.357 239.855L218.075 254.199L199.168 245.661Z" fill="#2A345F"></path><path d="M216.352 202.737V182.056L236.995 184.114V200.677L216.352 202.737Z" fill="#2A345F"></path><path d="M209.774 156.97L199.434 139.059L218.341 130.521L226.621 144.865L209.774 156.97Z" fill="#2A345F"></path><path d="M181.196 120.623L163.285 110.283L175.39 93.4355L189.734 101.716L181.196 120.623Z" fill="#2A345F"></path><path d="M197.996 150.069L191.631 154.891L179.841 139.324L175.527 133.63C176.39 133.295 177.223 132.824 178 132.23C179.495 131.09 180.588 129.613 181.268 127.993L185.85 134.032L197.996 150.069Z" fill="#B3F1F8"></path><path d="M127.687 143.035C100.607 143.035 78.5889 165.063 78.5889 192.133C78.5889 219.204 100.607 241.222 127.687 241.222C154.738 241.222 176.756 219.204 176.756 192.133C176.756 165.063 154.738 143.035 127.687 143.035ZM127.687 230.775C106.314 230.775 89.0261 213.477 89.0261 192.133C89.0261 170.78 106.314 153.482 127.687 153.482C149.021 153.482 166.309 170.78 166.309 192.133C166.309 213.477 149.021 230.775 127.687 230.775ZM127.687 143.035C100.607 143.035 78.5889 165.063 78.5889 192.133C78.5889 219.204 100.607 241.222 127.687 241.222C154.738 241.222 176.756 219.204 176.756 192.133C176.756 165.063 154.738 143.035 127.687 143.035ZM127.687 230.775C106.314 230.775 89.0261 213.477 89.0261 192.133C89.0261 170.78 106.314 153.482 127.687 153.482C149.021 153.482 166.309 170.78 166.309 192.133C166.309 213.477 149.021 230.775 127.687 230.775ZM127.687 109.368C81.9702 109.368 44.9219 146.426 44.9219 192.133C44.9219 237.83 81.9702 274.879 127.687 274.879C173.365 274.879 210.423 237.83 210.423 192.133C210.423 146.426 173.365 109.368 127.687 109.368ZM127.687 245.932C98.017 245.932 73.8686 221.803 73.8686 192.133C73.8686 162.473 98.017 138.325 127.687 138.325C157.337 138.325 181.466 162.473 181.466 192.133C181.466 221.803 157.337 245.932 127.687 245.932ZM127.687 143.035C100.607 143.035 78.5889 165.063 78.5889 192.133C78.5889 219.204 100.607 241.222 127.687 241.222C154.738 241.222 176.756 219.204 176.756 192.133C176.756 165.063 154.738 143.035 127.687 143.035ZM127.687 230.775C106.314 230.775 89.0261 213.477 89.0261 192.133C89.0261 170.78 106.314 153.482 127.687 153.482C149.021 153.482 166.309 170.78 166.309 192.133C166.309 213.477 149.021 230.775 127.687 230.775Z" fill="#505A84"></path><path d="M137.385 110.871H118.438L120.325 91.959H135.499L137.385 110.871Z" fill="#505A84"></path><path d="M95.4512 116.899L79.0418 126.373L71.2188 109.05L84.3611 101.463L95.4512 116.899Z" fill="#505A84"></path><path d="M62.1518 143.084L52.6782 159.492L37.2422 148.402L44.8297 135.261L62.1518 143.084Z" fill="#505A84"></path><path d="M46.4092 182.41V201.357L27.4961 199.471V184.296L46.4092 182.41Z" fill="#505A84"></path><path d="M52.435 224.341L61.9087 240.75L44.5866 248.572L37 235.431L52.435 224.341Z" fill="#505A84"></path><path d="M78.6229 257.641L95.0322 267.114L83.9421 282.549L70.8008 274.963L78.6229 257.641Z" fill="#505A84"></path><path d="M117.949 273.385H136.897L135.009 292.298H119.835L117.949 273.385Z" fill="#505A84"></path><path d="M159.875 267.358L176.284 257.885L184.107 275.207L170.965 282.794L159.875 267.358Z" fill="#505A84"></path><path d="M193.18 241.174L202.653 224.765L218.089 235.855L210.502 248.996L193.18 241.174Z" fill="#505A84"></path><path d="M208.922 201.848V182.9L227.835 184.787V199.961L208.922 201.848Z" fill="#505A84"></path><path d="M202.896 159.917L193.422 143.508L210.744 135.686L218.331 148.827L202.896 159.917Z" fill="#505A84"></path><path d="M176.71 126.617L160.301 117.143L171.391 101.708L184.532 109.295L176.71 126.617Z" fill="#505A84"></path><path d="M134.891 204.164C134.891 205.172 134.11 205.953 133.102 205.953H121.583C121.583 205.953 121.583 205.953 121.551 205.953H121.518C121.031 205.953 120.51 205.758 120.184 205.368C119.501 204.619 119.567 203.513 120.282 202.83L129.913 194.109C130.857 193.263 131.279 192.157 131.279 190.986C131.279 189.944 130.922 188.969 130.205 188.155C129.359 187.212 128.22 186.789 127.082 186.789C126.073 186.789 125.065 187.146 124.252 187.863L123.243 188.774C122.495 189.457 121.388 189.392 120.705 188.644C120.054 187.895 120.088 186.79 120.835 186.106L121.844 185.194C123.308 183.828 125.227 183.177 127.082 183.177C129.197 183.177 131.345 184.055 132.873 185.747C134.239 187.211 134.89 189.13 134.89 190.985C134.89 193.1 134.012 195.247 132.32 196.776L126.171 202.34H133.102C134.11 202.342 134.891 203.155 134.891 204.164Z" fill="#7580B0"></path><path d="M192.105 153.595L186.273 158.012L175.472 143.75L171.52 138.533C172.31 138.226 173.073 137.795 173.785 137.251C175.155 136.206 176.156 134.854 176.779 133.369L180.977 138.901L192.105 153.595Z" fill="#5F71BD"></path><path d="M180.626 120.012C175.277 113.039 165.284 111.722 158.311 117.07C151.338 122.419 150.021 132.412 155.369 139.385C160.172 145.655 168.726 147.35 175.471 143.75C176.235 143.337 176.973 142.871 177.675 142.327C178.975 141.326 180.081 140.166 180.978 138.902C184.912 133.36 184.973 125.695 180.626 120.012ZM173.785 137.251C173.073 137.795 172.309 138.225 171.52 138.533C167.655 140.078 163.097 138.954 160.445 135.495C157.248 131.324 158.03 125.343 162.201 122.146C166.372 118.95 172.344 119.74 175.55 123.911C177.693 126.713 178.044 130.331 176.779 133.369C176.156 134.854 175.155 136.206 173.785 137.251Z" fill="#5F71BD"></path><path d="M399.711 95.3275C398.754 85.027 389.646 77.463 379.355 78.4207C369.054 79.3784 361.481 88.4866 362.438 98.7968C363.396 109.087 372.514 116.661 382.814 115.704C393.105 114.746 400.669 105.618 399.711 95.3275ZM382.609 113.427C373.56 114.267 365.556 107.622 364.715 98.5818C363.875 89.5323 370.52 81.5284 379.56 80.688C388.6 79.8475 396.604 86.493 397.444 95.5425C398.285 104.582 391.639 112.586 382.609 113.427ZM399.711 95.3275C398.754 85.027 389.646 77.463 379.355 78.4207C369.054 79.3784 361.481 88.4866 362.438 98.7968C363.396 109.087 372.514 116.661 382.814 115.704C393.105 114.746 400.669 105.618 399.711 95.3275ZM382.609 113.427C373.56 114.267 365.556 107.622 364.715 98.5818C363.875 89.5323 370.52 81.5284 379.56 80.688C388.6 79.8475 396.604 86.493 397.444 95.5425C398.285 104.582 391.639 112.586 382.609 113.427ZM399.711 95.3275C398.754 85.027 389.646 77.463 379.355 78.4207C369.054 79.3784 361.481 88.4866 362.438 98.7968C363.396 109.087 372.514 116.661 382.814 115.704C393.105 114.746 400.669 105.618 399.711 95.3275ZM382.609 113.427C373.56 114.267 365.556 107.622 364.715 98.5818C363.875 89.5323 370.52 81.5284 379.56 80.688C388.6 79.8475 396.604 86.493 397.444 95.5425C398.285 104.582 391.639 112.586 382.609 113.427ZM420.361 93.412C418.348 71.7166 399.115 55.7578 377.43 57.771C355.725 59.7841 339.775 79.0168 341.789 100.712C343.812 122.398 363.025 138.366 384.74 136.353C406.425 134.34 422.384 115.098 420.361 93.412ZM383.088 118.596C371.214 119.701 360.65 110.944 359.546 99.0607C358.441 87.177 367.207 76.6225 379.081 75.5182C390.955 74.4139 401.51 83.18 402.614 95.0636C403.718 106.937 394.952 117.492 383.088 118.596ZM379.355 78.4207C369.054 79.3784 361.481 88.4866 362.438 98.7968C363.396 109.087 372.514 116.661 382.814 115.704C393.105 114.746 400.669 105.618 399.711 95.3275C398.754 85.027 389.646 77.463 379.355 78.4207ZM382.609 113.427C373.56 114.267 365.556 107.622 364.715 98.5818C363.875 89.5323 370.52 81.5284 379.56 80.688C388.6 79.8475 396.604 86.493 397.444 95.5425C398.285 104.582 391.639 112.586 382.609 113.427ZM399.711 95.3275C398.754 85.027 389.646 77.463 379.355 78.4207C369.054 79.3784 361.481 88.4866 362.438 98.7968C363.396 109.087 372.514 116.661 382.814 115.704C393.105 114.746 400.669 105.618 399.711 95.3275ZM382.609 113.427C373.56 114.267 365.556 107.622 364.715 98.5818C363.875 89.5323 370.52 81.5284 379.56 80.688C388.6 79.8475 396.604 86.493 397.444 95.5425C398.285 104.582 391.639 112.586 382.609 113.427ZM399.711 95.3275C398.754 85.027 389.646 77.463 379.355 78.4207C369.054 79.3784 361.481 88.4866 362.438 98.7968C363.396 109.087 372.514 116.661 382.814 115.704C393.105 114.746 400.669 105.618 399.711 95.3275ZM382.609 113.427C373.56 114.267 365.556 107.622 364.715 98.5818C363.875 89.5323 370.52 81.5284 379.56 80.688C388.6 79.8475 396.604 86.493 397.444 95.5425C398.285 104.582 391.639 112.586 382.609 113.427Z" fill="#68B5EC"></path><path d="M385.132 58.7011L370.025 60.1054L369.867 49.3339L383.304 48.085L385.132 58.7011Z" fill="#68B5EC"></path><path d="M356.855 66.4625L347.166 78.138L339.438 70.6335L348.056 60.249L356.855 66.4625Z" fill="#68B5EC"></path><path d="M342.343 91.9482L343.746 107.056L332.975 107.214L331.727 93.7777L342.343 91.9482Z" fill="#68B5EC"></path><path d="M350.104 120.229L361.779 129.919L354.274 137.647L343.891 129.03L350.104 120.229Z" fill="#68B5EC"></path><path d="M375.594 134.739L390.7 133.336L390.859 144.107L377.422 145.355L375.594 134.739Z" fill="#68B5EC"></path><path d="M403.871 126.978L413.561 115.303L421.289 122.807L412.67 133.192L403.871 126.978Z" fill="#68B5EC"></path><path d="M418.381 101.492L416.977 86.3849L427.748 86.2256L428.997 99.6631L418.381 101.492Z" fill="#68B5EC"></path><path d="M410.62 73.2109L398.945 63.5212L406.45 55.793L416.833 64.4105L410.62 73.2109Z" fill="#68B5EC"></path><path d="M398.142 95.4404C397.262 85.9751 388.892 79.0243 379.436 79.9044C369.971 80.7845 363.011 89.1542 363.891 98.6285C364.771 108.085 373.15 115.045 382.615 114.164C392.071 113.284 399.022 104.897 398.142 95.4404ZM382.426 112.072C374.11 112.844 366.756 106.738 365.983 98.4309C365.211 90.1151 371.318 82.7602 379.624 81.9879C387.931 81.2156 395.286 87.3222 396.058 95.638C396.831 103.945 390.724 111.3 382.426 112.072ZM398.142 95.4404C397.262 85.9751 388.892 79.0243 379.436 79.9044C369.971 80.7845 363.011 89.1542 363.891 98.6285C364.771 108.085 373.15 115.045 382.615 114.164C392.071 113.284 399.022 104.897 398.142 95.4404ZM382.426 112.072C374.11 112.844 366.756 106.738 365.983 98.4309C365.211 90.1151 371.318 82.7602 379.624 81.9879C387.931 81.2156 395.286 87.3222 396.058 95.638C396.831 103.945 390.724 111.3 382.426 112.072ZM398.142 95.4404C397.262 85.9751 388.892 79.0243 379.436 79.9044C369.971 80.7845 363.011 89.1542 363.891 98.6285C364.771 108.085 373.15 115.045 382.615 114.164C392.071 113.284 399.022 104.897 398.142 95.4404ZM382.426 112.072C374.11 112.844 366.756 106.738 365.983 98.4309C365.211 90.1151 371.318 82.7602 379.624 81.9879C387.931 81.2156 395.286 87.3222 396.058 95.638C396.831 103.945 390.724 111.3 382.426 112.072ZM417.117 93.6803C415.267 73.7439 397.594 59.079 377.667 60.9289C357.721 62.7789 343.065 80.4522 344.915 100.389C346.774 120.316 364.43 134.99 384.384 133.14C404.311 131.29 418.976 113.608 417.117 93.6803ZM382.866 116.823C371.955 117.837 362.247 109.791 361.233 98.8709C360.218 87.9508 368.273 78.252 379.184 77.2373C390.095 76.2225 399.794 84.2779 400.809 95.198C401.824 106.109 393.768 115.808 382.866 116.823ZM379.436 79.9044C369.971 80.7845 363.011 89.1542 363.891 98.6285C364.771 108.085 373.15 115.045 382.615 114.164C392.071 113.284 399.022 104.897 398.142 95.4404C397.262 85.9751 388.892 79.0243 379.436 79.9044ZM382.426 112.072C374.11 112.844 366.756 106.738 365.983 98.4309C365.211 90.1151 371.318 82.7602 379.624 81.9879C387.931 81.2156 395.286 87.3222 396.058 95.638C396.831 103.945 390.724 111.3 382.426 112.072ZM398.142 95.4404C397.262 85.9751 388.892 79.0243 379.436 79.9044C369.971 80.7845 363.011 89.1542 363.891 98.6285C364.771 108.085 373.15 115.045 382.615 114.164C392.071 113.284 399.022 104.897 398.142 95.4404ZM382.426 112.072C374.11 112.844 366.756 106.738 365.983 98.4309C365.211 90.1151 371.318 82.7602 379.624 81.9879C387.931 81.2156 395.286 87.3222 396.058 95.638C396.831 103.945 390.724 111.3 382.426 112.072ZM398.142 95.4404C397.262 85.9751 388.892 79.0243 379.436 79.9044C369.971 80.7845 363.011 89.1542 363.891 98.6285C364.771 108.085 373.15 115.045 382.615 114.164C392.071 113.284 399.022 104.897 398.142 95.4404ZM382.426 112.072C374.11 112.844 366.756 106.738 365.983 98.4309C365.211 90.1151 371.318 82.7602 379.624 81.9879C387.931 81.2156 395.286 87.3222 396.058 95.638C396.831 103.945 390.724 111.3 382.426 112.072Z" fill="#4492CA"></path><path d="M384.742 61.7837L370.86 63.0741L370.715 53.176L383.062 52.0283L384.742 61.7837Z" fill="#4492CA"></path><path d="M358.756 68.9158L349.852 79.6446L342.75 72.7486L350.67 63.2061L358.756 68.9158Z" fill="#4492CA"></path><path d="M345.423 92.3359L346.713 106.219L336.815 106.364L335.668 94.0171L345.423 92.3359Z" fill="#4492CA"></path><path d="M352.553 118.323L363.281 127.227L356.385 134.329L346.844 126.41L352.553 118.323Z" fill="#4492CA"></path><path d="M375.977 131.657L389.858 130.367L390.004 140.265L377.657 141.412L375.977 131.657Z" fill="#4492CA"></path><path d="M401.965 124.525L410.869 113.796L417.971 120.692L410.051 130.234L401.965 124.525Z" fill="#4492CA"></path><path d="M415.294 101.105L414.004 87.2235L423.902 87.0771L425.05 99.4251L415.294 101.105Z" fill="#4492CA"></path><path d="M408.165 75.117L397.438 66.213L404.333 59.1113L413.875 67.0302L408.165 75.117Z" fill="#4492CA"></path><path d="M389.088 101.439C389.088 102.447 388.275 103.228 387.266 103.228H386.941V105.702C386.941 106.71 386.16 107.491 385.151 107.491C384.143 107.491 383.362 106.71 383.362 105.702V103.228H373.177H373.145H373.112C372.722 103.228 372.331 103.131 372.006 102.838C371.193 102.221 371.094 101.113 371.713 100.334L383.752 85.3657C383.784 85.3657 383.784 85.3335 383.816 85.3012C383.849 85.269 383.881 85.2367 383.914 85.1712C384.013 85.139 384.045 85.1067 384.077 85.0735C384.11 85.0403 384.175 85.008 384.207 84.9758C384.272 84.9435 384.305 84.9113 384.403 84.9113C384.435 84.8468 384.467 84.8135 384.533 84.8135C384.565 84.7813 384.63 84.7813 384.728 84.7491C384.76 84.7491 384.826 84.749 384.858 84.7168C384.923 84.7168 385.021 84.7168 385.086 84.7168C385.086 84.7168 385.118 84.7168 385.15 84.7168C385.183 84.7168 385.183 84.7168 385.215 84.7168C385.279 84.7168 385.378 84.7168 385.41 84.7168C385.475 84.749 385.508 84.7491 385.573 84.7491C385.605 84.7813 385.703 84.7813 385.768 84.8135C385.8 84.8135 385.866 84.8468 385.898 84.8468C385.963 84.9113 386.028 84.9445 386.061 84.9767C386.126 85.009 386.159 85.0422 386.223 85.0745C386.223 85.0745 386.256 85.0745 386.256 85.1067C386.288 85.1067 386.353 85.139 386.353 85.1712C386.419 85.2367 386.452 85.269 386.484 85.3012C386.517 85.3335 386.549 85.3989 386.582 85.4312C386.614 85.4634 386.647 85.4957 386.712 85.5934C386.712 85.6257 386.744 85.6911 386.777 85.7234C386.81 85.7879 386.81 85.8211 386.842 85.9188C386.842 85.9511 386.874 86.0166 386.874 86.0488C386.906 86.1143 386.906 86.1465 386.906 86.2443C386.906 86.3088 386.939 86.342 386.939 86.4065C386.939 86.4397 386.939 86.472 386.939 86.5042V99.6495H387.264C388.275 99.6485 389.088 100.463 389.088 101.439ZM383.362 91.6114L376.887 99.6485H383.362V91.6114Z" fill="#B3F1F8"></path><path d="M418.673 58.642C418.673 58.642 421.388 54.1681 417.438 52.2067C413.488 50.2453 411.707 55.1825 411.707 55.1825L418.673 58.642Z" fill="#DD6A57"></path><path d="M395.941 88.195L402.907 91.6545L418.763 58.4556L411.797 54.9961L395.941 88.195Z" fill="#EFE691" fill-opacity="0.9998"></path><path d="M410.668 55.8467L418.802 59.8867L419.432 58.5664L411.298 54.5273L410.668 55.8467Z" fill="#B3F1F8"></path><path d="M409.969 57.3066L418.104 61.3457L418.734 60.0264L410.599 55.9863L409.969 57.3066Z" fill="#B3F1F8"></path><path d="M395.938 88.1918L396.601 93.5912L396.813 95.3708L398.333 94.4512L402.911 91.6552L402.602 90.4776C402.602 90.4776 401.538 90.9574 401.517 90.9623L401.207 89.7847C401.207 89.7847 400.144 90.2645 400.122 90.2694L399.827 89.0996C399.827 89.0996 398.748 89.5717 398.727 89.5765L398.432 88.4068C398.432 88.4068 397.354 88.8788 397.332 88.8837L397.038 87.7139C397.038 87.7139 395.959 88.1869 395.938 88.1918Z" fill="white"></path><path d="M396.602 93.5918L396.814 95.3714L398.333 94.4508L396.602 93.5918Z" fill="#37474F"></path><path d="M398.832 87.1068C399.768 84.7467 400.788 82.4257 401.82 80.1105C402.85 77.7944 403.947 75.5115 405.007 73.21C406.128 70.9379 407.218 68.6501 408.369 66.3926C409.521 64.1351 410.686 61.8834 411.934 59.6719C410.999 62.033 409.98 64.354 408.949 66.6691C407.917 68.9843 406.822 71.2692 405.76 73.5687C404.637 75.8398 403.55 78.1286 402.396 80.3851C401.244 82.6436 400.079 84.8952 398.832 87.1068Z" fill="#B3F1F8"></path><path d="M401.984 88.6185C402.921 86.2584 403.94 83.9374 404.972 81.6222C406.002 79.3061 407.099 77.0232 408.16 74.7217C409.281 72.4496 410.37 70.1618 411.522 67.9043C412.674 65.6468 413.839 63.3952 415.087 61.1846C414.151 63.5457 413.132 65.8667 412.101 68.1818C411.069 70.497 409.975 72.7809 408.912 75.0814C407.788 77.3525 406.703 79.6413 405.548 81.8978C404.396 84.1553 403.231 86.407 401.984 88.6185Z" fill="#B3F1F8"></path><path d="M278.828 68.1836C249.811 68.1836 226.289 91.7055 226.289 120.723C226.289 149.729 249.811 173.251 278.828 173.251C307.834 173.251 331.355 149.729 331.355 120.723C331.356 91.7055 307.835 68.1836 278.828 68.1836ZM278.828 145.25C265.268 145.25 254.29 134.272 254.29 120.723C254.29 107.163 265.268 96.1844 278.828 96.1844C292.376 96.1844 303.356 107.163 303.356 120.723C303.356 134.271 292.376 145.25 278.828 145.25Z" fill="#475FC8"></path><path d="M288.92 70.3668H268.719L269.836 56.0674H287.803L288.92 70.3668Z" fill="#475FC8"></path><path d="M250.473 77.1728L236.188 91.4575L226.867 80.5561L239.572 67.8516L250.473 77.1728Z" fill="#475FC8"></path><path d="M228.096 109.173V129.374L213.797 128.257V110.29L228.096 109.173Z" fill="#475FC8"></path><path d="M234.903 147.623L249.188 161.908L238.287 171.229L225.582 158.525L234.903 147.623Z" fill="#475FC8"></path><path d="M266.906 169.999H287.107L285.99 184.298H268.023L266.906 169.999Z" fill="#475FC8"></path><path d="M305.352 163.193L319.636 148.908L328.958 159.81L316.253 172.514L305.352 163.193Z" fill="#475FC8"></path><path d="M327.727 131.192V110.991L342.026 112.108V130.075L327.727 131.192Z" fill="#475FC8"></path><path d="M320.921 92.7417L306.637 78.4579L317.538 69.1367L330.243 81.8412L320.921 92.7417Z" fill="#475FC8"></path><path d="M278.758 72.1465C251.952 72.1465 230.223 93.8759 230.223 120.682C230.223 147.478 251.952 169.207 278.758 169.207C305.553 169.207 327.282 147.478 327.282 120.682C327.283 93.8759 305.554 72.1465 278.758 72.1465ZM278.758 143.34C266.232 143.34 256.09 133.198 256.09 120.682C256.09 108.155 266.232 98.0134 278.758 98.0134C291.273 98.0134 301.416 108.155 301.416 120.682C301.416 133.197 291.273 143.34 278.758 143.34Z" fill="#354AA4"></path><path d="M280.815 128.651C279.588 128.651 278.497 128.441 277.543 128.02C276.594 127.6 275.844 127.014 275.293 126.264C274.741 125.514 274.449 124.648 274.415 123.665H277.619C277.648 124.137 277.804 124.548 278.088 124.901C278.372 125.247 278.75 125.517 279.222 125.71C279.693 125.904 280.222 126 280.807 126C281.432 126 281.986 125.892 282.469 125.676C282.952 125.455 283.33 125.148 283.602 124.756C283.875 124.364 284.009 123.912 284.003 123.401C284.009 122.872 283.872 122.406 283.594 122.003C283.315 121.6 282.912 121.284 282.384 121.057C281.861 120.83 281.23 120.716 280.491 120.716H278.949V118.279H280.491C281.099 118.279 281.631 118.173 282.085 117.963C282.545 117.753 282.906 117.458 283.168 117.077C283.429 116.691 283.557 116.244 283.551 115.739C283.557 115.244 283.446 114.816 283.219 114.452C282.997 114.083 282.682 113.796 282.273 113.591C281.869 113.387 281.395 113.284 280.849 113.284C280.315 113.284 279.821 113.381 279.366 113.574C278.912 113.767 278.545 114.043 278.267 114.401C277.989 114.753 277.841 115.173 277.824 115.662H274.781C274.804 114.685 275.085 113.827 275.625 113.088C276.17 112.344 276.898 111.764 277.807 111.35C278.716 110.929 279.736 110.719 280.866 110.719C282.031 110.719 283.043 110.938 283.901 111.375C284.764 111.807 285.432 112.389 285.903 113.122C286.375 113.855 286.611 114.665 286.611 115.551C286.616 116.534 286.327 117.358 285.741 118.023C285.162 118.688 284.401 119.122 283.457 119.327V119.463C284.685 119.634 285.625 120.088 286.278 120.827C286.938 121.56 287.264 122.472 287.259 123.563C287.259 124.54 286.98 125.415 286.423 126.188C285.872 126.955 285.111 127.557 284.139 127.994C283.173 128.432 282.065 128.651 280.815 128.651Z" fill="#354AA4"></path><path d="M288.084 74.1628H269.422L270.454 60.9531H287.052L288.084 74.1628Z" fill="#354AA4"></path><path d="M252.565 80.4497L239.369 93.6459L230.758 83.5752L242.494 71.8389L252.565 80.4497Z" fill="#354AA4"></path><path d="M231.893 110.012V128.673L218.684 127.642V111.044L231.893 110.012Z" fill="#354AA4"></path><path d="M238.181 145.532L251.377 158.728L241.307 167.339L229.57 155.603L238.181 145.532Z" fill="#354AA4"></path><path d="M267.742 166.202H286.404L285.372 179.412H268.774L267.742 166.202Z" fill="#354AA4"></path><path d="M303.262 159.915L316.458 146.719L325.069 156.789L313.332 168.526L303.262 159.915Z" fill="#354AA4"></path><path d="M323.93 130.353V111.691L337.139 112.723V129.321L323.93 130.353Z" fill="#354AA4"></path><path d="M317.645 94.8325L304.449 81.6372L314.52 73.0264L326.256 84.7627L317.645 94.8325Z" fill="#354AA4"></path><path d="M314.078 81.9053C317.452 81.9053 320.187 79.1703 320.187 75.7964C320.187 72.4226 317.452 69.6875 314.078 69.6875C310.704 69.6875 307.969 72.4226 307.969 75.7964C307.969 79.1703 310.704 81.9053 314.078 81.9053Z" fill="#DFAA8B"></path><path d="M320.548 80.9707H307.602V82.8373H320.548V80.9707Z" fill="#DFAA8B"></path><path opacity="0.1" d="M320.548 80.9707H307.602V82.8373H320.548V80.9707Z" fill="black"></path><path d="M327.188 106.672H300.961V108.538H327.188V106.672Z" fill="#DFAA8B"></path><path opacity="0.1" d="M327.188 106.672H300.961V108.538H327.188V106.672Z" fill="black"></path><path d="M327.188 111.906H300.961V113.773H327.188V111.906Z" fill="#DFAA8B"></path><path opacity="0.1" d="M327.188 111.906H300.961V113.773H327.188V111.906Z" fill="black"></path><path d="M326.212 108.538H301.938V111.906H326.212V108.538Z" fill="#DFAA8B"></path><path d="M319.352 82.8379H308.789V84.7045H319.352V82.8379Z" fill="#DFAA8B"></path><path d="M324.802 106.672H303.344C303.344 106.672 308.237 101.779 309.261 95.9183C310.113 90.9762 310.532 84.7061 310.532 84.7061H317.613C317.613 84.7061 318.031 90.9762 318.891 95.9183C319.908 101.779 324.802 106.672 324.802 106.672Z" fill="#DFAA8B"></path><path d="M22.2866 17.3246L21.7148 16.5311C22.7361 15.7952 23.3469 15.4356 23.3733 15.4199L23.8678 16.2623C23.8619 16.2672 23.2658 16.619 22.2866 17.3246Z" fill="#B3F1F8"></path><path d="M278.373 186.187C277.049 186.174 275.727 186.13 274.443 186.056L274.501 185.08C275.767 185.154 277.074 185.198 278.382 185.209L278.373 186.187ZM282.301 186.114L282.253 185.138C283.558 185.075 284.851 184.966 286.098 184.818L286.214 185.788C284.945 185.938 283.628 186.049 282.301 186.114ZM270.53 185.723C269.221 185.577 267.913 185.391 266.641 185.173L266.807 184.211C268.059 184.426 269.349 184.607 270.639 184.752L270.53 185.723ZM290.091 185.173L289.901 184.215C291.177 183.96 292.433 183.653 293.634 183.299L293.908 184.237C292.681 184.597 291.396 184.912 290.091 185.173ZM262.792 184.387C261.51 184.082 260.235 183.734 259.001 183.351L259.292 182.417C260.503 182.794 261.757 183.136 263.019 183.437L262.792 184.387ZM297.626 182.953L297.261 182.046C298.454 181.567 299.625 181.027 300.744 180.438L301.199 181.303C300.052 181.907 298.848 182.462 297.626 182.953ZM255.291 182.054C254.074 181.58 252.859 181.055 251.681 180.493L252.101 179.612C253.258 180.163 254.451 180.679 255.646 181.144L255.291 182.054ZM304.583 179.289L304.039 178.477C305.098 177.768 306.134 176.993 307.118 176.175L307.743 176.927C306.734 177.767 305.671 178.562 304.583 179.289ZM248.193 178.673C247.062 178.029 245.936 177.334 244.846 176.606L245.389 175.793C246.46 176.508 247.566 177.192 248.675 177.824L248.193 178.673ZM241.653 174.312C240.631 173.525 239.608 172.685 238.615 171.814L239.258 171.079C240.238 171.936 241.243 172.763 242.249 173.538L241.653 174.312ZM310.644 174.259L309.949 173.573C310.829 172.681 311.696 171.717 312.526 170.709L313.281 171.33C312.433 172.361 311.545 173.346 310.644 174.259ZM235.735 169.144C234.825 168.251 233.904 167.3 232.999 166.32L233.716 165.656C234.611 166.626 235.52 167.564 236.42 168.446L235.735 169.144ZM315.658 168.187L314.856 167.629C315.575 166.598 316.28 165.504 316.952 164.377L317.792 164.878C317.108 166.025 316.39 167.138 315.658 168.187ZM230.393 163.367C229.582 162.411 228.748 161.386 227.913 160.324L228.68 159.72C229.509 160.773 230.336 161.787 231.139 162.735L230.393 163.367ZM319.705 161.439L318.839 160.989C319.412 159.882 319.984 158.708 320.537 157.496L321.426 157.902C320.866 159.128 320.288 160.318 319.705 161.439ZM225.535 157.205C224.759 156.158 223.994 155.098 223.237 154.027L224.035 153.463C224.788 154.528 225.548 155.582 226.318 156.623L225.535 157.205ZM322.981 154.29L322.076 153.922C322.547 152.761 323.018 151.538 323.475 150.289L324.392 150.624C323.932 151.885 323.457 153.119 322.981 154.29ZM221.003 150.807C220.269 149.732 219.54 148.65 218.813 147.562L219.626 147.019C220.351 148.104 221.078 149.184 221.81 150.257L221.003 150.807ZM325.684 146.916L324.757 146.608C325.164 145.385 325.559 144.145 325.945 142.891L326.879 143.178C326.491 144.439 326.094 145.686 325.684 146.916ZM216.647 144.303L214.482 141.033L215.297 140.492L217.462 143.763L216.647 144.303ZM327.994 139.415L327.055 139.147C327.41 137.904 327.759 136.648 328.102 135.383L329.045 135.639C328.702 136.909 328.352 138.168 327.994 139.415ZM212.305 137.778C211.577 136.698 210.843 135.62 210.101 134.547L210.904 133.991C211.649 135.068 212.385 136.148 213.115 137.231L212.305 137.778ZM330.049 131.849L329.102 131.604C329.428 130.348 329.75 129.085 330.07 127.814L331.017 128.053C330.697 129.326 330.375 130.592 330.049 131.849ZM207.851 131.354C207.092 130.298 206.322 129.249 205.539 128.211L206.319 127.622C207.107 128.666 207.881 129.721 208.644 130.783L207.851 131.354ZM203.147 125.132C202.321 124.098 201.484 123.088 200.663 122.13L201.405 121.494C202.234 122.46 203.076 123.478 203.911 124.521L203.147 125.132ZM331.964 124.253L331.015 124.019L331.955 120.219L332.903 120.453L331.964 124.253ZM198.072 119.222C197.178 118.258 196.267 117.317 195.364 116.426L196.05 115.73C196.964 116.632 197.886 117.583 198.79 118.559L198.072 119.222ZM333.843 116.664L332.894 116.427C333.208 115.163 333.527 113.897 333.849 112.631L334.796 112.873C334.474 114.136 334.157 115.401 333.843 116.664ZM51.4367 114.303C50.1301 114.279 48.8049 114.208 47.4993 114.089L47.5872 113.116C48.8704 113.232 50.1711 113.302 51.4543 113.325L51.4367 114.303ZM55.381 114.229L55.3272 113.254C56.6143 113.183 57.9111 113.063 59.1835 112.898L59.3096 113.868C58.0137 114.036 56.6925 114.158 55.381 114.229ZM192.536 113.766C191.566 112.897 190.572 112.052 189.581 111.254L190.194 110.493C191.198 111.301 192.206 112.158 193.188 113.038L192.536 113.766ZM43.5863 113.595C42.2924 113.384 40.9916 113.124 39.7192 112.823L39.944 111.872C41.193 112.168 42.4712 112.423 43.7427 112.63L43.5863 113.595ZM63.2001 113.214L63.0017 112.256C64.2634 111.994 65.528 111.682 66.7603 111.327L67.031 112.266C65.7752 112.628 64.4862 112.947 63.2001 113.214ZM35.9167 111.777C34.6609 111.382 33.4109 110.941 32.1981 110.463L32.5568 109.553C33.7471 110.022 34.9755 110.457 36.2089 110.844L35.9167 111.777ZM70.7818 111.127L70.4935 110.194C71.7444 109.807 72.9865 109.417 74.2208 109.026L74.5169 109.958C73.2797 110.35 72.0346 110.74 70.7818 111.127ZM335.777 109.083L334.832 108.834C335.165 107.567 335.506 106.302 335.853 105.039L336.796 105.299C336.449 106.558 336.11 107.819 335.777 109.083ZM186.495 108.908C185.446 108.155 184.365 107.426 183.282 106.741L183.805 105.916C184.905 106.611 186.001 107.35 187.064 108.114L186.495 108.908ZM28.5842 108.885C27.3988 108.315 26.2241 107.697 25.0934 107.048L25.5801 106.201C26.6912 106.838 27.8434 107.445 29.0074 108.004L28.5842 108.885ZM78.2413 108.766L77.9413 107.836C79.1883 107.434 80.4265 107.032 81.6588 106.63L81.9608 107.559C80.7294 107.96 79.4893 108.364 78.2413 108.766ZM85.6793 106.347L85.3764 105.417L89.0949 104.208L89.3968 105.138L85.6793 106.347ZM21.7472 104.959C20.6585 104.221 19.5894 103.434 18.5681 102.621L19.177 101.857C20.1787 102.654 21.2283 103.425 22.2955 104.151L21.7472 104.959ZM179.952 104.766C178.827 104.145 177.669 103.548 176.509 102.994L176.931 102.112C178.108 102.675 179.283 103.28 180.425 103.911L179.952 104.766ZM93.1163 103.941L92.8192 103.01C94.0682 102.612 95.3123 102.221 96.5524 101.835L96.8417 102.769C95.6045 103.153 94.3624 103.545 93.1163 103.941ZM100.578 101.631L100.298 100.695C101.555 100.32 102.808 99.9542 104.059 99.6004L104.325 100.541C103.079 100.893 101.83 101.258 100.578 101.631ZM337.859 101.541L336.92 101.269C337.286 100.011 337.662 98.759 338.048 97.513L338.981 97.8023C338.597 99.0424 338.224 100.289 337.859 101.541ZM172.967 101.425C171.894 100.986 170.789 100.568 169.682 100.181L169.339 100.062L169.658 99.1382L169.914 99.2271C171.126 99.6513 172.248 100.075 173.336 100.52L172.967 101.425ZM15.5777 100.045C14.6161 99.1489 13.6818 98.2059 12.7983 97.2413L13.5196 96.5816C14.3845 97.5267 15.3011 98.4521 16.2432 99.3307L15.5777 100.045ZM108.088 99.5076L107.838 98.5626C109.106 98.2264 110.372 97.9039 111.639 97.5961L111.869 98.546C110.61 98.8518 109.35 99.1734 108.088 99.5076ZM165.639 98.8616C164.393 98.4834 163.133 98.1287 161.895 97.8081L162.14 96.8621C163.391 97.1866 164.663 97.5443 165.922 97.9264L165.639 98.8616ZM115.67 97.6694L115.462 96.7136C116.743 96.4341 118.024 96.1731 119.306 95.9308L119.488 96.8914C118.214 97.1309 116.942 97.3918 115.67 97.6694ZM158.11 96.91C156.848 96.6383 155.564 96.3901 154.293 96.1731L154.457 95.2105C155.742 95.4295 157.041 95.6796 158.316 95.9552L158.11 96.91ZM123.325 96.223L123.172 95.2584C124.483 95.0512 125.791 94.8675 127.059 94.7112L127.178 95.6806C125.921 95.836 124.625 96.0178 123.325 96.223ZM150.447 95.6034C149.162 95.4421 147.861 95.3073 146.58 95.2037L146.659 94.2294C147.954 94.3349 149.269 94.4707 150.568 94.6339L150.447 95.6034ZM131.048 95.275L130.964 94.3017C132.276 94.1883 133.593 94.1004 134.881 94.0407L134.927 95.017C133.652 95.0757 132.347 95.1627 131.048 95.275ZM142.699 94.975C141.568 94.933 140.444 94.9125 139.324 94.9125L138.812 94.9144L138.806 93.9372L139.324 93.9352C140.456 93.9352 141.593 93.9557 142.735 93.9987L142.699 94.975ZM10.2535 94.2215C9.44728 93.1827 8.67719 92.0999 7.9628 91.0034L8.78176 90.4698C9.48051 91.5438 10.2359 92.6042 11.0256 93.6225L10.2535 94.2215ZM340.174 94.0867L339.247 93.7779C339.662 92.5338 340.089 91.2975 340.531 90.0701L341.451 90.4014C341.012 91.621 340.586 92.8494 340.174 94.0867ZM5.94865 87.6074C5.32808 86.4532 4.74758 85.258 4.22474 84.056L5.1209 83.667C5.63299 84.8436 6.20078 86.0144 6.80962 87.1451L5.94865 87.6074ZM342.823 86.7542L341.912 86.3975C342.392 85.174 342.89 83.9641 343.405 82.7669L344.302 83.1539C343.791 84.3403 343.3 85.5414 342.823 86.7542ZM2.80281 80.3736C2.38356 79.1393 2.00829 77.8659 1.68872 76.5877L2.63668 76.3502C2.95038 77.6021 3.31783 78.85 3.72926 80.0589L2.80281 80.3736ZM345.906 79.6064L345.025 79.1872C345.6 77.9744 346.19 76.7919 346.781 75.6739L347.646 76.1293C347.061 77.2366 346.477 78.4064 345.906 79.6064ZM349.53 72.7333L348.686 72.2388C349.358 71.0944 350.056 69.9686 350.765 68.8887L351.582 69.4252C350.881 70.4914 350.19 71.6046 349.53 72.7333ZM0.883452 72.7265C0.76618 72.0277 0.663565 71.3221 0.574633 70.6107C0.499383 70.0087 0.431954 69.4116 0.372341 68.8193L1.34472 68.7216C1.40434 69.306 1.46981 69.8953 1.54409 70.4895C1.63106 71.1882 1.7327 71.8801 1.84802 72.5652L0.883452 72.7265ZM353.798 66.2432L353.012 65.6618C353.795 64.6034 354.61 63.5665 355.433 62.5804L356.184 63.2078C355.371 64.1793 354.569 65.2005 353.798 66.2432ZM0.0791565 64.8956C0.0273611 63.801 0 62.6958 0 61.609L0.0029302 60.9582L0.980201 60.967L0.977271 61.609C0.977271 62.6801 1.00366 63.7698 1.05545 64.8487L0.0791565 64.8956ZM358.757 60.319L358.049 59.6467C358.957 58.6909 359.899 57.7625 360.849 56.8888L361.511 57.6081C360.577 58.4661 359.65 59.3789 358.757 60.319ZM1.13363 57.0931L0.159293 57.0246C0.251157 55.7122 0.386021 54.3938 0.558998 53.1058L1.52747 53.2358C1.35743 54.5033 1.2255 55.8011 1.13363 57.0931ZM364.441 55.0897L363.83 54.3274C364.846 53.5143 365.906 52.7237 366.982 51.98L367.537 52.7833C366.482 53.5143 365.44 54.2902 364.441 55.0897ZM370.79 50.6949L370.29 49.8554C371.409 49.1908 372.571 48.5527 373.743 47.9614L374.183 48.8341C373.031 49.4156 371.889 50.042 370.79 50.6949ZM2.1715 49.4137L1.21377 49.2192C1.47568 47.9302 1.78352 46.6402 2.13045 45.3854L3.07254 45.6453C2.73049 46.8786 2.42754 48.1471 2.1715 49.4137ZM4.23256 41.9493L3.31197 41.6238C3.74783 40.3895 4.23549 39.1552 4.76029 37.9552L5.65547 38.3461C5.13947 39.5256 4.66158 40.7384 4.23256 41.9493ZM7.33442 34.8562L6.46953 34.4008C7.08033 33.2408 7.74194 32.0906 8.43483 30.9804L9.26453 31.4973C8.58337 32.588 7.93348 33.7187 7.33442 34.8562ZM11.4331 28.288L10.6435 27.7114C11.4165 26.653 12.2374 25.6103 13.0857 24.6115L13.8313 25.2438C12.9987 26.225 12.1915 27.2492 11.4331 28.288ZM16.4445 22.3833L15.7477 21.6983C16.681 20.7503 17.6485 19.8405 18.6239 18.9922L19.2649 19.73C18.3092 20.5617 17.3602 21.4549 16.4445 22.3833Z" fill="#E3FCFF"></path><path d="M378.122 47.0207L377.746 46.1187C378.348 45.8675 378.958 45.6242 379.578 45.3887L379.925 46.3024C379.316 46.5331 378.716 46.7735 378.122 47.0207Z" fill="#B3F1F8"></path><path d="M26.6592 23.2092C30.7273 21.534 32.667 16.878 30.9917 12.81C29.3165 8.74187 24.6606 6.80212 20.5925 8.47739C16.5244 10.1527 14.5846 14.8086 16.2599 18.8767C17.9352 22.9447 22.5911 24.8845 26.6592 23.2092Z" fill="#7F92E2"></path><path d="M163.153 105.088C167.553 105.088 171.119 101.521 171.119 97.122C171.119 92.7226 167.553 89.1562 163.153 89.1562C158.754 89.1562 155.188 92.7226 155.188 97.122C155.188 101.521 158.754 105.088 163.153 105.088Z" fill="#505A84"></path><path d="M379.751 53.8104C384.15 53.8104 387.717 50.244 387.717 45.8446C387.717 41.4453 384.15 37.8789 379.751 37.8789C375.352 37.8789 371.785 41.4453 371.785 45.8446C371.785 50.244 375.352 53.8104 379.751 53.8104Z" fill="#B3F1F8"></path><path d="M279.173 195.247C283.572 195.247 287.139 191.681 287.139 187.281C287.139 182.882 283.572 179.315 279.173 179.315C274.773 179.315 271.207 182.882 271.207 187.281C271.207 191.681 274.773 195.247 279.173 195.247Z" fill="#5A79FF"></path></svg>