<svg xmlns="http://www.w3.org/2000/svg" width="494" height="300" viewBox="0 0 494 300" fill="none"><rect width="494" height="300" rx="24" fill="white"></rect><path d="M208.898 273.516C198.379 273.517 187.953 271.653 179.531 267.856L115.163 238.839C104.773 234.155 98.5495 226.925 98.0898 219.003C97.6301 211.082 102.989 203.424 112.792 197.995L179.771 160.888C184.561 158.235 191.14 159.181 194.467 163.005C197.793 166.829 196.604 172.079 191.814 174.733L124.834 211.84C121.183 213.863 119.071 216.25 119.186 218.224C119.301 220.2 121.68 222.42 125.55 224.165L189.918 253.181C201.404 258.359 221.009 257.663 231.873 251.691L361.253 180.56C364.885 178.563 366.981 176.248 366.861 174.365C366.74 172.483 364.36 170.349 360.493 168.658L194.491 96.0441C182.524 90.8092 162.75 90.2158 152.173 94.7738L127.266 105.51C122.134 107.721 115.729 106.195 112.957 102.1C110.186 98.0053 112.099 92.8927 117.23 90.6809L142.137 79.9445C158.939 72.7035 186.394 73.2836 204.642 81.2642L370.644 153.878C381.139 158.469 387.448 165.623 387.951 173.507C388.455 181.39 383.089 189.019 373.233 194.437L243.852 265.568C234.286 270.827 221.526 273.516 208.898 273.516Z" fill="#6D6E71"></path><path d="M122.242 98.0964C122.242 98.0964 122.979 97.779 124.305 97.207" stroke="#E6E7E8" stroke-width="0.9341" stroke-linecap="round" stroke-linejoin="round"></path><path d="M132.626 93.6228C136.722 91.8567 141.745 89.6923 147.155 87.3595C160.855 81.455 184.439 82.0377 199.567 88.6545L365.568 161.268C380.695 167.884 381.449 179.688 367.242 187.498L237.861 258.63C223.655 266.44 199.744 267.29 184.723 260.519L120.356 231.502C105.336 224.731 104.641 212.769 118.812 204.918L179.979 171.032" stroke="#E6E7E8" stroke-width="0.9341" stroke-linecap="round" stroke-linejoin="round" stroke-dasharray="5.64 11.29"></path><path d="M183.867 168.879L185.795 167.812" stroke="#E6E7E8" stroke-width="0.9341" stroke-linecap="round" stroke-linejoin="round"></path><path d="M314.736 220.557L360.182 196.206L342.894 191.212L298.434 214.209L314.736 220.557Z" fill="#414042"></path><path d="M300.361 214.832L298.561 215.66L298.434 214.209L300.235 213.379L300.361 214.832Z" fill="#231F20"></path><path d="M358.388 197.152L360.308 197.658L360.182 196.206L358.262 195.701L358.388 197.152Z" fill="#231F20"></path><path d="M358.862 195.212L330.381 209.682L328.91 192.713L357.39 178.244L358.862 195.212Z" fill="#C6C6C6"></path><path d="M358.298 188.75L329.818 203.219L329.316 197.447L357.798 182.98L358.298 188.75Z" fill="#F8971D"></path><path d="M358.573 191.882L330.092 206.352L329.957 204.794L358.438 190.326L358.573 191.882Z" fill="#F8971D"></path><path d="M312.691 203.223L330.38 209.683L328.909 192.714L311.219 186.252L312.691 203.223Z" fill="#DDDDDD"></path><path d="M311.219 186.252L328.909 192.713L357.388 178.244L339.698 171.785L311.219 186.252Z" fill="#EDEDED"></path><path d="M328.444 213.044L327.212 198.839L318.766 203.405L314.191 214.157L314.747 220.559L328.444 213.044Z" fill="#F8971D"></path><path d="M318.768 203.405L303.992 197.743L311.639 193.465L327.214 198.839L318.768 203.405Z" fill="#FDBB30"></path><path d="M318.768 203.405L314.194 214.158L298.816 208.595L303.992 197.743L318.768 203.405Z" fill="#FBB040"></path><path d="M298.816 208.594L314.194 214.157L314.749 220.558L299.376 214.564L298.816 208.594Z" fill="#FBA432"></path><path d="M314.862 222.009L298.561 215.662L298.434 214.209L314.736 220.556L314.862 222.009Z" fill="#58595B"></path><path d="M308.774 219.022L304.14 217.158L303.992 215.453L308.618 217.219L308.774 219.022Z" fill="#E6E7E8"></path><path d="M314.86 222.01L360.307 197.659L360.18 196.206L314.734 220.557L314.86 222.01Z" fill="#58595B"></path><path d="M317.062 203.645L313.784 211.338L300.914 206.642L304.726 198.953L317.062 203.645Z" fill="#ADE0EE"></path><path d="M325.27 207.804L324.743 201.722L320.06 204.294L316.859 212.365L325.27 207.804Z" fill="#89D4E3"></path><path d="M313.251 217.935L310.54 216.896L310.383 215.065L313.092 216.105L313.251 217.935Z" fill="#FFE14F"></path><path d="M302.644 214.133L299.931 213.093L299.773 211.265L302.485 212.302L302.644 214.133Z" fill="#FFE14F"></path><path d="M356.497 199.517C356.025 201.253 354.169 204.901 352.604 205.021C349.537 204.563 348.948 203.263 349.432 201.512C349.914 199.764 351.573 198.268 353.132 198.165C354.687 198.063 356.421 199.027 356.497 199.517Z" fill="#231F20"></path><path d="M356.786 201.673C356.313 203.409 354.67 204.915 353.104 205.036C351.528 205.157 350.642 203.83 351.123 202.077C351.604 200.329 353.267 198.835 354.826 198.732C356.378 198.628 357.253 199.944 356.786 201.673Z" fill="#414042"></path><path d="M355.467 201.615C355.222 202.572 354.316 203.481 353.431 203.605C352.508 203.73 352.028 202.963 352.366 201.928C352.694 200.94 353.637 200.129 354.466 200.073C355.263 200.022 355.703 200.696 355.467 201.615Z" fill="#939598"></path><path d="M354.905 200.14C355.189 200.408 355.297 200.873 355.152 201.43C354.903 202.389 354 203.297 353.117 203.421C352.91 203.448 352.729 203.426 352.566 203.371C352.77 203.564 353.063 203.654 353.426 203.606C354.311 203.482 355.217 202.573 355.462 201.616C355.649 200.887 355.409 200.319 354.905 200.14Z" fill="#6D6E71"></path><path d="M326.387 215.674C325.917 217.41 324.06 221.06 322.492 221.18C319.426 220.72 318.838 219.422 319.323 217.671C319.803 215.924 321.463 214.427 323.023 214.322C324.575 214.22 326.313 215.186 326.387 215.674Z" fill="#231F20"></path><path d="M326.676 217.831C326.204 219.564 324.562 221.073 322.994 221.193C321.422 221.313 320.537 219.989 321.018 218.237C321.498 216.491 323.158 214.992 324.718 214.889C326.269 214.787 327.143 216.101 326.676 217.831Z" fill="#414042"></path><path d="M325.349 217.772C325.101 218.73 324.198 219.638 323.315 219.763C322.393 219.887 321.911 219.121 322.249 218.086C322.577 217.1 323.521 216.287 324.349 216.233C325.148 216.181 325.586 216.857 325.349 217.772Z" fill="#939598"></path><path d="M324.795 216.299C325.079 216.567 325.188 217.034 325.04 217.59C324.794 218.547 323.891 219.456 323.006 219.578C322.797 219.609 322.618 219.583 322.457 219.53C322.66 219.719 322.955 219.815 323.318 219.765C324.201 219.639 325.104 218.731 325.352 217.774C325.54 217.045 325.297 216.478 324.795 216.299Z" fill="#6D6E71"></path><path d="M317.062 203.645L300.914 206.642L313.784 211.338L317.062 203.645Z" fill="#89D4E3"></path><path d="M315.928 198.132C315.943 198.3 315.42 198.468 314.765 198.503C314.107 198.54 313.562 198.432 313.547 198.263C313.532 198.094 314.054 197.927 314.711 197.89C315.367 197.854 315.913 197.963 315.928 198.132Z" fill="#A7600C"></path><path d="M315.656 198.213L315.51 196.528C315.475 196.123 315.043 195.811 314.551 195.838C314.06 195.866 313.685 196.222 313.721 196.628L313.868 198.313C313.863 198.313 314.636 198.471 315.656 198.213Z" fill="#ED1849"></path><path d="M315.66 198.213L315.513 196.528C315.479 196.123 315.047 195.811 314.555 195.838L314.773 198.35C315.034 198.336 315.33 198.299 315.66 198.213Z" fill="#D11242"></path><path d="M415.781 133.875L372.504 153.34V150.635L415.781 131.172V133.875Z" fill="#C88A12"></path><path d="M332.441 135.113L372.503 153.34V150.635L332.441 132.408V135.113Z" fill="#F6A01A"></path><path d="M332.441 132.409L372.503 150.635L415.78 131.172L375.725 115.002L332.441 132.409Z" fill="#FBB034"></path><path d="M324.813 110.11L344.928 105.305L344.682 104.611L324.285 109.116L324.813 110.11Z" fill="#B2740E"></path><path d="M334.211 132.25L372.525 149.779V120.161L348.349 102.962L334.211 106.267V132.25Z" fill="#E6E7E8"></path><path d="M413.819 131.229L372.52 149.779V120.273L413.819 101.722V131.229Z" fill="#BCBEC0"></path><path d="M386.522 135.723L380.305 138.601V130.99L386.522 128.112V135.723Z" fill="#A0A0A0"></path><path d="M386.235 135.508L380.582 138.125V131.205L386.235 128.59V135.508Z" fill="#0076C0"></path><path d="M396.921 131.392L390.703 134.27V126.66L396.921 123.781V131.392Z" fill="#A0A0A0"></path><path d="M396.635 131.178L390.98 133.793V126.874L396.635 124.257V131.178Z" fill="#0076C0"></path><path d="M407.546 127.061L401.328 129.941V122.328L407.546 119.45V127.061Z" fill="#A0A0A0"></path><path d="M407.262 126.845L401.609 129.463V122.544L407.262 119.928V126.845Z" fill="#0076C0"></path><path d="M401.267 85.6826L419.323 108.499L370.303 130.556L351.969 107.439L401.267 85.6826Z" fill="#FDBB30"></path><path d="M373.583 87.3576L393.701 82.5537L344.682 104.611L324.285 109.116L373.583 87.3576Z" fill="#FDBB30"></path><path d="M393.702 82.5537L344.684 104.611L351.972 107.439L401.27 85.6824L393.702 82.5537Z" fill="#F6A01A"></path><path opacity="0.3" d="M386.235 128.59L380.582 138.125L386.235 135.508V128.59Z" fill="#0076C0"></path><path d="M346.008 119.44L351.379 121.929V115.353L346.008 112.866V119.44Z" fill="#A0A0A0"></path><path d="M346.254 119.255L351.137 121.515V115.538L346.254 113.277V119.255Z" fill="#0076C0"></path><path opacity="0.3" d="M351.382 115.353L351.137 121.516L346.254 119.255L351.382 115.353Z" fill="#0076C0"></path><path opacity="0.3" d="M396.635 124.257V131.178L390.98 133.793L396.635 124.257Z" fill="#0076C0"></path><path opacity="0.3" d="M407.262 119.928V126.845L401.609 129.463L407.262 119.928Z" fill="#0076C0"></path><path d="M337.887 137.679L362.472 148.767V131.059L337.887 119.615V137.679Z" fill="#58595B"></path><path d="M337.887 122.843L362.472 133.931V132.624L337.887 121.182V122.843Z" fill="#6D6E71"></path><path d="M337.887 125.97L362.472 137.059V135.75L337.887 124.31V125.97Z" fill="#6D6E71"></path><path d="M337.887 129.1L362.472 140.186V138.879L337.887 127.437V129.1Z" fill="#6D6E71"></path><path d="M337.887 132.226L362.472 143.315V142.006L337.887 130.562V132.226Z" fill="#6D6E71"></path><path d="M337.887 135.327L362.472 146.415V145.107L337.887 133.664V135.327Z" fill="#6D6E71"></path><path d="M401.463 155.98L389.477 150.826V140.933L401.463 146.086V155.98Z" fill="#E1B37E"></path><path d="M401.461 155.98L412.42 151.104V141.75L401.461 145.95V155.98Z" fill="#BC8756"></path><path d="M389.477 140.933L401.463 146.086L412.422 141.75L400.665 136.831L389.477 140.933Z" fill="#EFCC97"></path><path opacity="0.5" d="M396.771 153.963L393.828 152.696V142.688L396.771 143.955V153.963Z" fill="white"></path><path opacity="0.7" d="M407.303 139.621L404.525 138.458L393.828 142.689L396.771 143.956L407.303 139.621Z" fill="white"></path><path d="M415.037 161.776L403.051 156.623V146.595L415.037 151.745V161.776Z" fill="#E1B37E"></path><path d="M415.035 161.775L425.994 156.899V147.407L415.035 151.745V161.775Z" fill="#BC8756"></path><path d="M403.051 146.595L415.037 151.745L425.996 147.408L414.235 142.492L403.051 146.595Z" fill="#EFCC97"></path><path opacity="0.5" d="M410.343 159.759L407.398 158.494V148.484L410.343 149.75V159.759Z" fill="white"></path><path opacity="0.7" d="M420.872 145.282L418.096 144.118L407.398 148.485L410.343 149.751L420.872 145.282Z" fill="white"></path><path d="M388.699 161.188L376.422 155.908V145.775L388.699 151.054V161.188Z" fill="#E1B37E"></path><path d="M388.699 161.189L399.923 156.194V146.611L388.699 150.917V161.189Z" fill="#BC8756"></path><path d="M376.422 145.776L388.699 151.055L399.923 146.611L387.88 141.575L376.422 145.776Z" fill="#EFCC97"></path><path opacity="0.5" d="M383.896 159.125L380.883 157.828V147.574L383.896 148.871V159.125Z" fill="white"></path><path opacity="0.7" d="M394.685 144.433L391.837 143.242L380.883 147.574L383.896 148.871L394.685 144.433Z" fill="white"></path><path d="M402.58 167.257L390.301 161.979V151.705L402.58 156.985V167.257Z" fill="#E1B37E"></path><path d="M402.578 167.257L413.803 162.262V152.543L402.578 156.986V167.257Z" fill="#BC8756"></path><path d="M390.301 151.705L402.58 156.985L413.805 152.542L401.761 147.506L390.301 151.705Z" fill="#EFCC97"></path><path opacity="0.5" d="M397.778 165.194L394.762 163.896V153.643L397.778 154.942V165.194Z" fill="white"></path><path opacity="0.7" d="M408.561 150.362L405.719 149.173L394.762 153.642L397.778 154.941L408.561 150.362Z" fill="white"></path><path d="M402.59 153.133L390.312 147.854V137.58L402.59 142.862V153.133Z" fill="#E1B37E"></path><path d="M402.59 153.132L413.812 148.137V138.416L402.59 142.861V153.132Z" fill="#BC8756"></path><path d="M390.312 137.58L402.59 142.862L413.812 138.417L401.769 133.383L390.312 137.58Z" fill="#EFCC97"></path><path opacity="0.5" d="M397.78 151.07L394.766 149.77V139.519L397.78 140.817V151.07Z" fill="white"></path><path opacity="0.7" d="M408.567 136.238L405.722 135.049L394.766 139.519L397.78 140.817L408.567 136.238Z" fill="white"></path><path d="M385.955 157.303C386.465 157.051 387.18 157.072 387.971 157.434L404.683 165.261C406.225 165.969 407.489 167.71 407.489 169.131V185.268C407.489 186.034 407.119 186.555 406.537 186.764V186.766L402.871 188.261L382.839 179.019L382.305 158.786L385.955 157.303Z" fill="#3DAF43"></path><path opacity="0.3" d="M387.971 157.434L404.683 165.261C405.563 165.664 406.35 166.405 406.866 167.229L403.008 168.524L382.305 158.786L385.955 157.303C386.466 157.051 387.18 157.072 387.971 157.434Z" fill="#3DAF43"></path><path d="M384.258 158.948L400.97 166.774C402.514 167.482 403.777 169.223 403.777 170.644V186.782C403.777 188.203 402.511 188.789 400.966 188.086L384.263 180.393C382.717 179.69 381.453 177.952 381.453 176.531V160.243C381.451 158.824 382.714 158.239 384.258 158.948Z" fill="#5ED048"></path><path fill-rule="evenodd" clip-rule="evenodd" d="M384.896 170.833C384.441 170.341 387.317 169.014 388.171 170.151C389.026 171.288 389.31 175.493 389.31 175.493C389.31 175.493 394.437 169.697 400.704 170.492L399.136 173.675C399.136 173.675 393.155 173.675 388.171 177.994C388.171 177.994 386.89 172.993 384.896 170.833Z" fill="white"></path><path d="M197.137 271.291C195.264 270.398 193.862 267.901 193.864 266.222L193.836 218.845C193.836 218.845 196.911 217.506 197.99 216.955C199.078 216.403 200.215 217.043 200.215 217.043L224.795 228.661C226.672 229.55 228.206 231.647 228.203 233.326L228.111 279.994C228.111 279.994 228.248 280.879 227.212 281.375C226.175 281.87 223.006 283.64 223.006 283.64L197.137 271.291Z" fill="#D1D3D4"></path><path opacity="0.4" d="M222.855 233.039L227.442 231.067C227.911 231.812 228.204 232.608 228.203 233.327L228.111 279.994C228.111 279.994 228.248 280.879 227.212 281.375C226.175 281.87 223.006 283.64 223.006 283.64L222.855 233.039Z" fill="#6D6E70"></path><path d="M192.242 267.221C192.236 268.902 193.769 271.004 195.645 271.896L220.233 283.599C222.109 284.49 223.645 283.85 223.649 282.17L223.74 235.503C223.744 233.823 222.21 231.726 220.334 230.838L195.755 219.221C193.877 218.333 192.338 218.979 192.333 220.657L192.242 267.221Z" fill="#F5F5F5"></path><path d="M205.956 222.415C205.705 222.296 205.664 222.077 205.869 221.926L206.098 221.759C206.301 221.607 206.675 221.581 206.923 221.699L212.164 224.152C212.416 224.269 212.457 224.489 212.251 224.639L212.023 224.806C211.819 224.959 211.447 224.985 211.196 224.868L205.956 222.415Z" fill="#9C9C9C"></path><path d="M207.627 275.797C207.268 275.772 206.883 275.658 206.481 275.46C205.159 274.814 204.083 273.424 204.086 272.361C204.088 271.611 204.632 271.165 205.476 271.224C205.834 271.249 206.219 271.362 206.619 271.557C207.943 272.21 209.019 273.601 209.017 274.659C209.014 275.41 208.468 275.855 207.627 275.797ZM205.476 271.451C204.784 271.403 204.373 271.751 204.371 272.383C204.367 273.368 205.375 274.664 206.615 275.269C206.971 275.443 207.32 275.548 207.628 275.569C208.317 275.616 208.731 275.271 208.733 274.639C208.734 273.656 207.727 272.36 206.487 271.749C206.132 271.577 205.782 271.473 205.476 271.451Z" fill="#BCBEC0"></path><path d="M195.07 264.903L222.434 277.616L222.509 239.313L195.146 226.598L195.07 264.903Z" fill="#0076C0"></path><path opacity="0.3" d="M222.509 239.313L195.07 264.903L222.434 277.616L222.509 239.313Z" fill="#0076C0"></path><path d="M206.245 225.742C206.919 225.402 207.863 225.423 208.912 225.895L245.988 242.697C248.043 243.618 249.741 245.906 249.766 247.785L250.063 271.205C250.078 272.22 249.594 272.912 248.83 273.195V273.197L244.01 275.213L202.52 256.573L201.449 227.742L206.245 225.742Z" fill="#9C0059"></path><path opacity="0.3" d="M208.913 225.894L245.989 242.697C247.164 243.222 248.217 244.194 248.91 245.278L243.834 247.029L201.449 227.741L206.245 225.742C206.92 225.403 207.864 225.423 208.913 225.894Z" fill="#9C0059"></path><path d="M204.032 227.935L241.109 244.737C243.163 245.657 244.86 247.947 244.885 249.823L245.182 273.247C245.205 275.125 243.542 275.914 241.488 274.998L212.965 262.17L209.037 264.689L208.143 260.025L204.426 258.375C202.371 257.459 200.67 255.176 200.647 253.297L200.348 229.677C200.322 227.799 201.982 227.015 204.032 227.935Z" fill="#EC098D"></path><path d="M204.728 247.968L204.866 236.898L208.271 238.447C209.062 238.807 209.706 239.257 210.204 239.799C210.705 240.339 211.074 240.929 211.31 241.569C211.546 242.209 211.66 242.855 211.652 243.507C211.644 244.159 211.515 244.697 211.266 245.12C211.019 245.544 210.643 245.801 210.138 245.89C209.632 245.975 208.987 245.839 208.203 245.483L205.762 244.373L205.777 243.183L208.178 244.276C208.72 244.522 209.156 244.617 209.486 244.561C209.817 244.504 210.058 244.335 210.21 244.053C210.365 243.768 210.446 243.404 210.451 242.961C210.457 242.518 210.386 242.087 210.24 241.669C210.097 241.252 209.861 240.87 209.532 240.521C209.203 240.168 208.765 239.867 208.217 239.618L206.072 238.642L205.948 248.523L204.728 247.968ZM212.908 251.689L211.629 251.107L215.467 241.72L216.727 242.293L220.288 255.046L219.009 254.464L216.115 243.776L216.036 243.74L212.908 251.689ZM213.434 247.579L218.591 249.925L218.576 251.114L213.419 248.769L213.434 247.579ZM221.858 255.76L221.997 244.69L225.402 246.239C226.189 246.597 226.833 247.039 227.335 247.564C227.836 248.085 228.205 248.657 228.442 249.279C228.678 249.902 228.792 250.539 228.784 251.191C228.776 251.843 228.647 252.366 228.398 252.76C228.149 253.154 227.772 253.381 227.266 253.441C226.761 253.498 226.118 253.348 225.337 252.993L222.581 251.74L222.597 250.529L225.313 251.765C225.851 252.009 226.285 252.12 226.615 252.096C226.948 252.074 227.191 251.938 227.343 251.688C227.497 251.436 227.578 251.088 227.583 250.645C227.589 250.202 227.518 249.78 227.371 249.38C227.225 248.98 226.987 248.614 226.658 248.283C226.329 247.949 225.892 247.658 225.347 247.41L223.202 246.434L223.078 256.315L221.858 255.76ZM226.664 252.945L229.081 259.045L227.664 258.401L225.286 252.318L226.664 252.945ZM212.706 262.044L211.486 261.489C211.419 261.071 211.297 260.675 211.12 260.301C210.946 259.929 210.733 259.585 210.48 259.27C210.23 258.954 209.951 258.675 209.644 258.434C209.337 258.193 209.016 257.996 208.681 257.844C208.071 257.566 207.516 257.484 207.017 257.598C206.521 257.712 206.122 258.033 205.822 258.56C205.525 259.088 205.371 259.831 205.359 260.79C205.347 261.748 205.481 262.623 205.761 263.414C206.045 264.206 206.431 264.883 206.919 265.446C207.41 266.01 207.96 266.431 208.57 266.708C208.905 266.86 209.227 266.956 209.537 266.995C209.846 267.035 210.129 267.013 210.384 266.929C210.642 266.844 210.862 266.696 211.042 266.484C211.227 266.271 211.357 265.99 211.434 265.641L212.654 266.196C212.555 266.72 212.382 267.15 212.133 267.486C211.885 267.823 211.578 268.065 211.214 268.215C210.849 268.361 210.441 268.412 209.989 268.37C209.541 268.329 209.063 268.193 208.555 267.962C207.695 267.571 206.934 266.993 206.27 266.227C205.607 265.462 205.089 264.566 204.716 263.541C204.342 262.516 204.163 261.42 204.178 260.253C204.192 259.085 204.397 258.164 204.791 257.488C205.186 256.812 205.721 256.395 206.396 256.239C207.07 256.082 207.838 256.199 208.697 256.59C209.206 256.821 209.682 257.119 210.126 257.484C210.573 257.851 210.975 258.273 211.332 258.75C211.689 259.225 211.986 259.74 212.223 260.297C212.461 260.851 212.622 261.433 212.706 262.044ZM214.583 270.552L214.722 259.482L220.803 262.248L220.788 263.437L215.927 261.226L215.88 264.967L220.426 267.035L220.412 268.224L215.865 266.156L215.818 269.918L220.758 272.165L220.743 273.354L214.583 270.552ZM222.864 274.318L223.003 263.249L224.223 263.804L224.099 273.684L228.783 275.815L228.768 277.004L222.864 274.318Z" fill="white"></path><path d="M208.679 252.274C208.67 252.975 208.547 253.528 208.31 253.934C208.073 254.34 207.752 254.59 207.347 254.684C206.941 254.779 206.481 254.708 205.964 254.474C205.448 254.239 204.991 253.891 204.592 253.432C204.194 252.972 203.883 252.434 203.659 251.818C203.434 251.203 203.327 250.544 203.336 249.843C203.344 249.142 203.467 248.588 203.704 248.182C203.941 247.777 204.262 247.526 204.668 247.432C205.073 247.338 205.534 247.408 206.05 247.643C206.566 247.878 207.023 248.225 207.422 248.685C207.82 249.145 208.132 249.683 208.356 250.298C208.58 250.914 208.688 251.572 208.679 252.274ZM207.97 251.951C207.977 251.375 207.895 250.849 207.725 250.374C207.556 249.899 207.325 249.492 207.03 249.153C206.737 248.815 206.407 248.563 206.041 248.396C205.674 248.23 205.341 248.18 205.041 248.248C204.743 248.317 204.503 248.51 204.323 248.826C204.145 249.144 204.052 249.59 204.045 250.166C204.038 250.741 204.118 251.267 204.287 251.742C204.457 252.218 204.689 252.624 204.982 252.962C205.277 253.301 205.607 253.554 205.974 253.72C206.34 253.887 206.673 253.936 206.971 253.867C207.271 253.799 207.51 253.606 207.688 253.289C207.869 252.973 207.962 252.527 207.97 251.951ZM214.752 251.693L214.669 258.341L213.96 258.019L210.727 251.298L210.668 251.272L210.602 256.492L209.87 256.158L209.953 249.51L210.662 249.832L213.907 256.571L213.966 256.598L214.031 251.365L214.752 251.693ZM218.22 253.988L218.229 253.274L222.768 255.339L222.759 256.053L220.856 255.187L220.781 261.122L220.048 260.788L220.123 254.854L218.22 253.988ZM223.816 262.502L223.899 255.853L224.632 256.187L224.595 259.147L227.822 260.615L227.859 257.654L228.592 257.988L228.509 264.637L227.776 264.303L227.813 261.329L224.586 259.862L224.549 262.835L223.816 262.502ZM229.976 265.304L230.059 258.655L233.712 260.317L233.703 261.031L230.783 259.703L230.755 261.949L233.486 263.191L233.477 263.906L230.746 262.664L230.718 264.923L233.685 266.273L233.676 266.987L229.976 265.304ZM204.492 264.774L202.92 257.373L203.665 257.712L204.862 263.702L204.921 263.729L206.277 258.9L207.105 259.276L208.326 265.277L208.385 265.304L209.717 260.465L210.462 260.803L208.724 266.699L207.967 266.355L206.698 260.449L206.651 260.428L205.248 265.118L204.492 264.774ZM211.069 267.766L210.301 267.416L212.606 261.778L213.363 262.123L215.502 269.782L214.734 269.433L212.995 263.013L212.948 262.992L211.069 267.766ZM211.385 265.298L214.482 266.706L214.473 267.421L211.376 266.012L211.385 265.298ZM215.39 263.045L216.23 263.427L217.869 267.294L217.94 267.326L219.658 264.986L220.497 265.368L218.261 268.282L218.227 271.022L217.494 270.688L217.528 267.948L215.39 263.045Z" fill="white"></path><path opacity="0.5" d="M92.6705 97.7552C90.2264 98.9687 90.4357 100.973 93.1268 102.209L135.54 122.559C138.228 123.794 142.48 123.881 144.988 122.752L151.049 120.017C153.555 118.884 153.395 116.964 150.695 115.748L107.429 95.0729C104.725 93.8568 100.516 93.8514 98.077 95.0682L92.6705 97.7552Z" fill="#B8BABB"></path><path d="M99.8524 101.867C96.7652 100.398 94.4593 96.2843 94.4626 93.5191L94.4141 15.4834C94.4141 15.4834 99.4773 13.2783 101.259 12.3695C103.049 11.4607 104.924 12.5145 104.924 12.5145L145.41 31.6512C148.5 33.1133 151.027 36.568 151.023 39.3352L150.869 116.199C150.869 116.199 151.097 117.66 149.387 118.475C147.68 119.291 142.461 122.207 142.461 122.207L99.8524 101.867Z" fill="#D1D3D4"></path><path opacity="0.4" d="M142.219 38.8625L149.77 35.6143C150.543 36.8425 151.026 38.1509 151.025 39.3356L150.871 116.199C150.871 116.199 151.098 117.66 149.389 118.475C147.681 119.292 142.462 122.207 142.462 122.207L142.219 38.8625Z" fill="#6D6E70"></path><path d="M91.7852 95.1643C91.7776 97.9327 94.3038 101.394 97.3918 102.864L137.89 122.14C140.981 123.608 143.513 122.553 143.518 119.787L143.671 42.9215C143.674 40.1557 141.148 36.7003 138.057 35.2375L97.5718 16.1035C94.4788 14.6414 91.9451 15.7059 91.9359 18.469L91.7852 95.1643Z" fill="#F5F5F5"></path><path d="M114.379 21.3649C113.965 21.1692 113.898 20.8063 114.234 20.5577L114.612 20.2837C114.944 20.0332 115.561 19.9891 115.974 20.1842L124.604 24.225C125.021 24.4174 125.087 24.7796 124.748 25.0262L124.374 25.3021C124.038 25.5527 123.425 25.5962 123.011 25.403L114.379 21.3649Z" fill="#9C9C9C"></path><path d="M117.115 109.288C116.524 109.246 115.888 109.061 115.227 108.735C113.047 107.67 111.278 105.38 111.281 103.631C111.284 102.396 112.181 101.66 113.57 101.758C114.161 101.799 114.795 101.984 115.456 102.308C117.636 103.381 119.407 105.672 119.405 107.416C119.401 108.65 118.501 109.385 117.115 109.288ZM113.571 102.132C112.433 102.052 111.753 102.625 111.75 103.664C111.747 105.289 113.406 107.422 115.447 108.419C116.031 108.707 116.609 108.878 117.115 108.913C118.25 108.993 118.932 108.42 118.936 107.381C118.938 105.763 117.279 103.628 115.238 102.623C114.654 102.337 114.077 102.167 113.571 102.132Z" fill="#BCBEC0"></path><path d="M96.4492 91.345L141.519 112.285L141.644 49.1978L96.574 28.2549L96.4492 91.345Z" fill="#0076C0"></path><path opacity="0.3" d="M141.648 49.1973L96.4531 91.3444L141.523 112.285L141.648 49.1973Z" fill="#0076C0"></path><path d="M122.625 59.503L130.137 62.9931L141.658 49.1975L134.145 45.7061L122.625 59.503Z" fill="#EF3E42"></path><path d="M115.109 56.0118L122.625 59.5033L134.145 45.7063L126.631 42.2148L115.109 56.0118Z" fill="white"></path><path d="M107.598 52.5215L115.11 56.011L126.631 42.2141L119.117 38.7246L107.598 52.5215Z" fill="#EF3E42"></path><path d="M100.082 49.0303L107.595 52.5218L119.114 38.7249L111.603 35.2334L100.082 49.0303Z" fill="white"></path><path d="M92.5664 45.5394L100.082 49.0309L111.603 35.234L104.088 31.7432L92.5664 45.5394Z" fill="#EF3E42"></path><path d="M85.0547 42.0482L92.567 45.539L104.088 31.7428L96.5744 28.252L85.0547 42.0482Z" fill="white"></path><path d="M85.0558 42.0469L92.5665 45.539C92.5665 45.539 92.7415 49.0011 89.6334 48.4993C86.5228 47.9995 84.6463 44.1819 85.0558 42.0469Z" fill="#D1D3D4"></path><path d="M92.5677 45.5371L100.081 49.0306C100.081 49.0306 100.253 52.4934 97.147 51.9902C94.033 51.4884 92.1574 47.6728 92.5677 45.5371Z" fill="#C41230"></path><path d="M100.08 49.0283L107.594 52.5225C107.594 52.5225 107.767 55.9832 104.656 55.4807C101.547 54.9816 99.6685 51.1646 100.08 49.0283Z" fill="#D1D3D4"></path><path d="M107.595 52.5195L115.106 56.0117C115.106 56.0117 115.282 59.4751 112.173 58.9726C109.06 58.4708 107.185 54.6532 107.595 52.5195Z" fill="#C41230"></path><path d="M115.11 56.0098L122.624 59.5039C122.624 59.5039 122.795 62.966 119.69 62.4642C116.577 61.9617 114.701 58.1441 115.11 56.0098Z" fill="#D1D3D4"></path><path d="M122.627 59.502L130.139 62.9934C130.139 62.9934 130.312 66.4562 127.203 65.9537C124.093 65.4539 122.215 61.6369 122.627 59.502Z" fill="#C41230"></path><path d="M130.141 62.9928L141.661 57.4298V49.1973L130.141 62.9928Z" fill="#BF311A"></path><path d="M107.143 83.8249C107.507 83.6371 108.016 83.6431 108.58 83.8903L130.876 94.2058C131.976 94.6889 132.878 95.9131 132.878 96.9268V101.663C132.878 102.21 132.614 102.587 132.2 102.745V102.746L129.585 103.863L104.921 92.5853L104.539 84.9341L107.143 83.8249Z" fill="#FDBB30"></path><path opacity="0.4" d="M108.58 83.8907L130.876 94.2061C131.504 94.4814 132.066 94.9986 132.432 95.5793L129.682 96.5569L104.539 84.9338L107.143 83.8245C107.507 83.6374 108.016 83.6428 108.58 83.8907Z" fill="#FDBB30"></path><path d="M105.933 85.0215L128.228 95.3357C129.329 95.8194 130.23 97.0436 130.23 98.0567V102.794C130.23 103.807 129.328 104.244 128.224 103.763L105.935 93.5441C104.833 93.0637 103.93 91.8421 103.93 90.8291V85.9851C103.93 84.9721 104.832 84.5391 105.933 85.0215Z" fill="#FFD200"></path><path d="M111.259 89.0625L112.58 89.6779C113.163 89.9486 113.601 90.2433 113.895 90.56C114.188 90.8767 114.335 91.2529 114.335 91.6873C114.335 91.8744 114.301 92.0261 114.231 92.143C114.162 92.2593 114.062 92.3355 113.93 92.3709C113.797 92.4063 113.635 92.3983 113.442 92.3455V92.3789C113.646 92.5065 113.827 92.6516 113.984 92.8126C114.142 92.9736 114.265 93.1547 114.353 93.3552C114.443 93.5557 114.487 93.7775 114.487 94.0221C114.487 94.3195 114.421 94.54 114.288 94.6823C114.155 94.826 113.967 94.8928 113.725 94.8848C113.482 94.8761 113.195 94.7952 112.863 94.6409L111.258 93.8938L111.259 89.0625ZM111.801 91.3866L112.695 91.8022C113.102 91.9913 113.382 92.0528 113.539 91.9873C113.696 91.9205 113.774 91.7548 113.774 91.4882C113.774 91.2129 113.681 90.9716 113.494 90.7638C113.308 90.556 113.012 90.3575 112.605 90.1684L111.8 89.7935L111.801 91.3866ZM111.801 91.8584V93.6659L112.772 94.1177C113.186 94.3108 113.481 94.3629 113.653 94.2747C113.825 94.1865 113.912 93.9994 113.912 93.7127C113.912 93.5303 113.873 93.3552 113.795 93.1895C113.717 93.0238 113.591 92.8654 113.419 92.7157C113.245 92.5654 113.014 92.423 112.724 92.288L111.801 91.8584Z" fill="white"></path><path d="M119.008 92.6694V95.7947C119.008 96.1362 118.941 96.4088 118.809 96.614C118.676 96.8185 118.476 96.9347 118.207 96.9628C117.939 96.9915 117.603 96.9114 117.198 96.7236C116.622 96.4556 116.182 96.0894 115.881 95.625C115.58 95.1613 115.43 94.6588 115.43 94.1168V91.0049L115.976 91.2588V94.3875C115.976 94.7971 116.08 95.1619 116.29 95.482C116.5 95.8021 116.813 96.0587 117.231 96.2532C117.515 96.3855 117.749 96.4409 117.932 96.4189C118.113 96.3968 118.248 96.3093 118.336 96.1576C118.424 96.0059 118.468 95.8034 118.468 95.5502V92.4182L119.008 92.6694Z" fill="white"></path><path d="M121.438 96.2199L122.68 94.3762L123.263 94.6475L121.709 96.8814V98.7545L121.167 98.5026V96.6562L119.609 92.9482L120.204 93.2242L121.438 96.2199Z" fill="white"></path><path d="M134.445 77.2974L124.039 72.676V72.2256L134.445 76.7856V77.2974Z" fill="white"></path><path d="M134.445 78.9733L124.039 74.3505V73.8994L134.445 78.4621V78.9733Z" fill="white"></path><path d="M134.445 80.6487L124.039 76.0266V75.5762L134.445 80.1368V80.6487Z" fill="white"></path><path d="M134.445 82.3245L124.039 77.7017V77.252L134.445 81.8126V82.3245Z" fill="white"></path><path d="M134.445 86.9713L124.039 82.3491V81.8994L134.445 86.4594V86.9713Z" fill="white"></path><path d="M115.178 69.0975C115.125 69.0975 115.073 69.0775 115.037 69.0414C114.978 68.9793 114.991 68.889 115.07 68.8416C115.897 68.3357 116.457 67.5666 116.649 66.6765C116.992 65.0541 115.905 63.4784 114.168 63.0881C112.486 62.7086 110.682 63.5399 109.97 65.02C109.73 65.5212 109.638 66.2896 109.674 66.7901C109.679 66.8683 109.604 66.9358 109.505 66.9412C109.408 66.9418 109.322 66.885 109.316 66.8062C109.28 66.291 109.367 65.4804 109.638 64.9184C110.415 63.3006 112.402 62.3972 114.265 62.8142C116.172 63.2425 117.375 64.9599 117 66.7246C116.794 67.6856 116.185 68.5175 115.287 69.0675C115.254 69.0868 115.217 69.0975 115.178 69.0975Z" fill="#F5866C"></path><path d="M116.33 69.8732L114.817 82.3096L101.727 76.8322L105.26 65.1074L116.33 69.8732Z" fill="#F16D9A"></path><path d="M114.816 82.3104L117.494 80.3926V70.1066L116.329 69.874L114.816 82.3104Z" fill="#EE2B74"></path><path d="M117.492 80.393L120.095 79.4635L118.366 69.0605L117.492 70.107V80.393Z" fill="#C6006F"></path><path d="M116.333 69.8737L117.498 70.1063L118.371 69.0598L107.231 64.1777L106.469 65.6271L116.333 69.8737Z" fill="#9C0059"></path><path d="M107.231 64.1777V65.9546L106.469 65.6271L107.231 64.1777Z" fill="#7A003C"></path><path d="M113.069 69.8837C113.081 70.1028 112.869 70.2893 112.595 70.3C112.32 70.31 112.088 70.1409 112.075 69.9224C112.062 69.7032 112.272 69.5175 112.547 69.5074C112.82 69.4954 113.055 69.6651 113.069 69.8837Z" fill="#820024"></path><path d="M107.269 67.7176C107.281 67.9368 107.069 68.1218 106.794 68.1332C106.521 68.1439 106.286 67.9742 106.274 67.7557C106.262 67.5358 106.472 67.35 106.747 67.3393C107.022 67.3287 107.256 67.4971 107.269 67.7176Z" fill="#820024"></path><path d="M112.487 70.085C112.434 70.085 112.38 70.0663 112.345 70.0295C112.287 69.9667 112.299 69.8779 112.379 69.8297C113.206 69.3232 113.765 68.5541 113.955 67.6654C114.301 66.0429 113.212 64.4659 111.476 64.0763C109.797 63.6961 107.991 64.5287 107.279 66.0095C107.037 66.5113 106.946 67.2791 106.982 67.779C106.987 67.8571 106.912 67.924 106.815 67.9286C106.706 67.9333 106.631 67.8725 106.626 67.7943C106.588 67.2811 106.674 66.4712 106.946 65.9066C107.723 64.2888 109.712 63.384 111.574 63.8017C113.481 64.2307 114.682 65.948 114.309 67.7121C114.103 68.6724 113.495 69.5043 112.596 70.0556C112.562 70.075 112.525 70.085 112.487 70.085Z" fill="#F5866C"></path><path d="M189.224 212.105L121.111 178.333L120.863 174.932L188.97 208.562L189.224 212.105Z" fill="#ADC939"></path><path d="M189.222 212.105L263.852 176.345L263.596 172.795L188.969 208.563L189.222 212.105Z" fill="#9AAC34"></path><path d="M263.597 172.795L195.485 139.023L120.863 174.932L188.97 208.563L263.597 172.795Z" fill="#B7DC40"></path><path d="M207.287 123.805L164.605 145.094L187.632 167.04L231.31 146.382L207.287 123.805Z" fill="#FF0023"></path><path d="M183.764 125.745L143.773 145.994L164.608 145.094L207.289 123.805L183.764 125.745Z" fill="#AC000A"></path><path d="M188.137 191.021L228.49 171.966V147.721L188.137 166.775V191.021Z" fill="#FCF8F5"></path><path d="M188.139 191.02L148.153 171.583L147.977 145.814L164.611 145.094L188.139 166.775V191.02Z" fill="#CCC4C5"></path><path d="M164.605 145.094V146.433L186.448 167.616L188.134 166.775L164.605 145.094Z" fill="#AC000A"></path><path d="M164.608 146.433V145.094L143.774 145.994L143.27 147.355L164.608 146.433Z" fill="#7C150B"></path><path opacity="0.4" d="M180.298 175.946L172.371 171.805V161.213L180.298 165.355V175.946Z" fill="white"></path><path d="M179.813 169.732L172.852 166.097V162.113L179.813 165.748V169.732Z" fill="#22667E"></path><path d="M179.813 174.855L172.852 171.22V166.626L179.813 170.264V174.855Z" fill="#22667E"></path><path opacity="0.3" d="M179.813 170.264V174.854L172.852 171.22L179.813 170.264Z" fill="#22667E"></path><path opacity="0.3" d="M179.813 165.748V169.732L172.852 166.097L179.813 165.748Z" fill="#22667E"></path><path opacity="0.4" d="M197.477 178.313L205.402 174.261V163.669L197.477 167.718V178.313Z" fill="white"></path><path d="M197.961 172.103L204.922 168.55V164.566L197.961 168.119V172.103Z" fill="#22667E"></path><path d="M197.961 177.225L204.922 173.672V169.078L197.961 172.635V177.225Z" fill="#22667E"></path><path opacity="0.3" d="M197.961 172.635V177.224L204.922 173.671L197.961 172.635Z" fill="#22667E"></path><path opacity="0.3" d="M197.961 168.118V172.102L204.922 168.549L197.961 168.118Z" fill="#22667E"></path><path opacity="0.4" d="M213.605 172.119L221.531 168.071V157.476L213.605 161.519V172.119Z" fill="white"></path><path d="M214.094 165.909L221.047 162.351V158.367L214.094 161.924V165.909Z" fill="#22667E"></path><path d="M214.094 171.032L221.047 167.475V162.881L214.094 166.439V171.032Z" fill="#22667E"></path><path opacity="0.3" d="M214.094 166.438V171.031L221.047 167.474L214.094 166.438Z" fill="#22667E"></path><path opacity="0.3" d="M214.094 161.925V165.909L221.047 162.352L214.094 161.925Z" fill="#22667E"></path><path d="M155.914 175.392L164.854 179.564V159.759L155.914 154.431V175.392Z" fill="#764800"></path><path d="M245.491 175.636C245.796 176.219 247.547 176.227 249.404 175.652C251.262 175.077 252.519 174.138 252.214 173.554C251.909 172.971 250.157 172.962 248.3 173.538C246.442 174.113 245.185 175.052 245.491 175.636Z" fill="#D6D6D7"></path><path d="M249.386 175.581L249.015 157.261H246.759L245.906 167.829C244.945 167.349 243.986 166.897 243.769 166.879C243.306 166.836 243.256 167.441 243.614 167.646C243.807 167.757 244.82 168.526 245.783 169.32L245.279 175.58C245.279 175.58 247.253 176.598 249.386 175.581Z" fill="#9B5F0E"></path><path opacity="0.4" d="M247.676 176.025V157.261H246.753L245.9 167.816C244.946 167.344 243.99 166.898 243.757 166.874C243.299 166.844 243.268 167.447 243.628 167.658C243.793 167.764 244.813 168.524 245.799 169.315L245.272 175.59C245.272 175.59 246.326 176.051 247.676 176.025Z" fill="#572700"></path><path d="M230.926 156.181C230.926 154.821 231.596 153.587 232.681 152.671C232.256 151.985 232.009 151.217 232.009 150.399C232.009 147.575 234.881 145.283 238.422 145.283C239.558 145.283 240.623 145.521 241.546 145.933C242.133 143.593 244.725 141.827 247.832 141.827C250.939 141.827 253.529 143.591 254.118 145.933C255.042 145.522 256.107 145.283 257.242 145.283C260.783 145.283 263.653 147.575 263.653 150.399C263.653 151.218 263.407 151.985 262.982 152.671C264.067 153.587 264.737 154.821 264.737 156.181C264.737 158.729 262.401 160.836 259.346 161.227C258.941 163.742 256.256 165.685 252.995 165.685C250.871 165.685 248.998 164.861 247.831 163.594C246.663 164.861 244.788 165.685 242.667 165.685C239.407 165.685 236.721 163.742 236.316 161.227C233.262 160.836 230.926 158.729 230.926 156.181Z" fill="#00B085"></path><path d="M232.679 152.67C232.255 151.985 232.008 151.217 232.008 150.399C232.008 147.864 234.323 145.764 237.356 145.359C235.698 146.224 234.601 147.715 234.601 149.416C234.601 150.188 234.832 150.916 235.235 151.565C234.21 152.433 233.576 153.601 233.576 154.889C233.576 157.301 235.786 159.295 238.678 159.666C239.062 162.045 241.606 163.886 244.693 163.886C246.702 163.886 248.476 163.104 249.582 161.907C250.686 163.104 252.459 163.886 254.468 163.886C256.311 163.886 257.956 163.228 259.067 162.193C258.217 164.222 255.823 165.685 252.996 165.685C250.872 165.685 248.999 164.861 247.832 163.594C246.664 164.861 244.789 165.685 242.668 165.685C239.408 165.685 236.722 163.742 236.316 161.227C233.262 160.836 230.926 158.729 230.926 156.181C230.924 154.821 231.595 153.587 232.679 152.67Z" fill="#009470"></path><path d="M242.902 146.603C242.549 146.349 242.252 146.229 241.547 145.933C242.088 143.518 244.606 142.232 246.612 141.922C245.096 142.602 243.252 145.201 242.902 146.603Z" fill="#009470"></path><path d="M259.793 159.744C261.414 159.536 263.507 158.741 264.43 157.726C263.768 159.392 261.95 160.863 259.344 161.227C259.618 160.773 259.71 160.264 259.793 159.744Z" fill="#009470"></path><path d="M186.44 203.726C186.745 204.309 188.496 204.318 190.354 203.742C192.212 203.168 193.468 202.229 193.163 201.645C192.858 201.061 191.105 201.052 189.249 201.627C187.392 202.202 186.135 203.143 186.44 203.726Z" fill="#D6D6D7"></path><path d="M190.338 203.67L189.968 185.35H187.711L186.859 195.919C185.897 195.438 184.939 194.987 184.722 194.967C184.259 194.925 184.209 195.53 184.567 195.735C184.759 195.846 185.773 196.615 186.737 197.408L186.233 203.669C186.233 203.669 188.206 204.687 190.338 203.67Z" fill="#9B5F0E"></path><path opacity="0.4" d="M188.625 204.114V185.35H187.703L186.849 195.905C185.895 195.434 184.939 194.987 184.707 194.963C184.249 194.933 184.217 195.536 184.577 195.747C184.744 195.853 185.763 196.613 186.749 197.404L186.222 203.678C186.222 203.678 187.276 204.141 188.625 204.114Z" fill="#572700"></path><path d="M171.875 184.271C171.875 182.91 172.545 181.677 173.629 180.76C173.205 180.074 172.958 179.306 172.958 178.489C172.958 175.664 175.829 173.372 179.371 173.372C180.505 173.372 181.57 173.61 182.495 174.022C183.082 171.68 185.674 169.915 188.78 169.915C191.888 169.915 194.478 171.68 195.066 174.022C195.99 173.61 197.055 173.372 198.189 173.372C201.732 173.372 204.601 175.664 204.601 178.489C204.601 179.307 204.356 180.074 203.931 180.76C205.016 181.677 205.685 182.91 205.685 184.271C205.685 186.819 203.35 188.925 200.296 189.317C199.891 191.832 197.205 193.774 193.943 193.774C191.82 193.774 189.948 192.95 188.78 191.683C187.611 192.95 185.738 193.774 183.617 193.774C180.355 193.774 177.67 191.832 177.265 189.317C174.211 188.925 171.875 186.819 171.875 184.271Z" fill="#00B085"></path><path d="M173.628 180.759C173.204 180.074 172.957 179.306 172.957 178.489C172.957 175.952 175.272 173.853 178.306 173.448C176.647 174.313 175.549 175.804 175.549 177.504C175.549 178.277 175.782 179.005 176.185 179.653C175.159 180.522 174.524 181.689 174.524 182.978C174.524 185.39 176.735 187.385 179.627 187.755C180.011 190.135 182.555 191.975 185.642 191.975C187.651 191.975 189.426 191.193 190.531 189.996C191.636 191.193 193.41 191.975 195.418 191.975C197.261 191.975 198.905 191.317 200.017 190.282C199.166 192.311 196.772 193.774 193.944 193.774C191.821 193.774 189.948 192.95 188.781 191.683C187.612 192.95 185.738 193.774 183.617 193.774C180.356 193.774 177.671 191.832 177.266 189.317C174.211 188.925 171.875 186.818 171.875 184.27C171.875 182.91 172.545 181.677 173.628 180.759Z" fill="#009470"></path><path d="M183.847 174.692C183.494 174.438 183.197 174.318 182.492 174.021C183.033 171.606 185.552 170.32 187.557 170.01C186.042 170.691 184.198 173.29 183.847 174.692Z" fill="#009470"></path><path d="M200.743 187.833C202.364 187.626 204.455 186.83 205.379 185.815C204.716 187.481 202.899 188.952 200.293 189.317C200.566 188.863 200.659 188.353 200.743 187.833Z" fill="#009470"></path><path d="M234.295 28.617C235.265 28.1365 236.621 28.1793 238.123 28.8655L273.137 45.5572C276.068 46.9004 278.464 50.2074 278.464 52.9044V94.0599C278.464 95.516 277.761 96.505 276.657 96.9019V96.9046L269.699 99.7439L228.376 80.3652L227.363 31.4329L234.295 28.617Z" fill="#8A3DF9"></path><path opacity="0.4" d="M238.122 28.8654L273.137 45.5571C274.809 46.3229 276.305 47.7288 277.281 49.2952L269.956 51.7536L227.363 31.4334L234.294 28.6175C235.264 28.1364 236.621 28.1791 238.122 28.8654Z" fill="#8A3DF9"></path><path d="M231.072 31.7383L266.087 48.4287C269.019 49.7725 271.416 53.0795 271.416 55.7765V96.9327C271.416 99.6297 269.014 100.744 266.078 99.4078L243.276 88.5237L237.587 93.8682L236.388 85.3884L231.082 82.9748C228.144 81.639 225.742 78.3379 225.742 75.6409V34.1987C225.743 31.5018 228.141 30.3932 231.072 31.7383Z" fill="#A356FF"></path><path d="M237.586 93.8679L242.321 92.0296L245 89.3474L243.275 88.5234L237.586 93.8679Z" fill="#8A3DF9"></path><path d="M275.175 93.5862L245.887 79.8253C245.527 79.6556 245.234 79.2446 245.233 78.9119L245.223 62.1554C245.223 62.0017 245.285 61.8907 245.39 61.8313L245.392 61.8306C245.407 61.8226 245.423 61.8146 245.44 61.8079L246.49 61.3294C246.61 61.27 246.777 61.2753 246.963 61.3628L276.25 75.123C276.609 75.2934 276.904 75.7037 276.904 76.0365L276.914 92.793C276.914 92.9674 276.834 93.0863 276.706 93.1358L275.666 93.6089C275.546 93.679 275.371 93.6777 275.175 93.5862Z" fill="#414042"></path><path opacity="0.3" d="M275.625 76.0137L276.713 75.5186C276.832 75.6849 276.905 75.87 276.905 76.0364L276.915 92.7929C276.915 92.9673 276.835 93.0863 276.708 93.1357L275.668 93.6088C275.658 93.6135 275.648 93.6195 275.637 93.6235L275.625 76.0137Z" fill="#00958F"></path><path d="M275.829 93.287C275.829 93.6205 275.534 93.7555 275.175 93.5857L245.887 79.8249C245.527 79.6552 245.234 79.2442 245.233 78.9114L245.223 62.1549C245.223 61.8222 245.517 61.6865 245.877 61.8569L275.164 75.6177C275.524 75.7868 275.818 76.1971 275.82 76.5312L275.829 93.287Z" fill="#231F20"></path><path d="M255.419 77.127C255.419 77.2099 255.346 77.244 255.255 77.2012L247.907 73.7491C247.817 73.7064 247.743 73.6041 247.743 73.5192L247.742 69.3134C247.742 69.2292 247.816 69.1958 247.905 69.2379L255.255 72.6906C255.344 72.7327 255.417 72.8363 255.418 72.9199L255.419 77.127Z" fill="#F2D031"></path><path d="M273.769 88.0283C273.769 88.0865 273.719 88.1099 273.656 88.0805L268.621 85.7143C268.56 85.6849 268.509 85.6147 268.509 85.5566L268.508 84.6124C268.508 84.5556 268.559 84.5322 268.621 84.5616L273.656 86.9271C273.718 86.9558 273.769 87.0273 273.769 87.0841V88.0283Z" fill="white"></path><path d="M249.75 77.19C249.751 77.2475 249.699 77.2716 249.638 77.2422L247.71 76.2759C247.649 76.2472 247.598 76.1763 247.598 76.1189L247.598 75.1733C247.598 75.1158 247.649 75.0925 247.709 75.1225L249.638 76.0875C249.698 76.1175 249.75 76.1884 249.75 76.2452V77.19Z" fill="white"></path><path d="M266.525 84.8028C266.526 84.8596 266.474 84.883 266.414 84.8529L251.182 77.8873C251.121 77.8579 251.07 77.7871 251.07 77.7296V76.7848C251.07 76.728 251.12 76.7039 251.182 76.7333L266.414 83.7009C266.473 83.7297 266.525 83.7998 266.525 83.8573V84.8028Z" fill="white"></path><path d="M242.962 35.9457C239.651 41.1739 233.478 44.3627 229.605 42.6928C225.889 41.0917 226.155 35.7653 229.782 31.1044C233.132 26.801 238.351 24.3974 241.772 25.4785C245.316 26.5985 246 31.1465 242.962 35.9457Z" fill="#FDD001"></path><path d="M241.373 35.5462C238.805 39.5983 234.018 42.0688 231.016 40.7751C228.135 39.5342 228.343 35.4072 231.159 31.7947C233.757 28.4596 237.805 26.5973 240.456 27.4352C243.203 28.3033 243.731 31.8282 241.373 35.5462Z" fill="#FBB931"></path><path d="M229.782 31.1039C233.131 26.8005 238.35 24.3969 241.771 25.4781C242.026 25.5589 242.264 25.6585 242.489 25.7741C242.086 25.5075 241.632 25.289 241.125 25.1306C237.371 23.9512 231.804 26.2546 228.338 30.5232C224.583 35.148 224.502 40.5273 228.598 42.2393C228.747 42.3021 228.9 42.3569 229.054 42.407C225.927 40.5313 226.344 35.5202 229.782 31.1039Z" fill="#C68812"></path><path d="M239.075 33.7311C239.075 34.3031 238.851 34.9032 238.407 35.5307C237.96 36.1595 237.337 36.7609 236.535 37.3349V38.4408L235.741 38.9427V37.8581C234.795 38.4368 233.966 38.8057 233.253 38.964V37.5394C233.591 37.4812 233.997 37.3616 234.47 37.1812C234.945 37.0001 235.366 36.8037 235.741 36.5905V34.9186L235.35 35.0242C234.584 35.2266 234.041 35.2661 233.722 35.1378C233.402 35.0108 233.242 34.7041 233.242 34.2189C233.242 33.6977 233.463 33.1304 233.901 32.5163C234.341 31.9022 234.954 31.3122 235.741 30.7442V29.9189L236.535 29.4177V30.2209C237.424 29.697 238.225 29.3563 238.94 29.1992L238.394 30.8063C237.79 30.958 237.172 31.2079 236.535 31.5581V33.1498C237.291 32.9433 237.829 32.8371 238.149 32.8337C238.467 32.829 238.702 32.8999 238.85 33.0422C238.999 33.1852 239.075 33.4144 239.075 33.7311ZM234.99 33.1157C234.99 33.2741 235.048 33.3663 235.168 33.395C235.285 33.4231 235.477 33.4077 235.741 33.3496V32.082C235.241 32.4648 234.99 32.8103 234.99 33.1157ZM237.325 34.9159C237.325 34.7642 237.259 34.6787 237.13 34.6573C236.996 34.6366 236.799 34.654 236.535 34.7081V36.0512C237.062 35.6356 237.325 35.258 237.325 34.9159Z" fill="white"></path><path d="M235.895 58.5395C232.053 64.6083 224.888 68.3096 220.39 66.3718C216.075 64.5128 216.386 58.3297 220.596 52.9183C224.485 47.9227 230.541 45.1328 234.514 46.3884C238.628 47.6881 239.424 52.9685 235.895 58.5395Z" fill="#FDD001"></path><path d="M234.056 58.0752C231.073 62.7796 225.517 65.6469 222.032 64.1454C218.687 62.7041 218.93 57.9135 222.199 53.7197C225.214 49.8487 229.912 47.6863 232.991 48.6586C236.179 49.6669 236.793 53.7591 234.056 58.0752Z" fill="#FBB931"></path><path d="M220.599 52.9184C224.489 47.9227 230.545 45.1329 234.518 46.3885C234.812 46.4827 235.091 46.599 235.353 46.7319C234.884 46.4225 234.358 46.1693 233.768 45.9855C229.41 44.617 222.948 47.2899 218.923 52.2455C214.564 57.614 214.471 63.858 219.225 65.8453C219.396 65.9188 219.575 65.9823 219.755 66.0411C216.127 63.862 216.61 58.045 220.599 52.9184Z" fill="#C68812"></path><path d="M231.381 55.9687C231.381 56.6323 231.121 57.3292 230.605 58.0576C230.087 58.7866 229.364 59.4856 228.433 60.1518V61.4355L227.51 62.0182V60.7592C226.411 61.4308 225.449 61.8591 224.623 62.0429V60.389C225.015 60.3216 225.486 60.1826 226.036 59.9727C226.586 59.7636 227.075 59.5351 227.51 59.2878V57.3466L227.056 57.4696C226.168 57.7048 225.538 57.7502 225.166 57.6005C224.795 57.4529 224.609 57.0974 224.609 56.534C224.609 55.9286 224.866 55.2697 225.375 54.5567C225.885 53.8444 226.596 53.1595 227.51 52.4999V51.541L228.433 50.9583V51.8912C229.464 51.2838 230.394 50.8882 231.223 50.7051L230.591 52.5708C229.889 52.7465 229.171 53.0372 228.433 53.4441V55.2918C229.309 55.0519 229.934 54.929 230.305 54.9256C230.675 54.9196 230.948 55.0025 231.12 55.1675C231.293 55.3352 231.381 55.6019 231.381 55.9687ZM226.64 55.2544C226.64 55.4375 226.708 55.5457 226.847 55.5785C226.981 55.6112 227.204 55.5932 227.51 55.525V54.0529C226.93 54.4986 226.64 54.9002 226.64 55.2544ZM229.349 57.3446C229.349 57.1689 229.273 57.0693 229.122 57.0446C228.968 57.0198 228.739 57.0406 228.433 57.104V58.6623C229.045 58.1799 229.349 57.7409 229.349 57.3446Z" fill="white"></path><path d="M225.18 28.0917C222.904 31.6854 218.66 33.8772 215.998 32.7299C213.443 31.6286 213.626 27.9681 216.12 24.7639C218.422 21.8064 222.01 20.1538 224.362 20.8969C226.799 21.6674 227.268 24.794 225.18 28.0917Z" fill="#FDD001"></path><path d="M224.087 27.8169C222.322 30.602 219.032 32.3 216.967 31.4106C214.988 30.5573 215.131 27.7206 217.064 25.2375C218.853 22.9448 221.634 21.6645 223.456 22.2412C225.345 22.8372 225.708 25.2602 224.087 27.8169Z" fill="#FBB931"></path><path d="M216.121 24.7635C218.424 21.806 222.011 20.1534 224.363 20.8965C224.536 20.952 224.702 21.0201 224.856 21.1003C224.579 20.9165 224.268 20.7669 223.92 20.6573C221.339 19.8474 217.513 21.4297 215.13 24.3639C212.549 27.5427 212.493 31.2407 215.308 32.4174C215.411 32.4595 215.517 32.499 215.622 32.533C213.473 31.2434 213.758 27.7993 216.121 24.7635Z" fill="#C68812"></path><path d="M222.511 26.5694C222.511 26.9623 222.358 27.3759 222.051 27.8069C221.744 28.2386 221.315 28.6529 220.763 29.0472V29.8069L220.218 30.1524V29.4073C219.568 29.8049 218.999 30.0575 218.508 30.1665V29.1875C218.74 29.1474 219.019 29.0652 219.346 28.9409C219.673 28.8173 219.963 28.6817 220.218 28.5353V27.386L219.949 27.4581C219.423 27.5978 219.049 27.6245 218.831 27.5363C218.611 27.4488 218.5 27.2383 218.5 26.9042C218.5 26.546 218.653 26.1564 218.953 25.7341C219.256 25.3118 219.676 24.9068 220.218 24.5166V23.9486L220.763 23.6038V24.1564C221.374 23.7962 221.925 23.5624 222.419 23.4541L222.044 24.558C221.627 24.6623 221.2 24.834 220.764 25.0752V26.1698C221.285 26.0268 221.654 25.9539 221.874 25.9519C222.093 25.9486 222.254 25.9967 222.357 26.0949C222.458 26.1938 222.511 26.3522 222.511 26.5694ZM219.702 26.1464C219.702 26.2553 219.743 26.3188 219.824 26.3382C219.904 26.3576 220.036 26.3469 220.217 26.3068V25.4361C219.875 25.6993 219.702 25.9366 219.702 26.1464ZM221.308 27.3846C221.308 27.2804 221.261 27.2216 221.171 27.2062C221.081 27.1915 220.947 27.2035 220.763 27.241V28.1638C221.126 27.8791 221.308 27.6198 221.308 27.3846Z" fill="white"></path><path d="M257.405 51.1722L247.199 45.9921V45.541L257.405 50.6603V51.1722Z" fill="white"></path><path d="M257.405 52.8483L247.199 47.6669V47.2158L257.405 52.3371V52.8483Z" fill="white"></path><path d="M257.405 54.5237L247.199 49.343V48.8926L257.405 54.0125V54.5237Z" fill="white"></path><path d="M257.405 56.2002L247.199 51.0181V50.5684L257.405 55.6877V56.2002Z" fill="white"></path><path d="M257.405 60.8467L247.199 55.6652V55.2148L257.405 60.3341V60.8467Z" fill="white"></path><path d="M106.045 179.971C98.2252 179.971 91.8867 183.006 91.8867 186.747C91.8867 190.489 98.2252 193.521 106.045 193.521C113.865 193.521 120.204 190.489 120.204 186.747C120.204 183.006 113.864 179.971 106.045 179.971ZM105.934 192.745C98.576 192.745 92.6143 190.019 92.6143 186.658C92.6143 183.297 98.576 180.571 105.934 180.571C113.293 180.571 119.254 183.297 119.254 186.658C119.254 190.019 113.293 192.745 105.934 192.745Z" fill="#0076C0"></path><path d="M106.041 181.747C100.27 181.747 95.5938 183.986 95.5938 186.747C95.5938 189.509 100.271 191.745 106.041 191.745C111.812 191.745 116.49 189.508 116.49 186.747C116.489 183.986 111.812 181.747 106.041 181.747ZM106.041 191.038C100.688 191.038 96.3515 189.117 96.3515 186.746C96.3515 184.376 100.689 182.453 106.041 182.453C111.395 182.453 115.73 184.376 115.73 186.746C115.73 189.117 111.394 191.038 106.041 191.038Z" fill="#0076C0"></path><path d="M112.201 186.692C112.201 188.243 109.444 189.501 106.042 189.501C102.64 189.501 99.8828 188.243 99.8828 186.692C99.8828 185.141 102.641 183.883 106.042 183.883C109.444 183.883 112.201 185.141 112.201 186.692Z" fill="#0076C0"></path><path opacity="0.6" d="M118.191 182.097C118.486 182.792 115.663 184.671 111.89 186.293C108.118 187.914 104.822 188.668 104.528 187.974C104.237 187.28 107.059 185.402 110.831 183.779C114.604 182.157 117.901 181.402 118.191 182.097Z" fill="#8F9193"></path><path d="M107.177 188.124C113.664 183.714 116.856 179.751 118.412 176.722C119.401 175.198 119.937 173.305 119.878 171.133C119.687 164.271 113.619 157.267 106.327 155.491C99.1905 153.752 93.5428 157.668 93.48 164.266L93.4566 164.258C93.4566 164.258 91.2076 171.354 105.529 187.723L107.177 188.124ZM106.36 172.662C103.51 171.968 101.138 169.23 101.062 166.548C100.988 163.867 103.24 162.255 106.091 162.948C108.94 163.644 111.311 166.38 111.387 169.062C111.461 171.745 109.211 173.357 106.36 172.662Z" fill="#AC000A"></path><path d="M104.677 155.089C97.5413 153.349 91.8928 157.266 91.8292 163.862L91.8066 163.855C91.8066 163.855 90.302 170.65 105.528 187.722C112.015 183.311 115.206 179.35 116.762 176.319C117.754 174.797 118.288 172.903 118.229 170.732C118.037 163.867 111.97 156.865 104.677 155.089ZM105.168 172.754C102.092 172.005 99.5341 169.051 99.4538 166.156C99.3742 163.262 101.802 161.522 104.876 162.272C107.954 163.022 110.515 165.975 110.597 168.87C110.675 171.765 108.246 173.504 105.168 172.754Z" fill="#FF0023"></path></svg>