<svg xmlns="http://www.w3.org/2000/svg" width="275" height="281" viewBox="0 0 275 281" fill="none"><path d="M130.144 243.033C130.201 232.483 115.433 223.85 97.1584 223.752C78.884 223.653 64.0234 232.126 63.9664 242.676C63.9095 253.226 78.6777 261.859 96.9521 261.957C115.227 262.056 130.087 253.584 130.144 243.033Z" fill="#F2F2F2"></path><path d="M210.604 248.026L137.332 205.738C135.764 204.832 135.96 203.25 137.771 202.205L141.931 199.803C143.742 198.758 146.481 198.644 148.05 199.549L221.322 241.838C222.89 242.743 222.694 244.325 220.883 245.37L216.723 247.772C214.912 248.818 212.172 248.931 210.604 248.026Z" fill="#F2F2F2"></path><path d="M217.815 40.2589L150.392 1.33222C149.126 0.601117 147.983 0.580072 147.093 1.0858L140.441 4.9334L148.271 11.0218L150.185 10.5364V170.311C150.185 174.058 152.463 178.411 155.274 180.034L214.391 223.306V225.973L221.272 221.956L221.272 221.929C222.269 221.266 222.903 219.88 222.903 217.918V49.9818C222.904 46.2347 220.625 41.8813 217.815 40.2589Z" fill="#999999"></path><path d="M207.499 54.5232V46.9827L200.869 51.964L171.892 39.8197L150.181 24.0173V10.5337L148.257 11.0143L140.441 4.93409L147.089 1.08649C147.983 0.588228 149.116 0.605198 150.387 1.32679L217.806 40.2664C219.661 41.3315 221.276 43.5811 222.152 46.0555L207.499 54.5232Z" fill="#E6E6E6"></path><path d="M211.125 225.668L143.702 186.741C140.891 185.119 138.613 180.765 138.613 177.018V9.08097C138.613 5.33384 140.891 3.61165 143.702 5.23405L211.125 44.1608C213.935 45.7838 216.214 50.1365 216.214 53.8836V221.82C216.214 225.567 213.935 227.29 211.125 225.668Z" fill="#CCCCCC"></path><path d="M140.102 178.009V9.80657C140.102 7.07565 141.762 5.81982 143.81 7.00302L211.019 45.8055C213.067 46.988 214.728 50.1609 214.728 52.8918V221.095C214.728 223.825 213.067 225.081 211.019 223.899L143.81 185.096C141.762 183.913 140.102 180.74 140.102 178.009Z" fill="#333333"></path><path d="M212.755 54.6772V217.607C212.755 220.031 211.045 220.989 208.947 219.778L145.89 183.372C143.778 182.153 142.066 179.201 142.066 176.778V13.8653C142.066 11.4426 143.778 10.4664 145.89 11.6856L157.409 18.3368C157.89 18.6144 158.313 19.2233 158.446 19.8309L158.979 22.2652C159.381 24.5969 161.211 27.1894 163.352 28.4262L191.467 44.6583C193.609 45.8952 195.454 45.4234 195.841 43.5471L196.375 41.7292C196.508 41.2757 196.931 41.1549 197.411 41.4325L208.946 48.0918C211.045 49.3029 212.755 52.2537 212.755 54.6772Z" fill="#80C5FF"></path><path d="M198.622 95.121C199.727 95.7584 200.616 97.2993 200.613 98.5728L200.593 105.47C200.59 106.738 199.694 107.254 198.59 106.616L158.162 83.2747C157.058 82.6373 156.168 81.0916 156.172 79.8229L156.192 72.926C156.195 71.6525 157.09 71.142 158.195 71.7795L198.622 95.121Z" fill="#57B2FF"></path><path d="M198.622 119.246C199.727 119.883 200.616 121.428 200.613 122.698L200.593 129.599C200.589 130.869 199.694 131.379 198.59 130.741L158.162 107.4C157.058 106.763 156.168 105.222 156.172 103.953L156.192 97.0516C156.195 95.7822 157.09 95.2677 158.195 95.9051L198.622 119.246Z" fill="#57B2FF"></path><path d="M142.079 114.426V126.1L138.617 124.101V112.426L142.079 114.426Z" fill="#B3B3B3"></path><path d="M200.618 151.294L200.603 156.8C200.587 158.492 199.388 159.184 197.911 158.338L142.078 126.1V114.425L197.942 146.664C199.418 147.526 200.618 149.587 200.618 151.294Z" fill="#57B2FF"></path><path d="M168.126 160.312C169.191 160.927 170.052 162.419 170.049 163.642L169.995 182.545C169.992 183.768 169.124 184.257 168.06 183.643L151.61 174.145C150.545 173.531 149.688 172.046 149.691 170.823L149.745 151.92C149.748 150.697 150.612 150.2 151.676 150.815L168.126 160.312Z" fill="#57B2FF"></path><path d="M198.684 177.922C199.749 178.537 200.606 180.026 200.603 181.249L200.549 200.152C200.546 201.375 199.683 201.867 198.619 201.252L182.169 191.755C181.104 191.141 180.243 189.653 180.246 188.429L180.3 169.527C180.303 168.304 181.171 167.809 182.234 168.424L198.684 177.922Z" fill="#57B2FF"></path><path d="M197.508 57.4237C199.224 58.4148 200.612 60.8192 200.606 62.796L200.56 78.9765C200.555 80.9492 199.158 81.7455 197.441 80.7544L150.751 53.7981C149.034 52.807 147.646 50.4033 147.652 48.4306L147.699 32.2501C147.704 30.2727 149.101 29.4771 150.818 30.4682L197.508 57.4237Z" fill="#57B2FF"></path><path d="M142.079 63.9146V95.6145L138.617 93.6154V61.9148L142.079 63.9146Z" fill="#B3B3B3"></path><path d="M147.246 69.9902L147.169 95.4768C147.169 97.1684 145.97 97.8452 144.478 96.9994L142.078 95.6153V63.9153L144.57 65.3613C146.061 66.222 147.246 68.2979 147.246 69.9902Z" fill="#57B2FF"></path><path d="M165.927 26.0652C165.927 27.3618 165.011 27.8838 163.881 27.2315C162.752 26.5791 161.836 24.9995 161.836 23.7036C161.836 22.407 162.752 21.885 163.881 22.5374C165.011 23.189 165.927 24.7687 165.927 26.0652Z" fill="#666666"></path><path d="M164.995 25.5317C164.995 26.2418 164.494 26.5282 163.875 26.1712C163.256 25.8134 162.754 24.9479 162.754 24.2379C162.754 23.5271 163.256 23.2414 163.875 23.5991C164.494 23.9555 164.995 24.821 164.995 25.5317Z" fill="#333333"></path><path d="M187.238 35.4901L167.233 23.9405C166.903 23.7504 166.637 23.2399 166.637 22.8007V21.9909C166.637 21.5517 166.903 21.3494 167.233 21.5402L187.238 33.0897C187.568 33.2798 187.834 33.7903 187.834 34.2295V35.0387C187.834 35.4785 187.568 35.6801 187.238 35.4901Z" fill="black"></path><path d="M221.045 75.8636C220.648 75.6328 220.098 75.666 219.491 76.0163C218.285 76.7128 217.312 78.3983 217.316 79.7838L217.373 99.7447C217.375 100.429 217.618 100.914 218.012 101.142L219.222 101.845C218.829 101.617 218.585 101.132 218.583 100.448L218.526 80.4871C218.522 79.1009 219.495 77.4161 220.701 76.7196C221.308 76.3693 221.858 76.3367 222.254 76.5668L221.045 75.8636Z" fill="#E6E6E6"></path><path d="M220.706 76.7203C221.913 76.0238 222.892 76.5818 222.895 77.968L222.952 97.9289C222.956 99.3029 221.983 101 220.777 101.696C219.571 102.393 218.592 101.822 218.588 100.449L218.531 80.4878C218.527 79.1016 219.5 77.4168 220.706 76.7203Z" fill="#BFBFBF"></path><path d="M221.058 78.9639C222.048 78.3923 222.851 78.8505 222.854 79.9875L222.9 96.3615C222.903 97.4884 222.106 98.8807 221.116 99.4523C220.126 100.024 219.323 99.5554 219.32 98.4286L219.273 82.0546C219.271 80.9182 220.069 79.5354 221.058 78.9639Z" fill="#CCCCCC"></path><path d="M136.484 24.1518L120.034 14.6543C119.499 14.3455 119.016 14.317 118.666 14.5206L115.574 16.3175C115.924 16.1145 116.408 16.143 116.943 16.4512L133.393 25.9487C134.457 26.563 135.319 28.0558 135.315 29.2783L135.262 48.181C135.26 48.7872 135.046 49.2135 134.701 49.4137L137.793 47.6169C138.138 47.4159 138.352 46.9903 138.354 46.3834L138.407 27.4808C138.41 26.2589 137.549 24.7662 136.484 24.1518Z" fill="#8482FF"></path><path d="M133.396 25.9487C134.46 26.563 135.322 28.0558 135.318 29.2783L135.265 48.181C135.261 49.4042 134.394 49.8937 133.33 49.2793L116.879 39.7818C115.815 39.1675 114.958 37.6822 114.961 36.459L115.015 17.5563C115.018 16.3331 115.881 15.8369 116.946 16.4512L133.396 25.9487Z" fill="#4D4BB7"></path><path d="M123.968 33.8483L122.423 37.9966L115.984 34.2793L119.981 28.641C120.543 27.8495 121.946 28.66 122.507 30.0991L123.968 33.8483Z" fill="white"></path><path d="M126.5 40.3535L122.418 37.9966L123.963 33.8483L126.5 40.3535Z" fill="#E6E6E6"></path><path d="M132.944 44.0708L126.506 40.3535L123.969 33.8483L125.922 28.6098C126.508 27.041 128.858 28.398 129.444 30.6429L132.944 44.0708Z" fill="white"></path><path d="M123.997 26.4755C123.997 27.3865 123.353 27.7531 122.559 27.2948C121.765 26.8366 121.121 25.7261 121.121 24.8151C121.121 23.9041 121.765 23.5375 122.559 23.9957C123.353 24.4546 123.997 25.5645 123.997 26.4755Z" fill="#E6E6E6"></path><path d="M197.01 96.0796L156.582 72.7388C156.027 72.4184 155.525 72.3878 155.162 72.599L152.07 74.3958C152.433 74.1847 152.935 74.2153 153.49 74.5357L193.918 97.8765C195.022 98.5139 195.912 100.055 195.908 101.328L195.889 108.225C195.887 108.857 195.664 109.302 195.305 109.511L198.397 107.714C198.756 107.505 198.979 107.06 198.981 106.429L199 99.5321C199.004 98.258 198.115 96.7177 197.01 96.0796Z" fill="#8482FF"></path><path d="M193.919 97.8766C195.024 98.514 195.913 100.055 195.91 101.328L195.89 108.225C195.887 109.495 194.991 110.009 193.887 109.372L153.459 86.031C152.355 85.3936 151.465 83.8486 151.469 82.5792L151.488 75.6823C151.492 74.4088 152.387 73.8983 153.492 74.5364L193.919 97.8766Z" fill="#4D4BB7"></path><path d="M192.58 102.099L155.503 80.5881C155.079 80.343 154.734 80.603 154.734 81.1692C154.734 81.7353 155.079 82.3931 155.503 82.6382L192.58 104.15C193.005 104.395 193.349 104.135 193.349 103.568C193.349 103.002 193.005 102.345 192.58 102.099Z" fill="white"></path><path d="M197.009 120.205L156.582 96.8644C156.027 96.544 155.525 96.5148 155.162 96.7253L152.07 98.5221C152.433 98.311 152.935 98.3409 153.49 98.6613L193.917 122.002C195.022 122.64 195.911 124.185 195.908 125.454L195.888 132.356C195.886 132.986 195.665 133.429 195.306 133.637L198.398 131.84C198.757 131.632 198.979 131.189 198.98 130.559L199 123.657C199.003 122.388 198.114 120.843 197.009 120.205Z" fill="#8482FF"></path><path d="M193.919 122.002C195.024 122.64 195.913 124.185 195.91 125.454L195.89 132.356C195.887 133.624 194.991 134.135 193.887 133.497L153.459 110.157C152.355 109.519 151.465 107.978 151.469 106.71L151.488 99.8079C151.492 98.5392 152.387 98.0239 153.492 98.662L193.919 122.002Z" fill="#4D4BB7"></path><path d="M192.58 125.838L155.503 104.326C155.079 104.081 154.734 104.341 154.734 104.907C154.734 105.473 155.079 106.131 155.503 106.376L192.58 127.888C193.005 128.133 193.349 127.873 193.349 127.306C193.349 126.74 193.005 126.083 192.58 125.838Z" fill="white"></path><path d="M136.484 143.964L120.034 134.467C119.499 134.158 119.016 134.129 118.666 134.333L115.574 136.13C115.924 135.927 116.408 135.955 116.943 136.264L133.393 145.761C134.457 146.376 135.319 147.868 135.315 149.091L135.262 167.993C135.26 168.6 135.046 169.026 134.701 169.226L137.793 167.429C138.138 167.228 138.352 166.803 138.354 166.196L138.407 147.293C138.41 146.071 137.549 144.579 136.484 143.964Z" fill="#8482FF"></path><path d="M133.396 145.761C134.46 146.376 135.322 147.868 135.318 149.091L135.265 167.993C135.261 169.217 134.394 169.706 133.33 169.092L116.879 159.594C115.815 158.98 114.958 157.495 114.961 156.271L115.015 137.369C115.018 136.146 115.881 135.649 116.946 136.264L133.396 145.761Z" fill="#4D4BB7"></path><path d="M132.861 152.183V152.21L125.024 152.868L117.07 143.066C117.07 142.759 117.288 142.634 117.556 142.789L132.376 151.346C132.643 151.501 132.861 151.875 132.861 152.183Z" fill="white"></path><path d="M125.024 153.49L132.861 152.829V162.371C132.861 162.678 132.644 162.802 132.376 162.648L117.556 154.091C117.288 153.936 117.07 153.562 117.07 153.253V143.682L124.907 153.344L125.024 153.49Z" fill="white"></path><path d="M196.326 147.627L123.134 105.369C122.391 104.94 121.716 104.9 121.229 105.183L118.137 106.98C118.623 106.697 119.298 106.737 120.042 107.166L193.234 149.424C194.715 150.279 195.907 152.344 195.903 154.045L195.887 159.554C195.884 160.401 195.586 160.996 195.105 161.276L198.197 159.479C198.678 159.2 198.976 158.604 198.979 157.758L198.995 152.249C198.999 150.547 197.807 148.482 196.326 147.627Z" fill="#8482FF"></path><path d="M193.23 149.424C194.71 150.279 195.903 152.344 195.898 154.046L195.882 159.554C195.878 161.255 194.678 161.944 193.196 161.089L120.004 118.831C118.528 117.979 117.331 115.906 117.336 114.205L117.352 108.696C117.356 106.995 118.561 106.314 120.037 107.166L193.23 149.424Z" fill="#4D4BB7"></path><path d="M191.299 153.578L120.847 112.656C120.422 112.411 120.078 112.671 120.078 113.238C120.078 113.804 120.422 114.462 120.847 114.707L191.299 155.628C191.724 155.873 192.069 155.613 192.069 155.046C192.069 154.481 191.724 153.823 191.299 153.578Z" fill="white"></path><path d="M166.52 161.271L150.07 151.774C149.535 151.465 149.052 151.437 148.701 151.64L145.609 153.437C145.959 153.234 146.443 153.262 146.977 153.57L163.428 163.068C164.492 163.682 165.354 165.174 165.35 166.397L165.297 185.3C165.295 185.906 165.081 186.333 164.736 186.534L167.828 184.737C168.173 184.536 168.387 184.11 168.389 183.503L168.442 164.601C168.446 163.378 167.584 161.886 166.52 161.271Z" fill="#8482FF"></path><path d="M163.431 163.068C164.495 163.683 165.357 165.175 165.353 166.398L165.3 185.301C165.296 186.524 164.429 187.013 163.365 186.399L146.914 176.902C145.85 176.287 144.993 174.802 144.996 173.579L145.05 154.676C145.053 153.453 145.917 152.957 146.98 153.571L163.431 163.068Z" fill="#4D4BB7"></path><path d="M161.968 180.059L148.381 172.214C147.561 171.741 146.895 170.591 146.895 169.65V162.162C146.895 161.221 147.562 160.841 148.381 161.314L161.968 169.159C162.788 169.632 163.455 170.783 163.455 171.723V179.21C163.455 180.153 162.788 180.533 161.968 180.059ZM148.381 162.027C147.903 161.75 147.514 161.972 147.514 162.521V170.008C147.514 170.557 147.903 171.228 148.381 171.504L161.968 179.349C162.446 179.624 162.835 179.403 162.835 178.854V171.367C162.835 170.818 162.446 170.147 161.968 169.871L148.381 162.027Z" fill="white"></path><path d="M155.172 174.917C153.18 173.766 151.559 170.97 151.559 168.684C151.559 166.398 153.18 165.473 155.172 166.624C157.164 167.774 158.785 170.57 158.785 172.857C158.785 175.143 157.164 176.067 155.172 174.917ZM155.172 167.335C153.521 166.382 152.178 167.148 152.178 169.042C152.178 170.936 153.521 173.253 155.172 174.206C156.823 175.159 158.166 174.393 158.166 172.499C158.166 170.605 156.823 168.288 155.172 167.335Z" fill="white"></path><path d="M159.459 168.296L150.879 163.342V161.547C150.879 160.93 151.317 160.681 151.854 160.991L158.482 164.817C159.02 165.128 159.458 165.883 159.458 166.5V168.296H159.459ZM151.499 162.989L158.839 167.226V166.142C158.839 165.917 158.679 165.641 158.482 165.528L151.854 161.701C151.658 161.588 151.498 161.679 151.498 161.904L151.499 162.989Z" fill="white"></path><path d="M197.075 178.881L180.624 169.384C180.089 169.074 179.603 169.046 179.252 169.25L176.16 171.047C176.511 170.843 176.996 170.872 177.532 171.181L193.982 180.678C195.047 181.292 195.904 182.782 195.9 184.006L195.847 202.908C195.845 203.516 195.631 203.943 195.286 204.144L198.378 202.347C198.724 202.146 198.938 201.719 198.939 201.111L198.993 182.209C198.997 180.986 198.139 179.496 197.075 178.881Z" fill="#8482FF"></path><path d="M193.982 180.678C195.046 181.292 195.904 182.782 195.9 184.006L195.847 202.908C195.843 204.132 194.98 204.623 193.915 204.009L177.465 194.511C176.401 193.897 175.54 192.41 175.543 191.186L175.597 172.284C175.6 171.06 176.468 170.566 177.531 171.181L193.982 180.678Z" fill="#4D4BB7"></path><path d="M185.8 180.266C182.04 178.095 178.992 179.229 178.992 182.799C178.992 185.11 180.274 187.873 182.197 190.125C182.107 190.728 181.716 191.993 179.996 191.021C179.996 191.021 182.371 193.64 184.621 192.408C185.005 192.693 185.397 192.959 185.8 193.192C189.56 195.363 192.608 194.229 192.608 190.66C192.608 187.09 189.56 182.437 185.8 180.266Z" fill="white"></path><path d="M195.919 58.383L149.229 31.4267C148.365 30.9285 147.583 30.8816 147.018 31.2102L143.926 33.007C144.491 32.6785 145.274 32.7253 146.137 33.2236L192.827 60.1805C194.543 61.1716 195.931 63.5753 195.925 65.5528L195.879 81.7333C195.876 82.7135 195.53 83.4032 194.972 83.727L198.064 81.9302C198.622 81.6057 198.969 80.9167 198.971 79.9365L199.017 63.7559C199.024 61.7785 197.635 59.3741 195.919 58.383Z" fill="#8482FF"></path><path d="M192.828 60.1798C194.545 61.1709 195.933 63.5753 195.927 65.552L195.881 81.7326C195.875 83.7053 194.478 84.5015 192.761 83.5104L146.072 56.5542C144.355 55.5631 142.967 53.1587 142.973 51.186L143.019 35.0055C143.024 33.028 144.421 32.2324 146.138 33.2235L192.828 60.1798Z" fill="#4D4BB7"></path><path d="M191.643 64.0641L147.621 38.5442C147.196 38.2992 146.852 38.5591 146.852 39.1253C146.852 39.6914 147.196 40.3492 147.621 40.5943L191.643 66.1141C192.068 66.3592 192.412 66.0992 192.412 65.5331C192.412 64.9669 192.068 64.3091 191.643 64.0641Z" fill="white"></path><path d="M191.643 70.1749L147.621 44.655C147.196 44.4099 146.852 44.6699 146.852 45.2361C146.852 45.8022 147.196 46.46 147.621 46.7051L191.643 72.2249C192.068 72.47 192.412 72.21 192.412 71.6438C192.412 71.0777 192.068 70.4199 191.643 70.1749Z" fill="white"></path><path d="M191.643 76.2857L147.621 50.7658C147.196 50.5208 146.852 50.7808 146.852 51.3469C146.852 51.913 147.196 52.5708 147.621 52.8159L191.643 78.3358C192.068 78.5808 192.412 78.3208 192.412 77.7547C192.412 77.1885 192.068 76.5308 191.643 76.2857Z" fill="white"></path><path d="M120.383 64.6479C120.339 64.5019 120.265 64.3641 120.245 64.2128C120.224 64.0553 120.261 63.8957 120.265 63.7369C120.274 63.3839 120.103 63.0316 119.821 62.8191C119.709 62.7349 119.58 62.6711 119.487 62.5666C119.398 62.4682 119.349 62.3419 119.278 62.2299C118.932 61.6794 118.173 61.5796 117.525 61.6359C116.182 61.7527 114.907 62.2917 113.734 62.9562C112.137 63.8611 110.657 65.0362 109.646 66.5676C109.25 67.167 108.93 67.8146 108.666 68.4819C108.434 69.0684 108.244 69.6705 108.076 70.2788C107.965 70.6827 107.818 71.0777 107.732 71.4891C107.693 71.6778 107.664 71.876 107.652 72.0675C107.641 72.2501 107.668 72.4273 107.558 72.5881C107.425 72.7823 94.9193 88.417 94.032 89.5201C93.25 90.4929 92.6174 91.6951 91.705 92.5321C89.8043 94.276 87.3368 95.5312 85.0349 96.6492C83.1633 97.5582 79.8466 98.3809 80.6727 101.246C80.9164 102.091 81.6149 102.71 82.2191 103.351C83.2428 104.435 84.0696 105.705 84.6479 107.079C84.6825 107.162 84.7219 107.25 84.8 107.292C84.9113 107.351 85.0457 107.291 85.157 107.232C88.4188 105.492 97.3434 99.1935 98.8551 98.2757C98.8565 98.2282 98.8477 98.1813 98.8477 98.1338C99.3045 97.9071 99.6575 97.4862 99.9677 97.068C101.068 95.5889 102.101 94.0602 103.077 92.4968C104.054 90.9328 104.976 89.3348 105.857 87.7151C106.739 86.0921 107.581 84.4466 108.399 82.7902C109.218 81.1319 111.115 77.1193 111.272 76.7847C111.389 76.5342 111.457 76.1567 111.732 76.025C111.908 75.9409 112.11 75.9436 112.289 75.8485C112.491 75.742 112.669 75.5926 112.836 75.4379C114.656 73.753 115.678 71.3988 117.11 69.3732C117.365 69.0121 117.638 68.657 117.98 68.3774C118.629 67.8458 119.527 67.5818 119.966 66.8677C120.144 66.5785 120.227 66.2431 120.307 65.9139C120.409 65.4971 120.509 65.0565 120.383 64.6479Z" fill="#FFB78C"></path><path d="M72.2712 247.358C72.3663 248.489 72.7145 249.536 73.576 250.132C74.0735 250.476 74.6953 250.592 75.3002 250.616C76.9565 250.68 78.6292 250.098 79.8877 249.02C81.3078 247.803 82.1835 246.019 83.6973 244.921C84.5037 244.336 85.4473 243.979 86.3563 243.571C88.6052 242.563 90.698 241.206 92.5377 239.566C92.9354 239.211 93.4093 238.773 93.6034 238.262C93.9157 237.439 93.5871 236.509 92.8621 236.061C92.4155 235.786 91.8955 235.655 91.3796 235.563C89.54 235.234 87.6515 235.351 85.7901 235.52C83.4224 235.736 81.0356 236.039 78.8111 236.877C77.8444 237.241 76.9138 237.71 76.0625 238.296C75.7407 238.517 75.2751 239.08 74.8922 239.147C74.7551 239.172 73.8454 238.852 73.8624 238.798C73.3404 240.451 72.817 242.11 72.5285 243.82C72.3656 244.782 72.1667 246.121 72.2712 247.358Z" fill="#4D4BB7"></path><path d="M89.4347 159.581C89.3438 158.936 89.0111 158.356 88.7084 157.78C86.659 153.879 85.7283 149.534 84.2437 145.413C83.5269 143.425 82.6831 141.467 81.5155 139.698C80.8258 138.652 78.9149 135.856 77.2762 136.44C77.042 136.524 76.8547 136.699 76.6755 136.872C73.673 139.772 71.1837 143.199 69.3326 146.939C67.442 150.759 66.582 154.409 66.5704 158.67C66.5616 161.836 67.0395 165.006 68.0319 168.014C68.3822 169.077 68.7929 170.124 69.0115 171.22C69.243 172.379 69.2565 173.569 69.2688 174.75C69.317 179.351 69.3652 183.952 69.4134 188.553C69.4358 190.668 69.4398 192.79 69.5885 194.886C69.7372 196.984 69.7731 199.257 69.1771 201.29C68.5506 203.43 68.1419 205.636 67.8724 207.847C67.1651 213.666 68.3924 219.526 69.6123 225.259C70.712 230.427 71.8123 235.594 72.912 240.762C72.9765 241.064 73.0492 241.382 73.2644 241.603C73.4347 241.778 73.6737 241.868 73.9086 241.935C75.3253 242.339 76.8703 242.091 78.2178 241.495C79.5659 240.9 80.7423 239.978 81.8481 239.005C82.14 238.748 82.434 238.479 82.6105 238.133C83.049 237.27 82.6403 236.24 82.2738 235.345C78.9876 227.328 79.2414 218.224 81.2358 209.792C81.9181 206.909 82.7965 204.063 83.1922 201.127C83.2221 200.907 83.237 200.684 83.2336 200.462C83.237 200.447 83.2431 200.433 83.2465 200.418C86.3976 187.429 87.9908 174.117 89.4055 160.826C89.4496 160.412 89.4931 159.993 89.4347 159.581Z" fill="#333333"></path><path d="M113.282 234.134C111.401 234.049 109.506 234.037 107.637 234.294C106.221 234.489 104.641 234.961 103.556 235.931C102.825 236.584 102.262 237.404 101.745 238.236C100.334 240.508 97.7326 245.814 101.49 247.348C102.138 247.612 102.865 247.618 103.556 247.512C105.938 247.148 107.986 245.547 110.359 245.128C111.241 244.972 112.141 244.985 113.037 244.96C116.24 244.872 119.519 244.267 122.217 242.539C123.516 241.707 124.357 240.496 124.721 238.987C125.216 236.935 123.963 235.663 122.069 235.23C119.187 234.571 116.234 234.265 113.282 234.134Z" fill="#8482FF"></path><path d="M110.184 232.697C108.272 226.362 107.312 219.742 107.346 213.125C107.373 207.831 106.653 202.265 107.318 197.026C107.988 191.75 107.576 185.992 106.633 180.763C105.107 172.3 101.374 164.276 100.629 155.708C100.348 152.479 100.497 149.208 99.936 146.016C96.1074 147.994 91.5661 148.556 87.3702 147.571C85.183 147.058 83.1235 146.147 81.0259 145.366C80.1509 145.001 79.2114 144.923 78.3262 144.601C77.5381 144.314 77.0161 143.836 76.3596 143.288C73.0429 147.289 71.0709 152.384 70.8299 157.576C70.6473 161.513 71.4605 165.488 73.1433 169.05C74.9069 172.784 77.756 175.414 80.8202 178.1C83.7765 180.692 86.8869 183.219 89.0205 186.522C90.8648 189.376 91.8491 193.016 92.756 196.26C93.7818 199.931 94.5801 203.689 94.7525 207.505C94.9113 211.026 94.4334 214.281 95.0484 217.813C95.3274 219.415 95.7144 220.998 96.2072 222.547C98.0061 228.199 101.238 233.621 101.034 239.549C101.025 239.8 101.017 240.075 101.171 240.274C101.288 240.426 101.477 240.502 101.66 240.56C104.094 241.343 106.769 240.28 108.802 238.729C109.5 238.196 110.175 237.574 110.506 236.759C111.025 235.474 110.585 234.024 110.184 232.697Z" fill="#424242"></path><path d="M66.6284 100.346C65.9095 104.232 66.3066 108.506 67.054 112.164C68.1408 117.482 69.6628 122.711 71.5981 127.782C72.3869 129.849 73.2544 131.93 73.4316 134.135C73.7425 138.009 71.9036 141.696 70.068 145.121C69.897 145.44 69.7205 145.783 69.7564 146.144C69.7863 146.437 69.9533 146.696 70.123 146.938C72.3509 150.112 75.7267 152.374 79.3775 153.681C83.0282 154.988 86.9512 155.392 90.8286 155.343C94.1209 155.301 97.4893 154.919 100.439 153.456C100.604 148.62 100.771 143.784 100.727 138.945C100.687 134.396 99.5909 129.616 100.675 125.125C101.067 123.5 101.739 121.956 102.164 120.34C102.616 118.617 102.78 116.82 102.65 115.044C102.543 113.597 102.124 111.994 100.87 111.266C100.479 111.039 100.036 110.917 99.6357 110.707C97.7357 109.708 97.2755 107.035 95.4433 105.917C94.7801 105.513 94.0008 105.355 93.2527 105.146C85.2392 102.904 79.1874 93.0616 70.269 94.4783C69.7924 94.5536 69.2996 94.6412 68.9004 94.9127C68.4694 95.2053 68.1979 95.6778 67.9698 96.1462C67.3344 97.4543 66.9013 98.8724 66.6284 100.346Z" fill="#D9D9D9"></path><path d="M70.5549 97.2568C70.4415 97.4781 70.3383 97.7035 70.2609 97.939C69.6962 99.6619 71.3002 100.804 72.6267 101.538C74.7622 102.722 77.2257 103.249 79.6675 103.259C81.1432 103.265 82.6149 103.087 84.0568 102.781C84.6127 102.663 84.9956 102.65 85.2753 102.149C85.6018 101.564 85.6411 100.836 85.6764 100.183C85.7565 98.7081 85.7966 97.2303 85.8366 95.7539C85.8984 93.4655 85.9609 91.1779 86.0226 88.8896C86.0484 87.9236 84.7023 88.1999 83.9841 88.1069C82.9435 87.9718 81.9042 87.8224 80.8731 87.6276C78.8291 87.242 76.8035 86.6786 74.9428 85.733C74.4507 85.4825 73.6673 84.8811 73.1086 84.8519C72.4094 84.8152 72.4189 85.7398 72.3422 86.3025C72.1297 87.8598 72.1698 89.436 72.1168 91.0034C72.0551 92.8397 71.8562 94.7207 71.0314 96.3621C70.8814 96.6635 70.709 96.9568 70.5549 97.2568Z" fill="#FFB78C"></path><path d="M89.9292 74.5283C90.1376 74.8609 90.3467 75.2105 90.3888 75.6008C90.4288 75.9708 90.3141 76.3401 90.3127 76.7127C90.3073 78.01 91.5726 78.8823 92.6011 79.6724C93.0084 79.9854 93.4374 80.413 93.3729 80.9228C93.3471 81.1271 93.2426 81.3111 93.1496 81.4951C92.4253 82.9342 92.3818 84.5715 92.4734 86.1471C92.5318 87.1484 93.3023 89.829 92.2895 90.4712C91.0873 91.2322 89.7833 91.8316 88.4229 92.2484C87.6239 92.4928 86.66 92.6822 85.8922 92.2416C85.2317 91.8628 84.7857 91.0937 84.1884 90.5968C83.4776 90.0055 82.5225 90.8581 81.7561 91.1107C80.7562 91.4406 79.7156 91.6456 78.6668 91.7291C76.6282 91.8913 74.551 91.5987 72.6415 90.8663C71.4189 90.3972 70.25 89.753 69.2867 88.8658C68.2108 87.8754 67.424 86.6155 66.699 85.3454C65.729 83.647 64.8282 81.8494 64.6198 79.9046C64.3985 77.8348 65.004 75.78 65.9883 73.9743C66.9624 72.1877 68.1816 70.8701 69.7809 69.6509C72.7331 67.3992 76.6636 66.939 80.3767 66.9349C81.7283 66.9335 82.8511 67.0449 84.0838 67.5689C85.379 68.1194 86.4332 69.008 86.9933 70.2788C87.6667 71.8035 89.044 73.1115 89.9292 74.5283Z" fill="#FFE5CC"></path><path d="M81.8601 84.1289C82.302 83.3822 83.0114 82.8283 83.9312 82.328C85.87 81.2751 86.2202 78.8734 86.468 76.9211C86.7871 74.4094 86.728 71.5923 85.8469 69.2015C85.0391 67.0102 82.3231 66.1257 80.2316 65.8678C77.6507 65.5501 74.9829 65.8372 72.571 66.8093C68.9855 68.2545 65.9932 71.6337 64.3599 75.0652C62.371 79.2441 62.3363 83.5777 62.6405 88.079C62.7436 89.6003 62.7966 90.666 63.859 91.8621C64.5093 92.5939 65.3334 93.1499 66.186 93.6305C70.8312 96.248 76.623 96.7341 81.6395 94.9277C82.3903 94.6575 83.1356 94.331 83.7405 93.811C85.2339 92.526 85.0031 90.7325 83.7771 89.3382C83.1492 88.6241 82.078 88.5257 81.5981 87.6249C81.3734 87.2026 81.3367 86.7064 81.3381 86.2278C81.3415 85.3759 81.5234 84.6971 81.8601 84.1289Z" fill="#733118"></path><path d="M142.969 66.3266L119.356 52.6937C118.61 52.2633 117.935 52.2232 117.448 52.507L114.355 54.3038C114.843 54.0208 115.518 54.0601 116.264 54.4905L139.877 68.1234C141.358 68.9781 142.555 71.0505 142.55 72.7476L142.478 98.2254C142.476 99.0678 142.178 99.6611 141.697 99.9401L144.789 98.1432C145.269 97.8642 145.567 97.2709 145.57 96.4285L145.643 70.9507C145.646 69.2537 144.449 67.1812 142.969 66.3266Z" fill="#8482FF"></path><path d="M139.878 68.1234C141.359 68.9781 142.556 71.0505 142.551 72.7476L142.479 98.2254C142.474 99.9218 141.27 100.608 139.79 99.7534L116.176 86.1205C114.695 85.2659 113.498 83.1934 113.504 81.4963L113.576 56.0186C113.581 54.3222 114.785 53.6359 116.265 54.4905L139.878 68.1234Z" fill="#4D4BB7"></path><path d="M127.221 68.5749C123.065 66.1752 119.699 68.0943 119.699 72.863C119.699 77.6277 123.065 83.4365 127.221 85.8361C131.373 88.2337 134.742 86.3127 134.742 81.548C134.742 76.7785 131.373 70.9718 127.221 68.5749ZM125.384 80.1231V72.3634L131.241 79.6262L125.384 80.1231Z" fill="white"></path><path d="M103.351 122.553C110.81 123.195 118.316 122.644 125.775 122.001C125.811 121.999 125.847 121.99 125.884 121.986C127.765 121.805 128.198 120.223 128.937 118.746C129.597 117.425 130.188 116.071 130.767 114.712C133.874 107.411 136.603 99.951 138.982 92.3807C139.414 91.7107 140.125 91.2389 140.758 90.7318C143.337 88.6641 145.442 86.0079 146.865 83.0237C147.319 82.0693 147.701 80.9214 147.201 79.9901C147.045 79.7002 146.811 79.4517 146.696 79.1436C146.558 78.777 146.604 78.3643 146.488 77.9902C146.226 77.1451 145.243 76.7324 144.828 75.9517C144.662 75.6408 144.556 75.243 144.227 75.1181C143.955 75.0149 143.641 75.1629 143.455 75.3856C143.268 75.6082 143.176 75.8926 143.071 76.1635C142.467 77.7119 141.257 79.0146 139.757 79.7307C139.467 79.8692 139.108 79.9806 138.844 79.7993C139.304 79.0621 139.645 78.2495 139.848 77.4044C139.966 76.915 140.033 76.3814 139.828 75.9218C139.622 75.4623 139.052 75.1358 138.598 75.3543C138.154 75.5682 138.047 76.1363 137.938 76.617C137.756 77.42 137.421 78.1885 136.956 78.868C136.474 79.5733 135.857 80.1795 135.385 80.8922C134.986 81.4943 134.7 82.163 134.498 82.8547C134.131 84.1051 134.003 85.4424 133.97 86.741C133.952 87.4327 133.866 88.1516 133.725 88.861C133.696 88.9343 133.666 89.0083 133.64 89.0809C132.86 91.2233 122.409 110.948 120.894 113.236C120.45 113.232 120.011 113.223 119.596 113.174C114.661 112.6 109.681 111.797 105.145 109.769C102.849 108.742 100.678 107.406 98.2672 106.687C95.8567 105.968 93.0572 105.96 91.0303 107.449C89.4133 108.637 88.5878 110.558 88.1948 112.472C86.6796 119.853 96.0543 121.707 101.378 122.35C102.035 122.43 102.693 122.496 103.351 122.553Z" fill="#FFE5CC"></path><path d="M111.306 116.616C111.331 119.176 110.701 121.608 109.491 123.862C109.057 124.67 108.62 124.967 107.659 124.949C106.975 124.937 106.295 124.853 105.617 124.76C101.795 124.235 98.0177 123.396 94.3331 122.257C92.5756 121.713 91.072 121.32 89.5147 120.279C88.6642 119.71 87.9141 118.981 87.3805 118.104C86.5096 116.67 86.1993 114.957 86.515 113.309C87.0852 110.336 89.1129 107.593 91.9456 106.433C92.3176 106.28 92.7018 106.154 93.0969 106.078C93.9149 105.92 94.7587 105.984 95.5828 106.105C97.9234 106.449 100.169 107.249 102.395 108.048C104.756 108.895 107.115 109.747 109.472 110.603C110.501 110.977 110.56 111.871 110.82 112.82C111.161 114.063 111.294 115.327 111.306 116.616Z" fill="#F2F2F2"></path><path d="M111.48 64.8801C110.833 65.2907 110.131 65.6519 109.638 66.2377C108.915 67.0957 108.758 68.3095 108.898 69.4228C108.959 69.9095 109.077 70.4037 109.36 70.8049C109.642 71.2061 110.117 71.4986 110.606 71.4525C111.061 71.4097 111.444 71.09 111.729 70.7322C112.03 70.3528 112.256 69.9136 112.39 69.4472C112.659 68.5118 112.572 67.4453 113.126 66.6457C113.38 66.2798 113.745 66.0089 114.082 65.7184C114.508 65.3525 114.901 64.9439 115.213 64.4775C115.438 64.1415 115.622 63.7715 115.693 63.3731C115.764 62.9746 115.713 62.5462 115.498 62.2034C114.901 61.2558 114.129 62.6114 113.733 63.0282C113.061 63.7349 112.302 64.358 111.48 64.8801Z" fill="#FFE5CC"></path><path d="M211.013 149.577C215.398 150.607 219.781 151.637 224.166 152.666C226.794 153.283 229.439 153.906 231.92 154.97C234.401 156.035 236.737 157.576 238.354 159.738C238.445 159.861 238.537 160.03 238.451 160.157C238.396 160.238 238.29 160.264 238.195 160.283C234.803 160.975 231.353 161.669 227.907 161.358C225.253 161.118 222.684 160.288 220.218 159.276C217.47 158.15 214.816 156.794 212.293 155.226C210.287 153.98 208.295 152.526 207.174 150.447C207.039 150.198 206.915 149.909 207.001 149.639C207.072 149.413 207.273 149.257 207.471 149.128C208.036 148.756 208.536 148.386 209.136 148.807C209.713 149.212 210.33 149.417 211.013 149.577Z" fill="#FFB78C"></path><path d="M265.843 177.786C265.843 183.818 261.591 191.172 256.322 194.194C253.661 195.732 251.254 195.866 249.529 194.836C249.489 194.823 249.462 194.809 249.422 194.783C246.28 192.911 242.655 191.868 239.085 191.266C234.097 190.437 229.002 190.45 223.947 190.076C221.781 189.916 219.587 189.675 217.555 188.886C215.242 188.003 213.249 186.465 211.377 184.834C209.759 183.43 208.195 181.932 206.643 180.448C202.016 176.008 197.389 171.569 192.749 167.142C192.227 166.621 191.625 166.086 191.224 165.471C190.836 164.882 191.064 164.014 191.371 163.439C191.705 162.824 192.227 162.329 192.761 161.888C192.788 161.875 192.815 161.847 192.842 161.821C192.908 161.741 192.962 161.647 192.935 161.554C192.908 161.513 192.868 161.473 192.828 161.446C192.801 161.42 192.774 161.406 192.748 161.379C192.748 161.379 192.748 161.365 192.734 161.365C191.652 160.483 190.582 159.613 189.498 158.745C188.83 158.21 188.121 157.608 187.934 156.766C187.76 156.003 188.094 155.175 188.669 154.64C188.95 154.386 189.284 154.185 189.646 154.065C189.792 154.011 189.927 153.998 190.06 153.998C190.314 153.998 190.555 154.038 190.809 153.972C190.274 153.584 189.739 153.196 189.204 152.822C189.204 152.795 189.191 152.795 189.178 152.808C188.683 152.433 188.188 152.086 187.694 151.725C187.133 151.31 186.638 150.735 186.584 150.013C186.504 148.957 187.239 147.913 188.162 147.472C189.42 146.857 191.117 147.392 192.294 148.127C192.428 148.207 192.548 148.301 192.669 148.381C192.549 148.287 192.442 147.966 192.348 147.832C192.214 147.619 192.054 147.418 191.907 147.217C191.827 147.11 191.747 147.017 191.666 146.91C191.425 146.615 191.198 146.308 190.997 145.987C190.502 145.158 190.115 144.142 190.69 143.246C191.131 142.564 191.987 142.256 192.789 142.243C193.725 142.216 194.621 142.484 195.504 142.778C198.66 143.808 201.748 145.011 204.758 146.375C206.149 147.004 207.512 147.645 208.782 148.475C210.106 149.343 211.256 150.387 212.473 151.377C216.405 154.56 221.339 156.471 226.38 156.752C228.814 156.886 231.275 156.658 233.668 157.086C236.115 157.527 238.389 158.624 240.622 159.734C244.286 161.579 255.265 167.556 262.379 171.354C262.727 171.542 263.074 171.716 263.396 171.889C264.921 172.945 265.843 174.978 265.843 177.786Z" fill="#FFE5CC"></path><path d="M265.841 177.786C265.841 183.818 261.589 191.172 256.32 194.194C253.659 195.732 251.252 195.866 249.527 194.837C249.487 194.823 249.46 194.809 249.42 194.783C247.802 193.767 246.812 191.694 246.812 188.779C246.812 182.747 251.065 175.393 256.32 172.357C258.62 171.033 260.733 170.752 262.378 171.355C262.739 171.488 263.073 171.662 263.394 171.889C264.919 172.945 265.841 174.978 265.841 177.786Z" fill="#FFB78C"></path><path d="M191.048 143.281C190.724 143.69 190.599 144.226 190.577 144.747C190.569 144.943 190.575 145.141 190.633 145.328C190.698 145.537 190.824 145.721 190.958 145.893C191.63 146.763 192.511 147.446 193.413 148.075C194.049 147.195 194.145 146.048 194.22 144.965C194.224 144.891 194.23 144.814 194.207 144.743C194.186 144.677 194.144 144.62 194.102 144.565C193.77 144.127 193.437 143.689 193.104 143.252C192.829 142.889 192.646 142.662 192.185 142.709C191.73 142.755 191.339 142.913 191.048 143.281Z" fill="#FFB78C"></path><path d="M186.682 149.567C186.587 149.954 186.618 150.361 186.675 150.755C186.708 150.979 186.754 151.212 186.897 151.387C186.997 151.508 187.134 151.59 187.269 151.667C188.258 152.228 189.324 152.652 190.427 152.924C190.711 152.097 190.741 151.207 190.768 150.334C190.772 150.215 190.775 150.093 190.73 149.983C190.698 149.903 190.643 149.836 190.587 149.772C190.019 149.117 189.246 148.645 188.407 148.43C187.974 148.318 187.735 148.238 187.361 148.529C187.03 148.788 186.782 149.157 186.682 149.567Z" fill="#FFB78C"></path><path d="M188.182 156.498C188.082 156.828 187.991 157.189 188.113 157.511C188.19 157.717 188.346 157.882 188.502 158.037C189.412 158.95 190.449 159.755 191.631 160.266C191.704 159.708 191.775 159.144 191.738 158.582C191.701 158.02 191.548 157.452 191.215 156.999C190.801 156.437 190.161 156.114 189.521 155.88C189.309 155.802 188.89 155.57 188.665 155.65C188.389 155.748 188.256 156.255 188.182 156.498Z" fill="#FFB78C"></path><path d="M191.807 165.597C192.53 166.089 193.253 166.582 193.977 167.075C194.013 167.1 194.056 167.125 194.096 167.108C194.14 167.089 194.15 167.032 194.153 166.983C194.189 166.42 194.223 165.832 194.004 165.312C193.821 164.875 193.481 164.533 193.137 164.219C192.813 163.924 192.448 163.536 192.013 163.414C191.279 163.209 190.67 163.909 190.895 164.621C191.031 165.058 191.448 165.352 191.807 165.597Z" fill="#FFB78C"></path><path d="M213.727 182.707C211.294 181.677 209.381 179.739 207.536 177.84C204.634 174.884 201.745 171.916 198.857 168.947C197.774 167.837 196.677 166.728 195.741 165.484C194.751 164.187 193.949 162.903 192.839 161.82C192.906 161.74 192.959 161.647 192.933 161.553C192.906 161.513 192.866 161.473 192.826 161.446C192.799 161.419 192.773 161.406 192.746 161.378C194.137 162.194 195.26 163.478 196.303 164.668C198.924 167.704 201.451 170.819 204.313 173.614C207.429 176.676 210.933 179.364 213.727 182.707Z" fill="#FFB78C"></path><path d="M211.996 174.55C209.242 172.53 206.942 169.989 204.655 167.462C202.716 165.309 200.79 163.169 198.851 161.03C198.022 160.108 197.193 159.185 196.256 158.369C195.388 157.607 194.438 156.952 193.488 156.297C192.432 155.574 191.389 154.759 190.279 154.131C190.199 154.091 190.119 154.05 190.051 153.997C190.305 153.997 190.546 154.037 190.8 153.97C190.265 153.583 189.73 153.194 189.195 152.82C191.75 154.01 194.157 155.936 196.176 157.862C197.232 158.865 198.222 159.935 199.211 161.018C203.425 165.563 207.691 170.084 211.996 174.55Z" fill="#FFB78C"></path><path d="M213.139 165.042C211.602 164.253 210.358 163.023 209.101 161.846C205.156 158.102 200.931 154.638 196.491 151.482C195.114 150.506 193.643 149.543 192.453 148.327C192.399 148.259 192.333 148.193 192.293 148.126C192.426 148.206 192.547 148.3 192.667 148.38C192.547 148.287 192.44 147.965 192.346 147.832C192.213 147.618 192.052 147.417 191.905 147.217C191.825 147.109 191.745 147.016 191.664 146.909C192.065 147.177 192.466 147.444 192.854 147.725C196.558 150.32 199.942 153.302 203.311 156.297C204.541 157.393 205.772 158.49 206.989 159.573C209.048 161.405 211.093 163.223 213.139 165.042Z" fill="#FFB78C"></path><path d="M219.61 165.925C219.988 165.965 220.368 165.966 220.746 165.929C220.936 165.911 221.135 165.879 221.286 165.763C221.415 165.664 221.495 165.515 221.55 165.362C221.733 164.857 221.672 164.285 221.464 163.789C220.918 162.489 218.909 160.632 217.693 162.26C216.591 163.739 217.998 165.756 219.61 165.925Z" fill="#FFB78C"></path><path d="M216.784 176.725C217.012 176.746 217.247 176.748 217.463 176.674C217.949 176.506 218.238 175.951 218.188 175.44C218.029 173.813 215.169 172.979 214.039 174.068C212.574 175.479 215.756 176.633 216.784 176.725Z" fill="#FFB78C"></path><path d="M216.838 183.607C217.577 183.277 216.121 179.611 214.433 180.994C213.993 181.355 213.67 181.956 213.986 182.489C214.325 183.059 216.202 183.892 216.838 183.607Z" fill="#FFB78C"></path><path d="M216.598 187.073C216.647 187.018 216.662 186.941 216.665 186.867C216.699 186.012 214.666 184.514 214.317 185.735C214.216 186.09 214.398 186.613 214.667 186.85C214.958 187.106 216.315 187.388 216.598 187.073Z" fill="#FFB78C"></path><path d="M254.642 25.8489C250.779 23.6183 247.274 23.4106 244.742 24.8823L240.746 27.2046C243.277 25.7335 246.782 25.9406 250.646 28.1712C258.333 32.6094 264.54 43.3593 264.515 52.1922C264.502 56.5713 262.955 59.6546 260.46 61.1046L264.456 58.7823C266.952 57.3323 268.499 54.2497 268.511 49.8699C268.536 41.037 262.329 30.2871 254.642 25.8489Z" fill="#4D4D4D"></path><path d="M250.647 28.1712C258.334 32.6094 264.541 43.3593 264.515 52.1922C264.49 61.0116 258.243 64.5714 250.556 60.1332C242.881 55.7018 236.662 44.9451 236.688 36.1257C236.713 27.2928 242.971 23.7398 250.647 28.1712Z" fill="black"></path><path d="M251.02 34.6302C246.187 31.8402 242.273 34.0709 242.273 39.6169C242.273 45.1582 246.187 51.9132 251.02 54.7032C255.849 57.4911 259.767 55.2571 259.767 49.7165C259.767 44.1712 255.849 37.4182 251.02 34.6302ZM248.885 48.0602V39.0365L255.695 47.4825L248.885 48.0602Z" fill="white"></path><path d="M261.308 72.5998L248.239 65.0546C246.185 63.8687 244.324 63.7594 242.981 64.5401L238.984 66.8624C240.328 66.0817 242.188 66.191 244.243 67.3769L257.311 74.9221C261.378 77.2702 264.674 82.9784 264.66 87.6515L264.618 102.683C264.611 105.004 263.789 106.639 262.465 107.408L266.461 105.086C267.786 104.316 268.608 102.681 268.614 100.36L268.657 85.3285C268.67 80.6562 265.375 74.9479 261.308 72.5998Z" fill="#FFD166"></path><path d="M257.311 74.9221C261.378 77.2702 264.673 82.9784 264.66 87.6515L264.617 102.683C264.603 107.356 261.287 109.246 257.22 106.898L244.15 99.3524C240.071 96.9976 236.776 91.2893 236.789 86.6163L236.832 71.585C236.845 66.9119 240.162 65.0214 244.241 67.3763L257.311 74.9221Z" fill="#FFAD66"></path><path d="M251.028 77.3333C246.195 74.5433 242.281 76.7739 242.281 82.32C242.281 87.8612 246.195 94.6163 251.028 97.4062C255.857 100.194 259.775 97.9602 259.775 92.4196C259.775 86.8735 255.857 80.1206 251.028 77.3333ZM248.892 90.7625V81.7389L255.702 90.1849L248.892 90.7625Z" fill="white"></path><path d="M267.104 122.095L242.631 107.966C242.168 107.699 241.745 107.674 241.438 107.851L237.441 110.174C237.748 109.996 238.171 110.021 238.635 110.288L263.108 124.418C264.037 124.954 264.783 126.246 264.78 127.313L264.7 155.435C264.699 155.957 264.514 156.325 264.215 156.498L268.211 154.176C268.51 154.002 268.695 153.634 268.697 153.112L268.776 124.991C268.779 123.924 268.033 122.632 267.104 122.095Z" fill="#8482FF"></path><path d="M263.103 124.418C264.032 124.954 264.778 126.246 264.774 127.314L264.695 155.435C264.692 156.489 263.942 156.916 263.012 156.38L238.539 142.251C237.622 141.721 236.864 140.423 236.867 139.369L236.947 111.248C236.949 110.18 237.712 109.759 238.629 110.288L263.103 124.418Z" fill="#4D4BB7"></path><path d="M251.016 123.254C246.183 120.463 242.27 122.695 242.27 128.241C242.27 133.782 246.183 140.537 251.016 143.327C255.845 146.115 259.763 143.881 259.763 138.34C259.763 132.794 255.845 126.042 251.016 123.254ZM248.881 136.684V127.66L255.691 136.106L248.881 136.684Z" fill="white"></path><path fill-rule="evenodd" clip-rule="evenodd" d="M260.344 158.694V156.839L257.766 155.35V157.206L260.344 158.694Z" fill="#231F20"></path><path fill-rule="evenodd" clip-rule="evenodd" d="M264.969 161.365V159.51L262.391 158.021V159.876L264.969 161.365Z" fill="#231F20"></path><path fill-rule="evenodd" clip-rule="evenodd" d="M269.845 164.152L269.062 161.874L266.816 160.577L267.096 162.593C268.016 163.125 268.941 163.665 269.845 164.152Z" fill="#231F20"></path><path fill-rule="evenodd" clip-rule="evenodd" d="M246.458 150.673V148.818L243.879 147.329V149.185L246.458 150.673Z" fill="#231F20"></path><path fill-rule="evenodd" clip-rule="evenodd" d="M251.083 153.344V151.488L248.504 150V151.855L251.083 153.344Z" fill="#231F20"></path><path fill-rule="evenodd" clip-rule="evenodd" d="M255.688 156.005V154.15L253.109 152.661V154.516L255.688 156.005Z" fill="#231F20"></path><path fill-rule="evenodd" clip-rule="evenodd" d="M233.68 139.655L235.224 139.414L235.218 136.835L233.602 136.494C233.606 137.552 233.627 138.605 233.68 139.655Z" fill="#231F20"></path><path fill-rule="evenodd" clip-rule="evenodd" d="M236.873 145.061L237.844 143.844C237.094 143.405 236.358 142.584 235.869 141.65L234.508 142.36C235.104 143.491 235.982 144.495 236.873 145.061Z" fill="#231F20"></path><path fill-rule="evenodd" clip-rule="evenodd" d="M241.768 147.965L241.859 146.163L239.614 144.867L239.008 146.368L241.768 147.965Z" fill="#231F20"></path><path fill-rule="evenodd" clip-rule="evenodd" d="M233.602 123.301L235.218 124.234V121.275L233.602 120.342V123.301Z" fill="#231F20"></path><path fill-rule="evenodd" clip-rule="evenodd" d="M233.602 128.609L235.218 129.542V126.582L233.602 125.649V128.609Z" fill="#231F20"></path><path fill-rule="evenodd" clip-rule="evenodd" d="M233.602 133.939L235.218 134.757V131.872L233.602 130.939V133.939Z" fill="#231F20"></path><path fill-rule="evenodd" clip-rule="evenodd" d="M233.602 107.359L235.218 108.293V105.608L233.602 104.25V107.359Z" fill="#231F20"></path><path fill-rule="evenodd" clip-rule="evenodd" d="M233.602 112.666L235.218 113.6V110.641L233.602 109.707V112.666Z" fill="#231F20"></path><path fill-rule="evenodd" clip-rule="evenodd" d="M233.602 117.957L235.218 118.89V115.93L233.602 114.997V117.957Z" fill="#231F20"></path><path fill-rule="evenodd" clip-rule="evenodd" d="M240.449 100.547L240.787 102.597L243.148 103.96V102.105L240.449 100.547Z" fill="#231F20"></path><path fill-rule="evenodd" clip-rule="evenodd" d="M235.617 98.206L236.79 100.558C237.481 100.571 238.263 101.171 239.002 101.568L238.263 99.307C237.364 98.8481 236.445 98.2012 235.617 98.206Z" fill="#231F20"></path><path fill-rule="evenodd" clip-rule="evenodd" d="M233.621 101.723L235.214 103.531C235.217 103.104 235.205 102.667 235.222 102.248C235.244 101.832 235.347 101.469 235.52 101.189L234.08 98.9778C233.862 99.3071 233.726 99.7327 233.681 100.215C233.643 100.702 233.637 101.212 233.621 101.723Z" fill="#231F20"></path><path fill-rule="evenodd" clip-rule="evenodd" d="M254.457 108.637V110.492L257.035 111.981V110.126L254.457 108.637Z" fill="#231F20"></path><path fill-rule="evenodd" clip-rule="evenodd" d="M249.84 105.967V107.822L252.419 109.31V107.456L249.84 105.967Z" fill="#231F20"></path><path fill-rule="evenodd" clip-rule="evenodd" d="M245.227 103.305V105.161L247.805 106.649V104.794L245.227 103.305Z" fill="#231F20"></path><path fill-rule="evenodd" clip-rule="evenodd" d="M268.552 116.771L268.004 118.308C268.752 118.747 269.501 119.157 270.249 119.619L271.262 118.442C270.375 117.851 269.472 117.315 268.552 116.771Z" fill="#231F20"></path><path fill-rule="evenodd" clip-rule="evenodd" d="M263.73 113.987V115.843L266.219 117.279L266.358 115.505L263.73 113.987Z" fill="#231F20"></path><path fill-rule="evenodd" clip-rule="evenodd" d="M259.121 111.326V113.181L261.7 114.67V112.815L259.121 111.326Z" fill="#231F20"></path><path fill-rule="evenodd" clip-rule="evenodd" d="M274.261 132.049L272.645 131.116V134.075L274.261 135.008V132.049Z" fill="#231F20"></path><path fill-rule="evenodd" clip-rule="evenodd" d="M274.259 126.51L272.645 126.229V128.806L274.261 129.679L274.259 126.51Z" fill="#231F20"></path><path fill-rule="evenodd" clip-rule="evenodd" d="M273.182 120.645L271.852 121.41C272.393 122.323 272.674 123.357 272.645 124.2L274.203 124.022C274.197 122.999 273.836 121.753 273.182 120.645Z" fill="#231F20"></path><path fill-rule="evenodd" clip-rule="evenodd" d="M274.257 147.99L272.641 147.057V150.016L274.257 150.949V147.99Z" fill="#231F20"></path><path fill-rule="evenodd" clip-rule="evenodd" d="M274.257 142.683L272.641 141.75V144.709L274.257 145.642V142.683Z" fill="#231F20"></path><path fill-rule="evenodd" clip-rule="evenodd" d="M274.257 137.393L272.641 136.46V139.42L274.257 140.352V137.393Z" fill="#231F20"></path><path fill-rule="evenodd" clip-rule="evenodd" d="M273.915 164.108L272.446 161.932C272.164 162.567 271.57 162.863 270.863 162.737L271.995 165.092C272.839 165.213 273.556 164.855 273.915 164.108Z" fill="#231F20"></path><path fill-rule="evenodd" clip-rule="evenodd" d="M274.258 158.755L272.641 157.455V160.032L274.226 161.886C274.259 160.871 274.259 159.812 274.258 158.755Z" fill="#231F20"></path><path fill-rule="evenodd" clip-rule="evenodd" d="M274.257 153.336L272.641 152.402V155.361L274.257 156.295V153.336Z" fill="#231F20"></path><path d="M46.9462 100.622L49.5176 102.116C46.6733 103.654 44.7875 103.712 43.548 102.992L40.9766 101.497C42.2168 102.218 44.1019 102.16 46.9462 100.622Z" fill="#FFD166"></path><path d="M35.4504 105.906L32.879 104.412C31.2505 103.466 29.6328 101.866 28.1211 99.3572L30.6925 100.851C32.2042 103.36 33.8219 104.96 35.4504 105.906Z" fill="#FFD166"></path><path d="M19.8775 74.5726L45.4557 59.8054C46.5398 59.1795 47.5194 59.1198 48.226 59.5305L50.7974 61.0253C50.0908 60.6146 49.1112 60.6743 48.0271 61.3002L22.4489 76.0674C20.3058 77.3049 18.564 80.308 18.5714 82.7837L18.6298 103.355C18.6332 104.575 19.0656 105.433 19.7607 105.837L17.1893 104.342C16.4935 103.938 16.0618 103.08 16.0584 101.86L16 81.2889C15.9932 78.8126 17.7344 75.8094 19.8775 74.5726Z" fill="#FFD166"></path><path d="M22.4517 76.0667C20.3086 77.3042 18.5675 80.3066 18.5742 82.783L18.6326 103.354C18.6394 105.817 20.3921 106.803 22.5352 105.565L30.7001 100.851C35.5612 108.918 41.5166 107.59 45.4097 105.342C47.882 103.916 49.4399 102.207 49.522 102.117C40.7271 106.873 41.0971 97.4769 41.3924 94.6781L48.1128 90.7979C50.2674 89.5536 51.9977 86.5573 51.9909 84.0952L51.9325 63.524C51.9257 61.0476 50.1845 60.0558 48.0293 61.2994L22.4517 76.0667Z" fill="#FFAD66"></path><path d="M22.9837 92.2825C22.9511 92.0042 22.9334 91.711 22.9328 91.4021C22.9321 91.0987 22.9477 90.7851 22.9782 90.4708L21.8636 90.6995C21.698 90.7328 21.607 90.5821 21.6593 90.3615L22.2505 87.9089C22.292 87.7317 22.4148 87.564 22.5465 87.488C22.5791 87.4697 22.6117 87.4561 22.6443 87.45L23.7562 87.2226C24.0148 86.5424 24.3257 85.871 24.6828 85.2207L23.9897 84.5324C23.8865 84.4278 23.9191 84.1848 24.0576 83.9866L25.6155 81.7845C25.6705 81.705 25.7356 81.6446 25.8001 81.608C25.8965 81.5523 25.9922 81.5482 26.054 81.6114L26.7423 82.3017C27.2155 81.7777 27.7158 81.2984 28.2419 80.8762L28.2378 79.5321C28.2371 79.3319 28.377 79.0895 28.5514 78.9891L30.4779 77.8771C30.6517 77.7767 30.7929 77.8568 30.7936 78.057L30.7977 79.4011C31.3244 79.2151 31.8254 79.1167 32.2979 79.0943L32.9821 77.611C33.0432 77.4773 33.1383 77.3707 33.234 77.3157C33.2985 77.2784 33.363 77.2642 33.4193 77.2791L34.9826 77.6796C35.1238 77.7163 35.1578 77.9213 35.0553 78.1446L34.369 79.6292C34.7288 79.8654 35.0424 80.1763 35.3017 80.5578L36.4116 79.5022C36.4442 79.471 36.4774 79.4459 36.51 79.4269C36.6424 79.3502 36.7659 79.376 36.808 79.505L37.4115 81.2679C37.4644 81.4281 37.3748 81.6827 37.2092 81.8408L36.0973 82.8977C36.1271 83.1767 36.1475 83.47 36.1482 83.7734C36.1489 84.0816 36.1312 84.3959 36.1027 84.7095L37.2173 84.4815C37.383 84.4482 37.4739 84.5989 37.4217 84.8195L36.8304 87.2721C36.7883 87.4473 36.6655 87.617 36.5324 87.6937C36.4998 87.712 36.4672 87.7256 36.4347 87.7317L35.3227 87.9591C35.0661 88.6379 34.7552 89.3072 34.3982 89.9596L35.0913 90.6479C35.1944 90.7525 35.1619 90.9955 35.0213 91.1951L33.4655 93.3965C33.4098 93.4759 33.3453 93.5357 33.2815 93.5723C33.1844 93.628 33.0894 93.6314 33.0269 93.5703L32.3366 92.8786C31.8655 93.404 31.3652 93.8832 30.8391 94.3048L30.8431 95.6468C30.8438 95.8491 30.704 96.0894 30.5295 96.1899L28.603 97.3025C28.4292 97.4029 28.288 97.3249 28.2874 97.1226L28.2833 95.7812C27.7565 95.9672 27.2555 96.0657 26.781 96.0867L26.0988 97.5713C26.037 97.7043 25.9413 97.8116 25.8443 97.8673C25.7804 97.9046 25.716 97.9189 25.661 97.9039L24.0956 97.5048C23.9571 97.4668 23.9225 97.2617 24.025 97.0391L24.7113 95.5545C24.3515 95.3155 24.0379 95.0074 23.7766 94.6272L22.6667 95.6828C22.6348 95.7133 22.6022 95.7378 22.5703 95.7568C22.4386 95.8328 22.3144 95.8063 22.2723 95.6794L21.6688 93.9165C21.6158 93.7563 21.7054 93.5024 21.8711 93.3436L22.9837 92.2825ZM29.5554 92.9084C32.1126 91.432 34.1796 87.8525 34.1708 84.9139C34.1626 81.9773 32.0827 80.7947 29.5249 82.2712C26.9698 83.7463 24.9027 87.323 24.9115 90.2596C24.9204 93.1983 27.0003 94.3835 29.5554 92.9084Z" fill="white"></path><path d="M38.7232 81.8231C38.7952 81.3472 38.9119 80.8673 39.0681 80.3887L38.3892 80.2136C38.2881 80.1871 38.265 80.0391 38.3376 79.8816L39.1454 78.1316C39.1896 78.0359 39.2581 77.9592 39.328 77.9191C39.3735 77.8927 39.4197 77.8818 39.4597 77.8927L40.1386 78.0678C40.4142 77.6144 40.7196 77.1799 41.0482 76.778L40.7875 76.0137C40.7495 75.8983 40.814 75.7164 40.9314 75.603L42.2422 74.3567C42.266 74.3336 42.2898 74.3159 42.3129 74.3024C42.4072 74.248 42.4955 74.2671 42.5253 74.3594L42.786 75.1258C42.9727 74.9941 43.1587 74.8692 43.3494 74.7592C43.5422 74.6479 43.7289 74.5569 43.9156 74.4734L44.1708 73.409C44.2007 73.2814 44.2882 73.1613 44.3826 73.1069C44.4064 73.0934 44.4301 73.0839 44.4532 73.0798L45.7667 72.811C45.8842 72.7893 45.95 72.8958 45.912 73.0547L45.6568 74.1164C45.9867 74.1381 46.2935 74.2195 46.5705 74.3533L47.2459 73.3961C47.2853 73.3398 47.3314 73.297 47.3776 73.2705C47.4475 73.2305 47.5161 73.2278 47.5609 73.2719L48.3755 74.0851C48.4495 74.1584 48.4264 74.3329 48.3266 74.4755L47.6512 75.4326C47.8093 75.7299 47.9281 76.0741 48.0028 76.4651L48.8391 75.9825C48.9647 75.9098 49.0658 75.9648 49.0665 76.1094L49.0713 77.6945C49.0713 77.8363 48.9715 78.0101 48.8452 78.0827L48.0089 78.5654C47.9369 79.0413 47.8209 79.5212 47.6647 79.9998L48.3436 80.1749C48.444 80.2014 48.4678 80.3494 48.3951 80.5048L47.5873 82.2569C47.5432 82.3526 47.4747 82.4293 47.4047 82.4693C47.3593 82.4958 47.3131 82.5067 47.273 82.4958L46.5942 82.3207C46.3179 82.7741 46.0131 83.2086 45.6846 83.6104L45.9453 84.3748C45.9833 84.4902 45.9188 84.6721 45.8013 84.7835L44.4905 86.0325C44.4681 86.0542 44.4451 86.0712 44.422 86.0841C44.3269 86.1391 44.2373 86.1207 44.2068 86.0298L43.9461 85.2634C43.7594 85.3951 43.5728 85.5173 43.38 85.6286C43.1892 85.7386 43.0025 85.8322 42.8159 85.9157L42.5606 86.9802C42.5301 87.1064 42.4412 87.2279 42.3468 87.2822C42.3237 87.2951 42.3013 87.3046 42.2782 87.3094L40.9647 87.5755C40.8473 87.5999 40.7814 87.4927 40.8194 87.3338L41.0747 86.2721C40.7448 86.2504 40.4379 86.169 40.1603 86.0352L39.4849 86.9924C39.4455 87.0487 39.3993 87.0915 39.3532 87.118C39.2832 87.158 39.2147 87.1607 39.1699 87.1166L38.3553 86.3013C38.2813 86.2307 38.3044 86.0556 38.4048 85.913L39.0803 84.9559C38.9221 84.6586 38.8033 84.3151 38.7286 83.9234L37.8923 84.406C37.7667 84.4787 37.6656 84.421 37.6649 84.2791L37.6602 82.694C37.6595 82.5494 37.7599 82.3784 37.8855 82.3057L38.7232 81.8231ZM43.3759 84.0028C45.206 82.9466 46.6852 80.384 46.6791 78.281C46.673 76.178 45.1843 75.3294 43.3542 76.3864C41.5261 77.4419 40.0469 80.0038 40.053 82.1068C40.0591 84.2099 41.5485 85.0584 43.3759 84.0028Z" fill="white"></path><path d="M28.3728 183.355L0.363021 167.184C-0.174611 166.873 -0.107407 166.331 0.513721 165.973L28.0354 150.083C28.6566 149.724 29.5954 149.686 30.133 149.996L58.1428 166.167C58.6805 166.478 58.6126 167.02 57.9921 167.379L30.4704 183.269C29.8493 183.627 28.9098 183.666 28.3728 183.355Z" fill="#F2F2F2"></path><path d="M29.4175 167.881L2.64453 152.424L29.2505 137.063L56.0228 152.52L29.4175 167.881Z" fill="#F2F2F2"></path><path d="M29.4089 166.195L5.56641 152.429L29.2602 138.75L53.1027 152.515L29.4089 166.195Z" fill="#E6E6E6"></path><path d="M29.4141 181.465V167.881L56.0194 152.52V166.104L29.4141 181.465Z" fill="#BFBFBF"></path><path d="M2.64453 152.424V166.007L29.4175 181.465V167.881L2.64453 152.424Z" fill="#E6E6E6"></path><path d="M11.3585 155.784L9.47411 154.701L9.15302 150.343L8.48438 141.039L10.3559 141.948L10.8908 149.34L11.3585 155.784Z" fill="#4D4D4D"></path><path d="M10.3613 141.946L8.48438 141.038L31.8367 127.555L33.7137 128.464L10.3613 141.946Z" fill="#737373"></path><path d="M35.7333 156.332L25.6133 162.174L24.0221 163.097L23.8884 163.177L23.8748 163.003L22.8722 162.429L20.9878 161.345L19.9981 160.77L18.1136 159.687L17.111 159.113L15.2259 158.017L14.2497 157.455L12.3517 156.359L11.362 155.784L10.8943 149.34L10.3594 141.948L33.7145 128.459L33.8081 129.796L33.9548 131.694L34.0484 133.031V133.044L34.1822 134.943L34.2758 136.279L34.4232 138.191L34.5161 139.515L34.6499 141.426L34.6906 141.894L34.7436 142.763L34.8909 144.675L35.7333 156.332Z" fill="#1F2125"></path><path d="M14.2666 157.455L12.3686 156.358L11.8201 148.819L11.3789 142.75L13.264 143.659L13.5579 147.816L14.2666 157.455Z" fill="#4D4D4D"></path><path d="M13.2565 143.659L11.3789 142.751L34.732 129.268L36.6089 130.177L13.2565 143.659Z" fill="#737373"></path><path d="M38.635 158.043L26.9645 164.781L25.7746 164.099L24.0368 163.096L23.903 163.177L23.8895 163.003L22.8868 162.428L21.0024 161.345L20.0127 160.77L18.1282 159.687L17.1256 159.112L15.2405 158.017L14.2643 157.455L13.5557 147.816L13.2617 143.659L33.9694 131.694L36.6032 130.17L36.6969 131.52L36.8435 133.419L36.9372 134.742L37.0709 136.667L37.1782 137.991L37.3119 139.902L37.4049 141.225V141.239L37.5522 143.138V143.15L37.5794 143.552L38.635 158.043Z" fill="#1F2125"></path><path d="M17.1152 159.112L15.2301 158.017L14.4548 147.295L14.2539 144.46L16.1254 145.37L16.1926 146.292L17.1152 159.112Z" fill="#4D4D4D"></path><path d="M16.1237 145.371L14.2461 144.463L37.5991 130.981L39.4761 131.889L16.1237 145.371Z" fill="#737373"></path><path d="M41.455 159.233L29.3963 166.198L26.9498 164.78L25.7598 164.099L24.022 163.096L23.8882 163.176L23.8747 163.003L22.872 162.428L20.9876 161.345L19.9979 160.77L18.1135 159.687L17.1108 159.112L16.1883 146.292L16.1211 145.37L34.182 134.943L39.4762 131.894L39.5699 133.218L39.7165 135.129L39.8102 136.453V136.467L39.9439 138.365L40.0376 139.702L40.1849 141.613L40.4388 145.209L41.455 159.233Z" fill="#1F2125"></path><path d="M20.0148 160.77L18.1304 159.687L17.1406 146.172L19.0257 147.081L20.0148 160.77Z" fill="#4D4D4D"></path><path d="M19.0176 147.085L17.1406 146.176L40.493 132.694L42.3706 133.602L19.0176 147.085Z" fill="#737373"></path><path d="M44.1292 157.696L41.4696 159.233L29.4109 166.198L26.9644 164.781L25.7744 164.099L24.0366 163.096L23.9029 163.176L23.8893 163.003L22.8866 162.428L21.0022 161.345L20.0125 160.77L19.0234 147.081L31.3625 139.969L34.4376 138.191L37.0708 136.667L39.7311 135.129L42.3778 133.605L42.4715 134.929L42.6188 136.841L42.7125 138.164L42.8462 140.09L43.3404 146.881L44.1292 157.696Z" fill="#1F2125"></path><path d="M22.8918 162.429L21.0074 161.345L20.0312 147.883L21.9028 148.792L22.8918 162.429Z" fill="#4D4D4D"></path><path d="M21.9089 148.798L20.0312 147.889L43.3843 134.407L45.2613 135.315L21.9089 148.798Z" fill="#737373"></path><path d="M46.7814 156.172L44.134 157.696L41.4743 159.233L29.4156 166.198L26.9691 164.781L25.7791 164.099L24.0413 163.097L23.9076 163.177L23.894 163.003L22.8914 162.429L21.9023 148.792L34.2815 141.654L34.6691 141.426L37.3165 139.902L39.9632 138.365L42.6236 136.841L45.2574 135.317L45.3504 136.641L45.4977 138.552V138.566L46.2193 148.538L46.7814 156.172Z" fill="#1F2125"></path><path d="M25.7786 164.099L24.0407 163.096L23.907 163.177L23.8934 163.003L22.918 149.607L24.7895 150.517L25.6319 162.174L25.7786 164.099Z" fill="#4D4D4D"></path><path d="M24.7949 150.51L22.918 149.602L46.2703 136.12L48.148 137.028L24.7949 150.51Z" fill="#737373"></path><path d="M49.4136 154.634L46.7804 156.172L44.1329 157.696L41.4733 159.233L29.4146 166.198L26.9681 164.781L25.7781 164.099L25.6315 162.174L24.7891 150.517L34.909 144.674L37.2218 143.338L37.5558 143.15L39.9086 141.787L40.2032 141.614L42.85 140.09L45.4967 138.566L48.1435 137.028L49.0931 150.196L49.4136 154.634Z" fill="#1F2125"></path><path d="M31.3636 158.945L34.7394 159.265V160.767L29.0664 160.272L34.7394 153.24V154.743L31.3636 158.945Z" fill="#F2F2F2"></path><path d="M37.2979 161.346L36.207 161.976C37.285 158.015 38.0894 155.047 38.6203 153.071L39.8265 148.618L40.9181 147.988L37.2979 161.346Z" fill="#F2F2F2"></path><path d="M45.502 150.778L42.1133 150.466V148.979L47.7991 149.452L42.1133 156.506V154.988L45.502 150.778Z" fill="#F2F2F2"></path><path d="M162.797 278.202C156.306 281.95 145.749 281.93 139.217 278.159C132.686 274.388 132.652 268.293 139.143 264.545C145.634 260.797 156.191 260.817 162.723 264.588C169.255 268.36 169.288 274.455 162.797 278.202Z" fill="#F2F2F2"></path><path d="M165.18 270.381C165.205 265.85 158.862 262.142 151.014 262.1C143.166 262.057 136.784 265.696 136.759 270.227C136.735 274.758 143.077 278.466 150.925 278.508C158.774 278.551 165.156 274.912 165.18 270.381Z" fill="#C4C4C4"></path><path d="M164.702 243.536H137.249V269.26C137.174 271.352 138.521 273.462 141.294 275.063C146.672 278.168 155.365 278.184 160.709 275.098C163.481 273.498 164.804 271.378 164.689 269.275L164.702 243.536Z" fill="#D9D9D9"></path><path d="M165.184 244.063C165.209 239.532 158.866 235.824 151.018 235.782C143.17 235.739 136.788 239.378 136.763 243.909C136.739 248.441 143.081 252.148 150.929 252.19C158.778 252.233 165.16 248.594 165.184 244.063Z" fill="#F2F2F2"></path><path d="M153.957 252.026C153.957 252.026 153.955 252.028 153.953 252.026C149.418 252.569 144.499 251.818 140.963 249.777C140.333 249.414 139.773 249.024 139.285 248.615L141.698 247.275L153.441 250.28L153.957 252.026Z" fill="#FFD166"></path><path d="M162.168 246.505C161.59 247.378 160.692 248.198 159.472 248.901C154.807 251.595 147.22 251.582 142.524 248.871C141.279 248.154 140.364 247.319 139.777 246.427C138.146 243.958 139.044 241.067 142.473 239.086C147.138 236.393 154.725 236.405 159.421 239.116C162.889 241.12 163.808 244.034 162.168 246.505Z" fill="#999999"></path><path d="M162.172 246.505C161.595 247.378 160.696 248.198 159.477 248.901C154.811 251.594 147.225 251.582 142.528 248.871C141.284 248.153 140.368 247.318 139.781 246.427C140.359 245.554 141.258 244.735 142.477 244.032C147.142 241.338 154.729 241.35 159.425 244.061C160.669 244.779 161.585 245.614 162.172 246.505Z" fill="#FFAD66"></path><path d="M142.47 240.351C147.136 237.657 154.724 237.671 159.419 240.382C161.498 241.582 162.659 243.111 162.904 244.675C163.221 242.692 162.058 240.64 159.419 239.116C154.724 236.406 147.135 236.392 142.47 239.086C139.872 240.586 138.729 242.61 139.037 244.577C139.284 243.033 140.428 241.53 142.47 240.351Z" fill="#D9D9D9"></path><path d="M153.603 276.331C153.57 276.337 153.537 276.34 153.504 276.34C153.244 276.348 152.99 276.198 152.802 276.011C152.227 275.447 152.053 274.572 151.5 273.984C151.052 273.503 150.396 273.26 149.94 272.785C149.602 272.43 149.398 271.968 149.064 271.609C148.73 271.252 148.17 271.012 147.753 271.268C147.46 271.445 147.24 271.845 146.904 271.781C146.804 271.762 146.717 271.7 146.639 271.635C146.108 271.183 145.884 270.457 145.838 269.761C145.792 269.063 145.894 268.367 145.886 267.668C145.88 267.332 145.85 266.988 145.724 266.677C145.419 265.923 144.616 265.463 144.284 264.72C144.102 264.314 144.054 263.82 143.712 263.538C143.403 263.287 142.965 263.299 142.569 263.322C142.463 263.329 142.351 263.338 142.264 263.399C142.152 263.481 142.116 263.625 142.086 263.758C141.538 266.399 142.079 269.268 140.993 271.739C140.81 272.158 140.54 272.592 140.099 272.721C139.924 272.773 139.725 272.74 139.567 272.653C139.013 272.354 139.271 271.388 139.271 270.854V248.616C139.759 249.025 140.319 249.415 140.949 249.778C144.485 251.821 149.406 252.571 153.943 252.027V273.061C153.945 273.669 154.282 276.205 153.603 276.331Z" fill="#FFAD66"></path><path d="M204.352 254.722C204.381 249.406 196.939 245.056 187.73 245.006C178.522 244.957 171.034 249.226 171.005 254.542C170.976 259.858 178.418 264.208 187.627 264.258C196.835 264.308 204.323 260.038 204.352 254.722Z" fill="#F2F2F2"></path><path d="M201.887 253.647C201.912 249.116 195.569 245.408 187.721 245.366C179.873 245.324 173.491 248.963 173.466 253.494C173.442 258.025 179.784 261.732 187.632 261.775C195.481 261.817 201.863 258.178 201.887 253.647Z" fill="#C4C4C4"></path><path d="M201.413 226.803H173.96V252.528C173.885 254.619 175.231 256.729 178.004 258.331C183.383 261.435 192.076 261.452 197.42 258.366C200.192 256.766 201.515 254.646 201.4 252.542L201.413 226.803Z" fill="#D9D9D9"></path><path d="M201.883 227.329C201.908 222.798 195.565 219.091 187.717 219.048C179.869 219.006 173.487 222.645 173.462 227.176C173.438 231.707 179.78 235.415 187.629 235.457C195.477 235.499 201.859 231.86 201.883 227.329Z" fill="#F2F2F2"></path><path d="M190.656 235.294C190.656 235.294 190.654 235.296 190.652 235.294C186.117 235.836 181.198 235.086 177.662 233.045C177.032 232.682 176.472 232.292 175.984 231.883L178.398 230.543L190.141 233.547L190.656 235.294Z" fill="#8482FF"></path><path d="M198.867 229.773C198.29 230.646 197.391 231.465 196.172 232.169C191.506 234.862 183.92 234.85 179.223 232.139C177.978 231.421 177.063 230.586 176.476 229.695C174.846 227.225 175.743 224.334 179.172 222.354C183.837 219.661 191.424 219.673 196.12 222.384C199.589 224.389 200.508 227.301 198.867 229.773Z" fill="#999999"></path><path d="M198.872 229.773C198.294 230.646 197.395 231.465 196.176 232.169C191.51 234.862 183.924 234.85 179.228 232.139C177.983 231.421 177.068 230.586 176.48 229.695C177.058 228.822 177.957 228.003 179.176 227.299C183.842 224.606 191.428 224.618 196.124 227.329C197.369 228.047 198.284 228.882 198.872 229.773Z" fill="#4D4BB7"></path><path d="M179.177 223.619C183.843 220.926 191.431 220.939 196.126 223.65C198.205 224.851 199.366 226.38 199.611 227.944C199.928 225.96 198.766 223.909 196.126 222.385C191.431 219.674 183.842 219.661 179.177 222.354C176.579 223.854 175.436 225.879 175.744 227.846C175.992 226.301 177.135 224.799 179.177 223.619Z" fill="#D9D9D9"></path><path d="M190.313 259.599C190.28 259.605 190.247 259.608 190.214 259.608C189.954 259.616 189.701 259.466 189.512 259.278C188.937 258.715 188.763 257.84 188.211 257.251C187.763 256.771 187.106 256.528 186.651 256.052C186.313 255.697 186.108 255.236 185.774 254.877C185.44 254.52 184.88 254.28 184.463 254.535C184.17 254.713 183.95 255.112 183.614 255.049C183.514 255.03 183.427 254.968 183.35 254.902C182.819 254.451 182.595 253.725 182.548 253.028C182.502 252.331 182.604 251.635 182.597 250.935C182.591 250.599 182.56 250.256 182.434 249.945C182.13 249.19 181.327 248.731 180.995 247.987C180.813 247.582 180.765 247.088 180.423 246.806C180.114 246.555 179.676 246.566 179.28 246.59C179.174 246.597 179.062 246.605 178.975 246.667C178.863 246.748 178.826 246.893 178.797 247.026C178.249 249.667 178.79 252.535 177.704 255.006C177.521 255.425 177.251 255.86 176.81 255.989C176.635 256.042 176.436 256.009 176.277 255.922C175.724 255.623 175.982 254.657 175.982 254.123V231.885C176.471 232.294 177.03 232.684 177.66 233.047C181.196 235.09 186.117 235.84 190.654 235.296V256.33C190.654 256.936 190.992 259.473 190.313 259.599Z" fill="#4D4BB7"></path><path d="M265.078 252.933C258.588 256.68 248.03 256.661 241.499 252.89C234.967 249.119 234.934 243.024 241.425 239.276C247.916 235.528 258.472 235.548 265.004 239.319C271.536 243.09 271.569 249.185 265.078 252.933Z" fill="#F2F2F2"></path><path d="M263.329 250.863C257.797 254.057 248.8 254.04 243.233 250.826C237.666 247.612 237.638 242.418 243.17 239.224C248.702 236.03 257.699 236.046 263.266 239.26C268.833 242.473 268.861 247.669 263.329 250.863Z" fill="#C4C4C4"></path><path d="M266.983 218.266H239.53V243.991C239.455 246.083 240.802 248.192 243.575 249.794C248.953 252.899 257.646 252.915 262.991 249.829C265.762 248.229 267.085 246.109 266.971 244.005L266.983 218.266Z" fill="#D9D9D9"></path><path d="M267.462 218.792C267.486 214.261 261.144 210.553 253.295 210.511C245.447 210.469 239.065 214.107 239.04 218.639C239.016 223.17 245.358 226.877 253.207 226.92C261.055 226.962 267.437 223.323 267.462 218.792Z" fill="#F2F2F2"></path><path d="M256.234 226.757C256.234 226.757 256.232 226.759 256.23 226.757C251.695 227.299 246.777 226.549 243.24 224.508C242.611 224.145 242.051 223.755 241.562 223.346L243.976 222.006L255.719 225.01L256.234 226.757Z" fill="#737373"></path><path d="M264.453 221.236C263.876 222.109 262.977 222.928 261.758 223.632C257.092 226.325 249.505 226.313 244.809 223.602C243.564 222.884 242.649 222.049 242.062 221.158C240.432 218.688 241.329 215.797 244.758 213.817C249.423 211.124 257.01 211.136 261.706 213.847C265.174 215.852 266.093 218.765 264.453 221.236Z" fill="#999999"></path><path d="M264.45 221.236C263.872 222.109 262.973 222.928 261.754 223.632C257.089 226.325 249.502 226.313 244.806 223.602C243.561 222.884 242.646 222.049 242.059 221.158C242.636 220.285 243.535 219.466 244.754 218.762C249.42 216.069 257.006 216.081 261.703 218.792C262.947 219.51 263.862 220.345 264.45 221.236Z" fill="#1F2125"></path><path d="M244.755 215.083C249.421 212.389 257.009 212.402 261.704 215.113C263.784 216.314 264.944 217.843 265.189 219.407C265.506 217.423 264.343 215.372 261.704 213.848C257.009 211.137 249.42 211.124 244.755 213.817C242.157 215.317 241.014 217.342 241.323 219.309C241.57 217.764 242.713 216.262 244.755 215.083Z" fill="#D9D9D9"></path><path d="M255.883 251.062C255.85 251.067 255.817 251.071 255.784 251.071C255.523 251.079 255.27 250.929 255.082 250.741C254.507 250.178 254.333 249.303 253.78 248.714C253.332 248.234 252.676 247.991 252.22 247.516C251.882 247.161 251.678 246.699 251.344 246.34C251.01 245.983 250.45 245.743 250.033 245.998C249.74 246.176 249.52 246.575 249.184 246.512C249.083 246.493 248.997 246.431 248.919 246.365C248.388 245.914 248.164 245.187 248.118 244.491C248.072 243.794 248.174 243.097 248.166 242.398C248.16 242.062 248.13 241.718 248.004 241.407C247.699 240.653 246.896 240.193 246.564 239.45C246.383 239.044 246.335 238.55 245.993 238.269C245.684 238.017 245.246 238.029 244.85 238.052C244.744 238.059 244.632 238.068 244.545 238.129C244.433 238.21 244.397 238.355 244.368 238.488C243.819 241.129 244.36 243.998 243.275 246.469C243.091 246.888 242.821 247.322 242.381 247.452C242.205 247.504 242.006 247.471 241.848 247.384C241.294 247.084 241.552 246.119 241.552 245.585V223.347C242.041 223.756 242.601 224.146 243.23 224.509C246.767 226.551 251.687 227.302 256.224 226.758V247.792C256.224 248.399 256.562 250.936 255.883 251.062Z" fill="#1F2125"></path><path d="M34.5057 237.639C33.6137 238.155 32.1814 238.155 31.2948 237.639L7.94859 224.072C7.07358 223.564 7.07833 222.734 7.97099 222.219L31.47 208.652C32.3504 208.144 33.7943 208.137 34.6693 208.645L58.0156 222.212C58.9021 222.727 58.8858 223.564 58.0054 224.072L34.5057 237.639Z" fill="#F2F2F2"></path><path d="M34.3819 235.561L55.6992 223.253C56.1024 223.02 56.306 222.711 56.3053 222.402L56.2938 220.251C56.2945 220.56 56.0908 220.869 55.6876 221.101L34.3704 233.409C33.5612 233.876 32.2619 233.876 31.4575 233.409L10.2788 221.101C9.88572 220.873 9.68818 220.573 9.6875 220.272L9.69904 222.423C9.69972 222.724 9.89726 223.024 10.2903 223.252L31.4691 235.56C32.2735 236.028 33.5727 236.028 34.3819 235.561Z" fill="#FFAD66"></path><path d="M34.3703 233.41C33.5612 233.877 32.2619 233.877 31.4575 233.41L10.2787 221.102C9.48516 220.64 9.48923 219.888 10.2984 219.42L31.6156 207.113C32.4146 206.652 33.7241 206.645 34.5176 207.107L55.6964 219.415C56.5008 219.882 56.4859 220.641 55.6869 221.102L34.3703 233.41Z" fill="#FFD166"></path><path d="M37.0093 216.099C39.354 215.519 41.5181 215.216 43.5003 215.187L44.1689 216.547C42.2831 216.632 40.3294 216.938 38.3079 217.467C36.2857 217.996 34.3761 218.779 32.5772 219.818C30.779 220.856 29.418 221.961 28.4954 223.132C27.5722 224.302 27.0448 225.429 26.9124 226.51L24.5352 226.136C24.5976 224.984 25.1312 223.73 26.1358 222.377C27.1405 221.023 28.6183 219.783 30.5665 218.658C32.5168 217.532 34.6639 216.68 37.0093 216.099Z" fill="white"></path><path d="M75.0497 51.5303L70.1133 54.399C70.1303 54.3895 70.1459 54.3773 70.1608 54.3624L75.0972 51.4937C75.0823 51.5086 75.0667 51.5201 75.0497 51.5303Z" fill="black"></path><path d="M63.5898 40.5394L68.5263 37.6707C68.5786 37.6401 68.6444 37.6299 68.7198 37.6456L63.7833 40.5143C63.708 40.4993 63.6421 40.5095 63.5898 40.5394Z" fill="black"></path><path d="M71.2162 53.3088L76.1527 50.4394L75.1005 51.4936L70.1641 54.3623L71.2162 53.3088Z" fill="black"></path><path d="M63.7734 40.5144L68.7099 37.6456L70.4083 37.9932L65.4712 40.8626L63.7734 40.5144Z" fill="black"></path><path d="M82.1825 57.2148L77.2461 60.0835C77.3316 60.034 77.3846 59.9274 77.3846 59.7747L82.321 56.9059C82.321 57.0587 82.2681 57.1646 82.1825 57.2148Z" fill="black"></path><path d="M77.385 57.7301L82.3215 54.8614L82.3153 56.906L77.3789 59.7748L77.385 57.7301Z" fill="black"></path><path d="M64.5078 32.781L69.4442 29.9123C69.5332 29.8607 69.6554 29.8716 69.7837 29.9455C69.8332 29.9741 69.8841 30.0128 69.9337 30.0603L64.9972 32.929C64.947 32.8815 64.8968 32.8428 64.8472 32.8143C64.7196 32.7403 64.5967 32.7294 64.5078 32.781Z" fill="black"></path><path d="M65.0078 32.929L69.9442 30.0603L71.6352 31.6691L66.6988 34.5379L65.0078 32.929Z" fill="black"></path><path d="M70.4703 36.6579L75.4067 33.7892C74.1414 34.5244 73.3566 36.087 73.3505 38.3088C73.3376 42.787 76.4867 48.2408 80.3839 50.4904L75.4474 53.3591C71.5503 51.1095 68.4019 45.6551 68.4141 41.1775C68.4202 38.9557 69.2049 37.3931 70.4703 36.6579Z" fill="black"></path><path d="M85.4146 50.9805L80.4782 53.8492C79.1959 54.5946 77.42 54.49 75.4609 53.3591L80.3974 50.4904C82.3565 51.6213 84.1316 51.7258 85.4146 50.9805Z" fill="black"></path><path d="M88.7607 57.4639L83.8242 60.3327C83.9871 60.2383 84.0163 59.9539 83.8751 59.6464L88.8116 56.7776C88.9528 57.0845 88.9236 57.3689 88.7607 57.4639Z" fill="black"></path><path d="M82.832 57.3838L87.7691 54.5151L88.8152 56.7769L83.8788 59.6463L82.832 57.3838Z" fill="black"></path><path d="M84.2569 55.9712L89.1933 53.1025C88.7948 53.6815 88.317 54.1513 87.7685 54.5151L82.832 57.3839C83.3805 57.0207 83.8584 56.5502 84.2569 55.9712Z" fill="black"></path><path d="M70.2266 30.0495L75.163 27.1808L76.2064 29.4413L71.2692 32.31L70.2266 30.0495Z" fill="black"></path><path d="M74.7784 26.7307C74.6807 26.6744 74.5816 26.6519 74.4954 26.6743L72.1134 27.2846C72.0916 27.29 72.072 27.2989 72.0536 27.3091L67.1172 30.1778C67.1355 30.1669 67.1552 30.1588 67.1769 30.1533L69.5589 29.5431C69.6451 29.5207 69.7443 29.5424 69.842 29.5994C69.9886 29.6843 70.1332 29.8458 70.2262 30.0495L75.1627 27.1808C75.0697 26.9771 74.9251 26.8155 74.7784 26.7307Z" fill="#666666"></path><path d="M91.37 54.856L86.4336 57.7247C86.4845 57.6948 86.5252 57.6446 86.5483 57.5747L91.4847 54.7059C91.4617 54.7759 91.4216 54.8261 91.37 54.856Z" fill="black"></path><path d="M71.2695 32.31L76.206 29.4413C76.9255 29.4745 77.6899 29.6252 78.4923 29.9083L73.5558 32.777C72.7541 32.494 71.9898 32.3433 71.2695 32.31Z" fill="black"></path><path d="M87.4667 54.8885L92.4031 52.0198L91.484 54.7052L86.5469 57.5746L87.4667 54.8885Z" fill="black"></path><path d="M92.0956 51.1468L90.4013 49.5359L85.4648 52.4047L87.1592 54.0155C87.411 54.2565 87.5475 54.6441 87.4674 54.8885L92.4038 52.0198C92.4846 51.7754 92.3482 51.3878 92.0956 51.1468Z" fill="#666666"></path><path d="M85.4762 49.6452L90.4127 46.7765C90.4595 47.2557 90.4833 47.733 90.4826 48.1952C90.4812 48.665 90.4541 49.113 90.4052 49.5366L85.4688 52.4053C85.5176 51.9817 85.5448 51.5337 85.5461 51.064C85.5468 50.6017 85.5231 50.1245 85.4762 49.6452Z" fill="black"></path><path d="M77.4492 35.0253L82.3857 32.1566C83.1867 32.7994 83.9497 33.5298 84.6706 34.3288L79.7342 37.1975C79.0132 36.3985 78.2509 35.6681 77.4492 35.0253Z" fill="black"></path><path d="M77.4553 32.9773L82.3918 30.1079L82.3863 32.1566L77.4492 35.0253L77.4553 32.9773Z" fill="black"></path><path d="M81.9195 29.281L78.9842 27.586C78.8505 27.5086 78.7304 27.5018 78.6435 27.5521L73.707 30.4208C73.7939 30.3706 73.9147 30.3774 74.0485 30.4547L76.9837 32.1498C77.2485 32.3032 77.4623 32.6725 77.4616 32.9773L82.3981 30.1085C82.3981 29.8037 82.1842 29.4338 81.9195 29.281Z" fill="#666666"></path><path d="M82.8789 41.6453L87.8153 38.7766C88.3598 39.767 88.8336 40.7906 89.2273 41.8272L84.2909 44.6959C83.8971 43.6594 83.4233 42.6364 82.8789 41.6453Z" fill="black"></path><path d="M92.3036 47.0989L87.3672 49.9677C87.4901 49.8964 87.541 49.7138 87.4853 49.4782L92.4218 46.6095C92.4774 46.8444 92.4265 47.0277 92.3036 47.0989Z" fill="black"></path><path d="M86.582 45.7406L91.5185 42.8718L92.42 46.6095L87.4835 49.4782L86.582 45.7406Z" fill="black"></path><path d="M91.0685 42.2311C91.019 42.2025 90.9687 42.1822 90.9199 42.1727L89.2255 41.8265L84.2891 44.6952L85.9841 45.0414C86.0337 45.0509 86.0839 45.0713 86.1328 45.0991C86.333 45.2145 86.5204 45.4704 86.5835 45.7399L91.5199 42.8712C91.4561 42.6024 91.2688 42.3465 91.0685 42.2311Z" fill="#666666"></path><path d="M83.9345 40.5964L88.8709 37.7277L87.8153 38.7765L82.8789 41.6452L83.9345 40.5964Z" fill="black"></path><path d="M87.1624 54.0155C87.4142 54.2564 87.5506 54.6441 87.4705 54.8878L86.5507 57.5739C86.4856 57.7673 86.2969 57.8081 86.0959 57.692C86.0471 57.6642 85.9975 57.6262 85.9493 57.5793L84.2583 55.9705C83.8599 56.5495 83.382 57.02 82.8335 57.3831L83.8796 59.645C84.0357 59.9851 83.9834 60.2967 83.7723 60.355L81.3869 60.9633C81.3027 60.9863 81.205 60.9639 81.1072 60.9076C80.9599 60.8228 80.8133 60.6592 80.7196 60.4569L79.6796 58.195C78.9567 58.1638 78.1923 58.0124 77.3899 57.73L77.3838 59.7746C77.3832 60.0828 77.1687 60.2016 76.9032 60.0489L73.968 58.3539C73.7026 58.2011 73.4894 57.8352 73.4901 57.527L73.4955 55.4824C72.6945 54.8396 71.9315 54.1091 71.214 53.3088L70.1618 54.363C70.0668 54.4567 69.9215 54.4519 69.7742 54.3664C69.6771 54.3101 69.5787 54.2191 69.4938 54.0983L67.1227 50.7442C66.9095 50.4408 66.8593 50.0701 67.0161 49.9106L68.0717 48.8618C67.5273 47.8673 67.0534 46.8477 66.6631 45.8132L64.9681 45.467C64.9185 45.4568 64.8683 45.4371 64.8194 45.4086C64.6171 45.2918 64.4291 45.0332 64.3653 44.7658L63.4638 41.0288C63.3844 40.6928 63.5228 40.464 63.7754 40.5143L65.4731 40.8625C65.4297 40.3853 65.4025 39.906 65.4032 39.4363C65.4046 38.974 65.4344 38.528 65.4806 38.1024L63.7862 36.4915C63.5344 36.2505 63.3979 35.8629 63.4787 35.6192L64.3979 32.9331C64.4624 32.7376 64.6504 32.6982 64.8527 32.815C64.9022 32.8435 64.9531 32.8822 65.0027 32.9297L66.6937 34.5385C67.0887 33.9581 67.5666 33.4836 68.1151 33.1238L67.0691 30.862C66.9136 30.5219 66.9652 30.2103 67.1797 30.154L69.5617 29.5437C69.6479 29.5213 69.747 29.543 69.8448 29.6001C69.9914 29.6849 70.136 29.8465 70.229 30.0501L71.2717 32.3106C71.9919 32.3439 72.7556 32.4946 73.558 32.7777L73.5641 30.7296C73.5648 30.4248 73.7799 30.3026 74.0447 30.4561L76.9799 32.1511C77.2447 32.3045 77.4585 32.6738 77.4572 32.9786L77.4511 35.0266C78.2521 35.6695 79.0151 36.3999 79.736 37.1989L80.7854 36.1467C80.8798 36.051 81.0258 36.0571 81.1724 36.1419C81.2708 36.1983 81.3692 36.2906 81.4534 36.4114L83.8273 39.7675C84.0377 40.0689 84.088 40.4403 83.9305 40.5991L82.8749 41.6479C83.4193 42.639 83.8931 43.662 84.2868 44.6985L85.9819 45.0448C86.0314 45.0543 86.081 45.0746 86.1305 45.1025C86.3308 45.2179 86.5182 45.4738 86.5813 45.7433L87.4828 49.4802C87.5615 49.8162 87.4237 50.045 87.1712 49.9948L85.4734 49.6465C85.5203 50.1258 85.5447 50.603 85.5434 51.0653C85.542 51.535 85.5148 51.9831 85.466 52.4066L87.1624 54.0155ZM75.4546 53.359C79.3484 55.6073 82.5178 53.801 82.5307 49.3227C82.5436 44.8486 79.3945 39.3983 75.5008 37.15C71.6036 34.9003 68.4342 36.7026 68.422 41.1768C68.4084 45.655 71.5575 51.1087 75.4546 53.359Z" fill="#333333"></path><path d="M88.7614 36.8962L86.3876 33.5401C86.3034 33.4192 86.2049 33.3276 86.1065 33.2706C85.983 33.1993 85.8608 33.1837 85.7685 33.2373L80.832 36.106C80.9237 36.0524 81.0465 36.068 81.1701 36.1393C81.2685 36.1956 81.3669 36.288 81.4511 36.4088L83.825 39.7649C84.0354 40.0663 84.0856 40.4376 83.9282 40.5965L88.8646 37.7278C89.0221 37.5689 88.9719 37.1976 88.7614 36.8962Z" fill="#666666"></path><path d="M66.3555 16.8028L72.2328 13.3869C72.2484 13.3781 72.2653 13.3707 72.2837 13.3659L66.4064 16.7818C66.3874 16.7872 66.3711 16.794 66.3555 16.8028Z" fill="#4D4BB7"></path><path d="M79.6937 24.1171L73.8164 27.533C73.8599 27.5079 73.8938 27.4651 73.9142 27.4054L79.7915 23.9895C79.7711 24.0492 79.7371 24.092 79.6937 24.1171Z" fill="#4D4BB7"></path><path d="M66.4062 16.7824L72.2842 13.3665L73.5156 13.0488L67.6376 16.4647L66.4062 16.7824Z" fill="#4D4BB7"></path><path d="M74.3904 26.0143L80.2677 22.5991L79.7953 23.9894L73.918 27.4045L74.3904 26.0143Z" fill="#4D4BB7"></path><path d="M65.2148 9.14485L71.0921 5.72898C71.1668 5.68554 71.2713 5.69301 71.3867 5.75953L65.5094 9.17539C65.394 9.10887 65.2895 9.1014 65.2148 9.14485Z" fill="#4D4BB7"></path><path d="M65.5078 9.17544L71.3858 5.76025L72.903 6.63594L67.0257 10.0518L65.5078 9.17544Z" fill="#4D4BB7"></path><path d="M85.8382 26.7734L79.9609 30.1892C80.0648 30.1288 80.1082 29.9734 80.0607 29.7718L85.938 26.3559C85.9855 26.5575 85.9414 26.713 85.8382 26.7734Z" fill="#4D4BB7"></path><path d="M79.5938 27.8452L85.4717 24.4293L85.9347 26.3558L80.0574 29.771L79.5938 27.8452Z" fill="#4D4BB7"></path><path d="M85.5692 20.7291L79.6919 24.145C78.599 24.7804 77.0865 24.6908 75.418 23.7275L81.2953 20.3123C82.9638 21.2749 84.4763 21.3645 85.5692 20.7291Z" fill="#4D4BB7"></path><path d="M71.1806 9.49106L77.0579 6.0752C75.9785 6.70243 75.3092 8.03633 75.3038 9.93162C75.2929 13.7466 77.977 18.3952 81.2965 20.3123L75.4192 23.7274C72.099 21.8104 69.415 17.1618 69.4258 13.3468C69.4319 11.4515 70.1013 10.1183 71.1806 9.49106Z" fill="#4D4BB7"></path><path d="M67.8633 4.22805L73.7406 0.812185C73.8193 0.766025 73.9252 0.778922 74.0325 0.840696C74.1153 0.888214 74.1988 0.965602 74.2707 1.06811L68.3934 4.48397C68.3215 4.38146 68.238 4.30476 68.1552 4.25656C68.0479 4.19479 67.942 4.18189 67.8633 4.22805Z" fill="#9996FF"></path><path d="M88.8851 25.9913L83.0078 29.4072C83.0221 29.399 83.0363 29.3882 83.0485 29.3759L88.9258 25.9601C88.9129 25.9723 88.8994 25.9825 88.8851 25.9913Z" fill="#4D4BB7"></path><path d="M68.4023 4.4841L74.2796 1.06824L75.5049 2.80468L69.6276 6.21986L68.4023 4.4841Z" fill="#4D4BB7"></path><path d="M69.6211 6.21977L75.4984 2.80458C76.0021 2.56088 76.5587 2.41426 77.1568 2.37421L71.2795 5.79007C70.6814 5.82944 70.1248 5.97675 69.6211 6.21977Z" fill="#4D4BB7"></path><path d="M84.5293 27.8961L90.4072 24.4802L88.9288 25.9594L83.0508 29.3753L84.5293 27.8961Z" fill="#4D4BB7"></path><path d="M90.3174 23.7763L89.0921 22.0399L83.2148 25.4557L84.4408 27.1922C84.6227 27.4508 84.6635 27.7671 84.5304 27.8961L90.4077 24.4802C90.5408 24.3519 90.4993 24.0349 90.3174 23.7763Z" fill="#9996FF"></path><path d="M83.8523 23.5829L89.7296 20.167C89.5945 20.877 89.3793 21.5009 89.0921 22.0399L83.2148 25.4557C83.5013 24.9168 83.7165 24.2929 83.8523 23.5829Z" fill="#4D4BB7"></path><path d="M73.9727 4.5065L79.85 1.09064L80.3129 3.02123L74.4356 6.43709L73.9727 4.5065Z" fill="#4D4BB7"></path><path d="M79.4731 0.542079C79.4303 0.517641 79.3875 0.500669 79.3448 0.492524L76.9614 0.005126C76.8983 -0.00641408 76.8433 0.0017325 76.7992 0.027528L70.9219 3.44271C70.966 3.41692 71.021 3.40809 71.0841 3.42031L73.4675 3.90771C73.5102 3.91585 73.553 3.93282 73.5958 3.95726C73.7668 4.05569 73.9257 4.27428 73.98 4.50576L79.8573 1.09057C79.803 0.859091 79.6435 0.640509 79.4731 0.542079Z" fill="#9996FF"></path><path d="M91.5375 21.0733L85.6602 24.4891C85.7335 24.4464 85.7783 24.3568 85.7783 24.2292L91.6556 20.8133C91.6556 20.9402 91.6101 21.0305 91.5375 21.0733Z" fill="#4D4BB7"></path><path d="M74.4453 6.43698L80.3226 3.02112C80.6613 3.1725 81.0001 3.33745 81.3497 3.53974C81.6959 3.73932 82.0339 3.96537 82.3727 4.20432L76.4954 7.62018C76.1573 7.38123 75.8186 7.15518 75.4724 6.95561C75.1221 6.75332 74.7834 6.58836 74.4453 6.43698Z" fill="#4D4BB7"></path><path d="M83.2344 17.17L89.1117 13.7541C89.3947 14.6223 89.6059 15.4926 89.7369 16.356L83.8596 19.7719C83.7286 18.9084 83.5174 18.0389 83.2344 17.17Z" fill="#4D4BB7"></path><path d="M85.7972 21.3529L91.6745 17.9371L91.6664 20.8126L85.7891 24.2284L85.7972 21.3529Z" fill="#4D4BB7"></path><path d="M91.2617 17.2324L89.7445 16.3568L83.8672 19.7726L85.3844 20.6483C85.6124 20.78 85.7944 21.0909 85.7937 21.3529L91.671 17.9371C91.6717 17.675 91.4897 17.3648 91.2617 17.2324Z" fill="#9996FF"></path><path d="M79.6523 10.6179L85.5296 7.20209C86.1257 7.93115 86.6796 8.71927 87.1799 9.54269L81.3026 12.9585C80.803 12.1358 80.2484 11.3477 79.6523 10.6179Z" fill="#4D4BB7"></path><path d="M80.1248 9.23183L86.0028 5.81665L85.5303 7.20282L79.6523 10.618L80.1248 9.23183Z" fill="#4D4BB7"></path><path d="M85.7378 5.0705L83.3591 2.80864C83.3164 2.76724 83.2736 2.73465 83.2308 2.71021C83.1229 2.64776 83.0197 2.63894 82.9437 2.68238L77.0664 6.09757C77.1418 6.05344 77.2456 6.06294 77.3536 6.1254C77.3963 6.14983 77.4398 6.18242 77.4818 6.22383L79.8598 8.48568C80.0723 8.69137 80.1897 9.02196 80.1205 9.23171L85.9978 5.81585C86.0677 5.60677 85.9502 5.27618 85.7378 5.0705Z" fill="#9996FF"></path><path d="M81.2969 12.9586L87.1742 9.54273L88.4056 9.22504L82.5283 12.6409L81.2969 12.9586Z" fill="#4D4BB7"></path><path d="M85.3768 20.6483C85.6049 20.78 85.7868 21.0909 85.7861 21.353L85.778 24.2285C85.7773 24.4864 85.594 24.591 85.3659 24.4586L83.8487 23.5822C83.7137 24.2923 83.4985 24.9161 83.2113 25.4551L84.4366 27.1916C84.6185 27.4502 84.6599 27.7665 84.5262 27.8955L83.0477 29.3747C82.9669 29.4548 82.842 29.4507 82.7151 29.3774C82.6323 29.3299 82.5488 29.2525 82.4768 29.15L81.2515 27.4142C80.7479 27.6572 80.1912 27.8045 79.5932 27.8446L80.0561 29.7711C80.124 30.0596 80.0052 30.2538 79.7921 30.2096L77.4087 29.7263C77.3673 29.7175 77.3259 29.7012 77.2845 29.6774C77.1121 29.5776 76.9505 29.3577 76.8962 29.1289L76.4332 27.1984C76.0945 27.047 75.7564 26.8773 75.4102 26.6777C75.06 26.4754 74.7219 26.2541 74.3839 26.0152L73.9114 27.4061C73.8557 27.5717 73.6935 27.605 73.5211 27.5052C73.4796 27.4814 73.4382 27.4502 73.3968 27.4115L71.0182 25.1456C70.8057 24.944 70.6883 24.614 70.7575 24.4043L71.23 23.0181C70.634 22.2891 70.0801 21.5009 69.5798 20.6775L68.3484 20.9952C68.2764 21.0142 68.1923 20.9945 68.1094 20.947C67.9832 20.8744 67.8583 20.7346 67.7782 20.5608L66.3126 17.3818C66.1802 17.0994 66.223 16.8306 66.4056 16.7831L67.637 16.4654C67.3539 15.5972 67.1428 14.7269 67.0125 13.8634L65.4953 12.9878C65.2672 12.8561 65.0853 12.5411 65.0859 12.2831L65.0941 9.40762C65.0948 9.1456 65.278 9.04581 65.5061 9.1775L67.0233 10.0539C67.1584 9.34449 67.3736 8.71997 67.6607 8.18098L66.4354 6.44454C66.2535 6.18591 66.2128 5.86957 66.3458 5.73652L67.8243 4.26143C67.9051 4.18133 68.03 4.1854 68.157 4.25871C68.2398 4.30623 68.3233 4.38362 68.3952 4.48612L69.6205 6.22188C70.1242 5.97886 70.6808 5.83156 71.2789 5.79219L70.8159 3.86567C70.748 3.57717 70.8668 3.38302 71.08 3.42307L73.4634 3.91047C73.5061 3.91862 73.5489 3.93559 73.5917 3.96003C73.7627 4.05846 73.9216 4.27704 73.9759 4.50852L74.4388 6.43911C74.7776 6.59049 75.1156 6.75544 75.4659 6.95773C75.8121 7.15731 76.1502 7.38336 76.4889 7.62231L76.9614 6.23139C77.0163 6.06372 77.1765 6.0291 77.3476 6.12753C77.3904 6.15196 77.4338 6.18455 77.4759 6.22596L79.8538 8.48781C80.0663 8.6935 80.1837 9.02409 80.1145 9.23384L79.642 10.62C80.2381 11.3491 80.792 12.1372 81.2923 12.9606L82.5237 12.6429C82.5963 12.6239 82.6798 12.6436 82.7626 12.6911C82.8889 12.7644 83.0138 12.9036 83.0939 13.0774L84.5595 16.2522C84.6918 16.5387 84.6491 16.8075 84.4665 16.855L83.2351 17.1727C83.5182 18.041 83.7293 18.9112 83.8603 19.7747L85.3768 20.6483ZM75.4184 23.7275C78.7345 25.6425 81.4362 24.1029 81.4471 20.2879C81.4579 16.4729 78.7738 11.8243 75.4577 9.90928C72.1376 7.99227 69.4366 9.53185 69.4257 13.3469C69.4142 17.1619 72.0982 21.8105 75.4184 23.7275Z" fill="#6865F7"></path><path d="M90.4359 12.8343L88.9709 9.6594C88.8908 9.48629 88.7659 9.34646 88.6397 9.27314C88.5569 9.22562 88.4734 9.20594 88.4007 9.22495L82.5234 12.6408C82.5961 12.6218 82.6796 12.6415 82.7624 12.689C82.8886 12.7623 83.0135 12.9015 83.0937 13.0753L84.5592 16.2501C84.6787 16.5081 84.6556 16.7518 84.5165 16.8319L90.3938 13.416C90.5322 13.3352 90.5553 13.0922 90.4359 12.8343Z" fill="#9996FF"></path></svg>