<svg xmlns="http://www.w3.org/2000/svg" width="497" height="320" viewBox="0 0 497 320" fill="none"><path d="M209.113 0.000427246L496.945 259.688V0.000427246H209.113Z" fill="#232D57"></path><path d="M124.528 25.1199C121.108 25.1199 118.336 29.4287 118.336 34.7414V291.369C118.336 296.66 121.121 300.989 124.527 300.989H276.246C279.666 300.989 282.439 296.682 282.439 291.368V34.7414C282.439 29.4287 279.666 25.1199 276.246 25.1199H124.528Z" fill="url(#paint0_linear_2_80326)"></path><path d="M236.004 127.3C226.499 127.3 218.793 135.007 218.793 144.511V187.216C218.793 196.722 226.499 204.429 236.004 204.429H281.029C290.535 204.429 298.238 196.722 298.238 187.216V144.511C298.238 135.007 290.535 127.3 281.029 127.3H236.004Z" fill="url(#paint1_linear_2_80326)"></path><path d="M117.177 192.928C107.672 192.928 99.9648 200.632 99.9648 210.138V252.843C99.9648 262.347 107.672 270.054 117.177 270.054H162.203C171.707 270.054 179.414 262.347 179.414 252.843V210.138C179.414 200.632 171.707 192.928 162.203 192.928H117.177Z" fill="url(#paint2_linear_2_80326)"></path><path d="M117.177 55.0016C107.672 55.0016 99.9648 62.7073 99.9648 72.2139V114.919C99.9648 124.423 107.672 132.129 117.177 132.129H162.203C171.707 132.129 179.414 124.423 179.414 114.919V72.2139C179.414 62.7073 171.707 55.0016 162.203 55.0016H117.177Z" fill="url(#paint3_linear_2_80326)"></path><mask id="mask0_2_80326" style="mask-type:luminance" maskUnits="userSpaceOnUse" x="194" y="83" width="75" height="19"><path d="M252.72 92.4151L268.079 101.282V83.5479L252.72 92.4151ZM233.308 92.4151L248.667 101.282V83.5479L233.308 92.4151ZM213.895 92.4151L229.255 101.282V83.5479L213.895 92.4151ZM194.484 92.4151L209.843 101.282V83.5479L194.484 92.4151Z" fill="white"></path></mask><g mask="url(#mask0_2_80326)"><mask id="mask1_2_80326" style="mask-type:luminance" maskUnits="userSpaceOnUse" x="-38072" y="-37224" width="75362" height="75362"><path d="M-38071.7 -37223.6H37289.3V38137.3H-38071.7V-37223.6Z" fill="url(#paint4_linear_2_80326)"></path></mask><g mask="url(#mask1_2_80326)"><path d="M252.72 92.4131L268.079 101.28V83.546L252.72 92.4131ZM233.308 92.4131L248.667 101.28V83.546L233.308 92.4131ZM213.895 92.4131L229.255 101.28V83.546L213.895 92.4131ZM194.484 92.4131L209.843 101.28V83.546L194.484 92.4131Z" fill="url(#paint5_linear_2_80326)"></path></g></g><mask id="mask2_2_80326" style="mask-type:luminance" maskUnits="userSpaceOnUse" x="194" y="230" width="75" height="19"><path d="M252.72 239.311L268.079 248.18V230.445L252.72 239.311ZM233.308 239.311L248.667 248.18V230.445L233.308 239.311ZM213.895 239.311L229.255 248.18V230.445L213.895 239.311ZM194.484 239.311L209.843 248.18V230.445L194.484 239.311Z" fill="white"></path></mask><g mask="url(#mask2_2_80326)"><mask id="mask3_2_80326" style="mask-type:luminance" maskUnits="userSpaceOnUse" x="-38072" y="-37224" width="75362" height="75362"><path d="M-38071.7 -37223.6H37289.3V38137.4H-38071.7V-37223.6Z" fill="url(#paint6_linear_2_80326)"></path></mask><g mask="url(#mask3_2_80326)"><path d="M252.717 239.326L268.075 248.194V230.46L252.717 239.326ZM233.305 239.326L248.663 248.194V230.46L233.305 239.326ZM213.891 239.326L229.251 248.194V230.46L213.891 239.326ZM194.48 239.326L209.839 248.194V230.46L194.48 239.326Z" fill="url(#paint7_linear_2_80326)"></path></g></g><mask id="mask4_2_80326" style="mask-type:luminance" maskUnits="userSpaceOnUse" x="130" y="154" width="74" height="19"><path d="M188.573 172.432L203.932 163.564L188.573 154.696V172.432ZM169.161 172.432L184.52 163.564L169.161 154.696V172.432ZM149.748 172.432L165.107 163.564L149.748 154.696V172.432ZM130.336 172.432L145.694 163.564L130.336 154.696V172.432Z" fill="white"></path></mask><g mask="url(#mask4_2_80326)"><mask id="mask5_2_80326" style="mask-type:luminance" maskUnits="userSpaceOnUse" x="-38072" y="-37224" width="75362" height="75362"><path d="M-38071.7 -37223.6H37289.3V38137.3H-38071.7V-37223.6Z" fill="url(#paint8_linear_2_80326)"></path></mask><g mask="url(#mask5_2_80326)"><path d="M188.573 172.429L203.932 163.562L188.573 154.693V172.429ZM169.161 172.429L184.52 163.562L169.161 154.693V172.429ZM149.748 172.429L165.107 163.562L149.748 154.693V172.429ZM130.336 172.429L145.694 163.562L130.336 154.693V172.429Z" fill="url(#paint9_linear_2_80326)"></path></g></g><path d="M254.391 296.383H293.921" stroke="white" stroke-width="4.23733" stroke-miterlimit="10" stroke-linecap="round"></path><path d="M254.391 305.238H293.921" stroke="white" stroke-width="4.23733" stroke-miterlimit="10" stroke-linecap="round"></path><mask id="mask6_2_80326" style="mask-type:luminance" maskUnits="userSpaceOnUse" x="90" y="5" width="61" height="36"><path d="M90.918 5.23743H150.799V40.4473H90.918V5.23743Z" fill="white"></path></mask><g mask="url(#mask6_2_80326)"><g opacity="0.729996"><path d="M148.445 40.4482H93.2719C91.9713 40.4482 90.918 39.3938 90.918 38.0943V7.5923C90.918 6.29173 91.9713 5.23839 93.2719 5.23839H148.445C149.745 5.23839 150.799 6.29173 150.799 7.5923V38.0943C150.799 39.3938 149.745 40.4482 148.445 40.4482Z" fill="#B0A8EA"></path></g></g><mask id="mask7_2_80326" style="mask-type:luminance" maskUnits="userSpaceOnUse" x="95" y="18" width="25" height="10"><path d="M95.3906 18.0166H119.483V27.668H95.3906V18.0166Z" fill="white"></path></mask><g mask="url(#mask7_2_80326)"><g opacity="0.740005"><path d="M96.4141 19.04H118.461" stroke="#D9D9FF" stroke-width="2.372" stroke-miterlimit="10" stroke-linecap="round"></path><path d="M96.4141 22.8428H118.461" stroke="#D9D9FF" stroke-width="2.372" stroke-miterlimit="10" stroke-linecap="round"></path><path d="M96.4141 26.6455H107.789" stroke="#D9D9FF" stroke-width="2.372" stroke-miterlimit="10" stroke-linecap="round"></path></g></g><path d="M254.391 278.672H293.921" stroke="white" stroke-width="4.23733" stroke-miterlimit="10" stroke-linecap="round"></path><path d="M254.391 287.527H293.921" stroke="white" stroke-width="4.23733" stroke-miterlimit="10" stroke-linecap="round"></path><path d="M93.6998 216.418C83.0606 198.178 76.9648 176.96 76.9648 154.321C76.9648 132.232 82.7686 111.498 92.9328 93.5613" stroke="#2525D6" stroke-width="2.66667" stroke-miterlimit="10" stroke-linecap="round"></path><path d="M290.138 69.5877C311.018 91.6941 323.819 121.513 323.819 154.322C323.819 187.258 310.918 217.181 289.895 239.313" stroke="#2525D6" stroke-width="2.66667" stroke-miterlimit="10" stroke-linecap="round"></path><path d="M29.8293 265.318C10.3138 231.86 0 193.598 0 154.669C0 116.698 9.84114 79.2589 28.462 46.3972L74.4836 72.4754C60.3612 97.3991 52.897 125.821 52.897 154.669C52.897 184.243 60.72 213.29 75.522 238.667L29.8293 265.318Z" fill="#29366F"></path><path d="M202 320.001L496.946 66.4084V320.001H202Z" fill="#334078"></path><defs><linearGradient id="paint0_linear_2_80326" x1="121.418" y1="299.833" x2="279.358" y2="26.2719" gradientUnits="userSpaceOnUse"><stop stop-color="#33259E"></stop><stop offset="0.160842" stop-color="#33259E"></stop><stop offset="1" stop-color="#5340D0"></stop></linearGradient><linearGradient id="paint1_linear_2_80326" x1="218.793" y1="165.864" x2="298.24" y2="165.864" gradientUnits="userSpaceOnUse"><stop stop-color="#0CB2E5"></stop><stop offset="0.839158" stop-color="#21D9FB"></stop><stop offset="1" stop-color="#21D9FB"></stop></linearGradient><linearGradient id="paint2_linear_2_80326" x1="99.9663" y1="231.49" x2="179.413" y2="231.49" gradientUnits="userSpaceOnUse"><stop stop-color="#0CB2E5"></stop><stop offset="0.839158" stop-color="#21D9FB"></stop><stop offset="1" stop-color="#21D9FB"></stop></linearGradient><linearGradient id="paint3_linear_2_80326" x1="99.9663" y1="93.5655" x2="179.413" y2="93.5655" gradientUnits="userSpaceOnUse"><stop stop-color="#0CB2E5"></stop><stop offset="0.839158" stop-color="#21D9FB"></stop><stop offset="1" stop-color="#21D9FB"></stop></linearGradient><linearGradient id="paint4_linear_2_80326" x1="194.483" y1="92.4099" x2="268.079" y2="92.4099" gradientUnits="userSpaceOnUse"><stop stop-color="white"></stop><stop offset="0.839158" stop-color="white" stop-opacity="0"></stop><stop offset="1" stop-color="white" stop-opacity="0"></stop></linearGradient><linearGradient id="paint5_linear_2_80326" x1="194.484" y1="92.4127" x2="268.079" y2="92.4127" gradientUnits="userSpaceOnUse"><stop stop-color="#0CB2E5"></stop><stop offset="0.839158" stop-color="#AAFFFB"></stop><stop offset="1" stop-color="#AAFFFB"></stop></linearGradient><linearGradient id="paint6_linear_2_80326" x1="194.479" y1="239.321" x2="268.075" y2="239.321" gradientUnits="userSpaceOnUse"><stop stop-color="white"></stop><stop offset="0.839158" stop-color="white" stop-opacity="0"></stop><stop offset="1" stop-color="white" stop-opacity="0"></stop></linearGradient><linearGradient id="paint7_linear_2_80326" x1="194.48" y1="239.327" x2="268.075" y2="239.327" gradientUnits="userSpaceOnUse"><stop stop-color="#0CB2E5"></stop><stop offset="0.839158" stop-color="#AAFFFB"></stop><stop offset="1" stop-color="#AAFFFB"></stop></linearGradient><linearGradient id="paint8_linear_2_80326" x1="203.933" y1="163.558" x2="130.338" y2="163.558" gradientUnits="userSpaceOnUse"><stop stop-color="white"></stop><stop offset="0.839158" stop-color="white" stop-opacity="0"></stop><stop offset="1" stop-color="white" stop-opacity="0"></stop></linearGradient><linearGradient id="paint9_linear_2_80326" x1="203.932" y1="163.561" x2="130.336" y2="163.561" gradientUnits="userSpaceOnUse"><stop stop-color="#0CB2E5"></stop><stop offset="0.839158" stop-color="#AAFFFB"></stop><stop offset="1" stop-color="#AAFFFB"></stop></linearGradient></defs></svg>