<svg xmlns="http://www.w3.org/2000/svg" width="438" height="268" viewBox="0 0 438 268" fill="none"><path opacity="0.3" d="M297.552 14.6237C297.581 14.6169 297.61 14.6102 297.639 14.6027C330.309 6.77867 355.344 16.9628 368.013 45.4281C374.283 59.5154 375.468 82.3496 392.076 90.1981C408.73 98.0696 420.836 102.874 429.12 120.02C436.652 135.611 439.93 154.825 436.848 171.664C429.608 211.215 393.18 240.955 349.193 240.955C291.101 240.955 233.01 240.955 174.919 240.955C121.153 240.955 37.2796 255.248 8.19897 201.777C-4.73498 177.994 -2.05035 147.942 14.0212 125.833C26.8221 108.225 47.5371 95.9771 69.944 91.4648C79.2839 89.5835 91.2702 91.5293 99.0082 85.7502C105.897 80.6062 107.935 70.7956 109.976 63.3309C113.846 49.1716 118.911 34.8853 129.008 23.3483C147.239 2.51554 180.56 -5.25142 208.006 3.61579C224.081 8.80938 238.381 19.037 255.296 20.9291C269.559 22.5245 283.65 17.9584 297.552 14.6237Z" fill="#BAF1FF"></path><path d="M394.085 255.37C394.085 252.306 318.454 249.823 225.16 249.823C131.865 249.823 56.2344 252.306 56.2344 255.37C56.2344 256.891 74.8992 258.27 105.114 259.271C91.0574 260.129 82.9114 261.147 82.9114 262.238C82.9114 265.301 147.046 267.785 226.161 267.785C305.275 267.785 369.41 265.302 369.41 262.238C369.41 261.128 360.988 260.094 346.491 259.228C375.948 258.229 394.085 256.869 394.085 255.37Z" fill="#BAF1FF"></path><path opacity="0.7" d="M289.689 46.5866C289.715 46.5804 289.739 46.5743 289.764 46.5689C317.949 39.8187 339.548 48.605 350.477 73.1631C355.887 85.3168 356.909 105.017 371.237 111.788C385.606 118.579 396.05 122.724 403.197 137.517C409.695 150.967 412.523 167.544 409.864 182.072C403.617 216.193 372.19 241.851 334.24 241.851C284.123 241.851 234.006 241.851 183.889 241.851C137.503 241.851 65.1422 254.182 40.0541 208.05C28.8953 187.532 31.2116 161.605 45.0774 142.531C56.1209 127.34 73.9922 116.774 93.3243 112.88C101.382 111.258 111.723 112.936 118.399 107.95C124.342 103.512 126.101 95.0479 127.861 88.608C131.201 76.3925 135.57 64.067 144.281 54.1138C160.01 36.1403 188.757 29.4396 212.436 37.0898C226.304 41.5702 238.642 50.394 253.235 52.0267C265.539 53.4027 277.695 49.4628 289.689 46.5866Z" fill="#BAF1FF"></path><path d="M24.5586 103.467C30.3092 101.41 38.4579 101.812 44.6486 101.434C51.9609 100.988 59.3011 100.849 66.6134 101.37C80.9371 102.388 95.3569 106.056 107.233 114.094C127.881 128.069 139.884 155.352 139.425 179.932C139.384 182.118 102.903 176.223 100.585 175.476C83.3843 169.937 69.2885 161.663 57.5 147.691C51.1135 140.122 45.6835 131.829 40.375 123.495C37.6897 119.279 35.2991 114.449 32.1294 110.578C29.9701 107.944 27.4991 105.231 24.5586 103.467Z" fill="#007577"></path><path d="M24.5625 103.467C30.3131 101.41 38.4618 101.812 44.6525 101.434C51.9648 100.988 59.305 100.849 66.6173 101.37C80.941 102.388 95.3608 106.056 107.237 114.094C127.885 128.069 139.888 155.352 139.429 179.932C139.388 182.118 102.906 176.223 100.589 175.476C83.3882 169.937 69.2924 161.663 57.5039 147.691C51.1174 140.122 45.6875 131.829 40.3789 123.495C37.6936 119.279 35.303 114.449 32.1333 110.578C29.974 107.944 27.503 105.231 24.5625 103.467Z" fill="#007577"></path><path opacity="0.2" d="M32.1333 110.578C35.3037 114.45 37.6943 119.28 40.3789 123.495C45.6875 131.83 51.1181 140.123 57.5046 147.691C69.293 161.663 83.3882 169.938 100.589 175.477C102.906 176.223 139.388 182.119 139.429 179.933C139.43 179.911 139.429 179.89 139.429 179.869C132.112 162.954 112.261 144.373 88.2048 125.635C58.9482 102.846 24.5625 103.467 24.5625 103.467C27.5043 105.231 29.9754 107.944 32.1333 110.578Z" fill="#007577"></path><g opacity="0.31"><path d="M44.3359 105.779C46.7361 106.065 49.1096 106.564 51.4558 107.156C53.8061 107.737 56.1333 108.416 58.4393 109.162C63.0389 110.69 67.5547 112.49 71.9354 114.577C76.3338 116.63 80.5848 118.988 84.7288 121.514C88.8598 124.062 92.8584 126.818 96.7376 129.732C97.6996 130.47 98.6397 131.236 99.5921 131.987C100.55 132.731 101.479 133.51 102.4 134.297C103.321 135.085 104.262 135.85 105.165 136.658L107.862 139.094C111.392 142.412 114.843 145.815 118.045 149.442L120.458 152.149L122.776 154.937C124.336 156.782 125.78 158.72 127.254 160.63C127.992 161.584 128.68 162.576 129.374 163.563L131.456 166.519C132.819 168.506 134.103 170.547 135.398 172.573L133.161 169.737C132.42 168.79 131.711 167.821 130.949 166.891L128.661 164.106C127.9 163.178 127.145 162.245 126.341 161.352C124.765 159.541 123.241 157.692 121.594 155.948L119.179 153.287L116.686 150.699C115.048 148.953 113.297 147.317 111.611 145.621C110.763 144.778 109.865 143.984 108.995 143.164C108.115 142.355 107.256 141.522 106.344 140.749C102.794 137.543 99.0866 134.519 95.294 131.61C91.4987 128.703 87.5642 125.981 83.5355 123.405C79.5192 120.808 75.3555 118.442 71.1133 116.223C66.8615 114.022 62.5034 112.016 58.0429 110.245C53.5967 108.434 49.0284 106.903 44.3359 105.779Z" fill="#007577"></path><path d="M70.8086 107.299C73.234 107.761 75.5263 108.745 77.6842 109.934C79.8374 111.143 81.8364 112.636 83.6334 114.346C84.5503 115.182 85.3581 116.13 86.1679 117.068C86.5479 117.559 86.9136 118.062 87.2732 118.567C87.4512 118.821 87.6381 119.067 87.8073 119.326L88.2788 120.129C89.5866 122.231 90.451 124.591 90.9634 126.971C89.5273 124.967 88.2849 122.974 86.7417 121.189L86.1979 120.502L85.6153 119.845L84.4582 118.533C83.6341 117.706 82.859 116.838 81.9905 116.056C80.3034 114.448 78.5268 112.921 76.6554 111.482C74.7861 110.031 72.8424 108.668 70.8086 107.299Z" fill="#007577"></path><path d="M80.55 120.803C78.4344 122.071 76.0677 122.862 73.6634 123.411C71.2504 123.942 68.7602 124.16 66.2761 124.082C65.0324 124.069 63.7948 123.899 62.5634 123.739C61.9514 123.626 61.3415 123.495 60.7356 123.358C60.4327 123.288 60.1284 123.229 59.8289 123.148L58.9393 122.864C56.5555 122.168 54.3294 120.986 52.3516 119.555C54.7653 120.092 57.0263 120.75 59.3725 121.054L60.2383 121.205L61.1122 121.306L62.8533 121.513C64.022 121.581 65.1804 121.712 66.3519 121.717C68.6865 121.793 71.0327 121.748 73.3919 121.576C75.7566 121.413 78.1171 121.135 80.55 120.803Z" fill="#007577"></path><path d="M96.9563 132.654C94.8406 133.922 92.4739 134.714 90.0697 135.262C87.6566 135.793 85.1664 136.011 82.6824 135.933C81.4386 135.92 80.2011 135.75 78.9696 135.59C78.3576 135.477 77.7484 135.347 77.1419 135.209C76.839 135.139 76.5347 135.08 76.2352 134.999L75.3455 134.715C72.9618 134.019 70.7356 132.837 68.7578 131.406C71.1716 131.943 73.4325 132.601 75.7788 132.904L76.6445 133.055L77.5185 133.156L79.2596 133.363C80.4282 133.431 81.5867 133.562 82.7581 133.567C85.0927 133.643 87.439 133.599 89.7982 133.427C92.1628 133.264 94.5241 132.986 96.9563 132.654Z" fill="#007577"></path><path d="M113.359 144.505C111.243 145.773 108.876 146.565 106.472 147.113C104.059 147.644 101.569 147.862 99.0847 147.783C97.841 147.77 96.6034 147.601 95.372 147.441C94.76 147.327 94.1507 147.197 93.5442 147.06C93.2413 146.989 92.937 146.93 92.6375 146.85L91.7479 146.565C89.3641 145.87 87.138 144.687 85.1602 143.256C87.5739 143.794 89.8349 144.451 92.1811 144.755L93.0469 144.906L93.9208 145.007L95.6619 145.214C96.8306 145.282 97.9891 145.413 99.1605 145.418C101.495 145.494 103.841 145.449 106.201 145.278C108.565 145.115 110.926 144.837 113.359 144.505Z" fill="#007577"></path><path d="M126.094 160.447C123.978 161.715 121.611 162.506 119.207 163.055C116.794 163.586 114.304 163.804 111.82 163.725C110.576 163.712 109.338 163.543 108.106 163.383C107.494 163.269 106.885 163.139 106.279 163.002C105.976 162.931 105.671 162.872 105.372 162.792L104.482 162.507C102.099 161.812 99.8724 160.629 97.8945 159.198C100.308 159.735 102.569 160.393 104.915 160.697L105.781 160.847L106.655 160.948L108.396 161.156C109.565 161.224 110.723 161.355 111.895 161.359C114.229 161.435 116.576 161.391 118.935 161.219C121.3 161.056 123.661 160.779 126.094 160.447Z" fill="#007577"></path><path d="M92.7969 115.912C95.0333 116.956 97.0118 118.471 98.8081 120.154C100.596 121.853 102.164 123.791 103.482 125.888C104.164 126.924 104.712 128.041 105.265 129.149C105.511 129.718 105.742 130.294 105.965 130.872C106.075 131.161 106.195 131.446 106.295 131.739L106.553 132.633C107.3 134.991 107.554 137.49 107.461 139.922C106.565 137.627 105.854 135.392 104.801 133.283L104.444 132.483L104.042 131.704L103.245 130.148C102.651 129.144 102.114 128.113 101.466 127.142C100.229 125.17 98.8852 123.255 97.4279 121.4C95.9761 119.536 94.4295 117.739 92.7969 115.912Z" fill="#007577"></path><path d="M113.469 127.088C115.401 128.62 116.971 130.552 118.326 132.604C119.668 134.67 120.741 136.917 121.534 139.262C121.955 140.428 122.227 141.641 122.506 142.846C122.614 143.456 122.703 144.07 122.785 144.683C122.824 144.99 122.875 145.295 122.904 145.603L122.946 146.532C123.123 148.998 122.786 151.488 122.128 153.832C121.793 151.393 121.623 149.054 121.091 146.76L120.93 145.899L120.721 145.048L120.309 143.351C119.965 142.238 119.685 141.111 119.28 140.017C118.537 137.812 117.678 135.638 116.692 133.497C115.715 131.348 114.63 129.242 113.469 127.088Z" fill="#007577"></path></g><path d="M88.668 48.1411C93.183 48.4067 98.611 51.0405 102.934 52.5768C108.041 54.3908 113.077 56.4229 117.901 58.8944C127.352 63.7362 136.093 70.409 141.827 79.319C151.795 94.8108 151.99 116.855 144.493 133.451C143.827 134.926 120.721 120.347 119.362 119.168C109.274 110.417 102.1 100.703 98.1607 87.78C96.0266 80.7792 94.7543 73.5624 93.5774 66.353C92.9818 62.7065 92.7669 58.7266 91.7408 55.1739C91.0422 52.7561 90.1539 50.1936 88.668 48.1411Z" fill="#007577"></path><path d="M88.6719 48.1411C93.187 48.4067 98.6149 51.0405 102.938 52.5768C108.045 54.3908 113.081 56.4229 117.905 58.8944C127.356 63.7362 136.097 70.409 141.831 79.319C151.799 94.8108 151.994 116.855 144.497 133.451C143.83 134.926 120.725 120.347 119.366 119.168C109.278 110.417 102.104 100.703 98.1646 87.78C96.0305 80.7792 94.7582 73.5624 93.5813 66.353C92.9857 62.7065 92.7708 58.7266 91.7447 55.1739C91.0461 52.7561 90.1578 50.1936 88.6719 48.1411Z" fill="#007577"></path><path opacity="0.2" d="M91.7454 55.1739C92.7715 58.7266 92.9864 62.7065 93.582 66.353C94.7588 73.563 96.0312 80.7799 98.1653 87.78C102.105 100.703 109.279 110.417 119.367 119.168C120.726 120.347 143.831 134.926 144.498 133.451C144.505 133.436 144.51 133.421 144.517 133.407C144.481 119.776 136.402 101.381 125.506 81.6607C112.256 57.678 88.6719 48.1411 88.6719 48.1411C90.1578 50.1936 91.0461 52.7561 91.7454 55.1739Z" fill="#007577"></path><g opacity="0.31"><path d="M101.445 55.4424C107.568 59.1506 112.869 64.1072 117.632 69.4441C122.393 74.8088 126.512 80.7196 130.104 86.9225C130.956 88.4981 131.764 90.0976 132.596 91.6834C132.999 92.4828 133.444 93.2625 133.813 94.0775L134.897 96.5341C135.598 98.181 136.351 99.8056 137.008 101.468L138.809 106.521L139.699 109.048L140.419 111.629L141.83 116.792C142.082 117.647 142.241 118.525 142.413 119.401L142.924 122.025C143.262 123.775 143.585 125.525 143.896 127.274C143.402 125.561 142.918 123.849 142.449 122.137L141.752 119.568C141.522 118.712 141.305 117.852 140.996 117.018L139.319 111.974L138.494 109.45L137.516 106.982L135.578 102.043C134.891 100.415 134.108 98.8283 133.38 97.2193L132.281 94.8083C131.912 94.0069 131.466 93.2415 131.063 92.4563C130.231 90.8983 129.42 89.3294 128.573 87.7809L125.853 83.2353L125.171 82.099L124.427 81.0035L122.944 78.8085C122.446 78.079 121.979 77.3279 121.455 76.6161L119.864 74.4971L118.274 72.3747L116.592 70.325C112.077 64.8896 107.141 59.7415 101.445 55.4424Z" fill="#007577"></path><path d="M119.023 64.1418C120.537 65.1606 121.817 66.4897 122.928 67.9302C124.049 69.3701 124.967 70.9702 125.692 72.6525C126.072 73.4872 126.345 74.3667 126.622 75.2394C126.736 75.6836 126.839 76.1319 126.935 76.5794C126.982 76.8036 127.038 77.0257 127.077 77.2511L127.158 77.9351C127.444 79.7423 127.335 81.6005 126.99 83.3684C126.6 81.5876 126.33 79.8734 125.812 78.2094C125.602 77.3707 125.281 76.5625 125.029 75.7413C124.71 74.9392 124.436 74.1242 124.073 73.3412C123.397 71.7567 122.628 70.2075 121.784 68.6794C120.927 67.1567 120.009 65.6618 119.023 64.1418Z" fill="#007577"></path><path d="M121.709 76.157C119.899 76.4049 118.055 76.2657 116.262 75.9322C114.461 75.6055 112.705 75.0248 111.036 74.254C110.194 73.8845 109.401 73.4111 108.61 72.9459C108.226 72.6919 107.85 72.4257 107.477 72.1574C107.292 72.0216 107.102 71.8939 106.922 71.7512L106.403 71.2962C104.977 70.1409 103.812 68.6855 102.883 67.1404C104.367 68.2074 105.718 69.3035 107.22 70.198C107.94 70.6822 108.72 71.0714 109.458 71.5149C110.234 71.8993 110.984 72.3245 111.78 72.6668C113.346 73.3969 114.958 74.0387 116.611 74.6153C118.269 75.1783 119.955 75.6809 121.709 76.157Z" fill="#007577"></path><path d="M129.4 88.9741C127.59 89.222 125.747 89.0828 123.952 88.7493C122.152 88.4227 120.396 87.842 118.728 87.0711C117.885 86.7017 117.092 86.2283 116.301 85.763C115.918 85.509 115.541 85.2428 115.168 84.9745C114.984 84.8387 114.793 84.711 114.613 84.5684L114.094 84.1133C112.669 82.9581 111.503 81.5026 110.574 79.9575C112.058 81.0245 113.41 82.1207 114.911 83.0151C115.631 83.4994 116.411 83.8885 117.149 84.332C117.925 84.7164 118.675 85.1416 119.471 85.4839C121.036 86.214 122.649 86.8558 124.302 87.4324C125.96 87.9955 127.647 88.498 129.4 88.9741Z" fill="#007577"></path><path d="M137.106 101.791C135.296 102.039 133.453 101.9 131.659 101.567C129.859 101.24 128.103 100.659 126.434 99.889C125.591 99.5195 124.799 99.0461 124.007 98.5809C123.624 98.3269 123.247 98.0607 122.875 97.7924C122.69 97.6566 122.5 97.5289 122.319 97.3862L121.8 96.9312C120.375 95.7759 119.21 94.3205 118.281 92.7754C119.765 93.8424 121.117 94.9385 122.618 95.833C123.338 96.3172 124.119 96.7064 124.857 97.1499C125.632 97.5343 126.382 97.9595 127.178 98.3018C128.743 99.0319 130.356 99.6737 132.009 100.25C133.667 100.813 135.353 101.315 137.106 101.791Z" fill="#007577"></path><path d="M141.119 116.328C139.309 116.576 137.465 116.437 135.672 116.104C133.871 115.777 132.115 115.196 130.446 114.425C129.604 114.056 128.811 113.583 128.02 113.117C127.636 112.863 127.26 112.597 126.887 112.329C126.702 112.193 126.511 112.065 126.331 111.923L125.812 111.468C124.387 110.312 123.222 108.857 122.293 107.312C123.777 108.379 125.128 109.475 126.63 110.369C127.35 110.854 128.13 111.243 128.868 111.686C129.644 112.071 130.394 112.496 131.19 112.838C132.756 113.568 134.368 114.21 136.021 114.787C137.68 115.35 139.365 115.852 141.119 116.328Z" fill="#007577"></path><path d="M131.465 76.3735C132.68 77.7319 133.591 79.334 134.311 81.0027C135.041 82.6735 135.535 84.4488 135.822 86.2575C135.983 87.1601 136.029 88.079 136.082 88.9932C136.083 89.4516 136.071 89.9114 136.054 90.3685C136.044 90.5973 136.043 90.8255 136.025 91.0537L135.935 91.7363C135.765 93.5578 135.199 95.3318 134.428 96.9605C134.491 95.1396 134.653 93.4118 134.563 91.6718C134.566 90.8072 134.456 89.9453 134.415 89.0876C134.304 88.2318 134.24 87.3754 134.083 86.5271C133.82 84.8258 133.457 83.1353 133.018 81.4476C132.564 79.7619 132.045 78.0884 131.465 76.3735Z" fill="#007577"></path><path d="M142.275 89.97C143.139 91.5721 143.652 93.3407 143.963 95.131C144.283 96.9246 144.349 98.7659 144.205 100.591C144.151 101.506 143.982 102.41 143.819 103.312C143.714 103.758 143.595 104.202 143.472 104.643C143.409 104.863 143.355 105.086 143.284 105.304L143.037 105.947C142.446 107.679 141.482 109.274 140.352 110.68C140.838 108.923 141.399 107.28 141.717 105.567C141.922 104.727 142.016 103.863 142.177 103.019C142.268 102.162 142.406 101.313 142.452 100.452C142.593 98.7367 142.635 97.0089 142.602 95.2654C142.553 93.52 142.439 91.7718 142.275 89.97Z" fill="#007577"></path></g><path d="M41.7773 176.763C49.2349 173.089 60.7232 172.084 69.2615 170.455C79.3464 168.53 89.5561 166.991 99.9099 166.29C120.192 164.917 141.344 166.882 160.159 174.853C192.874 188.712 217.219 221.03 223.411 252.241C223.962 255.016 171.388 254.332 167.945 253.818C142.39 250.001 120.409 242.143 100.065 226.641C89.0445 218.244 79.1574 208.752 69.4279 199.185C64.5069 194.346 59.8267 188.673 54.3238 184.36C50.5783 181.427 46.3729 178.45 41.7773 176.763Z" fill="#007577"></path><path d="M41.7773 176.763C49.2349 173.089 60.7232 172.084 69.2615 170.455C79.3464 168.53 89.5561 166.991 99.9099 166.29C120.192 164.917 141.344 166.882 160.159 174.853C192.874 188.712 217.219 221.03 223.411 252.241C223.962 255.016 171.388 254.332 167.945 253.818C142.39 250.001 120.409 242.143 100.065 226.641C89.0445 218.244 79.1574 208.752 69.4279 199.185C64.5069 194.346 59.8267 188.673 54.3238 184.36C50.5783 181.427 46.3729 178.45 41.7773 176.763Z" fill="#007577"></path><path opacity="0.2" d="M54.3245 184.361C59.8267 188.674 64.5076 194.346 69.4286 199.185C79.1581 208.753 89.0458 218.245 100.066 226.641C120.41 242.143 142.39 250.001 167.946 253.817C171.388 254.332 223.963 255.017 223.412 252.241C223.407 252.214 223.4 252.187 223.394 252.16C208.475 232.1 175.594 212.261 136.797 193.003C89.6135 169.584 41.7773 176.763 41.7773 176.763C46.3736 178.45 50.579 181.427 54.3245 184.361Z" fill="#007577"></path><g opacity="0.31"><path d="M70.0312 176.015C73.45 175.926 76.8762 176.1 80.2888 176.384C83.7047 176.657 87.1044 177.101 90.4965 177.601C97.2718 178.653 103.999 180.061 110.628 181.843C117.269 183.585 123.794 185.749 130.233 188.129C131.853 188.699 133.442 189.348 135.033 189.993C136.624 190.637 138.222 191.265 139.789 191.965C141.361 192.653 142.944 193.319 144.508 194.026L149.175 196.199C161.514 202.209 173.411 209.142 184.523 217.157C195.663 225.123 206.156 233.967 215.741 243.671C205.251 234.946 194.408 226.72 183.101 219.206L180.986 217.792L178.83 216.439L174.539 213.705L170.176 211.089L167.993 209.784L165.778 208.535L161.354 206.028L156.868 203.634C155.38 202.821 153.863 202.066 152.344 201.314C150.822 200.569 149.324 199.777 147.782 199.072C141.694 196.09 135.451 193.433 129.147 190.942C122.848 188.431 116.426 186.232 109.942 184.227C103.446 182.262 96.87 180.537 90.2161 179.134C86.8929 178.414 83.5465 177.789 80.183 177.257C76.8182 176.733 73.4391 176.261 70.0312 176.015Z" fill="#007577"></path><path d="M107.402 173.02C110.86 173.105 114.26 173.87 117.543 174.931C120.822 176.017 123.983 177.488 126.953 179.285C127.683 179.755 128.438 180.184 129.144 180.692L131.241 182.239C131.932 182.764 132.572 183.359 133.225 183.93L134.195 184.797C134.51 185.095 134.798 185.424 135.101 185.735C135.696 186.367 136.283 187.006 136.859 187.648C137.391 188.336 137.909 189.032 138.417 189.728L139.159 190.785C139.378 191.16 139.604 191.528 139.808 191.909C140.229 192.663 140.641 193.416 141.012 194.185C140.349 193.621 139.726 193.04 139.112 192.46C138.8 192.175 138.508 191.875 138.21 191.583L137.242 190.772C136.604 190.228 135.98 189.681 135.365 189.129C134.703 188.623 134.051 188.113 133.409 187.597C132.781 187.065 132.108 186.587 131.435 186.111C130.755 185.645 130.126 185.117 129.432 184.674L127.378 183.31C126.704 182.843 125.978 182.447 125.283 182.01C122.472 180.304 119.575 178.719 116.59 177.247C113.601 175.772 110.556 174.393 107.402 173.02Z" fill="#007577"></path><path d="M124.768 188.309C122 190.391 118.824 191.872 115.557 193.014C112.28 194.153 108.852 194.884 105.384 195.222C103.654 195.436 101.903 195.426 100.162 195.453C99.2905 195.403 98.4193 195.363 97.5508 195.296C97.1169 195.256 96.6816 195.254 96.2505 195.183L94.9576 194.986C91.5082 194.531 88.1563 193.438 85.0508 191.969C88.5179 192.156 91.8254 192.529 95.163 192.483C96.8201 192.558 98.4794 192.428 100.127 192.424L102.599 192.259C103.424 192.235 104.245 192.136 105.066 192.046C108.351 191.729 111.629 191.251 114.898 190.599C118.176 189.965 121.433 189.193 124.768 188.309Z" fill="#007577"></path><path d="M150.982 200.266C148.215 202.348 145.039 203.829 141.771 204.971C138.495 206.11 135.067 206.841 131.599 207.18C129.869 207.394 128.118 207.383 126.377 207.41C125.505 207.36 124.634 207.32 123.766 207.253C123.332 207.214 122.897 207.212 122.465 207.14L121.172 206.943C117.723 206.488 114.371 205.395 111.266 203.926C114.733 204.113 118.04 204.487 121.378 204.441C123.035 204.515 124.694 204.385 126.342 204.381L128.815 204.216C129.64 204.193 130.461 204.093 131.281 204.003C134.566 203.687 137.844 203.207 141.114 202.557C144.391 201.922 147.649 201.151 150.982 200.266Z" fill="#007577"></path><path d="M177.178 212.224C174.41 214.306 171.234 215.787 167.967 216.928C164.69 218.067 161.262 218.799 157.794 219.137C156.064 219.351 154.313 219.341 152.573 219.367C151.701 219.317 150.829 219.278 149.961 219.21C149.527 219.171 149.092 219.169 148.661 219.098L147.368 218.901C143.918 218.446 140.567 217.354 137.461 215.885C140.928 216.071 144.236 216.445 147.573 216.399C149.23 216.473 150.89 216.343 152.538 216.34L155.01 216.175C155.835 216.151 156.656 216.051 157.477 215.961C160.762 215.644 164.04 215.165 167.309 214.515C170.586 213.879 173.844 213.108 177.178 212.224Z" fill="#007577"></path><path d="M199.373 230.044C196.606 232.126 193.429 233.607 190.162 234.749C186.885 235.888 183.458 236.619 179.99 236.957C178.26 237.171 176.508 237.161 174.768 237.188C173.896 237.138 173.025 237.098 172.156 237.031C171.722 236.991 171.288 236.989 170.856 236.919L169.563 236.722C166.114 236.267 162.762 235.174 159.656 233.705C163.123 233.892 166.431 234.265 169.768 234.219C171.426 234.294 173.085 234.163 174.732 234.159L177.205 233.994C178.03 233.97 178.85 233.871 179.671 233.781C182.956 233.464 186.234 232.985 189.504 232.334C192.781 231.7 196.039 230.928 199.373 230.044Z" fill="#007577"></path><path d="M140.504 179.841C143.794 180.652 146.879 182.111 149.784 183.835C152.682 185.582 155.379 187.678 157.812 190.055C160.27 192.407 162.372 195.139 164.099 198.066C164.515 198.809 164.921 199.556 165.316 200.304C165.662 201.081 165.98 201.871 166.295 202.655L166.744 203.837C166.859 204.247 166.981 204.651 167.08 205.064C167.291 205.883 167.494 206.698 167.653 207.519C167.159 206.824 166.709 206.122 166.268 205.425C166.041 205.079 165.837 204.725 165.625 204.377L164.897 203.38L163.506 201.381C162.996 200.747 162.497 200.111 162.009 199.472C159.996 196.96 157.881 194.555 155.56 192.328C153.266 190.083 150.858 187.937 148.337 185.88C145.814 183.822 143.212 181.841 140.504 179.841Z" fill="#007577"></path><path d="M172.48 190.148C175.459 191.589 178.1 193.625 180.503 195.884C182.894 198.165 185.009 200.748 186.796 203.55C188.614 206.333 189.985 209.417 190.936 212.599C191.155 213.402 191.364 214.206 191.56 215.009C191.701 215.83 191.811 216.655 191.919 217.473L192.057 218.701C192.064 219.117 192.081 219.529 192.072 219.944C192.07 220.771 192.059 221.591 192.006 222.405C191.704 221.628 191.445 220.857 191.196 220.093C191.063 219.712 190.956 219.329 190.84 218.95L190.387 217.836L189.543 215.62C189.207 214.902 188.883 214.186 188.569 213.469C187.244 210.632 185.791 207.877 184.084 205.256C182.408 202.621 180.591 200.061 178.64 197.566C176.688 195.066 174.636 192.628 172.48 190.148Z" fill="#007577"></path></g><path d="M253.511 208.335H207.34V246.48H253.511V208.335Z" fill="#E6E8E8"></path><path d="M335.311 221.355H125.54C120.942 221.355 117.215 217.644 117.215 213.067V85.1897C117.215 80.6121 120.943 76.9011 125.54 76.9011H335.311C339.91 76.9011 343.637 80.6121 343.637 85.1897V213.066C343.637 217.644 339.91 221.355 335.311 221.355Z" fill="#FBFFFF"></path><path d="M333.13 79.7944H128.069C123.574 79.7944 119.93 83.4219 119.93 87.8969V200.108H341.268V87.8969C341.268 83.4219 337.624 79.7944 333.13 79.7944Z" fill="#00499B"></path><path d="M282.087 254.871H175.34V255.428C175.34 249.009 180.567 243.806 187.014 243.806H270.413C276.86 243.806 282.088 249.009 282.088 255.428V254.871H282.087Z" fill="#FBFFFF"></path><path d="M253.511 221.354H207.34V228.853H253.511V221.354Z" fill="#E5E5E5"></path><path opacity="0.47" d="M117.215 213.066V85.1897C117.215 80.6121 120.943 76.9011 125.54 76.9011H335.311C339.91 76.9018 117.215 213.066 117.215 213.066Z" fill="#00499B"></path><path d="M184.924 90.2509H142.418C140.737 90.2509 139.375 88.8946 139.375 87.2212V36.2456C139.375 34.5721 140.737 33.2158 142.418 33.2158H184.924C186.605 33.2158 187.968 34.5721 187.968 36.2456V87.2212C187.968 88.8946 186.605 90.2509 184.924 90.2509Z" fill="#B6E6DC"></path><path d="M181.624 41.2001H146.814C145.778 41.2001 144.938 40.364 144.938 39.333C144.938 38.3014 145.777 37.4653 146.814 37.4653H181.624C182.661 37.4653 183.5 38.3014 183.5 39.333C183.501 40.364 182.661 41.2001 181.624 41.2001Z" fill="#00CCD4"></path><path d="M182.857 45.6637H145.581C145.225 45.6637 144.938 45.3771 144.938 45.0233C144.938 44.6694 145.225 44.3828 145.581 44.3828H182.857C183.212 44.3828 183.5 44.6694 183.5 45.0233C183.5 45.3771 183.212 45.6637 182.857 45.6637Z" fill="#007577"></path><path d="M178.391 48.9445H145.581C145.225 48.9445 144.938 48.6579 144.938 48.304C144.938 47.9502 145.225 47.6636 145.581 47.6636H178.391C178.747 47.6636 179.035 47.9502 179.035 48.304C179.035 48.6572 178.747 48.9445 178.391 48.9445Z" fill="#007577"></path><path d="M181.956 52.225H145.581C145.225 52.225 144.938 51.9384 144.938 51.5846C144.938 51.2307 145.225 50.9441 145.581 50.9441H181.956C182.311 50.9441 182.599 51.2307 182.599 51.5846C182.599 51.9384 182.311 52.225 181.956 52.225Z" fill="#007577"></path><path d="M177.005 55.506H145.581C145.225 55.506 144.938 55.2194 144.938 54.8655C144.938 54.5117 145.225 54.2251 145.581 54.2251H177.005C177.36 54.2251 177.648 54.5117 177.648 54.8655C177.648 55.2194 177.36 55.506 177.005 55.506Z" fill="#007577"></path><path d="M175.204 58.7873H145.581C145.225 58.7873 144.938 58.5007 144.938 58.1468C144.938 57.793 145.225 57.5063 145.581 57.5063H175.204C175.56 57.5063 175.848 57.793 175.848 58.1468C175.848 58.5 175.56 58.7873 175.204 58.7873Z" fill="#007577"></path><path d="M181.055 62.0683H145.581C145.225 62.0683 144.938 61.7817 144.938 61.4278C144.938 61.074 145.225 60.7874 145.581 60.7874H181.055C181.411 60.7874 181.699 61.074 181.699 61.4278C181.699 61.781 181.411 62.0683 181.055 62.0683Z" fill="#007577"></path><path d="M175.204 65.3485H145.581C145.225 65.3485 144.938 65.0619 144.938 64.7081C144.938 64.3542 145.225 64.0676 145.581 64.0676H175.204C175.56 64.0676 175.848 64.3542 175.848 64.7081C175.848 65.0619 175.56 65.3485 175.204 65.3485Z" fill="#007577"></path><path d="M181.506 68.6295H145.581C145.225 68.6295 144.938 68.3429 144.938 67.9891C144.938 67.6352 145.225 67.3486 145.581 67.3486H181.506C181.861 67.3486 182.149 67.6352 182.149 67.9891C182.149 68.3429 181.86 68.6295 181.506 68.6295Z" fill="#007577"></path><path d="M175.204 71.9108H145.581C145.225 71.9108 144.938 71.6242 144.938 71.2703C144.938 70.9165 145.225 70.6299 145.581 70.6299H175.204C175.56 70.6299 175.848 70.9165 175.848 71.2703C175.848 71.6235 175.56 71.9108 175.204 71.9108Z" fill="#007577"></path><path d="M180.606 75.1911H145.581C145.225 75.1911 144.938 74.9045 144.938 74.5506C144.938 74.1968 145.225 73.9102 145.581 73.9102H180.606C180.961 73.9102 181.249 74.1968 181.249 74.5506C181.249 74.9045 180.961 75.1911 180.606 75.1911Z" fill="#007577"></path><path d="M181.956 78.4721H145.581C145.225 78.4721 144.938 78.1855 144.938 77.8316C144.938 77.4778 145.225 77.1912 145.581 77.1912H181.956C182.311 77.1912 182.599 77.4778 182.599 77.8316C182.599 78.1855 182.311 78.4721 181.956 78.4721Z" fill="#007577"></path><path d="M182.406 81.7531H145.581C145.225 81.7531 144.938 81.4665 144.938 81.1126C144.938 80.7588 145.225 80.4722 145.581 80.4722H182.406C182.762 80.4722 183.05 80.7588 183.05 81.1126C183.05 81.4665 182.762 81.7531 182.406 81.7531Z" fill="#007577"></path><path d="M179.899 83.7527H144.938V85.0343H179.899V83.7527Z" fill="#007577"></path><path d="M204.019 156.98C204.394 155.626 204.645 154.268 204.79 152.916L216.685 151.298L211.903 133.025L210.2 131.5L201.027 136.787C199.322 134.088 197.102 131.706 194.463 129.795L199.002 118.736L197.299 117.211L180.714 113.722L178.55 124.975C175.281 125.098 172.107 125.85 169.187 127.145L157.039 138.455C156.198 140.043 155.511 141.742 155.013 143.544C154.638 144.897 154.387 146.256 154.242 147.608L145.426 165.974L147.129 167.499L158.006 163.736C159.711 166.435 161.931 168.818 164.569 170.727L158.327 180.262L160.031 181.787L178.318 186.801L180.482 175.548C183.751 175.425 186.834 175.001 189.754 173.706L196.779 183.061L210.705 169.565L201.993 162.069C202.834 160.48 203.521 158.782 204.019 156.98ZM175.613 164.371C167.786 162.225 163.187 154.168 165.343 146.376C167.499 138.584 175.592 134.006 183.42 136.152C191.247 138.299 195.846 146.355 193.69 154.148C191.534 161.94 183.44 166.517 175.613 164.371Z" fill="#00BCBC"></path><path d="M202.316 155.455C202.69 154.101 202.941 152.743 203.087 151.391L214.982 149.773L210.2 131.5L199.323 135.263C197.618 132.564 195.399 130.181 192.76 128.271L197.299 117.211L179.012 112.198L176.848 123.451C173.578 123.574 170.405 124.325 167.485 125.621L160.131 116.175L146.625 129.435L155.337 136.93C154.496 138.519 153.809 140.217 153.31 142.019C152.936 143.373 152.685 144.731 152.539 146.083L140.645 147.701L145.426 165.974L156.303 162.211C158.008 164.91 160.228 167.293 162.866 169.203L158.327 180.263L176.614 185.277L178.778 174.024C182.048 173.901 185.222 173.149 188.142 171.854L195.495 181.299L209.001 168.04L200.29 160.545C201.13 158.955 201.818 157.257 202.316 155.455ZM173.26 165.19C164.132 162.688 158.77 153.292 161.284 144.205C163.798 135.118 173.237 129.78 182.365 132.283C191.493 134.786 196.855 144.182 194.341 153.269C191.827 162.355 182.389 167.693 173.26 165.19Z" fill="#00CCD4"></path><path d="M88.582 192.883L130.171 194.038" stroke="#080022" stroke-width="3.7471" stroke-miterlimit="10" stroke-linecap="round" stroke-linejoin="round"></path><path d="M131.308 164.176L135.838 167.431C135.838 167.431 136.145 169.847 133.573 174.138C131 178.43 121.569 196.56 122.435 198.859C123.302 201.158 132.009 202.951 132.848 205.099C133.856 207.684 116.092 206.257 114.525 204.737C112.822 203.085 116.179 198.508 116.179 198.508C116.179 198.508 115.618 183.64 116.989 176.897C118.3 170.444 125.061 165.708 125.061 165.708L131.308 164.176Z" fill="#FCB29A"></path><path d="M124.084 200.372C120.554 201.59 116.179 198.509 116.179 198.509C116.179 198.509 112.821 203.085 114.525 204.738C116.093 206.258 133.856 207.684 132.848 205.099C132.201 203.444 126.887 202 124.084 200.372Z" fill="#FF6931"></path><path d="M63.6875 262.856L94.0562 176.588L119.244 263.344" stroke="#080022" stroke-width="3.7471" stroke-miterlimit="10" stroke-linecap="round" stroke-linejoin="round"></path><path d="M83.0703 205.949L124.658 207.104" stroke="#080022" stroke-width="3.7471" stroke-miterlimit="10" stroke-linecap="round" stroke-linejoin="round"></path><path d="M114.267 156.382L107.493 179.987L97.4645 209.123C96.8649 210.865 97.6481 212.782 99.3025 213.605C102.401 215.146 106.882 217.556 106.982 218.649C107.135 220.324 89.425 219.574 88.2918 217.894C87.1381 216.183 90.024 212.535 90.024 212.535C90.024 212.535 89.2763 189.879 90.7717 184.297C92.2672 178.713 95.4492 175.789 95.3782 171.574C95.308 167.361 93.5792 153.217 95.3782 149.681C97.1773 146.146 114.267 156.382 114.267 156.382Z" fill="#FCB29A"></path><path d="M99.5109 205.254L107.496 179.987L114.271 156.381C114.271 156.381 97.1804 146.146 95.3813 149.681C93.5822 153.217 95.311 167.362 95.3813 171.575C95.4516 175.789 92.2703 178.714 90.7748 184.297C89.849 187.754 89.2718 197.562 89.3557 204.53C93.3018 204.21 97.5188 204.745 99.5109 205.254Z" fill="#008EBA"></path><path opacity="0.2" d="M99.5109 205.254L107.496 179.987L114.271 156.381C114.271 156.381 97.1804 146.146 95.3813 149.681C93.5822 153.217 95.311 167.362 95.3813 171.575C95.4516 175.789 92.2703 178.714 90.7748 184.297C89.849 187.754 89.2718 197.562 89.3557 204.53C93.3018 204.21 97.5188 204.745 99.5109 205.254Z" fill="#008EBA"></path><path opacity="0.1" d="M110.278 161.172C104.27 160.069 100.18 155.107 100.18 155.107C100.18 155.107 103.852 173.115 104.236 177.865C104.619 182.615 100.514 202.72 100.514 202.72L107.496 179.988L112.885 162.251C112.885 162.251 110.971 161.3 110.278 161.172Z" fill="#008EBA"></path><path d="M99.5618 213.735C94.6135 214.926 90.024 212.536 90.024 212.536C90.024 212.536 87.1381 216.184 88.2918 217.895C89.4243 219.575 107.135 220.326 106.982 218.651C106.884 217.587 102.644 215.279 99.5618 213.735Z" fill="#FF6931"></path><path d="M135.833 167.431L135.831 167.429C135.886 166.786 135.779 166.062 135.46 165.249C132.996 158.964 120.931 150.621 120.931 150.621L118.062 148.848C118.062 148.848 94.1537 143.508 95.4281 152.22C96.7025 160.932 114.828 166.628 118.062 167.394C119.457 167.725 120.731 168.061 121.897 168.478C119.946 170.485 117.685 173.445 116.984 176.897C116.389 179.824 116.158 184.282 116.087 188.39C120.503 187.938 123.974 188.284 126.05 188.636C128.746 182.891 132.169 176.47 133.568 174.138C136.141 169.847 135.833 167.431 135.833 167.431Z" fill="#008EBA"></path><path opacity="0.1" d="M122.601 166.877C122.601 166.877 110.658 162.148 105.864 155.107C103.585 151.758 103.857 148.614 104.091 147.232C99.1245 147.29 94.8708 148.413 95.4282 152.221C96.7026 160.933 114.828 166.629 118.062 167.395C119.457 167.726 120.68 168.062 121.846 168.479C123.466 167.185 128.138 167.45 128.138 167.45C127.083 166.114 122.601 166.877 122.601 166.877Z" fill="#008EBA"></path><path d="M107.271 106.285C107.849 110.571 104.27 115.28 104.27 115.28C104.27 115.28 108.579 121.387 113.838 120.242C113.838 120.242 113.676 113.371 115.976 110.063C118.277 106.754 106.955 103.943 107.271 106.285Z" fill="#FCB29A"></path><path d="M128.319 109.272C125.09 112.494 127.317 108.342 127.85 107.39C129.603 104.259 129.472 101.372 129.146 100.826C128.629 99.9589 128.704 97.4643 128.829 96.3485C128.866 96.0191 128.974 95.2346 128.696 94.5833C128.458 94.0237 128.607 93.5231 129.066 93.9714C129.524 94.4189 129.641 94.8353 129.762 95.8506C129.82 96.3437 129.901 96.4008 130.022 96.4096C130.235 96.4259 130.406 95.3277 130.42 94.0135C130.435 92.6572 130.477 91.8714 130.791 91.4985C131.034 91.2099 131.237 90.9851 131.284 91.8748C131.33 92.7645 130.948 94.5595 131.303 94.7517C131.658 94.9433 131.741 93.5652 131.727 92.7523C131.714 91.9393 131.397 90.9708 131.856 90.8588C132.171 90.782 132.414 91.1012 132.532 92.1709C132.649 93.2399 132.107 95.0397 132.421 95.1015C132.735 95.1633 132.931 93.1761 132.895 92.6735C132.857 92.1539 133.22 91.9189 133.479 92.7767C133.739 93.6345 133.482 94.2641 133.341 95.2088C133.201 96.1535 132.948 96.5767 133.174 96.701C133.395 96.8218 133.661 96.3267 133.683 95.456C133.704 94.5853 133.7 93.8111 134.046 94.0855C134.392 94.3599 134.596 95.4574 134.301 96.9679C134.007 98.479 133.681 100.468 132.598 101.363C132.598 101.363 132.622 102.477 132.53 107.389C132.309 119.148 129.947 110.726 128.319 109.272Z" fill="#F9AF9A"></path><path d="M105.25 113.768C105.25 113.768 106.723 119.508 115.002 118.919C115.002 118.919 116.199 128.235 116.708 135.991C117.103 142.013 117.959 148.795 117.959 148.795C117.959 148.795 111.609 151.749 107.314 150.561C101.992 149.089 97.4096 150.267 94.7482 152.18C92.0875 154.094 92.8939 142.614 94.3723 135.992C95.85 129.368 103.931 111.526 105.25 113.768Z" fill="#FCBA00"></path><path opacity="0.43" d="M115.887 125.752L109.383 131.976C109.383 131.976 111.513 136.756 116.955 138.141L115.887 125.752Z" fill="#FCBA00"></path><path d="M105.647 126.606C105.647 126.606 105.804 134.755 116.357 131.804C120.235 130.719 127.253 126.726 131.245 121.133C131.245 121.133 134.364 114.325 132.857 102.041L128.682 101.151C128.682 101.151 125.305 113.066 124.123 114.833C122.94 116.599 114.201 119.984 108.731 119.248C103.261 118.512 105.647 126.606 105.647 126.606Z" fill="#FCBA00"></path><path d="M110.906 96.6304C114.723 94.9237 119.626 96.7174 120.027 102.236C120.035 102.337 120.411 104.1 121.622 104.383C121.875 104.442 122.007 104.709 121.915 104.948C121.766 105.34 121.644 105.78 120.884 106.09C120.897 110.53 118.509 113.009 116.54 113.441C112.474 114.333 108.933 110.628 107.314 106.853C105.319 102.202 107.387 98.2034 110.906 96.6304Z" fill="#FCB29A"></path><path opacity="0.35" d="M110.906 96.6305C112.089 96.1021 115.218 95.3638 116.495 96.5992C113.494 98.3603 112.01 102.856 112.707 107.113C112.923 108.43 113.697 113.019 115.823 113.549C112.061 113.891 108.836 110.405 107.313 106.853C105.319 102.202 107.388 98.2034 110.906 96.6305Z" fill="#FCB29A"></path><path d="M115.901 99.3313C118.457 99.501 120.247 97.9104 120.247 96.8713C120.247 95.3445 118.905 92.9478 114.237 94.1567C111.077 94.9751 111.071 95.8444 109.254 96.0094C106.532 96.2567 104.045 97.9104 102.671 101.537C101.5 104.629 99.5394 121.069 87.8438 122.851C87.8438 122.851 92.1794 131.651 101.01 131.249C112.194 130.739 112.897 114.898 111.513 109.49C109.722 102.495 113.345 99.1615 115.901 99.3313Z" fill="#080022"></path><path d="M104.969 264.892L135.337 178.624L160.525 263.344" stroke="#080022" stroke-width="3.7471" stroke-miterlimit="10" stroke-linecap="round" stroke-linejoin="round"></path><path d="M79.3789 219.016L120.967 220.17" stroke="#080022" stroke-width="3.7471" stroke-miterlimit="10" stroke-linecap="round" stroke-linejoin="round"></path><path d="M74.043 233.676L115.632 234.831" stroke="#080022" stroke-width="3.7471" stroke-miterlimit="10" stroke-linecap="round" stroke-linejoin="round"></path><path d="M67.8438 249.266L109.432 250.42" stroke="#080022" stroke-width="3.7471" stroke-miterlimit="10" stroke-linecap="round" stroke-linejoin="round"></path><path d="M257.982 100.689C260.523 104.126 262.661 105.199 262.71 107.16C262.753 108.872 253.022 115.954 250.732 116.666C247.488 117.676 251.801 110.879 253.904 107.936C254.439 107.187 254.864 105.209 254.509 104.361L253.18 103.586C253.18 103.586 257.034 99.4068 257.982 100.689Z" fill="#080022"></path><path d="M220.165 26.5557C219.692 26.3017 221.491 25.4881 221.63 25.2551C222.56 23.7127 223.788 22.0284 225.647 21.5849C227.902 21.0463 229.84 22.7626 232.059 22.6342C233.299 22.5622 234.459 21.8756 235.7 21.9116C237.028 21.9496 237.891 22.8787 238.909 23.5864C240.273 24.5352 241.567 24.1413 243.119 24.0598C244.337 23.996 245.573 24.3091 246.611 24.9461C247.856 25.7088 248.916 26.8077 250.365 27.188C251.938 27.601 253.653 27.2125 255.183 27.8237C259.827 29.6799 260.17 38.9356 254.66 39.8729C250.892 40.514 250.071 45.0223 247.356 43.3882C244.641 41.7542 244.073 38.7746 242.077 39.7914C240.08 40.8074 237.186 39.0198 236.08 35.9052C234.974 32.7905 232.355 30.8678 229.873 30.6559C227.395 30.4453 220.179 26.5632 220.165 26.5557Z" fill="#080022"></path><path d="M230.301 29.709H234.608C234.608 29.709 236.616 33.3806 243.007 34.9379C246.852 35.8751 237.513 43.2217 237.513 43.2217L234.001 38.0797L230.301 29.709Z" fill="#FCB29A"></path><path d="M275.538 58.6185C278.153 59.0953 279.711 61.2007 281.517 63.1425C283.141 64.8893 283.792 72.0898 280.171 75.4374C276.146 79.1606 253.055 76.7482 253.055 76.7482C253.055 76.7482 257.655 78.5107 258.653 87.2916C259.652 96.0726 260.983 103.031 260.983 103.031L253.161 106.345C253.161 106.345 237.35 77.6828 237.517 73.8719C237.683 70.0611 243.175 66.4167 251.996 63.2688C259.14 60.7199 268.902 57.4096 275.538 58.6185Z" fill="#B6E6DC"></path><g opacity="0.63"><path d="M279.634 61.0981C280.444 64.5198 278.599 69.7799 274.134 72.1102C268.101 75.2595 253.676 75.1338 253.676 75.1338C253.676 75.1338 250.012 73.6152 247.883 75.8857C247.883 75.8857 251.454 75.7179 253.056 76.7489C253.056 76.7489 276.146 79.1613 280.173 75.4381C283.793 72.0905 283.142 64.8899 281.518 63.1431C280.878 62.4551 280.269 61.7474 279.634 61.0981Z" fill="#B6E6DC"></path></g><path d="M243.01 34.9372C243.01 34.9372 250 34.6058 256.99 38.748C263.98 42.8903 276.919 52.5249 281.517 63.1987C281.517 63.1987 277.96 66.5823 270.636 63.9315C263.313 61.2808 249.625 64.1591 249.625 64.1591C249.625 64.1591 243.841 52.1684 243.009 50.8433C242.177 49.5176 237.516 43.2224 237.516 43.2224C237.516 43.2224 243.01 38.4166 243.01 34.9372Z" fill="#007577"></path><path d="M246.207 57.6148L247.894 60.5794L249.63 64.1593C249.63 64.1593 251.999 52.7438 250.829 48.5445C250.106 45.9488 246.207 57.6148 246.207 57.6148Z" fill="#007577"></path><path d="M197.077 92.9083L199.328 96.4197L223.275 81.2058L221.024 77.6945L197.077 92.9083Z" fill="#FCBA00"></path><path d="M189.727 92.2889C187.862 94.4547 187.719 98.5786 187.719 98.5786L190.905 93.9073L195.283 93.5039L197.967 97.6903L195.756 101.473L190.157 102.383C190.157 102.383 194.364 104.254 196.733 103.218C200.317 101.65 201.49 97.4166 199.698 94.0805L199.715 94.0696C199.691 94.033 199.671 93.9956 199.647 93.9583C199.605 93.891 199.559 93.8258 199.515 93.7606C199.474 93.6927 199.434 93.6248 199.39 93.5582C199.366 93.5209 199.34 93.4869 199.317 93.4496L199.3 93.4604C197.016 90.4368 192.275 89.3297 189.727 92.2889Z" fill="#FCBA00"></path><path d="M222.338 76.9153C222.338 76.9153 219.591 78.639 218.864 79.5654C218.138 80.4918 219.789 82.7487 216.688 85.3947C214.494 87.2658 216.798 86.1146 218.314 85.9706C223.602 85.466 223.143 81.2355 226.044 79.886C226.838 79.5165 222.338 76.9153 222.338 76.9153Z" fill="#FCB29A"></path><path d="M222.933 82.3534L220.086 77.352L220.898 77.0518L227.784 71.3821L232.354 75.7464L222.933 82.3534Z" fill="#FCB29A"></path><path d="M221.158 79.3758L220.89 77.051C220.89 77.051 216.769 78.2959 215.406 81.27C215.406 81.27 218.337 79.3398 218.935 80.0088C219.534 80.6778 221.158 80.7987 221.158 80.7987V79.3758Z" fill="#FCB29A"></path><path d="M251.455 48.1919C251.455 48.1919 249.502 60.6404 243.677 68.0732C243.677 68.0732 233.691 78.7402 224.87 82.3534L220.891 76.2972L235.333 62.9529C235.333 62.9529 238.348 49.8484 237.517 43.2218C237.517 43.2218 247.627 41.2332 251.455 48.1919Z" fill="#007577"></path><path d="M223.273 27.1499C219.425 29.4971 218.049 34.9352 222.743 38.6461C222.83 38.7147 224.178 40.1192 223.696 41.3655C223.595 41.6256 223.754 41.9048 224.024 41.9693C224.465 42.0746 224.932 42.2348 225.672 41.7486C229.638 44.4584 233.306 43.8485 234.89 42.3652C238.161 39.3015 236.998 33.9089 234.605 30.1789C231.655 25.583 226.82 24.9867 223.273 27.1499Z" fill="#FCB29A"></path><path opacity="0.35" d="M223.275 27.1499C222.083 27.8773 219.521 30.2034 219.849 32.0868C223.249 30.4955 228.174 31.9129 231.56 35.1192C232.608 36.1115 236.243 39.5868 235.425 41.7955C238.018 38.6665 236.859 33.6876 234.607 30.1783C231.657 25.583 226.822 24.9867 223.275 27.1499Z" fill="#FCB29A"></path><path d="M251.918 30.0581L236.664 26.2656L232.251 24.2838L230.567 24.4692C230.439 24.0916 230.335 23.8478 230.335 23.8478L223.556 23.3235L220.94 25.7345C220.94 25.7345 213.414 29.4088 216.098 33.0729C217.644 35.1818 221.366 34.6384 223.316 31.8273C223.479 31.5937 223.63 31.3771 223.774 31.1753C224.566 30.0608 226.572 29.0747 227.715 30.2958C228.136 30.7461 228.35 31.3377 228.6 31.8953C229.356 33.5742 230.766 35.268 232.844 35.1899C234.226 35.1376 235.533 34.3117 236.904 34.491C237.79 34.6072 238.572 35.1417 239.149 35.8032C239.995 36.773 240.332 37.9989 241.373 38.8139C242.481 39.6812 243.985 40.0283 245.386 39.8089C246.885 39.5746 248.196 38.1579 249.756 38.3956C250.711 38.5409 251.443 39.1793 252.429 39.2602C253.261 39.3281 254.092 39.2269 254.88 38.9545C256.651 38.3419 258.051 36.9306 258.552 35.1682C259.379 32.2559 251.918 30.0581 251.918 30.0581Z" fill="#080022"></path><path d="M363.217 100.062H314.389C312.564 100.062 311.086 98.5904 311.086 96.7743V44.4702C311.086 42.6541 312.564 41.1824 314.389 41.1824H363.217C365.041 41.1824 366.52 42.6541 366.52 44.4702V96.7743C366.52 98.5904 365.041 100.062 363.217 100.062Z" fill="#F4D995"></path><path d="M357.705 50.6413H321.768C320.698 50.6413 319.832 49.7781 319.832 48.7139C319.832 47.6489 320.699 46.7864 321.768 46.7864H357.705C358.774 46.7864 359.641 47.6496 359.641 48.7139C359.642 49.7781 358.774 50.6413 357.705 50.6413Z" fill="#00CCD4"></path><path d="M348.374 54.2468H317.156V65.2364H348.374V54.2468Z" fill="#FCBA00"></path><path d="M360.906 67.6074H317.156V78.597H360.906V67.6074Z" fill="#00CCD4"></path><path d="M361.426 54.2468H350.387V65.2364H361.426V54.2468Z" fill="#00499B"></path><path d="M360.581 81.0176H329.363V92.0072H360.581V81.0176Z" fill="#FCBA00"></path><path d="M319.834 81.0176H316.836V92.0072H319.834V81.0176Z" fill="#FCBA00"></path><path d="M327.596 81.0176H321.691V92.0072H327.596V81.0176Z" fill="#00499B"></path><path d="M385.078 239.522H330.849C328.773 239.522 327.09 237.846 327.09 235.78V174.791C327.09 172.724 328.773 171.05 330.849 171.05H385.078C387.154 171.05 388.837 172.725 388.837 174.791V235.78C388.837 237.847 387.154 239.522 385.078 239.522Z" fill="#F4D995"></path><path d="M380.909 180.634H336.412C335.169 180.634 334.16 179.631 334.16 178.393C334.16 177.154 335.169 176.151 336.412 176.151H380.909C382.153 176.151 383.162 177.154 383.162 178.393C383.162 179.631 382.153 180.634 380.909 180.634Z" fill="#00CCD4"></path><path d="M382.389 185.992H334.933C334.507 185.992 334.16 185.648 334.16 185.224C334.16 184.799 334.506 184.455 334.933 184.455H382.389C382.816 184.455 383.162 184.799 383.162 185.224C383.162 185.648 382.816 185.992 382.389 185.992Z" fill="#007577"></path><path d="M376.715 189.932H334.933C334.507 189.932 334.16 189.588 334.16 189.163C334.16 188.739 334.506 188.394 334.933 188.394H376.715C377.141 188.394 377.487 188.739 377.487 189.163C377.487 189.588 377.141 189.932 376.715 189.932Z" fill="#007577"></path><path d="M381.245 193.87H334.933C334.507 193.87 334.16 193.526 334.16 193.101C334.16 192.677 334.506 192.333 334.933 192.333H381.245C381.672 192.333 382.017 192.677 382.017 193.101C382.018 193.526 381.672 193.87 381.245 193.87Z" fill="#007577"></path><path d="M374.953 197.81H334.933C334.507 197.81 334.16 197.465 334.16 197.041C334.16 196.616 334.506 196.272 334.933 196.272H374.953C375.38 196.272 375.726 196.616 375.726 197.041C375.726 197.465 375.38 197.81 374.953 197.81Z" fill="#007577"></path><path d="M372.666 201.748H334.933C334.507 201.748 334.16 201.404 334.16 200.979C334.16 200.555 334.506 200.21 334.933 200.21H372.666C373.093 200.21 373.438 200.555 373.438 200.979C373.439 201.404 373.093 201.748 372.666 201.748Z" fill="#007577"></path><path d="M380.101 205.687H334.933C334.507 205.687 334.16 205.343 334.16 204.918C334.16 204.494 334.506 204.149 334.933 204.149H380.101C380.527 204.149 380.873 204.494 380.873 204.918C380.873 205.343 380.527 205.687 380.101 205.687Z" fill="#007577"></path><path d="M372.666 209.626H334.933C334.507 209.626 334.16 209.281 334.16 208.857C334.16 208.432 334.506 208.088 334.933 208.088H372.666C373.093 208.088 373.438 208.432 373.438 208.857C373.439 209.281 373.093 209.626 372.666 209.626Z" fill="#007577"></path><path d="M380.673 213.565H334.933C334.507 213.565 334.16 213.22 334.16 212.796C334.16 212.371 334.506 212.027 334.933 212.027H380.673C381.1 212.027 381.446 212.371 381.446 212.796C381.446 213.22 381.1 213.565 380.673 213.565Z" fill="#007577"></path><path d="M372.666 217.503H334.933C334.507 217.503 334.16 217.159 334.16 216.734C334.16 216.31 334.506 215.966 334.933 215.966H372.666C373.093 215.966 373.438 216.31 373.438 216.734C373.439 217.159 373.093 217.503 372.666 217.503Z" fill="#007577"></path><path d="M379.529 221.442H334.933C334.507 221.442 334.16 221.098 334.16 220.674C334.16 220.249 334.506 219.905 334.933 219.905H379.529C379.956 219.905 380.302 220.249 380.302 220.674C380.302 221.098 379.956 221.442 379.529 221.442Z" fill="#007577"></path><path d="M381.245 225.381H334.933C334.507 225.381 334.16 225.037 334.16 224.612C334.16 224.187 334.506 223.843 334.933 223.843H381.245C381.672 223.843 382.017 224.187 382.017 224.612C382.018 225.037 381.672 225.381 381.245 225.381Z" fill="#007577"></path><path d="M381.817 229.32H334.933C334.507 229.32 334.16 228.976 334.16 228.551C334.16 228.127 334.506 227.782 334.933 227.782H381.817C382.243 227.782 382.589 228.127 382.589 228.551C382.589 228.976 382.243 229.32 381.817 229.32Z" fill="#007577"></path><path d="M378.586 231.721H334.16V233.259H378.586V231.721Z" fill="#007577"></path><path d="M333.33 152.039C333.007 149.741 332.495 147.518 331.825 145.373L348.799 135.166L329.528 110.573L325.942 109.371L315.509 123.369C311.147 120.388 306.215 118.222 300.957 117.045L300.565 97.3142L296.979 96.1121L269.535 101.632L273.655 120.107C268.778 122.425 264.46 125.634 260.884 129.501L249.9 154.571C249.671 157.528 249.746 160.552 250.175 163.61C250.498 165.907 251.01 168.13 251.68 170.275L250.392 203.874L253.977 205.076L267.997 192.279C272.358 195.261 277.29 197.427 282.548 198.604L279.354 217.132L282.94 218.334L313.97 214.017L309.85 195.541C314.728 193.223 319.124 190.571 322.7 186.703L339.506 196.311L351.746 166.766L333.605 161.078C333.835 158.12 333.76 155.096 333.33 152.039ZM294.902 180.258C282.456 181.989 270.956 173.349 269.217 160.96C267.477 148.57 276.157 137.122 288.603 135.39C301.049 133.658 312.549 142.298 314.288 154.688C316.028 167.078 307.349 178.526 294.902 180.258Z" fill="#E5572C"></path><path d="M329.75 150.837C329.427 148.539 328.915 146.316 328.245 144.171L345.219 133.964L325.948 109.371L311.928 122.167C307.567 119.185 302.636 117.02 297.377 115.842L296.985 96.1113L265.955 100.429L270.075 118.904C265.197 121.222 260.88 124.431 257.303 128.298L239.939 118.769L228.18 147.681L246.321 153.369C246.091 156.325 246.166 159.349 246.595 162.408C246.918 164.705 247.431 166.928 248.1 169.073L231.126 179.279L250.398 203.873L264.417 191.077C268.779 194.058 273.711 196.224 278.969 197.401L279.361 217.132L310.391 212.814L306.271 194.339C311.149 192.021 315.466 188.812 319.043 184.944L336.407 194.474L348.166 165.562L330.026 159.874C330.254 156.919 330.179 153.894 329.75 150.837ZM291.584 180.916C278.106 182.791 265.652 173.435 263.768 160.018C261.885 146.6 271.284 134.202 284.762 132.327C298.241 130.452 310.694 139.809 312.578 153.227C314.461 166.644 305.062 179.041 291.584 180.916Z" fill="#FF6931"></path><path d="M255.268 108.761C255.016 108.536 254.772 108.322 254.482 108.238C254.199 108.127 253.892 108.205 253.57 108.316C253.687 108.194 253.832 108.086 254.006 108.037C254.178 107.979 254.372 107.986 254.547 108.039C254.893 108.165 255.159 108.436 255.268 108.761Z" fill="white"></path><path d="M254.635 109.763C254.383 109.538 254.14 109.324 253.85 109.241C253.566 109.129 253.26 109.208 252.938 109.319C253.054 109.196 253.199 109.089 253.373 109.039C253.545 108.981 253.739 108.989 253.914 109.041C254.259 109.167 254.525 109.438 254.635 109.763Z" fill="white"></path><path d="M253.983 110.765C253.731 110.54 253.487 110.326 253.197 110.243C252.913 110.131 252.606 110.209 252.285 110.321C252.402 110.198 252.546 110.09 252.721 110.041C252.892 109.983 253.087 109.991 253.262 110.043C253.607 110.169 253.873 110.44 253.983 110.765Z" fill="white"></path><path d="M253.326 111.766C253.075 111.541 252.831 111.327 252.541 111.243C252.257 111.132 251.95 111.21 251.629 111.322C251.746 111.199 251.89 111.091 252.065 111.042C252.236 110.984 252.431 110.992 252.606 111.044C252.95 111.17 253.216 111.442 253.326 111.766Z" fill="white"></path><path d="M300.007 25.935C299.942 25.4753 299.839 25.0304 299.706 24.6018L303.101 22.5603L299.246 17.6404L298.529 17.4L296.442 20.2002C295.569 19.6038 294.583 19.1705 293.531 18.9349L293.453 14.9882L292.736 14.7478L287.246 15.8521L288.07 19.5482C287.094 20.012 286.231 20.6538 285.515 21.4274L283.318 26.4424C283.273 27.0339 283.288 27.6391 283.374 28.2503C283.438 28.7101 283.541 29.1543 283.674 29.5835L283.416 36.3046L284.134 36.545L286.939 33.9852C287.812 34.5815 288.798 35.0148 289.849 35.2505L289.211 38.9567L289.929 39.1972L296.136 38.3333L295.311 34.6372C296.287 34.1734 297.166 33.6429 297.882 32.8693L301.244 34.7914L303.693 28.8813L300.064 27.7437C300.108 27.1521 300.093 26.547 300.007 25.935ZM292.32 31.5803C289.83 31.9267 287.53 30.1982 287.182 27.7199C286.834 25.2416 288.57 22.9515 291.06 22.6051C293.549 22.2587 295.85 23.9872 296.198 26.4655C296.546 28.9438 294.809 31.2339 292.32 31.5803Z" fill="#E5572C"></path><path d="M299.286 25.6946C299.221 25.2348 299.119 24.7907 298.985 24.3614L302.381 22.3198L298.526 17.4L295.721 19.9597C294.849 19.3634 293.862 18.9301 292.811 18.6944L292.732 14.7478L286.525 15.6117L287.349 19.3077C286.374 19.7716 285.51 20.4134 284.794 21.187L281.321 19.2806L278.969 25.0637L282.598 26.2013C282.552 26.7928 282.567 27.398 282.653 28.0092C282.717 28.469 282.82 28.9132 282.954 29.3424L279.558 31.384L283.414 36.3039L286.218 33.7441C287.091 34.3404 288.077 34.7737 289.129 35.0094L289.208 38.9561L295.415 38.0921L294.591 34.3961C295.566 33.9322 296.43 33.2904 297.146 32.5169L300.619 34.4233L302.971 28.6402L299.343 27.5026C299.387 26.9117 299.372 26.3066 299.286 25.6946ZM291.652 31.712C288.955 32.087 286.465 30.2158 286.087 27.5318C285.711 24.8477 287.591 22.3681 290.286 21.9925C292.983 21.6176 295.474 23.4894 295.851 26.1734C296.228 28.8568 294.348 31.3365 291.652 31.712Z" fill="#FF6931"></path><path d="M418.797 156.686C418.727 156.184 418.615 155.698 418.469 155.229L422.18 152.997L417.966 147.62L417.182 147.357L414.9 150.418C413.947 149.766 412.869 149.292 411.718 149.035L411.632 144.721L410.849 144.458L404.848 145.665L405.749 149.705C404.682 150.211 403.738 150.913 402.956 151.758L400.555 157.24C400.505 157.887 400.521 158.548 400.615 159.216C400.685 159.718 400.798 160.205 400.944 160.674L400.662 168.02L401.446 168.283L404.511 165.485C405.465 166.137 406.544 166.61 407.693 166.868L406.995 170.919L407.778 171.182L414.563 170.238L413.663 166.198C414.729 165.691 415.69 165.111 416.472 164.266L420.147 166.367L422.823 159.906L418.857 158.663C418.908 158.016 418.891 157.355 418.797 156.686ZM410.395 162.857C407.673 163.235 405.159 161.346 404.779 158.637C404.398 155.928 406.296 153.424 409.017 153.046C411.739 152.668 414.254 154.557 414.634 157.266C415.014 159.975 413.116 162.478 410.395 162.857Z" fill="#06B7B7"></path><path d="M418.017 156.424C417.947 155.921 417.834 155.435 417.688 154.966L421.4 152.734L417.186 147.357L414.121 150.155C413.167 149.503 412.089 149.029 410.939 148.772L410.853 144.458L404.068 145.402L404.969 149.442C403.903 149.948 402.958 150.65 402.177 151.496L398.38 149.412L395.809 155.734L399.775 156.977C399.725 157.624 399.742 158.285 399.835 158.953C399.905 159.456 400.018 159.942 400.164 160.411L396.453 162.643L400.667 168.02L403.732 165.222C404.686 165.874 405.764 166.348 406.914 166.605L407 170.919L413.785 169.975L412.884 165.935C413.951 165.429 414.895 164.727 415.677 163.882L419.474 165.965L422.045 159.643L418.078 158.4C418.127 157.753 418.11 157.093 418.017 156.424ZM409.671 163.001C406.724 163.411 404.001 161.365 403.589 158.431C403.177 155.497 405.232 152.787 408.179 152.376C411.126 151.966 413.849 154.013 414.261 156.946C414.674 159.88 412.618 162.591 409.671 163.001Z" fill="#00CCD4"></path><path d="M383.297 145.697C383.243 145.314 383.158 144.943 383.046 144.586L385.874 142.886L382.664 138.789L382.067 138.589L380.329 140.921C379.602 140.424 378.781 140.063 377.905 139.867L377.839 136.581L377.243 136.38L372.671 137.3L373.357 140.377C372.545 140.763 371.826 141.298 371.23 141.942L369.4 146.118C369.362 146.61 369.374 147.114 369.446 147.623C369.5 148.006 369.585 148.377 369.696 148.734L369.481 154.33L370.079 154.53L372.414 152.399C373.141 152.896 373.962 153.256 374.838 153.453L374.306 156.539L374.904 156.739L380.072 156.02L379.386 152.943C380.199 152.557 380.931 152.115 381.526 151.471L384.326 153.071L386.364 148.15L383.342 147.202C383.381 146.71 383.368 146.206 383.297 145.697ZM376.896 150.397C374.823 150.686 372.908 149.247 372.618 147.183C372.328 145.119 373.773 143.212 375.847 142.923C377.92 142.635 379.835 144.074 380.125 146.138C380.415 148.202 378.969 150.108 376.896 150.397Z" fill="#016868"></path><path d="M382.7 145.496C382.646 145.114 382.561 144.743 382.45 144.386L385.277 142.686L382.067 138.589L379.732 140.72C379.005 140.224 378.184 139.863 377.308 139.667L377.242 136.38L372.074 137.1L372.76 140.177C371.947 140.563 371.228 141.098 370.633 141.742L367.74 140.155L365.781 144.97L368.803 145.918C368.765 146.41 368.777 146.914 368.849 147.424C368.902 147.806 368.988 148.177 369.099 148.534L366.272 150.234L369.482 154.331L371.817 152.2C372.544 152.696 373.365 153.057 374.241 153.253L374.307 156.539L379.475 155.82L378.789 152.743C379.601 152.357 380.32 151.823 380.916 151.178L383.809 152.765L385.768 147.949L382.746 147.002C382.784 146.509 382.772 146.006 382.7 145.496ZM376.343 150.506C374.098 150.819 372.024 149.26 371.71 147.026C371.396 144.791 372.962 142.726 375.207 142.413C377.452 142.101 379.526 143.66 379.84 145.895C380.153 148.129 378.588 150.195 376.343 150.506Z" fill="#007577"></path><path d="M416.21 117.781C416.112 117.075 415.954 116.392 415.748 115.733L420.963 112.597L415.042 105.042L413.941 104.672L410.735 108.973C409.396 108.057 407.88 107.391 406.265 107.03L406.144 100.968L405.042 100.599L396.61 102.295L397.876 107.97C396.378 108.682 395.051 109.668 393.952 110.856L390.578 118.558C390.508 119.466 390.531 120.395 390.663 121.335C390.761 122.041 390.919 122.724 391.125 123.383L390.729 133.705L391.831 134.074L396.138 130.143C397.478 131.059 398.993 131.724 400.609 132.086L399.628 137.778L400.73 138.148L410.263 136.821L408.997 131.146C410.495 130.434 411.846 129.618 412.945 128.43L418.108 131.382L421.868 122.305L416.295 120.557C416.365 119.649 416.343 118.72 416.21 117.781ZM404.405 126.45C400.581 126.982 397.048 124.328 396.514 120.521C395.98 116.715 398.646 113.198 402.47 112.666C406.293 112.134 409.827 114.788 410.361 118.595C410.895 122.401 408.229 125.918 404.405 126.45Z" fill="#F77B1E"></path><path d="M415.11 117.411C415.011 116.706 414.853 116.023 414.647 115.364L419.862 112.228L413.942 104.672L409.635 108.603C408.295 107.687 406.78 107.022 405.165 106.66L405.044 100.599L395.511 101.925L396.777 107.601C395.279 108.313 393.952 109.299 392.853 110.487L387.519 107.559L383.906 116.441L389.479 118.188C389.409 119.096 389.432 120.026 389.564 120.966C389.663 121.671 389.821 122.354 390.027 123.013L384.812 126.149L390.732 133.705L395.039 129.774C396.379 130.69 397.894 131.355 399.509 131.717L399.63 137.778L409.163 136.452L407.897 130.776C409.396 130.064 410.722 129.078 411.821 127.89L417.155 130.818L420.768 121.936L415.195 120.189C415.266 119.28 415.242 118.351 415.11 117.411ZM403.385 126.652C399.244 127.228 395.418 124.354 394.839 120.232C394.261 116.11 397.148 112.301 401.289 111.725C405.43 111.149 409.256 114.023 409.835 118.146C410.413 122.267 407.526 126.076 403.385 126.652Z" fill="#FCBA00"></path><path d="M50.3482 203.844C50.2697 203.287 50.1456 202.747 49.9832 202.227L54.1012 199.751L49.4258 193.784L48.556 193.493L46.0248 196.889C44.9667 196.165 43.7707 195.64 42.4949 195.354L42.4001 190.568L41.5302 190.276L34.8722 191.616L35.8717 196.098C34.6887 196.66 33.6408 197.438 32.7736 198.376L30.1088 204.458C30.0535 205.175 30.0713 205.909 30.1757 206.651C30.2541 207.208 30.3783 207.748 30.5407 208.268L30.2282 216.419L31.0981 216.71L34.499 213.606C35.5572 214.329 36.7538 214.855 38.029 215.14L37.2539 219.635L38.1238 219.926L45.6516 218.879L44.6522 214.397C45.8352 213.835 46.9022 213.191 47.7693 212.253L51.8464 214.584L54.8155 207.417L50.4144 206.036C50.471 205.319 50.4526 204.586 50.3482 203.844ZM41.026 210.69C38.0064 211.11 35.2167 209.014 34.7951 206.009C34.3728 203.003 36.4789 200.225 39.4978 199.806C42.5167 199.386 45.3071 201.482 45.7287 204.487C46.151 207.493 44.0457 210.27 41.026 210.69Z" fill="#F77B1E"></path><path d="M49.4765 203.553C49.398 202.995 49.2739 202.456 49.1115 201.936L53.2295 199.459L48.5541 193.493L45.1531 196.597C44.095 195.874 42.899 195.348 41.6232 195.063L41.5277 190.276L33.9998 191.324L34.9993 195.805C33.8163 196.368 32.7684 197.146 31.9012 198.084L27.6884 195.772L24.8359 202.786L29.2371 204.166C29.1818 204.883 29.1996 205.617 29.3039 206.359C29.3824 206.917 29.5066 207.456 29.6689 207.976L25.5509 210.452L30.2263 216.419L33.6273 213.314C34.6855 214.038 35.8821 214.563 37.1572 214.849L37.2521 219.635L44.7799 218.588L43.7804 214.106C44.9635 213.544 46.0114 212.766 46.8785 211.828L51.0914 214.14L53.9445 207.126L49.5433 205.746C49.5993 205.028 49.5809 204.294 49.4765 203.553ZM40.2178 210.85C36.9478 211.305 33.9268 209.035 33.4697 205.78C33.0126 202.524 35.2927 199.517 38.5627 199.062C41.8326 198.607 44.8536 200.877 45.3107 204.132C45.7678 207.387 43.4871 210.395 40.2178 210.85Z" fill="#FCBA00"></path><path d="M79.7403 70.318C79.6414 69.6123 79.4838 68.9291 79.2778 68.2703L84.4928 65.1346L78.5723 57.5789L77.4705 57.2094L74.2653 61.5099C72.9254 60.5937 71.4102 59.9281 69.7946 59.5668L69.6745 53.5052L68.5727 53.1357L60.1416 54.8316L61.4071 60.5074C59.9089 61.2192 58.582 62.2053 57.4835 63.3932L54.1092 71.095C54.0389 72.003 54.0621 72.9321 54.1938 73.8721C54.2927 74.5777 54.4503 75.261 54.6563 75.9198L54.2606 86.2418L55.3625 86.6112L59.6694 82.6802C61.0094 83.5964 62.5246 84.262 64.1402 84.6233L63.1591 90.3154L64.2609 90.6849L73.7939 89.3585L72.5284 83.6827C74.0266 82.9709 75.3774 82.1552 76.4758 80.9673L81.639 83.919L85.3995 74.8419L79.8263 73.0944C79.8952 72.1864 79.8727 71.2573 79.7403 70.318ZM67.9348 78.9869C64.1115 79.5187 60.5782 76.8645 60.044 73.0578C59.5098 69.2517 62.176 65.7343 66 65.2025C69.8239 64.6707 73.3566 67.3249 73.8908 71.1316C74.425 74.9384 71.7581 78.4551 67.9348 78.9869Z" fill="#E5572C"></path><path d="M78.6426 69.9485C78.5437 69.2429 78.3861 68.5596 78.18 67.9008L83.3951 64.7651L77.4746 57.2094L73.1676 61.1404C71.8277 60.2242 70.3124 59.5586 68.6969 59.1973L68.5761 53.1357L59.0431 54.4622L60.3087 60.138C58.8105 60.8497 57.4835 61.8359 56.3851 63.0237L51.05 60.0959L47.4375 68.978L53.0107 70.7255C52.9405 71.6336 52.963 72.5626 53.0953 73.5026C53.1943 74.2083 53.3519 74.8915 53.5579 75.5503L48.3428 78.686L54.2633 86.2418L58.5703 82.3107C59.9103 83.2269 61.4255 83.8918 63.0411 84.2538L63.1618 90.3154L72.6948 88.989L71.4292 83.3132C72.9274 82.6014 74.2544 81.6153 75.3528 80.4274L80.6873 83.3553L84.2997 74.4731L78.7265 72.7256C78.7975 71.8169 78.7749 70.8878 78.6426 69.9485ZM66.9176 79.1893C62.777 79.7652 58.951 76.891 58.3718 72.7684C57.7933 68.6466 60.6805 64.8378 64.8217 64.2612C68.9622 63.6852 72.7883 66.5595 73.3675 70.682C73.946 74.8046 71.0581 78.6133 66.9176 79.1893Z" fill="#FF6931"></path></svg>