<svg xmlns="http://www.w3.org/2000/svg" width="500" height="300" viewBox="0 0 500 300" fill="none"><rect width="500" height="300" rx="24" fill="white"></rect><path d="M403.224 268.753H377.734V268.937H403.224V268.753Z" fill="#EBEBEB"></path><path d="M311.893 270.744H305.203V270.928H311.893V270.744Z" fill="#EBEBEB"></path><path d="M376.965 261.942H362.195V262.126H376.965V261.942Z" fill="#EBEBEB"></path><path d="M130.611 263.174H97.3711V263.359H130.611V263.174Z" fill="#EBEBEB"></path><path d="M142.335 263.174H137.461V263.359H142.335V263.174Z" fill="#EBEBEB"></path><path d="M230.265 266.272H158.176V266.456H230.265V266.272Z" fill="#EBEBEB"></path><path d="M239.396 224.236H90.795C88.3732 224.236 86.4023 222.358 86.4023 220.049V20.9624C86.4023 18.6542 88.3732 16.7758 90.795 16.7758H239.396C241.817 16.7758 243.788 18.6542 243.788 20.9624V220.049C243.788 222.358 241.817 224.236 239.396 224.236ZM90.795 16.9599C88.4786 16.9599 86.5947 18.7554 86.5947 20.9631V220.05C86.5947 222.258 88.4786 224.053 90.795 224.053H239.396C241.712 224.053 243.595 222.258 243.595 220.05V20.9624C243.595 18.7554 241.712 16.9591 239.396 16.9591L90.795 16.9599Z" fill="#EBEBEB"></path><path d="M405.848 224.236H257.247C254.826 224.236 252.855 222.358 252.855 220.049V20.9624C252.855 18.6542 254.826 16.7758 257.247 16.7758H405.848C408.27 16.7758 410.24 18.6542 410.24 20.9624V220.049C410.241 222.358 408.27 224.236 405.848 224.236ZM257.247 16.9599C254.932 16.9599 253.048 18.7554 253.048 20.9631V220.05C253.048 222.258 254.932 224.053 257.247 224.053H405.848C408.164 224.053 410.048 222.258 410.048 220.05V20.9624C410.048 18.7554 408.164 16.9591 405.848 16.9591L257.247 16.9599Z" fill="#EBEBEB"></path><path d="M441.779 256.947H57V257.131H441.779V256.947Z" fill="#EBEBEB"></path><path d="M249.843 244.885C302.65 244.885 345.459 204.083 345.459 153.753C345.459 103.422 302.65 62.6205 249.843 62.6205C197.035 62.6205 154.227 103.422 154.227 153.753C154.227 204.083 197.035 244.885 249.843 244.885Z" fill="#F0F0F0"></path><path d="M250.111 246.916C196.205 246.916 152.346 205.113 152.346 153.733C152.346 102.35 196.205 60.5486 250.111 60.5486V64.6494C198.575 64.6494 156.648 104.612 156.648 153.733C156.648 202.853 198.575 242.815 250.111 242.815V246.916Z" fill="white"></path><path d="M250.109 246.916V242.815C301.645 242.815 343.575 202.853 343.575 153.733C343.575 104.612 301.644 64.6495 250.109 64.6495V60.5487C304.02 60.5487 347.879 102.351 347.879 153.733C347.878 205.113 304.019 246.916 250.109 246.916Z" fill="white"></path><path d="M300.069 153.754H295.767C295.767 123.551 279.686 83.1426 248.949 64.3475L251.269 60.8958C283.308 80.4852 300.069 122.437 300.069 153.754Z" fill="white"></path><path d="M251.269 243.83L248.949 240.378C279.686 221.583 295.767 181.174 295.767 150.972H300.069C300.069 182.288 283.308 224.241 251.269 243.83Z" fill="white"></path><path d="M204.453 153.733H200.15C200.15 122.417 216.911 80.4667 248.943 60.8728L251.271 64.3252C220.534 83.1219 204.453 123.532 204.453 153.733Z" fill="white"></path><path d="M248.943 243.81C216.911 224.216 200.15 182.266 200.15 150.952H204.453C204.453 181.152 220.534 221.562 251.271 240.359L248.943 243.81Z" fill="white"></path><path d="M252.262 62.5988H247.959V244.865H252.262V62.5988Z" fill="white"></path><path d="M331.053 103.138H169.184V107.239H331.053V103.138Z" fill="white"></path><path d="M345.693 153.234H154.545V157.335H345.693V153.234Z" fill="white"></path><path d="M328.914 203.289H171.322V207.39H328.914V203.289Z" fill="white"></path><path d="M362.607 218.442C365.9 215.206 371.343 215.126 374.74 218.265C378.137 221.404 378.22 226.593 374.927 229.83C371.632 233.067 366.189 233.146 362.792 230.007C359.395 226.868 359.313 221.679 362.607 218.442ZM371.653 226.804C373.197 225.287 373.157 222.856 371.566 221.385C369.974 219.914 367.424 219.951 365.88 221.468C364.337 222.985 364.376 225.416 365.967 226.887C367.559 228.358 370.109 228.321 371.653 226.804Z" fill="#F0F0F0"></path><path d="M373.338 226.029L371.07 228.257L386.109 242.157L388.376 239.929L373.338 226.029Z" fill="#F0F0F0"></path><path d="M387.574 239.382L383.316 243.566L385.654 245.727L389.912 241.543L387.574 239.382Z" fill="#F0F0F0"></path><path d="M384.282 236.881L380.279 240.815L382.617 242.976L386.62 239.042L384.282 236.881Z" fill="#F0F0F0"></path><path d="M379.531 233.473L376.037 236.906L378.375 239.068L381.869 235.634L379.531 233.473Z" fill="#F0F0F0"></path><path d="M94.5059 44.9139C93.6563 44.9139 92.9668 44.2567 92.9668 43.4469C92.9668 31.3616 103.283 21.5294 115.963 21.5294C116.812 21.5294 117.502 22.1866 117.502 22.9964C117.502 23.8061 116.812 24.4633 115.963 24.4633C104.98 24.4633 96.045 32.9789 96.045 43.4469C96.045 44.2574 95.3555 44.9139 94.5059 44.9139Z" fill="#F0F0F0"></path><path d="M103.949 43.419C103.1 43.419 102.41 42.7618 102.41 41.9521C102.41 34.7237 108.58 28.8428 116.164 28.8428C117.014 28.8428 117.704 29.5 117.704 30.3097C117.704 31.1195 117.014 31.7766 116.164 31.7766C110.278 31.7766 105.488 36.341 105.488 41.9521C105.488 42.7618 104.799 43.419 103.949 43.419Z" fill="#F0F0F0"></path><path d="M111.889 43.8716C111.039 43.8716 110.35 43.2144 110.35 42.4047C110.35 38.386 113.78 35.1169 117.997 35.1169C118.846 35.1169 119.536 35.7741 119.536 36.5839C119.536 37.3936 118.846 38.0508 117.997 38.0508C115.478 38.0508 113.428 40.004 113.428 42.4047C113.428 43.2144 112.738 43.8716 111.889 43.8716Z" fill="#F0F0F0"></path><path d="M130.187 218.662L131.236 235.735C130.925 241.296 120.992 246.356 120.992 246.356C120.992 246.356 110.416 242.662 109.296 237.196L107.83 220.151L118.538 215.982L130.187 218.662Z" fill="#EBEBEB"></path><path d="M400.328 28.4271L400.971 35.4354C401.03 36.0669 400.539 36.6236 399.876 36.6794C399.214 36.7344 398.63 36.2672 398.572 35.6357L397.928 28.6274C397.721 26.3639 395.62 24.6828 393.245 24.8808L390.615 25.1001C388.24 25.2982 386.477 27.302 386.685 29.5647L387.263 35.8652L384.864 36.0655L384.286 29.765C383.962 26.2399 386.708 23.1205 390.405 22.8124L393.036 22.5931C396.732 22.2851 400.004 24.9021 400.328 28.4271Z" fill="#F0F0F0"></path><g opacity="0.5"><path d="M400.328 28.4271L400.971 35.4354C401.03 36.0669 400.539 36.6236 399.876 36.6794C399.214 36.7344 398.63 36.2672 398.572 35.6357L397.928 28.6274C397.721 26.3639 395.62 24.6828 393.245 24.8808L390.615 25.1001C388.24 25.2982 386.477 27.302 386.685 29.5647L387.263 35.8652L384.864 36.0655L384.286 29.765C383.962 26.2399 386.708 23.1205 390.405 22.8124L393.036 22.5931C396.732 22.2851 400.004 24.9021 400.328 28.4271Z" fill="#F0F0F0"></path></g><path d="M401.741 35.1127L402.995 48.767C403.074 49.631 402.405 50.3909 401.498 50.4664L387.172 51.6612C386.266 51.7368 385.467 51.0994 385.389 50.2346L384.135 36.5804C384.084 36.0222 384.347 35.5066 384.783 35.1919C385.022 35.0196 385.312 34.9073 385.632 34.8802L399.958 33.6854C400.269 33.6597 400.566 33.7184 400.825 33.8387C401.326 34.0741 401.689 34.5443 401.741 35.1127Z" fill="#F0F0F0"></path><mask id="mask0_2332_323" style="mask-type:luminance" maskUnits="userSpaceOnUse" x="86" y="133" width="65" height="62"><path d="M143.506 194.03H93.276C89.4798 194.03 86.4023 191.097 86.4023 187.479V139.604C86.4023 135.986 89.4798 133.053 93.276 133.053H143.507C147.303 133.053 150.38 135.986 150.38 139.604V187.479C150.38 191.097 147.302 194.03 143.506 194.03Z" fill="white"></path></mask><g mask="url(#mask0_2332_323)"><path d="M121.758 168.786H114.281V183.263H121.758V168.786Z" fill="#407BFF"></path><path d="M121.758 168.786H114.281V183.263H121.758V168.786Z" fill="#407BFF"></path><path d="M125.133 183.522H110.969L114.423 180.623H121.679L125.133 183.522Z" fill="#407BFF"></path><path d="M125.133 183.522H110.969L114.423 180.623H121.679L125.133 183.522Z" fill="#407BFF"></path><path opacity="0.2" d="M121.76 174.373H114.238V177.295H121.76V174.373Z" fill="black"></path><path d="M92.8205 144.214H143.677C144.209 144.214 144.642 144.626 144.642 145.134V174.857C144.642 175.365 144.21 175.777 143.677 175.777H92.8205C92.288 175.777 91.8555 175.366 91.8555 174.857V145.134C91.8555 144.626 92.2872 144.214 92.8205 144.214Z" fill="#407BFF"></path><path opacity="0.3" d="M92.8205 144.214H143.677C144.209 144.214 144.642 144.626 144.642 145.134V174.857C144.642 175.365 144.21 175.777 143.677 175.777H92.8205C92.288 175.777 91.8555 175.366 91.8555 174.857V145.134C91.8555 144.626 92.2872 144.214 92.8205 144.214Z" fill="white"></path><path opacity="0.8" d="M142.67 147.503V172.375C142.67 173.102 142.052 173.692 141.289 173.692H95.1548C94.3922 173.692 93.7734 173.102 93.7734 172.375V147.503C93.7734 146.776 94.3922 146.186 95.1548 146.186H141.289C142.052 146.186 142.67 146.776 142.67 147.503Z" fill="#407BFF"></path><path opacity="0.4" d="M142.67 147.503V172.375C142.67 173.102 142.052 173.692 141.289 173.692H95.1548C94.3922 173.692 93.7734 173.102 93.7734 172.375V147.503C93.7734 146.776 94.3922 146.186 95.1548 146.186H141.289C142.052 146.186 142.67 146.776 142.67 147.503Z" fill="black"></path><path fill-rule="evenodd" clip-rule="evenodd" d="M124.582 155.599L117.987 159.359L111.391 155.71V155.6L117.987 151.95L124.577 155.596L124.582 155.599Z" fill="#407BFF"></path><path fill-rule="evenodd" clip-rule="evenodd" d="M125.291 156.764V164.063L118.695 167.713V160.413L125.291 156.764Z" fill="#407BFF"></path><path fill-rule="evenodd" clip-rule="evenodd" d="M117.339 160.413V167.713L110.748 164.063V156.764L117.344 160.413H117.339Z" fill="#407BFF"></path><g opacity="0.7"><path fill-rule="evenodd" clip-rule="evenodd" d="M124.58 155.599L117.985 159.359L111.389 155.71V155.6L117.985 151.95L124.575 155.596L124.58 155.599Z" fill="white"></path><path fill-rule="evenodd" clip-rule="evenodd" d="M125.289 156.764V164.063L118.693 167.713V160.413L125.289 156.764Z" fill="white"></path><path fill-rule="evenodd" clip-rule="evenodd" d="M117.337 160.413V167.713L110.746 164.063V156.764L117.342 160.413H117.337Z" fill="white"></path></g></g><path d="M143.506 194.03H93.276C89.4798 194.03 86.4023 191.097 86.4023 187.479V139.604C86.4023 135.986 89.4798 133.053 93.276 133.053H143.507C147.303 133.053 150.38 135.986 150.38 139.604V187.479C150.38 191.097 147.302 194.03 143.506 194.03Z" stroke="#407BFF" stroke-miterlimit="10"></path><path d="M143.506 194.03H93.276C89.4798 194.03 86.4023 191.097 86.4023 187.479V139.604C86.4023 135.986 89.4798 133.053 93.276 133.053H143.507C147.303 133.053 150.38 135.986 150.38 139.604V187.479C150.38 191.097 147.302 194.03 143.506 194.03Z" stroke="#407BFF" stroke-miterlimit="10"></path><path d="M182.925 180.419C182.836 180.653 182.694 180.865 182.506 181.039L202.343 190.401L202.681 189.742L182.925 180.419Z" fill="#407BFF"></path><path d="M155.825 167.63L150.717 165.219L150.379 165.878L155.555 168.321C155.594 168.073 155.687 167.838 155.825 167.63Z" fill="#407BFF"></path><path d="M172.138 175.328L158.928 169.093C158.864 169.334 158.754 169.561 158.592 169.753L172.121 176.139C172.067 175.871 172.074 175.593 172.138 175.328Z" fill="#407BFF"></path><path d="M175.224 176.784C175.071 177.002 174.865 177.187 174.6 177.309L179.586 179.662C179.601 179.409 179.666 179.161 179.783 178.936L175.224 176.784Z" fill="#407BFF"></path><mask id="mask1_2332_323" style="mask-type:luminance" maskUnits="userSpaceOnUse" x="114" y="39" width="90" height="85"><path d="M196.25 123.581H121.803C118.007 123.581 114.93 120.648 114.93 117.029V46.0743C114.93 42.4561 118.007 39.5229 121.803 39.5229H196.25C200.046 39.5229 203.123 42.4561 203.123 46.0743V117.029C203.123 120.648 200.046 123.581 196.25 123.581Z" fill="white"></path></mask><g mask="url(#mask1_2332_323)"><path d="M198.139 121.584V187.521H196.198L193.756 121.584H198.139Z" fill="#407BFF"></path><path opacity="0.5" d="M198.139 121.584V187.521H196.198L193.756 121.584H198.139Z" fill="black"></path><path d="M231.931 117.116H80.7871V120.1H231.931V117.116Z" fill="#407BFF"></path><path d="M122.906 119.257V190.43H120.965L118.523 119.257H122.906Z" fill="#407BFF"></path><path d="M222.419 123.293H91.0297L85.9629 120.1H227.485L222.419 123.293Z" fill="#407BFF"></path><path opacity="0.5" d="M222.419 123.293H91.0297L85.9629 120.1H227.485L222.419 123.293Z" fill="black"></path><path d="M203.903 123.293H118.523L115.201 120.1H203.903V123.293Z" fill="#407BFF"></path><path d="M176.989 107.24H120.276C118.722 107.24 117.396 106.04 117.314 104.557L115.451 70.6733C115.37 69.1917 116.564 67.991 118.118 67.991H174.831C176.386 67.991 177.712 69.1924 177.793 70.6733L179.656 104.557C179.738 106.04 178.543 107.24 176.989 107.24Z" fill="#407BFF"></path><path opacity="0.4" d="M176.989 107.24H120.276C118.722 107.24 117.396 106.04 117.314 104.557L115.451 70.6733C115.37 69.1917 116.564 67.991 118.118 67.991H174.831C176.386 67.991 177.712 69.1924 177.793 70.6733L179.656 104.557C179.738 106.04 178.543 107.24 176.989 107.24Z" fill="white"></path><path d="M153.153 117.159H145.076L146.702 104.33H153.153V117.159Z" fill="#407BFF"></path><path opacity="0.4" d="M153.153 117.159H145.076L146.702 104.33H153.153V117.159Z" fill="white"></path><path d="M160.177 116.083H145.212L145.076 117.159H160.178C160.49 117.159 160.743 116.918 160.743 116.621C160.743 116.324 160.489 116.083 160.177 116.083Z" fill="#407BFF"></path><path opacity="0.3" d="M160.177 116.083H145.212L145.076 117.159H160.178C160.49 117.159 160.743 116.918 160.743 116.621C160.743 116.324 160.489 116.083 160.177 116.083Z" fill="white"></path><path opacity="0.1" d="M145.934 110.4H153.154V106.719H146.401L145.934 110.4Z" fill="black"></path><path d="M177.467 107.24H120.755C119.2 107.24 117.874 106.04 117.793 104.557L115.93 70.6733C115.848 69.1917 117.043 67.991 118.597 67.991H175.31C176.864 67.991 178.19 69.1924 178.272 70.6733L180.135 104.557C180.216 106.04 179.022 107.24 177.467 107.24Z" fill="#407BFF"></path><path d="M120.68 105.87H177.392C178.151 105.87 178.736 105.281 178.696 104.558L176.833 70.674C176.793 69.9508 176.143 69.3625 175.385 69.3625H118.673C117.914 69.3625 117.329 69.9508 117.369 70.674L119.232 104.558C119.271 105.281 119.921 105.87 120.68 105.87Z" fill="#407BFF"></path><path opacity="0.4" d="M120.68 105.87H177.392C178.151 105.87 178.736 105.281 178.696 104.558L176.833 70.674C176.793 69.9508 176.143 69.3625 175.385 69.3625H118.673C117.914 69.3625 117.329 69.9508 117.369 70.674L119.232 104.558C119.271 105.281 119.921 105.87 120.68 105.87Z" fill="black"></path><path d="M174.015 112.6H139.932L146.09 117.128H180.168L174.015 112.6Z" fill="#407BFF"></path><path opacity="0.4" d="M174.015 112.6H139.932L146.09 117.128H180.168L174.015 112.6Z" fill="white"></path><path d="M140.719 117.128L139.932 112.6L146.09 117.128H140.719Z" fill="#407BFF"></path><path opacity="0.5" d="M140.719 117.128L139.932 112.6L146.09 117.128H140.719Z" fill="black"></path><path d="M193.669 123.084C193.669 123.084 163.07 125.545 163.82 138.21C164.42 148.297 166.562 140.758 162.881 176.586L170.579 176.991C170.579 176.991 178.41 151.777 177.353 141.758C185.978 141.758 205.724 142.48 208.593 135.062C210.017 131.296 210.71 127.314 210.637 123.311L193.669 123.084Z" fill="#407BFF"></path><path d="M184.556 123.084C184.355 123.084 150.252 126.429 150.21 137.453C150.137 155.686 144.674 176.586 144.674 176.586L151.414 179.769C151.414 179.769 163.15 157.111 162.973 142.899C172.355 140.333 196.624 144.644 199.493 137.233C201.843 131.171 200.573 123.084 200.573 123.084H184.556Z" fill="#407BFF"></path><path d="M196.142 87.9091C197.039 89.7471 197.778 91.5163 198.516 93.3543C199.255 95.1924 199.907 97.0312 200.512 98.9162C201.116 100.801 201.641 102.732 202.063 104.734C202.522 106.813 202.751 108.933 202.746 111.058C202.739 112.306 202.544 113.546 202.166 114.741C201.928 115.473 201.586 116.17 201.146 116.812C200.891 117.176 200.599 117.516 200.273 117.824L200.011 118.069C199.865 118.185 199.705 118.313 199.553 118.412C199.295 118.58 199.022 118.724 198.735 118.842C198.312 119.021 197.87 119.156 197.417 119.244C197.061 119.316 196.7 119.366 196.336 119.395C195.716 119.432 195.094 119.432 194.475 119.395C193.374 119.345 192.277 119.228 191.191 119.046C187.139 118.344 183.171 117.26 179.344 115.811L180.229 112.606C184.105 113.048 188.06 113.519 191.79 113.682C192.718 113.682 193.621 113.723 194.463 113.682C194.839 113.663 195.212 113.618 195.581 113.548C195.886 113.496 196.149 113.391 196.057 113.397C195.996 113.417 195.939 113.444 195.886 113.479C195.825 113.514 195.768 113.555 195.715 113.601C195.715 113.601 195.746 113.554 195.77 113.502C195.849 113.335 195.911 113.162 195.953 112.984C196.089 112.345 196.145 111.693 196.118 111.041C196.028 109.375 195.768 107.721 195.343 106.102C194.928 104.356 194.391 102.658 193.805 100.93C193.219 99.2023 192.584 97.4742 191.888 95.7528C191.193 94.0306 190.46 92.3025 189.74 90.6801L196.142 87.9091Z" fill="#FFB273"></path><path d="M181.913 113.477L177.866 111.307L175.834 115.485C175.834 115.485 180.564 117.364 181.56 116.189L181.913 113.477Z" fill="#FFB273"></path><path d="M174.589 112.099L172.74 114.891L175.835 115.455L177.868 111.278L174.589 112.099Z" fill="#FFB273"></path><path d="M186.707 91.2266C185.933 93.0822 185.121 94.8565 184.266 96.6542C183.411 98.452 182.556 100.22 181.653 101.989C179.835 105.59 177.796 109.087 175.549 112.46C174.939 113.322 174.328 114.177 173.644 115.032C173.303 115.463 172.924 115.887 172.521 116.324C172.301 116.544 172.124 116.748 171.868 116.975L171.502 117.312L171.294 117.499C170.713 117.973 170.03 118.319 169.292 118.511C168.903 118.616 168.507 118.696 168.107 118.749C167.455 118.824 166.798 118.85 166.142 118.825C165.008 118.79 163.879 118.683 162.76 118.505C158.622 117.808 154.568 116.713 150.662 115.235L151.553 112.024C155.503 112.478 159.537 112.961 163.334 113.112C164.229 113.145 165.125 113.133 166.019 113.077C166.38 113.049 166.737 112.995 167.088 112.914C167.202 112.888 167.313 112.849 167.417 112.797C167.454 112.797 167.417 112.756 167.252 112.855C167.192 112.887 167.137 112.926 167.088 112.972C167.088 112.972 167.131 112.92 167.148 112.902L167.319 112.722C167.429 112.617 167.563 112.442 167.692 112.303C167.942 112.001 168.198 111.674 168.455 111.32C168.961 110.628 169.456 109.86 169.944 109.08C170.921 107.521 171.83 105.863 172.722 104.187C173.613 102.512 174.467 100.801 175.31 99.0791C176.988 95.6464 178.63 92.1273 180.192 88.6653L186.707 91.2266Z" fill="#FFB273"></path><path d="M153.289 112.862L149.236 110.663L147.203 114.841C147.203 114.841 151.934 116.726 152.935 115.551L153.289 112.862Z" fill="#FFB273"></path><path d="M145.965 111.489L144.109 114.276L147.204 114.841L149.236 110.663L145.965 111.489Z" fill="#FFB273"></path><path d="M197.185 70.5861L194.597 73.4422L190.647 77.3362C190.728 77.5276 190.837 77.777 190.95 78.0418C191.254 78.7598 191.434 79.5219 191.477 80.295C191.563 81.8558 191.406 83.1761 188.823 84.2345C188.823 84.2345 186.113 87.6084 192.559 86.6718C199.005 85.7351 199.975 82.5467 199.975 82.5467C197.118 80.6097 196.959 74.1691 197.185 70.5861Z" fill="#FFB273"></path><path d="M184.041 67.3624C184.041 67.746 183.839 68.0724 183.571 68.0841C183.302 68.0958 183.088 67.7929 183.082 67.4093C183.076 67.025 183.29 66.6993 183.552 66.6876C183.815 66.6759 184.035 66.9788 184.041 67.3624Z" fill="#263238"></path><path d="M185.388 65.9315C185.308 65.9308 185.235 65.8912 185.193 65.8266C184.873 65.3257 184.327 64.9949 183.716 64.931C183.586 64.9244 183.484 64.8225 183.484 64.6985C183.487 64.5731 183.597 64.4741 183.728 64.4778C184.499 64.543 185.193 64.9531 185.596 65.5831C185.664 65.6895 185.631 65.8281 185.523 65.897C185.482 65.9198 185.436 65.9315 185.388 65.9315Z" fill="#263238"></path><path d="M183.894 67.578C183.567 68.6261 183.094 69.6273 182.49 70.5566C182.997 70.8295 183.607 70.872 184.15 70.6732L183.894 67.578Z" fill="#630F0F"></path><path d="M197.55 65.4253C197.312 70.1724 197.422 72.9881 194.95 75.5017C192.542 78.0315 188.439 78.2207 185.784 75.9257C184.811 75.0844 184.129 73.9805 183.828 72.7615C182.705 68.5551 183.291 61.4983 188.101 59.3808C191.345 57.8493 195.278 59.1138 196.885 62.2061C197.404 63.2037 197.634 64.3149 197.55 65.4253Z" fill="#FFB273"></path><path d="M199.814 67.0089C199.094 69.0215 198.001 70.8948 196.579 72.5356L190.096 73.6988C190.096 73.6988 184.975 71.6569 186.342 68.2947C185.476 67.5964 185.799 65.4385 186.409 64.2518C187.386 64.9962 188.991 65.0608 189.87 64.1645C190.578 65.4033 192.702 65.5779 193.624 64.4615C194.68 65.5786 196.932 65.2353 197.567 63.8564C198.348 64.3449 199.472 64.2752 200.18 63.6936C200.21 63.6643 200.24 63.6415 200.271 63.6122C200.376 64.4608 200.272 65.5713 199.814 67.0089Z" fill="#263238"></path><path opacity="0.1" d="M199.814 67.0089C199.094 69.0215 198.001 70.8948 196.579 72.5356L190.096 73.6988C190.096 73.6988 184.975 71.6569 186.342 68.2947C185.476 67.5964 185.799 65.4385 186.409 64.2518C187.386 64.9962 188.991 65.0608 189.87 64.1645C190.578 65.4033 192.702 65.5779 193.624 64.4615C194.68 65.5786 196.932 65.2353 197.567 63.8564C198.348 64.3449 199.472 64.2752 200.18 63.6936C200.21 63.6643 200.24 63.6415 200.271 63.6122C200.376 64.4608 200.272 65.5713 199.814 67.0089Z" fill="white"></path><path d="M200.748 61.2548C201.114 62.0345 200.912 63.0173 200.271 63.6107C200.241 63.64 200.211 63.6628 200.18 63.6921C199.472 64.2737 198.348 64.3434 197.567 63.8549C196.932 65.2339 194.68 65.5771 193.624 64.46C192.702 65.5771 190.578 65.4025 189.87 64.163C188.991 65.0586 187.386 64.9947 186.409 64.2503C186.153 64.0581 185.939 63.8139 185.799 63.5293C185.762 63.4655 185.738 63.4016 185.714 63.3371C185.659 63.395 185.604 63.4479 185.543 63.4941C184.951 63.9591 184.017 64.0295 183.37 63.6166C182.839 63.2792 182.545 62.6506 182.588 62.0513C182.595 61.9237 182.619 61.8012 182.655 61.6787C182.607 61.766 182.545 61.8474 182.472 61.9171C181.941 62.4584 180.818 62.4811 180.299 61.865C179.652 61.103 180.018 59.8348 180.903 59.3287C181.257 59.1307 181.648 59.0375 182.051 59.0375C182.673 59.0375 183.308 59.2524 183.802 59.6133C183.271 58.8864 183.46 57.7752 184.205 57.2456C184.949 56.7219 186.121 56.8672 186.695 57.5596C186.616 56.7337 186.903 56.2393 187.348 55.9833C188.191 55.5176 189.595 55.9195 190.278 56.6992C190.278 56.6992 191.218 54.5347 192.841 54.779C193.195 54.8259 194.861 55.5293 194.819 56.1C194.819 56.1403 194.807 56.1755 194.788 56.2107C194.813 56.1645 194.837 56.1234 194.868 56.0831C195.185 55.6063 195.826 55.3672 196.43 55.379C197.084 55.3848 197.706 55.6232 198.311 55.8557C199.574 56.3501 200.917 56.9031 201.65 58.0026C202.378 59.1087 202.06 60.9057 200.748 61.2548Z" fill="#263238"></path><path d="M189.204 68.7355C189.027 69.9083 188.462 70.996 187.592 71.8417C186.487 72.848 185.547 71.8417 185.535 70.3117C185.535 68.9269 186.078 66.7338 187.367 66.3268C188.654 65.9197 189.441 67.2289 189.204 68.7355Z" fill="#FFB273"></path><path d="M208.725 84.1992C208.267 83.036 206.131 81.8719 204.819 81.8719H203.952C202.438 81.8719 200.552 81.9886 198.722 82.1917C195.232 82.5599 191.768 83.1152 188.345 83.8552C186.77 84.2506 185.25 84.7508 184.041 85.1814C182.503 85.763 181.6 86.1532 181.6 86.1532C181.6 86.1532 183.286 96.8487 184.157 107.472C184.642 113.384 184.442 119.255 184.596 123.292H210.635C211.532 118.441 211.391 114.209 211.464 105.448C211.508 100.19 210.611 88.9866 208.725 84.1992Z" fill="#407BFF"></path><path opacity="0.2" d="M183.596 101.535C183.791 103.763 183.993 106.101 184.206 108.44C187.258 104.194 188.949 92.5754 188.949 92.5754L183.596 101.535Z" fill="black"></path><path d="M180.126 86.9359C176.396 88.9375 172.74 99.1782 172.74 99.1782L181.279 105.32C184.539 102.381 189.306 95.092 189.824 92.1772C190.661 87.7038 186.101 83.7475 180.126 86.9359Z" fill="#407BFF"></path><path d="M187.211 149.534V89.2154C187.211 86.9314 188.245 84.7588 190.048 83.2545L194.558 79.4911C196.073 78.2266 198.019 77.5298 200.033 77.5298H216.328L224.291 85.6045V149.534H187.211Z" fill="#407BFF"></path><path opacity="0.3" d="M224.29 85.6076V149.537H156.891C154.468 149.537 152.496 147.664 152.496 145.349C152.496 144.598 152.704 143.859 153.106 143.214C155.163 139.903 158.893 137.867 162.927 137.867H181.65C184.72 137.867 187.209 135.495 187.209 132.569V89.2148C187.209 86.9344 188.24 84.7582 190.047 83.2576L194.558 79.4934C196.072 78.2252 198.019 77.5328 200.033 77.5328H216.324L224.29 85.6076Z" fill="white"></path><path d="M192.635 149.534V89.2154C192.635 86.9314 193.669 84.7588 195.471 83.2545L199.982 79.4911C201.497 78.2266 203.442 77.5298 205.457 77.5298H218.157C220.451 77.5298 222.643 78.4334 224.214 80.0265L227.46 83.3176C228.909 84.7867 229.715 86.7267 229.715 88.7431V143.495C229.715 146.831 226.878 149.534 223.379 149.534H192.635Z" fill="#407BFF"></path><path opacity="0.7" d="M192.635 149.534V89.2154C192.635 86.9314 193.669 84.7588 195.471 83.2545L199.982 79.4911C201.497 78.2266 203.442 77.5298 205.457 77.5298H218.157C220.451 77.5298 222.643 78.4334 224.214 80.0265L227.46 83.3176C228.909 84.7867 229.715 86.7267 229.715 88.7431V143.495C229.715 146.831 226.878 149.534 223.379 149.534H192.635Z" fill="white"></path><path d="M161.695 102.789H129.889L128.494 83.7747H160.3L161.695 102.789Z" fill="#407BFF"></path><path opacity="0.5" d="M161.695 102.789H129.889L128.494 83.7747H160.3L161.695 102.789Z" fill="black"></path><path d="M160.39 84.9959H128.583L128.494 83.7747H160.3L160.39 84.9959Z" fill="#407BFF"></path><path d="M173.856 92.3959H142.05L140.654 73.3807H172.461L173.856 92.3959Z" fill="#407BFF"></path><path opacity="0.8" d="M173.856 92.3959H142.05L140.654 73.3807H172.461L173.856 92.3959Z" fill="white"></path><path d="M172.552 74.6026H140.746L140.656 73.3806H172.463L172.552 74.6026Z" fill="#407BFF"></path></g><path d="M163.677 128.073L159.315 123.51L158.746 124.004L163.351 128.821C163.398 128.549 163.511 128.294 163.677 128.073Z" fill="#407BFF"></path><path d="M170.795 135.518C170.708 135.761 170.56 135.979 170.367 136.16L179.727 145.949C179.903 145.774 180.127 145.64 180.395 145.558L170.795 135.518Z" fill="#407BFF"></path><path d="M168.636 133.26L166.059 130.565C165.845 130.707 165.58 130.799 165.271 130.83L167.957 133.64C168.136 133.468 168.363 133.337 168.636 133.26Z" fill="#407BFF"></path><path d="M195.836 161.709L182.575 147.839C182.482 148.079 182.334 148.295 182.137 148.47L195.476 162.422C195.539 162.16 195.656 161.914 195.836 161.709Z" fill="#407BFF"></path><path d="M198.243 164.226C198.043 164.381 197.797 164.491 197.504 164.542L210.307 177.934L210.876 177.439L198.243 164.226Z" fill="#407BFF"></path><path d="M196.254 123.581H121.807C118.011 123.581 114.934 120.648 114.934 117.029V46.0743C114.934 42.4561 118.011 39.5229 121.807 39.5229H196.254C200.05 39.5229 203.127 42.4561 203.127 46.0743V117.029C203.127 120.648 200.05 123.581 196.254 123.581Z" stroke="#407BFF" stroke-miterlimit="10"></path><mask id="mask2_2332_323" style="mask-type:luminance" maskUnits="userSpaceOnUse" x="216" y="17" width="65" height="62"><path d="M273.432 78.6681H223.202C219.406 78.6681 216.328 75.735 216.328 72.1168V24.2425C216.328 20.6243 219.406 17.6912 223.202 17.6912H273.432C277.229 17.6912 280.306 20.6243 280.306 24.2425V72.1175C280.306 75.735 277.229 78.6681 273.432 78.6681Z" fill="white"></path></mask><g mask="url(#mask2_2332_323)"><path d="M239.415 43.4214L234.686 45.7641C234.686 45.7641 234.228 62.6639 234.686 64.9949C235.145 67.3259 237.497 68.0432 237.497 68.0432L242.271 64.4859L239.415 43.4214Z" fill="#FF8B7B"></path><path d="M234.686 45.764C234.686 45.764 228.904 55.1238 224.769 68.0424C222.365 75.5539 236.357 76.0284 238.919 73.3821C239.557 72.7234 244.302 65.8787 244.302 65.8787L234.686 45.764Z" fill="#FF8B7B"></path><path d="M254.343 68.3204H238.38C236.866 68.3204 235.745 67.1505 235.878 65.7077L238.917 32.6004C239.049 31.1577 240.384 29.9878 241.898 29.9878H257.861C259.375 29.9878 260.495 31.1577 260.363 32.6004L257.324 65.7077C257.192 67.1505 255.856 68.3204 254.343 68.3204Z" fill="#407BFF"></path><path opacity="0.1" d="M254.343 68.3204H238.38C236.866 68.3204 235.745 67.1505 235.878 65.7077L238.917 32.6004C239.049 31.1577 240.384 29.9878 241.898 29.9878H257.861C259.375 29.9878 260.495 31.1577 260.363 32.6004L257.324 65.7077C257.192 67.1505 255.856 68.3204 254.343 68.3204Z" fill="black"></path><g opacity="0.8"><path d="M246.428 67.21C246.055 67.21 245.715 67.0714 245.473 66.819C245.23 66.5653 245.114 66.2286 245.146 65.8714C245.213 65.1416 245.89 64.5482 246.656 64.5482C247.029 64.5482 247.368 64.6868 247.611 64.9392C247.855 65.1929 247.97 65.5296 247.938 65.8868C247.871 66.6166 247.193 67.21 246.428 67.21ZM246.656 64.7235C245.983 64.7235 245.388 65.245 245.329 65.8868C245.301 66.1949 245.4 66.4838 245.608 66.7009C245.815 66.9159 246.106 67.0347 246.428 67.0347C247.101 67.0347 247.696 66.5132 247.755 65.8714C247.783 65.5633 247.684 65.2744 247.475 65.0572C247.268 64.8423 246.977 64.7235 246.656 64.7235Z" fill="white"></path></g><g opacity="0.8"><path d="M252.206 33.0346H247.036C246.881 33.0346 246.739 32.9766 246.639 32.871C246.537 32.7654 246.488 32.6253 246.502 32.4764L246.513 32.362C246.541 32.0627 246.819 31.8192 247.133 31.8192H252.301C252.456 31.8192 252.598 31.8772 252.7 31.9828C252.801 32.0884 252.85 32.2292 252.836 32.3781L252.825 32.4918C252.798 32.7911 252.52 33.0346 252.206 33.0346ZM247.133 31.9945C246.911 31.9945 246.715 32.1661 246.696 32.3774L246.686 32.4911C246.677 32.5908 246.709 32.6832 246.776 32.7522C246.842 32.8211 246.935 32.8585 247.038 32.8585H252.207C252.429 32.8585 252.624 32.6869 252.643 32.4757L252.654 32.3612C252.663 32.2622 252.632 32.1691 252.565 32.1001C252.499 32.0312 252.406 31.9938 252.302 31.9938L247.133 31.9945Z" fill="white"></path></g><path opacity="0.1" d="M251.176 30.1066L242.273 68.3203H247.623L256.437 30.1066H251.176Z" fill="white"></path><path opacity="0.1" d="M247.014 30.1066L238.111 68.3203H240.809L249.622 30.1066H247.014Z" fill="white"></path><path d="M256.012 62.9454H237.627L240.22 34.7031H258.604L256.012 62.9454Z" fill="#407BFF"></path><path opacity="0.7" d="M256.012 62.9454H237.627L240.22 34.7031H258.604L256.012 62.9454Z" fill="white"></path><path d="M256.115 45.2176C256.112 45.2616 256.104 45.3056 256.095 45.3488C256.038 45.6327 255.879 45.8894 255.661 46.0801C255.409 46.3009 255.076 46.4381 254.722 46.4381H241.673C241.012 46.4381 240.512 45.9613 240.5 45.3488C240.499 45.3063 240.5 45.2623 240.504 45.2176C240.535 44.8816 240.707 44.5758 240.958 44.3565C241.21 44.1357 241.542 43.9985 241.896 43.9985H254.946C255.654 43.9985 256.177 44.545 256.115 45.2176Z" fill="#407BFF"></path><path opacity="0.8" d="M256.115 45.2176C256.112 45.2616 256.104 45.3056 256.095 45.3488C256.038 45.6327 255.879 45.8894 255.661 46.0801C255.409 46.3009 255.076 46.4381 254.722 46.4381H241.673C241.012 46.4381 240.512 45.9613 240.5 45.3488C240.499 45.3063 240.5 45.2623 240.504 45.2176C240.535 44.8816 240.707 44.5758 240.958 44.3565C241.21 44.1357 241.542 43.9985 241.896 43.9985H254.946C255.654 43.9985 256.177 44.545 256.115 45.2176Z" fill="white"></path><path d="M240.501 45.3481C240.501 45.3877 240.504 45.4273 240.51 45.4662C240.55 45.1486 240.718 44.8596 240.959 44.6506C241.211 44.4298 241.543 44.2927 241.897 44.2927L255.774 44.3132C255.565 44.1174 255.275 43.9978 254.946 43.9978H241.897C241.543 43.9978 241.211 44.135 240.959 44.3557C240.708 44.575 240.534 44.8809 240.504 45.2168C240.501 45.2616 240.499 45.3056 240.501 45.3481Z" fill="#407BFF"></path><path opacity="0.5" d="M240.501 45.3481C240.501 45.3877 240.504 45.4273 240.51 45.4662C240.55 45.1486 240.718 44.8596 240.959 44.6506C241.211 44.4298 241.543 44.2927 241.897 44.2927L255.774 44.3132C255.565 44.1174 255.275 43.9978 254.946 43.9978H241.897C241.543 43.9978 241.211 44.135 240.959 44.3557C240.708 44.575 240.534 44.8809 240.504 45.2168C240.501 45.2616 240.499 45.3056 240.501 45.3481Z" fill="white"></path><path d="M243.07 44.5868L243.017 45.1758L243.641 44.977L243.725 45.2689L243.102 45.4567L243.431 45.9554L243.139 46.1432L242.824 45.6246L242.409 46.1432L242.142 45.9554L242.569 45.4567L241.975 45.2689L242.113 44.9755L242.694 45.1824L242.749 44.5875L243.07 44.5868Z" fill="#263238"></path><path d="M246.64 44.5868L246.586 45.1758L247.21 44.977L247.294 45.2689L246.67 45.4567L247 45.9554L246.707 46.1432L246.393 45.6246L245.977 46.1432L245.711 45.9554L246.137 45.4567L245.543 45.2689L245.681 44.9755L246.262 45.1824L246.316 44.5875L246.64 44.5868Z" fill="#263238"></path><path d="M250.208 44.5868L250.154 45.1758L250.778 44.977L250.862 45.2689L250.239 45.4567L250.568 45.9554L250.276 46.1432L249.961 45.6246L249.545 46.1432L249.279 45.9554L249.705 45.4567L249.111 45.2689L249.25 44.9755L249.831 45.1824L249.886 44.5875L250.208 44.5868Z" fill="#263238"></path><path d="M253.777 44.5868L253.724 45.1758L254.348 44.977L254.432 45.2689L253.809 45.4567L254.138 45.9554L253.846 46.1432L253.531 45.6246L253.116 46.1432L252.849 45.9554L253.276 45.4567L252.682 45.2689L252.819 44.9755L253.4 45.1824L253.455 44.5875L253.777 44.5868Z" fill="#263238"></path><path d="M245.415 43.4213H244.807V43.5693H245.415V43.4213Z" fill="#407BFF"></path><path d="M244.179 43.4213H242.193V43.5693H244.179V43.4213Z" fill="#407BFF"></path><path d="M261.379 32.5983L258.343 65.7086C258.207 67.1521 256.873 68.319 255.359 68.319H254.344C255.854 68.319 257.193 67.1521 257.325 65.7086L260.361 32.5983C260.493 31.1585 259.376 29.9879 257.861 29.9879H258.88C260.394 29.9879 261.511 31.1585 261.379 32.5983Z" fill="#407BFF"></path><path opacity="0.5" d="M261.379 32.5983L258.343 65.7086C258.207 67.1521 256.873 68.319 255.359 68.319H254.344C255.854 68.319 257.193 67.1521 257.325 65.7086L260.361 32.5983C260.493 31.1585 259.376 29.9879 257.861 29.9879H258.88C260.394 29.9879 261.511 31.1585 261.379 32.5983Z" fill="white"></path><path d="M260.603 38.3737L260.506 39.6488L260.783 39.6679L260.88 38.3928L260.603 38.3737Z" fill="#407BFF"></path><path d="M260.965 33.5443L260.684 37.243L260.961 37.2622L261.242 33.5634L260.965 33.5443Z" fill="#407BFF"></path><path d="M250.821 57.4541H242.935C241.976 57.4541 241.267 56.7133 241.35 55.7994C241.434 54.8855 242.279 54.1447 243.238 54.1447H251.124C252.083 54.1447 252.792 54.8855 252.708 55.7994C252.624 56.7133 251.779 57.4541 250.821 57.4541Z" fill="#407BFF"></path><path opacity="0.4" d="M250.821 57.4541H242.935C241.976 57.4541 241.267 56.7133 241.35 55.7994C241.434 54.8855 242.279 54.1447 243.238 54.1447H251.124C252.083 54.1447 252.792 54.8855 252.708 55.7994C252.624 56.7133 251.779 57.4541 250.821 57.4541Z" fill="black"></path><path d="M234.685 54.5885L241.825 53.4971L242.815 53.5968C243.859 53.7024 244.538 54.6919 244.225 55.6469C243.934 56.5388 243.614 57.4182 243.485 57.4182C243.222 57.4182 236.13 62.9449 236.13 62.9449C236.13 62.9449 234.601 64.2857 234.685 62.5598V54.5885Z" fill="#FF8B7B"></path><path d="M224.769 68.0431L236.651 74.469L230.991 92.6796H211.834L224.769 68.0431Z" fill="#FF8B7B"></path></g><path d="M273.434 78.6681H223.204C219.408 78.6681 216.33 75.735 216.33 72.1168V24.2425C216.33 20.6243 219.408 17.6912 223.204 17.6912H273.434C277.231 17.6912 280.308 20.6243 280.308 24.2425V72.1175C280.308 75.735 277.231 78.6681 273.434 78.6681Z" stroke="#407BFF" stroke-miterlimit="10"></path><path d="M273.434 78.6681H223.204C219.408 78.6681 216.33 75.735 216.33 72.1168V24.2425C216.33 20.6243 219.408 17.6912 223.204 17.6912H273.434C277.231 17.6912 280.308 20.6243 280.308 24.2425V72.1175C280.308 75.735 277.231 78.6681 273.434 78.6681Z" stroke="#407BFF" stroke-miterlimit="10"></path><path d="M256.099 88.6514C256.336 88.6514 256.542 88.6947 256.73 88.7592L257.647 78.7745L256.88 78.7107L255.967 88.6639C256.011 88.6609 256.051 88.6514 256.099 88.6514Z" fill="#407BFF"></path><path d="M256.151 95.086L256.43 92.0399C256.325 92.0568 256.218 92.0707 256.101 92.0707C255.942 92.0707 255.797 92.0517 255.66 92.0216L255.393 94.9276C255.682 94.9313 255.934 94.9885 256.151 95.086Z" fill="#407BFF"></path><path d="M254.334 114.856L255.856 98.2819C255.705 98.3193 255.546 98.3457 255.367 98.3457C255.265 98.3457 255.173 98.331 255.08 98.3185L253.596 114.49C253.895 114.552 254.137 114.684 254.334 114.856Z" fill="#407BFF"></path><path d="M252.441 127.692C252.708 127.692 252.939 127.742 253.144 127.822L254.079 117.635C253.859 117.76 253.596 117.839 253.286 117.855L252.383 127.698C252.404 127.697 252.421 127.692 252.441 127.692Z" fill="#407BFF"></path><path d="M252.442 131.112C252.311 131.112 252.189 131.098 252.073 131.077L248.445 170.6L249.212 170.664L252.846 131.073C252.72 131.099 252.586 131.112 252.442 131.112Z" fill="#407BFF"></path><mask id="mask3_2332_323" style="mask-type:luminance" maskUnits="userSpaceOnUse" x="293" y="50" width="89" height="85"><path d="M374.582 134.718H300.135C296.339 134.718 293.262 131.785 293.262 128.166V57.2114C293.262 53.5932 296.339 50.66 300.135 50.66H374.582C378.378 50.66 381.455 53.5932 381.455 57.2114V128.166C381.455 131.785 378.377 134.718 374.582 134.718Z" fill="white"></path></mask><g mask="url(#mask3_2332_323)"><path d="M295.961 68.3168C295.961 68.3168 296.537 72.4661 304.385 74.797C312.233 77.128 309.526 72.4331 309.526 72.4331C305.871 70.2642 305.947 67.7374 307.122 65.2517C307.407 64.6275 307.733 64.0202 308.097 63.4341L304.474 57.9382L301.816 53.9108C301.385 58.4194 299.907 66.4179 295.961 68.3168Z" fill="#7F3E3B"></path><path d="M319.578 51.5145C319.903 51.5761 320.104 52.0213 320.02 52.4988C319.937 52.9763 319.61 53.3144 319.278 53.2521C318.945 53.189 318.759 52.7467 318.835 52.2678C318.919 51.7896 319.253 51.4522 319.578 51.5145Z" fill="#263238"></path><path d="M318.041 56.3737C318.679 56.7199 319.447 56.7771 320.133 56.5285C319.565 55.2611 319.175 53.9276 318.975 52.5619L318.041 56.3737Z" fill="#630F0F"></path><path d="M303.851 43.5212C306.469 39.9572 311.623 39.0903 315.362 41.5855C320.936 45.0937 320.264 53.9951 318.028 59.0355C317.411 60.501 316.341 61.753 314.961 62.6266C311.198 65.0081 306.121 64.0304 303.622 60.443C301.04 56.8637 301.737 53.3746 302.384 47.4144C302.5 46.0142 303.007 44.6705 303.851 43.5212Z" fill="#7F3E3B"></path><path d="M314.903 50.3769C316.427 51.1169 316.668 53.9489 316.393 55.6747C316.073 57.5795 314.702 58.6643 313.524 57.2106C312.609 55.9989 312.121 54.5408 312.133 53.0474C312.137 51.1265 313.378 49.6368 314.903 50.3769Z" fill="#7F3E3B"></path><path d="M317.859 59.2394C317.524 59.2526 317.195 59.1382 316.946 58.9167C316.646 58.6482 316.503 58.2565 316.562 57.8693L316.576 57.7856L316.956 57.8407L316.943 57.9228C316.902 58.1949 316.999 58.4597 317.21 58.6489C317.421 58.8382 317.704 58.9123 317.989 58.8558L318.069 59.2144C318 59.2291 317.929 59.2372 317.859 59.2394Z" fill="black"></path><path d="M321.653 44.738C321.022 45.7377 320.248 46.689 319.246 47.3286C319.05 47.4694 318.843 47.5809 318.629 47.6865C317.317 48.3202 315.834 48.497 314.692 47.6234C314.991 48.4757 314.901 49.3882 314.598 50.2507C314.203 51.3935 313.446 52.4541 312.715 53.1897C312.93 52.3778 313.001 51.5996 312.758 50.9343C312.604 50.4972 312.307 50.1092 311.824 49.7938C310.791 49.1102 309.342 49.4021 308.723 50.4444C308.203 51.3098 308.376 52.4005 308.66 53.3562C308.953 54.3193 309.347 55.2963 309.233 56.2842C309.111 57.2803 308.257 58.2895 307.213 58.1736C306.927 58.8734 306.289 59.3582 305.561 59.5929C304.674 59.8768 303.648 59.8034 302.902 59.2959C302.746 59.1976 302.613 59.0758 302.485 58.9387C302.07 59.4059 301.472 59.7183 300.841 59.8342C300.371 59.9303 299.882 59.9105 299.423 59.7777C298.345 59.4587 297.519 58.4861 297.41 57.4204C296.064 57.6595 294.597 56.8629 294.127 55.6344C293.656 54.4058 294.235 52.8949 295.422 52.2487C294.107 51.7793 293.181 50.4612 293.226 49.1256C293.272 47.7899 294.29 46.5313 295.631 46.1528C294.363 44.6272 295.451 42.3175 296.836 41.5606C296.962 41.499 297.096 41.4374 297.224 41.4043C297.464 41.3266 297.709 41.2995 297.944 41.3398L298.063 41.3669C298.181 41.3941 298.301 41.444 298.415 41.5085C298.432 41.5144 298.462 41.5048 298.497 41.4726C298.662 41.3347 299.02 40.8352 299.398 40.2968C299.439 40.2345 299.48 40.1795 299.521 40.1178C299.57 40.0548 299.618 39.9924 299.659 39.9301C300.216 39.1497 300.757 38.4448 300.786 38.7807C300.561 36.5466 301.905 34.2464 304.01 33.2482C306.124 32.2492 308.858 32.6137 310.589 34.132C311.457 33.0179 313.013 32.4384 314.441 32.7003C315.868 32.9548 317.098 34.0352 317.484 35.3664C319.671 34.5897 322.209 36.2356 322.904 38.359C323.599 40.4912 322.853 42.8243 321.653 44.738Z" fill="#263238"></path><path d="M288.283 120.1C288.631 125.137 289.939 130.071 292.141 134.662C296.559 143.695 321.29 140.822 332.126 139.963C332.971 92.9115 365.675 236.711 345.522 186.56L355.274 183.677C355.274 183.677 349.224 151.664 348.738 134.156C348.293 118.169 309.578 118.125 309.578 118.125L288.283 120.1Z" fill="#407BFF"></path><path opacity="0.4" d="M288.283 120.1C288.631 125.137 289.939 130.071 292.141 134.662C296.559 143.695 321.29 140.822 332.126 139.963C332.971 92.9269 365.52 236.296 345.366 186.161L355.246 183.028C355.246 183.028 349.225 151.664 348.739 134.156C348.293 118.169 309.578 118.125 309.578 118.125L288.283 120.1Z" fill="black"></path><path d="M300.898 118.813C300.898 118.813 300.19 129.1 303.807 136.482C308.224 145.509 338.244 137.674 350.312 139.964C351.649 157.838 369.283 187.352 369.283 187.352L378.859 182.759C378.859 182.759 372.087 155.519 365.751 131.851C363.631 114.104 321.274 117.198 321.021 117.218L300.898 118.813Z" fill="#407BFF"></path><path opacity="0.4" d="M300.898 118.813C300.898 118.813 300.19 129.1 303.807 136.482C308.224 145.509 338.244 137.674 350.312 139.963C351.649 157.838 369.283 187.352 369.283 187.352L378.859 182.758C378.859 182.758 372.087 155.519 365.751 131.851C363.504 112.908 314.774 117.044 314.521 117.064L300.898 118.813Z" fill="black"></path><path d="M357.779 114.096L312.438 113.1L315.614 85.7603L360.956 86.7563L357.779 114.096Z" fill="#407BFF"></path><path d="M357.104 116.227L312.423 115.246C311.156 115.218 310.241 114.218 310.381 113.012L313.539 85.8431C313.679 84.6373 314.82 83.683 316.088 83.7102L360.769 84.6915C362.036 84.7194 362.951 85.7191 362.811 86.925L359.653 114.094C359.512 115.3 358.371 116.255 357.104 116.227Z" fill="#407BFF"></path><g opacity="0.5"><path d="M357.779 114.096L312.438 113.1L315.614 85.7603L360.956 86.7563L357.779 114.096Z" fill="black"></path><path opacity="0.9" d="M357.779 114.096L312.438 113.1L315.614 85.7603L360.956 86.7563L357.779 114.096Z" fill="black"></path></g><path opacity="0.9" d="M357.678 114.202L312.336 113.207L315.513 85.8666L360.854 86.8626L357.678 114.202Z" fill="white"></path><path d="M355.311 94.5861L346.986 94.4035L347.503 89.9491L355.829 90.1317L355.311 94.5861Z" fill="#407BFF"></path><path d="M354.287 103.372L345.961 103.19L346.479 98.7352L354.804 98.9179L354.287 103.372Z" fill="#407BFF"></path><path d="M353.269 112.158L344.943 111.976L345.461 107.521L353.786 107.704L353.269 112.158Z" fill="#407BFF"></path><path opacity="0.1" d="M351.079 84.4335L341.459 115.81L344.439 115.875L353.96 84.4965L351.079 84.4335Z" fill="white"></path><path opacity="0.1" d="M355.678 84.5347L346.059 115.911L351.968 116.041L361.49 84.6623L355.678 84.5347Z" fill="white"></path><path d="M317.6 107.955L317.57 108.209L341.597 108.737L341.627 108.482L317.6 107.955Z" fill="#407BFF"></path><path d="M341.964 105.575L317.967 105.048L319.798 89.2816L343.796 89.809L341.964 105.575Z" fill="#407BFF"></path><path d="M318.476 111.291C317.797 111.276 317.307 110.74 317.383 110.094C317.458 109.448 318.069 108.937 318.748 108.952C319.427 108.966 319.917 109.503 319.841 110.148C319.767 110.794 319.155 111.305 318.476 111.291Z" fill="#407BFF"></path><path d="M329.739 107.249L317.74 106.986L317.857 105.978L329.856 106.242L329.739 107.249Z" fill="#407BFF"></path><path d="M341.304 111.125L336.668 111.023L336.785 110.015L341.421 110.117L341.304 111.125Z" fill="#407BFF"></path><path d="M341.739 107.513L340.68 107.49L340.797 106.481L341.856 106.505L341.739 107.513Z" fill="#407BFF"></path><path d="M339.943 107.474L338.883 107.45L339 106.443L340.059 106.465L339.943 107.474Z" fill="#407BFF"></path><path d="M338.148 107.434L337.088 107.411L337.206 106.403L338.265 106.426L338.148 107.434Z" fill="#407BFF"></path><path opacity="0.2" d="M329.739 107.249L317.74 106.986L317.857 105.978L329.856 106.242L329.739 107.249Z" fill="white"></path><path opacity="0.2" d="M341.627 108.482L317.6 107.955L317.57 108.209L341.597 108.737L341.627 108.482Z" fill="black"></path><path d="M342.927 115.7L358.003 116.22C358.15 117.901 357.361 118.481 356.402 118.445L351.581 118.266L348.361 118.135L343.355 117.964L320.346 117.417L320.24 115.322L342.927 115.7Z" fill="#407BFF"></path><path opacity="0.4" d="M342.927 115.7L358.003 116.22C358.15 117.901 357.361 118.481 356.402 118.445L351.581 118.266L348.361 118.135L343.355 117.964L320.346 117.417L320.24 115.322L342.927 115.7Z" fill="black"></path><path opacity="0.2" d="M358.002 116.22L358.053 116.806C358.132 117.711 357.36 118.481 356.4 118.445L351.578 118.266L342.623 118.022L342.925 115.7L358.002 116.22Z" fill="black"></path><path d="M294.814 67.5833L309.514 68.7949C309.514 68.7949 307.866 65.2208 302.645 64.8628C297.423 64.5049 294.814 67.5833 294.814 67.5833Z" fill="#407BFF"></path><path d="M285.33 91.859C286.383 102.86 286.621 114.072 288.28 120.079L291.834 120.837C298.057 122.164 304.53 121.983 310.66 120.308L320.996 117.485C320.488 107.051 320.559 86.6711 320.634 76.5397C320.661 72.9347 318.113 69.7727 314.452 68.8647C313.426 68.6102 312.517 68.4012 311.962 68.308C307.58 67.719 303.166 67.3662 298.741 67.2511C296.418 67.1777 294.035 67.2195 292.134 67.3699L291.045 67.4565C289.397 67.587 286.839 69.2622 286.392 70.7695C284.548 76.9725 284.699 85.2555 285.33 91.859Z" fill="#407BFF"></path><path d="M285.33 91.859C286.383 102.86 286.621 114.072 288.28 120.079L291.834 120.837C298.057 122.164 304.53 121.983 310.66 120.308L320.996 117.485C320.488 107.051 320.559 86.6711 320.634 76.5397C320.661 72.9347 318.113 69.7727 314.452 68.8647C313.426 68.6102 312.517 68.4012 311.962 68.308C307.58 67.719 303.166 67.3662 298.741 67.2511C296.418 67.1777 294.035 67.2195 292.134 67.3699L291.045 67.4565C289.397 67.587 286.839 69.2622 286.392 70.7695C284.548 76.9725 284.699 85.2555 285.33 91.859Z" fill="#407BFF"></path><path opacity="0.7" d="M285.33 91.859C286.383 102.86 286.621 114.072 288.28 120.079L291.834 120.837C298.057 122.164 304.53 121.983 310.66 120.308L320.996 117.485C320.488 107.051 320.559 86.6711 320.634 76.5397C320.661 72.9347 318.113 69.7727 314.452 68.8647C313.426 68.6102 312.517 68.4012 311.962 68.308C307.58 67.719 303.166 67.3662 298.741 67.2511C296.418 67.1777 294.035 67.2195 292.134 67.3699L291.045 67.4565C289.397 67.587 286.839 69.2622 286.392 70.7695C284.548 76.9725 284.699 85.2555 285.33 91.859Z" fill="white"></path><path opacity="0.2" d="M304.856 76.0696C304.473 79.8909 303.867 88.1182 306.018 95.0195L310.278 95.0818C313.229 95.15 316.17 94.7246 318.966 93.8246C318.966 93.8246 321.156 83.4431 317.856 77.1932C315.037 71.8543 305.451 70.1189 304.856 76.0696Z" fill="black"></path><path d="M314.733 70.5627C315.275 75.2856 315.889 80.1066 316.582 84.8353C316.929 87.2074 317.297 89.5706 317.721 91.9038C318.145 94.2369 318.599 96.5562 319.171 98.7793C319.457 99.8912 319.756 100.991 320.098 102.004C320.269 102.521 320.452 103.005 320.636 103.457C320.736 103.671 320.831 103.928 320.923 104.093L321.059 104.371C321.074 104.398 321.105 104.476 321.105 104.476C321.063 104.404 321.011 104.338 320.951 104.278C320.791 104.101 320.731 104.137 320.775 104.15C320.88 104.249 320.999 104.335 321.127 104.406C321.519 104.628 321.928 104.819 322.352 104.979C323.408 105.361 324.483 105.692 325.575 105.967C330.21 107.122 335.833 109.345 340.77 110.188L340.599 114.373C335.317 114.778 324.155 113.425 319.976 111.864C319.176 111.663 318.393 111.402 317.636 111.081C317.175 110.876 316.729 110.64 316.301 110.377C315.487 109.885 314.796 109.228 314.28 108.452L314.102 108.154L313.791 107.618C313.57 107.255 313.436 106.946 313.256 106.603C312.94 105.936 312.648 105.29 312.403 104.651C311.91 103.379 311.506 102.133 311.104 100.88C309.703 96.0215 308.602 91.0889 307.806 86.1079C307.403 83.6581 307.058 81.2252 306.726 78.7571C306.723 78.7321 306.719 78.7079 306.716 78.683C306.176 74.6804 309.246 71.0534 313.462 70.6764L314.733 70.5627Z" fill="#7F3E3B"></path><path d="M338.445 113.343C339.015 115.173 345.479 115.158 345.479 115.158L345.231 109.357L339.397 110.05L338.445 113.343Z" fill="#7F3E3B"></path><path d="M345.23 109.357L345.478 115.158L349.368 115.927L348.62 111.827L345.23 109.357Z" fill="#7F3E3B"></path><path d="M305.196 73.8295C304.239 77.4433 305.851 88.1637 308.044 93.133L321.443 91.2494C321.443 91.2494 322.417 76.5991 319.182 72.4829C313.988 65.908 306.617 68.2625 305.196 73.8295Z" fill="#407BFF"></path><path opacity="0.3" d="M305.196 73.8295C304.239 77.4433 305.851 88.1637 308.044 93.133L321.443 91.2494C321.443 91.2494 322.417 76.5991 319.182 72.4829C313.988 65.908 306.617 68.2625 305.196 73.8295Z" fill="white"></path></g><path d="M374.578 134.406H300.132C296.335 134.406 293.258 131.473 293.258 127.855V56.8997C293.258 53.2815 296.335 50.3484 300.132 50.3484H374.578C378.374 50.3484 381.452 53.2815 381.452 56.8997V127.855C381.451 131.473 378.373 134.406 374.578 134.406Z" stroke="#407BFF" stroke-miterlimit="10"></path><path d="M333.348 137.903L337.592 134.694L337.114 134.119L332.625 137.515C332.918 137.586 333.159 137.724 333.348 137.903Z" fill="#407BFF"></path><path d="M313.759 151.784L288.703 170.736L289.182 171.311L314.22 152.372C314.016 152.213 313.865 152.01 313.759 151.784Z" fill="#407BFF"></path><path d="M316.917 150.332L330.605 139.979C330.482 139.735 330.415 139.464 330.411 139.189L316.486 149.721C316.679 149.891 316.824 150.099 316.917 150.332Z" fill="#407BFF"></path><path d="M396.715 155.011H371.945V193.307H396.715V155.011Z" fill="#407BFF"></path><path opacity="0.4" d="M396.715 155.011H371.945V193.307H396.715V155.011Z" fill="black"></path><path d="M381.692 155.011H358.771V193.307H381.692V155.011Z" fill="#407BFF"></path><path opacity="0.7" d="M381.692 155.011H358.771V193.307H381.692V155.011Z" fill="white"></path><path d="M380.363 156.74H360.094V161.569H380.363V156.74Z" fill="#407BFF"></path><path d="M362.265 158.068H361.678V161.103H362.265V158.068Z" fill="white"></path><path d="M364.518 158.068H363.932V161.103H364.518V158.068Z" fill="white"></path><path d="M363.391 158.931H362.805V161.103H363.391V158.931Z" fill="white"></path><path d="M374.279 160.137C374.767 160.137 375.162 159.761 375.162 159.296C375.162 158.831 374.767 158.455 374.279 158.455C373.792 158.455 373.396 158.831 373.396 159.296C373.396 159.761 373.792 160.137 374.279 160.137Z" fill="white"></path><path d="M376.42 160.137C376.907 160.137 377.302 159.761 377.302 159.296C377.302 158.831 376.907 158.455 376.42 158.455C375.932 158.455 375.537 158.831 375.537 159.296C375.537 159.761 375.932 160.137 376.42 160.137Z" fill="white"></path><path d="M378.56 160.137C379.048 160.137 379.443 159.761 379.443 159.296C379.443 158.831 379.048 158.455 378.56 158.455C378.073 158.455 377.678 158.831 377.678 159.296C377.678 159.761 378.073 160.137 378.56 160.137Z" fill="white"></path><path d="M380.363 163.035H360.094V167.864H380.363V163.035Z" fill="#407BFF"></path><path d="M362.265 164.363H361.678V167.397H362.265V164.363Z" fill="white"></path><path d="M364.518 164.363H363.932V167.397H364.518V164.363Z" fill="white"></path><path d="M363.391 165.226H362.805V167.397H363.391V165.226Z" fill="white"></path><path d="M374.279 166.432C374.767 166.432 375.162 166.055 375.162 165.591C375.162 165.126 374.767 164.75 374.279 164.75C373.792 164.75 373.396 165.126 373.396 165.591C373.396 166.055 373.792 166.432 374.279 166.432Z" fill="white"></path><path d="M376.42 166.432C376.907 166.432 377.302 166.055 377.302 165.591C377.302 165.126 376.907 164.75 376.42 164.75C375.932 164.75 375.537 165.126 375.537 165.591C375.537 166.055 375.932 166.432 376.42 166.432Z" fill="white"></path><path d="M378.56 166.432C379.048 166.432 379.443 166.055 379.443 165.591C379.443 165.126 379.048 164.75 378.56 164.75C378.073 164.75 377.678 165.126 377.678 165.591C377.678 166.055 378.073 166.432 378.56 166.432Z" fill="white"></path><path d="M380.363 169.33H360.094V174.159H380.363V169.33Z" fill="#407BFF"></path><path d="M362.265 170.658H361.678V173.693H362.265V170.658Z" fill="white"></path><path d="M364.518 170.658H363.932V173.693H364.518V170.658Z" fill="white"></path><path d="M363.391 171.52H362.805V173.692H363.391V171.52Z" fill="white"></path><path d="M375.162 171.886C375.162 172.351 374.766 172.728 374.279 172.728C373.791 172.728 373.396 172.351 373.396 171.886C373.396 171.421 373.792 171.045 374.279 171.045C374.767 171.044 375.162 171.421 375.162 171.886Z" fill="white"></path><path d="M377.302 171.886C377.302 172.351 376.907 172.728 376.42 172.728C375.932 172.728 375.537 172.351 375.537 171.886C375.537 171.421 375.933 171.045 376.42 171.045C376.907 171.044 377.302 171.421 377.302 171.886Z" fill="white"></path><path d="M379.443 171.886C379.443 172.351 379.048 172.728 378.56 172.728C378.073 172.728 377.678 172.351 377.678 171.886C377.678 171.421 378.073 171.045 378.56 171.045C379.048 171.044 379.443 171.421 379.443 171.886Z" fill="white"></path><path d="M380.363 175.625H360.094V180.454H380.363V175.625Z" fill="#407BFF"></path><path d="M362.265 176.953H361.678V179.987H362.265V176.953Z" fill="white"></path><path d="M364.518 176.953H363.932V179.987H364.518V176.953Z" fill="white"></path><path d="M363.391 177.815H362.805V179.987H363.391V177.815Z" fill="white"></path><path d="M374.279 179.022C374.767 179.022 375.162 178.645 375.162 178.181C375.162 177.716 374.767 177.339 374.279 177.339C373.792 177.339 373.396 177.716 373.396 178.181C373.396 178.645 373.792 179.022 374.279 179.022Z" fill="white"></path><path d="M376.42 179.022C376.907 179.022 377.302 178.645 377.302 178.181C377.302 177.716 376.907 177.339 376.42 177.339C375.932 177.339 375.537 177.716 375.537 178.181C375.537 178.645 375.932 179.022 376.42 179.022Z" fill="white"></path><path d="M378.56 179.022C379.048 179.022 379.443 178.645 379.443 178.181C379.443 177.716 379.048 177.339 378.56 177.339C378.073 177.339 377.678 177.716 377.678 178.181C377.678 178.645 378.073 179.022 378.56 179.022Z" fill="white"></path><path d="M373.158 186.673C373.158 188.112 371.934 189.279 370.424 189.279C368.914 189.279 367.689 188.112 367.689 186.673C367.689 185.234 368.914 184.067 370.424 184.067C371.934 184.068 373.158 185.234 373.158 186.673Z" fill="#263238"></path><path d="M402.854 204.751H352.624C348.827 204.751 345.75 201.817 345.75 198.199V150.324C345.75 146.706 348.827 143.773 352.624 143.773H402.854C406.651 143.773 409.728 146.706 409.728 150.324V198.199C409.728 201.817 406.651 204.751 402.854 204.751Z" stroke="#407BFF" stroke-miterlimit="10"></path><path d="M402.854 204.751H352.624C348.827 204.751 345.75 201.817 345.75 198.199V150.324C345.75 146.706 348.827 143.773 352.624 143.773H402.854C406.651 143.773 409.728 146.706 409.728 150.324V198.199C409.728 201.817 406.651 204.751 402.854 204.751Z" stroke="#407BFF" stroke-miterlimit="10"></path><path d="M309.6 191.154L294.912 197.469L295.226 198.138L309.775 191.882C309.668 191.655 309.607 191.407 309.6 191.154Z" fill="#407BFF"></path><path d="M324.393 185.598L346.022 176.298L345.708 175.629L324.27 184.847C324.363 185.084 324.404 185.341 324.393 185.598Z" fill="#407BFF"></path><path d="M321.073 186.22L312.572 189.875C312.752 190.056 312.883 190.273 312.962 190.511L321.515 186.834C321.318 186.665 321.169 186.455 321.073 186.22Z" fill="#407BFF"></path><path d="M301.432 197.47C301.28 197.47 301.13 197.48 300.979 197.481C300.979 197.477 300.979 197.474 300.979 197.47C300.979 169.21 276.942 146.3 247.291 146.3C222.295 146.3 201.29 162.581 195.311 184.624C172.633 186.032 154.693 203.998 154.693 225.968C154.693 248.856 174.161 267.41 198.175 267.41H301.431C321.695 267.41 338.122 251.753 338.122 232.44C338.123 213.127 321.696 197.47 301.432 197.47Z" fill="#407BFF"></path><path opacity="0.3" d="M301.432 197.47C301.28 197.47 301.13 197.48 300.979 197.481C300.979 197.477 300.979 197.474 300.979 197.47C300.979 169.21 276.942 146.3 247.291 146.3C222.295 146.3 201.29 162.581 195.311 184.624C172.633 186.032 154.693 203.998 154.693 225.968C154.693 248.856 174.161 267.41 198.175 267.41H301.431C321.695 267.41 338.122 251.753 338.122 232.44C338.123 213.127 321.696 197.47 301.432 197.47Z" fill="white"></path><path opacity="0.1" d="M246.406 283.645C297.058 283.645 338.12 282.15 338.12 280.306C338.12 278.462 297.058 276.967 246.406 276.967C195.753 276.967 154.691 278.462 154.691 280.306C154.691 282.15 195.753 283.645 246.406 283.645Z" fill="black"></path><path d="M255.242 233.502C254.531 238.983 244.335 243.335 244.335 243.335C244.335 243.335 234.14 238.983 233.428 233.502L233.215 217.024L244.112 213.605L255.443 217.024L255.242 233.502Z" fill="#F5F5F5"></path><path d="M248.598 224.018V227.571C248.598 227.891 248.325 228.15 247.99 228.15C247.654 228.15 247.382 227.891 247.382 227.571V224.018C247.382 222.871 246.402 221.936 245.198 221.936H243.865C242.661 221.936 241.682 222.87 241.682 224.018V227.715H240.465V224.018C240.465 222.231 241.99 220.778 243.865 220.778H245.198C247.072 220.778 248.598 222.231 248.598 224.018Z" fill="#407BFF"></path><path d="M248.999 227.44V234.362C248.999 234.8 248.627 235.154 248.168 235.154H240.905C240.447 235.154 240.074 234.8 240.074 234.362V227.44C240.074 227.158 240.23 226.909 240.464 226.769C240.592 226.693 240.744 226.648 240.906 226.648H248.168C248.326 226.648 248.472 226.69 248.598 226.762C248.838 226.901 248.999 227.153 248.999 227.44Z" fill="#407BFF"></path><g opacity="0.3"><path d="M248.598 224.018V227.571C248.598 227.891 248.325 228.15 247.99 228.15C247.654 228.15 247.382 227.891 247.382 227.571V224.018C247.382 222.871 246.402 221.936 245.198 221.936H243.865C242.661 221.936 241.682 222.87 241.682 224.018V227.715H240.465V224.018C240.465 222.231 241.99 220.778 243.865 220.778H245.198C247.072 220.778 248.598 222.231 248.598 224.018Z" fill="white"></path><path d="M248.999 227.44V234.362C248.999 234.8 248.627 235.154 248.168 235.154H240.905C240.447 235.154 240.074 234.8 240.074 234.362V227.44C240.074 227.158 240.23 226.909 240.464 226.769C240.592 226.693 240.744 226.648 240.906 226.648H248.168C248.326 226.648 248.472 226.69 248.598 226.762C248.838 226.901 248.999 227.153 248.999 227.44Z" fill="white"></path></g><path opacity="0.2" d="M216.574 192.227C216.574 192.227 211.79 195.571 215.649 204.443C220.852 216.403 262.885 206.129 262.885 206.129C261.419 214.006 263.635 219.923 265.138 227.794L269.095 248.51L264.908 248.955L266.607 254.753H270.681L271.117 259.637C270.124 259.707 269.392 260.552 269.509 261.496L270.433 266.061L271.303 266.997L289.9 264.262L276.887 259.634L272.591 194.7L216.574 192.227Z" fill="black"></path><path opacity="0.2" d="M281.266 200.26H285.149C285.149 200.26 283.989 202.742 285.457 213.743C286.926 224.744 291.785 238.805 291.785 238.805H288.314L289.244 244.86H292.633V250.026C291.744 250.133 291.067 250.84 291.037 251.693L290.917 255.002L293.363 256.49L308.399 255.341L310.246 254.209L301.924 250.482L296.297 193.62L278.07 194.935L281.266 200.26Z" fill="black"></path><path d="M296.387 251.319L302.971 250.635L303.593 235.882L297.002 236.57L296.387 251.319Z" fill="#FF8B7B"></path><path d="M303.638 247.987L296.199 247.918C295.942 247.892 295.709 248.069 295.681 248.315C295.68 248.33 295.678 248.345 295.678 248.36L295.256 253.964C295.251 254.578 295.764 255.082 296.408 255.097C298.994 255.078 300.078 254.957 303.345 254.767C305.355 254.643 310.151 254.337 312.886 253.846C315.621 253.356 315.028 250.792 313.825 250.768C310.973 250.72 306.605 249.824 304.749 248.406C304.437 248.153 304.047 248.006 303.638 247.987Z" fill="#263238"></path><path opacity="0.2" d="M296.998 236.579L303.59 235.882L303.29 242.992L296.707 243.468L296.998 236.579Z" fill="black"></path><path d="M249.975 174.032C249.975 174.032 300.175 171.618 303.509 189.434C306.261 216.43 304.521 239.827 304.521 239.827L295.536 239.133C295.536 239.133 287.943 210.667 288.677 195.469C274.847 194.037 237.19 200.464 231.312 190.652C226.504 182.646 227.395 177.659 227.395 177.659L249.975 174.032Z" fill="#407BFF"></path><path opacity="0.5" d="M249.975 174.032C249.975 174.032 300.175 171.618 303.509 189.434C306.261 216.43 304.521 239.827 304.521 239.827L295.536 239.133C295.536 239.133 287.943 210.667 288.677 195.469C274.847 194.037 237.19 200.464 231.312 190.652C226.504 182.646 227.395 177.659 227.395 177.659L249.975 174.032Z" fill="black"></path><path d="M292.258 241.907L306.377 241.262L307.345 236.212L291.703 236.738L292.258 241.907Z" fill="#407BFF"></path><path d="M307.218 248.788C307.43 248.578 307.508 248.276 307.421 247.995C307.385 247.805 307.25 247.647 307.062 247.575C306.246 247.252 304.372 248.467 304.16 248.604C304.125 248.625 304.101 248.658 304.092 248.695C304.073 248.773 304.125 248.851 304.206 248.868C304.782 249.014 305.373 249.096 305.969 249.112C306.413 249.154 306.857 249.039 307.218 248.788ZM306.959 247.841C307.05 247.879 307.111 247.964 307.114 248.058C307.182 248.238 307.138 248.439 307.001 248.578C306.689 248.868 305.817 248.9 304.636 248.662C305.405 248.203 306.513 247.684 306.959 247.841Z" fill="#407BFF"></path><path d="M304.344 248.836C305.005 248.462 306.01 247.166 305.862 246.465C305.806 246.217 305.58 246.035 305.313 246.024C305.062 245.986 304.808 246.065 304.629 246.237C303.96 246.846 304.086 248.661 304.09 248.738C304.094 248.789 304.127 248.835 304.176 248.857C304.198 248.867 304.222 248.873 304.247 248.875L304.344 248.836ZM305.225 246.312C305.454 246.339 305.502 246.443 305.521 246.527C305.619 246.981 304.955 247.97 304.37 248.428C304.36 247.829 304.424 246.792 304.824 246.429C304.915 246.345 305.037 246.3 305.162 246.305C305.199 246.321 305.222 246.33 305.225 246.312Z" fill="#407BFF"></path><path d="M276.588 259.751L282.991 259.586L282.486 244.782L276.082 244.948L276.588 259.751Z" fill="#FF8B7B"></path><path d="M283.092 257.761L275.674 258.222C275.413 258.227 275.204 258.433 275.207 258.682L275.23 264.299C275.269 264.914 275.823 265.384 276.469 265.349C279.042 265.112 280.273 264.924 283.534 264.696C285.542 264.57 289.506 264.489 292.217 263.894C294.927 263.299 294.246 260.775 293.046 260.786C290.197 260.831 286.216 259.319 284.253 258.039C283.908 257.827 283.5 257.729 283.092 257.761Z" fill="#263238"></path><path d="M286.733 258.299C286.927 258.072 286.978 257.764 286.866 257.492C286.817 257.306 286.671 257.157 286.479 257.098C285.653 256.83 283.868 258.186 283.668 258.337C283.636 258.36 283.615 258.393 283.609 258.43C283.596 258.509 283.652 258.583 283.736 258.595C284.321 258.695 284.917 258.733 285.511 258.709C285.958 258.725 286.394 258.578 286.733 258.299ZM286.39 257.384C286.484 257.412 286.555 257.486 286.576 257.578C286.65 257.756 286.621 257.957 286.498 258.108C286.238 258.417 285.345 258.506 284.149 258.358C284.881 257.841 285.945 257.247 286.39 257.384Z" fill="#407BFF"></path><path d="M283.884 258.588C284.516 258.172 285.407 256.766 285.21 256.123C285.137 255.873 284.892 255.703 284.619 255.714C284.367 255.685 284.116 255.777 283.95 255.962C283.322 256.615 283.602 258.416 283.611 258.495C283.617 258.544 283.65 258.587 283.698 258.606C283.721 258.609 283.745 258.607 283.768 258.599C283.807 258.608 283.848 258.603 283.884 258.588ZM284.57 255.977C284.793 255.989 284.866 256.088 284.875 256.173C285.01 256.617 284.421 257.651 283.875 258.152C283.823 257.569 283.801 256.531 284.177 256.139C284.256 256.049 284.372 255.995 284.496 255.99L284.57 255.977Z" fill="#407BFF"></path><path opacity="0.2" d="M275.508 244.808L282.665 243.658L282.731 252.907L276.461 253.61L275.508 244.808Z" fill="black"></path><path d="M234.038 176.591C234.038 176.591 283.608 180.065 284.283 193.792C287.96 216.22 285.237 245.741 285.237 245.741L273.368 248.109C273.368 248.109 267.238 220.486 266.336 200.168C254.204 202.118 229.247 205.728 220.686 199.952C212.92 193.308 215.062 179.673 215.062 179.673L234.038 176.591Z" fill="#407BFF"></path><path opacity="0.4" d="M234.038 176.591C234.038 176.591 283.608 180.065 284.283 193.792C287.96 216.22 285.237 245.741 285.237 245.741L273.368 248.109C273.368 248.109 267.238 220.486 266.336 200.168C254.204 202.118 229.247 205.728 220.686 199.952C212.92 193.308 215.062 179.673 215.062 179.673L234.038 176.591Z" fill="black"></path><path d="M272.219 251.834L286.727 250.657L287.027 244.609L271.123 246.195L272.219 251.834Z" fill="#407BFF"></path><path d="M237.469 135.516C237.75 136.592 238.007 137.527 238.313 138.507C238.619 139.486 238.923 140.413 239.266 141.399C239.931 143.297 240.686 145.18 241.515 147.098C243.173 151.069 245.388 154.808 248.1 158.212C248.898 159.163 249.779 160.046 250.734 160.855C251.803 161.769 253.009 162.526 254.313 163.1C256.814 164.162 259.564 164.582 262.288 164.317C264.673 164.086 267.003 163.486 269.186 162.541C270.218 162.105 271.221 161.609 272.19 161.056C272.675 160.785 273.142 160.496 273.595 160.162C274.047 159.829 274.474 159.547 274.995 159.163L272.434 155.105L271.16 155.47L269.82 155.819C268.92 156.038 268.028 156.228 267.114 156.375C265.463 156.667 263.779 156.752 262.105 156.625C260.766 156.538 259.47 156.138 258.331 155.461C257.84 155.15 257.386 154.788 256.977 154.383C256.47 153.857 256.001 153.298 255.574 152.711C254.59 151.337 253.726 149.886 252.992 148.376C252.183 146.816 251.463 145.161 250.778 143.468C250.093 141.774 249.473 140.05 248.85 138.313L247.972 135.689C247.692 134.825 247.388 133.898 247.164 133.146L237.469 135.516Z" fill="#FF8B7B"></path><path d="M236.491 130.228C240.482 125.05 246.872 126.703 250.698 134.626C252.817 138.843 254.532 143.234 255.823 147.745L241.173 153.172C237.012 145.697 232.383 135.538 236.491 130.228Z" fill="#407BFF"></path><path opacity="0.1" d="M236.491 130.228C240.482 125.05 246.872 126.703 250.698 134.626C252.817 138.843 254.532 143.234 255.823 147.745L241.173 153.172C237.012 145.697 232.383 135.538 236.491 130.228Z" fill="black"></path><path opacity="0.3" d="M242.976 138.473C241.727 137.718 239.386 142.39 238.416 147.844C239.293 149.707 240.231 151.487 241.163 153.147L249.977 149.881C248.338 144.853 245.779 140.173 242.976 138.473Z" fill="black"></path><path d="M273.118 152.99L276.307 151.202L277.676 158.07C277.676 158.07 272.368 161.348 270.723 158.826L270.827 157.038C270.955 155.441 271.788 153.97 273.118 152.99Z" fill="#FF8B7B"></path><path d="M280.358 150.737L283.391 156.196L277.646 158.074L276.277 151.206L280.358 150.737Z" fill="#FF8B7B"></path><path d="M236.276 125.714L228.652 124.934L219.228 126.021C216.285 126.356 213.941 128.528 213.507 131.322C212.647 136.805 212.342 144.55 212.281 151.22C212.203 158.708 213.454 169.737 215.064 179.673L249.98 174.062C247.118 153.244 247.714 140.569 247.73 133.606C247.746 130.799 245.794 128.328 242.961 127.565L236.276 125.714Z" fill="#407BFF"></path><path opacity="0.3" d="M216.491 128.75C222.755 127.498 222.909 141.138 220.387 151.202C219.658 154.114 216.032 153.019 214.793 152.304C210.737 149.965 208.82 133.349 216.491 128.75Z" fill="black"></path><path d="M217.678 147.064C216.494 152.862 213.841 155.44 216.577 158.074C219.314 160.707 236.822 170.952 237.468 170.301C236.207 171.481 235.027 172.468 233.766 173.648C228.494 171.646 223.198 169.7 217.879 167.81C214 166.432 207.793 164.009 205.251 160.894C202.951 158.074 205.01 152.075 207.192 145.276C210.099 144.427 217.678 147.064 217.678 147.064Z" fill="#FF8B7B"></path><path d="M213.965 126.421C220.38 124.409 223 129.274 221.321 137.814C220.489 142.421 219.22 146.947 217.531 151.336L203.855 147.686C205.031 139.314 207.405 128.484 213.965 126.421Z" fill="#407BFF"></path><path d="M234.143 135.815L234.396 165.576L239.164 169.459L242.027 165.107L236.064 135.815H234.143Z" fill="#263238"></path><path d="M234.157 135.815H236.062L236.969 134.214L235.733 133.56L234.394 133.444L232.975 134.208L234.157 135.815Z" fill="#263238"></path><path d="M223.348 126.089C223.16 127.379 223.666 128.692 224.452 129.758C225.237 130.824 226.287 131.683 227.325 132.531C228.644 133.608 230.211 134.756 231.924 134.486C233.507 134.236 234.393 133.444 234.971 131.621C236.407 133.668 236.507 134.708 238.007 134.793C238.979 134.848 239.801 134.146 240.458 133.46C241.619 132.248 242.132 131.556 242.295 129.923C242.561 127.265 240.221 124.88 237.565 124.032C234.714 123.122 232.202 122.962 229.265 122.732C226.811 122.539 223.746 123.363 223.348 126.089Z" fill="#263238"></path><path d="M229.531 113.176L233.088 116.839L237.923 121.828C237.512 122.387 237.209 123.013 237.031 123.675C236.588 125.135 236.784 126.561 238.458 127.569C239.182 127.863 239.663 131.392 234.973 131.17C231.779 131.102 229.727 130.111 227.801 128.324C226.904 127.253 226.661 126.67 227.503 125.446C229.918 121.985 229.945 117.071 229.531 113.176Z" fill="#FF8B7B"></path><path opacity="0.2" d="M236.758 120.592L233.694 116.976C233.662 117.089 233.627 117.207 233.588 117.334C233.466 117.862 233.387 118.396 233.353 118.936C233.237 120.778 235.13 123.079 236.932 124.032L237.055 123.658C237.24 123.037 237.511 122.443 237.864 121.891C237.887 121.861 237.915 121.833 237.948 121.811L236.758 120.592Z" fill="black"></path><path d="M241.008 112.048C243.842 106.786 243.234 103.806 245.959 101C247.424 100.38 249.985 102.953 248.282 107.333C246.579 111.713 241.008 112.048 241.008 112.048Z" fill="#263238"></path><path d="M229.609 106.222C229.287 112.326 228.823 115.881 231.682 119.249C236.005 124.347 244.184 122.244 246.388 116.319C248.375 110.989 248.514 101.907 242.546 98.9581C238.171 96.8281 232.813 98.4813 230.578 102.651C229.984 103.76 229.653 104.978 229.609 106.222Z" fill="#FF8B7B"></path><path d="M228.859 111.64L232.329 113.604L232.767 108.258L235.608 106.71L239.067 101.759C239.067 101.759 231.554 99.6688 229.314 99.3864C228.53 99.2874 225.782 101.323 225.376 102.179C224.226 104.598 224.828 107.412 226.59 109.471C227.267 110.262 228.026 110.988 228.859 111.64Z" fill="#263238"></path><path d="M226.478 110.614C226.657 111.969 227.351 113.214 228.429 114.114C229.836 115.258 231.455 113.908 231.591 112.177C231.702 110.629 230.81 108.401 229.144 107.933C227.477 107.466 226.263 108.924 226.478 110.614Z" fill="#FF8B7B"></path><path d="M239.314 109.573C239.234 110.073 239.442 110.534 239.789 110.592C240.136 110.65 240.438 110.301 240.553 109.802C240.668 109.302 240.425 108.84 240.077 108.776C239.73 108.711 239.392 109.066 239.314 109.573Z" fill="#263238"></path><path d="M245.249 110.623C245.164 111.131 245.379 111.591 245.725 111.649C246.071 111.707 246.408 111.352 246.489 110.859C246.57 110.364 246.354 109.898 246.014 109.839C245.675 109.78 245.328 110.123 245.249 110.623Z" fill="#263238"></path><path d="M243.284 110.658C243.513 112.083 243.938 113.473 244.548 114.791C243.608 115.303 242.357 114.655 242.357 114.655L243.284 110.658Z" fill="#FF5652"></path><path d="M241.422 117.524C240.184 117.345 239.077 116.69 238.361 115.711C238.314 115.641 238.335 115.548 238.408 115.503C238.484 115.463 238.579 115.485 238.627 115.554C239.424 116.609 240.69 117.25 242.053 117.289C242.141 117.285 242.215 117.351 242.218 117.434C242.221 117.518 242.152 117.588 242.065 117.591C242.058 117.591 242.05 117.591 242.043 117.59C241.835 117.582 241.628 117.56 241.422 117.524Z" fill="#263238"></path><path d="M238.438 107.589C238.387 107.575 238.34 107.548 238.305 107.51C238.19 107.386 238.2 107.197 238.328 107.086C239.054 106.427 240.076 106.158 241.054 106.367C241.22 106.408 241.32 106.569 241.277 106.728C241.276 106.731 241.275 106.735 241.274 106.739C241.223 106.897 241.049 106.987 240.882 106.942C240.114 106.792 239.318 107.01 238.75 107.525C238.667 107.603 238.546 107.627 238.438 107.589Z" fill="#263238"></path><path d="M245.809 107.367C245.787 107.32 245.778 107.269 245.782 107.218C245.825 107.057 245.995 106.958 246.163 106.996C247.145 107.188 247.961 107.838 248.333 108.725C248.39 108.88 248.303 109.049 248.141 109.103C247.978 109.157 247.801 109.075 247.744 108.92C247.437 108.23 246.792 107.729 246.021 107.58C245.916 107.548 245.836 107.468 245.809 107.367Z" fill="#263238"></path><path d="M248.018 179.498L288.139 174.456C288.554 174.404 288.848 174.038 288.793 173.643C288.739 173.247 288.355 172.967 287.94 173.019L247.819 178.061C247.404 178.113 247.11 178.479 247.165 178.875C247.219 179.27 247.603 179.55 248.018 179.498Z" fill="#407BFF"></path><path opacity="0.5" d="M248.018 179.498L288.139 174.456C288.554 174.404 288.848 174.038 288.793 173.643C288.739 173.247 288.355 172.967 287.94 173.019L247.819 178.061C247.404 178.113 247.11 178.479 247.165 178.875C247.219 179.27 247.603 179.55 248.018 179.498Z" fill="black"></path><path d="M228.244 179.301L247.711 179.509C248.129 179.513 248.475 179.191 248.48 178.792C248.484 178.394 248.146 178.065 247.728 178.06L228.26 177.851C227.842 177.846 227.496 178.169 227.492 178.567C227.488 178.967 227.825 179.296 228.244 179.301Z" fill="#407BFF"></path><path opacity="0.5" d="M228.244 179.301L247.711 179.509C248.129 179.513 248.475 179.191 248.48 178.792C248.484 178.394 248.146 178.065 247.728 178.06L228.26 177.851C227.842 177.846 227.496 178.169 227.492 178.567C227.488 178.967 227.825 179.296 228.244 179.301Z" fill="white"></path><path d="M248.927 178.654L227.495 178.521C227.495 178.521 226.773 178.117 228.214 177.851C229.655 177.586 248.256 175.223 248.256 175.223L248.927 178.654Z" fill="#407BFF"></path><path d="M248.927 178.654L228.003 178.457C228.003 178.457 227.281 178.052 228.722 177.788C230.162 177.522 248.256 175.224 248.256 175.224L248.927 178.654Z" fill="#407BFF"></path><path opacity="0.2" d="M248.927 178.654L228.003 178.457C228.003 178.457 227.281 178.052 228.722 177.788C230.162 177.522 248.256 175.224 248.256 175.224L248.927 178.654Z" fill="white"></path><path d="M248.914 177.924L286.325 173.222C287.645 173.057 288.677 171.879 288.619 170.607L287.779 152.343C287.72 151.071 286.592 150.165 285.272 150.331L247.861 155.032C246.54 155.197 245.508 156.375 245.567 157.647L246.407 175.91C246.465 177.184 247.593 178.09 248.914 177.924Z" fill="#407BFF"></path><path opacity="0.4" d="M248.914 177.924L286.325 173.222C287.645 173.057 288.677 171.879 288.619 170.607L287.779 152.343C287.72 151.071 286.592 150.165 285.272 150.331L247.861 155.032C246.54 155.197 245.508 156.375 245.567 157.647L246.407 175.91C246.465 177.184 247.593 178.09 248.914 177.924Z" fill="black"></path><path d="M250 177.708L287.411 173.007C288.731 172.841 289.763 171.664 289.705 170.391L288.865 152.128C288.806 150.855 287.678 149.949 286.358 150.115L248.947 154.817C247.626 154.982 246.594 156.16 246.653 157.432L247.493 175.696C247.551 176.968 248.679 177.874 250 177.708Z" fill="#407BFF"></path><path opacity="0.7" d="M250 177.708L287.411 173.007C288.731 172.841 289.763 171.664 289.705 170.391L288.865 152.128C288.806 150.855 287.678 149.949 286.358 150.115L248.947 154.817C247.626 154.982 246.594 156.16 246.653 157.432L247.493 175.696C247.551 176.968 248.679 177.874 250 177.708Z" fill="white"></path><path d="M271.771 165.012C271.643 166.75 270.062 168.159 268.238 168.159C266.414 168.159 265.039 166.75 265.166 165.012C265.294 163.274 266.876 161.865 268.699 161.865C270.523 161.865 271.899 163.274 271.771 165.012Z" fill="#407BFF"></path><path d="M239.688 169.988L242.882 170.37L239.601 176.91C239.601 176.91 232.822 175.754 233.662 172.894L235.116 171.765C236.359 170.784 237.965 169.717 239.688 169.988Z" fill="#FF8B7B"></path><path d="M246.287 173.965L243.753 177.352L239.602 176.903L242.883 170.37L246.287 173.965Z" fill="#FF8B7B"></path><path d="M225.041 101.608C224.472 100.602 223.896 99.5756 223.67 98.4534C223.444 97.3312 223.617 96.0769 224.409 95.2188C225.192 94.3701 226.413 94.0511 227.563 93.7738C231.485 92.8254 235.407 91.8763 239.33 90.928C240.951 90.5356 242.676 90.1454 244.27 90.628C247.071 91.4766 248.825 92.6289 249.654 95.317C250.2 97.0884 250.116 101.142 248.822 102.516C247.835 103.563 246.198 103.723 244.722 103.777C238.262 104.015 231.776 103.599 225.407 102.54L225.041 101.608Z" fill="#407BFF"></path><path d="M231.92 103.312C231.871 103.699 231.97 102.924 231.92 103.312C233.776 100.909 237.905 98.8912 239.747 98.6528C242.769 98.2619 245.969 98.9536 248.396 100.712C250.824 102.471 252.401 105.316 252.355 108.222C252.345 108.908 252.068 109.772 251.35 109.829C250.699 109.882 250.361 108.555 249.972 108.054C248.672 106.379 245.979 106.445 244.015 107.359C242.986 107.838 241.964 108.701 240.86 108.409C240.109 108.211 231.92 103.312 231.92 103.312Z" fill="#263238"></path><path d="M222.428 139.457H232.214V141.904L228.143 143.924L222.705 142.387L222.428 139.457Z" fill="#263238"></path><path d="M239.652 139.457H247.914V141.904L244.477 143.924L239.886 142.387L239.652 139.457Z" fill="#263238"></path><path d="M273.433 120.214C273.01 120.617 272.54 120.823 272.063 120.889C270.97 121.035 269.816 120.456 268.962 119.774C268.9 119.957 268.823 120.148 268.731 120.331L266.73 118.534L264.729 116.737C264.922 116.635 265.106 116.554 265.299 116.481C264.252 115.432 263.383 113.84 264.414 112.491C264.468 112.425 264.529 112.351 264.591 112.285C264.652 112.219 264.729 112.197 264.799 112.212C264.96 112.227 265.091 112.425 264.937 112.593C263.775 113.833 264.86 115.417 265.861 116.334C266.484 116.209 267.1 116.239 267.63 116.451C267.63 116.444 267.63 116.437 267.638 116.429C268.354 115.512 268.539 114.5 267.677 113.723C267.353 113.429 266.938 113.187 266.515 113.048C266.438 113.026 266.468 112.909 266.545 112.938C267.1 113.114 267.638 113.444 268 113.877C268.685 114.691 268.377 115.659 267.731 116.495C267.761 116.51 267.792 116.517 267.823 116.532C267.946 116.319 268.177 116.165 268.446 116.151L268.439 116.825L269.147 116.781C269.139 117.031 268.993 117.258 268.777 117.39C268.793 117.412 268.808 117.442 268.823 117.471C269.662 116.818 270.67 116.473 271.571 117.075C272.04 117.397 272.417 117.889 272.64 118.402C272.671 118.476 272.548 118.505 272.517 118.439C272.348 118.043 272.071 117.669 271.748 117.375C270.886 116.605 269.824 116.833 268.893 117.559C268.893 117.566 268.885 117.566 268.877 117.566C269.123 118.058 269.193 118.637 269.1 119.238C269.962 120.001 271.347 120.793 272.509 120.287C272.71 120.199 272.902 120.075 273.087 119.906C273.318 119.686 273.664 120.001 273.433 120.214Z" fill="#263238"></path><path d="M266.726 118.534L264.22 116.285C263.994 116.404 263.772 116.542 263.556 116.695C261.96 116.565 260.055 116.924 259.563 118.606C259.477 118.901 259.952 118.992 260.038 118.696C260.404 117.441 261.764 117.11 263.012 117.133C262.939 117.199 262.865 117.263 262.795 117.334C260.988 119.142 260.733 121.693 262.226 123.032C263.719 124.371 266.395 123.993 268.201 122.186C268.293 122.094 268.378 122 268.462 121.905C268.583 123.117 268.338 124.503 266.987 124.932C266.681 125.03 266.802 125.474 267.108 125.377C268.911 124.803 269.146 122.883 268.886 121.355C269.013 121.167 269.132 120.976 269.231 120.782L266.726 118.534Z" fill="#263238"></path><path d="M278.69 130.76H275.289L275.825 127.519H279.225L278.69 130.76Z" fill="#263238"></path><path d="M282.701 130.321C282.643 130.674 282.454 130.994 282.186 131.235C281.876 131.523 281.457 131.703 281.024 131.703H272.497C272.182 131.703 271.906 131.608 271.698 131.443C271.37 131.195 271.2 130.785 271.276 130.321C271.276 130.321 275.281 129.14 275.765 129.14C276.245 129.14 278.792 129.14 278.792 129.14L282.701 130.321Z" fill="#263238"></path><path d="M283.629 122.825L283.606 122.964C283.537 123.39 283.137 123.713 282.691 123.713H273.656C273.41 123.713 273.202 123.617 273.056 123.463C272.902 123.302 272.825 123.074 272.863 122.825H275.226C276.011 121.439 277.381 120.478 278.781 120.478C280.19 120.478 281.244 121.439 281.567 122.825H283.629Z" fill="#263238"></path><path d="M274.826 123.714C274.733 123.971 274.664 124.249 274.618 124.528C274.372 126.01 274.841 127.301 275.749 128.005C276.211 128.372 276.788 128.577 277.442 128.577C278.019 128.577 278.596 128.416 279.127 128.115C280.359 127.447 281.344 126.09 281.605 124.528C281.652 124.249 281.675 123.971 281.675 123.714H274.826ZM279.558 125.115L277.996 124.433L276.442 125.115L275.58 124.051L277.996 124.411L280.413 124.051L279.558 125.115Z" fill="#263238"></path><path d="M264.595 112.288C264.533 112.354 264.472 112.427 264.418 112.494C264.541 112.398 264.672 112.303 264.803 112.215C264.733 112.2 264.657 112.222 264.595 112.288Z" fill="#407BFF"></path><path d="M273.498 107.198C264.525 107.198 256.714 114.159 256.083 122.711C255.598 129.371 259.607 135.062 265.641 137.255C265.671 137.27 265.702 137.277 265.733 137.292C266.656 137.615 267.618 137.872 268.619 138.026H268.626C268.934 138.077 269.242 138.114 269.558 138.143C270.104 138.194 270.658 138.224 271.22 138.224C280.193 138.224 288.004 131.263 288.635 122.711C289.258 114.159 282.471 107.198 273.498 107.198ZM258.545 122.711C258.845 118.589 261.116 114.907 264.417 112.494C264.471 112.428 264.532 112.354 264.594 112.288C264.655 112.222 264.732 112.2 264.802 112.215C267.241 110.535 270.196 109.545 273.321 109.545C275.576 109.545 277.669 110.066 279.485 110.983L272.513 120.29C272.713 120.202 272.905 120.078 273.09 119.909C273.321 119.689 273.667 120.004 273.436 120.217C273.013 120.62 272.543 120.826 272.066 120.892L262.993 133.001C260 130.581 258.237 126.87 258.545 122.711ZM286.172 122.711C285.641 129.972 279.008 135.877 271.389 135.877C269.019 135.877 266.833 135.304 264.956 134.292L273.059 123.466C272.905 123.305 272.828 123.077 272.867 122.828H273.536L281.478 112.229C284.618 114.643 286.488 118.442 286.172 122.711Z" fill="#407BFF"></path><path d="M264.595 112.288C264.533 112.354 264.472 112.427 264.418 112.494C264.541 112.398 264.672 112.303 264.803 112.215C264.733 112.2 264.657 112.222 264.595 112.288Z" fill="#407BFF"></path><path opacity="0.3" d="M273.498 107.198C264.525 107.198 256.714 114.159 256.083 122.711C255.598 129.371 259.607 135.062 265.641 137.255C265.671 137.27 265.702 137.277 265.733 137.292C266.656 137.615 267.618 137.872 268.619 138.026H268.626C268.934 138.077 269.242 138.114 269.558 138.143C270.104 138.194 270.658 138.224 271.22 138.224C280.193 138.224 288.004 131.263 288.635 122.711C289.258 114.159 282.471 107.198 273.498 107.198ZM258.545 122.711C258.845 118.589 261.116 114.907 264.417 112.494C264.471 112.428 264.532 112.354 264.594 112.288C264.655 112.222 264.732 112.2 264.802 112.215C267.241 110.535 270.196 109.545 273.321 109.545C275.576 109.545 277.669 110.066 279.485 110.983L272.513 120.29C272.713 120.202 272.905 120.078 273.09 119.909C273.321 119.689 273.667 120.004 273.436 120.217C273.013 120.62 272.543 120.826 272.066 120.892L262.993 133.001C260 130.581 258.237 126.87 258.545 122.711ZM286.172 122.711C285.641 129.972 279.008 135.877 271.389 135.877C269.019 135.877 266.833 135.304 264.956 134.292L273.059 123.466C272.905 123.305 272.828 123.077 272.867 122.828H273.536L281.478 112.229C284.618 114.643 286.488 118.442 286.172 122.711Z" fill="white"></path><path d="M269.846 136.388L265.137 142.66L265.929 135.501C267.161 135.948 268.469 136.256 269.846 136.388Z" fill="#407BFF"></path><path opacity="0.3" d="M269.846 136.388L265.137 142.66L265.929 135.501C267.161 135.948 268.469 136.256 269.846 136.388Z" fill="white"></path><path d="M278.805 124.419L278.767 124.434L278.729 124.419L278.767 124.411L278.805 124.419Z" fill="#F0F0F0"></path></svg>