<svg xmlns="http://www.w3.org/2000/svg" width="500" height="300" viewBox="0 0 500 300" fill="none"><rect width="500" height="300" rx="24" fill="white"></rect><path d="M205.029 113.288C202.631 116.516 201.018 120.063 200.16 123.722L193.571 124.27L193.57 135.554L200.16 136.102C201.018 139.76 202.632 143.307 205.03 146.536L200.821 151.031L209.844 159.009L214.927 155.288C218.579 157.408 222.59 158.835 226.726 159.593L227.346 165.42L240.107 165.42L240.728 159.594C244.864 158.835 248.876 157.408 252.528 155.289L257.611 159.01L266.634 151.031L262.426 146.536C264.823 143.307 266.436 139.76 267.295 136.103L273.883 135.554L273.884 124.271L267.295 123.722C266.436 120.064 264.823 116.518 262.425 113.289L266.634 108.794L257.61 100.816L252.527 104.537C248.875 102.417 244.864 100.99 240.728 100.231L240.107 94.4042L227.347 94.4046L226.727 100.231C222.59 100.99 218.579 102.416 214.928 104.536L209.844 100.815L200.821 108.793L205.029 113.288ZM245.942 119.111C252.687 125.076 252.688 134.747 245.942 140.712C239.196 146.678 228.257 146.677 221.512 140.713C214.766 134.748 214.766 125.076 221.512 119.111C228.258 113.147 239.196 113.146 245.942 119.111Z" fill="#E0E0E0"></path><path d="M146.821 93.5611C145.471 95.3781 144.563 97.3741 144.08 99.4329L140.372 99.7418L140.371 106.092L144.08 106.401C144.563 108.459 145.471 110.455 146.821 112.273L144.452 114.803L149.53 119.293L152.391 117.199C154.446 118.392 156.704 119.195 159.031 119.622L159.38 122.901L166.562 122.901L166.911 119.622C169.24 119.195 171.497 118.392 173.552 117.199L176.413 119.293L181.491 114.802L179.123 112.273C180.472 110.455 181.38 108.459 181.863 106.401L185.572 106.092L185.572 99.7418L181.864 99.4329C181.38 97.3745 180.472 95.3786 179.123 93.5616L181.491 91.032L176.413 86.5417L173.552 88.6357C171.497 87.4423 169.24 86.6393 166.912 86.2123L166.562 82.9329L159.381 82.9334L159.032 86.2127C156.704 86.6402 154.447 87.4423 152.391 88.6357L149.53 86.5412L144.452 91.0315L146.821 93.5611ZM169.847 96.8381C173.643 100.195 173.643 105.638 169.847 108.996C166.05 112.353 159.894 112.353 156.097 108.996C152.3 105.638 152.301 100.195 156.097 96.8381C159.894 93.4816 166.05 93.4811 169.847 96.8381Z" fill="#E0E0E0"></path><path d="M166.196 65.9641C165.521 66.8724 165.068 67.8701 164.826 68.8988L162.973 69.053V72.2267L164.826 72.3809C165.068 73.4096 165.521 74.4074 166.196 75.3156L165.012 76.5799L167.55 78.8239L168.98 77.7771C170.007 78.3736 171.136 78.7749 172.299 78.9881L172.473 80.6271H176.063L176.237 78.9886C177.4 78.7749 178.529 78.3736 179.556 77.7776L180.986 78.8244L183.524 76.5804L182.34 75.3161C183.015 74.4078 183.468 73.4101 183.71 72.3814L185.563 72.2272L185.563 69.0535L183.71 68.8988C183.468 67.8701 183.014 66.8724 182.34 65.9641L183.524 64.6998L180.986 62.4558L179.557 63.5026C178.529 62.9061 177.401 62.5048 176.238 62.2911L176.063 60.6522H172.474L172.3 62.2911C171.136 62.5048 170.008 62.9057 168.981 63.5021L167.551 62.4553L165.012 64.6998L166.196 65.9641ZM177.704 67.6021C179.601 69.2801 179.602 72.0006 177.704 73.6781C175.806 75.3561 172.73 75.3561 170.833 73.6781C168.935 72.0001 168.935 69.2801 170.833 67.6021C172.73 65.9241 175.806 65.9241 177.704 67.6021Z" fill="#E0E0E0"></path><path d="M137.134 159.315L113.971 163.345C112.947 163.523 111.953 162.933 111.751 162.027L105.688 134.78C105.487 133.874 106.154 132.995 107.178 132.817L130.341 128.787C131.365 128.609 132.359 129.199 132.561 130.105L138.624 157.353C138.825 158.258 138.158 159.137 137.134 159.315Z" fill="#E6E6E6"></path><path d="M128.221 138.169L113.168 140.787C112.65 140.877 112.148 140.579 112.046 140.121L111.963 139.752C111.862 139.294 112.199 138.85 112.717 138.76L127.77 136.141C128.288 136.051 128.79 136.349 128.892 136.807L128.974 137.177C129.075 137.635 128.738 138.079 128.221 138.169Z" fill="#F0F0F0"></path><path d="M129.373 143.355L114.32 145.974C113.802 146.064 113.3 145.766 113.198 145.308L113.116 144.938C113.014 144.48 113.351 144.037 113.869 143.946L128.922 141.327C129.44 141.237 129.942 141.535 130.044 141.993L130.127 142.363C130.228 142.821 129.891 143.265 129.373 143.355Z" fill="#F0F0F0"></path><path d="M130.53 148.541L115.476 151.16C114.958 151.25 114.456 150.952 114.354 150.495L114.272 150.125C114.17 149.667 114.507 149.223 115.025 149.133L130.079 146.514C130.596 146.424 131.099 146.722 131.2 147.179L131.283 147.549C131.385 148.007 131.048 148.451 130.53 148.541Z" fill="#F0F0F0"></path><path d="M123.67 155.121L116.625 156.347C116.107 156.437 115.605 156.139 115.503 155.681L115.42 155.311C115.319 154.853 115.656 154.409 116.174 154.319L123.219 153.094C123.737 153.004 124.239 153.302 124.341 153.76L124.423 154.129C124.525 154.587 124.188 155.031 123.67 155.121Z" fill="#F0F0F0"></path><path d="M159.658 186.738L144.999 185.19C143.962 185.081 143.222 184.249 143.346 183.332L145.722 165.733C145.846 164.816 146.786 164.162 147.823 164.271L162.482 165.819C163.519 165.928 164.259 166.76 164.136 167.677L161.759 185.276C161.635 186.193 160.695 186.847 159.658 186.738Z" fill="#E6E6E6"></path><path d="M159.374 171.52L149.346 170.461C148.912 170.416 148.602 170.068 148.654 169.684C148.706 169.3 149.099 169.027 149.533 169.072L159.562 170.131C159.996 170.177 160.305 170.525 160.253 170.908C160.202 171.292 159.808 171.566 159.374 171.52Z" fill="#F0F0F0"></path><path d="M158.886 175.074L148.858 174.015C148.424 173.969 148.114 173.621 148.166 173.238C148.217 172.854 148.611 172.58 149.045 172.626L159.073 173.685C159.507 173.73 159.817 174.078 159.765 174.462C159.713 174.846 159.32 175.12 158.886 175.074Z" fill="#F0F0F0"></path><path d="M158.406 178.628L148.377 177.569C147.943 177.523 147.634 177.175 147.685 176.792C147.737 176.408 148.131 176.134 148.564 176.18L158.593 177.239C159.027 177.284 159.336 177.632 159.285 178.016C159.233 178.4 158.839 178.673 158.406 178.628Z" fill="#F0F0F0"></path><path d="M152.446 181.602L147.904 181.123C147.471 181.077 147.161 180.729 147.213 180.346C147.264 179.962 147.658 179.688 148.092 179.734L152.633 180.213C153.067 180.259 153.377 180.607 153.325 180.991C153.273 181.374 152.88 181.648 152.446 181.602Z" fill="#F0F0F0"></path><path d="M402.303 132.081L384.971 126.266C383.995 125.939 383.503 124.974 383.873 124.11L392.704 103.53C393.074 102.667 394.166 102.232 395.142 102.559L412.475 108.374C413.451 108.702 413.942 109.667 413.572 110.53L404.741 131.111C404.371 131.974 403.279 132.408 402.303 132.081Z" fill="#E6E6E6"></path><path d="M406.747 114.161L395.081 110.247C394.673 110.11 394.467 109.706 394.622 109.345L394.736 109.079C394.891 108.718 395.348 108.536 395.756 108.673L407.422 112.587C407.831 112.724 408.037 113.128 407.882 113.489L407.767 113.755C407.612 114.116 407.156 114.298 406.747 114.161Z" fill="#F0F0F0"></path><path d="M405.025 118.189L393.359 114.275C392.95 114.138 392.744 113.735 392.899 113.373L393.013 113.107C393.168 112.746 393.625 112.564 394.034 112.701L405.7 116.615C406.108 116.752 406.314 117.155 406.159 117.517L406.045 117.783C405.89 118.144 405.433 118.326 405.025 118.189Z" fill="#F0F0F0"></path><path d="M403.294 122.216L391.628 118.303C391.219 118.166 391.014 117.762 391.169 117.401L391.283 117.135C391.438 116.773 391.895 116.592 392.303 116.729L403.969 120.642C404.378 120.779 404.583 121.183 404.428 121.544L404.314 121.81C404.16 122.172 403.703 122.353 403.294 122.216Z" fill="#F0F0F0"></path><path d="M395.353 124.158L389.905 122.33C389.497 122.193 389.291 121.789 389.446 121.428L389.56 121.162C389.715 120.801 390.172 120.619 390.581 120.756L396.028 122.583C396.437 122.72 396.642 123.124 396.487 123.485L396.373 123.752C396.219 124.113 395.762 124.295 395.353 124.158Z" fill="#F0F0F0"></path><path d="M262.116 64.4656H256.654C256.187 64.4656 255.809 64.1305 255.809 63.7178V57.7284C255.809 57.3152 256.187 56.9806 256.654 56.9806H262.116C262.583 56.9806 262.962 57.3152 262.962 57.7284V63.7173C262.962 64.1305 262.583 64.4656 262.116 64.4656Z" fill="#E0E0E0"></path><path d="M272.87 64.4656H267.408C266.941 64.4656 266.562 64.1305 266.562 63.7178V51.9076C266.562 51.4944 266.941 51.1598 267.408 51.1598H272.87C273.337 51.1598 273.716 51.4949 273.716 51.9076V63.7178C273.716 64.1305 273.337 64.4656 272.87 64.4656Z" fill="#E0E0E0"></path><path d="M284.46 64.6322H278.998C278.531 64.6322 278.152 64.2976 278.152 63.8844V46.1587C278.152 45.7455 278.531 45.4108 278.998 45.4108H284.46C284.927 45.4108 285.305 45.7455 285.305 46.1587V63.8844C285.305 64.2971 284.927 64.6322 284.46 64.6322Z" fill="#E0E0E0"></path><path d="M304.581 155.541C303.282 157.289 302.409 159.21 301.944 161.191L298.376 161.488L298.375 167.599L301.944 167.896C302.408 169.876 303.282 171.797 304.581 173.546L302.301 175.98L307.188 180.301L309.94 178.286C311.918 179.434 314.09 180.206 316.33 180.617L316.666 183.773L323.576 183.773L323.912 180.618C326.152 180.206 328.325 179.434 330.302 178.286L333.055 180.301L337.942 175.98L335.663 173.546C336.961 171.797 337.834 169.877 338.3 167.896L341.868 167.599L341.868 161.489L338.3 161.191C337.835 159.211 336.961 157.29 335.663 155.542L337.942 153.108L333.055 148.787L330.302 150.802C328.325 149.654 326.152 148.881 323.913 148.47L323.577 145.315L316.667 145.315L316.331 148.471C314.091 148.882 311.919 149.654 309.941 150.802L307.188 148.787L302.301 153.108L304.581 155.541ZM326.737 158.695C330.39 161.925 330.39 167.163 326.737 170.393C323.083 173.623 317.16 173.623 313.507 170.393C309.854 167.163 309.854 161.925 313.507 158.695C317.16 155.464 323.084 155.464 326.737 158.695Z" fill="#E0E0E0"></path><path d="M347.354 170.002C346.741 170.827 346.329 171.733 346.11 172.668L344.426 172.808V175.692L346.11 175.832C346.329 176.766 346.741 177.673 347.354 178.498L346.278 179.647L348.584 181.686L349.883 180.735C350.817 181.277 351.841 181.641 352.898 181.835L353.057 183.324H356.317L356.476 181.836C357.534 181.641 358.558 181.277 359.492 180.735L360.791 181.686L363.096 179.647L362.021 178.499C362.634 177.674 363.046 176.767 363.265 175.832L364.949 175.692V172.809L363.265 172.668C363.045 171.734 362.633 170.828 362.02 170.003L363.095 168.854L360.789 166.815L359.49 167.766C358.557 167.224 357.532 166.859 356.475 166.665L356.316 165.176H353.056L352.897 166.665C351.84 166.859 350.815 167.224 349.882 167.765L348.583 166.814L346.277 168.853L347.354 170.002ZM357.809 171.49C359.532 173.014 359.532 175.486 357.809 177.01C356.085 178.534 353.29 178.534 351.566 177.01C349.842 175.486 349.842 173.015 351.566 171.49C353.29 169.966 356.085 169.966 357.809 171.49Z" fill="#E0E0E0"></path><path d="M318.362 126.125C317.749 126.95 317.337 127.857 317.118 128.792L315.434 128.932V131.815L317.118 131.955C317.337 132.89 317.749 133.796 318.362 134.622L317.286 135.77L319.592 137.809L320.891 136.858C321.824 137.4 322.849 137.765 323.906 137.959L324.064 139.448H327.325L327.484 137.959C328.541 137.765 329.566 137.401 330.499 136.859L331.798 137.81L334.104 135.771L333.029 134.622C333.642 133.797 334.054 132.891 334.273 131.956L335.957 131.815V128.932L334.273 128.792C334.053 127.857 333.641 126.951 333.028 126.126L334.103 124.977L331.797 122.939L330.498 123.889C329.565 123.347 328.54 122.983 327.483 122.789L327.324 121.3H324.063L323.905 122.789C322.848 122.983 321.823 123.347 320.89 123.889L319.591 122.938L317.286 124.976L318.362 126.125ZM328.816 127.614C330.54 129.138 330.54 131.609 328.816 133.134C327.093 134.658 324.298 134.658 322.574 133.134C320.85 131.609 320.85 129.138 322.574 127.614C324.298 126.089 327.092 126.089 328.816 127.614Z" fill="#F5F5F5"></path><path d="M344.951 136.711C343.8 138.26 343.027 139.961 342.614 141.716L339.453 141.979V147.393L342.615 147.656C343.027 149.411 343.8 151.112 344.951 152.661L342.931 154.818L347.26 158.646L349.699 156.86C351.451 157.878 353.375 158.562 355.36 158.926L355.657 161.722L361.78 161.721L362.077 158.926C364.062 158.562 365.986 157.878 367.739 156.86L370.177 158.646L374.506 154.818L372.487 152.661C373.637 151.112 374.411 149.411 374.823 147.656L377.984 147.393L377.984 141.979L374.823 141.716C374.411 139.962 373.637 138.26 372.487 136.711L374.506 134.555L370.177 130.727L367.738 132.512C365.986 131.495 364.062 130.81 362.077 130.446L361.78 127.651L355.657 127.652L355.36 130.447C353.375 130.811 351.451 131.495 349.699 132.512L347.26 130.727L342.931 134.554L344.951 136.711ZM364.579 139.505C367.815 142.366 367.815 147.006 364.579 149.868C361.342 152.73 356.095 152.73 352.859 149.868C349.622 147.006 349.623 142.366 352.859 139.505C356.095 136.643 361.342 136.643 364.579 139.505Z" fill="#F5F5F5"></path><path d="M126.752 61.211C125.747 62.5638 125.072 64.0505 124.711 65.5837L121.95 65.8137L121.949 70.5425L124.711 70.7724C125.071 72.3052 125.747 73.7918 126.752 75.1452L124.988 77.0288L128.77 80.3729L130.9 78.8134C132.43 79.7022 134.111 80.2996 135.845 80.6175L136.105 83.0596L141.453 83.0591L141.713 80.6175C143.447 80.2991 145.128 79.7017 146.658 78.8129L148.789 80.3724L152.571 77.0283L150.807 75.1447C151.812 73.7914 152.488 72.3052 152.847 70.7719L155.609 70.542L155.609 65.8132L152.847 65.5828C152.487 64.05 151.811 62.5638 150.806 61.2105L152.57 59.3264L148.788 55.9828L146.658 57.5423C145.127 56.6535 143.446 56.0556 141.713 55.7377L141.453 53.2957H136.105L135.845 55.7377C134.111 56.0561 132.43 56.6535 130.9 57.5423L128.769 55.9828L124.987 59.3269L126.752 61.211ZM143.899 63.6516C146.726 66.1516 146.726 70.205 143.899 72.7051C141.072 75.2052 136.487 75.2052 133.66 72.7051C130.833 70.205 130.833 66.1516 133.66 63.6516C136.488 61.152 141.072 61.1515 143.899 63.6516Z" fill="#F5F5F5"></path><path d="M410.691 175.906H313.386C311.646 175.906 310.23 174.654 310.23 173.115V47.7905C310.23 46.2519 311.646 45 313.386 45H410.691C412.431 45 413.847 46.2515 413.847 47.7905V173.115C413.847 174.654 412.431 175.906 410.691 175.906ZM313.386 45.1195C311.72 45.1195 310.365 46.3176 310.365 47.7909V173.115C310.365 174.589 311.721 175.787 313.386 175.787H410.691C412.357 175.787 413.712 174.588 413.712 173.115V47.7905C413.712 46.3176 412.357 45.119 410.691 45.119L313.386 45.1195Z" fill="#E0E0E0"></path><path d="M298.476 175.906H201.171C199.431 175.906 198.016 174.654 198.016 173.115V47.7905C198.016 46.2519 199.431 45 201.171 45H298.477C300.217 45 301.633 46.2515 301.633 47.7905V173.115C301.632 174.654 300.216 175.906 298.476 175.906ZM201.171 45.1195C199.506 45.1195 198.15 46.3176 198.15 47.7909V173.115C198.15 174.589 199.506 175.787 201.171 175.787H298.477C300.143 175.787 301.498 174.588 301.498 173.115V47.7905C301.498 46.3176 300.142 45.119 298.477 45.119L201.171 45.1195Z" fill="#E0E0E0"></path><path d="M186.371 175.906H89.066C87.326 175.906 85.9102 174.654 85.9102 173.115V47.7905C85.9102 46.2519 87.3255 45 89.066 45H186.371C188.111 45 189.526 46.2515 189.526 47.7905V173.115C189.527 174.654 188.111 175.906 186.371 175.906ZM89.066 45.1195C87.4003 45.1195 86.0447 46.3176 86.0447 47.7909V173.115C86.0447 174.589 87.4003 175.787 89.066 175.787H186.371C188.037 175.787 189.392 174.588 189.392 173.115V47.7905C189.392 46.3176 188.036 45.119 186.371 45.119L89.066 45.1195Z" fill="#E0E0E0"></path><path d="M451.763 204.977H48V205.034H451.763V204.977Z" fill="#E0E0E0"></path><path d="M429.885 218.96H399.883V219.161H429.885V218.96Z" fill="#EBEBEB"></path><path d="M322.386 221.133H314.512V221.334H322.386V221.133Z" fill="#EBEBEB"></path><path d="M109.007 212.868H69.8828V213.068H109.007V212.868Z" fill="#EBEBEB"></path><path d="M122.807 212.868H117.07V213.068H122.807V212.868Z" fill="#EBEBEB"></path><path d="M226.3 216.25H141.449V216.45H226.3V216.25Z" fill="#EBEBEB"></path><path d="M145.203 117.362H88.5795C87.3618 117.362 86.375 116.489 86.375 115.413V87.2829C86.375 86.2066 87.3618 85.3336 88.5795 85.3336H145.203C146.42 85.3336 147.407 86.2061 147.407 87.2829V115.413C147.407 116.489 146.42 117.362 145.203 117.362Z" fill="#407BFF"></path><path opacity="0.8" d="M145.203 117.362H88.5795C87.3618 117.362 86.375 116.489 86.375 115.413V87.2829C86.375 86.2066 87.3618 85.3336 88.5795 85.3336H145.203C146.42 85.3336 147.407 86.2061 147.407 87.2829V115.413C147.407 116.489 146.42 117.362 145.203 117.362Z" fill="white"></path><path d="M95.5547 103.124C95.8196 102.913 102.963 96.6768 102.963 96.6768L110.008 99.7428L116.895 92.5782L123.94 101.555L130.812 97.5902" stroke="#263238" stroke-width="0.5" stroke-miterlimit="10"></path><path d="M97.7559 105.932H94.4531V112.403H97.7559V105.932Z" fill="#407BFF"></path><path d="M104.557 101.655H101.254V112.403H104.557V101.655Z" fill="#407BFF"></path><path d="M111.487 102.736H108.184V112.403H111.487V102.736Z" fill="#407BFF"></path><path d="M118.538 96.6763H115.234V112.403H118.538V96.6763Z" fill="#407BFF"></path><path d="M125.667 105.015H122.363V112.403H125.667V105.015Z" fill="#407BFF"></path><path d="M97.8808 102.391C97.8808 103.258 97.0862 103.96 96.1064 103.96C95.1261 103.96 94.332 103.257 94.332 102.391C94.332 101.524 95.1266 100.822 96.1064 100.822C97.0862 100.821 97.8808 101.524 97.8808 102.391Z" fill="#407BFF"></path><path d="M104.686 96.6763C104.686 97.5426 103.891 98.2453 102.911 98.2453C101.931 98.2453 101.137 97.5426 101.137 96.6763C101.137 95.8094 101.931 95.1073 102.911 95.1073C103.891 95.1073 104.686 95.8099 104.686 96.6763Z" fill="#407BFF"></path><path d="M111.775 99.2525C111.775 100.119 110.981 100.821 110.001 100.821C109.021 100.821 108.227 100.119 108.227 99.2525C108.227 98.3861 109.021 97.6835 110.001 97.6835C110.981 97.6835 111.775 98.3861 111.775 99.2525Z" fill="#407BFF"></path><path d="M118.666 92.5782C118.666 93.4446 117.871 94.1472 116.892 94.1472C115.912 94.1472 115.117 93.4446 115.117 92.5782C115.117 91.7114 115.912 91.0092 116.892 91.0092C117.871 91.0087 118.666 91.7114 118.666 92.5782Z" fill="#407BFF"></path><path d="M125.713 101.555C125.713 102.421 124.918 103.124 123.938 103.124C122.958 103.124 122.164 102.421 122.164 101.555C122.164 100.688 122.959 99.9856 123.938 99.9856C124.918 99.9856 125.713 100.688 125.713 101.555Z" fill="#407BFF"></path><path d="M132.729 101.312H129.426V112.403H132.729V101.312Z" fill="#407BFF"></path><path opacity="0.3" d="M104.557 101.655H101.254V112.403H104.557V101.655Z" fill="black"></path><path opacity="0.3" d="M118.538 96.6763H115.234V112.403H118.538V96.6763Z" fill="black"></path><path opacity="0.3" d="M132.729 101.312H129.426V112.403H132.729V101.312Z" fill="black"></path><path d="M140.037 105.015H136.734V112.403H140.037V105.015Z" fill="#407BFF"></path><path d="M130.812 97.5897L138.392 101.312" stroke="#263238" stroke-width="0.5" stroke-miterlimit="10"></path><path d="M132.975 97.5897C132.975 98.4561 132.18 99.1587 131.2 99.1587C130.22 99.1587 129.426 98.4561 129.426 97.5897C129.426 96.7229 130.22 96.0208 131.2 96.0208C132.18 96.0208 132.975 96.7234 132.975 97.5897Z" fill="#407BFF"></path><path d="M138.392 102.881C139.372 102.881 140.166 102.178 140.166 101.312C140.166 100.445 139.372 99.7428 138.392 99.7428C137.412 99.7428 136.617 100.445 136.617 101.312C136.617 102.178 137.412 102.881 138.392 102.881Z" fill="#407BFF"></path><path d="M394.418 225.744C408.959 225.744 420.747 213.576 420.747 198.566C420.747 183.556 408.959 171.388 394.418 171.388C379.878 171.388 368.09 183.556 368.09 198.566C368.09 213.576 379.878 225.744 394.418 225.744Z" fill="white" stroke="#2D56B3" stroke-miterlimit="10"></path><path d="M407.626 193.605H381.57V212.599H407.626V193.605Z" fill="#407BFF"></path><path opacity="0.3" d="M393.909 193.605H381.57V212.599H393.909V193.605Z" fill="black"></path><path d="M381.582 193.605L377.34 200.959H389.592L393.921 193.605H381.582Z" fill="#407BFF"></path><path d="M393.926 193.605L398.484 200.959H411.507L407.643 193.605H393.926Z" fill="#407BFF"></path><path opacity="0.3" d="M393.926 193.605L398.484 200.959H411.507L407.643 193.605H393.926Z" fill="black"></path><path d="M389.987 189.01C388.931 187.479 387.875 185.948 386.819 184.418C386.691 184.232 386.391 184.41 386.52 184.598C387.576 186.128 388.632 187.659 389.688 189.19C389.816 189.375 390.116 189.197 389.987 189.01Z" fill="#263238"></path><path d="M394.321 188.876C394.28 186.381 394.239 183.886 394.197 181.39C394.194 181.161 393.848 181.16 393.852 181.39C393.893 183.886 393.934 186.381 393.976 188.876C393.98 189.106 394.326 189.107 394.321 188.876Z" fill="#263238"></path><path d="M398.666 189.032C399.442 187.606 400.217 186.181 400.993 184.756C401.102 184.555 400.803 184.375 400.694 184.576C399.919 186.001 399.143 187.426 398.367 188.852C398.258 189.053 398.557 189.233 398.666 189.032Z" fill="#263238"></path><path d="M401.461 183.553C401.452 183.543 401.442 183.533 401.432 183.523C401.417 183.506 401.398 183.494 401.377 183.486C401.356 183.475 401.334 183.47 401.31 183.471C401.286 183.47 401.264 183.475 401.243 183.486C401.222 183.493 401.203 183.505 401.187 183.523C401.178 183.535 401.169 183.547 401.16 183.559C401.145 183.587 401.137 183.617 401.137 183.649C401.139 183.665 401.141 183.681 401.143 183.697C401.151 183.727 401.166 183.753 401.187 183.775C401.197 183.785 401.206 183.795 401.216 183.805C401.232 183.823 401.25 183.835 401.272 183.842C401.293 183.853 401.315 183.859 401.338 183.858C401.362 183.859 401.384 183.853 401.405 183.842C401.426 183.835 401.445 183.823 401.46 183.805C401.469 183.793 401.478 183.781 401.488 183.769C401.503 183.741 401.511 183.711 401.511 183.679C401.509 183.663 401.507 183.648 401.505 183.632C401.498 183.602 401.483 183.575 401.461 183.553Z" fill="#263238"></path><path d="M340.203 114.041L346.24 139.175C346.514 140.319 345.177 141.24 343.989 140.723L322.905 131.548C321.984 131.148 321.73 130.09 322.388 129.393L337.436 113.434C338.282 112.536 339.928 112.896 340.203 114.041Z" fill="#407BFF"></path><path opacity="0.3" d="M340.203 114.041L346.24 139.175C346.514 140.319 345.177 141.24 343.989 140.723L322.905 131.548C321.984 131.148 321.73 130.09 322.388 129.393L337.436 113.434C338.282 112.536 339.928 112.896 340.203 114.041Z" fill="black"></path><path d="M341.515 134.94L339.174 120.576C349.221 119.296 357.884 113.728 362.347 105.684C369.79 92.2692 363.503 76.002 348.332 69.4215C333.161 62.8404 314.764 68.3999 307.322 81.8143C304.101 87.6204 303.332 94.2604 305.159 100.511L289.269 104.141C286.463 94.537 287.642 84.3382 292.588 75.4227C304.016 54.8247 332.266 46.2876 355.561 56.3927C378.856 66.4977 388.51 91.4766 377.082 112.075C370.229 124.428 356.933 132.975 341.515 134.94Z" fill="#407BFF"></path><g opacity="0.3"><path d="M341.515 134.94L339.174 120.576C349.221 119.296 357.884 113.728 362.347 105.684C369.79 92.2692 363.503 76.002 348.332 69.4215C333.161 62.8404 314.764 68.3999 307.322 81.8143C304.101 87.6204 303.332 94.2604 305.159 100.511L289.269 104.141C286.463 94.537 287.642 84.3382 292.588 75.4227C304.016 54.8247 332.266 46.2876 355.561 56.3927C378.856 66.4977 388.51 91.4766 377.082 112.075C370.229 124.428 356.933 132.975 341.515 134.94Z" fill="black"></path></g><path d="M342.011 107.626C352.126 105.117 358.025 95.8329 355.187 86.8894C352.35 77.9459 341.85 72.7297 331.736 75.2386C321.621 77.7476 315.722 87.0317 318.56 95.9752C321.397 104.919 331.897 110.135 342.011 107.626Z" fill="#407BFF"></path><path opacity="0.3" d="M342.011 107.626C352.126 105.117 358.025 95.8329 355.187 86.8894C352.35 77.9459 341.85 72.7297 331.736 75.2386C321.621 77.7476 315.722 87.0317 318.56 95.9752C321.397 104.919 331.897 110.135 342.011 107.626Z" fill="black"></path><path d="M347.738 103.663C355.958 97.879 357.319 87.2974 350.777 80.0287C344.236 72.76 332.269 71.5567 324.048 77.341C315.828 83.1253 314.467 93.7068 321.009 100.976C327.55 108.244 339.517 109.448 347.738 103.663Z" fill="#407BFF"></path><path d="M349.433 97.6914C353.916 91.07 351.479 82.4892 343.991 78.5257C336.502 74.5621 326.798 76.7167 322.316 83.3381C317.833 89.9594 320.27 98.5402 327.758 102.504C335.246 106.467 344.951 104.313 349.433 97.6914Z" fill="white"></path><path d="M328.298 100.428L330.397 97.6782C330.458 97.7149 330.52 97.7511 330.583 97.7863L328.56 100.581C328.472 100.531 328.385 100.48 328.298 100.428ZM324.107 96.4182C324.056 96.3373 324.005 96.2559 323.955 96.1735L327.265 94.6112C327.3 94.6688 327.335 94.7259 327.371 94.7826L324.107 96.4182ZM334.376 102.41L334.788 99.1125L335.02 99.1334L334.678 102.437C334.577 102.429 334.476 102.42 334.376 102.41ZM322.351 90.9058C322.348 90.814 322.345 90.7221 322.344 90.6302L326.096 90.5974L326.1 90.7973L322.351 90.9058ZM340.796 101.666L339.43 98.5765L339.641 98.5018L341.136 101.544L341.047 101.577C340.987 101.599 340.892 101.633 340.796 101.666ZM323.694 85.3068C323.74 85.2235 323.787 85.1407 323.833 85.0588L327.175 86.5673C327.142 86.6254 327.109 86.6849 327.076 86.7439L323.694 85.3068ZM343.288 96.1697C343.335 96.1226 343.38 96.0745 343.426 96.0264L346.323 98.1347C346.255 98.2085 346.185 98.2809 346.114 98.3528L343.288 96.1697ZM330.056 83.5617L327.83 80.8917L328.073 80.736L330.247 83.4399L330.056 83.5617ZM345.409 92.4867L345.459 92.2892L349.128 92.9827C349.107 93.0713 349.085 93.1603 349.061 93.2483L345.409 92.4867ZM334.38 81.9628L333.801 78.6849C333.901 78.6711 334.001 78.6582 334.101 78.6463L334.613 81.9323L334.38 81.9628ZM345.357 88.3482C345.338 88.2858 345.319 88.2239 345.3 88.162L348.907 87.2504C348.936 87.3409 348.964 87.4313 348.99 87.5218L345.357 88.3482ZM339.043 82.326L340.254 79.1861C340.356 79.2171 340.457 79.2485 340.558 79.2818L339.245 82.3902C339.178 82.3674 339.111 82.346 339.043 82.326ZM343.136 84.7047L342.984 84.5595L345.707 82.2765C345.778 82.3436 345.849 82.4107 345.919 82.4788L343.136 84.7047Z" fill="black"></path><path d="M331.914 85.3192L335.686 91.0567L341.788 85.8076" stroke="black" stroke-miterlimit="10" stroke-linecap="round" stroke-linejoin="round"></path><path d="M336.786 91.3166C336.356 91.7498 335.611 91.7931 335.121 91.4133C334.631 91.0334 334.582 90.3741 335.011 89.9409C335.441 89.5077 336.187 89.4644 336.677 89.8443C337.166 90.2241 337.215 90.8834 336.786 91.3166Z" fill="black"></path><path opacity="0.3" d="M325.342 81.5192C331.605 76.1439 341.609 76.2753 347.688 81.8129C349.182 83.1733 350.295 84.7352 351.038 86.3946C350.334 84.3158 349.08 82.3489 347.252 80.6842C341.173 75.1471 331.168 75.0152 324.906 80.3905C320.182 84.4448 318.941 90.4732 321.223 95.5676C319.585 90.7321 320.963 85.2783 325.342 81.5192Z" fill="black"></path><path d="M177.336 190.335C163.61 176.875 156.051 159.472 156.051 141.334C156.051 108.103 181.405 78.9919 217.709 70.542L211.609 77.3139L222.297 85.9552C193.905 92.5634 174.076 115.336 174.076 141.334C174.076 155.523 179.987 169.135 190.723 179.662L177.336 190.335Z" fill="#407BFF"></path><path d="M179.119 191.247C179.788 191.1 201.853 191.247 201.853 191.247L190.726 179.662L177.34 190.335L179.119 191.247Z" fill="#407BFF"></path><g opacity="0.3"><path d="M177.336 190.335C163.61 176.875 156.051 159.472 156.051 141.334C156.051 108.103 181.405 78.9919 217.709 70.542L211.609 77.3139L222.297 85.9552C193.905 92.5634 174.076 115.336 174.076 141.334C174.076 155.523 179.987 169.135 190.723 179.662L177.336 190.335Z" fill="black"></path><path d="M179.119 191.247C179.788 191.1 201.853 191.247 201.853 191.247L190.726 179.662L177.34 190.335L179.119 191.247Z" fill="black"></path></g><path d="M342.02 217.182V191.487C342.02 190.318 343.545 189.663 344.584 190.386L363.053 203.233C363.86 203.794 363.86 204.875 363.053 205.436L344.584 218.284C343.545 219.007 342.02 218.352 342.02 217.182Z" fill="#407BFF"></path><path d="M345.017 196.697H242.359V211.973H345.017V196.697Z" fill="#407BFF"></path><path opacity="0.3" d="M362.898 203.233L344.429 190.386C343.389 189.662 341.864 190.317 341.864 191.487V196.697H237.996V211.973H341.864V217.182C341.864 218.352 343.389 219.007 344.43 218.284L362.899 205.436C363.705 204.876 363.705 203.795 362.898 203.233Z" fill="black"></path><path d="M237.971 68.178V83.8359C273.05 83.8359 301.589 109.071 301.589 140.089C301.589 171.106 273.05 196.341 237.971 196.341H124.316V211.999H237.971C282.814 211.999 319.296 179.741 319.296 140.089C319.296 100.437 282.814 68.178 237.971 68.178Z" fill="#407BFF"></path><path d="M241.415 63.2117L241.356 88.9065C241.353 90.0761 239.827 90.7288 238.789 90.0033L220.349 77.123C219.543 76.5604 219.546 75.4798 220.353 74.92L238.852 62.1054C239.894 61.3842 241.417 62.0421 241.415 63.2117Z" fill="#407BFF"></path><path opacity="0.3" d="M241.39 196.791C241.742 196.791 234.176 201.028 229.064 200.991L228.581 212.423H225.198L218.73 197.147L241.39 196.791Z" fill="black"></path><path d="M235.156 117.702C237.529 121.015 238.401 123.02 238.77 126.275C239.203 130.08 239.184 133.455 238.273 134.472C237.078 135.805 223.489 137.569 215.826 137.609C215.548 137.61 215.206 135.472 215.206 135.472C215.206 135.472 214.231 137.614 213.871 137.614C211.779 137.616 210.438 137.603 210.438 137.603C210.438 137.603 212.002 134.383 213.528 122.935C214.273 117.343 220.469 114.869 224.165 114.3C230.327 113.35 235.156 117.702 235.156 117.702Z" fill="#263238"></path><path d="M217.523 129.165C215.36 126.186 212.941 118.017 221.15 115.129C231.397 111.525 236.368 117.207 237.569 122.989C238.77 128.772 235.29 133.322 228.386 133.163C221.481 133.004 219.019 131.226 217.523 129.165Z" fill="#263238"></path><path d="M234.642 140.152C234.642 140.152 232.337 141.72 229.369 143.981C228.75 144.452 228.069 144.86 227.349 145.198C225.404 146.112 223.631 146.634 223.151 145.805C223.044 145.623 222.962 145.425 222.901 145.218C222.493 143.83 222.66 141.878 223.93 140.985C225.361 139.977 226.051 139.116 225.793 137.752C225.657 136.979 225.341 136.181 224.971 135.407L226.098 134.242L231.988 128.986C231.841 132.495 231.54 138.246 234.642 140.152Z" fill="#EBB373"></path><path opacity="0.2" d="M225.844 138.051C227.464 137.201 229.241 135.726 229.028 134.041C228.933 133.332 228.76 132.659 228.568 132.229L225.277 136.081C225.548 136.701 225.646 137.112 225.844 138.051Z" fill="black"></path><path d="M233.663 123.346C233.109 128.698 233.002 130.967 229.878 133.773C225.181 137.994 217.954 136.574 216.71 131.27C215.59 126.496 216.685 118.547 222.626 116.298C228.479 114.082 234.217 117.995 233.663 123.346Z" fill="#EBB373"></path><path d="M226.076 125.285C226.042 125.824 225.668 126.268 225.24 126.275C224.812 126.284 224.492 125.853 224.526 125.314C224.56 124.775 224.935 124.331 225.363 124.324C225.79 124.316 226.11 124.746 226.076 125.285Z" fill="#263238"></path><path d="M219.779 125.188C219.745 125.702 219.377 126.125 218.957 126.134C218.536 126.141 218.222 125.731 218.256 125.216C218.29 124.702 218.659 124.278 219.079 124.27C219.499 124.262 219.813 124.673 219.779 125.188Z" fill="#263238"></path><path d="M226.932 123.309C226.849 123.324 226.763 123.311 226.693 123.268C225.619 122.59 224.505 122.952 224.492 122.956C224.327 123.01 224.15 122.947 224.099 122.809C224.049 122.673 224.144 122.517 224.311 122.461C224.369 122.442 225.767 121.986 227.101 122.828C227.234 122.911 227.25 123.078 227.138 123.2C227.083 123.258 227.009 123.296 226.932 123.309Z" fill="#263238"></path><path d="M217.64 122.589C217.573 122.561 217.52 122.513 217.495 122.449C217.444 122.318 217.532 122.173 217.692 122.124C219.297 121.643 220.399 122.332 220.446 122.362C220.577 122.446 220.597 122.604 220.49 122.716C220.384 122.828 220.193 122.851 220.062 122.768C220.02 122.74 219.155 122.217 217.879 122.6C217.796 122.625 217.71 122.619 217.64 122.589Z" fill="#263238"></path><path d="M228.604 118.589C226.679 120.377 227.636 127.13 233.041 128.012C239.268 126.716 234.351 113.252 228.604 118.589Z" fill="#263238"></path><path d="M221.371 130.186C221.864 130.857 222.456 132.156 222.456 132.156C222.599 132.13 222.742 132.103 222.883 132.071C224.81 131.672 225.555 130.924 225.796 130.216C225.926 129.828 225.901 129.449 225.835 129.149C225.763 128.801 225.622 128.567 225.622 128.567C224.744 129.318 222.98 129.812 222.026 130.041C221.627 130.14 221.371 130.186 221.371 130.186Z" fill="#263238"></path><path d="M222.035 130.041L222.372 130.614C224.186 130.235 225.405 129.753 225.845 129.149C225.773 128.801 225.632 128.567 225.632 128.567C224.753 129.318 222.99 129.812 222.035 130.041Z" fill="white"></path><path d="M222.887 132.071C224.813 131.672 225.559 130.924 225.8 130.216C225.149 130.374 224.384 130.629 223.759 131.034C223.28 131.341 223.027 131.715 222.887 132.071Z" fill="#DC5753"></path><path d="M221.474 124.812C221.474 124.812 220.334 127.224 219.145 128.404C219.919 129.066 221.3 128.718 221.3 128.718L221.474 124.812Z" fill="#E4873E"></path><path d="M224.152 124.07L225.541 124.359C224.912 124.985 224.152 124.07 224.152 124.07Z" fill="#263238"></path><path d="M217.945 124.016L219.334 124.306C218.705 124.932 217.945 124.016 217.945 124.016Z" fill="#263238"></path><path d="M222.68 115.15C220.29 115.867 217.751 119.524 217.328 120.932C220.727 121.424 229.888 118.609 229.888 118.609C229.888 118.609 236.001 120.101 232.904 117.361C229.808 114.62 222.68 115.15 222.68 115.15Z" fill="#263238"></path><path d="M235.5 127.708C234.785 128.805 233.624 129.494 232.559 129.73C230.956 130.086 230.129 127.808 230.676 126.389C231.168 125.112 232.742 124.266 234.301 124.545C235.838 124.819 236.317 126.453 235.5 127.708Z" fill="#EBB373"></path><path d="M214.391 121.906C214.05 124.262 213.704 126.639 212.806 128.877C211.908 131.116 210.042 135.732 207.809 137.051" stroke="#263238" stroke-width="0.5" stroke-miterlimit="10"></path><path d="M233.199 130.588C233.822 130.588 234.327 130.141 234.327 129.59C234.327 129.039 233.822 128.593 233.199 128.593C232.576 128.593 232.07 129.039 232.07 129.59C232.07 130.141 232.576 130.588 233.199 130.588Z" fill="#407BFF"></path><path opacity="0.1" d="M234.225 126.182C233.691 126.048 233.091 126.144 232.643 126.433C232.195 126.722 231.909 127.199 231.891 127.689" stroke="black" stroke-width="0.5" stroke-miterlimit="10" stroke-linecap="round" stroke-linejoin="round"></path><path d="M187.057 174.609C187.358 173.871 189.509 171.401 190.655 170.48C191.801 169.558 195.856 167.544 195.856 167.544L199.281 170.411C199.281 170.411 198.959 172.054 197.584 172.657C196.791 173.005 195.967 173.286 195.967 173.286C195.967 173.286 195.977 173.929 195.789 174.603C195.58 175.351 195.144 176.232 194.458 176.048C193.772 175.864 194.082 173.83 194.13 173.538C194.08 173.834 193.693 175.9 192.744 175.763C191.828 175.631 192.285 173.487 192.285 173.487C192.285 173.487 191.957 174.46 191.784 174.956C191.612 175.452 190.916 175.762 190.55 175.085C190.125 174.301 190.391 173.17 190.391 173.17C190.391 173.17 189.721 173.716 188.589 174.98C187.774 175.89 186.802 175.233 187.057 174.609Z" fill="#EBB373"></path><path opacity="0.1" d="M194.043 173.922C194.131 173.538 194.22 173.151 194.386 172.787C194.553 172.424 194.805 172.081 195.165 171.852" stroke="black" stroke-width="0.5" stroke-miterlimit="10" stroke-linecap="round" stroke-linejoin="round"></path><path opacity="0.1" d="M192.164 173.783C192.252 173.399 192.34 173.012 192.508 172.648C192.674 172.285 192.926 171.942 193.286 171.712" stroke="black" stroke-width="0.5" stroke-miterlimit="10" stroke-linecap="round" stroke-linejoin="round"></path><path opacity="0.1" d="M190.391 173.238C190.478 172.853 190.567 172.466 190.734 172.103C190.901 171.74 191.153 171.397 191.513 171.167" stroke="black" stroke-width="0.5" stroke-miterlimit="10" stroke-linecap="round" stroke-linejoin="round"></path><path d="M213.805 148.089C213.805 148.427 212.727 160.57 212.727 160.57C211.963 161.836 196.236 166.663 194.223 168.43L197.892 171.768C197.892 171.768 216.604 168.43 219.625 166.488C222.203 164.831 221.986 161.924 221.986 157.954C221.986 153.985 223.553 148.439 223.553 148.439L213.805 148.089Z" fill="#EBB373"></path><path d="M220.921 140.915C213.502 142.037 212.483 151.748 212.483 151.748L211.356 159.459L207.148 162.173L211.082 169.604C211.082 169.604 219.483 166.777 223.176 164.844C226.87 162.911 226.966 148.096 226.966 148.096L220.921 140.915Z" fill="#407BFF"></path><path opacity="0.2" d="M219.583 166.019C219.721 166.074 216.474 167.675 216.474 167.675C216.436 167.695 215.302 163.435 215.263 163.455C213.476 156.316 214.685 150.626 214.685 150.626C216.04 153.117 219.24 163.932 219.583 166.019Z" fill="black"></path><path d="M221.242 174.805C227.425 174.259 235.469 173.823 245.936 173.614C245.936 173.614 253.741 189.868 244.486 194.724C241.689 196.191 237.074 196.771 231.994 196.867C226.1 196.978 221.243 192.801 221.243 187.588L221.242 174.805Z" fill="#263238"></path><path d="M241.451 188.192V195.829C233.754 197.792 217.777 197.045 208.28 196.36C204.004 196.051 200.715 192.892 200.715 189.098V182.832C200.715 180.755 202.167 178.897 204.366 178.166C208.97 176.634 217.349 174.353 226.113 174.472C234.611 174.589 241.451 180.677 241.451 188.192Z" fill="#263238"></path><path d="M247.321 173.614C246.125 172.218 243.355 168.881 243.004 165.368C243.003 165.358 243.003 165.348 243.002 165.338C242.981 165.112 242.968 164.887 242.967 164.66C242.904 163.167 242.914 161.398 243.026 159.276C243.041 158.945 243.064 158.593 243.086 158.242C243.154 157.128 243.251 155.928 243.371 154.623C243.596 152.283 243.919 149.612 244.353 146.576C244.45 145.873 245.199 144.783 245.311 144.041C245.813 140.733 242.404 138.343 238.723 138.475C237.741 138.509 236.699 138.568 235.642 138.661C231.511 139.006 228.123 139.318 224.532 140.073C223.34 140.318 222.11 140.617 220.934 140.915C216.705 141.989 214.757 146.775 214.704 150.626C214.652 154.215 217.498 161.541 219.448 167.976C219.735 171.667 217.455 173.677 218.142 174.964C218.828 176.25 239.006 172.754 247.32 177.138C247.32 177.138 248.597 175.104 247.321 173.614Z" fill="#407BFF"></path><path opacity="0.3" d="M247.321 173.614C246.125 172.218 243.355 168.881 243.004 165.368C243.003 165.358 243.003 165.348 243.002 165.338C242.981 165.112 242.968 164.887 242.967 164.66C242.904 163.167 242.914 161.398 243.026 159.276C243.041 158.945 243.064 158.593 243.086 158.242C243.154 157.128 243.251 155.928 243.371 154.623C243.596 152.283 243.919 149.612 244.353 146.576C244.45 145.873 245.199 144.783 245.311 144.041C245.813 140.733 242.404 138.343 238.723 138.475C237.741 138.509 236.699 138.568 235.642 138.661C231.511 139.006 228.123 139.318 224.532 140.073C223.34 140.318 222.11 140.617 220.934 140.915C216.705 141.989 214.757 146.775 214.704 150.626C214.652 154.215 217.498 161.541 219.448 167.976C219.735 171.667 217.455 173.677 218.142 174.964C218.828 176.25 239.006 172.754 247.32 177.138C247.32 177.138 248.597 175.104 247.321 173.614Z" fill="white"></path><path opacity="0.2" d="M244.105 168.951C244.105 168.951 236.984 170.333 233.67 170.467C230.357 170.6 223.187 172.597 223.187 172.597L220.637 173.996L219.738 172.136L224.031 168.703L242.875 165.326C243.105 166.718 243.97 168.67 244.105 168.951Z" fill="black"></path><path opacity="0.2" d="M235.956 148.213L235.056 158.977L231.02 162.476L233.844 164.418L237.686 162.369L239.674 156.315L235.956 148.213Z" fill="black"></path><path d="M205.515 246.481L214.965 242.795L217.953 239.844L218.879 240.955L220.008 240.52C220.535 236.811 218.497 235.077 217.427 234.289C217.35 234.229 217.24 234.161 217.113 234.071C217.07 234.041 217.028 234.011 216.985 233.988C216.968 233.981 216.951 233.966 216.935 233.958C216.892 233.928 216.841 233.898 216.791 233.861C216.782 233.853 216.774 233.853 216.757 233.846V233.838C216.731 233.823 216.706 233.808 216.672 233.793L211.484 235.82C211.484 235.82 211.399 236.06 211.238 236.451C210.72 237.742 209.438 240.685 208.02 242.254C207.961 242.322 207.901 242.389 207.842 242.449C207.672 242.629 207.493 242.787 207.315 242.915C203.341 245.737 205.515 246.481 205.515 246.481Z" fill="#263238"></path><path d="M207.82 242.427C209.298 242.938 211.386 241.647 212.974 239.957C213.865 239.004 214.723 237.479 215.478 236.248C215.971 235.453 216.421 234.777 216.811 234.454C217.032 234.282 217.236 234.206 217.414 234.282C217.414 234.282 217.406 234.274 217.406 234.266C217.329 234.206 217.219 234.139 217.092 234.049C217.058 234.026 217.015 233.996 216.964 233.966C216.947 233.958 216.93 233.944 216.914 233.936C216.871 233.906 216.82 233.876 216.769 233.838C216.761 233.831 216.752 233.831 216.735 233.824V233.816C216.71 233.801 216.685 233.786 216.651 233.771C216.108 233.411 215.505 233.043 215.505 233.043L210.625 234.123L211.005 235.775C210.461 237.479 209.315 240.723 207.999 242.232C207.939 242.3 207.88 242.367 207.82 242.427Z" fill="#EBB373"></path><path d="M199.874 210.295C202.886 216.911 207.564 225.342 211.016 235.913C211.084 236.106 211.144 236.298 211.204 236.491C211.271 236.696 211.339 236.895 211.407 237.101L214.972 236.331L215.128 235.783C215.128 235.783 216.359 234.937 216.15 234.745C216.013 234.62 216.105 234.387 216.082 234.188V234.181C215.122 226.808 211.422 199.746 207.752 194.125C207.752 194.125 211.909 194.809 215.061 194.337C217.335 193.999 220.09 180.096 220.09 180.096C220.09 180.096 214.296 178.623 208.352 178.623H208.27C208.27 178.623 196.586 181.679 193.615 183.993C190.823 186.168 190.405 189.732 191.953 193.968C193.372 197.853 196.141 202.098 199.874 210.295Z" fill="#EBB373"></path><path opacity="0.1" d="M196.541 187.337C197.233 184.934 202.239 182.582 207.41 181.321C208.25 180.359 206.101 179.223 206.101 179.223L216.281 178.408L218.057 179.539L221.095 180.098L218.388 190.852L207.268 192.574L214.303 221.439L215.134 227.143C215.134 227.143 203.219 204.528 200.727 199.719C198.235 194.911 195.343 191.506 196.541 187.337Z" fill="black"></path><path d="M220.096 180.099C220.096 180.099 204.21 183.074 201.107 185.242C198.465 187.087 198.393 189.497 199.25 191.772C201.617 198.061 210.111 208.548 219.834 238.648L225.406 237.101C224.872 237.101 223.472 221.386 223.058 208.763C222.863 202.809 219.41 197.675 218.059 195.602C218.059 195.602 223.737 196.28 226.888 195.812C230.937 195.212 233.497 183.267 220.096 180.099Z" fill="#EBB373"></path><path opacity="0.2" d="M218.384 196.166C218.384 196.166 216.276 193.076 213.648 191.772C213.648 191.772 216.882 191.959 218.903 195.692L218.056 195.602L218.384 196.166Z" fill="black"></path><path d="M227.3 243.582L226.139 243.806L225.175 242.386C225.057 242.214 224.79 242.18 224.623 242.317L221.323 245.019L212.311 246.768C212.311 246.768 210.305 244.893 214.785 243.697C214.999 243.64 215.184 243.492 215.386 243.348C217.603 241.844 220.261 237.701 220.261 237.701L225.6 236.664C225.6 236.664 225.845 236.865 226.207 237.26C227.049 238.186 228.597 240.171 227.3 243.582Z" fill="#263238"></path><path d="M226.208 237.261C226.209 237.268 226.211 237.275 226.211 237.275C225.334 236.717 222.883 240.391 220.791 241.887C218.922 243.218 216.665 244.084 215.387 243.348C217.604 241.844 220.379 236.616 220.379 236.616L224.673 235.783C224.673 235.783 225.846 236.865 226.208 237.261Z" fill="#EBB373"></path><path d="M209.837 182.134L225.5 176.865C225.848 176.748 225.764 176.254 225.394 176.25L200.258 175.984C200.197 175.983 200.137 175.999 200.085 176.029L190.419 181.563C190.131 181.728 190.253 182.152 190.589 182.152H209.728C209.766 182.152 209.802 182.146 209.837 182.134Z" fill="#263238"></path><path opacity="0.7" d="M209.837 182.134L225.5 176.865C225.848 176.748 225.764 176.254 225.394 176.25L200.258 175.984C200.197 175.983 200.137 175.999 200.085 176.029L190.419 181.563C190.131 181.728 190.253 182.152 190.589 182.152H209.728C209.766 182.152 209.802 182.146 209.837 182.134Z" fill="white"></path><path opacity="0.7" d="M209.9 180.564L220 177.271L208.168 177.053L209.9 180.564Z" fill="white"></path><path opacity="0.3" d="M225.506 176.866L209.843 182.135C209.808 182.146 209.771 182.152 209.734 182.152H209.49L209.195 181.389L225.4 176.25C225.77 176.254 225.855 176.749 225.506 176.866Z" fill="black"></path><path d="M189.402 182.152H209.794C210.146 182.15 210.428 181.946 210.426 181.696C210.425 181.649 210.414 181.602 210.393 181.558L201.322 163.168C201.092 162.643 200.41 162.284 199.635 162.281H179.23C178.885 162.281 178.605 162.48 178.605 162.725C178.605 162.777 178.618 162.827 178.643 162.876L187.714 181.265C187.947 181.789 188.628 182.147 189.402 182.152Z" fill="#263238"></path><path opacity="0.7" d="M179.23 162.281H199.635C200.41 162.284 201.093 162.643 201.322 163.168L210.393 181.558C210.414 181.603 210.425 181.649 210.426 181.696C210.429 181.946 210.146 182.15 209.794 182.152H189.402C188.628 182.147 187.947 181.789 187.714 181.265L178.643 162.876C178.618 162.827 178.605 162.777 178.605 162.725C178.605 162.48 178.885 162.281 179.23 162.281Z" fill="white"></path><path d="M191.876 172.626C192.317 173.509 193.21 174.115 193.876 173.992C194.542 173.868 194.72 173.064 194.292 172.179C193.864 171.294 192.961 170.702 192.295 170.825C191.629 170.948 191.43 171.721 191.876 172.626Z" fill="white"></path><path opacity="0.3" d="M199.5 162.281H199.621C200.396 162.284 201.079 162.643 201.308 163.168L210.38 181.558C210.401 181.603 210.411 181.649 210.412 181.696C210.415 181.946 210.132 182.15 209.78 182.152H209.127L199.5 162.281Z" fill="black"></path><path d="M236.345 147.196C236.345 147.534 237.571 159.561 237.571 159.561C236.807 160.828 221.079 165.655 219.066 167.422L222.735 170.76C222.735 170.76 241.448 167.422 244.469 165.48C247.047 163.823 246.83 160.916 246.83 156.946C246.83 152.977 245.848 147.196 245.848 147.196H236.345Z" fill="#EBB373"></path><path d="M237.94 139.774C234.076 141.201 237.026 159.491 237.026 159.491L233.223 160.914L235.56 168.702C235.56 168.702 240.243 167.916 244.923 167.072C249.87 166.18 250.595 156.082 248.119 147.905C245.643 139.727 242.459 138.105 237.94 139.774Z" fill="#407BFF"></path><path d="M212.503 176.18C212.59 175.399 213.99 172.538 214.845 171.396C215.7 170.255 219.071 167.422 219.071 167.422L223.188 169.457C223.188 169.457 223.332 171.12 222.166 172.003C221.494 172.513 220.774 172.964 220.774 172.964C220.774 172.964 220.962 173.585 220.966 174.279C220.971 175.049 220.794 175.999 220.077 175.969C219.362 175.939 219.098 173.9 219.063 173.606C219.097 173.904 219.295 175.991 218.337 176.064C217.413 176.135 217.26 173.957 217.26 173.957C217.26 173.957 217.212 174.972 217.183 175.49C217.154 176.009 216.565 176.46 216.022 175.883C215.392 175.215 215.336 174.061 215.336 174.061C215.336 174.061 214.838 174.736 214.092 176.207C213.554 177.266 212.43 176.84 212.503 176.18Z" fill="#EBB373"></path><path opacity="0.1" d="M219.096 173.996C219.075 173.604 219.053 173.209 219.114 172.821C219.175 172.433 219.324 172.046 219.609 171.745" stroke="black" stroke-width="0.5" stroke-miterlimit="10" stroke-linecap="round" stroke-linejoin="round"></path><path opacity="0.1" d="M217.218 174.272C217.196 173.88 217.174 173.485 217.235 173.097C217.296 172.708 217.445 172.322 217.73 172.021" stroke="black" stroke-width="0.5" stroke-miterlimit="10" stroke-linecap="round" stroke-linejoin="round"></path><path opacity="0.1" d="M215.346 174.127C215.325 173.735 215.303 173.341 215.364 172.952C215.425 172.564 215.574 172.177 215.859 171.877" stroke="black" stroke-width="0.5" stroke-miterlimit="10" stroke-linecap="round" stroke-linejoin="round"></path><path d="M108.361 225.744C123.813 225.744 136.339 213.576 136.339 198.566C136.339 183.556 123.813 171.388 108.361 171.388C92.9091 171.388 80.3828 183.556 80.3828 198.566C80.3828 213.576 92.9091 225.744 108.361 225.744Z" fill="white" stroke="#2D56B3" stroke-miterlimit="10"></path><path d="M113.671 215.936C113.671 217.711 111.13 219.135 108.041 219.086C104.951 219.038 102.47 217.588 102.492 215.813C102.514 214.038 105.033 212.615 108.117 212.668C111.202 212.722 113.693 214.166 113.671 215.936Z" fill="#2D56B3"></path><path d="M116.081 210.082C116.384 209.803 116.566 209.422 116.591 209.016C116.591 207.278 112.82 205.818 108.123 205.775C103.425 205.732 99.6002 207.092 99.5781 208.83C99.5967 209.232 99.7712 209.613 100.067 209.896C99.978 210.061 99.9275 210.243 99.9187 210.429C99.9305 210.835 100.111 211.22 100.418 211.495C100.319 211.668 100.264 211.862 100.259 212.06C100.271 212.47 100.458 212.856 100.775 213.127C100.664 213.299 100.603 213.498 100.599 213.702C100.626 214.106 100.825 214.481 101.148 214.737C101.032 214.91 100.968 215.111 100.962 215.318C100.962 216.763 104.095 217.983 108.002 218.015C111.91 218.047 115.087 216.949 115.104 215.472C115.103 215.265 115.042 215.062 114.928 214.886C115.25 214.634 115.449 214.263 115.477 213.863C115.475 213.661 115.42 213.463 115.318 213.287C115.636 213.027 115.833 212.654 115.867 212.252C115.865 212.053 115.814 211.858 115.719 211.682C116.036 211.42 116.234 211.046 116.267 210.642C116.25 210.444 116.186 210.253 116.081 210.082Z" fill="#2D56B3"></path><path opacity="0.3" d="M116.081 210.082C116.384 209.803 116.566 209.422 116.591 209.016C116.591 207.278 112.82 205.818 108.123 205.775C103.425 205.732 99.6002 207.092 99.5781 208.83C99.5967 209.232 99.7712 209.613 100.067 209.896C99.978 210.061 99.9275 210.243 99.9187 210.429C99.9305 210.835 100.111 211.22 100.418 211.495C100.319 211.668 100.264 211.862 100.259 212.06C100.271 212.47 100.458 212.856 100.775 213.127C100.664 213.299 100.603 213.498 100.599 213.702C100.626 214.106 100.825 214.481 101.148 214.737C101.032 214.91 100.968 215.111 100.962 215.318C100.962 216.763 104.095 217.983 108.002 218.015C111.91 218.047 115.087 216.949 115.104 215.472C115.103 215.265 115.042 215.062 114.928 214.886C115.25 214.634 115.449 214.263 115.477 213.863C115.475 213.661 115.42 213.463 115.318 213.287C115.636 213.027 115.833 212.654 115.867 212.252C115.865 212.053 115.814 211.858 115.719 211.682C116.036 211.42 116.234 211.046 116.267 210.642C116.25 210.444 116.186 210.253 116.081 210.082Z" fill="white"></path><path d="M123.125 194.73C123.222 186.654 116.563 180.031 108.25 179.936C99.9365 179.842 93.1181 186.311 93.0206 194.386C92.9676 198.768 94.9405 202.943 98.3968 205.759C99.0329 206.269 99.3661 207.052 99.2857 207.849C99.2828 207.888 99.2828 207.927 99.2857 207.966C99.2857 209.731 103.127 211.207 107.891 211.261C112.654 211.314 116.545 209.922 116.567 208.153C116.567 208.115 116.567 208.078 116.567 208.041C116.493 207.227 116.846 206.431 117.505 205.924C121.008 203.197 123.069 199.09 123.125 194.73Z" fill="#407BFF"></path><path opacity="0.7" d="M123.125 194.73C123.222 186.654 116.563 180.031 108.25 179.936C99.9365 179.842 93.1181 186.311 93.0206 194.386C92.9676 198.768 94.9405 202.943 98.3968 205.759C99.0329 206.269 99.3661 207.052 99.2857 207.849C99.2828 207.888 99.2828 207.927 99.2857 207.966C99.2857 209.731 103.127 211.207 107.891 211.261C112.654 211.314 116.545 209.922 116.567 208.153C116.567 208.115 116.567 208.078 116.567 208.041C116.493 207.227 116.846 206.431 117.505 205.924C121.008 203.197 123.069 199.09 123.125 194.73Z" fill="white"></path><path opacity="0.2" d="M116.049 186.237C116.049 189.084 112.619 191.398 108.366 191.398C104.113 191.398 100.684 189.085 100.684 186.237C100.684 183.391 104.113 181.072 108.366 181.072C112.619 181.072 116.049 183.386 116.049 186.237Z" fill="white"></path><path d="M96.6071 200.116C95.2973 197.934 94.7768 195.315 95.1561 192.817C95.5359 190.318 96.8134 187.956 98.7163 186.235" stroke="white" stroke-miterlimit="10" stroke-linecap="round" stroke-linejoin="round"></path><path d="M101.125 214.771C105.47 216.548 110.489 216.606 114.877 214.933C110.554 216.753 105.401 216.692 101.125 214.771Z" fill="#2D56B3"></path><path d="M101.02 213.201C105.365 214.978 110.383 215.036 114.771 213.364C110.449 215.183 105.296 215.122 101.02 213.201Z" fill="#2D56B3"></path><path d="M100.914 211.632C105.259 213.408 110.278 213.467 114.666 211.794C110.343 213.614 105.19 213.553 100.914 211.632Z" fill="#2D56B3"></path><path d="M104.818 208.162C105.972 204.344 106.175 200.179 105.398 196.245C105.272 195.609 104.977 194.843 104.389 194.829C103.864 194.816 103.519 195.444 103.405 196.012C103.004 198.022 104.077 200.063 105.449 201.451C106.192 202.203 107.092 202.858 108.097 202.906C109.105 202.954 110.068 202.374 110.799 201.602C112.196 200.124 112.892 197.809 112.386 195.744C112.172 194.871 111.534 193.932 110.731 194.099C110.247 194.199 109.893 194.696 109.769 195.223C109.644 195.75 109.705 196.307 109.776 196.846C110.287 200.734 111.265 204.546 112.673 208.151" stroke="#2D56B3" stroke-miterlimit="10"></path><path d="M275.469 220.169C275.469 220.169 328.569 209.169 331.094 218.949C334.7 232.909 296.387 242.3 275.981 241.725C255.576 241.15 275.469 220.169 275.469 220.169Z" fill="#263238"></path><path opacity="0.2" d="M275.469 220.169C275.469 220.169 328.569 209.169 331.094 218.949C334.7 232.909 296.387 242.3 275.981 241.725C255.576 241.15 275.469 220.169 275.469 220.169Z" fill="black"></path><path opacity="0.7" d="M313.668 221.966L288.731 235.98L292.059 240.161C292.059 240.161 290.306 242.458 286.969 235.402L302.397 226.384C302.397 226.384 297.568 225.956 297.689 225.288C297.894 224.192 308.503 222.106 313.341 221.167C313.591 221.087 313.866 221.201 313.956 221.422C314.047 221.643 313.917 221.886 313.668 221.966Z" fill="black"></path><path opacity="0.7" d="M287.833 234.4L292.159 240.598C286.825 241.421 281.407 241.799 275.985 241.724C274.202 241.715 272.437 241.431 270.774 240.889L269.254 238.432L272.526 232.612L287.833 234.4Z" fill="black"></path><path d="M296.08 231.936L284.988 238.156L286.976 242.915L299.999 237.741L296.08 231.936Z" fill="#B97964"></path><path d="M278.848 239.75L279.936 243.173C279.936 243.173 280.754 243.326 281.009 244.046C281.152 244.45 280.815 245.566 280.815 245.566L283.73 255C283.746 254.996 284.462 254.825 284.746 254.644C285.092 254.423 285.373 254.197 285.598 253.967C286.386 253.162 286.472 251.996 286.502 251.133C286.551 249.685 287.492 245.457 287.492 245.457C287.492 245.457 287.851 244.355 289.167 243.385C289.901 242.843 290.24 242.16 290.171 241.737C290.033 240.874 289.332 240.55 288.42 240.647L287.36 240.762C286.602 240.263 286.369 239.419 286.849 238.606C286.849 238.606 287.476 236.551 286.501 236.897C285.945 237.094 283.497 238.06 281.537 238.772C281.08 238.939 280.647 239.095 280.268 239.233V239.234C279.426 239.539 278.848 239.75 278.848 239.75Z" fill="#263238"></path><path d="M287.105 247.711C287.135 247.658 287.119 247.592 287.069 247.551C286.84 247.365 286.557 247.231 286.237 247.172C286.069 247.141 285.992 247.38 286.162 247.412C286.446 247.464 286.695 247.581 286.896 247.743C286.962 247.797 287.063 247.784 287.103 247.713C287.104 247.712 287.105 247.712 287.105 247.711Z" fill="#407BFF"></path><path d="M287.316 246.876C287.346 246.823 287.33 246.757 287.279 246.716C287.05 246.53 286.768 246.396 286.448 246.337C286.28 246.306 286.203 246.545 286.373 246.577C286.657 246.63 286.906 246.746 287.107 246.908C287.174 246.963 287.274 246.949 287.314 246.878C287.315 246.878 287.316 246.877 287.316 246.876Z" fill="#407BFF"></path><path d="M287.48 246.026C287.51 245.973 287.494 245.907 287.444 245.866C287.215 245.68 286.932 245.546 286.612 245.487C286.444 245.456 286.367 245.695 286.537 245.727C286.821 245.779 287.07 245.896 287.271 246.058C287.338 246.113 287.438 246.099 287.478 246.028C287.479 246.027 287.48 246.026 287.48 246.026Z" fill="#407BFF"></path><path opacity="0.2" d="M280.315 239.232V239.233C279.473 239.539 278.895 239.749 278.895 239.749L279.983 243.173C279.983 243.173 280.801 243.325 281.055 244.045C281.199 244.45 280.862 245.566 280.862 245.566L283.777 255C283.792 254.996 284.508 254.825 284.793 254.644C284.952 254.542 285.094 254.439 285.226 254.336L280.527 239.156C280.457 239.181 280.381 239.208 280.315 239.232Z" fill="white"></path><path d="M287.371 245.968C287.732 245.85 288.096 245.732 288.475 245.671C288.854 245.611 289.253 245.611 289.615 245.728C289.783 245.782 289.958 245.879 289.994 246.035C290.032 246.197 289.9 246.356 289.747 246.453C289.453 246.639 289.065 246.684 288.709 246.624C288.353 246.565 287.666 246.155 287.371 245.968Z" stroke="#407BFF" stroke-width="0.25" stroke-miterlimit="10"></path><path d="M287.363 245.928C287.665 245.717 287.968 245.504 288.224 245.249C288.479 244.995 288.687 244.693 288.762 244.359C288.797 244.203 288.794 244.021 288.663 243.913C288.526 243.799 288.304 243.817 288.131 243.882C287.798 244.008 287.552 244.278 287.425 244.577C287.298 244.876 287.336 245.609 287.363 245.928Z" stroke="#407BFF" stroke-width="0.25" stroke-miterlimit="10"></path><path d="M297.417 190.295C297.417 190.295 299.356 205.561 299.875 206.38C301.627 209.149 313.237 213.898 313.237 213.898L319.157 212.802L323.398 215.934L320.602 217.871L317.32 216.775C315.53 217.058 313.714 217.198 311.895 217.195C308.837 217.195 294.092 213.891 291.631 210.256C289.17 206.62 288.039 189.788 288.039 189.788L297.417 190.295Z" fill="#B97964"></path><path d="M287.793 196.296C287.793 196.296 283.244 182.89 288.912 179.167C294.58 175.445 299.088 193.878 299.088 193.878L287.793 196.296Z" fill="#407BFF"></path><path opacity="0.5" d="M287.793 196.296C287.793 196.296 283.244 182.89 288.912 179.167C294.58 175.445 299.088 193.878 299.088 193.878L287.793 196.296Z" fill="white"></path><path d="M291.377 220.817L291.333 203.048L290.901 178.718L279.028 176.441L268.695 176.038L256.937 180.795L256.662 186.765C256.662 186.765 258.007 214.178 257.932 215.004C257.839 216.017 254.504 222.376 254.504 222.376C269.359 225.369 291.611 221.723 291.377 220.817Z" fill="#407BFF"></path><path opacity="0.5" d="M291.377 220.817L291.333 203.048L290.901 178.718L279.028 176.441L268.695 176.038L256.937 180.795L256.662 186.765C256.662 186.765 258.007 214.178 257.932 215.004C257.839 216.017 254.504 222.376 254.504 222.376C269.359 225.369 291.611 221.723 291.377 220.817Z" fill="white"></path><path d="M290.288 161.722C290.94 161.666 291.499 161.146 291.528 160.567C291.557 159.989 291.052 159.426 290.408 159.321L287.363 159.051C287.508 160.779 287.653 162.507 287.798 164.234C288.387 164.368 289.021 164.396 289.596 164.221C290.172 164.047 290.678 163.65 290.851 163.135C291.026 162.619 290.81 161.998 290.288 161.722Z" fill="#263238"></path><path d="M278.654 171.687L272.113 164.409C272.113 164.409 272.111 164.415 272.109 164.434C272.107 165.122 272.083 165.908 272.019 166.747C272.016 166.753 271.316 166.45 271.313 166.456C271.033 170.237 269.343 176.688 269.421 177.246L276.294 180.266H277.675L277.788 176.699C277.097 175.159 277.748 173.363 278.654 171.687Z" fill="#B97964"></path><path opacity="0.2" d="M277.673 174.142L273.535 171.25C273.432 172.722 274.302 175.034 277.62 176.236C277.424 175.351 277.489 174.723 277.673 174.142Z" fill="black"></path><path d="M273.51 160.801C272.157 165.699 271.647 168.051 273.539 171.25C276.385 176.063 283.336 176.104 286.326 171.65C289.017 167.64 290.779 160.305 286.104 156.974C281.497 153.692 274.864 155.904 273.51 160.801Z" fill="#B97964"></path><path d="M274.678 154.154C276.354 151.71 280.742 151.314 282.363 153.243C282.606 153.531 279.985 153.601 280.284 153.588L278.748 157.446C278.448 157.294 277.698 157.454 277.059 158.249C277.059 158.249 276.07 163.557 272.96 165.041C269.906 161.315 270.254 154.161 274.678 154.154Z" fill="#263238"></path><path d="M269.953 164.218C269.953 165.575 270.666 166.8 271.578 167.57C272.95 168.727 274.543 167.832 274.92 166.276C275.261 164.875 274.957 162.585 273.215 162.016C271.499 161.457 269.953 162.667 269.953 164.218Z" fill="#B97964"></path><path d="M281.004 164.905C280.831 165.397 280.987 165.874 281.352 165.971C281.717 166.068 282.153 165.748 282.326 165.256C282.499 164.764 282.343 164.287 281.978 164.19C281.613 164.093 281.177 164.414 281.004 164.905Z" fill="#263238"></path><path d="M286.469 166.472C286.296 166.964 286.452 167.441 286.817 167.538C287.182 167.635 287.618 167.315 287.792 166.823C287.964 166.331 287.808 165.854 287.443 165.757C287.078 165.661 286.642 165.981 286.469 166.472Z" fill="#263238"></path><path d="M284.544 165.159C284.544 165.159 285.236 167.4 285.552 168.73C285.628 169.049 285.359 169.359 284.991 169.368C284.19 169.387 283.438 168.99 283.438 168.99L284.544 165.159Z" fill="#A24E3F"></path><path d="M280.43 161.955C280.503 162.008 280.607 162.026 280.702 161.994C281.845 161.614 282.666 162.125 282.674 162.13C282.796 162.208 282.967 162.184 283.057 162.077C283.146 161.97 283.118 161.82 282.997 161.742C282.954 161.715 281.926 161.074 280.509 161.547C280.367 161.594 280.296 161.732 280.35 161.856C280.367 161.896 280.395 161.929 280.43 161.955Z" fill="#263238"></path><path d="M289.359 164.235C289.41 164.228 289.459 164.209 289.501 164.176C289.614 164.087 289.625 163.934 289.526 163.835C288.529 162.84 287.29 163.006 287.233 163.008C287.084 163.029 286.981 163.152 287.003 163.284C287.024 163.415 287.162 163.504 287.309 163.485C287.36 163.477 288.317 163.359 289.117 164.157C289.18 164.22 289.272 164.246 289.359 164.235Z" fill="#263238"></path><path d="M280.547 169.992C280.737 170.13 280.941 170.252 281.155 170.357C281.225 170.39 281.311 170.373 281.359 170.318C281.391 170.252 281.361 170.175 281.292 170.139C280.18 169.611 279.42 168.645 279.247 167.54C279.238 167.472 279.171 167.42 279.092 167.423C279.021 167.419 278.96 167.468 278.957 167.531C278.957 167.54 278.957 167.55 278.96 167.559C279.091 168.528 279.664 169.407 280.547 169.992Z" fill="#263238"></path><path d="M293.033 158.069C292.661 157.09 291.343 156.68 290.179 156.606C290.91 156.593 291.484 155.938 291.486 155.292C291.487 154.646 291.035 154.053 290.46 153.655C289.433 152.942 287.97 152.757 286.758 153.187C286.988 153.089 287.07 152.819 286.996 152.603C286.922 152.388 286.731 152.22 286.528 152.084C285.296 151.251 283.386 151.334 282.252 152.27C281.856 151.085 280.304 150.309 278.952 150.621C277.633 150.925 275.147 151.159 274.763 154.144C273.645 153.441 271.909 153.591 271.024 154.536C270.068 155.557 270.316 157.278 271.531 158.054C270.928 157.83 270.179 158.176 269.931 158.711C269.682 159.246 269.875 159.887 270.295 160.33C270.715 160.773 271.33 161.041 271.96 161.2C272.552 161.349 273.193 161.41 273.781 161.249C274.37 161.088 274.894 160.67 275.011 160.136C275.111 160.696 275.776 161.112 276.415 161.053C277.053 160.993 277.591 160.504 277.696 159.944C277.801 159.384 277.499 158.793 276.988 158.449C277.714 159.072 279.12 158.827 279.524 158.007C280.063 158.921 280.831 159.784 281.901 160.192C282.971 160.6 284.381 160.428 285.065 159.594C285.413 159.952 285.768 160.316 286.217 160.57C286.667 160.824 287.234 160.957 287.742 160.813C288.251 160.67 288.651 160.194 288.543 159.732C289.384 160.352 290.568 160.673 291.603 160.359C292.639 160.044 293.383 158.986 293.033 158.069Z" fill="#263238"></path><path d="M274.559 179.976C274.559 179.976 277.442 182.245 278.917 179.312L279.686 179.841C279.686 179.841 279.611 182.024 278.213 182.753C278.552 183.964 284.405 201.588 285.452 210.471L283.852 214.072L279.603 211.106C279.603 211.106 277.54 195.867 276.833 182.92C275.132 182.41 273.785 181.281 273.16 179.841L274.559 179.976Z" fill="#407BFF"></path><path opacity="0.2" d="M278.281 180.272L280.78 181.99L281.188 176.833L280.395 176.683L279.735 180.159L278.547 179.548L278.281 180.272Z" fill="black"></path><path opacity="0.2" d="M266.235 177.034C266.193 177.051 272.118 183.44 272.118 183.44L274.13 182.086L275.513 181.05L275.872 180.659L268.028 175.842C268.028 175.842 266.977 176.791 266.869 176.791C266.761 176.791 266.235 177.034 266.235 177.034Z" fill="black"></path><path d="M266.648 176.925L269.515 174.663L277.358 181.156L275.307 180.514L272.318 182.544L266.648 176.925Z" fill="#407BFF"></path><path d="M277.358 181.156C277.184 180.863 277.527 175.08 277.527 175.08L280.764 176.645C280.617 176.618 280.519 181.52 280.43 181.52C280.34 181.52 278.589 179.846 278.589 179.846L277.358 181.156Z" fill="#407BFF"></path><path opacity="0.2" d="M291.166 195.572L290.559 184.113L293.457 195.082L291.166 195.572Z" fill="black"></path><path opacity="0.2" d="M266.035 197.242C266.401 197.178 268.252 196.642 268.252 196.642L264.137 186.517L269.787 197.718L266.39 198.913L266.035 197.242Z" fill="black"></path><path opacity="0.5" d="M266.648 176.925L269.515 174.663L277.358 181.156L275.307 180.514L272.318 182.544L266.648 176.925Z" fill="white"></path><path opacity="0.5" d="M277.358 181.156C277.184 180.863 277.527 175.08 277.527 175.08L280.764 176.645C280.617 176.618 280.519 181.52 280.43 181.52C280.34 181.52 278.589 179.846 278.589 179.846L277.358 181.156Z" fill="white"></path><path opacity="0.3" d="M281.816 190.632L283.133 196.349L286.966 197.577L289.559 195.578L289.085 190.179L281.816 190.632Z" fill="white"></path><path d="M277.828 180.66L276.614 180.922C276.61 180.92 276.568 180.989 276.597 180.946C276.614 180.922 275.934 182.979 275.934 182.979C276.13 183.132 276.782 184.129 276.857 184.113C276.933 184.097 278.544 183.964 278.544 183.964L279.129 182.456C279.129 182.456 277.818 180.647 277.828 180.66Z" fill="#407BFF"></path><path opacity="0.2" d="M277.828 180.66L276.614 180.922C276.61 180.92 276.568 180.989 276.597 180.946C276.614 180.922 275.934 182.979 275.934 182.979C276.13 183.132 276.782 184.129 276.857 184.113C276.933 184.097 278.544 183.964 278.544 183.964L279.129 182.456C279.129 182.456 277.818 180.647 277.828 180.66Z" fill="black"></path><path d="M264.439 188.845C264.439 188.845 267.32 205.793 268.983 207.377C271.795 210.054 285.722 217.158 285.722 217.158L292.673 215.003C293.16 214.862 293.699 214.939 294.097 215.208L298.849 218.415L298.396 218.754C298.2 218.9 297.916 218.929 297.684 218.828L296.946 218.503L297.772 219.219L297.51 219.414C297.25 219.608 296.889 219.678 296.554 219.599L294.429 219.094L296.39 220.249C295.953 220.575 295.343 220.689 294.784 220.547L291.675 219.764C289.555 220.193 287.394 220.466 285.219 220.582C281.559 220.781 264.271 215.44 261.049 211.529C257.827 207.618 254.504 191.381 254.504 191.381L264.439 188.845Z" fill="#B97964"></path><path d="M255.239 200.12C255.239 200.12 250.931 184.76 256.599 181.038C262.267 177.316 267.881 196.747 267.881 196.747L255.239 200.12Z" fill="#407BFF"></path><path opacity="0.5" d="M255.239 200.12C255.239 200.12 250.931 184.76 256.599 181.038C262.267 177.316 267.881 196.747 267.881 196.747L255.239 200.12Z" fill="white"></path><path d="M301.63 219.643H290.938H279.594C279.594 219.646 279.594 219.648 279.594 219.649C279.599 220.394 280.539 220.994 281.692 220.99H293.027H299.511C299.521 220.99 299.531 220.99 299.541 220.99H299.543H317.588C318.732 220.983 319.652 220.381 319.647 219.643H301.63V219.643Z" fill="#263238"></path><path d="M317.927 220.914H297.796C297.449 220.912 297.169 220.711 297.172 220.464C297.172 220.418 297.183 220.372 297.204 220.328L306.159 202.173C306.385 201.655 307.06 201.3 307.824 201.298H327.968C328.309 201.298 328.585 201.494 328.585 201.736C328.585 201.786 328.572 201.837 328.548 201.884L319.593 220.039C319.363 220.556 318.691 220.909 317.927 220.914Z" fill="#263238"></path><path opacity="0.7" d="M327.959 201.298H307.815C307.05 201.3 306.376 201.655 306.15 202.173L297.532 219.643H290.938H279.594C279.594 219.645 279.594 219.648 279.594 219.649C279.599 220.394 280.539 220.994 281.692 220.99H293.027H299.511C299.521 220.99 299.531 220.99 299.541 220.99H299.543H317.588C317.951 220.988 318.286 220.92 318.581 220.813C319.049 220.674 319.424 220.397 319.583 220.039L328.538 201.884C328.563 201.837 328.575 201.786 328.575 201.736C328.576 201.494 328.299 201.298 327.959 201.298Z" fill="white"></path><path d="M315.872 210.963C315.437 211.834 314.555 212.432 313.898 212.311C313.24 212.189 313.065 211.395 313.487 210.521C313.909 209.648 314.801 209.063 315.458 209.185C316.116 209.307 316.312 210.069 315.872 210.963Z" fill="white"></path><g opacity="0.3"><path d="M306.149 202.173L297.531 219.643H298.464L307.814 201.298C307.05 201.3 306.375 201.655 306.149 202.173Z" fill="black"></path></g><path d="M307.164 239.779L320.131 241.625L322.211 236.896L308.583 233.136L307.164 239.779Z" fill="#B97964"></path><path d="M325.841 244.01L327.592 240.809C327.592 240.809 327.094 240.216 327.443 239.527C327.64 239.14 328.729 238.502 328.729 238.502L333.619 229.73C333.605 229.724 332.941 229.432 332.592 229.402C332.168 229.364 331.787 229.369 331.447 229.409C330.254 229.55 329.314 230.372 328.645 231.001C327.523 232.056 323.648 234.67 323.648 234.67C323.648 234.67 322.554 235.285 320.841 235.24C319.886 235.215 319.12 235.528 318.854 235.885C318.31 236.611 318.592 237.265 319.349 237.727L320.228 238.263C320.421 239.081 319.963 239.848 318.994 240.175C318.994 240.175 316.984 241.346 317.973 241.659C318.537 241.837 321.095 242.549 323.096 243.165C323.563 243.309 324.003 243.445 324.39 243.564L324.391 243.563C325.25 243.829 325.841 244.01 325.841 244.01Z" fill="#263238"></path><path d="M325.675 233.222C325.614 233.245 325.576 233.303 325.583 233.363C325.615 233.637 325.726 233.903 325.921 234.134C326.024 234.256 326.261 234.122 326.157 233.999C325.983 233.793 325.884 233.56 325.856 233.32C325.846 233.24 325.762 233.192 325.678 233.221C325.678 233.221 325.677 233.222 325.675 233.222Z" fill="#407BFF"></path><path d="M324.879 233.72C324.817 233.742 324.779 233.801 324.786 233.861C324.818 234.135 324.929 234.4 325.124 234.632C325.227 234.754 325.464 234.62 325.36 234.497C325.187 234.291 325.087 234.058 325.059 233.818C325.049 233.738 324.965 233.69 324.881 233.719C324.881 233.719 324.88 233.72 324.879 233.72Z" fill="#407BFF"></path><path d="M324.117 234.25C324.055 234.272 324.017 234.331 324.024 234.391C324.056 234.665 324.168 234.931 324.362 235.162C324.465 235.284 324.702 235.15 324.598 235.027C324.425 234.821 324.326 234.588 324.297 234.348C324.288 234.268 324.203 234.22 324.12 234.249C324.12 234.249 324.118 234.25 324.117 234.25Z" fill="#407BFF"></path><path opacity="0.2" d="M327.508 239.527C327.704 239.14 328.793 238.503 328.793 238.503L333.684 229.731C333.669 229.725 333.005 229.433 332.656 229.402C332.461 229.385 332.278 229.379 332.101 229.379L324.238 243.498C324.309 243.52 324.386 243.544 324.454 243.565L324.455 243.565C325.314 243.83 325.905 244.011 325.905 244.011L327.656 240.809C327.656 240.809 327.158 240.216 327.508 239.527Z" fill="white"></path><path d="M324.228 234.382C323.869 234.258 323.509 234.134 323.179 233.957C322.85 233.78 322.552 233.546 322.368 233.246C322.283 233.107 322.225 232.932 322.314 232.794C322.408 232.65 322.626 232.609 322.812 232.626C323.173 232.659 323.497 232.853 323.718 233.106C323.94 233.36 324.148 234.07 324.228 234.382Z" stroke="#407BFF" stroke-width="0.25" stroke-miterlimit="10"></path><path d="M324.2 234.419C323.816 234.4 323.429 234.382 323.047 234.423C322.664 234.464 322.283 234.569 321.976 234.774C321.834 234.87 321.699 235.009 321.716 235.166C321.734 235.332 321.913 235.448 322.092 235.501C322.435 235.602 322.821 235.545 323.141 235.395C323.461 235.245 323.981 234.673 324.2 234.419Z" stroke="#407BFF" stroke-width="0.25" stroke-miterlimit="10"></path><path d="M258.458 234.551C255.661 230.613 249.34 219.94 262.167 217.861C274.995 215.782 317.852 233.791 317.852 233.791L315.136 241.023L275.247 235.463C275.247 235.463 280.705 241.906 274.085 241.612C264.455 240.77 262.143 238.733 258.458 234.551Z" fill="#263238"></path><path opacity="0.7" d="M276.194 235.657L265.25 232.612C265.25 232.612 274.431 237.578 277.798 238.169L276.194 235.657Z" fill="black"></path></svg>