<svg xmlns="http://www.w3.org/2000/svg" width="500" height="300" viewBox="0 0 500 300" fill="none"><rect width="500" height="300" rx="24" fill="white"></rect><path d="M476.85 241.614C484.913 212.017 514.161 106.492 396.758 80.6174C298.663 58.9978 246.841 18.1503 146.798 88.5054C85.6711 131.493 -24.6537 74.7745 25.8796 241.614C67.2615 241.614 399.447 241.614 476.85 241.614Z" fill="#EDF5F9"></path><path d="M354.372 133.497C336.997 133.497 320.534 137.196 305.802 143.8C307.32 146.239 308.195 149.081 308.195 152.12C308.195 161.162 300.476 168.489 290.952 168.489C285.365 168.489 280.402 165.965 277.25 162.055C268.041 170.102 260.233 179.57 254.209 190.095C260.319 192.612 264.592 198.389 264.592 205.115C264.592 214.158 256.873 221.485 247.349 221.485C245.688 221.485 244.084 221.257 242.565 220.842C241.182 227.575 240.451 234.529 240.451 241.646H283.05C283.05 204.25 314.98 173.936 354.371 173.936C393.761 173.936 425.693 204.25 425.693 241.646H468.289C468.29 181.918 417.287 133.497 354.372 133.497Z" fill="#E8CEAE"></path><path d="M93.0624 188.955C100.857 200.053 108.746 213.668 113.435 218.119C128.726 222.968 150.537 228.518 157.565 230.034C167.778 227.738 178.26 228.503 191.16 236.157C174.707 238.709 121.093 237.178 105.466 226.206C89.8373 215.236 93.0624 194.429 93.0624 188.955Z" fill="#CC7E4E"></path><path d="M209.048 241.261H204.328L238.729 159.612L242.87 160.988L209.048 241.261Z" fill="#5F5B78"></path><path d="M209.053 236.158H140.369V241.261H209.053V236.158Z" fill="#5F5B78"></path><path d="M60.0023 128.128C56.4817 115.734 54.6918 114.877 53.5493 101.91C52.4053 88.9421 55.6362 80.8534 69.8705 77.1125C84.1041 73.3723 88.0584 79.0368 98.3881 75.7674C109.193 72.3474 123.756 78.1549 122.083 85.2081C119.989 94.0336 133.221 92.8308 116.266 100.956C95.4169 112.255 77.5794 130.187 60.0023 128.128Z" fill="#2F2E38"></path><path d="M118.121 97.5174C112.753 93.2084 94.35 94.032 90.6693 98.1659C86.9885 102.299 84.3128 108.657 79.336 110.332C79.9913 104.008 72.703 99.3381 69.3983 104.68C66.4461 109.452 68.0224 116.608 73.2004 117.221C68.4152 122.594 64.801 125.954 60.0033 128.128C57.2384 135.005 54.7192 143.141 47.6035 151.133C58.0949 156.957 69.8949 166.9 74.6838 170.745C74.5887 157.437 79.8063 143.197 83.9339 141.076C90.9977 142.579 98.7117 148.095 107.522 130.123C109.211 130.818 112.877 131.35 113.737 130.386C115.238 128.7 111.596 121.403 112.005 118.828C113.986 113.041 116.023 106.026 118.121 97.5174Z" fill="#ED9864"></path><path d="M109.12 117.237C108.85 118.262 107.976 118.938 107.165 118.745C106.355 118.553 105.917 117.565 106.187 116.54C106.458 115.515 107.333 114.84 108.143 115.032C108.953 115.224 109.391 116.211 109.12 117.237Z" fill="#2F2E38"></path><path d="M106.533 114.034C107.453 112.661 109.762 113.314 109.956 114.847C109.436 114.576 108.96 114.164 108.353 114.077C107.785 113.902 107.117 114.002 106.533 114.034Z" fill="#BD7548"></path><path d="M105.058 110.507C104.274 109.523 107.656 107.802 110.35 108.591C112.574 109.242 114.377 111.22 113.132 112.202C111.887 113.184 110.885 111.15 109.493 110.671C108.102 110.193 105.843 111.491 105.058 110.507Z" fill="#2F2E38"></path><path d="M104.285 134.659C102.309 135.305 99.6595 133.919 100.077 131.76C100.537 132.545 100.946 133.132 101.743 133.656C102.533 134.103 103.422 134.369 104.285 134.659Z" fill="#BD7548"></path><path d="M76.9905 111.259C76.1801 108.186 74.7735 105.225 73.116 106.318C71.4585 107.409 70.8492 113.682 75.1202 113.952C74.9724 112.268 74.6133 111.064 76.9905 111.259Z" fill="#CC7E4E"></path><path d="M83.9419 141.077C78.8582 139.252 73.5924 134.384 74.4278 128.867C74.566 130.032 74.7335 131.076 75.1702 132.18C75.6954 133.506 76.6156 134.872 77.6594 135.887C79.4902 137.884 81.6846 139.538 83.9419 141.077Z" fill="#BD7548"></path><path d="M49.5292 145.58C45.8243 147.714 30.9851 159.869 35.0162 241.261C58.6674 241.261 85.4544 241.261 98.3991 241.261C93.0682 214.725 92.2278 197.533 93.2357 188.349C88.5792 179.728 82.3171 165.174 76.453 156.507C70.0329 147.017 57.4232 141.033 49.5292 145.58Z" fill="#3362F7"></path><path d="M66.3649 204.265C62.9197 207.535 63.3717 207.708 61.625 209.367C66.9998 216.767 81.6898 234.341 88.9774 241.261C94.4137 241.261 103.014 241.261 103.014 241.261C103.014 241.261 75.6743 207.837 66.3649 204.265Z" fill="#3362F7"></path><path d="M93.2359 188.349C85.8115 191.253 72.3613 198.57 66.3633 204.265C75.5988 216.767 87.1545 234.37 94.4113 241.26C104.086 241.26 177.189 241.26 199.227 241.26C195.331 237.562 191.232 236.923 185.589 235.774C179.945 234.627 173.494 228.886 157.57 232.713C140.437 229.459 118.466 225.825 108.387 221.423C101.937 209.558 98.1272 197.423 93.2359 188.349Z" fill="#ED9864"></path><path d="M176.922 238.71C179.963 238.293 183.133 238.33 186.186 238.585C187.977 238.747 189.774 238.989 191.501 239.481C191.786 239.564 195.236 240.88 194.928 241.261C193.833 240.485 192.424 240.196 191.106 239.956C189.253 239.62 187.369 239.449 185.49 239.296C182.638 239.063 179.778 238.906 176.922 238.71Z" fill="#BD7548"></path><path d="M61.6208 209.941C61.6084 209.941 61.5967 209.941 61.585 209.941C61.3692 209.927 61.1761 209.807 61.0803 209.624C59.3957 206.426 57.4383 203.177 55.366 199.735C51.9911 194.132 48.5012 188.338 45.7436 182.031C45.6156 181.738 45.7619 181.402 46.0698 181.281C46.3793 181.159 46.7318 181.299 46.8606 181.592C49.5882 187.832 53.0597 193.594 56.4157 199.166C58.3109 202.312 60.1111 205.302 61.7005 208.246C70.2931 196.895 91.7535 188.315 92.6832 187.948C92.9926 187.827 93.3452 187.965 93.4739 188.257C93.6027 188.55 93.4571 188.886 93.1492 189.007C92.9195 189.099 70.0765 198.228 62.1262 209.683C62.0129 209.844 61.8234 209.941 61.6208 209.941Z" fill="#3362F7"></path><path d="M470.393 241.615C438.546 241.615 360.538 241.615 326.877 241.615V82.4292C326.877 80.3154 328.681 78.6022 330.908 78.6022H466.363C468.59 78.6022 470.394 80.3161 470.394 82.4292L470.393 241.615Z" fill="#0CDCF6" fill-opacity="0.9998"></path><path d="M465.152 96.2429H332.117V113.083H465.152V96.2429Z" fill="white"></path><path d="M340.181 99.0496H335.209V103.77H340.181V99.0496Z" fill="#C74B50"></path><path d="M347.568 99.0496H342.596V103.77H347.568V99.0496Z" fill="#F5E3CE"></path><path d="M354.959 99.0496H349.986V103.77H354.959V99.0496Z" fill="#F5E3CE"></path><path d="M362.355 99.0496H357.383V103.77H362.355V99.0496Z" fill="#C74B50"></path><path d="M465.152 118.823H332.117V135.663H465.152V118.823Z" fill="white"></path><path d="M340.181 121.63H335.209V126.351H340.181V121.63Z" fill="#C74B50"></path><path d="M347.568 121.63H342.596V126.351H347.568V121.63Z" fill="#C74B50"></path><path d="M354.959 121.63H349.986V126.351H354.959V121.63Z" fill="#C74B50"></path><path d="M362.355 121.63H357.383V126.351H362.355V121.63Z" fill="#F5E3CE"></path><path d="M465.152 141.403H332.117V158.243H465.152V141.403Z" fill="white"></path><path d="M340.181 144.209H335.209V148.93H340.181V144.209Z" fill="#F5E3CE"></path><path d="M347.568 144.209H342.596V148.93H347.568V144.209Z" fill="#C74B50"></path><path d="M354.959 144.209H349.986V148.93H354.959V144.209Z" fill="#F5E3CE"></path><path d="M362.355 144.209H357.383V148.93H362.355V144.209Z" fill="#C74B50"></path><path d="M465.152 163.984H332.117V180.824H465.152V163.984Z" fill="white"></path><path d="M340.181 166.79H335.209V171.512H340.181V166.79Z" fill="#F5E3CE"></path><path d="M347.568 166.79H342.596V171.512H347.568V166.79Z" fill="#C74B50"></path><path d="M354.959 166.79H349.986V171.512H354.959V166.79Z" fill="#F5E3CE"></path><path d="M362.355 166.79H357.383V171.512H362.355V166.79Z" fill="#F5E3CE"></path><path d="M371.793 86.9631C371.793 87.5443 371.297 88.0158 370.684 88.0158H362.755C362.142 88.0158 361.646 87.5443 361.646 86.9631C361.646 86.3818 362.142 85.9103 362.755 85.9103H370.684C371.298 85.9103 371.793 86.3812 371.793 86.9631Z" fill="white"></path><path d="M387.752 86.9631C387.752 87.5443 387.256 88.0158 386.643 88.0158H378.714C378.101 88.0158 377.605 87.5443 377.605 86.9631C377.605 86.3818 378.101 85.9103 378.714 85.9103H386.643C387.256 85.9103 387.752 86.3812 387.752 86.9631Z" fill="white"></path><path d="M403.711 86.9631C403.711 87.5443 403.215 88.0158 402.602 88.0158H394.673C394.06 88.0158 393.564 87.5443 393.564 86.9631C393.564 86.3818 394.06 85.9103 394.673 85.9103H402.602C403.215 85.9103 403.711 86.3812 403.711 86.9631Z" fill="white"></path><path d="M419.666 86.9631C419.666 87.5443 419.17 88.0158 418.557 88.0158H410.628C410.016 88.0158 409.52 87.5443 409.52 86.9631C409.52 86.3818 410.016 85.9103 410.628 85.9103H418.557C419.17 85.9103 419.666 86.3812 419.666 86.9631Z" fill="white"></path><path d="M435.625 86.9631C435.625 87.5443 435.129 88.0158 434.516 88.0158H426.587C425.975 88.0158 425.479 87.5443 425.479 86.9631C425.479 86.3818 425.975 85.9103 426.587 85.9103H434.517C435.129 85.9103 435.625 86.3812 435.625 86.9631Z" fill="white"></path><path d="M17.5746 241.311C17.5746 241.311 46.6832 241.151 90.3451 240.91C112.176 240.85 137.645 240.781 164.934 240.705C192.224 240.683 221.331 240.66 250.44 240.635C279.548 240.681 308.655 240.728 335.944 240.769C363.234 240.866 388.703 240.955 410.534 241.031C454.196 241.307 483.304 241.49 483.304 241.49C483.377 241.491 483.435 241.546 483.434 241.615C483.433 241.684 483.375 241.738 483.304 241.738C483.304 241.738 454.196 241.923 410.534 242.198C388.703 242.274 363.234 242.363 335.944 242.46C308.655 242.502 279.548 242.548 250.44 242.592C221.331 242.569 192.223 242.546 164.934 242.524C137.645 242.449 112.176 242.379 90.3451 242.319C46.6832 242.078 17.5746 241.918 17.5746 241.918C17.399 241.917 17.2556 241.78 17.2578 241.613C17.2578 241.446 17.4005 241.312 17.5746 241.311Z" fill="#E8CEAE"></path><path d="M211.756 203.718C211.756 204.141 211.395 204.484 210.949 204.484H129.976C129.531 204.484 129.17 204.141 129.17 203.718V160.611C129.17 160.189 129.531 159.846 129.976 159.846H210.95C211.395 159.846 211.757 160.189 211.757 160.611V203.718H211.756Z" fill="#2557F5"></path><path d="M207.355 182.572C207.355 185.532 204.828 187.93 201.71 187.93H139.224C136.107 187.93 133.58 185.532 133.58 182.572V181.758C133.58 178.799 136.107 176.401 139.224 176.401H201.71C204.828 176.401 207.355 178.799 207.355 181.758V182.572Z" fill="white"></path><path d="M143.357 177.778C141.589 177.778 140.151 179.144 140.151 180.822C140.151 181.508 140.401 182.136 140.806 182.646L138.393 185.691C138.192 185.943 138.246 186.304 138.512 186.495C138.621 186.572 138.749 186.609 138.876 186.609C139.059 186.609 139.241 186.53 139.359 186.381L141.708 183.419C142.191 183.696 142.751 183.865 143.356 183.865C145.124 183.865 146.563 182.499 146.563 180.822C146.563 179.143 145.125 177.778 143.357 177.778ZM143.357 182.717C142.811 182.717 142.316 182.507 141.955 182.168C141.952 182.165 141.951 182.162 141.948 182.161C141.946 182.16 141.945 182.16 141.943 182.158C141.583 181.815 141.36 181.343 141.36 180.821C141.36 179.775 142.256 178.926 143.357 178.926C144.458 178.926 145.353 179.775 145.353 180.821C145.353 181.865 144.458 182.717 143.357 182.717Z" fill="#2557F5"></path><path d="M156.343 185.731H150.841C150.507 185.731 150.236 185.473 150.236 185.158C150.236 184.84 150.507 184.583 150.841 184.583H156.343C156.677 184.583 156.948 184.84 156.948 185.158C156.948 185.473 156.677 185.731 156.343 185.731Z" fill="#2557F5"></path><path d="M164.207 185.731H158.704C158.37 185.731 158.1 185.473 158.1 185.158C158.1 184.84 158.37 184.583 158.704 184.583H164.207C164.541 184.583 164.812 184.84 164.812 185.158C164.812 185.473 164.541 185.731 164.207 185.731Z" fill="#2557F5"></path><path d="M172.064 185.731H166.562C166.228 185.731 165.957 185.473 165.957 185.158C165.957 184.84 166.228 184.583 166.562 184.583H172.064C172.398 184.583 172.668 184.84 172.668 185.158C172.668 185.473 172.398 185.731 172.064 185.731Z" fill="#2557F5"></path><path d="M150.826 166.529C150.826 167.427 150.059 168.153 149.114 168.153C148.169 168.153 147.402 167.427 147.402 166.529C147.402 165.632 148.169 164.905 149.114 164.905C150.06 164.905 150.826 165.632 150.826 166.529Z" fill="white"></path><path d="M144.132 166.529C144.132 167.427 143.366 168.153 142.421 168.153C141.476 168.153 140.709 167.427 140.709 166.529C140.709 165.632 141.476 164.905 142.421 164.905C143.366 164.905 144.132 165.632 144.132 166.529Z" fill="white"></path><path d="M137.439 166.529C137.439 167.427 136.672 168.153 135.727 168.153C134.782 168.153 134.016 167.427 134.016 166.529C134.016 165.632 134.782 164.905 135.727 164.905C136.672 164.905 137.439 165.632 137.439 166.529Z" fill="white"></path><path d="M277.971 230.899C273.401 221.778 282.673 198.814 309.482 201.302C321.173 182.165 359.874 178.529 369.146 209.913C384.264 206.277 397.567 220.055 392.461 230.899C377.411 230.899 313.447 230.899 277.971 230.899Z" fill="#2557F5"></path><path d="M353.623 202.833H320.162V204.747H353.623V202.833Z" fill="white"></path><path d="M353.623 208.759H320.162V210.672H353.623V208.759Z" fill="white"></path><path d="M353.623 214.683H320.162V216.596H353.623V214.683Z" fill="white"></path><path d="M353.623 220.608H320.162V222.522H353.623V220.608Z" fill="white"></path><path d="M322.275 119.615C324.848 114.48 319.629 101.555 304.539 102.956C297.958 92.1838 276.175 90.138 270.956 107.802C262.447 105.756 254.959 113.511 257.832 119.615C266.304 119.615 302.307 119.615 322.275 119.615Z" fill="#2557F5"></path><path d="M288.609 110.985L283.471 108.994V107.574L288.609 105.583V106.762L284.402 108.356V108.212L288.609 109.806V110.985Z" fill="white"></path><path d="M289.291 114.298L291.597 103.135H293.079L290.774 114.298H289.291Z" fill="white"></path><path d="M293.766 110.985V109.806L297.973 108.212V108.356L293.766 106.762V105.583L298.904 107.574V108.994L293.766 110.985Z" fill="white"></path><path d="M208.853 130.175C208.853 130.597 208.493 130.94 208.047 130.94H154.547C154.102 130.94 153.74 130.597 153.74 130.175V71.3483C153.74 70.9254 154.102 70.5831 154.547 70.5831H208.047C208.492 70.5831 208.853 70.9261 208.853 71.3483V130.175Z" fill="#E8CEAE"></path><path d="M204.478 124.935C204.478 125.358 204.117 125.701 203.671 125.701H150.171C149.727 125.701 149.365 125.358 149.365 124.935V66.1096C149.365 65.6874 149.726 65.3444 150.171 65.3444H203.671C204.116 65.3444 204.478 65.6874 204.478 66.1096V124.935Z" fill="#2557F5"></path><path d="M202.18 74.226H152.191V123.391H202.18V74.226Z" fill="white"></path><path d="M169.006 69.6692C169.006 70.5664 168.239 71.2941 167.294 71.2941C166.349 71.2941 165.582 70.5671 165.582 69.6692C165.582 68.772 166.349 68.0449 167.294 68.0449C168.239 68.0449 169.006 68.772 169.006 69.6692Z" fill="white"></path><path d="M162.307 69.6692C162.307 70.5664 161.54 71.2941 160.595 71.2941C159.649 71.2941 158.883 70.5671 158.883 69.6692C158.883 68.772 159.649 68.0449 160.595 68.0449C161.54 68.0449 162.307 68.772 162.307 69.6692Z" fill="white"></path><path d="M155.613 69.6692C155.613 70.5664 154.847 71.2941 153.902 71.2941C152.956 71.2941 152.189 70.5671 152.189 69.6692C152.189 68.772 152.956 68.0449 153.902 68.0449C154.847 68.0449 155.613 68.772 155.613 69.6692Z" fill="white"></path><path d="M198.033 81.2418H164.538C164.315 81.2418 164.135 81.0703 164.135 80.8592C164.135 80.6474 164.315 80.4766 164.538 80.4766H198.033C198.256 80.4766 198.436 80.6474 198.436 80.8592C198.435 81.0703 198.255 81.2418 198.033 81.2418Z" fill="#2557F5"></path><path d="M198.035 84.5591H156.746C156.522 84.5591 156.342 84.3876 156.342 84.1764C156.342 83.9646 156.522 83.7938 156.746 83.7938H198.035C198.258 83.7938 198.438 83.9653 198.438 84.1764C198.437 84.3876 198.257 84.5591 198.035 84.5591Z" fill="#2557F5"></path><path d="M198.035 87.8757H156.746C156.522 87.8757 156.342 87.7048 156.342 87.493C156.342 87.2812 156.522 87.1104 156.746 87.1104H198.035C198.258 87.1104 198.438 87.2819 198.438 87.493C198.437 87.7048 198.257 87.8757 198.035 87.8757Z" fill="#2557F5"></path><path d="M198.035 91.193H156.746C156.522 91.193 156.342 91.0215 156.342 90.8104C156.342 90.5993 156.522 90.4277 156.746 90.4277H198.035C198.258 90.4277 198.438 90.5986 198.438 90.8104C198.438 91.0222 198.257 91.193 198.035 91.193Z" fill="#2557F5"></path><path d="M198.035 94.5101H156.746C156.522 94.5101 156.342 94.3393 156.342 94.1275C156.342 93.9157 156.522 93.7449 156.746 93.7449H198.035C198.258 93.7449 198.438 93.9164 198.438 94.1275C198.438 94.3386 198.257 94.5101 198.035 94.5101Z" fill="#2557F5"></path><path d="M178.515 97.8268H156.746C156.522 97.8268 156.342 97.6559 156.342 97.4441C156.342 97.2323 156.522 97.0615 156.746 97.0615H178.515C178.738 97.0615 178.918 97.2323 178.918 97.4441C178.918 97.6559 178.738 97.8268 178.515 97.8268Z" fill="#2557F5"></path><path d="M198.031 101.144H184.643C184.42 101.144 184.24 100.973 184.24 100.761C184.24 100.55 184.42 100.379 184.643 100.379H198.031C198.254 100.379 198.434 100.55 198.434 100.761C198.434 100.973 198.254 101.144 198.031 101.144Z" fill="#2557F5"></path><path d="M198.032 104.461H178.512C178.289 104.461 178.109 104.29 178.109 104.079C178.109 103.867 178.289 103.696 178.512 103.696H198.032C198.255 103.696 198.435 103.868 198.435 104.079C198.435 104.29 198.255 104.461 198.032 104.461Z" fill="#2557F5"></path><path d="M198.032 107.778H178.512C178.289 107.778 178.109 107.607 178.109 107.395C178.109 107.183 178.289 107.013 178.512 107.013H198.032C198.255 107.013 198.435 107.184 198.435 107.395C198.435 107.606 198.255 107.778 198.032 107.778Z" fill="#2557F5"></path><path d="M198.032 111.095H178.512C178.289 111.095 178.109 110.924 178.109 110.713C178.109 110.501 178.289 110.33 178.512 110.33H198.032C198.255 110.33 198.435 110.501 198.435 110.713C198.435 110.924 198.255 111.095 198.032 111.095Z" fill="#2557F5"></path><path d="M198.032 114.412H178.512C178.289 114.412 178.109 114.241 178.109 114.03C178.109 113.819 178.289 113.647 178.512 113.647H198.032C198.255 113.647 198.435 113.818 198.435 114.03C198.435 114.242 198.255 114.412 198.032 114.412Z" fill="#2557F5"></path><path d="M189.421 117.729H178.512C178.289 117.729 178.109 117.558 178.109 117.346C178.109 117.135 178.289 116.964 178.512 116.964H189.421C189.644 116.964 189.825 117.135 189.825 117.346C189.825 117.557 189.644 117.729 189.421 117.729Z" fill="#2557F5"></path><path d="M175.029 102.293H156.754V118.878H175.029V102.293Z" fill="#2557F5"></path><path d="M481.902 169.894C485.75 162.211 477.941 142.872 455.362 144.967C445.516 128.852 412.921 125.789 405.113 152.218C392.381 149.157 381.177 160.762 385.477 169.894C398.152 169.894 452.024 169.894 481.902 169.894Z" fill="#2557F5"></path><path d="M429.84 157.74L422.15 154.762V152.637L429.84 149.657V151.422L423.544 153.808V153.591L429.84 155.976V157.74Z" fill="white"></path><path d="M430.861 162.7L434.312 145.996H436.53L433.079 162.7H430.861Z" fill="white"></path><path d="M437.561 157.74V155.977L443.856 153.591V153.809L437.561 151.423V149.658L445.25 152.638V154.762L437.561 157.74Z" fill="white"></path><path d="M303.724 91.9284C303.524 91.9284 303.323 91.8583 303.167 91.7166C303.161 91.7125 302.657 91.2555 301.693 90.4972C301.349 90.2271 301.302 89.7452 301.586 89.4195C301.869 89.0938 302.377 89.0473 302.721 89.3188C303.735 90.116 304.259 90.5903 304.281 90.6104C304.602 90.9021 304.613 91.3868 304.306 91.693C304.148 91.8493 303.936 91.9284 303.724 91.9284Z" fill="#2557F5"></path><path d="M298.944 88.2854C298.78 88.2854 298.614 88.2382 298.472 88.1396C297.397 87.4 296.266 86.6646 295.11 85.9528C294.736 85.7223 294.63 85.2487 294.872 84.8938C295.115 84.539 295.614 84.4383 295.987 84.6682C297.167 85.3945 298.321 86.1452 299.417 86.9C299.778 87.1479 299.858 87.6271 299.597 87.9695C299.441 88.1764 299.194 88.2854 298.944 88.2854ZM292.042 84.0293C291.904 84.0293 291.765 83.996 291.637 83.9251C290.475 83.2828 289.274 82.6522 288.065 82.0523C287.671 81.8564 287.519 81.3932 287.725 81.0189C287.931 80.6447 288.417 80.4995 288.813 80.696C290.043 81.3064 291.266 81.9481 292.448 82.6022C292.832 82.8154 292.962 83.2842 292.738 83.6494C292.59 83.8932 292.319 84.0293 292.042 84.0293ZM284.75 80.4058C284.637 80.4058 284.52 80.3829 284.409 80.3336C283.184 79.7898 281.928 79.2641 280.676 78.7704C280.265 78.6086 280.07 78.1607 280.241 77.7704C280.412 77.3795 280.883 77.1941 281.295 77.3572C282.568 77.8593 283.846 78.3947 285.092 78.9475C285.495 79.1266 285.669 79.5822 285.48 79.9648C285.344 80.2426 285.054 80.4058 284.75 80.4058ZM277.151 77.41C277.059 77.41 276.966 77.3954 276.875 77.3635C275.602 76.9225 274.302 76.5031 273.012 76.1156C272.588 75.9878 272.352 75.558 272.486 75.1545C272.621 74.7518 273.072 74.5282 273.499 74.6559C274.811 75.0504 276.133 75.4774 277.427 75.9253C277.846 76.0705 278.061 76.5093 277.909 76.9066C277.789 77.217 277.48 77.41 277.151 77.41ZM269.307 75.0545C269.237 75.0545 269.167 75.0462 269.097 75.0281C267.792 74.6948 266.458 74.383 265.135 74.1032C264.7 74.0108 264.425 73.6018 264.524 73.1893C264.621 72.7761 265.055 72.5185 265.485 72.6095C266.832 72.8949 268.187 73.2108 269.515 73.5504C269.945 73.6601 270.201 74.0803 270.085 74.4886C269.988 74.8295 269.662 75.0545 269.307 75.0545ZM224.452 73.7448C224.072 73.7448 223.735 73.49 223.661 73.1226C223.578 72.7074 223.864 72.3067 224.302 72.2275C225.661 71.981 227.035 71.7574 228.387 71.5609C228.828 71.4991 229.238 71.7845 229.306 72.2018C229.373 72.6199 229.07 73.0108 228.63 73.074C227.298 73.2671 225.944 73.4879 224.604 73.731C224.553 73.74 224.503 73.7448 224.452 73.7448ZM261.276 73.3539C261.229 73.3539 261.181 73.3504 261.135 73.3414C259.803 73.1171 258.447 72.9164 257.103 72.7449C256.661 72.6886 256.352 72.3032 256.411 71.8845C256.47 71.465 256.872 71.1727 257.317 71.2275C258.684 71.4018 260.063 71.6053 261.416 71.8345C261.854 71.9088 262.146 72.306 262.069 72.722C261.999 73.0935 261.66 73.3539 261.276 73.3539ZM232.586 72.5671C232.181 72.5671 231.833 72.2789 231.786 71.8886C231.736 71.4685 232.053 71.0894 232.496 71.0414C233.869 70.8928 235.258 70.7685 236.624 70.6727C237.066 70.6394 237.456 70.9574 237.489 71.3789C237.521 71.8004 237.188 72.1678 236.744 72.199C235.399 72.2942 234.032 72.4164 232.678 72.5622C232.646 72.5657 232.616 72.5671 232.586 72.5671ZM253.122 72.3157C253.098 72.3157 253.074 72.315 253.048 72.3129C251.702 72.197 250.333 72.106 248.978 72.0435C248.533 72.0227 248.191 71.6636 248.211 71.2414C248.233 70.8192 248.611 70.4935 249.056 70.5144C250.434 70.5783 251.826 70.6699 253.195 70.788C253.637 70.8269 253.965 71.1991 253.924 71.6199C253.887 72.0171 253.535 72.3157 253.122 72.3157ZM240.791 71.99C240.358 71.99 240 71.6643 239.985 71.2505C239.97 70.8282 240.319 70.4734 240.763 70.4595C241.919 70.422 243.081 70.4033 244.218 70.4033L244.909 70.4053C245.355 70.4081 245.714 70.7533 245.711 71.1762C245.707 71.5984 245.358 71.9623 244.899 71.9366L244.218 71.9345C243.1 71.9345 241.956 71.9525 240.818 71.9893C240.81 71.99 240.8 71.99 240.791 71.99Z" fill="#2557F5"></path><path d="M218.451 74.9913C218.089 74.9913 217.761 74.758 217.67 74.4094C217.563 73.999 217.827 73.5844 218.26 73.483C218.921 73.3275 219.579 73.1796 220.234 73.0372C220.672 72.94 221.1 73.2004 221.2 73.6122C221.3 74.0247 221.028 74.4351 220.594 74.5289C219.947 74.6698 219.298 74.8156 218.646 74.9684C218.581 74.9844 218.516 74.9913 218.451 74.9913Z" fill="#2557F5"></path><path d="M216.703 75.7684C216.703 77.0622 215.599 78.1101 214.236 78.1101C212.874 78.1101 211.77 77.0615 211.77 75.7684C211.77 74.4747 212.874 73.4261 214.236 73.4261C215.599 73.4261 216.703 74.4747 216.703 75.7684Z" fill="#2557F5"></path><path d="M310.01 94.6894C310.01 95.9831 308.905 97.0317 307.543 97.0317C306.181 97.0317 305.076 95.9831 305.076 94.6894C305.076 93.3957 306.181 92.3478 307.543 92.3478C308.905 92.3478 310.01 93.3957 310.01 94.6894Z" fill="#2557F5"></path><path d="M280.974 131.259C280.539 131.259 280.18 130.93 280.168 130.515C280.132 129.278 280.189 128.556 280.191 128.526C280.225 128.105 280.614 127.785 281.056 127.821C281.499 127.853 281.832 128.22 281.8 128.642C281.799 128.648 281.748 129.324 281.781 130.473C281.793 130.896 281.442 131.248 280.998 131.259C280.989 131.259 280.982 131.259 280.974 131.259Z" fill="#2557F5"></path><path d="M310.605 166.122C310.528 166.122 310.449 166.112 310.371 166.089C308.983 165.691 307.621 165.244 306.326 164.766C305.912 164.612 305.706 164.169 305.868 163.774C306.03 163.379 306.497 163.185 306.912 163.34C308.169 163.804 309.49 164.236 310.839 164.625C311.265 164.747 311.507 165.175 311.377 165.579C311.271 165.909 310.951 166.122 310.605 166.122ZM302.756 163.21C302.637 163.21 302.515 163.184 302.401 163.132C301.102 162.524 299.837 161.861 298.643 161.159C298.264 160.939 298.146 160.466 298.381 160.107C298.614 159.746 299.112 159.636 299.491 159.857C300.641 160.532 301.861 161.172 303.113 161.757C303.513 161.945 303.677 162.403 303.481 162.782C303.34 163.053 303.054 163.21 302.756 163.21ZM295.598 158.999C295.427 158.999 295.252 158.946 295.106 158.839C293.962 158 292.866 157.1 291.848 156.164C291.528 155.871 291.521 155.386 291.83 155.082C292.14 154.778 292.65 154.771 292.97 155.064C293.946 155.961 294.997 156.823 296.092 157.628C296.445 157.886 296.51 158.367 296.237 158.701C296.078 158.896 295.839 158.999 295.598 158.999ZM289.552 153.434C289.319 153.434 289.087 153.339 288.928 153.155C288.021 152.103 287.168 150.99 286.395 149.844C286.155 149.488 286.263 149.014 286.637 148.785C287.012 148.556 287.51 148.66 287.751 149.017C288.492 150.112 289.307 151.178 290.175 152.183C290.458 152.512 290.406 152.993 290.062 153.262C289.914 153.378 289.732 153.434 289.552 153.434ZM285.003 146.706C284.705 146.706 284.419 146.549 284.279 146.278C283.653 145.066 283.086 143.8 282.596 142.513C282.445 142.116 282.662 141.677 283.08 141.534C283.497 141.391 283.961 141.595 284.112 141.993C284.582 143.227 285.126 144.442 285.726 145.604C285.922 145.983 285.757 146.442 285.357 146.628C285.243 146.681 285.122 146.706 285.003 146.706ZM282.13 139.184C281.768 139.184 281.439 138.95 281.348 138.602C281.006 137.283 280.732 135.933 280.533 134.589C280.471 134.17 280.779 133.783 281.221 133.724C281.661 133.662 282.069 133.957 282.131 134.376C282.322 135.668 282.585 136.967 282.914 138.235C283.02 138.645 282.756 139.06 282.324 139.161C282.26 139.177 282.194 139.184 282.13 139.184Z" fill="#2557F5"></path><path d="M316.687 167.556C316.635 167.556 316.583 167.552 316.529 167.541C315.851 167.413 315.186 167.278 314.535 167.137C314.1 167.042 313.829 166.631 313.929 166.22C314.029 165.808 314.463 165.55 314.895 165.645C315.532 165.784 316.182 165.915 316.842 166.04C317.28 166.122 317.564 166.525 317.477 166.939C317.401 167.303 317.064 167.556 316.687 167.556Z" fill="#2557F5"></path><path d="M283.459 123.991C283.459 125.284 282.354 126.332 280.993 126.332C279.631 126.332 278.525 125.284 278.525 123.991C278.525 122.697 279.631 121.648 280.993 121.648C282.355 121.648 283.459 122.697 283.459 123.991Z" fill="#2557F5"></path><path d="M323.584 166.79C323.584 168.084 322.479 169.131 321.117 169.131C319.756 169.131 318.65 168.084 318.65 166.79C318.65 165.496 319.756 164.448 321.117 164.448C322.479 164.448 323.584 165.496 323.584 166.79Z" fill="#2557F5"></path><path d="M227.531 222.441C227.287 222.441 227.046 222.337 226.888 222.137C226.092 221.141 225.698 220.554 225.682 220.53C225.444 220.173 225.555 219.701 225.931 219.474C226.308 219.246 226.804 219.352 227.043 219.709C227.047 219.715 227.422 220.274 228.173 221.213C228.441 221.549 228.372 222.031 228.017 222.286C227.871 222.391 227.7 222.441 227.531 222.441Z" fill="#2557F5"></path><path d="M289.762 249.195C289.379 249.195 288.997 249.192 288.617 249.189C288.173 249.184 287.815 248.838 287.819 248.415C287.824 247.995 288.184 247.658 288.625 247.658C288.628 247.658 288.631 247.658 288.634 247.658C289.964 247.672 291.319 247.661 292.696 247.623C292.704 247.623 292.711 247.623 292.72 247.623C293.154 247.623 293.512 247.951 293.526 248.366C293.539 248.787 293.188 249.14 292.744 249.154C291.737 249.182 290.744 249.195 289.762 249.195ZM284.536 249.062C284.521 249.062 284.507 249.062 284.492 249.061C283.106 248.99 281.721 248.89 280.377 248.764C279.934 248.723 279.609 248.347 279.654 247.927C279.697 247.507 280.072 247.2 280.535 247.241C281.857 247.364 283.218 247.462 284.58 247.534C285.024 247.555 285.365 247.917 285.34 248.339C285.318 248.746 284.961 249.062 284.536 249.062ZM296.808 248.964C296.387 248.964 296.032 248.654 296.003 248.251C295.973 247.828 296.309 247.463 296.753 247.435C298.081 247.349 299.444 247.237 300.801 247.101C301.234 247.053 301.64 247.36 301.687 247.782C301.734 248.201 301.413 248.578 300.97 248.623C299.593 248.761 298.211 248.875 296.863 248.963C296.845 248.963 296.825 248.964 296.808 248.964ZM276.395 248.298C276.356 248.298 276.318 248.296 276.278 248.29C274.918 248.102 273.548 247.882 272.206 247.634C271.769 247.554 271.484 247.153 271.568 246.737C271.653 246.322 272.078 246.05 272.513 246.131C273.831 246.374 275.176 246.591 276.51 246.776C276.952 246.837 277.257 247.224 277.193 247.642C277.133 248.023 276.79 248.298 276.395 248.298ZM304.948 248.151C304.553 248.151 304.208 247.875 304.151 247.493C304.089 247.073 304.394 246.686 304.836 246.628C306.166 246.448 307.518 246.245 308.853 246.021C309.289 245.952 309.709 246.228 309.787 246.644C309.863 247.061 309.57 247.458 309.131 247.531C307.779 247.755 306.41 247.962 305.062 248.143C305.023 248.148 304.985 248.151 304.948 248.151ZM268.363 246.814C268.299 246.814 268.234 246.807 268.17 246.793C266.838 246.483 265.496 246.137 264.182 245.762C263.756 245.64 263.513 245.214 263.641 244.809C263.769 244.403 264.217 244.173 264.645 244.295C265.934 244.662 267.249 245.003 268.555 245.305C268.987 245.408 269.252 245.822 269.146 246.232C269.055 246.582 268.725 246.814 268.363 246.814ZM313.012 246.808C312.637 246.808 312.303 246.56 312.223 246.198C312.132 245.785 312.412 245.378 312.847 245.293C314.173 245.03 315.509 244.745 316.818 244.445C317.256 244.347 317.687 244.6 317.79 245.01C317.895 245.421 317.627 245.835 317.196 245.934C315.87 246.236 314.519 246.524 313.177 246.789C313.121 246.803 313.066 246.808 313.012 246.808ZM320.972 244.992C320.616 244.992 320.291 244.768 320.194 244.426C320.077 244.019 320.331 243.599 320.76 243.489C322.042 243.159 323.36 242.801 324.676 242.426C325.107 242.305 325.551 242.534 325.68 242.938C325.808 243.344 325.566 243.771 325.14 243.893C323.81 244.271 322.478 244.633 321.183 244.966C321.112 244.984 321.042 244.992 320.972 244.992ZM260.525 244.584C260.435 244.584 260.343 244.57 260.253 244.54C258.953 244.099 257.654 243.623 256.397 243.125C255.985 242.962 255.791 242.513 255.963 242.124C256.134 241.733 256.607 241.549 257.017 241.712C258.25 242.199 259.522 242.665 260.796 243.098C261.215 243.24 261.434 243.678 261.284 244.077C261.166 244.388 260.855 244.584 260.525 244.584ZM328.814 242.76C328.474 242.76 328.159 242.555 328.048 242.233C327.909 241.831 328.139 241.399 328.561 241.266C329.834 240.87 331.118 240.452 332.416 240.013C332.837 239.872 333.296 240.079 333.447 240.478C333.595 240.875 333.376 241.313 332.957 241.456C331.647 241.899 330.35 242.319 329.066 242.721C328.981 242.747 328.897 242.76 328.814 242.76ZM252.971 241.593C252.855 241.593 252.735 241.569 252.622 241.517C251.386 240.954 250.148 240.349 248.943 239.722C248.553 239.518 248.409 239.054 248.623 238.683C248.837 238.313 249.327 238.176 249.717 238.38C250.899 238.995 252.11 239.585 253.32 240.138C253.721 240.321 253.89 240.778 253.698 241.159C253.56 241.433 253.271 241.593 252.971 241.593ZM245.795 237.856C245.65 237.856 245.503 237.818 245.371 237.741C244.204 237.054 243.042 236.327 241.915 235.578C241.55 235.335 241.462 234.858 241.717 234.512C241.973 234.166 242.476 234.081 242.84 234.323C243.942 235.056 245.081 235.768 246.221 236.44C246.6 236.663 246.715 237.135 246.481 237.495C246.328 237.728 246.065 237.856 245.795 237.856ZM239.089 233.4C238.915 233.4 238.74 233.347 238.592 233.237C237.505 232.426 236.434 231.581 235.408 230.723C235.075 230.443 235.043 229.96 235.337 229.643C235.631 229.325 236.141 229.294 236.475 229.575C237.477 230.413 238.524 231.24 239.587 232.032C239.938 232.294 239.999 232.775 239.724 233.106C239.565 233.301 239.328 233.4 239.089 233.4ZM232.95 228.259C232.744 228.259 232.539 228.186 232.382 228.039C231.388 227.102 230.428 226.141 229.53 225.181C229.234 224.864 229.264 224.381 229.597 224.1C229.93 223.818 230.44 223.848 230.735 224.164C231.611 225.101 232.548 226.038 233.518 226.951C233.835 227.25 233.837 227.734 233.523 228.034C233.364 228.184 233.157 228.259 232.95 228.259Z" fill="#2557F5"></path><path d="M336.552 240.144C336.228 240.144 335.922 239.958 335.799 239.654C335.641 239.259 335.848 238.815 336.265 238.665C336.886 238.44 337.508 238.209 338.135 237.974C338.548 237.818 339.017 238.011 339.181 238.404C339.346 238.797 339.142 239.242 338.729 239.397C338.097 239.635 337.467 239.867 336.841 240.094C336.745 240.129 336.649 240.144 336.552 240.144Z" fill="#2557F5"></path><path d="M345.066 236.158C345.066 237.452 343.961 238.499 342.599 238.499C341.237 238.499 340.133 237.452 340.133 236.158C340.133 234.865 341.237 233.816 342.599 233.816C343.962 233.816 345.066 234.865 345.066 236.158Z" fill="#2557F5"></path><path d="M226.064 216.597C226.064 217.89 224.959 218.939 223.597 218.939C222.235 218.939 221.131 217.89 221.131 216.597C221.131 215.303 222.235 214.256 223.597 214.256C224.959 214.256 226.064 215.303 226.064 216.597Z" fill="#2557F5"></path><path d="M404.655 220.234C404.619 220.234 404.581 220.233 404.544 220.227C403.258 220.059 402.54 219.923 402.51 219.918C402.073 219.835 401.79 219.431 401.877 219.017C401.964 218.604 402.391 218.329 402.825 218.417C402.833 218.417 403.533 218.549 404.765 218.711C405.205 218.768 405.514 219.155 405.453 219.574C405.398 219.958 405.052 220.234 404.655 220.234Z" fill="#2557F5"></path><path d="M416.423 220.876C415.984 220.876 415.624 220.541 415.617 220.123C415.609 219.7 415.966 219.351 416.41 219.344C417.706 219.324 419.015 219.272 420.303 219.192C420.743 219.169 421.131 219.484 421.16 219.905C421.19 220.328 420.854 220.692 420.409 220.719C419.094 220.802 417.758 220.855 416.437 220.876C416.432 220.876 416.428 220.876 416.423 220.876ZM412.49 220.846C412.481 220.846 412.473 220.846 412.464 220.846C411.14 220.806 409.805 220.735 408.497 220.634C408.053 220.6 407.723 220.23 407.759 219.809C407.794 219.387 408.19 219.081 408.627 219.108C409.91 219.207 411.218 219.276 412.514 219.314C412.958 219.327 413.308 219.681 413.295 220.103C413.281 220.519 412.923 220.846 412.49 220.846ZM424.274 220.379C423.871 220.379 423.523 220.093 423.474 219.703C423.421 219.284 423.737 218.903 424.18 218.853C425.473 218.708 426.769 218.527 428.03 218.318C428.467 218.247 428.887 218.524 428.963 218.941C429.039 219.358 428.746 219.753 428.308 219.826C427.017 220.04 425.693 220.224 424.37 220.373C424.338 220.378 424.306 220.379 424.274 220.379ZM432.021 219.088C431.656 219.088 431.326 218.851 431.238 218.498C431.135 218.087 431.404 217.674 431.836 217.577C433.109 217.291 434.371 216.968 435.584 216.617C436.011 216.489 436.461 216.719 436.591 217.125C436.722 217.529 436.481 217.956 436.055 218.08C434.809 218.442 433.514 218.773 432.208 219.066C432.146 219.081 432.083 219.088 432.021 219.088ZM439.541 216.904C439.217 216.904 438.911 216.717 438.788 216.412C438.629 216.017 438.839 215.575 439.255 215.424C440.469 214.985 441.669 214.502 442.823 213.991C443.227 213.815 443.706 213.977 443.894 214.361C444.083 214.744 443.909 215.199 443.505 215.379C442.317 215.905 441.081 216.403 439.83 216.856C439.735 216.89 439.637 216.904 439.541 216.904ZM446.661 213.742C446.379 213.742 446.106 213.603 445.958 213.354C445.738 212.986 445.876 212.518 446.263 212.311C447.387 211.707 448.494 211.056 449.549 210.378C449.918 210.142 450.419 210.231 450.668 210.583C450.919 210.933 450.821 211.408 450.453 211.646C449.361 212.347 448.218 213.02 447.056 213.642C446.931 213.71 446.795 213.742 446.661 213.742ZM453.161 209.557C452.926 209.557 452.692 209.461 452.533 209.272C452.254 208.944 452.308 208.461 452.654 208.197C453.657 207.429 454.632 206.614 455.552 205.776C455.873 205.484 456.384 205.493 456.693 205.799C457.001 206.104 456.99 206.588 456.669 206.882C455.716 207.75 454.706 208.593 453.668 209.388C453.518 209.503 453.338 209.557 453.161 209.557ZM458.829 204.4C458.639 204.4 458.45 204.338 458.295 204.211C457.962 203.93 457.929 203.447 458.223 203.13C459.064 202.221 459.881 201.262 460.651 200.279C460.917 199.94 461.421 199.871 461.779 200.121C462.136 200.373 462.21 200.853 461.946 201.193C461.15 202.21 460.305 203.202 459.434 204.141C459.274 204.312 459.052 204.4 458.829 204.4ZM463.51 198.419C463.365 198.419 463.217 198.382 463.084 198.303C462.706 198.079 462.591 197.607 462.828 197.248C463.499 196.227 464.146 195.155 464.75 194.062C464.956 193.688 465.443 193.546 465.839 193.741C466.233 193.937 466.386 194.4 466.178 194.774C465.555 195.901 464.887 197.007 464.194 198.059C464.042 198.294 463.779 198.419 463.51 198.419ZM467.163 191.822C467.056 191.822 466.945 191.802 466.841 191.758C466.433 191.589 466.247 191.137 466.426 190.751C466.936 189.641 467.418 188.492 467.86 187.333C468.012 186.936 468.475 186.729 468.892 186.873C469.311 187.017 469.528 187.455 469.376 187.854C468.923 189.043 468.427 190.224 467.903 191.364C467.77 191.651 467.474 191.822 467.163 191.822Z" fill="#2557F5"></path><path d="M469.851 184.774C469.775 184.774 469.699 184.764 469.622 184.743C469.196 184.623 468.952 184.197 469.078 183.792C469.264 183.194 469.442 182.588 469.613 181.97C469.727 181.562 470.169 181.319 470.598 181.425C471.029 181.534 471.286 181.952 471.172 182.361C470.998 182.992 470.815 183.615 470.624 184.227C470.521 184.559 470.2 184.774 469.851 184.774Z" fill="#2557F5"></path><path d="M400.436 217.778C400.436 219.071 399.33 220.12 397.968 220.12C396.606 220.12 395.502 219.071 395.502 217.778C395.502 216.484 396.606 215.435 397.968 215.435C399.33 215.435 400.436 216.484 400.436 217.778Z" fill="#2557F5"></path><path d="M474.08 177.337C474.08 178.631 472.976 179.679 471.614 179.679C470.252 179.679 469.146 178.631 469.146 177.337C469.146 176.043 470.252 174.995 471.614 174.995C472.976 174.995 474.08 176.043 474.08 177.337Z" fill="#2557F5"></path></svg>