<svg xmlns="http://www.w3.org/2000/svg" width="336" height="265" viewBox="0 0 336 265" fill="none"><path d="M198.992 221.488V260.231H271.291V208.453" stroke="#BCBEC0" stroke-width="4" stroke-miterlimit="10" stroke-linecap="round" stroke-linejoin="round"></path><path d="M225.453 195.343H254.341" stroke="#BCBEC0" stroke-width="4" stroke-miterlimit="10" stroke-linecap="round" stroke-linejoin="round"></path><path d="M248.098 121.713V178.02" stroke="#BCBEC0" stroke-width="4" stroke-miterlimit="10" stroke-linecap="round" stroke-linejoin="round"></path><path d="M90.9688 124.299V180.605" stroke="#BCBEC0" stroke-width="4" stroke-miterlimit="10" stroke-linecap="round" stroke-linejoin="round"></path><path d="M291.738 53.7554V110.786" stroke="#BCBEC0" stroke-width="4" stroke-miterlimit="10" stroke-linecap="round" stroke-linejoin="round"></path><path d="M278.759 35.561H207.871" stroke="#BCBEC0" stroke-width="4" stroke-miterlimit="10" stroke-linecap="round" stroke-linejoin="round"></path><path d="M52.0703 39.4722H143.056" stroke="#BCBEC0" stroke-width="4" stroke-miterlimit="10" stroke-linecap="round" stroke-linejoin="round"></path><path d="M33.2969 45.5559V123.168" stroke="#BCBEC0" stroke-width="4" stroke-miterlimit="10" stroke-linecap="round" stroke-linejoin="round"></path><path d="M77.5039 197.594V262.041H134.334V231.083" stroke="#BCBEC0" stroke-width="4" stroke-miterlimit="10" stroke-linecap="round" stroke-linejoin="round"></path><path d="M66.0912 218.592H21.9258V168.625" stroke="#BCBEC0" stroke-width="4" stroke-miterlimit="10" stroke-linecap="round" stroke-linejoin="round"></path><path d="M79.0995 163.918C79.0995 171.517 72.5024 177.677 64.3653 177.677H14.7342C6.59705 177.677 0 171.517 0 163.918V117.572C0 109.972 6.59705 103.813 14.7342 103.813H64.3653C72.5024 103.813 79.0995 109.972 79.0995 117.572V163.918Z" fill="#3E546B"></path><path d="M46.4903 134.779C44.8447 135.341 43.4131 136.315 42.3438 137.575C43.3697 139.165 43.9707 141.02 43.9707 143.011C43.9707 145.001 43.3705 146.856 42.3438 148.445C43.4131 149.705 44.8447 150.68 46.4903 151.242C48.118 148.863 49.0641 146.041 49.0641 143.011C49.0641 139.979 48.1172 137.157 46.4903 134.779Z" fill="#FBB040"></path><path d="M35.1053 153.312C34.3198 153.473 33.5063 153.565 32.6695 153.565C26.4269 153.565 21.3676 148.84 21.3676 143.011C21.3676 137.182 26.4276 132.456 32.6695 132.456C33.5063 132.456 34.3198 132.547 35.1053 132.708C36.2685 131.274 37.6706 130.018 39.2518 128.987C37.2371 128.161 35.0115 127.699 32.6703 127.699C23.6142 127.699 16.2734 134.554 16.2734 143.011C16.2734 151.466 23.6142 158.322 32.6703 158.322C35.0123 158.322 37.2379 157.86 39.2518 157.034C37.6706 156.002 36.2685 154.746 35.1053 153.312Z" fill="#FBB040"></path><path d="M49.6976 127.699C40.6415 127.699 33.3008 134.554 33.3008 143.011C33.3008 151.466 40.6415 158.322 49.6976 158.322C58.753 158.322 66.0937 151.466 66.0937 143.011C66.0937 134.554 58.753 127.699 49.6976 127.699ZM49.6976 153.565C43.455 153.565 38.3957 148.84 38.3957 143.011C38.3957 137.182 43.455 132.456 49.6976 132.456C55.9403 132.456 60.9996 137.182 60.9996 143.011C61.0003 148.84 55.9403 153.565 49.6976 153.565Z" fill="#FBB040"></path><path d="M33.3037 130.092L27.8086 125.648L30.5561 123.168H36.052L38.7995 125.648L33.3037 130.092Z" fill="white"></path><path opacity="0.2" d="M64.3653 103.813H14.7342C6.59705 103.813 0 109.972 0 117.572V163.918C0 167.289 1.30281 170.374 3.45789 172.766L75.3221 108.397C72.625 105.589 68.7219 103.813 64.3653 103.813Z" fill="white"></path><path d="M279.741 121.832C279.741 127.345 274.955 131.814 269.052 131.814H233.045C227.142 131.814 222.355 127.345 222.355 121.832V88.2076C222.355 82.6946 227.142 78.2258 233.045 78.2258H269.052C274.955 78.2258 279.741 82.6946 279.741 88.2076V121.832Z" fill="#FBB040"></path><path d="M268.871 92.8744C265.642 89.8598 260.406 89.8598 257.177 92.8752C253.948 89.8598 248.713 89.8598 245.484 92.8752C242.255 95.8905 242.255 100.779 245.484 103.795L257.177 114.714L268.871 103.795C272.099 100.779 272.099 95.8905 268.871 92.8744Z" fill="#D8394C"></path><path d="M234.76 112.331C232.758 110.462 231.656 107.978 231.656 105.335C231.656 102.693 232.758 100.208 234.76 98.339C236.76 96.4707 239.421 95.4409 242.251 95.4409C244.362 95.4409 246.378 96.0137 248.097 97.0804C249.817 96.0137 251.834 95.4409 253.944 95.4409C256.774 95.4409 259.435 96.4699 261.436 98.3383C265.566 102.197 265.566 108.473 261.436 112.33L248.097 124.785L234.76 112.331Z" fill="#FBB040"></path><path d="M259.789 99.8747C256.56 96.86 251.324 96.86 248.095 99.8754C244.866 96.86 239.631 96.86 236.402 99.8754C233.173 102.891 233.173 107.779 236.402 110.795L248.095 121.714L259.789 110.795C263.017 107.779 263.017 102.89 259.789 99.8747Z" fill="#D8394C"></path><path opacity="0.2" d="M269.056 78.2261H233.049C227.146 78.2261 222.359 82.6948 222.359 88.2078V121.832C222.359 123.238 222.674 124.575 223.236 125.789L274.665 79.7222C273.033 78.7793 271.116 78.2261 269.056 78.2261Z" fill="white"></path><path d="M124.939 122.781C124.939 129.308 119.273 134.599 112.284 134.599H69.652C62.6626 134.599 56.9961 129.307 56.9961 122.781V82.9716C56.9961 76.4447 62.6633 71.1533 69.652 71.1533H112.284C119.274 71.1533 124.939 76.4455 124.939 82.9716V122.781Z" fill="#12C4D2"></path><path d="M107.104 80.0271H68.7188V125.724H107.104V80.0271Z" fill="#E6E7E8"></path><path d="M103.401 84.3083H72.7344V85.5445H103.401V84.3083Z" fill="#D1D3D4"></path><path d="M103.401 92.219H72.7344V93.4544H103.401V92.219Z" fill="#D1D3D4"></path><path d="M103.401 100.129H72.7344V101.365H103.401V100.129Z" fill="#D1D3D4"></path><path d="M103.401 108.04H72.7344V109.275H103.401V108.04Z" fill="#D1D3D4"></path><path d="M103.401 115.949H72.7344V117.186H103.401V115.949Z" fill="#D1D3D4"></path><path d="M115.886 82.6418H77.5V128.339H115.886V82.6418Z" fill="white"></path><path d="M112.183 86.9224H81.5156V88.1585H112.183V86.9224Z" fill="#E6E7E8"></path><path d="M112.183 94.833H81.5156V96.0684H112.183V94.833Z" fill="#E6E7E8"></path><path d="M112.183 102.743H81.5156V103.979H112.183V102.743Z" fill="#E6E7E8"></path><path d="M112.183 110.654H81.5156V111.889H112.183V110.654Z" fill="#E6E7E8"></path><path d="M112.183 118.564H81.5156V119.8H112.183V118.564Z" fill="#E6E7E8"></path><path opacity="0.2" d="M112.291 71.1526H69.6598C62.6704 71.1526 57.0039 76.4447 57.0039 82.9708V122.781C57.0039 126.35 58.7061 129.543 61.3846 131.709L122.929 76.5838C120.677 73.32 116.759 71.1526 112.291 71.1526Z" fill="white"></path><path d="M335.041 158.847C335.041 165.729 329.066 171.307 321.696 171.307H276.747C269.377 171.307 263.402 165.729 263.402 158.847V116.872C263.402 109.99 269.377 104.411 276.747 104.411H321.696C329.066 104.411 335.041 109.99 335.041 116.872V158.847Z" fill="#3E546B"></path><path d="M296.996 150.204L297.015 132.591C297.015 124.559 303.987 118.047 312.59 118.047C321.191 118.047 328.164 124.559 328.164 132.591C328.164 140.623 321.191 147.135 312.59 147.135C308.393 147.135 304.586 145.581 301.785 143.06L296.996 150.204Z" fill="#FBB040"></path><path d="M317.676 133.227C317.676 134.451 318.737 135.444 320.05 135.444C321.359 135.444 322.423 134.451 322.423 133.227C322.423 132.003 321.36 131.01 320.05 131.01C318.737 131.01 317.676 132.003 317.676 133.227Z" fill="#3E546B"></path><path d="M310.348 133.227C310.348 134.451 311.409 135.444 312.721 135.444C314.032 135.444 315.094 134.451 315.094 133.227C315.094 132.003 314.033 131.01 312.721 131.01C311.409 131.01 310.348 132.003 310.348 133.227Z" fill="#3E546B"></path><path d="M303.008 133.227C303.008 134.451 304.071 135.444 305.382 135.444C306.692 135.444 307.756 134.451 307.756 133.227C307.756 132.003 306.693 131.01 305.382 131.01C304.071 131.01 303.008 132.003 303.008 133.227Z" fill="#3E546B"></path><path d="M299.215 155.845L299.187 140.224C299.187 133.1 293.002 127.324 285.372 127.324C277.743 127.324 271.559 133.099 271.559 140.224C271.559 147.348 277.743 153.123 285.372 153.123C289.095 153.123 292.472 151.746 294.956 149.51L299.215 155.845Z" fill="#12C4D2"></path><path d="M280.862 140.788C280.862 141.874 279.92 142.754 278.757 142.754C277.595 142.754 276.652 141.874 276.652 140.788C276.652 139.702 277.595 138.822 278.757 138.822C279.92 138.823 280.862 139.702 280.862 140.788Z" fill="#3E546B"></path><path d="M287.374 140.788C287.374 141.874 286.432 142.754 285.27 142.754C284.106 142.754 283.164 141.874 283.164 140.788C283.164 139.702 284.106 138.822 285.27 138.822C286.432 138.823 287.374 139.702 287.374 140.788Z" fill="#3E546B"></path><path d="M293.871 140.788C293.871 141.874 292.928 142.754 291.766 142.754C290.603 142.754 289.66 141.874 289.66 140.788C289.66 139.702 290.603 138.822 291.766 138.822C292.929 138.823 293.871 139.702 293.871 140.788Z" fill="#3E546B"></path><path opacity="0.2" d="M321.7 104.411H276.751C269.381 104.411 263.406 109.99 263.406 116.872V158.847C263.406 162.57 265.164 165.901 267.935 168.185L332.851 110.038C330.466 106.65 326.366 104.411 321.7 104.411Z" fill="white"></path><path d="M114.107 221.476C114.107 228.358 108.132 233.936 100.763 233.936H55.8133C48.4439 233.936 42.4688 228.358 42.4688 221.476V179.501C42.4688 172.619 48.4439 167.039 55.8133 167.039H100.763C108.132 167.039 114.107 172.619 114.107 179.501V221.476Z" fill="#F24656"></path><path d="M95.6463 218.821C96.6653 220.255 96.2473 222.189 94.7119 223.141C93.1748 224.093 91.1051 223.702 90.0853 222.268L84.2133 214.006C83.1944 212.572 83.6123 210.638 85.1478 209.686C86.6833 208.735 88.7546 209.125 89.7736 210.56L95.6463 218.821Z" fill="#3E546B"></path><path d="M68.0287 185.593C60.1723 190.463 58.0296 200.359 63.2448 207.695C68.4607 215.032 79.0569 217.032 86.9126 212.162C94.7698 207.293 96.9124 197.398 91.6965 190.061C86.4822 182.723 75.8852 180.724 68.0287 185.593ZM83.032 206.701C78.4039 209.569 72.1636 208.39 69.0919 204.07C66.021 199.748 67.2819 193.922 71.91 191.053C76.5381 188.185 82.7785 189.363 85.8494 193.684C88.9195 198.005 87.6594 203.833 83.032 206.701Z" fill="white"></path><path d="M81.3458 196.092C80.2756 195.092 78.5393 195.092 77.4691 196.092C76.3982 195.092 74.6626 195.093 73.5917 196.092C72.5215 197.092 72.5215 198.713 73.5917 199.713L77.4691 203.333L81.3458 199.713C82.4167 198.713 82.4167 197.092 81.3458 196.092Z" fill="white"></path><path opacity="0.2" d="M100.755 167.039H55.8055C48.436 167.039 42.4609 172.618 42.4609 179.501V221.476C42.4609 224.433 43.5699 227.146 45.4132 229.283L110.488 170.995C108.054 168.566 104.599 167.039 100.755 167.039Z" fill="white"></path><path d="M90.9867 62.2941C90.9867 70.1701 84.1492 76.5528 75.7158 76.5528H24.2787C15.8453 76.5528 9.00781 70.1693 9.00781 62.2941V14.2601C9.00781 6.38489 15.8453 0 24.2787 0H75.715C84.1484 0 90.9859 6.38489 90.9859 14.2601V62.2941H90.9867Z" fill="#FBB040"></path><path d="M78.43 44.5863C78.43 49.6503 74.0329 53.7556 68.6108 53.7556H31.745C26.322 53.7556 21.9258 49.6503 21.9258 44.5863V26.536C21.9258 21.4719 26.322 17.3667 31.745 17.3667H68.6108C74.0329 17.3667 78.43 21.4719 78.43 26.536V44.5863Z" fill="white"></path><path d="M68.6108 17.3667H31.745C26.322 17.3667 21.9258 21.4719 21.9258 26.536V27.3463H78.43V26.536C78.43 21.4719 74.0329 17.3667 68.6108 17.3667Z" fill="#F24656"></path><path d="M50.1738 49.8257C44.0599 49.8257 39.0859 45.1817 39.0859 39.4724C39.0859 33.7632 44.0599 29.1184 50.1738 29.1184C56.2878 29.1184 61.2609 33.7632 61.2609 39.4724C61.2609 45.1817 56.2878 49.8257 50.1738 49.8257Z" fill="#F24656"></path><path d="M47.832 33.3887V45.556L56.312 39.4723L47.832 33.3887Z" fill="white"></path><path opacity="0.2" d="M75.708 0.000732422H24.2709C15.8375 0.000732422 9 6.38562 9 14.2608V62.2949C9 65.9497 10.4851 69.2721 12.9069 71.7958L87.3868 5.08359C84.585 1.97768 80.395 0.000732422 75.708 0.000732422Z" fill="white"></path><path d="M228.562 212.136C228.562 229.333 213.632 243.275 195.216 243.275H138.611C120.195 243.275 105.266 229.333 105.266 212.136V53.5557C105.266 36.3585 120.195 22.417 138.611 22.417H195.216C213.632 22.417 228.562 36.3585 228.562 53.5557V212.136Z" fill="#3E546B"></path><path d="M222.362 212.241C222.362 219.84 215.765 226 207.627 226H126.195C118.058 226 111.461 219.84 111.461 212.241V52.0356C111.461 44.437 118.058 38.2766 126.195 38.2766H207.627C215.765 38.2766 222.362 44.437 222.362 52.0356V212.241Z" fill="#F1F2F2"></path><path d="M207.627 38.2766H126.195C118.058 38.2766 111.461 44.437 111.461 52.0356V56.7426H222.362V52.0356C222.362 44.437 215.765 38.2766 207.627 38.2766Z" fill="#E6E7E8"></path><path d="M119.022 49.1391C119.986 49.1391 120.767 48.4096 120.767 47.5097C120.767 46.6099 119.986 45.8804 119.022 45.8804C118.059 45.8804 117.277 46.6099 117.277 47.5097C117.277 48.4096 118.059 49.1391 119.022 49.1391Z" fill="#3E546B"></path><path d="M124.835 49.1391C125.798 49.1391 126.58 48.4096 126.58 47.5097C126.58 46.6099 125.798 45.8804 124.835 45.8804C123.871 45.8804 123.09 46.6099 123.09 47.5097C123.09 48.4096 123.871 49.1391 124.835 49.1391Z" fill="#3E546B"></path><path d="M130.655 49.1391C131.619 49.1391 132.4 48.4096 132.4 47.5097C132.4 46.6099 131.619 45.8804 130.655 45.8804C129.691 45.8804 128.91 46.6099 128.91 47.5097C128.91 48.4096 129.691 49.1391 130.655 49.1391Z" fill="#3E546B"></path><path d="M195.116 43.7986H191.82V51.2212H195.116V43.7986Z" fill="#8DC63F"></path><path d="M200.643 43.7986H197.348V51.2212H200.643V43.7986Z" fill="#8DC63F"></path><path d="M202.867 43.7986V51.2212H206.163L202.867 43.7986Z" fill="#8DC63F"></path><path d="M222.362 56.7429H111.461V76.8383H222.362V56.7429Z" fill="#29AAE3"></path><path d="M156.245 60.9219H129.879V64.7237H156.245V60.9219Z" fill="white"></path><path d="M156.245 66.6855H129.879V67.8623H156.245V66.6855Z" fill="white"></path><path d="M156.245 69.582H129.879V70.7588H156.245V69.582Z" fill="white"></path><path d="M121.836 71.7842C125.048 71.7842 127.652 69.3526 127.652 66.353C127.652 63.3535 125.048 60.9219 121.836 60.9219C118.624 60.9219 116.02 63.3535 116.02 66.353C116.02 69.3526 118.624 71.7842 121.836 71.7842Z" fill="white"></path><path d="M123.999 69.4023C123.378 69.7883 122.634 70.0157 121.834 70.0157C121.034 70.0157 120.291 69.7883 119.67 69.4023C119.182 69.7869 118.813 70.296 118.621 70.8789C119.542 71.4503 120.646 71.7841 121.834 71.7841C123.022 71.7841 124.125 71.4503 125.047 70.8789C124.855 70.296 124.486 69.7869 123.999 69.4023Z" fill="#3E546B"></path><path d="M121.834 69.2916C123.572 69.2916 124.981 67.9759 124.981 66.3529C124.981 64.73 123.572 63.4143 121.834 63.4143C120.096 63.4143 118.688 64.73 118.688 66.3529C118.688 67.9759 120.096 69.2916 121.834 69.2916Z" fill="#3E546B"></path><path d="M179.388 71.7844C182.172 71.7844 184.429 69.677 184.429 67.0774C184.429 64.4778 182.172 62.3704 179.388 62.3704C176.604 62.3704 174.348 64.4778 174.348 67.0774C174.348 69.677 176.604 71.7844 179.388 71.7844Z" fill="white"></path><path d="M178.003 65.5032H176.883V68.9386H178.003V65.5032Z" fill="#3E546B"></path><path d="M179.348 65.2491V69.1914L181.908 70.1459V64.2939L179.348 65.2491Z" fill="#3E546B"></path><path d="M196.576 71.7844C199.36 71.7844 201.616 69.677 201.616 67.0774C201.616 64.4778 199.36 62.3704 196.576 62.3704C193.792 62.3704 191.535 64.4778 191.535 67.0774C191.535 69.677 193.792 71.7844 196.576 71.7844Z" fill="white"></path><path d="M198.039 69.4981C196.91 69.4981 195.977 69.1925 195.258 68.5857C193.883 67.4249 193.841 65.5956 193.84 65.5182L194.769 65.5051C194.77 65.5203 194.812 67.0432 195.886 67.9462C196.518 68.4763 197.401 68.6994 198.51 68.6096L198.59 69.4742C198.402 69.4909 198.219 69.4981 198.039 69.4981Z" fill="#3E546B"></path><path d="M195.685 65.3718C195.685 66.0257 195.178 66.5557 194.553 66.5557C193.928 66.5557 193.422 66.0257 193.422 65.3718C193.422 64.7178 193.928 64.1885 194.553 64.1885C195.178 64.1885 195.685 64.7178 195.685 65.3718Z" fill="#3E546B"></path><path d="M198.633 67.768C199.317 67.6325 199.977 67.9852 200.108 68.5558C200.237 69.1272 199.787 69.6993 199.102 69.8354C198.417 69.9716 197.757 69.6182 197.628 69.0475C197.498 68.4769 197.949 67.9041 198.633 67.768Z" fill="#3E546B"></path><path d="M213.681 71.7844C216.465 71.7844 218.722 69.677 218.722 67.0774C218.722 64.4778 216.465 62.3704 213.681 62.3704C210.897 62.3704 208.641 64.4778 208.641 67.0774C208.641 69.677 210.897 71.7844 213.681 71.7844Z" fill="white"></path><path d="M214.69 68.1636C215.462 67.8102 215.997 67.0709 215.997 66.2135C215.997 65.0136 214.954 64.041 213.67 64.041C212.386 64.041 211.344 65.0136 211.344 66.2135C211.344 67.0716 211.878 67.811 212.65 68.1636C211.878 68.517 211.344 69.2564 211.344 70.1138H215.997C215.997 69.2564 215.462 68.517 214.69 68.1636Z" fill="#3E546B"></path><path d="M217.049 64.0879H216.411V63.4934H216.148V64.0879H215.512V64.3342H216.148V64.9287H216.411V64.3342H217.049V64.0879Z" fill="#3E546B"></path><path d="M190.955 233.256C190.955 234.456 189.914 235.428 188.629 235.428H145.201C143.917 235.428 142.875 234.456 142.875 233.256C142.875 232.056 143.917 231.083 145.201 231.083H188.629C189.914 231.083 190.955 232.056 190.955 233.256Z" fill="#BCBEC0"></path><path d="M185.524 31.2162C185.524 32.4161 184.483 33.3886 183.198 33.3886H150.627C149.343 33.3886 148.301 32.4161 148.301 31.2162C148.301 30.0162 149.343 29.0437 150.627 29.0437H183.198C184.483 29.0437 185.524 30.0162 185.524 31.2162Z" fill="#BCBEC0"></path><path d="M211.353 208.454C211.353 212.853 207.533 216.419 202.822 216.419H130.999C126.288 216.419 122.469 212.853 122.469 208.454C122.469 204.054 126.288 200.488 130.999 200.488H202.822C207.533 200.488 211.353 204.054 211.353 208.454Z" fill="white"></path><path d="M188.218 208.453C188.218 210.563 186.387 212.272 184.129 212.272H149.695C147.436 212.272 145.605 210.563 145.605 208.453C145.605 206.344 147.436 204.635 149.695 204.635H184.129C186.387 204.635 188.218 206.344 188.218 208.453Z" fill="#E6E7E8"></path><path d="M129.559 211.591C131.415 211.591 132.92 210.187 132.92 208.454C132.92 206.721 131.415 205.316 129.559 205.316C127.704 205.316 126.199 206.721 126.199 208.454C126.199 210.187 127.704 211.591 129.559 211.591Z" fill="#E6E7E8"></path><path d="M204.52 211.591C206.376 211.591 207.881 210.187 207.881 208.454C207.881 206.721 206.376 205.316 204.52 205.316C202.665 205.316 201.16 206.721 201.16 208.454C201.16 210.187 202.665 211.591 204.52 211.591Z" fill="#E6E7E8"></path><path d="M170.614 83.2955H124.808C122.821 83.2955 120.993 83.919 119.521 84.9581L116.02 82.3599V91.3517L116.029 91.3423C116.027 91.3966 116.02 91.4488 116.02 91.5031C116.02 96.0356 119.954 99.7099 124.808 99.7099H170.614C175.467 99.7099 179.402 96.0356 179.402 91.5031C179.402 86.9698 175.467 83.2955 170.614 83.2955Z" fill="#8DC63F"></path><path d="M188.701 123.931H127.72C124.151 123.931 120.962 125.428 118.817 127.78L116.02 125.704V134.696L116.03 134.685C116.028 134.743 116.02 134.799 116.02 134.857C116.02 140.892 121.258 145.784 127.72 145.784H188.701C195.162 145.784 200.401 140.892 200.401 134.857C200.401 128.823 195.163 123.931 188.701 123.931Z" fill="#8DC63F"></path><path d="M155.36 176.35H122.352C121.712 176.35 121.094 176.44 120.511 176.606L116.02 173.272V182.264C116.02 185.53 118.855 188.177 122.352 188.177H155.36C158.857 188.177 161.693 185.53 161.693 182.263C161.693 178.997 158.857 176.35 155.36 176.35Z" fill="#8DC63F"></path><path d="M217.95 110.803C217.875 107.598 215.075 105.02 211.625 105.02H178.618C175.12 105.02 172.285 107.668 172.285 110.933C172.285 114.199 175.12 116.848 178.618 116.848H211.625C212.716 116.848 213.742 116.59 214.638 116.137L217.957 119.79V110.798L217.95 110.803Z" fill="#BCBEC0"></path><path d="M217.943 160.921C217.796 156.223 213.681 152.452 208.614 152.452H159.914C154.754 152.452 150.57 156.359 150.57 161.177C150.57 165.996 154.754 169.903 159.914 169.903H208.614C211.309 169.903 213.73 168.832 215.434 167.127L217.957 169.903V160.912L217.943 160.921Z" fill="#BCBEC0"></path><path opacity="0.2" d="M222.365 71.2091V52.0356C222.365 44.437 215.769 38.2766 207.631 38.2766H126.199C118.062 38.2766 111.465 44.437 111.465 52.0356V170.545L222.365 71.2091Z" fill="white"></path><path d="M305.537 217.499C305.537 224.026 299.871 229.317 292.881 229.317H250.25C243.26 229.317 237.594 224.026 237.594 217.499V177.689C237.594 171.162 243.261 165.871 250.25 165.871H292.881C299.871 165.871 305.537 171.163 305.537 177.689V217.499Z" fill="#12C4D2"></path><path d="M288.782 189.371H254.34V217.169H288.782V189.371Z" fill="#DD3A4E"></path><path d="M291.748 185.098H251.387V198.278H291.748V185.098Z" fill="#F24656"></path><path d="M276.225 185.098H266.914V217.169H276.225V185.098Z" fill="#FBB040"></path><path d="M283.869 178.02L271.715 183.257V186.427L283.869 188.586C289.947 182.063 283.869 178.02 283.869 178.02Z" fill="#FBB040"></path><path d="M259.967 178.02L272.121 183.257V186.427L259.967 188.586C253.889 182.063 259.967 178.02 259.967 178.02Z" fill="#FBB040"></path><path opacity="0.2" d="M292.881 165.871H250.25C243.26 165.871 237.594 171.163 237.594 177.689V217.499C237.594 221.073 239.3 224.269 241.985 226.435L303.525 171.312C301.274 168.042 297.353 165.871 292.881 165.871Z" fill="white"></path><path d="M309.626 54.8814C309.626 61.217 304.126 66.3535 297.342 66.3535H255.96C249.176 66.3535 243.676 61.2178 243.676 54.8814V16.2404C243.676 9.90403 249.176 4.76831 255.96 4.76831H297.341C304.126 4.76831 309.625 9.90403 309.625 16.2404V54.8814H309.626Z" fill="#F24656"></path><path d="M276.655 20.5715C279.355 20.5715 283.147 28.6328 283.147 28.6328C283.147 28.6328 292.528 29.5083 293.363 31.9068C294.197 34.3044 287.159 40.1629 287.159 40.1629C287.159 40.1629 289.166 48.7651 286.981 50.2475C284.796 51.7298 276.655 47.2886 276.655 47.2886C276.655 47.2886 268.515 51.7291 266.33 50.2475C264.145 48.7658 266.152 40.1629 266.152 40.1629C266.152 40.1629 259.114 34.3044 259.948 31.9068C260.783 29.5083 270.164 28.6328 270.164 28.6328C270.164 28.6328 273.956 20.5715 276.655 20.5715Z" fill="#FBB040"></path><path opacity="0.2" d="M297.349 4.76831H255.968C249.183 4.76831 243.684 9.90403 243.684 16.2404V54.8814C243.684 59.1061 246.136 62.7877 249.777 64.7784L308.742 11.9628C306.926 7.74749 302.514 4.76831 297.349 4.76831Z" fill="white"></path></svg>