<svg xmlns="http://www.w3.org/2000/svg" width="500" height="299" viewBox="0 0 500 299" fill="none"><rect width="500" height="299.003" rx="24" fill="white"></rect><path d="M130.408 29.2852H63.1641V96.5289H130.408V29.2852Z" fill="#5295FE"></path><path d="M121.369 43.0401H80.0328C78.5515 43.0401 77.3398 41.8284 77.3398 40.3472C77.3398 38.866 78.5515 37.6543 80.0328 37.6543H121.369C122.85 37.6543 124.062 38.866 124.062 40.3472C124.061 41.8284 122.849 43.0401 121.369 43.0401Z" fill="#F3F8FF"></path><path d="M72.2993 37.6548H72.2085C70.7273 37.6548 69.5156 38.8665 69.5156 40.3477C69.5156 41.8289 70.7273 43.0406 72.2085 43.0406H72.2993C73.7806 43.0406 74.9923 41.8289 74.9923 40.3477C74.9923 38.8658 73.7806 37.6548 72.2993 37.6548Z" fill="#F3F8FF"></path><path d="M121.369 54.3199H80.0328C78.5515 54.3199 77.3398 53.1082 77.3398 51.627C77.3398 50.1458 78.5515 48.9341 80.0328 48.9341H121.369C122.85 48.9341 124.062 50.1458 124.062 51.627C124.061 53.1082 122.849 54.3199 121.369 54.3199Z" fill="#F3F8FF"></path><path d="M72.2993 48.9341H72.2085C70.7273 48.9341 69.5156 50.1458 69.5156 51.627C69.5156 53.1082 70.7273 54.3199 72.2085 54.3199H72.2993C73.7806 54.3199 74.9923 53.1082 74.9923 51.627C74.9923 50.1458 73.7806 48.9341 72.2993 48.9341Z" fill="#F3F8FF"></path><path d="M121.369 65.6007H80.0328C78.5515 65.6007 77.3398 64.389 77.3398 62.9078C77.3398 61.4265 78.5515 60.2148 80.0328 60.2148H121.369C122.85 60.2148 124.062 61.4265 124.062 62.9078C124.061 64.389 122.849 65.6007 121.369 65.6007Z" fill="#F3F8FF"></path><path d="M72.2993 60.2148H72.2085C70.7273 60.2148 69.5156 61.4265 69.5156 62.9078C69.5156 64.389 70.7273 65.6007 72.2085 65.6007H72.2993C73.7806 65.6007 74.9923 64.389 74.9923 62.9078C74.9923 61.4265 73.7806 60.2148 72.2993 60.2148Z" fill="#F3F8FF"></path><path d="M121.369 76.88H80.0328C78.5515 76.88 77.3398 75.6683 77.3398 74.1871C77.3398 72.7058 78.5515 71.4941 80.0328 71.4941H121.369C122.85 71.4941 124.062 72.7058 124.062 74.1871C124.061 75.669 122.849 76.88 121.369 76.88Z" fill="#F3F8FF"></path><path d="M72.2993 71.4946H72.2085C70.7273 71.4946 69.5156 72.7063 69.5156 74.1875C69.5156 75.6688 70.7273 76.8805 72.2085 76.8805H72.2993C73.7806 76.8805 74.9923 75.6688 74.9923 74.1875C74.9923 72.7063 73.7806 71.4946 72.2993 71.4946Z" fill="#F3F8FF"></path><path d="M121.369 88.1598H80.0328C78.5515 88.1598 77.3398 86.9481 77.3398 85.4668C77.3398 83.9856 78.5515 82.7739 80.0328 82.7739H121.369C122.85 82.7739 124.062 83.9856 124.062 85.4668C124.061 86.9481 122.849 88.1598 121.369 88.1598Z" fill="#F3F8FF"></path><path d="M72.2993 82.7744H72.2085C70.7273 82.7744 69.5156 83.9861 69.5156 85.4673C69.5156 86.9485 70.7273 88.1602 72.2085 88.1602H72.2993C73.7806 88.1602 74.9923 86.9485 74.9923 85.4673C74.9923 83.9861 73.7806 82.7744 72.2993 82.7744Z" fill="#F3F8FF"></path><path d="M408.865 280.885H482.272L466.505 262.017C466.505 262.017 485.32 236.534 469.003 216.353C455.907 200.155 432.128 199.982 424.632 218.076C424.632 218.076 429.156 199.06 409.899 193.521C384.138 186.111 363.114 232.809 408.865 280.885Z" fill="#6BDDBC"></path><path d="M420.41 279.549L453.84 216.008" stroke="#3A9B9B" stroke-width="2" stroke-miterlimit="10" stroke-linecap="round"></path><path d="M406.281 201.017L411.582 279.94" stroke="#3A9B9B" stroke-width="2" stroke-miterlimit="10" stroke-linecap="round"></path><path d="M435.367 218.796C435.367 218.796 426.793 197.649 449.514 188.516C449.514 188.516 457.919 213.246 435.367 218.796Z" fill="#3A9B9B"></path><path d="M450.996 196.881C446.968 198.194 439.106 201.415 433.855 207.788C433.38 213.892 435.366 218.795 435.366 218.795C449.312 215.364 451.418 204.599 450.996 196.881Z" fill="#3A8987"></path><path d="M408.318 245.332L407.781 244.033C440.398 230.561 420.017 171.351 419.807 170.755L421.134 170.289C421.188 170.44 426.476 185.643 427.566 202.351C429.021 224.667 422.365 239.531 408.318 245.332Z" fill="#9CF7C3"></path><path d="M425.623 171.074C426.074 168.03 423.972 165.198 420.928 164.747C417.885 164.296 415.052 166.398 414.601 169.442C414.151 172.485 416.252 175.318 419.296 175.769C422.34 176.22 425.172 174.118 425.623 171.074Z" fill="#FFB000"></path><path d="M425.087 167.763C425.006 170.106 423.086 171.983 420.723 171.983C418.308 171.983 416.351 170.025 416.351 167.61C416.351 166.971 416.491 166.365 416.738 165.817C415.402 166.835 414.535 168.438 414.535 170.247C414.535 173.324 417.03 175.818 420.106 175.818C423.183 175.818 425.677 173.324 425.677 170.247C425.677 169.354 425.462 168.512 425.087 167.763Z" fill="#FF8B00"></path><path d="M406.416 249.14L405.758 247.897C429.424 235.365 436.744 218.708 438.718 206.944C440.855 194.206 437.38 184.329 437.345 184.231L438.669 183.755C438.818 184.17 442.302 194.08 440.105 207.176C438.079 219.254 430.59 236.338 406.416 249.14Z" fill="#9CF7C3"></path><path d="M443.49 180.797C443.49 183.873 440.995 186.368 437.919 186.368C434.842 186.368 432.348 183.873 432.348 180.797C432.348 177.719 434.842 175.226 437.919 175.226C440.995 175.225 443.49 177.719 443.49 180.797Z" fill="#FFB000"></path><path d="M442.896 178.312C442.815 180.655 440.895 182.532 438.532 182.532C436.117 182.532 434.159 180.574 434.159 178.159C434.159 177.52 434.3 176.914 434.546 176.366C433.21 177.384 432.344 178.987 432.344 180.796C432.344 183.873 434.838 186.367 437.915 186.367C440.992 186.367 443.486 183.873 443.486 180.796C443.487 179.903 443.271 179.061 442.896 178.312Z" fill="#FF8B00"></path><path d="M435.297 218.852C435.297 218.852 435.714 196.036 460.196 196.557C460.196 196.557 458.216 222.602 435.297 218.852Z" fill="#3A9B9B"></path><path d="M89.4068 280.885H16L31.7667 262.017C31.7667 262.017 12.9519 236.534 29.2684 216.353C42.3647 200.155 66.144 199.982 73.6402 218.076C73.6402 218.076 69.1159 199.06 88.3731 193.521C114.134 186.111 135.157 232.809 89.4068 280.885Z" fill="#6BDDBC"></path><path d="M77.8629 279.549L44.4336 216.008" stroke="#3A9B9B" stroke-width="2" stroke-miterlimit="10" stroke-linecap="round"></path><path d="M91.9922 201.017L86.6914 279.94" stroke="#3A9B9B" stroke-width="2" stroke-miterlimit="10" stroke-linecap="round"></path><path d="M62.9062 218.795C62.9062 218.795 71.4804 197.648 48.7595 188.516C48.7595 188.516 40.3546 213.246 62.9062 218.795Z" fill="#3A9B9B"></path><path d="M47.2769 196.881C51.305 198.194 59.1666 201.415 64.4187 207.788C64.8938 213.892 62.907 218.795 62.907 218.795C48.9615 215.364 46.8548 204.599 47.2769 196.881Z" fill="#3A8987"></path><path d="M89.9538 245.333L90.4907 244.034C57.8742 230.561 78.2552 171.352 78.4644 170.755L77.138 170.289C77.0842 170.44 71.7957 185.643 70.7061 202.351C69.251 224.668 75.9066 239.531 89.9538 245.333Z" fill="#9CF7C3"></path><path d="M78.6296 175.799C81.6959 175.546 83.9759 172.854 83.7221 169.788C83.4682 166.721 80.7767 164.441 77.7103 164.695C74.644 164.949 72.364 167.641 72.6178 170.707C72.8717 173.773 75.5632 176.053 78.6296 175.799Z" fill="#FFB000"></path><path d="M73.1836 167.763C73.265 170.107 75.185 171.983 77.5481 171.983C79.9628 171.983 81.9205 170.025 81.9205 167.611C81.9205 166.971 81.7796 166.366 81.5333 165.818C82.8693 166.836 83.7359 168.439 83.7359 170.248C83.7359 173.325 81.2413 175.819 78.1648 175.819C75.0876 175.819 72.5938 173.324 72.5938 170.248C72.5938 169.354 72.8095 168.512 73.1836 167.763Z" fill="#FF8B00"></path><path d="M91.8575 249.14L92.5156 247.897C68.8496 235.365 61.5293 218.708 59.5556 206.944C57.4184 194.206 60.8922 184.329 60.9285 184.231L59.6042 183.755C59.4553 184.17 55.9713 194.08 58.168 207.176C60.1948 219.254 67.6837 236.338 91.8575 249.14Z" fill="#9CF7C3"></path><path d="M54.7852 180.797C54.7852 183.873 57.2798 186.368 60.3562 186.368C63.4327 186.368 65.9273 183.873 65.9273 180.797C65.9273 177.719 63.4327 175.226 60.3562 175.226C57.2798 175.225 54.7852 177.719 54.7852 180.797Z" fill="#FFB000"></path><path d="M55.375 178.311C55.4564 180.655 57.3764 182.531 59.7395 182.531C62.1542 182.531 64.1119 180.573 64.1119 178.159C64.1119 177.519 63.971 176.913 63.7247 176.366C65.0614 177.383 65.9273 178.987 65.9273 180.796C65.9273 183.873 63.4327 186.367 60.3562 186.367C57.279 186.367 54.7852 183.872 54.7852 180.796C54.7852 179.902 55.0009 179.06 55.375 178.311Z" fill="#FF8B00"></path><path d="M62.9749 218.852C62.9749 218.852 62.5579 196.036 38.0762 196.557C38.0762 196.557 40.0557 222.602 62.9749 218.852Z" fill="#3A9B9B"></path><path d="M432.201 289.003H66.0768C56.3033 289.003 51.856 276.802 59.3362 270.512L109.307 228.497H388.97L438.941 270.512C446.423 276.802 441.975 289.003 432.201 289.003Z" fill="#595975"></path><path d="M432.201 281.485H66.0768C56.3033 281.485 51.856 269.284 59.3362 262.994L109.307 220.979H388.97L438.941 262.994C446.423 269.284 441.975 281.485 432.201 281.485Z" fill="#F3F8FF"></path><path d="M105.775 215.5V56.465C105.775 52.7558 108.782 49.749 112.491 49.749H385.787C389.496 49.749 392.503 52.7558 392.503 56.465V215.5C392.503 219.209 389.496 222.216 385.787 222.216H112.492C108.783 222.217 105.775 219.21 105.775 215.5Z" fill="#323244"></path><path d="M384.977 61.0591V214.721H113.241H113.24V61.0591H384.977Z" fill="#F3F8FF"></path><path d="M384.976 214.721V192.727C303.492 200.387 189.45 96.8484 113.24 89.7612V214.721H384.976Z" fill="#D9E6FF"></path><path d="M364.475 231.89H385.306L380.892 227.984C380.817 227.918 380.761 227.839 380.722 227.754H360.586L364.475 231.89Z" fill="#595975"></path><path d="M318.6 231.89H339.773L336.763 227.88C336.734 227.841 336.723 227.796 336.704 227.754H316.281L318.6 231.89Z" fill="#595975"></path><path d="M347.712 242.468L344.799 238.585H322.355L324.532 242.468H347.712Z" fill="#595975"></path><path d="M372.489 242.468L368.839 238.585H346.555L349.468 242.468H372.489Z" fill="#595975"></path><path d="M397.262 242.468L392.875 238.585H370.773L374.423 242.468H397.262Z" fill="#595975"></path><path d="M341.533 231.89H362.547L358.831 227.939C358.779 227.884 358.748 227.819 358.717 227.754H338.43L341.533 231.89Z" fill="#595975"></path><path d="M154.613 237.178H176.776L179.02 233.296H157.594L154.613 237.178Z" fill="#595975"></path><path d="M202.198 233.296H180.646L178.402 237.178H200.687L202.198 233.296Z" fill="#595975"></path><path d="M295.674 231.89H316.989L314.697 227.801C314.688 227.786 314.689 227.769 314.682 227.754H294.152L295.674 231.89Z" fill="#595975"></path><path d="M249.91 231.89H271.37L270.614 227.754H249.957L249.91 231.89Z" fill="#595975"></path><path d="M249.793 242.468H273.306L272.597 238.585H249.837L249.793 242.468Z" fill="#595975"></path><path d="M130.84 237.178H152.842L155.822 233.296H134.557L130.84 237.178Z" fill="#595975"></path><path d="M249.896 233.296L249.852 237.178H272.339L271.63 233.296H249.896Z" fill="#595975"></path><path d="M322.919 242.468L320.741 238.585H298.137L299.566 242.468H322.919Z" fill="#595975"></path><path d="M298.067 242.468L296.638 238.585H274.023L274.733 242.468H298.067Z" fill="#595975"></path><path d="M272.798 231.89H294.173L292.651 227.754H272.043L272.798 231.89Z" fill="#595975"></path><path d="M225.639 231.89L226.466 227.754H205.864L204.254 231.89H225.639Z" fill="#595975"></path><path d="M319.391 233.296L321.567 237.178H343.744L340.83 233.296H319.391Z" fill="#595975"></path><path d="M391.283 237.178L386.896 233.296H365.797L369.447 237.178H391.283Z" fill="#595975"></path><path d="M317.777 233.296H296.191L297.62 237.178H319.954L317.777 233.296Z" fill="#595975"></path><path d="M342.59 233.296L345.504 237.178H367.521L363.871 233.296H342.59Z" fill="#595975"></path><path d="M296.122 237.178L294.693 233.296H273.059L273.768 237.178H296.122Z" fill="#595975"></path><path d="M144.719 247.756L147.701 243.874H124.428L120.584 247.888H144.655C144.676 247.844 144.688 247.797 144.719 247.756Z" fill="#595975"></path><path d="M161.751 227.886L158.676 231.89H179.835L182.226 227.754H161.815C161.794 227.799 161.781 227.845 161.751 227.886Z" fill="#595975"></path><path d="M118.818 247.699L122.481 243.875H99.3927L94.7871 247.889H118.699C118.73 247.821 118.765 247.755 118.818 247.699Z" fill="#595975"></path><path d="M117.622 227.988L113.145 231.89H133.959L137.919 227.754H117.795C117.755 227.841 117.699 227.921 117.622 227.988Z" fill="#595975"></path><path d="M139.684 227.943L135.904 231.89H156.902L160.078 227.754H139.804C139.773 227.821 139.738 227.887 139.684 227.943Z" fill="#595975"></path><path d="M170.617 247.833L172.906 243.874H149.473L146.391 247.888H170.599C170.608 247.87 170.608 247.851 170.617 247.833Z" fill="#595975"></path><path d="M323.707 243.874H274.326C274.309 243.878 274.297 243.889 274.279 243.892C274.237 243.9 274.194 243.904 274.152 243.904C274.093 243.904 274.038 243.888 273.982 243.873H249.23C249.18 243.884 249.133 243.904 249.079 243.904C249.076 243.904 249.073 243.904 249.071 243.904C249.021 243.903 248.978 243.884 248.93 243.873H174.531L172.211 247.887H325.958L323.707 243.874Z" fill="#595975"></path><path d="M373.816 243.874H350.527L353.446 247.762C353.475 247.801 353.486 247.846 353.506 247.887H377.59L373.816 243.874Z" fill="#595975"></path><path d="M398.847 243.874H375.742L379.343 247.703C379.395 247.759 379.427 247.823 379.457 247.888H403.383L398.847 243.874Z" fill="#595975"></path><path d="M348.768 243.874H325.32L327.545 247.841C327.553 247.856 327.553 247.873 327.56 247.888H351.78L348.768 243.874Z" fill="#595975"></path><path d="M101.008 242.468H123.83L127.548 238.585H105.462L101.008 242.468Z" fill="#595975"></path><path d="M175.964 238.585H153.533L150.553 242.468H173.72L175.964 238.585Z" fill="#595975"></path><path d="M200.137 238.585H177.588L175.344 242.468H198.625L200.137 238.585Z" fill="#595975"></path><path d="M183.817 227.809L181.457 231.89H202.743L204.354 227.754H183.835C183.827 227.772 183.827 227.791 183.817 227.809Z" fill="#595975"></path><path d="M151.76 238.585H129.491L125.773 242.468H148.779L151.76 238.585Z" fill="#595975"></path><path d="M107.074 237.178H128.892L132.609 233.296H111.528L107.074 237.178Z" fill="#595975"></path><path d="M224.303 238.585H201.648L200.137 242.468H223.527L224.303 238.585Z" fill="#595975"></path><path d="M248.488 233.296H226.791L226.016 237.178H248.444L248.488 233.296Z" fill="#595975"></path><path d="M248.553 227.754H227.901L227.074 231.89H248.506L248.553 227.754Z" fill="#595975"></path><path d="M248.43 238.585H225.737L224.961 242.468H248.386L248.43 238.585Z" fill="#595975"></path><path d="M225.359 233.296H203.707L202.195 237.178H224.583L225.359 233.296Z" fill="#595975"></path><path d="M241.818 253.717H227.815L191.82 265.268L187.433 271.106C187.332 271.241 187.255 271.382 187.191 271.527L241.818 253.717Z" fill="white"></path><path d="M306.66 265.522L298.414 254.549C298.02 254.025 297.403 253.717 296.747 253.717H263.956L205.477 274.444H283.376L306.66 265.522Z" fill="white"></path><path d="M309.187 275.149H189.1C188.036 275.149 187.08 274.557 186.605 273.606C186.13 272.655 186.232 271.535 186.87 270.685L199.313 254.128C199.836 253.431 200.67 253.015 201.542 253.015H296.746C297.618 253.015 298.451 253.431 298.975 254.128L311.418 270.685C312.056 271.535 312.159 272.654 311.683 273.606C311.208 274.557 310.251 275.149 309.187 275.149ZM201.542 254.42C201.11 254.42 200.696 254.627 200.437 254.972L187.995 271.529C187.674 271.957 187.624 272.499 187.863 272.977C188.102 273.457 188.565 273.742 189.1 273.742H309.188C309.724 273.742 310.186 273.457 310.425 272.977C310.664 272.499 310.615 271.957 310.293 271.529L297.851 254.972C297.591 254.627 297.178 254.42 296.746 254.42H201.542Z" fill="#595975"></path><path d="M252.969 55.7717C252.969 57.8864 251.255 59.6 249.141 59.6C247.027 59.6 245.312 57.8856 245.312 55.7717C245.312 53.657 247.027 51.9434 249.141 51.9434C251.255 51.9434 252.969 53.657 252.969 55.7717Z" fill="#595975"></path><path d="M249.14 57.803C250.262 57.803 251.172 56.8936 251.172 55.7719C251.172 54.6501 250.262 53.7407 249.14 53.7407C248.019 53.7407 247.109 54.6501 247.109 55.7719C247.109 56.8936 248.019 57.803 249.14 57.803Z" fill="#323244"></path><path d="M258.045 55.7718C258.045 56.223 257.679 56.5891 257.227 56.5891C256.776 56.5891 256.41 56.223 256.41 55.7718C256.41 55.3207 256.776 54.9546 257.227 54.9546C257.679 54.9546 258.045 55.3207 258.045 55.7718Z" fill="#AAE83F"></path><path d="M75.1257 143.391C79.025 130.766 71.9512 117.37 59.326 113.471C46.7008 109.571 33.3051 116.645 29.4059 129.27C25.5066 141.896 32.5805 155.291 45.2057 159.191C57.8309 163.09 71.2265 156.016 75.1257 143.391Z" fill="#FFB000"></path><path d="M71.8543 142.147C75.0653 131.327 68.8968 119.952 58.0767 116.741C47.2566 113.53 35.8823 119.699 32.6713 130.519C29.4604 141.339 35.6288 152.713 46.4489 155.924C57.269 159.135 68.6434 152.967 71.8543 142.147Z" fill="white"></path><path d="M70.4536 136.332C70.4536 146.38 62.308 154.525 52.2606 154.525C42.2132 154.525 34.0684 146.38 34.0684 136.332C34.0684 126.285 42.2132 118.14 52.2606 118.14C62.308 118.14 70.4536 126.285 70.4536 136.332Z" fill="white"></path><path d="M52.2606 118.14C42.2132 118.14 34.0684 126.285 34.0684 136.332C34.0684 136.669 34.0793 137.003 34.0967 137.336C43.6545 136.112 56.9483 138.696 69.9 131.873C67.911 123.981 60.7687 118.14 52.2606 118.14Z" fill="#D9E6FF"></path><path d="M54.0047 136.333C54.0047 137.296 53.2238 138.077 52.2598 138.077C51.2965 138.077 50.5156 137.296 50.5156 136.333C50.5156 135.369 51.2965 134.588 52.2598 134.588C53.2238 134.588 54.0047 135.369 54.0047 136.333Z" fill="#424260"></path><path d="M57.5352 142.181C57.3674 142.181 57.1989 142.118 57.0711 141.989L51.4375 136.355V123.872C51.4375 123.51 51.7317 123.215 52.0949 123.215C52.4581 123.215 52.7524 123.509 52.7524 123.872V135.811L58.0009 141.06C58.2573 141.316 58.2573 141.733 58.0009 141.989C57.8716 142.118 57.7031 142.181 57.5352 142.181Z" fill="#424260"></path><path d="M381.925 62.9661L331.957 62.7242C332.018 50.1517 336.822 38.0542 345.402 28.8648C354.641 18.9699 367.515 13.2419 381.05 13.0044L381.925 62.9661Z" fill="#5295FE"></path><path d="M381.927 62.9664L393.955 103.053C390.053 104.224 386.001 104.819 381.927 104.819C358.967 104.819 340.074 85.9262 340.074 62.9664C340.074 60.301 340.329 57.6423 340.835 55.0249L381.927 62.9664Z" fill="#FF5050"></path><path d="M381.924 62.9664L414.142 48.3838C414.435 49.0296 414.708 49.6834 414.96 50.3459C421.884 68.4691 412.668 89.079 394.545 96.0027C387.439 98.7167 379.645 99.0683 372.324 97.003L381.924 62.9664Z" fill="#FFB000"></path><path d="M381.924 62.9663L362.82 41.0097C371.981 33.0391 385.211 31.6023 395.869 37.4203C409.157 44.6746 414.679 61.1473 408.448 74.9446L381.924 62.9663Z" fill="#9129E3"></path><path d="M381.926 62.9661L397.62 49.2545C400.937 53.0509 402.766 57.9246 402.766 62.9661C402.766 74.3988 393.359 83.8062 381.926 83.8062C370.493 83.8062 361.086 74.3988 361.086 62.9661C361.086 51.5334 370.493 42.126 381.926 42.126C382.002 42.126 382.079 42.1267 382.155 42.1274L381.926 62.9661Z" fill="#80E1E8"></path><path d="M389.831 64.7617C390.823 60.3918 388.084 56.0454 383.714 55.0537C379.345 54.0621 374.998 56.8007 374.006 61.1706C373.015 65.5405 375.753 69.8869 380.123 70.8786C384.493 71.8702 388.84 69.1316 389.831 64.7617Z" fill="#F9F9F9"></path><path d="M183.456 75.9395H167.035V191.914H183.456V75.9395Z" fill="#C2D9FF"></path><path d="M208.089 75.9395H191.668V191.914H208.089V75.9395Z" fill="#C2D9FF"></path><path d="M232.722 75.9395H216.301V191.914H232.722V75.9395Z" fill="#C2D9FF"></path><path d="M257.351 75.9395H240.93V191.914H257.351V75.9395Z" fill="#C2D9FF"></path><path d="M281.984 75.9395H265.562V191.914H281.984V75.9395Z" fill="#C2D9FF"></path><path d="M306.62 75.9395H290.199V191.914H306.62V75.9395Z" fill="#C2D9FF"></path><path d="M331.249 75.9395H314.828V191.914H331.249V75.9395Z" fill="#C2D9FF"></path><path d="M183.456 155.782H167.035V191.915H183.456V155.782Z" fill="#FFB000"></path><path d="M208.089 101.988H191.668V191.915H208.089V101.988Z" fill="#5295FE"></path><path d="M232.722 90.9458H216.301V191.915H232.722V90.9458Z" fill="#80E1E8"></path><path d="M257.351 171.071H240.93V191.915H257.351V171.071Z" fill="#5295FE"></path><path d="M281.984 141.059H265.562V191.914H281.984V141.059Z" fill="#80E1E8"></path><path d="M306.62 118.976H290.199V191.915H306.62V118.976Z" fill="#5295FE"></path><path d="M331.249 150.12H314.828V191.915H331.249V150.12Z" fill="#80E1E8"></path><path d="M174.035 156.467L199.894 102.483L224.621 90.5923L249.347 171.001L274.452 140.989L298.989 118.905L322.772 150.804" stroke="#FF5050" stroke-width="4" stroke-miterlimit="10" stroke-linecap="round" stroke-linejoin="round"></path><path d="M228.586 90.8468C228.586 92.9644 226.87 94.681 224.752 94.681C222.635 94.681 220.918 92.9644 220.918 90.8468C220.918 88.7293 222.635 87.0127 224.752 87.0127C226.87 87.0127 228.586 88.7293 228.586 90.8468Z" fill="#F3F8FF"></path><path d="M203.496 102.564C203.496 104.682 201.78 106.398 199.662 106.398C197.545 106.398 195.828 104.682 195.828 102.564C195.828 100.447 197.545 98.73 199.662 98.73C201.78 98.73 203.496 100.447 203.496 102.564Z" fill="#F3F8FF"></path><path d="M174.014 160.896C176.131 160.896 177.848 159.179 177.848 157.062C177.848 154.944 176.131 153.228 174.014 153.228C171.896 153.228 170.18 154.944 170.18 157.062C170.18 159.179 171.896 160.896 174.014 160.896Z" fill="#F3F8FF"></path><path d="M249.514 174.493C251.631 174.493 253.348 172.776 253.348 170.659C253.348 168.541 251.631 166.825 249.514 166.825C247.396 166.825 245.68 168.541 245.68 170.659C245.68 172.776 247.396 174.493 249.514 174.493Z" fill="#F3F8FF"></path><path d="M274.166 144.757C276.284 144.757 278 143.04 278 140.923C278 138.805 276.284 137.088 274.166 137.088C272.049 137.088 270.332 138.805 270.332 140.923C270.332 143.04 272.049 144.757 274.166 144.757Z" fill="#F3F8FF"></path><path d="M298.819 123.754C300.936 123.754 302.653 122.037 302.653 119.92C302.653 117.802 300.936 116.085 298.819 116.085C296.701 116.085 294.984 117.802 294.984 119.92C294.984 122.037 296.701 123.754 298.819 123.754Z" fill="#F3F8FF"></path><path d="M326.489 146.471L318.066 153.25L326.973 155.948L326.489 146.471Z" fill="#FF5050"></path><path d="M310.074 18.8643H240.297V30.1343H310.074V18.8643Z" fill="#F3F8FF"></path><path d="M268.887 30.1343H282.281V18.8643H268.887V30.1343Z" fill="#5295FE"></path><path d="M261.43 30.1343H274.824V18.8643H261.43V30.1343Z" fill="#80E1E8"></path><path d="M264.92 18.8643H240.297V30.1343H264.92V18.8643Z" fill="#FFB000"></path><path d="M439.92 146.2C441.001 147.829 443.197 148.274 444.826 147.193L447.987 145.097L447.234 148.815C446.846 150.73 448.085 152.598 450.001 152.986L451.7 153.33C453.616 153.718 455.484 152.479 455.872 150.563L456.624 146.845L458.721 150.006C459.802 151.635 461.998 152.08 463.627 151L465.072 150.042C466.701 148.962 467.145 146.764 466.065 145.135L463.968 141.975L467.686 142.727C469.603 143.115 471.47 141.877 471.858 139.96L472.202 138.262C472.589 136.346 471.351 134.479 469.435 134.09L465.718 133.337L468.879 131.241C470.507 130.161 470.952 127.964 469.872 126.334L468.913 124.89C467.833 123.261 465.636 122.816 464.007 123.897L460.846 125.993L461.598 122.275C461.986 120.359 460.747 118.492 458.831 118.104L457.132 117.76C455.216 117.372 453.349 118.611 452.961 120.527L452.207 124.244L450.111 121.084C449.03 119.454 446.834 119.01 445.205 120.09L443.76 121.048C442.13 122.129 441.686 124.325 442.767 125.955L444.863 129.115L441.145 128.363C439.23 127.975 437.362 129.213 436.974 131.13L436.63 132.829C436.242 134.744 437.481 136.613 439.397 137L443.114 137.753L439.953 139.849C438.324 140.93 437.879 143.126 438.96 144.756L439.92 146.2ZM451.241 130.757C453.885 129.003 457.45 129.725 459.204 132.37C460.957 135.014 460.235 138.579 457.592 140.332C454.948 142.087 451.383 141.364 449.629 138.72C447.875 136.076 448.596 132.511 451.241 130.757Z" fill="#5295FE"></path><path d="M422.909 151.578C422.678 152.303 423.08 153.078 423.806 153.309L426.461 154.154C426.376 154.984 426.436 155.836 426.669 156.668L424.201 157.946C423.525 158.296 423.261 159.127 423.611 159.804C423.961 160.481 424.793 160.745 425.47 160.395L427.937 159.117C428.481 159.788 429.143 160.329 429.87 160.739L429.027 163.394C428.796 164.12 429.198 164.895 429.923 165.126C430.649 165.356 431.425 164.955 431.655 164.229L432.499 161.574C433.33 161.661 434.182 161.6 435.014 161.366L436.291 163.834C436.641 164.51 437.473 164.775 438.15 164.425C438.826 164.075 439.09 163.243 438.74 162.566L437.463 160.099C438.134 159.554 438.675 158.894 439.084 158.166L441.739 159.01C442.465 159.24 443.241 158.839 443.472 158.113C443.702 157.387 443.301 156.611 442.575 156.381L439.92 155.537C440.006 154.706 439.946 153.853 439.713 153.022L442.181 151.745C442.857 151.395 443.122 150.563 442.771 149.886C442.421 149.21 441.589 148.946 440.912 149.296L438.445 150.573C437.9 149.902 437.239 149.361 436.512 148.951L437.355 146.296C437.585 145.571 437.184 144.796 436.459 144.565C435.733 144.334 434.957 144.735 434.727 145.462L433.883 148.117C433.052 148.031 432.2 148.091 431.368 148.324L430.091 145.856C429.741 145.18 428.909 144.915 428.233 145.266C427.557 145.616 427.292 146.447 427.642 147.124L428.92 149.592C428.249 150.136 427.708 150.797 427.298 151.525L424.643 150.682C423.916 150.45 423.14 150.851 422.909 151.578ZM431.466 151.513C433.306 150.561 435.57 151.28 436.522 153.12C437.475 154.96 436.756 157.223 434.916 158.177C433.075 159.129 430.811 158.409 429.86 156.569C428.906 154.729 429.626 152.465 431.466 151.513Z" fill="#5295FE"></path><path d="M401.788 132.789C402.065 134.081 403.336 134.904 404.628 134.628L409.354 133.616C409.939 134.942 410.762 136.174 411.829 137.225L409.209 141.271C408.492 142.38 408.809 143.862 409.918 144.579C411.028 145.296 412.509 144.98 413.226 143.87L415.845 139.824C417.241 140.366 418.702 140.613 420.152 140.603L421.164 145.329C421.44 146.621 422.712 147.444 424.004 147.168C425.296 146.891 426.119 145.619 425.843 144.327L424.83 139.602C426.156 139.017 427.388 138.194 428.44 137.127L432.486 139.746C433.595 140.463 435.076 140.146 435.794 139.038C436.512 137.928 436.194 136.447 435.086 135.73L431.04 133.111C431.581 131.714 431.828 130.253 431.818 128.804L436.544 127.792C437.836 127.515 438.658 126.244 438.382 124.952C438.105 123.66 436.834 122.837 435.542 123.114L430.817 124.126C430.232 122.8 429.409 121.569 428.342 120.516L430.96 116.47C431.678 115.361 431.361 113.88 430.252 113.162C429.143 112.444 427.662 112.761 426.945 113.87L424.326 117.917C422.929 117.374 421.467 117.128 420.019 117.137L419.007 112.412C418.73 111.119 417.459 110.296 416.166 110.574C414.875 110.851 414.052 112.122 414.328 113.414L415.34 118.139C414.015 118.724 412.783 119.548 411.731 120.615L407.684 117.996C406.575 117.278 405.094 117.595 404.376 118.704C403.659 119.813 403.976 121.294 405.085 122.012L409.131 124.63C408.588 126.027 408.341 127.488 408.351 128.938L403.627 129.95C402.334 130.226 401.511 131.497 401.788 132.789ZM412.406 123.9C415.151 119.659 420.814 118.446 425.055 121.191C429.297 123.936 430.51 129.599 427.764 133.84C425.02 138.081 419.356 139.294 415.115 136.549C410.874 133.805 409.661 128.141 412.406 123.9Z" fill="#5295FE"></path><path d="M175.682 39.0397C183.374 39.0397 189.61 32.8039 189.61 25.1116C189.61 17.4194 183.374 11.1836 175.682 11.1836C167.99 11.1836 161.754 17.4194 161.754 25.1116C161.754 32.8039 167.99 39.0397 175.682 39.0397Z" stroke="#F3F8FF" stroke-width="6" stroke-miterlimit="10"></path><path d="M191.791 25.1115H187.432C187.432 18.6331 182.162 13.3621 175.684 13.3621V9.00342C184.565 9.00342 191.791 16.2301 191.791 25.1115Z" fill="#80E1E8"></path><path d="M217.686 39.0397C225.378 39.0397 231.614 32.8039 231.614 25.1116C231.614 17.4194 225.378 11.1836 217.686 11.1836C209.994 11.1836 203.758 17.4194 203.758 25.1116C203.758 32.8039 209.994 39.0397 217.686 39.0397Z" stroke="#F3F8FF" stroke-width="6" stroke-miterlimit="10"></path><path d="M217.685 41.2196C213.072 41.2196 208.672 39.2357 205.613 35.7757L208.879 32.8888C211.11 35.4132 214.32 36.8602 217.685 36.8602C224.164 36.8602 229.434 31.5899 229.434 25.1115C229.434 18.6331 224.164 13.3621 217.685 13.3621V9.00342C226.567 9.00342 233.793 16.2293 233.793 25.1115C233.793 33.9937 226.567 41.2196 217.685 41.2196Z" fill="#5295FE"></path><path d="M165.635 187.985L152.006 168.451C150.524 166.414 147.673 165.964 145.636 167.445C143.6 168.926 143.149 171.778 144.63 173.815L158.259 193.348L165.635 187.985Z" fill="#FFB692"></path><path d="M149.88 147.242L143.916 170.302C143.333 172.751 144.846 175.209 147.296 175.793C149.745 176.375 152.204 174.862 152.787 172.413L158.751 149.353L149.88 147.242Z" fill="#FFB692"></path><path d="M158.478 150.41L156.458 148.808L149.88 147.243L143.915 170.303C143.656 171.392 143.814 172.482 144.281 173.408L153.674 168.98L158.478 150.41Z" fill="#D88D87"></path><path d="M158.042 162.124L161.305 150.21C162.057 146.822 159.921 143.467 156.533 142.714C153.145 141.962 149.789 144.098 149.037 147.486L145.773 159.401L158.042 162.124Z" fill="#3A9B9B"></path><path d="M158.097 184.511L157.308 185.119C155.099 186.82 154.688 189.989 156.389 192.199C158.09 194.408 161.26 194.819 163.469 193.117L164.258 192.51C166.467 190.809 166.878 187.639 165.177 185.43C163.475 183.222 160.306 182.81 158.097 184.511Z" fill="#FFB692"></path><path d="M161.043 191.702L167.55 187.676C167.55 187.676 164.001 182.397 161.713 183.809C159.198 185.362 162.248 188.148 162.248 188.148C162.248 188.148 160.077 189.322 161.043 191.702Z" fill="#FFB692"></path><path d="M161.711 183.81C161.379 184.083 161.053 184.385 160.931 184.784C160.803 185.175 160.853 185.589 160.996 185.965C161.288 186.717 161.882 187.368 162.491 187.881V187.882L162.845 188.217L162.419 188.469C162.187 188.607 161.929 188.823 161.735 189.047C161.535 189.276 161.38 189.536 161.284 189.812C161.188 190.088 161.139 190.381 161.169 190.679C161.18 190.976 161.274 191.272 161.377 191.564L161.378 191.566L160.851 191.394C161.912 190.685 163.026 190.063 164.15 189.456C165.268 188.838 166.403 188.249 167.548 187.677C166.525 188.447 165.491 189.2 164.44 189.925C163.395 190.66 162.341 191.38 161.233 192.012L160.826 192.245L160.705 191.84L160.704 191.838C160.576 191.485 160.461 191.119 160.444 190.727C160.408 190.341 160.469 189.938 160.599 189.569C160.729 189.198 160.936 188.86 161.187 188.571C161.446 188.281 161.716 188.042 162.075 187.831L162.002 188.419L162.001 188.418C161.68 188.069 161.419 187.715 161.18 187.325C160.945 186.939 160.75 186.519 160.648 186.069C160.545 185.623 160.558 185.129 160.764 184.715C160.964 184.29 161.348 184.033 161.711 183.81Z" fill="#D88D87"></path><path d="M158.77 192.266C158.205 192.649 158.056 193.424 158.439 193.989L161.461 198.049C161.844 198.614 162.619 198.763 163.184 198.38C163.749 197.997 163.898 197.222 163.515 196.657L160.493 192.597C160.11 192.032 159.334 191.883 158.77 192.266Z" fill="#FFB692"></path><path d="M162.391 195.15C161.76 194.52 161.177 193.851 160.614 193.168L160.208 192.671C160.09 192.546 159.944 192.449 159.78 192.402C159.457 192.288 159.089 192.372 158.842 192.594C158.583 192.807 158.472 193.173 158.534 193.506C158.57 193.686 158.625 193.803 158.772 193.997L159.142 194.545C159.634 195.276 160.098 196.028 160.532 196.804C159.913 196.165 159.323 195.502 158.763 194.817L158.342 194.304C158.21 194.158 158.032 193.887 157.978 193.631C157.842 193.104 158.024 192.507 158.438 192.141C158.845 191.766 159.465 191.658 159.974 191.85C160.229 191.944 160.453 192.114 160.622 192.323C160.776 192.536 160.882 192.693 161.007 192.886C161.498 193.618 161.97 194.364 162.391 195.15Z" fill="#D88D87"></path><path d="M160.949 191.076C160.385 191.459 160.236 192.234 160.619 192.799L163.641 196.86C164.024 197.424 164.799 197.573 165.364 197.19C165.928 196.807 166.077 196.032 165.694 195.467L162.673 191.406C162.29 190.842 161.514 190.693 160.949 191.076Z" fill="#FFB692"></path><path d="M164.571 193.96C163.94 193.331 163.357 192.662 162.794 191.979L162.388 191.481C162.27 191.356 162.124 191.26 161.96 191.212C161.637 191.098 161.269 191.182 161.021 191.404C160.763 191.618 160.652 191.984 160.713 192.317C160.75 192.497 160.805 192.614 160.952 192.808L161.322 193.355C161.814 194.086 162.278 194.838 162.712 195.615C162.093 194.975 161.503 194.312 160.942 193.628L160.522 193.114C160.389 192.968 160.212 192.697 160.158 192.441C160.022 191.914 160.204 191.318 160.618 190.951C161.025 190.577 161.645 190.468 162.153 190.661C162.409 190.755 162.633 190.925 162.802 191.134C162.955 191.347 163.061 191.504 163.187 191.697C163.677 192.429 164.148 193.175 164.571 193.96Z" fill="#D88D87"></path><path d="M163.219 189.964C162.654 190.347 162.505 191.122 162.888 191.687L165.91 195.747C166.293 196.312 167.068 196.461 167.633 196.078C168.198 195.695 168.347 194.92 167.964 194.355L164.943 190.294C164.559 189.73 163.784 189.581 163.219 189.964Z" fill="#FFB692"></path><path d="M166.84 192.848C166.209 192.218 165.627 191.549 165.064 190.866L164.657 190.368C164.539 190.243 164.393 190.147 164.23 190.099C163.906 189.985 163.539 190.069 163.291 190.291C163.032 190.505 162.921 190.871 162.983 191.203C163.019 191.384 163.075 191.501 163.221 191.695L163.591 192.242C164.084 192.973 164.547 193.725 164.981 194.502C164.363 193.862 163.773 193.199 163.212 192.515L162.791 192C162.659 191.854 162.482 191.583 162.427 191.328C162.291 190.8 162.473 190.204 162.887 189.837C163.295 189.463 163.914 189.355 164.423 189.547C164.679 189.641 164.902 189.812 165.072 190.02C165.225 190.234 165.331 190.391 165.457 190.583C165.948 191.316 166.418 192.063 166.84 192.848Z" fill="#D88D87"></path><path d="M164.641 187.813C164.076 188.195 163.927 188.971 164.31 189.536L167.332 193.596C167.715 194.16 168.49 194.309 169.055 193.926C169.62 193.543 169.769 192.768 169.386 192.203L166.365 188.143C165.981 187.579 165.205 187.43 164.641 187.813Z" fill="#FFB692"></path><path d="M168.262 190.697C167.631 190.067 167.048 189.398 166.485 188.716L166.079 188.218C165.961 188.093 165.815 187.996 165.651 187.949C165.328 187.835 164.961 187.919 164.713 188.141C164.454 188.355 164.343 188.721 164.405 189.053C164.441 189.234 164.496 189.35 164.643 189.544L165.013 190.092C165.505 190.823 165.969 191.575 166.403 192.351C165.784 191.712 165.194 191.049 164.634 190.365L164.213 189.851C164.081 189.705 163.904 189.434 163.849 189.178C163.713 188.651 163.896 188.055 164.309 187.688C164.716 187.314 165.336 187.205 165.845 187.398C166.1 187.492 166.324 187.662 166.493 187.871C166.647 188.084 166.753 188.241 166.878 188.434C167.369 189.165 167.84 189.912 168.262 190.697Z" fill="#D88D87"></path><path d="M154.365 269.829H153.346C151.319 269.829 149.66 268.171 149.66 266.143V261.083C149.66 259.055 151.319 257.397 153.346 257.397H154.365C156.392 257.397 158.051 259.055 158.051 261.083V266.143C158.051 268.171 156.392 269.829 154.365 269.829Z" fill="#6BDDBC"></path><path d="M149.51 263.17H149.795C150.01 263.17 150.207 263.302 150.274 263.506C150.757 264.983 152.144 266.05 153.782 266.05C155.42 266.05 156.807 264.982 157.29 263.506C157.357 263.302 157.554 263.17 157.768 263.17H160.482C160.567 263.17 160.651 263.191 160.727 263.232L167.763 267.07C168.789 267.63 169.623 268.484 170.157 269.522L171.149 271.447C171.86 272.828 170.857 274.472 169.304 274.472H150.951C149.642 274.472 148.615 273.351 148.729 272.048L149.51 263.17Z" fill="#5295FE"></path><path d="M154.353 266.004C154.167 266.033 153.977 266.051 153.783 266.051C152.469 266.051 151.326 265.358 150.672 264.324C150.269 264.186 149.86 264.059 149.443 263.943L148.731 272.047C148.617 273.35 149.644 274.471 150.953 274.471H161.284C160.39 271.089 157.883 268.078 154.353 266.004Z" fill="#3D7AD3"></path><path d="M151.244 269.428C151.244 270.845 152.143 271.993 153.252 271.993C154.361 271.993 155.26 270.845 155.26 269.428C155.26 268.012 154.361 266.863 153.252 266.863C152.143 266.863 151.244 268.011 151.244 269.428Z" fill="white"></path><path d="M149.627 275.137H170.753C171.312 275.137 171.769 274.68 171.769 274.121C171.769 273.562 171.312 273.105 170.753 273.105H149.627C149.068 273.105 148.611 273.562 148.611 274.121C148.611 274.68 149.068 275.137 149.627 275.137Z" fill="#EAAC3D"></path><path d="M145.372 192.942L148.699 224.704L160.578 223.46L157.251 191.698L145.372 192.942Z" fill="#3E3D5E"></path><path d="M159.984 262.229L160.473 221.72C153.877 221.64 148.465 220.304 148.386 226.9L148.041 262.084L159.984 262.229Z" fill="#3E3D5E"></path><path d="M160.481 257.681H147.385V262.581H160.481V257.681Z" fill="#4E4E7F"></path><path d="M139.414 200.136H148.292C153.662 200.136 158.056 195.742 158.056 190.371C158.056 186.776 155.115 183.835 151.52 183.835H136.187C132.592 183.835 129.65 186.776 129.65 190.371C129.65 195.742 134.044 200.136 139.414 200.136Z" fill="#3E3D5E"></path><path d="M139.853 269.829H138.834C136.807 269.829 135.148 268.171 135.148 266.143V261.083C135.148 259.055 136.807 257.397 138.834 257.397H139.853C141.88 257.397 143.539 259.055 143.539 261.083V266.143C143.539 268.171 141.88 269.829 139.853 269.829Z" fill="#6BDDBC"></path><path d="M134.992 263.17H135.277C135.493 263.17 135.689 263.302 135.756 263.506C136.239 264.983 137.626 266.05 139.264 266.05C140.902 266.05 142.289 264.982 142.772 263.506C142.839 263.302 143.037 263.17 143.251 263.17H145.964C146.05 263.17 146.134 263.191 146.209 263.232L153.245 267.07C154.271 267.63 155.105 268.484 155.64 269.522L156.631 271.447C157.342 272.828 156.34 274.472 154.787 274.472H136.433C135.125 274.472 134.098 273.351 134.212 272.048L134.992 263.17Z" fill="#5295FE"></path><path d="M136.727 269.428C136.727 270.845 137.625 271.993 138.734 271.993C139.843 271.993 140.742 270.845 140.742 269.428C140.742 268.012 139.844 266.863 138.734 266.863C137.626 266.863 136.727 268.011 136.727 269.428Z" fill="white"></path><path d="M135.113 275.137H156.24C156.798 275.137 157.255 274.68 157.255 274.122C157.255 273.563 156.798 273.106 156.24 273.106H135.113C134.555 273.106 134.098 273.563 134.098 274.122C134.098 274.68 134.555 275.137 135.113 275.137Z" fill="#F4C85B"></path><path d="M131.547 192.942L134.875 224.704L146.754 223.46L143.426 191.698L131.547 192.942Z" fill="#3E3D5E"></path><path d="M146.159 262.228L146.648 221.72C140.053 221.64 134.641 220.303 134.562 226.899L134.217 262.084L146.159 262.228Z" fill="#3E3D5E"></path><path d="M146.518 257.68H133.422V262.581H146.518V257.68Z" fill="#4E4E7F"></path><path d="M135.845 183.835H151.861C154.222 183.835 156.282 185.173 157.327 187.128C146.414 195.569 135.923 194.756 129.95 193.172C129.762 192.437 129.65 191.673 129.65 190.882V190.03C129.65 186.622 132.438 183.835 135.845 183.835Z" fill="#262638"></path><path d="M159.117 188.87C154.029 190.272 146.684 191.575 137.988 190.673C134.464 190.306 131.311 189.64 128.58 188.87C128.58 176.645 128.58 164.419 128.58 152.194C128.58 145.388 134.097 139.871 140.903 139.871H143.231C152.005 139.871 159.117 146.984 159.117 155.758V188.87Z" fill="#6BDDBC"></path><path d="M159.119 164.531V155.264L145.458 160.215L134.445 145.888C132.873 147.957 128.582 149.442 128.582 151.06C137.688 180.138 154.248 168.725 159.119 164.531Z" fill="#69C9AB"></path><path d="M133.996 190.097C134.242 190.141 134.487 190.185 134.737 190.226V141.536C134.486 141.681 134.235 141.826 133.996 141.988V190.097Z" fill="#3A9B9B"></path><path d="M137.161 141.895C136.807 143.904 140.135 146.168 144.594 146.953C149.054 147.738 152.955 146.746 153.309 144.738C153.662 142.729 150.334 140.465 145.874 139.679C141.416 138.896 137.514 139.887 137.161 141.895Z" fill="#FFB692"></path><path d="M150.293 140.946C150.293 128.661 147.894 135.046 144.934 135.046C141.975 135.046 139.576 129.453 139.576 140.946C139.576 145.252 141.975 144.88 144.934 144.88C147.894 144.88 150.293 145.252 150.293 140.946Z" fill="#FFB692"></path><path d="M139.689 137.358C140.194 130.78 142.351 135.046 144.936 135.046C147.801 135.046 150.141 129.06 150.287 139.833C145.708 141.33 142.156 139.592 139.689 137.358Z" fill="#D88D87"></path><path d="M152.931 125.191C152.309 126.876 152.713 128.604 153.832 129.051C154.951 129.499 156.362 128.496 156.984 126.812C157.605 125.127 157.201 123.399 156.083 122.951C154.963 122.504 153.552 123.506 152.931 125.191Z" fill="#FFB692"></path><path d="M154.125 125.606C153.954 125.537 153.772 125.522 153.59 125.55C153.599 125.522 153.607 125.495 153.617 125.466C154.029 124.353 154.961 123.691 155.7 123.986C156.44 124.282 156.706 125.424 156.296 126.536C155.98 127.392 155.356 127.979 154.749 128.071C155.115 126.986 154.846 125.894 154.125 125.606Z" fill="#D88D87"></path><path d="M144.098 112.917H148.865C152.586 112.917 155.63 115.96 155.63 119.681V129.529C155.63 134.724 151.38 138.975 146.184 138.975C140.989 138.975 136.738 134.724 136.738 129.529V120.276C136.738 116.228 140.05 112.917 144.098 112.917Z" fill="#FFB692"></path><path d="M148.866 112.917H144.099C141.125 112.917 138.554 114.707 137.396 117.261C144.156 123.634 151.049 123.902 155.632 123.01V119.681C155.631 115.96 152.586 112.917 148.866 112.917Z" fill="#D88D87"></path><path d="M136.093 125.584C131.972 115.467 137.292 110.897 141.863 111.496C146.434 112.095 148.908 112.32 148.908 112.32L147.784 108.573C147.784 108.573 151.231 109.473 152.205 112.545L152.13 107.075C152.13 107.075 157.75 110.372 158.125 117.191C158.5 124.01 149.208 124.91 142.913 118.765C142.913 118.765 142.613 126.933 136.093 125.584Z" fill="#323244"></path><path d="M151.636 128.834C151.636 128.834 149.171 129.285 149.16 129.747C149.149 130.209 150.349 130.429 150.678 130.232C151.009 130.033 151.636 128.834 151.636 128.834Z" fill="#D88D87"></path><path d="M152.248 125.226C152.213 125.798 152.648 126.291 153.221 126.327C153.793 126.363 154.287 125.927 154.322 125.354C154.358 124.782 153.922 124.289 153.349 124.253C152.776 124.217 152.284 124.653 152.248 125.226Z" fill="#34344F"></path><path d="M145.035 125.269C145 125.842 145.435 126.335 146.008 126.37C146.58 126.406 147.074 125.97 147.109 125.398C147.145 124.825 146.709 124.332 146.137 124.296C145.564 124.261 145.071 124.697 145.035 125.269Z" fill="#34344F"></path><path d="M149.646 123.481C149.924 124.674 150.281 125.828 150.663 126.975C150.857 127.547 151.051 128.119 151.269 128.685L151.31 128.791C151.327 128.837 151.293 128.759 151.316 128.719C151.33 128.689 151.317 128.713 151.321 128.709C151.31 128.735 151.261 128.794 151.216 128.841L150.905 129.15C150.691 129.361 150.47 129.573 150.265 129.814C150.568 129.722 150.848 129.588 151.12 129.435C151.253 129.353 151.388 129.275 151.516 129.168C151.581 129.112 151.643 129.065 151.718 128.966C151.739 128.928 151.754 128.923 151.776 128.856C151.803 128.779 151.783 128.662 151.779 128.673L151.743 128.565C151.548 127.988 151.329 127.417 151.11 126.846C150.666 125.706 150.196 124.575 149.646 123.481Z" fill="#D88D87"></path><path d="M150.499 131.312C149.347 130.978 147.748 130.431 146.276 129.638C145.308 129.116 144.256 130.298 144.652 131.479C145.074 132.736 145.942 133.973 147.696 134.356C149.134 134.669 150.111 134.403 150.772 133.941C151.707 133.285 151.525 131.61 150.499 131.312Z" fill="#34344F"></path><path d="M147.695 134.355C145.941 133.973 145.073 132.735 144.651 131.479C144.592 131.301 144.568 131.125 144.568 130.954C145.235 130.75 146.09 130.743 147.184 131.131C148.874 131.732 149.569 133.067 149.819 134.365C149.82 134.368 149.82 134.37 149.82 134.372C149.258 134.52 148.562 134.544 147.695 134.355Z" fill="#FF9292"></path><path d="M148.73 133.015C148.517 133.291 147.852 133.158 147.245 132.715C146.638 132.273 146.318 131.689 146.531 131.412C146.744 131.135 147.408 131.269 148.016 131.711C148.622 132.154 148.943 132.738 148.73 133.015Z" fill="#FFABAB"></path><path d="M150.499 131.312C149.347 130.978 147.749 130.431 146.277 129.638C145.682 129.318 145.057 129.641 144.754 130.211C145.56 131.138 146.864 131.971 148.448 132.471C149.463 132.792 150.463 132.934 151.365 132.917C151.458 132.235 151.147 131.499 150.499 131.312Z" fill="white"></path><path d="M139.825 125.265C140.385 126.971 139.917 128.683 138.783 129.089C137.648 129.495 136.274 128.441 135.715 126.736C135.156 125.029 135.623 123.318 136.757 122.912C137.892 122.506 139.266 123.56 139.825 125.265Z" fill="#FFB692"></path><path d="M138.615 125.637C138.788 125.575 138.971 125.566 139.152 125.601C139.144 125.573 139.137 125.544 139.128 125.516C138.758 124.389 137.851 123.693 137.101 123.961C136.351 124.229 136.042 125.36 136.412 126.487C136.696 127.354 137.298 127.963 137.902 128.078C137.575 126.979 137.885 125.897 138.615 125.637Z" fill="#D88D87"></path><path d="M157.988 118.926C158.108 118.398 158.157 117.82 158.123 117.191C158.094 116.665 158.025 116.167 157.938 115.683C157.053 118.006 155.353 119.93 152.128 119.776C147.693 119.565 145.449 115.402 144.335 111.81C143.595 111.719 142.771 111.615 141.862 111.496C140.631 111.335 139.346 111.552 138.205 112.149C147.333 122.695 154.018 121.623 157.988 118.926Z" fill="#5F5F82"></path><path d="M168.852 147.303L168.855 144.63L168.966 143.157C169.027 142.344 169.736 141.735 170.549 141.796L176.362 142.232C176.377 142.219 176.384 142.27 176.384 142.367C176.382 143.282 175.9 144.069 175.191 144.537C176.069 145.274 176.709 146.266 177.007 147.389C177.125 148.772 175.977 149.932 174.593 149.828L170.936 149.553C169.759 149.465 168.849 148.483 168.852 147.303Z" fill="#F29D7E"></path><path d="M172.712 147.316L201.304 110.2C201.426 110.041 201.654 110.011 201.813 110.134C201.969 110.254 202 110.477 201.884 110.636L174.181 148.421C173.881 148.831 173.305 148.919 172.895 148.618C172.486 148.318 172.397 147.743 172.698 147.333C172.702 147.328 172.708 147.32 172.712 147.316Z" fill="#323244"></path><path d="M168.157 147.805L151.299 158.266C149.226 159.695 148.703 162.534 150.132 164.608C151.561 166.681 154.399 167.204 156.473 165.775L173.331 155.314L168.157 147.805Z" fill="#FFB692"></path><path d="M168.282 152.952L168.916 153.79C170.695 156.136 174.037 156.595 176.383 154.818C178.729 153.039 179.189 149.697 177.411 147.351L176.777 146.513C174.998 144.167 171.656 143.708 169.31 145.485C166.964 147.264 166.504 150.607 168.282 152.952Z" fill="#FFB692"></path><path d="M174.16 150.713C174.414 151.434 175.211 151.816 175.931 151.563L181.189 149.45C181.909 149.197 182.291 148.4 182.038 147.679C181.784 146.958 180.988 146.576 180.267 146.83L175.01 148.942C174.289 149.197 173.907 149.993 174.16 150.713Z" fill="#FFB692"></path><path d="M174.587 152.899C174.794 153.634 175.565 154.066 176.3 153.859L181.681 152.086C182.417 151.879 182.849 151.108 182.642 150.373C182.435 149.638 181.664 149.206 180.929 149.413L175.547 151.186C174.812 151.393 174.38 152.164 174.587 152.899Z" fill="#FFB692"></path><path d="M172.891 145.958C173.144 146.678 173.941 147.06 174.662 146.807L179.919 144.694C180.639 144.441 181.022 143.644 180.768 142.923C180.515 142.203 179.718 141.82 178.997 142.074L173.74 144.186C173.02 144.44 172.638 145.237 172.891 145.958Z" fill="#FFB692"></path><path d="M173.314 148.143C173.521 148.878 174.291 149.31 175.026 149.103L180.408 147.33C181.143 147.123 181.575 146.352 181.368 145.617C181.161 144.882 180.391 144.45 179.655 144.657L174.274 146.43C173.539 146.637 173.107 147.408 173.314 148.143Z" fill="#FFB692"></path><path d="M130.76 154.921L151.76 166.159C154.004 167.304 156.75 166.413 157.894 164.17C159.038 161.927 158.148 159.181 155.905 158.036L134.904 146.798L130.76 154.921Z" fill="#FFB692"></path><path d="M146.261 163.217C146.426 160.161 146.486 155.998 145.924 152.696L143.515 151.407L137.672 158.621L146.261 163.217Z" fill="#D88D87"></path><path d="M147.146 150.504L136.339 144.521C133.225 142.99 129.459 144.275 127.929 147.389C126.398 150.503 127.682 154.269 130.797 155.799L141.604 161.782L147.146 150.504Z" fill="#3A9B9B"></path><path d="M346.712 118.607C346.712 138.457 335.126 142.438 343.912 155.067C352.698 167.696 380.043 158.692 372.136 141.779C364.228 124.867 364.668 114.764 364.668 114.764L346.712 118.607Z" fill="#323244"></path><path d="M312.794 165.961L336.612 165.784C339.13 165.815 341.146 167.881 341.116 170.399C341.085 172.916 339.019 174.933 336.501 174.902L312.684 175.08L312.794 165.961Z" fill="#D88D87"></path><path d="M352.825 152.389L340.514 172.779C339.171 174.909 336.355 175.547 334.225 174.203C332.095 172.86 331.458 170.044 332.801 167.914L345.112 147.524L352.825 152.389Z" fill="#D88D87"></path><path d="M346.455 269.83H347.474C349.501 269.83 351.16 268.172 351.16 266.144V261.084C351.16 259.056 349.501 257.398 347.474 257.398H346.455C344.428 257.398 342.77 259.056 342.77 261.084V266.144C342.77 268.172 344.428 269.83 346.455 269.83Z" fill="#FFB000"></path><path d="M351.31 263.17H351.024C350.809 263.17 350.612 263.303 350.546 263.507C350.062 264.984 348.676 266.051 347.038 266.051C345.399 266.051 344.013 264.983 343.53 263.507C343.463 263.303 343.265 263.17 343.051 263.17H340.338C340.252 263.17 340.168 263.191 340.093 263.233L333.056 267.071C332.031 267.63 331.197 268.484 330.662 269.522L329.671 271.447C328.959 272.828 329.962 274.472 331.515 274.472H349.868C351.177 274.472 352.204 273.351 352.09 272.048L351.31 263.17Z" fill="#9129E3"></path><path d="M349.574 269.428C349.574 270.845 348.676 271.993 347.566 271.993C346.458 271.993 345.559 270.845 345.559 269.428C345.559 268.012 346.457 266.863 347.566 266.863C348.676 266.863 349.574 268.011 349.574 269.428Z" fill="white"></path><path d="M351.193 275.137H330.066C329.508 275.137 329.051 274.68 329.051 274.122C329.051 273.563 329.508 273.106 330.066 273.106H351.193C351.751 273.106 352.208 273.563 352.208 274.122C352.208 274.68 351.751 275.137 351.193 275.137Z" fill="#EAAC3D"></path><path d="M343.589 191.696L340.262 223.458L352.141 224.702L355.468 192.94L343.589 191.696Z" fill="#5295FE"></path><path d="M340.837 262.229L340.348 221.721C346.944 221.641 352.355 220.304 352.434 226.9L352.779 262.085L340.837 262.229Z" fill="#5295FE"></path><path d="M361.404 200.137H352.527C347.156 200.137 342.762 195.743 342.762 190.372C342.762 186.777 345.703 183.835 349.298 183.835H364.631C368.226 183.835 371.168 186.777 371.168 190.372C371.168 195.743 366.774 200.137 361.404 200.137Z" fill="#5295FE"></path><path d="M369.202 269.83H370.22C372.248 269.83 373.906 268.172 373.906 266.144V261.084C373.906 259.056 372.248 257.398 370.22 257.398H369.202C367.174 257.398 365.516 259.056 365.516 261.084V266.144C365.516 268.172 367.175 269.83 369.202 269.83Z" fill="#FFB000"></path><path d="M374.06 263.17H373.774C373.559 263.17 373.362 263.303 373.296 263.507C372.812 264.984 371.426 266.051 369.788 266.051C368.149 266.051 366.763 264.983 366.28 263.507C366.213 263.303 366.015 263.17 365.801 263.17H363.088C363.002 263.17 362.918 263.191 362.843 263.233L355.806 267.071C354.781 267.63 353.947 268.484 353.412 269.522L352.421 271.447C351.709 272.828 352.712 274.472 354.265 274.472H372.619C373.927 274.472 374.954 273.351 374.84 272.048L374.06 263.17Z" fill="#9129E3"></path><path d="M372.327 269.429C372.327 270.845 371.428 271.994 370.32 271.994C369.211 271.994 368.312 270.845 368.312 269.429C368.312 268.012 369.211 266.864 370.32 266.864C371.427 266.863 372.327 268.012 372.327 269.429Z" fill="white"></path><path d="M373.939 275.138H352.812C352.254 275.138 351.797 274.681 351.797 274.122C351.797 273.563 352.254 273.106 352.812 273.106H373.939C374.497 273.106 374.954 273.563 374.954 274.122C374.954 274.681 374.497 275.138 373.939 275.138Z" fill="#F4C85B"></path><path d="M371.268 192.245L371.149 224.591L359.324 224.179V192.245H371.268Z" fill="#5295FE"></path><path d="M363.105 262.651L359.352 224.076C365.916 223.428 370.967 219.89 371.614 226.454L374.99 261.478L363.105 262.651Z" fill="#5295FE"></path><path d="M364.97 183.835H348.954C346.594 183.835 344.534 185.174 343.488 187.128C354.401 195.57 364.892 194.757 370.865 193.172C371.054 192.438 371.165 191.674 371.165 190.883V190.031C371.165 186.623 368.377 183.835 364.97 183.835Z" fill="#3B6BB2"></path><path d="M343.922 147.314L343.167 143.5C346.519 141.265 349.601 140.242 356.492 140.242C359.28 140.567 361.783 141.081 363.894 141.627C368.023 142.696 370.781 146.577 370.395 150.824L367.961 162.508L372.507 188.892C359.04 192.04 340.676 188.892 340.676 188.892L344.657 163.283C340.523 159.593 341.915 154.345 343.922 147.314Z" fill="#FF5050"></path><path d="M360.216 164.408C352.074 159.208 347.977 163.778 347.977 163.778C347.977 163.778 356.066 166.457 360.216 164.408Z" fill="#AD475B"></path><path d="M350.531 140.947C350.531 128.661 352.93 135.046 355.889 135.046C358.849 135.046 361.248 129.453 361.248 140.947C361.248 145.253 358.849 144.881 355.889 144.881C352.93 144.881 350.531 145.253 350.531 140.947Z" fill="#FFB692"></path><path d="M361.132 137.358C360.628 130.781 358.471 135.047 355.886 135.047C353.021 135.047 350.681 129.061 350.535 139.834C355.114 141.33 358.665 139.593 361.132 137.358Z" fill="#D88D87"></path><path d="M347.888 125.192C348.51 126.877 348.106 128.605 346.987 129.052C345.868 129.5 344.457 128.497 343.835 126.813C343.213 125.128 343.617 123.4 344.736 122.952C345.855 122.505 347.267 123.507 347.888 125.192Z" fill="#FFB692"></path><path d="M346.692 125.607C346.863 125.538 347.045 125.523 347.227 125.551C347.217 125.523 347.209 125.495 347.199 125.467C346.789 124.354 345.856 123.692 345.117 123.987C344.377 124.283 344.11 125.425 344.521 126.537C344.837 127.393 345.461 127.98 346.068 128.072C345.702 126.987 345.972 125.895 346.692 125.607Z" fill="#D88D87"></path><path d="M356.72 112.917H351.952C348.232 112.917 345.188 115.961 345.188 119.682V129.53C345.188 134.725 349.438 138.976 354.633 138.976C359.829 138.976 364.079 134.725 364.079 129.53V120.277C364.079 116.229 360.767 112.917 356.72 112.917Z" fill="#FFB692"></path><path d="M351.953 112.917H356.72C359.694 112.917 362.265 114.708 363.423 117.262C356.663 123.635 349.77 123.903 345.188 123.011V119.682C345.188 115.961 348.232 112.917 351.953 112.917Z" fill="#D88D87"></path><path d="M363.053 126.002C356.155 125.91 355.551 120.968 355.771 118.991C355.771 118.991 350.115 124.318 345.283 122.67C345.283 122.67 342.983 118.481 344.844 114.928C346.669 111.441 352.861 112.182 352.861 112.182C352.861 112.182 359.009 108.478 363.348 112.567C369.993 118.826 363.053 126.002 363.053 126.002Z" fill="#323244"></path><path d="M349.188 128.835C349.188 128.835 351.652 129.286 351.663 129.748C351.674 130.21 350.475 130.43 350.145 130.233C349.814 130.034 349.188 128.835 349.188 128.835Z" fill="#D88D87"></path><path d="M348.576 125.227C348.612 125.799 348.176 126.292 347.603 126.328C347.031 126.364 346.538 125.928 346.502 125.355C346.466 124.783 346.902 124.29 347.475 124.254C348.047 124.218 348.54 124.654 348.576 125.227Z" fill="#34344F"></path><path d="M355.791 125.27C355.826 125.843 355.391 126.336 354.818 126.371C354.246 126.407 353.752 125.971 353.717 125.399C353.681 124.826 354.117 124.333 354.69 124.297C355.262 124.262 355.755 124.698 355.791 125.27Z" fill="#34344F"></path><path d="M351.175 123.482C350.897 124.675 350.54 125.829 350.158 126.976C349.964 127.548 349.77 128.12 349.552 128.686L349.511 128.792C349.494 128.838 349.528 128.76 349.505 128.72C349.491 128.69 349.504 128.714 349.5 128.71C349.511 128.736 349.56 128.795 349.605 128.842L349.916 129.151C350.13 129.362 350.351 129.574 350.556 129.815C350.252 129.723 349.973 129.589 349.701 129.436C349.568 129.354 349.433 129.276 349.305 129.169C349.24 129.113 349.178 129.066 349.103 128.967C349.082 128.929 349.067 128.924 349.045 128.857C349.018 128.78 349.038 128.663 349.042 128.674L349.078 128.566C349.273 127.989 349.492 127.418 349.711 126.847C350.156 125.707 350.626 124.576 351.175 123.482Z" fill="#D88D87"></path><path d="M354.822 125.526C356.511 125.828 356.594 124.304 356.594 124.304L354.727 124.441L354.822 125.526Z" fill="#34344F"></path><path d="M347.521 125.526C345.833 125.828 345.75 124.304 345.75 124.304L347.617 124.441L347.521 125.526Z" fill="#34344F"></path><path d="M349.059 131.953C349.059 131.953 352.14 132.137 354.948 130.336C354.948 130.336 354.724 132.533 352.303 133.021C349.882 133.51 349.059 131.953 349.059 131.953Z" fill="#D88D87"></path><path d="M349.059 131.953L354.948 130.336C354.948 130.336 352.522 132.32 349.059 131.953Z" fill="#E59793"></path><path d="M360.998 125.266C360.439 126.972 360.906 128.684 362.041 129.09C363.175 129.496 364.549 128.442 365.108 126.737C365.668 125.03 365.201 123.319 364.066 122.913C362.931 122.507 361.558 123.561 360.998 125.266Z" fill="#FFB692"></path><path d="M362.205 125.638C362.031 125.576 361.85 125.567 361.668 125.602C361.677 125.574 361.683 125.545 361.693 125.517C362.062 124.39 362.97 123.694 363.719 123.962C364.469 124.23 364.778 125.361 364.408 126.488C364.124 127.355 363.522 127.964 362.918 128.079C363.245 126.98 362.936 125.898 362.205 125.638Z" fill="#D88D87"></path><path d="M332.893 163.149L331.737 160.739L331.003 159.458C330.597 158.75 329.695 158.506 328.988 158.912L323.93 161.812C323.911 161.807 323.927 161.855 323.969 161.942C324.365 162.767 325.14 163.27 325.98 163.386C325.506 164.429 325.355 165.6 325.571 166.743C326.061 168.042 327.597 168.593 328.801 167.902L331.982 166.078C333.006 165.491 333.404 164.213 332.893 163.149Z" fill="#F29D7E"></path><path d="M333.162 162.396L356.753 165.678C359.24 166.074 360.936 168.41 360.54 170.897C360.145 173.383 357.808 175.079 355.322 174.684L331.73 171.402L333.162 162.396Z" fill="#FFB692"></path><path d="M335.267 167.096L335.055 168.125C334.461 171.008 331.643 172.864 328.76 172.271C325.877 171.677 324.021 168.859 324.614 165.976L324.827 164.947C325.42 162.064 328.238 160.207 331.121 160.801C334.004 161.394 335.86 164.212 335.267 167.096Z" fill="#FFB692"></path><path d="M330.334 167.526C330.416 168.285 329.862 168.974 329.102 169.056L323.448 169.416C322.689 169.498 322 168.943 321.918 168.184C321.836 167.424 322.39 166.736 323.15 166.654L328.805 166.294C329.564 166.213 330.252 166.767 330.334 167.526Z" fill="#FFB692"></path><path d="M330.892 169.683C331.022 170.435 330.513 171.157 329.76 171.288L324.141 172.008C323.388 172.138 322.666 171.629 322.536 170.876C322.406 170.123 322.915 169.401 323.668 169.271L329.287 168.551C330.039 168.42 330.761 168.93 330.892 169.683Z" fill="#FFB692"></path><path d="M329.889 162.564C329.971 163.323 329.417 164.012 328.657 164.094L319.253 164.886C318.493 164.968 317.805 164.413 317.723 163.653C317.641 162.894 318.195 162.206 318.955 162.124L328.36 161.332C329.119 161.25 329.807 161.804 329.889 162.564Z" fill="#FFB692"></path><path d="M329.991 164.843C330.121 165.596 329.611 166.318 328.859 166.448L323.239 167.168C322.486 167.298 321.764 166.789 321.634 166.037C321.504 165.284 322.013 164.562 322.765 164.431L328.385 163.711C329.138 163.581 329.86 164.09 329.991 164.843Z" fill="#FFB692"></path><path d="M366.921 143.126C369.201 144.1 370.284 146.717 369.359 149.018L360.163 171.892C359.174 174.207 356.494 175.282 354.179 174.292C351.864 173.303 350.789 170.624 351.778 168.308L360.901 145.618C361.854 143.245 364.571 142.121 366.921 143.126Z" fill="#FFB692"></path><path d="M297.646 173.704H332.723V172.506H297.646V173.704Z" fill="#EFF6FF"></path><path d="M297.647 173.704H321.629V172.506H297.647V173.704Z" fill="#A0B8E8"></path><path d="M297.644 172.512L321.629 172.509L316.621 155.644H292.66L297.644 172.512Z" fill="#A0B8E8"></path><path d="M316.621 155.644H317.531L322.611 172.56L321.628 172.506L316.621 155.644Z" fill="#EFF6FF"></path><path d="M303.517 164.964C303.954 166.308 305.242 167.094 306.393 166.719C307.544 166.344 308.122 164.951 307.684 163.607C307.247 162.263 305.959 161.477 304.808 161.852C303.658 162.227 303.08 163.62 303.517 164.964Z" fill="#EFF6FF"></path><path d="M307.479 174.607C305.151 175.62 303.092 174.506 302.822 173.561C302.552 172.616 302.113 171.773 302.113 171.773L304.374 168.567C304.374 168.567 305.74 169.478 304.712 171.418C304.712 171.418 307.074 171.132 307.479 174.607Z" fill="#D88D87"></path><path d="M315.139 174.978C315.139 174.978 307.242 175.686 305.724 174.776C304.206 173.865 303.65 164.854 308.93 164.349C315.982 163.674 315.139 174.978 315.139 174.978Z" fill="#FFB692"></path></svg>