<svg xmlns="http://www.w3.org/2000/svg" width="318" height="295" viewBox="0 0 318 295" fill="none"><path d="M168.28 92.6152V130.286L150.207 140.789V103.118L168.28 92.6152Z" fill="url(#paint0_linear_1847_68875)"></path><path d="M150.207 103.118V140.789L132.023 130.289V92.6191L150.207 103.118Z" fill="url(#paint1_linear_1847_68875)"></path><path d="M168.279 92.6156L150.207 103.118L132.023 92.6196L150.096 82.1172L168.279 92.6156Z" fill="url(#paint2_linear_1847_68875)"></path><path d="M153.115 88.1875L141.113 92.5961L143.113 93.7509L145.274 92.9489L148.721 94.9395L147.344 96.1939L149.344 97.3487L156.911 90.3806L153.115 88.1875ZM147.376 92.1622L153.024 90.0358L153.72 90.4384L150.072 93.7196L147.376 92.1622Z" fill="url(#paint3_linear_1847_68875)"></path><path opacity="0.5" d="M132.023 92.6193V93.1344L150.207 103.633L168.279 93.1295V92.6152L150.207 103.118L132.023 92.6193Z" fill="white"></path><path d="M196.131 77.627V146.364L178.059 156.867V88.1302L196.131 77.627Z" fill="url(#paint4_linear_1847_68875)"></path><path d="M178.058 88.1312V156.868L159.875 146.37V77.6328L178.058 88.1312Z" fill="url(#paint5_linear_1847_68875)"></path><path d="M196.131 77.6273L178.058 88.1306L159.875 77.6321L177.947 67.1289L196.131 77.6273Z" fill="url(#paint6_linear_1847_68875)"></path><path d="M180.645 79.2677C181.914 79.4373 182.782 79.2862 183.89 78.6417C185.76 77.5552 185.392 76.5089 183.407 75.363L179.537 73.1289L169.75 78.8161L173.68 81.0847C175.648 82.221 177.728 82.4404 179.688 81.3017C180.952 80.5672 181.124 79.9645 180.645 79.2677ZM177.762 80.0721C176.794 80.6347 176.099 80.5173 175.273 80.0408L173.445 78.9856L175.837 77.5962L177.665 78.6514C178.463 79.1118 178.567 79.6044 177.762 80.0721ZM179.293 77.6541L177.508 76.6238L179.841 75.2673L181.61 76.2887C182.365 76.7251 182.41 77.1518 181.602 77.6219C180.825 78.0752 180.076 78.1065 179.293 77.6541Z" fill="url(#paint7_linear_1847_68875)"></path><path opacity="0.5" d="M159.875 77.6318V78.1461L178.058 88.6445L196.131 78.1421V77.627L178.058 88.1302L159.875 77.6318Z" fill="white"></path><path d="M198.565 83.0273C198.565 83.0273 196.217 91.8502 195.224 94.2772C191.492 97.2827 187.516 99.1736 187.516 99.1736L189.535 102.724C189.535 102.724 195.971 100.172 199.346 97.6467L201.9 83.0282H198.565V83.0273Z" fill="#596782"></path><path d="M192.187 95.1687L183.04 90.6523L182.684 90.985L187.234 104.409L196.032 109.258L196.384 108.927L192.187 95.1687Z" fill="#4F5473"></path><path d="M191.838 95.5015L182.684 90.9844L186.881 104.741L196.032 109.257L191.838 95.5015Z" fill="#2D3041"></path><path d="M184.502 97.5502C184.502 97.5502 185.303 96.671 185.475 96.6332C185.649 96.5955 187.097 97.019 187.627 97.0921C188.157 97.1636 188.44 97.2416 188.459 97.346C188.477 97.4537 187.976 97.7712 187.454 97.8579C186.934 97.9455 186.181 97.9455 186.181 97.9455C186.181 97.9455 187.937 98.9669 188.216 99.249C188.497 99.5287 188.37 100.176 188.41 101.054C188.448 101.931 188.429 103.186 188.323 103.216C188.216 103.245 187.879 103.177 187.532 102.773C187.184 102.366 186.769 102.057 186.577 102.057C186.383 102.057 186.164 102.383 186.164 102.383C186.164 102.383 185.726 102.404 185.533 102.085C185.34 101.767 184.491 98.8898 184.405 98.7259C184.319 98.5619 184.163 98.3707 184.191 98.1577C184.221 97.9455 184.502 97.5502 184.502 97.5502Z" fill="url(#paint8_linear_1847_68875)"></path><path d="M201.125 135.438C201.125 135.438 203.165 153.07 203.248 155.073C203.333 157.075 203.069 159.904 202.547 161.249L203.382 162.81L207.912 161.732C207.912 161.732 207.422 158.945 207.203 156.974C206.984 155.004 205.81 135.277 205.81 135.277L201.125 135.438Z" fill="url(#paint9_linear_1847_68875)"></path><path d="M207.175 156.685C206.899 153.579 205.81 135.278 205.81 135.278L201.125 135.438C201.125 135.438 203.165 153.07 203.248 155.073C203.291 156.065 203.247 157.259 203.129 158.375C204.3 158.076 205.84 157.554 207.175 156.685Z" fill="#FBE0D5"></path><path d="M195.059 165.849C195.059 165.849 195.114 166.588 195.169 166.784C196.76 167.36 199.34 167.158 201.155 166.662C202.969 166.164 204.828 165.599 206.119 165.402C207.408 165.203 208.487 164.781 208.487 164.781L208.405 163.562L195.059 165.849Z" fill="#FFC8B8"></path><path d="M199.374 165.758L199.302 165.754L197.891 162.95C197.891 162.95 201.245 161.157 201.957 160.452C202.671 159.749 202.703 159.11 203.117 159.238C203.53 159.367 204.496 159.673 204.62 160.073C204.745 160.473 204.565 161.09 204.161 161.775C203.755 162.461 199.374 165.758 199.374 165.758Z" fill="#27638C"></path><path d="M207.828 160.939C207.828 160.939 205.472 161.029 204.702 160.868C203.931 160.705 203.746 160.395 203.249 160.704C202.751 161.013 199.722 162.976 199.326 163.271C198.932 163.567 199.015 163.828 199.09 164.462C199.165 165.097 199.374 165.757 199.374 165.757C199.374 165.757 202.736 165.109 204.337 164.593C205.937 164.077 208.404 163.56 208.404 163.56C208.404 163.56 208.192 161.571 207.828 160.939Z" fill="#A33657"></path><path d="M199.302 165.753C199.302 165.753 198.934 163.793 197.84 162.906C197.84 162.906 196.292 164.03 195.695 164.532C195.099 165.033 195.059 165.848 195.059 165.848C195.059 165.848 197.02 166.195 199.302 165.753Z" fill="white"></path><path d="M199.658 163.908C199.568 163.9 199.484 163.847 199.444 163.759C199.103 163.012 198.61 162.713 198.605 162.71C198.484 162.641 198.44 162.486 198.51 162.363C198.581 162.241 198.735 162.198 198.858 162.267C198.883 162.284 199.496 162.64 199.908 163.548C199.965 163.676 199.909 163.826 199.781 163.884C199.741 163.904 199.699 163.909 199.658 163.908Z" fill="white"></path><path d="M200.442 163.396C200.352 163.39 200.268 163.335 200.228 163.248C199.888 162.499 199.394 162.202 199.388 162.199C199.267 162.129 199.226 161.973 199.296 161.852C199.366 161.731 199.52 161.689 199.642 161.758C199.668 161.773 200.279 162.129 200.692 163.037C200.75 163.166 200.693 163.317 200.566 163.375C200.525 163.392 200.483 163.399 200.442 163.396Z" fill="white"></path><path d="M201.22 162.884C201.13 162.878 201.046 162.825 201.006 162.736C200.667 161.988 200.172 161.691 200.168 161.688C200.045 161.618 200.003 161.462 200.073 161.341C200.143 161.218 200.298 161.176 200.42 161.245C200.446 161.26 201.057 161.617 201.469 162.524C201.527 162.653 201.472 162.804 201.343 162.862C201.303 162.88 201.26 162.888 201.22 162.884Z" fill="white"></path><path d="M202 162.374C201.91 162.366 201.826 162.313 201.785 162.225C201.446 161.476 200.951 161.178 200.945 161.175C200.826 161.105 200.785 160.95 200.854 160.827C200.924 160.708 201.077 160.666 201.2 160.733C201.226 160.748 201.837 161.105 202.25 162.013C202.308 162.141 202.252 162.292 202.123 162.351C202.082 162.37 202.041 162.377 202 162.374Z" fill="white"></path><path d="M202.787 161.863C202.697 161.857 202.613 161.802 202.572 161.714C202.233 160.966 201.739 160.668 201.734 160.666C201.612 160.596 201.569 160.441 201.639 160.318C201.709 160.195 201.864 160.153 201.987 160.224C202.012 160.238 202.625 160.594 203.036 161.503C203.094 161.632 203.038 161.783 202.909 161.84C202.87 161.86 202.829 161.865 202.787 161.863Z" fill="white"></path><path d="M198.203 109.191C198.203 109.191 198.979 123.782 200.395 136.431C201.811 149.083 202.51 155.275 202.51 155.275C202.51 155.275 205.284 155.92 208.231 154.736C208.231 154.736 206.602 139.931 206.495 136.648C206.386 133.363 208.231 109.19 208.231 109.19L198.203 109.191Z" fill="#1A1E26"></path><path d="M210.445 164.535C210.445 164.535 210.515 169.697 210.515 170.937C210.515 172.176 210.705 173.654 211.722 173.987C212.739 174.321 214.758 174.395 215.393 173.706C216.026 173.019 216.026 171.033 216.026 170.477C216.026 169.921 215.786 164.534 215.786 164.534H210.445V164.535Z" fill="#FFC8B8"></path><path d="M209.344 141.264C209.344 141.264 211.075 158.809 211.075 160.606C211.075 162.404 210.634 163.354 210.803 165.968H215.539C215.539 165.968 215.079 162.506 214.876 160.673C214.673 158.842 214.264 141.264 214.264 141.264H209.344Z" fill="url(#paint10_linear_1847_68875)"></path><path d="M209.344 141.264C209.344 141.264 211.002 158.074 211.072 160.469C212.504 160.173 213.81 159.494 214.771 158.876C214.558 153.925 214.264 141.264 214.264 141.264H209.344Z" fill="#FBE0D5"></path><path d="M210.688 170.861V170.667C210.688 170.667 211.341 164.317 211.354 163.708C211.366 163.102 211.876 162.303 213.307 162.398C214.737 162.492 214.844 163.399 214.916 164.102C214.987 164.804 215.757 170.477 215.757 170.477L215.71 170.667L210.688 170.861Z" fill="#27638C"></path><path d="M211.114 161.951C211.114 161.951 210.499 162.437 210.451 164.074C210.402 165.71 210.669 169.937 210.687 170.666C210.687 170.666 211.865 169.983 212.214 169.777C212.564 169.569 212.659 169.19 212.659 168.571C212.659 167.95 212.659 165.376 212.659 164.948C212.659 164.519 212.611 164.068 212.151 163.633C211.69 163.201 211.127 162.56 211.114 161.951Z" fill="#A33657"></path><path d="M214.94 161.951C214.94 161.951 215.677 162.725 215.756 163.574C215.837 164.424 215.756 170.478 215.756 170.478C215.756 170.478 214.517 169.873 214.248 169.602C213.978 169.333 213.866 169.062 213.866 168.696C213.866 168.332 213.866 165.202 213.866 164.709C213.866 164.217 213.818 163.957 214.104 163.634C214.39 163.312 214.901 162.623 214.94 161.951Z" fill="#A33657"></path><path d="M210.685 170.862C210.685 170.862 210.576 172.175 211.353 172.779C212.134 173.384 213.166 173.352 214.086 173.272C215.007 173.193 215.564 172.415 215.628 172.018C215.691 171.619 215.707 170.666 215.707 170.666C215.707 170.666 213.356 168.888 210.685 170.862Z" fill="white"></path><path d="M214.569 164.916C214.539 164.916 214.508 164.909 214.478 164.897C213.071 164.31 211.864 164.885 211.851 164.892C211.733 164.949 211.589 164.9 211.532 164.782C211.475 164.664 211.523 164.521 211.642 164.463C211.699 164.436 213.059 163.788 214.662 164.458C214.782 164.508 214.841 164.647 214.79 164.77C214.75 164.86 214.662 164.916 214.569 164.916Z" fill="white"></path><path d="M214.569 166.009C214.539 166.009 214.508 166.003 214.478 165.99C213.071 165.404 211.864 165.98 211.851 165.985C211.733 166.042 211.589 165.995 211.532 165.875C211.475 165.756 211.523 165.615 211.642 165.556C211.699 165.528 213.059 164.881 214.662 165.55C214.782 165.601 214.841 165.739 214.79 165.862C214.75 165.953 214.662 166.009 214.569 166.009Z" fill="white"></path><path d="M214.569 167.102C214.539 167.102 214.508 167.097 214.478 167.084C213.071 166.497 211.864 167.072 211.851 167.079C211.733 167.135 211.589 167.087 211.532 166.969C211.475 166.85 211.523 166.707 211.642 166.649C211.699 166.622 213.059 165.973 214.662 166.643C214.782 166.694 214.841 166.835 214.79 166.956C214.75 167.048 214.662 167.102 214.569 167.102Z" fill="white"></path><path d="M214.569 168.196C214.539 168.196 214.508 168.191 214.478 168.178C213.071 167.591 211.864 168.166 211.851 168.172C211.733 168.23 211.589 168.181 211.532 168.063C211.475 167.944 211.523 167.802 211.642 167.745C211.699 167.716 213.059 167.069 214.662 167.737C214.782 167.789 214.841 167.927 214.79 168.05C214.75 168.14 214.662 168.196 214.569 168.196Z" fill="white"></path><path d="M214.569 169.289C214.539 169.289 214.508 169.283 214.478 169.27C213.071 168.685 211.864 169.259 211.851 169.265C211.733 169.322 211.589 169.273 211.532 169.155C211.475 169.037 211.523 168.895 211.642 168.836C211.699 168.808 213.059 168.161 214.662 168.831C214.782 168.882 214.841 169.02 214.79 169.142C214.75 169.232 214.662 169.289 214.569 169.289Z" fill="white"></path><path d="M203.508 109.746C203.508 109.746 208.918 139.664 210.129 157.51C210.129 157.51 212.713 158.358 215.54 157.187C215.54 157.187 214.394 127.258 214.16 109.746H203.508Z" fill="#262C38"></path><path d="M204.006 80.6487C204.006 80.6487 202.538 81.143 202.108 82.5694C201.678 83.995 199.363 110.617 199.363 110.617C199.363 110.617 204.88 113.497 211.704 110.939L211.422 81.2747L209.524 79.9785L204.006 80.6487Z" fill="white"></path><path d="M211.574 97.565L211.58 98.183C211.524 98.183 211.463 98.1854 211.407 98.1854C206.911 98.1854 203.342 97.4983 200.617 96.6272C200.636 96.419 200.656 96.2101 200.675 96.002C203.39 96.8843 206.995 97.5835 211.574 97.565ZM211.608 101.149L211.602 100.532C206.858 100.554 203.158 99.8063 200.409 98.8797C200.39 99.0903 200.37 99.2984 200.352 99.5073C203.11 100.419 206.764 101.152 211.407 101.152C211.473 101.152 211.542 101.15 211.608 101.149ZM200.946 93.1234C200.927 93.3291 200.908 93.5357 200.888 93.743C203.578 94.574 207.059 95.2176 211.408 95.2176C211.456 95.2176 211.505 95.216 211.553 95.2152L211.547 94.5981C207.134 94.6125 203.621 93.9624 200.946 93.1234ZM201.224 90.2393C201.205 90.445 201.184 90.6523 201.163 90.8629C203.814 91.652 207.208 92.2515 211.407 92.2515C211.445 92.2515 211.486 92.2499 211.524 92.2499L211.518 91.6319C207.267 91.6432 203.859 91.0356 201.224 90.2393Z" fill="#A33657"></path><path d="M209.59 80.172C209.59 80.172 210.744 80.9547 210.125 83.0802C209.505 85.2058 206.787 89.9986 206.195 91.8822C205.603 93.7675 205.711 94.6812 205.899 98.1545C206.087 101.627 207.677 113.605 207.891 114.952C208.106 116.298 208.295 116.621 209.345 116.459C210.395 116.298 213.572 114.467 214.46 113.82C215.348 113.176 215.698 112.906 215.589 112.071C215.483 111.237 214.136 107.281 214.136 106.015C214.136 104.75 216.881 90.9669 217.393 88.6525C217.905 86.3381 217.42 85.2347 216.397 84.0759C215.375 82.9195 209.357 79.5371 209.357 79.5371L209.59 80.172Z" fill="#697999"></path><path d="M206.517 104.298C208.222 105.132 211.233 106.533 214.427 107.707C214.257 107.007 214.137 106.392 214.137 106.016C214.137 105.144 215.441 98.3267 216.419 93.415H212.892V100.588L206.203 101.517C206.296 102.381 206.402 103.324 206.517 104.298Z" fill="#596782"></path><path d="M203.88 80.8018C203.88 80.8018 202.234 81.3973 202.295 83.4971C202.356 85.597 202.557 91.7342 202.577 92.8239C202.598 93.9144 202.457 97.0629 202.133 99.3846C201.811 101.707 199.933 113.539 199.771 114.224C199.611 114.91 199.206 114.951 198.6 114.89C197.996 114.831 197.329 114.184 197.228 114.103C197.127 114.022 196.804 113.921 196.946 112.77C197.087 111.619 198.378 104.029 198.419 102.594C198.459 101.161 198.196 88.4024 198.277 86.0606C198.358 83.7189 198.419 83.0929 198.681 82.8711C198.944 82.6477 203.788 80.6113 203.788 80.6113H203.879V80.8018H203.88Z" fill="#697999"></path><path d="M203.883 75.8358C203.883 75.8358 203.883 80.4887 203.883 80.8021C203.883 81.1147 203.336 81.4884 203.328 82.0742C203.317 82.6601 203.627 84.5068 204.862 84.5068C207.063 84.5068 209.859 81.7504 209.667 80.5297C209.474 79.3082 209.102 79.571 209.102 78.2779C209.102 76.9865 209.102 75.835 209.102 75.835L203.883 75.8358Z" fill="url(#paint11_linear_1847_68875)"></path><path d="M203.882 75.8359C203.882 75.8359 203.882 80.4889 203.882 80.8023C203.882 81.0321 203.59 81.2949 203.43 81.6501C203.641 81.9185 204.042 82.1499 204.781 82.211C206.838 82.3774 208.386 80.5572 209.229 79.2417C209.153 79.0335 209.101 78.7675 209.101 78.2789C209.101 76.9875 209.101 75.8359 209.101 75.8359H203.882Z" fill="#FBE0D5"></path><path d="M201.247 69.1438C200.217 71.4044 200.633 74.164 200.964 75.9263C201.206 77.2186 202.76 79.8841 202.982 80.2779C203.205 80.6717 204.639 80.7424 205.112 80.5399C205.588 80.3382 208.251 78.3396 208.564 77.7747C208.878 77.2089 209.241 76.0999 209.241 76.0999C209.241 76.0999 210.998 74.3328 211.137 71.5868C211.28 68.8409 209.665 66.3979 206.476 66.2163C203.814 66.0644 202.112 67.2417 201.247 69.1438Z" fill="url(#paint12_linear_1847_68875)"></path><path d="M208.904 74.8975H208.447C208.447 74.8975 208.314 73.3489 208.232 73.2822C208.151 73.2147 206.817 72.5421 206.805 72.4336C206.792 72.3267 206.563 71.1824 206.563 71.1824C206.563 71.1824 205.998 72.1113 205.108 72.5951C205.054 72.4601 205.108 71.3037 205.108 71.3037C205.108 71.3037 204.395 71.9908 202.835 72.4071C201.273 72.8241 200.115 73.0933 200.115 72.8635C200.115 72.6353 200.358 71.9353 200.358 71.9353C200.358 71.9353 199.227 72.1105 199.145 72.043C199.065 71.9763 199.416 70.132 200.048 69.0954C199.509 69.0833 198.891 68.7056 198.958 68.5425C199.026 68.3818 200.21 66.9553 202.053 66.134C201.53 65.8648 201.503 65.3674 201.636 65.3272C201.772 65.287 205.714 64.2632 207.681 64.788C209.644 65.3136 209.631 66.3366 209.631 66.3366C209.631 66.3366 211.977 67.243 212.228 70.1184C212.591 74.2666 210.35 76.4942 209.111 78.6391L209.104 76.4942L209.978 73.5852L208.904 74.8975Z" fill="#262C38"></path><path d="M208.848 74.5846C208.848 74.5846 209.063 73.5182 209.333 73.1606C209.706 72.6655 210.819 72.5137 210.873 73.1606C210.928 73.8075 210.201 75.6236 210.059 75.917C209.917 76.2095 209.105 76.4948 209.105 76.4948C209.105 76.4948 208.646 76.371 208.848 74.5846Z" fill="url(#paint13_linear_1847_68875)"></path><path d="M204.789 98.7468C204.132 98.3723 203.067 96.4871 202.864 96.295C202.667 96.1021 200.637 96.2179 200.251 96.295C199.863 96.3721 199.365 97.183 199.345 97.6467C199.325 98.1096 199.577 99.6155 199.653 99.9426C199.731 100.272 200.427 100.405 200.697 100.599C200.967 100.793 201.274 101.371 201.412 101.159C201.546 100.946 201.505 100.521 201.505 100.521C201.505 100.521 202.066 101.057 202.722 101.206C203.38 101.353 203.785 101.159 204.461 101.371C205.139 101.584 211.642 103.861 213.747 104.5C215.85 105.136 217.163 105.058 218.669 104.77C220.175 104.48 220.772 104.075 221.12 103.938C221.469 103.802 222.104 103.437 221.91 102.567C221.719 101.701 220.619 97.5302 220.619 97.5302L215.735 99.2844L216.044 100.038C216.044 100.038 214.809 99.7104 213.034 99.7297C211.256 99.7505 206.816 99.9048 204.789 98.7468Z" fill="#F5B7A9"></path><path d="M202.94 96.3859C202.94 96.3859 201.999 95.7245 201.753 95.5871C201.505 95.4505 200.198 95.2392 199.67 95.1033C199.139 94.9667 198.524 94.7851 198.308 94.6975C198.092 94.6107 197.923 94.9434 198.308 95.3131C198.692 95.6828 199.271 95.7631 199.538 95.8475C199.808 95.9351 200.271 96.3112 200.798 96.4357C201.326 96.5579 202.94 96.3859 202.94 96.3859Z" fill="#F5B7A9"></path><path d="M217.383 85.6353C217.383 85.6353 220.484 96.1442 220.956 97.7723C221.426 99.4005 222.329 102.401 222.222 102.798C222.113 103.197 221.826 104.074 220.811 104.411C216.458 105.857 215.111 104.985 207.992 103.971V99.3571L215.313 99.5073C215.313 99.5073 213.198 94.4896 212.926 93.567C212.654 92.6445 213.037 88.9824 213.728 86.8946C214.419 84.806 216.902 84.6164 217.383 85.6353Z" fill="#697999"></path><path d="M231.702 80.043C230.496 82.813 228.845 86.2469 233.275 87.7673L234.114 88.501C234.114 88.501 229.632 93.6916 234.114 97.5457C238.597 101.4 243.727 99.3024 245.067 97.389C246.41 95.4756 247.092 94.1384 246.094 90.1002C245.099 86.0628 244.516 85.1387 244.519 82.2585L231.702 80.043Z" fill="#262C38"></path><path d="M226.347 103.994C226.347 103.994 215.041 102.258 214.313 102.101C213.583 101.944 213.384 100.581 212.689 100.039C211.999 99.4969 211.182 99.2824 210.93 99.0951C210.675 98.9079 210.493 98.6885 210.274 98.8436C210.057 99.0003 210.146 99.4784 210.616 99.7894C211.083 100.103 211.443 100.428 211.491 100.563C211.538 100.695 211.133 100.738 210.889 100.664C210.646 100.591 209.736 100.39 209.436 100.235C209.134 100.08 208.356 99.3322 207.867 99.0791C207.379 98.8267 206.889 98.7873 206.727 98.8484C206.567 98.9135 206.73 99.3579 207.01 99.5749C207.29 99.7894 207.651 100.062 207.771 100.524C207.888 100.985 208.462 102.962 208.8 103.39C209.138 103.818 209.349 104.032 209.627 104.053C209.908 104.076 213.155 104.461 213.555 104.515C213.862 104.556 220.524 106.525 223.687 107.456C225.167 107.892 226.811 107.877 226.811 107.877L230.243 104.956L229.76 101.847L226.347 103.994Z" fill="url(#paint14_linear_1847_68875)"></path><path d="M233.781 100.921C233.781 100.921 229.104 108.229 227.056 108.226C226.139 108.225 222.043 107.441 222.043 107.441C222.043 107.441 222.094 105.565 222.907 103.268L226.095 103.515C226.095 103.515 227.233 101.796 231.917 93.643C234.445 93.1568 233.955 99.9602 233.781 100.921Z" fill="#596782"></path><path d="M235.889 88.132C235.889 88.132 236.027 89.8951 235.665 90.8466C235.305 91.7965 233.389 92.6917 233.348 92.6917C233.31 92.6917 231.422 96.7893 231.422 96.7893C231.422 96.7893 232.16 98.9036 236.195 99.5465C240.229 100.189 243.924 96.5756 243.924 96.5756L244.22 93.5017C244.22 93.5017 240.491 91.1857 240.553 89.417C240.613 87.6506 241.024 85.1152 241.024 85.1152H235.889V88.132Z" fill="url(#paint15_linear_1847_68875)"></path><path d="M240.593 88.6238C240.72 86.978 241.02 85.1152 241.02 85.1152H235.885V88.132C235.885 88.132 236.022 89.8951 235.661 90.8466C235.588 91.0387 235.447 91.2299 235.273 91.4116C236.065 93.0196 238.854 91.7033 240.593 88.6238Z" fill="#FBE0D5"></path><path d="M239.831 114.006H230.449C230.449 114.006 228.831 119.973 229.226 128.454C229.622 136.939 231.024 147.975 231.779 151.928C232.21 154.198 233.072 158.447 233.732 162.389C234.223 165.313 234.604 168.069 234.619 169.722C234.656 173.602 234.729 173.424 233.899 175.186C233.073 176.946 231.132 178.96 231.132 178.96L232.641 179.965C232.641 179.965 234.368 179.427 235.912 178.85C237.459 178.276 238.753 176.873 238.753 176.873C238.753 176.873 237.819 174.609 237.782 172.13C237.759 170.593 238.014 166.454 238.227 162.738C238.358 160.451 238.474 158.328 238.5 157.069C238.573 153.761 237.459 151.137 237.459 148.621C237.459 146.105 239.399 137.73 239.832 135.034V114.006H239.831Z" fill="url(#paint16_linear_1847_68875)"></path><path d="M231.782 151.927C232.212 154.197 233.074 158.446 233.734 162.388C234.225 165.312 234.606 168.068 234.621 169.721C234.623 169.944 234.625 170.151 234.628 170.349C235.449 170.413 237.193 170.485 238.51 170.405C238.586 168.419 238.755 158.609 238.78 157.351C238.853 154.043 237.854 151.146 237.854 148.629C237.854 146.113 239.402 137.729 239.835 135.033V114.005H230.453C230.453 114.005 228.835 119.972 229.23 128.453C229.624 136.939 231.026 147.975 231.782 151.927Z" fill="#1A1E26"></path><path d="M227.883 182.122V182.516C227.883 182.516 228.602 183.036 230.005 183.036C231.405 183.036 233.311 182.661 234.462 181.78C235.611 180.899 236.375 180.197 236.5 180.19C236.625 180.18 236.67 180.522 236.805 180.673C236.941 180.827 237.139 180.808 237.372 180.729C237.605 180.646 239.072 179.982 239.276 179.875C239.485 179.765 239.583 179.533 239.529 179.324C239.476 179.118 239.432 178.112 239.432 178.112L227.883 182.122Z" fill="#1E202B"></path><path d="M238.503 176.17C238.503 176.17 235.635 178.545 234.498 178.976C233.36 179.405 233.145 179.208 232.949 179.1C232.75 178.994 231.959 178.365 231.662 178.374C231.367 178.383 229.408 180.269 228.724 180.682C228.039 181.096 227.844 181.492 227.879 182.121C228.527 182.624 230.703 183.001 232.928 182.121C235.157 181.239 235.767 180.252 236.811 179.551C237.853 178.849 239.446 178.408 239.482 178.229C239.52 178.047 239.186 176.837 238.503 176.17Z" fill="#3D4659"></path><path d="M245.703 174.438C245.716 172.817 246.016 169.762 246.284 166.901C246.482 164.767 246.667 162.741 246.701 161.498C246.781 158.586 245.648 153.303 245.487 150.472C245.324 147.641 247.662 133.955 247.589 129.462C247.517 124.968 247.337 119.542 243.851 114.006H234.182L233.895 117.044C233.895 117.044 234.058 123.728 235.188 129.442C236.321 135.158 239.61 148.207 239.827 152.52C240.041 156.832 240.004 158.758 240.941 163.61C241.151 164.699 241.379 165.752 241.608 166.791C242.394 170.383 243.166 173.778 243.063 177.646C242.926 182.632 242.414 184.196 242.576 185.222H247.374C247.374 185.222 247.295 183.846 247.052 182.688C246.806 181.528 245.676 177.269 245.703 174.438Z" fill="url(#paint17_linear_1847_68875)"></path><path d="M239.535 152.437C239.75 156.749 241.631 170.608 241.911 172.659C242.774 172.677 244.637 172.894 245.773 172.827C245.879 171.167 246.09 168.985 246.285 166.901C246.483 164.767 246.668 162.741 246.702 161.498C246.782 158.586 246.241 153.416 246.079 150.584C245.916 147.753 247.663 133.954 247.59 129.462C247.518 124.968 247.338 119.542 243.852 114.006H234.183L233.578 116.657C233.578 116.657 233.822 123.502 234.952 129.217C236.085 134.932 239.318 148.123 239.535 152.437Z" fill="#262C38"></path><path d="M244.879 184.488C243.639 184.488 242.655 185.191 242.548 185.379C242.44 185.568 242.247 186.174 242.548 187.076C243.071 188.653 244.179 189.946 245.201 189.918C246.228 189.892 247.157 188.25 247.468 186.751C247.69 185.677 247.477 185.203 247.331 185.096C247.183 184.988 246.415 184.488 244.879 184.488Z" fill="#1E202B"></path><path d="M244.879 184.077C243.639 184.077 242.655 184.776 242.548 184.967C242.44 185.153 242.247 185.759 242.548 186.662C243.071 188.238 244.179 189.536 245.201 189.506C246.228 189.481 247.157 187.836 247.468 186.341C247.69 185.262 247.477 184.79 247.331 184.682C247.183 184.571 246.415 184.077 244.879 184.077Z" fill="#3D4659"></path><path d="M244.541 115.169C244.541 115.169 243.709 115.75 242.664 116.19C241.14 116.834 238.586 117.521 235.249 117.016C232.618 116.618 231.364 115.739 230.806 115.167C230.5 114.854 230.32 114.539 230.32 114.539L230.404 114.103C230.404 114.103 231.181 115.87 235.249 116.486C240.873 117.337 244.291 114.726 244.291 114.726L244.541 115.169Z" fill="#A66B51"></path><path d="M233.709 92.5215C233.43 93.7824 233.083 96.8072 237.446 96.6738C241.811 96.5388 243.923 93.3002 243.923 93.3002C243.923 93.3002 244.073 93.2455 244.379 93.4473C244.687 93.6482 246.441 95.0264 247.043 95.6283C247.645 96.231 247.861 96.7131 247.727 98.0134C247.593 99.3112 243.792 112.712 243.792 113.059C243.792 113.406 244.291 114.726 244.291 114.726C244.291 114.726 240.874 117.337 235.249 116.486C231.18 115.87 230.404 114.103 230.404 114.103C230.404 114.103 230.404 108.748 230.084 106.848C229.76 104.948 228.314 103.766 229.035 100.873C229.425 99.3048 231.534 94.7555 231.83 94.1512C232.125 93.5501 232.418 93.3621 232.699 93.1226C232.973 92.8903 233.709 92.5215 233.709 92.5215Z" fill="white"></path><path d="M241.752 91.5527C241.752 91.5527 238.412 99.1678 237.958 105.107C237.507 111.048 237.633 116.994 237.809 119.175C237.983 121.356 240.918 123.389 243.175 122.259C245.433 121.131 246.686 118.598 246.486 117.845C246.283 117.092 244.279 113.882 244.279 113.606C244.279 113.33 247.867 98.9838 247.939 97.7807C248.016 96.5753 247.691 95.8481 246.862 95.1216C246.035 94.3951 241.752 91.5527 241.752 91.5527Z" fill="#697999"></path><path d="M245.148 103.729C245.148 103.729 244.683 106.148 245.064 110.261C245.411 108.83 245.829 107.099 246.242 105.382L245.148 103.729Z" fill="#596782"></path><path d="M238.109 103.728C238.109 103.728 241.713 99.085 242.148 98.3328C242.582 97.5806 242.7 97.0623 242.7 96.2932C242.7 95.5241 242.643 92.1474 242.643 92.1474L241.211 90.9443C241.211 90.9443 239.272 95.6471 238.109 103.728Z" fill="#889DC7"></path><path d="M234.756 91.8672C234.756 91.8672 232.898 97.0955 232.597 103.348C232.297 109.602 232.363 115.988 232.038 117.519C231.712 119.05 229.719 120.347 229.449 120.075C229.179 119.802 229.982 115.237 230.071 113.883C230.157 112.528 230.207 108.229 229.905 107.068C229.604 105.907 228.301 103.666 228.7 101.688C229.103 99.7129 231.675 94.1695 231.838 93.7798C232 93.3916 232.704 93.0156 232.932 92.7761C233.166 92.539 234.756 91.8672 234.756 91.8672Z" fill="#697999"></path><path d="M235.276 91.4121C235.276 91.4121 232.819 97.8949 232.627 102.806C232.627 102.806 231.962 97.166 231.924 96.5263C231.888 95.8874 232.012 95.4487 232.263 95.022C232.514 94.5952 233.991 92.2061 233.991 92.2061L235.276 91.4121Z" fill="#889DC7"></path><path d="M232.249 83.564C232.179 84.8867 231.984 85.6791 232.45 86.8837C232.92 88.0883 233.883 88.908 234.16 89.2471C234.436 89.5863 234.686 89.8185 235.007 89.8185C235.329 89.8185 239.418 89.043 240.932 85.7048C242.414 84.9542 243.862 81.403 242.629 78.5285C241.398 75.6548 238.337 74.9131 235.277 76.4713C233.146 77.557 233.141 79.0967 232.731 80.3278C232.171 82.0218 232.208 82.6655 232.249 83.564Z" fill="url(#paint18_linear_1847_68875)"></path><path d="M240.568 83.5897C240.568 83.5897 240.987 82.0813 241.692 82.1978C242.398 82.3135 242.79 83.4298 242.2 84.6256C241.671 85.7032 240.907 85.8302 240.764 85.6799C240.621 85.5256 240.506 84.0895 240.568 83.5897Z" fill="url(#paint19_linear_1847_68875)"></path><path d="M241.691 76.2391C240.59 75.1911 238.826 74.3176 236.38 74.9115C234.321 75.4113 233.106 76.7654 232.409 78.2015C232.291 78.3968 232.201 78.5904 232.151 78.7785C232.148 78.7897 232.145 78.8042 232.143 78.8154C232.116 78.8829 232.085 78.9504 232.06 79.018C231.937 79.3643 231.815 79.7026 231.704 80.041C231.59 80.3889 231.727 80.4653 232.024 80.4098C232.048 81.7028 232.243 83.0979 232.243 83.0979C232.243 83.0979 232.912 81.8242 233.201 80.9756C233.491 80.1261 233.973 79.8376 234.358 80.2419C234.648 79.8947 235.381 79.8561 235.883 80.937C236.385 82.017 239.626 86.1195 243.563 85.0338C243.563 85.0338 243.776 84.2832 243.935 83.2843C244.483 82.9991 244.539 82.7081 244.521 82.2565C244.49 81.5011 244.995 77.4461 241.691 76.2391Z" fill="#262C38"></path><path d="M239.103 81.3633C239.103 81.3633 240.493 88.3113 238.68 93.6168C238.68 93.6168 242.03 89.0097 242.134 82.7463L239.103 81.3633Z" fill="#262C38"></path><path d="M246.974 112.953C246.974 112.953 245.726 123.267 245.604 124.003C245.481 124.74 244.131 125.003 243.623 125.723C243.114 126.441 242.94 127.265 242.764 127.528C242.588 127.791 242.379 127.984 242.545 128.194C242.713 128.405 243.187 128.292 243.474 127.809C243.764 127.327 244.07 126.951 244.201 126.899C244.332 126.843 244.394 127.248 244.332 127.494C244.271 127.739 244.116 128.66 243.974 128.967C243.835 129.272 243.124 130.088 242.895 130.588C242.667 131.088 242.65 131.578 242.72 131.737C242.791 131.895 243.229 131.711 243.431 131.42C243.632 131.132 243.886 130.755 244.343 130.614C244.797 130.474 246.744 129.807 247.156 129.449C247.568 129.09 247.771 128.869 247.777 128.589C247.789 128.308 248.015 125.048 248.051 124.643C248.077 124.336 249.722 117.587 250.501 114.383C250.867 112.883 250.772 111.242 250.772 111.242L249.808 105.892L246.058 108.024L246.974 112.953Z" fill="url(#paint20_linear_1847_68875)"></path><path d="M247.129 123.485L245.64 123.25L245.527 123.96L246.876 124.488L247.129 123.485Z" fill="#82263D"></path><path d="M248.721 124.535C248.549 125.149 247.994 125.532 247.482 125.387C246.969 125.245 246.695 124.627 246.869 124.012C247.041 123.398 247.595 123.016 248.108 123.159C248.621 123.304 248.896 123.92 248.721 124.535Z" fill="#DB7691"></path><path d="M248.638 124.513C248.49 125.038 248.043 125.371 247.639 125.258C247.232 125.144 247.024 124.625 247.173 124.1C247.321 123.576 247.768 123.242 248.173 123.356C248.577 123.469 248.786 123.989 248.638 124.513Z" fill="white"></path><path d="M247.341 123.563L246.641 123.407L246.818 123.223L247.794 123.285L247.341 123.563Z" fill="#DB7691"></path><path d="M246.938 124.503L246.379 124.294L246.401 124.488L247.129 125.056L246.938 124.503Z" fill="#DB7691"></path><path d="M247.623 96.036C247.623 96.036 249.983 102.906 250.982 111.627C251.086 112.538 250.565 116.025 250.565 116.025C250.565 116.025 248.689 116.064 246.355 115.362L246.546 113.011C246.546 113.011 245.433 107.677 245.143 106.47C244.535 103.968 246.084 93.9827 247.623 96.036Z" fill="#697999"></path><path d="M294.166 231.608L128.606 136.023C123.979 133.351 116.505 133.355 111.912 136.023L24.2635 186.958C19.6709 189.627 19.6958 193.954 24.3246 196.625L189.883 292.211C194.504 294.879 201.976 294.879 206.568 292.211L294.215 241.275C298.807 238.608 298.788 234.278 294.166 231.608Z" fill="url(#paint21_linear_1847_68875)"></path><path d="M187.627 187.407C188.844 186.7 190.824 186.695 192.058 187.407C193.283 188.115 193.291 189.266 192.072 189.973C190.853 190.682 188.868 190.682 187.641 189.973C186.408 189.261 186.408 188.115 187.627 187.407Z" fill="#FFC60B"></path><path d="M178.831 182.329C180.05 181.621 182.036 181.621 183.263 182.329C184.49 183.037 184.496 184.189 183.279 184.896C182.059 185.605 180.074 185.605 178.846 184.896C177.62 184.189 177.613 183.037 178.831 182.329Z" fill="#0EC2FF"></path><path d="M196.42 192.485C197.639 191.777 199.618 191.772 200.851 192.485C202.078 193.193 202.085 194.344 200.866 195.051C199.647 195.758 197.662 195.759 196.434 195.051C195.201 194.339 195.202 193.193 196.42 192.485Z" fill="#0EC2FF"></path><path d="M205.213 197.56C206.431 196.852 208.411 196.848 209.644 197.56C210.871 198.269 210.877 199.419 209.659 200.127C208.441 200.835 206.456 200.835 205.228 200.127C203.994 199.415 203.994 198.269 205.213 197.56Z" fill="#FFC60B"></path><path d="M24.2619 192.592L111.91 141.658C116.503 138.989 123.978 138.986 128.604 141.658L294.164 237.243C295.212 237.848 296.011 238.54 296.585 239.277C298.553 236.756 297.755 233.683 294.164 231.608L128.605 136.023C123.978 133.351 116.503 133.355 111.911 136.023L24.2619 186.958C20.7116 189.021 19.9337 192.074 21.8969 194.587C22.461 193.866 23.2413 193.187 24.2619 192.592Z" fill="url(#paint22_linear_1847_68875)"></path><path d="M243.208 234.14L199.309 259.651L203.147 261.867L247.047 236.355L243.208 234.14Z" fill="url(#paint23_linear_1847_68875)"></path><path d="M236.045 230.004L232.202 227.785L211.031 240.087L214.876 242.306L236.045 230.004Z" fill="url(#paint24_linear_1847_68875)"></path><path d="M233.039 252.793L236.882 255.012L258.052 242.709L254.209 240.49L233.039 252.793Z" fill="url(#paint25_linear_1847_68875)"></path><path d="M192.765 242.404L225.036 223.65L221.193 221.432L188.922 240.186L192.765 242.404Z" fill="url(#paint26_linear_1847_68875)"></path><path d="M210.197 215.08L203.953 218.709L207.796 220.928L214.041 217.299L210.197 215.08Z" fill="url(#paint27_linear_1847_68875)"></path><path d="M186.826 237.351L188.325 237.585L187.921 236.714L188.365 236.456C188.752 236.231 188.746 235.867 188.355 235.642L179.012 230.247C178.622 230.022 177.998 230.022 177.611 230.247L175.628 231.399C175.24 231.624 175.237 231.989 175.627 232.215L184.971 237.609C185.36 237.834 185.994 237.834 186.382 237.609L186.826 237.351Z" fill="url(#paint28_linear_1847_68875)"></path><path d="M188.181 202.372L144.281 227.884L148.125 230.102L192.024 204.59L188.181 202.372Z" fill="url(#paint29_linear_1847_68875)"></path><path d="M166.175 189.667L130.086 210.641L133.929 212.859L170.019 191.886L166.175 189.667Z" fill="url(#paint30_linear_1847_68875)"></path><path d="M135.596 199.143L159.019 185.532L155.18 183.315L131.758 196.927L135.596 199.143Z" fill="url(#paint31_linear_1847_68875)"></path><path d="M181.023 198.239L177.181 196.021L149.594 212.053L153.436 214.271L181.023 198.239Z" fill="url(#paint32_linear_1847_68875)"></path><path d="M179.586 220.119L183.43 222.339L203.034 210.945L199.192 208.727L179.586 220.119Z" fill="url(#paint33_linear_1847_68875)"></path><path d="M134.371 182.66L138.213 184.877L148.016 179.181L144.174 176.962L134.371 182.66Z" fill="url(#paint34_linear_1847_68875)"></path><path d="M122.163 164.257L93.5312 180.896L97.3741 183.115L126.008 166.476L122.163 164.257Z" fill="url(#paint35_linear_1847_68875)"></path><path d="M117.648 179.625L121.491 181.844L137.008 172.826L133.165 170.607L117.648 179.625Z" fill="url(#paint36_linear_1847_68875)"></path><path d="M111.161 157.902L65.5234 184.424L69.3663 186.644L115.004 160.122L111.161 157.902Z" fill="url(#paint37_linear_1847_68875)"></path><path d="M128.879 206.919L119.542 201.527C119.152 201.302 118.523 201.299 118.131 201.527L116.152 202.677C115.766 202.902 115.767 203.269 116.157 203.495L125.495 208.886C125.885 209.111 126.518 209.111 126.906 208.886L127.35 208.629L128.849 208.863L128.446 207.992L128.884 207.738C129.276 207.508 129.27 207.144 128.879 206.919Z" fill="url(#paint38_linear_1847_68875)"></path><path d="M107.828 152.356L106.961 152.86L266.777 245.13L267.643 244.626L107.828 152.356Z" fill="url(#paint39_linear_1847_68875)"></path><path d="M198.875 255.479L189.532 250.085C189.143 249.86 188.509 249.86 188.12 250.085L186.143 251.235C185.751 251.462 185.757 251.827 186.148 252.053L195.49 257.447C195.88 257.672 196.505 257.672 196.897 257.444L197.335 257.19L198.841 257.42L198.431 256.552L198.875 256.295C199.263 256.068 199.267 255.704 198.875 255.479Z" fill="url(#paint40_linear_1847_68875)"></path><path opacity="0.1" d="M128.61 136.023C123.982 133.351 116.508 133.355 111.915 136.023L24.2666 186.958C21.5616 188.53 20.4719 190.676 20.9677 192.722H226.814L128.61 136.023Z" fill="white"></path><path opacity="0.1" d="M136.91 261.627L189.883 292.211C194.504 294.879 201.976 294.879 206.567 292.211L259.195 261.627H136.91Z" fill="white"></path><path d="M289.909 125.021V196.275L271.836 206.777V135.524L289.909 125.021Z" fill="url(#paint41_linear_1847_68875)"></path><path d="M271.836 135.524V206.777L253.652 196.279V125.026L271.836 135.524Z" fill="url(#paint42_linear_1847_68875)"></path><path d="M289.909 125.022L271.836 135.524L253.652 125.027L271.726 114.523L289.909 125.022Z" fill="url(#paint43_linear_1847_68875)"></path><path d="M274.747 120.594L262.746 125.002L264.746 126.157L266.906 125.355L270.354 127.346L268.977 128.6L270.977 129.754L278.544 122.786L274.747 120.594ZM269.009 124.568L274.656 122.441L275.353 122.844L271.705 126.125L269.009 124.568Z" fill="url(#paint44_linear_1847_68875)"></path><path opacity="0.5" d="M253.652 125.026V125.541L271.836 136.039L289.909 125.537V125.021L271.836 135.524L253.652 125.026Z" fill="white"></path><path d="M317.76 172.582V212.354L299.688 222.856V183.084L317.76 172.582Z" fill="url(#paint45_linear_1847_68875)"></path><path d="M299.687 183.084V222.856L281.504 212.358V172.586L299.687 183.084Z" fill="url(#paint46_linear_1847_68875)"></path><path d="M317.76 172.582L299.687 183.085L281.504 172.586L299.576 162.083L317.76 172.582Z" fill="url(#paint47_linear_1847_68875)"></path><path d="M302.27 174.223C303.538 174.392 304.407 174.24 305.515 173.598C307.385 172.51 307.017 171.465 305.032 170.319L301.162 168.084L291.375 173.771L295.305 176.04C297.273 177.176 299.353 177.396 301.314 176.257C302.577 175.521 302.749 174.919 302.27 174.223ZM299.388 175.027C298.419 175.59 297.725 175.472 296.899 174.996L295.071 173.941L297.463 172.55L299.291 173.606C300.089 174.066 300.192 174.559 299.388 175.027ZM300.919 172.609L299.134 171.579L301.467 170.222L303.236 171.244C303.991 171.68 304.036 172.107 303.228 172.577C302.45 173.029 301.701 173.061 300.919 172.609Z" fill="url(#paint48_linear_1847_68875)"></path><path opacity="0.5" d="M281.504 172.586V173.101L299.687 183.599L317.76 173.096V172.582L299.687 183.084L281.504 172.586Z" fill="white"></path><path d="M102.053 100.173V133.172L31.4696 174.191L31.4688 141.192L102.053 100.173Z" fill="url(#paint49_linear_1847_68875)"></path><path d="M31.4695 141.192L31.4703 174.19L20.9461 168.116L20.9453 135.116L31.4695 141.192Z" fill="url(#paint50_linear_1847_68875)"></path><path opacity="0.3" d="M31.4694 141.192L20.9453 135.116V136.02L31.4694 142.096L102.054 101.077V100.173L31.4694 141.192Z" fill="white"></path><path d="M102.054 100.173L31.4694 141.192L20.9453 135.116L91.53 94.0967L102.054 100.173Z" fill="url(#paint51_linear_1847_68875)"></path><path opacity="0.5" d="M94.3152 116.371C94.3128 115.499 93.6964 115.147 92.9378 115.585L40.5365 145.838C39.7787 146.276 39.1656 147.336 39.168 148.209L39.2049 161.092C39.2074 161.963 39.8245 162.319 40.5823 161.881L92.9828 131.628C93.7414 131.19 94.3546 130.125 94.3522 129.253L94.3152 116.371Z" fill="white"></path><path d="M94.3152 116.136C94.3128 115.264 93.6964 114.912 92.9378 115.351L40.5365 145.604C39.7787 146.042 39.1656 147.103 39.168 147.975L39.2049 160.857C39.2074 161.729 39.8245 162.085 40.5823 161.647L92.9828 131.394C93.7414 130.956 94.3546 129.89 94.3522 129.018L94.3152 116.136Z" fill="url(#paint52_linear_1847_68875)"></path><path d="M60.0637 137.009C60.5564 136.724 60.701 136.977 60.7026 137.649L60.7058 138.782L60.218 139.063L60.2148 137.948C60.214 137.63 60.1771 137.444 59.9617 137.569C59.8178 137.652 59.633 137.832 59.6234 137.841C59.6242 137.857 59.6394 138.151 59.6402 138.31L59.6435 139.395L59.1557 139.676L59.1524 138.603C59.1516 138.225 59.1203 138.055 58.8945 138.185C58.7354 138.277 58.5795 138.44 58.5714 138.449L58.5754 140.011L58.0877 140.292L58.082 138.199L58.5698 137.918V138.036C58.5819 138.021 58.8157 137.729 58.9949 137.625C59.1999 137.507 59.3389 137.492 59.4522 137.556C59.4707 137.537 59.7865 137.169 60.0637 137.009Z" fill="white"></path><path d="M61.8724 135.964C62.5033 135.6 62.7098 135.929 62.7122 136.571C62.7138 137.214 62.5097 137.786 61.8788 138.151C61.248 138.515 61.0415 138.18 61.0391 137.537C61.0375 136.894 61.2416 136.328 61.8724 135.964ZM61.8772 137.679C62.1489 137.523 62.2204 137.263 62.2196 136.856C62.2188 136.449 62.1457 136.284 61.874 136.441C61.6072 136.595 61.5309 136.846 61.5317 137.253C61.5325 137.659 61.6104 137.834 61.8772 137.679Z" fill="white"></path><path d="M64.0019 134.734C64.5098 134.441 64.644 134.729 64.6464 135.372L64.6496 136.504L64.1619 136.786L64.1586 135.671C64.1578 135.353 64.1209 135.167 63.8854 135.303C63.7158 135.401 63.5599 135.563 63.5519 135.572L63.5559 137.134L63.0681 137.416L63.0625 135.322L63.5503 135.041V135.159C63.564 135.145 63.797 134.852 64.0019 134.734Z" fill="white"></path><path d="M65.0781 133.331L65.5659 133.05L65.5675 133.616L65.0797 133.897L65.0781 133.331Z" fill="white"></path><path d="M65.0838 136.256L65.0781 134.162L65.5659 133.881L65.5716 135.974L65.0838 136.256Z" fill="white"></path><path d="M66.5749 132.719L66.5766 133.297L67.0226 133.039L67.0242 133.516L66.5782 133.774L66.5806 134.635C66.5814 134.841 66.5814 134.935 66.7357 134.847C66.8385 134.787 67.0041 134.686 67.0129 134.681L67.0346 135.118C67.0226 135.128 66.7887 135.318 66.6658 135.39C66.2246 135.645 66.096 135.53 66.0944 134.929L66.092 134.056L65.8766 134.181L65.875 133.703L66.0904 133.579L66.0888 133.001L66.5749 132.719Z" fill="white"></path><path d="M68.0755 132.382C68.712 132.015 68.9129 132.347 68.9153 132.99C68.9169 133.632 68.7184 134.201 68.082 134.569C67.4511 134.933 67.2446 134.598 67.2422 133.955C67.2406 133.313 67.4447 132.746 68.0755 132.382ZM68.0804 134.098C68.352 133.941 68.4235 133.681 68.4227 133.274C68.4219 132.867 68.3488 132.703 68.0771 132.859C67.8103 133.014 67.7388 133.261 67.7404 133.668C67.7412 134.075 67.8136 134.252 68.0804 134.098Z" fill="white"></path><path d="M70.335 131.079L70.3366 131.645C70.0184 131.9 69.7749 132.135 69.7628 132.148L69.7669 133.551L69.2791 133.832L69.2734 131.739L69.7556 131.46L69.7564 131.684C69.7709 131.666 70.0586 131.304 70.335 131.079Z" fill="white"></path><path d="M70.6267 133.052L70.6211 130.959L71.1081 130.678L71.1145 132.771L70.6267 133.052Z" fill="white"></path><path d="M70.6211 130.129L71.1081 129.848L71.1097 130.413L70.6227 130.695L70.6211 130.129Z" fill="white"></path><path d="M72.5019 129.828C73.0098 129.534 73.144 129.823 73.1464 130.466L73.1496 131.598L72.6619 131.879L72.6586 130.765C72.6578 130.447 72.616 130.264 72.3798 130.4C72.2102 130.498 72.0599 130.658 72.0519 130.666L72.0559 132.228L71.5681 132.509L71.5625 130.416L72.0447 130.137V130.255C72.0583 130.242 72.2922 129.949 72.5019 129.828Z" fill="white"></path><path d="M75.2201 128.3L75.2217 128.748L74.9501 128.882C74.9814 128.923 75.0272 128.997 75.028 129.12C75.0296 129.704 74.7636 130.012 74.2654 130.298L74.1167 130.367L74.0757 130.55C74.0757 130.662 74.1223 130.659 74.4301 130.487C75.0513 130.129 75.2257 130.187 75.2273 130.659C75.2289 131.166 74.8343 131.589 74.3674 131.858C73.8338 132.166 73.4899 132.253 73.4883 131.781C73.4875 131.592 73.5646 131.407 73.7487 131.135C73.6667 131.117 73.6145 131.023 73.6145 130.894C73.6145 130.788 73.7454 130.494 73.7519 130.478C73.6281 130.449 73.5052 130.36 73.5036 130.001C73.5019 129.459 73.8403 129.062 74.2662 128.817C74.4253 128.725 74.6254 128.665 74.6358 128.662L75.2201 128.3ZM74.2742 129.862C74.4695 129.75 74.5507 129.59 74.5507 129.395C74.5499 129.195 74.4679 129.136 74.2726 129.249C74.0725 129.365 73.9905 129.518 73.9913 129.718C73.9913 129.913 74.0741 129.978 74.2742 129.862ZM74.3899 130.994C74.2927 131.05 74.0781 131.145 74.0669 131.151C74.0058 131.257 73.9696 131.343 73.9704 131.444C73.9704 131.567 74.0942 131.555 74.3658 131.399C74.6069 131.26 74.7347 131.126 74.7347 130.973C74.7339 130.813 74.6624 130.842 74.3899 130.994Z" fill="white"></path><path d="M94.3364 121.447C92.5049 122.505 91.5968 124.282 90.7217 125.998C89.8707 127.662 89.0703 129.225 87.4534 130.159C85.8357 131.093 85.0321 130.456 84.1763 129.778C83.2939 129.076 82.3794 128.351 80.5479 129.409C78.7165 130.465 77.8076 132.244 76.9325 133.96C76.0823 135.622 75.2802 137.187 73.6682 138.117C72.0505 139.051 71.2437 138.416 70.3911 137.736C69.5055 137.037 68.5902 136.312 66.7587 137.369C64.9273 138.426 64.0232 140.201 63.1433 141.92C62.2971 143.581 61.4958 145.146 59.879 146.079C58.2613 147.013 57.4537 146.377 56.601 145.697C55.7154 144.998 54.8009 144.273 52.9727 145.328C51.1413 146.386 50.234 148.163 49.354 149.882C48.5078 151.542 47.7066 153.107 46.0938 154.038C44.4761 154.972 43.6685 154.336 42.8166 153.656C41.9294 152.957 41.0157 152.231 39.1875 153.287L39.1891 153.818C40.802 152.887 41.6096 153.521 42.4622 154.203C43.3486 154.901 44.2631 155.622 46.0946 154.563C47.922 153.508 48.8301 151.736 49.7092 150.017C50.5554 148.356 51.3566 146.792 52.9743 145.859C54.5872 144.927 55.3948 145.563 56.2515 146.241C57.1338 146.942 58.0483 147.663 59.8806 146.605C61.7112 145.548 62.6193 143.776 63.4952 142.059C64.3414 140.398 65.1418 138.834 66.7595 137.9C68.3772 136.967 69.184 137.602 70.0367 138.282C70.9222 138.981 71.8376 139.701 73.669 138.644C75.4956 137.589 76.4037 135.817 77.2837 134.098C78.1299 132.437 78.9303 130.873 80.5479 129.94C82.1656 129.006 82.9724 129.641 83.8259 130.322C84.7123 131.021 85.626 131.742 87.4534 130.686C89.2848 129.629 90.1937 127.856 91.0729 126.138C91.9191 124.477 92.7211 122.912 94.3372 121.979L94.3364 121.447Z" fill="url(#paint53_linear_1847_68875)"></path><path opacity="0.5" d="M92.9402 115.351L65.9766 130.917L81.5096 138.018L92.9844 131.393C93.7431 130.955 94.3562 129.89 94.3538 129.018L94.3168 116.136C94.3152 115.264 93.6989 114.913 92.9402 115.351Z" fill="white"></path><path d="M104.551 73.0781L96.1899 96.788L25.6663 137.843L2.40169 134.256L0.488281 133.159L104.551 73.0781Z" fill="url(#paint54_linear_1847_68875)"></path><path d="M104.645 51.4081L103.383 51.2675L103.341 36.4351L104.598 34.8335L104.537 13.1785L102.526 12.0342L61.1892 35.8999L59.8198 38.1476L44.8686 46.7801L43.4904 46.1195L2.15404 69.9852L0.15625 73.4432L0.218128 95.0974L1.48543 95.2404L1.52802 110.074L0.264737 111.671L0.326618 133.325L2.33646 134.471L43.6744 110.605L45.0429 108.364L50.7454 105.072L54.2918 103.024L59.9942 99.7327L61.3724 100.387L102.71 76.5202L104.707 73.0615L104.645 51.4081Z" fill="url(#paint55_linear_1847_68875)"></path><g opacity="0.7"><path d="M37.582 66.3246L37.5997 72.2962C42.3973 69.7865 46.2265 72.1299 46.2426 77.7046C46.2474 79.5376 45.84 81.4968 45.1191 83.411L49.5487 84.0065C50.7581 80.8917 51.4484 77.6933 51.4404 74.7039C51.4138 65.8336 45.2493 62.1611 37.582 66.3246Z" fill="white"></path><path d="M28.1502 88.1523C28.1333 82.5777 31.9408 75.8249 36.7344 72.7977L36.7175 66.8252C29.0526 71.5143 22.9283 82.2811 22.9532 91.153C22.9757 99.3764 28.2731 103.135 35.1529 100.326L35.7411 94.0412C31.4498 95.7031 28.1646 93.3147 28.1502 88.1523Z" fill="white"></path><path d="M37.2299 93.3241C37.0193 93.4455 36.8112 93.5539 36.6063 93.6576L36.0156 99.9419C36.4206 99.7458 36.8321 99.536 37.2476 99.2958C42.2027 96.4349 46.5599 91.0033 49.0993 85.1136L44.6665 84.5205C43.0432 88.1802 40.3206 91.5409 37.2299 93.3241Z" fill="white"></path><path d="M71.7109 46.6201L71.7294 52.5926C76.5246 50.0845 80.3562 52.4262 80.3715 58.0009C80.3876 63.2381 77.0269 69.5183 72.6447 72.7681L73.1558 78.4288C80.177 73.3644 85.5942 63.3457 85.5693 55.0002C85.5444 46.1291 79.3774 42.4574 71.7109 46.6201Z" fill="white"></path><path d="M71.3535 73.6214C66.3566 76.5064 62.2952 74.1888 62.2791 68.4469C62.2759 67.5268 62.3779 66.5745 62.5732 65.6094L57.6093 66.6685C57.2637 68.291 57.0773 69.8983 57.0821 71.4476C57.107 80.4891 63.5046 84.1351 71.3704 79.5939C71.6822 79.4139 71.9892 79.2218 72.2945 79.0209L71.7818 73.3618C71.6396 73.4494 71.4998 73.537 71.3535 73.6214Z" fill="white"></path><path d="M70.86 53.0916L70.844 47.1191C64.8176 50.8077 59.7484 58.242 57.8672 65.5669L62.8271 64.5094C64.0446 59.9906 67.1586 55.4293 70.86 53.0916Z" fill="white"></path></g><path d="M104.727 51.2083L103.539 51.0781L103.497 36.4467L104.759 34.7447L104.652 12.994L102.528 11.8545L61.0828 35.836L59.7592 38.0041L44.9325 46.5642L43.4932 45.9398L2.04199 69.9237L0 73.5383L0.141435 95.3026L1.32998 95.432L1.37097 110.064L0.108487 111.766L0.216173 133.524L2.34012 134.656L43.7841 110.682L45.1085 108.506L59.9352 99.9459L61.3753 100.571L102.827 76.5873L104.868 72.9726L104.727 51.2083ZM104.442 34.8242L103.258 36.3229L103.184 36.523L103.228 51.3626L103.301 51.4775L104.49 51.6077L104.524 63.2987L97.914 55.9456L97.8634 38.0797L104.409 23.1332L104.442 34.8242ZM43.4322 46.3408L44.7637 46.9765L44.8714 46.9596L59.8235 38.3264L59.9312 38.2187L61.2555 36.0505L69.818 31.1075L60.1417 44.2627L44.5886 53.2431L34.8696 51.2846L43.4322 46.3408ZM0.426718 111.688L1.61205 110.188L1.68438 109.989L1.64178 95.1483L1.56785 95.035L0.379306 94.9049L0.345555 83.2139L6.94886 90.5694L6.99949 108.435L0.459666 123.379L0.426718 111.688ZM61.4371 100.17L60.1064 99.5353L59.9971 99.5514L45.045 108.185L44.9373 108.292L43.6146 110.46L35.0513 115.404L44.7268 102.248L60.2808 93.2679L69.9989 95.2271L61.4371 100.17ZM102.65 76.3767L70.2841 95.064L60.3024 93.0798L44.6585 102.125L34.7676 115.568L2.4012 134.255L0.487793 133.159L0.461276 123.698L7.1594 108.374L7.09672 90.4062L0.345555 82.894L0.319035 73.4331L2.21958 70.135L34.5852 51.4478L44.5669 53.4383L60.2108 44.3856L70.1017 30.9436L102.468 12.2563L104.381 13.3524L104.408 22.8134L97.7099 38.1359L97.7726 56.1047L104.523 63.6177L104.55 73.0779L102.65 76.3767Z" fill="white"></path><path opacity="0.2" d="M92.8605 82.2082L102.711 76.5202L104.708 73.0615L104.647 51.4081L103.385 51.2674L103.343 36.4351L104.6 34.8335L104.539 13.1785L102.528 12.0342L61.1908 35.8999L59.8215 38.1476L49.7305 43.9738L92.8605 82.2082Z" fill="white"></path><path d="M51.5722 229.166L53.267 228.186C54.3921 227.535 56.2171 227.534 57.3349 228.183L135.52 273.619C136.639 274.269 136.634 275.329 135.507 275.978L133.813 276.958C132.68 277.611 130.857 277.608 129.738 276.958L51.5529 231.521C50.4351 230.872 50.4399 229.82 51.5722 229.166Z" fill="#2A303D"></path><path d="M115.886 262.21L57.3349 228.183C56.2171 227.534 54.3929 227.536 53.267 228.186L51.5722 229.166C50.4399 229.82 50.4351 230.871 51.5529 231.521L104.361 262.21H115.886Z" fill="url(#paint56_linear_1847_68875)"></path><path d="M193.97 55.0857L194.004 42.7816C194.019 37.5516 190.342 31.1774 185.786 28.5471L138.3 1.13102C133.744 -1.49921 130.044 0.615103 130.028 5.84503L129.992 18.6739C129.976 23.9095 133.654 30.2781 138.211 32.9084L185.696 60.3245C187.39 61.3017 188.965 61.6215 190.277 61.3692C190.468 61.3314 190.719 61.3563 191.011 61.5251C191.299 61.6914 191.629 61.9984 191.974 62.5143C193.45 64.7106 196.05 66.305 196.736 66.7011C196.847 66.7638 196.904 66.7952 196.907 66.7968C194.618 63.8057 193.956 59.815 193.97 55.0857Z" fill="url(#paint57_linear_1847_68875)"></path><path d="M172.295 27.7101L140.136 9.14258L140.129 11.5422L172.295 30.1137V27.7101Z" fill="white"></path><path d="M179.33 37.0192L140.124 14.3838L140.117 16.7834L179.33 39.4236V37.0192Z" fill="white"></path><path d="M171.393 42.9373L140.093 24.8672L140.086 27.266L171.393 45.3417V42.9373Z" fill="white"></path><path d="M179.329 42.2694L140.108 19.626L140.102 22.0248L179.329 44.673V42.2694Z" fill="white"></path><path d="M309.788 80.5695L262.297 53.151C257.746 50.5232 254.045 52.6327 254.03 57.8618L253.995 70.1716C253.982 74.8944 253.294 78.1113 250.996 78.4496C251 78.4512 251.062 78.4898 251.179 78.5573C251.883 78.9639 254.463 80.3574 255.937 79.8664C256.286 79.7514 256.617 79.827 256.905 79.9933C257.198 80.1621 257.447 80.4249 257.629 80.6788C258.941 82.4452 260.513 83.9439 262.207 84.9219L309.697 112.34C314.249 114.968 317.95 112.86 317.965 107.63L318.001 94.7951C318.016 89.5668 314.339 83.1973 309.788 80.5695Z" fill="url(#paint58_linear_1847_68875)"></path><path d="M280.387 70.5397L261.167 59.4434L261.16 61.8494L280.387 72.9489V70.5397Z" fill="white"></path><path d="M298.169 86.0561L261.155 64.6855L261.148 67.0908L298.169 88.4653V86.0561Z" fill="white"></path><path d="M294.754 89.3332L261.14 69.9268L261.133 72.332L294.754 91.7433V89.3332Z" fill="white"></path><path d="M304.496 100.209L261.123 75.168L261.117 77.5732L304.496 102.618V100.209Z" fill="white"></path><defs><linearGradient id="paint0_linear_1847_68875" x1="159.243" y1="100.361" x2="159.243" y2="144.334" gradientUnits="userSpaceOnUse"><stop stop-color="#14DCFF"></stop><stop offset="1" stop-color="#0080FF"></stop></linearGradient><linearGradient id="paint1_linear_1847_68875" x1="121.711" y1="98.7702" x2="155.216" y2="129.736" gradientUnits="userSpaceOnUse"><stop stop-color="#14DCFF"></stop><stop offset="1" stop-color="#0080FF"></stop></linearGradient><linearGradient id="paint2_linear_1847_68875" x1="145.991" y1="88.6522" x2="181.501" y2="122.496" gradientUnits="userSpaceOnUse"><stop stop-color="#14DCFF"></stop><stop offset="1" stop-color="#0080FF"></stop></linearGradient><linearGradient id="paint3_linear_1847_68875" x1="141.114" y1="92.768" x2="156.911" y2="92.768" gradientUnits="userSpaceOnUse"><stop stop-color="white"></stop><stop offset="1" stop-color="#E6F4FF"></stop></linearGradient><linearGradient id="paint4_linear_1847_68875" x1="187.095" y1="90.3689" x2="187.095" y2="162.699" gradientUnits="userSpaceOnUse"><stop stop-color="#FFDB0D"></stop><stop offset="1" stop-color="#FFA408"></stop></linearGradient><linearGradient id="paint5_linear_1847_68875" x1="140.676" y1="91.105" x2="189.525" y2="136.25" gradientUnits="userSpaceOnUse"><stop stop-color="#FFDB0D"></stop><stop offset="1" stop-color="#FFA408"></stop></linearGradient><linearGradient id="paint6_linear_1847_68875" x1="173.842" y1="73.6644" x2="209.353" y2="107.508" gradientUnits="userSpaceOnUse"><stop stop-color="#FFDB0D"></stop><stop offset="1" stop-color="#FFA408"></stop></linearGradient><linearGradient id="paint7_linear_1847_68875" x1="169.75" y1="77.5916" x2="185.112" y2="77.5916" gradientUnits="userSpaceOnUse"><stop stop-color="white"></stop><stop offset="1" stop-color="#E6F4FF"></stop></linearGradient><linearGradient id="paint8_linear_1847_68875" x1="185.592" y1="102.223" x2="187.829" y2="97.0244" gradientUnits="userSpaceOnUse"><stop stop-color="#FBDAC9"></stop><stop offset="1" stop-color="#FBBDB5"></stop></linearGradient><linearGradient id="paint9_linear_1847_68875" x1="203.502" y1="151.802" x2="208.594" y2="135.692" gradientUnits="userSpaceOnUse"><stop stop-color="#FBDAC9"></stop><stop offset="1" stop-color="#FBBDB5"></stop></linearGradient><linearGradient id="paint10_linear_1847_68875" x1="211.659" y1="156.173" x2="216.17" y2="141.422" gradientUnits="userSpaceOnUse"><stop stop-color="#FBDAC9"></stop><stop offset="1" stop-color="#FBBDB5"></stop></linearGradient><linearGradient id="paint11_linear_1847_68875" x1="201.628" y1="84.0885" x2="208.248" y2="77.0671" gradientUnits="userSpaceOnUse"><stop stop-color="#FBDAC9"></stop><stop offset="1" stop-color="#FBBDB5"></stop></linearGradient><linearGradient id="paint12_linear_1847_68875" x1="198.883" y1="79.6509" x2="208.534" y2="69.4147" gradientUnits="userSpaceOnUse"><stop stop-color="#FBDAC9"></stop><stop offset="1" stop-color="#FBBDB5"></stop></linearGradient><linearGradient id="paint13_linear_1847_68875" x1="202.062" y1="82.6436" x2="211.71" y2="72.4096" gradientUnits="userSpaceOnUse"><stop stop-color="#FBDAC9"></stop><stop offset="1" stop-color="#FBBDB5"></stop></linearGradient><linearGradient id="paint14_linear_1847_68875" x1="215.772" y1="101.55" x2="230.046" y2="106.679" gradientUnits="userSpaceOnUse"><stop stop-color="#FBDAC9"></stop><stop offset="1" stop-color="#FBBDB5"></stop></linearGradient><linearGradient id="paint15_linear_1847_68875" x1="237.153" y1="97.2429" x2="242.115" y2="85.7123" gradientUnits="userSpaceOnUse"><stop stop-color="#FBDAC9"></stop><stop offset="1" stop-color="#FBBDB5"></stop></linearGradient><linearGradient id="paint16_linear_1847_68875" x1="215.698" y1="104.908" x2="158.392" y2="-15.5244" gradientUnits="userSpaceOnUse"><stop stop-color="#FBDAC9"></stop><stop offset="1" stop-color="#FBBDB5"></stop></linearGradient><linearGradient id="paint17_linear_1847_68875" x1="222.465" y1="105.828" x2="159.905" y2="-25.6468" gradientUnits="userSpaceOnUse"><stop stop-color="#FBDAC9"></stop><stop offset="1" stop-color="#FBBDB5"></stop></linearGradient><linearGradient id="paint18_linear_1847_68875" x1="233.472" y1="87.9646" x2="240.614" y2="76.9459" gradientUnits="userSpaceOnUse"><stop stop-color="#FBDAC9"></stop><stop offset="1" stop-color="#FBBDB5"></stop></linearGradient><linearGradient id="paint19_linear_1847_68875" x1="237.227" y1="90.3929" x2="244.431" y2="79.2789" gradientUnits="userSpaceOnUse"><stop stop-color="#FBDAC9"></stop><stop offset="1" stop-color="#FBBDB5"></stop></linearGradient><linearGradient id="paint20_linear_1847_68875" x1="245.865" y1="121.784" x2="250.776" y2="105.727" gradientUnits="userSpaceOnUse"><stop stop-color="#FBDAC9"></stop><stop offset="1" stop-color="#FBBDB5"></stop></linearGradient><linearGradient id="paint21_linear_1847_68875" x1="156.412" y1="199.97" x2="192.225" y2="379.031" gradientUnits="userSpaceOnUse"><stop stop-color="#55617D"></stop><stop offset="1" stop-color="#363E4F"></stop></linearGradient><linearGradient id="paint22_linear_1847_68875" x1="49.369" y1="291.243" x2="164.823" y2="209.997" gradientUnits="userSpaceOnUse"><stop stop-color="#55617D"></stop><stop offset="1" stop-color="#363E4F"></stop></linearGradient><linearGradient id="paint23_linear_1847_68875" x1="199.309" y1="248.003" x2="247.046" y2="248.003" gradientUnits="userSpaceOnUse"><stop stop-color="#FFA408"></stop><stop offset="1" stop-color="#FFDB0D"></stop></linearGradient><linearGradient id="paint24_linear_1847_68875" x1="211.032" y1="235.046" x2="236.046" y2="235.046" gradientUnits="userSpaceOnUse"><stop stop-color="#0080FF"></stop><stop offset="1" stop-color="#14DCFF"></stop></linearGradient><linearGradient id="paint25_linear_1847_68875" x1="233.039" y1="247.751" x2="258.052" y2="247.751" gradientUnits="userSpaceOnUse"><stop stop-color="#0080FF"></stop><stop offset="1" stop-color="#14DCFF"></stop></linearGradient><linearGradient id="paint26_linear_1847_68875" x1="188.922" y1="231.918" x2="225.036" y2="231.918" gradientUnits="userSpaceOnUse"><stop stop-color="#FFA408"></stop><stop offset="1" stop-color="#FFDB0D"></stop></linearGradient><linearGradient id="paint27_linear_1847_68875" x1="203.953" y1="218.004" x2="214.041" y2="218.004" gradientUnits="userSpaceOnUse"><stop stop-color="#0080FF"></stop><stop offset="1" stop-color="#14DCFF"></stop></linearGradient><linearGradient id="paint28_linear_1847_68875" x1="175.336" y1="233.928" x2="188.652" y2="233.928" gradientUnits="userSpaceOnUse"><stop stop-color="#FFA408"></stop><stop offset="1" stop-color="#FFDB0D"></stop></linearGradient><linearGradient id="paint29_linear_1847_68875" x1="144.281" y1="216.237" x2="192.024" y2="216.237" gradientUnits="userSpaceOnUse"><stop stop-color="#0080FF"></stop><stop offset="1" stop-color="#14DCFF"></stop></linearGradient><linearGradient id="paint30_linear_1847_68875" x1="130.086" y1="201.263" x2="170.019" y2="201.263" gradientUnits="userSpaceOnUse"><stop stop-color="#0080FF"></stop><stop offset="1" stop-color="#14DCFF"></stop></linearGradient><linearGradient id="paint31_linear_1847_68875" x1="131.758" y1="191.229" x2="159.019" y2="191.229" gradientUnits="userSpaceOnUse"><stop stop-color="#FFA408"></stop><stop offset="1" stop-color="#FFDB0D"></stop></linearGradient><linearGradient id="paint32_linear_1847_68875" x1="149.594" y1="205.146" x2="181.024" y2="205.146" gradientUnits="userSpaceOnUse"><stop stop-color="#FFA408"></stop><stop offset="1" stop-color="#FFDB0D"></stop></linearGradient><linearGradient id="paint33_linear_1847_68875" x1="179.586" y1="215.533" x2="203.034" y2="215.533" gradientUnits="userSpaceOnUse"><stop stop-color="#FFA408"></stop><stop offset="1" stop-color="#FFDB0D"></stop></linearGradient><linearGradient id="paint34_linear_1847_68875" x1="134.371" y1="180.919" x2="148.016" y2="180.919" gradientUnits="userSpaceOnUse"><stop stop-color="#0080FF"></stop><stop offset="1" stop-color="#14DCFF"></stop></linearGradient><linearGradient id="paint35_linear_1847_68875" x1="93.5317" y1="173.686" x2="126.007" y2="173.686" gradientUnits="userSpaceOnUse"><stop stop-color="#0080FF"></stop><stop offset="1" stop-color="#14DCFF"></stop></linearGradient><linearGradient id="paint36_linear_1847_68875" x1="117.649" y1="176.226" x2="137.008" y2="176.226" gradientUnits="userSpaceOnUse"><stop stop-color="#FFA408"></stop><stop offset="1" stop-color="#FFDB0D"></stop></linearGradient><linearGradient id="paint37_linear_1847_68875" x1="65.5234" y1="172.273" x2="115.004" y2="172.273" gradientUnits="userSpaceOnUse"><stop stop-color="#FFA408"></stop><stop offset="1" stop-color="#FFDB0D"></stop></linearGradient><linearGradient id="paint38_linear_1847_68875" x1="115.863" y1="205.206" x2="129.175" y2="205.206" gradientUnits="userSpaceOnUse"><stop stop-color="#0080FF"></stop><stop offset="1" stop-color="#14DCFF"></stop></linearGradient><linearGradient id="paint39_linear_1847_68875" x1="106.961" y1="198.743" x2="267.643" y2="198.743" gradientUnits="userSpaceOnUse"><stop stop-color="#55617D"></stop><stop offset="1" stop-color="#363E4F"></stop></linearGradient><linearGradient id="paint40_linear_1847_68875" x1="185.852" y1="253.765" x2="199.168" y2="253.765" gradientUnits="userSpaceOnUse"><stop stop-color="#FFA408"></stop><stop offset="1" stop-color="#FFDB0D"></stop></linearGradient><linearGradient id="paint41_linear_1847_68875" x1="280.873" y1="138.168" x2="280.873" y2="212.795" gradientUnits="userSpaceOnUse"><stop stop-color="#14DCFF"></stop><stop offset="1" stop-color="#0080FF"></stop></linearGradient><linearGradient id="paint42_linear_1847_68875" x1="233.735" y1="139.091" x2="283.826" y2="185.385" gradientUnits="userSpaceOnUse"><stop stop-color="#14DCFF"></stop><stop offset="1" stop-color="#0080FF"></stop></linearGradient><linearGradient id="paint43_linear_1847_68875" x1="267.62" y1="121.059" x2="303.13" y2="154.902" gradientUnits="userSpaceOnUse"><stop stop-color="#14DCFF"></stop><stop offset="1" stop-color="#0080FF"></stop></linearGradient><linearGradient id="paint44_linear_1847_68875" x1="262.746" y1="125.174" x2="278.544" y2="125.174" gradientUnits="userSpaceOnUse"><stop stop-color="white"></stop><stop offset="1" stop-color="#E6F4FF"></stop></linearGradient><linearGradient id="paint45_linear_1847_68875" x1="308.724" y1="180.666" x2="308.724" y2="226.556" gradientUnits="userSpaceOnUse"><stop stop-color="#FFDB0D"></stop><stop offset="1" stop-color="#FFA408"></stop></linearGradient><linearGradient id="paint46_linear_1847_68875" x1="270.59" y1="179.232" x2="305.133" y2="211.157" gradientUnits="userSpaceOnUse"><stop stop-color="#FFDB0D"></stop><stop offset="1" stop-color="#FFA408"></stop></linearGradient><linearGradient id="paint47_linear_1847_68875" x1="295.471" y1="168.619" x2="330.981" y2="202.463" gradientUnits="userSpaceOnUse"><stop stop-color="#FFDB0D"></stop><stop offset="1" stop-color="#FFA408"></stop></linearGradient><linearGradient id="paint48_linear_1847_68875" x1="291.376" y1="172.546" x2="306.737" y2="172.546" gradientUnits="userSpaceOnUse"><stop stop-color="white"></stop><stop offset="1" stop-color="#E6F4FF"></stop></linearGradient><linearGradient id="paint49_linear_1847_68875" x1="66.0889" y1="131.403" x2="71.9818" y2="182.03" gradientUnits="userSpaceOnUse"><stop stop-color="#8EA3CF"></stop><stop offset="1" stop-color="#798BB0"></stop></linearGradient><linearGradient id="paint50_linear_1847_68875" x1="14.3851" y1="168.973" x2="35.9488" y2="142.855" gradientUnits="userSpaceOnUse"><stop stop-color="#8EA3CF"></stop><stop offset="1" stop-color="#798BB0"></stop></linearGradient><linearGradient id="paint51_linear_1847_68875" x1="30.5209" y1="135.97" x2="106.596" y2="90.968" gradientUnits="userSpaceOnUse"><stop stop-color="#8EA3CF"></stop><stop offset="1" stop-color="#798BB0"></stop></linearGradient><linearGradient id="paint52_linear_1847_68875" x1="39.1681" y1="138.498" x2="94.3522" y2="138.498" gradientUnits="userSpaceOnUse"><stop stop-color="#55617D"></stop><stop offset="1" stop-color="#363E4F"></stop></linearGradient><linearGradient id="paint53_linear_1847_68875" x1="99.1065" y1="122.095" x2="43.657" y2="152.632" gradientUnits="userSpaceOnUse"><stop stop-color="#ED5599"></stop><stop offset="1" stop-color="#FF99C7"></stop></linearGradient><linearGradient id="paint54_linear_1847_68875" x1="35.8442" y1="67.3992" x2="58.4798" y2="115.885" gradientUnits="userSpaceOnUse"><stop stop-color="#14DCFF"></stop><stop offset="1" stop-color="#14DCFF" stop-opacity="0"></stop></linearGradient><linearGradient id="paint55_linear_1847_68875" x1="42.4591" y1="43.005" x2="85.0507" y2="172.186" gradientUnits="userSpaceOnUse"><stop stop-color="#14DCFF"></stop><stop offset="1" stop-color="#0080FF"></stop></linearGradient><linearGradient id="paint56_linear_1847_68875" x1="50.7185" y1="244.953" x2="115.886" y2="244.953" gradientUnits="userSpaceOnUse"><stop stop-color="#0080FF"></stop><stop offset="1" stop-color="#14DCFF"></stop></linearGradient><linearGradient id="paint57_linear_1847_68875" x1="154.9" y1="-9.00031" x2="174.187" y2="98.9529" gradientUnits="userSpaceOnUse"><stop stop-color="#FFDB0D"></stop><stop offset="1" stop-color="#FFA408"></stop></linearGradient><linearGradient id="paint58_linear_1847_68875" x1="283.953" y1="42.7879" x2="285.292" y2="150.204" gradientUnits="userSpaceOnUse"><stop stop-color="#14DCFF"></stop><stop offset="1" stop-color="#0080FF"></stop></linearGradient></defs></svg>