<svg xmlns="http://www.w3.org/2000/svg" width="500" height="300" viewBox="0 0 500 300" fill="none"><rect width="500" height="300" rx="24" fill="#FFF2EB"></rect><path d="M134.769 194.826V207.205L129.539 211.006H153.951L146.153 208.116V195.689L134.769 194.826Z" fill="#E0E0E0"></path><path d="M91.6484 210.648V249.643H200.617V210.648H91.6484ZM198.654 225.92H113.363V213.175H198.655V225.92H198.654Z" fill="#E0E0E0"></path><path d="M110.742 210.648V249.643H200.621V210.648H110.742ZM198.657 225.92H113.366V213.175H198.658V225.92H198.657Z" fill="#EBEBEB"></path><path d="M198.65 213.178H181.07V225.921H198.65V213.178Z" fill="#E0E0E0"></path><path d="M135.108 219.549H113.359V225.92H135.108V219.549Z" fill="#E0E0E0"></path><path d="M153.092 222.137H136.719V225.921H153.092V222.137Z" fill="#E0E0E0"></path><path d="M172.473 218.18H156.875V225.921H172.473V218.18Z" fill="#E0E0E0"></path><path d="M128.818 228.695L128.35 230.217H122.09L121.624 228.695H113.359V245.613H140.79V228.695H128.818Z" fill="#E0E0E0"></path><path d="M161.416 228.695L160.949 230.217H154.689L154.221 228.695H142.25V245.613H169.68V228.695H161.416Z" fill="#E0E0E0"></path><path d="M186.6 228.695L186.133 230.217H179.872L179.405 228.695H171.141V245.613H198.571V228.695H186.6Z" fill="#E0E0E0"></path><path d="M184.683 202.222H103.616C101.916 202.222 100.539 200.844 100.539 199.145V152.597C100.539 150.897 101.917 149.52 103.616 149.52H184.683C186.383 149.52 187.761 150.898 187.761 152.597V199.145C187.761 200.844 186.383 202.222 184.683 202.222Z" fill="#E0E0E0"></path><path d="M186.73 202.222H105.663C103.963 202.222 102.586 200.844 102.586 199.145V152.597C102.586 150.897 103.964 149.52 105.663 149.52H186.73C188.43 149.52 189.807 150.898 189.807 152.597V199.145C189.807 200.844 188.43 202.222 186.73 202.222Z" fill="#E6E6E6"></path><path d="M187.25 199.66V152.082L105.153 152.082L105.153 199.66H187.25Z" fill="#F0F0F0"></path><path d="M302.095 144.951H380.15C388.617 144.951 395.481 151.815 395.481 160.281V221.233H286.766V160.281C286.766 151.815 293.628 144.951 302.095 144.951Z" fill="#E6E6E6"></path><path d="M263.688 190.127H277.657C282.688 190.127 286.766 194.205 286.766 199.237V249.644H254.578V199.237C254.579 194.206 258.657 190.127 263.688 190.127Z" fill="#E0E0E0"></path><path d="M263.688 190.127H263.984C269.015 190.127 273.093 194.205 273.093 199.237V249.644H254.578V199.237C254.579 194.206 258.657 190.127 263.688 190.127Z" fill="#EBEBEB"></path><path d="M384.114 226.488H276.992V249.643H384.114V226.488Z" fill="#E6E6E6"></path><path d="M276.84 205.311H380.148C385.263 205.311 389.41 209.457 389.41 214.572V220.342C389.41 225.456 385.264 229.603 380.148 229.603H276.84C271.725 229.603 267.578 225.457 267.578 220.342V214.572C267.578 209.458 271.724 205.311 276.84 205.311Z" fill="#F5F5F5"></path><path d="M367.168 205.311H379.981C385.096 205.311 389.243 209.457 389.243 214.572V220.342C389.243 225.456 385.096 229.603 379.981 229.603H367.168C362.053 229.603 357.906 225.457 357.906 220.342V214.572C357.906 209.458 362.053 205.311 367.168 205.311Z" fill="#E0E0E0"></path><path d="M381.359 190.127H395.328C400.359 190.127 404.438 194.205 404.438 199.237V249.644H372.25V199.237C372.25 194.206 376.328 190.127 381.359 190.127Z" fill="#E0E0E0"></path><path d="M381.36 190.127H381.655C386.686 190.127 390.765 194.205 390.765 199.237V249.644H372.25V199.237C372.251 194.206 376.329 190.127 381.36 190.127Z" fill="#F0F0F0"></path><path d="M297.906 116.863L401.328 116.863V9.99924L297.906 9.99924V116.863Z" fill="#EBEBEB"></path><path d="M294.289 116.863L397.711 116.863V9.99924L294.289 9.99924V116.863Z" fill="#F0F0F0"></path><path d="M395.104 12.5333H297.031V114.381H395.104V12.5333Z" fill="#E0E0E0"></path><path d="M395.101 12.5314H299.477V114.378H395.101V12.5314Z" fill="#F5F5F5"></path><path d="M346.301 114.381H348.242V12.533H346.301V114.381Z" fill="#EBEBEB"></path><path d="M335.161 12.5314L307.905 114.377H305.289L332.544 12.5314H335.161Z" fill="#F0F6FA"></path><path d="M345.469 116.332H347.133V10.9614H345.469V116.332Z" fill="#F0F0F0"></path><path d="M325.265 12.5314L299.477 108.914V55.9354L311.089 12.5314H325.265Z" fill="#F0F6FA"></path><path d="M395.104 21.7736V31.5497L372.937 114.377H370.32L395.104 21.7736Z" fill="#F0F6FA"></path><path d="M395.104 41.5138V94.4917L389.786 114.377H375.609L395.104 41.5138Z" fill="#F0F6FA"></path><path d="M116.226 92.2833L178.844 92.2833V16.0891L116.226 16.0891V92.2833Z" fill="#E6E6E6"></path><path d="M130.553 73.4115L163.46 41.0703L127.859 35.1954L130.553 73.4115Z" fill="#E0E0E0"></path><path d="M162.665 65.7466L164.294 40.9454L139.519 47.0313L137.719 66.0073L162.665 65.7466Z" fill="#F0F0F0"></path><path d="M137.326 37.9201C141.232 34.0142 141.232 27.6814 137.326 23.7754C133.42 19.8695 127.088 19.8695 123.182 23.7754C119.276 27.6814 119.276 34.0142 123.182 37.9201C127.088 41.8261 133.42 41.8261 137.326 37.9201Z" fill="#FAFAFA"></path><path d="M159.43 74.587C159.43 71.9081 161.601 69.7365 164.28 69.7365C166.959 69.7365 169.131 71.9081 169.131 74.587C169.131 77.266 166.959 79.4376 164.28 79.4376C161.601 79.4376 159.43 77.266 159.43 74.587Z" fill="#E0E0E0"></path><path d="M163.133 83.1131L149.125 74.588L160.9 64.8868L163.133 83.1131Z" fill="#F5F5F5"></path><path d="M146.589 25.7814H143.836V86.6227H146.589V25.7814Z" fill="#E0E0E0"></path><path d="M172.968 25.7814H169.406V83.9315H172.968V25.7814Z" fill="#EBEBEB"></path><path d="M140.709 66.006H122.508V84.2069H140.709V66.006Z" fill="#EBEBEB"></path><path d="M249.028 290C342.38 290 418.056 285.581 418.056 280.129C418.056 274.677 342.38 270.258 249.028 270.258C155.676 270.258 80 274.677 80 280.129C80 285.581 155.676 290 249.028 290Z" fill="#EEF4FA"></path><path d="M390.262 258.123H201.172V126.762C201.172 124.707 202.838 123.041 204.893 123.041H386.541C388.596 123.041 390.262 124.707 390.262 126.762V258.123Z" fill="white"></path><path d="M386.534 131.381H204.891V247.477H386.534V131.381Z" fill="#183FEB"></path><path opacity="0.2" d="M294.061 129.348C295.061 129.348 295.871 128.537 295.871 127.537C295.871 126.537 295.061 125.727 294.061 125.727C293.061 125.727 292.25 126.537 292.25 127.537C292.25 128.537 293.061 129.348 294.061 129.348Z" fill="#F0F6FA"></path><path opacity="0.2" d="M297.817 128.901C298.57 128.901 299.18 128.29 299.18 127.537C299.18 126.784 298.57 126.174 297.817 126.174C297.064 126.174 296.453 126.784 296.453 127.537C296.453 128.29 297.064 128.901 297.817 128.901Z" fill="#F0F6FA"></path><path opacity="0.2" d="M296.455 249.854C296.221 249.777 295.974 249.725 295.713 249.725C294.4 249.725 293.336 250.789 293.336 252.102C293.336 253.415 294.4 254.479 295.713 254.479C297.026 254.479 298.091 253.415 298.091 252.102C298.091 252.057 298.08 252.016 298.078 251.972C297.171 251.672 296.51 250.848 296.455 249.854Z" fill="#F0F6FA"></path><path d="M404.351 256.279V257.988C404.351 258.45 404.22 258.895 403.994 259.269C403.68 259.801 403.174 260.211 402.555 260.394L389.383 264.282C387.752 264.77 386.052 265.014 384.344 265.014H207.085C205.385 265.014 203.685 264.77 202.055 264.282L188.883 260.394C188.255 260.211 187.749 259.801 187.436 259.269C187.209 258.895 187.078 258.45 187.078 257.988V256.279H404.351Z" fill="#002DCC"></path><path opacity="0.2" d="M404.351 256.279V257.988C404.351 258.45 404.22 258.895 403.994 259.269C403.68 259.801 403.174 260.211 402.555 260.394L389.383 264.282C387.752 264.77 386.052 265.014 384.344 265.014H207.085C205.385 265.014 203.685 264.77 202.055 264.282L188.883 260.394C188.255 260.211 187.749 259.801 187.436 259.269C187.209 258.895 187.078 258.45 187.078 257.988V256.279H404.351Z" fill="#472BBA"></path><path opacity="0.2" d="M404.351 256.279V257.988C404.351 258.45 404.22 258.895 403.994 259.269H187.436C187.209 258.895 187.078 258.45 187.078 257.988V256.279H404.351Z" fill="#3362F7"></path><path opacity="0.2" d="M311.003 256.279V257.029C311.003 257.439 310.672 257.77 310.262 257.77H281.179C280.761 257.77 280.43 257.439 280.43 257.029V256.279H311.003Z" fill="black"></path><path opacity="0.1" d="M386.534 131.381C386.534 131.381 361.416 231.089 204.891 247.477V131.381H386.534Z" fill="#F0F6FA"></path><path d="M369.308 85.9243V195.123L351.123 213.308H279.236C277.693 213.308 276.438 212.053 276.438 210.501V85.9243C276.438 84.3725 277.693 83.1172 279.236 83.1172H366.501C368.044 83.1172 369.308 84.3734 369.308 85.9243Z" fill="#0038FF" fill-opacity="0.9998"></path><path opacity="0.6" d="M369.308 90.6914V195.122L351.123 213.307H279.236C277.693 213.307 276.438 212.051 276.438 210.5V90.6914H369.308Z" fill="#F0F6FA"></path><path opacity="0.6" d="M366.874 86.5872C366.874 87.3351 366.267 87.9419 365.519 87.9419C364.771 87.9419 364.164 87.3351 364.164 86.5872C364.164 85.8392 364.771 85.2324 365.519 85.2324C366.268 85.2333 366.874 85.8392 366.874 86.5872Z" fill="#F0F6FA"></path><path opacity="0.6" d="M361.709 86.5872C361.709 87.3351 361.103 87.9419 360.355 87.9419C359.607 87.9419 359 87.3351 359 86.5872C359 85.8392 359.607 85.2324 360.355 85.2324C361.103 85.2324 361.709 85.8392 361.709 86.5872Z" fill="#F0F6FA"></path><path opacity="0.6" d="M356.53 86.5872C356.53 87.3351 355.923 87.9419 355.175 87.9419C354.427 87.9419 353.82 87.3351 353.82 86.5872C353.82 85.8392 354.427 85.2324 355.175 85.2324C355.924 85.2333 356.53 85.8392 356.53 86.5872Z" fill="#F0F6FA"></path><path d="M332.894 99.1068H283.114C282.633 99.1068 282.242 98.7163 282.242 98.2351C282.242 97.7538 282.633 97.3633 283.114 97.3633H332.894C333.375 97.3633 333.766 97.7538 333.766 98.2351C333.766 98.7163 333.375 99.1068 332.894 99.1068Z" fill="#0038FF" fill-opacity="0.9998"></path><path d="M318.823 103.869H283.114C282.633 103.869 282.242 103.478 282.242 102.997C282.242 102.516 282.633 102.125 283.114 102.125H318.823C319.304 102.125 319.695 102.516 319.695 102.997C319.695 103.478 319.304 103.869 318.823 103.869Z" fill="#0038FF" fill-opacity="0.9998"></path><path d="M357.411 177.505H293.755C293.273 177.505 292.883 177.116 292.883 176.633C292.883 176.151 293.273 175.762 293.755 175.762H357.411C357.892 175.762 358.283 176.151 358.283 176.633C358.283 177.116 357.892 177.505 357.411 177.505Z" fill="#0038FF" fill-opacity="0.9998"></path><path d="M346.771 196.554H283.114C282.633 196.554 282.242 196.164 282.242 195.682C282.242 195.2 282.633 194.811 283.114 194.811H346.771C347.252 194.811 347.643 195.2 347.643 195.682C347.643 196.164 347.252 196.554 346.771 196.554Z" fill="#0038FF" fill-opacity="0.9998"></path><path d="M357.41 182.267H283.114C282.633 182.267 282.242 181.877 282.242 181.395C282.242 180.913 282.633 180.523 283.114 180.523H357.41C357.891 180.523 358.282 180.913 358.282 181.395C358.282 181.877 357.891 182.267 357.41 182.267Z" fill="#0038FF" fill-opacity="0.9998"></path><path d="M357.41 187.031H283.114C282.633 187.031 282.242 186.641 282.242 186.159C282.242 185.677 282.633 185.287 283.114 185.287H357.41C357.891 185.287 358.282 185.677 358.282 186.159C358.282 186.641 357.891 187.031 357.41 187.031Z" fill="#0038FF" fill-opacity="0.9998"></path><path d="M357.41 191.793H283.114C282.633 191.793 282.242 191.403 282.242 190.921C282.242 190.439 282.633 190.049 283.114 190.049H357.41C357.891 190.049 358.282 190.439 358.282 190.921C358.282 191.403 357.891 191.793 357.41 191.793Z" fill="#0038FF" fill-opacity="0.9998"></path><path opacity="0.5" d="M369.31 195.121L351.125 213.306V195.121H369.31Z" fill="#0038FF" fill-opacity="0.9998"></path><path opacity="0.4" d="M369.317 90.6914H364.18V195.122H369.317V90.6914Z" fill="black"></path><path d="M366.743 145.255C365.699 145.255 364.852 144.409 364.852 143.363V132.696C364.852 131.652 365.698 130.805 366.743 130.805C367.788 130.805 368.635 131.651 368.635 132.696V143.363C368.634 144.409 367.788 145.255 366.743 145.255Z" fill="#0038FF" fill-opacity="0.9998"></path><path d="M357.411 151.353H293.755C293.273 151.353 292.883 150.963 292.883 150.481C292.883 149.999 293.273 149.609 293.755 149.609H357.411C357.892 149.609 358.283 149.999 358.283 150.481C358.283 150.963 357.892 151.353 357.411 151.353Z" fill="#0038FF" fill-opacity="0.9998"></path><path d="M346.771 170.402H283.114C282.633 170.402 282.242 170.012 282.242 169.53C282.242 169.048 282.633 168.658 283.114 168.658H346.771C347.252 168.658 347.643 169.048 347.643 169.53C347.643 170.012 347.252 170.402 346.771 170.402Z" fill="#0038FF" fill-opacity="0.9998"></path><path d="M357.41 156.115H283.114C282.633 156.115 282.242 155.725 282.242 155.243C282.242 154.761 282.633 154.371 283.114 154.371H357.41C357.891 154.371 358.282 154.761 358.282 155.243C358.282 155.725 357.891 156.115 357.41 156.115Z" fill="#0038FF" fill-opacity="0.9998"></path><path d="M357.41 160.878H283.114C282.633 160.878 282.242 160.489 282.242 160.007C282.242 159.524 282.633 159.135 283.114 159.135H357.41C357.891 159.135 358.282 159.524 358.282 160.007C358.282 160.489 357.891 160.878 357.41 160.878Z" fill="#0038FF" fill-opacity="0.9998"></path><path d="M357.41 165.64H283.114C282.633 165.64 282.242 165.251 282.242 164.768C282.242 164.286 282.633 163.897 283.114 163.897H357.41C357.891 163.897 358.282 164.286 358.282 164.768C358.282 165.251 357.891 165.64 357.41 165.64Z" fill="#0038FF" fill-opacity="0.9998"></path><path d="M357.405 109.551H282.883V137.356H357.405V109.551Z" fill="#0038FF" fill-opacity="0.9998"></path><path opacity="0.2" d="M282.883 132.894H284.908V127.839H287.243V117.861H290.504V124.001H294.987V132.173H300.333V126.479H304.751L307.676 123.554V116.776H309.456V126.479H313.956V129.931H318.612V112.32L319.899 111.032V115.862H322.876V118.032L325.73 120.887V126.04H329.82V121.963H340.512V118.918H342.926V113.607H343.788V121.963H345.152L348.228 118.888H351.126V116.107H352.582V118.918H354.479V130.448H356.536V124.694L357.404 124.748V109.551H282.883V132.894Z" fill="black"></path><path d="M357.4 141.761H337.333C336.851 141.761 336.461 141.371 336.461 140.889C336.461 140.407 336.851 140.018 337.333 140.018H357.4C357.881 140.018 358.272 140.407 358.272 140.889C358.272 141.371 357.881 141.761 357.4 141.761Z" fill="#0038FF" fill-opacity="0.9998"></path><path opacity="0.2" d="M312.398 83.1172V173.364L298.677 187.085H276.438V85.9243C276.438 84.3725 277.693 83.1172 279.236 83.1172H312.398Z" fill="black"></path><path opacity="0.4" d="M366.743 145.255C365.699 145.255 364.852 144.409 364.852 143.363V132.696C364.852 131.652 365.698 130.805 366.743 130.805C367.788 130.805 368.635 131.651 368.635 132.696V143.363C368.634 144.409 367.788 145.255 366.743 145.255Z" fill="#F0F6FA"></path><path d="M259.277 99.5337V208.732L241.091 226.918H169.205C167.662 226.918 166.406 225.662 166.406 224.111V99.5337C166.406 97.9819 167.662 96.7266 169.205 96.7266H256.47C258.013 96.7266 259.277 97.9819 259.277 99.5337Z" fill="#0038FF" fill-opacity="0.9998"></path><path opacity="0.6" d="M259.277 104.307V208.737L241.091 226.922H169.205C167.662 226.922 166.406 225.667 166.406 224.115V104.307H259.277Z" fill="white"></path><path opacity="0.6" d="M256.85 100.202C256.85 100.95 256.243 101.557 255.495 101.557C254.747 101.557 254.141 100.95 254.141 100.202C254.141 99.4544 254.747 98.8477 255.495 98.8477C256.243 98.8477 256.85 99.4544 256.85 100.202Z" fill="white"></path><path opacity="0.6" d="M251.678 100.202C251.678 100.95 251.071 101.557 250.323 101.557C249.576 101.557 248.969 100.95 248.969 100.202C248.969 99.4544 249.576 98.8477 250.323 98.8477C251.071 98.8477 251.678 99.4544 251.678 100.202Z" fill="white"></path><path opacity="0.6" d="M246.499 100.202C246.499 100.95 245.892 101.557 245.144 101.557C244.396 101.557 243.789 100.95 243.789 100.202C243.789 99.4544 244.396 98.8477 245.144 98.8477C245.893 98.8477 246.499 99.4544 246.499 100.202Z" fill="white"></path><path d="M188.537 113.193H173.075C172.594 113.193 172.203 112.802 172.203 112.321C172.203 111.84 172.594 111.449 173.075 111.449H188.537C189.018 111.449 189.409 111.84 189.409 112.321C189.409 112.802 189.018 113.193 188.537 113.193Z" fill="#0038FF" fill-opacity="0.9998"></path><path d="M195.83 117.954H173.075C172.594 117.954 172.203 117.564 172.203 117.083C172.203 116.601 172.594 116.211 173.075 116.211H195.83C196.311 116.211 196.702 116.601 196.702 117.083C196.702 117.565 196.312 117.954 195.83 117.954Z" fill="#0038FF" fill-opacity="0.9998"></path><path d="M188.794 122.718H173.075C172.594 122.718 172.203 122.328 172.203 121.846C172.203 121.364 172.594 120.975 173.075 120.975H188.794C189.275 120.975 189.666 121.364 189.666 121.846C189.666 122.328 189.275 122.718 188.794 122.718Z" fill="#0038FF" fill-opacity="0.9998"></path><path d="M247.373 200.708H183.716C183.234 200.708 182.844 200.319 182.844 199.837C182.844 199.355 183.234 198.965 183.716 198.965H247.373C247.854 198.965 248.244 199.355 248.244 199.837C248.244 200.319 247.855 200.708 247.373 200.708Z" fill="#0038FF" fill-opacity="0.9998"></path><path d="M212.5 205.47H173.075C172.594 205.47 172.203 205.08 172.203 204.598C172.203 204.116 172.594 203.727 173.075 203.727H212.5C212.981 203.727 213.372 204.116 213.372 204.598C213.372 205.08 212.982 205.47 212.5 205.47Z" fill="#0038FF" fill-opacity="0.9998"></path><path opacity="0.5" d="M259.271 208.736L241.086 226.922V208.736H259.271Z" fill="#0038FF" fill-opacity="0.9998"></path><path opacity="0.4" d="M259.278 104.307H254.141V208.737H259.278V104.307Z" fill="black"></path><path d="M256.704 201.591C255.66 201.591 254.812 200.745 254.812 199.699V189.032C254.812 187.988 255.659 187.141 256.704 187.141C257.749 187.141 258.596 187.987 258.596 189.032V199.699C258.595 200.744 257.749 201.591 256.704 201.591Z" fill="#0038FF" fill-opacity="0.9998"></path><path d="M247.362 113.193H235.387C234.906 113.193 234.516 112.802 234.516 112.321C234.516 111.84 234.906 111.449 235.387 111.449H247.362C247.843 111.449 248.234 111.84 248.234 112.321C248.234 112.802 247.844 113.193 247.362 113.193Z" fill="#0038FF" fill-opacity="0.9998"></path><path d="M247.36 117.954H241.169C240.687 117.954 240.297 117.564 240.297 117.083C240.297 116.601 240.687 116.211 241.169 116.211H247.36C247.841 116.211 248.232 116.601 248.232 117.083C248.232 117.565 247.842 117.954 247.36 117.954Z" fill="#0038FF" fill-opacity="0.9998"></path><path d="M247.373 135.326H183.716C183.234 135.326 182.844 134.936 182.844 134.454C182.844 133.972 183.234 133.582 183.716 133.582H247.373C247.854 133.582 248.244 133.972 248.244 134.454C248.244 134.935 247.855 135.326 247.373 135.326Z" fill="#0038FF" fill-opacity="0.9998"></path><path d="M247.371 140.087H173.075C172.594 140.087 172.203 139.698 172.203 139.216C172.203 138.733 172.594 138.344 173.075 138.344H247.371C247.852 138.344 248.243 138.733 248.243 139.216C248.243 139.698 247.853 140.087 247.371 140.087Z" fill="#0038FF" fill-opacity="0.9998"></path><path d="M203.782 144.851H173.075C172.594 144.851 172.203 144.461 172.203 143.979C172.203 143.497 172.594 143.107 173.075 143.107H203.782C204.264 143.107 204.654 143.497 204.654 143.979C204.654 144.46 204.264 144.851 203.782 144.851Z" fill="#0038FF" fill-opacity="0.9998"></path><path opacity="0.7" d="M214.668 151.168H185.398V159.01H214.668V151.168Z" fill="#0038FF" fill-opacity="0.9998"></path><path opacity="0.3" d="M198.662 160.754H185.398V189.722H198.662V160.754Z" fill="#0038FF" fill-opacity="0.9998"></path><path opacity="0.3" d="M231.648 160.754H216.414V189.722H231.648V160.754Z" fill="#0038FF" fill-opacity="0.9998"></path><path opacity="0.7" d="M247.371 151.168H216.414V159.01H247.371V151.168Z" fill="#0038FF" fill-opacity="0.9998"></path><path opacity="0.3" d="M247.362 160.754H233.383V189.722H247.362V160.754Z" fill="#0038FF" fill-opacity="0.9998"></path><path opacity="0.5" d="M183.653 160.754H173.07V189.722H183.653V160.754Z" fill="#0038FF" fill-opacity="0.9998"></path><path d="M183.653 151.168H173.07V159.01H183.653V151.168Z" fill="#0038FF" fill-opacity="0.9998"></path><path opacity="0.3" d="M214.662 160.754H200.398V189.722H214.662V160.754Z" fill="#0038FF" fill-opacity="0.9998"></path><path opacity="0.4" d="M256.704 201.591C255.66 201.591 254.812 200.745 254.812 199.699V189.032C254.812 187.988 255.659 187.141 256.704 187.141C257.749 187.141 258.596 187.987 258.596 189.032V199.699C258.595 200.744 257.749 201.591 256.704 201.591Z" fill="white"></path><path opacity="0.2" d="M259.276 99.5337V190.373H206.681C205.138 190.373 203.883 189.117 203.883 187.566V96.7266H256.468C258.011 96.7266 259.276 97.9819 259.276 99.5337Z" fill="black"></path><path d="M305.449 50.0317V159.231L287.263 177.416H215.377C213.833 177.416 212.578 176.16 212.578 174.609V50.0317C212.578 48.48 213.833 47.2246 215.377 47.2246H302.641C304.184 47.2246 305.449 48.48 305.449 50.0317Z" fill="#0038FF" fill-opacity="0.9998"></path><path opacity="0.6" d="M305.449 54.8008V159.231L287.263 177.416H251.32H215.377C213.833 177.416 212.578 176.161 212.578 174.609V54.8008H305.449Z" fill="white"></path><path opacity="0.6" d="M301.659 52.0513C302.408 52.0513 303.014 51.4447 303.014 50.6965C303.014 49.9483 302.408 49.3418 301.659 49.3418C300.911 49.3418 300.305 49.9483 300.305 50.6965C300.305 51.4447 300.911 52.0513 301.659 52.0513Z" fill="white"></path><path opacity="0.6" d="M296.495 52.0513C297.244 52.0513 297.85 51.4447 297.85 50.6965C297.85 49.9483 297.244 49.3418 296.495 49.3418C295.747 49.3418 295.141 49.9483 295.141 50.6965C295.141 51.4447 295.747 52.0513 296.495 52.0513Z" fill="white"></path><path opacity="0.6" d="M292.67 50.6965C292.67 51.4445 292.064 52.0513 291.316 52.0513C290.568 52.0513 289.961 51.4445 289.961 50.6965C289.961 49.9486 290.568 49.3418 291.316 49.3418C292.065 49.3418 292.67 49.9486 292.67 50.6965Z" fill="white"></path><path d="M265.278 63.6869H247.52C247.039 63.6869 246.648 63.2964 246.648 62.8151C246.648 62.3339 247.039 61.9434 247.52 61.9434H265.278C265.76 61.9434 266.15 62.3339 266.15 62.8151C266.15 63.2964 265.76 63.6869 265.278 63.6869Z" fill="#0038FF" fill-opacity="0.9998"></path><path d="M272.568 68.4486H240.223C239.742 68.4486 239.352 68.0581 239.352 67.5769C239.352 67.0956 239.742 66.7051 240.223 66.7051H272.568C273.049 66.7051 273.44 67.0956 273.44 67.5769C273.44 68.0581 273.05 68.4486 272.568 68.4486Z" fill="#0038FF" fill-opacity="0.9998"></path><path d="M265.536 73.2123H247.262C246.781 73.2123 246.391 72.8217 246.391 72.3405C246.391 71.8593 246.781 71.4688 247.262 71.4688H265.536C266.017 71.4688 266.407 71.8593 266.407 72.3405C266.407 72.8226 266.017 73.2123 265.536 73.2123Z" fill="#0038FF" fill-opacity="0.9998"></path><path d="M293.545 85.8197H229.887C229.406 85.8197 229.016 85.4292 229.016 84.9479C229.016 84.4667 229.406 84.0762 229.887 84.0762H293.545C294.026 84.0762 294.416 84.4667 294.416 84.9479C294.416 85.4292 294.027 85.8197 293.545 85.8197Z" fill="#0038FF" fill-opacity="0.9998"></path><path d="M282.903 104.871H219.247C218.766 104.871 218.375 104.48 218.375 103.999C218.375 103.518 218.766 103.127 219.247 103.127H282.903C283.384 103.127 283.775 103.518 283.775 103.999C283.775 104.48 283.385 104.871 282.903 104.871Z" fill="#0038FF" fill-opacity="0.9998"></path><path d="M293.543 90.5814H219.247C218.766 90.5814 218.375 90.1909 218.375 89.7097C218.375 89.2284 218.766 88.8379 219.247 88.8379H293.543C294.024 88.8379 294.415 89.2284 294.415 89.7097C294.415 90.1909 294.025 90.5814 293.543 90.5814Z" fill="#0038FF" fill-opacity="0.9998"></path><path d="M293.543 95.3451H219.247C218.766 95.3451 218.375 94.9546 218.375 94.4733C218.375 93.9921 218.766 93.6016 219.247 93.6016H293.543C294.024 93.6016 294.415 93.9921 294.415 94.4733C294.415 94.9554 294.025 95.3451 293.543 95.3451Z" fill="#0038FF" fill-opacity="0.9998"></path><path d="M293.543 100.107H219.247C218.766 100.107 218.375 99.7165 218.375 99.2352C218.375 98.754 218.766 98.3635 219.247 98.3635H293.543C294.024 98.3635 294.415 98.754 294.415 99.2352C294.415 99.7165 294.025 100.107 293.543 100.107Z" fill="#0038FF" fill-opacity="0.9998"></path><path d="M293.545 133.767H229.887C229.406 133.767 229.016 133.377 229.016 132.895C229.016 132.413 229.406 132.023 229.887 132.023H293.545C294.026 132.023 294.416 132.413 294.416 132.895C294.416 133.376 294.027 133.767 293.545 133.767Z" fill="#0038FF" fill-opacity="0.9998"></path><path d="M282.903 152.816H219.247C218.766 152.816 218.375 152.426 218.375 151.944C218.375 151.462 218.766 151.072 219.247 151.072H282.903C283.384 151.072 283.775 151.462 283.775 151.944C283.775 152.426 283.385 152.816 282.903 152.816Z" fill="#0038FF" fill-opacity="0.9998"></path><path d="M293.543 138.531H219.247C218.766 138.531 218.375 138.141 218.375 137.659C218.375 137.177 218.766 136.787 219.247 136.787H293.543C294.024 136.787 294.415 137.177 294.415 137.659C294.415 138.141 294.025 138.531 293.543 138.531Z" fill="#0038FF" fill-opacity="0.9998"></path><path d="M293.543 143.292H219.247C218.766 143.292 218.375 142.903 218.375 142.421C218.375 141.939 218.766 141.549 219.247 141.549H293.543C294.024 141.549 294.415 141.939 294.415 142.421C294.415 142.903 294.025 143.292 293.543 143.292Z" fill="#0038FF" fill-opacity="0.9998"></path><path d="M293.543 148.054H219.247C218.766 148.054 218.375 147.665 218.375 147.183C218.375 146.7 218.766 146.311 219.247 146.311H293.543C294.024 146.311 294.415 146.7 294.415 147.183C294.415 147.665 294.025 148.054 293.543 148.054Z" fill="#0038FF" fill-opacity="0.9998"></path><path d="M293.544 61.7695H284.625V73.644H293.544V61.7695Z" fill="#0038FF" fill-opacity="0.9998"></path><path d="M224.186 71.6572C226.916 71.6572 229.13 69.4438 229.13 66.7134C229.13 63.983 226.916 61.7695 224.186 61.7695C221.456 61.7695 219.242 63.983 219.242 66.7134C219.242 69.4438 221.456 71.6572 224.186 71.6572Z" fill="#0038FF" fill-opacity="0.9998"></path><path d="M218.961 111.1C218.961 111.676 219.427 112.142 220.003 112.142C220.578 112.142 221.044 111.676 221.044 111.1C221.044 110.525 220.578 110.059 220.003 110.059C219.427 110.059 218.961 110.525 218.961 111.1Z" fill="#0038FF" fill-opacity="0.9998"></path><path d="M218.961 115.862C218.961 116.437 219.427 116.904 220.003 116.904C220.578 116.904 221.044 116.437 221.044 115.862C221.044 115.287 220.578 114.82 220.003 114.82C219.427 114.82 218.961 115.287 218.961 115.862Z" fill="#0038FF" fill-opacity="0.9998"></path><path d="M218.961 120.626C218.961 121.201 219.427 121.668 220.003 121.668C220.578 121.668 221.044 121.201 221.044 120.626C221.044 120.05 220.578 119.584 220.003 119.584C219.427 119.584 218.961 120.05 218.961 120.626Z" fill="#0038FF" fill-opacity="0.9998"></path><path d="M218.961 125.388C218.961 125.963 219.427 126.429 220.003 126.429C220.578 126.429 221.044 125.963 221.044 125.388C221.044 124.812 220.578 124.346 220.003 124.346C219.427 124.346 218.961 124.812 218.961 125.388Z" fill="#0038FF" fill-opacity="0.9998"></path><path d="M234.956 111.972H223.606C223.125 111.972 222.734 111.582 222.734 111.1C222.734 110.619 223.125 110.229 223.606 110.229H234.956C235.437 110.229 235.828 110.619 235.828 111.1C235.828 111.582 235.437 111.972 234.956 111.972Z" fill="#0038FF" fill-opacity="0.9998"></path><path d="M245.596 116.736H223.606C223.125 116.736 222.734 116.345 222.734 115.864C222.734 115.383 223.125 114.992 223.606 114.992H245.596C246.077 114.992 246.468 115.383 246.468 115.864C246.468 116.345 246.078 116.736 245.596 116.736Z" fill="#0038FF" fill-opacity="0.9998"></path><path d="M232.519 121.497H223.606C223.125 121.497 222.734 121.108 222.734 120.626C222.734 120.144 223.125 119.754 223.606 119.754H232.519C233 119.754 233.391 120.144 233.391 120.626C233.391 121.108 233.001 121.497 232.519 121.497Z" fill="#0038FF" fill-opacity="0.9998"></path><path d="M242.109 126.259H223.606C223.125 126.259 222.734 125.869 222.734 125.387C222.734 124.905 223.125 124.516 223.606 124.516H242.109C242.59 124.516 242.981 124.905 242.981 125.387C242.981 125.869 242.591 126.259 242.109 126.259Z" fill="#0038FF" fill-opacity="0.9998"></path><path opacity="0.5" d="M305.451 159.232L287.266 177.418V159.232H305.451Z" fill="#0038FF" fill-opacity="0.9998"></path><path opacity="0.2" d="M293.543 61.7695L284.625 73.644H293.543V61.7695Z" fill="black"></path><path opacity="0.2" d="M227.081 63.8242H221.305V69.6006H227.081V63.8242Z" fill="black"></path><path opacity="0.4" d="M305.45 54.8008H300.312V159.231H305.45V54.8008Z" fill="black"></path><path d="M302.876 74.4955C301.832 74.4955 300.984 73.649 300.984 72.6037V61.9367C300.984 60.8923 301.831 60.0449 302.876 60.0449C303.921 60.0449 304.768 60.8914 304.768 61.9367V72.6037C304.768 73.649 303.921 74.4955 302.876 74.4955Z" fill="#0038FF" fill-opacity="0.9998"></path><path opacity="0.4" d="M302.876 74.4955C301.832 74.4955 300.984 73.649 300.984 72.6037V61.9367C300.984 60.8923 301.831 60.0449 302.876 60.0449C303.921 60.0449 304.768 60.8914 304.768 61.9367V72.6037C304.768 73.649 303.921 74.4955 302.876 74.4955Z" fill="white"></path><path d="M104.166 99.4062H134.605C137.043 99.4062 139.02 101.383 139.02 103.822V133.411C139.02 135.849 137.043 137.826 134.605 137.826H122.248L123.576 146.74L117.465 137.826H104.166C101.727 137.826 99.75 135.849 99.75 133.411V103.822C99.7509 101.383 101.727 99.4062 104.166 99.4062Z" fill="#0038FF" fill-opacity="0.9998"></path><path opacity="0.6" d="M104.166 99.4062H134.605C137.043 99.4062 139.02 101.383 139.02 103.822V133.411C139.02 135.849 137.043 137.826 134.605 137.826H122.248L123.576 146.74L117.465 137.826H104.166C101.727 137.826 99.75 135.849 99.75 133.411V103.822C99.7509 101.383 101.727 99.4062 104.166 99.4062Z" fill="#0C3A54"></path><path d="M116.875 112.465V114.825L118.09 114.939C118.254 115.73 118.568 116.465 118.997 117.119L118.217 118.062L119.885 119.73L120.829 118.949C121.481 119.378 122.217 119.692 123.009 119.856L123.123 121.071H125.483L125.597 119.856C126.388 119.692 127.124 119.378 127.777 118.949L128.721 119.73L130.389 118.062L129.608 117.119C130.037 116.466 130.35 115.73 130.515 114.939L131.73 114.825V112.465L130.515 112.351C130.351 111.559 130.037 110.824 129.608 110.17L130.389 109.227L128.721 107.558L127.777 108.339C127.124 107.91 126.389 107.597 125.597 107.432L125.483 106.217H123.123L123.009 107.432C122.218 107.596 121.482 107.91 120.829 108.339L119.885 107.558L118.217 109.227L118.997 110.169C118.568 110.822 118.255 111.558 118.09 112.35L116.875 112.465ZM124.302 110.45C126.066 110.45 127.497 111.881 127.497 113.645C127.497 115.41 126.066 116.84 124.302 116.84C122.537 116.84 121.107 115.41 121.107 113.645C121.107 111.881 122.538 110.45 124.302 110.45Z" fill="#F5F5F5"></path><path d="M118.396 129.686C119.016 129.557 119.592 129.312 120.105 128.976L120.843 129.588L122.151 128.28L121.539 127.541C121.875 127.029 122.121 126.453 122.25 125.833L123.202 125.743V123.894L122.25 123.804C122.121 123.184 121.876 122.608 121.539 122.095L122.151 121.356L120.843 120.049L120.105 120.661C119.593 120.325 119.016 120.079 118.396 119.95L118.307 118.998H116.458L116.368 119.95C115.748 120.079 115.172 120.324 114.66 120.661L113.921 120.049L112.613 121.356L113.225 122.095C112.889 122.607 112.644 123.183 112.514 123.804L111.562 123.894V125.743L112.514 125.833C112.643 126.453 112.888 127.029 113.225 127.541L112.613 128.281L113.921 129.588L114.66 128.976C115.172 129.312 115.748 129.558 116.368 129.687L116.458 130.639H118.307L118.396 129.686ZM114.878 124.819C114.878 123.436 115.999 122.315 117.382 122.315C118.764 122.315 119.885 123.436 119.885 124.819C119.885 126.202 118.764 127.323 117.382 127.323C115.999 127.323 114.878 126.202 114.878 124.819Z" fill="#F5F5F5"></path><path d="M113.585 119.253L114.1 119.873L115.383 118.997L114.993 118.292C115.351 117.921 115.643 117.484 115.846 116.993L116.646 117.067L116.934 115.54L116.162 115.318C116.153 114.786 116.039 114.273 115.842 113.798L116.462 113.283L115.586 112L114.881 112.39C114.51 112.032 114.073 111.74 113.582 111.537L113.656 110.737L112.129 110.449L111.907 111.221C111.375 111.23 110.861 111.344 110.387 111.541L109.872 110.921L108.589 111.797L108.979 112.502C108.622 112.872 108.329 113.31 108.126 113.801L107.327 113.727L107.039 115.254L107.811 115.476C107.82 116.008 107.934 116.521 108.131 116.996L107.511 117.511L108.387 118.794L109.092 118.404C109.462 118.762 109.899 119.054 110.392 119.257L110.318 120.056L111.844 120.344L112.067 119.571C112.596 119.564 113.11 119.45 113.585 119.253ZM109.919 115.008C110.134 113.867 111.234 113.116 112.375 113.331C113.516 113.547 114.267 114.646 114.052 115.788C113.836 116.929 112.736 117.68 111.595 117.464C110.454 117.248 109.703 116.149 109.919 115.008Z" fill="#F5F5F5"></path><path d="M154.314 207.668C154.314 207.668 156.462 226.977 157.159 229.278C157.855 231.578 167.684 243.868 167.684 243.868L164.895 245.323C164.895 245.323 154.401 234.567 152.769 231.377C151.136 228.187 148.617 211.538 148.617 211.538L154.314 207.668Z" fill="white"></path><path d="M152.354 199.08C155.976 200.995 157.16 227.781 157.16 227.781L158.986 230.604L153.427 234.563C153.427 234.563 151.06 230.654 149.954 227.666C148.849 224.677 146.227 209.962 146.227 209.962L152.354 199.08Z" fill="#002DCC"></path><path opacity="0.1" d="M152.354 199.08C155.976 200.995 157.16 227.781 157.16 227.781L158.986 230.604L153.427 234.563C153.427 234.563 151.06 230.654 149.954 227.666C148.849 224.677 146.227 209.962 146.227 209.962L152.354 199.08Z" fill="#F0F6FA"></path><path d="M152.609 234.564L158.989 229.506L160.364 232.376L154.478 236.576L152.609 234.564Z" fill="#0038FF" fill-opacity="0.9998"></path><path opacity="0.4" d="M152.609 234.564L158.989 229.506L160.364 232.376L154.478 236.576L152.609 234.564Z" fill="#F0F6FA"></path><path d="M138.101 233.613L144.617 243.931C157.543 240.92 198.978 234.599 204.067 248.816C210.391 266.483 164.688 280.567 139.395 281.429C114.101 282.291 93.8061 267.891 109.796 231.02L138.101 233.613Z" fill="#0038FF" fill-opacity="0.9998"></path><path opacity="0.2" d="M138.101 233.613L144.617 243.931C157.543 240.92 198.978 234.599 204.067 248.816C210.391 266.483 164.688 280.567 139.395 281.429C114.101 282.291 93.8061 267.891 109.796 231.02L138.101 233.613Z" fill="black"></path><path d="M196.74 273.79C196.683 273.826 196.609 273.823 196.555 273.781C196.504 273.745 196.487 273.681 196.51 273.624C196.593 273.343 197.431 270.911 198.277 270.656C198.46 270.611 198.652 270.668 198.782 270.803C199.022 271.002 199.137 271.313 199.083 271.62C198.946 272.074 198.668 272.474 198.29 272.762C197.809 273.156 197.291 273.501 196.74 273.79ZM196.958 273.323C197.746 272.977 198.385 272.362 198.76 271.587C198.804 271.376 198.719 271.158 198.545 271.03C198.497 270.971 198.419 270.948 198.346 270.972C198.275 270.996 198.209 271.035 198.151 271.085C197.621 271.753 197.217 272.512 196.958 273.323Z" fill="#0038FF" fill-opacity="0.9998"></path><path d="M196.694 273.825C196.637 273.846 196.573 273.827 196.536 273.779C196.458 273.711 195.29 272.236 195.482 271.242C195.529 270.993 195.674 270.773 195.885 270.632C196.067 270.457 196.347 270.43 196.559 270.569C197.17 271 197.096 272.973 196.795 273.72L196.774 273.795C196.751 273.812 196.723 273.823 196.694 273.825ZM196.031 270.935C195.925 271.026 195.854 271.151 195.828 271.289C195.707 271.918 196.294 272.862 196.61 273.315C196.803 272.472 196.74 271.088 196.382 270.84C196.343 270.82 196.27 270.761 196.089 270.889L196.031 270.935Z" fill="#0038FF" fill-opacity="0.9998"></path><path d="M152.276 277.935C152.31 277.876 152.377 277.844 152.444 277.853C152.504 277.86 152.552 277.908 152.558 277.969C152.623 278.255 153.066 280.789 152.448 281.422C152.31 281.55 152.114 281.594 151.935 281.538C151.63 281.482 151.378 281.264 151.277 280.97C151.177 280.506 151.226 280.021 151.418 279.586C151.648 279.008 151.936 278.456 152.276 277.935ZM152.312 278.449C151.79 279.133 151.529 279.981 151.576 280.841C151.641 281.047 151.82 281.196 152.033 281.224C152.104 281.252 152.184 281.235 152.235 281.178C152.287 281.122 152.326 281.056 152.351 280.985C152.492 280.145 152.479 279.286 152.312 278.449Z" fill="#0038FF" fill-opacity="0.9998"></path><path d="M168.832 265.139L158.427 268.845L153.43 270.625L154.711 276.093L159.551 275.063L171.372 272.544L168.832 265.139Z" fill="white"></path><path d="M156.077 276.349L155.201 269.897C155.152 269.538 154.816 269.289 154.458 269.349L151.275 269.879C151.275 269.879 146.942 270.286 146.082 271.396C143.566 274.643 145.137 288.964 146.814 289.467C147.428 289.652 148.076 288.81 148.343 288.229C149.19 286.385 150.684 281.557 151.41 280.027C152.258 278.238 154.585 277.362 155.631 277.049C155.934 276.959 156.12 276.663 156.077 276.349Z" fill="#002DCC"></path><path d="M152.306 277.887C152.345 277.841 152.41 277.827 152.466 277.852C152.568 277.873 154.303 278.597 154.617 279.561C154.697 279.801 154.675 280.064 154.559 280.29C154.485 280.532 154.252 280.69 154 280.672C153.257 280.591 152.367 278.829 152.267 278.03L152.25 277.954C152.261 277.927 152.281 277.903 152.306 277.887ZM154.286 280.095C154.334 279.963 154.335 279.82 154.292 279.687C154.093 279.077 153.123 278.534 152.627 278.292C152.865 279.122 153.59 280.303 154.024 280.347C154.069 280.346 154.16 280.361 154.257 280.162L154.286 280.095Z" fill="#0038FF" fill-opacity="0.9998"></path><path opacity="0.2" d="M168.835 265.139L158.43 268.845L159.554 275.063L171.375 272.544L168.835 265.139Z" fill="black"></path><path d="M161.397 275.995L164.391 276.211L162.388 265.914L158.992 267.793L161.397 275.995Z" fill="#0038FF" fill-opacity="0.9998"></path><path opacity="0.6" d="M161.397 275.995L164.391 276.211L162.388 265.914L158.992 267.793L161.397 275.995Z" fill="#F0F6FA"></path><path opacity="0.2" d="M117.984 235.986L133.571 253.268C133.571 253.268 150.804 252.885 171.729 263.113C171.729 263.113 194.182 253.838 196.245 246.133C198.945 236.04 144.616 243.93 144.616 243.93L117.984 235.986Z" fill="black"></path><path d="M191.089 248.189V250.751C191.089 251.408 190.315 251.677 189.666 251.677H138.487C137.83 251.677 137.039 251.408 137.039 250.751V248.189H191.089Z" fill="#002DCC"></path><path opacity="0.4" d="M191.089 248.189V250.751C191.089 251.408 190.315 251.677 189.666 251.677H138.487C137.83 251.677 137.039 251.408 137.039 250.751V248.189H191.089Z" fill="#F0F6FA"></path><path opacity="0.2" d="M191.091 248.189V250.751C191.091 251.408 190.317 251.677 189.668 251.677H155.912C155.256 251.677 154.477 251.408 154.477 250.751V248.189H191.091Z" fill="black"></path><path d="M199.651 221.6L193.559 249.234C193.36 250.144 192.475 250.805 191.58 250.805H158.3C157.413 250.805 156.844 249.979 157.05 249.069L163.135 221.645C163.341 220.743 164.219 220.293 165.113 220.293H198.395C199.288 220.293 199.85 220.697 199.651 221.6Z" fill="#002DCC"></path><path opacity="0.4" d="M199.651 221.6L193.559 249.234C193.36 250.144 192.474 250.805 191.58 250.805H159.43C158.537 250.805 157.975 249.979 158.172 249.069L164.265 221.645C164.463 220.743 165.349 220.293 166.243 220.293H198.393C199.287 220.293 199.849 220.697 199.651 221.6Z" fill="#F0F6FA"></path><path opacity="0.2" d="M183.243 235.648V235.656C183.243 238.022 180.706 239.945 178.847 239.945C176.987 239.945 175.884 238.022 176.414 235.656C176.944 233.337 178.795 231.446 180.615 231.375C180.084 233.741 181.22 235.656 183.072 235.656C183.112 235.656 183.243 235.656 183.243 235.648Z" fill="white"></path><path d="M176.062 276.977L186.961 278.771L192.196 279.633L193.722 274.226L188.988 272.786L177.424 269.268L176.062 276.977Z" fill="white"></path><path d="M192.651 273.342L190.294 279.412C190.162 279.751 190.337 280.13 190.679 280.252L193.721 281.329C193.721 281.329 197.708 283.07 199 282.514C202.773 280.892 208.33 267.599 207.107 266.346C206.66 265.888 205.684 266.311 205.17 266.69C203.535 267.894 199.891 271.395 198.516 272.382C196.907 273.536 194.447 273.177 193.38 272.945C193.073 272.878 192.765 273.048 192.651 273.342Z" fill="#002DCC"></path><path opacity="0.2" d="M176.062 276.977L186.961 278.771L188.988 272.786L177.424 269.268L176.062 276.977Z" fill="black"></path><path d="M187.106 271.658C187.106 271.658 142.668 246.677 127.335 247.388C112.003 248.098 109.79 261.617 116.116 270.078C122.442 278.538 134.124 280.598 134.124 280.598C134.124 280.598 126.171 269.358 127.321 266.196C128.47 263.034 132.97 267.446 132.97 267.446C132.97 267.446 160.926 276.475 185.381 278.546L187.106 271.658Z" fill="#0038FF" fill-opacity="0.9998"></path><path d="M187.825 270.969L185.31 269.279L182.078 279.206H185.959L187.825 270.969Z" fill="#0038FF" fill-opacity="0.9998"></path><path opacity="0.6" d="M187.825 270.969L185.31 269.279L182.078 279.206H185.959L187.825 270.969Z" fill="#F0F6FA"></path><path d="M109.797 231.022L138.103 233.62C138.103 233.62 142.541 224.431 145.941 220.848C149.332 217.256 152.357 199.08 152.357 199.08C149.968 197.92 147.588 196.97 145.261 196.186C136.238 193.126 128.052 192.568 123.606 192.541H123.449C121.339 192.533 120.119 192.646 120.119 192.646C119.421 193.03 118.75 193.832 118.105 194.939C115.071 200.17 112.656 212.374 111.227 221.136C110.303 226.794 109.797 231.022 109.797 231.022Z" fill="#002DCC"></path><path opacity="0.2" d="M111.227 221.136C117.468 218.277 125.986 213.439 125.541 208.53C125.062 203.143 120.694 197.72 118.105 194.939C115.071 200.17 112.656 212.375 111.227 221.136Z" fill="black"></path><path d="M124.992 192.567C124.992 192.567 128.219 203.179 137.039 204.329C145.86 205.479 147.328 196.924 147.328 196.924C147.328 196.924 135.969 190.691 124.992 192.567Z" fill="#002DCC"></path><path opacity="0.1" d="M124.992 192.567C124.992 192.567 128.219 203.179 137.039 204.329C145.86 205.479 147.328 196.924 147.328 196.924C147.328 196.924 135.969 190.691 124.992 192.567Z" fill="#F0F6FA"></path><path d="M126.836 192.862C126.836 192.862 131 202.691 138.492 202.691C145.985 202.691 146.229 197.173 146.229 197.173C146.229 197.173 138.734 192.259 126.836 192.862Z" fill="#0038FF" fill-opacity="0.9998"></path><path opacity="0.4" d="M126.836 192.862C126.836 192.862 131 202.691 138.492 202.691C145.985 202.691 146.229 197.173 146.229 197.173C146.229 197.173 138.734 192.259 126.836 192.862Z" fill="#F0F6FA"></path><path d="M140.417 194.389C140.469 196.155 141.466 196.572 141.466 196.572C141.828 199.82 139.007 200.841 137.592 200.697C132.036 200.128 130.281 193.442 130.281 193.442C134.324 191.836 135.231 187.38 135.401 184.732C135.482 183.496 135.401 182.652 135.401 182.652L142.952 187.409C142.198 188.671 141.665 189.767 141.265 190.715C140.606 192.333 140.396 193.523 140.417 194.389Z" fill="white"></path><path opacity="0.2" d="M142.486 186.819C141.865 188.151 141.445 189.295 141.143 190.278C140.651 191.954 140.563 193.16 140.672 194.019C136.428 194.352 134.74 184.975 134.74 184.975L134.703 184.921C134.659 183.683 134.492 182.852 134.492 182.852L142.486 186.819Z" fill="black"></path><path d="M147.316 165.874C147.316 165.874 152.856 159.494 146.224 154.148C139.592 148.802 126.487 151.216 124.073 163.287C121.659 175.357 124.99 180.458 124.99 180.458C124.99 180.458 124.988 172.771 127.204 170.529C127.204 170.529 126.54 174.208 127.204 176.42C127.867 178.633 127.204 177.224 127.204 177.224C127.204 177.224 129.246 167.597 139.075 170.356C148.904 173.116 147.316 165.874 147.316 165.874Z" fill="#002DCC"></path><path d="M148.641 167.955C155.944 170.183 157.102 174.808 155.342 182.497C153.142 192.106 149.019 198.151 140.501 193.358C128.933 186.848 136.514 164.256 148.641 167.955Z" fill="white"></path><path d="M150.749 180.65C150.749 180.65 151.179 182.866 151.95 184.327C151.95 184.327 151.022 185.13 149.773 184.566L150.749 180.65Z" fill="#FDF3EB"></path><path d="M146.457 178.688C146.288 179.292 145.825 179.691 145.423 179.578C145.02 179.466 144.831 178.884 144.999 178.28C145.168 177.676 145.631 177.278 146.034 177.39C146.436 177.503 146.627 178.084 146.457 178.688Z" fill="#002DCC"></path><path d="M145.859 177.373L147.317 177.225C147.317 177.225 146.355 178.148 145.859 177.373Z" fill="#002DCC"></path><path d="M154.005 180.663C153.836 181.267 153.373 181.665 152.97 181.553C152.567 181.44 152.377 180.859 152.546 180.255C152.715 179.651 153.178 179.252 153.581 179.365C153.984 179.477 154.174 180.059 154.005 180.663Z" fill="#002DCC"></path><path d="M153.406 179.347L154.864 179.199C154.864 179.199 153.901 180.122 153.406 179.347Z" fill="#002DCC"></path><path d="M144.417 174.077C144.315 174.077 144.215 174.029 144.155 173.938C144.058 173.793 144.097 173.596 144.241 173.499C145.901 172.384 147.965 173.296 148.052 173.336C148.21 173.408 148.281 173.594 148.21 173.752C148.138 173.913 147.952 173.982 147.792 173.911C147.774 173.903 145.958 173.105 144.593 174.023C144.539 174.06 144.478 174.077 144.417 174.077Z" fill="#002DCC"></path><path d="M156.051 176.738C155.96 176.738 155.869 176.699 155.807 176.623C154.643 175.206 153.392 175.236 153.339 175.25C153.171 175.25 153.017 175.123 153.008 174.95C153 174.777 153.131 174.629 153.305 174.618C153.367 174.607 154.917 174.544 156.295 176.221C156.406 176.356 156.386 176.556 156.251 176.666C156.193 176.713 156.121 176.738 156.051 176.738Z" fill="#002DCC"></path><path d="M136.906 177.829C136.906 177.829 142.15 172.87 143.046 168.081C143.046 168.081 159.32 166.582 155.555 181.489C155.555 181.489 160.946 168.877 148.481 164.759C136.036 160.646 130.469 179.021 135.283 186.47C135.283 186.47 133.649 180.937 136.906 177.829Z" fill="#002DCC"></path><path d="M148.089 187.859C148.087 187.859 148.084 187.859 148.081 187.859C144.511 187.774 144.054 184.463 144.049 184.429C144.028 184.256 144.15 184.098 144.323 184.076C144.495 184.056 144.654 184.177 144.676 184.35C144.691 184.464 145.077 187.156 148.096 187.228C148.271 187.232 148.408 187.377 148.405 187.551C148.401 187.722 148.261 187.859 148.089 187.859Z" fill="#002DCC"></path><path d="M135.656 176.367C135.628 176.463 135.679 176.56 135.771 176.604C135.787 176.612 135.804 176.618 135.823 176.623L143.254 178.353C143.016 179.711 143.716 181.118 145.131 181.805C146.919 182.675 149.157 182.067 150.12 180.452C150.215 180.293 150.281 180.128 150.344 179.963C150.739 179.71 151.072 179.613 151.304 179.691C151.59 179.793 151.68 180.108 151.685 180.128C151.461 181.478 152.162 182.872 153.569 183.554C155.357 184.423 157.595 183.816 158.558 182.2C159.52 180.585 158.847 178.564 157.059 177.695C155.27 176.826 153.032 177.434 152.07 179.049C151.975 179.208 151.909 179.374 151.845 179.54C151.749 179.442 151.633 179.351 151.469 179.298C151.187 179.203 150.861 179.241 150.499 179.395C150.736 178.038 150.035 176.632 148.621 175.945C146.832 175.076 144.594 175.684 143.632 177.298C143.508 177.507 143.413 177.721 143.343 177.94L135.939 176.216C135.815 176.188 135.687 176.255 135.656 176.367ZM152.479 179.248C153.32 177.836 155.275 177.305 156.839 178.065C158.402 178.824 158.989 180.59 158.148 182.002C157.307 183.413 155.351 183.944 153.788 183.185C152.225 182.425 151.638 180.659 152.479 179.248ZM144.041 177.498C144.882 176.087 146.838 175.556 148.401 176.315C149.964 177.074 150.551 178.841 149.71 180.252C148.869 181.663 146.913 182.194 145.35 181.435C143.787 180.677 143.2 178.91 144.041 177.498Z" fill="#002DCC"></path><g opacity="0.3"><path d="M135.656 176.367C135.628 176.463 135.679 176.56 135.771 176.604C135.787 176.612 135.804 176.618 135.823 176.623L143.254 178.353C143.016 179.711 143.716 181.118 145.131 181.805C146.919 182.675 149.157 182.067 150.12 180.452C150.215 180.293 150.281 180.128 150.344 179.963C150.739 179.71 151.072 179.613 151.304 179.691C151.59 179.793 151.68 180.108 151.685 180.128C151.461 181.478 152.162 182.872 153.569 183.554C155.357 184.423 157.595 183.816 158.558 182.2C159.52 180.585 158.847 178.564 157.059 177.695C155.27 176.826 153.032 177.434 152.07 179.049C151.975 179.208 151.909 179.374 151.845 179.54C151.749 179.442 151.633 179.351 151.469 179.298C151.187 179.203 150.861 179.241 150.499 179.395C150.736 178.038 150.035 176.632 148.621 175.945C146.832 175.076 144.594 175.684 143.632 177.298C143.508 177.507 143.413 177.721 143.343 177.94L135.939 176.216C135.815 176.188 135.687 176.255 135.656 176.367ZM152.479 179.248C153.32 177.836 155.275 177.305 156.839 178.065C158.402 178.824 158.989 180.59 158.148 182.002C157.307 183.413 155.351 183.944 153.788 183.185C152.225 182.425 151.638 180.659 152.479 179.248ZM144.041 177.498C144.882 176.087 146.838 175.556 148.401 176.315C149.964 177.074 150.551 178.841 149.71 180.252C148.869 181.663 146.913 182.194 145.35 181.435C143.787 180.677 143.2 178.91 144.041 177.498Z" fill="#F0F6FA"></path></g><path d="M137.628 179.735C137.937 178.544 137.332 176.184 135.072 175.756C132.734 175.313 130.239 179.629 135.527 182.464C136.285 182.87 136.981 182.22 137.628 179.735Z" fill="white"></path><path d="M123.449 202.182C123.449 202.182 124.377 220.815 125.945 224.989C127.514 229.163 143.982 244.594 143.982 244.594C143.982 244.594 148.578 243.568 149.341 243.867C150.103 244.166 154.482 248.193 154.482 248.193H141.813L140.708 246.235C140.708 246.235 123.668 233.615 121.797 230.607C120.411 228.381 115.961 205.747 115.961 205.747L123.449 202.182Z" fill="white"></path><path d="M120.115 192.644C123.07 191.104 124.511 196.05 126.275 206.051C128.04 216.053 127.751 225.186 127.751 225.186L130.278 229.675L123.902 235.551C123.902 235.551 119.149 231.207 117.177 225.187C115.205 219.165 109.776 198.032 120.115 192.644Z" fill="#002DCC"></path><path opacity="0.1" d="M120.115 192.644C123.07 191.104 124.511 196.05 126.275 206.051C128.04 216.053 127.751 225.186 127.751 225.186L130.278 229.675L123.902 235.551C123.902 235.551 119.149 231.207 117.177 225.187C115.205 219.165 109.776 198.032 120.115 192.644Z" fill="#F0F6FA"></path><path d="M122.234 235.551L130.282 228.354L132.182 231.019L124.994 238.078L122.234 235.551Z" fill="#0038FF" fill-opacity="0.9998"></path><path opacity="0.4" d="M122.234 235.551L130.282 228.354L132.182 231.019L124.994 238.078L122.234 235.551Z" fill="#F0F6FA"></path></svg>