<svg xmlns="http://www.w3.org/2000/svg" width="500" height="300" viewBox="0 0 500 300" fill="none"><rect width="500" height="300" rx="24" fill="white"></rect><path d="M127 152.874L129.358 154.539L227.698 91.1101L230.056 11.666L227.698 10L127 71.7639V152.874Z" fill="url(#paint0_linear_2332_325)"></path><path d="M129.359 154.539L230.058 92.7753V11.666L129.359 73.4299V154.539Z" fill="#AFE1FF"></path><path d="M165.863 72.0023L167.606 73.0941L179.151 65.0364V54.5835L177.408 53.3892L165.863 60.4577V72.0023Z" fill="url(#paint1_linear_2332_325)"></path><path d="M167.607 73.0941L179.152 66.0256V54.481L167.607 61.5495V73.0941Z" fill="#E1EFFF"></path><path d="M165.863 89.4838L177.408 82.4153V70.8699L165.863 77.9384V89.4838Z" fill="#3FA2FF"></path><path d="M172.252 106.634V117.483L173.123 117.842L175.868 115.269L176.74 104.778L175.868 104.42L172.252 106.634Z" fill="url(#paint2_linear_2332_325)"></path><path d="M162.887 103.05V123.216L163.758 123.575L166.503 121.001L167.375 101.195L166.503 100.836L162.887 103.05Z" fill="url(#paint3_linear_2332_325)"></path><path d="M158.139 109.389V126.127L159.01 126.486L161.756 123.913L162.627 107.534L161.756 107.175L158.139 109.389Z" fill="url(#paint4_linear_2332_325)"></path><path d="M167.619 113.162V120.321L168.491 120.68L172.107 117.995V111.307L171.236 110.947L167.619 113.162Z" fill="url(#paint5_linear_2332_325)"></path><path d="M173.123 106.993V117.842L176.74 115.628V104.778L173.123 106.993Z" fill="#E1EFFF"></path><path d="M163.758 103.408V123.575L167.375 121.36V101.195L163.758 103.408Z" fill="#E1EFFF"></path><path d="M159.012 109.748V126.486L162.628 124.272V107.534L159.012 109.748Z" fill="#E1EFFF"></path><path d="M168.492 113.52V120.679L172.108 118.466V111.306L168.492 113.52Z" fill="#E1EFFF"></path><path d="M156.762 130.028L177.408 117.378V88.7539L156.762 101.404V130.028Z" stroke="white" stroke-miterlimit="10"></path><path d="M134.84 80.776L163.332 63.3313V62.0071L134.84 79.4518V80.776Z" fill="white"></path><path d="M185.205 78.2782L220.526 56.6526V55.0103L185.205 76.6366V78.2782Z" fill="white"></path><path d="M185.205 83.025L220.526 61.3995V59.7578L185.205 81.3834V83.025Z" fill="white"></path><path d="M185.205 87.7728L220.526 66.1473V64.5056L185.205 86.1312V87.7728Z" fill="white"></path><path d="M185.205 92.5206L220.526 70.8943V69.2527L185.205 90.879V92.5206Z" fill="white"></path><path d="M185.205 97.2677L220.526 75.6421V74.0005L185.205 95.626V97.2677Z" fill="white"></path><path d="M185.205 102.016L220.526 80.3892V78.7476L185.205 100.374V102.016Z" fill="white"></path><path d="M185.205 106.763L220.526 85.137V83.4954L185.205 105.121V106.763Z" fill="white"></path><path d="M185.205 111.51L220.526 89.8848V88.2432L185.205 109.869V111.51Z" fill="white"></path><path d="M137.486 82.5623L163.331 66.7378V65.4136L137.486 81.238V82.5623Z" fill="white"></path><path d="M144.877 80.1206V81.4405L163.329 70.1483V68.8196L144.877 80.1206Z" fill="white"></path><path d="M154.859 77.4138V78.7343L163.331 73.551V72.2312L154.859 77.4138Z" fill="white"></path><path d="M134.84 98.2575L163.332 80.8128V79.4885L134.84 96.9332V98.2575Z" fill="white"></path><path d="M137.486 100.044L163.331 84.2193V82.895L137.486 98.7187V100.044Z" fill="white"></path><path d="M135.904 104.42L163.332 87.626V86.3018L135.904 103.095V104.42Z" fill="white"></path><path d="M144.363 102.647L163.331 91.0332V89.709L144.363 101.322V102.647Z" fill="white"></path><path d="M134.84 114.416V115.737L153.849 104.1V102.779L134.84 114.416Z" fill="white"></path><path d="M137.49 116.204V117.525L153.851 107.503V106.182L137.49 116.204Z" fill="white"></path><path d="M135.906 120.576V121.903L153.85 110.915V109.586L135.906 120.576Z" fill="white"></path><path d="M144.361 118.804V120.124L153.85 114.318V112.998L144.361 118.804Z" fill="white"></path><path d="M134.84 131.892V133.221L153.849 121.584V120.255L134.84 131.892Z" fill="white"></path><path d="M137.49 133.681V135.009L153.851 124.988V123.667L137.49 133.681Z" fill="white"></path><path d="M135.906 138.059V139.38L153.85 128.399V127.07L135.906 138.059Z" fill="white"></path><path d="M144.361 136.289V137.608L153.85 131.802V130.473L144.361 136.289Z" fill="white"></path><path d="M186.241 64.8477L186.236 64.8529L189.274 66.4465L189.393 64.748L188.961 64.5569C189.063 64.5037 189.165 64.4498 189.266 64.3863L190.303 63.7626L192.566 62.4029L212.054 50.6959C214.956 48.9516 217.324 45.2624 217.503 42.2987C218.149 41.751 219.249 40.784 219.249 40.784L216.263 39.2184C216.179 39.1675 216.092 39.1195 216.001 39.0811L215.998 39.0789C215.063 38.6692 213.77 38.8191 212.334 39.6089C212.303 39.5041 212.27 39.4052 212.235 39.3055C212.583 39.0944 213.276 38.5829 213.276 38.5829L210.506 37.1287L210.504 37.1317C208.889 36.192 206.476 36.4289 203.779 38.0484C200.153 40.2282 197.042 44.2888 195.69 48.2305C194.084 49.3333 192.653 50.9446 191.634 52.6889C191.046 53.6972 190.596 54.7513 190.328 55.7751C189.989 55.8873 189.635 56.0475 189.266 56.2689C187.341 57.4249 185.73 59.7294 185.312 61.7785C185.241 62.1173 185.205 62.4509 185.205 62.7691C185.205 63.8062 185.599 64.514 186.241 64.8477Z" fill="url(#paint6_linear_2332_325)"></path><path d="M185.312 61.7768L188.915 63.3048C188.915 63.3048 189.636 63.6665 190.303 63.7632C190.66 63.817 191.001 63.7942 191.207 63.603C191.492 63.338 192.055 62.8648 192.567 62.4035C193.12 61.9097 193.606 61.4336 193.606 61.2682C193.606 60.9501 193.333 57.3523 193.333 57.3523L190.329 55.7734C189.99 55.8856 189.637 56.0458 189.268 56.2673C187.342 57.4232 185.73 59.727 185.312 61.7768Z" fill="url(#paint7_linear_2332_325)"></path><path d="M191.635 52.6874L196.533 55.1573L200.989 52.1958L198.694 49.8101L195.69 48.229C194.084 49.3318 192.653 50.9432 191.635 52.6874Z" fill="url(#paint8_linear_2332_325)"></path><path d="M192.27 57.8447C192.638 57.624 192.993 57.4638 193.332 57.3517C194.057 54.5607 196.156 51.5483 198.693 49.8085C200.044 45.8668 203.157 41.8055 206.783 39.6272C210.921 37.1411 214.391 37.9095 215.337 41.1884C218.225 39.5984 220.524 40.5986 220.524 43.5239C220.524 46.5429 218.077 50.461 215.058 52.2754L192.27 65.9673C190.028 67.3152 188.209 66.5896 188.209 64.3464C188.21 62.1031 190.028 59.1926 192.27 57.8447Z" fill="white"></path><path d="M372.449 152.874L370.091 154.539L271.75 91.1101L269.393 11.666L271.75 10L372.449 71.7639V152.874Z" fill="url(#paint9_linear_2332_325)"></path><path d="M370.091 154.539L269.393 92.7753V11.666L370.091 73.4299V154.539Z" fill="#AFE1FF"></path><path d="M286.619 67.6076V90.2245L284.802 90.9722L279.08 85.6088L277.264 63.7397L279.08 62.9919L286.619 67.6076Z" fill="url(#paint10_linear_2332_325)"></path><path d="M306.142 60.1366V102.174L304.326 102.921L298.604 97.5579L296.787 56.2687L298.604 55.521L306.142 60.1366Z" fill="url(#paint11_linear_2332_325)"></path><path d="M316.041 73.351V108.243L314.225 108.99L308.502 103.627L306.686 69.4831L308.502 68.7354L316.041 73.351Z" fill="url(#paint12_linear_2332_325)"></path><path d="M296.277 81.2153V96.1392L294.461 96.8869L286.922 91.2903V77.3474L288.738 76.5996L296.277 81.2153Z" fill="url(#paint13_linear_2332_325)"></path><path d="M284.802 68.3551V90.972L277.264 86.3564V63.7395L284.802 68.3551Z" fill="#3FA2FF"></path><path d="M304.326 60.8844V102.921L296.787 98.3057V56.2688L304.326 60.8844Z" fill="#3FA2FF"></path><path d="M314.225 74.0988V108.99L306.686 104.375V69.4832L314.225 74.0988Z" fill="#3FA2FF"></path><path d="M294.461 81.9631V96.887L286.922 92.2713V77.3474L294.461 81.9631Z" fill="#3FA2FF"></path><path d="M318.912 116.373L275.873 90.0038V30.3362L318.912 56.7051V116.373Z" stroke="white" stroke-miterlimit="10"></path><path d="M364.605 83.8306V86.5831L324.979 62.3246V59.5728L364.605 83.8306Z" fill="white"></path><path d="M359.083 87.5576V90.3102L324.979 69.4198V66.6672L359.083 87.5576Z" fill="white"></path><path d="M362.383 96.6692V99.4387L324.979 76.531V73.7615L362.383 96.6692Z" fill="white"></path><path d="M344.757 92.9762V95.7288L324.979 83.6254V80.8728L344.757 92.9762Z" fill="white"></path><path d="M364.605 120.26V123.03L324.979 98.7715V96.0027L364.605 120.26Z" fill="white"></path><path d="M359.083 123.987V126.757L324.979 105.867V103.114L359.083 123.987Z" fill="white"></path><path d="M362.383 133.116V135.869L324.979 112.978V110.208L362.383 133.116Z" fill="white"></path><path d="M344.757 129.424V132.176L324.979 120.072V117.303L344.757 129.424Z" fill="white"></path><path d="M243.262 205.068V276.076C243.262 277.251 245.481 278.204 248.219 278.204C250.957 278.204 253.177 277.251 253.177 276.076V205.068H243.262Z" fill="url(#paint14_linear_2332_325)"></path><path d="M179.732 173.199V244.207C179.732 245.383 181.952 246.335 184.69 246.335C187.428 246.335 189.647 245.383 189.647 244.207V173.199H179.732Z" fill="url(#paint15_linear_2332_325)"></path><path d="M308.865 173.199V244.207C308.865 245.383 311.085 246.335 313.823 246.335C316.56 246.335 318.78 245.383 318.78 244.207V173.199H308.865Z" fill="url(#paint16_linear_2332_325)"></path><path d="M344.64 213.333L334.584 155.869L331.654 156.234L341.71 213.697C341.71 213.697 342.285 214.61 343.548 214.511C344.99 214.4 344.64 213.333 344.64 213.333Z" fill="url(#paint17_linear_2332_325)"></path><path d="M353.019 119.963C352.524 122.229 345.802 129.046 342.847 151.194C341.716 159.669 337.813 167.684 327.435 168.754C326.497 168.57 325.537 168.326 324.585 168.038C312.509 164.407 303.319 160.229 301.895 147.333C305.563 143.982 307.305 138.933 308.014 133.714C308.154 132.688 309.867 106.01 317.935 103.162C319.994 103.672 322.216 104.432 324.585 105.458C325.072 105.672 325.537 105.886 325.995 106.1L352.03 117.482C352.03 117.482 353.513 117.689 353.019 119.963Z" fill="url(#paint18_linear_2332_325)"></path><path d="M297.785 216.509L312.856 212.693C312.856 212.693 312.923 213.52 312.856 213.774C312.79 214.028 310.133 215.005 309.723 215.22C309.606 215.281 309.541 215.281 309.501 215.253L309.499 215.255L309.151 215.165C308.788 215.419 308.182 215.839 307.573 216.236C306.616 216.862 305.209 217.722 303.9 218.151C303.24 218.368 301.073 219.077 299.285 218.652C297.862 218.312 297.501 217.134 297.785 216.509Z" fill="#080749"></path><path d="M311.572 206.994C311.572 206.994 312.926 207.56 313.035 212.002C313.035 212.002 313.006 212.735 312.537 213.116C312.068 213.497 310.456 213.908 309.342 214.582C308.228 215.255 305.386 217.483 302.66 218.128C299.934 218.773 298.352 218.069 297.854 217.512C297.355 216.955 297.62 215.754 298.645 215.05C299.67 214.347 304.163 210.07 304.854 209.114C305.75 207.873 306.975 207.082 307.092 206.877C307.21 206.671 310.605 207.463 311.572 206.994Z" fill="white"></path><path d="M311.832 203.154C311.832 203.154 311.498 206.548 311.587 207.484C311.675 208.42 307.67 208.986 306.576 207.736C306.576 207.736 306.4 205.567 306.361 204.082" fill="#FFD1A4"></path><path d="M282.506 210.695L297.577 206.879C297.577 206.879 297.644 207.706 297.577 207.96C297.511 208.214 294.854 209.191 294.444 209.406C294.327 209.467 294.261 209.467 294.221 209.439L294.22 209.441L293.872 209.351C293.509 209.605 292.902 210.025 292.294 210.423C291.337 211.048 289.93 211.908 288.621 212.337C287.961 212.554 285.793 213.263 284.006 212.838C282.582 212.499 282.222 211.32 282.506 210.695Z" fill="#080749"></path><path d="M296.293 201.18C296.293 201.18 297.647 201.746 297.756 206.188C297.756 206.188 297.726 206.921 297.258 207.302C296.789 207.683 295.177 208.094 294.063 208.768C292.949 209.442 290.106 211.669 287.381 212.314C284.655 212.958 283.073 212.255 282.574 211.698C282.076 211.141 282.34 209.94 283.366 209.236C284.391 208.533 288.884 204.256 289.575 203.3C290.471 202.059 291.696 201.268 291.813 201.063C291.93 200.857 295.326 201.649 296.293 201.18Z" fill="white"></path><path d="M296.552 197.34C296.552 197.34 296.219 200.734 296.307 201.67C296.396 202.606 292.391 203.172 291.297 201.922C291.297 201.922 291.121 199.753 291.082 198.268" fill="#FFD1A4"></path><path d="M332.78 145.636C332.78 145.636 336.879 152.778 332.82 160.344C330.252 165.131 312.903 173.74 312.903 173.74C312.903 173.74 314.366 178.552 314.488 182.797C314.612 187.041 312.627 204.419 312.627 204.419C312.627 204.419 308.705 207.531 305.091 205.027C305.091 205.027 299.479 175.029 300.586 168.755C301.693 162.481 332.78 145.636 332.78 145.636Z" fill="#F4617E"></path><path d="M317.934 140.212C317.934 140.212 321.764 147.825 319.826 152.899C317.889 157.974 297.964 167.891 297.964 167.891C297.964 167.891 299.327 172.337 299.45 176.582C299.574 180.826 298.097 197.905 298.097 197.905C298.097 197.905 293.914 202.909 289.732 198.603C289.732 198.603 284.442 168.814 285.549 162.54C286.656 156.265 317.934 140.212 317.934 140.212Z" fill="#F4617E"></path><path d="M307.737 142.76C307.737 142.76 307.922 144.836 307.323 147.258C306.722 149.68 311.413 146.427 311.413 146.427L318.18 156.838C318.18 156.838 326.423 154.563 327.099 154.193C327.776 153.824 330.79 150.687 330.79 150.318C330.79 149.949 330.359 146.427 330.359 146.427L324.762 144.474" fill="#F4617E"></path><path d="M320.909 116.5C320.909 116.5 318.071 122.084 316.918 123.598C316.297 124.414 309.326 127.758 302.633 129.848C295.94 131.938 292.502 132.742 292.502 132.742L291.521 129.661C291.521 129.661 297.991 126.084 301.067 124.097C304.22 122.061 310.751 118.282 310.751 118.282" fill="#FFD1A4"></path><path d="M308.197 137.357C307.934 139.271 307.7 141.043 307.513 142.591C307.409 143.435 307.86 144.251 308.647 144.598C313.112 146.567 324.966 148.865 329.383 148.847C329.515 148.847 329.637 148.847 329.75 148.837C332.741 148.715 333.454 147.393 333.585 146.483C333.585 146.473 333.585 146.465 333.585 146.465C333.585 146.183 333.575 145.902 333.557 145.62C333.482 144.363 333.294 143.06 332.929 141.785C332.845 141.456 332.76 141.129 332.676 140.81C332.572 140.435 332.46 140.06 332.366 139.694C332.31 139.506 332.263 139.328 332.225 139.15C332.178 138.971 332.14 138.803 332.103 138.634C331.119 133.813 332.835 129.377 334.476 124.96C334.936 123.732 335.385 122.493 335.77 121.246C336.577 118.602 337.373 115.947 338.02 113.275C338.086 113.012 338.161 112.741 338.227 112.46C338.574 111.128 338.931 109.683 338.846 108.333C338.677 107.893 338.49 107.489 338.302 107.114C338.031 106.533 337.758 106.026 337.487 105.585C336.849 104.535 336.277 103.859 335.864 103.456C335.864 103.456 335.855 103.447 335.846 103.438C335.593 103.213 335.34 102.997 335.077 102.791C334.646 102.434 334.223 102.115 333.82 101.824C333.501 101.59 333.201 101.374 332.919 101.196C332.797 101.111 332.676 101.037 332.563 100.961C332.535 100.943 332.515 100.933 332.497 100.915C332.478 100.905 332.459 100.896 332.441 100.887C332.347 100.821 332.244 100.755 332.15 100.69C331.953 100.558 331.747 100.437 331.55 100.315C331.353 100.193 331.137 100.071 330.922 99.9486C330.593 99.7611 330.228 99.564 329.815 99.3581C328.924 98.9174 327.799 98.4015 326.195 97.7733L325.135 97.3799C324.91 97.3046 324.685 97.23 324.45 97.1643C323.353 96.8263 322.228 96.5546 321.092 96.3206C319.339 95.9456 317.557 95.6644 315.869 95.3359C315.568 95.3359 315.278 95.3455 314.987 95.364C314.031 95.4201 312.671 95.6925 311.48 95.9641C308.938 96.5458 306.809 98.431 306.172 100.953C306.078 101.319 306.022 101.703 305.994 102.097C305.768 105.686 309.754 126.01 308.197 137.357Z" fill="white"></path><path d="M316.924 97.814C316.924 97.814 314.828 99.8144 316.502 101.331L317.483 99.2216L316.545 98.3713" fill="#E5AE80"></path><path d="M325.336 90.374L325.104 98.5261C325.104 98.5261 318.979 103.303 316.505 101.33C316.466 99.8836 316.478 96.4357 316.512 94.4412L318.84 93.9703L325.336 90.374Z" fill="#F2BA88"></path><path d="M312.036 84.1116C312.036 84.1116 311.644 88.0526 312.458 91.657C313.272 95.2607 313.519 96.0748 314.972 96.7141C316.425 97.3533 317.732 97.4234 320.174 95.8541C322.616 94.2848 323.952 91.7271 323.952 91.7271C323.952 91.7271 324.3 91.956 325.173 90.972C326.539 89.4315 326.801 88.6609 326.801 86.569C326.801 84.477 326.278 81.8463 324.65 79.1136C323.022 76.3817 318.024 77.2535 315.757 78.4161C313.489 79.5772 312.468 81.7747 312.036 84.1116Z" fill="#FFD1A4"></path><path d="M311.334 85.7866C311.351 85.7866 311.351 85.8035 311.368 85.8035C312.673 86.3948 316.31 86.1202 317.7 84.7945C318.726 84.7074 318.779 85.7858 318.779 85.7858C319.231 87.7161 320.57 87.8903 321.231 88.238C321.857 88.6033 322.014 90.5513 322.014 90.5513L322.831 90.4642C322.831 90.4642 322.814 88.6033 323.092 87.6637C323.405 86.7247 324.936 86.0117 325.805 87.3677C326.518 88.4808 325.857 89.8198 325.318 90.7942L325.3 91.5072C326.031 90.8813 327.248 89.2285 327.544 85.1938C327.544 85.1938 327.544 85.1938 327.544 85.1761C327.509 83.75 328.769 82.4516 327.332 80.1877C326.513 78.8981 325.161 79.0015 324.936 78.6191C323.04 75.4015 319.712 74.7261 317.121 75.6658C316.46 75.9094 315.386 76.336 314.734 77.4499C314.734 77.4499 312.721 77.8145 312.234 79.5514C307.94 81.8707 308.429 84.734 311.334 85.7866Z" fill="#7A5329"></path><path d="M328.912 135.482C328.837 136.195 328.79 138.258 328.912 139.243C329.335 142.591 329.972 145.592 329.381 148.846C329.512 148.846 329.634 148.846 329.747 148.836C332.739 148.715 333.451 147.393 333.583 146.482C333.583 146.473 333.583 146.464 333.583 146.464C333.583 146.183 333.573 145.902 333.555 145.62C333.479 144.363 333.292 143.059 332.926 141.784C332.842 141.456 332.748 141.137 332.664 140.818L332.673 140.808C332.57 140.433 332.458 140.058 332.364 139.692C332.308 139.505 332.261 139.327 332.223 139.148C332.176 138.97 332.138 138.801 332.101 138.632C331.116 133.811 332.833 129.376 334.473 124.959C334.22 122.53 333.939 119.613 333.939 119.322C333.939 118.816 328.828 112.87 328.828 112.87C328.828 112.87 330.141 123.731 328.912 135.482Z" fill="#E9EDF2"></path><path d="M341.791 119.958C341.791 119.958 344.144 131.12 344.144 132.511C344.144 133.902 340.4 134.599 337.763 133.955C335.127 133.309 332.57 122.755 332.57 122.755" fill="#FFD1A4"></path><path d="M327.936 110.603C327.945 114.278 330.724 120.326 332.393 124.621H332.403C336.745 123.731 339.418 122.511 340.881 121.649C339.606 116.903 337.711 110.723 336.745 107.6C336.417 106.559 335.854 105.621 335.105 104.861C335.039 104.852 334.983 104.843 334.926 104.843C332.207 104.777 327.917 106.645 327.936 110.603Z" fill="white"></path><path d="M339.702 114.024C339.599 113.217 339.486 112.467 339.393 111.773C339.486 112.467 339.59 113.218 339.702 114.024Z" fill="#EA6157"></path><path d="M338.867 108.256C338.877 108.303 338.886 108.369 338.895 108.434L338.905 108.444C338.894 108.378 338.876 108.313 338.867 108.256Z" fill="#EA6157"></path><path d="M325.136 97.377L326.196 97.7704C327.8 98.3985 328.925 98.9145 329.816 99.3552C330.229 99.5611 330.595 99.7582 330.923 99.9457C331.138 100.068 331.354 100.189 331.551 100.312C331.748 100.434 331.954 100.555 332.151 100.687C332.245 100.743 332.348 100.809 332.442 100.874C332.46 100.893 332.479 100.902 332.498 100.912C332.516 100.93 332.535 100.94 332.563 100.958C332.676 101.034 332.798 101.108 332.92 101.193C333.192 101.371 333.502 101.587 333.821 101.821C334.224 102.112 334.646 102.431 335.078 102.788C335.143 102.835 335.219 102.891 335.284 102.947C335.284 102.947 335.284 102.947 335.293 102.957C335.303 102.965 335.321 102.975 335.349 103.003C335.368 103.022 335.405 103.041 335.433 103.069C335.481 103.097 335.537 103.144 335.602 103.21C335.678 103.266 335.752 103.341 335.846 103.435C335.856 103.445 335.864 103.453 335.864 103.453C336.277 103.856 336.849 104.532 337.487 105.582C337.759 106.023 338.031 106.53 338.303 107.111C338.49 107.486 338.678 107.889 338.847 108.33C338.866 108.358 338.884 108.396 338.893 108.434C338.884 108.368 338.875 108.302 338.865 108.255C338.875 108.311 338.893 108.377 338.903 108.443C338.903 108.452 338.903 108.452 338.903 108.462C339.297 109.418 339.672 110.534 340.028 111.819C340.076 111.997 340.132 112.166 340.179 112.325C340.423 113.16 340.667 114.051 340.92 114.97C341.426 116.798 341.942 118.731 342.393 120.587C342.393 120.587 341.952 121.028 340.882 121.647C340.113 118.777 339.11 115.383 338.228 112.457C337.656 110.543 337.228 108.799 336.747 107.599C334.961 103.148 325.868 98.9241 325.107 98.5299C325.127 97.8745 325.136 97.377 325.136 97.377Z" fill="#E9EDF2"></path><path d="M338.901 108.444C338.891 108.378 338.873 108.313 338.863 108.257C338.873 108.304 338.882 108.37 338.891 108.435L338.901 108.444Z" fill="#EA6157"></path><path d="M313.574 206.841L293.959 253.872C293.959 253.872 293.486 254.819 294.34 255.235C294.839 255.477 296.212 255.723 296.684 255.008L316.3 207.977L313.574 206.841Z" fill="url(#paint19_linear_2332_325)"></path><path d="M296.835 239.111C296.835 239.111 296.955 241.599 296.987 242.042C297.019 242.486 297.255 242.885 297.187 243.281C297.079 243.914 291.36 255.278 288.575 254.988C286.529 254.776 283.588 252.622 286.873 251.496C288.484 250.556 289.647 241.514 289.743 241.252C289.895 240.839 289.74 237.137 290.019 238.395" fill="#F4CCB0"></path><path d="M299.016 245.784C298.85 247.287 297.356 250.261 297.103 251.319C296.849 252.371 296.321 259.181 296.321 259.181H295.189L294.918 251.489C294.918 251.489 294.918 251.497 294.91 251.52C294.809 251.799 294.005 254.096 293.634 255.42C293.263 256.748 289.93 258.015 288.803 257.98C287.676 257.941 282.688 254.556 281.561 252.59C280.43 250.624 286.873 251.497 286.873 251.497C286.873 251.497 285.091 252.411 285.82 253.245C286.546 254.083 288.257 253.682 289.424 252.152C290.843 250.291 293.207 239.743 297.286 242.434C297.286 242.434 299.226 243.858 299.016 245.784Z" fill="white"></path><path d="M294.918 251.489C294.918 251.489 294.918 251.497 294.909 251.519C294.809 251.799 294.005 254.096 293.634 255.419C293.263 256.747 289.93 258.014 288.803 257.979C289.349 257.913 290.135 256.647 291.179 254.629C292.787 251.519 293.773 250.344 294.289 250.588C294.809 250.833 294.918 251.489 294.918 251.489Z" fill="#564646"></path><path d="M283.203 244.39C283.203 244.39 283.321 246.878 283.354 247.321C283.386 247.765 283.622 248.164 283.554 248.56C283.446 249.193 277.727 260.557 274.942 260.267C272.896 260.055 269.955 257.901 273.241 256.775C274.851 255.835 276.014 246.793 276.11 246.531C276.262 246.118 276.107 242.416 276.386 243.674" fill="#F4CCB0"></path><path d="M285.383 251.063C285.217 252.566 283.723 255.54 283.47 256.597C283.217 257.65 282.688 264.459 282.688 264.459H281.557L281.286 256.767C281.286 256.767 281.286 256.776 281.277 256.797C281.176 257.077 280.373 259.374 280.001 260.697C279.63 262.025 276.297 263.292 275.17 263.257C274.044 263.218 269.055 259.833 267.928 257.867C266.797 255.902 273.24 256.776 273.24 256.776C273.24 256.776 271.458 257.689 272.187 258.523C272.912 259.361 274.625 258.96 275.791 257.431C277.21 255.57 279.574 245.021 283.653 247.713C283.653 247.713 285.593 249.137 285.383 251.063Z" fill="white"></path><path d="M281.285 256.767C281.285 256.767 281.285 256.776 281.277 256.798C281.176 257.077 280.372 259.375 280.001 260.698C279.63 262.026 276.297 263.293 275.17 263.258C275.716 263.192 276.502 261.926 277.546 259.908C279.154 256.798 280.141 255.623 280.656 255.867C281.176 256.112 281.285 256.767 281.285 256.767Z" fill="#564646"></path><path d="M299.035 225.293C299.035 225.293 299.891 231.322 306.042 232.49C312.193 233.659 311.948 226.954 311.948 226.954L299.035 225.293Z" fill="url(#paint20_linear_2332_325)"></path><path d="M323.906 222.526C322.526 223.023 320.599 223.229 318.764 223.031C310.266 222.129 299.181 211.259 299.181 211.259C299.181 211.259 299.735 217.393 299.255 224.973C299.165 226.552 299.016 228.198 298.801 229.859C298.289 234.133 297.743 240.193 297.743 240.193C294.8 241.97 292.262 241.622 290.543 240.929C289.063 240.334 288.187 239.466 288.187 239.466C288.187 239.466 286.666 224.834 285.657 213.393C285.219 208.424 284.872 204.059 284.789 201.745C284.45 192.851 289.617 189.8 295.908 190.139C302.19 190.478 329.082 207.896 329.082 207.896C329.082 207.896 329.139 208.16 329.214 208.615C329.263 208.904 329.322 209.284 329.371 209.723C329.776 213.144 329.858 220.377 323.906 222.526Z" fill="#F4617E"></path><path d="M299.252 224.971C299.252 224.971 299.179 220.574 298.249 215.8C297.33 211.085 296.367 208.917 296.367 208.917L299.178 211.256C299.178 211.256 299.739 217.39 299.252 224.971Z" fill="#89D2EF"></path><path d="M320.122 221.397C317.964 226.274 313.647 229.204 305.149 228.294C296.651 227.393 285.359 217.099 285.359 217.099C285.359 217.099 285.921 223.233 285.433 230.813C285.342 232.392 285.193 234.037 284.987 235.699C284.465 239.973 283.928 246.032 283.928 246.032C278.447 249.339 274.372 245.304 274.372 245.304C274.372 245.304 271.247 215.223 270.966 207.584C270.636 198.689 275.802 195.639 282.093 195.977C288.375 196.316 300.379 201.593 307.91 205.329C312.052 207.379 320.945 212.226 320.945 212.226C320.945 212.226 322.271 216.528 320.122 221.397Z" fill="#F4617E"></path><path d="M285.434 230.813C285.434 230.813 285.36 226.417 284.43 221.643C283.511 216.928 282.549 214.759 282.549 214.759L285.36 217.098C285.36 217.098 285.921 223.233 285.434 230.813Z" fill="#D84568"></path><path d="M334.532 273.569L327.406 216.293L324.477 216.658L331.603 273.939H331.606C331.626 273.969 332.199 274.844 333.44 274.748C334.882 274.636 334.532 273.569 334.532 273.569Z" fill="url(#paint21_linear_2332_325)"></path><path d="M288.479 222.281L268.863 269.312C268.863 269.312 268.39 270.259 269.245 270.675C269.744 270.917 271.117 271.162 271.588 270.448L291.204 223.417L288.479 222.281Z" fill="url(#paint22_linear_2332_325)"></path><path d="M309.503 288.814L302.377 231.532L299.447 231.897L306.573 289.178C306.573 289.178 307.148 290.091 308.411 289.992C309.854 289.881 309.503 288.814 309.503 288.814Z" fill="url(#paint23_linear_2332_325)"></path><path d="M249.729 205.198C290.492 205.198 323.537 185.993 323.537 162.303C323.537 138.613 290.492 119.408 249.729 119.408C208.967 119.408 175.922 138.613 175.922 162.303C175.922 185.993 208.967 205.198 249.729 205.198Z" fill="url(#paint24_linear_2332_325)"></path><path d="M249.729 200.908C290.492 200.908 323.537 181.703 323.537 158.012C323.537 134.322 290.492 115.117 249.729 115.117C208.967 115.117 175.922 134.322 175.922 158.012C175.922 181.703 208.967 200.908 249.729 200.908Z" fill="#8FC3FF"></path><path d="M268.783 134.757L269.413 135.075L287.162 125.43C287.466 125.265 287.846 125.283 288.157 125.477L315.408 142.429V142.323L315.929 142.283L316.451 142.319V143.413L316.442 143.41C316.433 143.571 316.36 143.723 316.203 143.809L297.97 153.717C297.66 153.886 297.272 153.868 296.954 153.669L269.11 136.349C268.902 136.219 268.796 136.008 268.787 135.799L268.783 135.797V134.757Z" fill="url(#paint25_linear_2332_325)"></path><path d="M269.111 135.274L296.954 152.595C297.273 152.793 297.66 152.811 297.97 152.643L316.204 142.735C316.543 142.55 316.532 142.054 316.184 141.837L288.159 124.403C287.847 124.21 287.467 124.191 287.164 124.357L269.086 134.18C268.671 134.403 268.685 135.01 269.111 135.274Z" fill="url(#paint26_linear_2332_325)"></path><path d="M260.98 113.109L262.039 112.517L262.04 112.52C262.177 112.418 262.373 112.392 262.558 112.506L290.355 129.673C290.649 129.855 290.875 130.132 290.991 130.454L298.74 151.89C298.796 152.043 298.744 152.18 298.647 152.264L298.648 152.265L298.645 152.267C298.636 152.275 298.625 152.277 298.616 152.283L297.562 152.866L296.916 152.31L297.409 151.776L270.327 135.051C269.933 134.808 269.629 134.436 269.474 134.003L262.289 114.132C261.995 114.012 261.568 113.835 261.508 113.791C261.417 113.723 260.98 113.109 260.98 113.109Z" fill="url(#paint27_linear_2332_325)"></path><path d="M289.895 131.066L297.645 152.502C297.759 152.817 297.431 153.077 297.144 152.9L269.233 135.663C268.839 135.419 268.535 135.047 268.379 134.615L260.798 113.645C260.648 113.228 261.082 112.883 261.462 113.118L289.259 130.285C289.553 130.467 289.779 130.744 289.895 131.066Z" fill="url(#paint28_linear_2332_325)"></path><path d="M308.283 127.842C306.475 128.558 304.541 129.252 302.629 129.85C295.934 131.939 292.036 133.348 292.036 133.348L290.988 130.455C290.988 130.455 297.986 126.085 301.064 124.099C301.92 123.546 303.028 122.859 304.186 122.166L308.283 127.842Z" fill="#FFD1A4"></path><path d="M313.136 135.282C313.801 135.319 315.535 135.011 315.535 135.011L317.156 138.562C316.366 138.737 315.792 139.804 314.913 140.02C314.034 140.235 313.281 140.289 313.281 140.289C313.281 140.289 313.711 140.702 313.37 141.114C313.029 141.527 311.487 141.76 310.768 141.868C310.051 141.976 309.261 141.312 308.737 140.631C308.213 139.95 307.808 138.082 308.059 137.616C308.31 137.149 309.313 136.145 309.313 136.145C310.594 135.373 311.503 135.227 311.503 135.227C311.503 135.227 312.898 135.269 313.136 135.282Z" fill="#FFD1A4"></path><path d="M305.093 139.093C303.946 139.376 303.542 138.906 303.72 138.676C303.897 138.447 308.875 135.936 309.649 135.624C310.146 135.423 310.699 135.372 311.504 135.226L311.788 135.314C311.788 135.314 310.857 136.243 310.147 137.56L307.813 138.088C307.813 138.088 306.239 138.811 305.093 139.093Z" fill="#FFD1A4"></path><path d="M342.708 124.452C342.708 124.452 345.069 134.633 343.934 136.162C341.71 139.159 316.03 138.541 316.03 138.541L313.738 135.488L335.513 129.701" fill="#FFD1A4"></path><path d="M272.875 195.907L246.918 179.923C246.49 179.66 246.491 179.038 246.919 178.775L285.153 155.288C285.544 155.048 286.035 155.049 286.426 155.288L312.398 171.281C312.82 171.541 312.82 172.155 312.397 172.415L274.155 195.907C273.762 196.148 273.267 196.148 272.875 195.907Z" fill="#D7F0FF"></path><path d="M253.854 179.226L286.384 159.243" stroke="#FCFCFA" stroke-width="0.75" stroke-miterlimit="10" stroke-linecap="round"></path><path d="M257.309 181.347L289.839 161.364" stroke="#FCFCFA" stroke-width="0.75" stroke-miterlimit="10" stroke-linecap="round"></path><path d="M260.762 183.469L293.292 163.486" stroke="#FCFCFA" stroke-width="0.75" stroke-miterlimit="10" stroke-linecap="round"></path><path d="M264.217 185.59L296.748 165.607" stroke="#FCFCFA" stroke-width="0.75" stroke-miterlimit="10" stroke-linecap="round"></path><path d="M267.674 187.711L300.204 167.728" stroke="#FCFCFA" stroke-width="0.75" stroke-miterlimit="10" stroke-linecap="round"></path><path d="M271.129 189.833L303.659 169.849" stroke="#FCFCFA" stroke-width="0.75" stroke-miterlimit="10" stroke-linecap="round"></path><path d="M274.582 191.953L307.113 171.97" stroke="#FCFCFA" stroke-width="0.75" stroke-miterlimit="10" stroke-linecap="round"></path><path d="M305.624 169.312C305.624 169.312 305.485 168.136 304.773 167.548C304.485 167.309 302.793 166.914 302.793 166.914C302.793 166.914 301.772 167.562 301.493 167.593C301.215 167.625 300.778 167.52 300.564 167.285C300.177 166.858 302.664 165.663 302.928 165.524C303.191 165.384 306.083 166.363 306.083 166.363" fill="#F4CCB0"></path><path d="M306.404 170.223C306.404 170.223 306.402 169.039 305.763 168.372C305.504 168.102 303.87 167.512 303.87 167.512C303.87 167.512 302.781 168.038 302.5 168.037C302.22 168.036 301.798 167.881 301.614 167.623C301.279 167.154 303.888 166.256 304.165 166.148C304.443 166.04 307.201 167.348 307.201 167.348" fill="#F4CCB0"></path><path d="M307.387 170.961C307.387 170.961 307.384 169.777 306.746 169.11C306.487 168.84 304.852 168.25 304.852 168.25C304.852 168.25 303.763 168.776 303.482 168.775C303.202 168.774 302.78 168.619 302.596 168.361C302.262 167.892 304.87 166.994 305.148 166.886C305.425 166.778 308.184 168.086 308.184 168.086" fill="#F4CCB0"></path><path d="M308.191 171.258C308.191 171.258 308.189 170.074 307.55 169.407C307.291 169.137 305.657 168.547 305.657 168.547C305.657 168.547 304.568 169.073 304.287 169.072C304.007 169.071 303.585 168.916 303.401 168.658C303.066 168.189 305.675 167.291 305.952 167.183C306.23 167.075 308.017 167.938 308.017 167.938" fill="#F4CCB0"></path><path d="M300.463 168.664L299.082 168.572L300.12 167.669L309.144 164.554C309.144 164.554 309.652 164.376 309.829 164.867C310.004 165.355 309.487 165.549 309.487 165.549L300.463 168.664Z" fill="url(#paint29_linear_2332_325)"></path><path d="M313.82 173.066L311.09 175.865L308.325 173.186C307.945 172.834 307.524 172.541 307.059 172.334C306.637 172.144 305.465 172.162 305.121 171.878C304.458 171.352 303.287 170.612 302.951 170.155C302.564 169.629 302.262 169.087 301.857 168.183C301.789 168.045 301.719 167.89 301.651 167.735C301.564 167.545 301.512 167.347 301.504 167.192C301.495 166.934 301.617 166.744 301.935 166.779C302.012 166.787 302.141 166.804 302.322 166.917C302.468 167.003 302.658 167.166 302.865 167.442C302.865 167.442 302.951 167.58 303.071 167.761C303.209 167.977 303.407 168.261 303.545 168.442C303.795 168.761 304.458 169.079 304.596 169.13C304.716 169.182 305.621 169.311 305.621 169.311L305.208 167.029L306.577 166.555C306.999 166.727 307.464 166.942 307.929 167.201C309.161 167.898 309.505 169.612 309.988 170.035C310.479 170.465 313.82 173.066 313.82 173.066Z" fill="#F4CCB0"></path><path d="M323.526 169.261L314.883 171.111L313.776 171.97C313.776 171.97 312.941 167.656 311.389 164.337C311.075 163.667 308.092 163.352 306.956 163.277C304.543 163.116 302.798 157.815 301.956 154.879C301.079 151.812 301.206 148.572 301.206 148.572C301.696 147.327 309.524 145.712 312.612 146.608C315.703 147.488 318.949 157.616 319.488 159.534C320.019 161.454 321.639 165.901 321.639 165.901L323.526 169.261Z" fill="#F4CCB0"></path><path d="M329.37 209.721C325.204 212.813 318.664 215.086 313.341 215.384C307.811 215.698 303.363 212.623 303.363 212.623L328.419 207.589L329.213 208.614C329.262 208.903 329.32 209.283 329.37 209.721Z" fill="#D84568"></path><path d="M327.699 197.348C327.307 202.882 330.134 208.331 330.134 208.331C330.134 208.331 324.106 213.066 314.621 214.326C307.605 215.263 303.16 212.504 303.16 212.504C303.16 212.504 304.267 206.952 304.727 202.405C304.88 200.907 304.966 199.527 304.915 198.472C304.829 196.684 304.37 193.329 303.944 189.838C303.365 185.087 302.854 180.046 303.467 178.19C304.523 174.954 312.51 169.897 312.51 169.897C312.51 169.897 322.08 170.543 321.858 167.802C321.858 167.802 327.035 167.036 329.419 168.159C331.803 169.266 332.195 175.805 331.462 181.288C330.747 186.772 328.09 191.796 327.699 197.348Z" fill="white"></path><path d="M312.473 184.422C312.473 184.422 310.991 191.557 308.965 197.398C308.965 197.398 308.164 197.448 307.006 197.398L304.725 202.404C304.877 200.906 304.963 199.526 304.912 198.471C304.826 196.683 304.367 193.328 303.941 189.837L304.316 188.577L312.473 184.422Z" fill="#E9EDF2"></path><path d="M307.469 193.122C307.469 193.122 303.786 200.48 302.311 202.727C300.473 205.526 299.517 206.586 296.071 204.083V204.091C296.071 204.091 283.153 192.23 281.946 192.111C280.732 191.993 280.534 192.19 279.21 191.993C277.885 191.803 277.262 191.141 277.262 191.141C277.262 191.141 279.753 187.656 280.14 185.526C281.127 186.157 282.957 187.693 284.171 188.405C285.421 189.139 293.137 193.255 297.207 195.589C297.53 194.84 298.87 190.897 299.154 190.195C299.162 190.218 307.28 193.232 307.469 193.122Z" fill="#F4CCB0"></path><path d="M285.789 189.305C285.789 189.305 283.375 187.98 282.665 187.186C282.665 187.186 279.386 183.636 278.718 183.406C278.05 183.176 278.008 184.784 278.718 185.599C278.718 185.599 276.275 184.848 275.544 184.743C274.813 184.638 269.237 184.743 269.008 184.806C268.778 184.868 268.653 185.536 269.405 185.745C269.405 185.745 268.52 185.738 268.312 185.78C268.103 185.822 267.908 186.74 269.091 187.075L268.529 187.03C268.529 187.03 268.383 187.012 268.331 187.224C268.238 187.6 268.227 188.364 269.411 188.662C270.144 188.845 270.53 188.892 270.53 188.892C270.53 188.892 270.403 189.469 270.877 189.733C271.35 189.998 274.674 190.318 275.454 190.444C276.233 190.569 278.043 191.683 279.129 191.975C280.215 192.267 280.967 191.975 281.69 192.087C282.415 192.198 283.605 193.189 283.605 193.189" fill="#F4CCB0"></path><path d="M303.465 178.189L298.172 191.297C298.172 191.297 302.662 195.953 307.549 195.953C307.549 195.953 312.658 186.344 312.943 181.986" fill="white"></path><path d="M321.82 166.187L322.283 167.74C322.283 167.74 322.283 169.34 320.507 170.05C317.478 171.261 312.971 170.632 311.885 170.304L312.547 168.203C312.547 168.203 318.74 169.109 321.82 166.187Z" fill="white"></path><path d="M318.741 146.672C316.57 141.302 310.347 138.566 302.816 142.603C301.235 143.451 298.035 146.149 299.423 149.033C299.668 149.543 299.964 149.9 300.289 150.164C300.392 151.99 301.411 155.204 307.527 156.002C313.277 159.183 313.298 161.692 316.385 160.117C318.817 158.877 321.901 154.488 318.741 146.672Z" fill="#300E70"></path><path d="M312.943 227.829C312.943 227.829 323.892 223.992 326.762 220.73C329.631 217.469 321.163 217.883 321.163 217.883L314.682 221.643L312.943 227.829Z" fill="#AFE1FF"></path><path d="M341.131 180.566C341.131 180.581 341.124 180.588 341.116 180.603L341.109 180.611C340.275 182.234 339.042 184.951 338.001 188.479C336.407 193.86 335.182 208.011 334.967 210.616C334.96 210.646 334.96 210.675 334.96 210.705C334.96 210.749 334.953 210.801 334.945 210.845C334.938 210.963 334.931 211.03 334.931 211.03C334.901 211.413 334.872 211.783 334.857 212.129C334.488 219.747 335.337 223.423 328.981 227.357C328.959 227.372 328.929 227.394 328.9 227.409L318.396 233.861C313.886 236.629 308.224 237.02 303.5 234.636C301.891 233.824 300.754 232.894 300.26 232.023C300.068 231.683 299.64 229.609 299.389 228.096C301.198 229.026 303.213 229.669 304.642 229.153C309.117 227.538 307.542 213.399 308.133 207.515C308.368 205.157 308.822 203.18 309.349 201.56C310.407 198.304 312.624 195.554 315.519 193.727C321.481 189.967 337.818 179.844 340.798 179.001C340.798 179.001 340.813 178.993 340.842 178.993C341.05 178.964 341.899 178.935 341.131 180.566Z" fill="url(#paint30_linear_2332_325)"></path><path d="M303.817 234.792C292.704 228.903 288.59 223.888 285.957 221.643C285.027 220.85 284.004 220.588 283.288 220.511C282.67 220.445 282.208 219.861 282.314 219.248C282.642 217.347 284.768 216.61 284.768 216.61C295.041 225.599 301.316 227.334 301.316 227.334L303.817 234.792Z" fill="url(#paint31_linear_2332_325)"></path><path d="M257.473 138.797L242.721 161.471C242.473 161.851 241.995 162.007 241.571 161.846L240.459 161.421L229.977 144.628L220.101 134.553C220.101 134.553 218.366 133.792 216.041 132.877L224.168 120.387C224.471 119.93 225.076 119.775 225.556 120.041L256.285 137.011L257.04 136.342C257.04 136.342 257.711 137.495 257.766 137.839C257.806 138.087 257.65 138.524 257.473 138.797Z" fill="url(#paint32_linear_2332_325)"></path><path d="M208.503 143.876L240.029 161.283C240.564 161.578 241.236 161.41 241.569 160.898L256.972 137.223C257.265 136.773 257.113 136.169 256.643 135.909L225.054 118.467C224.574 118.202 223.97 118.353 223.672 118.813L208.187 142.614C207.905 143.046 208.051 143.626 208.503 143.876Z" fill="url(#paint33_linear_2332_325)"></path><path d="M209.991 143.629L239.571 159.962C240.072 160.238 240.703 160.081 241.016 159.601L255.467 137.388C255.742 136.965 255.6 136.398 255.159 136.155L225.521 119.79C225.071 119.541 224.505 119.683 224.224 120.114L209.696 142.445C209.431 142.851 209.568 143.395 209.991 143.629Z" stroke="#F8FBFF" stroke-width="0.1487" stroke-miterlimit="10"></path><path d="M242.605 150.815C242.605 150.815 243.285 150.059 243.428 149.577C243.571 149.094 243.656 148.379 244.246 147.646C244.835 146.913 246.521 144.007 246.86 144.204C247.2 144.401 247.539 145.241 247.271 146.368C247.003 147.494 246.538 148.227 246.521 148.513C246.503 148.799 248.449 148.844 249.632 148.456C250.284 148.241 252.193 146.673 252.679 146.155C253.127 146.149 252.501 149.582 252.233 150.628C252.013 151.485 249.286 154.233 249.286 154.233" fill="#F4CCB0"></path><path d="M209.97 139.142L213.468 135.757C213.934 135.306 214.473 134.941 215.064 134.674C215.599 134.433 216.273 134.093 216.713 133.737C217.544 133.067 218.162 131.548 218.484 130.905C218.806 130.261 220.662 128.495 220.849 128.012C221.037 127.53 220.978 126.624 220.321 126.685C219.787 126.734 217.063 128.96 216.924 129.174L218.253 127.131C218.253 127.131 215.546 127.369 213.964 128.2C212.383 129.031 211.981 131.239 211.364 131.776C210.748 132.312 206.537 135.601 206.537 135.601" fill="#F4CCB0"></path><path d="M196.5 255.524C196.5 255.524 196.73 256.497 196.412 257.485C196.094 258.474 195.542 259.162 194.894 259.88C194.248 260.597 193.188 261.468 192.447 261.903C191.706 262.339 190.558 263.189 190.4 263.338C189.805 263.903 188.942 265.244 188.942 265.244V265.648C188.942 265.648 188.1 266.688 186.907 267.244C186.019 267.658 184.776 267.94 183.154 267.456C181.73 267.031 181.451 265.571 181.404 265.277C181.357 264.983 181.404 263.889 181.404 263.889" fill="#080749"></path><path d="M187.365 257.015C187.365 257.015 190.227 256.101 191.842 254.944C194.068 253.348 195.693 253.755 196.248 254.702C196.813 255.667 197.036 258.853 192.295 261.62C190.431 262.708 189.602 263.621 189.025 264.514C188.582 265.198 187.741 266.047 186.795 266.519C185.994 266.92 185.118 267.008 184.325 266.943C181.078 266.678 180.399 263.393 181.983 260.904C183.566 258.417 187.365 257.015 187.365 257.015Z" fill="white"></path><path d="M222.825 272.585V272.704C222.825 273.218 222.667 273.732 222.334 274.127C220.843 275.872 217.325 276.607 216.597 276.748C216.558 276.759 216.512 276.765 216.467 276.771C214.479 277.082 212.248 277.2 211.283 277.301C210.068 277.431 209.346 277.64 209.346 277.64V277.86C208.967 277.956 207.703 278.255 206.607 278.318H206.596C205.546 278.352 204.275 278.199 203.632 277.657C203.434 277.476 202.956 276.943 202.818 276.274C202.818 276.229 202.818 276.212 202.818 276.212L202.829 275.687V275.444L205.421 275.263C205.433 275.263 205.433 275.263 205.433 275.263L206.714 275.173L207.901 275.1L209.002 275.027L222.825 272.585Z" fill="#080749"></path><path d="M211.573 269.842C211.573 269.842 214.076 270.776 215.886 270.776C217.696 270.776 221.227 270.731 222.132 271.364C222.584 271.681 222.841 272.064 222.839 272.495C222.828 274.92 217.108 276.388 213.668 276.659C210.228 276.931 210.047 276.886 208.418 277.157C206.789 277.428 205.094 277.557 204.068 277.048C202.295 276.171 202.173 273.49 203.259 271.726C204.346 269.961 211.573 269.842 211.573 269.842Z" fill="white"></path><path d="M204.108 267.618C204.108 267.618 203.978 270.324 203.944 270.806C203.908 271.288 203.653 271.722 203.726 272.154C203.843 272.841 205.467 273.53 207.691 273.283C209.914 273.036 211.731 271.8 212.137 271.121C212.543 270.442 211.925 270.233 211.82 269.948C211.654 269.498 211.822 265.473 211.52 266.842" fill="#F1BF9C"></path><path d="M182.444 258.465L182.32 260.91C182.32 260.91 181.992 261.473 182.109 261.966C182.268 262.628 184.147 263.903 186.718 262.549C189.601 261.032 189.282 258.773 189.3 258.65C189.453 257.626 188.877 258.59 188.877 257.778" fill="#F1BF9C"></path><path d="M221.075 216.645C220.156 224.822 217.234 238.667 216.232 245.631C215.207 252.748 213.261 268.606 213.261 268.606C213.261 268.606 212.224 270.244 208.466 270.75C204.766 271.245 203.199 269.006 203.199 269.006C203.199 269.006 201.965 246.722 202.224 242.669C202.483 238.604 203.672 231.138 203.496 227.155C203.378 224.292 203.413 217.481 201.999 211.473C201.799 212.109 201.587 212.686 201.375 213.181C199.231 218.024 195.177 228.429 194.046 232.375C192.961 236.217 190.168 258.826 190.168 258.826C190.002 259.168 189.614 259.581 189.025 259.993C188.306 260.488 187.292 260.982 186.103 261.312C182.733 262.255 181.554 260.323 181.554 260.323C181.153 257.966 181.462 231.998 182.593 227.592C183.712 223.185 185.091 216.268 185.35 212.038C185.609 207.797 186.128 198.37 185.609 192.844C185.409 190.758 185.644 188.885 186.021 187.376C186.622 184.867 187.6 183.323 187.6 183.323C187.6 183.323 219.992 185.091 221.075 190.016C221.382 191.419 221.605 193.033 221.747 194.776C222.324 201.48 221.806 210.153 221.075 216.645Z" fill="#F4617E"></path><path d="M210.511 125.014C209.711 125.532 208.909 125.791 208.237 125.98C208.237 125.98 208.19 125.992 208.096 126.015C208.037 126.027 207.978 126.051 207.919 126.074C207.766 126.122 207.554 126.193 207.306 126.298C207.071 126.416 206.906 126.545 206.835 126.734C206.54 127.5 206.835 132.048 206.835 132.048L205.398 131.552L196.667 128.548C196.667 128.548 196.785 126.203 196.667 124.047C196.549 121.891 196.372 110.378 199.236 108.399C202.099 106.407 210.335 107.633 211.266 108.74C211.266 108.74 211.537 110.496 212.103 113.772C212.668 117.037 212.149 123.942 210.511 125.014Z" fill="#F1BF9C"></path><path d="M205.904 127.123C206.328 126.746 206.858 126.475 207.306 126.298C207.071 126.416 206.905 126.545 206.835 126.734C206.54 127.5 206.835 132.048 206.835 132.048L205.397 131.552C205.291 130.104 205.174 127.76 205.904 127.123Z" fill="#F4CCB0"></path><path d="M205.399 103.754C205.399 103.754 201.511 103.602 198.946 104.49C193.708 106.302 192.505 110.972 192.736 114.237C192.97 117.547 194.799 119.883 195.267 120.973C195.734 122.063 195.773 124.011 196.124 124.634C196.474 125.257 202.369 126.232 202.992 125.842C203.615 125.453 205.158 123.27 205.274 122.336C205.391 121.401 205.235 119.104 205.469 118.286C205.703 117.469 206.754 116.417 207.338 116.534C207.922 116.651 208.273 117.663 208.507 118.675C208.74 119.688 209.246 119.688 209.48 119.454C209.714 119.221 209.597 116.69 209.753 115.911C209.909 115.132 210.22 114.937 210.143 112.64C210.064 110.343 210.756 110.96 211.846 109.636C217.801 104.173 205.399 103.754 205.399 103.754Z" fill="#39250D"></path><path d="M216.367 161.14V161.149C216.513 161.475 216.668 161.776 216.822 162.067C217.543 163.44 219.397 166.521 219.559 166.804C219.576 166.813 219.576 166.813 219.576 166.813C219.576 166.813 220.125 167.508 220.837 168.306C223.515 170.778 227.145 170.16 228.818 168.315V168.324C228.818 168.324 242.874 155.417 244.187 155.289C245.509 155.161 245.723 155.375 247.165 155.161C248.607 154.955 249.284 154.234 249.284 154.234C249.284 154.234 246.574 150.442 246.152 148.125C245.08 148.811 243.087 150.481 241.767 151.256C240.406 152.055 232.01 156.534 227.583 159.074C227.231 158.259 226.887 157.461 226.579 156.697C226.57 156.723 224.948 159.864 221.567 161.126C218.384 162.316 216.573 161.261 216.367 161.14Z" fill="#F4CCB0"></path><path d="M226.874 157.402C226.085 158.232 224.589 159.644 222.734 160.599C225.31 159.146 226.569 156.723 226.583 156.696C226.68 156.931 226.776 157.166 226.874 157.402Z" fill="#F4CCB0"></path><path d="M202 211.468C201.797 212.112 201.582 212.688 201.367 213.184C199.232 218.024 195.172 228.426 194.048 232.373C192.953 236.219 190.163 258.83 190.163 258.83C190.005 259.163 189.609 259.581 189.021 259.993C189.484 254.561 191.286 236.959 191.976 233.983C192.822 230.312 193.178 228.901 194.262 226.433C195.341 223.96 200.519 211.96 197.554 206.104C195.618 202.269 194.804 198.729 194.482 196.741C195.539 201.57 200.095 205.511 200.095 205.511L202 211.468Z" fill="#D84C6D"></path><path d="M227.51 156.695C227.496 156.709 227.274 156.972 226.873 157.401C226.084 158.231 224.588 159.643 222.733 160.598C222.553 160.709 222.374 160.793 222.193 160.875C221.986 160.958 221.779 161.041 221.57 161.124C221.294 161.235 221.017 161.318 220.754 161.387C218.926 161.899 217.64 161.65 216.947 161.401C216.85 161.374 216.767 161.331 216.698 161.304C216.615 161.263 216.559 161.235 216.504 161.207C216.477 161.193 216.448 161.179 216.434 161.179C216.42 161.165 216.406 161.165 216.393 161.151L216.365 161.137V161.151C216.517 161.469 216.67 161.774 216.822 162.065C217.542 163.435 219.397 166.523 219.563 166.799C219.577 166.813 219.577 166.813 219.577 166.813V166.827C219.577 166.827 219.217 171.59 220.712 178.58C221.528 182.484 221.861 187.121 221.985 190.319V190.332C222.221 194.138 222.346 200.354 221.958 198.623C221.779 197.82 220.089 192.519 219.854 192.519C219.563 192.63 218.995 195.135 218.995 195.135C218.206 197.89 216.213 201.212 211.132 201.434C202.411 201.821 185.343 194.041 185.08 191.813C185.052 191.591 185.052 191.328 185.052 191.024C185.052 188.435 185.952 183.604 185.952 183.604C186.325 180.752 187.114 175.685 188.512 170.937C190.187 165.289 190.049 161.039 186.325 154.574C181.716 146.573 179.653 135.484 184.498 130.764C185.993 129.297 188.845 126.971 193.621 128.784L194.756 127.552C194.756 127.552 203.09 129.407 209.291 133.325V134.543C209.43 134.613 209.582 134.681 209.72 134.751C215.244 137.339 219.659 140.191 221.833 144.164C223.218 146.742 225.669 151.407 227.51 156.695Z" fill="white"></path><path d="M209.288 133.965V134.554C209.288 134.554 202.737 131.738 199.154 130.572C199.944 130.785 205.918 132.375 209.288 133.965Z" fill="#E9EDF2"></path><path d="M220.104 175.245C219.851 173.939 218.789 170.962 217.094 167.128C214.889 162.14 212.68 157.996 210.898 152.944L214.963 160.229L216.367 161.153C216.367 161.153 216.381 161.167 216.395 161.194C216.533 161.499 216.671 161.789 216.824 162.067C217.543 163.437 219.398 166.525 219.564 166.801L219.578 166.815C219.578 166.815 219.578 166.815 219.578 166.829C219.578 166.829 219.329 170.123 220.104 175.245Z" fill="#E9EDF2"></path><path d="M306.76 154.776C306.76 154.776 313.907 159.271 308.637 172.631C306.954 176.898 317.62 173.901 320.121 175.922C322.622 177.943 327.588 172.824 327.998 170.023C328.541 166.307 325.202 166.905 323.997 158.429C322.082 144.958 313.822 141.495 313.822 141.495" fill="#300E70"></path><path d="M341.646 216.857L344.696 235.836L344.728 235.835C345.052 238.192 348.516 240.047 352.75 240.047C357.199 240.047 360.805 238 360.805 235.476L363.854 216.857H341.646Z" fill="url(#paint34_linear_2332_325)"></path><path opacity="0.28" d="M342.362 216.861C342.367 217.128 342.408 217.399 342.495 217.67L341.65 216.861H342.362Z" fill="url(#paint35_linear_2332_325)"></path><path d="M352.752 223.159C358.885 223.159 363.856 220.337 363.856 216.857C363.856 213.376 358.885 210.554 352.752 210.554C346.62 210.554 341.648 213.376 341.648 216.857C341.648 220.337 346.62 223.159 352.752 223.159Z" fill="#D0DCFE"></path><path d="M352.752 221.719C358.089 221.719 362.416 219.542 362.416 216.857C362.416 214.171 358.089 211.995 352.752 211.995C347.415 211.995 343.088 214.171 343.088 216.857C343.088 219.542 347.415 221.719 352.752 221.719Z" fill="#272C91"></path><path d="M352.751 222.503C346.654 222.503 342.406 219.517 342.406 216.837C342.406 214.157 346.654 211.171 352.751 211.171C358.847 211.171 363.095 214.157 363.095 216.837C363.095 219.517 358.847 222.503 352.751 222.503Z" fill="url(#paint36_linear_2332_325)"></path><path d="M363.097 216.838C363.097 217.561 362.787 218.304 362.215 219.001C360.673 220.905 357.203 222.504 352.748 222.504C347.254 222.504 343.257 220.074 342.527 217.63C342.444 217.364 342.406 217.097 342.406 216.838C342.406 214.16 346.657 211.172 352.748 211.172C358.846 211.172 363.097 214.16 363.097 216.838Z" fill="url(#paint37_linear_2332_325)"></path><path d="M362.583 218.487C362.476 218.665 362.355 218.83 362.215 219.001C360.673 220.905 357.203 222.504 352.748 222.504C347.901 222.504 344.221 220.613 342.92 218.487C344.227 216.368 347.907 214.478 352.748 214.478C357.597 214.477 361.276 216.368 362.583 218.487Z" fill="url(#paint38_linear_2332_325)"></path><path d="M359.487 209.702C360.293 206.616 361.632 204.124 361.937 200.153C361.937 200.153 359.469 202.532 356.474 205.577C355.032 194.887 348.068 188.991 348.068 188.991C349.775 194.682 349.668 201.291 348.944 205.577C345.949 202.532 340.858 203.26 340.858 203.26C344.33 206.163 345.158 208.253 346.123 211.596C339.921 210.544 337.266 215.49 337.266 215.49C342.99 212.221 347.767 218.699 347.767 218.699C348.119 219.88 350.052 221.055 352.708 221.055C354.862 221.055 356.54 220.283 357.286 219.362C357.461 219.147 357.653 218.699 357.653 218.699C360.427 213.129 367.44 208.74 367.44 208.74C364.078 207.814 360.93 208.282 359.487 209.702Z" fill="#73BDFF"></path><path opacity="0.83" d="M359.487 209.702C360.293 206.616 361.632 204.124 361.937 200.153C361.937 200.153 359.469 202.532 356.474 205.577C355.032 194.887 348.068 188.991 348.068 188.991C349.775 194.682 349.668 201.291 348.944 205.577C345.949 202.532 340.858 203.26 340.858 203.26C344.33 206.163 345.158 208.253 346.123 211.596C339.921 210.544 337.266 215.49 337.266 215.49C342.99 212.221 347.767 218.699 347.767 218.699C348.119 219.88 350.052 221.055 352.708 221.055C354.862 221.055 356.54 220.283 357.286 219.362C357.461 219.147 357.653 218.699 357.653 218.699C360.427 213.129 367.44 208.74 367.44 208.74C364.078 207.814 360.93 208.282 359.487 209.702Z" fill="url(#paint39_linear_2332_325)"></path><defs><linearGradient id="paint0_linear_2332_325" x1="127" y1="82.2698" x2="230.056" y2="82.2698" gradientUnits="userSpaceOnUse"><stop stop-color="#0060D2"></stop><stop offset="1" stop-color="#0022FF"></stop></linearGradient><linearGradient id="paint1_linear_2332_325" x1="165.863" y1="63.2417" x2="179.151" y2="63.2417" gradientUnits="userSpaceOnUse"><stop stop-color="#0060D2"></stop><stop offset="1" stop-color="#0022FF"></stop></linearGradient><linearGradient id="paint2_linear_2332_325" x1="172.252" y1="111.131" x2="176.74" y2="111.131" gradientUnits="userSpaceOnUse"><stop stop-color="#0060D2"></stop><stop offset="1" stop-color="#0022FF"></stop></linearGradient><linearGradient id="paint3_linear_2332_325" x1="162.887" y1="112.205" x2="167.375" y2="112.205" gradientUnits="userSpaceOnUse"><stop stop-color="#0060D2"></stop><stop offset="1" stop-color="#0022FF"></stop></linearGradient><linearGradient id="paint4_linear_2332_325" x1="158.139" y1="116.83" x2="162.627" y2="116.83" gradientUnits="userSpaceOnUse"><stop stop-color="#0060D2"></stop><stop offset="1" stop-color="#0022FF"></stop></linearGradient><linearGradient id="paint5_linear_2332_325" x1="167.62" y1="115.814" x2="172.107" y2="115.814" gradientUnits="userSpaceOnUse"><stop stop-color="#0060D2"></stop><stop offset="1" stop-color="#0022FF"></stop></linearGradient><linearGradient id="paint6_linear_2332_325" x1="219.249" y1="51.5135" x2="185.205" y2="51.5135" gradientUnits="userSpaceOnUse"><stop stop-color="#00CBFF"></stop><stop offset="0.2672" stop-color="#00AEF3"></stop><stop offset="1" stop-color="#0060D2"></stop></linearGradient><linearGradient id="paint7_linear_2332_325" x1="189.707" y1="60.4303" x2="192.303" y2="57.7545" gradientUnits="userSpaceOnUse"><stop stop-color="#0060D2" stop-opacity="0"></stop><stop offset="1" stop-color="#0060D2"></stop></linearGradient><linearGradient id="paint8_linear_2332_325" x1="196.001" y1="52.4528" x2="198.07" y2="50.3204" gradientUnits="userSpaceOnUse"><stop stop-color="#0060D2" stop-opacity="0"></stop><stop offset="1" stop-color="#0060D2"></stop></linearGradient><linearGradient id="paint9_linear_2332_325" x1="372.448" y1="82.2698" x2="269.392" y2="82.2698" gradientUnits="userSpaceOnUse"><stop stop-color="#0060D2"></stop><stop offset="1" stop-color="#0022FF"></stop></linearGradient><linearGradient id="paint10_linear_2332_325" x1="286.619" y1="76.9819" x2="277.263" y2="76.9819" gradientUnits="userSpaceOnUse"><stop stop-color="#0060D2"></stop><stop offset="1" stop-color="#0022FF"></stop></linearGradient><linearGradient id="paint11_linear_2332_325" x1="306.142" y1="79.2212" x2="296.787" y2="79.2212" gradientUnits="userSpaceOnUse"><stop stop-color="#0060D2"></stop><stop offset="1" stop-color="#0022FF"></stop></linearGradient><linearGradient id="paint12_linear_2332_325" x1="316.041" y1="88.863" x2="306.686" y2="88.863" gradientUnits="userSpaceOnUse"><stop stop-color="#0060D2"></stop><stop offset="1" stop-color="#0022FF"></stop></linearGradient><linearGradient id="paint13_linear_2332_325" x1="296.277" y1="86.7432" x2="286.922" y2="86.7432" gradientUnits="userSpaceOnUse"><stop stop-color="#0060D2"></stop><stop offset="1" stop-color="#0022FF"></stop></linearGradient><linearGradient id="paint14_linear_2332_325" x1="246.645" y1="241.636" x2="253.938" y2="241.636" gradientUnits="userSpaceOnUse"><stop stop-color="#0060D2"></stop><stop offset="1" stop-color="#0022FF"></stop></linearGradient><linearGradient id="paint15_linear_2332_325" x1="183.115" y1="209.767" x2="190.408" y2="209.767" gradientUnits="userSpaceOnUse"><stop stop-color="#0060D2"></stop><stop offset="1" stop-color="#0022FF"></stop></linearGradient><linearGradient id="paint16_linear_2332_325" x1="312.248" y1="209.767" x2="319.541" y2="209.767" gradientUnits="userSpaceOnUse"><stop stop-color="#0060D2"></stop><stop offset="1" stop-color="#0022FF"></stop></linearGradient><linearGradient id="paint17_linear_2332_325" x1="333.767" y1="154.508" x2="341.596" y2="208.57" gradientUnits="userSpaceOnUse"><stop stop-color="#0060D2"></stop><stop offset="1" stop-color="#0022FF"></stop></linearGradient><linearGradient id="paint18_linear_2332_325" x1="317.042" y1="106.777" x2="337.927" y2="161.371" gradientUnits="userSpaceOnUse"><stop stop-color="#00CBFF"></stop><stop offset="0.2672" stop-color="#00AEF3"></stop><stop offset="1" stop-color="#0060D2"></stop></linearGradient><linearGradient id="paint19_linear_2332_325" x1="294.224" y1="254.899" x2="306.311" y2="228.326" gradientUnits="userSpaceOnUse"><stop stop-color="#0060D2"></stop><stop offset="1" stop-color="#0022FF"></stop></linearGradient><linearGradient id="paint20_linear_2332_325" x1="299.588" y1="236.113" x2="336.311" y2="181.305" gradientUnits="userSpaceOnUse"><stop stop-color="#00CBFF"></stop><stop offset="0.2672" stop-color="#00AEF3"></stop><stop offset="1" stop-color="#0060D2"></stop></linearGradient><linearGradient id="paint21_linear_2332_325" x1="327.113" y1="225.623" x2="332.741" y2="271.388" gradientUnits="userSpaceOnUse"><stop stop-color="#0060D2"></stop><stop offset="1" stop-color="#0022FF"></stop></linearGradient><linearGradient id="paint22_linear_2332_325" x1="269.562" y1="271.077" x2="290.322" y2="222.082" gradientUnits="userSpaceOnUse"><stop stop-color="#0060D2"></stop><stop offset="1" stop-color="#0022FF"></stop></linearGradient><linearGradient id="paint23_linear_2332_325" x1="300.136" y1="230.392" x2="307.886" y2="283.908" gradientUnits="userSpaceOnUse"><stop stop-color="#0060D2"></stop><stop offset="1" stop-color="#0022FF"></stop></linearGradient><linearGradient id="paint24_linear_2332_325" x1="175.922" y1="162.303" x2="323.537" y2="162.303" gradientUnits="userSpaceOnUse"><stop stop-color="#0060D2"></stop><stop offset="1" stop-color="#0022FF"></stop></linearGradient><linearGradient id="paint25_linear_2332_325" x1="305.49" y1="147.242" x2="274.745" y2="129.644" gradientUnits="userSpaceOnUse"><stop stop-color="#00CBFF"></stop><stop offset="0.2672" stop-color="#00AEF3"></stop><stop offset="1" stop-color="#0060D2"></stop></linearGradient><linearGradient id="paint26_linear_2332_325" x1="315.842" y1="153.936" x2="286.609" y2="135.845" gradientUnits="userSpaceOnUse"><stop stop-color="#00CBFF"></stop><stop offset="0.2672" stop-color="#00AEF3"></stop><stop offset="1" stop-color="#0060D2"></stop></linearGradient><linearGradient id="paint27_linear_2332_325" x1="298.763" y1="133.964" x2="260.98" y2="133.964" gradientUnits="userSpaceOnUse"><stop stop-color="#00CBFF"></stop><stop offset="0.2672" stop-color="#00AEF3"></stop><stop offset="1" stop-color="#0060D2"></stop></linearGradient><linearGradient id="paint28_linear_2332_325" x1="297.668" y1="134.286" x2="260.767" y2="134.286" gradientUnits="userSpaceOnUse"><stop stop-color="#00EAFF"></stop><stop offset="0.5398" stop-color="#0089E6"></stop><stop offset="1" stop-color="#003BD2"></stop></linearGradient><linearGradient id="paint29_linear_2332_325" x1="299.082" y1="166.594" x2="309.865" y2="166.594" gradientUnits="userSpaceOnUse"><stop stop-color="#00CBFF"></stop><stop offset="0.2672" stop-color="#00AEF3"></stop><stop offset="1" stop-color="#0060D2"></stop></linearGradient><linearGradient id="paint30_linear_2332_325" x1="303.417" y1="238.678" x2="340.14" y2="183.87" gradientUnits="userSpaceOnUse"><stop stop-color="#00CBFF"></stop><stop offset="0.2672" stop-color="#00AEF3"></stop><stop offset="1" stop-color="#0060D2"></stop></linearGradient><linearGradient id="paint31_linear_2332_325" x1="290.78" y1="230.211" x2="327.503" y2="175.404" gradientUnits="userSpaceOnUse"><stop stop-color="#00CBFF"></stop><stop offset="0.2672" stop-color="#00AEF3"></stop><stop offset="1" stop-color="#0060D2"></stop></linearGradient><linearGradient id="paint32_linear_2332_325" x1="252.997" y1="142.346" x2="216.475" y2="139.658" gradientUnits="userSpaceOnUse"><stop stop-color="#00EAFF"></stop><stop offset="0.5398" stop-color="#0089E6"></stop><stop offset="1" stop-color="#003BD2"></stop></linearGradient><linearGradient id="paint33_linear_2332_325" x1="208.043" y1="139.882" x2="257.121" y2="139.882" gradientUnits="userSpaceOnUse"><stop stop-color="#00EAFF"></stop><stop offset="0.5398" stop-color="#0089E6"></stop><stop offset="1" stop-color="#003BD2"></stop></linearGradient><linearGradient id="paint34_linear_2332_325" x1="341.646" y1="228.452" x2="363.855" y2="228.452" gradientUnits="userSpaceOnUse"><stop stop-color="#0060D2"></stop><stop offset="1" stop-color="#0022FF"></stop></linearGradient><linearGradient id="paint35_linear_2332_325" x1="341.65" y1="217.266" x2="342.495" y2="217.266" gradientUnits="userSpaceOnUse"><stop stop-color="#9493E3"></stop><stop offset="0.0562" stop-color="#8887D9"></stop><stop offset="0.2356" stop-color="#6665BF"></stop><stop offset="0.4188" stop-color="#4B4AAA"></stop><stop offset="0.605" stop-color="#38379C"></stop><stop offset="0.7963" stop-color="#2D2C93"></stop><stop offset="1" stop-color="#292890"></stop></linearGradient><linearGradient id="paint36_linear_2332_325" x1="362.287" y1="216.837" x2="342.974" y2="216.837" gradientUnits="userSpaceOnUse"><stop stop-color="#9493E3"></stop><stop offset="0.0562" stop-color="#8887D9"></stop><stop offset="0.2356" stop-color="#6665BF"></stop><stop offset="0.4188" stop-color="#4B4AAA"></stop><stop offset="0.605" stop-color="#38379C"></stop><stop offset="0.7963" stop-color="#2D2C93"></stop><stop offset="1" stop-color="#292890"></stop></linearGradient><linearGradient id="paint37_linear_2332_325" x1="362.289" y1="216.838" x2="342.974" y2="216.838" gradientUnits="userSpaceOnUse"><stop stop-color="#00CBFF"></stop><stop offset="0.2672" stop-color="#00AEF3"></stop><stop offset="1" stop-color="#0060D2"></stop></linearGradient><linearGradient id="paint38_linear_2332_325" x1="342.921" y1="218.49" x2="362.583" y2="218.49" gradientUnits="userSpaceOnUse"><stop stop-color="#00CBFF"></stop><stop offset="0.2672" stop-color="#00AEF3"></stop><stop offset="1" stop-color="#0060D2"></stop></linearGradient><linearGradient id="paint39_linear_2332_325" x1="337.009" y1="205.023" x2="363.842" y2="205.023" gradientUnits="userSpaceOnUse"><stop stop-color="#2480C2"></stop><stop offset="1" stop-color="#2480C2" stop-opacity="0"></stop></linearGradient></defs></svg>