<svg xmlns="http://www.w3.org/2000/svg" width="500" height="300" viewBox="0 0 500 300" fill="none"><rect width="500" height="300" rx="24" fill="white"></rect><path d="M228.685 19.5969C125.981 19.5969 42.7188 99.8775 42.7188 198.906C42.7188 228.033 49.923 255.541 62.7062 279.857H394.664C407.447 255.541 414.651 228.033 414.651 198.906C414.652 99.8775 331.391 19.5969 228.685 19.5969Z" fill="url(#paint0_linear_2332_328)"></path><path d="M103.621 47.468C111.33 47.468 117.579 41.4423 117.579 34.0092C117.579 26.576 111.33 20.5503 103.621 20.5503C95.9116 20.5503 89.6621 26.576 89.6621 34.0092C89.6621 41.4423 95.9116 47.468 103.621 47.468Z" fill="url(#paint1_linear_2332_328)"></path><path d="M436.737 241.159C441.256 241.159 444.92 237.627 444.92 233.27C444.92 228.913 441.256 225.38 436.737 225.38C432.218 225.38 428.555 228.913 428.555 233.27C428.555 237.627 432.218 241.159 436.737 241.159Z" fill="url(#paint2_linear_2332_328)"></path><path d="M377.566 57.5764C377.566 59.624 375.845 61.2835 373.722 61.2835C371.599 61.2835 369.877 59.624 369.877 57.5764C369.877 55.5296 371.598 53.8694 373.722 53.8694C375.845 53.8694 377.566 55.5289 377.566 57.5764Z" fill="url(#paint3_linear_2332_328)"></path><path d="M414.693 151.276C419.923 146.233 419.923 138.057 414.693 133.015C409.463 127.972 400.983 127.972 395.753 133.015C390.523 138.057 390.523 146.233 395.753 151.276C400.983 156.319 409.463 156.319 414.693 151.276Z" fill="white"></path><path d="M66.8326 262.211C66.8326 268.018 61.9506 272.725 55.929 272.725C49.9067 272.725 45.0254 268.018 45.0254 262.211C45.0254 256.405 49.9067 251.698 55.929 251.698C61.9513 251.698 66.8326 256.405 66.8326 262.211Z" fill="white"></path><path d="M75.6415 126.058C85.1148 121.668 89.1033 110.704 84.55 101.57C79.9968 92.4357 68.6261 88.59 59.1529 92.9803C49.6796 97.3705 45.6911 108.334 50.2443 117.468C54.7976 126.602 66.1683 130.448 75.6415 126.058Z" fill="white"></path><path d="M63.9082 136.337H134.771" stroke="white" stroke-miterlimit="10" stroke-linecap="round"></path><path d="M385.4 208.916H456.263" stroke="white" stroke-miterlimit="10" stroke-linecap="round"></path><path d="M266.584 44.238H337.447" stroke="white" stroke-miterlimit="10" stroke-linecap="round"></path><path d="M72.8254 234.771H70.1174V232.16C70.1174 231.779 69.7967 231.469 69.4015 231.469C69.0063 231.469 68.6856 231.779 68.6856 232.16V234.771H65.9776C65.5824 234.771 65.2617 235.08 65.2617 235.461C65.2617 235.842 65.5824 236.151 65.9776 236.151H68.6856V238.762C68.6856 239.143 69.0063 239.453 69.4015 239.453C69.7967 239.453 70.1174 239.143 70.1174 238.762V236.151H72.8254C73.2206 236.151 73.5413 235.842 73.5413 235.461C73.5413 235.079 73.2206 234.771 72.8254 234.771Z" fill="white"></path><path d="M390.618 126.498H386.496V122.523C386.496 121.943 386.008 121.472 385.406 121.472C384.804 121.472 384.316 121.943 384.316 122.523V126.498H380.193C379.591 126.498 379.104 126.968 379.104 127.549C379.104 128.129 379.591 128.6 380.193 128.6H384.316V132.574C384.316 133.155 384.804 133.625 385.406 133.625C386.008 133.625 386.496 133.155 386.496 132.574V128.6H390.618C391.22 128.6 391.708 128.129 391.708 127.549C391.707 126.968 391.219 126.498 390.618 126.498Z" fill="white"></path><path d="M102.526 102.528H100.01V100.102C100.01 99.7476 99.7121 99.4609 99.3454 99.4609C98.978 99.4609 98.6806 99.7483 98.6806 100.102V102.528H96.1648C95.7973 102.528 95.5 102.815 95.5 103.169C95.5 103.523 95.7981 103.81 96.1648 103.81H98.6806V106.235C98.6806 106.59 98.9787 106.876 99.3454 106.876C99.7129 106.876 100.01 106.589 100.01 106.235V103.81H102.526C102.893 103.81 103.191 103.522 103.191 103.169C103.191 102.815 102.893 102.528 102.526 102.528Z" fill="white"></path><path d="M418.079 261.521H415.371V258.91C415.371 258.529 415.051 258.22 414.655 258.22C414.26 258.22 413.94 258.529 413.94 258.91V261.521H411.232C410.836 261.521 410.516 261.83 410.516 262.211C410.516 262.592 410.836 262.902 411.232 262.902H413.94V265.513C413.94 265.894 414.26 266.203 414.655 266.203C415.051 266.203 415.371 265.894 415.371 265.513V262.902H418.079C418.475 262.902 418.795 262.592 418.795 262.211C418.795 261.83 418.475 261.521 418.079 261.521Z" fill="url(#paint4_linear_2332_328)"></path><path d="M400.048 181.94L395.282 173.981L390.516 181.94H393.749V195.264H396.815V181.94H400.048Z" fill="white"></path><path d="M83.2543 253.345L78.4885 245.386L73.7227 253.345H76.9552V266.67H80.0218V253.345H83.2543Z" fill="white"></path><path d="M211.048 41.5557L206.281 33.5964L201.516 41.5557H204.749V54.88H207.815V41.5557H211.048Z" fill="white"></path><path d="M99.4033 160.333L96.3316 155.203L93.2598 160.333H95.3439V168.92H97.3199V160.333H99.4033Z" fill="white"></path><path d="M69.3988 160.546C60.0088 160.546 52.3691 167.912 52.3691 176.965C52.3691 186.019 60.0088 193.384 69.3988 193.384C78.7887 193.384 86.4277 186.018 86.4277 176.965C86.4277 167.912 78.7887 160.546 69.3988 160.546ZM53.8287 180.766H58.5288C58.8685 182.86 59.4814 184.8 60.3098 186.5H56.7573C55.3978 184.828 54.3853 182.884 53.8287 180.766ZM84.9689 173.165H80.2688C79.9291 171.07 79.3169 169.13 78.4885 167.431H82.041C83.3997 169.101 84.4129 171.046 84.9689 173.165ZM79.295 173.165H74.2808C74.1391 171.142 73.8841 169.181 73.521 167.431H77.4337C78.2971 169.101 78.9407 171.046 79.295 173.165ZM79.6069 176.965C79.6069 177.945 79.5441 178.903 79.4287 179.832H74.3378C74.3882 178.879 74.4137 177.919 74.4137 176.965C74.4137 176.011 74.3882 175.05 74.3378 174.097H79.4287C79.5434 175.028 79.6069 175.985 79.6069 176.965ZM65.4255 179.832C65.3781 178.912 65.3518 177.956 65.3518 176.965C65.3518 175.975 65.3781 175.019 65.4255 174.097H73.372C73.4195 175.018 73.4458 175.974 73.4458 176.965C73.4458 177.955 73.4195 178.911 73.372 179.832H65.4255ZM73.3158 180.766C73.166 182.923 72.895 184.857 72.5422 186.5H66.2554C65.9026 184.857 65.6315 182.923 65.4818 180.766H73.3158ZM59.1914 176.965C59.1914 175.985 59.2542 175.027 59.3696 174.097H64.4605C64.4109 175.05 64.3846 176.011 64.3846 176.965C64.3846 177.919 64.4101 178.879 64.4605 179.832H59.3696C59.2542 178.903 59.1914 177.945 59.1914 176.965ZM65.4818 173.165C65.6315 171.007 65.9026 169.073 66.2554 167.431H72.5422C72.895 169.073 73.166 171.007 73.3158 173.165H65.4818ZM73.3128 166.497C72.8293 164.491 72.1893 162.832 71.4018 161.78C73.562 162.434 75.4781 164.126 76.9143 166.497H73.3128ZM72.3245 166.497H66.4731C67.2642 163.343 68.3636 161.479 69.3988 161.479C70.4339 161.479 71.5333 163.343 72.3245 166.497ZM65.4854 166.497H61.884C63.3202 164.126 65.2363 162.434 67.3965 161.78C66.609 162.832 65.969 164.491 65.4854 166.497ZM65.2765 167.431C64.9135 169.181 64.6585 171.142 64.5168 173.165H59.5026C59.8561 171.046 60.5004 169.102 61.3639 167.431H65.2765ZM58.5288 173.165H53.8287C54.3853 171.046 55.3978 169.102 56.7573 167.431H60.3098C59.4806 169.13 58.8685 171.07 58.5288 173.165ZM58.3973 174.098C58.2848 175.03 58.2234 175.987 58.2234 176.966C58.2234 177.944 58.2855 178.901 58.3973 179.833H53.6176C53.4364 178.903 53.3371 177.945 53.3371 176.966C53.3371 175.986 53.4364 175.028 53.6176 174.098H58.3973ZM59.5033 180.766H64.5175C64.6592 182.789 64.9142 184.749 65.2772 186.5H61.3646C60.5004 184.828 59.8569 182.884 59.5033 180.766ZM65.4854 187.433C65.969 189.44 66.609 191.099 67.3972 192.151C65.2371 191.497 63.3209 189.805 61.8848 187.433H65.4854ZM66.4731 187.433H72.3245C71.5333 190.587 70.4346 192.452 69.3988 192.452C68.3629 192.452 67.2642 190.587 66.4731 187.433ZM73.3128 187.433H76.9143C75.4781 189.805 73.562 191.497 71.4018 192.151C72.1893 191.099 72.8293 189.44 73.3128 187.433ZM73.521 186.5C73.8841 184.749 74.1391 182.789 74.2808 180.766H79.295C78.9414 182.884 78.2978 184.828 77.4337 186.5H73.521ZM80.2688 180.766H84.9689C84.4122 182.884 83.3997 184.828 82.041 186.5H78.4885C79.3169 184.8 79.9298 182.86 80.2688 180.766ZM80.4002 179.832C80.5127 178.901 80.5741 177.943 80.5741 176.965C80.5741 175.987 80.512 175.029 80.4002 174.097H85.18C85.3611 175.027 85.4605 175.985 85.4605 176.965C85.4605 177.945 85.3611 178.903 85.18 179.832H80.4002ZM81.2228 166.497H78.002C76.9968 164.717 75.7403 163.254 74.3144 162.223C76.991 163.055 79.3629 164.545 81.2228 166.497ZM64.4839 162.223C63.058 163.254 61.8015 164.717 60.7956 166.497H57.5748C59.4354 164.545 61.8073 163.055 64.4839 162.223ZM57.5748 187.433H60.7956C61.8007 189.214 63.0572 190.677 64.4839 191.707C61.8073 190.875 59.4354 189.385 57.5748 187.433ZM74.3144 191.707C75.7403 190.677 76.9968 189.214 78.002 187.433H81.2228C79.3629 189.385 76.991 190.875 74.3144 191.707Z" fill="white"></path><path d="M314.08 81.9219V74.8565C314.08 74.1655 313.499 73.6049 312.781 73.6049H310.895C310.343 73.6049 309.854 73.2428 309.731 72.7237C309.078 69.9802 307.966 67.4058 306.466 65.0849C306.167 64.6215 306.224 64.0249 306.624 63.6389L307.951 62.3598C308.458 61.871 308.458 61.0786 307.951 60.5904L302.77 55.5944C302.263 55.1056 301.441 55.1056 300.934 55.5944L299.61 56.8714C299.209 57.2574 298.59 57.3117 298.11 57.0229C295.704 55.5761 293.033 54.5027 290.186 53.8723C289.648 53.7532 289.273 53.282 289.273 52.7495V50.9379C289.273 50.2469 288.692 49.6863 287.975 49.6863H280.647C279.93 49.6863 279.349 50.2469 279.349 50.9379V52.7509C279.349 53.2834 278.973 53.7546 278.436 53.8737C275.588 54.5034 272.917 55.5768 270.51 57.0236C270.031 57.3124 269.411 57.2574 269.011 56.8721L267.688 55.5958C267.181 55.107 266.359 55.107 265.852 55.5958L260.671 60.5919C260.164 61.0807 260.164 61.8731 260.671 62.3612L261.996 63.6382C262.397 64.0242 262.453 64.6208 262.154 65.0842C260.654 67.4051 259.543 69.9802 258.89 72.7244C258.766 73.2435 258.277 73.6049 257.725 73.6049H255.841C255.124 73.6049 254.543 74.1648 254.543 74.8565V81.9219C254.543 82.6129 255.124 83.1736 255.841 83.1736H257.726C258.278 83.1736 258.766 83.5349 258.89 84.054C259.544 86.7982 260.657 89.3733 262.156 91.6928C262.456 92.1555 262.399 92.7528 261.999 93.1388L260.672 94.4179C260.165 94.9067 260.165 95.6991 260.672 96.1873L265.853 101.183C266.36 101.672 267.182 101.672 267.688 101.183L269.017 99.9028C269.417 99.5168 270.036 99.4625 270.516 99.7506C272.922 101.195 275.592 102.266 278.437 102.896C278.976 103.015 279.35 103.486 279.35 104.018V105.84C279.35 106.531 279.932 107.092 280.648 107.092H287.976C288.693 107.092 289.274 106.532 289.274 105.84V104.018C289.274 103.485 289.65 103.014 290.188 102.895C293.034 102.266 295.703 101.194 298.108 99.7499C298.588 99.4611 299.208 99.5161 299.608 99.9021L300.937 101.183C301.444 101.672 302.266 101.672 302.773 101.183L307.953 96.1873C308.46 95.6984 308.46 94.906 307.953 94.4179L306.626 93.1381C306.226 92.7521 306.169 92.1548 306.468 91.6921C307.967 89.3726 309.08 86.7982 309.733 84.0547C309.856 83.5356 310.345 83.1743 310.897 83.1743H312.784C313.499 83.1736 314.08 82.6136 314.08 81.9219ZM284.31 94.9497C274.824 94.9497 267.146 87.5314 267.146 78.3846C267.146 69.2526 274.825 61.8336 284.31 61.8336C293.795 61.8336 301.475 69.2526 301.475 78.3846C301.475 87.5314 293.795 94.9497 284.31 94.9497Z" fill="url(#paint5_linear_2332_328)"></path><path d="M262.365 56.829V52.4219C262.365 51.9908 262.002 51.6414 261.555 51.6414H260.379C260.034 51.6414 259.73 51.416 259.653 51.092C259.246 49.3812 258.552 47.7745 257.617 46.3278C257.431 46.039 257.466 45.6664 257.715 45.4262L258.543 44.6282C258.859 44.3232 258.859 43.8294 258.543 43.5244L255.311 40.4083C254.995 40.1034 254.482 40.1034 254.166 40.4083L253.34 41.205C253.09 41.4459 252.704 41.4797 252.404 41.2994C250.904 40.3971 249.237 39.7272 247.462 39.3342C247.126 39.2595 246.892 38.9658 246.892 38.6341V37.5036C246.892 37.0725 246.529 36.7231 246.082 36.7231H241.512C241.064 36.7231 240.702 37.0725 240.702 37.5036V38.6341C240.702 38.9658 240.468 39.2602 240.132 39.3342C238.356 39.7272 236.69 40.3964 235.189 41.2994C234.889 41.4797 234.503 41.4452 234.253 41.205L233.428 40.409C233.111 40.1041 232.599 40.1041 232.283 40.409L229.051 43.5251C228.735 43.8301 228.735 44.3239 229.051 44.6289L229.877 45.4255C230.127 45.6664 230.162 46.0383 229.976 46.3271C229.041 47.7745 228.347 49.3812 227.939 51.0927C227.862 51.4168 227.557 51.6421 227.213 51.6421H226.038C225.591 51.6421 225.229 51.9915 225.229 52.4226V56.8297C225.229 57.2608 225.591 57.6102 226.038 57.6102H227.213C227.557 57.6102 227.862 57.8356 227.939 58.1596C228.348 59.8712 229.041 61.4771 229.977 62.9238C230.163 63.2126 230.128 63.5852 229.878 63.8261L229.051 64.6242C228.734 64.9291 228.734 65.4229 229.051 65.7279L232.282 68.844C232.599 69.149 233.111 69.149 233.427 68.844L234.255 68.0452C234.505 67.8043 234.891 67.7705 235.19 67.9501C236.691 68.851 238.356 69.5194 240.131 69.9118C240.467 69.9857 240.701 70.2802 240.701 70.6119V71.7487C240.701 72.1798 241.063 72.5292 241.51 72.5292H246.081C246.528 72.5292 246.89 72.1798 246.89 71.7487V70.6119C246.89 70.2794 247.124 69.9857 247.46 69.9118C249.235 69.5194 250.9 68.851 252.4 67.9501C252.699 67.7705 253.086 67.8043 253.335 68.0445L254.163 68.844C254.48 69.149 254.992 69.149 255.308 68.844L258.54 65.7279C258.856 65.4229 258.856 64.9291 258.54 64.6242L257.712 63.8261C257.462 63.5852 257.427 63.2133 257.613 62.9238C258.548 61.4771 259.243 59.8719 259.65 58.1603C259.727 57.8363 260.032 57.6109 260.376 57.6109H261.553C262.002 57.6102 262.365 57.2601 262.365 56.829ZM243.796 63.781C238.552 63.781 234.307 59.6796 234.307 54.623C234.307 49.5742 238.552 45.4734 243.796 45.4734C249.04 45.4734 253.285 49.5749 253.285 54.623C253.285 59.6803 249.04 63.781 243.796 63.781Z" fill="white"></path><path d="M349.318 244.491H129.147C120.781 244.491 114 237.952 114 229.886V93.0043C114 84.938 120.782 78.3994 129.147 78.3994H349.318C357.684 78.3994 364.465 84.9387 364.465 93.0043V229.886C364.465 237.953 357.684 244.491 349.318 244.491Z" fill="url(#paint6_linear_2332_328)"></path><path d="M358.323 93.6418V216.866C358.323 219.129 356.421 220.962 354.075 220.962H124.394C122.048 220.962 120.146 219.129 120.146 216.866V93.6418C120.146 88.233 124.694 83.8484 130.303 83.8484H348.166C353.775 83.8484 358.323 88.233 358.323 93.6418Z" fill="white"></path><path d="M263.128 279.929H215.338L220.356 251.847L221.671 244.493H256.794L258.109 251.847L263.128 279.929Z" fill="url(#paint7_linear_2332_328)"></path><path d="M258.108 251.847H220.355L221.67 244.493H256.793L258.108 251.847Z" fill="url(#paint8_linear_2332_328)"></path><path d="M278.962 273.893H199.504V279.931H278.962V273.893Z" fill="url(#paint9_linear_2332_328)"></path><path d="M305.104 184.831H173.365C168.811 184.831 165.119 181.272 165.119 176.881V129.892C165.119 125.501 168.811 121.941 173.365 121.941H305.104C309.658 121.941 313.35 125.501 313.35 129.892V176.881C313.35 181.272 309.658 184.831 305.104 184.831Z" stroke="url(#paint10_linear_2332_328)" stroke-width="1.0981" stroke-miterlimit="10" stroke-linecap="round"></path><path d="M124.645 279.602H91.573C89.3114 279.602 87.4785 277.834 87.4785 275.654V210.868C87.4785 208.688 89.3114 206.92 91.573 206.92H124.645C126.907 206.92 128.74 208.688 128.74 210.868V275.654C128.74 277.834 126.906 279.602 124.645 279.602Z" fill="url(#paint11_linear_2332_328)"></path><path d="M124.667 270.019H91.5508C90.3703 270.019 89.4141 269.096 89.4141 267.959V213.5C89.4141 212.362 90.371 211.44 91.5508 211.44H124.667C125.848 211.44 126.804 212.363 126.804 213.5V267.959C126.804 269.097 125.847 270.019 124.667 270.019Z" fill="white"></path><path d="M112.073 274.891C112.073 277.001 110.298 278.712 108.11 278.712C105.921 278.712 104.146 277.001 104.146 274.891C104.146 272.781 105.921 271.07 108.11 271.07C110.298 271.07 112.073 272.781 112.073 274.891Z" fill="url(#paint12_linear_2332_328)"></path><path d="M111.524 274.891C111.524 276.71 109.995 278.184 108.108 278.184C106.222 278.184 104.693 276.71 104.693 274.891C104.693 273.072 106.222 271.598 108.108 271.598C109.994 271.598 111.524 273.072 111.524 274.891Z" fill="white"></path><path d="M113.161 210.06H103.056C102.636 210.06 102.295 209.732 102.295 209.326C102.295 208.921 102.635 208.593 103.056 208.593H113.161C113.581 208.593 113.922 208.921 113.922 209.326C113.922 209.732 113.581 210.06 113.161 210.06Z" fill="url(#paint13_linear_2332_328)"></path><path d="M116.577 209.327C116.577 209.732 116.237 210.061 115.816 210.061C115.396 210.061 115.055 209.733 115.055 209.327C115.055 208.922 115.395 208.593 115.816 208.593C116.237 208.593 116.577 208.921 116.577 209.327Z" fill="url(#paint14_linear_2332_328)"></path><path d="M108.11 252.087C114.615 252.087 119.889 247.002 119.889 240.73C119.889 234.457 114.615 229.372 108.11 229.372C101.604 229.372 96.3301 234.457 96.3301 240.73C96.3301 247.002 101.604 252.087 108.11 252.087Z" fill="url(#paint15_linear_2332_328)"></path><path d="M108.108 244.67C107.733 244.67 107.369 244.53 107.095 244.275L96.3265 234.279C95.7458 233.739 95.7275 232.848 96.2871 232.288C96.8466 231.726 97.7715 231.71 98.353 232.25L107.811 241.03L117.25 226.155C117.671 225.492 118.57 225.284 119.259 225.689C119.947 226.094 120.164 226.962 119.742 227.626L109.354 243.996C109.124 244.36 108.734 244.603 108.294 244.658C108.232 244.666 108.17 244.67 108.108 244.67Z" fill="url(#paint16_linear_2332_328)"></path><path d="M380.778 248.657C380.54 248.657 380.303 248.664 380.067 248.675C380.067 248.669 380.068 248.664 380.068 248.657C380.068 237.127 370.374 227.78 358.416 227.78C348.63 227.78 340.363 234.042 337.682 242.635C336.75 242.343 335.757 242.18 334.722 242.18C330.395 242.18 326.742 244.95 325.557 248.751C324.979 248.69 324.393 248.656 323.798 248.656C314.942 248.656 307.764 255.578 307.764 264.117C307.764 272.656 314.942 279.578 323.798 279.578H380.778C389.634 279.578 396.813 272.656 396.813 264.117C396.813 255.578 389.634 248.657 380.778 248.657Z" fill="url(#paint17_linear_2332_328)"></path><path d="M157.434 60.4038C157.195 60.4038 156.959 60.4108 156.723 60.4214C156.723 60.4157 156.724 60.4101 156.724 60.4038C156.724 48.8734 147.03 39.5266 135.071 39.5266C125.285 39.5266 117.019 45.7884 114.338 54.3815C113.405 54.0892 112.412 53.9265 111.379 53.9265C107.051 53.9265 103.398 56.6967 102.213 60.4975C101.635 60.4369 101.049 60.4031 100.455 60.4031C91.5986 60.4031 84.4199 67.3248 84.4199 75.8637C84.4199 84.4026 91.5986 91.3244 100.455 91.3244H157.434C166.29 91.3244 173.469 84.4026 173.469 75.8637C173.468 67.3262 166.29 60.4038 157.434 60.4038Z" fill="white"></path><path d="M157.434 60.4038C157.195 60.4038 156.959 60.4108 156.723 60.4214C156.723 60.4157 156.724 60.4101 156.724 60.4038C156.724 48.8734 147.03 39.5266 135.071 39.5266C125.285 39.5266 117.019 45.7884 114.338 54.3815C113.405 54.0892 112.412 53.9265 111.379 53.9265C107.051 53.9265 103.398 56.6967 102.213 60.4975C101.635 60.4369 101.049 60.4031 100.455 60.4031C91.5986 60.4031 84.4199 67.3248 84.4199 75.8637C84.4199 84.4026 91.5986 91.3244 100.455 91.3244H157.434C166.29 91.3244 173.469 84.4026 173.469 75.8637C173.468 67.3262 166.29 60.4038 157.434 60.4038Z" stroke="url(#paint18_linear_2332_328)" stroke-width="2" stroke-miterlimit="10" stroke-linecap="round" stroke-linejoin="round"></path><path d="M108.113 202.131V201.075" stroke="url(#paint19_linear_2332_328)" stroke-miterlimit="10" stroke-linecap="round"></path><path d="M108.113 198.943V164.143C108.113 159.205 112.265 155.202 117.386 155.202H162.916" stroke="url(#paint20_linear_2332_328)" stroke-miterlimit="10" stroke-linecap="round" stroke-dasharray="3.03 3.03"></path><path d="M164.02 155.202H165.115" stroke="url(#paint21_linear_2332_328)" stroke-miterlimit="10" stroke-linecap="round"></path><path d="M165.115 156.889C166.164 156.889 167.015 156.068 167.015 155.057C167.015 154.045 166.164 153.225 165.115 153.225C164.066 153.225 163.215 154.045 163.215 155.057C163.215 156.068 164.066 156.889 165.115 156.889Z" fill="url(#paint22_linear_2332_328)"></path><path d="M108.11 204.861C109.673 204.861 110.941 203.639 110.941 202.132C110.941 200.624 109.673 199.402 108.11 199.402C106.547 199.402 105.279 200.624 105.279 202.132C105.279 203.639 106.547 204.861 108.11 204.861Z" fill="url(#paint23_linear_2332_328)"></path><path d="M178.945 69.8416H180.041" stroke="url(#paint24_linear_2332_328)" stroke-miterlimit="10" stroke-linecap="round"></path><path d="M182.203 69.8416H214.813C219.934 69.8416 224.085 73.8444 224.085 78.782V119.842" stroke="url(#paint25_linear_2332_328)" stroke-miterlimit="10" stroke-linecap="round" stroke-dasharray="2.96 2.96"></path><path d="M224.086 120.884V121.941" stroke="url(#paint26_linear_2332_328)" stroke-miterlimit="10" stroke-linecap="round"></path><path d="M224.086 123.773C225.135 123.773 225.986 122.952 225.986 121.941C225.986 120.929 225.135 120.109 224.086 120.109C223.036 120.109 222.186 120.929 222.186 121.941C222.186 122.952 223.036 123.773 224.086 123.773Z" fill="url(#paint27_linear_2332_328)"></path><path d="M178.946 72.5708C180.509 72.5708 181.777 71.3488 181.777 69.8414C181.777 68.334 180.509 67.1121 178.946 67.1121C177.383 67.1121 176.115 68.334 176.115 69.8414C176.115 71.3488 177.383 72.5708 178.946 72.5708Z" fill="url(#paint28_linear_2332_328)"></path><path d="M182.746 184.831V185.888" stroke="url(#paint29_linear_2332_328)" stroke-miterlimit="10" stroke-linecap="round"></path><path d="M182.746 188.018V242.334" stroke="url(#paint30_linear_2332_328)" stroke-miterlimit="10" stroke-linecap="round" stroke-dasharray="3.02 3.02"></path><path d="M182.746 243.399V244.456" stroke="url(#paint31_linear_2332_328)" stroke-miterlimit="10" stroke-linecap="round"></path><path d="M182.895 247.185C184.459 247.185 185.726 245.963 185.726 244.456C185.726 242.949 184.459 241.727 182.895 241.727C181.332 241.727 180.064 242.949 180.064 244.456C180.064 245.963 181.332 247.185 182.895 247.185Z" fill="url(#paint32_linear_2332_328)"></path><path d="M182.744 186.663C181.695 186.663 180.844 185.843 180.844 184.831C180.844 183.82 181.695 182.999 182.744 182.999C183.794 182.999 184.644 183.82 184.644 184.831C184.644 185.843 183.793 186.663 182.744 186.663Z" fill="url(#paint33_linear_2332_328)"></path><path d="M313.348 139.783H314.443" stroke="url(#paint34_linear_2332_328)" stroke-miterlimit="10" stroke-linecap="round"></path><path d="M316.604 139.783H324.499C326.232 139.783 327.636 141.138 327.636 142.808V154.42" stroke="url(#paint35_linear_2332_328)" stroke-miterlimit="10" stroke-linecap="round" stroke-dasharray="2.96 2.96"></path><path d="M327.639 155.462V156.519" stroke="url(#paint36_linear_2332_328)" stroke-miterlimit="10" stroke-linecap="round"></path><path d="M327.637 159.248C329.201 159.248 330.468 158.026 330.468 156.519C330.468 155.012 329.201 153.79 327.637 153.79C326.074 153.79 324.807 155.012 324.807 156.519C324.807 158.026 326.074 159.248 327.637 159.248Z" fill="url(#paint37_linear_2332_328)"></path><path d="M313.347 141.615C314.397 141.615 315.247 140.795 315.247 139.783C315.247 138.772 314.397 137.951 313.347 137.951C312.298 137.951 311.447 138.772 311.447 139.783C311.447 140.795 312.298 141.615 313.347 141.615Z" fill="url(#paint38_linear_2332_328)"></path><path d="M280.699 184.831V185.888" stroke="url(#paint39_linear_2332_328)" stroke-miterlimit="10" stroke-linecap="round"></path><path d="M280.699 188.028V256.673C280.699 261.107 284.427 264.701 289.026 264.701H301.321" stroke="url(#paint40_linear_2332_328)" stroke-miterlimit="10" stroke-linecap="round" stroke-dasharray="3.04 3.04"></path><path d="M302.432 264.702H303.527" stroke="url(#paint41_linear_2332_328)" stroke-miterlimit="10" stroke-linecap="round"></path><path d="M280.697 186.663C281.746 186.663 282.597 185.843 282.597 184.831C282.597 183.82 281.746 182.999 280.697 182.999C279.648 182.999 278.797 183.82 278.797 184.831C278.797 185.843 279.648 186.663 280.697 186.663Z" fill="url(#paint42_linear_2332_328)"></path><path d="M303.526 267.431C305.089 267.431 306.357 266.209 306.357 264.702C306.357 263.195 305.089 261.973 303.526 261.973C301.963 261.973 300.695 263.195 300.695 264.702C300.695 266.209 301.963 267.431 303.526 267.431Z" fill="url(#paint43_linear_2332_328)"></path><path d="M343.837 117.892H307.696C304.7 117.892 302.271 115.55 302.271 112.661V93.6761C302.271 90.7875 304.7 88.4456 307.696 88.4456H343.837C346.833 88.4456 349.261 90.7875 349.261 93.6761V112.661C349.261 115.551 346.833 117.892 343.837 117.892Z" stroke="url(#paint44_linear_2332_328)" stroke-miterlimit="10" stroke-linecap="round" stroke-dasharray="5 5"></path><path d="M322.734 115.094C322.624 115.094 322.513 115.076 322.404 115.036C321.918 114.861 321.671 114.339 321.853 113.87L330.365 91.9145C330.547 91.4454 331.089 91.2066 331.575 91.3827C332.061 91.558 332.308 92.08 332.127 92.5491L323.614 114.505C323.473 114.869 323.114 115.094 322.734 115.094Z" fill="url(#paint45_linear_2332_328)"></path><path d="M319.253 111.3C318.973 111.3 318.692 111.197 318.478 110.991L312.169 104.908C311.212 103.985 311.212 102.484 312.169 101.562L318.614 95.3474C319.043 94.934 319.737 94.934 320.166 95.3474C320.595 95.7602 320.595 96.4301 320.166 96.8435L313.72 103.058C313.619 103.156 313.619 103.314 313.72 103.412L320.029 109.495C320.458 109.908 320.458 110.578 320.029 110.991C319.814 111.197 319.534 111.3 319.253 111.3Z" fill="url(#paint46_linear_2332_328)"></path><path d="M334.584 111.3C334.303 111.3 334.023 111.197 333.808 110.991C333.379 110.578 333.379 109.908 333.808 109.494L340.253 103.281C340.355 103.183 340.355 103.024 340.253 102.926L333.945 96.8435C333.516 96.4308 333.516 95.7609 333.945 95.3474C334.373 94.934 335.067 94.934 335.496 95.3474L341.805 101.43C342.762 102.353 342.762 103.854 341.805 104.776L335.36 110.991C335.145 111.197 334.864 111.3 334.584 111.3Z" fill="url(#paint47_linear_2332_328)"></path><path d="M332.662 279.579H341.744H343.025H347.227C347.227 279.579 348.497 277.004 346.681 273.814C346.681 273.814 345.474 274.747 341.858 274.116C341.858 274.116 340.349 275.352 339.307 275.835C338.259 276.323 332.258 277.459 332.662 279.579Z" fill="#283770"></path><path d="M373.722 273.303C373.722 273.303 371.708 274.302 368.87 273.673C368.87 273.673 368.594 274.035 368.22 275.022C367.921 275.811 366.122 277.388 365.777 279.09C365.726 279.343 365.934 279.578 366.2 279.578H374.882C375.084 279.578 375.259 279.444 375.3 279.253C375.481 278.396 375.742 275.953 373.722 273.303Z" fill="#283770"></path><path d="M341.857 274.116L341.686 269.2L347.05 269.31L346.68 273.814C346.68 273.814 345.567 275.093 341.857 274.116Z" fill="#FFA49A"></path><path d="M368.871 273.673L368.328 269.2H373.533L373.724 273.303C373.724 273.303 372.336 274.602 368.871 273.673Z" fill="#FFA49A"></path><path d="M372.598 234.024C371.867 225.609 371.325 215.648 371.466 213.489C371.933 206.513 370.106 196.392 367.232 193.164C367.232 193.164 353.814 193.733 347.681 194.064C343.411 194.297 343.225 193.191 343.237 192.925C343.079 193.891 340.53 209.775 338.882 234.838C338.837 235.521 338.798 237.414 338.826 237.827C338.949 240.566 339.399 246.187 339.951 252.528C340.508 258.87 341.384 271.818 341.384 271.818C342.369 271.965 345.139 272.245 347.339 272.098C347.339 272.098 348.351 261.664 349.003 256.831C350.022 249.317 349.652 236.514 349.527 234.562C349.527 234.562 353.776 219.753 355.39 214.122L356.684 214.459C363.22 243.442 367.791 271.051 367.791 271.051C370.147 271.588 372.82 271.424 374.053 270.983C374.053 270.983 375.861 251.166 372.598 234.024Z" fill="url(#paint48_linear_2332_328)"></path><path d="M342.107 155.057C342.107 155.057 340.341 156.92 338.287 165.989H345.044L342.107 155.057Z" fill="url(#paint49_linear_2332_328)"></path><path d="M342.839 193.855C343.008 195.642 349.068 196.392 353.019 196.392C357.466 196.392 365.021 194.533 367.235 193.164C367.788 192.821 366.764 189.743 366.712 184.589C366.644 177.738 367.455 169.517 367.8 168.539C369.314 164.235 370.716 160.546 370.111 157.109C369.423 155.967 368.665 155.028 367.919 154.266C365.693 151.971 360.003 149.748 359.678 149.649C359.655 149.644 356.173 149.687 353.884 149.615C351.848 149.556 351.458 149.501 349.998 149.649C347.645 150.757 343.719 152.722 342.106 155.057C340.698 157.094 340.735 160.077 341.886 167.433C342.276 169.916 342.985 179.813 343.132 187.098C343.212 191.084 342.765 193.079 342.839 193.855Z" fill="url(#paint50_linear_2332_328)"></path><path d="M358.42 150.67C358.068 149.867 358.827 149.519 358.654 148.476C358.056 144.888 358.276 140.241 358.276 140.241L353.698 143.952L351.54 145.703C351.306 146.746 350.925 148.08 350.606 149.162C350.27 150.265 350.693 151.099 350.693 151.099L358.42 150.67Z" fill="#FFA49A"></path><path d="M356.53 143.955C356.53 143.955 354.694 147.864 350.605 149.159C350.928 148.079 351.307 146.747 351.541 145.703L353.699 143.952L356.53 143.955Z" fill="#FF8189"></path><path d="M346.692 136.08C346.692 136.08 345.827 144.821 348.788 146.412C350.414 147.285 353.848 146.949 356.074 144.946C357.05 144.068 357.633 142.859 358.089 141.649C358.831 139.683 359.97 136.035 359.246 133.7C358.292 130.618 349.067 127.994 346.984 133.901C346.82 134.367 346.76 135.512 346.692 136.08Z" fill="#FFA49A"></path><path d="M345.364 132.638C344.187 133.888 345.307 134.98 346.958 135.543C347.582 135.756 348.351 135.916 349.288 135.965C351.096 136.064 353.534 135.756 354.418 135.452C354.104 136.704 354.298 137.607 354.928 138.058C355.66 138.58 357.907 138.585 357.942 138.956C358.113 140.812 358.149 142.27 358.27 144.526L358.666 144.339C358.732 143.58 362.926 134.79 361.524 131.261C360.776 129.377 358.546 130.107 358.546 130.107C356.879 125.96 347.551 124.805 344.734 127.565C342.991 129.274 344.478 131.48 345.364 132.638Z" fill="#1D2D4E"></path><path d="M356.326 141.585C358.659 142.812 360.113 137.674 357.755 137.099C356.212 136.722 355.855 138.822 355.855 138.822C355.855 138.822 355.148 140.965 356.326 141.585Z" fill="#FFA49A"></path><path d="M377.485 176.789L377.481 176.786C377.478 172.296 374.2 164.548 373.768 163.636C372.684 161.323 365.128 165.658 365.664 167.353C366.303 169.378 369.44 176.229 369.444 176.24C366.145 177.004 360.729 178.799 357.465 179.867C357.465 179.867 355.315 180.443 354.158 180.413C353.002 180.384 351.419 179.829 350.719 179.666C350.019 179.503 347.473 181.078 347.041 181.323C346.579 181.585 346.994 182.078 347.858 182.027C348.249 182.004 348.903 181.83 349.433 181.673C348.999 181.907 348.625 182.109 348.482 182.188C348.056 182.423 347.208 184.539 347.057 184.776C346.905 185.012 347.872 185.13 348.343 184.675C348.6 184.427 348.986 183.917 349.287 183.499C348.994 184.106 348.738 184.699 348.664 184.813C348.512 185.05 349.365 185.094 349.837 184.639C350.157 184.33 350.768 183.575 351.131 183.117C350.894 183.796 350.55 184.856 350.681 184.928C350.875 185.036 351.343 184.917 351.674 184.477C351.813 184.291 351.972 184.018 352.111 183.763C352.363 183.912 352.643 184.043 352.963 184.139C355.102 184.785 356.789 183.329 358.026 183.162C360.368 183.095 363.98 182.987 366.712 182.891C371.235 182.73 373.995 181.859 375.831 181.087C378.129 180.122 377.485 176.789 377.485 176.789Z" fill="#FFA49A"></path><path d="M352.963 180.746C353.072 180.705 353.174 180.663 353.276 180.621C353.218 180.646 353.165 180.669 353.113 180.684C353.056 180.702 353.003 180.725 352.963 180.746Z" fill="#D99490"></path><path d="M359.675 149.65C359.675 149.65 359.87 149.937 359.377 149.102C359.166 148.745 358.584 148.046 358.584 148.046C358.584 148.046 357.926 149.977 352.73 150.986L353.575 154.013C353.575 154.013 357.648 152.763 359.675 149.65Z" fill="white"></path><path d="M350.774 148.588C350.774 148.588 350.581 149.212 351.449 150.08C351.93 150.56 352.734 150.986 352.734 150.986L351.239 153.55C351.239 153.55 349.998 152.349 349.998 149.65C349.998 149.65 350.077 149.448 350.314 149.136C350.414 149.006 350.774 148.588 350.774 148.588Z" fill="white"></path><path d="M355.639 186.298H343.246V184.831L355.656 185.168C355.973 185.176 356.225 185.426 356.225 185.733C356.225 186.045 355.963 186.298 355.639 186.298Z" fill="white"></path><path d="M348.066 185.681H320.362C319.336 185.681 318.455 184.978 318.263 184.006L314.103 162.909C313.953 162.149 314.557 161.446 315.359 161.446H341.518C342.543 161.446 343.425 162.149 343.616 163.121L348.066 185.681Z" fill="white"></path><path d="M346.064 186.298H319.133C318.343 186.298 317.664 185.756 317.517 185.007L313.213 163.178C313.099 162.599 313.56 162.061 314.172 162.061H341.103C341.893 162.061 342.572 162.603 342.719 163.352L347.024 185.18C347.138 185.76 346.677 186.298 346.064 186.298Z" fill="url(#paint51_linear_2332_328)"></path><path d="M367.92 154.266C367.92 154.266 372.071 158.142 373.762 162.571C375.497 167.112 376.045 168.565 376.045 168.565C376.045 168.565 372.058 172.019 366.762 172.196C366.762 172.196 362.501 164.839 362.044 161.445C361.587 158.051 363.873 152.058 367.92 154.266Z" fill="url(#paint52_linear_2332_328)"></path><path d="M325.742 186.298H324.265C324.265 186.298 324.037 186.453 324.151 186.698C324.265 186.944 325.058 187.195 325.372 187.253C326.412 187.444 327.416 187.269 327.416 187.269L325.742 186.298Z" fill="#CE8684"></path><path d="M332.047 185.878C331.591 185.805 330.938 185.702 330.938 185.702L330.03 184.751C330.03 184.751 329.942 184.45 329.558 183.737C329.101 182.889 328.347 182.843 328.463 183.49C328.485 183.613 328.512 183.765 328.54 183.925C328.437 183.728 328.322 183.518 328.19 183.304C327.62 182.37 326.818 182.291 326.95 183.025C326.971 183.14 326.994 183.278 327.02 183.424C326.973 183.343 326.927 183.262 326.877 183.179C326.286 182.214 325.457 182.131 325.594 182.89C325.66 183.26 325.752 183.818 325.859 184.326C325.818 184.254 325.777 184.182 325.733 184.109C325.286 183.38 324.66 183.317 324.763 183.89C324.867 184.464 325.048 185.642 325.255 185.841C325.278 185.864 325.322 185.898 325.373 185.938H325.373C325.373 185.938 326.255 186.809 326.508 186.989C326.936 187.292 327.49 187.37 327.49 187.37C327.49 187.37 328.097 187.716 328.479 187.693C328.861 187.671 329.252 187.544 329.252 187.544C329.252 187.544 329.501 187.651 329.957 187.709C330.414 187.768 331.023 187.502 331.023 187.502C331.023 187.502 332.087 187.531 332.4 187.341C333.06 186.939 333.355 186.298 333.355 186.298C333.355 186.298 332.504 185.951 332.047 185.878Z" fill="#FFA49A"></path><path d="M145.998 68.0396H109.317C108.652 68.0396 108.113 67.5198 108.113 66.8788C108.113 66.2378 108.652 65.718 109.317 65.718H145.998C146.663 65.718 147.202 66.2378 147.202 66.8788C147.202 67.5198 146.663 68.0396 145.998 68.0396Z" fill="url(#paint53_linear_2332_328)"></path><path d="M133.762 72.5298H109.317C108.652 72.5298 108.113 72.01 108.113 71.369C108.113 70.7281 108.652 70.2083 109.317 70.2083H133.762C134.427 70.2083 134.966 70.7281 134.966 71.369C134.966 72.01 134.427 72.5298 133.762 72.5298Z" fill="url(#paint54_linear_2332_328)"></path><path d="M114.404 77.02H109.317C108.652 77.02 108.113 76.5002 108.113 75.8593C108.113 75.2183 108.652 74.6985 109.317 74.6985H114.404C115.068 74.6985 115.608 75.2183 115.608 75.8593C115.608 76.5002 115.068 77.02 114.404 77.02Z" fill="url(#paint55_linear_2332_328)"></path><path d="M145.999 77.02H118.788C118.123 77.02 117.584 76.5002 117.584 75.8593C117.584 75.2183 118.123 74.6985 118.788 74.6985H145.999C146.664 74.6985 147.203 75.2183 147.203 75.8593C147.203 76.5002 146.664 77.02 145.999 77.02Z" fill="url(#paint56_linear_2332_328)"></path><path d="M145.996 72.5298H137.903C137.238 72.5298 136.699 72.01 136.699 71.369C136.699 70.7281 137.238 70.2083 137.903 70.2083H145.996C146.661 70.2083 147.2 70.7281 147.2 71.369C147.2 72.01 146.661 72.5298 145.996 72.5298Z" fill="url(#paint57_linear_2332_328)"></path><path d="M234.72 233.281H204.13C201.575 233.281 199.504 231.283 199.504 228.82V211.26C199.504 208.796 201.575 206.799 204.13 206.799H234.72C237.276 206.799 239.347 208.796 239.347 211.26V228.82C239.347 231.284 237.276 233.281 234.72 233.281Z" fill="url(#paint58_linear_2332_328)"></path><path d="M216.414 214.89L222.993 218.553C224.18 219.213 224.18 220.866 222.993 221.527L216.414 225.19C215.227 225.85 213.742 225.024 213.742 223.702V216.377C213.742 215.055 215.227 214.228 216.414 214.89Z" fill="white"></path><path d="M150.764 132.048H108.054C104.877 132.048 102.301 129.564 102.301 126.501V116.675C102.301 113.611 104.877 111.128 108.054 111.128H150.764C153.942 111.128 156.518 113.611 156.518 116.675V126.501C156.518 129.564 153.942 132.048 150.764 132.048Z" fill="white"></path><path d="M110.539 117.609C111.472 117.609 112.229 116.88 112.229 115.98C112.229 115.08 111.472 114.351 110.539 114.351C109.606 114.351 108.85 115.08 108.85 115.98C108.85 116.88 109.606 117.609 110.539 117.609Z" fill="url(#paint59_linear_2332_328)"></path><path d="M110.539 123.218C111.472 123.218 112.229 122.488 112.229 121.588C112.229 120.689 111.472 119.959 110.539 119.959C109.606 119.959 108.85 120.689 108.85 121.588C108.85 122.488 109.606 123.218 110.539 123.218Z" fill="url(#paint60_linear_2332_328)"></path><path d="M110.539 128.825C111.472 128.825 112.229 128.096 112.229 127.196C112.229 126.297 111.472 125.567 110.539 125.567C109.606 125.567 108.85 126.297 108.85 127.196C108.85 128.096 109.606 128.825 110.539 128.825Z" fill="url(#paint61_linear_2332_328)"></path><path d="M148.576 116.333H115.246C115.044 116.333 114.881 116.175 114.881 115.98C114.881 115.786 115.044 115.628 115.246 115.628H148.576C148.777 115.628 148.941 115.786 148.941 115.98C148.941 116.175 148.777 116.333 148.576 116.333Z" fill="url(#paint62_linear_2332_328)"></path><path d="M148.576 121.94H115.246C115.044 121.94 114.881 121.783 114.881 121.588C114.881 121.394 115.044 121.236 115.246 121.236H148.576C148.777 121.236 148.941 121.394 148.941 121.588C148.941 121.783 148.777 121.94 148.576 121.94Z" fill="url(#paint63_linear_2332_328)"></path><path d="M129.4 127.549H115.246C115.044 127.549 114.881 127.391 114.881 127.196C114.881 127.002 115.044 126.844 115.246 126.844H129.4C129.601 126.844 129.765 127.002 129.765 127.196C129.765 127.391 129.601 127.549 129.4 127.549Z" fill="url(#paint64_linear_2332_328)"></path><path d="M191.107 278.044H137.416C136.31 278.044 135.414 277.179 135.414 276.113V266.877C135.414 265.811 136.31 264.947 137.416 264.947H191.107C192.213 264.947 193.11 265.811 193.11 266.877V276.113C193.11 277.179 192.213 278.044 191.107 278.044Z" fill="url(#paint65_linear_2332_328)"></path><path d="M143.258 275.13H139.71C139.189 275.13 138.766 274.723 138.766 274.22V268.771C138.766 268.268 139.189 267.86 139.71 267.86H143.258C143.779 267.86 144.202 268.268 144.202 268.771V274.22C144.202 274.723 143.779 275.13 143.258 275.13Z" fill="url(#paint66_linear_2332_328)"></path><path d="M150.17 275.13H146.622C146.101 275.13 145.678 274.723 145.678 274.22V268.771C145.678 268.268 146.101 267.86 146.622 267.86H150.17C150.691 267.86 151.114 268.268 151.114 268.771V274.22C151.114 274.723 150.691 275.13 150.17 275.13Z" fill="url(#paint67_linear_2332_328)"></path><path d="M171.727 275.13H153.536C153.015 275.13 152.592 274.723 152.592 274.22V268.771C152.592 268.268 153.015 267.86 153.536 267.86H171.727C172.249 267.86 172.672 268.268 172.672 268.771V274.22C172.672 274.723 172.249 275.13 171.727 275.13Z" fill="white"></path><path d="M178.487 271.507C178.487 272.539 177.619 273.376 176.548 273.376C175.477 273.376 174.609 272.539 174.609 271.507C174.609 270.474 175.477 269.637 176.548 269.637C177.619 269.637 178.487 270.474 178.487 271.507Z" fill="url(#paint68_linear_2332_328)"></path><path d="M183.778 271.507C183.778 272.539 182.91 273.376 181.839 273.376C180.768 273.376 179.9 272.539 179.9 271.507C179.9 270.474 180.768 269.637 181.839 269.637C182.91 269.637 183.778 270.474 183.778 271.507Z" fill="white"></path><path d="M189.136 272.308H185.539C185.194 272.308 184.914 272.039 184.914 271.706V271.285C184.914 270.952 185.194 270.683 185.539 270.683H189.136C189.481 270.683 189.761 270.952 189.761 271.285V271.706C189.761 272.039 189.482 272.308 189.136 272.308Z" fill="url(#paint69_linear_2332_328)"></path><path d="M146.333 278.044H141.484V279.602H146.333V278.044Z" fill="url(#paint70_linear_2332_328)"></path><path d="M187.339 278.044H182.49V279.602H187.339V278.044Z" fill="url(#paint71_linear_2332_328)"></path><path d="M191.107 263.389H137.416C136.31 263.389 135.414 262.525 135.414 261.458V252.223C135.414 251.156 136.31 250.292 137.416 250.292H191.107C192.213 250.292 193.11 251.156 193.11 252.223V261.458C193.11 262.525 192.213 263.389 191.107 263.389Z" fill="url(#paint72_linear_2332_328)"></path><path d="M143.258 260.476H139.71C139.189 260.476 138.766 260.068 138.766 259.565V254.116C138.766 253.613 139.189 253.205 139.71 253.205H143.258C143.779 253.205 144.202 253.613 144.202 254.116V259.565C144.202 260.068 143.779 260.476 143.258 260.476Z" fill="url(#paint73_linear_2332_328)"></path><path d="M150.17 260.476H146.622C146.101 260.476 145.678 260.068 145.678 259.565V254.116C145.678 253.613 146.101 253.205 146.622 253.205H150.17C150.691 253.205 151.114 253.613 151.114 254.116V259.565C151.114 260.068 150.691 260.476 150.17 260.476Z" fill="white"></path><path d="M171.727 260.476H153.536C153.015 260.476 152.592 260.068 152.592 259.565V254.116C152.592 253.613 153.015 253.205 153.536 253.205H171.727C172.249 253.205 172.672 253.613 172.672 254.116V259.565C172.672 260.068 172.249 260.476 171.727 260.476Z" fill="white"></path><path d="M178.487 256.852C178.487 257.884 177.619 258.721 176.548 258.721C175.477 258.721 174.609 257.884 174.609 256.852C174.609 255.819 175.477 254.982 176.548 254.982C177.619 254.982 178.487 255.819 178.487 256.852Z" fill="url(#paint74_linear_2332_328)"></path><path d="M183.778 256.852C183.778 257.884 182.91 258.721 181.839 258.721C180.768 258.721 179.9 257.884 179.9 256.852C179.9 255.819 180.768 254.982 181.839 254.982C182.91 254.982 183.778 255.819 183.778 256.852Z" fill="url(#paint75_linear_2332_328)"></path><path d="M189.136 257.653H185.539C185.194 257.653 184.914 257.384 184.914 257.051V256.63C184.914 256.298 185.194 256.028 185.539 256.028H189.136C189.481 256.028 189.761 256.298 189.761 256.63V257.051C189.761 257.384 189.482 257.653 189.136 257.653Z" fill="white"></path><path d="M146.333 263.389H141.484V264.947H146.333V263.389Z" fill="url(#paint76_linear_2332_328)"></path><path d="M187.339 263.389H182.49V264.947H187.339V263.389Z" fill="url(#paint77_linear_2332_328)"></path><path d="M49.4824 279.931H428.982" stroke="#E2F1F6" stroke-miterlimit="10" stroke-linecap="round" stroke-linejoin="round"></path><path d="M178.092 189.729H169.959L193.483 125.666H201.49L225.014 189.729H216.881L197.737 135.801H197.236L178.092 189.729ZM181.095 164.705H213.878V171.587H181.095V164.705ZM234.992 189.729V125.666H256.639C261.665 125.666 265.773 126.573 268.963 128.388C272.175 130.181 274.552 132.611 276.095 135.676C277.639 138.742 278.41 142.162 278.41 145.936C278.41 149.711 277.639 153.141 276.095 156.228C274.573 159.314 272.217 161.775 269.026 163.61C265.835 165.424 261.748 166.331 256.764 166.331H241.248V159.45H256.514C259.954 159.45 262.718 158.855 264.803 157.667C266.888 156.478 268.4 154.872 269.339 152.849C270.298 150.806 270.778 148.501 270.778 145.936C270.778 143.371 270.298 141.077 269.339 139.054C268.4 137.032 266.878 135.447 264.772 134.3C262.666 133.132 259.871 132.548 256.388 132.548H242.75V189.729H234.992ZM298.665 125.666V189.729H290.907V125.666H298.665Z" fill="#123876"></path><defs><linearGradient id="paint0_linear_2332_328" x1="228.686" y1="18.0811" x2="228.686" y2="286.696" gradientUnits="userSpaceOnUse"><stop stop-color="#DFEDF2"></stop><stop offset="1" stop-color="#E8F8FF"></stop></linearGradient><linearGradient id="paint1_linear_2332_328" x1="103.621" y1="-213.353" x2="103.621" y2="55.2625" gradientUnits="userSpaceOnUse"><stop stop-color="#DFEDF2"></stop><stop offset="1" stop-color="#E8F8FF"></stop></linearGradient><linearGradient id="paint2_linear_2332_328" x1="436.737" y1="185.168" x2="436.737" y2="453.783" gradientUnits="userSpaceOnUse"><stop stop-color="#DFEDF2"></stop><stop offset="1" stop-color="#E8F8FF"></stop></linearGradient><linearGradient id="paint3_linear_2332_328" x1="373.722" y1="34.9766" x2="373.722" y2="161.18" gradientUnits="userSpaceOnUse"><stop stop-color="#DFEDF2"></stop><stop offset="1" stop-color="#E8F8FF"></stop></linearGradient><linearGradient id="paint4_linear_2332_328" x1="410.77" y1="266.212" x2="421.128" y2="254.741" gradientUnits="userSpaceOnUse"><stop stop-color="#DFEDF2"></stop><stop offset="1" stop-color="#E8F8FF"></stop></linearGradient><linearGradient id="paint5_linear_2332_328" x1="321.218" y1="113.239" x2="253.124" y2="44.0777" gradientUnits="userSpaceOnUse"><stop stop-color="#3949B2"></stop><stop offset="1" stop-color="#5CA5F7"></stop></linearGradient><linearGradient id="paint6_linear_2332_328" x1="239.233" y1="70.7693" x2="239.233" y2="239.821" gradientUnits="userSpaceOnUse"><stop stop-color="#CBE1F2"></stop><stop offset="1" stop-color="#AED2ED"></stop></linearGradient><linearGradient id="paint7_linear_2332_328" x1="239.233" y1="237.35" x2="239.233" y2="276.443" gradientUnits="userSpaceOnUse"><stop stop-color="#CBE1F2"></stop><stop offset="1" stop-color="#AED2ED"></stop></linearGradient><linearGradient id="paint8_linear_2332_328" x1="220.355" y1="248.17" x2="258.108" y2="248.17" gradientUnits="userSpaceOnUse"><stop stop-color="#CBE1F2"></stop><stop offset="1" stop-color="#AED2ED"></stop></linearGradient><linearGradient id="paint9_linear_2332_328" x1="239.233" y1="269.75" x2="239.233" y2="281.745" gradientUnits="userSpaceOnUse"><stop stop-color="#CBE1F2"></stop><stop offset="1" stop-color="#AED2ED"></stop></linearGradient><linearGradient id="paint10_linear_2332_328" x1="164.718" y1="153.386" x2="313.751" y2="153.386" gradientUnits="userSpaceOnUse"><stop stop-color="#71D2F9"></stop><stop offset="1" stop-color="#51B9F8"></stop></linearGradient><linearGradient id="paint11_linear_2332_328" x1="108.109" y1="201.806" x2="108.109" y2="269.155" gradientUnits="userSpaceOnUse"><stop stop-color="#71D2F9"></stop><stop offset="1" stop-color="#51B9F8"></stop></linearGradient><linearGradient id="paint12_linear_2332_328" x1="108.109" y1="278.809" x2="108.109" y2="270.523" gradientUnits="userSpaceOnUse"><stop stop-color="#CBE1F2"></stop><stop offset="1" stop-color="#AED2ED"></stop></linearGradient><linearGradient id="paint13_linear_2332_328" x1="108.109" y1="274.949" x2="108.109" y2="190.387" gradientUnits="userSpaceOnUse"><stop stop-color="#DFEDF2"></stop><stop offset="1" stop-color="#E8F8FF"></stop></linearGradient><linearGradient id="paint14_linear_2332_328" x1="115.816" y1="274.948" x2="115.816" y2="190.387" gradientUnits="userSpaceOnUse"><stop stop-color="#DFEDF2"></stop><stop offset="1" stop-color="#E8F8FF"></stop></linearGradient><linearGradient id="paint15_linear_2332_328" x1="108.11" y1="256.578" x2="108.11" y2="220.796" gradientUnits="userSpaceOnUse"><stop stop-color="#DFEDF2"></stop><stop offset="1" stop-color="#E8F8FF"></stop></linearGradient><linearGradient id="paint16_linear_2332_328" x1="107.918" y1="253.936" x2="107.918" y2="203.379" gradientUnits="userSpaceOnUse"><stop stop-color="#283770"></stop><stop offset="1" stop-color="#141A5A"></stop></linearGradient><linearGradient id="paint17_linear_2332_328" x1="352.289" y1="222.206" x2="352.289" y2="272.567" gradientUnits="userSpaceOnUse"><stop stop-color="#71D2F9"></stop><stop offset="1" stop-color="#51B9F8"></stop></linearGradient><linearGradient id="paint18_linear_2332_328" x1="83.689" y1="65.426" x2="174.199" y2="65.426" gradientUnits="userSpaceOnUse"><stop stop-color="#71D2F9"></stop><stop offset="1" stop-color="#51B9F8"></stop></linearGradient><linearGradient id="paint19_linear_2332_328" x1="-nan" y1="-nan" x2="-nan" y2="-nan" gradientUnits="userSpaceOnUse"><stop stop-color="#71D2F9"></stop><stop offset="1" stop-color="#51B9F8"></stop></linearGradient><linearGradient id="paint20_linear_2332_328" x1="107.748" y1="177.073" x2="165.482" y2="177.073" gradientUnits="userSpaceOnUse"><stop stop-color="#71D2F9"></stop><stop offset="1" stop-color="#51B9F8"></stop></linearGradient><linearGradient id="paint21_linear_2332_328" x1="-nan" y1="-nan" x2="-nan" y2="-nan" gradientUnits="userSpaceOnUse"><stop stop-color="#71D2F9"></stop><stop offset="1" stop-color="#51B9F8"></stop></linearGradient><linearGradient id="paint22_linear_2332_328" x1="163.215" y1="155.057" x2="167.015" y2="155.057" gradientUnits="userSpaceOnUse"><stop stop-color="#71D2F9"></stop><stop offset="1" stop-color="#51B9F8"></stop></linearGradient><linearGradient id="paint23_linear_2332_328" x1="105.28" y1="202.132" x2="110.941" y2="202.132" gradientUnits="userSpaceOnUse"><stop stop-color="#71D2F9"></stop><stop offset="1" stop-color="#51B9F8"></stop></linearGradient><linearGradient id="paint24_linear_2332_328" x1="-nan" y1="-nan" x2="-nan" y2="-nan" gradientUnits="userSpaceOnUse"><stop stop-color="#71D2F9"></stop><stop offset="1" stop-color="#51B9F8"></stop></linearGradient><linearGradient id="paint25_linear_2332_328" x1="203.144" y1="69.4891" x2="203.144" y2="122.293" gradientUnits="userSpaceOnUse"><stop stop-color="#71D2F9"></stop><stop offset="1" stop-color="#51B9F8"></stop></linearGradient><linearGradient id="paint26_linear_2332_328" x1="-nan" y1="-nan" x2="-nan" y2="-nan" gradientUnits="userSpaceOnUse"><stop stop-color="#71D2F9"></stop><stop offset="1" stop-color="#51B9F8"></stop></linearGradient><linearGradient id="paint27_linear_2332_328" x1="224.086" y1="120.108" x2="224.086" y2="123.772" gradientUnits="userSpaceOnUse"><stop stop-color="#71D2F9"></stop><stop offset="1" stop-color="#51B9F8"></stop></linearGradient><linearGradient id="paint28_linear_2332_328" x1="178.946" y1="67.1118" x2="178.946" y2="72.5706" gradientUnits="userSpaceOnUse"><stop stop-color="#71D2F9"></stop><stop offset="1" stop-color="#51B9F8"></stop></linearGradient><linearGradient id="paint29_linear_2332_328" x1="-nan" y1="-nan" x2="-nan" y2="-nan" gradientUnits="userSpaceOnUse"><stop stop-color="#71D2F9"></stop><stop offset="1" stop-color="#51B9F8"></stop></linearGradient><linearGradient id="paint30_linear_2332_328" x1="-nan" y1="-nan" x2="-nan" y2="-nan" gradientUnits="userSpaceOnUse"><stop stop-color="#71D2F9"></stop><stop offset="1" stop-color="#51B9F8"></stop></linearGradient><linearGradient id="paint31_linear_2332_328" x1="-nan" y1="-nan" x2="-nan" y2="-nan" gradientUnits="userSpaceOnUse"><stop stop-color="#71D2F9"></stop><stop offset="1" stop-color="#51B9F8"></stop></linearGradient><linearGradient id="paint32_linear_2332_328" x1="182.895" y1="241.726" x2="182.895" y2="247.185" gradientUnits="userSpaceOnUse"><stop stop-color="#71D2F9"></stop><stop offset="1" stop-color="#51B9F8"></stop></linearGradient><linearGradient id="paint33_linear_2332_328" x1="182.744" y1="182.999" x2="182.744" y2="186.663" gradientUnits="userSpaceOnUse"><stop stop-color="#71D2F9"></stop><stop offset="1" stop-color="#51B9F8"></stop></linearGradient><linearGradient id="paint34_linear_2332_328" x1="-nan" y1="-nan" x2="-nan" y2="-nan" gradientUnits="userSpaceOnUse"><stop stop-color="#71D2F9"></stop><stop offset="1" stop-color="#51B9F8"></stop></linearGradient><linearGradient id="paint35_linear_2332_328" x1="322.12" y1="139.431" x2="322.12" y2="156.871" gradientUnits="userSpaceOnUse"><stop stop-color="#71D2F9"></stop><stop offset="1" stop-color="#51B9F8"></stop></linearGradient><linearGradient id="paint36_linear_2332_328" x1="-nan" y1="-nan" x2="-nan" y2="-nan" gradientUnits="userSpaceOnUse"><stop stop-color="#71D2F9"></stop><stop offset="1" stop-color="#51B9F8"></stop></linearGradient><linearGradient id="paint37_linear_2332_328" x1="327.637" y1="153.79" x2="327.637" y2="159.249" gradientUnits="userSpaceOnUse"><stop stop-color="#71D2F9"></stop><stop offset="1" stop-color="#51B9F8"></stop></linearGradient><linearGradient id="paint38_linear_2332_328" x1="313.347" y1="137.951" x2="313.347" y2="141.616" gradientUnits="userSpaceOnUse"><stop stop-color="#71D2F9"></stop><stop offset="1" stop-color="#51B9F8"></stop></linearGradient><linearGradient id="paint39_linear_2332_328" x1="-nan" y1="-nan" x2="-nan" y2="-nan" gradientUnits="userSpaceOnUse"><stop stop-color="#71D2F9"></stop><stop offset="1" stop-color="#51B9F8"></stop></linearGradient><linearGradient id="paint40_linear_2332_328" x1="291.01" y1="184.479" x2="291.01" y2="265.055" gradientUnits="userSpaceOnUse"><stop stop-color="#71D2F9"></stop><stop offset="1" stop-color="#51B9F8"></stop></linearGradient><linearGradient id="paint41_linear_2332_328" x1="-nan" y1="-nan" x2="-nan" y2="-nan" gradientUnits="userSpaceOnUse"><stop stop-color="#71D2F9"></stop><stop offset="1" stop-color="#51B9F8"></stop></linearGradient><linearGradient id="paint42_linear_2332_328" x1="280.697" y1="182.999" x2="280.697" y2="186.663" gradientUnits="userSpaceOnUse"><stop stop-color="#71D2F9"></stop><stop offset="1" stop-color="#51B9F8"></stop></linearGradient><linearGradient id="paint43_linear_2332_328" x1="303.526" y1="261.973" x2="303.526" y2="267.432" gradientUnits="userSpaceOnUse"><stop stop-color="#71D2F9"></stop><stop offset="1" stop-color="#51B9F8"></stop></linearGradient><linearGradient id="paint44_linear_2332_328" x1="301.906" y1="103.169" x2="349.626" y2="103.169" gradientUnits="userSpaceOnUse"><stop stop-color="#71D2F9"></stop><stop offset="1" stop-color="#51B9F8"></stop></linearGradient><linearGradient id="paint45_linear_2332_328" x1="326.99" y1="91.4262" x2="326.99" y2="112.49" gradientUnits="userSpaceOnUse"><stop stop-color="#71D2F9"></stop><stop offset="1" stop-color="#51B9F8"></stop></linearGradient><linearGradient id="paint46_linear_2332_328" x1="315.969" y1="91.4262" x2="315.969" y2="112.49" gradientUnits="userSpaceOnUse"><stop stop-color="#71D2F9"></stop><stop offset="1" stop-color="#51B9F8"></stop></linearGradient><linearGradient id="paint47_linear_2332_328" x1="338.004" y1="91.4262" x2="338.004" y2="112.49" gradientUnits="userSpaceOnUse"><stop stop-color="#71D2F9"></stop><stop offset="1" stop-color="#51B9F8"></stop></linearGradient><linearGradient id="paint48_linear_2332_328" x1="356.684" y1="195.793" x2="356.684" y2="274.92" gradientUnits="userSpaceOnUse"><stop stop-color="#283770"></stop><stop offset="1" stop-color="#141A5A"></stop></linearGradient><linearGradient id="paint49_linear_2332_328" x1="341.666" y1="147.574" x2="341.666" y2="165.77" gradientUnits="userSpaceOnUse"><stop stop-color="#49A5F7"></stop><stop offset="1" stop-color="#1C6CEB"></stop></linearGradient><linearGradient id="paint50_linear_2332_328" x1="355.645" y1="147.544" x2="355.645" y2="193.108" gradientUnits="userSpaceOnUse"><stop stop-color="#49A5F7"></stop><stop offset="1" stop-color="#1C6CEB"></stop></linearGradient><linearGradient id="paint51_linear_2332_328" x1="330.119" y1="156.25" x2="330.119" y2="191.532" gradientUnits="userSpaceOnUse"><stop stop-color="#71D2F9"></stop><stop offset="1" stop-color="#51B9F8"></stop></linearGradient><linearGradient id="paint52_linear_2332_328" x1="369.016" y1="147.544" x2="369.016" y2="193.108" gradientUnits="userSpaceOnUse"><stop stop-color="#49A5F7"></stop><stop offset="1" stop-color="#1C6CEB"></stop></linearGradient><linearGradient id="paint53_linear_2332_328" x1="103.316" y1="58.5461" x2="158.912" y2="79.0182" gradientUnits="userSpaceOnUse"><stop stop-color="#71D2F9"></stop><stop offset="1" stop-color="#51B9F8"></stop></linearGradient><linearGradient id="paint54_linear_2332_328" x1="101.163" y1="64.3935" x2="156.759" y2="84.8657" gradientUnits="userSpaceOnUse"><stop stop-color="#71D2F9"></stop><stop offset="1" stop-color="#51B9F8"></stop></linearGradient><linearGradient id="paint55_linear_2332_328" x1="98.6111" y1="71.3237" x2="154.207" y2="91.7958" gradientUnits="userSpaceOnUse"><stop stop-color="#71D2F9"></stop><stop offset="1" stop-color="#51B9F8"></stop></linearGradient><linearGradient id="paint56_linear_2332_328" x1="100.911" y1="65.0818" x2="156.507" y2="85.5539" gradientUnits="userSpaceOnUse"><stop stop-color="#71D2F9"></stop><stop offset="1" stop-color="#51B9F8"></stop></linearGradient><linearGradient id="paint57_linear_2332_328" x1="103.446" y1="58.1881" x2="159.042" y2="78.6603" gradientUnits="userSpaceOnUse"><stop stop-color="#71D2F9"></stop><stop offset="1" stop-color="#51B9F8"></stop></linearGradient><linearGradient id="paint58_linear_2332_328" x1="211.276" y1="210.704" x2="236.693" y2="242.022" gradientUnits="userSpaceOnUse"><stop stop-color="#71D2F9"></stop><stop offset="1" stop-color="#51B9F8"></stop></linearGradient><linearGradient id="paint59_linear_2332_328" x1="110.539" y1="130.522" x2="110.539" y2="114.472" gradientUnits="userSpaceOnUse"><stop stop-color="#CBE1F2"></stop><stop offset="1" stop-color="#AED2ED"></stop></linearGradient><linearGradient id="paint60_linear_2332_328" x1="110.539" y1="130.522" x2="110.539" y2="114.472" gradientUnits="userSpaceOnUse"><stop stop-color="#CBE1F2"></stop><stop offset="1" stop-color="#AED2ED"></stop></linearGradient><linearGradient id="paint61_linear_2332_328" x1="110.539" y1="130.522" x2="110.539" y2="114.472" gradientUnits="userSpaceOnUse"><stop stop-color="#CBE1F2"></stop><stop offset="1" stop-color="#AED2ED"></stop></linearGradient><linearGradient id="paint62_linear_2332_328" x1="151.075" y1="125.486" x2="119.972" y2="108.891" gradientUnits="userSpaceOnUse"><stop stop-color="#CBE1F2"></stop><stop offset="1" stop-color="#AED2ED"></stop></linearGradient><linearGradient id="paint63_linear_2332_328" x1="148.709" y1="129.92" x2="117.606" y2="113.326" gradientUnits="userSpaceOnUse"><stop stop-color="#CBE1F2"></stop><stop offset="1" stop-color="#AED2ED"></stop></linearGradient><linearGradient id="paint64_linear_2332_328" x1="144.336" y1="138.116" x2="113.234" y2="121.521" gradientUnits="userSpaceOnUse"><stop stop-color="#CBE1F2"></stop><stop offset="1" stop-color="#AED2ED"></stop></linearGradient><linearGradient id="paint65_linear_2332_328" x1="136.544" y1="271.495" x2="204.047" y2="271.495" gradientUnits="userSpaceOnUse"><stop stop-color="#3949B2"></stop><stop offset="1" stop-color="#5CA5F7"></stop></linearGradient><linearGradient id="paint66_linear_2332_328" x1="141.484" y1="267.637" x2="141.484" y2="274.417" gradientUnits="userSpaceOnUse"><stop stop-color="#71D2F9"></stop><stop offset="1" stop-color="#51B9F8"></stop></linearGradient><linearGradient id="paint67_linear_2332_328" x1="148.396" y1="267.637" x2="148.396" y2="274.417" gradientUnits="userSpaceOnUse"><stop stop-color="#71D2F9"></stop><stop offset="1" stop-color="#51B9F8"></stop></linearGradient><linearGradient id="paint68_linear_2332_328" x1="190.909" y1="271.507" x2="140.429" y2="271.507" gradientUnits="userSpaceOnUse"><stop stop-color="#CBE1F2"></stop><stop offset="1" stop-color="#AED2ED"></stop></linearGradient><linearGradient id="paint69_linear_2332_328" x1="190.909" y1="271.496" x2="140.43" y2="271.496" gradientUnits="userSpaceOnUse"><stop stop-color="#CBE1F2"></stop><stop offset="1" stop-color="#AED2ED"></stop></linearGradient><linearGradient id="paint70_linear_2332_328" x1="147.52" y1="276.699" x2="141.889" y2="280.262" gradientUnits="userSpaceOnUse"><stop stop-color="#0B1B6A"></stop><stop offset="1" stop-color="#3949B2"></stop></linearGradient><linearGradient id="paint71_linear_2332_328" x1="188.525" y1="276.699" x2="182.894" y2="280.262" gradientUnits="userSpaceOnUse"><stop stop-color="#0B1B6A"></stop><stop offset="1" stop-color="#3949B2"></stop></linearGradient><linearGradient id="paint72_linear_2332_328" x1="136.544" y1="256.841" x2="204.047" y2="256.841" gradientUnits="userSpaceOnUse"><stop stop-color="#3949B2"></stop><stop offset="1" stop-color="#5CA5F7"></stop></linearGradient><linearGradient id="paint73_linear_2332_328" x1="138.25" y1="256.841" x2="155.358" y2="256.841" gradientUnits="userSpaceOnUse"><stop stop-color="#CBE1F2"></stop><stop offset="1" stop-color="#AED2ED"></stop></linearGradient><linearGradient id="paint74_linear_2332_328" x1="176.548" y1="253.726" x2="176.548" y2="259.012" gradientUnits="userSpaceOnUse"><stop stop-color="#71D2F9"></stop><stop offset="1" stop-color="#51B9F8"></stop></linearGradient><linearGradient id="paint75_linear_2332_328" x1="181.839" y1="253.726" x2="181.839" y2="259.012" gradientUnits="userSpaceOnUse"><stop stop-color="#71D2F9"></stop><stop offset="1" stop-color="#51B9F8"></stop></linearGradient><linearGradient id="paint76_linear_2332_328" x1="147.52" y1="262.044" x2="141.889" y2="265.607" gradientUnits="userSpaceOnUse"><stop stop-color="#0B1B6A"></stop><stop offset="1" stop-color="#3949B2"></stop></linearGradient><linearGradient id="paint77_linear_2332_328" x1="188.525" y1="262.044" x2="182.894" y2="265.607" gradientUnits="userSpaceOnUse"><stop stop-color="#0B1B6A"></stop><stop offset="1" stop-color="#3949B2"></stop></linearGradient></defs></svg>