<svg xmlns="http://www.w3.org/2000/svg" width="500" height="300" viewBox="0 0 500 300" fill="none"><rect width="500" height="300" rx="24" fill="white"></rect><path d="M314.438 20.7585C287.514 16.2064 259.521 14.0246 232.15 15.4154C207.892 16.648 180.394 20.0124 160.872 32.0636C151.569 37.8067 140.475 48.1264 137.432 57.2304C137.431 57.2314 121.414 105.151 89.3792 115.419C57.3441 125.688 35.0976 300.939 278.03 283.824C278.03 283.824 420.715 279.34 429.307 150.164C431.382 118.959 430.222 84.6538 405.36 58.5613C386.307 38.5664 359.613 29.676 328.938 23.4553C324.146 22.4835 319.31 21.5822 314.438 20.7585Z" fill="#FBDBCA"></path><path d="M400.228 213.415C399.254 213.415 398.465 212.817 398.465 212.079V208.07C398.465 207.332 399.255 206.733 400.228 206.733C401.202 206.733 401.992 207.332 401.992 208.07V212.079C401.992 212.817 401.202 213.415 400.228 213.415ZM400.228 203.392C399.254 203.392 398.465 202.794 398.465 202.056V198.046C398.465 197.308 399.255 196.71 400.228 196.71C401.202 196.71 401.992 197.308 401.992 198.046V202.056C401.992 202.794 401.202 203.392 400.228 203.392ZM400.228 193.369C399.254 193.369 398.465 192.771 398.465 192.033V188.023C398.465 187.285 399.255 186.687 400.228 186.687C401.202 186.687 401.992 187.285 401.992 188.023V192.033C401.992 192.771 401.202 193.369 400.228 193.369ZM400.228 183.346C399.254 183.346 398.465 182.747 398.465 182.009V178C398.465 177.262 399.255 176.664 400.228 176.664C401.202 176.664 401.992 177.262 401.992 178V182.009C401.992 182.747 401.202 183.346 400.228 183.346ZM400.228 173.323C399.254 173.323 398.465 172.724 398.465 171.986V167.977C398.465 167.239 399.255 166.64 400.228 166.64C401.202 166.64 401.992 167.239 401.992 167.977V171.986C401.992 172.724 401.202 173.323 400.228 173.323ZM400.228 163.299C399.254 163.299 398.465 162.701 398.465 161.963V157.954C398.465 157.216 399.255 156.617 400.228 156.617C401.202 156.617 401.992 157.216 401.992 157.954V161.963C401.992 162.701 401.202 163.299 400.228 163.299ZM400.228 153.276C399.254 153.276 398.465 152.678 398.465 151.94V147.931C398.465 147.193 399.255 146.594 400.228 146.594C401.202 146.594 401.992 147.193 401.992 147.931V151.94C401.992 152.678 401.202 153.276 400.228 153.276ZM400.228 143.253C399.254 143.253 398.465 142.655 398.465 141.917V137.907C398.465 137.169 399.255 136.571 400.228 136.571C401.202 136.571 401.992 137.169 401.992 137.907V141.917C401.992 142.655 401.202 143.253 400.228 143.253ZM400.228 133.23C399.254 133.23 398.465 132.632 398.465 131.894V127.884C398.465 127.146 399.255 126.548 400.228 126.548C401.202 126.548 401.992 127.146 401.992 127.884V131.894C401.992 132.632 401.202 133.23 400.228 133.23ZM400.228 123.207C399.254 123.207 398.465 122.608 398.465 121.87V117.861C398.465 117.123 399.255 116.525 400.228 116.525C401.202 116.525 401.992 117.123 401.992 117.861V121.87C401.992 122.608 401.202 123.207 400.228 123.207Z" fill="url(#paint0_linear_2332_327)"></path><path d="M257.485 113.649L247.309 113.199C247.012 108.074 245.784 103.111 243.744 98.4083L252.646 95.0193C255.079 94.0931 256.068 91.7993 254.859 89.8907L251.635 84.7994C250.419 82.8792 247.445 82.0588 244.988 82.9725L236.203 86.2397C232.582 81.8606 228.163 77.8598 223.076 74.3601L228.467 68.2215C230.014 66.4602 229.372 64.0203 227.031 62.7659L220.77 59.4118C218.403 58.1439 215.205 58.5467 213.631 60.3176L208.235 66.3906C202.118 63.8826 195.445 61.9706 188.341 60.7844L188.933 53.3181C189.108 51.1155 186.865 49.1384 183.915 48.9014L176.018 48.267C173.03 48.0269 170.457 49.6369 170.28 51.8637L169.681 59.4119C162.251 59.5421 155.024 60.4771 148.169 62.1208L143.425 55.0561C142.031 52.98 138.642 52.0454 135.852 52.9744L128.387 55.459C125.565 56.3986 124.426 58.8603 125.85 60.9514L130.773 68.1823C124.524 71.1208 118.861 74.7213 113.976 78.8738L104.407 74.1755C101.694 72.8435 98.0409 73.3036 96.2518 75.2102L91.478 80.2976C89.6769 82.217 90.447 84.8492 93.1933 86.17L103.102 90.9353C99.8671 95.7662 97.5256 100.996 96.2496 106.518L83.9533 105.974C80.644 105.827 77.8018 107.605 77.6163 109.946L77.1228 116.17C76.9373 118.51 79.4802 120.504 82.7917 120.624L95.4227 121.079C96.0578 126.558 97.7526 131.822 100.363 136.757L88.8427 141.042C85.905 142.134 84.7237 144.688 86.2099 146.739L90.1492 152.177C91.6256 154.214 95.1831 154.964 98.0894 153.858L109.75 149.419C113.932 153.659 118.887 157.443 124.464 160.659L117.305 168.714C115.56 170.678 116.302 173.215 118.959 174.375L125.983 177.441C128.609 178.588 132.123 177.93 133.837 175.979L140.945 167.885C147.171 169.876 153.819 171.261 160.758 171.951L160.017 181.301C159.84 183.528 162.143 185.334 165.15 185.334L173.097 185.336C176.066 185.337 178.607 183.552 178.781 181.349L179.515 172.101C186.348 171.533 192.902 170.292 199.056 168.479L204.429 176.372C205.713 178.257 208.827 178.913 211.379 177.843L218.131 175.011C220.656 173.952 221.679 171.579 220.42 169.705L215.212 161.949C220.653 159.071 225.562 155.678 229.812 151.871L239.168 156.371C241.465 157.475 244.55 156.898 246.062 155.087L250.07 150.286C251.573 148.487 250.953 146.128 248.682 145.013L239.642 140.574C242.533 136.184 244.688 131.468 245.979 126.512L256.435 126.889C259.13 126.986 261.444 125.361 261.61 123.259L262.054 117.67C262.22 115.568 260.178 113.768 257.485 113.649ZM171.466 155.91C141.292 155.386 117.502 136.531 119.303 113.814C121.104 91.0965 147.722 74.2924 177.784 76.2185C206.825 78.079 228.281 96.8397 226.589 118.178C224.897 139.516 200.614 156.416 171.466 155.91Z" fill="#BFC8D6"></path><path d="M145.812 53.1339L138.581 52.6145L135.691 57.4243L145.812 53.1339Z" fill="#BFC8D6"></path><path d="M217.484 58.6786L225.836 59.1223L225.465 63.7934L217.484 58.6786Z" fill="#BFC8D6"></path><path d="M247.543 82.6613L255.852 83.2956L253.489 86.7356L247.543 82.6613Z" fill="#BFC8D6"></path><path d="M258.203 113.748L266.576 114.636L263.582 117.604L258.203 113.748Z" fill="#BFC8D6"></path><path d="M240.738 156.855L248.831 158.111L250.231 153.106L240.738 156.855Z" fill="#BFC8D6"></path><path d="M207.697 178.22L214.947 179.564L215.855 175.488L207.697 178.22Z" fill="#BFC8D6"></path><path d="M170.27 186.399L163.76 185.215L169.929 179.098L170.27 186.399Z" fill="#BFC8D6"></path><path d="M135.046 179.41L127.479 177.861L133.823 172.702L135.046 179.41Z" fill="#BFC8D6"></path><path d="M100.225 73.4211L108.206 73.9747L104.69 78.2492L100.225 73.4211Z" fill="#BFC8D6"></path><path d="M80.5449 120.229L87.8098 121.383L87.5871 116.812L80.5449 120.229Z" fill="#BFC8D6"></path><path d="M93.6504 154.212L100.744 155.422L101.612 151.85L93.6504 154.212Z" fill="#BFC8D6"></path><path d="M265.669 114.524L255.409 114.07C255.109 108.903 253.871 103.9 251.814 99.159L260.79 95.7424C263.243 94.8087 264.24 92.4962 263.021 90.572L259.77 85.4393C258.544 83.5034 255.546 82.6764 253.069 83.5975L244.21 86.8912C240.559 82.4764 236.104 78.443 230.975 74.9146L236.41 68.7262C237.97 66.9505 237.323 64.4907 234.962 63.2261L228.649 59.8447C226.263 58.5664 223.039 58.9724 221.452 60.7578L216.01 66.8802C209.843 64.3519 203.115 62.4242 195.952 61.2282L196.549 53.7011C196.725 51.4806 194.463 49.4874 191.488 49.2484L183.527 48.6087C180.514 48.3667 177.919 49.9897 177.741 52.2347L177.138 59.8444C169.646 59.9756 162.359 60.9181 155.447 62.5753L150.663 55.453C149.258 53.36 145.841 52.4177 143.027 53.3543L135.501 55.8591C132.655 56.8064 131.507 59.2881 132.943 61.3962L137.906 68.686C131.606 71.6484 125.896 75.2782 120.971 79.4645L111.323 74.7279C108.587 73.3849 104.904 73.8488 103.1 75.771L98.2863 80.8998C96.4703 82.8348 97.247 85.4885 100.016 86.82L110.007 91.6243C106.745 96.4945 104.384 101.767 103.098 107.333L90.6994 106.785C87.3626 106.637 84.497 108.43 84.3099 110.789L83.8124 117.064C83.6253 119.423 86.1894 121.434 89.5283 121.554L102.264 122.014C102.904 127.537 104.613 132.844 107.245 137.82L95.6295 142.139C92.6676 143.24 91.4765 145.815 92.975 147.883L96.9471 153.365C98.4357 155.419 102.023 156.175 104.953 155.059L116.71 150.584C120.927 154.859 125.923 158.674 131.546 161.916L124.328 170.037C122.569 172.017 123.317 174.575 125.995 175.744L133.078 178.835C135.726 179.991 139.269 179.329 140.997 177.361L148.163 169.202C154.442 171.208 161.144 172.605 168.141 173.301L167.394 182.727C167.216 184.972 169.538 186.792 172.57 186.793L180.582 186.795C183.576 186.796 186.138 184.996 186.314 182.776L187.053 173.452C193.943 172.879 200.552 171.628 206.757 169.801L212.175 177.757C213.469 179.659 216.609 180.32 219.182 179.241L225.99 176.386C228.535 175.319 229.567 172.926 228.298 171.037L223.046 163.218C228.532 160.316 233.483 156.895 237.767 153.057L247.201 157.594C249.517 158.707 252.627 158.125 254.152 156.3L258.194 151.46C259.709 149.646 259.084 147.268 256.794 146.144L247.678 141.669C250.594 137.242 252.766 132.488 254.068 127.492L264.61 127.872C267.328 127.97 269.661 126.332 269.829 124.213L270.276 118.578C270.443 116.459 268.385 114.644 265.669 114.524ZM178.937 157.129C148.514 156.6 124.526 137.591 126.342 114.689C128.158 91.7868 154.996 74.8461 185.307 76.788C214.589 78.6639 236.223 97.5775 234.517 119.09C232.812 140.602 208.327 157.64 178.937 157.129Z" fill="#D8AD96"></path><path d="M354.677 171.385L349.265 170.364C349.788 167.585 349.789 164.822 349.318 162.137L354.557 160.996C355.989 160.684 356.826 159.526 356.431 158.407L355.375 155.422C354.977 154.296 353.487 153.628 352.044 153.931L346.884 155.016C345.52 152.384 343.677 149.894 341.407 147.623L345.124 144.734C346.191 143.905 346.171 142.544 345.079 141.69L342.158 139.407C341.054 138.544 339.281 138.516 338.199 139.348L334.487 142.201C331.532 140.385 328.198 138.846 324.536 137.664L325.849 133.694C326.236 132.523 325.293 131.288 323.738 130.935L319.576 129.989C318.001 129.632 316.403 130.301 316.011 131.485L314.684 135.498C310.67 135 306.659 134.95 302.753 135.309L301.143 131.147C300.67 129.923 298.972 129.162 297.348 129.448L293.002 130.213C291.359 130.502 290.419 131.739 290.906 132.972L292.59 137.238C288.838 138.34 285.313 139.843 282.133 141.702L277.612 138.444C276.331 137.52 274.305 137.488 273.089 138.376L269.843 140.747C268.619 141.641 268.683 143.116 269.984 144.036L274.678 147.357C272.294 149.707 270.338 152.341 268.916 155.213L262.376 153.979C260.616 153.648 258.85 154.386 258.439 155.631L257.344 158.94C256.932 160.185 258.034 161.452 259.799 161.769L266.532 162.981C266.143 165.976 266.353 168.937 267.1 171.79L260.333 173.213C258.608 173.576 257.632 174.859 258.158 176.076L259.552 179.301C260.075 180.51 261.888 181.185 263.599 180.813L270.461 179.318C272.145 181.918 274.306 184.332 276.877 186.488L271.954 190.273C270.753 191.196 270.815 192.617 272.089 193.444L275.458 195.63C276.717 196.448 278.695 196.363 279.876 195.445L284.777 191.636C287.861 193.183 291.251 194.437 294.891 195.339L293.247 200.31C292.855 201.494 293.853 202.642 295.47 202.872L299.744 203.481C301.34 203.708 302.945 202.943 303.332 201.772L304.959 196.854C308.709 197.072 312.399 196.906 315.95 196.402L317.789 201.057C318.228 202.169 319.815 202.761 321.33 202.38L325.338 201.374C326.837 200.998 327.704 199.8 327.276 198.696L325.509 194.126C328.818 192.994 331.911 191.545 334.703 189.823L339.136 192.959C340.224 193.729 341.96 193.654 343.014 192.796L345.809 190.521C346.857 189.668 346.838 188.352 345.765 187.579L341.495 184.5C343.635 182.36 345.422 179.988 346.776 177.422L352.349 178.425C353.786 178.684 355.247 177.987 355.616 176.869L356.599 173.897C356.968 172.78 356.11 171.655 354.677 171.385ZM302.786 187.531C286.629 184.94 276.347 172.98 280.342 160.901C284.337 148.821 300.891 141.821 316.802 145.157C332.172 148.379 341.211 160.11 337.459 171.457C333.706 182.803 318.395 190.034 302.786 187.531Z" fill="#BFC8D6"></path><path d="M302.675 130.295L298.855 129.463L296.66 131.828L302.675 130.295Z" fill="#BFC8D6"></path><path d="M340.486 138.761L344.918 139.639L344.097 142.123L340.486 138.761Z" fill="#BFC8D6"></path><path d="M353.453 153.959L357.837 154.936L356.108 156.605L353.453 153.959Z" fill="#BFC8D6"></path><path d="M355.049 171.493L359.433 172.611L357.428 173.978L355.049 171.493Z" fill="#BFC8D6"></path><path d="M339.918 193.34L344.103 194.634L345.523 192.05L339.918 193.34Z" fill="#BFC8D6"></path><path d="M319.301 202.302L323.021 203.579L324.052 201.456L319.301 202.302Z" fill="#BFC8D6"></path><path d="M298.086 203.836L294.742 202.701L298.875 199.883L298.086 203.836Z" fill="#BFC8D6"></path><path d="M280.071 197.382L276.207 195.97L280.306 193.681L280.071 197.382Z" fill="#BFC8D6"></path><path d="M275.461 137.718L279.679 138.626L277.219 140.656L275.461 137.718Z" fill="#BFC8D6"></path><path d="M258.643 161.385L262.396 162.562L262.885 160.086L258.643 161.385Z" fill="#BFC8D6"></path><path d="M261.168 180.664L264.821 181.857L265.764 180.003L261.168 180.664Z" fill="#BFC8D6"></path><path d="M358.954 172.481L353.496 171.452C354.024 168.651 354.024 165.865 353.55 163.158L358.832 162.008C360.276 161.693 361.12 160.526 360.721 159.398L359.656 156.389C359.255 155.254 357.752 154.579 356.297 154.885L351.095 155.979C349.719 153.325 347.861 150.815 345.572 148.525L349.32 145.613C350.395 144.777 350.375 143.405 349.274 142.544L346.329 140.243C345.216 139.373 343.428 139.344 342.337 140.183L338.595 143.059C335.615 141.228 332.253 139.676 328.56 138.485L329.884 134.482C330.275 133.302 329.324 132.057 327.756 131.701L323.559 130.747C321.971 130.387 320.36 131.061 319.965 132.255L318.626 136.301C314.58 135.798 310.535 135.748 306.598 136.11L304.974 131.914C304.497 130.681 302.785 129.912 301.147 130.201L296.766 130.972C295.109 131.264 294.161 132.51 294.652 133.754L296.35 138.054C292.567 139.165 289.013 140.68 285.806 142.555L281.249 139.269C279.956 138.338 277.913 138.306 276.687 139.201L273.415 141.591C272.181 142.493 272.245 143.98 273.557 144.907L278.29 148.256C275.887 150.625 273.915 153.28 272.481 156.175L265.887 154.932C264.112 154.597 262.332 155.342 261.917 156.596L260.813 159.933C260.399 161.187 261.51 162.465 263.289 162.785L270.077 164.007C269.686 167.026 269.898 170.011 270.65 172.888L263.828 174.322C262.088 174.688 261.105 175.981 261.635 177.208L263.041 180.46C263.568 181.679 265.396 182.36 267.121 181.984L274.04 180.477C275.738 183.099 277.917 185.533 280.509 187.706L275.545 191.521C274.335 192.452 274.397 193.884 275.682 194.718L279.079 196.923C280.349 197.747 282.343 197.661 283.534 196.736L288.475 192.896C291.584 194.455 295.003 195.719 298.673 196.629L297.015 201.641C296.621 202.835 297.626 203.992 299.257 204.224L303.566 204.838C305.176 205.067 306.793 204.296 307.184 203.115L308.824 198.157C312.605 198.376 316.326 198.209 319.907 197.701L321.76 202.395C322.203 203.516 323.803 204.112 325.331 203.729L329.372 202.715C330.884 202.335 331.757 201.128 331.326 200.014L329.544 195.407C332.881 194.267 335.999 192.806 338.815 191.07L343.284 194.231C344.381 195.007 346.131 194.932 347.194 194.067L350.012 191.774C351.069 190.914 351.05 189.587 349.968 188.807L345.662 185.703C347.819 183.546 349.621 181.155 350.987 178.568L356.606 179.579C358.054 179.84 359.527 179.137 359.9 178.01L360.891 175.014C361.264 173.887 360.398 172.754 358.954 172.481ZM306.634 188.758C290.343 186.146 279.975 174.088 284.002 161.91C288.03 149.732 304.721 142.675 320.763 146.039C336.261 149.288 345.376 161.115 341.592 172.553C337.809 183.992 322.371 191.281 306.634 188.758Z" fill="#D8DEE8"></path><path d="M392.873 237.507L101.107 235.581V241.279C101.107 242.826 102.38 244.141 104.103 244.375L186.606 255.595C187.585 255.728 188.578 255.763 189.566 255.7L389.702 242.908C391.489 242.793 392.873 241.474 392.873 239.885V237.507Z" fill="url(#paint1_linear_2332_327)"></path><path d="M298.951 228.27L104.32 238.694C100.838 238.881 98.0059 236.899 98.0059 234.267V128.823C98.0059 126.191 100.838 124.057 104.32 124.057H298.951C301.821 124.057 304.141 125.986 304.141 128.365V223.685C304.141 226.064 301.821 228.117 298.951 228.27Z" fill="url(#paint2_linear_2332_327)"></path><path d="M302.053 228.27L107.422 238.694C103.939 238.881 101.107 236.899 101.107 234.267V128.823C101.107 126.191 103.939 124.057 107.422 124.057H302.053C304.922 124.057 307.242 125.986 307.242 128.365V223.685C307.242 226.064 304.922 228.117 302.053 228.27Z" fill="url(#paint3_linear_2332_327)"></path><path d="M295.988 221.55L114.71 230.604C111.875 230.746 109.572 229.119 109.572 226.971V134.654C109.572 132.506 111.875 130.757 114.71 130.748L295.988 130.179C298.355 130.172 300.27 131.752 300.27 133.709V217.793C300.27 219.75 298.355 221.432 295.988 221.55Z" fill="url(#paint4_linear_2332_327)"></path><path d="M297.197 227.798L101.107 238.77L186.606 250.397C187.585 250.53 188.578 250.566 189.566 250.502L392.873 237.507L300.316 227.872C299.281 227.764 298.237 227.739 297.197 227.798Z" fill="url(#paint5_linear_2332_327)"></path><path d="M220.036 203.385C237.379 203.385 251.438 192.594 251.438 179.283C251.438 165.972 237.379 155.181 220.036 155.181C202.694 155.181 188.635 165.972 188.635 179.283C188.635 192.594 202.694 203.385 220.036 203.385Z" fill="white"></path><path d="M218.933 192.27C217.572 192.27 216.306 191.723 215.602 190.823L203.788 175.73C202.682 174.317 203.278 172.484 205.119 171.636C206.958 170.788 209.346 171.244 210.452 172.657L218.653 183.134L229.494 166.791C230.468 165.322 232.809 164.738 234.721 165.486C236.635 166.233 237.396 168.03 236.422 169.498L222.398 190.64C221.757 191.606 220.482 192.23 219.07 192.268C219.024 192.269 218.979 192.27 218.933 192.27Z" fill="url(#paint6_linear_2332_327)"></path><path opacity="0.3" d="M129.725 239.045L292.975 229.775L343.499 234.992L181.655 244.902L129.725 239.045Z" fill="url(#paint7_linear_2332_327)"></path><path opacity="0.48" d="M255.16 199.351C240.155 193.233 228.358 200.985 216.972 193.336C210.069 188.699 213.458 185.241 204.964 178.311C195.557 170.636 189.432 173.216 179.978 166.308C168.023 157.573 174.002 150.778 163.705 144.507C151.213 136.899 137.741 143.94 125.85 136.644C120.721 133.497 117.907 128.922 116.437 124.057H104.802C102.763 124.057 101.107 125.309 101.107 126.854V236.156C101.107 237.701 102.763 238.864 104.802 238.755L303.163 228.084C304.136 228.032 305 227.601 305.554 226.977C291.033 226.576 282.112 222.887 276.41 219.073C265.254 211.613 267.189 204.256 255.16 199.351Z" fill="white"></path><path d="M376.693 187.591V269.915C376.693 271.146 374.915 271.507 372.899 271.655L303.158 277.566L302.092 277.644C299.904 277.805 298.109 276.885 298.109 275.598V189.573C298.109 188.286 299.904 187.191 302.092 187.139L303.538 187.104L373.526 187.278C375.542 187.229 376.693 186.36 376.693 187.591Z" fill="url(#paint8_linear_2332_327)"></path><path d="M378.843 187.497V269.799C378.843 271.029 377.198 272.158 375.182 272.306L304.283 277.525C302.096 277.686 300.303 276.766 300.303 275.48V189.478C300.303 188.192 302.096 187.097 304.283 187.044L375.182 185.347C377.198 185.299 378.843 186.266 378.843 187.497Z" fill="url(#paint9_linear_2332_327)"></path><path d="M376.57 192.122V268.386C376.57 269.536 375.031 270.588 373.147 270.725L306.48 275.566C304.445 275.714 302.777 274.855 302.777 273.657V194.176C302.777 192.978 304.445 191.953 306.48 191.899L373.147 190.123C375.031 190.073 376.57 190.973 376.57 192.122Z" fill="url(#paint10_linear_2332_327)"></path><path d="M365.95 225.61C365.95 235.913 354.995 244.82 341.439 245.507C327.838 246.196 316.777 238.352 316.777 227.986C316.777 217.619 327.838 208.707 341.439 208.082C354.995 207.458 365.95 215.307 365.95 225.61Z" fill="white"></path><path d="M340.574 236.92C339.508 236.973 338.516 236.597 337.965 235.926L328.696 224.647C327.828 223.59 328.296 222.142 329.741 221.414C331.185 220.685 333.06 220.951 333.927 222.008L340.355 229.837L348.836 216.747C349.597 215.572 351.426 215.033 352.919 215.543C354.412 216.052 355.007 217.417 354.247 218.591L343.287 235.521C342.785 236.296 341.787 236.829 340.681 236.913C340.646 236.916 340.61 236.919 340.574 236.92Z" fill="url(#paint11_linear_2332_327)"></path><g opacity="0.48"><path d="M355.934 234.857C349.483 225.047 334.408 227.389 328.745 216.691C325.367 210.308 329.572 207.282 327.04 199.496C325.326 194.227 321.584 190.028 317.344 186.732L304.293 187.044C302.106 187.097 300.312 188.192 300.312 189.478V275.48C300.312 276.766 302.106 277.686 304.293 277.525L361.349 273.325C357.124 268.876 355.315 264.691 354.664 261.061C352.641 249.8 361.663 243.57 355.934 234.857Z" fill="white"></path></g><path d="M415.342 222.018V278.832C415.342 279.681 414.384 279.916 413.298 280.003L375.871 283.515L375.302 283.56C374.132 283.653 373.174 283.006 373.174 282.122V223.022C373.174 222.139 374.132 221.394 375.302 221.368L376.075 221.351L413.635 221.787C414.722 221.763 415.342 221.168 415.342 222.018Z" fill="url(#paint12_linear_2332_327)"></path><path d="M416.504 221.963V278.768C416.504 279.618 415.616 280.383 414.53 280.47L376.475 283.495C375.306 283.588 374.348 282.942 374.348 282.058V222.967C374.348 222.083 375.306 221.339 376.475 221.313L414.53 220.462C415.616 220.438 416.504 221.113 416.504 221.963Z" fill="url(#paint13_linear_2332_327)"></path><path d="M415.278 225.144V277.776C415.278 278.569 414.448 279.283 413.433 279.363L377.649 282.167C376.562 282.252 375.67 281.649 375.67 280.826V226.207C375.67 225.384 376.562 224.687 377.649 224.66L413.433 223.749C414.448 223.723 415.278 224.351 415.278 225.144Z" fill="url(#paint14_linear_2332_327)"></path><path d="M411.046 248.534C411.046 254.668 404.556 259.979 396.537 260.397C388.501 260.815 381.975 256.164 381.975 250.006C381.975 243.849 388.501 238.536 396.537 238.14C404.556 237.745 411.046 242.399 411.046 248.534Z" fill="white"></path><path d="M396.027 255.291C395.397 255.324 394.811 255.101 394.485 254.702L389.01 248.008C388.497 247.381 388.773 246.52 389.627 246.085C390.48 245.65 391.587 245.806 392.099 246.432L395.898 251.079L400.913 243.282C401.364 242.582 402.446 242.259 403.33 242.56C404.214 242.86 404.566 243.671 404.115 244.371L397.631 254.456C397.334 254.918 396.744 255.236 396.091 255.287C396.07 255.289 396.048 255.29 396.027 255.291Z" fill="url(#paint15_linear_2332_327)"></path><g opacity="0.48"><path d="M404.118 255.985C400.646 249.369 391.285 250.932 388.369 244.245C385.989 238.787 391.283 235.588 389.211 229.269C388.048 225.723 385.186 223.088 382.261 221.183L376.461 221.313C375.292 221.339 374.334 222.083 374.334 222.967V282.058C374.334 282.942 375.292 283.588 376.461 283.495L405.637 281.176C403.295 278.378 402.354 275.822 402.022 273.7C400.812 265.974 407.3 262.047 404.118 255.985Z" fill="white"></path></g><path d="M391.585 51.3383C379.76 47.2289 366.575 48.3276 355.764 53.3545C352.703 38.5264 341.192 25.5585 323.424 19.4024C294.484 9.37559 259.975 21.2426 246.197 45.7617C242.654 52.0659 240.822 58.6006 240.534 65.003C239.083 64.2007 237.524 63.4956 235.861 62.9036C220.376 57.3903 201.842 63.7097 194.421 76.9751C187.013 90.2149 193.184 105.928 208.817 111.035C217.192 113.771 230.663 114.623 230.663 114.623C230.663 114.623 364.629 114.945 368.821 115.22C385.608 116.319 402.696 108.537 410.52 94.952C420.326 77.9274 411.816 58.369 391.585 51.3383Z" fill="url(#paint16_linear_2332_327)"></path><path d="M396.996 52.5883C385.161 48.4775 371.964 49.5774 361.144 54.6069C358.08 39.7726 346.559 26.7997 328.776 20.642C299.812 10.6122 265.274 22.4858 251.485 47.0157C247.94 53.3227 246.106 59.8602 245.817 66.2652C244.365 65.4627 242.805 64.7574 241.141 64.1651C225.643 58.6502 207.093 64.973 199.666 78.2442C192.253 91.4898 198.684 106.726 214.074 112.318C217.339 113.504 235.938 115.906 235.938 115.906C235.938 115.906 370.017 116.223 374.213 116.498C391.014 117.597 408.116 109.811 415.947 96.2199C425.761 79.1875 417.244 59.621 396.996 52.5883Z" fill="url(#paint17_linear_2332_327)"></path><g opacity="0.3"><path d="M310.953 89.5686C294.456 74.3862 309.431 56.4516 292.847 45.6611C281.587 38.3352 267.602 42.0388 256.483 39.72C254.61 42.0051 252.932 44.4392 251.483 47.0158C247.938 53.3228 246.104 59.8601 245.815 66.2653C244.363 65.4627 242.803 64.7574 241.139 64.1652C225.641 58.6501 207.091 64.9731 199.664 78.2442C192.251 91.4899 198.683 106.726 214.072 112.318C217.337 113.504 235.937 115.907 235.937 115.907C235.937 115.907 370.015 116.224 374.211 116.498C376.95 116.677 379.698 116.619 382.412 116.339C377.2 112.367 372.032 109.486 367.258 107.339C343.157 96.4973 324.937 102.438 310.953 89.5686Z" fill="white"></path></g><path d="M345.427 182.425C344.454 182.425 343.664 181.826 343.664 181.088V177.079C343.664 176.341 344.454 175.743 345.427 175.743C346.401 175.743 347.191 176.341 347.191 177.079V181.088C347.191 181.826 346.401 182.425 345.427 182.425ZM345.427 172.402C344.454 172.402 343.664 171.803 343.664 171.065V167.056C343.664 166.318 344.454 165.719 345.427 165.719C346.401 165.719 347.191 166.318 347.191 167.056V171.065C347.191 171.803 346.401 172.402 345.427 172.402ZM345.427 162.378C344.454 162.378 343.664 161.78 343.664 161.042V157.033C343.664 156.295 344.454 155.696 345.427 155.696C346.401 155.696 347.191 156.295 347.191 157.033V161.042C347.191 161.78 346.401 162.378 345.427 162.378ZM345.427 152.355C344.454 152.355 343.664 151.757 343.664 151.019V147.01C343.664 146.272 344.454 145.673 345.427 145.673C346.401 145.673 347.191 146.272 347.191 147.01V151.019C347.191 151.757 346.401 152.355 345.427 152.355ZM345.427 142.332C344.454 142.332 343.664 141.734 343.664 140.996V136.986C343.664 136.248 344.454 135.65 345.427 135.65C346.401 135.65 347.191 136.248 347.191 136.986V140.996C347.191 141.734 346.401 142.332 345.427 142.332ZM345.427 132.309C344.454 132.309 343.664 131.71 343.664 130.972V126.963C343.664 126.225 344.454 125.627 345.427 125.627C346.401 125.627 347.191 126.225 347.191 126.963V130.972C347.191 131.711 346.401 132.309 345.427 132.309ZM345.427 122.286C344.454 122.286 343.664 121.687 343.664 120.949V119.613C343.664 118.875 344.454 118.276 345.427 118.276C346.401 118.276 347.191 118.875 347.191 119.613V120.949C347.191 121.687 346.401 122.286 345.427 122.286Z" fill="url(#paint18_linear_2332_327)"></path><path d="M136.683 112.818C135.709 112.818 134.92 112.219 134.92 111.481V109.477C134.92 108.738 135.71 108.14 136.683 108.14C137.657 108.14 138.447 108.738 138.447 109.477V111.481C138.447 112.219 137.657 112.818 136.683 112.818Z" fill="url(#paint19_linear_2332_327)"></path><path d="M136.683 104.799C135.709 104.799 134.92 104.201 134.92 103.463V99.4535C134.92 98.7154 135.71 98.1171 136.683 98.1171C137.657 98.1171 138.447 98.7155 138.447 99.4535V103.463C138.447 104.201 137.657 104.799 136.683 104.799ZM136.683 94.776C135.709 94.776 134.92 94.1776 134.92 93.4396V89.4303C134.92 88.6923 135.71 88.0939 136.683 88.0939C137.657 88.0939 138.447 88.6923 138.447 89.4303V93.4396C138.447 94.1776 137.657 94.776 136.683 94.776ZM136.683 84.7529C135.709 84.7529 134.92 84.1544 134.92 83.4165V79.4071C134.92 78.6691 135.71 78.0707 136.683 78.0707C137.657 78.0707 138.447 78.6691 138.447 79.4071V83.4165C138.447 84.1544 137.657 84.7529 136.683 84.7529ZM136.683 74.7297C135.709 74.7297 134.92 74.1313 134.92 73.3933V69.384C134.92 68.6459 135.71 68.0476 136.683 68.0476C137.657 68.0476 138.447 68.6459 138.447 69.384V73.3933C138.447 74.1313 137.657 74.7297 136.683 74.7297ZM136.683 64.7065C135.709 64.7065 134.92 64.1081 134.92 63.3701V59.3608C134.92 58.6227 135.71 58.0244 136.683 58.0244C137.657 58.0244 138.447 58.6228 138.447 59.3608V63.3701C138.447 64.1081 137.657 64.7065 136.683 64.7065Z" fill="url(#paint20_linear_2332_327)"></path><path d="M136.683 53.6809C135.709 53.6809 134.92 53.0824 134.92 52.3445V50.3398C134.92 49.6018 135.71 49.0034 136.683 49.0034H139.329C140.302 49.0034 141.092 49.6019 141.092 50.3398C141.092 51.0779 140.302 51.6762 139.329 51.6762H138.447V52.3445C138.447 53.0825 137.657 53.6809 136.683 53.6809Z" fill="url(#paint21_linear_2332_327)"></path><path d="M216.03 51.6763H210.74C209.766 51.6763 208.976 51.0779 208.976 50.3399C208.976 49.6019 209.766 49.0035 210.74 49.0035H216.03C217.004 49.0035 217.794 49.602 217.794 50.3399C217.794 51.078 217.004 51.6763 216.03 51.6763ZM203.245 51.6763H197.955C196.981 51.6763 196.191 51.0779 196.191 50.3399C196.191 49.6019 196.981 49.0035 197.955 49.0035H203.245C204.219 49.0035 205.009 49.602 205.009 50.3399C205.009 51.078 204.219 51.6763 203.245 51.6763ZM190.46 51.6763H185.17C184.196 51.6763 183.406 51.0779 183.406 50.3399C183.406 49.6019 184.196 49.0035 185.17 49.0035H190.46C191.434 49.0035 192.224 49.602 192.224 50.3399C192.224 51.078 191.434 51.6763 190.46 51.6763ZM177.675 51.6763H172.384C171.411 51.6763 170.621 51.0779 170.621 50.3399C170.621 49.6019 171.411 49.0035 172.384 49.0035H177.675C178.649 49.0035 179.438 49.602 179.438 50.3399C179.438 51.078 178.649 51.6763 177.675 51.6763ZM164.89 51.6763H159.599C158.625 51.6763 157.836 51.0779 157.836 50.3399C157.836 49.6019 158.626 49.0035 159.599 49.0035H164.89C165.864 49.0035 166.653 49.602 166.653 50.3399C166.653 51.078 165.864 51.6763 164.89 51.6763ZM152.105 51.6763H146.814C145.84 51.6763 145.051 51.0779 145.051 50.3399C145.051 49.6019 145.84 49.0035 146.814 49.0035H152.105C153.079 49.0035 153.868 49.602 153.868 50.3399C153.868 51.078 153.079 51.6763 152.105 51.6763Z" fill="url(#paint22_linear_2332_327)"></path><path d="M226.184 51.6762H223.539C222.565 51.6762 221.775 51.0778 221.775 50.3398C221.775 49.6018 222.565 49.0034 223.539 49.0034H226.184C227.158 49.0034 227.947 49.6019 227.947 50.3398C227.948 51.0779 227.158 51.6762 226.184 51.6762Z" fill="url(#paint23_linear_2332_327)"></path><path d="M202.016 222.592C198.591 231.266 182.597 276.303 181.77 272.541C181.77 272.541 176.514 272.902 175.054 264.342C174.907 263.477 174.798 262.521 174.738 261.464C174.078 249.95 175.003 206.253 180.8 212.647C186.595 219.04 186.012 223.207 186.993 216.137C187.975 209.067 189.259 202.181 194.453 205.668C194.749 205.868 195.046 206.071 195.346 206.278C200.275 209.713 205.245 214.415 202.016 222.592Z" fill="url(#paint24_linear_2332_327)"></path><path opacity="0.3" d="M202.017 222.592C198.592 231.266 182.598 276.303 181.77 272.541C181.77 272.541 176.515 272.902 175.055 264.342C175.692 258.569 181.704 252.947 184.045 250.44C187.562 246.679 189.216 246.052 186.941 238.749C184.666 231.446 186.321 228.026 192.732 217.525C195.626 212.785 195.907 209.003 195.347 206.278C200.275 209.713 205.245 214.415 202.017 222.592Z" fill="url(#paint25_linear_2332_327)"></path><path d="M228.875 247.225C219.068 255.109 192.066 270.402 183.85 271.832C182.006 272.153 181.107 271.776 181.562 270.461C181.562 270.461 189.512 209.032 212.284 207.255C215.333 207.018 219.607 207.164 222.327 208.351C222.796 208.556 223.22 208.78 223.607 209.023C229.708 212.865 225.878 221.229 223.19 225.719C222.191 227.391 220.602 228.762 219.453 230.366C218.476 231.73 218.147 233.542 220.734 233.381C223.108 233.231 224.655 231.118 226.79 230.528C229.214 229.862 231.12 230.759 232.689 233.013C235.994 237.758 233.588 243.436 228.875 247.225Z" fill="url(#paint26_linear_2332_327)"></path><path opacity="0.3" d="M228.869 247.225C219.061 255.109 192.06 270.402 183.844 271.832C184.905 269.923 186.146 267.798 187.599 265.45C196.219 251.515 212.66 254.333 206.371 244.099C200.082 233.864 200.954 223.765 213.122 218.922C220.321 216.055 222.786 211.921 223.6 209.023C229.702 212.865 225.872 221.229 223.184 225.719C222.185 227.391 220.595 228.762 219.446 230.366C218.47 231.73 218.141 233.542 220.727 233.381C223.101 233.231 224.648 231.118 226.784 230.528C229.207 229.862 231.114 230.759 232.682 233.013C235.988 237.758 233.582 243.436 228.869 247.225Z" fill="url(#paint27_linear_2332_327)"></path><path d="M93.9766 267.777V273.07L93.9867 273.071C94.4149 276.265 112.047 282.133 137.656 282.241C175.311 282.401 188.028 276.028 188.619 272.765H188.633V267.888L93.9766 267.777Z" fill="url(#paint28_linear_2332_327)"></path><path d="M188.633 267.908C188.633 271.198 166.907 273.796 140.54 273.712C114.639 273.63 93.9766 270.982 93.9766 267.796C93.9766 264.611 114.639 262.011 140.54 261.99C166.907 261.968 188.633 264.618 188.633 267.908Z" fill="url(#paint29_linear_2332_327)"></path><path d="M188.262 267.507C188.262 270.773 166.702 273.357 140.529 273.28C114.813 273.205 94.293 270.581 94.293 267.417C94.293 264.254 114.813 261.669 140.529 261.643C166.702 261.616 188.262 264.242 188.262 267.507Z" fill="url(#paint30_linear_2332_327)"></path><path d="M188.633 272.766V267.888L93.9766 267.777V273.07L188.633 272.766Z" fill="url(#paint31_linear_2332_327)"></path><path d="M188.633 267.908C188.633 271.198 166.907 273.796 140.54 273.712C114.639 273.63 93.9766 270.982 93.9766 267.796C93.9766 264.611 114.639 262.011 140.54 261.99C166.907 261.968 188.633 264.618 188.633 267.908Z" fill="url(#paint32_linear_2332_327)"></path><path d="M188.262 267.507C188.262 270.773 166.702 273.357 140.529 273.28C114.813 273.205 94.293 270.581 94.293 267.417C94.293 264.254 114.813 261.669 140.529 261.643C166.702 261.616 188.262 264.242 188.262 267.507Z" fill="url(#paint33_linear_2332_327)"></path><path d="M93.9766 257.745V263.038L93.9867 263.039C94.4149 266.233 112.047 271.823 137.656 271.723C178.239 271.565 188.028 265.996 188.619 262.733H188.633V257.856L93.9766 257.745Z" fill="url(#paint34_linear_2332_327)"></path><path d="M188.633 257.876C188.633 261.166 166.907 263.764 140.54 263.68C114.639 263.598 93.9766 260.95 93.9766 257.764C93.9766 254.578 114.639 251.979 140.54 251.958C166.907 251.936 188.633 254.585 188.633 257.876Z" fill="url(#paint35_linear_2332_327)"></path><path d="M188.262 257.475C188.262 260.741 166.702 263.325 140.529 263.248C114.813 263.173 94.293 260.548 94.293 257.385C94.293 254.222 114.813 251.637 140.529 251.611C166.702 251.584 188.262 254.21 188.262 257.475Z" fill="url(#paint36_linear_2332_327)"></path><path d="M188.633 262.733V257.856L93.9766 257.745V263.038L188.633 262.733Z" fill="url(#paint37_linear_2332_327)"></path><path d="M188.633 257.876C188.633 261.166 166.907 263.764 140.54 263.68C114.639 263.598 93.9766 260.95 93.9766 257.764C93.9766 254.578 114.639 251.979 140.54 251.958C166.907 251.936 188.633 254.585 188.633 257.876Z" fill="url(#paint38_linear_2332_327)"></path><path d="M188.262 257.475C188.262 260.741 166.702 263.325 140.529 263.248C114.813 263.173 94.293 260.548 94.293 257.385C94.293 254.222 114.813 251.637 140.529 251.611C166.702 251.584 188.262 254.21 188.262 257.475Z" fill="url(#paint39_linear_2332_327)"></path><path d="M93.9766 247.688V252.982L93.9867 252.982C94.4149 256.177 112.047 261.766 137.656 261.666C178.239 261.508 188.028 255.94 188.619 252.677H188.633V247.799L93.9766 247.688Z" fill="url(#paint40_linear_2332_327)"></path><path d="M188.633 247.819C188.633 251.109 166.907 253.707 140.54 253.624C114.639 253.541 93.9766 250.893 93.9766 247.707C93.9766 244.522 114.639 241.922 140.54 241.901C166.907 241.879 188.633 244.529 188.633 247.819Z" fill="url(#paint41_linear_2332_327)"></path><path d="M188.262 247.419C188.262 250.684 166.702 253.268 140.529 253.192C114.813 253.116 94.293 250.492 94.293 247.329C94.293 244.165 114.813 241.58 140.529 241.554C166.702 241.528 188.262 244.153 188.262 247.419Z" fill="url(#paint42_linear_2332_327)"></path><path d="M188.633 252.677V247.799L93.9766 247.688V252.982L188.633 252.677Z" fill="url(#paint43_linear_2332_327)"></path><path d="M188.633 247.819C188.633 251.109 166.907 253.707 140.54 253.624C114.639 253.541 93.9766 250.893 93.9766 247.707C93.9766 244.522 114.639 241.922 140.54 241.901C166.907 241.879 188.633 244.529 188.633 247.819Z" fill="url(#paint44_linear_2332_327)"></path><path d="M188.262 247.419C188.262 250.684 166.702 253.268 140.529 253.192C114.813 253.116 94.293 250.492 94.293 247.329C94.293 244.165 114.813 241.58 140.529 241.554C166.702 241.528 188.262 244.153 188.262 247.419Z" fill="url(#paint45_linear_2332_327)"></path><path d="M93.9766 237.632V242.925L93.9867 242.925C94.4149 246.12 112.047 251.709 137.656 251.609C178.239 251.451 188.028 245.883 188.619 242.62H188.633V237.743L93.9766 237.632Z" fill="url(#paint46_linear_2332_327)"></path><path d="M188.633 237.762C188.633 241.053 166.907 243.651 140.54 243.567C114.639 243.484 93.9766 240.836 93.9766 237.65C93.9766 234.465 114.639 231.866 140.54 231.844C166.907 231.823 188.633 234.472 188.633 237.762Z" fill="url(#paint47_linear_2332_327)"></path><path d="M188.262 237.362C188.262 240.627 166.702 243.212 140.529 243.135C114.813 243.059 94.293 240.435 94.293 237.272C94.293 234.108 114.813 231.523 140.529 231.497C166.702 231.471 188.262 234.096 188.262 237.362Z" fill="url(#paint48_linear_2332_327)"></path><path d="M188.633 242.62V237.743L93.9766 237.632V242.925L188.633 242.62Z" fill="url(#paint49_linear_2332_327)"></path><path d="M188.633 237.762C188.633 241.053 166.907 243.651 140.54 243.567C114.639 243.484 93.9766 240.836 93.9766 237.65C93.9766 234.465 114.639 231.866 140.54 231.844C166.907 231.823 188.633 234.472 188.633 237.762Z" fill="url(#paint50_linear_2332_327)"></path><path d="M188.262 237.362C188.262 240.627 166.702 243.212 140.529 243.135C114.813 243.059 94.293 240.435 94.293 237.272C94.293 234.108 114.813 231.523 140.529 231.497C166.702 231.471 188.262 234.096 188.262 237.362Z" fill="url(#paint51_linear_2332_327)"></path><path d="M93.9766 227.575V232.868L93.9867 232.868C94.4149 236.063 112.047 241.653 137.656 241.553C178.239 241.395 188.028 235.826 188.619 232.563H188.633V227.686L93.9766 227.575Z" fill="url(#paint52_linear_2332_327)"></path><path d="M188.633 227.706C188.633 230.996 166.907 233.594 140.54 233.51C114.639 233.428 93.9766 230.779 93.9766 227.594C93.9766 224.408 114.639 221.809 140.54 221.787C166.907 221.766 188.633 224.415 188.633 227.706Z" fill="url(#paint53_linear_2332_327)"></path><path d="M188.262 227.305C188.262 230.571 166.702 233.155 140.529 233.078C114.813 233.003 94.293 230.378 94.293 227.215C94.293 224.052 114.813 221.467 140.529 221.441C166.702 221.414 188.262 224.039 188.262 227.305Z" fill="url(#paint54_linear_2332_327)"></path><path d="M188.633 232.563V227.686L93.9766 227.575V232.868L188.633 232.563Z" fill="url(#paint55_linear_2332_327)"></path><path d="M188.633 227.706C188.633 230.996 166.907 233.594 140.54 233.51C114.639 233.428 93.9766 230.779 93.9766 227.594C93.9766 224.408 114.639 221.809 140.54 221.787C166.907 221.766 188.633 224.415 188.633 227.706Z" fill="url(#paint56_linear_2332_327)"></path><path d="M188.262 227.305C188.262 230.571 166.702 233.155 140.529 233.078C114.813 233.003 94.293 230.378 94.293 227.215C94.293 224.052 114.813 221.467 140.529 221.441C166.702 221.414 188.262 224.039 188.262 227.305Z" fill="url(#paint57_linear_2332_327)"></path><path d="M93.9766 217.518V222.811L93.9867 222.812C94.4149 226.006 112.047 231.596 137.656 231.496C178.239 231.338 188.028 225.769 188.619 222.506H188.633V217.629L93.9766 217.518Z" fill="url(#paint58_linear_2332_327)"></path><path d="M188.633 217.649C188.633 220.939 166.907 223.537 140.54 223.453C114.639 223.371 93.9766 220.722 93.9766 217.537C93.9766 214.351 114.639 211.752 140.54 211.731C166.907 211.709 188.633 214.358 188.633 217.649Z" fill="url(#paint59_linear_2332_327)"></path><path d="M188.262 217.248C188.262 220.514 166.702 223.098 140.529 223.021C114.813 222.946 94.293 220.321 94.293 217.158C94.293 213.995 114.813 211.41 140.529 211.384C166.702 211.357 188.262 213.983 188.262 217.248Z" fill="url(#paint60_linear_2332_327)"></path><path d="M188.633 222.507V217.629L93.9766 217.518V222.811L188.633 222.507Z" fill="url(#paint61_linear_2332_327)"></path><path d="M188.633 217.649C188.633 220.939 166.907 223.537 140.54 223.453C114.639 223.371 93.9766 220.722 93.9766 217.537C93.9766 214.351 114.639 211.752 140.54 211.731C166.907 211.709 188.633 214.358 188.633 217.649Z" fill="url(#paint62_linear_2332_327)"></path><path d="M188.262 217.248C188.262 220.514 166.702 223.098 140.529 223.021C114.813 222.946 94.293 220.321 94.293 217.158C94.293 213.995 114.813 211.41 140.529 211.384C166.702 211.357 188.262 213.983 188.262 217.248Z" fill="url(#paint63_linear_2332_327)"></path><path d="M93.9766 207.461V212.754L93.9867 212.755C94.4149 215.95 112.047 221.539 137.656 221.439C178.239 221.281 188.028 215.712 188.619 212.45H188.633V207.572L93.9766 207.461Z" fill="url(#paint64_linear_2332_327)"></path><path d="M188.633 207.592C188.633 210.882 166.907 213.48 140.54 213.397C114.639 213.314 93.9766 210.666 93.9766 207.48C93.9766 204.295 114.639 201.695 140.54 201.674C166.907 201.652 188.633 204.302 188.633 207.592Z" fill="url(#paint65_linear_2332_327)"></path><path d="M188.262 207.192C188.262 210.457 166.702 213.041 140.529 212.965C114.813 212.889 94.293 210.265 94.293 207.102C94.293 203.938 114.813 201.353 140.529 201.327C166.702 201.301 188.262 203.926 188.262 207.192Z" fill="url(#paint66_linear_2332_327)"></path><path d="M188.633 212.45V207.572L93.9766 207.461V212.755L188.633 212.45Z" fill="url(#paint67_linear_2332_327)"></path><path d="M188.633 207.592C188.633 210.882 166.907 213.48 140.54 213.397C114.639 213.314 93.9766 210.666 93.9766 207.48C93.9766 204.295 114.639 201.695 140.54 201.674C166.907 201.652 188.633 204.302 188.633 207.592Z" fill="url(#paint68_linear_2332_327)"></path><path d="M188.262 207.192C188.262 210.457 166.702 213.041 140.529 212.965C114.813 212.889 94.293 210.265 94.293 207.102C94.293 203.938 114.813 201.353 140.529 201.327C166.702 201.301 188.262 203.926 188.262 207.192Z" fill="url(#paint69_linear_2332_327)"></path><path d="M145.636 190.826L187.182 182.951L189.261 190.6L151.226 203.903L121.11 198.266L102.943 184.748L145.636 190.826Z" fill="url(#paint70_linear_2332_327)"></path><path d="M145.636 190.826L187.182 182.951L189.261 190.6L151.226 203.903L121.11 198.266L102.943 184.748L145.636 190.826Z" fill="url(#paint71_linear_2332_327)"></path><path d="M144.33 201.414C152.588 198.059 158.686 194.642 162.826 192.06C170.97 186.978 174.707 183.144 182.952 181.629C184.426 181.359 192.822 179.816 195.531 182.641C198.531 185.77 192.699 192.312 191.991 193.106C181.456 204.923 154.629 204.372 146.215 203.988C145.587 203.13 144.958 202.272 144.33 201.414Z" fill="url(#paint72_linear_2332_327)"></path><path opacity="0.3" d="M195.533 182.642C194.741 181.816 193.458 181.37 192.01 181.15C192.492 182.415 192.536 183.601 191.933 184.638C190.287 187.472 185.413 186.599 181.989 189.925C178.626 193.191 180.954 196.339 177.982 197.686C174.575 199.23 170.351 195.623 166.701 197.349C164.22 198.522 164.992 200.748 162.1 201.96C160.102 202.798 158.143 202.402 155.866 202.185C153.257 201.937 149.682 201.884 145.195 202.594C145.536 203.059 145.876 203.524 146.216 203.988C154.631 204.372 181.458 204.923 191.992 193.106C192.7 192.312 198.532 185.77 195.533 182.642Z" fill="url(#paint73_linear_2332_327)"></path><path d="M150.576 203.18C150.576 203.18 152.089 202.358 154.285 202.918C156.481 203.478 159.967 203.931 159.962 204.744C159.956 205.558 156.468 206.067 154.058 205.733C151.752 205.413 149.939 203.894 150.576 203.18Z" fill="url(#paint74_linear_2332_327)"></path><path d="M148.358 201.791L152.399 202.777C152.399 202.777 153.055 203.605 152.169 204.131C151.283 204.656 148.205 203.545 148.205 203.545L148.358 201.791Z" fill="url(#paint75_linear_2332_327)"></path><path d="M92.1905 187.675C90.9973 192.94 105.989 198.634 109.422 199.938C116.416 202.595 129.577 206.346 149.111 204.913C149.371 203.732 149.63 202.551 149.89 201.37C147.31 200.7 143.486 199.611 139.048 197.957C131.476 195.134 128.6 193.118 118.092 188.303C106.463 182.975 103.076 182.292 99.6117 182.951C96.6491 183.515 92.7447 185.229 92.1905 187.675Z" fill="url(#paint76_linear_2332_327)"></path><path d="M107.81 177.664C105.276 170.718 109.459 161.346 118.274 156.827C125.469 153.139 133.899 153.378 136.53 153.453C139.41 153.535 139.112 153.818 148.177 155.089C160.761 156.853 161.923 156.426 165.584 157.755C172.467 160.255 175.807 164.798 176.432 165.681C179.631 170.205 182.235 178.614 176.159 182.726C172.705 185.064 167.863 185.054 165.139 184.835C164.953 183.907 164.768 182.979 164.582 182.051C165.136 181.726 168.408 179.738 168.812 176.23C169.277 172.198 165.558 169.596 165.139 169.313C163.82 171.242 162.196 174.172 161.465 177.917C160.521 182.754 161.499 186.731 162.326 189.07C158.998 190.454 153.495 192.333 146.326 192.934C140.925 193.386 134.237 193.947 129.962 191.415C123.929 187.842 123.419 178.537 129.377 168.853C127.196 169.96 124.037 171.963 122.726 175.133C122.528 175.613 122.193 176.554 122.058 180.195C121.818 186.738 110.436 184.862 107.81 177.664Z" fill="white"></path><path opacity="0.2" d="M148.664 182.473C145.628 182.755 144.802 185.143 141.985 185.004C135.855 184.699 130.936 176.658 133.525 172.265C135.213 169.401 139.614 168.902 139.313 167.035C139.073 165.541 136.019 164.391 133.525 164.335C129.642 164.248 127.078 166.811 126.178 167.71C124.075 169.811 123.622 172.119 123.574 173.603C125.117 171.309 127.575 169.768 129.378 168.853C123.42 178.537 123.93 187.842 129.963 191.415C134.238 193.947 140.925 193.386 146.326 192.934C152.145 192.446 156.866 191.116 160.218 189.893C156.961 185.875 152.813 182.087 148.664 182.473Z" fill="url(#paint77_linear_2332_327)"></path><path d="M159.251 189.025L123.729 188.623L133.175 192.078L159.342 190.78L159.251 189.025Z" fill="url(#paint78_linear_2332_327)"></path><path d="M122.471 189.338C122.471 189.842 122.887 190.292 123.511 190.464L134.862 193.837L134.914 191.499L123.724 188.623C123.096 188.486 122.471 188.843 122.471 189.338Z" fill="url(#paint79_linear_2332_327)"></path><path d="M109.526 173.036C112.267 171.07 118.991 172.308 121.5 175.133C123.347 177.213 121.818 178.925 123.17 181.545C124.826 184.755 131.07 187.657 134.908 188.623C134.307 189.603 134.484 189.857 133.884 190.837C131.442 190.606 113.795 188.558 109.478 180.617C109.253 180.203 106.586 175.144 109.526 173.036Z" fill="white"></path><path d="M151.003 151.586C151.003 151.586 147.783 154.225 145.109 154.5C142.436 154.774 138.573 154.236 137.907 154.5C137.241 154.763 141.264 155.848 144.455 156.511C147.646 157.174 153.439 158.499 155.041 158.209C156.643 157.919 153.291 156.363 151.963 155.95C150.636 155.537 152.536 153.418 152.536 153.418L151.003 151.586Z" fill="url(#paint80_linear_2332_327)"></path><path d="M155.793 153.097C156.957 152.854 158.021 151.863 158.008 150.836C157.996 149.953 157.178 149.35 156.688 148.989C155.269 147.943 152.802 147.288 151.013 147.976C149.953 148.384 149.47 150.233 149.362 150.554C149.241 150.917 149.428 151.175 149.48 151.533C149.551 152.029 149.656 152.812 149.808 154.11C150.107 153.928 150.498 153.715 150.976 153.515C151.16 153.439 151.887 153.144 152.673 153.006C154.248 152.729 154.689 153.328 155.793 153.097Z" fill="url(#paint81_linear_2332_327)"></path><path d="M149.143 152.703C149.143 152.703 148.873 154.575 151.015 155.665C152.932 156.641 156.354 153.694 155.857 152.354C155.691 151.907 155.005 151.361 154.235 151.126C153.779 150.987 153.533 151.031 152.795 150.793C152.115 150.573 152.003 150.432 151.721 150.441C151.368 150.453 150.871 150.696 150.306 151.812C150.23 151.341 149.916 150.995 149.512 150.928C149.447 150.917 149.256 150.908 149.086 150.965C148.47 151.171 148.438 151.873 149.143 152.703Z" fill="url(#paint82_linear_2332_327)"></path><path d="M151.826 150.207C151.863 150.309 151.341 150.401 150.963 150.741C150.228 151.402 150.307 152.757 151.169 153.371C151.678 153.733 152.085 153.57 153.07 154.029C153.68 154.313 154.094 154.641 154.34 154.863C153.864 155.78 152.834 156.371 151.82 156.332C150.727 156.289 150.048 155.531 149.764 155.215C149.574 155.003 148.963 154.325 149.113 153.509C149.27 152.659 150.067 152.558 149.964 151.861C149.912 151.509 149.663 151.225 149.731 150.643C149.749 150.485 149.785 150.356 149.813 150.272C150.668 150.168 151.771 150.061 151.826 150.207Z" fill="url(#paint83_linear_2332_327)"></path><path d="M153.396 154.754C153.396 154.754 152.842 154.68 152.191 154.253C152.159 154.232 152.115 154.218 152.097 154.229C152.032 154.269 152.246 154.743 152.736 154.893C153.084 154.999 153.515 154.923 153.53 154.849C153.536 154.817 153.468 154.782 153.396 154.754Z" fill="url(#paint84_linear_2332_327)"></path><path d="M135.856 175.095L133.352 192.373C133.266 192.969 134.367 193.857 135.158 193.829L171.89 192.12C172.494 192.098 172.996 191.761 173.099 191.31L177.709 174.623C177.847 174.016 176.406 173.388 175.593 173.406L137.1 174.226C136.458 174.24 135.927 174.611 135.856 175.095Z" fill="url(#paint85_linear_2332_327)"></path><path d="M136.695 175.599L134.191 192.876C134.105 193.473 134.742 193.986 135.532 193.958L172.729 192.623C173.333 192.602 173.835 192.265 173.938 191.814L177.738 175.05C177.876 174.443 177.245 173.892 176.432 173.91L137.939 174.73C137.296 174.744 136.765 175.114 136.695 175.599Z" fill="url(#paint86_linear_2332_327)"></path><path opacity="0.3" d="M158.532 188.575C155.284 187.532 156.43 185.542 152.595 183.063C147.535 179.793 142.378 181.211 140.572 178.677C140.01 177.887 139.742 176.659 140.721 174.67L137.933 174.73C137.291 174.743 136.76 175.114 136.689 175.599L134.186 192.876C134.099 193.473 134.736 193.986 135.527 193.958L172.724 192.623C173.327 192.602 173.83 192.265 173.932 191.814L174.456 189.501C173.328 189.025 171.979 188.592 170.406 188.35C164.948 187.511 162.271 189.776 158.532 188.575Z" fill="url(#paint87_linear_2332_327)"></path><defs><linearGradient id="paint0_linear_2332_327" x1="400.149" y1="142.643" x2="400.908" y2="513.539" gradientUnits="userSpaceOnUse"><stop stop-color="#AA80F9"></stop><stop offset="0.9964" stop-color="#6165D7"></stop></linearGradient><linearGradient id="paint1_linear_2332_327" x1="224.348" y1="246.006" x2="205.902" y2="256.229" gradientUnits="userSpaceOnUse"><stop stop-color="#40447E"></stop><stop offset="0.9964" stop-color="#3C3B6B"></stop></linearGradient><linearGradient id="paint2_linear_2332_327" x1="196.981" y1="177.549" x2="176.963" y2="188.644" gradientUnits="userSpaceOnUse"><stop stop-color="#40447E"></stop><stop offset="0.9964" stop-color="#3C3B6B"></stop></linearGradient><linearGradient id="paint3_linear_2332_327" x1="101.107" y1="181.382" x2="307.242" y2="181.382" gradientUnits="userSpaceOnUse"><stop stop-color="#40447E"></stop><stop offset="0.9964" stop-color="#3C3B6B"></stop></linearGradient><linearGradient id="paint4_linear_2332_327" x1="273.508" y1="103.597" x2="161.088" y2="310.896" gradientUnits="userSpaceOnUse"><stop stop-color="#FFC444"></stop><stop offset="0.9964" stop-color="#F36F56"></stop></linearGradient><linearGradient id="paint5_linear_2332_327" x1="101.107" y1="239.15" x2="392.873" y2="239.15" gradientUnits="userSpaceOnUse"><stop stop-color="#40447E"></stop><stop offset="0.9964" stop-color="#3C3B6B"></stop></linearGradient><linearGradient id="paint6_linear_2332_327" x1="203.232" y1="178.715" x2="236.846" y2="178.715" gradientUnits="userSpaceOnUse"><stop stop-color="#FF9085"></stop><stop offset="1" stop-color="#FB6FBB"></stop></linearGradient><linearGradient id="paint7_linear_2332_327" x1="129.725" y1="237.338" x2="343.499" y2="237.338" gradientUnits="userSpaceOnUse"><stop stop-color="#40447E"></stop><stop offset="0.9964" stop-color="#3C3B6B"></stop></linearGradient><linearGradient id="paint8_linear_2332_327" x1="384.153" y1="262.013" x2="341.054" y2="213.5" gradientUnits="userSpaceOnUse"><stop stop-color="#444B8C"></stop><stop offset="0.9964" stop-color="#26264F"></stop></linearGradient><linearGradient id="paint9_linear_2332_327" x1="337.431" y1="273.279" x2="341.725" y2="120.97" gradientUnits="userSpaceOnUse"><stop stop-color="#444B8C"></stop><stop offset="0.9964" stop-color="#26264F"></stop></linearGradient><linearGradient id="paint10_linear_2332_327" x1="357.711" y1="212.911" x2="309.069" y2="299.212" gradientUnits="userSpaceOnUse"><stop stop-color="#FFC444"></stop><stop offset="0.9964" stop-color="#F36F56"></stop></linearGradient><linearGradient id="paint11_linear_2332_327" x1="328.26" y1="226.138" x2="354.578" y2="226.138" gradientUnits="userSpaceOnUse"><stop stop-color="#FF9085"></stop><stop offset="1" stop-color="#FB6FBB"></stop></linearGradient><linearGradient id="paint12_linear_2332_327" x1="423.325" y1="271.038" x2="396.483" y2="240.824" gradientUnits="userSpaceOnUse"><stop stop-color="#444B8C"></stop><stop offset="0.9964" stop-color="#26264F"></stop></linearGradient><linearGradient id="paint13_linear_2332_327" x1="393.973" y1="280.456" x2="396.896" y2="176.795" gradientUnits="userSpaceOnUse"><stop stop-color="#444B8C"></stop><stop offset="0.9964" stop-color="#26264F"></stop></linearGradient><linearGradient id="paint14_linear_2332_327" x1="406.968" y1="240.288" x2="376.03" y2="295.177" gradientUnits="userSpaceOnUse"><stop stop-color="#FFC444"></stop><stop offset="0.9964" stop-color="#F36F56"></stop></linearGradient><linearGradient id="paint15_linear_2332_327" x1="388.752" y1="248.871" x2="404.311" y2="248.871" gradientUnits="userSpaceOnUse"><stop stop-color="#FF9085"></stop><stop offset="1" stop-color="#FB6FBB"></stop></linearGradient><linearGradient id="paint16_linear_2332_327" x1="191.301" y1="65.5807" x2="414.594" y2="65.5807" gradientUnits="userSpaceOnUse"><stop stop-color="#444B8C"></stop><stop offset="0.9964" stop-color="#26264F"></stop></linearGradient><linearGradient id="paint17_linear_2332_327" x1="196.588" y1="66.839" x2="420.024" y2="66.839" gradientUnits="userSpaceOnUse"><stop offset="0.0036" stop-color="#E38DDD"></stop><stop offset="1" stop-color="#9571F6"></stop></linearGradient><linearGradient id="paint18_linear_2332_327" x1="345.414" y1="146.523" x2="346.174" y2="517.418" gradientUnits="userSpaceOnUse"><stop stop-color="#AA80F9"></stop><stop offset="0.9964" stop-color="#6165D7"></stop></linearGradient><linearGradient id="paint19_linear_2332_327" x1="136.735" y1="124.95" x2="137.495" y2="495.845" gradientUnits="userSpaceOnUse"><stop stop-color="#AA80F9"></stop><stop offset="0.9964" stop-color="#6165D7"></stop></linearGradient><linearGradient id="paint20_linear_2332_327" x1="136.839" y1="124.95" x2="137.599" y2="495.845" gradientUnits="userSpaceOnUse"><stop stop-color="#AA80F9"></stop><stop offset="0.9964" stop-color="#6165D7"></stop></linearGradient><linearGradient id="paint21_linear_2332_327" x1="138.269" y1="124.947" x2="139.028" y2="495.843" gradientUnits="userSpaceOnUse"><stop stop-color="#AA80F9"></stop><stop offset="0.9964" stop-color="#6165D7"></stop></linearGradient><linearGradient id="paint22_linear_2332_327" x1="181.688" y1="124.859" x2="182.448" y2="495.761" gradientUnits="userSpaceOnUse"><stop stop-color="#AA80F9"></stop><stop offset="0.9964" stop-color="#6165D7"></stop></linearGradient><linearGradient id="paint23_linear_2332_327" x1="225.127" y1="124.769" x2="225.887" y2="495.665" gradientUnits="userSpaceOnUse"><stop stop-color="#AA80F9"></stop><stop offset="0.9964" stop-color="#6165D7"></stop></linearGradient><linearGradient id="paint24_linear_2332_327" x1="174.555" y1="238.749" x2="203.045" y2="238.749" gradientUnits="userSpaceOnUse"><stop stop-color="#AA80F9"></stop><stop offset="0.9964" stop-color="#6165D7"></stop></linearGradient><linearGradient id="paint25_linear_2332_327" x1="175.055" y1="239.521" x2="203.045" y2="239.521" gradientUnits="userSpaceOnUse"><stop stop-color="#AA80F9"></stop><stop offset="0.9964" stop-color="#6165D7"></stop></linearGradient><linearGradient id="paint26_linear_2332_327" x1="186.265" y1="238.434" x2="233.182" y2="245.386" gradientUnits="userSpaceOnUse"><stop offset="0.0036" stop-color="#E38DDD"></stop><stop offset="1" stop-color="#9571F6"></stop></linearGradient><linearGradient id="paint27_linear_2332_327" x1="188.687" y1="239.148" x2="233.124" y2="245.733" gradientUnits="userSpaceOnUse"><stop offset="0.0036" stop-color="#E38DDD"></stop><stop offset="1" stop-color="#9571F6"></stop></linearGradient><linearGradient id="paint28_linear_2332_327" x1="112.447" y1="253.743" x2="143.722" y2="286.11" gradientUnits="userSpaceOnUse"><stop stop-color="#FF9085"></stop><stop offset="1" stop-color="#FB6FBB"></stop></linearGradient><linearGradient id="paint29_linear_2332_327" x1="220.064" y1="279.006" x2="104.918" y2="253.841" gradientUnits="userSpaceOnUse"><stop stop-color="#311944"></stop><stop offset="1" stop-color="#893976"></stop></linearGradient><linearGradient id="paint30_linear_2332_327" x1="141.407" y1="272.469" x2="141.429" y2="259.857" gradientUnits="userSpaceOnUse"><stop stop-color="#FF9085"></stop><stop offset="1" stop-color="#FB6FBB"></stop></linearGradient><linearGradient id="paint31_linear_2332_327" x1="112.7" y1="253.477" x2="143.797" y2="285.66" gradientUnits="userSpaceOnUse"><stop stop-color="#FF9085"></stop><stop offset="1" stop-color="#FB6FBB"></stop></linearGradient><linearGradient id="paint32_linear_2332_327" x1="220.064" y1="279.006" x2="104.918" y2="253.841" gradientUnits="userSpaceOnUse"><stop stop-color="#311944"></stop><stop offset="1" stop-color="#893976"></stop></linearGradient><linearGradient id="paint33_linear_2332_327" x1="141.407" y1="272.469" x2="141.429" y2="259.857" gradientUnits="userSpaceOnUse"><stop stop-color="#FF9085"></stop><stop offset="1" stop-color="#FB6FBB"></stop></linearGradient><linearGradient id="paint34_linear_2332_327" x1="112.458" y1="243.704" x2="143.767" y2="276.106" gradientUnits="userSpaceOnUse"><stop stop-color="#FF9085"></stop><stop offset="1" stop-color="#FB6FBB"></stop></linearGradient><linearGradient id="paint35_linear_2332_327" x1="220.064" y1="268.973" x2="104.918" y2="243.809" gradientUnits="userSpaceOnUse"><stop stop-color="#311944"></stop><stop offset="1" stop-color="#893976"></stop></linearGradient><linearGradient id="paint36_linear_2332_327" x1="141.407" y1="262.437" x2="141.429" y2="249.824" gradientUnits="userSpaceOnUse"><stop stop-color="#FF9085"></stop><stop offset="1" stop-color="#FB6FBB"></stop></linearGradient><linearGradient id="paint37_linear_2332_327" x1="112.7" y1="243.445" x2="143.797" y2="275.628" gradientUnits="userSpaceOnUse"><stop stop-color="#FF9085"></stop><stop offset="1" stop-color="#FB6FBB"></stop></linearGradient><linearGradient id="paint38_linear_2332_327" x1="220.064" y1="268.973" x2="104.918" y2="243.809" gradientUnits="userSpaceOnUse"><stop stop-color="#311944"></stop><stop offset="1" stop-color="#893976"></stop></linearGradient><linearGradient id="paint39_linear_2332_327" x1="141.407" y1="262.437" x2="141.429" y2="249.824" gradientUnits="userSpaceOnUse"><stop stop-color="#FF9085"></stop><stop offset="1" stop-color="#FB6FBB"></stop></linearGradient><linearGradient id="paint40_linear_2332_327" x1="112.458" y1="233.647" x2="143.767" y2="266.05" gradientUnits="userSpaceOnUse"><stop stop-color="#FF9085"></stop><stop offset="1" stop-color="#FB6FBB"></stop></linearGradient><linearGradient id="paint41_linear_2332_327" x1="220.064" y1="258.917" x2="104.918" y2="233.752" gradientUnits="userSpaceOnUse"><stop stop-color="#311944"></stop><stop offset="1" stop-color="#893976"></stop></linearGradient><linearGradient id="paint42_linear_2332_327" x1="141.407" y1="252.38" x2="141.429" y2="239.768" gradientUnits="userSpaceOnUse"><stop stop-color="#FF9085"></stop><stop offset="1" stop-color="#FB6FBB"></stop></linearGradient><linearGradient id="paint43_linear_2332_327" x1="112.7" y1="233.388" x2="143.797" y2="265.571" gradientUnits="userSpaceOnUse"><stop stop-color="#FF9085"></stop><stop offset="1" stop-color="#FB6FBB"></stop></linearGradient><linearGradient id="paint44_linear_2332_327" x1="220.064" y1="258.917" x2="104.918" y2="233.752" gradientUnits="userSpaceOnUse"><stop stop-color="#311944"></stop><stop offset="1" stop-color="#893976"></stop></linearGradient><linearGradient id="paint45_linear_2332_327" x1="141.407" y1="252.38" x2="141.429" y2="239.768" gradientUnits="userSpaceOnUse"><stop stop-color="#FF9085"></stop><stop offset="1" stop-color="#FB6FBB"></stop></linearGradient><linearGradient id="paint46_linear_2332_327" x1="112.458" y1="223.591" x2="143.767" y2="255.993" gradientUnits="userSpaceOnUse"><stop stop-color="#FF9085"></stop><stop offset="1" stop-color="#FB6FBB"></stop></linearGradient><linearGradient id="paint47_linear_2332_327" x1="220.064" y1="248.86" x2="104.918" y2="223.696" gradientUnits="userSpaceOnUse"><stop stop-color="#311944"></stop><stop offset="1" stop-color="#893976"></stop></linearGradient><linearGradient id="paint48_linear_2332_327" x1="141.407" y1="242.324" x2="141.429" y2="229.711" gradientUnits="userSpaceOnUse"><stop stop-color="#FF9085"></stop><stop offset="1" stop-color="#FB6FBB"></stop></linearGradient><linearGradient id="paint49_linear_2332_327" x1="112.7" y1="223.331" x2="143.797" y2="255.514" gradientUnits="userSpaceOnUse"><stop stop-color="#FF9085"></stop><stop offset="1" stop-color="#FB6FBB"></stop></linearGradient><linearGradient id="paint50_linear_2332_327" x1="220.064" y1="248.86" x2="104.918" y2="223.696" gradientUnits="userSpaceOnUse"><stop stop-color="#311944"></stop><stop offset="1" stop-color="#893976"></stop></linearGradient><linearGradient id="paint51_linear_2332_327" x1="141.407" y1="242.324" x2="141.429" y2="229.711" gradientUnits="userSpaceOnUse"><stop stop-color="#FF9085"></stop><stop offset="1" stop-color="#FB6FBB"></stop></linearGradient><linearGradient id="paint52_linear_2332_327" x1="112.458" y1="213.534" x2="143.767" y2="245.936" gradientUnits="userSpaceOnUse"><stop stop-color="#FF9085"></stop><stop offset="1" stop-color="#FB6FBB"></stop></linearGradient><linearGradient id="paint53_linear_2332_327" x1="220.064" y1="238.803" x2="104.918" y2="213.639" gradientUnits="userSpaceOnUse"><stop stop-color="#311944"></stop><stop offset="1" stop-color="#893976"></stop></linearGradient><linearGradient id="paint54_linear_2332_327" x1="141.407" y1="232.267" x2="141.429" y2="219.654" gradientUnits="userSpaceOnUse"><stop stop-color="#FF9085"></stop><stop offset="1" stop-color="#FB6FBB"></stop></linearGradient><linearGradient id="paint55_linear_2332_327" x1="112.7" y1="213.275" x2="143.797" y2="245.458" gradientUnits="userSpaceOnUse"><stop stop-color="#FF9085"></stop><stop offset="1" stop-color="#FB6FBB"></stop></linearGradient><linearGradient id="paint56_linear_2332_327" x1="220.064" y1="238.803" x2="104.918" y2="213.639" gradientUnits="userSpaceOnUse"><stop stop-color="#311944"></stop><stop offset="1" stop-color="#893976"></stop></linearGradient><linearGradient id="paint57_linear_2332_327" x1="141.407" y1="232.267" x2="141.429" y2="219.654" gradientUnits="userSpaceOnUse"><stop stop-color="#FF9085"></stop><stop offset="1" stop-color="#FB6FBB"></stop></linearGradient><linearGradient id="paint58_linear_2332_327" x1="112.458" y1="203.477" x2="143.767" y2="235.88" gradientUnits="userSpaceOnUse"><stop stop-color="#FF9085"></stop><stop offset="1" stop-color="#FB6FBB"></stop></linearGradient><linearGradient id="paint59_linear_2332_327" x1="220.064" y1="228.747" x2="104.918" y2="203.582" gradientUnits="userSpaceOnUse"><stop stop-color="#311944"></stop><stop offset="1" stop-color="#893976"></stop></linearGradient><linearGradient id="paint60_linear_2332_327" x1="141.407" y1="222.21" x2="141.429" y2="209.598" gradientUnits="userSpaceOnUse"><stop stop-color="#FF9085"></stop><stop offset="1" stop-color="#FB6FBB"></stop></linearGradient><linearGradient id="paint61_linear_2332_327" x1="112.7" y1="203.218" x2="143.797" y2="235.401" gradientUnits="userSpaceOnUse"><stop stop-color="#FF9085"></stop><stop offset="1" stop-color="#FB6FBB"></stop></linearGradient><linearGradient id="paint62_linear_2332_327" x1="220.064" y1="228.747" x2="104.918" y2="203.582" gradientUnits="userSpaceOnUse"><stop stop-color="#311944"></stop><stop offset="1" stop-color="#893976"></stop></linearGradient><linearGradient id="paint63_linear_2332_327" x1="141.407" y1="222.21" x2="141.429" y2="209.598" gradientUnits="userSpaceOnUse"><stop stop-color="#FF9085"></stop><stop offset="1" stop-color="#FB6FBB"></stop></linearGradient><linearGradient id="paint64_linear_2332_327" x1="112.458" y1="193.42" x2="143.767" y2="225.823" gradientUnits="userSpaceOnUse"><stop stop-color="#FF9085"></stop><stop offset="1" stop-color="#FB6FBB"></stop></linearGradient><linearGradient id="paint65_linear_2332_327" x1="220.064" y1="218.69" x2="104.918" y2="193.526" gradientUnits="userSpaceOnUse"><stop stop-color="#311944"></stop><stop offset="1" stop-color="#893976"></stop></linearGradient><linearGradient id="paint66_linear_2332_327" x1="141.407" y1="212.154" x2="141.429" y2="199.541" gradientUnits="userSpaceOnUse"><stop stop-color="#FF9085"></stop><stop offset="1" stop-color="#FB6FBB"></stop></linearGradient><linearGradient id="paint67_linear_2332_327" x1="112.7" y1="193.161" x2="143.797" y2="225.344" gradientUnits="userSpaceOnUse"><stop stop-color="#FF9085"></stop><stop offset="1" stop-color="#FB6FBB"></stop></linearGradient><linearGradient id="paint68_linear_2332_327" x1="220.064" y1="218.69" x2="104.918" y2="193.526" gradientUnits="userSpaceOnUse"><stop stop-color="#311944"></stop><stop offset="1" stop-color="#893976"></stop></linearGradient><linearGradient id="paint69_linear_2332_327" x1="141.407" y1="212.154" x2="141.429" y2="199.541" gradientUnits="userSpaceOnUse"><stop stop-color="#FF9085"></stop><stop offset="1" stop-color="#FB6FBB"></stop></linearGradient><linearGradient id="paint70_linear_2332_327" x1="146.575" y1="180.595" x2="146.063" y2="193.939" gradientUnits="userSpaceOnUse"><stop stop-color="#FF9085"></stop><stop offset="1" stop-color="#FB6FBB"></stop></linearGradient><linearGradient id="paint71_linear_2332_327" x1="146.575" y1="180.595" x2="146.063" y2="193.939" gradientUnits="userSpaceOnUse"><stop stop-color="#AA80F9"></stop><stop offset="0.9964" stop-color="#6165D7"></stop></linearGradient><linearGradient id="paint72_linear_2332_327" x1="144.33" y1="192.553" x2="196.383" y2="192.553" gradientUnits="userSpaceOnUse"><stop stop-color="#AA80F9"></stop><stop offset="0.9964" stop-color="#6165D7"></stop></linearGradient><linearGradient id="paint73_linear_2332_327" x1="144.332" y1="192.644" x2="196.384" y2="192.644" gradientUnits="userSpaceOnUse"><stop stop-color="#AA80F9"></stop><stop offset="0.9964" stop-color="#6165D7"></stop></linearGradient><linearGradient id="paint74_linear_2332_327" x1="159.074" y1="207.902" x2="152.166" y2="196.559" gradientUnits="userSpaceOnUse"><stop stop-color="#311944"></stop><stop offset="1" stop-color="#6B3976"></stop></linearGradient><linearGradient id="paint75_linear_2332_327" x1="152.922" y1="205.658" x2="143.429" y2="189.901" gradientUnits="userSpaceOnUse"><stop stop-color="#FFC444"></stop><stop offset="0.9964" stop-color="#F36F56"></stop></linearGradient><linearGradient id="paint76_linear_2332_327" x1="123.201" y1="192.111" x2="116.042" y2="211.761" gradientUnits="userSpaceOnUse"><stop stop-color="#AA80F9"></stop><stop offset="0.9964" stop-color="#6165D7"></stop></linearGradient><linearGradient id="paint77_linear_2332_327" x1="123.574" y1="178.829" x2="160.217" y2="178.829" gradientUnits="userSpaceOnUse"><stop stop-color="#AA80F9"></stop><stop offset="0.9964" stop-color="#6165D7"></stop></linearGradient><linearGradient id="paint78_linear_2332_327" x1="123.728" y1="190.35" x2="159.342" y2="190.35" gradientUnits="userSpaceOnUse"><stop stop-color="#AA80F9"></stop><stop offset="0.9964" stop-color="#6165D7"></stop></linearGradient><linearGradient id="paint79_linear_2332_327" x1="122.471" y1="191.215" x2="134.914" y2="191.215" gradientUnits="userSpaceOnUse"><stop stop-color="#444B8C"></stop><stop offset="0.9964" stop-color="#26264F"></stop></linearGradient><linearGradient id="paint80_linear_2332_327" x1="139.472" y1="164.416" x2="148.048" y2="147.479" gradientUnits="userSpaceOnUse"><stop offset="0.0036" stop-color="#F36F56"></stop><stop offset="1" stop-color="#FFC444"></stop></linearGradient><linearGradient id="paint81_linear_2332_327" x1="142.458" y1="155.582" x2="153.82" y2="146.533" gradientUnits="userSpaceOnUse"><stop stop-color="#311944"></stop><stop offset="1" stop-color="#6B3976"></stop></linearGradient><linearGradient id="paint82_linear_2332_327" x1="148.619" y1="153.15" x2="155.906" y2="153.15" gradientUnits="userSpaceOnUse"><stop offset="0.0036" stop-color="#F36F56"></stop><stop offset="1" stop-color="#FFC444"></stop></linearGradient><linearGradient id="paint83_linear_2332_327" x1="143.444" y1="156.828" x2="154.818" y2="147.768" gradientUnits="userSpaceOnUse"><stop stop-color="#311944"></stop><stop offset="1" stop-color="#6B3976"></stop></linearGradient><linearGradient id="paint84_linear_2332_327" x1="152.086" y1="154.585" x2="153.53" y2="154.585" gradientUnits="userSpaceOnUse"><stop offset="0.0036" stop-color="#F36F56"></stop><stop offset="1" stop-color="#FFC444"></stop></linearGradient><linearGradient id="paint85_linear_2332_327" x1="133.348" y1="183.617" x2="177.718" y2="183.617" gradientUnits="userSpaceOnUse"><stop stop-color="#444B8C"></stop><stop offset="0.9964" stop-color="#26264F"></stop></linearGradient><linearGradient id="paint86_linear_2332_327" x1="134.184" y1="183.934" x2="177.757" y2="183.934" gradientUnits="userSpaceOnUse"><stop stop-color="#444B8C"></stop><stop offset="0.9964" stop-color="#26264F"></stop></linearGradient><linearGradient id="paint87_linear_2332_327" x1="134.178" y1="184.315" x2="174.456" y2="184.315" gradientUnits="userSpaceOnUse"><stop stop-color="#444B8C"></stop><stop offset="0.9964" stop-color="#26264F"></stop></linearGradient></defs></svg>