<svg xmlns="http://www.w3.org/2000/svg" width="287" height="305" viewBox="0 0 287 305" fill="none"><path d="M43.4083 275.032C43.4083 276.609 35.0484 277.888 24.7354 277.888C14.423 277.888 6.0625 276.609 6.0625 275.032C6.0625 273.454 14.4224 272.175 24.7354 272.175C35.0477 272.175 43.4083 273.454 43.4083 275.032Z" fill="#E4F2F6"></path><path d="M38.5999 268.849H11.25V275.032H38.5999V268.849Z" fill="#6AD4CB"></path><path d="M11.25 270.386H38.5999" stroke="#4BA6D0" stroke-width="1.1579" stroke-miterlimit="10"></path><path d="M11.25 271.94H38.5999" stroke="#4BA6D0" stroke-width="1.1579" stroke-miterlimit="10"></path><path d="M11.25 273.495H38.5999" stroke="#4BA6D0" stroke-width="1.1579" stroke-miterlimit="10"></path><path opacity="0.14" d="M30.112 268.849H21.2969V275.032H30.112V268.849Z" fill="black"></path><path d="M29.3347 268.849H20.5195V275.032H29.3347V268.849Z" fill="#B1D2DB"></path><path d="M29.3324 268.849H26.582V275.032H29.3324V268.849Z" fill="#A5C2C9"></path><path d="M40.8766 262.666H13.5273V268.849H40.8766V262.666Z" fill="#6AD4CB"></path><path d="M13.5273 264.203H40.8772" stroke="#4BA6D0" stroke-width="1.1579" stroke-miterlimit="10"></path><path d="M13.5273 265.758H40.8772" stroke="#4BA6D0" stroke-width="1.1579" stroke-miterlimit="10"></path><path d="M13.5273 267.312H40.8772" stroke="#4BA6D0" stroke-width="1.1579" stroke-miterlimit="10"></path><path opacity="0.14" d="M32.3854 262.666H23.5703V268.849H32.3854V262.666Z" fill="black"></path><path d="M31.612 262.666H22.7969V268.849H31.612V262.666Z" fill="#B1D2DB"></path><path d="M31.6098 262.666H28.8594V268.849H31.6098V262.666Z" fill="#A5C2C9"></path><path d="M35.3805 256.482H8.03125V262.665H35.3805V256.482Z" fill="#6AD4CB"></path><path d="M8.03125 258.02H35.3805" stroke="#4BA6D0" stroke-width="1.1579" stroke-miterlimit="10"></path><path d="M8.03125 259.574H35.3805" stroke="#4BA6D0" stroke-width="1.1579" stroke-miterlimit="10"></path><path d="M8.03125 261.129H35.3805" stroke="#4BA6D0" stroke-width="1.1579" stroke-miterlimit="10"></path><path opacity="0.14" d="M26.8932 256.482H18.0781V262.665H26.8932V256.482Z" fill="black"></path><path d="M26.1159 256.482H17.3008V262.665H26.1159V256.482Z" fill="#B1D2DB"></path><path d="M26.1098 256.482H23.3594V262.665H26.1098V256.482Z" fill="#A5C2C9"></path><path opacity="0.14" d="M12.8151 271.625H4V277.808H12.8151V271.625Z" fill="black"></path><path d="M12.0417 271.625H3.22656V277.808H12.0417V271.625Z" fill="#E4F2F6"></path><path d="M12.0395 271.625H9.28906V277.808H12.0395V271.625Z" fill="#DAE5E8"></path><path opacity="0.14" d="M15.0925 265.441H6.27734V271.624H15.0925V265.441Z" fill="black"></path><path d="M14.3151 265.441H5.5V271.624H14.3151V265.441Z" fill="#E4F2F6"></path><path d="M14.3129 265.441H11.5625V271.624H14.3129V265.441Z" fill="#DAE5E8"></path><path opacity="0.14" d="M9.58856 259.259H0.773438V265.442H9.58856V259.259Z" fill="black"></path><path d="M8.81513 259.259H0V265.442H8.81513V259.259Z" fill="#E4F2F6"></path><path d="M8.81291 259.259H6.0625V265.442H8.81291V259.259Z" fill="#DAE5E8"></path><path opacity="0.14" d="M14.4714 253.232H5.65625V259.415H14.4714V253.232Z" fill="black"></path><path d="M13.6979 253.232H4.88281V259.415H13.6979V253.232Z" fill="#E4F2F6"></path><path d="M13.6957 253.232H10.9453V259.415H13.6957V253.232Z" fill="#DAE5E8"></path><path d="M10.2705 248.071C13.9558 248.071 16.9434 245.079 16.9434 241.389C16.9434 237.699 13.9558 234.707 10.2705 234.707C6.5852 234.707 3.59766 237.699 3.59766 241.389C3.59766 245.079 6.5852 248.071 10.2705 248.071Z" fill="#829BE9"></path><path d="M10.2739 237.319C13.029 237.319 15.298 239.387 15.6272 242.057C15.654 241.837 15.6728 241.615 15.6728 241.389C15.6728 238.403 13.2556 235.982 10.2739 235.982C7.29217 235.982 4.875 238.403 4.875 241.389C4.875 241.615 4.8931 241.837 4.92059 242.057C5.24981 239.387 7.5188 237.319 10.2739 237.319Z" fill="#FFA50A"></path><path d="M11.0162 250.153V248.959C10.2519 248.935 9.56722 248.784 8.96216 248.505V246.726L10.1444 246.642V247.335C10.1444 247.446 10.1603 247.53 10.1922 247.586C10.224 247.633 10.3076 247.681 10.443 247.729C10.5783 247.777 10.7694 247.801 11.0162 247.801V245.567C10.3952 245.392 9.94538 245.197 9.66673 244.982C9.38809 244.767 9.19304 244.536 9.08158 244.29C8.97808 244.043 8.92634 243.752 8.92634 243.418C8.92634 242.829 9.11343 242.343 9.48761 241.961C9.86975 241.571 10.3793 241.332 11.0162 241.244V240.146H11.9118V241.221C12.5806 241.26 13.1976 241.412 13.7628 241.674V243.358L12.5925 243.43V242.785C12.5925 242.674 12.5766 242.594 12.5447 242.546C12.5129 242.49 12.4293 242.443 12.294 242.403C12.1666 242.363 12.0392 242.339 11.9118 242.331V244.433H11.9238C12.5288 244.616 13.0144 244.847 13.3807 245.126C13.8424 245.46 14.0733 245.958 14.0733 246.618C14.0733 247.279 13.8743 247.805 13.4762 248.195C13.0861 248.585 12.5646 248.828 11.9118 248.923V250.153H11.0162ZM12.5925 246.726C12.5925 246.328 12.3656 246.037 11.9118 245.854V247.717C12.3656 247.574 12.5925 247.243 12.5925 246.726ZM11.0162 242.403C10.6022 242.546 10.3952 242.821 10.3952 243.227C10.3952 243.633 10.6022 243.931 11.0162 244.122V242.403Z" fill="#627CCE"></path><path d="M10.2705 236.044C13.214 236.044 15.6084 238.442 15.6084 241.389C15.6084 244.337 13.214 246.734 10.2705 246.734C7.327 246.734 4.93263 244.336 4.93263 241.389C4.93263 238.442 7.327 236.044 10.2705 236.044ZM10.2705 234.708C6.58542 234.708 3.59766 237.699 3.59766 241.39C3.59766 245.08 6.58475 248.072 10.2705 248.072C13.9556 248.072 16.9434 245.08 16.9434 241.39C16.9434 237.699 13.9556 234.708 10.2705 234.708Z" fill="#627CCE"></path><path d="M16.0607 250.651H2.23828V253.232H16.0607V250.651Z" fill="#829BE9"></path><path d="M8.4079 250.651H4V253.232H8.4079V250.651Z" fill="#627CCE"></path><path d="M18.9475 248.07H5.125V250.651H18.9475V248.07Z" fill="#829BE9"></path><path d="M11.3024 248.07H6.89453V250.651H11.3024V248.07Z" fill="#627CCE"></path><path d="M96.3397 102.064H20.6719V240.966H96.3397V102.064Z" fill="#829BE9"></path><path d="M90.8794 112.088H26.1328V229.487H90.8794V112.088Z" fill="#E8EEFD"></path><path d="M78.327 155.503H38.6841C36.755 155.503 35.1914 153.937 35.1914 152.006V151.695C35.1914 149.763 36.755 148.198 38.6841 148.198H78.327C80.256 148.198 81.819 149.764 81.819 151.695V152.006C81.819 153.937 80.2553 155.503 78.327 155.503Z" fill="#B4D7DC"></path><path d="M78.327 168.229H38.6841C36.755 168.229 35.1914 166.663 35.1914 164.732V164.42C35.1914 162.489 36.755 160.924 38.6841 160.924H78.327C80.256 160.924 81.819 162.49 81.819 164.42V164.732C81.819 166.663 80.2553 168.229 78.327 168.229Z" fill="#B4D7DC"></path><path d="M81.819 127.743L58.5055 135.914L35.1914 127.743V102.064H81.819V127.743Z" fill="#7997F6"></path><path d="M75.0918 213.388H41.9192C38.204 213.388 35.1914 210.372 35.1914 206.651V206.05C35.1914 202.33 38.2033 199.313 41.9192 199.313H75.0918C78.8071 199.313 81.8196 202.329 81.8196 206.05V206.651C81.8196 210.371 78.8077 213.388 75.0918 213.388Z" fill="#FFA50A"></path><path d="M60.9126 143.501V139.845C58.5728 139.772 56.4767 139.309 54.6244 138.456V133.008L58.2438 132.752V134.873C58.2438 135.214 58.2925 135.47 58.39 135.64C58.4875 135.787 58.7434 135.933 59.1578 136.079C59.5721 136.225 60.157 136.299 60.9126 136.299V129.462C59.0115 128.926 57.6344 128.329 56.7814 127.67C55.9283 127.012 55.3312 126.306 54.99 125.55C54.6731 124.794 54.5147 123.905 54.5147 122.881C54.5147 121.078 55.0875 119.591 56.233 118.421C57.4029 117.227 58.9628 116.495 60.9126 116.227V112.864H63.6546V116.154C65.7019 116.276 67.5908 116.739 69.3213 117.543V122.698L65.7385 122.918V120.943C65.7385 120.602 65.6897 120.359 65.5922 120.212C65.4948 120.042 65.2388 119.895 64.8245 119.774C64.4345 119.652 64.0446 119.579 63.6546 119.554V125.989H63.6911C65.5435 126.549 67.0303 127.256 68.1514 128.109C69.5651 129.133 70.2719 130.656 70.2719 132.679C70.2719 134.702 69.6625 136.311 68.4439 137.505C67.2496 138.699 65.6532 139.443 63.6546 139.735V143.501H60.9126ZM65.7385 133.008C65.7385 131.789 65.0438 130.9 63.6546 130.339V136.043C65.0438 135.604 65.7385 134.592 65.7385 133.008ZM60.9126 119.774C59.6452 120.212 59.0115 121.053 59.0115 122.296C59.0115 123.539 59.6452 124.453 60.9126 125.038V119.774Z" fill="#FFA50A"></path><path d="M43.7386 205.059C43.7216 204.887 43.6484 204.754 43.5192 204.659C43.3899 204.564 43.2145 204.516 42.9929 204.516C42.8423 204.516 42.7152 204.537 42.6115 204.58C42.5078 204.621 42.4283 204.679 42.3729 204.752C42.3189 204.826 42.2919 204.91 42.2919 205.004C42.2891 205.082 42.3054 205.15 42.3409 205.208C42.3778 205.267 42.4283 205.317 42.4922 205.36C42.5561 205.401 42.63 205.437 42.7138 205.468C42.7976 205.498 42.8871 205.524 42.9822 205.545L43.3743 205.639C43.5646 205.681 43.7393 205.738 43.8984 205.809C44.0575 205.88 44.1953 205.968 44.3118 206.071C44.4283 206.175 44.5185 206.297 44.5824 206.438C44.6477 206.578 44.6811 206.74 44.6825 206.922C44.6811 207.189 44.6129 207.42 44.478 207.616C44.3445 207.811 44.1513 207.962 43.8984 208.07C43.647 208.176 43.3438 208.23 42.9886 208.23C42.6364 208.23 42.3295 208.176 42.0682 208.068C41.8082 207.96 41.6051 207.8 41.4588 207.588C41.3139 207.375 41.2379 207.112 41.2308 206.798H42.1236C42.1335 206.944 42.1754 207.066 42.2493 207.164C42.3246 207.261 42.4247 207.334 42.5497 207.384C42.6761 207.432 42.8189 207.456 42.978 207.456C43.1342 207.456 43.2699 207.434 43.3849 207.388C43.5014 207.343 43.5916 207.279 43.6555 207.199C43.7195 207.118 43.7514 207.025 43.7514 206.919C43.7514 206.821 43.7223 206.739 43.6641 206.672C43.6072 206.605 43.5234 206.549 43.4126 206.502C43.3033 206.455 43.169 206.412 43.0099 206.374L42.5348 206.255C42.1669 206.165 41.8764 206.025 41.6634 205.835C41.4503 205.645 41.3445 205.388 41.3459 205.066C41.3445 204.801 41.4148 204.571 41.5568 204.373C41.7003 204.176 41.897 204.022 42.147 203.911C42.397 203.8 42.6811 203.745 42.9993 203.745C43.3232 203.745 43.6058 203.8 43.8473 203.911C44.0902 204.022 44.2791 204.176 44.4141 204.373C44.549 204.571 44.6186 204.799 44.6229 205.059H43.7386ZM47.9984 203.804H48.921V206.638C48.921 206.956 48.845 207.235 48.693 207.473C48.5424 207.712 48.3315 207.898 48.0602 208.032C47.7889 208.164 47.4728 208.23 47.112 208.23C46.7498 208.23 46.4331 208.164 46.1618 208.032C45.8904 207.898 45.6795 207.712 45.5289 207.473C45.3784 207.235 45.3031 206.956 45.3031 206.638V203.804H46.2257V206.559C46.2257 206.725 46.2619 206.873 46.3343 207.002C46.4082 207.132 46.5119 207.233 46.6454 207.307C46.7789 207.381 46.9345 207.418 47.112 207.418C47.291 207.418 47.4466 207.381 47.5787 207.307C47.7122 207.233 47.8152 207.132 47.8876 207.002C47.9615 206.873 47.9984 206.725 47.9984 206.559V203.804ZM49.68 208.168V203.804H51.4272C51.7482 203.804 52.016 203.852 52.2305 203.947C52.445 204.042 52.6062 204.174 52.7141 204.343C52.8221 204.511 52.8761 204.704 52.8761 204.923C52.8761 205.093 52.842 205.243 52.7738 205.373C52.7056 205.5 52.6119 205.605 52.4925 205.688C52.3746 205.769 52.2397 205.826 52.0877 205.86V205.903C52.2539 205.91 52.4094 205.957 52.5543 206.044C52.7006 206.13 52.8192 206.252 52.9102 206.408C53.0011 206.563 53.0465 206.748 53.0465 206.962C53.0465 207.194 52.989 207.4 52.8739 207.582C52.7603 207.762 52.592 207.905 52.369 208.01C52.146 208.115 51.8711 208.168 51.5444 208.168H49.68ZM50.6026 207.414H51.3548C51.6119 207.414 51.7994 207.365 51.9173 207.267C52.0352 207.167 52.0941 207.035 52.0941 206.87C52.0941 206.75 52.065 206.643 52.0067 206.551C51.9485 206.458 51.8654 206.386 51.7575 206.333C51.6509 206.281 51.5238 206.255 51.3761 206.255H50.6026V207.414ZM50.6026 205.63H51.2866C51.413 205.63 51.5252 205.608 51.6232 205.564C51.7227 205.519 51.8008 205.455 51.8576 205.373C51.9158 205.29 51.945 205.191 51.945 205.076C51.945 204.919 51.8888 204.792 51.7766 204.695C51.6658 204.598 51.5082 204.55 51.3036 204.55H50.6026V205.63ZM56.014 205.059C55.997 204.887 55.9238 204.754 55.7946 204.659C55.6653 204.564 55.4899 204.516 55.2683 204.516C55.1177 204.516 54.9906 204.537 54.8869 204.58C54.7832 204.621 54.7037 204.679 54.6483 204.752C54.5943 204.826 54.5673 204.91 54.5673 205.004C54.5645 205.082 54.5808 205.15 54.6163 205.208C54.6532 205.267 54.7037 205.317 54.7676 205.36C54.8315 205.401 54.9054 205.437 54.9892 205.468C55.073 205.498 55.1625 205.524 55.2576 205.545L55.6497 205.639C55.84 205.681 56.0147 205.738 56.1738 205.809C56.3329 205.88 56.4707 205.968 56.5872 206.071C56.7037 206.175 56.7939 206.297 56.8578 206.438C56.9231 206.578 56.9565 206.74 56.9579 206.922C56.9565 207.189 56.8883 207.42 56.7534 207.616C56.6199 207.811 56.4267 207.962 56.1738 208.07C55.9224 208.176 55.6191 208.23 55.264 208.23C54.9118 208.23 54.6049 208.176 54.3436 208.068C54.0836 207.96 53.8805 207.8 53.7342 207.588C53.5893 207.375 53.5133 207.112 53.5062 206.798H54.399C54.4089 206.944 54.4508 207.066 54.5247 207.164C54.6 207.261 54.7001 207.334 54.8251 207.384C54.9515 207.432 55.0943 207.456 55.2534 207.456C55.4096 207.456 55.5453 207.434 55.6603 207.388C55.7768 207.343 55.867 207.279 55.9309 207.199C55.9949 207.118 56.0268 207.025 56.0268 206.919C56.0268 206.821 55.9977 206.739 55.9395 206.672C55.8826 206.605 55.7988 206.549 55.688 206.502C55.5787 206.455 55.4444 206.412 55.2853 206.374L54.8102 206.255C54.4423 206.165 54.1518 206.025 53.9387 205.835C53.7257 205.645 53.6199 205.388 53.6213 205.066C53.6199 204.801 53.6902 204.571 53.8322 204.373C53.9757 204.176 54.1724 204.022 54.4224 203.911C54.6724 203.8 54.9565 203.745 55.2747 203.745C55.5985 203.745 55.8812 203.8 56.1227 203.911C56.3656 204.022 56.5545 204.176 56.6895 204.373C56.8244 204.571 56.894 204.799 56.8983 205.059H56.014ZM61.4286 205.332H60.4954C60.4783 205.211 60.4435 205.104 60.391 205.01C60.3384 204.915 60.271 204.834 60.1886 204.767C60.1062 204.701 60.011 204.65 59.9031 204.614C59.7965 204.578 59.6808 204.561 59.5558 204.561C59.3299 204.561 59.1332 204.617 58.9656 204.729C58.7979 204.84 58.668 205.002 58.5756 205.215C58.4833 205.426 58.4371 205.684 58.4371 205.986C58.4371 206.297 58.4833 206.559 58.5756 206.77C58.6694 206.982 58.8001 207.142 58.9677 207.25C59.1353 207.358 59.3292 207.412 59.5494 207.412C59.6729 207.412 59.7873 207.395 59.8924 207.363C59.9989 207.33 60.0934 207.282 60.1758 207.22C60.2582 207.156 60.3263 207.078 60.3803 206.988C60.4357 206.897 60.4741 206.793 60.4954 206.676L61.4286 206.681C61.4045 206.881 61.3441 207.074 61.2475 207.26C61.1523 207.445 61.0238 207.61 60.8619 207.757C60.7013 207.902 60.5096 208.017 60.2866 208.102C60.065 208.186 59.8143 208.228 59.5344 208.228C59.1452 208.228 58.7972 208.14 58.4904 207.963C58.185 207.787 57.9435 207.532 57.766 207.199C57.5898 206.865 57.5018 206.461 57.5018 205.986C57.5018 205.51 57.5913 205.105 57.7702 204.772C57.9492 204.438 58.1921 204.184 58.4989 204.009C58.8058 203.833 59.1509 203.745 59.5344 203.745C59.7873 203.745 60.0217 203.78 60.2376 203.851C60.4549 203.922 60.6474 204.026 60.815 204.162C60.9826 204.297 61.119 204.463 61.2241 204.659C61.3306 204.855 61.3988 205.079 61.4286 205.332ZM62.0902 208.168V203.804H63.8118C64.1413 203.804 64.4226 203.863 64.6555 203.981C64.8899 204.098 65.0682 204.263 65.1903 204.478C65.3139 204.691 65.3757 204.941 65.3757 205.23C65.3757 205.52 65.3132 205.769 65.1882 205.978C65.0632 206.185 64.8821 206.344 64.6449 206.455C64.4091 206.566 64.1236 206.621 63.7884 206.621H62.6357V205.88H63.6392C63.8153 205.88 63.9616 205.855 64.0781 205.807C64.1946 205.759 64.2813 205.686 64.3381 205.59C64.3963 205.493 64.4254 205.373 64.4254 205.23C64.4254 205.085 64.3963 204.963 64.3381 204.863C64.2813 204.764 64.1939 204.689 64.076 204.637C63.9595 204.585 63.8125 204.559 63.6349 204.559H63.0128V208.168H62.0902ZM64.4467 206.182L65.5312 208.168H64.5128L63.4517 206.182H64.4467ZM66.9503 203.804V208.168H66.0277V203.804H66.9503ZM67.7093 208.168V203.804H69.4565C69.7775 203.804 70.0453 203.852 70.2598 203.947C70.4743 204.042 70.6355 204.174 70.7434 204.343C70.8514 204.511 70.9054 204.704 70.9054 204.923C70.9054 205.093 70.8713 205.243 70.8031 205.373C70.7349 205.5 70.6412 205.605 70.5218 205.688C70.4039 205.769 70.269 205.826 70.117 205.86V205.903C70.2832 205.91 70.4387 205.957 70.5836 206.044C70.7299 206.13 70.8485 206.252 70.9395 206.408C71.0304 206.563 71.0758 206.748 71.0758 206.962C71.0758 207.194 71.0183 207.4 70.9032 207.582C70.7896 207.762 70.6213 207.905 70.3983 208.01C70.1752 208.115 69.9004 208.168 69.5737 208.168H67.7093ZM68.6319 207.414H69.3841C69.6412 207.414 69.8287 207.365 69.9466 207.267C70.0645 207.167 70.1234 207.035 70.1234 206.87C70.1234 206.75 70.0943 206.643 70.036 206.551C69.9778 206.458 69.8947 206.386 69.7868 206.333C69.6802 206.281 69.5531 206.255 69.4054 206.255H68.6319V207.414ZM68.6319 205.63H69.3159C69.4423 205.63 69.5545 205.608 69.6525 205.564C69.752 205.519 69.8301 205.455 69.8869 205.373C69.9451 205.29 69.9743 205.191 69.9743 205.076C69.9743 204.919 69.9181 204.792 69.8059 204.695C69.6951 204.598 69.5375 204.55 69.3329 204.55H68.6319V205.63ZM71.6761 208.168V203.804H74.6165V204.565H72.5987V205.605H74.4652V206.365H72.5987V207.407H74.625V208.168H71.6761Z" fill="#E8EEFD"></path><path d="M180.054 101.337H104.387V240.238H180.054V101.337Z" fill="#829BE9"></path><path d="M174.594 111.361H109.848V228.761H174.594V111.361Z" fill="#E8EEFD"></path><path d="M162.041 155.007H122.398C120.469 155.007 118.906 153.441 118.906 151.51V151.199C118.906 149.268 120.47 147.702 122.398 147.702H162.041C163.97 147.702 165.533 149.268 165.533 151.199V151.51C165.534 153.441 163.97 155.007 162.041 155.007Z" fill="#B4D7DC"></path><path d="M162.041 167.731H122.398C120.469 167.731 118.906 166.166 118.906 164.235V163.923C118.906 161.991 120.47 160.426 122.398 160.426H162.041C163.97 160.426 165.533 161.991 165.533 163.923V164.235C165.534 166.166 163.97 167.731 162.041 167.731Z" fill="#B4D7DC"></path><path d="M162.041 180.456H122.398C120.469 180.456 118.906 178.89 118.906 176.96V176.648C118.906 174.716 120.47 173.151 122.398 173.151H162.041C163.97 173.151 165.533 174.717 165.533 176.648V176.96C165.534 178.89 163.97 180.456 162.041 180.456Z" fill="#B4D7DC"></path><path d="M165.534 127.017L142.22 135.187L118.906 127.017V101.337H165.534V127.017Z" fill="#7997F6"></path><path d="M158.807 213.388H125.634C121.919 213.388 118.906 210.372 118.906 206.651V206.05C118.906 202.33 121.918 199.313 125.634 199.313H158.807C162.522 199.313 165.534 202.329 165.534 206.05V206.651C165.534 210.371 162.522 213.388 158.807 213.388Z" fill="#FFA50A"></path><path d="M143.995 143.501V139.845C141.655 139.772 139.559 139.309 137.706 138.456V133.008L141.326 132.752V134.873C141.326 135.214 141.375 135.47 141.472 135.64C141.57 135.787 141.825 135.933 142.24 136.079C142.654 136.225 143.239 136.299 143.995 136.299V129.462C142.094 128.926 140.716 128.329 139.863 127.67C139.01 127.012 138.413 126.306 138.072 125.55C137.755 124.794 137.597 123.905 137.597 122.881C137.597 121.078 138.169 119.591 139.315 118.421C140.485 117.227 142.045 116.495 143.995 116.227V112.864H146.737V116.154C148.784 116.276 150.673 116.739 152.403 117.543V122.698L148.821 122.918V120.943C148.821 120.602 148.772 120.359 148.674 120.212C148.577 120.042 148.321 119.895 147.907 119.774C147.517 119.652 147.127 119.579 146.737 119.554V125.989H146.773C148.626 126.549 150.112 127.256 151.233 128.109C152.647 129.133 153.354 130.656 153.354 132.679C153.354 134.702 152.745 136.311 151.526 137.505C150.332 138.699 148.735 139.443 146.737 139.735V143.501H143.995ZM148.821 133.008C148.821 131.789 148.126 130.9 146.737 130.339V136.043C148.126 135.604 148.821 134.592 148.821 133.008ZM143.995 119.774C142.727 120.212 142.094 121.053 142.094 122.296C142.094 123.539 142.727 124.453 143.995 125.038V119.774Z" fill="#FFA50A"></path><path d="M127.778 205.059C127.761 204.887 127.688 204.754 127.558 204.659C127.429 204.564 127.254 204.516 127.032 204.516C126.881 204.516 126.754 204.537 126.651 204.58C126.547 204.621 126.467 204.679 126.412 204.752C126.358 204.826 126.331 204.91 126.331 205.004C126.328 205.082 126.344 205.15 126.38 205.208C126.417 205.267 126.467 205.317 126.531 205.36C126.595 205.401 126.669 205.437 126.753 205.468C126.837 205.498 126.926 205.524 127.021 205.545L127.413 205.639C127.604 205.681 127.778 205.738 127.938 205.809C128.097 205.88 128.234 205.968 128.351 206.071C128.467 206.175 128.558 206.297 128.621 206.438C128.687 206.578 128.72 206.74 128.722 206.922C128.72 207.189 128.652 207.42 128.517 207.616C128.384 207.811 128.19 207.962 127.938 208.07C127.686 208.176 127.383 208.23 127.028 208.23C126.675 208.23 126.369 208.176 126.107 208.068C125.847 207.96 125.644 207.8 125.498 207.588C125.353 207.375 125.277 207.112 125.27 206.798H126.163C126.173 206.944 126.214 207.066 126.288 207.164C126.364 207.261 126.464 207.334 126.589 207.384C126.715 207.432 126.858 207.456 127.017 207.456C127.173 207.456 127.309 207.434 127.424 207.388C127.54 207.343 127.631 207.279 127.695 207.199C127.759 207.118 127.79 207.025 127.79 206.919C127.79 206.821 127.761 206.739 127.703 206.672C127.646 206.605 127.563 206.549 127.452 206.502C127.342 206.455 127.208 206.412 127.049 206.374L126.574 206.255C126.206 206.165 125.915 206.025 125.702 205.835C125.489 205.645 125.384 205.388 125.385 205.066C125.384 204.801 125.454 204.571 125.596 204.373C125.739 204.176 125.936 204.022 126.186 203.911C126.436 203.8 126.72 203.745 127.038 203.745C127.362 203.745 127.645 203.8 127.886 203.911C128.129 204.022 128.318 204.176 128.453 204.373C128.588 204.571 128.658 204.799 128.662 205.059H127.778ZM132.037 203.804H132.96V206.638C132.96 206.956 132.884 207.235 132.732 207.473C132.581 207.712 132.371 207.898 132.099 208.032C131.828 208.164 131.512 208.23 131.151 208.23C130.789 208.23 130.472 208.164 130.201 208.032C129.93 207.898 129.719 207.712 129.568 207.473C129.417 207.235 129.342 206.956 129.342 206.638V203.804H130.265V206.559C130.265 206.725 130.301 206.873 130.373 207.002C130.447 207.132 130.551 207.233 130.684 207.307C130.818 207.381 130.974 207.418 131.151 207.418C131.33 207.418 131.486 207.381 131.618 207.307C131.751 207.233 131.854 207.132 131.927 207.002C132.001 206.873 132.037 206.725 132.037 206.559V203.804ZM133.719 208.168V203.804H135.466C135.787 203.804 136.055 203.852 136.27 203.947C136.484 204.042 136.645 204.174 136.753 204.343C136.861 204.511 136.915 204.704 136.915 204.923C136.915 205.093 136.881 205.243 136.813 205.373C136.745 205.5 136.651 205.605 136.532 205.688C136.414 205.769 136.279 205.826 136.127 205.86V205.903C136.293 205.91 136.449 205.957 136.593 206.044C136.74 206.13 136.858 206.252 136.949 206.408C137.04 206.563 137.086 206.748 137.086 206.962C137.086 207.194 137.028 207.4 136.913 207.582C136.799 207.762 136.631 207.905 136.408 208.01C136.185 208.115 135.91 208.168 135.583 208.168H133.719ZM134.642 207.414H135.394C135.651 207.414 135.838 207.365 135.956 207.267C136.074 207.167 136.133 207.035 136.133 206.87C136.133 206.75 136.104 206.643 136.046 206.551C135.988 206.458 135.904 206.386 135.797 206.333C135.69 206.281 135.563 206.255 135.415 206.255H134.642V207.414ZM134.642 205.63H135.326C135.452 205.63 135.564 205.608 135.662 205.564C135.762 205.519 135.84 205.455 135.897 205.373C135.955 205.29 135.984 205.191 135.984 205.076C135.984 204.919 135.928 204.792 135.816 204.695C135.705 204.598 135.547 204.55 135.343 204.55H134.642V205.63ZM140.053 205.059C140.036 204.887 139.963 204.754 139.834 204.659C139.704 204.564 139.529 204.516 139.307 204.516C139.157 204.516 139.03 204.537 138.926 204.58C138.822 204.621 138.743 204.679 138.687 204.752C138.633 204.826 138.606 204.91 138.606 205.004C138.604 205.082 138.62 205.15 138.655 205.208C138.692 205.267 138.743 205.317 138.807 205.36C138.871 205.401 138.944 205.437 139.028 205.468C139.112 205.498 139.202 205.524 139.297 205.545L139.689 205.639C139.879 205.681 140.054 205.738 140.213 205.809C140.372 205.88 140.51 205.968 140.626 206.071C140.743 206.175 140.833 206.297 140.897 206.438C140.962 206.578 140.996 206.74 140.997 206.922C140.996 207.189 140.927 207.42 140.792 207.616C140.659 207.811 140.466 207.962 140.213 208.07C139.961 208.176 139.658 208.23 139.303 208.23C138.951 208.23 138.644 208.176 138.383 208.068C138.123 207.96 137.92 207.8 137.773 207.588C137.628 207.375 137.552 207.112 137.545 206.798H138.438C138.448 206.944 138.49 207.066 138.564 207.164C138.639 207.261 138.739 207.334 138.864 207.384C138.991 207.432 139.133 207.456 139.292 207.456C139.449 207.456 139.584 207.434 139.699 207.388C139.816 207.343 139.906 207.279 139.97 207.199C140.034 207.118 140.066 207.025 140.066 206.919C140.066 206.821 140.037 206.739 139.979 206.672C139.922 206.605 139.838 206.549 139.727 206.502C139.618 206.455 139.483 206.412 139.324 206.374L138.849 206.255C138.481 206.165 138.191 206.025 137.978 205.835C137.765 205.645 137.659 205.388 137.66 205.066C137.659 204.801 137.729 204.571 137.871 204.373C138.015 204.176 138.211 204.022 138.461 203.911C138.711 203.8 138.996 203.745 139.314 203.745C139.638 203.745 139.92 203.8 140.162 203.911C140.405 204.022 140.594 204.176 140.729 204.373C140.863 204.571 140.933 204.799 140.937 205.059H140.053ZM145.468 205.332H144.534C144.517 205.211 144.483 205.104 144.43 205.01C144.377 204.915 144.31 204.834 144.228 204.767C144.145 204.701 144.05 204.65 143.942 204.614C143.836 204.578 143.72 204.561 143.595 204.561C143.369 204.561 143.172 204.617 143.005 204.729C142.837 204.84 142.707 205.002 142.615 205.215C142.522 205.426 142.476 205.684 142.476 205.986C142.476 206.297 142.522 206.559 142.615 206.77C142.708 206.982 142.839 207.142 143.007 207.25C143.174 207.358 143.368 207.412 143.588 207.412C143.712 207.412 143.826 207.395 143.931 207.363C144.038 207.33 144.132 207.282 144.215 207.22C144.297 207.156 144.365 207.078 144.419 206.988C144.475 206.897 144.513 206.793 144.534 206.676L145.468 206.681C145.444 206.881 145.383 207.074 145.287 207.26C145.191 207.445 145.063 207.61 144.901 207.757C144.74 207.902 144.549 208.017 144.326 208.102C144.104 208.186 143.853 208.228 143.574 208.228C143.184 208.228 142.836 208.14 142.529 207.963C142.224 207.787 141.983 207.532 141.805 207.199C141.629 206.865 141.541 206.461 141.541 205.986C141.541 205.51 141.63 205.105 141.809 204.772C141.988 204.438 142.231 204.184 142.538 204.009C142.845 203.833 143.19 203.745 143.574 203.745C143.826 203.745 144.061 203.78 144.277 203.851C144.494 203.922 144.686 204.026 144.854 204.162C145.022 204.297 145.158 204.463 145.263 204.659C145.37 204.855 145.438 205.079 145.468 205.332ZM146.129 208.168V203.804H147.851C148.18 203.804 148.462 203.863 148.695 203.981C148.929 204.098 149.107 204.263 149.229 204.478C149.353 204.691 149.415 204.941 149.415 205.23C149.415 205.52 149.352 205.769 149.227 205.978C149.102 206.185 148.921 206.344 148.684 206.455C148.448 206.566 148.163 206.621 147.827 206.621H146.675V205.88H147.678C147.854 205.88 148.001 205.855 148.117 205.807C148.234 205.759 148.32 205.686 148.377 205.59C148.435 205.493 148.464 205.373 148.464 205.23C148.464 205.085 148.435 204.963 148.377 204.863C148.32 204.764 148.233 204.689 148.115 204.637C147.999 204.585 147.852 204.559 147.674 204.559H147.052V208.168H146.129ZM148.486 206.182L149.57 208.168H148.552L147.491 206.182H148.486ZM150.989 203.804V208.168H150.067V203.804H150.989ZM151.748 208.168V203.804H153.496C153.817 203.804 154.084 203.852 154.299 203.947C154.513 204.042 154.675 204.174 154.782 204.343C154.89 204.511 154.944 204.704 154.944 204.923C154.944 205.093 154.91 205.243 154.842 205.373C154.774 205.5 154.68 205.605 154.561 205.688C154.443 205.769 154.308 205.826 154.156 205.86V205.903C154.322 205.91 154.478 205.957 154.623 206.044C154.769 206.13 154.888 206.252 154.979 206.408C155.069 206.563 155.115 206.748 155.115 206.962C155.115 207.194 155.057 207.4 154.942 207.582C154.829 207.762 154.66 207.905 154.437 208.01C154.214 208.115 153.939 208.168 153.613 208.168H151.748ZM152.671 207.414H153.423C153.68 207.414 153.868 207.365 153.986 207.267C154.104 207.167 154.162 207.035 154.162 206.87C154.162 206.75 154.133 206.643 154.075 206.551C154.017 206.458 153.934 206.386 153.826 206.333C153.719 206.281 153.592 206.255 153.444 206.255H152.671V207.414ZM152.671 205.63H153.355C153.481 205.63 153.594 205.608 153.692 205.564C153.791 205.519 153.869 205.455 153.926 205.373C153.984 205.29 154.013 205.191 154.013 205.076C154.013 204.919 153.957 204.792 153.845 204.695C153.734 204.598 153.577 204.55 153.372 204.55H152.671V205.63ZM155.715 208.168V203.804H158.656V204.565H156.638V205.605H158.504V206.365H156.638V207.407H158.664V208.168H155.715Z" fill="#E8EEFD"></path><path d="M228.068 161.123C228.017 160.691 227.809 160.355 227.446 160.117C227.082 159.878 226.636 159.759 226.108 159.759C225.721 159.759 225.383 159.821 225.093 159.946C224.806 160.071 224.582 160.243 224.42 160.462C224.261 160.681 224.181 160.929 224.181 161.208C224.181 161.441 224.237 161.641 224.348 161.809C224.461 161.973 224.606 162.111 224.782 162.222C224.958 162.33 225.143 162.419 225.336 162.49C225.529 162.559 225.707 162.614 225.869 162.657L226.755 162.895C226.983 162.955 227.235 163.037 227.514 163.142C227.795 163.248 228.064 163.391 228.319 163.573C228.578 163.752 228.791 163.982 228.958 164.263C229.126 164.544 229.21 164.89 229.21 165.299C229.21 165.77 229.086 166.196 228.839 166.577C228.595 166.958 228.237 167.26 227.765 167.485C227.297 167.709 226.727 167.821 226.056 167.821C225.431 167.821 224.89 167.721 224.433 167.519C223.978 167.317 223.62 167.036 223.359 166.675C223.1 166.314 222.954 165.895 222.92 165.418H224.011C224.039 165.748 224.15 166.02 224.343 166.236C224.539 166.449 224.787 166.608 225.085 166.713C225.386 166.816 225.71 166.867 226.056 166.867C226.46 166.867 226.822 166.801 227.143 166.671C227.464 166.537 227.718 166.353 227.906 166.117C228.093 165.878 228.187 165.6 228.187 165.282C228.187 164.992 228.106 164.756 227.944 164.574C227.782 164.392 227.569 164.245 227.305 164.131C227.041 164.017 226.755 163.918 226.449 163.833L225.375 163.526C224.693 163.33 224.153 163.05 223.755 162.686C223.358 162.323 223.159 161.847 223.159 161.259C223.159 160.77 223.291 160.344 223.555 159.98C223.822 159.614 224.18 159.33 224.629 159.128C225.081 158.924 225.585 158.821 226.142 158.821C226.704 158.821 227.204 158.922 227.642 159.124C228.079 159.323 228.426 159.596 228.681 159.942C228.94 160.289 229.076 160.682 229.091 161.123H228.068ZM236.675 158.941H237.732V164.719C237.732 165.316 237.591 165.848 237.31 166.317C237.031 166.783 236.638 167.151 236.129 167.421C235.621 167.688 235.024 167.821 234.339 167.821C233.655 167.821 233.058 167.688 232.55 167.421C232.041 167.151 231.646 166.783 231.365 166.317C231.087 165.848 230.947 165.316 230.947 164.719V158.941H232.004V164.634C232.004 165.06 232.098 165.439 232.286 165.772C232.473 166.101 232.74 166.361 233.087 166.551C233.436 166.739 233.854 166.833 234.339 166.833C234.825 166.833 235.243 166.739 235.592 166.551C235.942 166.361 236.209 166.101 236.393 165.772C236.581 165.439 236.675 165.06 236.675 164.634V158.941ZM239.842 167.668V158.941H242.893C243.501 158.941 244.002 159.046 244.397 159.256C244.792 159.463 245.086 159.743 245.279 160.096C245.473 160.445 245.569 160.833 245.569 161.259C245.569 161.634 245.502 161.944 245.369 162.188C245.238 162.432 245.065 162.625 244.849 162.767C244.636 162.909 244.404 163.015 244.154 163.083V163.168C244.422 163.185 244.69 163.279 244.96 163.449C245.23 163.62 245.456 163.864 245.637 164.182C245.819 164.5 245.91 164.89 245.91 165.35C245.91 165.787 245.811 166.181 245.612 166.53C245.413 166.88 245.099 167.157 244.67 167.361C244.241 167.566 243.683 167.668 242.995 167.668H239.842ZM240.899 166.73H242.995C243.686 166.73 244.176 166.597 244.466 166.33C244.758 166.06 244.904 165.733 244.904 165.35C244.904 165.054 244.829 164.782 244.679 164.532C244.528 164.279 244.314 164.077 244.035 163.926C243.757 163.773 243.427 163.696 243.047 163.696H240.899V166.73ZM240.899 162.776H242.859C243.177 162.776 243.464 162.713 243.72 162.588C243.978 162.463 244.183 162.287 244.333 162.06C244.487 161.833 244.564 161.566 244.564 161.259C244.564 160.875 244.43 160.55 244.163 160.283C243.896 160.013 243.473 159.878 242.893 159.878H240.899V162.776ZM252.419 161.123C252.368 160.691 252.161 160.355 251.797 160.117C251.434 159.878 250.988 159.759 250.459 159.759C250.073 159.759 249.735 159.821 249.445 159.946C249.158 160.071 248.934 160.243 248.772 160.462C248.613 160.681 248.533 160.929 248.533 161.208C248.533 161.441 248.588 161.641 248.699 161.809C248.813 161.973 248.958 162.111 249.134 162.222C249.31 162.33 249.495 162.419 249.688 162.49C249.881 162.559 250.059 162.614 250.221 162.657L251.107 162.895C251.334 162.955 251.587 163.037 251.865 163.142C252.147 163.248 252.415 163.391 252.671 163.573C252.929 163.752 253.142 163.982 253.31 164.263C253.478 164.544 253.561 164.89 253.561 165.299C253.561 165.77 253.438 166.196 253.191 166.577C252.946 166.958 252.588 167.26 252.117 167.485C251.648 167.709 251.078 167.821 250.408 167.821C249.783 167.821 249.242 167.721 248.784 167.519C248.33 167.317 247.972 167.036 247.711 166.675C247.452 166.314 247.306 165.895 247.272 165.418H248.363C248.391 165.748 248.502 166.02 248.695 166.236C248.891 166.449 249.138 166.608 249.436 166.713C249.738 166.816 250.061 166.867 250.408 166.867C250.811 166.867 251.174 166.801 251.495 166.671C251.816 166.537 252.07 166.353 252.257 166.117C252.445 165.878 252.539 165.6 252.539 165.282C252.539 164.992 252.458 164.756 252.296 164.574C252.134 164.392 251.921 164.245 251.657 164.131C251.392 164.017 251.107 163.918 250.8 163.833L249.726 163.526C249.044 163.33 248.505 163.05 248.107 162.686C247.709 162.323 247.51 161.847 247.51 161.259C247.51 160.77 247.642 160.344 247.907 159.98C248.174 159.614 248.532 159.33 248.98 159.128C249.432 158.924 249.936 158.821 250.493 158.821C251.056 158.821 251.556 158.922 251.993 159.124C252.431 159.323 252.777 159.596 253.033 159.942C253.292 160.289 253.428 160.682 253.442 161.123H252.419ZM262.322 161.668H261.265C261.202 161.364 261.093 161.097 260.937 160.867C260.783 160.637 260.596 160.444 260.374 160.287C260.156 160.128 259.913 160.009 259.646 159.929C259.379 159.85 259.1 159.81 258.81 159.81C258.282 159.81 257.803 159.944 257.374 160.211C256.948 160.478 256.609 160.871 256.356 161.391C256.106 161.911 255.981 162.549 255.981 163.304C255.981 164.06 256.106 164.698 256.356 165.218C256.609 165.738 256.948 166.131 257.374 166.398C257.803 166.665 258.282 166.799 258.81 166.799C259.1 166.799 259.379 166.759 259.646 166.679C259.913 166.6 260.156 166.482 260.374 166.326C260.596 166.167 260.783 165.972 260.937 165.742C261.093 165.509 261.202 165.242 261.265 164.941H262.322C262.242 165.387 262.097 165.786 261.887 166.138C261.677 166.49 261.415 166.79 261.103 167.037C260.79 167.282 260.44 167.468 260.05 167.596C259.664 167.723 259.251 167.787 258.81 167.787C258.066 167.787 257.404 167.605 256.825 167.242C256.245 166.878 255.789 166.361 255.457 165.691C255.124 165.02 254.958 164.225 254.958 163.304C254.958 162.384 255.124 161.588 255.457 160.918C255.789 160.248 256.245 159.73 256.825 159.367C257.404 159.003 258.066 158.821 258.81 158.821C259.251 158.821 259.664 158.885 260.05 159.013C260.44 159.141 260.79 159.328 261.103 159.576C261.415 159.82 261.677 160.118 261.887 160.471C262.097 160.82 262.242 161.219 262.322 161.668ZM223.295 182.668V173.941H226.244C226.926 173.941 227.485 174.057 227.923 174.29C228.36 174.52 228.684 174.837 228.895 175.24C229.105 175.644 229.21 176.103 229.21 176.617C229.21 177.131 229.105 177.587 228.895 177.985C228.684 178.382 228.362 178.695 227.927 178.922C227.493 179.147 226.937 179.259 226.261 179.259H223.875V178.304H226.227C226.693 178.304 227.068 178.236 227.352 178.1C227.639 177.963 227.846 177.77 227.974 177.52C228.105 177.267 228.17 176.966 228.17 176.617C228.17 176.267 228.105 175.962 227.974 175.701C227.843 175.439 227.635 175.238 227.348 175.096C227.061 174.951 226.681 174.878 226.21 174.878H224.352V182.668H223.295ZM227.403 178.748L229.551 182.668H228.324L226.21 178.748H227.403ZM232.028 173.941V182.668H230.971V173.941H232.028ZM234.147 182.668V173.941H237.198C237.806 173.941 238.307 174.046 238.702 174.256C239.097 174.463 239.391 174.743 239.584 175.096C239.777 175.445 239.874 175.833 239.874 176.259C239.874 176.634 239.807 176.944 239.674 177.188C239.543 177.432 239.37 177.625 239.154 177.767C238.941 177.909 238.709 178.015 238.459 178.083V178.168C238.726 178.185 238.995 178.279 239.265 178.449C239.534 178.62 239.76 178.864 239.942 179.182C240.124 179.5 240.215 179.89 240.215 180.35C240.215 180.787 240.115 181.181 239.917 181.53C239.718 181.88 239.404 182.157 238.975 182.361C238.546 182.566 237.988 182.668 237.3 182.668H234.147ZM235.203 181.73H237.3C237.99 181.73 238.48 181.597 238.77 181.33C239.063 181.06 239.209 180.733 239.209 180.35C239.209 180.054 239.134 179.782 238.983 179.532C238.833 179.279 238.618 179.077 238.34 178.926C238.061 178.773 237.732 178.696 237.351 178.696H235.203V181.73ZM235.203 177.776H237.164C237.482 177.776 237.769 177.713 238.025 177.588C238.283 177.463 238.488 177.287 238.638 177.06C238.792 176.833 238.868 176.566 238.868 176.259C238.868 175.875 238.735 175.55 238.468 175.283C238.201 175.013 237.777 174.878 237.198 174.878H235.203V177.776ZM241.951 182.668V173.941H247.218V174.878H243.008V177.827H246.946V178.765H243.008V181.73H247.287V182.668H241.951Z" fill="#E8EEFD"></path><path d="M269.676 93.5723H194.008V197.042H269.676V93.5723Z" fill="#7181B4"></path><path d="M263.781 99.2324H188.977V238.134H263.781V99.2324Z" stroke="#829BE9" stroke-width="1.0386" stroke-miterlimit="10" stroke-dasharray="2.08 4.15"></path><path d="M188.977 93.5723L263.781 238.134" stroke="#829BE9" stroke-width="1.0386" stroke-miterlimit="10" stroke-dasharray="2.08 4.15"></path><path d="M263.781 93.5723L188.977 238.134" stroke="#829BE9" stroke-width="1.0386" stroke-miterlimit="10" stroke-dasharray="2.08 4.15"></path><path d="M264.215 52.125H188.547V191.027H264.215V52.125Z" fill="#829BE9"></path><path d="M258.754 62.1494H194.008V179.549H258.754V62.1494Z" fill="#E8EEFD"></path><path d="M246.205 105.794H206.562C204.633 105.794 203.07 104.229 203.07 102.297V101.986C203.07 100.054 204.634 98.4883 206.562 98.4883H246.205C248.134 98.4883 249.697 100.054 249.697 101.986V102.297C249.697 104.229 248.134 105.794 246.205 105.794Z" fill="#B4D7DC"></path><path d="M246.205 118.27H206.562C204.633 118.27 203.07 116.705 203.07 114.774V114.462C203.07 112.531 204.634 110.965 206.562 110.965H246.205C248.134 110.965 249.697 112.531 249.697 114.462V114.774C249.697 116.705 248.134 118.27 246.205 118.27Z" fill="#B4D7DC"></path><path d="M246.205 130.748H206.562C204.633 130.748 203.07 129.182 203.07 127.252V126.94C203.07 125.009 204.634 123.443 206.562 123.443H246.205C248.134 123.443 249.697 125.009 249.697 126.94V127.252C249.697 129.182 248.134 130.748 246.205 130.748Z" fill="#B4D7DC"></path><path d="M246.205 143.224H206.562C204.633 143.224 203.07 141.658 203.07 139.727V139.415C203.07 137.484 204.634 135.918 206.562 135.918H246.205C248.134 135.918 249.697 137.484 249.697 139.415V139.727C249.697 141.658 248.134 143.224 246.205 143.224Z" fill="#B4D7DC"></path><path d="M249.694 77.8046L226.381 85.9749L203.066 77.8046V52.125H249.694V77.8046Z" fill="#7997F6"></path><path d="M242.97 164.175H209.798C206.083 164.175 203.07 161.159 203.07 157.439V156.838C203.07 153.118 206.082 150.102 209.798 150.102H242.97C246.686 150.102 249.698 153.117 249.698 156.838V157.439C249.697 161.159 246.685 164.175 242.97 164.175Z" fill="#FFA50A"></path><path d="M228.159 94.2888V90.6329C225.819 90.5598 223.723 90.0967 221.87 89.2436V83.7962L225.49 83.5403V85.6608C225.49 86.002 225.539 86.2579 225.636 86.4285C225.734 86.5748 225.99 86.721 226.404 86.8672C226.818 87.0135 227.403 87.0866 228.159 87.0866V80.25C226.258 79.7137 224.881 79.1166 224.027 78.4585C223.174 77.8005 222.577 77.0936 222.236 76.3381C221.919 75.5825 221.761 74.6929 221.761 73.6692C221.761 71.8656 222.334 70.3789 223.479 69.209C224.649 68.0147 226.209 67.2835 228.159 67.0154V63.6519H230.901V66.9423C232.948 67.0641 234.837 67.5272 236.567 68.3315V73.4864L232.985 73.7058V71.7316C232.985 71.3903 232.936 71.1466 232.838 71.0004C232.741 70.8298 232.485 70.6835 232.071 70.5617C231.681 70.4398 231.291 70.3667 230.901 70.3423V76.7768H230.937C232.79 77.3374 234.276 78.0442 235.398 78.8972C236.811 79.9209 237.518 81.4442 237.518 83.4672C237.518 85.4902 236.909 87.0988 235.69 88.2931C234.496 89.4873 232.899 90.2307 230.901 90.5232V94.2888H228.159ZM232.985 83.7962C232.985 82.5776 232.29 81.688 230.901 81.1274V86.8307C232.29 86.392 232.985 85.3805 232.985 83.7962ZM228.159 70.5617C226.891 71.0004 226.258 71.8412 226.258 73.0843C226.258 74.3273 226.891 75.2413 228.159 75.8262V70.5617Z" fill="#FFA50A"></path><path d="M194.008 52.1246L220.027 39.9629" stroke="#C8E6EB" stroke-width="1.0446" stroke-miterlimit="10" stroke-linecap="round"></path><path d="M214.914 29.3401C214.914 35.053 219.539 39.685 225.245 39.685C230.951 39.685 235.576 35.0537 235.576 29.3401C235.576 23.6265 230.951 18.9952 225.245 18.9952V0" stroke="#87AFB9" stroke-width="4.1783" stroke-miterlimit="10"></path><path d="M225.242 37.8672L258.753 52.125" stroke="#C8E6EB" stroke-width="1.0446" stroke-miterlimit="10" stroke-linecap="round"></path><path d="M228.078 0H223V13.8509H228.078V0Z" fill="#FF8C46"></path><path d="M203.351 300.549C213.91 300.549 222.471 299.749 222.471 298.762C222.471 297.775 213.91 296.976 203.351 296.976C192.791 296.976 184.23 297.775 184.23 298.762C184.23 299.749 192.791 300.549 203.351 300.549Z" fill="#E4F2F6"></path><path d="M174.523 271.007C174.626 276.293 178.929 280.548 184.232 280.548C189.535 280.548 193.839 276.293 193.941 271.007H174.523Z" fill="#8CA4F0"></path><path d="M175.348 271.919L184.235 251.948L193.122 271.919" stroke="#8CA4F0" stroke-width="1.2343" stroke-miterlimit="10" stroke-linejoin="round"></path><path d="M212.227 271.007C212.328 276.293 216.632 280.548 221.935 280.548C227.238 280.548 231.542 276.293 231.644 271.007H212.227Z" fill="#8CA4F0"></path><path d="M213.047 271.919L221.934 251.948L230.822 271.919" stroke="#8CA4F0" stroke-width="1.2343" stroke-miterlimit="10" stroke-linejoin="round"></path><path d="M207.058 245.29H199.102V259.718H207.058V245.29Z" fill="#8CA4F0"></path><path d="M204.958 243.944C204.958 244.98 204.119 245.82 203.084 245.82C202.05 245.82 201.211 244.98 201.211 243.944C201.211 242.908 202.05 242.068 203.084 242.068C204.119 242.068 204.958 242.908 204.958 243.944Z" fill="#8CA4F0"></path><path d="M204.957 259.718H201.211V293.214H204.957V259.718Z" fill="#8CA4F0"></path><path d="M214.546 293.216H191.617V296.724H214.546V293.216Z" fill="#8CA4F0"></path><path d="M216.827 296.574H189.34V298.762H216.827V296.574Z" fill="#8CA4F0"></path><path d="M225.311 252.312H217.895L215.687 247.834H190.479L188.27 252.312H180.855" stroke="#8CA4F0" stroke-width="3.2341" stroke-miterlimit="10"></path><path d="M61.875 284.582H157.603" stroke="#73C8F0" stroke-miterlimit="10"></path><path d="M70.33 265.112C74.0331 265.112 77.0351 262.106 77.0351 258.398C77.0351 254.69 74.0331 251.684 70.33 251.684C66.627 251.684 63.625 254.69 63.625 258.398C63.625 262.106 66.627 265.112 70.33 265.112Z" fill="#829BE9"></path><path d="M70.3313 254.308C73.0998 254.308 75.3795 256.386 75.7108 259.069C75.7383 258.848 75.7564 258.625 75.7564 258.397C75.7564 255.397 73.3271 252.965 70.3313 252.965C67.3348 252.965 64.9062 255.397 64.9062 258.397C64.9062 258.625 64.9243 258.848 64.9518 259.069C65.2831 256.386 67.5628 254.308 70.3313 254.308Z" fill="#FFA50A"></path><path d="M71.0803 267.141V265.941C70.3123 265.917 69.6243 265.765 69.0163 265.485V263.697L70.2043 263.613V264.309C70.2043 264.421 70.2203 264.505 70.2523 264.561C70.2843 264.609 70.3683 264.657 70.5043 264.705C70.6403 264.753 70.8323 264.777 71.0803 264.777V262.533C70.4563 262.357 70.0043 262.161 69.7243 261.945C69.4443 261.729 69.2483 261.497 69.1363 261.249C69.0323 261.001 68.9803 260.709 68.9803 260.373C68.9803 259.781 69.1683 259.293 69.5443 258.909C69.9283 258.517 70.4403 258.277 71.0803 258.189V257.085H71.9803V258.165C72.6523 258.205 73.2723 258.357 73.8403 258.621V260.313L72.6643 260.385V259.737C72.6643 259.625 72.6483 259.545 72.6163 259.497C72.5843 259.441 72.5003 259.393 72.3643 259.353C72.2363 259.313 72.1083 259.289 71.9803 259.281V261.393H71.9923C72.6003 261.577 73.0883 261.809 73.4563 262.089C73.9203 262.425 74.1523 262.925 74.1523 263.589C74.1523 264.253 73.9523 264.781 73.5523 265.173C73.1603 265.565 72.6363 265.809 71.9803 265.905V267.141H71.0803ZM72.6643 263.697C72.6643 263.297 72.4363 263.005 71.9803 262.821V264.693C72.4363 264.549 72.6643 264.217 72.6643 263.697ZM71.0803 259.353C70.6643 259.497 70.4563 259.773 70.4563 260.181C70.4563 260.589 70.6643 260.889 71.0803 261.081V259.353Z" fill="#627CCE"></path><path d="M70.33 253.026C73.2876 253.026 75.6941 255.436 75.6941 258.398C75.6941 261.359 73.2876 263.769 70.33 263.769C67.3725 263.769 64.966 261.359 64.966 258.398C64.966 255.436 67.3725 253.026 70.33 253.026ZM70.33 251.684C66.6268 251.684 63.625 254.689 63.625 258.398C63.625 262.106 66.6268 265.112 70.33 265.112C74.0332 265.112 77.0351 262.106 77.0351 258.398C77.0351 254.689 74.0332 251.684 70.33 251.684Z" fill="#627CCE"></path><path d="M70.3281 265.111V284.893" stroke="#73C8F0" stroke-miterlimit="10"></path><path d="M74.5687 273.628C73.1714 275.027 70.4854 274.605 70.4854 274.605C70.4854 274.605 70.0643 271.915 71.4609 270.517C72.8583 269.117 75.5443 269.539 75.5443 269.539C75.5443 269.539 75.9661 272.229 74.5687 273.628Z" stroke="#73C8F0" stroke-miterlimit="10"></path><path d="M74.5687 281.014C73.1714 282.413 70.4854 281.991 70.4854 281.991C70.4854 281.991 70.0643 279.301 71.4609 277.902C72.8583 276.503 75.5443 276.925 75.5443 276.925C75.5443 276.925 75.9661 279.615 74.5687 281.014Z" stroke="#73C8F0" stroke-miterlimit="10"></path><path d="M66.0905 273.628C67.4878 275.027 70.1739 274.605 70.1739 274.605C70.1739 274.605 70.5949 271.915 69.1976 270.517C67.8003 269.117 65.1142 269.539 65.1142 269.539C65.1142 269.539 64.6932 272.229 66.0905 273.628Z" stroke="#73C8F0" stroke-miterlimit="10"></path><path d="M88.666 258.757C92.3691 258.757 95.371 255.751 95.371 252.043C95.371 248.335 92.3691 245.329 88.666 245.329C84.9629 245.329 81.9609 248.335 81.9609 252.043C81.9609 255.751 84.9629 258.757 88.666 258.757Z" fill="#829BE9"></path><path d="M88.6672 247.953C91.4357 247.953 93.7155 250.031 94.0467 252.714C94.0742 252.494 94.0923 252.27 94.0923 252.043C94.0923 249.042 91.6637 246.61 88.6672 246.61C85.6714 246.61 83.2422 249.042 83.2422 252.043C83.2422 252.27 83.261 252.494 83.2878 252.714C83.619 250.032 85.8987 247.953 88.6672 247.953Z" fill="#FFA50A"></path><path d="M89.4163 260.787V259.587C88.6483 259.563 87.9603 259.411 87.3523 259.131V257.343L88.5403 257.259V257.955C88.5403 258.067 88.5563 258.151 88.5883 258.207C88.6203 258.255 88.7043 258.303 88.8403 258.351C88.9763 258.399 89.1683 258.423 89.4163 258.423V256.179C88.7923 256.003 88.3403 255.807 88.0603 255.591C87.7803 255.375 87.5843 255.143 87.4723 254.895C87.3683 254.647 87.3163 254.355 87.3163 254.019C87.3163 253.427 87.5043 252.939 87.8803 252.555C88.2643 252.163 88.7763 251.923 89.4163 251.835V250.731H90.3163V251.811C90.9883 251.851 91.6083 252.003 92.1763 252.267V253.959L91.0003 254.031V253.383C91.0003 253.271 90.9843 253.191 90.9523 253.143C90.9203 253.087 90.8363 253.039 90.7003 252.999C90.5723 252.959 90.4443 252.935 90.3163 252.927V255.039H90.3283C90.9363 255.223 91.4243 255.455 91.7923 255.735C92.2563 256.071 92.4883 256.571 92.4883 257.235C92.4883 257.899 92.2883 258.427 91.8883 258.819C91.4963 259.211 90.9723 259.455 90.3163 259.551V260.787H89.4163ZM91.0003 257.343C91.0003 256.943 90.7723 256.651 90.3163 256.467V258.339C90.7723 258.195 91.0003 257.863 91.0003 257.343ZM89.4163 252.999C89.0003 253.143 88.7923 253.419 88.7923 253.827C88.7923 254.235 89.0003 254.535 89.4163 254.727V252.999Z" fill="#627CCE"></path><path d="M88.666 246.672C91.6236 246.672 94.03 249.082 94.03 252.043C94.03 255.005 91.6236 257.414 88.666 257.414C85.7084 257.414 83.3019 255.005 83.3019 252.043C83.3019 249.082 85.7084 246.672 88.666 246.672ZM88.666 245.329C84.9628 245.329 81.9609 248.335 81.9609 252.043C81.9609 255.751 84.9628 258.757 88.666 258.757C92.3692 258.757 95.371 255.751 95.371 252.043C95.371 248.335 92.3692 245.329 88.666 245.329Z" fill="#627CCE"></path><path d="M88.668 258.757V284.582" stroke="#73C8F0" stroke-miterlimit="10"></path><path d="M92.9086 267.274C91.5112 268.674 88.8252 268.252 88.8252 268.252C88.8252 268.252 88.4041 265.562 89.8008 264.163C91.1981 262.764 93.8842 263.186 93.8842 263.186C93.8842 263.186 94.3052 265.875 92.9086 267.274Z" stroke="#73C8F0" stroke-miterlimit="10"></path><path d="M92.9086 274.66C91.5112 276.059 88.8252 275.638 88.8252 275.638C88.8252 275.638 88.4041 272.947 89.8008 271.549C91.1981 270.15 93.8842 270.571 93.8842 270.571C93.8842 270.571 94.3052 273.261 92.9086 274.66Z" stroke="#73C8F0" stroke-miterlimit="10"></path><path d="M84.4262 267.274C85.8236 268.674 88.5096 268.252 88.5096 268.252C88.5096 268.252 88.9307 265.562 87.5334 264.163C86.136 262.764 83.45 263.186 83.45 263.186C83.45 263.186 83.0296 265.875 84.4262 267.274Z" stroke="#73C8F0" stroke-miterlimit="10"></path><path d="M107.592 265.134C111.295 265.134 114.297 262.128 114.297 258.42C114.297 254.712 111.295 251.706 107.592 251.706C103.889 251.706 100.887 254.712 100.887 258.42C100.887 262.128 103.889 265.134 107.592 265.134Z" fill="#829BE9"></path><path d="M107.593 254.33C110.362 254.33 112.641 256.408 112.972 259.091C113 258.871 113.018 258.647 113.018 258.42C113.018 255.42 110.59 252.987 107.593 252.987C104.597 252.987 102.168 255.419 102.168 258.42C102.168 258.647 102.187 258.871 102.214 259.091C102.545 256.408 104.825 254.33 107.593 254.33Z" fill="#FFA50A"></path><path d="M108.342 267.163V265.963C107.574 265.939 106.886 265.787 106.278 265.507V263.719L107.466 263.635V264.331C107.466 264.443 107.482 264.527 107.514 264.583C107.546 264.631 107.63 264.679 107.766 264.727C107.902 264.775 108.094 264.799 108.342 264.799V262.555C107.718 262.379 107.266 262.183 106.986 261.967C106.706 261.751 106.51 261.519 106.398 261.271C106.294 261.023 106.242 260.731 106.242 260.395C106.242 259.803 106.43 259.315 106.806 258.931C107.19 258.539 107.702 258.299 108.342 258.211V257.107H109.242V258.187C109.914 258.227 110.534 258.379 111.102 258.643V260.335L109.926 260.407V259.759C109.926 259.647 109.91 259.567 109.878 259.519C109.846 259.463 109.762 259.415 109.626 259.375C109.498 259.335 109.37 259.311 109.242 259.303V261.415H109.254C109.862 261.599 110.35 261.831 110.718 262.111C111.182 262.447 111.414 262.947 111.414 263.611C111.414 264.275 111.214 264.803 110.814 265.195C110.422 265.587 109.898 265.831 109.242 265.927V267.163H108.342ZM109.926 263.719C109.926 263.319 109.698 263.027 109.242 262.843V264.715C109.698 264.571 109.926 264.239 109.926 263.719ZM108.342 259.375C107.926 259.519 107.718 259.795 107.718 260.203C107.718 260.611 107.926 260.911 108.342 261.103V259.375Z" fill="#627CCE"></path><path d="M107.592 253.049C110.549 253.049 112.956 255.458 112.956 258.42C112.956 261.382 110.549 263.791 107.592 263.791C104.634 263.791 102.228 261.382 102.228 258.42C102.228 255.458 104.634 253.049 107.592 253.049ZM107.592 251.706C103.889 251.706 100.887 254.712 100.887 258.42C100.887 262.128 103.889 265.134 107.592 265.134C111.295 265.134 114.297 262.128 114.297 258.42C114.297 254.712 111.295 251.706 107.592 251.706Z" fill="#627CCE"></path><path d="M107.594 265.134V284.916" stroke="#73C8F0" stroke-miterlimit="10"></path><path d="M111.834 273.651C110.437 275.05 107.751 274.628 107.751 274.628C107.751 274.628 107.33 271.938 108.727 270.54C110.125 269.14 112.811 269.563 112.811 269.563C112.811 269.563 113.231 272.252 111.834 273.651Z" stroke="#73C8F0" stroke-miterlimit="10"></path><path d="M111.834 281.036C110.437 282.435 107.751 282.013 107.751 282.013C107.751 282.013 107.33 279.323 108.727 277.924C110.125 276.525 112.811 276.948 112.811 276.948C112.811 276.948 113.231 279.637 111.834 281.036Z" stroke="#73C8F0" stroke-miterlimit="10"></path><path d="M103.356 273.651C104.753 275.05 107.439 274.628 107.439 274.628C107.439 274.628 107.86 271.938 106.463 270.54C105.066 269.14 102.38 269.563 102.38 269.563C102.38 269.563 101.959 272.252 103.356 273.651Z" stroke="#73C8F0" stroke-miterlimit="10"></path><path d="M126.779 262.541C130.482 262.541 133.484 259.535 133.484 255.827C133.484 252.119 130.482 249.113 126.779 249.113C123.076 249.113 120.074 252.119 120.074 255.827C120.074 259.535 123.076 262.541 126.779 262.541Z" fill="#829BE9"></path><path d="M126.781 251.737C129.549 251.737 131.829 253.815 132.16 256.498C132.187 256.278 132.206 256.054 132.206 255.827C132.206 252.826 129.777 250.395 126.781 250.395C123.785 250.395 121.355 252.826 121.355 255.827C121.355 256.054 121.374 256.278 121.401 256.498C121.732 253.815 124.012 251.737 126.781 251.737Z" fill="#FFA50A"></path><path d="M127.53 264.571V263.371C126.762 263.347 126.074 263.195 125.466 262.915V261.127L126.654 261.043V261.739C126.654 261.851 126.67 261.935 126.702 261.991C126.734 262.039 126.818 262.087 126.954 262.135C127.09 262.183 127.282 262.207 127.53 262.207V259.963C126.906 259.787 126.454 259.591 126.174 259.375C125.894 259.159 125.698 258.927 125.586 258.679C125.482 258.431 125.43 258.139 125.43 257.803C125.43 257.211 125.618 256.723 125.994 256.339C126.378 255.947 126.89 255.707 127.53 255.619V254.515H128.43V255.595C129.102 255.635 129.722 255.787 130.29 256.051V257.743L129.114 257.815V257.167C129.114 257.055 129.098 256.975 129.066 256.927C129.034 256.871 128.95 256.823 128.814 256.783C128.686 256.743 128.558 256.719 128.43 256.711V258.823H128.442C129.05 259.007 129.538 259.239 129.906 259.519C130.37 259.855 130.602 260.355 130.602 261.019C130.602 261.683 130.402 262.211 130.002 262.603C129.61 262.995 129.086 263.239 128.43 263.335V264.571H127.53ZM129.114 261.127C129.114 260.727 128.886 260.435 128.43 260.251V262.123C128.886 261.979 129.114 261.647 129.114 261.127ZM127.53 256.783C127.114 256.927 126.906 257.203 126.906 257.611C126.906 258.019 127.114 258.319 127.53 258.511V256.783Z" fill="#627CCE"></path><path d="M126.779 250.456C129.737 250.456 132.143 252.866 132.143 255.827C132.143 258.789 129.737 261.198 126.779 261.198C123.822 261.198 121.415 258.789 121.415 255.827C121.415 252.866 123.822 250.456 126.779 250.456ZM126.779 249.113C123.076 249.113 120.074 252.119 120.074 255.827C120.074 259.535 123.076 262.541 126.779 262.541C130.482 262.541 133.484 259.535 133.484 255.827C133.484 252.119 130.482 249.113 126.779 249.113Z" fill="#627CCE"></path><path d="M126.781 262.541V284.582" stroke="#73C8F0" stroke-miterlimit="10"></path><path d="M131.018 271.058C129.621 272.457 126.935 272.035 126.935 272.035C126.935 272.035 126.514 269.345 127.91 267.946C129.307 266.547 131.994 266.969 131.994 266.969C131.994 266.969 132.415 269.659 131.018 271.058Z" stroke="#73C8F0" stroke-miterlimit="10"></path><path d="M131.018 278.443C129.621 279.843 126.935 279.421 126.935 279.421C126.935 279.421 126.514 276.731 127.91 275.332C129.307 273.933 131.994 274.355 131.994 274.355C131.994 274.355 132.415 277.045 131.018 278.443Z" stroke="#73C8F0" stroke-miterlimit="10"></path><path d="M122.543 271.058C123.94 272.457 126.627 272.035 126.627 272.035C126.627 272.035 127.048 269.345 125.651 267.946C124.254 266.547 121.568 266.969 121.568 266.969C121.568 266.969 121.146 269.659 122.543 271.058Z" stroke="#73C8F0" stroke-miterlimit="10"></path><path d="M160.969 284.582H171.265" stroke="#73C8F0" stroke-miterlimit="10"></path><path d="M51.1416 291.316C51.1416 292.688 41.1028 293.801 28.7192 293.801C16.3357 293.801 6.29688 292.689 6.29688 291.316C6.29688 289.943 16.3357 288.83 28.7192 288.83C41.1021 288.831 51.1416 289.943 51.1416 291.316Z" fill="#E4F2F6"></path><path d="M40.881 287.398C39.5956 288.267 38.0977 288.927 35.5645 288.572C35.2373 287.536 35.2722 286.238 35.5645 284.753H40.5323C39.6734 285.717 40.0013 286.823 40.881 287.398Z" fill="#C8E6EB"></path><path d="M34.1738 288.325C34.3387 287.972 34.7209 287.773 35.1084 287.802C36.2027 287.883 38.5501 288.267 40.0152 287.169C40.626 286.711 41.4212 286.581 42.1729 286.711C44.4157 287.098 48.477 287.909 49.0281 291.316C49.0281 291.316 44.2964 291.232 40.8808 291.014C37.2641 290.783 33.9585 289.984 33.9585 289.984C33.9558 289.453 33.8861 288.94 34.1738 288.325Z" fill="#73C8F0"></path><path d="M17.1406 287.321L23.0746 288.572C23.6371 287.452 23.5258 286.149 23.0746 284.753H18.1068C18.4367 285.852 18.5567 286.662 17.1406 287.321Z" fill="#C8E6EB"></path><path d="M39.3526 230.874H22.075C17.9561 248.173 19.3602 248.831 18.8459 257.956C18.3879 266.081 17.1797 285.312 17.1797 285.312C18.3665 286.744 21.8612 286.458 23.6608 285.557C23.6608 285.557 26.4514 266.132 26.7632 262.395C26.965 259.976 29.3916 247.078 30.4282 241.631L31.5526 241.22C31.9274 245.192 33.1846 258.61 33.3811 262.063C33.7633 268.778 35.1935 285.702 35.1935 285.702C36.3333 286.204 40.5313 285.665 41.1516 284.623C41.1516 284.623 41.4875 268.285 41.4875 260.148C41.4875 251.007 40.6313 247.52 39.3526 230.874Z" fill="#1E87DC"></path><path d="M24.0972 288.325C23.9323 287.972 23.5501 287.773 23.1619 287.802C22.0676 287.883 19.7208 288.267 18.2551 287.169C17.6443 286.711 16.8491 286.581 16.0974 286.711C13.8546 287.098 9.79334 287.909 9.24219 291.316C9.24219 291.316 13.5924 291.316 17.5497 291.014C20.3498 290.8 24.3111 289.984 24.3111 289.984C24.3151 289.453 24.3855 288.94 24.0972 288.325Z" fill="#73C8F0"></path><path d="M21.8788 237.178C21.2512 236.661 20.4044 235.606 20.222 234.813C18.8951 229.064 17.5782 221.718 16.9814 219.665C18.2078 216.23 19.288 213.545 19.699 211.359L14.8593 207.195C14.8593 207.195 11.5651 219.442 11.5302 219.462C10.6988 224.875 17.6224 236.488 17.6224 236.488L17.0492 239.696C17.0371 239.763 17.0465 239.831 17.0431 239.898C16.7796 240.56 15.8362 242.977 16.0823 243.106C16.3163 243.228 17.0089 242.146 17.5943 241.132C17.6439 241.173 17.6841 241.222 17.7405 241.255C17.7619 241.269 17.7881 241.282 17.8109 241.296C17.6654 242.09 17.2248 244.649 17.5681 244.748C17.9704 244.864 18.6175 243.121 19.0178 241.899C19.115 241.939 19.2176 241.976 19.3195 242.013C19.2598 242.632 19.005 245.501 19.3765 245.572C19.8157 245.655 20.3366 243.601 20.6116 242.352C20.7088 242.367 20.8087 242.375 20.9073 242.385C20.9951 243.296 21.2405 245.476 21.5751 245.489C22.2147 245.514 22.375 241.175 22.375 241.175C22.4226 240.879 22.4541 240.574 22.4722 240.315C22.4923 240.029 22.8061 239.87 23.0555 240.012C23.5256 240.279 24.9859 241.039 25.5331 240.697C26.052 240.374 23.4156 238.444 21.8788 237.178Z" fill="#FAB197"></path><path d="M50.1102 200.918C46.0792 202.797 42.4169 202.584 39.6845 200.739C39.6845 200.715 39.6852 200.685 39.6845 200.662C37.2962 199.4 34.3587 197.998 34.3587 197.998L28.0412 196.474C28.0412 196.474 23.1224 197.652 19.9663 198.73C19.9637 198.721 19.961 198.715 19.9583 198.707C19.4085 198.911 18.9224 199.123 18.561 199.339C15.4787 201.183 12.8047 213.794 12.8047 213.794C14.0968 216.192 16.6192 217.758 18.563 217.534C19.143 215.416 19.3555 214.256 19.957 211.959C18.9948 220.923 19.9992 233.836 19.9992 233.836C31.0766 237.201 40.3148 234.709 40.3148 234.709C40.3148 234.709 39.0342 226.844 38.8665 224.062C38.6345 220.193 38.4052 216.99 38.4461 215.734C38.4294 215.839 38.7371 212.839 39.0496 209.444C39.0637 209.454 39.0798 209.465 39.0938 209.473C41.7296 210.831 46.1174 210.425 50.5648 208.5C51.6899 206.369 50.9765 202.906 50.1102 200.918Z" fill="#87A0F0"></path><path d="M24.1958 187.691C24.6659 192.226 27.6845 194.146 31.6203 194.146C35.5562 194.146 37.2385 190.233 37.2385 185.674C37.2385 181.115 35.7808 178.459 31.216 178.464C25.3806 178.469 23.7131 183.033 24.1958 187.691Z" fill="#32285F"></path><path d="M25.3789 187.313C25.3789 188.694 26.5161 190.23 27.0136 191.469C27.9952 193.912 29.7841 195.759 31.7433 195.759C33.0636 195.759 34.357 194.866 35.3828 193.513C36.6508 191.84 36.7668 189.384 36.7668 187.114C36.7668 183.006 35.3124 180.246 31.6696 180.246C28.7167 180.245 25.3789 182.073 25.3789 187.313Z" fill="#FAB197"></path><path d="M27.5845 199.435C29.702 200.667 32.3431 200.873 33.8987 200.018C34.2969 199.799 34.49 199.342 34.4384 198.891C34.2138 196.937 34.256 194.813 34.5262 192.542L28.2537 192.077C28.023 194.247 27.7153 195.793 26.9214 197.296C26.5184 198.058 26.8396 199.001 27.5845 199.435Z" fill="#FAB197"></path><path d="M34.3018 196.214C33.6856 196.606 33.0318 196.829 32.372 196.829C30.6703 196.829 29.1053 195.426 28.0781 193.459C28.0795 193.448 28.0815 193.438 28.0828 193.427C29.0718 194.827 30.3632 195.759 31.7458 195.759C32.653 195.759 33.5454 195.33 34.3487 194.627C34.3178 195.166 34.3018 195.695 34.3018 196.214Z" fill="#F5876E"></path><path d="M25.1211 188.702H26.9382C27.3867 188.702 27.7501 188.338 27.7501 187.889V184.22H25.1211V188.702Z" fill="#32285F"></path><path d="M25.1456 188.975C25.2516 190.108 25.7947 190.921 26.3539 190.869C26.9131 190.816 27.1478 189.887 27.0418 188.755C26.9359 187.621 26.3961 186.746 25.8369 186.798C25.2777 186.85 25.0397 187.842 25.1456 188.975Z" fill="#FAB197"></path><path d="M25.5938 185.996H34.1071C35.414 185.996 36.4734 184.935 36.4734 183.626V182.011C36.4734 180.901 35.5749 180.002 34.4672 180.002H27.4249C26.4138 180.002 25.5938 180.823 25.5938 181.836V185.996Z" fill="#32285F"></path><path d="M63.9457 184.154C63.5085 182.95 61.3099 181.575 61.3099 181.575C61.3099 181.575 61.5721 176.878 60.8064 177.097C60.0413 177.316 59.3259 181.071 59.3259 181.071C59.3259 181.071 58.7788 181.237 58.123 183.554C57.4673 185.871 58.6111 187.725 58.6111 187.725C58.4301 189.665 56.7176 192.054 55.679 194.425C54.6981 196.662 51.1397 201.132 51.1397 201.132C51.1397 201.132 50.8112 201.246 50.2969 201.411C50.9466 203.122 51.4186 205.581 50.9298 207.496C52.2313 207.064 53.3215 206.539 53.8787 206.072C58.4462 202.263 61.6002 194.182 62.1695 188.426C62.1695 188.426 64.3828 185.359 63.9457 184.154Z" fill="#FAB197"></path><path d="M50.9296 207.495C42.4007 210.257 39.0469 207.495 39.0469 207.495V209.443C39.061 209.453 39.077 209.464 39.0911 209.472C41.7269 210.83 46.1147 210.424 50.5621 208.499C50.7244 208.191 50.839 207.85 50.9296 207.495Z" fill="#81E2D6"></path><path d="M19.9905 212.694L20.8025 207.909L17.4453 217.463C17.8282 217.536 18.2063 217.573 18.5617 217.532C19.1417 215.415 19.3542 214.255 19.9557 211.958C19.8973 212.504 19.8457 213.065 19.8015 213.637L19.9905 212.694Z" fill="#81E2D6"></path><path d="M262.901 304.999C272.887 304.999 280.982 303.761 280.982 302.233C280.982 300.705 272.887 299.466 262.901 299.466C252.915 299.466 244.82 300.705 244.82 302.233C244.82 303.761 252.915 304.999 262.901 304.999Z" fill="#E4F2F6"></path><path d="M252.368 207.427C252.368 207.427 238.387 199.987 237.68 199.704C236.974 199.422 232.937 198.617 232.937 198.617C232.937 198.617 226.061 198.779 225.985 199.796C225.931 200.52 230.358 200.414 230.358 200.414C230.358 200.414 230.603 202.852 231.591 203.277C232.579 203.701 236.468 203.052 236.468 203.052C236.468 203.052 246.747 213.578 252.452 213.571L252.368 207.427Z" fill="#FAB197"></path><path d="M261.92 208.894C261.92 208.894 258.556 208.62 251.869 207.065C251.869 207.065 251.087 212.063 251.628 214.464C251.628 214.464 258.225 217.476 260.101 217.013L261.92 208.894Z" fill="#87A0F0"></path><path d="M257.328 298.222L263.138 299.567C263.713 298.478 263.628 297.194 263.212 295.813L258.328 295.717C258.631 296.803 258.733 297.602 257.328 298.222Z" fill="#C8E6EB"></path><path d="M264.15 299.343C263.995 298.993 263.623 298.79 263.241 298.811C262.164 298.869 259.848 299.201 258.429 298.093C257.838 297.631 257.058 297.488 256.317 297.601C254.104 297.938 250.096 298.658 249.488 301.996C249.488 301.996 253.765 302.08 257.662 301.86C260.42 301.704 264.331 300.979 264.331 300.979C264.343 300.456 264.422 299.953 264.15 299.343Z" fill="#73C8F0"></path><path d="M270.516 298.443L276.326 299.788C276.9 298.698 276.816 297.415 276.399 296.033L271.515 295.938C271.818 297.024 271.92 297.823 270.516 298.443Z" fill="#C8E6EB"></path><path d="M277.342 299.564C277.186 299.214 276.814 299.011 276.432 299.031C275.355 299.09 273.04 299.422 271.621 298.314C271.029 297.852 270.25 297.709 269.508 297.822C267.295 298.159 263.287 298.878 262.68 302.217C262.68 302.217 266.957 302.301 270.854 302.081C273.611 301.925 277.521 301.199 277.521 301.199C277.535 300.676 277.613 300.174 277.342 299.564Z" fill="#73C8F0"></path><path d="M275.366 242.644H258.046C258.181 251.223 256.701 261.838 256.921 270.824C257.117 278.823 257.567 296.391 257.567 296.391C258.844 297.7 262.247 297.142 263.939 296.115C263.939 296.115 263.535 276.28 263.544 272.592C263.547 271.181 264.723 264.845 265.983 258.454C266.02 258.815 266.056 259.183 266.094 259.567C266.883 267.53 270.157 296.417 270.157 296.417C271.528 297.627 274.88 296.817 276.491 295.667L275.366 242.644Z" fill="#3C5A73"></path><path d="M273.88 198.283C273.546 201.563 270.195 204.63 266.039 204.63C261.882 204.63 260.105 200.783 260.105 196.299C260.105 191.815 261.645 189.204 266.466 189.209C272.628 189.215 274.347 193.699 273.88 198.283Z" fill="#32285F"></path><path d="M272.502 194.715C271.953 189.61 268.022 189.69 263.417 190.349C260.425 190.777 259.622 193.775 259.402 196.849L259.401 196.826C259.401 196.826 258.744 199.21 258.071 200.168C257.898 200.414 257.959 200.753 258.203 200.928C258.369 201.047 258.574 201.16 258.806 201.23C259.115 201.323 259.325 201.607 259.367 201.927C259.543 203.278 260.21 206.331 262.595 206.213C263.927 206.147 268.506 204.176 270.598 202.7C271.723 201.907 273.05 199.821 272.502 194.715Z" fill="#FAB197"></path><path d="M260.103 208.565C261.003 207.284 267.983 206.919 267.983 206.919C267.983 206.919 272.211 207.34 274.831 208.775C274.165 211.359 275.366 219.13 275.744 223.268C275.869 229.523 275.751 243.576 275.751 243.576C264.78 247.735 257.829 244.314 257.829 244.314C257.829 244.314 256.894 234.199 258.177 224.581C258.978 218.571 257.678 212.015 260.103 208.565Z" fill="#87A0F0"></path><path d="M270.373 207.189C270.768 207.939 270.452 208.867 269.72 209.292C267.637 210.504 265.04 210.706 263.511 209.865C263.119 209.649 262.929 209.201 262.98 208.757C263.201 206.836 263.16 204.747 262.895 202.514L269.063 202.057C269.29 204.191 269.592 205.71 270.373 207.189Z" fill="#FAB197"></path><path d="M269.031 198.872H267.244C266.803 198.872 266.445 198.514 266.445 198.072V194.464H269.031V198.872Z" fill="#32285F"></path><path d="M271.558 195.305H261.896C259.634 195.305 257.801 193.877 257.801 192.116C257.801 190.622 259.085 188.722 261.003 188.722H267.706C269.457 188.722 271.558 190.516 271.558 191.88V195.305Z" fill="#32285F"></path><path d="M268.507 201.564C268.507 201.564 268.63 202.298 268.266 203.027C268.266 203.027 269.617 205.109 270.917 204.849L271.375 202.87L268.507 201.564Z" fill="#32285F"></path><path d="M268.117 194.464L268.504 202.153L271.369 202.871C271.369 202.871 274.769 196.309 272.626 192.78C270.483 189.25 268.117 194.464 268.117 194.464Z" fill="#32285F"></path><path d="M269.138 199.789C269.034 200.903 268.273 201.682 267.448 201.604C266.624 201.527 266.236 200.599 266.341 199.485C266.445 198.371 267.198 197.53 268.022 197.607C268.847 197.684 269.242 198.674 269.138 199.789Z" fill="#FAB197"></path><path d="M260.899 248.447H287V229.331H260.899V248.447Z" fill="#87AFB9"></path><path d="M275.414 245.163C275.943 244.563 276.6 243.406 276.654 242.608C277.047 236.819 277.183 229.481 277.442 227.394C275.717 224.252 274.25 221.814 273.51 219.754L277.561 214.956C277.561 214.956 282.666 226.332 282.703 226.347C284.353 231.472 279.439 243.83 279.439 243.83L280.265 246.363C280.467 246.941 280.827 248.36 280.361 248.756C279.571 249.424 277.858 249.647 276.276 249.808C275.795 249.857 275.506 249.077 275.326 248.302C275.262 248.027 274.932 247.922 274.712 248.099C274.298 248.432 272.999 249.397 272.414 249.152C271.86 248.918 274.118 246.632 275.414 245.163Z" fill="#FAB197"></path><path d="M273.013 217.475C272.554 213.543 272.112 211.841 274.729 208.724C274.757 208.738 274.788 208.752 274.816 208.767C274.821 208.772 274.827 208.777 274.832 208.782C274.169 211.371 275.368 219.134 275.746 223.269C275.773 224.621 275.789 226.338 275.797 228.199C274.621 227.034 272.664 221.218 273.013 217.475Z" fill="#87A0F0"></path><path d="M274.745 208.704C277.823 211.198 282.285 222.854 282.285 222.854C281.267 225.332 278.189 226.665 276.265 226.645C275.089 225.496 273.732 220.672 273.013 217.475C272.554 213.535 272.11 211.834 274.745 208.704Z" fill="#87A0F0"></path></svg>