<svg xmlns="http://www.w3.org/2000/svg" width="318" height="286" viewBox="0 0 318 286" fill="none"><path d="M144.902 192.044L205.135 156.937C206.174 156.332 206.178 154.831 205.142 154.219L166.329 131.329" stroke="#FFB06D" stroke-miterlimit="10"></path><path d="M179.867 230.097L235.025 198.052" stroke="#B5E9FE" stroke-miterlimit="10"></path><path d="M82.4219 169.313L137.58 137.268" stroke="#B5E9FE" stroke-miterlimit="10"></path><path d="M175.41 227.348L230.567 195.303" stroke="#FF5A72" stroke-miterlimit="10"></path><path d="M190.876 218.363C191.706 218.843 191.711 219.62 190.885 220.099C190.06 220.579 188.718 220.579 187.888 220.099C187.057 219.619 187.052 218.843 187.878 218.363C188.703 217.883 190.045 217.883 190.876 218.363Z" fill="#FF5A72"></path><path d="M195.415 215.726C196.245 216.206 196.25 216.983 195.424 217.462C194.599 217.942 193.257 217.942 192.427 217.462C191.596 216.983 191.591 216.205 192.417 215.726C193.241 215.247 194.583 215.247 195.415 215.726Z" fill="#FF5A72"></path><path d="M199.95 213.091C200.78 213.57 200.785 214.348 199.959 214.827C199.134 215.307 197.792 215.307 196.962 214.827C196.131 214.347 196.127 213.57 196.952 213.091C197.777 212.611 199.119 212.611 199.95 213.091Z" fill="#FF5A72"></path><path d="M146.91 185.724L195.913 157.163C196.953 156.557 196.957 155.056 195.92 154.445L157.108 131.555" stroke="#FF5A72" stroke-miterlimit="10"></path><path d="M184.899 163.25C185.73 163.73 185.734 164.507 184.909 164.987C184.084 165.467 182.742 165.467 181.911 164.987C181.081 164.507 181.076 163.73 181.902 163.25C182.727 162.771 184.069 162.771 184.899 163.25Z" fill="#FF5A72"></path><path d="M189.438 160.615C190.269 161.095 190.273 161.871 189.448 162.351C188.623 162.831 187.281 162.831 186.45 162.351C185.62 161.871 185.615 161.095 186.441 160.615C187.265 160.135 188.607 160.135 189.438 160.615Z" fill="#FF5A72"></path><path d="M193.973 157.978C194.804 158.458 194.809 159.235 193.983 159.715C193.158 160.194 191.816 160.194 190.985 159.715C190.155 159.235 190.15 158.458 190.976 157.978C191.801 157.499 193.143 157.499 193.973 157.978Z" fill="#FF5A72"></path><path d="M189.29 148.586C190.12 149.066 190.125 149.843 189.299 150.322C188.474 150.802 187.132 150.802 186.302 150.322C185.471 149.843 185.466 149.066 186.292 148.586C187.117 148.106 188.459 148.106 189.29 148.586Z" fill="#FF5A72"></path><path d="M184.751 145.946C185.581 146.426 185.586 147.203 184.76 147.683C183.935 148.162 182.593 148.162 181.763 147.683C180.932 147.203 180.927 146.426 181.753 145.946C182.578 145.467 183.92 145.467 184.751 145.946Z" fill="#FF5A72"></path><path d="M176.178 175.063L101.685 218.482C99.9689 219.482 97.8478 219.481 96.1337 218.478L69.5273 202.906" stroke="#FF5A72" stroke-miterlimit="10"></path><path d="M91.9225 214.411C92.753 214.89 92.7578 215.667 91.932 216.147C91.107 216.627 89.765 216.627 88.9345 216.147C88.1039 215.667 88.0992 214.89 88.925 214.411C89.7492 213.931 91.0912 213.931 91.9225 214.411Z" fill="#FF5A72"></path><path d="M87.3834 211.771C88.214 212.251 88.2187 213.027 87.3929 213.507C86.5679 213.987 85.2259 213.987 84.3954 213.507C83.5649 213.027 83.5601 212.251 84.3859 211.771C85.2109 211.292 86.5529 211.292 87.3834 211.771Z" fill="#FF5A72"></path><path d="M184.332 232.846L239.49 200.8" stroke="#FFB06D" stroke-miterlimit="10"></path><path d="M223.047 210.35C223.878 210.83 223.883 211.607 223.057 212.086C222.232 212.566 220.89 212.566 220.059 212.086C219.229 211.607 219.224 210.829 220.05 210.35C220.875 209.871 222.217 209.871 223.047 210.35Z" fill="#FFB06D"></path><path d="M227.587 207.715C228.417 208.194 228.422 208.971 227.596 209.451C226.771 209.931 225.429 209.931 224.599 209.451C223.768 208.971 223.763 208.194 224.589 207.715C225.414 207.235 226.756 207.235 227.587 207.715Z" fill="#FFB06D"></path><path d="M232.122 205.078C232.952 205.558 232.957 206.334 232.131 206.814C231.306 207.294 229.964 207.294 229.134 206.814C228.303 206.334 228.298 205.558 229.124 205.078C229.949 204.599 231.291 204.599 232.122 205.078Z" fill="#FFB06D"></path><path d="M173.054 171.728L101.684 213.326C99.9681 214.326 97.847 214.323 96.1329 213.321L69.5273 197.749" stroke="#FFB06D" stroke-miterlimit="10"></path><path d="M121.766 201.572C122.597 202.051 122.602 202.828 121.776 203.308C120.951 203.788 119.609 203.788 118.778 203.308C117.948 202.828 117.943 202.051 118.769 201.572C119.594 201.092 120.936 201.092 121.766 201.572Z" fill="#FFB06D"></path><path d="M126.305 198.935C127.136 199.415 127.141 200.192 126.315 200.671C125.49 201.151 124.148 201.151 123.317 200.671C122.487 200.192 122.482 199.414 123.308 198.935C124.133 198.455 125.475 198.455 126.305 198.935Z" fill="#FFB06D"></path><path d="M130.841 196.299C131.672 196.779 131.677 197.557 130.851 198.036C130.026 198.515 128.684 198.515 127.852 198.036C127.022 197.556 127.017 196.779 127.843 196.299C128.668 195.82 130.01 195.82 130.841 196.299Z" fill="#FFB06D"></path><path d="M86.8867 172.062L142.045 140.017" stroke="#FFB06D" stroke-miterlimit="10"></path><path d="M126.462 149.142C127.292 149.622 127.297 150.398 126.471 150.878C125.646 151.358 124.304 151.358 123.474 150.878C122.643 150.398 122.638 149.622 123.464 149.142C124.289 148.662 125.631 148.662 126.462 149.142Z" fill="#FFB06D"></path><path d="M131.001 146.506C131.831 146.986 131.836 147.763 131.01 148.242C130.185 148.722 128.843 148.722 128.013 148.242C127.182 147.763 127.177 146.986 128.003 146.506C128.828 146.026 130.17 146.026 131.001 146.506Z" fill="#FFB06D"></path><path d="M135.536 143.87C136.366 144.349 136.371 145.127 135.545 145.606C134.72 146.086 133.378 146.086 132.548 145.606C131.717 145.126 131.712 144.349 132.538 143.87C133.362 143.39 134.704 143.39 135.536 143.87Z" fill="#FFB06D"></path><path d="M163.152 195.637L234.523 154.04C236.238 153.04 238.36 153.041 240.074 154.044L266.68 169.616" stroke="#FFB06D" stroke-miterlimit="10"></path><path d="M201.606 173.218C202.437 173.698 202.441 174.475 201.616 174.955C200.791 175.435 199.449 175.435 198.618 174.955C197.788 174.475 197.783 173.698 198.609 173.218C199.434 172.739 200.775 172.739 201.606 173.218Z" fill="#FFB06D"></path><path d="M206.141 170.583C206.972 171.063 206.977 171.839 206.151 172.319C205.326 172.799 203.984 172.799 203.153 172.319C202.323 171.839 202.318 171.063 203.144 170.583C203.969 170.103 205.311 170.103 206.141 170.583Z" fill="#FFB06D"></path><path d="M210.68 167.946C211.511 168.426 211.516 169.204 210.69 169.683C209.865 170.162 208.523 170.162 207.692 169.683C206.862 169.203 206.857 168.426 207.683 167.946C208.508 167.467 209.85 167.467 210.68 167.946Z" fill="#FFB06D"></path><path d="M160.031 192.302L234.525 148.883C236.241 147.883 238.362 147.885 240.076 148.888L266.682 164.459" stroke="#B5E9FE" stroke-miterlimit="10"></path><path d="M188.297 175.855C189.128 176.335 189.133 177.112 188.307 177.591C187.482 178.071 186.14 178.071 185.309 177.591C184.479 177.111 184.474 176.335 185.3 175.855C186.125 175.375 187.466 175.375 188.297 175.855Z" fill="#B5E9FE"></path><path d="M192.837 173.218C193.667 173.698 193.672 174.475 192.846 174.955C192.021 175.435 190.679 175.435 189.849 174.955C189.018 174.475 189.013 173.698 189.839 173.218C190.663 172.739 192.005 172.739 192.837 173.218Z" fill="#B5E9FE"></path><path d="M197.372 170.583C198.202 171.063 198.207 171.839 197.381 172.319C196.556 172.799 195.214 172.799 194.384 172.319C193.553 171.839 193.548 171.063 194.374 170.583C195.199 170.103 196.541 170.103 197.372 170.583Z" fill="#B5E9FE"></path><path d="M176.184 187.289L127.18 215.85C126.141 216.455 126.137 217.957 127.173 218.568L165.986 241.458" stroke="#FF5A72" stroke-miterlimit="10"></path><path d="M138.372 223.458C139.202 223.937 139.207 224.715 138.381 225.194C137.556 225.674 136.214 225.674 135.384 225.194C134.553 224.714 134.548 223.937 135.374 223.458C136.199 222.978 137.541 222.978 138.372 223.458Z" fill="#FF5A72"></path><path d="M133.833 220.819C134.663 221.298 134.668 222.076 133.842 222.555C133.017 223.035 131.675 223.035 130.845 222.555C130.014 222.075 130.009 221.298 130.835 220.819C131.66 220.339 133.002 220.339 133.833 220.819Z" fill="#FF5A72"></path><path d="M140.829 208.01C141.659 208.49 141.664 209.266 140.838 209.746C140.013 210.226 138.671 210.226 137.841 209.746C137.01 209.266 137.005 208.49 137.831 208.01C138.656 207.53 139.998 207.53 140.829 208.01Z" fill="#FF5A72"></path><path d="M145.368 205.374C146.198 205.854 146.203 206.632 145.377 207.111C144.552 207.59 143.21 207.59 142.38 207.111C141.549 206.631 141.545 205.853 142.37 205.374C143.195 204.894 144.537 204.894 145.368 205.374Z" fill="#FF5A72"></path><path d="M149.903 202.738C150.733 203.218 150.738 203.994 149.912 204.474C149.087 204.954 147.745 204.954 146.915 204.474C146.084 203.994 146.08 203.218 146.905 202.738C147.73 202.258 149.072 202.258 149.903 202.738Z" fill="#FF5A72"></path><path d="M178.186 180.969L117.954 216.075C116.914 216.681 116.91 218.182 117.947 218.793L156.759 241.683" stroke="#B5E9FE" stroke-miterlimit="10"></path><path d="M124.903 211.874C125.733 212.353 125.738 213.131 124.912 213.61C124.087 214.09 122.745 214.09 121.915 213.61C121.084 213.13 121.08 212.353 121.905 211.874C122.73 211.395 124.072 211.395 124.903 211.874Z" fill="#B5E9FE"></path><path d="M129.442 209.238C130.273 209.718 130.277 210.495 129.452 210.974C128.627 211.454 127.285 211.454 126.454 210.974C125.623 210.495 125.619 209.717 126.445 209.238C127.269 208.758 128.611 208.758 129.442 209.238Z" fill="#B5E9FE"></path><path d="M133.977 206.602C134.808 207.082 134.812 207.859 133.987 208.339C133.162 208.818 131.82 208.818 130.989 208.339C130.159 207.859 130.154 207.082 130.98 206.602C131.805 206.122 133.147 206.122 133.977 206.602Z" fill="#B5E9FE"></path><path d="M77.9648 166.565L133.123 134.52" stroke="#FF5A72" stroke-miterlimit="10"></path><path d="M111.903 146.85C112.733 147.329 112.738 148.106 111.912 148.586C111.087 149.066 109.745 149.066 108.915 148.586C108.084 148.106 108.08 147.329 108.905 146.85C109.73 146.37 111.072 146.37 111.903 146.85Z" fill="#FF5A72"></path><path d="M116.439 144.214C117.269 144.694 117.274 145.471 116.448 145.95C115.623 146.43 114.281 146.43 113.45 145.95C112.62 145.471 112.615 144.694 113.441 144.214C114.266 143.734 115.608 143.734 116.439 144.214Z" fill="#FF5A72"></path><path d="M120.977 141.578C121.808 142.057 121.812 142.834 120.987 143.314C120.162 143.794 118.82 143.794 117.989 143.314C117.159 142.834 117.154 142.057 117.98 141.578C118.804 141.099 120.146 141.099 120.977 141.578Z" fill="#FF5A72"></path><path d="M89.1289 63.8464C89.1289 63.4434 89.4116 62.9533 89.7607 62.7522C90.1099 62.5503 90.3925 62.7142 90.3925 63.1172C90.3925 63.5202 90.1099 64.0103 89.7607 64.2114C89.4116 64.4133 89.1289 64.2494 89.1289 63.8464Z" fill="white"></path><path d="M89.1289 55.7832C89.1289 55.3802 89.4116 54.8901 89.7607 54.689C90.1099 54.4871 90.3925 54.651 90.3925 55.054C90.3925 55.457 90.1099 55.9471 89.7607 56.1482C89.4116 56.3493 89.1289 56.1862 89.1289 55.7832Z" fill="white"></path><path d="M89.1289 47.7202C89.1289 47.3172 89.4116 46.8271 89.7607 46.626C90.1099 46.4241 90.3925 46.588 90.3925 46.991C90.3925 47.394 90.1099 47.8841 89.7607 48.0852C89.4116 48.2863 89.1289 48.1232 89.1289 47.7202Z" fill="white"></path><path d="M89.1289 39.6564C89.1289 39.2534 89.4116 38.7633 89.7607 38.5622C90.1099 38.3611 90.3925 38.5242 90.3925 38.9272C90.3925 39.3302 90.1099 39.8202 89.7607 40.0213C89.4116 40.2224 89.1289 40.0594 89.1289 39.6564Z" fill="white"></path><path d="M89.1289 31.5932C89.1289 31.1902 89.4116 30.7001 89.7607 30.499C90.1099 30.2972 90.3925 30.461 90.3925 30.864C90.3925 31.267 90.1099 31.7571 89.7607 31.9582C89.4116 32.1593 89.1289 31.9962 89.1289 31.5932Z" fill="white"></path><path d="M89.1289 23.5295C89.1289 23.1265 89.4116 22.6364 89.7607 22.4353C90.1099 22.2334 90.3925 22.3973 90.3925 22.8003C90.3925 23.2033 90.1099 23.6934 89.7607 23.8945C89.4116 24.0964 89.1289 23.9325 89.1289 23.5295Z" fill="white"></path><path d="M89.1289 15.4664C89.1289 15.0634 89.4116 14.5733 89.7607 14.3722C90.1099 14.1711 90.3925 14.3342 90.3925 14.7372C90.3925 15.1402 90.1099 15.6303 89.7607 15.8314C89.4116 16.0325 89.1289 15.8694 89.1289 15.4664Z" fill="white"></path><path d="M123.586 83.1363C123.586 82.7333 123.869 82.2433 124.218 82.0422C124.567 81.8411 124.85 82.0042 124.85 82.4071C124.85 82.8101 124.567 83.3002 124.218 83.5013C123.869 83.7024 123.586 83.5393 123.586 83.1363Z" fill="white"></path><path d="M123.586 75.0724C123.586 74.6694 123.869 74.1793 124.218 73.9782C124.567 73.7771 124.85 73.9402 124.85 74.3432C124.85 74.7462 124.567 75.2363 124.218 75.4374C123.869 75.6385 123.586 75.4754 123.586 75.0724Z" fill="white"></path><path d="M123.586 67.0094C123.586 66.6064 123.869 66.1163 124.218 65.9152C124.567 65.7141 124.85 65.8772 124.85 66.2802C124.85 66.6832 124.567 67.1733 124.218 67.3744C123.869 67.5755 123.586 67.4124 123.586 67.0094Z" fill="white"></path><path d="M123.586 58.9454C123.586 58.5424 123.869 58.0523 124.218 57.8512C124.567 57.6501 124.85 57.8132 124.85 58.2162C124.85 58.6192 124.567 59.1093 124.218 59.3104C123.869 59.5115 123.586 59.3484 123.586 58.9454Z" fill="white"></path><path d="M123.586 50.8824C123.586 50.4794 123.869 49.9894 124.218 49.7883C124.567 49.5871 124.85 49.7502 124.85 50.1532C124.85 50.5562 124.567 51.0463 124.218 51.2474C123.869 51.4485 123.586 51.2854 123.586 50.8824Z" fill="white"></path><path d="M123.586 42.8185C123.586 42.4155 123.869 41.9254 124.218 41.7243C124.567 41.5232 124.85 41.6863 124.85 42.0893C124.85 42.4923 124.567 42.9824 124.218 43.1835C123.869 43.3846 123.586 43.2215 123.586 42.8185Z" fill="white"></path><path d="M123.586 34.7555C123.586 34.3525 123.869 33.8624 124.218 33.6613C124.567 33.4602 124.85 33.6233 124.85 34.0263C124.85 34.4293 124.567 34.9194 124.218 35.1205C123.869 35.3216 123.586 35.1585 123.586 34.7555Z" fill="white"></path><path d="M241.766 64.8534C241.766 64.4504 242.048 63.9603 242.397 63.7592C242.747 63.5581 243.029 63.7212 243.029 64.1242C243.029 64.5272 242.747 65.0173 242.397 65.2184C242.048 65.4195 241.766 65.2564 241.766 64.8534Z" fill="white"></path><path d="M241.766 56.7894C241.766 56.3864 242.048 55.8963 242.397 55.6952C242.747 55.4941 243.029 55.6572 243.029 56.0602C243.029 56.4632 242.747 56.9533 242.397 57.1544C242.048 57.3555 241.766 57.1924 241.766 56.7894Z" fill="white"></path><path d="M241.766 48.7264C241.766 48.3234 242.048 47.8333 242.397 47.6322C242.747 47.4311 243.029 47.5942 243.029 47.9972C243.029 48.4002 242.747 48.8903 242.397 49.0914C242.048 49.2925 241.766 49.1294 241.766 48.7264Z" fill="white"></path><path d="M241.766 40.6625C241.766 40.2595 242.048 39.7694 242.397 39.5683C242.747 39.3672 243.029 39.5303 243.029 39.9333C243.029 40.3363 242.747 40.8264 242.397 41.0275C242.048 41.2286 241.766 41.0655 241.766 40.6625Z" fill="white"></path><path d="M241.766 32.5993C241.766 32.1963 242.048 31.7063 242.397 31.5052C242.747 31.3033 243.029 31.4671 243.029 31.8701C243.029 32.2731 242.747 32.7632 242.397 32.9643C242.048 33.1654 241.766 33.0023 241.766 32.5993Z" fill="white"></path><path d="M241.766 24.5365C241.766 24.1335 242.048 23.6434 242.397 23.4423C242.747 23.2412 243.029 23.4043 243.029 23.8073C243.029 24.2103 242.747 24.7004 242.397 24.9015C242.048 25.1026 241.766 24.9387 241.766 24.5365Z" fill="white"></path><path d="M241.766 16.4725C241.766 16.0695 242.048 15.5794 242.397 15.3783C242.747 15.1772 243.029 15.3403 243.029 15.7433C243.029 16.1463 242.747 16.6364 242.397 16.8375C242.048 17.0386 241.766 16.8755 241.766 16.4725Z" fill="white"></path><path d="M232.684 51.2395C232.684 50.8365 232.966 50.3464 233.315 50.1453C233.665 49.9434 233.947 50.1073 233.947 50.5103C233.947 50.9133 233.665 51.4034 233.315 51.6045C232.967 51.8056 232.684 51.6425 232.684 51.2395Z" fill="white"></path><path d="M232.684 43.1764C232.684 42.7734 232.966 42.2833 233.315 42.0822C233.665 41.8811 233.947 42.0442 233.947 42.4472C233.947 42.8502 233.665 43.3403 233.315 43.5414C232.966 43.7425 232.684 43.5794 232.684 43.1764Z" fill="white"></path><path d="M232.684 35.1127C232.684 34.7097 232.966 34.2196 233.315 34.0185C233.665 33.8174 233.947 33.9805 233.947 34.3835C233.947 34.7865 233.665 35.2765 233.315 35.4776C232.966 35.6787 232.684 35.5156 232.684 35.1127Z" fill="white"></path><path d="M232.684 27.0494C232.684 26.6464 232.966 26.1563 233.315 25.9552C233.665 25.7541 233.947 25.9172 233.947 26.3202C233.947 26.7232 233.665 27.2133 233.315 27.4144C232.967 27.6155 232.684 27.4524 232.684 27.0494Z" fill="white"></path><path d="M232.684 18.9857C232.684 18.5827 232.966 18.0926 233.315 17.8915C233.665 17.6904 233.947 17.8535 233.947 18.2565C233.947 18.6595 233.665 19.1496 233.315 19.3507C232.966 19.5518 232.684 19.3887 232.684 18.9857Z" fill="white"></path><path d="M232.684 10.9227C232.684 10.5197 232.966 10.0296 233.315 9.82853C233.665 9.62743 233.947 9.79053 233.947 10.1935C233.947 10.5965 233.665 11.0866 233.315 11.2877C232.966 11.4888 232.684 11.3257 232.684 10.9227Z" fill="white"></path><path d="M232.684 2.85875C232.684 2.45576 232.966 1.96567 233.315 1.76457C233.665 1.56347 233.947 1.72657 233.947 2.12956C233.947 2.53256 233.665 3.02264 233.315 3.22374C232.967 3.42564 232.684 3.26175 232.684 2.85875Z" fill="white"></path><path d="M131.711 61.007C131.711 60.604 131.994 60.114 132.343 59.9129C132.692 59.711 132.975 59.8749 132.975 60.2779C132.975 60.6809 132.692 61.1709 132.343 61.372C131.994 61.5739 131.711 61.41 131.711 61.007Z" fill="white"></path><path d="M131.711 52.9441C131.711 52.5411 131.994 52.051 132.343 51.8499C132.692 51.648 132.975 51.8119 132.975 52.2149C132.975 52.6179 132.692 53.108 132.343 53.3091C131.994 53.5102 131.711 53.3471 131.711 52.9441Z" fill="white"></path><path d="M131.711 44.881C131.711 44.478 131.994 43.9879 132.343 43.7868C132.692 43.5857 132.975 43.7488 132.975 44.1518C132.975 44.5548 132.692 45.0449 132.343 45.246C131.994 45.4471 131.711 45.284 131.711 44.881Z" fill="white"></path><path d="M131.711 36.8171C131.711 36.4141 131.994 35.924 132.343 35.7229C132.692 35.521 132.975 35.6849 132.975 36.0879C132.975 36.4909 132.692 36.981 132.343 37.1821C131.994 37.3832 131.711 37.2201 131.711 36.8171Z" fill="white"></path><path d="M131.711 28.7541C131.711 28.3511 131.994 27.861 132.343 27.6599C132.692 27.458 132.975 27.6219 132.975 28.0249C132.975 28.4279 132.692 28.918 132.343 29.1191C131.994 29.3202 131.711 29.1571 131.711 28.7541Z" fill="white"></path><path d="M131.711 20.6902C131.711 20.2872 131.994 19.7971 132.343 19.596C132.692 19.3941 132.975 19.558 132.975 19.961C132.975 20.364 132.692 20.854 132.343 21.0551C131.994 21.257 131.711 21.0932 131.711 20.6902Z" fill="white"></path><path d="M131.711 12.6272C131.711 12.2242 131.994 11.7341 132.343 11.533C132.692 11.3311 132.975 11.495 132.975 11.898C132.975 12.301 132.692 12.7911 132.343 12.9922C131.994 13.1933 131.711 13.0302 131.711 12.6272Z" fill="white"></path><path d="M105.655 184.973C108.621 186.686 108.637 189.464 105.69 191.176L59.4687 218.038C56.5218 219.75 51.7247 219.75 48.7588 218.038L2.23472 191.177C-0.73113 189.465 -0.746963 186.686 2.19988 184.974L48.4215 158.113C51.3684 156.4 56.1655 156.4 59.1314 158.113L105.655 184.973Z" fill="#1A1885"></path><path d="M102.576 184.254L59.1366 209.498C56.3671 211.108 51.859 211.108 49.0713 209.498L5.34833 184.255C3.94616 183.445 3.24547 182.382 3.24785 181.32L3.23439 186.086C3.23122 187.148 3.93191 188.212 5.33487 189.022L49.0586 214.266C51.8463 215.875 56.3545 215.875 59.124 214.266L102.563 189.021C103.939 188.222 104.627 187.175 104.631 186.127L104.644 181.36C104.64 182.408 103.951 183.455 102.576 184.254Z" fill="url(#paint0_linear_2288_203389)"></path><path d="M102.541 178.425C105.329 180.034 105.343 182.645 102.573 184.255L59.1338 209.5C56.3643 211.109 51.8562 211.109 49.0684 209.5L5.34631 184.255C2.55861 182.645 2.54435 180.034 5.31385 178.425L48.7533 153.181C51.5228 151.571 56.031 151.571 58.8187 153.181L102.541 178.425Z" fill="#A4D4ED"></path><path d="M81.3711 198.857C81.3711 198.531 81.5999 198.134 81.8826 197.971C82.1652 197.808 82.394 197.94 82.394 198.266C82.394 198.593 82.1652 198.989 81.8826 199.152C81.6007 199.315 81.3711 199.183 81.3711 198.857Z" fill="#FF5A72"></path><path d="M86.5352 195.874C86.5352 195.547 86.764 195.151 87.0466 194.988C87.3293 194.824 87.5581 194.957 87.5581 195.283C87.5581 195.609 87.3293 196.006 87.0466 196.169C86.764 196.332 86.5352 196.2 86.5352 195.874Z" fill="#FF5A72"></path><path d="M91.9531 192.748C91.9531 192.422 92.1819 192.025 92.4646 191.862C92.7472 191.699 92.9761 191.831 92.9761 192.157C92.9761 192.483 92.7472 192.88 92.4646 193.043C92.1819 193.206 91.9531 193.074 91.9531 192.748Z" fill="#FF5A72"></path><path d="M97.1211 189.765C97.1211 189.438 97.3499 189.042 97.6326 188.879C97.9152 188.716 98.144 188.848 98.144 189.174C98.144 189.5 97.9152 189.897 97.6326 190.06C97.3499 190.223 97.1211 190.091 97.1211 189.765Z" fill="#FF5A72"></path><path d="M102.576 171.464L59.1366 196.707C56.3671 198.317 51.859 198.317 49.0713 196.707L5.34833 171.464C3.94616 170.654 3.24547 169.591 3.24785 168.529L3.23439 173.295C3.23122 174.357 3.93191 175.421 5.33487 176.23L49.0586 201.474C51.8463 203.083 56.3545 203.083 59.124 201.474L102.563 176.229C103.939 175.429 104.627 174.383 104.631 173.334L104.644 168.568C104.64 169.617 103.951 170.664 102.576 171.464Z" fill="url(#paint1_linear_2288_203389)"></path><path d="M102.541 165.633C105.329 167.243 105.343 169.854 102.573 171.463L59.1338 196.707C56.3643 198.317 51.8562 198.317 49.0684 196.707L5.34631 171.464C2.55861 169.855 2.54435 167.244 5.31385 165.634L48.7533 140.389C51.5228 138.78 56.031 138.78 58.8187 140.389L102.541 165.633Z" fill="#A4D4ED"></path><path d="M102.576 158.673L59.1366 183.917C56.3671 185.526 51.859 185.526 49.0713 183.917L5.34833 158.674C3.94616 157.864 3.24547 156.8 3.24785 155.739L3.23439 160.505C3.23122 161.567 3.93191 162.631 5.33487 163.441L49.0586 188.685C51.8463 190.294 56.3545 190.294 59.124 188.685L102.563 163.44C103.939 162.64 104.627 161.594 104.631 160.545L104.644 155.779C104.64 156.827 103.951 157.873 102.576 158.673Z" fill="url(#paint2_linear_2288_203389)"></path><path d="M102.541 152.843C105.329 154.452 105.343 157.063 102.573 158.673L59.1338 183.917C56.3643 185.527 51.8562 185.527 49.0684 183.917L5.34631 158.673C2.55861 157.063 2.54435 154.452 5.31385 152.843L48.7533 127.599C51.5228 125.989 56.031 125.989 58.8187 127.599L102.541 152.843Z" fill="#A4D4ED"></path><path d="M102.576 145.882L59.1366 171.126C56.3671 172.736 51.859 172.736 49.0713 171.126L5.34833 145.882C3.94616 145.073 3.24547 144.009 3.24785 142.948L3.23439 147.714C3.23122 148.775 3.93191 149.84 5.33487 150.65L49.0586 175.893C51.8463 177.503 56.3545 177.503 59.124 175.893L102.563 150.649C103.939 149.849 104.627 148.802 104.631 147.754L104.644 142.988C104.64 144.036 103.951 145.083 102.576 145.882Z" fill="url(#paint3_linear_2288_203389)"></path><path d="M102.541 140.052C105.329 141.662 105.343 144.273 102.573 145.882L59.1338 171.126C56.3643 172.736 51.8562 172.736 49.0684 171.126L5.34631 145.882C2.55861 144.273 2.54435 141.662 5.31385 140.052L48.7533 114.808C51.5228 113.198 56.031 113.198 58.8187 114.808L102.541 140.052Z" fill="#A4D4ED"></path><path d="M31.3292 164.189C31.0893 164.05 30.8945 163.678 30.8945 163.358C30.8945 163.039 31.0893 162.891 31.3292 163.03C31.5691 163.168 31.7639 163.541 31.7639 163.86C31.7639 164.18 31.5691 164.328 31.3292 164.189Z" fill="#B5E9FE"></path><path d="M35.6534 166.684C35.4135 166.546 35.2188 166.174 35.2188 165.854C35.2188 165.533 35.4135 165.387 35.6534 165.525C35.8933 165.664 36.0881 166.036 36.0881 166.356C36.0881 166.676 35.8933 166.823 35.6534 166.684Z" fill="#B5E9FE"></path><path d="M39.9776 169.18C39.7377 169.041 39.543 168.669 39.543 168.349C39.543 168.03 39.7377 167.882 39.9776 168.021C40.2175 168.159 40.4123 168.532 40.4123 168.851C40.4123 169.172 40.2183 169.319 39.9776 169.18Z" fill="#B5E9FE"></path><path d="M44.3019 171.676C44.062 171.537 43.8672 171.165 43.8672 170.845C43.8672 170.525 44.062 170.378 44.3019 170.516C44.5418 170.655 44.7365 171.027 44.7365 171.347C44.7365 171.667 44.5418 171.814 44.3019 171.676Z" fill="#B5E9FE"></path><path d="M78.668 162.022C78.668 161.696 78.8968 161.299 79.1794 161.136C79.4621 160.973 79.6909 161.105 79.6909 161.431C79.6909 161.758 79.4621 162.154 79.1794 162.317C78.8968 162.48 78.668 162.348 78.668 162.022Z" fill="#FF5A72"></path><path d="M83.832 159.039C83.832 158.713 84.0608 158.316 84.3435 158.153C84.6261 157.99 84.855 158.122 84.855 158.448C84.855 158.774 84.6261 159.171 84.3435 159.334C84.0608 159.497 83.832 159.365 83.832 159.039Z" fill="#FF5A72"></path><path d="M89.25 155.912C89.25 155.586 89.4788 155.189 89.7615 155.026C90.0441 154.863 90.2729 154.995 90.2729 155.321C90.2729 155.648 90.0441 156.044 89.7615 156.207C89.4788 156.371 89.25 156.238 89.25 155.912Z" fill="#FF5A72"></path><path d="M94.418 152.929C94.418 152.603 94.6468 152.206 94.9294 152.043C95.2121 151.88 95.4409 152.012 95.4409 152.338C95.4409 152.665 95.2121 153.061 94.9294 153.224C94.6468 153.387 94.418 153.255 94.418 152.929Z" fill="#FF5A72"></path><path d="M31.3292 176.606C31.0893 176.467 30.8945 176.095 30.8945 175.775C30.8945 175.455 31.0893 175.308 31.3292 175.447C31.5691 175.585 31.7639 175.957 31.7639 176.277C31.7639 176.597 31.5691 176.744 31.3292 176.606Z" fill="#B5E9FE"></path><path d="M35.6534 179.101C35.4135 178.963 35.2188 178.591 35.2188 178.271C35.2188 177.951 35.4135 177.804 35.6534 177.942C35.8933 178.081 36.0881 178.453 36.0881 178.773C36.0881 179.093 35.8933 179.24 35.6534 179.101Z" fill="#B5E9FE"></path><path d="M39.9776 181.597C39.7377 181.458 39.543 181.086 39.543 180.766C39.543 180.446 39.7377 180.299 39.9776 180.438C40.2175 180.576 40.4123 180.948 40.4123 181.268C40.4123 181.588 40.2183 181.735 39.9776 181.597Z" fill="#B5E9FE"></path><path d="M44.3019 184.093C44.062 183.954 43.8672 183.582 43.8672 183.262C43.8672 182.942 44.062 182.795 44.3019 182.933C44.5418 183.072 44.7365 183.444 44.7365 183.764C44.7365 184.084 44.5418 184.231 44.3019 184.093Z" fill="#B5E9FE"></path><path d="M211.327 250.687C214.293 252.4 214.309 255.178 211.362 256.891L165.141 283.752C162.194 285.464 157.397 285.464 154.431 283.752L107.907 256.891C104.941 255.179 104.925 252.401 107.872 250.688L154.093 223.827C157.04 222.114 161.837 222.114 164.803 223.827L211.327 250.687Z" fill="#1A1885"></path><path d="M208.249 249.597L164.809 274.841C162.04 276.45 157.532 276.45 154.744 274.841L111.02 249.597C109.618 248.787 108.917 247.724 108.92 246.661L108.906 251.427C108.903 252.489 109.604 253.553 111.007 254.362L154.73 279.606C157.518 281.216 162.026 281.216 164.796 279.606L208.235 254.362C209.611 253.562 210.299 252.515 210.303 251.467L210.316 246.701C210.314 247.751 209.625 248.797 208.249 249.597Z" fill="url(#paint4_linear_2288_203389)"></path><path d="M208.213 243.767C211.001 245.375 211.015 247.987 208.246 249.597L164.807 274.841C162.037 276.45 157.529 276.45 154.742 274.841L111.018 249.597C108.231 247.987 108.216 245.376 110.985 243.767L154.425 218.523C157.194 216.913 161.703 216.913 164.49 218.523L208.213 243.767Z" fill="#A4D4ED"></path><path d="M134.286 266.122C134.046 265.984 133.852 265.611 133.852 265.292C133.852 264.972 134.046 264.824 134.286 264.963C134.526 265.102 134.721 265.474 134.721 265.794C134.721 266.113 134.526 266.261 134.286 266.122Z" fill="#B5E9FE"></path><path d="M138.61 268.618C138.371 268.479 138.176 268.107 138.176 267.787C138.176 267.466 138.371 267.32 138.61 267.458C138.85 267.597 139.045 267.969 139.045 268.289C139.045 268.609 138.85 268.756 138.61 268.618Z" fill="#B5E9FE"></path><path d="M142.935 271.113C142.695 270.975 142.5 270.602 142.5 270.283C142.5 269.963 142.695 269.815 142.935 269.954C143.175 270.093 143.369 270.465 143.369 270.785C143.369 271.104 143.175 271.252 142.935 271.113Z" fill="#B5E9FE"></path><path d="M147.259 273.609C147.019 273.47 146.824 273.098 146.824 272.778C146.824 272.459 147.019 272.311 147.259 272.45C147.499 272.588 147.694 272.96 147.694 273.28C147.694 273.6 147.499 273.747 147.259 273.609Z" fill="#B5E9FE"></path><path d="M190.09 263.032C190.09 262.706 190.319 262.309 190.601 262.146C190.884 261.983 191.113 262.115 191.113 262.441C191.113 262.768 190.884 263.164 190.601 263.327C190.319 263.49 190.09 263.358 190.09 263.032Z" fill="#FF5A72"></path><path d="M195.254 260.049C195.254 259.723 195.483 259.326 195.765 259.163C196.048 259 196.277 259.132 196.277 259.458C196.277 259.784 196.048 260.181 195.765 260.344C195.483 260.507 195.254 260.375 195.254 260.049Z" fill="#FF5A72"></path><path d="M200.672 256.922C200.672 256.596 200.901 256.2 201.183 256.036C201.466 255.873 201.695 256.006 201.695 256.332C201.695 256.658 201.466 257.055 201.183 257.218C200.901 257.381 200.672 257.249 200.672 256.922Z" fill="#FF5A72"></path><path d="M205.84 253.939C205.84 253.613 206.069 253.216 206.351 253.053C206.634 252.89 206.863 253.022 206.863 253.348C206.863 253.675 206.634 254.071 206.351 254.234C206.069 254.397 205.84 254.265 205.84 253.939Z" fill="#FF5A72"></path><path d="M315.757 184.181C318.723 185.894 318.739 188.672 315.792 190.385L269.57 217.246C266.623 218.958 261.826 218.958 258.86 217.246L212.336 190.385C209.37 188.673 209.355 185.895 212.301 184.182L258.523 157.321C261.47 155.608 266.267 155.608 269.233 157.321L315.757 184.181Z" fill="#1A1885"></path><path d="M312.678 183.28L269.238 208.524C266.469 210.134 261.961 210.134 259.174 208.524L215.45 183.28C214.047 182.47 213.347 181.407 213.349 180.345L213.336 185.111C213.333 186.173 214.033 187.237 215.436 188.046L259.16 213.29C261.948 214.9 266.456 214.9 269.226 213.29L312.665 188.046C314.041 187.246 314.729 186.199 314.732 185.151L314.746 180.385C314.742 181.434 314.053 182.481 312.678 183.28Z" fill="url(#paint5_linear_2288_203389)"></path><path d="M312.644 177.451C315.431 179.06 315.446 181.671 312.676 183.281L269.237 208.525C266.467 210.134 261.959 210.134 259.172 208.525L215.448 183.281C212.66 181.671 212.646 179.06 215.415 177.451L258.855 152.207C261.624 150.597 266.133 150.597 268.92 152.207L312.644 177.451Z" fill="#A4D4ED"></path><path d="M293.012 197.743C293.012 197.417 293.241 197.02 293.523 196.857C293.806 196.694 294.035 196.826 294.035 197.152C294.035 197.478 293.806 197.875 293.523 198.038C293.241 198.201 293.012 198.069 293.012 197.743Z" fill="#FF5A72"></path><path d="M298.176 194.76C298.176 194.433 298.405 194.037 298.687 193.874C298.97 193.71 299.199 193.843 299.199 194.169C299.199 194.495 298.97 194.892 298.687 195.055C298.405 195.218 298.176 195.086 298.176 194.76Z" fill="#FF5A72"></path><path d="M303.594 191.634C303.594 191.308 303.823 190.911 304.105 190.748C304.388 190.585 304.617 190.717 304.617 191.043C304.617 191.369 304.388 191.766 304.105 191.929C303.823 192.092 303.594 191.96 303.594 191.634Z" fill="#FF5A72"></path><path d="M308.762 188.651C308.762 188.324 308.991 187.928 309.273 187.765C309.556 187.602 309.785 187.734 309.785 188.06C309.785 188.386 309.556 188.783 309.273 188.946C308.991 189.109 308.762 188.977 308.762 188.651Z" fill="#FF5A72"></path><path d="M312.678 170.49L269.238 195.733C266.469 197.343 261.961 197.343 259.174 195.733L215.45 170.49C214.047 169.68 213.347 168.616 213.349 167.554L213.336 172.32C213.333 173.382 214.033 174.446 215.436 175.255L259.16 200.499C261.948 202.108 266.456 202.108 269.226 200.499L312.665 175.254C314.041 174.455 314.729 173.408 314.732 172.36L314.746 167.594C314.742 168.643 314.053 169.69 312.678 170.49Z" fill="url(#paint6_linear_2288_203389)"></path><path d="M312.644 164.66C315.431 166.27 315.446 168.881 312.676 170.491L269.237 195.734C266.467 197.344 261.959 197.344 259.172 195.734L215.448 170.491C212.66 168.881 212.646 166.27 215.415 164.66L258.855 139.416C261.624 137.807 266.133 137.807 268.92 139.416L312.644 164.66Z" fill="#A4D4ED"></path><path d="M312.678 157.699L269.238 182.943C266.469 184.553 261.961 184.553 259.174 182.943L215.45 157.699C214.047 156.889 213.347 155.826 213.349 154.764L213.336 159.53C213.333 160.592 214.033 161.656 215.436 162.465L259.16 187.709C261.948 189.319 266.456 189.319 269.226 187.709L312.665 162.465C314.041 161.665 314.729 160.618 314.732 159.57L314.746 154.804C314.742 155.853 314.053 156.899 312.678 157.699Z" fill="url(#paint7_linear_2288_203389)"></path><path d="M312.644 151.87C315.431 153.479 315.446 156.09 312.676 157.7L269.237 182.945C266.467 184.554 261.959 184.554 259.172 182.945L215.448 157.701C212.66 156.091 212.646 153.48 215.415 151.87L258.855 126.626C261.624 125.016 266.133 125.016 268.92 126.626L312.644 151.87Z" fill="#A4D4ED"></path><path d="M273.27 183.219C273.27 182.892 273.498 182.496 273.781 182.333C274.064 182.169 274.292 182.302 274.292 182.628C274.292 182.954 274.064 183.351 273.781 183.514C273.498 183.677 273.27 183.545 273.27 183.219Z" fill="#FF5A72"></path><path d="M278.434 180.235C278.434 179.909 278.662 179.512 278.945 179.349C279.228 179.186 279.457 179.318 279.457 179.644C279.457 179.971 279.228 180.367 278.945 180.53C278.662 180.694 278.434 180.561 278.434 180.235Z" fill="#FF5A72"></path><path d="M283.852 177.109C283.852 176.783 284.08 176.387 284.363 176.223C284.646 176.06 284.874 176.193 284.874 176.519C284.874 176.845 284.646 177.242 284.363 177.405C284.08 177.568 283.852 177.436 283.852 177.109Z" fill="#FF5A72"></path><path d="M289.02 174.126C289.02 173.8 289.248 173.403 289.531 173.24C289.814 173.077 290.042 173.209 290.042 173.536C290.042 173.862 289.814 174.258 289.531 174.422C289.249 174.585 289.02 174.452 289.02 174.126Z" fill="#FF5A72"></path><path d="M312.678 157.699L269.238 182.943C266.469 184.553 261.961 184.553 259.174 182.943L215.45 157.699C214.047 156.889 213.347 155.826 213.349 154.764L213.336 159.53C213.333 160.592 214.033 161.656 215.436 162.465L259.16 187.709C261.948 189.319 266.456 189.319 269.226 187.709L312.665 162.465C314.041 161.665 314.729 160.618 314.732 159.57L314.746 154.804C314.742 155.853 314.053 156.899 312.678 157.699Z" fill="url(#paint8_linear_2288_203389)"></path><path d="M312.644 151.87C315.431 153.479 315.446 156.09 312.676 157.7L269.237 182.945C266.467 184.554 261.959 184.554 259.172 182.945L215.448 157.701C212.66 156.091 212.646 153.48 215.415 151.87L258.855 126.626C261.624 125.016 266.133 125.016 268.92 126.626L312.644 151.87Z" fill="#A4D4ED"></path><path opacity="0.72" d="M273.706 154.205C274.26 154.525 274.263 155.044 273.712 155.364L265.076 160.383C264.525 160.703 263.628 160.703 263.075 160.383L254.382 155.364C253.828 155.044 253.825 154.525 254.376 154.205L263.012 149.186C263.563 148.867 264.459 148.867 265.013 149.186L273.706 154.205Z" fill="url(#paint9_linear_2288_203389)"></path><path d="M273.27 183.219C273.27 182.892 273.498 182.496 273.781 182.333C274.064 182.169 274.292 182.302 274.292 182.628C274.292 182.954 274.064 183.351 273.781 183.514C273.498 183.677 273.27 183.545 273.27 183.219Z" fill="#FF5A72"></path><path d="M278.434 180.235C278.434 179.909 278.662 179.512 278.945 179.349C279.228 179.186 279.457 179.318 279.457 179.644C279.457 179.971 279.228 180.367 278.945 180.53C278.662 180.694 278.434 180.561 278.434 180.235Z" fill="#FF5A72"></path><path d="M283.852 177.109C283.852 176.783 284.08 176.387 284.363 176.223C284.646 176.06 284.874 176.193 284.874 176.519C284.874 176.845 284.646 177.242 284.363 177.405C284.08 177.568 283.852 177.436 283.852 177.109Z" fill="#FF5A72"></path><path d="M289.02 174.126C289.02 173.8 289.248 173.403 289.531 173.24C289.814 173.077 290.042 173.209 290.042 173.536C290.042 173.862 289.814 174.258 289.531 174.422C289.249 174.585 289.02 174.452 289.02 174.126Z" fill="#FF5A72"></path><path d="M236.966 173.304C236.726 173.165 236.531 172.793 236.531 172.473C236.531 172.152 236.726 172.006 236.966 172.145C237.206 172.283 237.401 172.655 237.401 172.975C237.401 173.296 237.206 173.442 236.966 173.304Z" fill="#B5E9FE"></path><path d="M241.29 175.799C241.05 175.661 240.855 175.288 240.855 174.969C240.855 174.649 241.05 174.501 241.29 174.64C241.53 174.779 241.725 175.151 241.725 175.471C241.725 175.79 241.53 175.938 241.29 175.799Z" fill="#B5E9FE"></path><path d="M245.614 178.295C245.374 178.156 245.18 177.784 245.18 177.464C245.18 177.144 245.374 176.997 245.614 177.136C245.854 177.274 246.049 177.646 246.049 177.966C246.049 178.286 245.854 178.434 245.614 178.295Z" fill="#B5E9FE"></path><path d="M249.931 180.791C249.691 180.653 249.496 180.281 249.496 179.961C249.496 179.64 249.691 179.494 249.931 179.632C250.171 179.771 250.365 180.143 250.365 180.463C250.365 180.782 250.171 180.93 249.931 180.791Z" fill="#B5E9FE"></path><path d="M236.966 185.753C236.726 185.614 236.531 185.242 236.531 184.922C236.531 184.602 236.726 184.455 236.966 184.594C237.206 184.732 237.401 185.104 237.401 185.424C237.401 185.744 237.206 185.891 236.966 185.753Z" fill="#B5E9FE"></path><path d="M241.29 188.249C241.05 188.11 240.855 187.738 240.855 187.418C240.855 187.098 241.05 186.951 241.29 187.089C241.53 187.228 241.725 187.6 241.725 187.92C241.725 188.24 241.53 188.387 241.29 188.249Z" fill="#B5E9FE"></path><path d="M245.614 190.744C245.374 190.605 245.18 190.233 245.18 189.913C245.18 189.594 245.374 189.446 245.614 189.585C245.854 189.723 246.049 190.095 246.049 190.415C246.049 190.736 245.854 190.883 245.614 190.744Z" fill="#B5E9FE"></path><path d="M249.931 193.24C249.691 193.101 249.496 192.729 249.496 192.409C249.496 192.089 249.691 191.942 249.931 192.08C250.171 192.219 250.365 192.591 250.365 192.911C250.365 193.232 250.171 193.379 249.931 193.24Z" fill="#B5E9FE"></path><path d="M211.327 122.499C214.293 124.211 214.309 126.99 211.362 128.702L165.141 155.563C162.194 157.276 157.397 157.276 154.431 155.563L107.907 128.703C104.941 126.99 104.925 124.211 107.872 122.499L154.093 95.6382C157.04 93.9256 161.837 93.9256 164.803 95.6382L211.327 122.499Z" fill="#1A1885"></path><path d="M208.249 122.012L164.809 147.256C162.04 148.866 157.532 148.866 154.744 147.256L111.02 122.012C109.618 121.202 108.917 120.139 108.92 119.077L108.906 123.843C108.903 124.905 109.604 125.969 111.007 126.778L154.73 152.022C157.518 153.631 162.026 153.631 164.796 152.022L208.235 126.777C209.611 125.977 210.299 124.931 210.303 123.883L210.316 119.116C210.314 120.166 209.625 121.213 208.249 122.012Z" fill="url(#paint10_linear_2288_203389)"></path><path d="M208.213 116.182C211.001 117.792 211.015 120.403 208.246 122.013L164.807 147.256C162.037 148.866 157.529 148.866 154.742 147.256L111.018 122.013C108.231 120.403 108.216 117.792 110.985 116.182L154.425 90.9384C157.194 89.3288 161.703 89.3288 164.49 90.9384L208.213 116.182Z" fill="#A4D4ED"></path><path d="M208.249 109.222L164.809 134.466C162.04 136.075 157.532 136.075 154.744 134.466L111.02 109.222C109.618 108.412 108.917 107.349 108.92 106.287L108.906 111.053C108.903 112.115 109.604 113.179 111.007 113.989L154.73 139.233C157.518 140.842 162.026 140.842 164.796 139.233L208.235 113.988C209.611 113.188 210.299 112.142 210.303 111.094L210.316 106.327C210.314 107.376 209.625 108.422 208.249 109.222Z" fill="url(#paint11_linear_2288_203389)"></path><path d="M208.213 103.392C211.001 105.001 211.015 107.612 208.246 109.222L164.807 134.467C162.037 136.076 157.529 136.076 154.742 134.467L111.018 109.223C108.231 107.613 108.216 105.002 110.985 103.392L154.425 78.1486C157.194 76.539 161.703 76.539 164.49 78.1486L208.213 103.392Z" fill="#A4D4ED"></path><path d="M183.69 190.807C183.711 183.27 172.946 177.131 159.647 177.095C146.347 177.059 135.549 183.14 135.529 190.677C135.509 198.214 146.273 204.354 159.573 204.389C172.872 204.425 183.67 198.344 183.69 190.807Z" fill="#1A1885"></path><path d="M174.655 174.994C183.016 179.717 183.06 187.372 174.753 192.095C166.446 196.819 152.938 196.819 144.578 192.095C136.216 187.372 136.172 179.717 144.479 174.994C152.786 170.27 166.293 170.27 174.655 174.994Z" fill="#FFB06D"></path><path d="M178.574 172.509L178.528 188.644C178.536 185.815 176.674 182.982 172.945 180.83C165.53 176.548 153.507 176.548 146.145 180.826C142.485 182.953 140.652 185.742 140.645 188.536L140.69 172.401C140.698 169.608 142.53 166.819 146.191 164.692C153.553 160.413 165.575 160.413 172.99 164.695C176.72 166.848 178.582 169.68 178.574 172.509Z" fill="url(#paint12_linear_2288_203389)"></path><path d="M180.954 172.515L180.908 188.65C180.9 191.793 178.839 194.932 174.723 197.325C166.436 202.14 152.902 202.14 144.562 197.325C140.365 194.901 138.269 191.712 138.277 188.528L138.323 172.394C138.315 175.578 140.41 178.766 144.608 181.19C152.949 186.005 166.482 186.005 174.769 181.19C178.885 178.797 180.946 175.659 180.954 172.515Z" fill="url(#paint13_linear_2288_203389)"></path><path d="M174.667 163.719C183.008 168.535 183.052 176.374 174.765 181.19C166.479 186.005 152.945 186.006 144.605 181.19C136.264 176.375 136.22 168.536 144.507 163.719C152.793 158.904 166.327 158.904 174.667 163.719ZM146.278 180.218C153.688 184.497 165.71 184.497 173.078 180.215C180.44 175.937 180.401 168.973 172.99 164.695C165.575 160.413 153.552 160.413 146.191 164.692C138.823 168.973 138.861 175.937 146.278 180.218Z" fill="#FFD0A8"></path><path opacity="0.72" d="M175.857 101.682L175.676 165.551C175.669 167.93 174.106 170.305 170.983 172.12C164.694 175.775 154.464 175.775 148.134 172.12C144.948 170.281 143.356 167.867 143.363 165.456L143.545 101.587C143.537 103.997 145.129 106.411 148.315 108.251C154.646 111.907 164.875 111.907 171.164 108.251C174.287 106.437 175.851 104.061 175.857 101.682Z" fill="url(#paint14_linear_2288_203389)"></path><path opacity="0.4" d="M171.085 95.0173C177.416 98.6728 177.45 104.597 171.162 108.251C164.873 111.907 154.644 111.907 148.313 108.251C141.982 104.596 141.949 98.6712 148.238 95.0157C154.525 91.3627 164.753 91.3627 171.085 95.0173Z" fill="url(#paint15_linear_2288_203389)"></path><path opacity="0.4" d="M171.085 87.8409C177.416 91.4964 177.45 97.4209 171.162 101.075C164.873 104.73 154.644 104.73 148.313 101.075C141.982 97.4193 141.949 91.4948 148.238 87.8393C154.525 84.1855 164.753 84.1855 171.085 87.8409Z" fill="url(#paint16_linear_2288_203389)"></path><path opacity="0.4" d="M171.085 2.74179C177.416 6.39724 177.45 12.3218 171.162 15.9757C164.873 19.6311 154.644 19.6311 148.313 15.9757C141.982 12.3202 141.949 6.39566 148.238 2.7402C154.525 -0.913665 164.753 -0.913666 171.085 2.74179Z" fill="url(#paint17_linear_2288_203389)"></path><path opacity="0.4" d="M165.026 23.7411C167.987 25.4505 168.002 28.2208 165.063 29.9285C162.121 31.6379 157.339 31.6379 154.379 29.9285C151.419 28.2192 151.403 25.4489 154.344 23.7403C157.283 22.0317 162.066 22.0317 165.026 23.7411Z" fill="url(#paint18_linear_2288_203389)"></path><path d="M159.492 80.8247L167.52 76.1589L167.494 85.5252L159.465 90.1909L159.492 80.8247Z" fill="url(#paint19_linear_2288_203389)"></path><path d="M151.344 76.1193L159.372 71.4536L167.521 76.1589L159.492 80.8246L151.344 76.1193Z" fill="url(#paint20_linear_2288_203389)"></path><path d="M159.496 80.8247L159.469 90.1909L151.32 85.4864L151.347 76.1194L159.496 80.8247Z" fill="url(#paint21_linear_2288_203389)"></path><path d="M211.178 24.1188L219.207 19.4531L219.181 38.1896L211.152 42.8561L211.178 24.1188Z" fill="url(#paint22_linear_2288_203389)"></path><path d="M203.031 19.4142L211.06 14.7485L219.209 19.453L211.18 24.1188L203.031 19.4142Z" fill="url(#paint23_linear_2288_203389)"></path><path d="M211.182 24.1188L211.156 42.8561L203.008 38.1508L203.034 19.4143L211.182 24.1188Z" fill="url(#paint24_linear_2288_203389)"></path><path d="M189.254 46.1907L207.103 35.8181" stroke="#FF5A72" stroke-width="2" stroke-miterlimit="10" stroke-linecap="round" stroke-linejoin="round"></path><path d="M185.214 48.6628L193.243 43.9963L193.217 53.3634L185.188 58.0291L185.214 48.6628Z" fill="url(#paint25_linear_2288_203389)"></path><path d="M177.066 43.9575L185.095 39.2917L193.243 43.9963L185.215 48.6628L177.066 43.9575Z" fill="url(#paint26_linear_2288_203389)"></path><path d="M185.218 48.6628L185.192 58.0291L177.043 53.3246L177.07 43.9575L185.218 48.6628Z" fill="url(#paint27_linear_2288_203389)"></path><path d="M162.887 61.5576L180.736 51.1851" stroke="#FF5A72" stroke-width="2" stroke-miterlimit="10" stroke-linecap="round" stroke-linejoin="round"></path><path d="M159.675 62.6252L167.704 57.9595L167.677 67.3265L159.648 71.9922L159.675 62.6252Z" fill="url(#paint28_linear_2288_203389)"></path><path d="M151.527 57.9206L159.556 53.2549L167.705 57.9594L159.676 62.6251L151.527 57.9206Z" fill="url(#paint29_linear_2288_203389)"></path><path d="M159.679 62.6252L159.652 71.9922L151.504 67.2877L151.53 57.9207L159.679 62.6252Z" fill="url(#paint30_linear_2288_203389)"></path><path d="M159.805 57.9593V52.2556" stroke="#FF5A72" stroke-width="2" stroke-miterlimit="10" stroke-linecap="round" stroke-linejoin="round"></path><path d="M159.874 44.3224L167.903 39.6575L167.876 49.0237L159.848 53.6894L159.874 44.3224Z" fill="url(#paint31_linear_2288_203389)"></path><path d="M151.727 39.6179L159.756 34.9521L167.904 39.6574L159.875 44.3224L151.727 39.6179Z" fill="url(#paint32_linear_2288_203389)"></path><path d="M159.878 44.3224L159.852 53.6895L151.703 48.985L151.729 39.6179L159.878 44.3224Z" fill="url(#paint33_linear_2288_203389)"></path><path d="M202.224 96.9021L262.035 62.3705C262.615 62.0356 263.139 62.0039 263.518 62.224L264.634 62.8725C264.255 62.6524 263.731 62.684 263.151 63.0189L203.341 97.5506C202.188 98.2156 201.261 99.8221 201.265 101.146L201.384 143.078C201.386 143.734 201.617 144.197 201.992 144.414L200.875 143.766C200.501 143.549 200.27 143.086 200.267 142.43L200.148 100.498C200.144 99.1736 201.072 97.568 202.224 96.9021Z" fill="white"></path><path d="M203.338 97.5507C202.185 98.2157 201.258 99.8222 201.262 101.146L201.38 143.078C201.384 144.396 202.317 144.934 203.47 144.269L263.28 109.737C264.433 109.072 265.36 107.46 265.356 106.142L265.237 64.2098C265.233 62.8852 264.301 62.354 263.148 63.019L203.338 97.5507Z" fill="url(#paint34_linear_2288_203389)"></path><path d="M212.819 100.257C212.041 100.707 211.41 101.8 211.41 102.698V110.645L214.229 109.018V101.071C214.229 100.172 213.598 99.8077 212.819 100.257Z" fill="#FF5A72"></path><path d="M211.41 116.622C211.41 117.52 212.041 117.884 212.819 117.436C213.598 116.986 214.229 115.893 214.229 114.995V109.018L211.41 110.645V116.622Z" fill="#CF2D52"></path><path d="M217.948 98.4497C217.17 98.8994 216.539 99.992 216.539 100.891V107.685L219.358 105.551V98.7561C219.358 98.365 218.727 98.0008 217.948 98.4497Z" fill="#1A1885"></path><path d="M216.539 109.358C216.539 110.257 217.17 110.621 217.948 110.172C218.727 109.723 219.358 108.63 219.358 107.731V106.058L216.539 107.685V109.358Z" fill="#1A1885"></path><path d="M221.66 109.127C221.66 110.026 222.291 110.39 223.069 109.941C223.848 109.491 224.479 108.399 224.479 107.5V103.099L221.66 104.726V109.127Z" fill="#CF2D52"></path><path d="M223.069 92.7628C222.291 93.2117 221.66 94.3051 221.66 95.2037V104.726L224.479 103.099V93.5767C224.479 92.6773 223.848 92.3131 223.069 92.7628Z" fill="#FF5A72"></path><path d="M226.789 110.781C226.789 111.68 227.42 112.551 228.198 112.103C228.977 111.653 229.608 110.56 229.608 109.662V100.139L226.789 101.766V110.781Z" fill="#1A1885"></path><path d="M228.198 94.9242C227.42 95.3731 226.789 96.4665 226.789 97.3651V101.766L229.608 100.139V95.2306C229.608 94.3312 228.977 94.4745 228.198 94.9242Z" fill="#1A1885"></path><path d="M231.914 105.937C231.914 106.835 232.545 107.199 233.323 106.75C234.102 106.301 234.733 105.208 234.733 104.31V97.1799L231.914 98.807V105.937Z" fill="#CF2D52"></path><path d="M233.323 89.5714C232.545 90.0211 231.914 91.1137 231.914 92.0123V98.807L234.733 97.18V90.3853C234.733 89.4866 234.102 89.1224 233.323 89.5714Z" fill="#FF5A72"></path><path d="M237.043 101.037C237.043 101.935 237.674 102.299 238.452 101.85C239.231 101.402 239.862 99.8006 239.862 98.902V94.2205L237.043 95.8475V101.037Z" fill="#1A1885"></path><path d="M238.452 84.672C237.674 85.1217 237.043 86.2143 237.043 86.6054V95.3398L239.862 94.2203V85.4851C239.862 84.5865 239.231 84.2223 238.452 84.672Z" fill="#1A1885"></path><path d="M242.164 95.1023C242.164 96.0009 242.795 96.3651 243.573 95.9154C244.352 95.4657 244.983 94.3731 244.983 93.4745V91.26L242.164 92.887V95.1023Z" fill="#CF2D52"></path><path d="M243.573 79.6549C242.795 80.1038 242.164 81.1964 242.164 82.0958V92.8887L244.983 91.2617V80.4688C244.983 79.5693 244.352 79.2051 243.573 79.6549Z" fill="#FF5A72"></path><path d="M248.702 78.753C247.924 79.2019 247.293 80.2953 247.293 81.1939V89.9292L250.112 87.7946V79.0594C250.112 78.6675 249.481 78.3033 248.702 78.753Z" fill="#1A1885"></path><path d="M247.293 95.1173C247.293 96.016 247.924 96.3802 248.702 95.9312C249.481 95.4815 250.112 93.8814 250.112 92.9828V88.3013L247.293 89.9283V95.1173Z" fill="#1A1885"></path><path d="M255.237 80.9404C255.237 80.0418 254.606 79.6776 253.827 80.1265C253.049 80.5762 252.418 81.6688 252.418 82.5675V86.9687L255.237 85.3417V80.9404Z" fill="#FF5A72"></path><path d="M252.418 86.9688V91.3701C252.418 92.2687 253.049 92.6329 253.827 92.184C254.606 91.7351 255.237 90.6417 255.237 89.7431V85.3418L252.418 86.9688Z" fill="#CF2D52"></path><path d="M257.646 84.6799L208.996 112.768V111.642L257.646 83.5532V84.6799Z" fill="url(#paint35_linear_2288_203389)"></path><path d="M208.996 129.697L212.817 125.097L224.479 119.561L228.888 113.904L243.573 110.786L253.825 99.5068" stroke="#1A1885" stroke-width="0.6751" stroke-miterlimit="10"></path><path d="M228.195 114.304C228.195 113.882 228.492 113.367 228.859 113.156C229.225 112.944 229.522 113.115 229.522 113.539C229.522 113.962 229.225 114.476 228.859 114.688C228.492 114.898 228.195 114.727 228.195 114.304Z" fill="#1A1885"></path><path d="M208.996 134.004L216.533 121.802L219.352 121.516L223.069 123.39L226.786 117.798L234.058 115.61L242.164 107.005L247.954 109.405L250.108 104.907L257.646 97.3003" stroke="#FF5A72" stroke-width="0.6751" stroke-miterlimit="10"></path><path d="M215.867 122.185C215.867 121.763 216.164 121.248 216.531 121.037C216.897 120.825 217.194 120.996 217.194 121.42C217.194 121.843 216.897 122.357 216.531 122.569C216.164 122.78 215.867 122.608 215.867 122.185Z" fill="#1A1885"></path><path d="M241.5 107.388C241.5 106.965 241.797 106.45 242.163 106.239C242.53 106.028 242.827 106.199 242.827 106.622C242.827 107.046 242.53 107.56 242.163 107.771C241.797 107.982 241.5 107.811 241.5 107.388Z" fill="#1A1885"></path><path d="M247.289 109.789C247.289 109.366 247.586 108.852 247.953 108.64C248.319 108.429 248.616 108.6 248.616 109.024C248.616 109.446 248.319 109.961 247.953 110.172C247.586 110.383 247.289 110.212 247.289 109.789Z" fill="#1A1885"></path><path d="M222.406 123.773C222.406 123.35 222.703 122.835 223.07 122.624C223.436 122.413 223.733 122.584 223.733 123.007C223.733 123.43 223.436 123.945 223.07 124.156C222.703 124.367 222.406 124.196 222.406 123.773Z" fill="#1A1885"></path><path d="M115.226 88.0403L55.4157 53.5087C54.8353 53.1738 54.3112 53.1421 53.9328 53.3622L52.8164 54.0106C53.1949 53.7905 53.719 53.8222 54.2993 54.1571L114.11 88.6888C115.262 89.3538 116.189 90.9603 116.186 92.284L116.067 134.216C116.065 134.872 115.833 135.335 115.459 135.552L116.575 134.904C116.95 134.687 117.181 134.224 117.183 133.568L117.302 91.6364C117.306 90.3118 116.379 88.7062 115.226 88.0403Z" fill="white"></path><path d="M114.112 88.6889C115.265 89.3539 116.192 90.9604 116.188 92.2842L116.069 134.216C116.065 135.534 115.133 136.072 113.98 135.407L54.1697 100.875C53.0169 100.21 52.0898 98.5983 52.0938 97.28L52.2125 55.348C52.2165 54.0234 53.1492 53.4922 54.3019 54.1572L114.112 88.6889Z" fill="url(#paint36_linear_2288_203389)"></path><path d="M102.132 100.962C99.4722 100.374 97.1342 100.894 94.5602 100.629C91.9855 100.364 88.87 99.0588 86.5383 95.9568C84.274 92.9442 83.0729 88.6799 80.4356 86.471C77.351 83.8867 74.7288 86.0751 71.5943 84.7497C70.0077 84.0783 68.4234 82.5582 66.9159 81.065C65.4084 79.5718 62.9382 76.4056 61.3429 75.3344C60.9921 75.0992 60.6644 74.9155 60.3477 74.7556V96.0312L107.932 123.504V103.796C105.995 102.369 104.002 101.375 102.132 100.962Z" fill="url(#paint37_linear_2288_203389)"></path><path d="M98.3812 107.45C95.2245 106.214 92.5864 107.272 89.4717 106.308C85.6001 105.11 81.6011 101.012 78.0636 96.8785C74.5261 92.7449 71.0084 88.2312 67.0561 85.468C64.7473 83.8536 62.2312 83.0762 60.3477 83.4823V96.033L107.932 123.505V115.258C104.833 112.162 101.63 108.722 98.3812 107.45Z" fill="url(#paint38_linear_2288_203389)"></path><path d="M66.4805 70.1399V99.5735" stroke="#FF5A72" stroke-width="0.3375" stroke-miterlimit="10" stroke-linecap="round" stroke-linejoin="round"></path><path d="M73.4453 74.1597V103.594" stroke="#FF5A72" stroke-width="0.3375" stroke-miterlimit="10" stroke-linecap="round" stroke-linejoin="round"></path><path d="M80.4102 78.1799V107.614" stroke="#FF5A72" stroke-width="0.3375" stroke-miterlimit="10" stroke-linecap="round" stroke-linejoin="round"></path><path d="M87.3672 82.2004V111.635" stroke="#FF5A72" stroke-width="0.3375" stroke-miterlimit="10" stroke-linecap="round" stroke-linejoin="round"></path><path d="M94.332 86.2209V115.655" stroke="#FF5A72" stroke-width="0.3375" stroke-miterlimit="10" stroke-linecap="round" stroke-linejoin="round"></path><path d="M101.297 90.2415V119.676" stroke="#FF5A72" stroke-width="0.3375" stroke-miterlimit="10" stroke-linecap="round" stroke-linejoin="round"></path><path d="M46.207 103.412V105.677" stroke="#FAB08B" stroke-width="2.9816" stroke-miterlimit="10" stroke-linecap="round" stroke-linejoin="round"></path><path d="M44.1425 106.544C44.1425 106.544 40.5559 109.236 40.0634 112.133C39.6288 114.69 40.8291 116.266 43.5756 119.213" stroke="white" stroke-width="2.9816" stroke-miterlimit="10" stroke-linecap="round" stroke-linejoin="round"></path><path d="M46.823 121.312C46.5823 121.664 46.1207 121.79 45.7344 121.607L44.215 120.89C43.5816 120.59 43.3663 119.796 43.7614 119.218C44.1564 118.64 44.9751 118.552 45.4834 119.034L46.7034 120.189C47.013 120.483 47.0645 120.959 46.823 121.312Z" fill="#FAB08B"></path><path d="M47.1469 149.525C47.1469 149.525 47.9473 150.313 48.4731 150.182C49.2593 149.986 52.2425 149.139 53.2195 147.94C54.1965 146.74 53.1016 146.388 52.214 146.606C49.72 147.216 48.8666 147.561 47.9956 147.801C47.1794 148.027 46.812 149.027 47.1469 149.525Z" fill="#070D30"></path><path d="M42.8966 147.169C42.8966 147.169 43.6962 147.958 44.2227 147.827C45.0089 147.63 47.9922 146.784 48.9692 145.584C49.9462 144.385 48.8512 144.033 47.9637 144.25C45.4697 144.861 44.6162 145.205 43.7453 145.446C42.929 145.671 42.5625 146.671 42.8966 147.169Z" fill="#070D30"></path><path d="M48.3633 148.13L49.0458 143.9" stroke="#D6E9F4" stroke-width="2.0854" stroke-miterlimit="10" stroke-linecap="round" stroke-linejoin="round"></path><path d="M44.2617 145.61L45.2751 141.448" stroke="#D6E9F4" stroke-width="2.0854" stroke-miterlimit="10" stroke-linecap="round" stroke-linejoin="round"></path><path d="M43.0762 120.466C44.7483 120.445 48.3468 121.191 50.2477 121.456C50.9405 122.771 51.1978 124.178 50.8875 125.549C51.4908 128.799 51.4448 130.861 51.471 134.426C51.4971 137.99 50.9318 142.737 50.2026 146.459C50.0672 147.152 49.7078 147.319 49.1298 147.342C48.9026 147.351 48.5423 147.294 48.3389 147.238C47.8195 147.095 47.4109 146.795 47.5479 146.135C48.2914 142.544 48.9556 137.855 48.8282 134.453C48.7007 131.05 48.5463 129.325 47.8274 126.301C47.3777 126.188 46.9312 126.047 46.4624 125.841C46.8599 128.414 46.7641 129.538 46.8662 132.472C46.9684 135.407 46.9692 141.082 46.2012 144.289C46.0238 145.03 45.6177 145.321 44.9478 145.384C44.841 145.394 44.6802 145.385 44.5876 145.359C43.6399 145.042 43.5037 144.275 43.6399 143.529C44.24 140.253 44.4142 135.753 44.2543 132.59C44.0944 129.427 41.5291 120.485 43.0762 120.466Z" fill="#1A1885"></path><path d="M41.8715 120.751C41.858 121.45 42.1985 122.104 42.7788 122.495C44.1414 123.413 46.4073 124.61 47.6551 124.785C50.6764 125.213 50.9266 123.234 50.9266 123.234C50.9266 123.234 50.8395 111.384 50.4127 108.928C50.1847 107.618 49.1665 106.955 48.0977 106.254C47.9631 106.166 47.8348 106.082 47.7129 106.008C46.9069 105.509 45.983 105.208 45.0353 105.215C44.7787 105.218 44.5499 105.239 44.3409 105.283C43.2721 105.481 42.8065 106.126 42.4526 106.642C42.2301 106.966 42.105 107.35 42.0987 107.745L41.8715 120.751Z" fill="#FF5A72"></path><path d="M50.167 99.9161C50.8519 101.877 50.2485 104.127 48.7237 104.66C48.5004 104.738 48.2708 104.776 48.038 104.774C46.9565 104.777 45.8188 103.985 45.1007 102.818C44.917 102.518 44.7602 102.19 44.6399 101.846C44.6232 101.799 44.6066 101.751 44.594 101.705C44.5615 101.602 44.5322 101.498 44.5077 101.397C44.2092 100.165 44.4792 99.0349 45.1418 98.2922C45.3548 98.0531 45.6074 97.8544 45.894 97.7048C46.0064 97.6477 46.1204 97.5971 46.2416 97.5551C47.4197 97.1434 48.7134 97.6058 49.5542 98.7451C49.8028 99.0784 50.011 99.4703 50.167 99.9161Z" fill="#FAB08B"></path><path d="M44.3354 98.6059C45.5578 95.1729 48.7913 96.6622 49.6052 98.3137C49.7604 98.6281 49.6194 98.8838 49.3019 99.0508C49.2228 99.3865 49.0747 99.7784 48.7928 99.932C48.2624 100.222 49.4603 100.963 49.1262 101.291C48.7929 101.62 48.3922 100.923 47.9718 101.291C47.4144 101.782 48.701 102.541 48.0526 102.878C47.4041 103.216 46.9022 104.709 45.3828 104.386C43.8635 104.063 43.4367 102.116 43.2919 100.903C43.1478 99.6914 43.8825 98.8719 44.3354 98.6059Z" fill="#070D30"></path><path d="M49.128 101.67C49.3172 102.141 49.1945 102.696 48.8279 102.843C48.4614 102.99 47.9895 102.673 47.8011 102.202C47.6126 101.731 47.7781 101.284 48.1447 101.137C48.5113 100.99 48.9396 101.199 49.128 101.67Z" fill="#FAB08B"></path><path d="M49.3906 109.417C49.3906 109.417 53.012 112.061 55.9272 111.687C58.5004 111.357 59.6579 109.748 61.6744 106.261" stroke="white" stroke-width="2.9816" stroke-miterlimit="10" stroke-linecap="round" stroke-linejoin="round"></path><path d="M62.7344 102.542C63.1422 102.669 63.3963 103.074 63.3353 103.496L63.0931 105.159C62.9917 105.852 62.295 106.29 61.6268 106.081C60.9585 105.872 60.6355 105.115 60.9482 104.488L61.6972 102.983C61.8864 102.601 62.3267 102.414 62.7344 102.542Z" fill="#FAB08B"></path><path d="M277.441 99.5364V101.802" stroke="#FAB08B" stroke-width="2.9816" stroke-miterlimit="10" stroke-linecap="round" stroke-linejoin="round"></path><path d="M279.5 102.668C279.5 102.668 283.087 105.36 283.579 108.257C284.014 110.814 282.813 112.391 280.067 115.337" stroke="white" stroke-width="2.9816" stroke-miterlimit="10" stroke-linecap="round" stroke-linejoin="round"></path><path d="M276.82 117.436C277.061 117.789 277.522 117.914 277.909 117.732L279.428 117.015C280.061 116.717 280.277 115.922 279.882 115.344C279.487 114.766 278.668 114.678 278.16 115.159L276.94 116.314C276.629 116.608 276.579 117.084 276.82 117.436Z" fill="#FAB08B"></path><path d="M276.503 145.65C276.503 145.65 275.703 146.438 275.177 146.307C274.39 146.11 271.407 145.264 270.43 144.065C269.453 142.865 270.549 142.513 271.436 142.73C273.93 143.341 274.783 143.685 275.654 143.926C276.47 144.152 276.837 145.152 276.503 145.65Z" fill="#070D30"></path><path d="M280.753 143.294C280.753 143.294 279.953 144.083 279.427 143.951C278.64 143.755 275.657 142.909 274.68 141.709C273.703 140.51 274.799 140.157 275.686 140.375C278.18 140.985 279.033 141.33 279.904 141.571C280.72 141.795 281.087 142.795 280.753 143.294Z" fill="#070D30"></path><path d="M275.28 144.255L274.598 140.025" stroke="#D6E9F4" stroke-width="2.0854" stroke-miterlimit="10" stroke-linecap="round" stroke-linejoin="round"></path><path d="M279.384 141.734L278.371 137.572" stroke="#D6E9F4" stroke-width="2.0854" stroke-miterlimit="10" stroke-linecap="round" stroke-linejoin="round"></path><path d="M280.575 116.591C278.903 116.57 275.305 117.316 273.403 117.581C272.71 118.896 272.453 120.304 272.763 121.674C272.16 124.924 272.206 126.986 272.181 130.55C272.154 134.115 272.72 138.862 273.449 142.584C273.584 143.277 273.944 143.444 274.522 143.467C274.749 143.476 275.109 143.419 275.313 143.362C275.832 143.22 276.241 142.92 276.104 142.26C275.36 138.669 274.696 133.98 274.823 130.578C274.951 127.175 275.105 125.451 275.824 122.426C276.274 122.314 276.721 122.173 277.189 121.966C276.792 124.54 276.887 125.664 276.785 128.598C276.682 131.532 276.682 137.207 277.45 140.415C277.628 141.156 278.034 141.446 278.704 141.509C278.811 141.518 278.972 141.51 279.064 141.484C280.012 141.167 280.149 140.4 280.012 139.654C279.411 136.378 279.237 131.877 279.397 128.714C279.558 125.551 282.123 116.61 280.575 116.591Z" fill="#1A1885"></path><path d="M281.782 116.876C281.795 117.575 281.455 118.229 280.874 118.62C279.512 119.537 277.246 120.735 275.998 120.91C272.977 121.338 272.727 119.359 272.727 119.359C272.727 119.359 272.814 107.509 273.24 105.053C273.468 103.743 274.487 103.08 275.555 102.379C275.69 102.291 275.818 102.207 275.94 102.133C276.746 101.634 277.67 101.334 278.618 101.34C278.874 101.343 279.103 101.364 279.313 101.407C280.382 101.606 280.847 102.251 281.201 102.767C281.424 103.091 281.549 103.476 281.555 103.87L281.782 116.876Z" fill="#FF5A72"></path><path d="M273.487 96.0411C272.803 98.0022 273.406 100.253 274.931 100.785C275.153 100.863 275.384 100.901 275.616 100.899C276.697 100.902 277.835 100.11 278.553 98.9428C278.737 98.6427 278.893 98.3149 279.014 97.9713C279.03 97.9238 279.047 97.8755 279.06 97.8304C279.092 97.7275 279.121 97.623 279.146 97.5216C279.444 96.2897 279.174 95.1599 278.512 94.4172C278.299 94.1789 278.047 93.9794 277.76 93.8297C277.647 93.7727 277.533 93.7221 277.412 93.6801C276.234 93.2684 274.94 93.7308 274.099 94.8701C273.852 95.2034 273.643 95.5953 273.487 96.0411Z" fill="#FAB08B"></path><path d="M279.321 94.7306C278.099 91.2977 274.866 92.7869 274.052 94.4385C273.896 94.7528 274.037 95.0085 274.355 95.1756C274.434 95.5113 274.582 95.9032 274.864 96.0568C275.394 96.3466 274.197 97.0876 274.531 97.4162C274.864 97.7456 275.265 97.0473 275.685 97.4162C276.242 97.9063 274.956 98.6656 275.604 99.0029C276.253 99.3409 276.755 100.834 278.274 100.511C279.793 100.188 280.22 98.2404 280.365 97.0283C280.509 95.8161 279.774 94.9967 279.321 94.7306Z" fill="#070D30"></path><path d="M274.525 97.7947C274.337 98.2658 274.459 98.8208 274.825 98.9681C275.192 99.1153 275.664 98.7978 275.852 98.3267C276.041 97.8557 275.875 97.4091 275.509 97.2619C275.142 97.1146 274.714 97.3236 274.525 97.7947Z" fill="#FAB08B"></path><path d="M270.724 120.127C270.382 119.871 270.276 119.405 270.474 119.027L271.253 117.538C271.578 116.918 272.381 116.735 272.942 117.154C273.503 117.572 273.557 118.393 273.055 118.882L271.85 120.054C271.544 120.351 271.066 120.382 270.724 120.127Z" fill="#FAB08B"></path><path d="M274.827 104.506C274.827 104.506 270.762 106.4 269.682 109.133C268.729 111.546 269.579 113.337 271.658 116.786" stroke="white" stroke-width="2.9816" stroke-miterlimit="10" stroke-linecap="round" stroke-linejoin="round"></path><path d="M69.14 130.14L72.5199 128.176L72.5088 132.12L69.1289 134.084L69.14 130.14Z" fill="#070D30"></path><path d="M65.707 128.159L69.0877 126.195L72.5183 128.176L69.1384 130.14L65.707 128.159Z" fill="#1A1885"></path><path d="M69.1378 130.14L69.1267 134.084L65.6953 132.103L65.7064 128.159L69.1378 130.14Z" fill="#111057"></path><path d="M76.8627 135.067L80.2426 133.103L80.2315 137.047L76.8516 139.011L76.8627 135.067Z" fill="#070D30"></path><path d="M73.4297 133.086L76.8104 131.122L80.241 133.103L76.8611 135.067L73.4297 133.086Z" fill="#1A1885"></path><path d="M76.8605 135.067L76.8494 139.011L73.418 137.03L73.4291 133.086L76.8605 135.067Z" fill="#111057"></path><path d="M85.2376 139.634L88.6184 137.669L88.6065 141.613L85.2266 143.577L85.2376 139.634Z" fill="#070D30"></path><path d="M81.8047 137.653L85.1854 135.688L88.6168 137.669L85.2361 139.634L81.8047 137.653Z" fill="#1A1885"></path><path d="M85.2354 139.634L85.2244 143.577L81.793 141.596L81.804 137.653L85.2354 139.634Z" fill="#111057"></path><path d="M257.261 145.699L235.104 158.576C233.958 159.242 232.096 159.242 230.943 158.576L222.448 153.671C221.867 153.336 221.577 152.897 221.579 152.458L221.57 155.516C221.569 155.955 221.859 156.394 222.439 156.729L230.933 161.634C232.086 162.3 233.948 162.3 235.094 161.634L257.252 148.757C257.819 148.427 258.104 147.995 258.105 147.561L258.114 144.503C258.114 144.937 257.829 145.37 257.261 145.699Z" fill="url(#paint39_linear_2288_203389)"></path><path d="M257.25 143.29C258.403 143.956 258.406 145.036 257.263 145.7L235.106 158.577C233.96 159.243 232.098 159.243 230.945 158.577L222.451 153.672C221.298 153.006 221.292 151.928 222.437 151.262L244.595 138.385C245.736 137.722 247.602 137.719 248.755 138.385L257.25 143.29Z" fill="url(#paint40_linear_2288_203389)"></path><path d="M232.325 154.748C231.98 154.549 231.98 154.227 232.325 154.028C232.669 153.829 233.227 153.829 233.572 154.028C233.916 154.227 233.916 154.549 233.572 154.748C233.227 154.947 232.669 154.947 232.325 154.748Z" fill="#1A1885"></path><path d="M236.208 152.505C235.863 152.306 235.863 151.984 236.208 151.784C236.552 151.585 237.11 151.586 237.454 151.784C237.799 151.983 237.799 152.305 237.454 152.505C237.11 152.704 236.552 152.704 236.208 152.505Z" fill="#FFB06D"></path><path d="M240.094 150.261C239.75 150.062 239.75 149.74 240.094 149.541C240.439 149.342 240.997 149.342 241.341 149.541C241.686 149.739 241.686 150.062 241.341 150.261C240.997 150.46 240.439 150.46 240.094 150.261Z" fill="#1A1885"></path><path d="M243.985 148.018C243.64 147.819 243.64 147.497 243.985 147.298C244.329 147.1 244.887 147.1 245.232 147.298C245.576 147.497 245.576 147.819 245.232 148.018C244.887 148.217 244.329 148.217 243.985 148.018Z" fill="#FF5A72"></path><path d="M188.267 88.6153L194.335 85.0889L194.315 100.736L188.246 104.262L188.267 88.6153Z" fill="#56A6C7"></path><path d="M182.105 85.0596L188.173 81.5332L194.332 85.0889L188.264 88.6153L182.105 85.0596Z" fill="#B5E9FE"></path><path d="M188.265 88.6153L188.245 104.262L182.086 100.707L182.106 85.0596L188.265 88.6153Z" fill="#82D7FA"></path><path d="M150.176 216.634C150.176 216.634 153.946 219.06 156.834 218.516C159.384 218.034 160.445 216.36 162.252 212.761" stroke="white" stroke-width="2.9816" stroke-miterlimit="10" stroke-linecap="round" stroke-linejoin="round"></path><path d="M163.089 208.985C163.503 209.088 163.781 209.477 163.744 209.903L163.6 211.577C163.54 212.275 162.87 212.753 162.191 212.584C161.512 212.414 161.145 211.677 161.42 211.034L162.079 209.488C162.246 209.095 162.674 208.882 163.089 208.985Z" fill="#FAB08B"></path><path d="M144.773 257.604C144.773 257.604 144.392 258.667 144.753 259.084C145.292 259.708 147.433 262.033 149.002 262.394C150.571 262.756 150.408 261.617 149.804 260.912C148.105 258.927 147.397 258.306 146.778 257.624C146.196 256.986 145.09 257.087 144.773 257.604Z" fill="#070D30"></path><path d="M145.965 257.805L146.152 253.525" stroke="#D6E9F4" stroke-width="2.1297" stroke-miterlimit="10" stroke-linecap="round" stroke-linejoin="round"></path><path d="M149.96 256.096C149.96 256.096 149.557 257.239 150.034 257.408C150.746 257.662 153.638 258.247 155.3 258.184C156.775 258.129 156.069 256.928 155.269 256.639C153.015 255.825 152.17 255.651 151.368 255.388C150.615 255.142 149.98 255.541 149.96 256.096Z" fill="#070D30"></path><path d="M150.887 255.319L151.045 251.037" stroke="#D6E9F4" stroke-width="2.1297" stroke-miterlimit="10" stroke-linecap="round" stroke-linejoin="round"></path><path d="M152.385 233.848C152.471 233.717 152.523 233.588 152.53 233.462C152.598 232.329 152.911 230.059 152.146 229.829C151.38 229.599 144.462 231.875 144.462 231.875C144.462 231.875 143.55 234.45 144.659 236.053L145.281 244.9L144.687 256.364C144.659 256.898 145.069 257.353 145.603 257.38L146.44 257.424C146.974 257.452 147.429 257.042 147.457 256.508L148.06 244.875V236.463C148.454 236.27 148.921 236.052 149.401 235.817L150.226 242.684L149.642 253.938C149.609 254.588 150.108 255.142 150.758 255.176L151.175 255.198C151.825 255.232 152.379 254.731 152.413 254.081L153.005 242.659L152.385 233.848Z" fill="#1A1885"></path><path d="M152.653 230.419C152.666 231.118 152.326 231.772 151.745 232.163C150.383 233.08 148.117 234.278 146.869 234.453C143.848 234.881 143.598 232.902 143.598 232.902C143.598 232.902 143.685 221.052 144.111 218.596C144.34 217.286 145.358 216.623 146.427 215.922C146.561 215.834 146.689 215.75 146.811 215.676C147.617 215.177 148.541 214.876 149.489 214.883C149.745 214.886 149.974 214.907 150.183 214.95C151.252 215.149 151.718 215.794 152.072 216.309C152.294 216.633 152.419 217.018 152.426 217.412L152.653 230.419Z" fill="#FF5A72"></path><path d="M146.867 215.164C146.867 215.164 146.867 214.883 148.216 214.736L148.316 216.089L146.973 215.916L146.867 215.164Z" fill="#98E1ED"></path><path d="M148.32 213.08V215.344" stroke="#FAB08B" stroke-width="2.9816" stroke-miterlimit="10" stroke-linecap="round" stroke-linejoin="round"></path><path d="M146.873 215.164L146.746 216.359C146.746 216.359 147.273 217.54 147.568 217.961L148.79 216.254C148.79 216.254 148.095 216.141 146.873 215.164Z" fill="white"></path><path d="M149.543 215.502C149.543 215.502 149.276 216.091 148.707 216.253L150.14 217.075C150.14 217.075 150.091 215.6 149.894 215.065C149.894 215.065 149.726 214.883 149.543 215.502Z" fill="white"></path><path d="M186.061 243.017L194.09 238.351L194.063 247.718L186.035 252.384L186.061 243.017Z" fill="url(#paint41_linear_2288_203389)"></path><path d="M177.906 238.312L185.934 233.646L194.084 238.351L186.055 243.017L177.906 238.312Z" fill="url(#paint42_linear_2288_203389)"></path><path d="M186.058 243.017L186.032 252.384L177.883 247.679L177.91 238.312L186.058 243.017Z" fill="url(#paint43_linear_2288_203389)"></path><path d="M164.121 255.719L181.97 245.346" stroke="#FF5A72" stroke-width="2" stroke-miterlimit="10" stroke-linecap="round" stroke-linejoin="round"></path><path d="M160.089 258.19L168.118 253.525L168.091 262.891L160.062 267.557L160.089 258.19Z" fill="url(#paint44_linear_2288_203389)"></path><path d="M151.941 253.486L159.97 248.82L168.119 253.525L160.09 258.19L151.941 253.486Z" fill="url(#paint45_linear_2288_203389)"></path><path d="M160.093 258.19L160.067 267.557L151.918 262.852L151.944 253.486L160.093 258.19Z" fill="url(#paint46_linear_2288_203389)"></path><path d="M160.406 253.525V229.621" stroke="#FF5A72" stroke-width="2" stroke-miterlimit="10" stroke-linecap="round" stroke-linejoin="round"></path><path d="M160.472 221.689L168.5 217.023L168.474 226.389L160.445 231.055L160.472 221.689Z" fill="url(#paint47_linear_2288_203389)"></path><path d="M152.324 216.984L160.352 212.319L168.501 217.023L160.473 221.689L152.324 216.984Z" fill="url(#paint48_linear_2288_203389)"></path><path d="M160.476 221.689L160.449 231.055L152.301 226.35L152.328 216.983L160.476 221.689Z" fill="url(#paint49_linear_2288_203389)"></path><path d="M160.441 214.498L163.821 212.534L163.81 216.478L160.43 218.443L160.441 214.498Z" fill="#070D30"></path><path d="M157.008 212.517L160.389 210.553L163.82 212.534L160.439 214.498L157.008 212.517Z" fill="#1A1885"></path><path d="M160.439 214.498L160.427 218.443L156.996 216.462L157.007 212.517L160.439 214.498Z" fill="#111057"></path><path d="M151.724 210.07C152.402 212.034 151.791 214.282 150.264 214.81C150.04 214.886 149.811 214.924 149.578 214.921C148.497 214.92 147.362 214.124 146.647 212.954C146.465 212.654 146.308 212.326 146.189 211.981C146.173 211.934 146.156 211.886 146.144 211.841C146.113 211.738 146.083 211.633 146.059 211.531C145.765 210.298 146.038 209.169 146.703 208.429C146.917 208.191 147.17 207.993 147.457 207.844C147.569 207.787 147.684 207.737 147.805 207.695C148.985 207.287 150.277 207.754 151.114 208.896C151.363 209.232 151.57 209.624 151.724 210.07Z" fill="#FAB08B"></path><path d="M151.17 208.466C150.362 206.812 147.133 205.312 145.899 208.74C145.899 208.74 144.048 210.503 146.19 211.981C146.19 211.981 146.701 213.131 147.216 212.552C147.729 211.973 146.715 210.585 146.724 210.224C146.728 210.082 146.83 209.846 147.039 209.634C147.261 209.826 147.642 210.024 148.312 210.094C149.103 210.175 149.195 209.739 149.087 209.314C150.476 209.58 151.506 209.156 151.17 208.466Z" fill="#070D30"></path><path d="M146.726 211.858C147.086 212.217 147.192 212.775 146.913 213.054C146.634 213.334 146.075 213.228 145.716 212.87C145.356 212.511 145.333 212.035 145.611 211.756C145.891 211.476 146.367 211.499 146.726 211.858Z" fill="#FAB08B"></path><path d="M144.967 219.345C144.967 219.345 144.603 223.815 146.445 226.105C148.071 228.126 150.046 228.274 154.073 228.172" stroke="white" stroke-width="2.9816" stroke-miterlimit="10" stroke-linecap="round" stroke-linejoin="round"></path><path d="M157.8 227.13C157.904 227.545 157.691 227.973 157.299 228.142L155.755 228.803C155.111 229.079 154.374 228.714 154.203 228.035C154.032 227.355 154.509 226.685 155.207 226.624L156.881 226.476C157.306 226.439 157.696 226.716 157.8 227.13Z" fill="#FAB08B"></path><defs><linearGradient id="paint0_linear_2288_203389" x1="3.23439" y1="198.396" x2="104.643" y2="198.396" gradientUnits="userSpaceOnUse"><stop stop-color="#66D2FE"></stop><stop offset="0.3365" stop-color="#52A7DE"></stop><stop offset="0.7813" stop-color="#3974B7"></stop><stop offset="1" stop-color="#3060A8"></stop></linearGradient><linearGradient id="paint1_linear_2288_203389" x1="3.23439" y1="185.605" x2="104.643" y2="185.605" gradientUnits="userSpaceOnUse"><stop stop-color="#66D2FE"></stop><stop offset="0.3365" stop-color="#52A7DE"></stop><stop offset="0.7813" stop-color="#3974B7"></stop><stop offset="1" stop-color="#3060A8"></stop></linearGradient><linearGradient id="paint2_linear_2288_203389" x1="3.23439" y1="172.814" x2="104.643" y2="172.814" gradientUnits="userSpaceOnUse"><stop stop-color="#66D2FE"></stop><stop offset="0.3365" stop-color="#52A7DE"></stop><stop offset="0.7813" stop-color="#3974B7"></stop><stop offset="1" stop-color="#3060A8"></stop></linearGradient><linearGradient id="paint3_linear_2288_203389" x1="3.23439" y1="160.024" x2="104.643" y2="160.024" gradientUnits="userSpaceOnUse"><stop stop-color="#66D2FE"></stop><stop offset="0.3365" stop-color="#52A7DE"></stop><stop offset="0.7813" stop-color="#3974B7"></stop><stop offset="1" stop-color="#3060A8"></stop></linearGradient><linearGradient id="paint4_linear_2288_203389" x1="108.908" y1="263.738" x2="210.316" y2="263.738" gradientUnits="userSpaceOnUse"><stop stop-color="#66D2FE"></stop><stop offset="0.3365" stop-color="#52A7DE"></stop><stop offset="0.7813" stop-color="#3974B7"></stop><stop offset="1" stop-color="#3060A8"></stop></linearGradient><linearGradient id="paint5_linear_2288_203389" x1="213.336" y1="197.422" x2="314.745" y2="197.422" gradientUnits="userSpaceOnUse"><stop stop-color="#66D2FE"></stop><stop offset="0.3365" stop-color="#52A7DE"></stop><stop offset="0.7813" stop-color="#3974B7"></stop><stop offset="1" stop-color="#3060A8"></stop></linearGradient><linearGradient id="paint6_linear_2288_203389" x1="213.336" y1="184.631" x2="314.745" y2="184.631" gradientUnits="userSpaceOnUse"><stop stop-color="#66D2FE"></stop><stop offset="0.3365" stop-color="#52A7DE"></stop><stop offset="0.7813" stop-color="#3974B7"></stop><stop offset="1" stop-color="#3060A8"></stop></linearGradient><linearGradient id="paint7_linear_2288_203389" x1="213.336" y1="171.841" x2="314.745" y2="171.841" gradientUnits="userSpaceOnUse"><stop stop-color="#66D2FE"></stop><stop offset="0.3365" stop-color="#52A7DE"></stop><stop offset="0.7813" stop-color="#3974B7"></stop><stop offset="1" stop-color="#3060A8"></stop></linearGradient><linearGradient id="paint8_linear_2288_203389" x1="213.336" y1="171.841" x2="314.745" y2="171.841" gradientUnits="userSpaceOnUse"><stop stop-color="#66D2FE"></stop><stop offset="0.3365" stop-color="#52A7DE"></stop><stop offset="0.7813" stop-color="#3974B7"></stop><stop offset="1" stop-color="#3060A8"></stop></linearGradient><linearGradient id="paint9_linear_2288_203389" x1="253.965" y1="154.785" x2="274.123" y2="154.785" gradientUnits="userSpaceOnUse"><stop stop-color="#FF5A72"></stop><stop offset="0.1515" stop-color="#FF6971"></stop><stop offset="0.7206" stop-color="#FF9C6E"></stop><stop offset="1" stop-color="#FFB06D"></stop></linearGradient><linearGradient id="paint10_linear_2288_203389" x1="108.908" y1="136.153" x2="210.316" y2="136.153" gradientUnits="userSpaceOnUse"><stop stop-color="#66D2FE"></stop><stop offset="0.3365" stop-color="#52A7DE"></stop><stop offset="0.7813" stop-color="#3974B7"></stop><stop offset="1" stop-color="#3060A8"></stop></linearGradient><linearGradient id="paint11_linear_2288_203389" x1="108.908" y1="123.363" x2="210.316" y2="123.363" gradientUnits="userSpaceOnUse"><stop stop-color="#66D2FE"></stop><stop offset="0.3365" stop-color="#52A7DE"></stop><stop offset="0.7813" stop-color="#3974B7"></stop><stop offset="1" stop-color="#3060A8"></stop></linearGradient><linearGradient id="paint12_linear_2288_203389" x1="118.179" y1="144.384" x2="181.119" y2="196.636" gradientUnits="userSpaceOnUse"><stop stop-color="#FFE62A"></stop><stop offset="1" stop-color="#F4617E"></stop></linearGradient><linearGradient id="paint13_linear_2288_203389" x1="116.362" y1="146.574" x2="179.302" y2="198.826" gradientUnits="userSpaceOnUse"><stop stop-color="#FFE62A"></stop><stop offset="1" stop-color="#F4617E"></stop></linearGradient><linearGradient id="paint14_linear_2288_203389" x1="143.363" y1="138.224" x2="175.857" y2="138.224" gradientUnits="userSpaceOnUse"><stop stop-color="#FF5A72"></stop><stop offset="0.1515" stop-color="#FF6971"></stop><stop offset="0.7206" stop-color="#FF9C6E"></stop><stop offset="1" stop-color="#FFB06D"></stop></linearGradient><linearGradient id="paint15_linear_2288_203389" x1="143.542" y1="101.634" x2="175.855" y2="101.634" gradientUnits="userSpaceOnUse"><stop stop-color="#FF5A72"></stop><stop offset="0.1515" stop-color="#FF6971"></stop><stop offset="0.7206" stop-color="#FF9C6E"></stop><stop offset="1" stop-color="#FFB06D"></stop></linearGradient><linearGradient id="paint16_linear_2288_203389" x1="143.542" y1="94.4578" x2="175.855" y2="94.4578" gradientUnits="userSpaceOnUse"><stop stop-color="#FF5A72"></stop><stop offset="0.1515" stop-color="#FF6971"></stop><stop offset="0.7206" stop-color="#FF9C6E"></stop><stop offset="1" stop-color="#FFB06D"></stop></linearGradient><linearGradient id="paint17_linear_2288_203389" x1="143.542" y1="9.35858" x2="175.855" y2="9.35858" gradientUnits="userSpaceOnUse"><stop stop-color="#FF5A72"></stop><stop offset="0.1515" stop-color="#FF6971"></stop><stop offset="0.7206" stop-color="#FF9C6E"></stop><stop offset="1" stop-color="#FFB06D"></stop></linearGradient><linearGradient id="paint18_linear_2288_203389" x1="152.148" y1="26.8347" x2="167.257" y2="26.8347" gradientUnits="userSpaceOnUse"><stop stop-color="#FF5A72"></stop><stop offset="0.1515" stop-color="#FF6971"></stop><stop offset="0.7206" stop-color="#FF9C6E"></stop><stop offset="1" stop-color="#FFB06D"></stop></linearGradient><linearGradient id="paint19_linear_2288_203389" x1="113.902" y1="53.1523" x2="187.138" y2="97.4896" gradientUnits="userSpaceOnUse"><stop stop-color="#FFE62A"></stop><stop offset="1" stop-color="#F42C53"></stop></linearGradient><linearGradient id="paint20_linear_2288_203389" x1="115.93" y1="49.8026" x2="189.166" y2="94.1402" gradientUnits="userSpaceOnUse"><stop stop-color="#FFE62A"></stop><stop offset="1" stop-color="#F4617E"></stop></linearGradient><linearGradient id="paint21_linear_2288_203389" x1="111.745" y1="56.7214" x2="184.981" y2="101.059" gradientUnits="userSpaceOnUse"><stop stop-color="#FFB82A"></stop><stop offset="1" stop-color="#F4617E"></stop></linearGradient><linearGradient id="paint22_linear_2288_203389" x1="179.124" y1="9.32601" x2="290.658" y2="76.8488" gradientUnits="userSpaceOnUse"><stop stop-color="#FFBC2A"></stop><stop offset="1" stop-color="#F4617E"></stop></linearGradient><linearGradient id="paint23_linear_2288_203389" x1="193.534" y1="8.78667" x2="266.769" y2="53.1238" gradientUnits="userSpaceOnUse"><stop stop-color="#FFE62A"></stop><stop offset="1" stop-color="#F4617E"></stop></linearGradient><linearGradient id="paint24_linear_2288_203389" x1="183.298" y1="16.7279" x2="281.499" y2="76.1792" gradientUnits="userSpaceOnUse"><stop stop-color="#FFD12A"></stop><stop offset="1" stop-color="#F4617E"></stop></linearGradient><linearGradient id="paint25_linear_2288_203389" x1="139.624" y1="20.9905" x2="212.86" y2="65.3277" gradientUnits="userSpaceOnUse"><stop stop-color="#FFE62A"></stop><stop offset="1" stop-color="#F42C53"></stop></linearGradient><linearGradient id="paint26_linear_2288_203389" x1="141.653" y1="17.6409" x2="214.889" y2="61.9782" gradientUnits="userSpaceOnUse"><stop stop-color="#FFE62A"></stop><stop offset="1" stop-color="#F4617E"></stop></linearGradient><linearGradient id="paint27_linear_2288_203389" x1="137.468" y1="24.5596" x2="210.703" y2="68.8967" gradientUnits="userSpaceOnUse"><stop stop-color="#FFB82A"></stop><stop offset="1" stop-color="#F4617E"></stop></linearGradient><linearGradient id="paint28_linear_2288_203389" x1="140.001" y1="50.6429" x2="213.236" y2="94.9801" gradientUnits="userSpaceOnUse"><stop stop-color="#FFBC2A"></stop><stop offset="1" stop-color="#F4617E"></stop></linearGradient><linearGradient id="paint29_linear_2288_203389" x1="142.03" y1="47.2935" x2="215.266" y2="91.6305" gradientUnits="userSpaceOnUse"><stop stop-color="#FFE62A"></stop><stop offset="1" stop-color="#F4617E"></stop></linearGradient><linearGradient id="paint30_linear_2288_203389" x1="137.844" y1="54.2122" x2="211.08" y2="98.5495" gradientUnits="userSpaceOnUse"><stop stop-color="#FFD12A"></stop><stop offset="1" stop-color="#F4617E"></stop></linearGradient><linearGradient id="paint31_linear_2288_203389" x1="129.682" y1="25.9726" x2="202.918" y2="70.3101" gradientUnits="userSpaceOnUse"><stop stop-color="#FFAD2A"></stop><stop offset="1" stop-color="#F4617E"></stop></linearGradient><linearGradient id="paint32_linear_2288_203389" x1="131.711" y1="22.6232" x2="204.947" y2="66.9606" gradientUnits="userSpaceOnUse"><stop stop-color="#FFE62A"></stop><stop offset="1" stop-color="#F4617E"></stop></linearGradient><linearGradient id="paint33_linear_2288_203389" x1="127.525" y1="29.542" x2="200.761" y2="73.8792" gradientUnits="userSpaceOnUse"><stop stop-color="#FFCD2A"></stop><stop offset="1" stop-color="#F4617E"></stop></linearGradient><linearGradient id="paint34_linear_2288_203389" x1="202.738" y1="90.4629" x2="309.796" y2="136.619" gradientUnits="userSpaceOnUse"><stop stop-color="white"></stop><stop offset="0.2266" stop-color="#CAD6E9"></stop><stop offset="0.603" stop-color="#7897C6"></stop><stop offset="0.8698" stop-color="#446FB0"></stop><stop offset="1" stop-color="#3060A8"></stop></linearGradient><linearGradient id="paint35_linear_2288_203389" x1="208.996" y1="98.1606" x2="257.646" y2="98.1606" gradientUnits="userSpaceOnUse"><stop stop-color="#FFE62A"></stop><stop offset="1" stop-color="#F42C53"></stop></linearGradient><linearGradient id="paint36_linear_2288_203389" x1="44.5315" y1="69.2808" x2="160.126" y2="143.705" gradientUnits="userSpaceOnUse"><stop stop-color="white"></stop><stop offset="0.2266" stop-color="#CAD6E9"></stop><stop offset="0.603" stop-color="#7897C6"></stop><stop offset="0.8698" stop-color="#446FB0"></stop><stop offset="1" stop-color="#3060A8"></stop></linearGradient><linearGradient id="paint37_linear_2288_203389" x1="60.3487" y1="99.1304" x2="107.933" y2="99.1304" gradientUnits="userSpaceOnUse"><stop stop-color="#FF5A72"></stop><stop offset="0.2266" stop-color="#CA5C80"></stop><stop offset="0.603" stop-color="#785E95"></stop><stop offset="0.8698" stop-color="#445FA3"></stop><stop offset="1" stop-color="#3060A8"></stop></linearGradient><linearGradient id="paint38_linear_2288_203389" x1="60.3471" y1="88.7821" x2="107.931" y2="88.7821" gradientUnits="userSpaceOnUse"><stop stop-color="#02007D"></stop><stop offset="0.2291" stop-color="#0E1988"></stop><stop offset="0.7461" stop-color="#264C9F"></stop><stop offset="1" stop-color="#3060A8"></stop></linearGradient><linearGradient id="paint39_linear_2288_203389" x1="221.571" y1="153.318" x2="258.115" y2="153.318" gradientUnits="userSpaceOnUse"><stop stop-color="#66D2FE"></stop><stop offset="0.4283" stop-color="#4792C3"></stop><stop offset="0.8125" stop-color="#2F5E94"></stop><stop offset="1" stop-color="#254A82"></stop></linearGradient><linearGradient id="paint40_linear_2288_203389" x1="228.837" y1="141.506" x2="276.342" y2="171.592" gradientUnits="userSpaceOnUse"><stop stop-color="white"></stop><stop offset="0.2266" stop-color="#CAD6E9"></stop><stop offset="0.603" stop-color="#7897C6"></stop><stop offset="0.8698" stop-color="#446FB0"></stop><stop offset="1" stop-color="#3060A8"></stop></linearGradient><linearGradient id="paint41_linear_2288_203389" x1="166.387" y1="231.034" x2="239.623" y2="275.371" gradientUnits="userSpaceOnUse"><stop stop-color="#FFBC2A"></stop><stop offset="1" stop-color="#F4617E"></stop></linearGradient><linearGradient id="paint42_linear_2288_203389" x1="168.409" y1="227.685" x2="241.644" y2="272.022" gradientUnits="userSpaceOnUse"><stop stop-color="#FFE62A"></stop><stop offset="1" stop-color="#F4617E"></stop></linearGradient><linearGradient id="paint43_linear_2288_203389" x1="164.224" y1="234.604" x2="237.459" y2="278.941" gradientUnits="userSpaceOnUse"><stop stop-color="#FFD12A"></stop><stop offset="1" stop-color="#F4617E"></stop></linearGradient><linearGradient id="paint44_linear_2288_203389" x1="114.499" y1="230.518" x2="187.735" y2="274.855" gradientUnits="userSpaceOnUse"><stop stop-color="#FFE62A"></stop><stop offset="1" stop-color="#F42C53"></stop></linearGradient><linearGradient id="paint45_linear_2288_203389" x1="116.528" y1="227.169" x2="189.764" y2="271.506" gradientUnits="userSpaceOnUse"><stop stop-color="#FFE62A"></stop><stop offset="1" stop-color="#F4617E"></stop></linearGradient><linearGradient id="paint46_linear_2288_203389" x1="112.342" y1="234.087" x2="185.578" y2="278.425" gradientUnits="userSpaceOnUse"><stop stop-color="#FFB82A"></stop><stop offset="1" stop-color="#F4617E"></stop></linearGradient><linearGradient id="paint47_linear_2288_203389" x1="130.28" y1="203.339" x2="203.516" y2="247.676" gradientUnits="userSpaceOnUse"><stop stop-color="#FFAD2A"></stop><stop offset="1" stop-color="#F4617E"></stop></linearGradient><linearGradient id="paint48_linear_2288_203389" x1="132.308" y1="199.989" x2="205.544" y2="244.326" gradientUnits="userSpaceOnUse"><stop stop-color="#FFE62A"></stop><stop offset="1" stop-color="#F4617E"></stop></linearGradient><linearGradient id="paint49_linear_2288_203389" x1="128.123" y1="206.908" x2="201.359" y2="251.245" gradientUnits="userSpaceOnUse"><stop stop-color="#FFB82A"></stop><stop offset="1" stop-color="#F4617E"></stop></linearGradient></defs></svg>