<svg xmlns="http://www.w3.org/2000/svg" width="500" height="300" viewBox="0 0 500 300" fill="none"><rect width="500" height="300" rx="24" fill="white"></rect><path d="M433.693 252.125C454.187 246.939 470.87 235.552 474.756 214.28C479.863 186.325 466.117 166.31 448.849 145.845C437.399 132.275 434.545 119.181 437.404 102.668C441.56 78.6555 447.579 56.2754 428.853 36.0042C416.454 22.5821 397.4 15.609 378.801 16.2567C351.997 17.1902 334.953 34.5255 312.081 44.8784C290.553 54.623 263.92 61.6352 240.291 55.5115C211.273 47.9906 191.016 23.1578 159.635 21.5551C146.499 20.8842 132.528 24.8655 122.674 33.4884C112.288 42.5762 107.732 56.6295 93.1654 61.1245C86.4352 63.2013 79.1516 62.3798 72.1409 63.2215C43.6274 66.6445 32.9259 93.7345 36.7466 118.044C42.2201 152.87 52.3228 187.128 66.335 219.682C70.3554 229.023 74.7762 238.34 81.3285 246.261C96.748 264.901 117.771 264.314 140.578 264.561C169.059 264.869 197.513 263.332 225.97 262.476C266.807 261.247 307.636 259.675 348.444 257.751C375.5 256.476 407.263 258.813 433.693 252.125Z" fill="url(#paint0_linear_2332_676)"></path><mask id="mask0_2332_676" style="mask-type:luminance" maskUnits="userSpaceOnUse" x="218" y="15" width="237" height="200"><path d="M454.727 15H218.562V214.34H454.727V15Z" fill="white"></path></mask><g mask="url(#mask0_2332_676)"><path d="M302.096 48.8497C302.136 46.7867 303.884 45.0889 306.026 45.0889H387.001C389.172 45.0889 391.305 46.8753 391.305 48.9665V235.881C391.305 236.887 390.703 237.852 389.964 238.562C389.224 239.272 388.128 239.67 387.084 239.667L302.42 239.445C301.367 239.442 300.335 239.032 299.598 238.307C298.861 237.581 298.446 236.579 298.466 235.564L302.096 48.8497Z" fill="#BDD0FB"></path><g opacity="0.5"><path d="M361.73 67.1143L384.798 67.0846L384.981 55.6953H361.891L361.73 67.1143Z" fill="white"></path><path d="M335.875 67.1088L358.92 67.0788L359.078 55.6953H336.01L335.875 67.1088Z" fill="white"></path><path d="M310.043 67.1029L333.065 67.0731L333.198 55.6953H310.154L310.043 67.1029Z" fill="white"></path><path d="M361.441 87.5574L384.469 87.5716L384.652 76.2567L361.602 76.2476L361.441 87.5574Z" fill="white"></path><path d="M335.625 87.5416L358.63 87.5557L358.787 76.2465L335.76 76.2373L335.625 87.5416Z" fill="white"></path><path d="M309.84 87.5256L332.822 87.5397L332.954 76.2362L309.95 76.2271L309.84 87.5256Z" fill="white"></path><path d="M361.156 107.86L384.144 107.883L384.326 96.6076L361.316 96.5894L361.156 107.86Z" fill="white"></path><path d="M335.391 107.834L358.355 107.858L358.512 96.5876L335.525 96.5693L335.391 107.834Z" fill="white"></path><path d="M309.648 107.808L332.59 107.831L332.722 96.5669L309.758 96.5488L309.648 107.808Z" fill="white"></path><path d="M360.871 128.093L383.819 128.125L384 116.889L361.03 116.861L360.871 128.093Z" fill="white"></path><path d="M335.152 128.057L358.077 128.089L358.234 116.858L335.286 116.831L335.152 128.057Z" fill="white"></path><path d="M309.453 128.021L332.355 128.053L332.486 116.828L309.562 116.8L309.453 128.021Z" fill="white"></path><path d="M360.582 148.256L383.49 148.297L383.67 137.099L360.74 137.063L360.582 148.256Z" fill="white"></path><path d="M334.902 148.21L357.787 148.251L357.943 137.059L335.036 137.022L334.902 148.21Z" fill="white"></path><path d="M309.254 148.164L332.116 148.205L332.247 137.018L309.363 136.982L309.254 148.164Z" fill="white"></path><path d="M360.301 168.349L383.169 168.399L383.349 157.239L360.459 157.194L360.301 168.349Z" fill="white"></path><path d="M334.664 168.292L357.51 168.342L357.665 157.189L334.797 157.144L334.664 168.292Z" fill="white"></path><path d="M309.059 168.236L331.881 168.286L332.012 157.138L309.167 157.093L309.059 168.236Z" fill="white"></path><path d="M360.016 188.372L382.845 188.431L383.024 177.31L360.173 177.256L360.016 188.372Z" fill="white"></path><path d="M334.426 188.307L357.232 188.365L357.387 177.25L334.559 177.196L334.426 188.307Z" fill="white"></path><path d="M308.863 188.241L331.647 188.299L331.777 177.189L308.972 177.136L308.863 188.241Z" fill="white"></path><path d="M359.73 208.328L382.52 208.395L382.699 197.313L359.887 197.25L359.73 208.328Z" fill="white"></path><path d="M334.188 208.252L356.954 208.319L357.108 197.242L334.32 197.18L334.188 208.252Z" fill="white"></path><path d="M308.668 208.176L331.412 208.244L331.542 197.172L308.776 197.109L308.668 208.176Z" fill="white"></path></g><path d="M373.715 108.163C373.75 107.008 375.284 106.058 377.164 106.058H448.239C450.145 106.058 452.016 107.058 452.016 108.228V212.834C452.016 213.397 451.488 213.937 450.839 214.335C450.19 214.732 449.228 214.955 448.311 214.953L373.999 214.829C373.074 214.827 372.169 214.598 371.522 214.192C370.875 213.786 370.51 213.225 370.528 212.657L373.715 108.163Z" fill="#91B3FA"></path><g opacity="0.5"><path d="M426.059 118.385L446.306 118.368L446.467 111.994H426.199L426.059 118.385Z" fill="white"></path><path d="M403.363 118.382L423.591 118.365L423.729 111.994H403.482L403.363 118.382Z" fill="white"></path><path d="M380.691 118.378L400.898 118.362L401.015 111.994H380.788L380.691 118.378Z" fill="white"></path><path d="M425.805 129.826L446.017 129.834L446.177 123.502L425.945 123.497L425.805 129.826Z" fill="white"></path><path d="M403.148 129.817L423.34 129.825L423.479 123.496L403.267 123.491L403.148 129.817Z" fill="white"></path><path d="M380.516 129.808L400.687 129.816L400.803 123.49L380.612 123.485L380.516 129.808Z" fill="white"></path><path d="M425.555 141.188L445.732 141.202L445.891 134.891L425.695 134.881L425.555 141.188Z" fill="white"></path><path d="M402.938 141.174L423.094 141.187L423.232 134.879L403.056 134.869L402.938 141.174Z" fill="white"></path><path d="M380.344 141.159L400.48 141.172L400.596 134.868L380.44 134.858L380.344 141.159Z" fill="white"></path><path d="M425.301 152.511L445.443 152.529L445.602 146.241L425.44 146.226L425.301 152.511Z" fill="white"></path><path d="M402.723 152.491L422.845 152.509L422.982 146.224L402.84 146.208L402.723 152.491Z" fill="white"></path><path d="M380.168 152.471L400.27 152.489L400.385 146.207L380.264 146.191L380.168 152.471Z" fill="white"></path><path d="M425.051 163.795L445.158 163.818L445.316 157.551L425.19 157.531L425.051 163.795Z" fill="white"></path><path d="M402.512 163.77L422.599 163.793L422.736 157.529L402.629 157.509L402.512 163.77Z" fill="white"></path><path d="M379.996 163.744L400.063 163.767L400.178 157.506L380.092 157.486L379.996 163.744Z" fill="white"></path><path d="M424.805 175.04L444.877 175.068L445.035 168.823L424.943 168.798L424.805 175.04Z" fill="white"></path><path d="M402.305 175.009L422.357 175.037L422.493 168.795L402.422 168.77L402.305 175.009Z" fill="white"></path><path d="M379.828 174.977L399.861 175.005L399.975 168.767L379.924 168.741L379.828 174.977Z" fill="white"></path><path d="M424.555 186.246L444.592 186.279L444.75 180.055L424.693 180.025L424.555 186.246Z" fill="white"></path><path d="M402.094 186.21L422.111 186.243L422.247 180.022L402.21 179.992L402.094 186.21Z" fill="white"></path><path d="M379.656 186.173L399.654 186.206L399.768 179.988L379.751 179.958L379.656 186.173Z" fill="white"></path><path d="M424.309 197.414L444.312 197.452L444.469 191.25L424.446 191.215L424.309 197.414Z" fill="white"></path><path d="M401.887 197.372L421.87 197.41L422.005 191.21L402.003 191.175L401.887 197.372Z" fill="white"></path><path d="M379.488 197.33L399.452 197.368L399.565 191.171L379.583 191.136L379.488 197.33Z" fill="white"></path><path d="M424.055 208.544L444.023 208.586L444.18 202.405L424.192 202.365L424.055 208.544Z" fill="white"></path><path d="M401.672 208.496L421.621 208.539L421.756 202.361L401.788 202.321L401.672 208.496Z" fill="white"></path><path d="M379.312 208.448L399.242 208.491L399.355 202.316L379.407 202.276L379.312 208.448Z" fill="white"></path></g><path d="M229.624 119.726C229.648 119.071 230.678 118.544 231.942 118.544H308.563C309.843 118.544 311.203 119.087 311.203 119.751V212.47C311.203 212.966 310.662 213.441 309.985 213.791C309.309 214.141 308.311 214.336 307.355 214.335L229.894 214.226C228.931 214.224 227.988 214.022 227.314 213.665C226.639 213.308 226.26 212.824 226.278 212.324L229.624 119.726Z" fill="#91B3FA"></path><g opacity="0.51"><path d="M273.629 125.115L298.694 125.07L298.684 123.444L273.648 123.485L273.629 125.115Z" fill="white"></path><path d="M273.562 131.104L298.73 131.045L298.721 129.405L273.581 129.461L273.562 131.104Z" fill="white"></path><path d="M273.492 137.143L298.764 137.069L298.754 135.416L273.511 135.486L273.492 137.143Z" fill="white"></path><path d="M273.422 143.232L298.798 143.143L298.789 141.476L273.441 141.561L273.422 143.232Z" fill="white"></path><path d="M273.348 149.372L298.83 149.267L298.82 147.587L273.367 147.687L273.348 149.372Z" fill="white"></path><path d="M273.207 161.806L298.903 161.67L298.893 159.961L273.227 160.093L273.207 161.806Z" fill="white"></path><path d="M272.988 180.855L299.012 180.669L299.002 178.917L273.008 179.097L272.988 180.855Z" fill="white"></path><path d="M273.281 155.563L298.87 155.443L298.86 153.748L273.301 153.864L273.281 155.563Z" fill="white"></path><path d="M273.133 168.102L298.937 167.95L298.927 166.227L273.153 166.374L273.133 168.102Z" fill="white"></path><path d="M273.062 174.451L298.976 174.283L298.966 172.545L273.082 172.709L273.062 174.451Z" fill="white"></path><path d="M272.918 187.312L299.053 187.11L299.043 185.343L272.938 185.54L272.918 187.312Z" fill="white"></path><path d="M272.84 193.826L299.087 193.606L299.076 191.824L272.86 192.038L272.84 193.826Z" fill="white"></path><path d="M272.762 200.396L299.122 200.159L299.112 198.361L272.782 198.593L272.762 200.396Z" fill="white"></path><path d="M272.691 207.022L299.165 206.767L299.155 204.954L272.712 205.203L272.691 207.022Z" fill="white"></path><path d="M240.77 125.174L265.991 125.129L266.019 123.498L240.825 123.539L240.77 125.174Z" fill="white"></path><path d="M240.562 131.183L265.889 131.123L265.916 129.478L240.619 129.534L240.562 131.183Z" fill="white"></path><path d="M240.355 137.241L265.787 137.166L265.815 135.507L240.412 135.578L240.355 137.241Z" fill="white"></path><path d="M240.148 143.349L265.686 143.259L265.714 141.587L240.206 141.673L240.148 143.349Z" fill="white"></path><path d="M239.938 149.509L265.582 149.404L265.61 147.718L239.995 147.819L239.938 149.509Z" fill="white"></path><path d="M239.512 161.985L265.373 161.848L265.402 160.133L239.57 160.266L239.512 161.985Z" fill="white"></path><path d="M238.863 181.097L265.056 180.911L265.086 179.152L238.923 179.334L238.863 181.097Z" fill="white"></path><path d="M239.727 155.721L265.479 155.599L265.507 153.899L239.785 154.016L239.727 155.721Z" fill="white"></path><path d="M239.297 168.301L265.268 168.148L265.297 166.419L239.356 166.568L239.297 168.301Z" fill="white"></path><path d="M239.082 174.672L265.164 174.502L265.193 172.759L239.142 172.924L239.082 174.672Z" fill="white"></path><path d="M238.641 187.577L264.947 187.374L264.976 185.6L238.701 185.799L238.641 187.577Z" fill="white"></path><path d="M238.422 194.113L264.841 193.893L264.871 192.104L238.483 192.32L238.422 194.113Z" fill="white"></path><path d="M238.195 200.706L264.729 200.467L264.759 198.663L238.257 198.897L238.195 200.706Z" fill="white"></path><path d="M237.969 207.356L264.618 207.099L264.649 205.279L238.031 205.53L237.969 207.356Z" fill="white"></path></g></g><path d="M160.69 170.913C155.729 153.089 145.151 138.571 132.211 129.718C120.645 121.805 112.613 109.952 110.079 96.5801C109.813 95.1744 109.484 93.7619 109.09 92.3467C103.123 70.91 84.555 57.0297 67.6179 61.3441C50.6806 65.6585 41.7878 86.5338 47.7549 107.97C48.9751 112.354 50.7224 116.42 52.8751 120.079C59.7449 131.757 61.985 145.48 58.6089 158.49C55.5918 170.118 55.6066 183.37 59.3262 196.734C64.8743 216.664 77.4445 232.462 92.4855 240.827C98.1747 243.991 103.242 248.123 107.366 253.022C114.22 261.164 124.237 265.312 133.746 262.889C144.004 260.276 150.799 250.749 151.815 239.305C152.39 232.83 154.291 226.546 157.175 220.656C163.984 206.754 165.707 188.935 160.69 170.913Z" fill="#91B3FA"></path><path d="M79.8981 82.6377C86.0545 96.2415 91.7489 110.024 97.2928 123.863C98.6803 127.322 100.01 130.802 101.35 134.278L103.361 139.492L105.326 144.722C106.622 148.214 107.968 151.688 109.223 155.194L112.987 165.711C115.403 172.753 117.882 179.775 120.161 186.86C121.305 190.4 122.522 193.919 123.591 197.482L126.851 208.154C131.046 222.425 134.869 236.804 137.923 251.339L137.27 251.472L134.552 240.679L133.878 237.981L133.135 235.299L131.637 229.937L130.15 224.573C129.658 222.785 129.096 221.014 128.572 219.233C127.5 215.678 126.458 212.116 125.362 208.568C120.882 194.403 116.205 180.295 111.224 166.281C108.678 159.293 106.194 152.283 103.597 145.311L101.664 140.077L99.6856 134.859C98.3686 131.379 97.0515 127.899 95.6977 124.432C93.052 117.475 90.3544 110.537 87.5974 103.619C84.8785 96.6883 82.0904 89.7798 79.2812 82.8829L79.8981 82.6377Z" fill="#7D97F4"></path><path d="M108.741 206.323C100.961 198.463 91.2603 193.808 82.006 192.703C73.733 191.715 66.1242 187.753 60.8988 181.538C60.3497 180.885 59.7661 180.245 59.1484 179.621C49.7912 170.168 36.1661 167.976 28.7156 174.725C21.2651 181.474 22.8106 194.608 32.1678 204.061C34.081 205.994 36.1727 207.622 38.3534 208.933C45.3133 213.116 50.49 219.589 52.5683 227.196C54.4254 233.994 58.3193 240.82 64.1524 246.713C72.852 255.502 83.9532 260.284 94.1464 260.576C98.0019 260.687 101.821 261.462 105.38 262.885C111.294 265.25 117.665 264.711 121.848 260.922C126.361 256.835 127.064 250.109 124.231 243.94C122.628 240.45 121.763 236.703 121.52 232.898C120.947 223.913 116.608 214.27 108.741 206.323Z" fill="#BDD0FB"></path><path d="M41.2808 182.417C48.4382 187.783 55.4101 193.364 62.3211 199.015C64.0495 200.427 65.7542 201.865 67.4634 203.298L70.0272 205.448L72.5722 207.619C74.2629 209.072 75.9748 210.503 77.6484 211.974L82.6697 216.388C85.9781 219.372 89.3127 222.328 92.5631 225.37C94.1905 226.889 95.8483 228.377 97.4434 229.928L102.251 234.557C108.594 240.791 114.778 247.179 120.613 253.854L120.315 254.097L115.751 249.261L114.614 248.051L113.444 246.867L111.101 244.504L108.763 242.137C107.986 241.347 107.177 240.584 106.385 239.806C104.791 238.261 103.21 236.704 101.606 235.168C95.1464 229.065 88.6022 223.044 81.9295 217.153C78.5698 214.232 75.2364 211.283 71.8551 208.384L69.3256 206.203L66.777 204.042C65.0787 202.601 63.3804 201.159 61.6672 199.734C58.2658 196.856 54.8428 194.001 51.3956 191.173C47.9638 188.328 44.5032 185.512 41.0352 182.708L41.2808 182.417Z" fill="#7D97F4"></path><path d="M140.32 127.676C140.082 127.24 139.407 127.308 139.269 127.783C138.759 129.539 137.525 132.603 134.935 133.691C134.804 133.746 134.681 133.801 134.561 133.857C134.444 133.52 134.442 133.129 134.723 132.718C135.529 131.541 134.075 129.933 134.075 129.933C134.075 129.933 133.979 131.349 132.854 132.24C131.884 133.008 131.419 134.717 132.081 136.119C133.483 141.328 135.582 148.217 127.406 153.249C119.229 158.282 107.715 143.751 107.715 143.751L113.43 161.083C113.43 161.083 122.251 167.31 132.511 158.554C142.772 149.797 135.971 137.056 135.971 137.056C135.971 137.056 143.797 134.036 140.32 127.676Z" fill="url(#paint1_linear_2332_676)"></path><path d="M106.285 118.286C106.285 118.286 108.654 108.121 96.4825 110.812C96.4825 110.812 90.5743 109.889 90.2737 115.223C90.2737 115.223 86.4654 117.624 89.2539 122.24C89.2539 122.24 77.9357 118.058 73.0044 127.549C68.0731 137.039 72.6058 142.261 77.3579 143.621C77.3579 143.621 73.508 145.47 75.3303 149.645C77.1527 153.821 86.3814 156.764 91.8332 151.686C91.8332 151.686 107.345 153.648 107.035 143.166C107.035 143.166 114.25 138.709 106.672 130.046C99.0936 121.384 106.285 118.286 106.285 118.286Z" fill="url(#paint2_linear_2332_676)"></path><path d="M106.953 141.847C104.507 141.146 97.386 139.851 90.6123 145.831C89.4634 146.845 88.9939 148.386 89.4037 149.829C91.223 156.236 96.0233 175.167 91.8142 183.358C91.8142 183.358 99.2315 191.18 107.323 184.875C107.323 184.875 110.954 169.739 115.709 163.093C118.992 158.506 110.474 145.866 108.319 142.812C107.993 142.35 107.512 142.007 106.953 141.847Z" fill="url(#paint3_linear_2332_676)"></path><path d="M100.198 129.117C100.198 129.117 96.5807 138.905 96.3086 143.223C96.3086 143.223 100.306 144.962 104.073 142.027C104.073 142.027 104.469 132.25 105.04 130.5L100.198 129.117Z" fill="url(#paint4_linear_2332_676)"></path><path d="M105.227 115.772C105.227 115.772 114.688 128.437 109.032 132.116C103.377 135.795 96.642 126.794 96.642 126.794C96.642 126.794 94.4467 119.862 96.7422 117.51C99.0376 115.159 105.227 115.772 105.227 115.772Z" fill="url(#paint5_linear_2332_676)"></path><path d="M100.846 112.745C100.846 112.745 105.193 113.73 105.802 115.612C106.411 117.493 99.6382 119.237 97.7405 119.323L96.2115 126.914C96.2115 126.914 91.6915 119.773 93.482 115.648C95.2726 111.524 100.846 112.745 100.846 112.745Z" fill="url(#paint6_linear_2332_676)"></path><path d="M98.4733 125.862C98.4733 125.862 94.7906 121.783 93.326 124.442C91.8614 127.102 96.6407 129.099 98.2952 127.793L98.4733 125.862Z" fill="url(#paint7_linear_2332_676)"></path><path d="M116.768 216.657C116.74 217.344 118.002 222.795 118.688 225.703C118.964 226.872 118.772 228.097 118.149 229.138L94.3778 267.41C94.0902 267.874 93.881 268.375 93.7537 268.899C93.3181 270.696 92.4146 275.097 92.8863 279.102L94.1161 281.545L88.7977 280.389L87.6406 266.727L89.1463 265.848C90.447 265.09 91.4599 263.955 92.0397 262.608C94.1892 257.613 99.5271 244.899 100.903 238.703C102.466 231.661 110.641 225.941 110.641 225.941L109.205 222.693L116.768 216.657Z" fill="url(#paint8_linear_2332_676)"></path><path d="M82.8867 275.688C82.8867 275.688 85.7588 271.332 86.0967 269.637C86.4345 267.941 87.3753 264.947 89.1459 265.848C89.1459 265.848 89.9803 274.085 89.6926 277.303C89.405 280.521 93.4957 280.418 93.4957 280.418C93.4957 280.418 94.6232 280.57 95.4488 281.359C96.0189 281.905 95.6113 282.85 94.8068 282.9C93.4683 282.982 91.3417 283.004 89.109 282.591C88.3286 282.447 87.7501 281.812 87.7029 281.053L87.1135 271.574L83.4907 275.95L82.8867 275.688Z" fill="url(#paint9_linear_2332_676)"></path><path d="M102.57 222.754C102.57 222.754 101.732 256.989 101.619 261.851C101.505 266.713 102.421 277.488 107.516 280.709L105.299 282.279C105.299 282.279 102.528 280.027 99.8215 275.691C96.7806 270.82 95.861 269.93 95.861 269.93L96.8701 267.953C97.3119 267.088 97.4418 266.109 97.2382 265.166C96.1387 260.068 92.4654 243.111 91.4635 239.459C90.2807 235.149 90.1964 229.393 94.3115 224.574C98.4263 219.755 102.57 222.754 102.57 222.754Z" fill="url(#paint10_linear_2332_676)"></path><path d="M97.8662 283.822C97.7083 283.824 97.5738 283.715 97.5515 283.566C97.3818 282.424 96.6761 277.849 96.0984 276.664C95.4367 275.307 93.2753 269.596 96.0996 269.111C96.0996 269.111 103.121 278.924 104.469 280.247C105.816 281.57 107.517 280.709 107.517 280.709C107.517 280.709 108.831 281.08 109.821 282.291C110.292 282.867 109.853 283.713 109.088 283.72L104.359 283.763C102.986 283.776 101.75 282.977 101.24 281.758C100.407 279.769 98.9775 276.851 97.3109 275.557L98.1769 283.489C98.1961 283.666 98.0521 283.82 97.8662 283.822Z" fill="url(#paint11_linear_2332_676)"></path><path d="M108.443 181.185C108.443 181.185 107.378 184.434 109.015 189.786L119.171 223.714C119.331 224.247 119.03 224.805 118.484 224.992C115.447 226.035 105.46 228.983 91.827 228.084C91.1406 228.039 90.5652 227.574 90.4158 226.931C89.5176 223.063 86.4527 209.867 85.8217 207.155C83.4172 196.823 80.7324 185.681 92.5433 178.943C97.9866 181.174 103.063 182.488 108.443 181.185Z" fill="url(#paint12_linear_2332_676)"></path><path d="M89.6415 147.109C89.6415 147.109 78.0859 156.296 75.2181 168.849C72.3504 181.402 92.1036 182.736 92.1036 182.736C92.1036 182.736 94.7853 179.872 97.9688 180.893C101.152 181.915 98.2154 175.894 94.4903 175.91C90.7655 175.926 92.4909 178.743 87.2217 176.46C82.0886 174.236 78.9159 167.357 92.0126 156.929C92.7717 156.325 93.3774 155.554 93.7422 154.676C96.2868 148.549 94.2688 144.533 89.6415 147.109Z" fill="url(#paint13_linear_2332_676)"></path><path d="M153.218 126.201C171.49 136.143 186.744 135.523 203.993 126.851C205.109 126.29 205.788 125.164 205.727 123.959L205.693 123.261C205.587 121.127 203.307 119.734 201.239 120.54C186.261 126.379 174.997 129.581 156.241 120.728C154.177 119.753 151.74 121.103 151.585 123.3C151.502 124.486 152.137 125.613 153.218 126.201Z" fill="url(#paint14_linear_2332_676)"></path><path d="M156.682 134.258L146.595 120.582C146.287 120.166 146.556 119.586 147.085 119.524L163.793 117.569C164.414 117.496 164.887 118.092 164.646 118.645C160.829 123.71 158.68 128.877 157.904 134.129C157.692 134.617 157 134.69 156.682 134.258Z" fill="url(#paint15_linear_2332_676)"></path><path d="M202.052 39.2309C183.048 28.0007 166.824 28.0979 148.158 36.672C146.95 37.2269 146.184 38.398 146.199 39.6798L146.208 40.4224C146.235 42.692 148.6 44.2551 150.829 43.4752C166.969 37.8258 179.06 34.8401 198.621 44.9319C200.774 46.0428 203.417 44.6992 203.669 42.3717C203.805 41.115 203.176 39.895 202.052 39.2309Z" fill="url(#paint16_linear_2332_676)"></path><path d="M198.701 30.5474L208.864 45.4413C209.173 45.895 208.865 46.5003 208.3 46.5466L190.479 48.0085C189.816 48.0628 189.338 47.4127 189.616 46.8342C193.873 41.5956 196.363 36.1875 197.398 30.6395C197.643 30.129 198.38 30.077 198.701 30.5474Z" fill="url(#paint17_linear_2332_676)"></path><path d="M157.55 50.3848L148.941 106.615L176.348 110.455L184.957 54.2245L157.55 50.3848Z" fill="#7D97F4"></path><path opacity="0.5" d="M162.85 54.2891L178.533 56.4859C178.348 57.6934 179.347 58.8698 180.745 59.0655C180.789 59.0718 180.896 59.085 180.896 59.0829L173.948 104.472C173.949 104.47 173.843 104.453 173.798 104.447C172.4 104.251 171.107 105.07 170.919 106.298C170.916 106.316 170.904 106.337 170.904 106.337L155.575 104.19C155.892 102.12 154.485 101.725 153.087 101.529C153.043 101.523 153.032 101.54 153.031 101.542L159.979 56.1526C159.979 56.1547 159.987 56.1576 160.032 56.1639C161.429 56.3599 162.665 55.4966 162.85 54.2891Z" fill="white"></path><path d="M166.883 88.7101C171.695 88.7101 175.597 84.9777 175.597 80.3736C175.597 75.7695 171.695 72.0371 166.883 72.0371C162.07 72.0371 158.168 75.7695 158.168 80.3736C158.168 84.9777 162.07 88.7101 166.883 88.7101Z" fill="url(#paint18_linear_2332_676)"></path><path d="M172.573 82.0224L171.661 81.8948C171.484 82.7987 171.122 83.6667 170.732 84.2644C170.593 84.4779 170.307 84.5567 170.066 84.4559L169.251 84.1154C168.952 83.9904 168.84 83.6438 169.009 83.3765C169.383 82.7818 169.723 82.0303 169.852 81.1865C169.986 80.3108 169.775 79.6141 169.139 79.5249C168.565 79.4445 168.147 79.9013 167.619 81.0707C166.857 82.7378 165.874 83.8738 164.276 83.6499C162.833 83.4477 161.886 82.2841 161.859 80.4912L160.947 80.3635C160.654 80.3224 160.451 80.0615 160.494 79.7808L160.573 79.2685C160.616 78.9878 160.888 78.7936 161.181 78.8348L162 78.9495C162.164 78.113 162.408 77.5217 162.661 77.0606C162.791 76.8243 163.092 76.7277 163.348 76.834L164.102 77.1478C164.393 77.2688 164.511 77.6017 164.357 77.867C164.112 78.2898 163.831 78.8965 163.705 79.7189C163.546 80.758 163.95 81.1177 164.354 81.1743C164.851 81.2439 165.287 80.6682 165.929 79.3784C166.829 77.5335 167.79 76.8494 169.295 77.0602C170.676 77.2536 171.767 78.4072 171.787 80.3506L172.807 80.4935C173.101 80.5346 173.304 80.7955 173.261 81.0762L173.182 81.5888C173.139 81.8694 172.866 82.0636 172.573 82.0224Z" fill="white"></path><path d="M156.021 106.231C156.014 106.231 156.008 106.231 156.001 106.23L150.862 105.51C150.788 105.499 150.737 105.434 150.748 105.363L152.873 91.4771C152.884 91.4064 152.951 91.3546 153.027 91.3678C153.101 91.3781 153.152 91.4438 153.141 91.5145L151.035 105.272L156.04 105.974C156.114 105.984 156.165 106.05 156.154 106.12C156.145 106.185 156.087 106.231 156.021 106.231Z" fill="url(#paint19_linear_2332_676)"></path><path d="M181.075 69.4814C181.069 69.4814 181.062 69.481 181.055 69.4799C180.981 69.4696 180.93 69.4039 180.941 69.3332L183.021 55.7477L177.655 54.9961C177.581 54.9859 177.53 54.9201 177.54 54.8494C177.551 54.7787 177.62 54.7275 177.694 54.7402L183.194 55.5104C183.229 55.5154 183.261 55.5335 183.283 55.5611C183.304 55.5888 183.313 55.6232 183.308 55.6572L181.209 69.3705C181.199 69.4349 181.141 69.4814 181.075 69.4814Z" fill="white"></path><path d="M155.679 48.1841L147.07 104.415L174.657 108.279L183.266 52.049L155.679 48.1841Z" fill="#91B3FA"></path><path opacity="0.5" d="M161.035 52.0962L176.718 54.293C176.533 55.5005 177.596 56.6787 178.994 56.8744C179.038 56.8807 179.028 56.8702 179.209 56.8932L172.261 102.283C172.081 102.255 172.092 102.255 172.048 102.249C170.65 102.053 169.325 102.875 169.137 104.102C169.134 104.12 169.089 104.144 169.089 104.144L153.76 101.997C154.077 99.9268 152.644 99.5213 151.246 99.3256C151.202 99.3194 151.164 99.3253 151.164 99.3275L158.112 53.9382C158.112 53.9403 158.146 53.9542 158.19 53.9603C159.588 54.156 160.85 53.3035 161.035 52.0962Z" fill="white"></path><path d="M165.07 86.503C169.883 86.503 173.785 82.7707 173.785 78.1666C173.785 73.5624 169.883 69.8301 165.07 69.8301C160.257 69.8301 156.355 73.5624 156.355 78.1666C156.355 82.7707 160.257 86.503 165.07 86.503Z" fill="url(#paint20_linear_2332_676)"></path><path d="M170.76 79.8152L169.849 79.6876C169.671 80.5915 169.309 81.4593 168.919 82.0572C168.78 82.2706 168.495 82.3495 168.254 82.2487L167.439 81.9082C167.139 81.7832 167.028 81.4366 167.196 81.1693C167.571 80.5746 167.91 79.823 168.039 78.9793C168.174 78.1035 167.963 77.4069 167.327 77.3179C166.753 77.2375 166.334 77.6942 165.807 78.8636C165.044 80.5307 164.062 81.6668 162.464 81.4429C161.021 81.2407 160.073 80.077 160.047 78.2842L159.135 78.1563C158.841 78.1152 158.639 77.8543 158.682 77.5738L158.76 77.0614C158.803 76.7807 159.076 76.5866 159.369 76.6277L160.188 76.7424C160.352 75.9059 160.596 75.3147 160.849 74.8535C160.978 74.6173 161.28 74.5207 161.536 74.627L162.29 74.9408C162.581 75.0618 162.699 75.3947 162.545 75.6599C162.3 76.0826 162.019 76.6895 161.893 77.5119C161.734 78.5509 162.138 78.9107 162.542 78.9673C163.038 79.0368 163.475 78.4612 164.116 77.1714C165.017 75.3265 165.977 74.6424 167.483 74.8532C168.864 75.0466 169.955 76.2001 169.975 78.1435L170.995 78.2865C171.288 78.3276 171.491 78.5885 171.448 78.8692L171.37 79.3817C171.326 79.662 171.054 79.8564 170.76 79.8152Z" fill="white"></path><path d="M154.357 103.884C154.351 103.884 154.344 103.883 154.337 103.882L149.018 103.137C148.983 103.132 148.951 103.114 148.929 103.086C148.908 103.059 148.899 103.024 148.904 102.99L151.003 89.2769C151.014 89.2063 151.082 89.1544 151.157 89.1676C151.23 89.1779 151.282 89.2436 151.271 89.3143L149.191 102.9L154.377 103.626C154.451 103.636 154.502 103.702 154.491 103.773C154.481 103.837 154.423 103.884 154.357 103.884Z" fill="url(#paint21_linear_2332_676)"></path><path d="M179.207 67.2808C179.201 67.2808 179.194 67.2804 179.187 67.2792C179.114 67.269 179.062 67.2032 179.073 67.1325L181.153 53.5472L175.967 52.8206C175.893 52.8104 175.842 52.7446 175.853 52.6739C175.864 52.6032 175.932 52.5514 176.007 52.5645L181.326 53.3098C181.4 53.3201 181.451 53.3858 181.44 53.4565L179.341 67.1699C179.331 67.2343 179.273 67.2808 179.207 67.2808Z" fill="white"></path><path d="M164.058 44.8606L138.125 95.9932L163.211 107.636L189.144 56.5034L164.058 44.8606Z" fill="#7D97F4"></path><path opacity="0.5" d="M167.949 50.1538L182.209 56.7719C181.652 57.8699 182.276 59.3058 183.547 59.8956C183.588 59.9143 183.564 59.9076 183.728 59.9817L162.797 101.254C162.634 101.176 162.657 101.185 162.617 101.166C161.346 100.576 159.835 100.968 159.269 102.085C159.26 102.101 159.222 102.102 159.222 102.102L145.283 95.6329C146.238 93.7506 144.981 92.9568 143.71 92.3671C143.67 92.3484 143.614 92.3492 143.613 92.3511L164.545 51.0784C164.544 51.0803 164.59 51.0974 164.631 51.1161C165.902 51.7064 167.392 51.2517 167.949 50.1538Z" fill="white"></path><path d="M167.368 68.6958C171.698 70.7055 173.506 75.6925 171.405 79.8351C169.304 83.9774 164.091 85.7064 159.76 83.6967C155.43 81.687 153.623 76.6998 155.724 72.5575C157.824 68.4151 163.038 66.6863 167.368 68.6958Z" fill="#7D97F4"></path><path d="M168.466 79.4089L167.637 79.0242C167.183 79.835 166.564 80.558 166.004 81.0155C165.804 81.1788 165.507 81.1715 165.309 81.0061L164.639 80.4463C164.393 80.2409 164.396 79.8781 164.641 79.6717C165.185 79.2127 165.746 78.594 166.135 77.8268C166.539 77.0305 166.558 76.3057 165.979 76.0372C165.457 75.795 164.914 76.1098 164.042 77.0724C162.79 78.4421 161.495 79.2418 160.042 78.5675C158.73 77.9585 158.194 76.5757 158.733 74.8587L157.904 74.4738C157.637 74.3499 157.526 74.0427 157.656 73.7874L157.892 73.3215C158.021 73.0662 158.342 72.9598 158.609 73.0835L159.354 73.429C159.774 72.6788 160.193 72.1855 160.579 71.8187C160.777 71.6308 161.095 71.6254 161.305 71.8006L161.926 72.3173C162.165 72.5166 162.173 72.8682 161.942 73.0767C161.575 73.409 161.116 73.9065 160.737 74.6542C160.258 75.5989 160.53 76.0587 160.897 76.2291C161.348 76.4387 161.946 76.0159 162.964 74.9709C164.404 73.4717 165.536 73.0965 166.904 73.7316C168.16 74.3143 168.837 75.7289 168.243 77.5875L169.171 78.0181C169.437 78.142 169.549 78.4492 169.419 78.7045L169.183 79.1706C169.054 79.4263 168.732 79.5328 168.466 79.4089Z" fill="white"></path><path d="M145.195 97.7555C145.175 97.7555 145.155 97.7513 145.136 97.7425L140.299 95.4977C140.232 95.4664 140.204 95.3891 140.236 95.3249L146.64 82.6984C146.672 82.634 146.753 82.6075 146.82 82.6384C146.888 82.6696 146.916 82.747 146.883 82.8112L140.539 95.3212L145.254 97.5097C145.321 97.5409 145.349 97.6183 145.317 97.6825C145.294 97.7286 145.245 97.7555 145.195 97.7555Z" fill="#BDD0FB"></path><path d="M180.506 69.8672C180.487 69.8672 180.466 69.863 180.447 69.8542C180.38 69.8229 180.352 69.7456 180.385 69.6814L186.649 57.3281L181.934 55.1399C181.867 55.1086 181.839 55.0313 181.871 54.967C181.904 54.9024 181.985 54.876 182.052 54.907L186.889 57.1517C186.921 57.1667 186.946 57.1932 186.958 57.2258C186.97 57.2582 186.967 57.2938 186.952 57.3247L180.628 69.7944C180.605 69.8405 180.557 69.8672 180.506 69.8672Z" fill="#BDD0FB"></path><path d="M157.597 89.728C158.824 90.2972 159.336 91.7099 158.741 92.8833C158.146 94.0567 156.669 94.5464 155.442 93.9771C154.216 93.4079 153.704 91.9952 154.299 90.8218C154.894 89.6486 156.371 89.1589 157.597 89.728Z" fill="#7D97F4"></path><path d="M173.808 57.7628C175.035 58.332 175.547 59.7447 174.952 60.9181C174.357 62.0915 172.88 62.5812 171.653 62.012C170.427 61.4428 169.915 60.0301 170.51 58.8567C171.105 57.6833 172.582 57.1934 173.808 57.7628Z" fill="#7D97F4"></path><path d="M167.727 104.276C171.828 104.276 175.153 101.096 175.153 97.1724C175.153 93.2489 171.828 90.0684 167.727 90.0684C163.626 90.0684 160.301 93.2489 160.301 97.1724C160.301 101.096 163.626 104.276 167.727 104.276Z" fill="url(#paint22_linear_2332_676)"></path><path d="M167.726 104.041C171.691 104.041 174.906 100.966 174.906 97.1726C174.906 93.3796 171.691 90.3047 167.726 90.3047C163.761 90.3047 160.547 93.3796 160.547 97.1726C160.547 100.966 163.761 104.041 167.726 104.041Z" fill="url(#paint23_linear_2332_676)"></path><path opacity="0.68" d="M161.213 97.509C161.181 97.5254 161.144 97.5349 161.106 97.5357C160.973 97.5382 160.863 97.4376 160.861 97.3108C160.808 94.8148 162.206 92.5382 164.51 91.369C164.877 91.1824 165.263 91.0273 165.656 90.9079C165.782 90.8694 165.917 90.9362 165.957 91.057C165.998 91.178 165.929 91.3076 165.801 91.3455C165.436 91.4568 165.077 91.6013 164.735 91.7748C162.592 92.8621 161.291 94.9799 161.341 97.3013C161.342 97.3909 161.29 97.4696 161.213 97.509Z" fill="white"></path><path opacity="0.68" d="M170.147 102.646C173.275 101.482 174.824 98.1133 173.607 95.1212C172.391 92.1292 168.869 90.6471 165.741 91.8108C162.614 92.9746 161.064 96.3435 162.281 99.3356C163.497 102.328 167.019 103.81 170.147 102.646Z" fill="white"></path><path d="M169.531 101.319L169.221 100.761C168.6 101.046 167.921 101.214 167.394 101.252C167.206 101.266 167.037 101.141 166.996 100.965L166.856 100.37C166.804 100.151 166.966 99.9422 167.2 99.922C167.718 99.8769 168.317 99.7456 168.882 99.459C169.468 99.1614 169.8 98.7494 169.584 98.3595C169.388 98.0078 168.935 97.97 168.004 98.1745C166.672 98.4603 165.568 98.3992 165.025 97.4199C164.535 96.5356 164.836 95.5177 165.909 94.742L165.599 94.1833C165.5 94.0036 165.571 93.7805 165.759 93.685L166.102 93.5108C166.29 93.4154 166.523 93.484 166.623 93.6637L166.901 94.1654C167.476 93.9011 167.938 93.785 168.324 93.7294C168.522 93.7008 168.708 93.8264 168.752 94.0131L168.883 94.5636C168.933 94.7759 168.782 94.9828 168.556 95.0103C168.197 95.0539 167.711 95.156 167.16 95.4356C166.464 95.7887 166.418 96.1652 166.555 96.4125C166.724 96.7168 167.258 96.7141 168.31 96.5213C169.807 96.2364 170.629 96.4775 171.14 97.3997C171.609 98.246 171.375 99.3395 170.209 100.175L170.555 100.8C170.655 100.98 170.583 101.203 170.396 101.299L170.052 101.473C169.864 101.567 169.631 101.499 169.531 101.319Z" fill="url(#paint24_linear_2332_676)"></path><path d="M182.275 92.6201C189.415 92.6201 195.203 87.0833 195.203 80.2532C195.203 73.4231 189.415 67.8862 182.275 67.8862C175.136 67.8862 169.348 73.4231 169.348 80.2532C169.348 87.0833 175.136 92.6201 182.275 92.6201Z" fill="url(#paint25_linear_2332_676)"></path><path d="M182.275 92.2089C189.178 92.2089 194.773 86.8561 194.773 80.2531C194.773 73.6501 189.178 68.2974 182.275 68.2974C175.373 68.2974 169.777 73.6501 169.777 80.2531C169.777 86.8561 175.373 92.2089 182.275 92.2089Z" fill="url(#paint26_linear_2332_676)"></path><path opacity="0.68" d="M170.851 80.6893C170.819 80.7055 170.782 80.7152 170.743 80.716C170.611 80.7186 170.501 80.6178 170.499 80.4911C170.408 76.2104 172.806 72.3059 176.756 70.301C177.387 69.981 178.048 69.7148 178.723 69.5104C178.849 69.4719 178.984 69.5388 179.024 69.6598C179.064 69.7806 178.995 69.9109 178.868 69.9481C178.221 70.1445 177.586 70.3999 176.981 70.7068C173.192 72.63 170.892 76.3756 170.978 80.4818C170.98 80.5711 170.928 80.6498 170.851 80.6893Z" fill="white"></path><path opacity="0.68" d="M188.834 88.5694C193.571 85.2984 194.639 78.9734 191.219 74.4422C187.8 69.9109 181.188 68.8893 176.452 72.1603C171.715 75.4313 170.647 81.7563 174.066 86.2875C177.486 90.8188 184.097 91.8404 188.834 88.5694Z" fill="white"></path><path d="M185.413 87.4722L184.874 86.4997C183.791 86.9968 182.611 87.2897 181.693 87.3556C181.365 87.3792 181.072 87.1626 180.999 86.856L180.755 85.819C180.666 85.4387 180.948 85.0749 181.354 85.0397C182.257 84.961 183.299 84.7325 184.282 84.2337C185.303 83.7156 185.881 82.9982 185.505 82.3196C185.165 81.7072 184.375 81.6417 182.754 81.9976C180.436 82.4951 178.515 82.3886 177.569 80.684C176.716 79.1447 177.241 77.3724 179.108 76.022L178.569 75.0494C178.395 74.7366 178.52 74.3482 178.847 74.1823L179.444 73.8791C179.771 73.7131 180.177 73.8322 180.351 74.1451L180.835 75.0184C181.836 74.5582 182.639 74.3564 183.311 74.2594C183.656 74.2097 183.98 74.4283 184.057 74.7531L184.284 75.7114C184.372 76.0809 184.109 76.441 183.716 76.4888C183.09 76.5649 182.243 76.7427 181.285 77.2291C180.074 77.8436 179.994 78.4993 180.232 78.9296C180.526 79.4591 181.455 79.4545 183.286 79.119C185.893 78.623 187.323 79.0426 188.214 80.6481C189.03 82.1213 188.623 84.0246 186.592 85.4797L187.195 86.5681C187.369 86.8812 187.244 87.2693 186.917 87.4355L186.32 87.7386C185.992 87.9042 185.586 87.7851 185.413 87.4722Z" fill="url(#paint27_linear_2332_676)"></path><path d="M203.685 113.383C211.032 113.383 216.988 107.686 216.988 100.658C216.988 93.6296 211.032 87.9321 203.685 87.9321C196.339 87.9321 190.383 93.6296 190.383 100.658C190.383 107.686 196.339 113.383 203.685 113.383Z" fill="url(#paint28_linear_2332_676)"></path><path d="M203.688 112.96C210.791 112.96 216.549 107.452 216.549 100.658C216.549 93.8634 210.791 88.3555 203.688 88.3555C196.586 88.3555 190.828 93.8634 190.828 100.658C190.828 107.452 196.586 112.96 203.688 112.96Z" fill="url(#paint29_linear_2332_676)"></path><path opacity="0.68" d="M191.929 101.1C191.897 101.116 191.86 101.126 191.822 101.127C191.689 101.129 191.579 101.029 191.577 100.902C191.483 96.4999 193.949 92.4845 198.012 90.4226C198.661 90.0935 199.341 89.8199 200.034 89.6095C200.161 89.571 200.296 89.6379 200.336 89.7589C200.376 89.8797 200.307 90.0091 200.18 90.0472C199.514 90.2496 198.86 90.5125 198.237 90.8286C194.335 92.8088 191.967 96.6651 192.057 100.893C192.059 100.982 192.007 101.061 191.929 101.1Z" fill="white"></path><path opacity="0.68" d="M206.912 110.814C212.713 109.305 216.136 103.583 214.558 98.0341C212.98 92.4853 206.998 89.2108 201.198 90.7203C195.398 92.2299 191.975 97.9518 193.553 103.501C195.131 109.049 201.112 112.324 206.912 110.814Z" fill="white"></path><path d="M206.91 108.086L206.355 107.085C205.241 107.597 204.026 107.898 203.082 107.966C202.745 107.99 202.443 107.767 202.368 107.452L202.117 106.385C202.025 105.993 202.316 105.619 202.733 105.583C203.663 105.502 204.735 105.267 205.746 104.753C206.797 104.22 207.391 103.482 207.004 102.784C206.655 102.154 205.841 102.086 204.174 102.452C201.789 102.964 199.812 102.855 198.839 101.101C197.96 99.5166 198.501 97.6933 200.422 96.3036L199.867 95.3029C199.688 94.9808 199.817 94.5813 200.153 94.4105L200.768 94.0986C201.105 93.9277 201.522 94.0504 201.701 94.3724L202.199 95.271C203.23 94.7975 204.056 94.5898 204.747 94.49C205.102 94.4387 205.436 94.6638 205.515 94.9982L205.748 95.9843C205.838 96.3646 205.568 96.735 205.164 96.7842C204.519 96.8623 203.649 97.0452 202.662 97.5458C201.416 98.1782 201.334 98.8528 201.579 99.2956C201.882 99.8406 202.837 99.8358 204.722 99.4906C207.404 98.9803 208.876 99.412 209.792 101.064C210.632 102.58 210.213 104.539 208.123 106.036L208.744 107.156C208.923 107.478 208.795 107.877 208.458 108.048L207.843 108.36C207.506 108.531 207.089 108.408 206.91 108.086Z" fill="url(#paint30_linear_2332_676)"></path><path d="M210.266 87.0179C215.649 87.0179 220.013 82.8435 220.013 77.694C220.013 72.5446 215.649 68.3701 210.266 68.3701C204.883 68.3701 200.52 72.5446 200.52 77.694C200.52 82.8435 204.883 87.0179 210.266 87.0179Z" fill="url(#paint31_linear_2332_676)"></path><path d="M210.266 86.7079C215.47 86.7079 219.689 82.6723 219.689 77.6941C219.689 72.7158 215.47 68.6802 210.266 68.6802C205.062 68.6802 200.844 72.7158 200.844 77.6941C200.844 82.6723 205.062 86.7079 210.266 86.7079Z" fill="url(#paint32_linear_2332_676)"></path><path opacity="0.68" d="M201.682 78.0726C201.65 78.0888 201.614 78.0986 201.575 78.0993C201.442 78.1018 201.333 78.0012 201.33 77.8745C201.261 74.6258 203.081 71.6624 206.079 70.1409C206.557 69.8983 207.059 69.6963 207.572 69.5407C207.698 69.5022 207.833 69.5691 207.873 69.6899C207.913 69.8107 207.845 69.941 207.717 69.9784C207.232 70.1258 206.757 70.317 206.304 70.5468C203.467 71.9865 201.745 74.791 201.81 77.8651C201.812 77.9545 201.76 78.0332 201.682 78.0726Z" fill="white"></path><path opacity="0.68" d="M218.516 77.8878C218.583 73.6747 215.068 70.2071 210.664 70.1426C206.26 70.0782 202.635 73.4413 202.567 77.6543C202.5 81.8674 206.016 85.335 210.42 85.3994C214.824 85.4639 218.449 82.1008 218.516 77.8878Z" fill="white"></path><path d="M212.631 83.1365L212.225 82.4033C211.409 82.7781 210.518 82.9989 209.827 83.0487C209.58 83.0664 209.358 82.9031 209.304 82.6719L209.12 81.8901C209.052 81.6033 209.265 81.3291 209.571 81.3025C210.252 81.2432 211.037 81.071 211.779 80.6948C212.548 80.3042 212.984 79.7634 212.7 79.2518C212.444 78.7901 211.848 78.7407 210.627 79.009C208.879 79.3842 207.43 79.3038 206.718 78.0186C206.074 76.8579 206.47 75.522 207.878 74.5039L207.471 73.7705C207.34 73.5346 207.434 73.2417 207.68 73.1165L208.131 72.8881C208.377 72.7629 208.683 72.8526 208.814 73.0887L209.179 73.747C209.935 73.4002 210.54 73.248 211.046 73.1748C211.306 73.1373 211.551 73.3021 211.609 73.5472L211.78 74.2697C211.846 74.5483 211.648 74.8198 211.352 74.8558C210.88 74.9132 210.241 75.0472 209.519 75.414C208.606 75.8774 208.545 76.3715 208.725 76.696C208.947 77.0954 209.647 77.0917 211.028 76.8389C212.993 76.465 214.071 76.7813 214.742 77.9917C215.358 79.1022 215.051 80.5374 213.52 81.6344L213.975 82.4549C214.106 82.6908 214.012 82.9837 213.765 83.1087L213.315 83.3371C213.068 83.4623 212.762 83.3724 212.631 83.1365Z" fill="url(#paint33_linear_2332_676)"></path><path d="M438.205 174.036C436.866 171.367 435.907 168.572 435.684 165.529C435.121 157.862 439.78 150.801 443.203 144.2C446.348 138.133 448.686 129.093 438.072 129.897C429.615 130.538 419.673 138.6 418.539 147.007C417.197 156.957 422.26 169.504 416.257 178.542C407.859 191.185 401.801 188.288 401.801 209.624C401.801 218.741 407.08 223.77 413.126 226.54C422.669 230.912 434.049 229.145 441.653 222.106C448.37 215.887 452.365 206.946 451.014 197.971C449.649 188.906 442.217 182.031 438.205 174.036Z" fill="#BDD0FB"></path><path d="M431.111 242.819C430.892 242.819 430.693 242.678 430.637 242.465C425.373 222.364 422.507 204.141 422.12 188.301C421.81 175.61 423.081 164.409 425.898 155.007C430.719 138.918 438.305 133.734 438.626 133.521C438.848 133.374 439.152 133.427 439.306 133.639C439.459 133.851 439.405 134.141 439.183 134.289C439.164 134.302 437.252 135.597 434.782 138.83C432.5 141.817 429.263 147.115 426.8 155.389C424.028 164.701 422.783 175.805 423.099 188.39C423.496 204.134 426.351 222.251 431.585 242.238C431.65 242.489 431.491 242.743 431.23 242.805C431.19 242.815 431.15 242.819 431.111 242.819Z" fill="#7D97F4"></path><path d="M446.633 151.543C446.224 151.437 445.775 151.404 445.296 151.457C442.651 151.748 441.565 154.417 440.787 156.503C440.122 158.29 439.337 160.459 439.73 162.395C440.156 164.488 442.479 166.195 444.165 164.07C446.081 161.655 448.957 157.946 448.974 154.745C448.983 153.154 448.049 151.911 446.633 151.543Z" fill="#BDD0FB"></path><path d="M472.754 200.721C473.836 193.902 471.246 186.073 469.952 178.862C469.269 175.049 468.953 171.265 469.593 167.424C470.229 163.605 472.105 159.474 470.375 155.669C466.89 148.003 458.605 151.492 453.859 157.263C448.352 163.96 446.847 174.903 444.755 183.329C443.494 188.409 441.594 193.62 440.929 198.796C439.827 207.372 441.854 213.325 446.142 217.346C450.255 221.202 456.519 222.002 461.551 219.322C466.096 216.9 471.009 211.722 472.754 200.721Z" fill="#91B3FA"></path><path d="M453.801 232.566C453.567 232.566 453.36 232.405 453.32 232.177C453.301 232.073 451.497 221.658 451.45 207.291C451.407 194.023 452.894 174.567 460.228 157.219C460.329 156.98 460.614 156.864 460.864 156.961C461.114 157.058 461.235 157.33 461.134 157.57C453.862 174.771 452.385 194.091 452.427 207.269C452.473 221.565 454.265 231.919 454.283 232.021C454.328 232.276 454.149 232.517 453.883 232.56C453.855 232.564 453.828 232.566 453.801 232.566Z" fill="#7D97F4"></path><path d="M147.098 267.189V222.609C147.098 216.752 152.018 211.986 158.141 211.922C176.516 211.731 214.413 211.721 245.421 214.221C249.653 214.562 252.944 217.88 253.097 221.939L255.996 265.039C256.211 270.74 251.499 275.503 245.537 275.611L157.771 277.207C151.909 277.313 147.098 272.797 147.098 267.189Z" fill="url(#paint34_linear_2332_676)"></path><path d="M157.74 227.432C157.662 231.226 157.78 237.244 157.876 241.133C157.927 243.156 159.783 244.698 161.884 244.462L177.006 242.767C179.021 242.541 180.44 240.765 180.139 238.846L178.283 227C178.019 225.319 176.509 224.075 174.732 224.075H161.33C159.378 224.075 157.779 225.565 157.74 227.432Z" fill="white"></path><path opacity="0.37" d="M197.262 249.881L209.876 251.183C211.641 251.365 213.147 249.973 213.017 248.279L210.259 212.383C204.972 212.222 199.756 212.105 194.723 212.023V247.176C194.723 248.566 195.817 249.732 197.262 249.881Z" fill="white"></path><path d="M202.43 243.659C202.469 244.305 203.028 244.803 203.695 244.803C203.72 244.803 203.745 244.802 203.77 244.8C204.47 244.762 205.004 244.188 204.963 243.519L203.06 212.19C202.208 212.17 201.362 212.151 200.516 212.133L202.43 243.659Z" fill="white"></path><path d="M164.729 238.74C164.508 238.74 164.321 238.576 164.307 238.361L163.653 228.493C163.638 228.27 163.815 228.078 164.049 228.064C164.294 228.046 164.483 228.219 164.498 228.442L165.152 238.31C165.167 238.533 164.99 238.725 164.756 238.739C164.747 238.74 164.738 238.74 164.729 238.74Z" fill="#91B3FA"></path><path d="M166.079 238.74C165.852 238.74 165.663 238.568 165.656 238.349L165.313 228.293C165.305 228.069 165.489 227.882 165.722 227.875C165.991 227.862 166.151 228.043 166.159 228.266L166.501 238.322C166.509 238.546 166.325 238.733 166.093 238.74C166.093 238.74 166.083 238.74 166.079 238.74Z" fill="#91B3FA"></path><path d="M167.885 238.74C167.66 238.74 167.473 238.572 167.463 238.355C167.38 236.701 166.969 228.446 166.969 228.279C166.969 228.055 167.158 227.875 167.392 227.875C167.624 227.875 167.813 228.054 167.815 228.275C167.82 228.495 168.139 234.939 168.307 238.317C168.319 238.54 168.139 238.729 167.905 238.74C167.898 238.74 167.891 238.74 167.885 238.74Z" fill="#91B3FA"></path><path d="M170.705 239.145C170.251 239.145 169.876 238.801 169.86 238.364C169.502 228.62 169.565 228.401 169.607 228.255C169.729 227.823 170.198 227.569 170.645 227.687C171.059 227.795 171.317 228.179 171.261 228.575C171.234 229.161 171.423 234.83 171.551 238.307C171.567 238.753 171.202 239.129 170.735 239.144C170.725 239.145 170.714 239.145 170.705 239.145Z" fill="#91B3FA"></path><path d="M172.536 238.74C172.302 238.74 172.113 238.559 172.113 238.335V228.468C172.113 228.244 172.302 228.063 172.536 228.063C172.77 228.063 172.959 228.244 172.959 228.468V238.335C172.959 238.559 172.77 238.74 172.536 238.74Z" fill="#91B3FA"></path><path d="M174.018 238.74C173.788 238.74 173.6 238.565 173.595 238.345C173.514 234.916 173.325 229.316 173.155 228.642C173.081 228.515 173.082 228.354 173.171 228.223C173.299 228.035 173.561 227.984 173.757 228.107C173.987 228.251 174.206 228.388 174.441 238.326C174.446 238.55 174.26 238.735 174.027 238.74H174.018Z" fill="#91B3FA"></path><path d="M162.456 239.639C162.009 239.639 161.636 239.304 161.612 238.871L161.048 228.51C161.024 228.063 161.383 227.683 161.849 227.659C162.292 227.63 162.713 227.98 162.738 228.426L163.302 238.788C163.326 239.234 162.968 239.614 162.501 239.638C162.486 239.639 162.471 239.639 162.456 239.639Z" fill="#91B3FA"></path><path d="M161.828 206.133V174.826C161.828 170.712 165.284 167.365 169.583 167.32C182.488 167.186 209.102 167.179 230.878 168.935C233.85 169.174 236.161 171.504 236.269 174.355L238.304 204.623C238.456 208.627 235.147 211.971 230.96 212.048L169.323 213.168C165.207 213.243 161.828 210.071 161.828 206.133Z" fill="url(#paint35_linear_2332_676)"></path><path d="M169.303 178.213C169.248 180.877 169.331 185.104 169.398 187.835C169.434 189.255 170.738 190.338 172.213 190.173L182.833 188.982C184.247 188.823 185.244 187.576 185.033 186.228L183.73 177.91C183.545 176.729 182.484 175.855 181.236 175.855H171.824C170.453 175.855 169.33 176.901 169.303 178.213Z" fill="white"></path><path opacity="0.37" d="M197.056 193.978L205.915 194.892C207.155 195.02 208.212 194.042 208.121 192.853L206.184 167.644C202.471 167.531 198.808 167.449 195.273 167.391V192.078C195.273 193.054 196.042 193.873 197.056 193.978Z" fill="white"></path><path d="M200.688 189.609C200.715 190.062 201.108 190.412 201.576 190.412C201.594 190.412 201.611 190.411 201.629 190.41C202.12 190.383 202.496 189.98 202.467 189.51L201.131 167.508C200.532 167.494 199.938 167.481 199.344 167.469L200.688 189.609Z" fill="white"></path><path d="M174.214 186.154C174.058 186.154 173.927 186.038 173.917 185.887L173.458 178.958C173.447 178.801 173.571 178.666 173.736 178.656C173.908 178.643 174.04 178.765 174.051 178.922L174.51 185.852C174.521 186.008 174.396 186.143 174.232 186.153C174.226 186.154 174.219 186.154 174.214 186.154Z" fill="#91B3FA"></path><path d="M175.159 186.154C174.999 186.154 174.867 186.033 174.862 185.879L174.621 178.817C174.616 178.66 174.745 178.529 174.908 178.523C175.098 178.515 175.21 178.642 175.215 178.798L175.456 185.861C175.461 186.018 175.333 186.149 175.169 186.154C175.169 186.154 175.162 186.154 175.159 186.154Z" fill="#91B3FA"></path><path d="M176.425 186.154C176.267 186.154 176.136 186.035 176.128 185.883C176.07 184.722 175.781 178.924 175.781 178.807C175.781 178.65 175.914 178.523 176.078 178.523C176.241 178.523 176.374 178.649 176.375 178.804C176.379 178.959 176.603 183.484 176.721 185.856C176.729 186.013 176.603 186.146 176.438 186.153C176.434 186.154 176.429 186.154 176.425 186.154Z" fill="#91B3FA"></path><path d="M178.407 186.438C178.089 186.438 177.825 186.197 177.814 185.89C177.563 179.047 177.607 178.893 177.636 178.791C177.722 178.487 178.051 178.309 178.365 178.392C178.656 178.468 178.838 178.738 178.798 179.015C178.779 179.427 178.912 183.408 179.001 185.85C179.013 186.163 178.756 186.427 178.428 186.438C178.422 186.438 178.414 186.438 178.407 186.438Z" fill="#91B3FA"></path><path d="M179.695 186.154C179.531 186.154 179.398 186.027 179.398 185.87V178.94C179.398 178.783 179.531 178.656 179.695 178.656C179.86 178.656 179.992 178.783 179.992 178.94V185.87C179.992 186.027 179.86 186.154 179.695 186.154Z" fill="#91B3FA"></path><path d="M180.737 186.154C180.576 186.154 180.443 186.031 180.44 185.876C180.383 183.468 180.25 179.535 180.131 179.062C180.079 178.973 180.08 178.86 180.142 178.768C180.232 178.636 180.416 178.6 180.554 178.686C180.716 178.788 180.869 178.884 181.034 185.863C181.038 186.02 180.908 186.15 180.744 186.154H180.737V186.154Z" fill="#91B3FA"></path><path d="M172.615 186.785C172.301 186.785 172.039 186.549 172.022 186.246L171.626 178.969C171.609 178.655 171.861 178.388 172.189 178.372C172.499 178.351 172.795 178.597 172.813 178.91L173.209 186.187C173.226 186.501 172.974 186.767 172.646 186.784C172.636 186.785 172.625 186.785 172.615 186.785Z" fill="#91B3FA"></path><path d="M185.917 145.862L190.267 148.101C195.484 151.139 200.152 152.745 204.353 153.348C217.47 155.231 226.02 147.313 232.39 142.51C240.801 136.169 247.347 139.254 247.347 139.254L238.377 155.631C224.981 167.713 211.247 165.03 202.589 161.115C197.077 158.622 193.621 155.631 193.621 155.631C183.767 150.01 185.917 145.862 185.917 145.862Z" fill="url(#paint36_linear_2332_676)"></path><path d="M173.101 151.725C173.382 150.832 174.073 150.11 174.977 149.762L183.805 146.366C183.805 146.366 183.938 145.283 181.94 144.547C179.941 143.811 180.409 141.669 180.409 141.669C180.409 141.669 183.139 142.861 187.136 144.751C189.422 145.831 190.705 147.739 191.385 149.176L189.112 152.035C183.671 153.598 178.166 153.897 172.613 153.277L173.101 151.725Z" fill="url(#paint37_linear_2332_676)"></path><path d="M249.27 271.083C249.27 271.083 249.942 274.722 250.272 278.324C250.401 279.732 249.266 280.955 247.79 281.013C242.775 281.213 232.047 281.602 228.198 281.437C227.619 281.413 227.241 280.846 227.455 280.331C227.635 279.9 227.981 279.551 228.422 279.357L246.141 271.566L249.27 271.083Z" fill="url(#paint38_linear_2332_676)"></path><path d="M249.822 268.944L249.282 273.297C249.282 273.297 246.178 274.68 244.059 273.123L245.344 268.272L249.822 268.944Z" fill="url(#paint39_linear_2332_676)"></path><path d="M250.687 184.236C250.92 185.414 250.268 245.972 244.057 271.802C243.955 272.223 243.313 273.051 243.535 273.413C244.074 274.295 248.043 274.047 250.281 274.122C250.974 274.145 251.347 273.367 251.542 272.707C253.318 266.714 261.826 236.689 262.936 208.006C264.176 175.956 262.936 206.915 262.936 206.915L263.488 186.61L250.687 184.236Z" fill="url(#paint40_linear_2332_676)"></path><path d="M269.656 272.981C269.656 272.981 270.725 274.818 271.761 279.7C271.948 280.582 271.304 281.426 270.368 281.514C268.712 281.669 266.163 281.87 264.121 281.856C263.18 281.85 262.445 281.066 262.558 280.172C262.785 278.39 263.489 275.466 265.666 273.188L269.656 272.981Z" fill="url(#paint41_linear_2332_676)"></path><path d="M270.597 267.382L269.336 273.965C269.336 273.965 268.089 274.852 265.621 274.209L266.223 267.126L270.597 267.382Z" fill="url(#paint42_linear_2332_676)"></path><path d="M273.63 186.598C278.711 217.213 272.904 264.614 270.819 273.432C270.691 273.971 270.255 274.385 269.707 274.476C268.776 274.63 267.244 274.755 265.733 274.318C265.213 274.166 264.847 273.698 264.826 273.157C264.546 266.028 265.05 222.263 260.316 204.967C260.076 204.09 259.54 203.326 258.798 202.8L251.008 196.726L250.863 183.63L273.63 186.598Z" fill="url(#paint43_linear_2332_676)"></path><path d="M244.517 137.482C257.906 137.271 272.68 140.845 272.68 140.845C275.97 159.209 274.649 179.561 273.964 186.263C273.824 187.637 274.592 189.092 273.168 189.312C266.162 190.395 255.15 189.293 251.728 188.342C250.477 187.994 250.69 186.721 250.424 185.501C248.127 174.96 241.557 151.712 241.557 151.712C238.373 155.631 233.879 161.114 227.237 162.574C230.622 158.82 224.129 150.948 224.822 148.124C230.827 141.669 240.387 137.548 244.517 137.482Z" fill="url(#paint44_linear_2332_676)"></path><path d="M258.082 127.083L262.342 138.87C262.413 139.065 262.329 139.281 262.14 139.381C260.979 139.995 256.795 141.771 251.752 138.713C251.227 138.394 250.87 137.875 250.79 137.284L249.41 127.083H258.082Z" fill="url(#paint45_linear_2332_676)"></path><path d="M248.812 116.169C248.812 116.169 244.133 124.593 244.733 127.996C245.333 131.399 251.131 131.155 256.194 128.391L259.732 119.295L248.812 116.169Z" fill="url(#paint46_linear_2332_676)"></path><path d="M255.972 123.924C255.766 123.837 255.69 123.596 255.813 123.416C256.188 122.868 256.891 121.75 257.115 120.772C257.115 120.772 257.956 120.257 254.974 119.574C253.351 119.202 250.473 118.895 249.208 117.778C247.792 116.529 250.402 114.168 251.499 113.534C252.947 112.698 254.711 112.203 256.344 112.625C257.132 112.828 257.845 113.231 258.547 113.629C259.743 114.308 260.981 115.024 261.741 116.138C262.233 116.858 262.491 117.699 262.728 118.53C263.067 119.724 263.378 120.947 263.319 122.182C263.162 125.475 259.128 128.424 255.885 128.785C255.619 128.814 255.414 128.563 255.501 128.322L256.826 124.635C256.888 124.464 256.802 124.276 256.629 124.203L255.972 123.924Z" fill="url(#paint47_linear_2332_676)"></path><path d="M255.438 124.447C255.438 124.447 258.769 122.261 259.012 124.102C259.256 125.943 256.013 126.769 254.406 126.083L255.438 124.447Z" fill="url(#paint48_linear_2332_676)"></path><path d="M247.105 114.103C253.94 101.753 271.655 112.972 263.41 123.376C257.281 119.477 250.354 113.681 247.105 114.103Z" fill="url(#paint49_linear_2332_676)"></path><path d="M257.784 119.334L245.511 118.971C245.2 118.962 244.915 118.797 244.764 118.536C243.664 116.637 242.056 115.427 240.044 114.762C239.79 114.678 239.842 114.319 240.111 114.301L247.635 113.812C247.644 113.811 247.652 113.811 247.66 113.812C251.41 114.088 254.73 116.246 257.896 119.073C258.002 119.168 257.929 119.339 257.784 119.334Z" fill="url(#paint50_linear_2332_676)"></path><path d="M271.164 159.54C263.67 151.491 264.43 145.296 272.888 140.835C272.888 140.835 286.908 149.948 289.214 161.503C286.565 161.689 281.744 162.349 277.026 164.628C275.989 159.172 271.164 159.54 271.164 159.54Z" fill="url(#paint51_linear_2332_676)"></path><path d="M254.876 167.822C254.876 167.822 270.618 176.332 275.929 169.065C277.032 167.557 277.295 166.057 277.024 164.627C281.742 162.348 286.563 161.689 289.212 161.502C289.907 164.986 289.539 168.69 287.4 172.435C278.096 188.715 252.793 171.535 252.793 171.535L254.876 167.822Z" fill="url(#paint52_linear_2332_676)"></path><path d="M256.77 178.589L248.179 149.888C248.081 149.562 247.791 149.325 247.439 149.286C245.883 149.112 241.372 148.624 236.165 148.203C229.892 147.695 222.608 147.284 218.255 147.634C217.636 147.683 217.262 148.31 217.537 148.842C220.012 153.633 230.194 173.12 235.293 179.504C235.462 179.715 235.723 179.839 236.002 179.837L255.934 179.659C256.515 179.654 256.93 179.122 256.77 178.589Z" fill="url(#paint53_linear_2332_676)"></path><path d="M235.273 145.715L229.044 144.722C228.713 144.669 228.441 144.972 228.546 145.278L229.163 147.065C229.217 147.221 229.359 147.333 229.528 147.355L235.522 148.121C235.832 148.16 236.088 147.891 236.017 147.599L235.635 146.039C235.594 145.871 235.451 145.743 235.273 145.715Z" fill="url(#paint54_linear_2332_676)"></path><path d="M239.935 150.759L239.422 148.202C239.371 147.946 239.15 147.752 238.878 147.726L226.298 146.505C225.874 146.463 225.535 146.835 225.635 147.231L226.435 150.417C226.499 150.672 226.731 150.856 227.004 150.869L239.298 151.461C239.698 151.48 240.011 151.135 239.935 150.759Z" fill="#BDD0FB"></path><path d="M254.695 171.655C254.695 171.655 255.892 166.947 255.409 165.277C254.926 163.607 253.991 161.459 250.873 161.937C247.756 162.414 244.078 163.67 244.078 163.67C244.078 163.67 244.264 165.846 246.633 165.144L245.164 166.231C245.164 166.231 245.374 167.973 247.375 167.043L246.009 168.485C246.009 168.485 246.868 169.916 248.341 168.998C249.813 168.08 250.519 172.221 254.695 171.655Z" fill="url(#paint55_linear_2332_676)"></path><path d="M259.688 153.734C260.67 153.81 268.981 154.065 268.981 154.065L268.646 162.069L264.34 164.392L259.688 162.069L259.688 153.734Z" fill="url(#paint56_linear_2332_676)"></path><path d="M259.025 153.734L268.96 154.065L269.366 157.135L264.195 158.421L258.699 156.077L259.025 153.734Z" fill="url(#paint57_linear_2332_676)"></path><path d="M453.739 255.216H319.629V263H453.739V255.216Z" fill="url(#paint58_linear_2332_676)"></path><path d="M453.742 264.153H455.129C455.861 264.153 456.455 263.585 456.455 262.884V253.486H453.742V264.153Z" fill="url(#paint59_linear_2332_676)"></path><path d="M321.891 208.153C321.891 206.21 323.914 204.619 327.187 204.619H450.475C453.748 204.619 456.453 206.209 456.453 208.153V252.37C456.453 254.314 453.748 255.936 450.475 255.936H327.187C323.914 255.936 321.891 254.314 321.891 252.37V208.153Z" fill="url(#paint60_linear_2332_676)"></path><path opacity="0.11" d="M324.906 209.935C324.906 208.157 327.466 206.926 330.552 206.926H446.858C449.945 206.926 452.537 208.157 452.537 209.935V250.353C452.537 252.132 449.945 253.486 446.858 253.486H330.552C327.466 253.486 324.906 252.132 324.906 250.353V209.935Z" fill="url(#paint61_linear_2332_676)"></path><path d="M288.9 239.325L294.979 221.58C295.132 221.129 295.571 221.052 296.066 221.052C300.309 221.052 319.481 221.052 320.687 221.052V263H287.461L288.9 239.325Z" fill="url(#paint62_linear_2332_676)"></path><path d="M287.014 256.86C287.341 256.654 287.87 256.543 288.326 256.551L313.857 257.021L314.002 263.942L288.314 264.54C287.381 264.54 286.328 264.11 286.328 263.507V257.643C286.328 257.348 286.687 257.065 287.014 256.86Z" fill="#91B3FA"></path><path d="M293.644 238.267L297.319 224.355C297.447 223.87 297.903 223.503 298.425 223.503H312.796C313.105 223.503 313.4 223.65 313.615 223.862C313.83 224.074 313.947 224.374 313.937 224.669L313.593 235.825C313.577 236.348 313.174 236.79 312.634 236.874L294.933 239.611C294.554 239.67 294.169 239.543 293.909 239.272C293.65 239 293.55 238.623 293.644 238.267Z" fill="#91B3FA"></path><path d="M294.378 223.332L294.565 223.361C294.883 223.412 295.164 223.588 295.339 223.848C295.513 224.107 295.565 224.425 295.481 224.722L291.476 238.971C291.321 239.521 290.75 239.866 290.163 239.761L288.898 239.534L294.378 223.332Z" fill="#91B3FA"></path><path d="M313.751 241.648C313.751 241.101 313.287 240.657 312.715 240.657H308.157C307.585 240.657 307.121 241.101 307.121 241.648V241.827C307.121 242.375 307.585 242.819 308.157 242.819H312.715C313.287 242.819 313.751 242.375 313.751 241.827V241.648Z" fill="#91B3FA"></path><path d="M318.797 208.401C319.18 208.374 319.759 208.439 320.04 208.689C320.322 208.939 320.684 209.229 320.684 209.596V221.052H305.598C305.598 221.052 306.399 209.266 318.797 208.401Z" fill="url(#paint63_linear_2332_676)"></path><path d="M305.224 275.215C311.619 275.215 316.804 270.256 316.804 264.138C316.804 258.02 311.619 253.061 305.224 253.061C298.829 253.061 293.645 258.02 293.645 264.138C293.645 270.256 298.829 275.215 305.224 275.215Z" fill="url(#paint64_linear_2332_676)"></path><path d="M314.375 266.232C315.568 261.397 312.439 256.552 307.384 255.41C302.33 254.268 297.265 257.262 296.071 262.098C294.878 266.933 298.008 271.778 303.062 272.92C308.117 274.062 313.181 271.067 314.375 266.232Z" fill="#7D97F4"></path><path d="M297.323 267.426C297.247 267.426 297.174 267.383 297.143 267.312C296.698 266.306 296.473 265.239 296.473 264.138C296.473 259.643 300.296 255.985 304.995 255.985C306.453 255.985 307.891 256.344 309.155 257.021C309.25 257.072 309.284 257.186 309.231 257.277C309.178 257.367 309.058 257.4 308.964 257.349C307.758 256.702 306.386 256.361 304.995 256.361C300.512 256.361 296.865 259.849 296.865 264.138C296.865 265.188 297.08 266.206 297.504 267.165C297.546 267.26 297.5 267.371 297.4 267.411C297.375 267.421 297.349 267.426 297.323 267.426Z" fill="#BDD0FB"></path><path d="M300.91 264.138C300.91 266.416 302.841 268.263 305.223 268.263C307.605 268.263 309.535 266.416 309.535 264.138C309.535 261.859 307.605 260.012 305.223 260.012C302.841 260.012 300.91 261.859 300.91 264.138Z" fill="url(#paint65_linear_2332_676)"></path><path d="M415.38 275.524C421.776 275.524 426.96 270.565 426.96 264.447C426.96 258.329 421.776 253.37 415.38 253.37C408.985 253.37 403.801 258.329 403.801 264.447C403.801 270.565 408.985 275.524 415.38 275.524Z" fill="url(#paint66_linear_2332_676)"></path><path d="M424.749 265.025C425.073 260.067 421.134 255.795 415.951 255.485C410.768 255.174 406.303 258.942 405.978 263.9C405.654 268.859 409.592 273.13 414.776 273.441C419.959 273.751 424.424 269.983 424.749 265.025Z" fill="#7D97F4"></path><path d="M407.48 267.735C407.403 267.735 407.33 267.692 407.299 267.621C406.854 266.615 406.629 265.547 406.629 264.447C406.629 259.952 410.452 256.294 415.151 256.294C416.609 256.294 418.048 256.653 419.312 257.33C419.406 257.381 419.44 257.495 419.387 257.586C419.334 257.676 419.214 257.709 419.12 257.658C417.914 257.011 416.542 256.67 415.151 256.67C410.668 256.67 407.022 260.159 407.022 264.447C407.022 265.497 407.236 266.515 407.66 267.474C407.703 267.57 407.656 267.68 407.556 267.72C407.531 267.73 407.505 267.735 407.48 267.735Z" fill="#BDD0FB"></path><path d="M415.379 268.572C417.761 268.572 419.692 266.725 419.692 264.447C419.692 262.168 417.761 260.321 415.379 260.321C412.997 260.321 411.066 262.168 411.066 264.447C411.066 266.725 412.997 268.572 415.379 268.572Z" fill="url(#paint67_linear_2332_676)"></path><path d="M350.123 275.524C356.518 275.524 361.702 270.565 361.702 264.447C361.702 258.329 356.518 253.37 350.123 253.37C343.727 253.37 338.543 258.329 338.543 264.447C338.543 270.565 343.727 275.524 350.123 275.524Z" fill="url(#paint68_linear_2332_676)"></path><path d="M359.458 265.334C359.97 260.39 356.195 255.985 351.027 255.496C345.859 255.007 341.254 258.618 340.743 263.562C340.231 268.506 344.006 272.91 349.174 273.4C354.342 273.889 358.947 270.278 359.458 265.334Z" fill="#7D97F4"></path><path d="M342.222 267.735C342.145 267.735 342.073 267.692 342.041 267.621C341.597 266.615 341.371 265.547 341.371 264.447C341.371 259.952 345.194 256.294 349.893 256.294C351.351 256.294 352.79 256.653 354.054 257.33C354.148 257.381 354.182 257.495 354.129 257.586C354.076 257.676 353.956 257.709 353.862 257.658C352.656 257.011 351.284 256.67 349.893 256.67C345.411 256.67 341.764 260.159 341.764 264.447C341.764 265.497 341.979 266.516 342.402 267.474C342.445 267.57 342.398 267.68 342.298 267.72C342.273 267.73 342.247 267.735 342.222 267.735Z" fill="#BDD0FB"></path><path d="M350.121 268.572C352.503 268.572 354.434 266.725 354.434 264.447C354.434 262.168 352.503 260.321 350.121 260.321C347.739 260.321 345.809 262.168 345.809 264.447C345.809 266.725 347.739 268.572 350.121 268.572Z" fill="url(#paint69_linear_2332_676)"></path><path d="M441.865 275.524C448.26 275.524 453.445 270.565 453.445 264.447C453.445 258.329 448.26 253.37 441.865 253.37C435.47 253.37 430.285 258.329 430.285 264.447C430.285 270.565 435.47 275.524 441.865 275.524Z" fill="url(#paint70_linear_2332_676)"></path><path d="M451.233 265.026C451.558 260.068 447.619 255.796 442.436 255.486C437.252 255.175 432.787 258.943 432.463 263.901C432.138 268.86 436.077 273.131 441.26 273.442C446.443 273.752 450.908 269.984 451.233 265.026Z" fill="#7D97F4"></path><path d="M433.964 267.735C433.888 267.735 433.815 267.692 433.783 267.621C433.339 266.615 433.113 265.547 433.113 264.447C433.113 259.952 436.936 256.294 441.636 256.294C443.093 256.294 444.532 256.653 445.796 257.33C445.89 257.381 445.924 257.495 445.871 257.586C445.818 257.676 445.698 257.709 445.604 257.658C444.399 257.011 443.026 256.67 441.636 256.67C437.153 256.67 433.506 260.159 433.506 264.447C433.506 265.497 433.721 266.515 434.144 267.474C434.187 267.57 434.14 267.68 434.04 267.72C434.015 267.73 433.99 267.735 433.964 267.735Z" fill="#BDD0FB"></path><path d="M441.867 268.572C444.249 268.572 446.18 266.725 446.18 264.447C446.18 262.168 444.249 260.321 441.867 260.321C439.486 260.321 437.555 262.168 437.555 264.447C437.555 266.725 439.486 268.572 441.867 268.572Z" fill="url(#paint71_linear_2332_676)"></path><path d="M292.507 250.687C292.507 250.083 291.995 249.594 291.364 249.594H288.225C287.594 249.594 287.082 250.083 287.082 250.687V253.978C287.082 254.582 287.594 255.072 288.225 255.072H291.364C291.995 255.072 292.507 254.582 292.507 253.978V250.687Z" fill="#91B3FA"></path><path opacity="0.8" d="M290.398 249.594V255.936H291.212C291.843 255.936 292.96 255.294 292.96 254.691V251.094C292.96 250.491 291.843 249.594 291.212 249.594L290.398 249.594Z" fill="white"></path><path d="M318.876 249.205C318.768 249.205 318.68 249.121 318.68 249.017V223.503C318.68 223.399 318.768 223.315 318.876 223.315C318.984 223.315 319.072 223.399 319.072 223.503V249.017C319.072 249.121 318.984 249.205 318.876 249.205Z" fill="#91B3FA"></path><path d="M308.333 219.683C308.312 219.683 308.29 219.68 308.269 219.673C308.167 219.639 308.112 219.533 308.148 219.434C309.166 216.612 311.176 212.89 314.971 211.183C317.254 210.156 319.077 210.349 319.154 210.357C319.261 210.37 319.338 210.463 319.325 210.566C319.313 210.669 319.216 210.745 319.108 210.73C319.09 210.729 317.302 210.544 315.117 211.533C311.458 213.189 309.51 216.81 308.519 219.557C308.49 219.635 308.414 219.683 308.333 219.683Z" fill="#91B3FA"></path><defs><linearGradient id="paint0_linear_2332_676" x1="36" y1="140.408" x2="475.836" y2="140.408" gradientUnits="userSpaceOnUse"><stop stop-color="#DAE3FE"></stop><stop offset="1" stop-color="#E9EFFD"></stop></linearGradient><linearGradient id="paint1_linear_2332_676" x1="143.812" y1="115.474" x2="114.996" y2="163.75" gradientUnits="userSpaceOnUse"><stop stop-color="#FF928E"></stop><stop offset="1" stop-color="#FEB3B1"></stop></linearGradient><linearGradient id="paint2_linear_2332_676" x1="58.481" y1="111.137" x2="88.6682" y2="132.176" gradientUnits="userSpaceOnUse"><stop stop-color="#09005D"></stop><stop offset="1" stop-color="#1A0F91"></stop></linearGradient><linearGradient id="paint3_linear_2332_676" x1="115.185" y1="261.637" x2="127.086" y2="367.578" gradientUnits="userSpaceOnUse"><stop stop-color="#FE7062"></stop><stop offset="1" stop-color="#FF928E"></stop></linearGradient><linearGradient id="paint4_linear_2332_676" x1="106.796" y1="124.613" x2="89.0831" y2="170.131" gradientUnits="userSpaceOnUse"><stop stop-color="#FF928E"></stop><stop offset="1" stop-color="#FEB3B1"></stop></linearGradient><linearGradient id="paint5_linear_2332_676" x1="96.8517" y1="141.676" x2="105.732" y2="115.73" gradientUnits="userSpaceOnUse"><stop stop-color="#FF928E"></stop><stop offset="1" stop-color="#FEB3B1"></stop></linearGradient><linearGradient id="paint6_linear_2332_676" x1="66.826" y1="99.1646" x2="97.0139" y2="120.205" gradientUnits="userSpaceOnUse"><stop stop-color="#09005D"></stop><stop offset="1" stop-color="#1A0F91"></stop></linearGradient><linearGradient id="paint7_linear_2332_676" x1="90.7572" y1="139.591" x2="99.6372" y2="113.646" gradientUnits="userSpaceOnUse"><stop stop-color="#FF928E"></stop><stop offset="1" stop-color="#FEB3B1"></stop></linearGradient><linearGradient id="paint8_linear_2332_676" x1="103.676" y1="249.375" x2="42.4716" y2="259.762" gradientUnits="userSpaceOnUse"><stop stop-color="#FF928E"></stop><stop offset="1" stop-color="#FEB3B1"></stop></linearGradient><linearGradient id="paint9_linear_2332_676" x1="82.8738" y1="274.389" x2="95.6385" y2="274.262" gradientUnits="userSpaceOnUse"><stop stop-color="#09005D"></stop><stop offset="1" stop-color="#1A0F91"></stop></linearGradient><linearGradient id="paint10_linear_2332_676" x1="149.588" y1="213.804" x2="115.428" y2="243.495" gradientUnits="userSpaceOnUse"><stop stop-color="#FF928E"></stop><stop offset="1" stop-color="#FEB3B1"></stop></linearGradient><linearGradient id="paint11_linear_2332_676" x1="94.7344" y1="276.487" x2="109.951" y2="276.336" gradientUnits="userSpaceOnUse"><stop stop-color="#09005D"></stop><stop offset="1" stop-color="#1A0F91"></stop></linearGradient><linearGradient id="paint12_linear_2332_676" x1="73.2337" y1="254.756" x2="29.233" y2="336.782" gradientUnits="userSpaceOnUse"><stop stop-color="#4042E2"></stop><stop offset="1" stop-color="#4F52FF"></stop></linearGradient><linearGradient id="paint13_linear_2332_676" x1="77.7368" y1="186.166" x2="135.593" y2="96.4939" gradientUnits="userSpaceOnUse"><stop stop-color="#FF928E"></stop><stop offset="1" stop-color="#FEB3B1"></stop></linearGradient><linearGradient id="paint14_linear_2332_676" x1="2055.23" y1="-195.839" x2="1957.51" y2="-177.568" gradientUnits="userSpaceOnUse"><stop stop-color="#FE7062"></stop><stop offset="1" stop-color="#FF928E"></stop></linearGradient><linearGradient id="paint15_linear_2332_676" x1="2054.73" y1="-198.495" x2="1957.01" y2="-180.224" gradientUnits="userSpaceOnUse"><stop stop-color="#FE7062"></stop><stop offset="1" stop-color="#FF928E"></stop></linearGradient><linearGradient id="paint16_linear_2332_676" x1="181.964" y1="-43.1111" x2="177.65" y2="13.2528" gradientUnits="userSpaceOnUse"><stop stop-color="#FE7062"></stop><stop offset="1" stop-color="#FF928E"></stop></linearGradient><linearGradient id="paint17_linear_2332_676" x1="206.597" y1="-41.2263" x2="202.284" y2="15.1376" gradientUnits="userSpaceOnUse"><stop stop-color="#FE7062"></stop><stop offset="1" stop-color="#FF928E"></stop></linearGradient><linearGradient id="paint18_linear_2332_676" x1="160.867" y1="79.0688" x2="235.697" y2="96.8051" gradientUnits="userSpaceOnUse"><stop stop-color="#50E7B7"></stop><stop offset="0.9964" stop-color="#323992"></stop></linearGradient><linearGradient id="paint19_linear_2332_676" x1="150.746" y1="98.7986" x2="156.156" y2="98.7986" gradientUnits="userSpaceOnUse"><stop stop-color="#DAE3FE"></stop><stop offset="1" stop-color="#E9EFFD"></stop></linearGradient><linearGradient id="paint20_linear_2332_676" x1="159.054" y1="76.8617" x2="233.885" y2="94.598" gradientUnits="userSpaceOnUse"><stop stop-color="#50E7B7"></stop><stop offset="0.9964" stop-color="#323992"></stop></linearGradient><linearGradient id="paint21_linear_2332_676" x1="148.903" y1="96.5246" x2="154.493" y2="96.5246" gradientUnits="userSpaceOnUse"><stop stop-color="#DAE3FE"></stop><stop offset="1" stop-color="#E9EFFD"></stop></linearGradient><linearGradient id="paint22_linear_2332_676" x1="164.277" y1="111.696" x2="167.385" y2="97.4003" gradientUnits="userSpaceOnUse"><stop stop-color="#E1473D"></stop><stop offset="1" stop-color="#E9605A"></stop></linearGradient><linearGradient id="paint23_linear_2332_676" x1="168.679" y1="87.8106" x2="163.945" y2="138.659" gradientUnits="userSpaceOnUse"><stop stop-color="#FE7062"></stop><stop offset="1" stop-color="#FF928E"></stop></linearGradient><linearGradient id="paint24_linear_2332_676" x1="170.589" y1="90.1021" x2="162.261" y2="116.873" gradientUnits="userSpaceOnUse"><stop stop-color="#FE7062"></stop><stop offset="1" stop-color="#FF928E"></stop></linearGradient><linearGradient id="paint25_linear_2332_676" x1="176.27" y1="105.536" x2="181.679" y2="80.65" gradientUnits="userSpaceOnUse"><stop stop-color="#E1473D"></stop><stop offset="1" stop-color="#E9605A"></stop></linearGradient><linearGradient id="paint26_linear_2332_676" x1="183.933" y1="63.9554" x2="175.693" y2="152.475" gradientUnits="userSpaceOnUse"><stop stop-color="#FE7062"></stop><stop offset="1" stop-color="#FF928E"></stop></linearGradient><linearGradient id="paint27_linear_2332_676" x1="187.254" y1="67.9452" x2="172.758" y2="114.549" gradientUnits="userSpaceOnUse"><stop stop-color="#FE7062"></stop><stop offset="1" stop-color="#FF928E"></stop></linearGradient><linearGradient id="paint28_linear_2332_676" x1="197.506" y1="126.674" x2="203.072" y2="101.066" gradientUnits="userSpaceOnUse"><stop stop-color="#E1473D"></stop><stop offset="1" stop-color="#E9605A"></stop></linearGradient><linearGradient id="paint29_linear_2332_676" x1="205.394" y1="83.8877" x2="196.915" y2="174.973" gradientUnits="userSpaceOnUse"><stop stop-color="#FE7062"></stop><stop offset="1" stop-color="#FF928E"></stop></linearGradient><linearGradient id="paint30_linear_2332_676" x1="208.804" y1="87.993" x2="193.888" y2="135.948" gradientUnits="userSpaceOnUse"><stop stop-color="#FE7062"></stop><stop offset="1" stop-color="#FF928E"></stop></linearGradient><linearGradient id="paint31_linear_2332_676" x1="205.738" y1="96.7556" x2="209.817" y2="77.9931" gradientUnits="userSpaceOnUse"><stop stop-color="#E1473D"></stop><stop offset="1" stop-color="#E9605A"></stop></linearGradient><linearGradient id="paint32_linear_2332_676" x1="211.516" y1="65.4067" x2="205.303" y2="132.144" gradientUnits="userSpaceOnUse"><stop stop-color="#FE7062"></stop><stop offset="1" stop-color="#FF928E"></stop></linearGradient><linearGradient id="paint33_linear_2332_676" x1="214.019" y1="68.4145" x2="203.09" y2="103.55" gradientUnits="userSpaceOnUse"><stop stop-color="#FE7062"></stop><stop offset="1" stop-color="#FF928E"></stop></linearGradient><linearGradient id="paint34_linear_2332_676" x1="145.212" y1="279.164" x2="242.895" y2="212.304" gradientUnits="userSpaceOnUse"><stop stop-color="#FE7062"></stop><stop offset="1" stop-color="#FF928E"></stop></linearGradient><linearGradient id="paint35_linear_2332_676" x1="161.96" y1="212.959" x2="225.987" y2="170.367" gradientUnits="userSpaceOnUse"><stop stop-color="#FE7062"></stop><stop offset="1" stop-color="#FF928E"></stop></linearGradient><linearGradient id="paint36_linear_2332_676" x1="240.088" y1="151.122" x2="182.687" y2="153.276" gradientUnits="userSpaceOnUse"><stop stop-color="#FF928E"></stop><stop offset="1" stop-color="#FEB3B1"></stop></linearGradient><linearGradient id="paint37_linear_2332_676" x1="239.878" y1="145.552" x2="182.477" y2="147.706" gradientUnits="userSpaceOnUse"><stop stop-color="#FF928E"></stop><stop offset="1" stop-color="#FEB3B1"></stop></linearGradient><linearGradient id="paint38_linear_2332_676" x1="235.635" y1="263.349" x2="239.265" y2="281.804" gradientUnits="userSpaceOnUse"><stop stop-color="#4042E2"></stop><stop offset="1" stop-color="#4F52FF"></stop></linearGradient><linearGradient id="paint39_linear_2332_676" x1="249.822" y1="271.068" x2="244.059" y2="271.068" gradientUnits="userSpaceOnUse"><stop stop-color="#F9B776"></stop><stop offset="1" stop-color="#F47960"></stop></linearGradient><linearGradient id="paint40_linear_2332_676" x1="1168.71" y1="1198.37" x2="1243.76" y2="1285.15" gradientUnits="userSpaceOnUse"><stop stop-color="#09005D"></stop><stop offset="1" stop-color="#1A0F91"></stop></linearGradient><linearGradient id="paint41_linear_2332_676" x1="267.327" y1="264.307" x2="267.162" y2="282.527" gradientUnits="userSpaceOnUse"><stop stop-color="#4042E2"></stop><stop offset="1" stop-color="#4F52FF"></stop></linearGradient><linearGradient id="paint42_linear_2332_676" x1="270.598" y1="270.785" x2="265.621" y2="270.785" gradientUnits="userSpaceOnUse"><stop stop-color="#F9B776"></stop><stop offset="1" stop-color="#F47960"></stop></linearGradient><linearGradient id="paint43_linear_2332_676" x1="1177.32" y1="1190.93" x2="1252.37" y2="1277.71" gradientUnits="userSpaceOnUse"><stop stop-color="#09005D"></stop><stop offset="1" stop-color="#1A0F91"></stop></linearGradient><linearGradient id="paint44_linear_2332_676" x1="269.86" y1="137.61" x2="215.177" y2="227.685" gradientUnits="userSpaceOnUse"><stop stop-color="#FE7062"></stop><stop offset="1" stop-color="#FF928E"></stop></linearGradient><linearGradient id="paint45_linear_2332_676" x1="252.531" y1="112.611" x2="260.566" y2="167.976" gradientUnits="userSpaceOnUse"><stop stop-color="#FF928E"></stop><stop offset="1" stop-color="#FEB3B1"></stop></linearGradient><linearGradient id="paint46_linear_2332_676" x1="320.284" y1="-420.316" x2="317.477" y2="-395.829" gradientUnits="userSpaceOnUse"><stop stop-color="#FF928E"></stop><stop offset="1" stop-color="#FEB3B1"></stop></linearGradient><linearGradient id="paint47_linear_2332_676" x1="266.383" y1="112.296" x2="251.445" y2="124.63" gradientUnits="userSpaceOnUse"><stop stop-color="#09005D"></stop><stop offset="1" stop-color="#1A0F91"></stop></linearGradient><linearGradient id="paint48_linear_2332_676" x1="324.989" y1="-419.774" x2="322.182" y2="-395.287" gradientUnits="userSpaceOnUse"><stop stop-color="#FF928E"></stop><stop offset="1" stop-color="#FEB3B1"></stop></linearGradient><linearGradient id="paint49_linear_2332_676" x1="248.955" y1="130.807" x2="265.957" y2="95.8345" gradientUnits="userSpaceOnUse"><stop stop-color="#4042E2"></stop><stop offset="1" stop-color="#4F52FF"></stop></linearGradient><linearGradient id="paint50_linear_2332_676" x1="267.173" y1="98.7083" x2="230.377" y2="138.641" gradientUnits="userSpaceOnUse"><stop stop-color="#4042E2"></stop><stop offset="1" stop-color="#4F52FF"></stop></linearGradient><linearGradient id="paint51_linear_2332_676" x1="283.344" y1="145.795" x2="228.66" y2="235.871" gradientUnits="userSpaceOnUse"><stop stop-color="#FE7062"></stop><stop offset="1" stop-color="#FF928E"></stop></linearGradient><linearGradient id="paint52_linear_2332_676" x1="253.103" y1="178.696" x2="304.64" y2="157.311" gradientUnits="userSpaceOnUse"><stop stop-color="#FF928E"></stop><stop offset="1" stop-color="#FEB3B1"></stop></linearGradient><linearGradient id="paint53_linear_2332_676" x1="240.297" y1="151.002" x2="221.725" y2="231.896" gradientUnits="userSpaceOnUse"><stop stop-color="#4042E2"></stop><stop offset="1" stop-color="#4F52FF"></stop></linearGradient><linearGradient id="paint54_linear_2332_676" x1="228.524" y1="146.42" x2="236.029" y2="146.42" gradientUnits="userSpaceOnUse"><stop stop-color="#DAE3FE"></stop><stop offset="1" stop-color="#E9EFFD"></stop></linearGradient><linearGradient id="paint55_linear_2332_676" x1="2077.03" y1="1265.55" x2="2032" y2="1235.93" gradientUnits="userSpaceOnUse"><stop stop-color="#FF928E"></stop><stop offset="1" stop-color="#FEB3B1"></stop></linearGradient><linearGradient id="paint56_linear_2332_676" x1="213.489" y1="187.371" x2="310.135" y2="125.957" gradientUnits="userSpaceOnUse"><stop stop-color="#E1473D"></stop><stop offset="1" stop-color="#E9605A"></stop></linearGradient><linearGradient id="paint57_linear_2332_676" x1="277.377" y1="134.419" x2="259.187" y2="166.11" gradientUnits="userSpaceOnUse"><stop stop-color="#E1473D"></stop><stop offset="1" stop-color="#E9605A"></stop></linearGradient><linearGradient id="paint58_linear_2332_676" x1="393.941" y1="209.861" x2="382.256" y2="296.513" gradientUnits="userSpaceOnUse"><stop stop-color="#09005D"></stop><stop offset="1" stop-color="#1A0F91"></stop></linearGradient><linearGradient id="paint59_linear_2332_676" x1="455.695" y1="256.037" x2="452.144" y2="270.542" gradientUnits="userSpaceOnUse"><stop stop-color="#09005D"></stop><stop offset="1" stop-color="#1A0F91"></stop></linearGradient><linearGradient id="paint60_linear_2332_676" x1="388.645" y1="241.17" x2="383.966" y2="347.152" gradientUnits="userSpaceOnUse"><stop stop-color="#4042E2"></stop><stop offset="1" stop-color="#4F52FF"></stop></linearGradient><linearGradient id="paint61_linear_2332_676" x1="324.906" y1="230.206" x2="452.537" y2="230.206" gradientUnits="userSpaceOnUse"><stop stop-color="#DAE3FE"></stop><stop offset="1" stop-color="#E9EFFD"></stop></linearGradient><linearGradient id="paint62_linear_2332_676" x1="304.682" y1="250.387" x2="301.105" y2="331.422" gradientUnits="userSpaceOnUse"><stop stop-color="#4042E2"></stop><stop offset="1" stop-color="#4F52FF"></stop></linearGradient><linearGradient id="paint63_linear_2332_676" x1="305.598" y1="214.724" x2="320.684" y2="214.724" gradientUnits="userSpaceOnUse"><stop stop-color="#09005D"></stop><stop offset="1" stop-color="#1A0F91"></stop></linearGradient><linearGradient id="paint64_linear_2332_676" x1="316.306" y1="352.982" x2="308.641" y2="285.829" gradientUnits="userSpaceOnUse"><stop stop-color="#09005D"></stop><stop offset="1" stop-color="#1A0F91"></stop></linearGradient><linearGradient id="paint65_linear_2332_676" x1="300.973" y1="257.476" x2="311.999" y2="276.361" gradientUnits="userSpaceOnUse"><stop stop-color="#09005D"></stop><stop offset="1" stop-color="#1A0F91"></stop></linearGradient><linearGradient id="paint66_linear_2332_676" x1="424.878" y1="340.589" x2="417.213" y2="273.436" gradientUnits="userSpaceOnUse"><stop stop-color="#09005D"></stop><stop offset="1" stop-color="#1A0F91"></stop></linearGradient><linearGradient id="paint67_linear_2332_676" x1="411.129" y1="257.785" x2="422.155" y2="276.67" gradientUnits="userSpaceOnUse"><stop stop-color="#09005D"></stop><stop offset="1" stop-color="#1A0F91"></stop></linearGradient><linearGradient id="paint68_linear_2332_676" x1="360.536" y1="347.933" x2="352.871" y2="280.78" gradientUnits="userSpaceOnUse"><stop stop-color="#09005D"></stop><stop offset="1" stop-color="#1A0F91"></stop></linearGradient><linearGradient id="paint69_linear_2332_676" x1="345.871" y1="257.785" x2="356.897" y2="276.67" gradientUnits="userSpaceOnUse"><stop stop-color="#09005D"></stop><stop offset="1" stop-color="#1A0F91"></stop></linearGradient><linearGradient id="paint70_linear_2332_676" x1="450.99" y1="337.608" x2="443.325" y2="270.455" gradientUnits="userSpaceOnUse"><stop stop-color="#09005D"></stop><stop offset="1" stop-color="#1A0F91"></stop></linearGradient><linearGradient id="paint71_linear_2332_676" x1="437.617" y1="257.785" x2="448.643" y2="276.67" gradientUnits="userSpaceOnUse"><stop stop-color="#09005D"></stop><stop offset="1" stop-color="#1A0F91"></stop></linearGradient></defs></svg>