<svg xmlns="http://www.w3.org/2000/svg" width="259" height="271" viewBox="0 0 259 271" fill="none"><path d="M77.9139 265.983C64.6962 272.255 43.2676 272.255 30.05 265.983C16.8323 259.713 16.8323 249.544 30.05 243.272C43.2676 237.003 64.6962 237.003 77.9139 243.272C91.1308 249.544 91.1308 259.713 77.9139 265.983Z" fill="#E0E0E0"></path><path d="M248.155 218.738C234.938 225.01 213.509 225.01 200.292 218.738C187.074 212.468 187.074 202.3 200.292 196.028C213.509 189.758 234.938 189.758 248.155 196.028C261.373 202.3 261.373 212.468 248.155 218.738Z" fill="#E0E0E0"></path><path d="M95.7633 138.246L67.058 154.744C65.9933 155.356 64.9591 156.83 64.7496 158.036L57.6157 199.038C57.4055 200.244 58.0991 201.718 59.1638 202.33L77.673 212.968C78.7377 213.58 80.4648 213.58 81.5295 212.968L121.089 190.232C122.154 189.62 123.018 188.193 123.018 187.044C123.018 185.895 122.154 184.468 121.09 183.856L106.856 175.676C105.791 175.064 104.827 173.58 104.702 172.362L101.535 141.422C101.41 140.204 100.499 138.751 99.5002 138.177C98.5015 137.603 96.8287 137.633 95.7633 138.246Z" fill="#263238"></path><path d="M79.6055 205.76L79.6062 213.428C80.3041 213.428 81.0021 213.275 81.5348 212.969L121.094 190.232C122.159 189.621 123.023 188.193 123.023 187.045C123.023 186.373 122.722 185.609 122.264 184.965H115.787L79.6055 205.76Z" fill="#455A64"></path><path d="M99.3786 140.325L70.6733 156.824C69.6086 157.436 68.5751 158.91 68.3649 160.116L61.8891 197.337C61.6789 198.543 62.3725 200.017 63.4372 200.63L77.671 208.81C78.7357 209.422 80.4628 209.422 81.5275 208.81L121.087 186.074C122.152 185.462 122.152 184.469 121.087 183.857L106.853 175.677C105.789 175.065 104.824 173.581 104.699 172.363L101.532 141.423C101.408 140.204 100.444 139.713 99.3786 140.325Z" fill="#263238"></path><path d="M121.09 183.856L106.856 175.676C106.332 175.374 105.832 174.86 105.445 174.271L62.1641 199.146C62.4424 199.766 62.8896 200.313 63.4397 200.629L77.6734 208.81C78.7389 209.422 80.4653 209.422 81.53 208.81L121.089 186.073C122.155 185.461 122.155 184.469 121.09 183.856Z" fill="#37474F"></path><path d="M4.53779 219.794L2.7005 218.738C1.20964 217.88 0.000724373 215.797 0.000724373 214.082L0 91.3624C0 89.6489 1.21037 87.5673 2.70339 86.7138L153.308 0.638266C154.801 -0.215274 157.22 -0.212389 158.711 0.644759L160.113 1.44996C161.604 2.30711 162.813 4.39081 162.813 6.10511V128.824C162.813 130.539 161.604 132.622 160.113 133.48L9.93734 219.794C8.44649 220.651 6.02937 220.651 4.53779 219.794Z" fill="#455A64"></path><path d="M10.8542 94.4981L0.792171 88.7152C0.302951 89.5565 0 90.506 0 91.3632L0.000724373 214.083C0.000724373 215.797 1.20964 217.881 2.7005 218.738L4.53779 219.795C6.02864 220.652 8.44649 220.652 9.93734 219.795L10.8549 219.267L10.8542 94.4981Z" fill="#263238"></path><path d="M7.23828 218.242V95.5227C7.23828 93.8091 8.4472 91.7247 9.93805 90.8675L160.113 4.55388C161.604 3.69674 162.813 4.39155 162.813 6.10584V128.825C162.813 130.539 161.604 132.623 160.113 133.48L9.93805 219.794C8.4472 220.651 7.23828 219.956 7.23828 218.242Z" fill="#37474F"></path><path d="M77.7567 172.5L91.9898 164.32C93.0545 163.708 93.9184 164.142 93.9184 165.291C93.9184 166.439 93.0552 167.866 91.9898 168.478L77.7567 176.659C76.692 177.271 75.8281 176.836 75.8281 175.688C75.8281 174.54 76.692 173.113 77.7567 172.5Z" fill="#E0E0E0"></path><path d="M14.1595 94.62L155.594 13.1023C156.445 12.6116 157.135 13.0077 157.135 13.9868V120.943C157.135 121.923 156.444 123.114 155.592 123.604L14.1602 204.891C13.3079 205.381 12.6172 204.984 12.6172 204.004V97.2824C12.6179 96.3033 13.3079 95.1114 14.1595 94.62Z" fill="white"></path><path d="M19.4243 96.6713L149.192 22.0973C151.547 20.7437 153.474 21.8513 153.474 24.5583V117.425C153.474 118.682 152.579 120.225 151.486 120.854L18.6567 197.186C17.5631 197.815 16.668 197.3 16.668 196.043V101.423C16.668 99.6807 17.9081 97.5429 19.4243 96.6713Z" fill="#E6E6E6"></path><path d="M72.6335 80.4504L144.145 39.3492L144.146 53.6451L72.6328 94.747L72.6335 80.4504Z" fill="#F5F5F5"></path><path d="M72.6335 100.409L144.145 59.3067L144.146 95.1215L72.6328 136.223L72.6335 100.409Z" fill="#F0F0F0"></path><path d="M153.474 26.7827V24.5583C153.474 21.8512 151.546 20.743 149.191 22.0973L19.4236 96.6713C17.9081 97.5422 16.668 99.6807 16.668 101.422V105.403L153.474 26.7827Z" fill="#27DEBF"></path><path d="M135.518 31.8527C134.703 32.321 134.043 33.4595 134.043 34.3961C134.043 35.3326 134.703 35.7121 135.518 35.2438C136.333 34.7756 136.993 33.637 136.993 32.7005C136.993 31.764 136.333 31.3845 135.518 31.8527Z" fill="white"></path><path d="M141.366 28.4891C140.551 28.9574 139.891 30.0959 139.891 31.0324C139.891 31.9689 140.551 32.3484 141.366 31.8802C142.18 31.4119 142.84 30.2734 142.84 29.3369C142.84 28.4004 142.18 28.0208 141.366 28.4891Z" fill="white"></path><path d="M147.221 25.1247C146.406 25.593 145.746 26.7315 145.746 27.668C145.746 28.6045 146.406 28.984 147.221 28.5158C148.036 28.0475 148.696 26.909 148.696 25.9725C148.696 25.036 148.035 24.6572 147.221 25.1247Z" fill="white"></path><path d="M22.8825 156.268C22.7506 156.268 22.6187 156.234 22.4999 156.166C22.2629 156.029 22.1172 155.778 22.1172 155.506V109.044C22.1172 108.772 22.2629 108.521 22.4991 108.384L62.8544 85.1142C63.0914 84.9786 63.3835 84.9778 63.6205 85.1135C63.8575 85.2491 64.0039 85.5017 64.0039 85.7737V132.274C64.0039 132.546 63.8582 132.798 63.622 132.933L23.2667 156.164C23.1471 156.233 23.0145 156.268 22.8825 156.268ZM23.6479 109.482V154.185L62.4717 131.835V87.0955L23.6479 109.482Z" fill="#FAFAFA"></path><path d="M36.7945 139.498C35.329 139.498 33.9686 139.154 32.7625 138.462C29.8606 136.795 28.2617 133.341 28.2617 128.736C28.2617 119.582 34.7303 108.404 42.6818 103.819C46.6738 101.517 50.4687 101.166 53.3664 102.828C56.2698 104.495 57.8694 107.951 57.8694 112.56C57.8694 121.723 51.4 132.899 43.4493 137.477C41.117 138.819 38.8521 139.498 36.7945 139.498ZM49.3373 103.32C47.5493 103.32 45.5446 103.93 43.45 105.138C35.9196 109.48 29.7939 120.066 29.7939 128.736C29.7939 132.773 31.1202 135.758 33.5286 137.141C35.932 138.522 39.184 138.172 42.6832 136.158C50.2136 131.823 56.3394 121.237 56.3394 112.56C56.3394 108.518 55.0123 105.531 52.6032 104.148C51.6378 103.595 50.5361 103.32 49.3373 103.32Z" fill="#FAFAFA"></path><path d="M195.597 162.498L192.791 160.887V160.889C192.675 160.823 192.521 160.819 192.35 160.895L187.281 163.17C186.923 163.331 186.554 163.154 186.436 162.781C186.141 161.854 185.761 161.018 185.306 160.278C185.101 159.945 185.055 159.405 185.229 159.056L188.608 152.273C188.783 151.923 188.648 151.48 188.308 151.285L184.641 149.177C184.301 148.982 183.85 149.087 183.632 149.413L179.421 155.717C179.204 156.043 178.711 156.273 178.318 156.262C177.841 156.25 177.35 156.274 176.847 156.33V151.72L174.033 150.105V150.106C173.909 150.04 173.745 150.048 173.573 150.147L167.877 153.421C167.537 153.617 167.233 154.091 167.198 154.48L166.627 160.789C166.592 161.178 166.324 161.703 166.035 161.968C164.927 162.984 163.868 164.103 162.871 165.302C162.62 165.602 162.122 165.746 161.752 165.617L158.096 164.346C157.726 164.217 157.266 164.387 157.07 164.725L152.882 171.945C152.686 172.284 152.768 172.765 153.066 173.02L155.999 175.536C156.297 175.792 156.421 176.293 156.284 176.66C155.741 178.118 155.296 179.591 154.966 181.055C154.88 181.437 154.558 181.929 154.238 182.154L149.034 185.8C148.713 186.025 148.453 186.525 148.453 186.915V193.462C148.453 193.664 148.531 193.81 148.655 193.883L148.654 193.884L151.459 195.494L155.626 193.531C155.787 193.867 155.958 194.191 156.145 194.495C156.35 194.828 156.397 195.368 156.222 195.718L152.843 202.501C152.668 202.851 152.803 203.293 153.143 203.489L156.81 205.596C157.15 205.792 157.602 205.686 157.819 205.361L162.03 199.056C162.248 198.731 162.741 198.501 163.133 198.512C164.005 198.534 164.921 198.445 165.876 198.235C166.259 198.15 166.597 198.379 166.636 198.768L167.192 204.277C167.211 204.465 167.294 204.597 167.411 204.663L167.41 204.664L170.21 206.272L173.574 201.353C173.914 201.158 174.218 200.683 174.253 200.295L174.823 193.985C174.859 193.596 175.19 193.182 175.552 193.03C177.179 192.352 178.825 191.18 179.976 189.941C180.243 189.655 180.74 189.51 181.111 189.64L183.355 190.427C183.726 190.556 184.185 190.387 184.381 190.048L188.569 182.828C188.765 182.49 188.683 182.009 188.386 181.753L186.457 180.099C186.16 179.844 186.037 179.342 186.144 178.966C186.607 177.351 186.712 175.237 186.667 173.734C186.656 173.343 186.894 172.844 187.215 172.619L192.418 168.973C192.739 168.748 192.999 168.248 192.999 167.858L195.486 164.89L195.597 162.498ZM170.725 188.448C165.411 191.503 162.108 189.336 162.108 183.227C162.108 177.118 166.499 169.634 171.814 166.58C177.128 163.525 180.347 165.747 180.347 171.856C180.347 177.966 176.039 185.394 170.725 188.448Z" fill="#27DEBF"></path><path opacity="0.1" d="M195.597 162.498L192.791 160.887V160.889C192.675 160.823 192.521 160.819 192.35 160.895L187.281 163.17C186.923 163.331 186.554 163.154 186.436 162.781C186.141 161.854 185.761 161.018 185.306 160.278C185.101 159.945 185.055 159.405 185.229 159.056L188.608 152.273C188.783 151.923 188.648 151.48 188.308 151.285L184.641 149.177C184.301 148.982 183.85 149.087 183.632 149.413L179.421 155.717C179.204 156.043 178.711 156.273 178.318 156.262C177.841 156.25 177.35 156.274 176.847 156.33V151.72L174.033 150.105V150.106C173.909 150.04 173.745 150.048 173.573 150.147L167.877 153.421C167.537 153.617 167.233 154.091 167.198 154.48L166.627 160.789C166.592 161.178 166.324 161.703 166.035 161.968C164.927 162.984 163.868 164.103 162.871 165.302C162.62 165.602 162.122 165.746 161.752 165.617L158.096 164.346C157.726 164.217 157.266 164.387 157.07 164.725L152.882 171.945C152.686 172.284 152.768 172.765 153.066 173.02L155.999 175.536C156.297 175.792 156.421 176.293 156.284 176.66C155.741 178.118 155.296 179.591 154.966 181.055C154.88 181.437 154.558 181.929 154.238 182.154L149.034 185.8C148.713 186.025 148.453 186.525 148.453 186.915V193.462C148.453 193.664 148.531 193.81 148.655 193.883L148.654 193.884L151.459 195.494L155.626 193.531C155.787 193.867 155.958 194.191 156.145 194.495C156.35 194.828 156.397 195.368 156.222 195.718L152.843 202.501C152.668 202.851 152.803 203.293 153.143 203.489L156.81 205.596C157.15 205.792 157.602 205.686 157.819 205.361L162.03 199.056C162.248 198.731 162.741 198.501 163.133 198.512C164.005 198.534 164.921 198.445 165.876 198.235C166.259 198.15 166.597 198.379 166.636 198.768L167.192 204.277C167.211 204.465 167.294 204.597 167.411 204.663L167.41 204.664L170.21 206.272L173.574 201.353C173.914 201.158 174.218 200.683 174.253 200.295L174.823 193.985C174.859 193.596 175.19 193.182 175.552 193.03C177.179 192.352 178.825 191.18 179.976 189.941C180.243 189.655 180.74 189.51 181.111 189.64L183.355 190.427C183.726 190.556 184.185 190.387 184.381 190.048L188.569 182.828C188.765 182.49 188.683 182.009 188.386 181.753L186.457 180.099C186.16 179.844 186.037 179.342 186.144 178.966C186.607 177.351 186.712 175.237 186.667 173.734C186.656 173.343 186.894 172.844 187.215 172.619L192.418 168.973C192.739 168.748 192.999 168.248 192.999 167.858L195.486 164.89L195.597 162.498ZM170.725 188.448C165.411 191.503 162.108 189.336 162.108 183.227C162.108 177.118 166.499 169.634 171.814 166.58C177.128 163.525 180.347 165.747 180.347 171.856C180.347 177.966 176.039 185.394 170.725 188.448Z" fill="black"></path><path d="M187.494 154.517L188.611 152.273C188.786 151.923 188.651 151.481 188.311 151.286L184.644 149.178C184.304 148.983 183.853 149.088 183.635 149.413L179.424 155.718C179.356 155.82 179.255 155.908 179.145 155.987L183.858 158.696L187.494 154.517Z" fill="#27DEBF"></path><path d="M154.64 181.728C154.518 181.899 154.379 182.054 154.237 182.154L149.034 185.8C148.903 185.892 148.789 186.035 148.691 186.192L151.867 188.017L158.774 184.105L154.64 181.728Z" fill="#27DEBF"></path><path d="M157.804 164.304C157.511 164.315 157.217 164.473 157.071 164.725L152.883 171.945C152.792 172.103 152.766 172.291 152.789 172.473L156.398 174.547L162.13 166.828L157.804 164.304Z" fill="#27DEBF"></path><path d="M167.309 154.105L171.775 156.672L176.847 153.756V151.721L174.034 150.107V150.107C173.909 150.042 173.745 150.05 173.574 150.149L167.878 153.423C167.643 153.556 167.433 153.825 167.309 154.105Z" fill="#27DEBF"></path><path d="M195.604 162.499V162.504C195.49 162.428 195.329 162.424 195.154 162.504L190.084 164.777C189.729 164.937 189.359 164.763 189.24 164.39C189.041 163.753 188.8 163.164 188.516 162.617L192.354 160.895C192.524 160.82 192.681 160.825 192.795 160.89V160.886L195.604 162.499Z" fill="#27DEBF"></path><g opacity="0.4"><path d="M187.494 154.517L188.611 152.273C188.786 151.923 188.651 151.481 188.311 151.286L184.644 149.178C184.304 148.983 183.853 149.088 183.635 149.413L179.424 155.718C179.356 155.82 179.255 155.908 179.145 155.987L183.858 158.696L187.494 154.517Z" fill="white"></path><path d="M154.64 181.728C154.518 181.899 154.379 182.054 154.237 182.154L149.034 185.8C148.903 185.892 148.789 186.035 148.691 186.192L151.867 188.017L158.774 184.105L154.64 181.728Z" fill="white"></path><path d="M157.804 164.304C157.511 164.315 157.217 164.473 157.071 164.725L152.883 171.945C152.792 172.103 152.766 172.291 152.789 172.473L156.398 174.547L162.13 166.828L157.804 164.304Z" fill="white"></path><path d="M167.309 154.105L171.775 156.672L176.847 153.756V151.721L174.034 150.107V150.107C173.909 150.042 173.745 150.05 173.574 150.149L167.878 153.423C167.643 153.556 167.433 153.825 167.309 154.105Z" fill="white"></path><path d="M195.604 162.499V162.504C195.49 162.428 195.329 162.424 195.154 162.504L190.084 164.777C189.729 164.937 189.359 164.763 189.24 164.39C189.041 163.753 188.8 163.164 188.516 162.617L192.354 160.895C192.524 160.82 192.681 160.825 192.795 160.89V160.886L195.604 162.499Z" fill="white"></path></g><path d="M195.802 169.468V162.92C195.802 162.529 195.512 162.343 195.154 162.503L190.085 164.778C189.727 164.939 189.358 164.761 189.24 164.388C188.945 163.461 188.565 162.625 188.11 161.886C187.904 161.553 187.858 161.013 188.033 160.663L191.412 153.88C191.586 153.53 191.452 153.088 191.112 152.892L187.445 150.785C187.105 150.589 186.653 150.695 186.436 151.02L182.225 157.325C182.008 157.65 181.515 157.88 181.123 157.869C180.252 157.847 179.335 157.936 178.381 158.146C177.998 158.231 177.66 158.002 177.621 157.613L177.065 152.105C177.026 151.716 176.718 151.56 176.378 151.755L170.682 155.029C170.342 155.224 170.038 155.698 170.003 156.087L169.433 162.396C169.397 162.785 169.129 163.309 168.841 163.574C167.733 164.591 166.674 165.71 165.676 166.908C165.426 167.209 164.928 167.353 164.557 167.224L160.901 165.953C160.531 165.824 160.071 165.994 159.875 166.333L155.687 173.553C155.49 173.891 155.572 174.372 155.87 174.627L158.804 177.144C159.101 177.399 159.226 177.9 159.089 178.266C158.545 179.725 158.1 181.198 157.771 182.661C157.685 183.043 157.363 183.535 157.042 183.76L151.839 187.406C151.518 187.631 151.258 188.131 151.258 188.521V195.069C151.258 195.46 151.548 195.646 151.906 195.486L156.976 193.211C157.334 193.05 157.702 193.227 157.82 193.6C158.115 194.528 158.495 195.363 158.95 196.103C159.155 196.436 159.201 196.976 159.027 197.326L155.648 204.108C155.473 204.458 155.608 204.901 155.948 205.096L159.615 207.204C159.955 207.399 160.407 207.294 160.624 206.968L164.836 200.664C165.053 200.339 165.546 200.108 165.939 200.119C166.81 200.141 167.727 200.051 168.681 199.841C169.064 199.757 169.402 199.986 169.441 200.375L169.997 205.883C170.036 206.272 170.343 206.429 170.683 206.233L176.379 202.959C176.719 202.764 177.023 202.29 177.058 201.901L177.629 195.591C177.663 195.202 177.932 194.678 178.221 194.413C179.329 193.397 180.388 192.277 181.384 191.079C181.635 190.779 182.133 190.634 182.503 190.763L186.16 192.034C186.53 192.162 186.99 191.993 187.186 191.655L191.374 184.434C191.57 184.096 191.488 183.615 191.191 183.36L188.257 180.843C187.96 180.588 187.836 180.087 187.972 179.72C188.516 178.261 188.96 176.789 189.29 175.325C189.376 174.944 189.698 174.451 190.019 174.227L195.222 170.58C195.542 170.358 195.802 169.859 195.802 169.468ZM173.529 190.056C168.215 193.111 163.907 190.634 163.907 184.526C163.907 178.417 168.215 170.989 173.529 167.934C178.843 164.88 183.151 167.356 183.151 173.465C183.151 179.574 178.843 187.002 173.529 190.056Z" fill="#27DEBF"></path><path d="M167.552 213.817L167.552 213.822C167.417 213.741 167.239 213.748 167.056 213.868L164.659 215.438C164.332 215.653 163.922 215.541 163.697 215.222C163.552 215.016 163.396 214.826 163.229 214.653C162.958 214.37 162.812 213.883 162.948 213.516L166.757 211.113L163.913 209.479L163.911 209.482C163.855 209.45 163.793 209.422 163.723 209.406L161.917 209.005C161.534 208.919 161.075 209.131 160.893 209.476L159.194 212.699C159.011 213.045 158.548 213.37 158.167 213.467C158.133 213.476 158.098 213.488 158.063 213.497C158.167 213.192 158.212 212.748 158.212 212.748L155.36 211.109L155.36 211.112C155.207 211.023 155.011 211.04 154.826 211.185L152.119 213.304C151.81 213.546 151.581 214.057 151.605 214.448L151.766 217.012C151.791 217.401 151.597 217.953 151.345 218.253C150.902 218.781 150.482 219.335 150.088 219.909C149.867 220.232 149.379 220.484 148.987 220.466L147.247 220.38C146.854 220.36 146.407 220.635 146.247 220.991L144.611 224.642C144.464 224.969 144.59 225.341 144.89 225.52L144.889 225.523L146.818 226.632C146.881 226.789 146.901 226.963 146.863 227.129C146.729 227.716 146.628 228.298 146.562 228.871C146.517 229.259 146.264 229.79 145.975 230.055L143.576 232.25C143.287 232.515 143.107 233.041 143.174 233.426L143.625 236.031C143.654 236.2 143.734 236.319 143.841 236.384L143.837 236.386L146.698 238.029L146.736 234.769C147.063 234.554 147.473 234.665 147.697 234.985C147.842 235.19 147.998 235.38 148.165 235.555C148.435 235.837 148.582 236.324 148.445 236.691L147.223 239.982C147.115 240.274 147.222 240.563 147.463 240.713L147.461 240.715L150.317 242.357L151.096 240.239L152.2 237.508C152.382 237.162 152.845 236.837 153.226 236.74C153.59 236.648 153.961 236.526 154.338 236.374C154.702 236.228 155.079 236.389 155.192 236.763L155.803 238.781C155.849 238.932 155.933 239.037 156.036 239.096L156.034 239.098L158.899 240.742L158.398 237.588L159.275 236.902C159.584 236.661 159.813 236.149 159.789 235.759L159.628 233.194C159.603 232.804 159.797 232.254 160.049 231.954C160.492 231.425 161.163 231.143 161.556 230.569C161.777 230.246 162.016 229.722 162.408 229.741L164.148 229.826C164.54 229.845 164.988 229.571 165.148 229.215L166.784 225.563C166.944 225.206 166.781 224.793 166.42 224.64L165.014 224.042C164.653 223.889 164.444 223.459 164.531 223.078C164.665 222.49 164.766 221.908 164.832 221.336C164.877 220.948 165.13 220.417 165.419 220.153L167.818 217.957C168.023 217.769 168.169 217.449 168.214 217.142L170.393 215.451L167.552 213.817ZM156.659 230.657C153.725 232.954 150.916 232.328 150.386 229.26C149.855 226.192 152.256 222.294 155.19 219.997C158.124 217.701 160.48 217.875 161.011 220.943C161.541 224.012 159.593 228.36 156.659 230.657Z" fill="#27DEBF"></path><path opacity="0.1" d="M167.552 213.817L167.552 213.822C167.417 213.741 167.239 213.748 167.056 213.868L164.659 215.438C164.332 215.653 163.922 215.541 163.697 215.222C163.552 215.016 163.396 214.826 163.229 214.653C162.958 214.37 162.812 213.883 162.948 213.516L166.757 211.113L163.913 209.479L163.911 209.482C163.855 209.45 163.793 209.422 163.723 209.406L161.917 209.005C161.534 208.919 161.075 209.131 160.893 209.476L159.194 212.699C159.011 213.045 158.548 213.37 158.167 213.467C158.133 213.476 158.098 213.488 158.063 213.497C158.167 213.192 158.212 212.748 158.212 212.748L155.36 211.109L155.36 211.112C155.207 211.023 155.011 211.04 154.826 211.185L152.119 213.304C151.81 213.546 151.581 214.057 151.605 214.448L151.766 217.012C151.791 217.401 151.597 217.953 151.345 218.253C150.902 218.781 150.482 219.335 150.088 219.909C149.867 220.232 149.379 220.484 148.987 220.466L147.247 220.38C146.854 220.36 146.407 220.635 146.247 220.991L144.611 224.642C144.464 224.969 144.59 225.341 144.89 225.52L144.889 225.523L146.818 226.632C146.881 226.789 146.901 226.963 146.863 227.129C146.729 227.716 146.628 228.298 146.562 228.871C146.517 229.259 146.264 229.79 145.975 230.055L143.576 232.25C143.287 232.515 143.107 233.041 143.174 233.426L143.625 236.031C143.654 236.2 143.734 236.319 143.841 236.384L143.837 236.386L146.698 238.029L146.736 234.769C147.063 234.554 147.473 234.665 147.697 234.985C147.842 235.19 147.998 235.38 148.165 235.555C148.435 235.837 148.582 236.324 148.445 236.691L147.223 239.982C147.115 240.274 147.222 240.563 147.463 240.713L147.461 240.715L150.317 242.357L151.096 240.239L152.2 237.508C152.382 237.162 152.845 236.837 153.226 236.74C153.59 236.648 153.961 236.526 154.338 236.374C154.702 236.228 155.079 236.389 155.192 236.763L155.803 238.781C155.849 238.932 155.933 239.037 156.036 239.096L156.034 239.098L158.899 240.742L158.398 237.588L159.275 236.902C159.584 236.661 159.813 236.149 159.789 235.759L159.628 233.194C159.603 232.804 159.797 232.254 160.049 231.954C160.492 231.425 161.163 231.143 161.556 230.569C161.777 230.246 162.016 229.722 162.408 229.741L164.148 229.826C164.54 229.845 164.988 229.571 165.148 229.215L166.784 225.563C166.944 225.206 166.781 224.793 166.42 224.64L165.014 224.042C164.653 223.889 164.444 223.459 164.531 223.078C164.665 222.49 164.766 221.908 164.832 221.336C164.877 220.948 165.13 220.417 165.419 220.153L167.818 217.957C168.023 217.769 168.169 217.449 168.214 217.142L170.393 215.451L167.552 213.817ZM156.659 230.657C153.725 232.954 150.916 232.328 150.386 229.26C149.855 226.192 152.256 222.294 155.19 219.997C158.124 217.701 160.48 217.875 161.011 220.943C161.541 224.012 159.593 228.36 156.659 230.657Z" fill="black"></path><path d="M145.953 230.078L143.581 232.249C143.405 232.409 143.279 232.666 143.215 232.929L146.738 234.954L146.74 234.767C147.068 234.552 147.477 234.663 147.702 234.983C147.703 234.985 147.704 234.985 147.705 234.987L151.1 233.036L145.953 230.078Z" fill="#27DEBF"></path><path d="M151.994 223.505C152.261 223.093 152.553 222.691 152.866 222.303L149.486 220.359C149.32 220.427 149.147 220.472 148.989 220.464L147.249 220.378C147.001 220.366 146.732 220.471 146.527 220.639L151.731 223.63L151.994 223.505Z" fill="#27DEBF"></path><path d="M170.398 215.448C170.265 215.372 170.09 215.386 169.91 215.505L167.513 217.075C167.186 217.287 166.778 217.179 166.551 216.858C166.404 216.65 166.252 216.462 166.082 216.287C165.812 216.005 165.665 215.518 165.802 215.15L166.03 214.542L167.058 213.868C167.243 213.75 167.423 213.74 167.555 213.821V213.816L170.398 215.448Z" fill="#27DEBF"></path><path d="M163.312 214.749C163.284 214.719 163.26 214.681 163.232 214.652C162.961 214.369 162.814 213.882 162.951 213.515L166.759 211.112L163.916 209.479L163.914 209.481C163.857 209.449 163.796 209.422 163.726 209.406L161.919 209.004C161.537 208.919 161.078 209.13 160.895 209.476L159.196 212.698C159.114 212.854 158.972 213.002 158.809 213.13L162.646 215.336L163.312 214.749Z" fill="#27DEBF"></path><path d="M151.68 214.01L155.204 216.036L158.101 213.393C158.183 213.1 158.219 212.747 158.219 212.747L155.367 211.108L155.367 211.111C155.214 211.023 155.018 211.039 154.833 211.184L152.126 213.303C151.925 213.461 151.765 213.733 151.68 214.01Z" fill="#27DEBF"></path><g opacity="0.4"><path d="M145.953 230.078L143.581 232.249C143.405 232.409 143.279 232.666 143.215 232.929L146.738 234.954L146.74 234.767C147.068 234.552 147.477 234.663 147.702 234.983C147.703 234.985 147.704 234.985 147.705 234.987L151.1 233.036L145.953 230.078Z" fill="white"></path><path d="M151.994 223.505C152.261 223.093 152.553 222.691 152.866 222.303L149.486 220.359C149.32 220.427 149.147 220.472 148.989 220.464L147.249 220.378C147.001 220.366 146.732 220.471 146.527 220.639L151.731 223.63L151.994 223.505Z" fill="white"></path><path d="M170.398 215.448C170.265 215.372 170.09 215.386 169.91 215.505L167.513 217.075C167.186 217.287 166.778 217.179 166.551 216.858C166.404 216.65 166.252 216.462 166.082 216.287C165.812 216.005 165.665 215.518 165.802 215.15L166.03 214.542L167.058 213.868C167.243 213.75 167.423 213.74 167.555 213.821V213.816L170.398 215.448Z" fill="white"></path><path d="M163.312 214.749C163.284 214.719 163.26 214.681 163.232 214.652C162.961 214.369 162.814 213.882 162.951 213.515L166.759 211.112L163.916 209.479L163.914 209.481C163.857 209.449 163.796 209.422 163.726 209.406L161.919 209.004C161.537 208.919 161.078 209.13 160.895 209.476L159.196 212.698C159.114 212.854 158.972 213.002 158.809 213.13L162.646 215.336L163.312 214.749Z" fill="white"></path><path d="M151.68 214.01L155.204 216.036L158.101 213.393C158.183 213.1 158.219 212.747 158.219 212.747L155.367 211.108L155.367 211.111C155.214 211.023 155.018 211.039 154.833 211.184L152.126 213.303C151.925 213.461 151.765 213.733 151.68 214.01Z" fill="white"></path></g><path d="M171.068 218.417L170.617 215.812C170.551 215.427 170.231 215.289 169.903 215.504L167.506 217.074C167.178 217.289 166.769 217.178 166.543 216.858C166.398 216.653 166.243 216.463 166.076 216.289C165.805 216.006 165.658 215.519 165.795 215.153L167.017 211.861C167.154 211.494 166.954 211.128 166.57 211.043L164.763 210.641C164.38 210.556 163.922 210.767 163.739 211.113L162.04 214.335C161.858 214.681 161.395 215.007 161.014 215.103C160.65 215.196 160.279 215.317 159.902 215.469C159.538 215.616 159.161 215.455 159.048 215.081L158.437 213.063C158.324 212.689 157.982 212.581 157.673 212.823L154.966 214.942C154.657 215.184 154.427 215.695 154.451 216.085L154.613 218.65C154.638 219.04 154.443 219.59 154.192 219.891C153.748 220.419 153.329 220.973 152.935 221.547C152.714 221.87 152.225 222.122 151.833 222.103L150.093 222.018C149.701 221.998 149.254 222.272 149.094 222.629L147.457 226.28C147.297 226.637 147.46 227.051 147.822 227.204L149.228 227.8C149.589 227.953 149.797 228.384 149.711 228.765C149.576 229.352 149.475 229.935 149.409 230.507C149.364 230.895 149.111 231.426 148.823 231.69L146.424 233.886C146.135 234.15 145.955 234.676 146.021 235.062L146.472 237.666C146.539 238.052 146.859 238.189 147.187 237.974L149.584 236.404C149.912 236.189 150.321 236.301 150.546 236.62C150.691 236.826 150.847 237.016 151.013 237.189C151.283 237.472 151.43 237.959 151.294 238.326L150.072 241.617C149.936 241.983 150.136 242.35 150.519 242.435L152.326 242.837C152.709 242.922 153.167 242.71 153.35 242.365L155.048 239.143C155.231 238.796 155.694 238.471 156.075 238.374C156.439 238.282 156.81 238.161 157.187 238.008C157.551 237.862 157.928 238.023 158.041 238.397L158.652 240.415C158.765 240.79 159.107 240.897 159.416 240.656L162.123 238.536C162.432 238.295 162.661 237.783 162.638 237.393L162.476 234.829C162.451 234.438 162.646 233.888 162.897 233.588C163.341 233.06 163.761 232.505 164.155 231.931C164.376 231.609 164.864 231.356 165.256 231.375L166.996 231.461C167.388 231.48 167.836 231.206 167.996 230.85L169.632 227.198C169.792 226.841 169.629 226.427 169.268 226.275L167.862 225.678C167.502 225.525 167.293 225.094 167.38 224.713C167.514 224.126 167.615 223.544 167.681 222.971C167.726 222.583 167.978 222.053 168.268 221.788L170.667 219.593C170.954 219.329 171.135 218.802 171.068 218.417ZM159.507 232.294C156.573 234.591 153.763 233.965 153.233 230.897C152.702 227.829 154.651 223.481 157.585 221.184C160.519 218.888 163.328 219.513 163.859 222.58C164.389 225.649 162.44 229.997 159.507 232.294Z" fill="#27DEBF"></path><path d="M144.246 209.038L141.439 207.427V207.43C141.323 207.364 141.17 207.36 140.999 207.436L135.929 209.711C135.571 209.872 135.203 209.694 135.085 209.321C134.79 208.394 134.41 207.559 133.955 206.819C133.75 206.486 133.703 205.946 133.878 205.596L137.257 198.813C137.431 198.463 137.297 198.021 136.957 197.826L133.289 195.718C132.949 195.523 132.498 195.628 132.281 195.953L128.07 202.258C127.852 202.583 127.359 202.813 126.967 202.803C126.49 202.79 125.998 202.815 125.495 202.871V198.261L122.682 196.646V196.647C122.557 196.581 122.393 196.589 122.221 196.688L116.525 199.962C116.186 200.157 115.881 200.632 115.846 201.02L115.276 207.33C115.241 207.719 114.972 208.243 114.684 208.508C113.576 209.524 112.517 210.644 111.519 211.842C111.269 212.143 110.771 212.287 110.4 212.158L106.745 210.886C106.374 210.757 105.915 210.927 105.718 211.266L101.531 218.486C101.334 218.824 101.416 219.305 101.714 219.56L104.648 222.077C104.945 222.331 105.069 222.834 104.933 223.2C104.389 224.659 103.944 226.132 103.614 227.596C103.529 227.977 103.207 228.47 102.886 228.694L97.6828 232.341C97.3618 232.566 97.1016 233.065 97.1016 233.456V240.003C97.1016 240.205 97.1798 240.351 97.3038 240.424L97.3023 240.425L100.108 242.036L104.275 240.073C104.436 240.409 104.607 240.733 104.794 241.036C104.999 241.37 105.045 241.91 104.87 242.259L101.492 249.042C101.317 249.392 101.451 249.835 101.792 250.03L105.459 252.138C105.799 252.333 106.25 252.228 106.468 251.902L110.679 245.598C110.896 245.272 111.389 245.042 111.782 245.053C112.653 245.075 113.57 244.986 114.524 244.776C114.907 244.692 115.245 244.92 115.284 245.309L115.84 250.818C115.859 251.006 115.941 251.138 116.059 251.204L116.057 251.205L118.858 252.813L122.222 247.894C122.562 247.699 122.866 247.225 122.901 246.836L123.472 240.526C123.506 240.137 123.838 239.723 124.201 239.572C125.828 238.894 127.473 237.721 128.625 236.482C128.891 236.196 129.389 236.052 129.759 236.181L132.004 236.968C132.374 237.098 132.834 236.928 133.029 236.59L137.217 229.37C137.413 229.031 137.331 228.55 137.034 228.295L135.105 226.641C134.808 226.386 134.685 225.884 134.792 225.508C135.254 223.893 135.359 221.78 135.315 220.276C135.304 219.886 135.541 219.386 135.862 219.162L141.065 215.515C141.387 215.29 141.647 214.791 141.647 214.401L144.133 211.433L144.246 209.038ZM119.374 234.989C114.06 238.044 110.756 235.876 110.756 229.767C110.756 223.658 115.148 216.175 120.462 213.121C125.776 210.066 128.996 212.288 128.996 218.397C128.996 224.507 124.688 231.935 119.374 234.989Z" fill="#27DEBF"></path><path opacity="0.1" d="M144.246 209.038L141.439 207.427V207.43C141.323 207.364 141.17 207.36 140.999 207.436L135.929 209.711C135.571 209.872 135.203 209.694 135.085 209.321C134.79 208.394 134.41 207.559 133.955 206.819C133.75 206.486 133.703 205.946 133.878 205.596L137.257 198.813C137.431 198.463 137.297 198.021 136.957 197.826L133.289 195.718C132.949 195.523 132.498 195.628 132.281 195.953L128.07 202.258C127.852 202.583 127.359 202.813 126.967 202.803C126.49 202.79 125.998 202.815 125.495 202.871V198.261L122.682 196.646V196.647C122.557 196.581 122.393 196.589 122.221 196.688L116.525 199.962C116.186 200.157 115.881 200.632 115.846 201.02L115.276 207.33C115.241 207.719 114.972 208.243 114.684 208.508C113.576 209.524 112.517 210.644 111.519 211.842C111.269 212.143 110.771 212.287 110.4 212.158L106.745 210.886C106.374 210.757 105.915 210.927 105.718 211.266L101.531 218.486C101.334 218.824 101.416 219.305 101.714 219.56L104.648 222.077C104.945 222.331 105.069 222.834 104.933 223.2C104.389 224.659 103.944 226.132 103.614 227.596C103.529 227.977 103.207 228.47 102.886 228.694L97.6828 232.341C97.3618 232.566 97.1016 233.065 97.1016 233.456V240.003C97.1016 240.205 97.1798 240.351 97.3038 240.424L97.3023 240.425L100.108 242.036L104.275 240.073C104.436 240.409 104.607 240.733 104.794 241.036C104.999 241.37 105.045 241.91 104.87 242.259L101.492 249.042C101.317 249.392 101.451 249.835 101.792 250.03L105.459 252.138C105.799 252.333 106.25 252.228 106.468 251.902L110.679 245.598C110.896 245.272 111.389 245.042 111.782 245.053C112.653 245.075 113.57 244.986 114.524 244.776C114.907 244.692 115.245 244.92 115.284 245.309L115.84 250.818C115.859 251.006 115.941 251.138 116.059 251.204L116.057 251.205L118.858 252.813L122.222 247.894C122.562 247.699 122.866 247.225 122.901 246.836L123.472 240.526C123.506 240.137 123.838 239.723 124.201 239.572C125.828 238.894 127.473 237.721 128.625 236.482C128.891 236.196 129.389 236.052 129.759 236.181L132.004 236.968C132.374 237.098 132.834 236.928 133.029 236.59L137.217 229.37C137.413 229.031 137.331 228.55 137.034 228.295L135.105 226.641C134.808 226.386 134.685 225.884 134.792 225.508C135.254 223.893 135.359 221.78 135.315 220.276C135.304 219.886 135.541 219.386 135.862 219.162L141.065 215.515C141.387 215.29 141.647 214.791 141.647 214.401L144.133 211.433L144.246 209.038ZM119.374 234.989C114.06 238.044 110.756 235.876 110.756 229.767C110.756 223.658 115.148 216.175 120.462 213.121C125.776 210.066 128.996 212.288 128.996 218.397C128.996 224.507 124.688 231.935 119.374 234.989Z" fill="black"></path><path d="M136.142 201.057L137.26 198.814C137.435 198.464 137.301 198.022 136.96 197.826L133.293 195.719C132.953 195.523 132.501 195.629 132.284 195.954L128.073 202.259C128.005 202.361 127.904 202.448 127.793 202.527L132.507 205.236L136.142 201.057Z" fill="#27DEBF"></path><path d="M103.288 228.269C103.166 228.44 103.028 228.596 102.886 228.694L97.6827 232.341C97.5515 232.433 97.437 232.575 97.3398 232.733L100.515 234.557L107.423 230.645L103.288 228.269Z" fill="#27DEBF"></path><path d="M106.452 210.844C106.159 210.855 105.866 211.013 105.719 211.266L101.532 218.486C101.44 218.643 101.415 218.832 101.437 219.013L105.047 221.088L110.778 213.368L106.452 210.844Z" fill="#27DEBF"></path><path d="M115.957 200.645L120.423 203.212L125.496 200.296V198.261L122.682 196.647V196.647C122.558 196.582 122.394 196.59 122.222 196.689L116.526 199.963C116.291 200.097 116.081 200.365 115.957 200.645Z" fill="#27DEBF"></path><path d="M144.252 209.039V209.044C144.139 208.969 143.978 208.964 143.802 209.044L138.732 211.318C138.377 211.478 138.008 211.303 137.889 210.931C137.69 210.294 137.448 209.704 137.164 209.158L141.002 207.436C141.173 207.36 141.329 207.365 141.443 207.431V207.426L144.252 209.039Z" fill="#27DEBF"></path><g opacity="0.4"><path d="M136.142 201.057L137.26 198.814C137.435 198.464 137.301 198.022 136.96 197.826L133.293 195.719C132.953 195.523 132.501 195.629 132.284 195.954L128.073 202.259C128.005 202.361 127.904 202.448 127.793 202.527L132.507 205.236L136.142 201.057Z" fill="white"></path><path d="M103.288 228.269C103.166 228.44 103.028 228.596 102.886 228.694L97.6827 232.341C97.5515 232.433 97.437 232.575 97.3398 232.733L100.515 234.557L107.423 230.645L103.288 228.269Z" fill="white"></path><path d="M106.452 210.844C106.159 210.855 105.866 211.013 105.719 211.266L101.532 218.486C101.44 218.643 101.415 218.832 101.437 219.013L105.047 221.088L110.778 213.368L106.452 210.844Z" fill="white"></path><path d="M115.957 200.645L120.423 203.212L125.496 200.296V198.261L122.682 196.647V196.647C122.558 196.582 122.394 196.59 122.222 196.689L116.526 199.963C116.291 200.097 116.081 200.365 115.957 200.645Z" fill="white"></path><path d="M144.252 209.039V209.044C144.139 208.969 143.978 208.964 143.802 209.044L138.732 211.318C138.377 211.478 138.008 211.303 137.889 210.931C137.69 210.294 137.448 209.704 137.164 209.158L141.002 207.436C141.173 207.36 141.329 207.365 141.443 207.431V207.426L144.252 209.039Z" fill="white"></path></g><path d="M144.451 216.009V209.461C144.451 209.07 144.162 208.884 143.803 209.044L138.734 211.319C138.376 211.48 138.007 211.303 137.889 210.93C137.594 210.003 137.215 209.168 136.759 208.428C136.554 208.095 136.507 207.555 136.682 207.205L140.061 200.422C140.236 200.072 140.101 199.63 139.761 199.435L136.094 197.327C135.754 197.131 135.303 197.237 135.085 197.562L130.874 203.867C130.656 204.192 130.163 204.422 129.771 204.411C128.9 204.389 127.983 204.479 127.029 204.689C126.646 204.773 126.308 204.544 126.269 204.155L125.713 198.647C125.674 198.258 125.367 198.102 125.027 198.297L119.331 201.57C118.991 201.766 118.687 202.24 118.652 202.629L118.081 208.938C118.046 209.327 117.778 209.852 117.489 210.116C116.381 211.132 115.322 212.252 114.325 213.45C114.074 213.751 113.576 213.895 113.206 213.766L109.549 212.494C109.179 212.365 108.719 212.536 108.523 212.874L104.335 220.095C104.139 220.433 104.221 220.914 104.519 221.169L107.453 223.686C107.75 223.941 107.874 224.443 107.737 224.808C107.194 226.267 106.749 227.74 106.419 229.203C106.334 229.585 106.012 230.078 105.691 230.302L100.488 233.948C100.166 234.174 99.9062 234.673 99.9062 235.063V241.61C99.9062 242.001 100.196 242.187 100.554 242.027L105.624 239.752C105.982 239.591 106.35 239.769 106.468 240.142C106.763 241.069 107.143 241.904 107.598 242.645C107.803 242.978 107.85 243.518 107.675 243.868L104.296 250.651C104.122 251 104.256 251.443 104.596 251.638L108.264 253.746C108.604 253.941 109.055 253.836 109.272 253.511L113.484 247.206C113.702 246.881 114.194 246.651 114.587 246.661C115.458 246.683 116.375 246.593 117.329 246.384C117.712 246.299 118.05 246.528 118.089 246.917L118.645 252.425C118.684 252.814 118.992 252.971 119.332 252.775L125.028 249.501C125.367 249.306 125.672 248.832 125.707 248.443L126.277 242.133C126.313 241.744 126.581 241.22 126.869 240.955C127.977 239.939 129.036 238.819 130.033 237.622C130.283 237.321 130.782 237.176 131.152 237.306L134.808 238.576C135.179 238.705 135.638 238.535 135.835 238.197L140.022 230.977C140.219 230.638 140.137 230.157 139.839 229.902L136.905 227.386C136.608 227.131 136.484 226.629 136.62 226.263C137.164 224.804 137.609 223.331 137.939 221.868C138.024 221.487 138.346 220.994 138.667 220.769L143.87 217.123C144.191 216.899 144.451 216.399 144.451 216.009ZM122.178 236.597C116.864 239.651 112.556 237.175 112.556 231.067C112.556 224.958 116.864 217.53 122.178 214.475C127.492 211.421 131.801 213.896 131.801 220.005C131.801 226.114 127.492 233.542 122.178 236.597Z" fill="#27DEBF"></path><path d="M210.036 93.3242H233.7V72.2086C233.7 65.7036 228.403 60.4294 221.868 60.4294C215.333 60.4294 210.035 65.7028 210.035 72.2086L210.036 93.3242Z" fill="#263238"></path><path d="M217.473 87.597L200.538 88.2398C199.946 87.7362 196.595 83.7564 196.595 83.7564C196.595 83.7564 187.392 82.5818 187.336 82.9144C187.28 83.247 196.389 92.944 197.29 93.9224C197.789 94.4642 198.245 94.8971 199.44 94.9686C201.822 95.1107 214.944 95.9318 214.944 95.9318L217.473 87.597Z" fill="#FFA8A7"></path><path d="M130.233 163.597L129.727 163.307C128.92 162.843 128.266 161.714 128.266 160.786V108.984C128.266 108.056 128.92 106.928 129.727 106.464L196.566 68.0535C197.373 67.5896 198.682 67.5896 199.489 68.0535L199.993 68.3436C200.801 68.8075 201.455 69.936 201.455 70.8638V122.667C201.455 123.595 200.801 124.723 199.993 125.187L133.155 163.597C132.348 164.061 131.039 164.061 130.233 163.597Z" fill="#27DEBF"></path><path opacity="0.4" d="M201.439 70.6293C201.34 69.8746 200.727 69.6005 199.993 70.0196L133.15 108.436C132.745 108.665 132.385 109.069 132.117 109.518L128.695 107.552C128.956 107.095 129.323 106.699 129.729 106.463L196.563 68.0543C197.375 67.5896 198.684 67.5896 199.487 68.0543L199.992 68.3436C200.727 68.77 201.347 69.7534 201.439 70.6293Z" fill="white"></path><path opacity="0.1" d="M132.909 163.711C132.105 164.053 130.964 164.015 130.237 163.597L129.724 163.307C128.92 162.843 128.27 161.715 128.27 160.785V108.985C128.27 108.521 128.43 108.003 128.698 107.552L132.12 109.518C131.859 109.976 131.691 110.494 131.691 110.951V162.759C131.692 163.589 132.22 163.978 132.909 163.711Z" fill="black"></path><path d="M138.448 111.289L143.475 108.399C143.841 108.189 144.138 108.36 144.138 108.78L144.137 114.404C144.137 114.825 143.838 115.334 143.471 115.542L138.451 118.366C138.083 118.573 137.785 118.4 137.785 117.98V112.433C137.784 112.011 138.082 111.5 138.448 111.289Z" fill="#FAFAFA"></path><path d="M142.82 114.741C142.654 114.836 142.495 114.845 142.386 114.762L140.832 113.591C140.624 113.435 140.65 113.004 140.89 112.627C141.13 112.25 141.493 112.073 141.699 112.229L142.782 113.044L145.79 106.609C145.978 106.207 146.337 105.938 146.592 106.007C146.848 106.075 146.903 106.457 146.716 106.858L143.282 114.205C143.179 114.427 143.017 114.619 142.842 114.727C142.835 114.732 142.828 114.736 142.82 114.741Z" fill="#37474F"></path><path d="M138.448 123.55L143.475 120.661C143.841 120.45 144.138 120.621 144.138 121.042L144.137 126.666C144.137 127.086 143.838 127.596 143.471 127.803L138.451 130.628C138.083 130.835 137.785 130.661 137.785 130.24V124.693C137.784 124.273 138.082 123.761 138.448 123.55Z" fill="#FAFAFA"></path><path d="M142.82 127.002C142.654 127.098 142.495 127.106 142.386 127.023L140.832 125.853C140.624 125.697 140.65 125.265 140.89 124.889C141.13 124.511 141.493 124.334 141.699 124.49L142.782 125.306L145.79 118.871C145.978 118.469 146.337 118.2 146.592 118.268C146.848 118.337 146.903 118.718 146.716 119.12L143.282 126.467C143.179 126.688 143.017 126.88 142.842 126.988C142.835 126.993 142.828 126.998 142.82 127.002Z" fill="#37474F"></path><path d="M138.448 135.811L143.475 132.922C143.841 132.711 144.138 132.882 144.138 133.303L144.137 138.927C144.137 139.348 143.838 139.857 143.471 140.064L138.451 142.889C138.083 143.096 137.785 142.923 137.785 142.502V136.954C137.784 136.534 138.082 136.022 138.448 135.811Z" fill="#FAFAFA"></path><path d="M142.82 139.263C142.654 139.359 142.495 139.367 142.386 139.285L140.832 138.115C140.624 137.959 140.65 137.527 140.89 137.151C141.13 136.773 141.493 136.596 141.699 136.752L142.782 137.568L145.79 131.132C145.978 130.73 146.337 130.461 146.592 130.529C146.848 130.598 146.903 130.98 146.716 131.381L143.282 138.728C143.179 138.949 143.017 139.141 142.842 139.249C142.835 139.255 142.828 139.259 142.82 139.263Z" fill="#37474F"></path><path d="M138.448 148.106L143.475 145.216C143.841 145.006 144.138 145.177 144.138 145.597L144.137 151.221C144.137 151.642 143.838 152.151 143.471 152.359L138.451 155.183C138.083 155.39 137.785 155.217 137.785 154.796V149.25C137.784 148.827 138.082 148.316 138.448 148.106Z" fill="#FAFAFA"></path><path d="M142.82 151.558C142.654 151.654 142.495 151.662 142.386 151.579L140.832 150.409C140.624 150.253 140.65 149.822 140.89 149.445C141.13 149.068 141.493 148.89 141.699 149.047L142.782 149.862L145.79 143.427C145.978 143.025 146.337 142.756 146.592 142.825C146.848 142.893 146.903 143.275 146.716 143.676L143.282 151.023C143.179 151.244 143.017 151.436 142.842 151.545C142.835 151.548 142.828 151.553 142.82 151.558Z" fill="#37474F"></path><path d="M150.355 106.011C150.355 106.692 150.949 106.902 151.681 106.482L170.795 95.4967C171.527 95.0761 172.12 94.1829 172.12 93.5018C172.12 92.8207 171.527 92.61 170.795 93.0306L151.682 104.016C150.95 104.438 150.356 105.331 150.355 106.011Z" fill="#455A64"></path><path d="M150.355 110.143C150.355 110.824 150.949 111.034 151.681 110.614L192.559 87.1525C193.291 86.7318 193.885 85.8386 193.885 85.1575C193.885 84.4764 193.291 84.2657 192.559 84.6864L151.682 108.149C150.95 108.57 150.356 109.463 150.355 110.143Z" fill="#F0F0F0"></path><path d="M150.355 118.005C150.355 118.686 150.949 118.897 151.681 118.476L170.795 107.491C171.527 107.07 172.12 106.177 172.12 105.496C172.12 104.815 171.527 104.604 170.795 105.025L151.682 116.011C150.95 116.432 150.356 117.325 150.355 118.005Z" fill="#455A64"></path><path d="M150.355 122.138C150.355 122.818 150.949 123.029 151.681 122.608L192.559 99.1468C193.291 98.7262 193.885 97.8329 193.885 97.1518C193.885 96.4707 193.291 96.2601 192.559 96.6807L151.681 120.143C150.95 120.564 150.356 121.457 150.355 122.138Z" fill="#F0F0F0"></path><path d="M150.355 130.762C150.355 131.443 150.949 131.653 151.681 131.233L170.795 120.248C171.527 119.827 172.12 118.934 172.12 118.253C172.12 117.572 171.527 117.361 170.795 117.783L151.682 128.768C150.95 129.189 150.356 130.082 150.355 130.762Z" fill="#455A64"></path><path d="M150.355 134.894C150.355 135.575 150.949 135.786 151.681 135.365L192.559 111.904C193.291 111.483 193.885 110.59 193.885 109.909C193.885 109.228 193.291 109.017 192.559 109.438L151.681 132.899C150.95 133.321 150.356 134.214 150.355 134.894Z" fill="#F0F0F0"></path><path d="M150.355 143.519C150.355 144.2 150.949 144.41 151.681 143.99L170.795 133.005C171.527 132.584 172.12 131.691 172.12 131.01C172.12 130.329 171.527 130.118 170.795 130.539L151.682 141.524C150.95 141.946 150.356 142.839 150.355 143.519Z" fill="#455A64"></path><path d="M150.355 147.651C150.355 148.332 150.949 148.542 151.681 148.122L192.559 124.661C193.291 124.24 193.885 123.347 193.885 122.666C193.885 121.985 193.291 121.774 192.559 122.195L151.681 145.656C150.95 146.079 150.356 146.971 150.355 147.651Z" fill="#F0F0F0"></path><path d="M209.823 202.15C208.457 203.638 206.951 204.831 205.334 206.036C205.093 206.217 204.842 206.407 204.711 206.678C204.499 207.116 204.17 208.201 206.178 208.898C208.139 209.58 210.585 209.42 212.371 208.307C214.02 207.279 214.093 205.142 215.649 203.924C216.802 203.021 218.241 202.789 219.172 201.61C219.821 200.789 219.652 199.695 219.314 198.342C218.945 196.865 218.774 195.747 218.283 195.861L218.364 196.541C217.751 197.514 214.574 197.802 213.161 197.129C213.161 197.129 210.714 201.178 209.823 202.15Z" fill="#263238"></path><path d="M208.43 203.531C208.43 203.53 208.43 203.523 208.43 203.52C208.907 203.085 209.374 202.637 209.823 202.148C210.397 201.522 211.618 199.618 212.415 198.344C212.899 197.569 213.252 196.643 213.141 195.622C213.03 194.601 212.746 191.981 212.746 191.981L217.779 191.627L218.364 196.54C218.485 197.653 217.561 198.642 215.923 200.046C214.286 201.451 212.206 204.727 210.724 205.551C209.241 206.375 208.181 206.345 207.549 205.924C206.897 205.489 206.832 205.156 208.43 203.531Z" fill="#FFA8A7"></path><path d="M232.426 202.598V201.844C232.128 202.727 230.744 206.53 228.646 208.435C226.977 209.95 224.702 211.7 224.123 213.388C223.521 215.145 227.29 215.735 228.849 215.461C230.66 215.141 233.003 214.119 234.278 212.559C235.174 211.462 235.746 210.162 236.386 209.3C237.026 208.437 238.503 207.474 238.848 206.476C239.038 205.928 238.813 204.727 238.545 203.712C238.3 202.782 238.034 201.758 237.716 201.845C237.715 201.958 237.716 202.419 237.716 202.419C237.331 202.843 236.27 203.264 235.072 203.309C234.298 203.338 232.42 203.185 232.426 202.598Z" fill="#263238"></path><path d="M227.139 209.768C227.656 209.308 228.177 208.859 228.649 208.43C230.116 207.098 231.233 204.841 231.875 203.3C232.241 202.421 232.43 201.482 232.43 200.53V197.529H237.718V202.414V202.544L237.692 202.558C237.437 203.652 235.01 206.562 233.631 208.46C232.707 209.732 230.95 211.35 228.852 211.629C226.863 211.893 225.846 211.269 227.139 209.768Z" fill="#FFA8A7"></path><path d="M236.666 120.772C240.766 129.687 236.518 161.092 236.518 161.092C236.641 162.538 238.303 165.385 238.922 171.753C239.653 179.276 237.775 198.167 237.775 198.167C237.775 198.167 235.326 199.761 232.429 198.378C232.429 198.378 227.389 169.926 226.441 162.447C225.614 155.918 224.026 140.573 224.026 140.573L219.268 162.454C219.268 162.454 220.242 166.025 220.195 168.936C220.121 173.356 218.052 192.72 218.052 192.72C218.052 192.72 216.211 193.794 212.747 193.286C212.747 193.286 209.411 167.841 209.51 161.909C209.563 158.734 210.954 124.94 210.954 124.94L236.666 120.772Z" fill="#27DEBF"></path><g opacity="0.15"><path d="M224.025 140.574L222.693 133.284C222.693 133.284 217.062 132.122 214.508 129.732C214.508 129.732 217.187 133.05 221.168 134.137L222.663 140.512L219.959 159.272L224.025 140.574Z" fill="#263238"></path></g><path d="M224.509 61.1487L224.782 58.0607C223.911 57.9554 223.144 58.5614 223.068 59.4142C222.993 60.2678 223.637 61.0441 224.509 61.1487Z" fill="#263238"></path><path d="M224.678 61.4612L227.19 59.6285C226.695 58.9077 225.731 58.7331 225.037 59.2396C224.344 59.7454 224.183 60.7404 224.678 61.4612Z" fill="#263238"></path><path d="M227.286 87.8199C227.286 87.8199 233.325 88.3415 234.176 88.7211C229.842 93.4447 236.433 95.4044 236.433 95.4044L231.92 111.484C234.627 115.599 236.359 118.783 237.379 122.837C234.332 128.18 217.219 128.923 210.947 124.941C211.493 117.482 212.709 112.143 212.304 109.904C210.168 100.758 210.247 98.8272 210.526 96.7362C211.074 92.6511 215.147 89.0897 217.474 87.597C217.474 87.597 219.217 87.597 219.646 87.597L227.286 87.8199Z" fill="#37474F"></path><path d="M215.011 66.1855C213.736 66.9359 212.16 70.1286 212.315 76.8212C212.447 82.4937 214.294 83.8949 215.222 84.2989C216.149 84.703 217.937 84.4569 219.676 84.1683V87.5724C219.676 87.5724 217.273 90.3509 217.424 91.9122C217.576 93.4729 220.895 93.8423 223.143 92.317C225.392 90.7917 227.286 87.8199 227.286 87.8199L227.246 79.9922C227.246 79.9922 228.27 80.9814 230.005 79.4713C231.437 78.2246 231.92 76.1221 230.804 74.9944C229.687 73.866 227.624 74.1733 226.833 75.7823C226.356 76.8126 225.268 76.8299 225.258 75.6553C225.205 69.6228 224.489 69.3024 223.881 66.8298C220.262 65.6516 217.672 66.0838 215.011 66.1855Z" fill="#FFA8A7"></path><path d="M218.677 75.3956C218.656 75.8046 218.96 76.151 219.355 76.1697C219.75 76.1885 220.087 75.8725 220.108 75.4634C220.129 75.055 219.825 74.7079 219.43 74.6899C219.035 74.6712 218.698 74.9872 218.677 75.3956Z" fill="#263238"></path><path d="M218.488 80.2044L216.824 80.7325C216.963 81.2065 217.447 81.4728 217.906 81.327C218.366 81.1813 218.626 80.6784 218.488 80.2044Z" fill="#F28F8F"></path><path d="M212.917 73.5038L214.367 72.5038C214.102 72.0918 213.563 71.9814 213.163 72.2577C212.763 72.5341 212.653 73.0918 212.917 73.5038Z" fill="#263238"></path><path d="M220.766 73.7339L219.316 72.7332C219.581 72.3212 220.12 72.2108 220.52 72.4872C220.92 72.7635 221.03 73.3219 220.766 73.7339Z" fill="#263238"></path><path d="M213.142 74.8804C213.121 75.2895 213.425 75.6358 213.82 75.6546C214.215 75.6733 214.552 75.3573 214.573 74.9482C214.594 74.5391 214.29 74.1928 213.895 74.1748C213.499 74.1553 213.162 74.4713 213.142 74.8804Z" fill="#263238"></path><path d="M216.517 74.472L216.403 78.7657L214.133 78.0658L216.517 74.472Z" fill="#F28F8F"></path><path d="M219.68 84.1683C221.513 83.9288 225.283 82.8509 225.87 81.3675C225.87 81.3675 225.674 82.2996 224.548 83.2607C223.422 84.2217 219.68 85.304 219.68 85.304V84.1683H219.68Z" fill="#F28F8F"></path><path d="M218.785 61.2151C213.299 61.2151 208.852 65.6423 208.852 71.1041V72.3862H213.713C215.975 72.3862 217.89 70.7217 218.195 68.4893L218.373 72.3862C220.238 72.3862 221.794 70.967 221.956 69.117L222.012 68.4821C222.189 70.687 224.038 72.3862 226.261 72.3862H226.691L227.189 65.3991L218.785 61.2151Z" fill="#263238"></path><path d="M230.222 91.3632C228.87 93.348 221.184 110.12 221.184 110.12C221.184 110.12 209.592 109.341 204.685 108.821C203.139 108.658 203.485 107.009 202.865 105.376C202.244 103.743 201.46 104.064 201.46 104.064V106.24C201.511 107.706 199.083 108.49 198.043 108.893C196.329 109.556 194.454 109.979 192.687 110.526C192.088 110.712 191.436 110.938 191.117 111.474C190.828 111.959 190.896 112.596 191.171 113.09C191.972 114.528 193.537 115.323 195.137 115.512C197.111 115.746 199.024 115.181 200.941 114.841C203.21 114.438 204.938 114.117 207.186 114.415C209.342 114.701 212.157 115.295 214.298 115.681C216.764 116.126 220.429 116.548 222.577 116.638C224.125 116.703 225.243 116.404 226.582 114.528C227.921 112.651 235.267 97.5544 235.267 97.5544C238.335 93.2124 236.574 89.5579 234.299 88.7823C232.873 88.2946 231.573 89.3776 230.222 91.3632Z" fill="#FFA8A7"></path><path d="M183.421 75.2015C184.009 75.2823 184.587 75.423 185.141 75.6192C186.55 76.1185 187.825 77.0529 188.606 78.3234C188.95 78.8833 189.111 79.7318 189.027 80.3819C189.003 80.5659 188.959 80.7506 188.866 80.9115C188.691 81.2152 188.367 81.397 188.058 81.5644C186.777 82.2585 185.868 82.3119 184.573 81.6164C183.137 80.8444 181.675 80.081 180.106 79.6128C179.32 79.3783 178.511 79.2224 177.691 79.1864C177.158 79.1625 176.849 79.3985 176.398 79.6575C176.111 78.9208 176.27 78.3588 176.726 77.7217C177.503 76.6373 178.674 75.8595 179.951 75.4634C181.065 75.1171 182.261 75.042 183.421 75.2015Z" fill="#FFA8A7"></path><path d="M55.2242 124.897C59.4212 124.897 62.8235 121.51 62.8235 117.332C62.8235 113.154 59.4212 109.767 55.2242 109.767C51.0273 109.767 47.625 113.154 47.625 117.332C47.625 121.51 51.0273 124.897 55.2242 124.897Z" fill="#263238"></path><path d="M37.0218 254.463H42.375V245.34H37.0218V254.463Z" fill="#FFA8A7"></path><path d="M55.5859 244.853L60.9355 245.036L61.2036 235.383L55.5859 235.199V244.853Z" fill="#FFA8A7"></path><path d="M37.3773 167.154C37.3773 172.242 36.7163 208.953 36.7163 208.953C36.5916 210.416 35.2124 213.116 35.511 218.74C35.9161 226.38 36.7967 249.902 36.7967 249.902C36.7967 249.902 39.395 251.413 42.7565 250.018C42.7565 250.018 47.4798 218.766 48.4394 211.196C49.2765 204.588 50.6964 186.639 50.6964 186.639L53.5984 208.209C53.5984 208.209 52.6119 212.15 52.9352 216.678C53.1852 220.18 55.2465 241.863 55.2465 241.863C55.2465 241.863 57.7658 243.565 61.4273 242.333C61.4273 242.333 64.1322 211.421 64.1945 208.208C64.2648 204.545 62.4145 167.153 62.4145 167.153L37.3773 167.154Z" fill="#37474F"></path><path d="M61.6796 136.182C64.8178 138.752 70.487 143.963 70.487 143.963L61.6411 148.809L56.0234 133.79C56.0234 133.79 58.2282 133.357 61.6796 136.182Z" fill="#27DEBF"></path><path opacity="0.1" d="M61.6796 136.182C64.8178 138.752 70.487 143.963 70.487 143.963L61.6411 148.809L56.0234 133.79C56.0234 133.79 58.2282 133.357 61.6796 136.182Z" fill="black"></path><path d="M39.1992 137.452C39.1992 137.452 37.1966 139.448 37.1966 144.283V154.723L37.043 174.439C44.7263 178.47 54.4281 178.704 62.6252 172.745C62.6252 172.745 62.2331 147.404 62.2331 143.253C62.2331 139.102 59.9095 133.707 53.5127 133.337L45.2546 135.246L39.1992 137.452Z" fill="#27DEBF"></path><path d="M42.0938 122.711C42.0938 122.711 43.3251 128.471 43.8187 129.417C44.3123 130.363 45.3327 130.632 45.3327 130.632L45.2465 126.581L42.0938 122.711Z" fill="#263238"></path><path d="M43.6321 114.46C43.6321 114.46 42.3058 114.233 41.2715 115.286C40.2583 116.318 40.8244 119.548 42.0862 122.711L44.4062 122.976L43.6321 114.46Z" fill="#263238"></path><path d="M45.1047 122.978C44.6394 123.254 43.9762 122.365 43.4022 121.767C42.8289 121.17 40.9561 120.353 40.0219 122.313C39.0703 124.31 40.8467 126.948 42.3209 127.409C44.8612 128.202 45.2431 126.58 45.2431 126.58L45.4374 135.703C45.4374 135.703 47.6269 139.302 53.2584 140.177C56.1365 140.625 56.8358 137.836 53.7027 135.462L53.6954 132.686C53.6954 132.686 55.9973 133.034 57.1207 132.86C58.9891 132.573 60.1647 131.106 60.7315 129.092C61.6418 125.858 61.9875 123.247 61.2149 116.888C60.3684 109.917 52.2241 109.844 47.8262 112.6C43.4276 115.356 45.1047 122.978 45.1047 122.978Z" fill="#FFA8A7"></path><path d="M45.1011 123.757C44.867 123.762 43.9777 122.293 43.3986 121.767C42.5963 121.041 43.6313 114.46 43.6313 114.46C43.6313 114.46 42.8601 112.824 44.4053 111.132C45.5041 109.927 47.3414 109.794 50.4767 109.303C52.122 109.046 54.6166 108.588 56.2597 108.283C58.2216 107.92 59.8459 107.536 61.2309 108.734C62.3094 109.667 62.7732 111.315 62.1927 112.614C62.0564 112.919 61.8593 113.194 61.6353 113.443C61.2381 113.882 60.7888 114.228 60.2235 114.411C60.2235 114.411 59.3682 115.166 56.3916 115.527C53.4157 115.888 48.78 115.458 48.1466 115.371C47.2834 115.254 47.0993 116.086 46.634 118.361C46.2259 120.358 45.8875 123.742 45.1011 123.757Z" fill="#263238"></path><path d="M43.6402 114.972L40.8281 113.469C41.2275 112.667 42.1805 112.353 42.9568 112.768C43.7337 113.183 44.0396 114.17 43.6402 114.972Z" fill="#263238"></path><path d="M53.6949 132.686C53.6949 132.686 49.5239 131.85 48.0664 131.078C47.0901 130.561 46.2863 129.666 46.0508 129.093C46.0508 129.093 46.324 130.324 47.1959 131.434C48.262 132.791 53.6949 133.79 53.6949 133.79V132.686Z" fill="#F28F8F"></path><path d="M52.6909 121.94C52.6909 122.417 52.3169 122.803 51.8552 122.802C51.3935 122.801 51.0195 122.412 51.0195 121.935C51.0195 121.458 51.3935 121.072 51.8552 121.073C52.3169 121.075 52.6909 121.463 52.6909 121.94Z" fill="#263238"></path><path d="M51.8061 118.799L50.0181 119.781C49.7543 119.269 49.9413 118.635 50.4349 118.364C50.9284 118.093 51.5423 118.288 51.8061 118.799Z" fill="#263238"></path><path d="M53.3177 127.687L55.226 128.4C55.0368 128.945 54.457 129.226 53.9301 129.029C53.4025 128.833 53.1285 128.232 53.3177 127.687Z" fill="#F28F8F"></path><path d="M60.1456 119.492L58.5156 118.241C58.8483 117.777 59.4825 117.68 59.9326 118.025C60.3826 118.37 60.4783 119.026 60.1456 119.492Z" fill="#263238"></path><path d="M59.644 121.703C59.644 122.181 59.27 122.567 58.8083 122.565C58.3466 122.564 57.9727 122.176 57.9727 121.699C57.9727 121.221 58.3466 120.835 58.8083 120.837C59.27 120.837 59.644 121.225 59.644 121.703Z" fill="#263238"></path><path d="M55.3867 120.914L55.6607 125.918L58.2851 125.027L55.3867 120.914Z" fill="#F28F8F"></path><path d="M42.3799 251.832V251.07C42.8923 251.293 44.0823 255.812 46.2059 257.741C47.8946 259.274 50.198 261.044 50.7836 262.754C51.3931 264.531 47.5758 265.513 45.9986 265.235C44.1657 264.912 40.989 263.627 40.1918 262.436C39.3945 261.245 39.0205 259.488 38.3726 258.615C37.7247 257.742 36.2309 256.768 35.8801 255.757C35.6873 255.202 35.9164 253.987 36.1867 252.96C36.4346 252.018 36.7042 250.982 37.0267 251.07C37.0274 251.185 37.0267 251.651 37.0267 251.651C37.4152 252.08 38.4907 252.505 39.7033 252.552C40.4868 252.582 42.3864 252.427 42.3799 251.832Z" fill="#263238"></path><path d="M60.9905 243.394C61.2681 243.403 61.495 243.793 62.1081 244.454C62.8488 245.253 64.0614 246.114 65.2573 246.71C67.262 247.708 71.1583 249.245 72.9224 250.036C74.0241 250.53 73.9726 251.855 72.834 252.609C71.6954 253.363 68.9456 253.906 65.6436 253.171C63.8447 252.77 61.5037 251.117 60.0215 251.206C58.5394 251.295 55.7664 251.274 54.6727 250.523C53.579 249.773 54.0168 248.17 54.3255 246.793C54.6625 245.289 55.0851 242.945 55.5852 243.047V243.565C56.2288 244.536 59.5497 244.93 60.9637 244.216L60.9905 243.394Z" fill="#263238"></path><path d="M50.6953 186.639C50.6953 186.639 54.9736 185.439 58.1496 182.385C58.1496 182.385 56.7116 185.066 52.434 187.561L53.3487 206.364L50.6953 186.639Z" fill="#263238"></path><path d="M57.3694 206.829L56.8642 206.539C56.0568 206.075 55.4023 204.947 55.4023 204.019V152.216C55.4023 151.288 56.0568 150.16 56.8642 149.696L101.93 123.795C102.737 123.331 104.045 123.331 104.853 123.795L105.357 124.085C106.165 124.549 106.819 125.677 106.819 126.605V178.408C106.819 179.336 106.165 180.465 105.357 180.929L60.2924 206.829C59.485 207.293 58.176 207.293 57.3694 206.829Z" fill="#F5F5F5"></path><path d="M81.973 144.92C89.7832 140.431 96.1141 144.07 96.1141 153.047C96.1141 162.025 89.7832 172.942 81.973 177.431C74.1629 181.92 67.832 178.281 67.832 169.303C67.832 160.325 74.1629 149.408 81.973 144.92Z" fill="#455A64"></path><path d="M81.8769 151.985C84.4107 150.529 86.4647 151.71 86.4647 154.622C86.4647 157.535 84.4107 161.076 81.8769 162.532C79.3431 163.988 77.2891 162.808 77.2891 159.895C77.2891 156.983 79.3431 153.441 81.8769 151.985Z" fill="#27DEBF"></path><path d="M90.9147 167.515C90.9147 162.73 87.5395 160.79 83.3778 163.183L80.7752 164.679C76.6128 167.071 73.2383 172.89 73.2383 177.675V178.963C75.6445 179.758 78.6733 179.328 81.9732 177.431C85.3666 175.48 88.4788 172.315 90.9155 168.625L90.9147 167.515Z" fill="#27DEBF"></path><path d="M106.803 126.371C106.704 125.616 106.091 125.342 105.356 125.761L60.2872 151.669C59.8813 151.897 59.5218 152.301 59.2537 152.751L55.832 150.785C56.0922 150.327 56.4597 149.931 56.8656 149.695L101.927 123.795C102.739 123.331 104.047 123.331 104.851 123.795L105.356 124.085C106.091 124.512 106.711 125.495 106.803 126.371Z" fill="#FAFAFA"></path><path d="M60.0455 206.944C59.2417 207.287 58.1017 207.248 57.374 206.83L56.8609 206.541C56.0571 206.076 55.4062 204.948 55.4062 204.018V152.218C55.4062 151.754 55.5671 151.236 55.8353 150.786L59.257 152.752C58.9968 153.209 58.8286 153.727 58.8286 154.185V205.992C58.8286 206.822 59.357 207.21 60.0455 206.944Z" fill="#E0E0E0"></path><path d="M66.4258 193.913V193.941C66.4258 195.414 67.4644 196.011 68.7458 195.274L95.197 180.071C96.4784 179.334 97.5178 177.543 97.5178 176.07V176.043C97.5178 174.57 96.4799 173.973 95.1978 174.71L68.7451 189.913C67.4644 190.649 66.4258 192.441 66.4258 193.913Z" fill="#27DEBF"></path><path d="M30.6117 168.651C27.8663 166.752 27.9026 163.921 28.781 160.687C34.7603 138.68 36.5897 138.563 39.2025 137.452L41.2956 146.111L35.7069 164.141C39.891 167.097 44.1947 169.104 48.2092 169.978C48.9202 170.133 50.3632 170.041 50.9981 169.687C52.7006 168.734 53.6624 168.734 55.4055 168.268V171.106C55.4055 171.106 57.4341 171.445 60.0976 170.951C63.7077 170.281 65.2906 171.026 63.0808 175.141C61.6957 177.719 59.0061 178.569 52.2672 177.412C50.3255 177.079 47.3735 176.327 45.0086 175.53C38.8502 173.453 33.5826 170.706 30.6117 168.651Z" fill="#FFA8A7"></path><path d="M39.199 137.452C39.199 137.452 41.7683 139.057 42.3206 143.094C42.8728 147.131 38.9743 158.098 38.9743 158.098C38.9743 158.098 32.676 157.498 30.0625 154.409C30.0625 154.409 33.7037 144.378 34.3858 142.112C35.47 138.51 38.2068 137.814 39.199 137.452Z" fill="#27DEBF"></path><path opacity="0.1" d="M39.199 137.452C39.199 137.452 41.7683 139.057 42.3206 143.094C42.8728 147.131 38.9743 158.098 38.9743 158.098C38.9743 158.098 32.676 157.498 30.0625 154.409C30.0625 154.409 33.7037 144.378 34.3858 142.112C35.47 138.51 38.2068 137.814 39.199 137.452Z" fill="black"></path><path d="M106.819 138.867L106.818 142.071C106.818 142.071 105.076 144.709 103.207 145.678C101.337 146.648 101.35 150.542 103.68 151.09C106.01 151.638 109.206 148.779 109.477 147.206C109.748 145.633 109.157 138.698 106.819 138.867Z" fill="#FFA8A7"></path></svg>