<svg xmlns="http://www.w3.org/2000/svg" width="201" height="81" viewBox="0 0 201 81" fill="none"><path d="M42.2472 21.0347C42.2069 21.0347 42.1705 21.0347 42.1302 21.0347C42.1705 21.071 42.2069 21.071 42.2472 21.0347C42.2472 21.0347 42.4046 21.0347 42.7153 21.0347C42.4409 21.0347 42.2472 21.0347 42.2472 21.0347Z" fill="url(#paint0_linear_6_25)"></path><path d="M111.295 37.2114C111.138 37.0137 110.904 36.7796 110.396 36.7393C110.008 36.6989 109.617 36.7796 109.189 37.0137C108.564 37.3284 108.172 37.7965 107.821 38.1879C107.785 38.2686 107.704 38.3452 107.664 38.3856C107.47 38.6196 107.276 38.8133 107.079 39.0514C106.574 39.6365 106.066 40.2659 105.521 40.8147C105.17 41.2061 104.779 41.5572 104.387 41.9082C104.234 42.0656 104.077 42.1826 103.919 42.34C102.83 43.3568 101.66 44.2203 100.409 44.9628C99.396 45.5519 98.2258 46.024 96.7046 46.4921C96.1195 46.6494 95.6514 46.5324 95.1834 46.0603C94.7556 45.6285 94.5216 45.0435 94.4813 44.2607C94.4409 43.5545 94.5579 42.8484 94.9493 41.9889C95.3407 41.0487 95.9258 40.1852 96.7046 39.3258C97.4067 38.543 97.9514 37.7561 98.3832 36.8563C98.4598 36.7393 98.4598 36.5819 98.5002 36.5053L98.6535 35.9161L98.1855 35.6054C97.6811 35.2907 97.1323 35.2503 96.6279 35.6054L96.5472 35.6418C96.3535 35.7588 96.1599 35.8758 95.9621 36.0332C95.6111 36.3479 95.26 36.6626 94.909 36.9733C94.3643 37.4817 93.7792 37.9942 93.1941 38.5026C92.1409 39.4024 91.0071 40.3426 89.8773 41.2061C88.5901 42.1463 87.2625 43.0865 85.939 43.9863L85.8583 44.0629C84.2201 45.1605 82.9329 45.9029 81.6094 46.4517C80.984 46.7261 80.4755 46.8835 79.9712 46.8835C79.8541 46.8835 79.7371 46.8835 79.6201 46.8431C79.035 46.7261 78.8373 46.4154 78.7203 46.1773C78.5669 45.8263 78.4862 45.4349 78.4862 45.0435C78.4862 44.418 78.5669 43.7522 78.801 42.9654C78.918 42.574 79.0713 42.1463 79.2691 41.7145C79.3457 41.5572 79.3861 41.4401 79.4224 41.2828L79.5031 41.0851C79.6968 40.617 79.8904 40.1086 79.8541 39.4831C79.8138 38.8133 79.3054 38.3049 78.684 38.2282C78.7203 38.1879 78.7203 38.1475 78.7606 38.0709C79.152 37.3647 79.2287 36.5416 79.0713 35.6054C78.918 34.6653 78.0989 33.9188 77.1224 33.8421C76.1459 33.7614 75.1331 33.8784 73.9226 34.2335C72.3247 34.7016 70.9205 35.5247 69.8673 36.1905C69.1249 36.6626 68.4228 37.2114 67.7207 37.7198L67.527 37.8772C66.4738 38.6963 65.457 39.6768 64.2868 41.1254C64.2102 41.2061 64.1698 41.2828 64.1335 41.3594C64.0931 41.3998 64.0528 41.4805 64.0165 41.4805C63.2337 42.1463 62.6123 42.6547 61.9061 43.2035C61.5551 43.4779 61.204 43.7119 60.853 43.9459C60.736 44.0226 60.5826 44.1033 60.4656 44.2203C59.5658 44.8457 58.5933 45.3179 57.5402 45.6285C56.6404 45.9029 55.6679 46.1007 54.6914 46.2943C54.1063 46.4154 53.6383 46.375 53.2106 46.141C52.9362 46.024 52.7788 45.8666 52.7021 45.5519C52.5851 45.1201 52.6255 44.6924 52.7425 44.18C53.0935 42.691 53.5979 41.3231 54.3 40.0682C54.9255 38.9707 55.6276 37.8772 56.5234 36.6989C57.0721 35.9565 57.7742 35.093 58.4763 34.1932C59.4488 32.9786 60.3486 31.8811 61.2444 30.8239C62.2209 29.6497 63.04 28.7095 63.7824 27.85C64.2868 27.2609 64.8356 26.6355 65.3803 26.0867C65.6144 25.8527 65.8081 25.6146 66.0421 25.3402C66.1995 25.1869 66.3568 24.9892 66.5102 24.8318C66.8612 24.4404 67.2123 24.0893 67.527 23.6979C68.2654 23.7343 69.0079 23.7343 69.5526 23.7343C69.8673 23.7343 70.178 23.7343 70.5291 23.7343C70.8398 23.7343 71.1545 23.7343 71.4652 23.7343C72.244 23.7343 73.1801 23.7343 74.0799 23.7746C74.7821 23.815 75.5205 23.815 76.4566 23.815C77.082 23.815 82.6222 23.6979 83.401 23.5809C83.9094 23.5002 84.4945 23.4236 84.9625 23.0322C85.2732 22.7578 85.471 22.443 85.471 22.092C85.471 21.7369 85.2732 21.3858 84.9625 21.1518C84.7688 20.9944 84.5711 20.8774 84.3008 20.7967C83.518 20.486 82.6989 20.4457 81.9968 20.4457H81.9201C80.1245 20.369 78.2926 20.369 76.5373 20.3287H75.3671C74.4673 20.3287 73.5715 20.2883 72.6757 20.2883C72.01 20.2883 71.3079 20.2883 70.6461 20.248C70.6865 20.2116 70.6865 20.2116 70.7228 20.1713L70.9205 19.9776C71.0738 19.7799 71.2715 19.5822 71.4249 19.4288C71.8163 18.9971 72.2077 18.5653 72.595 18.1336C73.2205 17.4315 73.6885 16.8424 74.1163 16.2936C74.431 15.9022 74.548 15.4341 74.5843 15.1597C74.665 14.728 74.548 14.3729 74.314 14.0622C73.9992 13.7071 73.4949 13.5538 72.9461 13.6708C72.2077 13.8282 71.5419 14.2559 70.8801 14.9217C70.2951 15.5108 69.7503 16.1766 69.2015 16.7657L68.6972 17.3104C67.878 18.2506 67.0589 19.1545 66.2398 20.0946C65.457 20.0543 64.5612 20.0139 63.6654 19.9776H63.157C61.9061 19.9373 60.6593 19.8969 59.3721 19.8969H59.2551C54.9658 19.8969 51.649 19.9373 48.5662 19.9776C46.8513 19.9776 43.6111 20.0543 42.6387 20.0543H42.3643C41.5855 20.0543 40.9197 20.7604 40.9197 21.6199C40.9197 22.2857 41.3111 22.8748 41.8559 23.1088C42.0536 23.2258 42.2473 23.2662 42.3643 23.2662C42.441 23.2662 42.5217 23.3065 42.5983 23.3429C42.8324 23.3832 43.0664 23.4599 43.3408 23.4599H43.5345C45.9515 23.5002 48.4895 23.5406 50.9469 23.5809C54.066 23.5809 57.2255 23.5809 60.3849 23.6172H63.1974C61.9868 24.9892 60.7763 26.3611 59.6061 27.729L58.67 28.7902C57.8509 29.7304 57.0318 30.6665 56.2127 31.6067C55.3935 32.5872 54.5744 33.5677 53.832 34.5442C52.6255 36.1905 51.3746 37.9942 50.4022 39.9512C49.8937 40.968 49.349 42.0656 48.9979 43.2801C48.7236 44.2203 48.6065 45.2008 48.6469 46.141C48.6832 46.9601 48.9576 47.6663 49.3853 48.215C50.2851 49.3529 51.532 49.9784 53.0128 50.0187C53.9893 50.055 54.9658 49.8613 56.0956 49.4699C57.3425 49.0382 58.5126 48.4894 59.5658 47.8236C59.7998 47.7066 59.9976 47.5492 60.2316 47.4322C60.8933 47.0408 61.5551 46.6494 62.1805 46.2177C62.2209 46.7261 62.3742 47.1982 62.6889 47.6299C63.157 48.332 63.8591 48.7638 64.8356 48.9615C65.8888 49.1552 67.0186 49.0785 68.1484 48.7638C69.71 48.2957 71.1142 47.4726 72.127 46.7664C72.7524 46.3347 73.3778 45.8666 73.9992 45.3582C73.9226 46.0603 73.9629 46.6494 74.1163 47.2345C74.4673 48.4894 75.2501 49.3892 76.4203 49.8977C77.5098 50.3698 78.684 50.4464 80.0882 50.1357C81.6457 49.7806 83.1306 49.1552 84.5711 48.215C86.2094 47.1578 87.8113 45.9836 89.3325 44.8094L89.4858 44.6924C90.0346 44.2607 90.5794 43.8693 91.0878 43.4375C91.0878 43.5142 91.0474 43.5949 91.0474 43.6715C90.8537 44.5714 90.6197 45.6689 90.8537 46.8068C91.1241 48.215 91.8262 48.9978 93.1941 49.3892C94.3643 49.704 95.6514 49.704 97.096 49.3529C97.7174 49.1956 98.3428 48.9978 98.9683 48.7234C98.7705 48.9615 98.5769 49.1956 98.3832 49.3892C97.4067 50.5675 96.3939 51.7417 95.4174 52.9159L94.5579 53.9327C94.2069 54.3645 93.8558 54.7559 93.5048 55.1876C92.8834 55.9301 92.2176 56.6766 91.5922 57.4594C90.422 58.8676 89.1751 60.3566 87.9283 61.8858C86.4838 63.6492 84.9625 65.5255 83.1306 67.8376C82.7392 68.3097 82.3882 68.7778 82.0371 69.2499C81.6861 69.6776 81.3754 70.1093 81.0243 70.5411C80.3222 71.4046 79.6968 72.3407 79.1883 73.2809C78.3692 74.7698 77.9819 76.1821 78.0989 77.5903C78.0989 77.7477 78.1352 77.9454 78.1352 78.0988C78.1755 78.3731 78.1755 78.6112 78.1755 78.8816C78.2159 79.4303 78.2926 80.1365 78.9947 80.7256L79.1117 81H80.5562L80.7903 80.883C80.8266 80.8426 80.8669 80.883 80.8669 80.8426H80.9073C82.0371 80.0961 82.6222 79.1196 82.6222 77.9454C82.6222 77.8244 82.6222 77.671 82.6222 77.55C82.6222 77.2393 82.6222 76.9649 82.6222 76.6502C82.6625 76.2588 82.6625 75.7907 82.7392 75.3186C82.8966 74.2614 83.3646 73.2446 84.1434 71.9897C84.6518 71.2069 85.2369 70.3837 85.8987 69.4435C86.7581 68.2693 87.6539 67.1314 88.5134 65.9976L88.7837 65.6465C89.0985 65.2551 89.3688 64.9 89.6836 64.5086L93.1941 60.0459C93.5048 59.6504 93.8195 59.259 94.0899 58.908C94.792 58.0081 95.4941 57.1083 96.2365 56.2448C97.447 54.7962 98.7342 53.3073 99.9407 51.8991C100.643 51.0759 101.426 50.2124 102.128 49.4296L102.749 48.7234C103.766 47.5896 104.779 46.4517 105.792 45.3179C106.143 44.9264 106.494 44.535 106.845 44.1436C107.313 43.5949 107.821 43.0865 108.289 42.5377C108.487 42.2996 108.681 42.0656 108.874 41.8719C109.072 41.5975 109.306 41.3594 109.5 41.1254C110.085 40.5 110.67 39.7938 111.178 39.011C111.372 38.6963 111.489 38.3452 111.606 37.9538C111.566 37.6795 111.412 37.3647 111.295 37.2114ZM75.9522 40.4193C75.2501 41.2828 74.4673 42.0656 73.4545 42.8484C72.0503 43.9863 70.3717 44.7287 68.3461 45.0838C68.0717 45.1201 67.7207 45.1201 67.293 45.0838C67.0589 45.0435 66.9016 44.9628 66.7845 44.8457C66.6675 44.6924 66.6675 44.4947 66.7079 44.2607C67.0589 42.691 67.9144 41.2828 69.3993 39.8342C69.6333 39.6002 69.944 39.3621 70.2184 39.1281C70.3717 39.011 70.5291 38.894 70.6865 38.777C71.7759 37.8772 73.1438 37.3647 74.9354 37.1307C74.9757 37.1307 74.9757 37.1307 74.9757 37.1307C75.0524 37.2114 75.1331 37.3647 75.2501 37.4817L75.3268 37.6391C75.3671 37.7198 75.4438 37.7965 75.4842 37.8772C75.6012 38.0709 75.7182 38.3049 75.9119 38.5026C76.1863 38.8133 76.5736 39.011 77.0054 39.0877C76.6543 39.5195 76.3033 39.9512 75.9522 40.4193Z" fill="url(#paint1_linear_6_25)"></path><path d="M199.494 35.4843C199.454 35.4843 199.454 35.4843 199.417 35.4843C199.26 35.4843 199.066 35.5246 198.868 35.6417C198.558 35.799 198.247 35.9968 197.892 36.2308C197.073 36.7796 196.334 37.4453 195.632 38.0708L195.318 38.3452C194.696 38.8939 193.994 39.4831 193.292 40.0278C192.473 40.6573 191.654 41.2827 190.835 41.8718L190.367 42.2229C190.169 42.3399 190.016 42.4972 189.818 42.6143C189.273 43.046 188.728 43.4374 188.18 43.7885C187.909 43.9458 187.635 44.1436 187.36 44.3372C186.465 44.9264 185.605 45.4751 184.669 45.9432L184.399 46.0602C183.58 46.4516 182.797 46.843 181.978 46.9237C181.586 46.96 181.235 46.8834 180.925 46.6493C180.614 46.4153 180.416 46.0239 180.38 45.3581C180.299 44.5713 180.416 43.7522 180.767 42.812C180.925 42.3802 181.082 41.9485 181.276 41.5167L181.469 41.085C181.627 40.6936 181.82 40.1085 181.744 39.4024C181.667 38.7366 181.235 38.3452 180.614 38.3048C180.848 37.9538 181.042 37.522 181.118 36.9732C181.235 36.1138 181.042 35.0566 180.533 34.4675C180.222 34.1164 179.678 33.4506 178.701 33.4506H178.625C178.076 33.4506 177.608 33.7613 177.14 33.842C176.204 33.9994 175.267 34.3908 174.331 34.8185C173.044 35.4076 171.914 36.1138 170.861 36.8562C168.597 38.4622 166.959 40.1085 165.749 41.9081C165.712 41.9485 165.672 41.9888 165.632 42.0251C165.321 42.2632 164.97 42.4972 164.619 42.7313C163.993 43.163 163.332 43.6311 162.706 44.1032L162.63 44.1436C162.121 44.535 161.653 44.886 161.108 45.12C159.861 45.7495 158.691 45.9432 157.557 45.7495C156.896 45.6285 156.428 45.2774 156.194 44.6116C155.96 44.0225 155.96 43.3204 156.153 42.3399C156.387 41.3594 156.936 40.3829 157.872 39.362C157.949 39.245 158.066 39.1683 158.183 39.0513C158.3 38.9343 158.457 38.7769 158.574 38.6599C158.962 38.2281 159.313 37.756 159.51 37.1306C159.627 36.6989 159.587 36.2711 159.353 35.9161C159.119 35.6054 158.768 35.3673 158.34 35.331C158.106 35.2906 157.832 35.331 157.557 35.3673C156.504 35.565 155.609 36.0734 154.749 36.5415C154.047 36.9369 153.345 37.3646 152.683 37.7964C152.368 37.9941 152.058 38.1878 151.707 38.3855C151.315 38.6195 150.928 38.8536 150.536 39.0876C149.834 39.5194 149.132 39.9511 148.43 40.3829C147.885 40.7339 147.377 41.0487 146.832 41.3997C146.675 41.4804 146.518 41.5974 146.4 41.6741C146.481 41.4804 146.598 41.323 146.675 41.1657C147.22 40.2255 147.768 39.2853 148.156 38.2281C148.353 37.756 148.39 37.2113 148.353 36.6625C148.313 36.0331 147.922 35.565 147.377 35.3673C146.635 35.0929 146.013 35.2099 145.464 35.6417C145.428 35.682 145.388 35.682 145.347 35.7224C145.271 35.7587 145.23 35.799 145.194 35.8394C144.96 36.0331 144.686 36.1904 144.452 36.3882C143.866 36.8159 143.281 37.2113 142.737 37.7197C141.409 38.8939 139.965 40.1085 138.484 41.2423C137.39 42.0655 136.22 42.8887 135.09 43.6311L134.465 44.0629C133.488 44.7286 132.358 45.4751 131.112 46.0602L130.954 46.1409C130.175 46.5323 129.433 46.8834 128.614 46.96C127.912 47.0407 127.327 46.6897 127.133 46.0602C126.976 45.5921 126.935 45.0837 127.016 44.535C127.093 43.7118 127.25 43.1227 127.444 42.6143C127.52 42.4206 127.601 42.2229 127.678 42.0251C127.795 41.7144 127.952 41.3997 128.029 41.085C128.146 40.7339 128.303 40.3022 128.34 39.8341C128.38 39.4024 128.263 39.0109 127.988 38.6962C127.754 38.4622 127.484 38.3048 127.133 38.3048C127.169 38.2685 127.169 38.2281 127.21 38.1878C127.637 37.4453 127.754 36.6625 127.561 35.799C127.367 34.8185 126.701 34.1527 125.765 33.9994C125.18 33.8783 124.559 33.8783 123.974 33.9994C123.191 34.1527 122.138 34.3908 121.084 34.8185C119.991 35.2906 118.938 35.8394 118.042 36.4648C116.246 37.6794 114.806 38.8939 113.636 40.1852C112.268 41.7508 111.372 43.163 110.864 44.7286C110.63 45.4751 110.553 46.2176 110.747 46.9237C111.021 48.1746 111.88 48.9211 113.321 49.1955C114.725 49.4699 116.17 49.2721 117.768 48.566C118.784 48.1383 119.757 47.5895 120.774 46.8834C121.395 46.4516 121.98 45.9835 122.489 45.5518C122.448 46.0239 122.448 46.4516 122.489 46.8834C122.565 47.7469 122.92 48.4893 123.505 49.1551C124.244 49.9783 125.297 50.4463 126.625 50.527C126.742 50.527 126.859 50.527 126.976 50.527C127.678 50.527 128.38 50.3697 128.888 50.2527C129.941 50.0186 131.031 49.5869 132.048 48.9977C132.75 48.566 133.488 48.1383 134.271 47.5895C135.401 46.8067 136.571 45.9836 137.701 45.12C138.25 44.6923 138.794 44.2606 139.343 43.8288C139.537 43.6715 139.731 43.5141 139.928 43.3567L140.316 43.046L141.292 42.2632C141.135 42.5376 140.981 42.812 140.824 43.0864C140.316 43.9862 139.731 45.0434 138.952 45.9836C138.443 46.609 138.29 47.3151 138.133 48.0213C138.092 48.2956 138.092 48.4127 138.133 48.6063C138.29 49.3125 138.758 49.5062 139.46 49.5062H139.496C140.045 49.5062 140.473 49.4295 140.784 49.1955C142.152 48.2956 143.241 47.6299 144.218 46.9237C144.762 46.5323 145.311 46.1772 145.856 45.7858C146.247 45.5114 146.635 45.2371 146.986 44.9627C148.236 44.0629 149.483 43.2034 150.73 42.2995C151.162 41.9888 151.63 41.7144 152.134 41.5167V41.6337C152.098 42.2995 152.017 42.9653 152.017 43.6715V43.7885C151.981 44.8093 151.941 45.8262 152.332 46.9237C152.526 47.4725 152.76 48.0979 153.309 48.6063C154.011 49.2721 154.866 49.5869 156 49.5869C156.077 49.5869 156.153 49.5869 156.27 49.5869C156.855 49.5465 157.44 49.4295 158.026 49.3125C159.002 49.0784 159.938 48.7234 160.951 48.2149C162.161 47.5895 163.174 47.0004 164.074 46.375C164.074 46.4153 164.074 46.4516 164.074 46.492C164.074 46.8067 164.151 47.1174 164.268 47.3918C164.659 48.4127 165.478 49.0381 166.725 49.2721C167.778 49.4699 168.912 49.3891 170.002 49.0784C171.329 48.687 172.657 48.0213 174.138 46.96C174.723 46.5686 175.308 46.1006 175.852 45.6688C175.776 46.1409 175.776 46.6493 175.893 47.1578C176.167 48.687 177.103 49.7806 178.584 50.3293C179.444 50.6441 180.339 50.7207 181.469 50.527C182.756 50.3293 184.048 49.8613 185.452 49.1148C186.856 48.3723 188.143 47.3918 189.39 46.492L189.547 46.375C191.105 45.2007 192.55 44.1032 193.913 42.9653L194.264 42.6546C194.616 42.3802 194.967 42.0655 195.318 41.7911L195.983 41.2423C196.722 40.6169 197.464 39.9511 198.207 39.2853C198.634 38.8939 199.066 38.4218 199.454 38.0304C199.611 37.8367 199.805 37.6794 199.962 37.4817C200.039 37.405 200.119 37.3283 200.156 37.2476L200.47 36.9369V35.448L199.494 35.4843ZM125.18 39.4831C125.144 39.5597 125.063 39.6364 125.027 39.7171C123.974 41.0083 122.957 42.0655 121.904 42.8887C121.242 43.3971 120.693 43.7885 120.072 44.0225C119.874 44.1032 119.68 44.1799 119.446 44.2606C118.901 44.4946 118.393 44.6923 117.848 44.8457C117.183 45.0434 116.561 45.12 115.895 45.0837C115.661 45.0434 115.391 45.003 115.274 44.8093C115.157 44.652 115.157 44.4543 115.234 44.2202C115.544 43.046 116.093 41.9888 116.912 40.968C117.534 40.1852 118.276 39.4831 119.289 38.7366C120.108 38.1474 120.733 37.756 121.476 37.6027C121.746 37.522 122.021 37.4817 122.331 37.405C122.682 37.3283 122.997 37.2476 123.348 37.171C123.388 37.171 123.425 37.171 123.465 37.171C123.506 37.171 123.542 37.171 123.623 37.288C123.699 37.3646 123.74 37.4453 123.776 37.522L123.893 37.7197C123.933 37.7964 123.974 37.8771 124.01 37.9134C124.127 38.1111 124.284 38.3452 124.478 38.5792C124.752 38.8939 125.103 39.0513 125.495 39.128C125.378 39.2087 125.297 39.362 125.18 39.4831ZM178.625 39.4831C178.544 39.5597 178.508 39.6767 178.427 39.7534C177.297 41.1657 176.244 42.2229 175.114 43.046L175.033 43.1227C174.682 43.3971 174.331 43.6311 173.944 43.8288C173.044 44.2969 172.306 44.6116 171.523 44.8093C170.587 45.0837 169.925 45.1604 169.3 45.12C169.106 45.0837 168.912 45.0434 168.755 44.9264C168.48 44.769 168.561 44.3776 168.597 44.2202C168.989 42.8483 169.691 41.5974 170.744 40.4192C171.329 39.7938 171.955 39.245 172.733 38.6962C173.242 38.3452 173.787 37.9941 174.372 37.756C175.15 37.4453 175.969 37.288 176.712 37.2113H176.752C176.789 37.2113 176.829 37.2113 176.906 37.288C177.063 37.4453 177.18 37.639 177.297 37.9134L177.337 37.9538C177.571 38.4218 177.842 38.7366 178.233 38.9706C178.427 39.0876 178.661 39.1683 178.859 39.2087C178.778 39.2087 178.701 39.362 178.625 39.4831Z" fill="url(#paint2_linear_6_25)"></path><path d="M40.1006 55.7767C37.4899 54.9899 34.7178 54.4814 32.2604 53.3072C24.614 49.6272 20.5991 43.1227 19.0375 34.9759C18.2587 30.8642 18.3354 26.7524 19.1142 22.56C20.2077 22.56 21.2608 22.56 22.5884 22.56C22.4714 23.7746 22.314 24.9488 22.2373 26.127C21.8863 32.2724 22.0396 38.3452 25.0054 43.9459C28.1245 49.8976 33.2773 53.1095 39.7132 54.1707C43.26 54.7558 46.8876 54.7962 50.0511 55.0302C49.3853 55.1876 48.2151 55.5023 47.0853 55.7767C44.7813 55.7767 42.4409 55.7767 40.1006 55.7767Z" fill="url(#paint3_linear_6_25)"></path><path d="M0 0C3.59121 1.92069 7.13804 2.66315 10.8826 2.46946C17.1652 2.15473 23.4074 1.56561 29.686 1.44859C33.8623 1.37192 38.1112 1.56561 42.2068 2.19508C46.3428 2.82051 48.3321 5.44331 48.3724 9.6761C48.3724 11.9842 47.864 14.2963 47.5937 16.6083C47.3959 16.6083 47.1619 16.568 46.9682 16.568C46.8108 15.5512 46.6535 14.494 46.4598 13.4731C45.681 9.16364 42.5579 6.81523 37.9176 6.8919C32.8858 6.9726 27.8541 7.48102 22.8587 8.07014C18.178 8.61891 13.6143 8.69558 8.85698 6.77488C13.808 13.0817 20.3246 14.728 27.5797 14.7684C13.6547 17.1934 3.74454 11.3184 0 0Z" fill="#342878"></path><path d="M51.9233 54.1708C49.6999 54.1708 47.4726 54.2475 45.2493 54.1305C40.96 53.8964 36.824 52.9926 33.0795 50.7208C28.2051 47.747 25.4734 43.2035 24.1862 37.7965C22.9394 32.5469 23.016 27.2206 24.0288 21.7006C16.0717 21.4262 8.73995 19.7799 4.09558 12.2989C12.0931 17.1571 20.8331 17.8996 29.569 17.2338C29.569 21.2689 29.4116 25.2232 29.6093 29.1413C29.92 35.0163 31.1306 40.6937 34.7581 45.5519C38.5026 50.5675 43.728 52.7182 49.7363 53.384C50.4787 53.4647 51.2212 53.4647 51.9233 53.505C51.9233 53.7391 51.9233 53.9731 51.9233 54.1708Z" fill="#A4287C"></path><defs><linearGradient id="paint0_linear_6_25" x1="42.1199" y1="50.5657" x2="79.0972" y2="50.5657" gradientUnits="userSpaceOnUse"><stop stop-color="#342878"></stop><stop offset="1" stop-color="#A4287C"></stop></linearGradient><linearGradient id="paint1_linear_6_25" x1="40.8134" y1="47.5063" x2="111.487" y2="47.5063" gradientUnits="userSpaceOnUse"><stop stop-color="#342878"></stop><stop offset="1" stop-color="#A4287C"></stop></linearGradient><linearGradient id="paint2_linear_6_25" x1="110.58" y1="41.9782" x2="200.43" y2="41.9782" gradientUnits="userSpaceOnUse"><stop stop-color="#342878"></stop><stop offset="1" stop-color="#A4287C"></stop></linearGradient><linearGradient id="paint3_linear_6_25" x1="18.5188" y1="39.1623" x2="50.0854" y2="39.1623" gradientUnits="userSpaceOnUse"><stop stop-color="#342878"></stop><stop offset="1" stop-color="#A4287C"></stop></linearGradient></defs></svg>