<svg xmlns="http://www.w3.org/2000/svg" width="377" height="290" viewBox="0 0 377 290" fill="none"><path opacity="0.7" d="M330.111 256.527C330.111 256.527 350.805 214.386 320.463 181.09C288.636 146.165 341.36 119.559 323.589 71.768C311.615 39.568 242.95 37.868 199.143 64.413C155.337 90.958 148.586 10.66 77.9447 31.412C18.5207 48.868 37.3007 146.203 59.7507 188.78C71.6807 211.405 62.0237 234.755 57.1347 256.225L330.111 256.527Z" fill="url(#paint0_linear_2288_208075)"></path><path d="M109.382 48.815L105.63 48.863C103.757 48.887 102.043 47.715 101.481 45.928C100.736 43.558 99.7397 41.3 98.5267 39.185C97.5797 37.534 97.8847 35.447 99.2137 34.084L102.079 31.144C103.745 29.435 103.71 26.698 102 25.032L98.3247 21.451C96.6157 19.785 93.8787 19.82 92.2127 21.53L89.1807 24.641C87.8597 25.997 85.8037 26.401 84.1117 25.55C81.8047 24.39 79.3507 23.482 76.7847 22.863C74.8987 22.409 73.5947 20.681 73.5697 18.742L73.5267 15.427C73.4957 13.04 71.5357 11.13 69.1497 11.161L64.0187 11.227C61.6317 11.258 59.7217 13.217 59.7527 15.604L59.8077 19.873C59.8317 21.738 58.6417 23.37 56.8917 24.014C54.8977 24.749 52.9917 25.664 51.1927 26.738C49.6077 27.684 47.6157 27.598 46.1807 26.437L41.7187 22.829C39.8627 21.328 37.1407 21.616 35.6407 23.473L32.4147 27.463C30.9137 29.319 31.2027 32.04 33.0587 33.541L36.5297 36.347C38.0687 37.591 38.5817 39.729 37.7317 41.517C36.9317 43.198 36.2647 44.954 35.7437 46.771C35.2277 48.573 33.5457 49.791 31.6717 49.815L27.9187 49.863C25.5317 49.894 23.6217 51.854 23.6527 54.24L23.7187 59.371C23.7497 61.758 25.7097 63.668 28.0967 63.637L31.8247 63.589C33.7097 63.565 35.4367 64.742 36.0047 66.539C36.4327 67.895 36.9427 69.213 37.5287 70.49C38.3657 72.313 37.7957 74.473 36.1977 75.686L33.7807 77.521C31.8797 78.964 31.5077 81.675 32.9507 83.577L36.0527 87.665C37.4957 89.566 40.2067 89.938 42.1087 88.495L45.8427 85.662C47.2907 84.564 49.2497 84.521 50.7967 85.473C52.9617 86.805 55.2847 87.903 57.7297 88.732C59.4947 89.331 60.7267 90.928 60.7507 92.792L60.8057 97.066C60.8367 99.453 62.7967 101.363 65.1827 101.332L70.3137 101.266C72.7007 101.235 74.6107 99.275 74.5797 96.888L74.5367 93.573C74.5117 91.632 75.7717 89.873 77.6457 89.37C80.1807 88.689 82.5977 87.725 84.8637 86.515C86.5277 85.626 88.5857 85.977 89.9377 87.294L93.1017 90.378C94.8107 92.044 97.5477 92.009 99.2137 90.299L102.795 86.624C104.461 84.914 104.426 82.178 102.716 80.512L99.7497 77.621C98.3847 76.291 98.0257 74.21 98.9337 72.535C100.103 70.377 101.048 68.08 101.736 65.676C102.252 63.875 103.937 62.659 105.81 62.635L109.56 62.587C111.947 62.556 113.857 60.596 113.826 58.209L113.76 53.078C113.728 50.695 111.768 48.784 109.382 48.815ZM69.0327 79.015C56.4487 79.177 46.1147 69.107 45.9527 56.522C45.7907 43.938 55.8607 33.604 68.4447 33.442C81.0287 33.28 91.3627 43.35 91.5247 55.934C91.6877 68.518 81.6177 78.852 69.0327 79.015Z" fill="url(#paint1_linear_2288_208075)"></path><path d="M231.559 71.521L228.979 70.48C227.691 69.96 226.854 68.667 226.981 67.284C227.15 65.449 227.116 63.62 226.891 61.825C226.716 60.424 227.523 59.084 228.822 58.532L231.624 57.341C233.253 56.649 234.013 54.767 233.32 53.138L231.832 49.636C231.14 48.007 229.258 47.247 227.629 47.939L224.664 49.199C223.372 49.748 221.85 49.436 220.936 48.369C219.69 46.915 218.271 45.59 216.693 44.433C215.533 43.582 215.136 42.027 215.674 40.693L216.594 38.413C217.257 36.772 216.463 34.904 214.821 34.241L211.292 32.817C209.65 32.154 207.783 32.948 207.12 34.59L205.935 37.526C205.417 38.809 204.136 39.584 202.754 39.524C201.18 39.456 199.614 39.536 198.076 39.755C196.721 39.948 195.383 39.319 194.733 38.114L192.714 34.368C191.874 32.81 189.93 32.228 188.372 33.068L185.022 34.874C183.464 35.714 182.882 37.658 183.722 39.216L185.293 42.13C185.989 43.422 185.728 45.031 184.635 46.011C183.606 46.932 182.647 47.942 181.77 49.036C180.901 50.121 179.401 50.472 178.113 49.952L175.532 48.91C173.89 48.247 172.023 49.041 171.36 50.683L169.936 54.212C169.274 55.853 170.067 57.721 171.709 58.384L174.273 59.419C175.569 59.942 176.414 61.242 176.287 62.634C176.192 63.684 176.163 64.732 176.198 65.773C176.248 67.26 175.24 68.574 173.799 68.946L171.62 69.509C169.906 69.951 168.875 71.699 169.318 73.413L170.269 77.098C170.711 78.812 172.46 79.843 174.174 79.4L177.54 78.531C178.845 78.194 180.197 78.726 180.983 79.821C182.083 81.352 183.357 82.768 184.793 84.036C185.829 84.951 186.214 86.396 185.697 87.678L184.511 90.617C183.849 92.258 184.642 94.126 186.284 94.789L189.813 96.213C191.455 96.876 193.322 96.082 193.985 94.44L194.905 92.16C195.444 90.825 196.81 89.983 198.236 90.175C200.165 90.435 202.095 90.468 203.991 90.289C205.384 90.158 206.692 90.987 207.239 92.275L208.521 95.291C209.213 96.92 211.095 97.68 212.724 96.987L216.226 95.499C217.855 94.807 218.615 92.925 217.922 91.296L216.721 88.469C216.168 87.168 216.518 85.642 217.619 84.756C219.037 83.615 220.341 82.314 221.5 80.867C222.369 79.783 223.869 79.434 225.158 79.954L227.737 80.995C229.379 81.658 231.246 80.864 231.909 79.222L233.333 75.693C233.994 74.051 233.201 72.183 231.559 71.521ZM195.31 80.623C186.655 77.13 182.47 67.282 185.963 58.627C189.456 49.972 199.304 45.787 207.959 49.28C216.614 52.773 220.799 62.621 217.306 71.276C213.813 79.932 203.965 84.116 195.31 80.623Z" fill="url(#paint2_linear_2288_208075)"></path><path d="M266.735 262.259C265.995 263.038 266.791 264.168 267.608 263.498C278.791 254.317 311.698 239.998 323.603 230.047C341.25 215.295 357.832 193.595 376.776 158.446C377.186 157.685 376.544 156.923 375.847 157.348C367.198 162.626 316.22 189.101 298.902 211.057C284.657 229.117 279.591 248.726 266.735 262.259Z" fill="url(#paint3_linear_2288_208075)"></path><path d="M364.709 170.228C364.709 170.228 303.054 233.921 270.598 259.564" stroke="#1A2E9D" stroke-width="0.5911" stroke-miterlimit="10" stroke-linecap="round"></path><path d="M323.886 223.251C323.886 223.251 309.242 230.523 299.52 234.518" stroke="#1A2E9D" stroke-width="0.5911" stroke-miterlimit="10" stroke-linecap="round"></path><path d="M324.731 196.425C324.731 196.425 317.411 210.926 314.195 220.306" stroke="#1A2E9D" stroke-width="0.5911" stroke-miterlimit="10" stroke-linecap="round"></path><path d="M351.48 190.986C351.48 190.986 343.784 197.625 333.125 202.338" stroke="#1A2E9D" stroke-width="0.5911" stroke-miterlimit="10" stroke-linecap="round"></path><path d="M246.424 266.067C245.738 267.297 247.116 268.474 247.935 267.357C259.153 252.062 296.291 223.18 308.175 206.673C325.791 182.202 339.798 149.253 352.431 98.456C352.704 97.356 351.641 96.597 350.895 97.364C341.627 106.879 285.49 157.071 270.633 190.585C258.412 218.151 258.352 244.701 246.424 266.067Z" fill="url(#paint4_linear_2288_208075)"></path><path d="M340.936 117.342C340.936 117.342 283.337 218.274 250.453 261.39" stroke="#1A2E9D" stroke-width="0.7749" stroke-miterlimit="10" stroke-linecap="round"></path><path d="M306.322 197.951C306.322 197.951 290.088 211.947 279.039 220.181" stroke="#1A2E9D" stroke-width="0.7749" stroke-miterlimit="10" stroke-linecap="round"></path><path d="M298.677 163.607C298.677 163.607 294.095 184.402 293.059 197.36" stroke="#1A2E9D" stroke-width="0.7749" stroke-miterlimit="10" stroke-linecap="round"></path><path d="M330.883 148.003C330.883 148.003 323.268 158.936 311.262 168.386" stroke="#1A2E9D" stroke-width="0.7749" stroke-miterlimit="10" stroke-linecap="round"></path><path opacity="0.3" d="M188.293 270.955C215.288 270.955 237.172 267.876 237.172 264.078C237.172 260.28 215.288 257.201 188.293 257.201C161.298 257.201 139.414 260.28 139.414 264.078C139.414 267.876 161.298 270.955 188.293 270.955Z" fill="url(#paint5_linear_2288_208075)"></path><path opacity="0.3" d="M84.4576 288.469C115.927 288.469 141.439 285.785 141.439 282.475C141.439 279.165 115.927 276.481 84.4576 276.481C52.9878 276.481 27.4766 279.165 27.4766 282.475C27.4766 285.785 52.9878 288.469 84.4576 288.469Z" fill="url(#paint6_linear_2288_208075)"></path><path opacity="0.3" d="M304.542 289.888C315.361 289.888 324.131 288.835 324.131 287.535C324.131 286.235 315.361 285.182 304.542 285.182C293.723 285.182 284.953 286.235 284.953 287.535C284.953 288.835 293.723 289.888 304.542 289.888Z" fill="url(#paint7_linear_2288_208075)"></path><path opacity="0.3" d="M277.652 285.706C304.648 285.706 326.531 281.563 326.531 276.453C326.531 271.343 304.648 267.2 277.652 267.2C250.657 267.2 228.773 271.343 228.773 276.453C228.773 281.563 250.657 285.706 277.652 285.706Z" fill="url(#paint8_linear_2288_208075)"></path><path d="M6.36328 255.82H373.489" stroke="url(#paint9_linear_2288_208075)" stroke-miterlimit="10"></path><path d="M300.349 233.325H80.1421C77.1171 233.325 74.6641 230.872 74.6641 227.847V63.696C74.6641 60.67 77.1171 58.218 80.1421 58.218H300.349C303.374 58.218 305.827 60.671 305.827 63.696V227.847C305.827 230.872 303.374 233.325 300.349 233.325Z" fill="url(#paint10_linear_2288_208075)"></path><path d="M80.1421 233.325H300.349C303.374 233.325 305.827 230.872 305.827 227.847V208.768H74.6641V227.848C74.6641 230.872 77.1161 233.325 80.1421 233.325Z" fill="url(#paint11_linear_2288_208075)"></path><path d="M166.088 245.478V233.325H213.602V245.478C213.602 251.137 216.737 256.33 221.745 258.966C223.569 259.926 222.887 262.688 220.825 262.688H213.602H166.088H158.865C156.803 262.688 156.121 259.926 157.945 258.966C162.953 256.33 166.088 251.137 166.088 245.478Z" fill="url(#paint12_linear_2288_208075)"></path><path d="M292.4 199.355H88.0948C85.5848 199.355 83.5508 197.321 83.5508 194.811V71.038C83.5508 68.528 85.5858 66.494 88.0948 66.494H292.4C294.91 66.494 296.944 68.528 296.944 71.038V194.812C296.944 197.321 294.91 199.355 292.4 199.355Z" fill="url(#paint13_linear_2288_208075)"></path><path d="M304.214 270.092C304.215 270.121 304.215 270.149 304.215 270.178C304.215 271.236 303.651 272.254 302.61 273.203C302.356 273.436 302.073 273.663 301.764 273.886C300.898 274.511 299.82 275.101 298.559 275.647C298.286 275.766 298.003 275.882 297.713 275.996C296.735 276.381 295.663 276.742 294.508 277.074C294.231 277.154 293.949 277.233 293.662 277.309C292.65 277.581 291.579 277.831 290.456 278.059C290.177 278.116 289.895 278.171 289.61 278.225C288.581 278.42 287.511 278.596 286.405 278.753C286.125 278.793 285.844 278.831 285.559 278.869C284.518 279.004 283.449 279.123 282.354 279.223C282.073 279.248 281.791 279.273 281.508 279.296C280.461 279.382 279.391 279.451 278.303 279.502C278.022 279.515 277.74 279.527 277.457 279.538C276.404 279.577 275.335 279.601 274.252 279.607C274.064 279.608 273.874 279.609 273.686 279.609C273.593 279.609 273.499 279.609 273.406 279.608C272.323 279.605 271.254 279.585 270.2 279.548C269.916 279.538 269.635 279.527 269.354 279.515C268.553 279.48 267.76 279.434 266.98 279.381C266.701 279.362 266.424 279.341 266.149 279.32C265.865 279.298 265.584 279.274 265.303 279.249C264.208 279.153 263.138 279.038 262.098 278.907C261.813 278.871 261.532 278.834 261.252 278.794C260.589 278.703 259.939 278.604 259.302 278.499C258.878 278.429 258.46 278.356 258.047 278.28C257.762 278.227 257.48 278.173 257.201 278.118C256.08 277.896 255.009 277.651 253.995 277.386C253.795 277.334 253.597 277.281 253.4 277.227C253.315 277.204 253.232 277.18 253.149 277.157C252.691 277.029 252.244 276.895 251.813 276.758C251.158 276.55 250.535 276.333 249.944 276.108C249.654 275.996 249.372 275.884 249.098 275.77C248.017 275.317 247.063 274.833 246.255 274.323C246.131 274.245 246.009 274.166 245.893 274.086C245.746 273.987 245.605 273.887 245.47 273.786C245.322 273.676 245.182 273.565 245.047 273.452C243.824 272.433 243.156 271.33 243.156 270.179C243.156 270.098 243.16 270.017 243.167 269.937L243.17 263.42L245.046 263.417L245.892 263.415L249.097 263.411L249.943 263.409L252.444 263.405L253.148 263.404L253.994 263.402L257.2 263.398L258.046 263.397L261.251 263.392L262.097 263.391L265.302 263.386L266.148 263.385L269.353 263.381L270.199 263.379L273.405 263.375L274.251 263.373L277.456 263.369L278.302 263.368L281.507 263.363L282.353 263.362L285.558 263.357L286.404 263.356L289.609 263.351L290.455 263.349L293.661 263.345L294.507 263.343H294.716L297.712 263.338L298.558 263.337L301.763 263.332L302.609 263.331L304.203 263.328L304.214 270.092Z" fill="url(#paint14_linear_2288_208075)"></path><path d="M245.889 263.414V274.085C245.742 273.986 245.601 273.886 245.466 273.785C245.318 273.675 245.178 273.564 245.043 273.451V263.416L245.889 263.414Z" fill="#DA8928"></path><path d="M249.94 263.408V276.107C249.65 275.995 249.368 275.883 249.094 275.769V263.41L249.94 263.408Z" fill="#DA8928"></path><path d="M253.991 263.402V277.385C253.791 277.333 253.593 277.28 253.396 277.226C253.311 277.203 253.228 277.179 253.145 277.156V263.404L253.991 263.402Z" fill="#DA8928"></path><path d="M258.045 263.397V278.279C257.76 278.226 257.478 278.172 257.199 278.117V263.398L258.045 263.397Z" fill="#DA8928"></path><path d="M262.096 263.391V278.906C261.811 278.87 261.53 278.833 261.25 278.793V263.391H262.096Z" fill="#DA8928"></path><path d="M266.147 263.384V279.319C265.863 279.297 265.582 279.273 265.301 279.248V263.385L266.147 263.384Z" fill="#DA8928"></path><path d="M270.198 263.378V279.548C269.914 279.538 269.633 279.527 269.352 279.515V263.38L270.198 263.378Z" fill="#DA8928"></path><path d="M274.252 263.372V279.607C274.064 279.608 273.874 279.609 273.686 279.609C273.593 279.609 273.499 279.609 273.406 279.608V263.374L274.252 263.372Z" fill="#DA8928"></path><path d="M278.303 263.367V279.502C278.022 279.515 277.74 279.527 277.457 279.538V263.368L278.303 263.367Z" fill="#DA8928"></path><path d="M282.354 263.361V279.224C282.073 279.249 281.791 279.274 281.508 279.297V263.362L282.354 263.361Z" fill="#DA8928"></path><path d="M286.405 263.355V278.754C286.125 278.794 285.844 278.832 285.559 278.87V263.356L286.405 263.355Z" fill="#DA8928"></path><path d="M290.455 263.349V278.06C290.176 278.117 289.894 278.172 289.609 278.226V263.35L290.455 263.349Z" fill="#DA8928"></path><path d="M294.506 263.342V277.074C294.229 277.154 293.947 277.233 293.66 277.309V263.344L294.506 263.342Z" fill="#DA8928"></path><path d="M298.561 263.337V275.648C298.288 275.767 298.005 275.883 297.715 275.997V263.338L298.561 263.337Z" fill="#DA8928"></path><path d="M302.612 263.331V273.203C302.358 273.436 302.075 273.663 301.766 273.886V263.331H302.612Z" fill="#DA8928"></path><path d="M304.208 263.411C304.208 268.198 290.545 272.079 273.686 272.079C271.383 272.079 269.139 272.007 266.982 271.869C264.269 271.697 261.692 271.421 259.305 271.058C257.174 270.734 255.195 270.341 253.405 269.888C252.858 269.75 252.328 269.606 251.818 269.457C249.573 268.803 247.691 268.048 246.262 267.219C245.982 267.057 245.72 266.893 245.477 266.725C243.986 265.704 243.164 264.584 243.164 263.41C243.164 263.303 243.172 263.195 243.189 263.088C243.781 258.45 257.209 254.742 273.687 254.742C277.742 254.742 281.612 254.967 285.151 255.374C285.835 255.453 286.506 255.538 287.164 255.631C290.039 256.033 292.657 256.561 294.933 257.187C295.434 257.325 295.919 257.468 296.387 257.615C298.049 258.14 299.489 258.722 300.664 259.351C301.875 259.999 302.805 260.697 303.408 261.43C303.848 261.965 304.113 262.52 304.186 263.088C304.201 263.196 304.208 263.304 304.208 263.411Z" fill="url(#paint15_linear_2288_208075)"></path><path d="M298.081 263.411C298.081 263.517 298.071 263.624 298.057 263.729C297.468 267.402 286.763 270.339 273.685 270.339C260.607 270.339 249.902 267.402 249.313 263.729C249.299 263.624 249.289 263.517 249.289 263.411C249.289 259.591 260.232 256.483 273.685 256.483C287.138 256.483 298.081 259.591 298.081 263.411Z" fill="#DA8928"></path><path d="M298.059 263.729C297.47 267.402 286.765 270.339 273.687 270.339C273.394 270.339 273.105 270.337 272.816 270.334C269.899 270.305 267.111 270.13 264.538 269.833C261.965 269.536 259.609 269.119 257.56 268.604C257.039 268.474 256.539 268.337 256.055 268.194C253.87 267.543 252.12 266.774 250.953 265.921C250.67 265.717 250.422 265.507 250.211 265.295C249.707 264.793 249.404 264.268 249.316 263.728C249.905 260.055 260.61 257.117 273.688 257.117C275.342 257.117 276.959 257.164 278.525 257.254C279.322 257.3 280.108 257.357 280.877 257.424C284.019 257.7 286.892 258.151 289.353 258.738C289.884 258.865 290.398 258.998 290.892 259.138C292.808 259.679 294.412 260.311 295.613 261.008C296.784 261.687 297.574 262.428 297.907 263.208C297.98 263.38 298.031 263.554 298.059 263.729Z" fill="url(#paint16_linear_2288_208075)"></path><path d="M277.076 267.342V268.493H271.927V267.394C268.275 267.332 264.733 267.052 262.543 266.668L265.318 264.884C267.728 265.289 270.941 265.548 273.753 265.548C276.2 265.548 277.076 265.403 277.076 265.154C277.076 264.241 262.945 264.978 262.945 262.271C262.945 261.099 265.939 260.114 271.928 259.875V258.745H277.077V259.855C279.779 259.928 282.408 260.125 284.489 260.457L281.897 262.23C279.377 261.867 277.004 261.691 274.777 261.691C272.257 261.691 271.454 261.899 271.454 262.147C271.454 263.018 285.585 262.292 285.585 264.968C285.584 266.087 282.736 267.062 277.076 267.342Z" fill="#DA8928"></path><path d="M276.927 266.959V268.11H271.779V267.011C268.127 266.949 264.585 266.669 262.395 266.285L265.17 264.501C267.58 264.905 270.793 265.165 273.605 265.165C276.051 265.165 276.928 265.02 276.928 264.771C276.928 263.858 262.797 264.595 262.797 261.888C262.797 260.716 265.791 259.731 271.78 259.493V258.363H276.928V259.472C279.63 259.545 282.259 259.742 284.341 260.073L281.749 261.846C279.229 261.483 276.856 261.307 274.628 261.307C272.109 261.307 271.305 261.514 271.305 261.763C271.305 262.634 285.436 261.908 285.436 264.584C285.435 265.704 282.587 266.679 276.927 266.959Z" fill="url(#paint17_linear_2288_208075)"></path><path d="M296.497 259.536C296.498 259.565 296.497 259.593 296.497 259.622C296.497 260.68 295.934 261.698 294.893 262.647C294.639 262.88 294.356 263.107 294.047 263.33C293.181 263.955 292.103 264.545 290.842 265.091C290.569 265.21 290.286 265.326 289.996 265.44C289.018 265.825 287.945 266.186 286.79 266.518C286.513 266.598 286.232 266.677 285.945 266.753C284.933 267.024 283.861 267.275 282.738 267.503C282.459 267.56 282.178 267.615 281.893 267.669C280.864 267.864 279.793 268.04 278.688 268.197C278.408 268.237 278.127 268.275 277.842 268.313C276.801 268.448 275.732 268.567 274.637 268.667C274.356 268.692 274.073 268.717 273.79 268.74C272.743 268.826 271.674 268.895 270.586 268.946C270.305 268.959 270.023 268.971 269.74 268.982C268.687 269.021 267.618 269.045 266.535 269.051C266.347 269.052 266.157 269.053 265.969 269.053C265.876 269.053 265.782 269.053 265.689 269.052C264.606 269.049 263.537 269.029 262.483 268.992C262.199 268.982 261.918 268.971 261.637 268.959C260.836 268.924 260.043 268.878 259.263 268.825C258.984 268.806 258.707 268.785 258.432 268.763C258.148 268.741 257.867 268.717 257.586 268.692C256.491 268.596 255.42 268.481 254.38 268.35C254.095 268.314 253.815 268.277 253.535 268.237C252.872 268.146 252.222 268.047 251.585 267.942C251.161 267.872 250.742 267.799 250.329 267.722C250.044 267.669 249.763 267.615 249.484 267.56C248.363 267.338 247.291 267.093 246.277 266.828C246.077 266.776 245.879 266.723 245.682 266.669C245.597 266.646 245.515 266.622 245.432 266.599C244.974 266.471 244.527 266.337 244.095 266.2C243.44 265.992 242.816 265.775 242.225 265.55C241.935 265.439 241.654 265.326 241.38 265.212C240.299 264.759 239.344 264.275 238.536 263.765C238.412 263.687 238.29 263.608 238.174 263.528C238.027 263.429 237.886 263.329 237.751 263.228C237.603 263.118 237.463 263.007 237.329 262.894C236.106 261.875 235.438 260.772 235.438 259.621C235.438 259.54 235.442 259.459 235.449 259.379L235.452 252.862L237.328 252.859L238.173 252.857L241.379 252.852L242.225 252.85L244.725 252.847L245.43 252.846L246.276 252.844L249.482 252.84L250.328 252.839L253.533 252.834L254.379 252.833L257.583 252.828L258.43 252.827L261.635 252.823L262.48 252.821L265.686 252.817L266.533 252.815L269.738 252.811L270.583 252.81L273.789 252.805L274.635 252.804L277.84 252.799L278.686 252.798L281.891 252.794L282.737 252.792L285.943 252.788L286.789 252.786H286.997L289.993 252.781L290.84 252.78L294.044 252.775L294.891 252.774L296.484 252.771L296.496 259.535H296.497V259.536Z" fill="url(#paint18_linear_2288_208075)"></path><path d="M238.17 252.859V263.53C238.023 263.431 237.882 263.331 237.747 263.23C237.599 263.12 237.458 263.009 237.324 262.896V252.861L238.17 252.859Z" fill="#DA8928"></path><path d="M242.221 252.852V265.551C241.931 265.44 241.649 265.327 241.375 265.213V252.854L242.221 252.852Z" fill="#DA8928"></path><path d="M246.272 252.846V266.829C246.072 266.777 245.874 266.724 245.677 266.67C245.592 266.647 245.509 266.623 245.426 266.6V252.848L246.272 252.846Z" fill="#DA8928"></path><path d="M250.326 252.841V267.723C250.041 267.67 249.759 267.616 249.48 267.561V252.842L250.326 252.841Z" fill="#DA8928"></path><path d="M254.377 252.835V268.35C254.092 268.314 253.811 268.277 253.531 268.237V252.835H254.377Z" fill="#DA8928"></path><path d="M258.428 252.829V268.764C258.144 268.742 257.863 268.718 257.582 268.693V252.83L258.428 252.829Z" fill="#DA8928"></path><path d="M262.479 252.823V268.993C262.195 268.983 261.914 268.972 261.633 268.96V252.824L262.479 252.823Z" fill="#DA8928"></path><path d="M266.53 252.816V269.051C266.342 269.052 266.152 269.053 265.964 269.053C265.871 269.053 265.777 269.053 265.684 269.052V252.818L266.53 252.816Z" fill="#DA8928"></path><path d="M270.584 252.811V268.946C270.303 268.959 270.021 268.971 269.738 268.982V252.812L270.584 252.811Z" fill="#DA8928"></path><path d="M274.635 252.805V268.668C274.354 268.693 274.072 268.718 273.789 268.741V252.806L274.635 252.805Z" fill="#DA8928"></path><path d="M278.686 252.799V268.198C278.406 268.238 278.125 268.276 277.84 268.314V252.8L278.686 252.799Z" fill="#DA8928"></path><path d="M282.737 252.793V267.504C282.458 267.561 282.176 267.616 281.891 267.67V252.794L282.737 252.793Z" fill="#DA8928"></path><path d="M286.787 252.787V266.519C286.51 266.599 286.228 266.678 285.941 266.754V252.788L286.787 252.787Z" fill="#DA8928"></path><path d="M290.842 252.781V265.092C290.569 265.211 290.286 265.327 289.996 265.441V252.782L290.842 252.781Z" fill="#DA8928"></path><path d="M294.893 252.775V262.647C294.639 262.88 294.356 263.107 294.047 263.33V252.775H294.893Z" fill="#DA8928"></path><path d="M296.489 252.855C296.489 257.642 282.826 261.523 265.966 261.523C263.663 261.523 261.419 261.451 259.262 261.313C256.549 261.141 253.973 260.865 251.586 260.502C249.455 260.178 247.476 259.785 245.686 259.332C245.139 259.194 244.609 259.05 244.099 258.901C241.854 258.246 239.972 257.492 238.543 256.663C238.263 256.501 238.001 256.337 237.758 256.169C236.267 255.148 235.445 254.028 235.445 252.854C235.445 252.747 235.453 252.639 235.47 252.532C236.062 247.894 249.49 244.186 265.968 244.186C270.023 244.186 273.893 244.41 277.432 244.818C278.116 244.897 278.787 244.982 279.445 245.075C282.32 245.477 284.938 246.005 287.214 246.631C287.715 246.769 288.2 246.912 288.668 247.059C290.331 247.584 291.77 248.166 292.945 248.795C294.156 249.443 295.086 250.14 295.689 250.874C296.129 251.409 296.395 251.964 296.467 252.532C296.482 252.64 296.489 252.748 296.489 252.855Z" fill="url(#paint19_linear_2288_208075)"></path><path d="M290.362 252.855C290.362 252.961 290.352 253.068 290.338 253.173C289.749 256.846 279.044 259.783 265.966 259.783C252.888 259.783 242.183 256.846 241.594 253.173C241.58 253.068 241.57 252.961 241.57 252.855C241.57 249.035 252.514 245.927 265.966 245.927C279.419 245.927 290.362 249.035 290.362 252.855Z" fill="#DA8928"></path><path d="M290.34 253.173C289.751 256.846 279.046 259.783 265.968 259.783C265.675 259.783 265.386 259.781 265.097 259.778C262.18 259.749 259.392 259.574 256.819 259.277C254.246 258.98 251.89 258.563 249.841 258.048C249.32 257.918 248.82 257.781 248.337 257.638C246.152 256.987 244.402 256.218 243.235 255.365C242.952 255.161 242.704 254.951 242.493 254.739C241.989 254.237 241.686 253.712 241.598 253.172C242.187 249.498 252.892 246.561 265.97 246.561C267.624 246.561 269.241 246.608 270.807 246.698C271.604 246.744 272.39 246.8 273.159 246.868C276.301 247.143 279.174 247.595 281.635 248.182C282.166 248.309 282.68 248.442 283.174 248.582C285.09 249.123 286.694 249.755 287.895 250.452C289.066 251.132 289.856 251.872 290.189 252.652C290.262 252.824 290.313 252.998 290.34 253.173Z" fill="url(#paint20_linear_2288_208075)"></path><path d="M269.357 256.786V257.937H264.208V256.838C260.557 256.776 257.015 256.496 254.824 256.112L257.599 254.328C260.009 254.733 263.222 254.992 266.034 254.992C268.481 254.992 269.357 254.847 269.357 254.598C269.357 253.685 255.226 254.422 255.226 251.715C255.226 250.543 258.22 249.558 264.209 249.319V248.189H269.358V249.299C272.06 249.372 274.689 249.569 276.77 249.901L274.178 251.674C271.658 251.311 269.285 251.135 267.058 251.135C264.538 251.135 263.735 251.343 263.735 251.591C263.735 252.462 277.866 251.736 277.866 254.412C277.865 255.531 275.017 256.506 269.357 256.786Z" fill="#DA8928"></path><path d="M269.208 256.403V257.554H264.06V256.455C260.408 256.393 256.866 256.113 254.676 255.729L257.451 253.945C259.861 254.349 263.074 254.609 265.886 254.609C268.332 254.609 269.209 254.464 269.209 254.215C269.209 253.302 255.078 254.039 255.078 251.332C255.078 250.16 258.072 249.175 264.061 248.936V247.806H269.209V248.915C271.911 248.988 274.54 249.185 276.622 249.516L274.03 251.289C271.51 250.926 269.137 250.75 266.909 250.75C264.389 250.75 263.586 250.957 263.586 251.206C263.586 252.077 277.717 251.351 277.717 254.027C277.716 255.148 274.868 256.123 269.208 256.403Z" fill="url(#paint21_linear_2288_208075)"></path><path d="M308.503 250.602C308.504 250.631 308.504 250.659 308.504 250.688C308.504 251.746 307.94 252.764 306.899 253.713C306.645 253.946 306.362 254.173 306.053 254.396C305.187 255.021 304.109 255.611 302.848 256.157C302.575 256.276 302.292 256.392 302.002 256.506C301.024 256.891 299.952 257.252 298.797 257.584C298.52 257.664 298.238 257.743 297.951 257.819C296.939 258.091 295.868 258.341 294.745 258.569C294.466 258.626 294.184 258.682 293.899 258.735C292.87 258.93 291.8 259.106 290.694 259.263C290.414 259.303 290.133 259.341 289.848 259.379C288.807 259.514 287.738 259.633 286.643 259.733C286.362 259.758 286.08 259.783 285.797 259.806C284.75 259.892 283.68 259.961 282.592 260.012C282.311 260.025 282.029 260.037 281.746 260.048C280.693 260.087 279.624 260.111 278.541 260.117C278.353 260.118 278.163 260.119 277.975 260.119C277.882 260.119 277.788 260.119 277.695 260.118C276.612 260.115 275.543 260.095 274.489 260.058C274.205 260.048 273.924 260.037 273.643 260.025C272.841 259.99 272.049 259.944 271.269 259.891C270.99 259.872 270.713 259.851 270.438 259.83C270.154 259.808 269.873 259.784 269.592 259.759C268.497 259.663 267.427 259.548 266.387 259.417C266.102 259.381 265.821 259.344 265.541 259.304C264.878 259.213 264.228 259.114 263.591 259.009C263.167 258.939 262.749 258.866 262.336 258.789C262.051 258.736 261.769 258.682 261.49 258.627C260.369 258.405 259.298 258.16 258.284 257.895C258.084 257.843 257.886 257.79 257.689 257.736C257.604 257.713 257.521 257.689 257.438 257.666C256.98 257.538 256.533 257.404 256.102 257.267C255.447 257.059 254.824 256.842 254.233 256.617C253.943 256.505 253.661 256.393 253.387 256.279C252.305 255.826 251.352 255.342 250.544 254.832C250.42 254.754 250.298 254.675 250.182 254.595C250.035 254.496 249.894 254.396 249.759 254.295C249.611 254.185 249.47 254.074 249.336 253.961C248.113 252.942 247.445 251.839 247.445 250.688C247.445 250.607 247.449 250.526 247.456 250.446L247.459 243.929L249.335 243.926L250.181 243.924L253.386 243.92L254.232 243.918L256.733 243.914L257.437 243.913L258.283 243.911L261.489 243.907L262.335 243.906L265.54 243.901L266.386 243.9L269.591 243.895L270.437 243.894L273.642 243.89L274.488 243.888L277.694 243.884L278.54 243.882L281.745 243.878L282.591 243.877L285.796 243.872L286.642 243.871L289.847 243.866L290.693 243.865L293.898 243.86L294.744 243.858L297.95 243.854L298.796 243.852H299.005L302.001 243.847L302.847 243.846L306.052 243.841L306.898 243.84L308.492 243.837L308.503 250.602Z" fill="url(#paint22_linear_2288_208075)"></path><path d="M250.178 243.924V254.595C250.031 254.496 249.89 254.396 249.755 254.295C249.607 254.185 249.466 254.074 249.332 253.961V243.926L250.178 243.924Z" fill="#DA8928"></path><path d="M254.229 243.918V256.617C253.939 256.505 253.657 256.393 253.383 256.279V243.92L254.229 243.918Z" fill="#DA8928"></path><path d="M258.28 243.911V257.894C258.08 257.842 257.882 257.789 257.685 257.735C257.6 257.712 257.517 257.688 257.434 257.665V243.913L258.28 243.911Z" fill="#DA8928"></path><path d="M262.334 243.906V258.788C262.049 258.735 261.767 258.681 261.488 258.626V243.907L262.334 243.906Z" fill="#DA8928"></path><path d="M266.385 243.9V259.415C266.1 259.379 265.819 259.342 265.539 259.302V243.9H266.385Z" fill="#DA8928"></path><path d="M270.436 243.894V259.829C270.152 259.807 269.871 259.783 269.59 259.758V243.895L270.436 243.894Z" fill="#DA8928"></path><path d="M274.487 243.888V260.058C274.203 260.048 273.922 260.037 273.641 260.025V243.89L274.487 243.888Z" fill="#DA8928"></path><path d="M278.537 243.882V260.117C278.349 260.118 278.159 260.119 277.971 260.119C277.878 260.119 277.784 260.119 277.691 260.118V243.884L278.537 243.882Z" fill="#DA8928"></path><path d="M282.592 243.876V260.011C282.311 260.024 282.029 260.036 281.746 260.047V243.877L282.592 243.876Z" fill="#DA8928"></path><path d="M286.643 243.87V259.733C286.362 259.758 286.08 259.783 285.797 259.806V243.871L286.643 243.87Z" fill="#DA8928"></path><path d="M290.694 243.864V259.263C290.414 259.303 290.133 259.341 289.848 259.379V243.865L290.694 243.864Z" fill="#DA8928"></path><path d="M294.744 243.858V258.569C294.465 258.626 294.183 258.682 293.898 258.735V243.859L294.744 243.858Z" fill="#DA8928"></path><path d="M298.795 243.852V257.584C298.518 257.664 298.236 257.743 297.949 257.819V243.853L298.795 243.852Z" fill="#DA8928"></path><path d="M302.85 243.846V256.157C302.577 256.276 302.294 256.392 302.004 256.506V243.847L302.85 243.846Z" fill="#DA8928"></path><path d="M306.901 243.84V253.712C306.647 253.945 306.364 254.172 306.055 254.395V243.84H306.901Z" fill="#DA8928"></path><path d="M308.497 243.92C308.497 248.707 294.834 252.588 277.974 252.588C275.671 252.588 273.427 252.516 271.27 252.378C268.557 252.206 265.981 251.93 263.594 251.567C261.463 251.243 259.484 250.85 257.694 250.397C257.147 250.259 256.617 250.115 256.107 249.966C253.862 249.312 251.98 248.557 250.551 247.728C250.271 247.566 250.009 247.402 249.766 247.234C248.275 246.213 247.453 245.093 247.453 243.919C247.453 243.812 247.461 243.704 247.478 243.597C248.07 238.959 261.498 235.251 277.976 235.251C282.031 235.251 285.901 235.476 289.44 235.883C290.124 235.962 290.795 236.047 291.453 236.14C294.328 236.542 296.946 237.07 299.222 237.696C299.723 237.834 300.208 237.977 300.676 238.124C302.338 238.649 303.778 239.231 304.953 239.86C306.164 240.508 307.094 241.206 307.697 241.939C308.137 242.474 308.402 243.029 308.475 243.597C308.491 243.706 308.497 243.813 308.497 243.92Z" fill="url(#paint23_linear_2288_208075)"></path><path d="M302.37 243.92C302.37 244.026 302.36 244.133 302.346 244.238C301.757 247.911 291.052 250.848 277.974 250.848C264.896 250.848 254.191 247.911 253.602 244.238C253.588 244.133 253.578 244.026 253.578 243.92C253.578 240.1 264.522 236.992 277.974 236.992C291.426 236.992 302.37 240.1 302.37 243.92Z" fill="#DA8928"></path><path d="M302.348 244.238C301.759 247.911 291.054 250.848 277.976 250.848C277.683 250.848 277.394 250.846 277.105 250.843C274.188 250.814 271.4 250.639 268.827 250.342C266.254 250.045 263.898 249.628 261.849 249.113C261.328 248.983 260.828 248.846 260.344 248.703C258.159 248.052 256.409 247.283 255.242 246.43C254.959 246.226 254.711 246.016 254.5 245.804C253.996 245.302 253.693 244.777 253.605 244.237C254.194 240.564 264.899 237.626 277.977 237.626C279.631 237.626 281.248 237.673 282.814 237.763C283.611 237.809 284.397 237.865 285.166 237.933C288.308 238.209 291.181 238.66 293.642 239.247C294.173 239.374 294.687 239.507 295.181 239.647C297.097 240.188 298.701 240.82 299.902 241.517C301.073 242.197 301.863 242.937 302.196 243.717C302.27 243.889 302.321 244.064 302.348 244.238Z" fill="url(#paint24_linear_2288_208075)"></path><path d="M281.369 247.851V249.002H276.22V247.903C272.568 247.841 269.026 247.561 266.836 247.177L269.611 245.393C272.021 245.798 275.234 246.057 278.046 246.057C280.493 246.057 281.369 245.912 281.369 245.663C281.369 244.75 267.238 245.487 267.238 242.78C267.238 241.608 270.232 240.623 276.221 240.384V239.254H281.37V240.364C284.072 240.437 286.701 240.634 288.783 240.966L286.191 242.739C283.671 242.376 281.298 242.2 279.071 242.2C276.551 242.2 275.748 242.407 275.748 242.656C275.748 243.527 289.879 242.801 289.879 245.477C289.877 246.596 287.028 247.571 281.369 247.851Z" fill="#DA8928"></path><path d="M281.22 247.468V248.619H276.072V247.52C272.42 247.458 268.878 247.178 266.688 246.794L269.463 245.01C271.873 245.414 275.086 245.674 277.898 245.674C280.345 245.674 281.221 245.529 281.221 245.28C281.221 244.367 267.09 245.104 267.09 242.397C267.09 241.225 270.084 240.24 276.073 240.002V238.872H281.221V239.981C283.923 240.054 286.552 240.251 288.634 240.582L286.042 242.355C283.522 241.992 281.149 241.816 278.921 241.816C276.402 241.816 275.598 242.023 275.598 242.272C275.598 243.143 289.729 242.417 289.729 245.093C289.728 246.213 286.88 247.188 281.22 247.468Z" fill="url(#paint25_linear_2288_208075)"></path><path d="M302.079 240.749C302.08 240.778 302.08 240.806 302.08 240.835C302.08 241.893 301.516 242.911 300.475 243.86C300.221 244.093 299.938 244.32 299.629 244.543C298.763 245.168 297.685 245.758 296.424 246.305C296.151 246.424 295.868 246.54 295.578 246.654C294.6 247.039 293.528 247.4 292.373 247.732C292.096 247.812 291.814 247.891 291.527 247.967C290.515 248.239 289.444 248.489 288.321 248.717C288.042 248.774 287.761 248.829 287.475 248.883C286.446 249.078 285.376 249.254 284.27 249.411C283.99 249.451 283.709 249.489 283.424 249.527C282.384 249.662 281.314 249.781 280.219 249.881C279.938 249.906 279.656 249.931 279.373 249.954C278.326 250.04 277.256 250.109 276.168 250.16C275.887 250.173 275.605 250.185 275.322 250.196C274.269 250.235 273.2 250.259 272.117 250.265C271.929 250.266 271.739 250.267 271.551 250.267C271.458 250.267 271.364 250.267 271.271 250.266C270.188 250.263 269.119 250.243 268.065 250.206C267.781 250.196 267.499 250.185 267.219 250.173C266.418 250.138 265.625 250.092 264.845 250.039C264.566 250.02 264.289 249.999 264.014 249.977C263.73 249.955 263.449 249.931 263.168 249.906C262.073 249.81 261.003 249.695 259.963 249.564C259.678 249.528 259.397 249.491 259.117 249.451C258.454 249.36 257.804 249.261 257.167 249.156C256.743 249.086 256.325 249.013 255.912 248.936C255.628 248.883 255.345 248.829 255.066 248.774C253.945 248.552 252.874 248.307 251.86 248.042C251.66 247.99 251.462 247.937 251.265 247.883C251.181 247.86 251.097 247.836 251.014 247.813C250.556 247.685 250.109 247.551 249.677 247.414C249.022 247.206 248.399 246.989 247.808 246.764C247.518 246.652 247.236 246.54 246.962 246.426C245.881 245.973 244.927 245.489 244.119 244.979C243.995 244.901 243.873 244.822 243.757 244.742C243.61 244.643 243.469 244.543 243.334 244.442C243.186 244.332 243.045 244.221 242.911 244.108C241.688 243.089 241.02 241.986 241.02 240.835C241.02 240.754 241.024 240.673 241.031 240.593L241.034 234.076L242.91 234.073L243.756 234.071L246.961 234.067L247.807 234.065L250.308 234.061L251.012 234.06L251.858 234.058L255.064 234.054L255.91 234.053L259.115 234.048L259.961 234.047L263.166 234.042L264.012 234.041L267.217 234.037L268.063 234.035L271.269 234.031L272.115 234.029L275.32 234.025L276.166 234.024L279.371 234.019L280.217 234.018L283.422 234.013L284.268 234.012L287.473 234.007L288.319 234.005L291.525 234.001L292.371 233.999H292.58L295.576 233.994L296.422 233.993L299.627 233.988L300.473 233.987L302.067 233.984L302.079 240.748V240.749Z" fill="url(#paint26_linear_2288_208075)"></path><path d="M243.752 234.072V244.743C243.605 244.644 243.464 244.544 243.329 244.443C243.181 244.333 243.04 244.222 242.906 244.109V234.074L243.752 234.072Z" fill="#DA8928"></path><path d="M247.803 234.065V246.764C247.513 246.652 247.231 246.54 246.957 246.426V234.067L247.803 234.065Z" fill="#DA8928"></path><path d="M251.854 234.059V248.042C251.654 247.99 251.456 247.937 251.259 247.883C251.175 247.86 251.091 247.836 251.008 247.813V234.061L251.854 234.059Z" fill="#DA8928"></path><path d="M255.909 234.054V248.936C255.625 248.883 255.342 248.829 255.062 248.774V234.055L255.909 234.054Z" fill="#DA8928"></path><path d="M259.959 234.048V249.563C259.674 249.527 259.393 249.49 259.113 249.45V234.048H259.959Z" fill="#DA8928"></path><path d="M264.01 234.042V249.977C263.726 249.955 263.445 249.931 263.164 249.906V234.043L264.01 234.042Z" fill="#DA8928"></path><path d="M268.061 234.035V250.205C267.777 250.195 267.495 250.184 267.215 250.172V234.037L268.061 234.035Z" fill="#DA8928"></path><path d="M272.112 234.029V250.264C271.924 250.265 271.734 250.266 271.546 250.266C271.453 250.266 271.359 250.266 271.266 250.265V234.031L272.112 234.029Z" fill="#DA8928"></path><path d="M276.162 234.024V250.159C275.881 250.172 275.599 250.184 275.316 250.195V234.025L276.162 234.024Z" fill="#DA8928"></path><path d="M280.217 234.018V249.881C279.936 249.906 279.654 249.931 279.371 249.954V234.019L280.217 234.018Z" fill="#DA8928"></path><path d="M284.268 234.012V249.411C283.988 249.451 283.707 249.489 283.422 249.527V234.013L284.268 234.012Z" fill="#DA8928"></path><path d="M288.319 234.006V248.717C288.04 248.774 287.759 248.829 287.473 248.883V234.007L288.319 234.006Z" fill="#DA8928"></path><path d="M292.369 234V247.732C292.092 247.812 291.81 247.891 291.523 247.967V234.001L292.369 234Z" fill="#DA8928"></path><path d="M296.424 233.994V246.305C296.151 246.424 295.868 246.54 295.578 246.654V233.995L296.424 233.994Z" fill="#DA8928"></path><path d="M300.475 233.988V243.86C300.221 244.093 299.938 244.32 299.629 244.543V233.988H300.475Z" fill="#DA8928"></path><path d="M302.072 234.068C302.072 238.855 288.409 242.736 271.549 242.736C269.246 242.736 267.002 242.664 264.845 242.526C262.132 242.354 259.556 242.078 257.168 241.715C255.037 241.391 253.058 240.998 251.268 240.545C250.721 240.407 250.191 240.263 249.681 240.114C247.436 239.46 245.554 238.705 244.125 237.876C243.845 237.714 243.583 237.55 243.34 237.382C241.849 236.361 241.027 235.241 241.027 234.067C241.027 233.96 241.035 233.852 241.052 233.745C241.644 229.107 255.072 225.399 271.55 225.399C275.605 225.399 279.475 225.624 283.014 226.031C283.698 226.11 284.369 226.195 285.027 226.288C287.902 226.69 290.52 227.218 292.796 227.844C293.297 227.982 293.782 228.125 294.25 228.272C295.913 228.797 297.352 229.379 298.527 230.008C299.738 230.656 300.668 231.353 301.271 232.087C301.711 232.622 301.976 233.177 302.049 233.745C302.066 233.853 302.072 233.961 302.072 234.068Z" fill="url(#paint27_linear_2288_208075)"></path><path d="M295.948 234.068C295.948 234.174 295.938 234.281 295.924 234.386C295.335 238.059 284.63 240.996 271.552 240.996C258.474 240.996 247.769 238.059 247.18 234.386C247.166 234.281 247.156 234.174 247.156 234.068C247.156 230.248 258.1 227.14 271.552 227.14C285.004 227.14 295.948 230.248 295.948 234.068Z" fill="#DA8928"></path><path d="M295.923 234.386C295.334 238.059 284.629 240.996 271.551 240.996C271.258 240.996 270.969 240.994 270.68 240.991C267.763 240.962 264.975 240.787 262.402 240.49C259.829 240.193 257.473 239.776 255.424 239.261C254.903 239.131 254.403 238.994 253.919 238.851C251.734 238.2 249.984 237.431 248.817 236.578C248.534 236.374 248.286 236.164 248.075 235.951C247.571 235.449 247.268 234.925 247.18 234.384C247.769 230.711 258.474 227.773 271.552 227.773C273.206 227.773 274.823 227.82 276.389 227.91C277.186 227.956 277.972 228.012 278.741 228.08C281.883 228.356 284.756 228.807 287.217 229.394C287.748 229.521 288.262 229.654 288.756 229.794C290.673 230.335 292.276 230.967 293.477 231.664C294.648 232.344 295.438 233.084 295.771 233.864C295.845 234.037 295.896 234.211 295.923 234.386Z" fill="url(#paint28_linear_2288_208075)"></path><path d="M274.943 237.999V239.15H269.794V238.051C266.143 237.989 262.601 237.709 260.41 237.325L263.185 235.541C265.595 235.945 268.808 236.205 271.62 236.205C274.067 236.205 274.943 236.06 274.943 235.811C274.943 234.898 260.812 235.635 260.812 232.928C260.812 231.756 263.806 230.771 269.795 230.533V229.403H274.944V230.513C277.646 230.586 280.275 230.783 282.357 231.115L279.764 232.888C277.244 232.525 274.871 232.349 272.644 232.349C270.124 232.349 269.321 232.556 269.321 232.805C269.321 233.676 283.452 232.95 283.452 235.626C283.451 236.744 280.602 237.719 274.943 237.999Z" fill="#DA8928"></path><path d="M274.795 237.616V238.767H269.646V237.668C265.994 237.606 262.452 237.326 260.262 236.942L263.037 235.158C265.447 235.562 268.66 235.822 271.472 235.822C273.919 235.822 274.795 235.677 274.795 235.428C274.795 234.515 260.664 235.252 260.664 232.545C260.664 231.373 263.658 230.388 269.647 230.15V229.02H274.796V230.129C277.498 230.202 280.127 230.399 282.209 230.73L279.617 232.503C277.097 232.14 274.724 231.964 272.496 231.964C269.976 231.964 269.173 232.171 269.173 232.42C269.173 233.291 283.304 232.565 283.304 235.241C283.303 236.361 280.455 237.336 274.795 237.616Z" fill="url(#paint29_linear_2288_208075)"></path><path d="M312.477 231.595C312.478 231.624 312.478 231.652 312.478 231.681C312.478 232.739 311.913 233.757 310.873 234.706C310.619 234.939 310.336 235.166 310.027 235.389C309.161 236.014 308.083 236.604 306.822 237.151C306.549 237.27 306.266 237.386 305.976 237.5C304.998 237.886 303.926 238.246 302.771 238.578C302.494 238.658 302.212 238.737 301.925 238.813C300.913 239.085 299.842 239.335 298.719 239.563C298.44 239.62 298.159 239.676 297.873 239.729C296.844 239.924 295.774 240.1 294.668 240.257C294.388 240.297 294.107 240.335 293.822 240.373C292.782 240.508 291.712 240.627 290.617 240.727C290.336 240.752 290.054 240.777 289.771 240.8C288.724 240.886 287.654 240.955 286.566 241.006C286.285 241.019 286.003 241.031 285.72 241.042C284.667 241.081 283.598 241.105 282.515 241.111C282.327 241.112 282.137 241.113 281.949 241.113C281.856 241.113 281.762 241.113 281.669 241.112C280.586 241.109 279.517 241.089 278.463 241.052C278.179 241.042 277.897 241.031 277.617 241.019C276.816 240.984 276.023 240.938 275.243 240.885C274.964 240.866 274.687 240.845 274.412 240.823C274.128 240.801 273.847 240.777 273.566 240.752C272.471 240.656 271.401 240.541 270.361 240.41C270.076 240.374 269.795 240.337 269.515 240.297C268.852 240.206 268.202 240.107 267.565 240.002C267.141 239.932 266.723 239.859 266.31 239.782C266.026 239.729 265.743 239.675 265.464 239.62C264.343 239.398 263.272 239.153 262.258 238.888C262.058 238.836 261.86 238.783 261.663 238.729C261.579 238.706 261.495 238.682 261.412 238.659C260.954 238.531 260.507 238.397 260.075 238.26C259.42 238.052 258.797 237.835 258.206 237.61C257.916 237.498 257.634 237.386 257.36 237.272C256.279 236.819 255.325 236.335 254.517 235.825C254.393 235.747 254.271 235.668 254.155 235.588C254.008 235.489 253.867 235.389 253.732 235.288C253.584 235.178 253.444 235.067 253.309 234.954C252.086 233.935 251.418 232.832 251.418 231.681C251.418 231.6 251.422 231.519 251.429 231.439L251.432 224.922L253.308 224.919L254.154 224.917L257.359 224.913L258.205 224.911L260.706 224.907L261.41 224.906L262.256 224.904L265.462 224.9L266.308 224.899L269.513 224.894L270.359 224.893L273.564 224.888L274.41 224.887L277.615 224.883L278.461 224.881L281.667 224.876L282.513 224.874L285.718 224.87L286.564 224.869L289.769 224.864L290.615 224.863L293.82 224.858L294.666 224.857L297.871 224.852L298.717 224.85L301.923 224.846L302.769 224.844H302.978L305.974 224.839L306.82 224.838L310.025 224.833L310.871 224.832L312.465 224.829L312.477 231.593V231.595Z" fill="url(#paint30_linear_2288_208075)"></path><path d="M254.151 224.918V235.589C254.004 235.49 253.863 235.39 253.728 235.289C253.58 235.179 253.44 235.068 253.305 234.955V224.92L254.151 224.918Z" fill="#DA8928"></path><path d="M258.201 224.911V237.61C257.911 237.498 257.629 237.386 257.355 237.272V224.913L258.201 224.911Z" fill="#DA8928"></path><path d="M262.252 224.905V238.888C262.052 238.836 261.854 238.783 261.657 238.729C261.573 238.706 261.489 238.682 261.406 238.659V224.907L262.252 224.905Z" fill="#DA8928"></path><path d="M266.307 224.9V239.782C266.023 239.729 265.74 239.675 265.461 239.62V224.901L266.307 224.9Z" fill="#DA8928"></path><path d="M270.358 224.894V240.409C270.073 240.373 269.792 240.336 269.512 240.296V224.894H270.358Z" fill="#DA8928"></path><path d="M274.409 224.888V240.823C274.125 240.801 273.843 240.777 273.562 240.752V224.889L274.409 224.888Z" fill="#DA8928"></path><path d="M278.459 224.882V241.052C278.175 241.042 277.893 241.031 277.613 241.019V224.884L278.459 224.882Z" fill="#DA8928"></path><path d="M282.51 224.875V241.11C282.322 241.111 282.132 241.112 281.944 241.112C281.851 241.112 281.757 241.112 281.664 241.111V224.877L282.51 224.875Z" fill="#DA8928"></path><path d="M286.561 224.87V241.005C286.28 241.018 285.998 241.03 285.715 241.041V224.871L286.561 224.87Z" fill="#DA8928"></path><path d="M290.616 224.864V240.727C290.335 240.752 290.053 240.777 289.77 240.8V224.865L290.616 224.864Z" fill="#DA8928"></path><path d="M294.666 224.858V240.257C294.386 240.297 294.105 240.335 293.82 240.373V224.859L294.666 224.858Z" fill="#DA8928"></path><path d="M298.717 224.852V239.563C298.438 239.62 298.157 239.676 297.871 239.729V224.853L298.717 224.852Z" fill="#DA8928"></path><path d="M302.768 224.846V238.578C302.491 238.658 302.209 238.737 301.922 238.813V224.847L302.768 224.846Z" fill="#DA8928"></path><path d="M306.823 224.84V237.151C306.55 237.27 306.267 237.386 305.977 237.5V224.841L306.823 224.84Z" fill="#DA8928"></path><path d="M310.873 224.834V234.706C310.619 234.939 310.336 235.166 310.027 235.389V224.834H310.873Z" fill="#DA8928"></path><path d="M312.471 224.914C312.471 229.701 298.808 233.582 281.948 233.582C279.645 233.582 277.401 233.51 275.244 233.372C272.531 233.2 269.954 232.924 267.567 232.561C265.436 232.237 263.457 231.844 261.667 231.391C261.12 231.253 260.59 231.109 260.08 230.96C257.835 230.306 255.953 229.551 254.524 228.722C254.244 228.56 253.982 228.396 253.739 228.228C252.248 227.207 251.426 226.087 251.426 224.913C251.426 224.806 251.434 224.698 251.451 224.591C252.043 219.953 265.471 216.245 281.949 216.245C286.004 216.245 289.874 216.47 293.413 216.877C294.097 216.956 294.768 217.041 295.426 217.134C298.301 217.536 300.919 218.064 303.195 218.69C303.696 218.828 304.181 218.971 304.649 219.119C306.311 219.644 307.751 220.226 308.926 220.855C310.137 221.503 311.067 222.201 311.67 222.934C312.11 223.469 312.375 224.024 312.448 224.592C312.464 224.699 312.471 224.807 312.471 224.914Z" fill="url(#paint31_linear_2288_208075)"></path><path d="M306.347 224.914C306.347 225.02 306.337 225.127 306.323 225.232C305.734 228.905 295.029 231.842 281.951 231.842C268.873 231.842 258.168 228.905 257.579 225.232C257.565 225.127 257.555 225.02 257.555 224.914C257.555 221.094 268.498 217.986 281.951 217.986C295.403 217.986 306.347 221.094 306.347 224.914Z" fill="#DA8928"></path><path d="M306.321 225.232C305.732 228.905 295.027 231.842 281.949 231.842C281.656 231.842 281.367 231.84 281.078 231.837C278.161 231.808 275.373 231.633 272.8 231.336C270.227 231.039 267.871 230.622 265.822 230.107C265.301 229.977 264.801 229.84 264.317 229.697C262.132 229.046 260.382 228.277 259.215 227.424C258.932 227.22 258.684 227.01 258.473 226.797C257.969 226.295 257.666 225.771 257.578 225.23C258.167 221.557 268.872 218.619 281.95 218.619C283.604 218.619 285.221 218.666 286.787 218.756C287.584 218.802 288.37 218.858 289.139 218.926C292.281 219.202 295.154 219.653 297.615 220.24C298.146 220.367 298.66 220.5 299.154 220.64C301.071 221.181 302.674 221.813 303.875 222.51C305.046 223.19 305.836 223.93 306.169 224.71C306.242 224.883 306.293 225.057 306.321 225.232Z" fill="url(#paint32_linear_2288_208075)"></path><path d="M285.338 228.845V229.996H280.189V228.897C276.537 228.835 272.996 228.555 270.805 228.171L273.58 226.387C275.99 226.792 279.203 227.051 282.015 227.051C284.462 227.051 285.338 226.906 285.338 226.657C285.338 225.744 271.207 226.481 271.207 223.774C271.207 222.602 274.201 221.617 280.19 221.378V220.248H285.339V221.358C288.041 221.431 290.67 221.628 292.752 221.96L290.159 223.733C287.639 223.37 285.266 223.194 283.039 223.194C280.519 223.194 279.716 223.401 279.716 223.65C279.716 224.521 293.847 223.795 293.847 226.471C293.846 227.59 290.998 228.565 285.338 228.845Z" fill="#DA8928"></path><path d="M285.189 228.462V229.613H280.04V228.514C276.388 228.452 272.846 228.172 270.656 227.788L273.431 226.004C275.841 226.408 279.054 226.668 281.866 226.668C284.313 226.668 285.189 226.523 285.189 226.274C285.189 225.361 271.058 226.098 271.058 223.391C271.058 222.219 274.052 221.234 280.041 220.995V219.865H285.19V220.975C287.892 221.047 290.521 221.245 292.603 221.576L290.011 223.349C287.491 222.986 285.118 222.81 282.89 222.81C280.37 222.81 279.567 223.017 279.567 223.266C279.567 224.137 293.698 223.411 293.698 226.087C293.698 227.207 290.849 228.182 285.189 228.462Z" fill="url(#paint33_linear_2288_208075)"></path><path opacity="0.7" d="M320.373 262.573C320.352 276.693 330.973 269.88 302.687 275.933C286.984 279.293 279.262 279.452 279.262 279.452C276.797 275.537 273.98 269.417 274.34 261.779C274.355 261.463 275.94 240.149 300.17 236.247C303.524 235.707 306.689 238.955 309.652 240.162C310.224 240.396 310.787 240.648 311.337 240.921C313.744 242.111 315.935 243.669 317.839 245.521C318.258 245.929 318.664 246.351 319.055 246.787C320.445 248.337 321.649 250.057 322.631 251.913C323.642 253.827 324.419 255.884 324.921 258.047C325.287 259.627 325.507 261.262 325.565 262.939C325.578 263.257 320.374 262.257 320.373 262.573Z" fill="#DA8928"></path><path d="M329.344 255.514C332.478 269.282 323.859 282.985 310.088 286.12C308.207 286.548 306.327 286.757 304.474 286.762C302.145 286.771 299.861 286.457 297.673 285.858C295.721 285.323 293.846 284.559 292.088 283.59C291.551 283.294 291.024 282.979 290.509 282.645C288.247 281.18 286.215 279.36 284.505 277.242C284.171 276.828 283.848 276.404 283.54 275.968C281.654 273.308 280.249 270.24 279.481 266.864C279.411 266.556 279.347 266.245 279.29 265.934C276.737 252.484 285.278 239.322 298.737 236.258C302.049 235.504 305.357 235.43 308.514 235.944C309.124 236.044 309.729 236.165 310.326 236.308C312.938 236.931 315.422 237.96 317.691 239.34C318.191 239.644 318.68 239.965 319.159 240.302C320.861 241.503 322.418 242.91 323.789 244.5C325.202 246.139 326.419 247.972 327.391 249.968C328.101 251.426 328.681 252.971 329.112 254.592C329.198 254.898 329.274 255.206 329.344 255.514Z" fill="url(#paint34_linear_2288_208075)"></path><path d="M324.341 256.654C324.411 256.96 324.472 257.268 324.53 257.573C326.454 268.248 319.632 278.684 308.951 281.116C298.269 283.547 287.602 277.091 284.717 266.636C284.637 266.335 284.559 266.032 284.489 265.726C281.988 254.738 288.892 243.765 299.88 241.264C310.867 238.763 321.84 245.666 324.341 256.654Z" fill="#DA8928"></path><path d="M324.531 257.573C326.455 268.248 319.633 278.684 308.952 281.116C308.713 281.171 308.475 281.219 308.237 281.264C305.835 281.723 303.444 281.738 301.148 281.363C298.852 280.988 296.655 280.225 294.644 279.127C294.133 278.848 293.635 278.55 293.147 278.228C290.936 276.763 289.003 274.875 287.492 272.64C287.127 272.106 286.787 271.549 286.476 270.977C285.736 269.627 285.145 268.174 284.719 266.636C282.795 255.961 289.616 245.522 300.298 243.09C301.649 242.783 303.001 242.618 304.339 242.586C305.019 242.569 305.699 242.586 306.372 242.638C309.119 242.846 311.761 243.611 314.155 244.841C314.672 245.106 315.179 245.394 315.674 245.706C317.594 246.907 319.316 248.424 320.754 250.205C322.155 251.942 323.285 253.925 324.068 256.106C324.239 256.584 324.394 257.075 324.531 257.573Z" fill="url(#paint35_linear_2288_208075)"></path><path d="M309.756 271.864L310.51 275.175L306.304 276.132L305.584 272.971C302.561 273.471 299.484 273.324 297.444 272.628L298.543 266.982C300.776 267.697 303.571 267.845 305.867 267.323C307.865 266.868 308.486 266.287 308.323 265.572C307.726 262.948 296.665 267.692 294.893 259.908C294.126 256.538 295.927 253.148 300.662 251.348L299.922 248.097L304.127 247.14L304.854 250.331C307.109 250.038 309.385 250.115 311.302 250.683L310.345 256.265C308.049 255.69 305.995 255.624 304.176 256.038C302.118 256.507 301.598 257.253 301.761 257.968C302.331 260.474 313.398 255.758 315.15 263.453C315.884 266.673 314.196 270.007 309.756 271.864Z" fill="#DA8928"></path><path d="M309.384 270.79L310.138 274.101L305.933 275.058L305.213 271.897C302.19 272.397 299.113 272.25 297.073 271.554L298.172 265.908C300.405 266.623 303.2 266.771 305.496 266.248C307.495 265.793 308.115 265.213 307.952 264.497C307.354 261.872 296.294 266.617 294.522 258.833C293.755 255.463 295.556 252.073 300.291 250.273L299.551 247.022L303.756 246.065L304.482 249.256C306.737 248.962 309.013 249.04 310.931 249.608L309.974 255.19C307.678 254.615 305.624 254.549 303.805 254.963C301.747 255.431 301.227 256.177 301.39 256.893C301.96 259.398 313.028 254.683 314.779 262.378C315.512 265.6 313.824 268.933 309.384 270.79Z" fill="url(#paint36_linear_2288_208075)"></path><path d="M138.394 114.217H116.883C114.946 114.217 113.375 112.647 113.375 110.709C113.375 108.772 114.945 107.201 116.883 107.201H138.394C140.331 107.201 141.902 108.771 141.902 110.709C141.902 112.647 140.331 114.217 138.394 114.217Z" fill="url(#paint37_linear_2288_208075)"></path><path d="M166.857 126.73H116.883C114.946 126.73 113.375 125.159 113.375 123.222C113.375 121.285 114.945 119.714 116.883 119.714H166.857C168.794 119.714 170.365 121.285 170.365 123.222C170.365 125.159 168.794 126.73 166.857 126.73Z" fill="url(#paint38_linear_2288_208075)"></path><path d="M146.858 139.216H116.883C114.946 139.216 113.375 137.646 113.375 135.708C113.375 133.771 114.945 132.2 116.883 132.2H146.858C148.795 132.2 150.366 133.77 150.366 135.708C150.366 137.646 148.795 139.216 146.858 139.216Z" fill="url(#paint39_linear_2288_208075)"></path><path d="M133.436 150.927H116.883C114.946 150.927 113.375 149.357 113.375 147.419C113.375 145.482 114.945 143.911 116.883 143.911H133.436C135.373 143.911 136.944 145.481 136.944 147.419C136.944 149.357 135.373 150.927 133.436 150.927Z" fill="url(#paint40_linear_2288_208075)"></path><path d="M155.169 162.558H116.883C114.946 162.558 113.375 160.988 113.375 159.05C113.375 157.113 114.945 155.542 116.883 155.542H155.169C157.106 155.542 158.677 157.112 158.677 159.05C158.677 160.987 157.107 162.558 155.169 162.558Z" fill="url(#paint41_linear_2288_208075)"></path><path d="M228.796 133.338L217.691 120.473C216.555 119.158 214.516 119.158 213.38 120.473L202.275 133.338C200.683 135.183 201.993 138.045 204.43 138.045H206.627C207.148 138.045 207.57 138.467 207.57 138.988V164.664C207.57 166.236 208.845 167.511 210.417 167.511H220.654C222.226 167.511 223.501 166.236 223.501 164.664V138.988C223.501 138.467 223.923 138.045 224.444 138.045H226.641C229.078 138.045 230.388 135.183 228.796 133.338Z" fill="url(#paint42_linear_2288_208075)"></path><path d="M265.707 114.334L254.602 101.468C253.466 100.152 251.427 100.152 250.291 101.468L239.186 114.334C237.594 116.179 238.904 119.041 241.341 119.041H243.538C244.059 119.041 244.481 119.463 244.481 119.984V145.66C244.481 145.74 244.498 145.816 244.505 145.895V164.438C244.505 166.135 245.881 167.511 247.578 167.511H257.339C259.023 167.511 260.388 166.146 260.388 164.462V145.897C260.395 145.818 260.412 145.741 260.412 145.66V119.984C260.412 119.463 260.834 119.041 261.355 119.041H263.551C265.988 119.041 267.299 116.178 265.707 114.334Z" fill="url(#paint43_linear_2288_208075)"></path><path d="M44.1957 281.998H124.554C126.795 281.998 128.613 280.181 128.613 277.939V211.876C128.613 209.635 126.796 207.817 124.554 207.817H44.1957C41.9537 207.817 40.1367 209.634 40.1367 211.876V277.939C40.1377 280.181 41.9547 281.998 44.1957 281.998Z" fill="url(#paint44_linear_2288_208075)"></path><path d="M124.555 207.817H44.1957C41.9537 207.817 40.1367 209.634 40.1367 211.876V229.177H128.612V211.876C128.613 209.634 126.796 207.817 124.555 207.817Z" fill="url(#paint45_linear_2288_208075)"></path><path d="M107.399 247.691H117.568C118.003 247.691 118.355 247.338 118.355 246.904V236.735C118.355 236.3 118.003 235.948 117.568 235.948H107.4C106.965 235.948 106.613 236.301 106.613 236.735V246.904C106.612 247.339 106.965 247.691 107.399 247.691Z" fill="url(#paint46_linear_2288_208075)"></path><path d="M93.6268 247.691H103.796C104.231 247.691 104.583 247.338 104.583 246.904V236.735C104.583 236.3 104.23 235.948 103.796 235.948H93.6268C93.1918 235.948 92.8398 236.301 92.8398 236.735V246.904C92.8388 247.339 93.1918 247.691 93.6268 247.691Z" fill="url(#paint47_linear_2288_208075)"></path><path d="M59.5339 213.376C58.2059 213.376 57.1289 212.299 57.1289 210.971V202.455C57.1289 201.127 58.2059 200.05 59.5339 200.05C60.8619 200.05 61.9389 201.127 61.9389 202.455V210.971C61.9389 212.3 60.8619 213.376 59.5339 213.376Z" fill="url(#paint48_linear_2288_208075)"></path><path d="M71.1394 213.368C69.8114 213.368 68.7344 212.291 68.7344 210.963V202.447C68.7344 201.118 69.8114 200.042 71.1394 200.042C72.4674 200.042 73.5444 201.119 73.5444 202.447V210.963C73.5444 212.291 72.4674 213.368 71.1394 213.368Z" fill="url(#paint49_linear_2288_208075)"></path><path d="M83.3152 213.381C81.9872 213.381 80.9102 212.304 80.9102 210.976V202.46C80.9102 201.131 81.9872 200.055 83.3152 200.055C84.6432 200.055 85.7202 201.132 85.7202 202.46V210.976C85.7202 212.305 84.6432 213.381 83.3152 213.381Z" fill="url(#paint50_linear_2288_208075)"></path><path d="M94.9245 213.372C93.5965 213.372 92.5195 212.295 92.5195 210.967V202.451C92.5195 201.122 93.5965 200.046 94.9245 200.046C96.2525 200.046 97.3295 201.122 97.3295 202.451V210.967C97.3295 212.295 96.2525 213.372 94.9245 213.372Z" fill="url(#paint51_linear_2288_208075)"></path><path d="M79.7597 247.691H89.9287C90.3637 247.691 90.7157 247.338 90.7157 246.904V236.735C90.7157 236.3 90.3627 235.948 89.9287 235.948H79.7597C79.3247 235.948 78.9727 236.301 78.9727 236.735V246.904C78.9727 247.339 79.3247 247.691 79.7597 247.691Z" fill="url(#paint52_linear_2288_208075)"></path><path d="M65.9862 247.691H76.1552C76.5902 247.691 76.9422 247.338 76.9422 246.904V236.735C76.9422 236.3 76.5902 235.948 76.1552 235.948H65.9862C65.5512 235.948 65.1992 236.301 65.1992 236.735V246.904C65.1992 247.339 65.5522 247.691 65.9862 247.691Z" fill="url(#paint53_linear_2288_208075)"></path><path d="M107.303 260.765H117.472C117.907 260.765 118.259 260.412 118.259 259.978V249.809C118.259 249.374 117.906 249.022 117.472 249.022H107.303C106.868 249.022 106.516 249.375 106.516 249.809V259.978C106.516 260.413 106.868 260.765 107.303 260.765Z" fill="url(#paint54_linear_2288_208075)"></path><path d="M93.5292 260.765H103.698C104.133 260.765 104.485 260.412 104.485 259.978V249.809C104.485 249.374 104.132 249.022 103.698 249.022H93.5292C93.0942 249.022 92.7422 249.375 92.7422 249.809V259.978C92.7422 260.413 93.0942 260.765 93.5292 260.765Z" fill="url(#paint55_linear_2288_208075)"></path><path d="M79.6591 260.765H89.8281C90.2631 260.765 90.6151 260.412 90.6151 259.978V249.809C90.6151 249.374 90.2621 249.022 89.8271 249.022H79.6581C79.2231 249.022 78.8711 249.375 78.8711 249.809V259.978C78.8721 260.413 79.2251 260.765 79.6591 260.765Z" fill="url(#paint56_linear_2288_208075)"></path><path d="M65.8886 260.765H76.0576C76.4926 260.765 76.8446 260.412 76.8446 259.978V249.809C76.8446 249.374 76.4916 249.022 76.0576 249.022H65.8886C65.4536 249.022 65.1016 249.375 65.1016 249.809V259.978C65.1016 260.413 65.4536 260.765 65.8886 260.765Z" fill="url(#paint57_linear_2288_208075)"></path><path d="M107.205 273.95H117.374C117.809 273.95 118.161 273.597 118.161 273.163V262.994C118.161 262.559 117.809 262.207 117.374 262.207H107.205C106.77 262.207 106.418 262.56 106.418 262.994V273.163C106.417 273.597 106.77 273.95 107.205 273.95Z" fill="url(#paint58_linear_2288_208075)"></path><path d="M93.4315 273.95H103.601C104.036 273.95 104.388 273.597 104.388 273.163V262.994C104.388 262.559 104.035 262.207 103.601 262.207H93.4315C92.9965 262.207 92.6445 262.56 92.6445 262.994V273.163C92.6445 273.597 92.9965 273.95 93.4315 273.95Z" fill="url(#paint59_linear_2288_208075)"></path><path d="M79.5604 273.95H89.7294C90.1644 273.95 90.5164 273.597 90.5164 273.163V262.994C90.5164 262.559 90.1644 262.207 89.7294 262.207H79.5604C79.1254 262.207 78.7734 262.56 78.7734 262.994V273.163C78.7734 273.597 79.1254 273.95 79.5604 273.95Z" fill="url(#paint60_linear_2288_208075)"></path><path d="M65.787 273.95H75.956C76.391 273.95 76.743 273.597 76.743 273.163V262.994C76.743 262.559 76.39 262.207 75.956 262.207H65.787C65.352 262.207 65 262.56 65 262.994V273.163C65 273.597 65.353 273.95 65.787 273.95Z" fill="url(#paint61_linear_2288_208075)"></path><path d="M67.6836 251.928L73.7226 257.967" stroke="white" stroke-miterlimit="10" stroke-linecap="round"></path><path d="M73.7226 251.928L67.6836 257.967" stroke="white" stroke-miterlimit="10" stroke-linecap="round"></path><path d="M106.557 213.372C105.229 213.372 104.152 212.295 104.152 210.967V202.451C104.152 201.122 105.229 200.046 106.557 200.046C107.885 200.046 108.962 201.122 108.962 202.451V210.967C108.962 212.295 107.885 213.372 106.557 213.372Z" fill="url(#paint62_linear_2288_208075)"></path><path d="M51.8993 247.691H62.0683C62.5033 247.691 62.8553 247.338 62.8553 246.904V236.735C62.8553 236.3 62.5023 235.948 62.0683 235.948H51.9003C51.4653 235.948 51.1133 236.301 51.1133 236.735V246.904C51.1123 247.339 51.4653 247.691 51.8993 247.691Z" fill="url(#paint63_linear_2288_208075)"></path><path d="M51.8026 260.765H61.9716C62.4066 260.765 62.7586 260.412 62.7586 259.978V249.809C62.7586 249.374 62.4066 249.022 61.9716 249.022H51.8026C51.3676 249.022 51.0156 249.375 51.0156 249.809V259.978C51.0156 260.413 51.3676 260.765 51.8026 260.765Z" fill="url(#paint64_linear_2288_208075)"></path><path d="M51.705 273.95H61.874C62.309 273.95 62.661 273.597 62.661 273.163V262.994C62.661 262.559 62.308 262.207 61.874 262.207H51.705C51.27 262.207 50.918 262.56 50.918 262.994V273.163C50.917 273.597 51.27 273.95 51.705 273.95Z" fill="url(#paint65_linear_2288_208075)"></path><path d="M22.7041 118.114H92.0081C94.2171 118.114 96.0091 119.905 96.0091 122.114V173.157C96.0091 175.366 94.2181 177.157 92.0081 177.157H22.7041C20.4951 177.157 18.7031 175.366 18.7031 173.157V122.114C18.7031 119.905 20.4951 118.114 22.7041 118.114Z" fill="url(#paint66_linear_2288_208075)"></path><path d="M51.1928 127.15C62.8228 122.889 71.6238 134.212 70.3618 143.22C69.8128 152.101 59.4208 157.59 60.3648 160.944C58.2178 160.944 53.8988 160.944 51.7528 160.944C51.7528 160.944 52.3648 159.293 50.1208 157.311C41.6508 150.636 36.1948 133.89 51.1928 127.15Z" fill="white"></path><path d="M60.3653 160.944C60.3173 165.016 61.3553 169.925 55.4333 169.472C50.7833 169.32 51.8353 164.071 51.7473 160.944H60.3653Z" fill="url(#paint67_linear_2288_208075)"></path><path d="M57.7838 160.944C57.7838 160.944 57.6278 147.391 58.8218 143.632C60.0158 139.873 62.4028 136.972 64.1678 140.203C67.5628 150.474 49.3438 153.05 47.9228 143.961C46.0438 135.196 55.9048 134.449 54.2588 160.944" stroke="url(#paint68_linear_2288_208075)" stroke-miterlimit="10"></path><path d="M249.61 28.637H318.913C321.122 28.637 322.913 30.428 322.913 32.637V83.68C322.913 85.889 321.122 87.681 318.913 87.681H249.61C247.401 87.681 245.609 85.89 245.609 83.68V32.637C245.609 30.428 247.4 28.637 249.61 28.637Z" fill="url(#paint69_linear_2288_208075)"></path><path d="M298.34 42.66C298.713 42.287 298.706 41.676 298.32 41.316L298.319 41.315C298.086 41.103 297.849 40.896 297.606 40.695C297.601 40.69 297.596 40.686 297.59 40.681C297.349 40.482 297.104 40.288 296.854 40.1C296.846 40.094 296.839 40.088 296.831 40.082C296.581 39.894 296.326 39.713 296.067 39.537C296.059 39.532 296.051 39.526 296.044 39.52C295.782 39.342 295.514 39.171 295.243 39.005C295.238 39.002 295.234 38.998 295.229 38.995C294.953 38.827 294.673 38.665 294.389 38.51C294.106 38.356 293.819 38.208 293.528 38.067C293.526 38.066 293.523 38.064 293.523 38.064C291.115 36.897 288.439 36.197 285.612 36.079C285.177 36.061 284.812 36.402 284.812 36.837C284.812 40.534 284.812 56.185 284.812 56.185L298.34 42.66Z" fill="url(#paint70_linear_2288_208075)"></path><path d="M297.232 45.134L283.908 58.458V39.268C283.908 38.747 283.473 38.33 282.953 38.353C271.95 38.839 263.242 48.16 263.752 59.395C264.22 69.711 272.59 78.087 282.905 78.561C294.452 79.092 303.98 69.888 303.98 58.458C303.98 53.368 302.09 48.72 298.974 45.177C298.52 44.661 297.718 44.648 297.232 45.134Z" fill="url(#paint71_linear_2288_208075)"></path><path d="M298.112 72.662C301.738 69.022 303.981 64.002 303.981 58.458C303.981 53.282 302.026 48.563 298.816 44.997C298.443 44.583 297.797 44.57 297.404 44.964L283.91 58.458L298.112 72.662Z" fill="url(#paint72_linear_2288_208075)"></path><path opacity="0.2" d="M9.83 178.962C9.83 181.676 7.629 183.877 4.915 183.877C2.2 183.877 0 181.676 0 178.962C0 176.247 2.2 174.047 4.915 174.047C7.629 174.047 9.83 176.247 9.83 178.962Z" fill="#CCF2FF"></path><path d="M339.587 238.428C339.587 240.085 338.244 241.428 336.587 241.428C334.93 241.428 333.586 240.085 333.586 238.428C333.586 236.771 334.93 235.428 336.587 235.428C338.244 235.427 339.587 236.771 339.587 238.428Z" fill="#CCF2FF"></path><path d="M24.4161 96.126H21.5121V93.224C21.5121 92.591 20.9971 92.076 20.3631 92.076C19.7301 92.076 19.2151 92.59 19.2151 93.224V96.126H16.3131C15.6791 96.126 15.1641 96.641 15.1641 97.274C15.1641 97.908 15.6791 98.423 16.3131 98.423H19.2151V101.326C19.2151 101.96 19.7301 102.474 20.3631 102.474C20.9971 102.474 21.5121 101.959 21.5121 101.326V98.423H24.4161C25.0501 98.423 25.5651 97.908 25.5651 97.274C25.5641 96.64 25.0501 96.126 24.4161 96.126Z" fill="#B1E5F2"></path><path d="M137.582 34.02H133.177V29.617C133.177 28.656 132.396 27.876 131.434 27.876C130.473 27.876 129.692 28.656 129.692 29.617V34.02H125.29C124.329 34.02 123.547 34.801 123.547 35.762C123.547 36.724 124.328 37.504 125.29 37.504H129.692V41.908C129.692 42.869 130.473 43.65 131.434 43.65C132.396 43.65 133.177 42.869 133.177 41.908V37.504H137.582C138.544 37.504 139.324 36.723 139.324 35.762C139.324 34.801 138.544 34.02 137.582 34.02Z" fill="#B1E5F2"></path><path d="M34.3997 192.997C34.3997 194.726 32.9977 196.128 31.2687 196.128C29.5397 196.128 28.1367 194.726 28.1367 192.997C28.1367 191.267 29.5387 189.866 31.2687 189.866C32.9977 189.866 34.3997 191.267 34.3997 192.997Z" fill="#CCF2FF"></path><path opacity="0.2" d="M369.283 135.263C369.283 137.977 367.083 140.178 364.368 140.178C361.653 140.178 359.453 137.978 359.453 135.263C359.453 132.548 361.654 130.348 364.368 130.348C367.083 130.347 369.283 132.548 369.283 135.263Z" fill="#CCF2FF"></path><path opacity="0.2" d="M173.972 8.171H168.114V2.316C168.114 1.038 167.075 0 165.796 0C164.518 0 163.48 1.038 163.48 2.316V8.171H157.626C156.348 8.171 155.309 9.209 155.309 10.487C155.309 11.766 156.348 12.804 157.626 12.804H163.48V18.66C163.48 19.939 164.518 20.977 165.796 20.977C167.075 20.977 168.114 19.939 168.114 18.66V12.804H173.972C175.251 12.804 176.289 11.765 176.289 10.487C176.289 9.209 175.252 8.171 173.972 8.171Z" fill="#CCF2FF"></path><defs><linearGradient id="paint0_linear_2288_208075" x1="188.775" y1="272.934" x2="185.002" y2="-73.3855" gradientUnits="userSpaceOnUse"><stop stop-color="#3E51C9" stop-opacity="0.67"></stop><stop offset="0.095" stop-color="#4456CB" stop-opacity="0.67"></stop><stop offset="0.2217" stop-color="#5566CF" stop-opacity="0.67"></stop><stop offset="0.3662" stop-color="#717FD7" stop-opacity="0.67"></stop><stop offset="0.5241" stop-color="#97A2E2" stop-opacity="0.67"></stop><stop offset="0.6906" stop-color="#C8CEF0" stop-opacity="0.67"></stop><stop offset="0.8514" stop-color="white" stop-opacity="0.67"></stop></linearGradient><linearGradient id="paint1_linear_2288_208075" x1="23.6451" y1="54.2313" x2="113.823" y2="58.4112" gradientUnits="userSpaceOnUse"><stop offset="0.2829" stop-color="#799EEF"></stop><stop offset="0.8425" stop-color="#2650AB"></stop></linearGradient><linearGradient id="paint2_linear_2288_208075" x1="171.359" y1="50.6717" x2="231.849" y2="79.3571" gradientUnits="userSpaceOnUse"><stop offset="0.2829" stop-color="#6C92E2"></stop><stop offset="0.8425" stop-color="#4368B6"></stop></linearGradient><linearGradient id="paint3_linear_2288_208075" x1="291.549" y1="221.128" x2="408.319" y2="179.79" gradientUnits="userSpaceOnUse"><stop stop-color="#1A2E9D"></stop><stop offset="0.1322" stop-color="#3754B3"></stop><stop offset="0.389" stop-color="#6B97DA"></stop><stop offset="0.5751" stop-color="#8CC2F2"></stop><stop offset="0.67" stop-color="#98D2FC"></stop></linearGradient><linearGradient id="paint4_linear_2288_208075" x1="246.903" y1="205.275" x2="395.782" y2="140.436" gradientUnits="userSpaceOnUse"><stop offset="0.1131" stop-color="#1A2E9D"></stop><stop offset="0.2449" stop-color="#3754B3"></stop><stop offset="0.5009" stop-color="#6B97DA"></stop><stop offset="0.6865" stop-color="#8CC2F2"></stop><stop offset="0.7811" stop-color="#98D2FC"></stop></linearGradient><linearGradient id="paint5_linear_2288_208075" x1="139.414" y1="264.077" x2="237.172" y2="264.077" gradientUnits="userSpaceOnUse"><stop offset="0.0308" stop-color="#E3EAF9"></stop><stop offset="1" stop-color="#8EADF0"></stop></linearGradient><linearGradient id="paint6_linear_2288_208075" x1="27.4764" y1="282.475" x2="141.438" y2="282.475" gradientUnits="userSpaceOnUse"><stop offset="0.0308" stop-color="#BACDF7"></stop><stop offset="1" stop-color="#3761BC"></stop></linearGradient><linearGradient id="paint7_linear_2288_208075" x1="284.953" y1="287.535" x2="324.131" y2="287.535" gradientUnits="userSpaceOnUse"><stop offset="0.0308" stop-color="#00006A"></stop><stop offset="1" stop-color="#00006A"></stop></linearGradient><linearGradient id="paint8_linear_2288_208075" x1="228.773" y1="276.453" x2="326.531" y2="276.453" gradientUnits="userSpaceOnUse"><stop offset="0.0308" stop-color="#00006A"></stop><stop offset="1" stop-color="#00006A"></stop></linearGradient><linearGradient id="paint9_linear_2288_208075" x1="-nan" y1="-nan" x2="-nan" y2="-nan" gradientUnits="userSpaceOnUse"><stop stop-color="#93FFFF"></stop><stop offset="1" stop-color="#98D2FC"></stop></linearGradient><linearGradient id="paint10_linear_2288_208075" x1="151.13" y1="173.659" x2="436.048" y2="-29.4785" gradientUnits="userSpaceOnUse"><stop stop-color="#00006A"></stop><stop offset="0.3975" stop-color="#2F3FA7"></stop><stop offset="0.8047" stop-color="#5B7AE1"></stop><stop offset="1" stop-color="#6C91F7"></stop></linearGradient><linearGradient id="paint11_linear_2288_208075" x1="305.827" y1="221.046" x2="74.664" y2="221.046" gradientUnits="userSpaceOnUse"><stop offset="0.2829" stop-color="#648FEB"></stop><stop offset="0.8425" stop-color="#9AB4ED"></stop></linearGradient><linearGradient id="paint12_linear_2288_208075" x1="222.803" y1="248.006" x2="156.887" y2="248.006" gradientUnits="userSpaceOnUse"><stop offset="0.2829" stop-color="#446DC6"></stop><stop offset="0.8425" stop-color="#90AFF1"></stop></linearGradient><linearGradient id="paint13_linear_2288_208075" x1="83.5505" y1="132.925" x2="296.944" y2="132.925" gradientUnits="userSpaceOnUse"><stop stop-color="#6089E0"></stop><stop offset="1" stop-color="#3864C4"></stop></linearGradient><linearGradient id="paint14_linear_2288_208075" x1="252.175" y1="271.469" x2="313.238" y2="271.469" gradientUnits="userSpaceOnUse"><stop stop-color="#E4A64B"></stop><stop offset="1" stop-color="#F0DB70"></stop></linearGradient><linearGradient id="paint15_linear_2288_208075" x1="225.253" y1="263.411" x2="286.298" y2="263.411" gradientUnits="userSpaceOnUse"><stop stop-color="#E4A64B"></stop><stop offset="0.2328" stop-color="#E8BA59"></stop><stop offset="0.5887" stop-color="#EED26A"></stop><stop offset="0.8069" stop-color="#F0DB70"></stop></linearGradient><linearGradient id="paint16_linear_2288_208075" x1="237.305" y1="263.729" x2="286.048" y2="263.729" gradientUnits="userSpaceOnUse"><stop stop-color="#F0DB70"></stop><stop offset="1" stop-color="#E4A64B"></stop></linearGradient><linearGradient id="paint17_linear_2288_208075" x1="269.581" y1="263.236" x2="292.622" y2="263.236" gradientUnits="userSpaceOnUse"><stop stop-color="#F0DB70"></stop><stop offset="1" stop-color="#E4A64B"></stop></linearGradient><linearGradient id="paint18_linear_2288_208075" x1="244.457" y1="260.913" x2="305.52" y2="260.913" gradientUnits="userSpaceOnUse"><stop stop-color="#E4A64B"></stop><stop offset="1" stop-color="#F0DB70"></stop></linearGradient><linearGradient id="paint19_linear_2288_208075" x1="217.534" y1="252.855" x2="278.579" y2="252.855" gradientUnits="userSpaceOnUse"><stop stop-color="#E4A64B"></stop><stop offset="0.2328" stop-color="#E8BA59"></stop><stop offset="0.5887" stop-color="#EED26A"></stop><stop offset="0.8069" stop-color="#F0DB70"></stop></linearGradient><linearGradient id="paint20_linear_2288_208075" x1="229.586" y1="253.173" x2="278.329" y2="253.173" gradientUnits="userSpaceOnUse"><stop stop-color="#F0DB70"></stop><stop offset="1" stop-color="#E4A64B"></stop></linearGradient><linearGradient id="paint21_linear_2288_208075" x1="261.862" y1="252.68" x2="284.903" y2="252.68" gradientUnits="userSpaceOnUse"><stop stop-color="#F0DB70"></stop><stop offset="1" stop-color="#E4A64B"></stop></linearGradient><linearGradient id="paint22_linear_2288_208075" x1="256.464" y1="251.978" x2="317.528" y2="251.978" gradientUnits="userSpaceOnUse"><stop stop-color="#E4A64B"></stop><stop offset="1" stop-color="#F0DB70"></stop></linearGradient><linearGradient id="paint23_linear_2288_208075" x1="229.543" y1="243.92" x2="290.588" y2="243.92" gradientUnits="userSpaceOnUse"><stop stop-color="#E4A64B"></stop><stop offset="0.2328" stop-color="#E8BA59"></stop><stop offset="0.5887" stop-color="#EED26A"></stop><stop offset="0.8069" stop-color="#F0DB70"></stop></linearGradient><linearGradient id="paint24_linear_2288_208075" x1="241.594" y1="244.238" x2="290.338" y2="244.238" gradientUnits="userSpaceOnUse"><stop stop-color="#F0DB70"></stop><stop offset="1" stop-color="#E4A64B"></stop></linearGradient><linearGradient id="paint25_linear_2288_208075" x1="273.873" y1="243.745" x2="296.914" y2="243.745" gradientUnits="userSpaceOnUse"><stop stop-color="#F0DB70"></stop><stop offset="1" stop-color="#E4A64B"></stop></linearGradient><linearGradient id="paint26_linear_2288_208075" x1="250.04" y1="242.126" x2="311.103" y2="242.126" gradientUnits="userSpaceOnUse"><stop stop-color="#E4A64B"></stop><stop offset="1" stop-color="#F0DB70"></stop></linearGradient><linearGradient id="paint27_linear_2288_208075" x1="223.118" y1="234.068" x2="284.163" y2="234.068" gradientUnits="userSpaceOnUse"><stop stop-color="#E4A64B"></stop><stop offset="0.2328" stop-color="#E8BA59"></stop><stop offset="0.5887" stop-color="#EED26A"></stop><stop offset="0.8069" stop-color="#F0DB70"></stop></linearGradient><linearGradient id="paint28_linear_2288_208075" x1="235.168" y1="234.386" x2="283.912" y2="234.386" gradientUnits="userSpaceOnUse"><stop stop-color="#F0DB70"></stop><stop offset="1" stop-color="#E4A64B"></stop></linearGradient><linearGradient id="paint29_linear_2288_208075" x1="267.448" y1="233.893" x2="290.489" y2="233.893" gradientUnits="userSpaceOnUse"><stop stop-color="#F0DB70"></stop><stop offset="1" stop-color="#E4A64B"></stop></linearGradient><linearGradient id="paint30_linear_2288_208075" x1="260.438" y1="232.972" x2="321.501" y2="232.972" gradientUnits="userSpaceOnUse"><stop stop-color="#E4A64B"></stop><stop offset="1" stop-color="#F0DB70"></stop></linearGradient><linearGradient id="paint31_linear_2288_208075" x1="233.516" y1="224.914" x2="294.561" y2="224.914" gradientUnits="userSpaceOnUse"><stop stop-color="#E4A64B"></stop><stop offset="0.2328" stop-color="#E8BA59"></stop><stop offset="0.5887" stop-color="#EED26A"></stop><stop offset="0.8069" stop-color="#F0DB70"></stop></linearGradient><linearGradient id="paint32_linear_2288_208075" x1="245.566" y1="225.232" x2="294.31" y2="225.232" gradientUnits="userSpaceOnUse"><stop stop-color="#F0DB70"></stop><stop offset="1" stop-color="#E4A64B"></stop></linearGradient><linearGradient id="paint33_linear_2288_208075" x1="277.843" y1="224.739" x2="300.884" y2="224.739" gradientUnits="userSpaceOnUse"><stop stop-color="#F0DB70"></stop><stop offset="1" stop-color="#E4A64B"></stop></linearGradient><linearGradient id="paint34_linear_2288_208075" x1="276.637" y1="276.093" x2="321.708" y2="251.91" gradientUnits="userSpaceOnUse"><stop stop-color="#E4A64B"></stop><stop offset="1" stop-color="#F0DB70"></stop></linearGradient><linearGradient id="paint35_linear_2288_208075" x1="287.416" y1="272.568" x2="328.72" y2="247.449" gradientUnits="userSpaceOnUse"><stop stop-color="#F0DB70"></stop><stop offset="1" stop-color="#E4A64B"></stop></linearGradient><linearGradient id="paint36_linear_2288_208075" x1="295.312" y1="270.127" x2="311.256" y2="254.128" gradientUnits="userSpaceOnUse"><stop stop-color="#E4A64B"></stop><stop offset="1" stop-color="#F0DB70"></stop></linearGradient><linearGradient id="paint37_linear_2288_208075" x1="120.155" y1="120.078" x2="129.145" y2="108.824" gradientUnits="userSpaceOnUse"><stop stop-color="#ECF3FF"></stop><stop offset="0.8551" stop-color="#D6E5FF"></stop></linearGradient><linearGradient id="paint38_linear_2288_208075" x1="127.882" y1="140.732" x2="144.685" y2="119.698" gradientUnits="userSpaceOnUse"><stop stop-color="#ECF3FF"></stop><stop offset="0.8551" stop-color="#D6E5FF"></stop></linearGradient><linearGradient id="paint39_linear_2288_208075" x1="122.453" y1="147.498" x2="133.766" y2="133.336" gradientUnits="userSpaceOnUse"><stop stop-color="#ECF3FF"></stop><stop offset="0.8551" stop-color="#D6E5FF"></stop></linearGradient><linearGradient id="paint40_linear_2288_208075" x1="118.809" y1="155.369" x2="126.438" y2="145.819" gradientUnits="userSpaceOnUse"><stop stop-color="#ECF3FF"></stop><stop offset="0.8551" stop-color="#D6E5FF"></stop></linearGradient><linearGradient id="paint41_linear_2288_208075" x1="124.709" y1="173.217" x2="138.304" y2="156.199" gradientUnits="userSpaceOnUse"><stop stop-color="#ECF3FF"></stop><stop offset="0.8551" stop-color="#D6E5FF"></stop></linearGradient><linearGradient id="paint42_linear_2288_208075" x1="215.536" y1="167.511" x2="215.536" y2="119.486" gradientUnits="userSpaceOnUse"><stop offset="0.2829" stop-color="#517CD8"></stop><stop offset="0.8425" stop-color="#83A6F2"></stop></linearGradient><linearGradient id="paint43_linear_2288_208075" x1="252.446" y1="167.511" x2="252.446" y2="100.481" gradientUnits="userSpaceOnUse"><stop offset="0.2829" stop-color="#517CD8"></stop><stop offset="0.8425" stop-color="#83A6F2"></stop></linearGradient><linearGradient id="paint44_linear_2288_208075" x1="128.613" y1="244.907" x2="40.1372" y2="244.907" gradientUnits="userSpaceOnUse"><stop offset="0.0928356" stop-color="#B8CCF5"></stop><stop offset="0.8425" stop-color="#83A6F1"></stop></linearGradient><linearGradient id="paint45_linear_2288_208075" x1="128.613" y1="218.497" x2="40.1372" y2="218.497" gradientUnits="userSpaceOnUse"><stop stop-color="#5587F6"></stop><stop offset="1" stop-color="#3359FA"></stop></linearGradient><linearGradient id="paint46_linear_2288_208075" x1="118.356" y1="241.819" x2="106.612" y2="241.819" gradientUnits="userSpaceOnUse"><stop stop-color="#5587F6"></stop><stop offset="1" stop-color="#3359FA"></stop></linearGradient><linearGradient id="paint47_linear_2288_208075" x1="104.583" y1="241.819" x2="92.8392" y2="241.819" gradientUnits="userSpaceOnUse"><stop stop-color="#5587F6"></stop><stop offset="1" stop-color="#3359FA"></stop></linearGradient><linearGradient id="paint48_linear_2288_208075" x1="57.1289" y1="206.713" x2="61.939" y2="206.713" gradientUnits="userSpaceOnUse"><stop stop-color="#E4A64B"></stop><stop offset="0.857" stop-color="#F0DB70"></stop></linearGradient><linearGradient id="paint49_linear_2288_208075" x1="68.7345" y1="206.705" x2="73.5447" y2="206.705" gradientUnits="userSpaceOnUse"><stop stop-color="#E4A64B"></stop><stop offset="0.857" stop-color="#F0DB70"></stop></linearGradient><linearGradient id="paint50_linear_2288_208075" x1="80.9104" y1="206.718" x2="85.7206" y2="206.718" gradientUnits="userSpaceOnUse"><stop stop-color="#E4A64B"></stop><stop offset="0.857" stop-color="#F0DB70"></stop></linearGradient><linearGradient id="paint51_linear_2288_208075" x1="92.5195" y1="206.709" x2="97.3296" y2="206.709" gradientUnits="userSpaceOnUse"><stop stop-color="#E4A64B"></stop><stop offset="0.857" stop-color="#F0DB70"></stop></linearGradient><linearGradient id="paint52_linear_2288_208075" x1="90.7162" y1="241.819" x2="78.9722" y2="241.819" gradientUnits="userSpaceOnUse"><stop stop-color="#5587F6"></stop><stop offset="1" stop-color="#3359FA"></stop></linearGradient><linearGradient id="paint53_linear_2288_208075" x1="76.943" y1="241.819" x2="65.1992" y2="241.819" gradientUnits="userSpaceOnUse"><stop stop-color="#5587F6"></stop><stop offset="1" stop-color="#3359FA"></stop></linearGradient><linearGradient id="paint54_linear_2288_208075" x1="118.259" y1="254.893" x2="106.515" y2="254.893" gradientUnits="userSpaceOnUse"><stop stop-color="#5587F6"></stop><stop offset="1" stop-color="#3359FA"></stop></linearGradient><linearGradient id="paint55_linear_2288_208075" x1="104.486" y1="254.893" x2="92.7421" y2="254.893" gradientUnits="userSpaceOnUse"><stop stop-color="#5587F6"></stop><stop offset="1" stop-color="#3359FA"></stop></linearGradient><linearGradient id="paint56_linear_2288_208075" x1="90.6162" y1="254.893" x2="78.8722" y2="254.893" gradientUnits="userSpaceOnUse"><stop stop-color="#5587F6"></stop><stop offset="1" stop-color="#3359FA"></stop></linearGradient><linearGradient id="paint57_linear_2288_208075" x1="76.845" y1="254.893" x2="65.1011" y2="254.893" gradientUnits="userSpaceOnUse"><stop stop-color="#5587F6"></stop><stop offset="1" stop-color="#3359FA"></stop></linearGradient><linearGradient id="paint58_linear_2288_208075" x1="118.161" y1="268.078" x2="106.417" y2="268.078" gradientUnits="userSpaceOnUse"><stop stop-color="#5587F6"></stop><stop offset="1" stop-color="#3359FA"></stop></linearGradient><linearGradient id="paint59_linear_2288_208075" x1="104.388" y1="268.078" x2="92.644" y2="268.078" gradientUnits="userSpaceOnUse"><stop stop-color="#5587F6"></stop><stop offset="1" stop-color="#3359FA"></stop></linearGradient><linearGradient id="paint60_linear_2288_208075" x1="90.5171" y1="268.078" x2="78.7732" y2="268.078" gradientUnits="userSpaceOnUse"><stop stop-color="#5587F6"></stop><stop offset="1" stop-color="#3359FA"></stop></linearGradient><linearGradient id="paint61_linear_2288_208075" x1="76.7441" y1="268.078" x2="65.0001" y2="268.078" gradientUnits="userSpaceOnUse"><stop stop-color="#5587F6"></stop><stop offset="1" stop-color="#3359FA"></stop></linearGradient><linearGradient id="paint62_linear_2288_208075" x1="104.153" y1="206.709" x2="108.963" y2="206.709" gradientUnits="userSpaceOnUse"><stop stop-color="#E4A64B"></stop><stop offset="0.857" stop-color="#F0DB70"></stop></linearGradient><linearGradient id="paint63_linear_2288_208075" x1="62.8562" y1="241.819" x2="51.1124" y2="241.819" gradientUnits="userSpaceOnUse"><stop stop-color="#5587F6"></stop><stop offset="1" stop-color="#3359FA"></stop></linearGradient><linearGradient id="paint64_linear_2288_208075" x1="62.759" y1="254.893" x2="51.0151" y2="254.893" gradientUnits="userSpaceOnUse"><stop stop-color="#5587F6"></stop><stop offset="1" stop-color="#3359FA"></stop></linearGradient><linearGradient id="paint65_linear_2288_208075" x1="62.6611" y1="268.078" x2="50.9172" y2="268.078" gradientUnits="userSpaceOnUse"><stop stop-color="#5587F6"></stop><stop offset="1" stop-color="#3359FA"></stop></linearGradient><linearGradient id="paint66_linear_2288_208075" x1="96.0081" y1="147.636" x2="18.7036" y2="147.636" gradientUnits="userSpaceOnUse"><stop stop-color="#5587F6"></stop><stop offset="1" stop-color="#3359FA"></stop></linearGradient><linearGradient id="paint67_linear_2288_208075" x1="51.7033" y1="165.223" x2="60.4075" y2="165.223" gradientUnits="userSpaceOnUse"><stop stop-color="#E4A64B"></stop><stop offset="0.857" stop-color="#F0DB70"></stop></linearGradient><linearGradient id="paint68_linear_2288_208075" x1="47.1832" y1="149.486" x2="65.0882" y2="149.486" gradientUnits="userSpaceOnUse"><stop stop-color="#E4A64B"></stop><stop offset="0.857" stop-color="#F0DB70"></stop></linearGradient><linearGradient id="paint69_linear_2288_208075" x1="322.914" y1="58.1592" x2="245.61" y2="58.1592" gradientUnits="userSpaceOnUse"><stop stop-color="#5586F0"></stop><stop offset="1" stop-color="#AAC3F7"></stop></linearGradient><linearGradient id="paint70_linear_2288_208075" x1="282.977" y1="45.9991" x2="306.962" y2="47.4217" gradientUnits="userSpaceOnUse"><stop stop-color="#E4A64B"></stop><stop offset="0.1496" stop-color="#EABF5C"></stop><stop offset="0.3131" stop-color="#EED36B"></stop><stop offset="0.4217" stop-color="#F0DB70"></stop></linearGradient><linearGradient id="paint71_linear_2288_208075" x1="263.73" y1="58.4678" x2="303.98" y2="58.4678" gradientUnits="userSpaceOnUse"><stop stop-color="#284FA3"></stop><stop offset="0.6553" stop-color="#3F6CCD"></stop></linearGradient><linearGradient id="paint72_linear_2288_208075" x1="280.744" y1="65.0758" x2="304.159" y2="56.3911" gradientUnits="userSpaceOnUse"><stop stop-color="#1A2E9D"></stop><stop offset="1" stop-color="#98D2FC"></stop></linearGradient></defs></svg>