<svg xmlns="http://www.w3.org/2000/svg" width="422" height="422" viewBox="0 0 422 422" fill="none"><mask id="mask0_2099_10057" style="mask-type:luminance" maskUnits="userSpaceOnUse" x="0" y="0" width="422" height="422"><path d="M422 0H0V422H422V0Z" fill="white"></path></mask><g mask="url(#mask0_2099_10057)"><path d="M341.83 345.843C339.271 347.187 336.61 348.335 333.872 349.266C319.839 354.041 298.942 353.666 287.325 343.295C268.444 326.439 290.232 306.8 305.084 297.289C314.47 291.278 323.611 284.449 334.302 281.296C344.993 278.145 357.953 279.567 365.168 288.062C373.199 297.516 371.313 312.167 365.294 323.012C359.923 332.692 351.626 340.7 341.83 345.843Z" fill="#DBE0FC"></path><path d="M44.3088 292.928C39.7107 278.155 38.7274 262.564 42.625 247.333C50.4109 216.911 72.6419 198.371 98.5805 183.127C127.003 166.424 160.891 160.934 187.261 139.697C212.351 119.491 228.147 89.2476 254.218 70.3259C280.791 51.0405 320.433 42.8377 349.131 62.1914C367.496 74.5763 379.223 95.7818 381.482 117.816C383.61 138.581 374.892 163.379 360.018 178.384C347.544 190.968 328.759 197.48 311.918 201.442C278.313 209.35 231.695 207.433 218.401 245.346C214.073 257.69 215.07 271.154 214.219 284.207C212.803 305.931 205.788 327.711 191.789 344.385C177.792 361.059 156.336 372.032 134.602 370.76C120.69 369.945 107.437 364.334 95.5463 357.067C71.8435 342.581 52.4331 319.032 44.3088 292.928Z" fill="#DBE0FC"></path></g><mask id="mask1_2099_10057" style="mask-type:luminance" maskUnits="userSpaceOnUse" x="0" y="0" width="422" height="422"><path d="M422 0H0V422H422V0Z" fill="white"></path></mask><g mask="url(#mask1_2099_10057)"><path fill-rule="evenodd" clip-rule="evenodd" d="M331.365 138.435C330.8 138.173 330.365 137.651 330.111 137.068C329.241 135.06 329.527 132.753 329.972 130.611C330.012 130.42 330.057 130.22 330.184 130.071C331.17 128.921 332.381 128.19 333.24 126.875C333.803 126.014 334.215 125.059 334.502 124.073C334.734 123.274 334.6 121.567 335.044 120.931C336.324 119.096 337.425 122.871 337.529 123.749C337.631 124.598 337.329 125.427 337.226 126.269C337.15 126.885 337.008 127.493 336.894 128.117C337.044 128.226 337.219 128.169 337.38 128.17C339.274 128.167 341.168 128.159 343.062 128.153C343.86 128.151 344.252 128.379 344.364 128.908C344.502 129.567 344.156 130.24 343.545 130.553C343.404 130.625 343.147 130.561 343.13 130.783C343.114 131.01 343.377 130.985 343.508 131.076C344.195 131.545 344.071 132.514 343.28 133.078C343.09 133.212 342.719 133.152 342.711 133.432C342.707 133.655 343.053 133.651 343.21 133.808C343.766 134.353 343.494 135.376 342.668 135.79C342.562 135.843 342.431 135.853 342.336 135.92C342.242 135.984 342.15 136.054 342.333 136.183C343.155 136.766 343.14 137.583 342.316 138.18C342.235 138.238 342.152 138.299 342.069 138.358C341.77 138.579 341.415 138.578 341.072 138.579C338.102 138.595 335.132 138.603 332.162 138.611C331.877 138.612 331.609 138.548 331.365 138.435Z" fill="#D89CC7"></path><path fill-rule="evenodd" clip-rule="evenodd" d="M324.885 134.361C324.88 132.937 324.88 131.511 324.867 130.087C324.865 129.797 324.884 129.655 325.123 129.659C326.292 129.676 327.459 129.671 328.627 129.649C328.857 129.644 328.892 129.762 328.892 130.064C328.896 132.93 328.903 135.797 328.922 138.663C328.924 139.028 328.858 139.132 328.612 139.126C327.479 139.111 326.345 139.111 325.213 139.141C324.932 139.149 324.892 139.002 324.894 138.635C324.904 137.21 324.89 135.786 324.885 134.361Z" fill="#D89CC7"></path><path fill-rule="evenodd" clip-rule="evenodd" d="M115.016 123.182C114.559 122.971 114.207 122.548 114.003 122.077C113.3 120.455 113.53 118.592 113.89 116.86C113.922 116.706 113.958 116.544 114.061 116.424C114.858 115.496 115.837 114.904 116.531 113.842C116.986 113.147 117.318 112.375 117.55 111.579C117.738 110.934 117.63 109.554 117.988 109.041C119.023 107.559 119.912 110.608 119.996 111.317C120.078 112.004 119.834 112.673 119.751 113.354C119.689 113.852 119.575 114.344 119.482 114.848C119.604 114.935 119.745 114.889 119.875 114.891C121.405 114.888 122.935 114.882 124.465 114.877C125.11 114.875 125.427 115.059 125.518 115.486C125.63 116.019 125.35 116.563 124.856 116.815C124.742 116.873 124.535 116.822 124.522 117.001C124.509 117.183 124.722 117.163 124.827 117.237C125.383 117.615 125.282 118.399 124.643 118.854C124.489 118.963 124.189 118.914 124.183 119.14C124.18 119.321 124.459 119.317 124.587 119.444C125.035 119.885 124.816 120.71 124.149 121.046C124.063 121.088 123.957 121.097 123.88 121.151C123.804 121.202 123.73 121.259 123.878 121.363C124.542 121.835 124.53 122.494 123.864 122.977C123.799 123.024 123.733 123.073 123.665 123.12C123.423 123.299 123.137 123.298 122.86 123.299C120.461 123.312 118.061 123.319 115.661 123.325C115.43 123.326 115.213 123.273 115.016 123.182Z" fill="#D89CC7"></path><path fill-rule="evenodd" clip-rule="evenodd" d="M109.78 119.889C109.776 118.739 109.776 117.587 109.766 116.437C109.764 116.203 109.779 116.088 109.973 116.091C110.917 116.105 111.86 116.101 112.804 116.082C112.989 116.079 113.019 116.173 113.019 116.418C113.021 118.734 113.028 121.05 113.043 123.366C113.046 123.66 112.992 123.744 112.792 123.74C111.877 123.727 110.961 123.727 110.046 123.752C109.818 123.757 109.786 123.639 109.788 123.342C109.795 122.192 109.784 121.041 109.78 119.889Z" fill="#D89CC7"></path><path fill-rule="evenodd" clip-rule="evenodd" d="M226.088 288.929C225.534 288.672 225.107 288.16 224.858 287.587C224.005 285.617 224.285 283.353 224.722 281.252C224.761 281.063 224.805 280.868 224.93 280.722C225.897 279.594 227.087 278.875 227.929 277.586C228.481 276.741 228.885 275.804 229.167 274.837C229.395 274.054 229.263 272.379 229.699 271.755C230.956 269.955 232.035 273.658 232.138 274.519C232.238 275.353 231.941 276.167 231.84 276.992C231.766 277.596 231.626 278.194 231.514 278.806C231.662 278.912 231.833 278.856 231.991 278.858C233.85 278.855 235.707 278.848 237.566 278.841C238.349 278.839 238.733 279.062 238.844 279.581C238.979 280.229 238.639 280.888 238.039 281.195C237.901 281.266 237.649 281.204 237.633 281.421C237.617 281.643 237.875 281.62 238.005 281.708C238.679 282.167 238.557 283.119 237.781 283.672C237.594 283.804 237.231 283.745 237.223 284.019C237.22 284.238 237.559 284.234 237.713 284.388C238.258 284.923 237.992 285.926 237.182 286.333C237.078 286.384 236.949 286.394 236.856 286.46C236.764 286.522 236.674 286.592 236.853 286.718C237.659 287.29 237.645 288.091 236.836 288.677C236.757 288.735 236.676 288.794 236.595 288.852C236.301 289.069 235.954 289.067 235.617 289.069C232.703 289.084 229.788 289.092 226.875 289.1C226.59 289.103 226.327 289.039 226.088 288.929Z" fill="#D89CC7"></path><path fill-rule="evenodd" clip-rule="evenodd" d="M219.729 284.93C219.725 283.533 219.724 282.134 219.711 280.737C219.709 280.453 219.728 280.313 219.962 280.316C221.109 280.333 222.254 280.329 223.4 280.306C223.626 280.302 223.66 280.416 223.66 280.713C223.664 283.526 223.671 286.339 223.69 289.151C223.692 289.509 223.627 289.61 223.386 289.605C222.274 289.59 221.162 289.59 220.05 289.619C219.774 289.627 219.735 289.483 219.737 289.122C219.747 287.726 219.734 286.329 219.729 284.93Z" fill="#D89CC7"></path><path fill-rule="evenodd" clip-rule="evenodd" d="M206.406 269.087C205.891 268.849 205.495 268.373 205.264 267.841C204.472 266.012 204.732 263.911 205.137 261.959C205.174 261.784 205.215 261.602 205.331 261.467C206.229 260.42 207.333 259.753 208.115 258.556C208.628 257.771 209.003 256.903 209.265 256.004C209.477 255.276 209.354 253.721 209.758 253.142C210.925 251.471 211.927 254.909 212.023 255.708C212.116 256.483 211.841 257.238 211.746 258.004C211.677 258.565 211.548 259.12 211.444 259.688C211.581 259.787 211.74 259.734 211.887 259.736C213.612 259.733 215.337 259.727 217.063 259.721C217.791 259.718 218.147 259.926 218.25 260.408C218.376 261.009 218.06 261.621 217.504 261.906C217.375 261.972 217.142 261.913 217.127 262.115C217.112 262.321 217.352 262.299 217.471 262.382C218.097 262.808 217.984 263.693 217.263 264.206C217.09 264.328 216.753 264.273 216.745 264.528C216.742 264.732 217.057 264.728 217.201 264.871C217.706 265.367 217.459 266.298 216.707 266.676C216.611 266.724 216.491 266.734 216.404 266.794C216.319 266.853 216.234 266.917 216.402 267.034C217.15 267.566 217.137 268.308 216.386 268.853C216.313 268.906 216.238 268.961 216.162 269.015C215.889 269.217 215.566 269.215 215.254 269.217C212.548 269.231 209.843 269.239 207.137 269.245C206.873 269.248 206.628 269.19 206.406 269.087Z" fill="#D89CC7"></path><path fill-rule="evenodd" clip-rule="evenodd" d="M200.505 265.375C200.5 264.078 200.499 262.779 200.488 261.482C200.486 261.218 200.504 261.089 200.721 261.091C201.787 261.107 202.849 261.103 203.913 261.082C204.122 261.078 204.155 261.185 204.155 261.461C204.157 264.072 204.165 266.684 204.182 269.295C204.184 269.627 204.124 269.721 203.899 269.717C202.867 269.704 201.834 269.703 200.802 269.731C200.546 269.737 200.51 269.604 200.511 269.269C200.521 267.97 200.509 266.674 200.505 265.375Z" fill="#D89CC7"></path><path d="M250.656 71.8848L253.596 76.0086" stroke="black" stroke-width="0.5" stroke-miterlimit="10" stroke-linecap="round"></path><path d="M256.203 79.666L290.351 127.575" stroke="black" stroke-width="0.5" stroke-miterlimit="10" stroke-linecap="round" stroke-dasharray="12.77 5.32"></path><path d="M291.654 129.403L294.593 133.527L291.102 137.195" stroke="black" stroke-width="0.5" stroke-miterlimit="10" stroke-linecap="round"></path><path d="M288.2 140.244L230.461 200.907" stroke="black" stroke-width="0.5" stroke-miterlimit="10" stroke-linecap="round" stroke-dasharray="11.97 4.99"></path><path d="M229.011 202.431L225.52 206.099" stroke="black" stroke-width="0.5" stroke-miterlimit="10" stroke-linecap="round"></path><path d="M294.59 133.527L289.531 133.3" stroke="black" stroke-width="0.5" stroke-miterlimit="10" stroke-linecap="round"></path><path d="M285.436 133.117L206.718 129.593L114.453 89.9922" stroke="black" stroke-width="0.5" stroke-miterlimit="10" stroke-linecap="round" stroke-dasharray="11.66 4.86"></path><path d="M112.568 89.1833L107.914 87.1855" stroke="black" stroke-width="0.5" stroke-miterlimit="10" stroke-linecap="round"></path><path d="M36.6602 177.682L41.5309 176.298" stroke="black" stroke-width="0.5" stroke-miterlimit="10" stroke-linecap="round"></path><path d="M45.7617 175.094L201.92 130.704" stroke="black" stroke-width="0.5" stroke-miterlimit="10" stroke-linecap="round" stroke-dasharray="12.51 5.21"></path><path d="M204.039 130.103L208.911 128.718L209.855 133.693" stroke="black" stroke-width="0.5" stroke-miterlimit="10" stroke-linecap="round"></path><path d="M210.574 137.487L222.467 200.099" stroke="black" stroke-width="0.5" stroke-miterlimit="10" stroke-linecap="round" stroke-dasharray="10.98 4.58"></path><path d="M222.828 201.997L223.773 206.972" stroke="black" stroke-width="0.5" stroke-miterlimit="10" stroke-linecap="round"></path><path d="M173.277 275.828L175.643 280.306" stroke="black" stroke-width="0.5" stroke-miterlimit="10" stroke-linecap="round"></path><path d="M177.746 284.288L212.482 350.018" stroke="black" stroke-width="0.5" stroke-miterlimit="10" stroke-linecap="round" stroke-dasharray="12.81 5.34"></path><path d="M213.535 352.01L215.901 356.487" stroke="black" stroke-width="0.5" stroke-miterlimit="10" stroke-linecap="round"></path><path d="M253.934 66.6377L258.537 68.7485" stroke="black" stroke-width="0.5" stroke-miterlimit="10" stroke-linecap="round"></path><path d="M262.418 70.5283L366.082 118.065" stroke="black" stroke-width="0.5" stroke-miterlimit="10" stroke-linecap="round" stroke-dasharray="12.15 5.06"></path><path d="M368.023 118.955L372.627 121.066L372.66 126.13" stroke="black" stroke-width="0.5" stroke-miterlimit="10" stroke-linecap="round"></path><path d="M372.691 130.284L373.239 212.946" stroke="black" stroke-width="0.5" stroke-miterlimit="10" stroke-linecap="round" stroke-dasharray="11.81 4.92"></path><path d="M373.246 215.023L373.28 220.087L368.219 219.917" stroke="black" stroke-width="0.5" stroke-miterlimit="10" stroke-linecap="round"></path><path d="M364.188 219.782L228.938 215.239" stroke="black" stroke-width="0.5" stroke-miterlimit="10" stroke-linecap="round" stroke-dasharray="11.49 4.79"></path><path d="M226.918 215.171L221.856 215.001L218.281 218.587" stroke="black" stroke-width="0.5" stroke-miterlimit="10" stroke-linecap="round"></path><path d="M215.442 221.436L173.204 263.805L115.203 283.4" stroke="black" stroke-width="0.5" stroke-miterlimit="10" stroke-linecap="round" stroke-dasharray="11.44 4.76"></path><path d="M113.297 284.044L108.5 285.664" stroke="black" stroke-width="0.5" stroke-miterlimit="10" stroke-linecap="round"></path><path d="M107.34 292.659L111.79 295.076" stroke="black" stroke-width="0.5" stroke-miterlimit="10" stroke-linecap="round"></path><path d="M115.305 296.981L209.047 347.872" stroke="black" stroke-width="0.5" stroke-miterlimit="10" stroke-linecap="round" stroke-dasharray="11.36 4.73"></path><path d="M210.801 348.825L215.251 351.242L219.162 348.024" stroke="black" stroke-width="0.5" stroke-miterlimit="10" stroke-linecap="round"></path><path d="M222.426 345.337L365.123 227.927" stroke="black" stroke-width="0.5" stroke-miterlimit="10" stroke-linecap="round" stroke-dasharray="12.02 5.01"></path><path d="M366.754 226.584L370.664 223.366" stroke="black" stroke-width="0.5" stroke-miterlimit="10" stroke-linecap="round"></path><path d="M218.528 216.809L213.574 215.758" stroke="black" stroke-width="0.5" stroke-miterlimit="10" stroke-linecap="round"></path><path d="M209.371 214.868L40 178.958" stroke="black" stroke-width="0.5" stroke-miterlimit="10" stroke-linecap="round" stroke-dasharray="12.22 5.09"></path><path d="M37.8987 178.513L32.9453 177.462L36.1188 173.517" stroke="black" stroke-width="0.5" stroke-miterlimit="10" stroke-linecap="round"></path><path d="M38.7969 170.186L101.221 92.5781" stroke="black" stroke-width="0.5" stroke-miterlimit="10" stroke-linecap="round" stroke-dasharray="12.16 5.06"></path><path d="M102.562 90.9131L105.736 86.9665L110.773 86.4424" stroke="black" stroke-width="0.5" stroke-miterlimit="10" stroke-linecap="round"></path><path d="M115.039 85.998L243.489 72.6299" stroke="black" stroke-width="0.5" stroke-miterlimit="10" stroke-linecap="round" stroke-dasharray="12.2 5.08"></path><path d="M245.625 72.4079L250.662 71.8838L246.108 74.0976" stroke="black" stroke-width="0.5" stroke-miterlimit="10" stroke-linecap="round"></path><path d="M242.378 75.9092L41.4766 173.542" stroke="black" stroke-width="0.5" stroke-miterlimit="10" stroke-linecap="round" stroke-dasharray="11.78 4.91"></path><path d="M39.6137 174.447L35.0586 176.66" stroke="black" stroke-width="0.5" stroke-miterlimit="10" stroke-linecap="round"></path><path d="M106.779 289.256C109.894 289.256 112.418 286.731 112.418 283.617C112.418 280.503 109.894 277.979 106.779 277.979C103.665 277.979 101.141 280.503 101.141 283.617C101.141 286.731 103.665 289.256 106.779 289.256Z" fill="#9CABFC"></path><path d="M117.833 297.116C116.124 292.675 111.82 289.521 106.776 289.521C101.732 289.521 97.4279 292.675 95.7188 297.116H117.833Z" fill="#9CABFC"></path><path d="M373.341 215.773C377.389 215.773 380.67 212.491 380.67 208.444C380.67 204.396 377.389 201.114 373.341 201.114C369.293 201.114 366.012 204.396 366.012 208.444C366.012 212.491 369.293 215.773 373.341 215.773Z" fill="#9CABFC"></path><path d="M387.714 225.99C385.491 220.217 379.897 216.118 373.341 216.118C366.786 216.118 361.19 220.217 358.969 225.99H387.714Z" fill="#9CABFC"></path><path d="M222.536 211.096C226.584 211.096 229.866 207.815 229.866 203.767C229.866 199.719 226.584 196.438 222.536 196.438C218.488 196.438 215.207 199.719 215.207 203.767C215.207 207.815 218.488 211.096 222.536 211.096Z" fill="#9CABFC"></path><path d="M236.909 221.313C234.687 215.54 229.092 211.441 222.537 211.441C215.981 211.441 210.385 215.54 208.164 221.313H236.909Z" fill="#9CABFC"></path><path d="M379.985 112.596C382.849 109.112 382.348 103.966 378.864 101.102C375.381 98.2372 370.235 98.7387 367.37 102.222C364.506 105.705 365.007 110.852 368.491 113.716C371.974 116.581 377.12 116.079 379.985 112.596Z" fill="#9CABFC"></path><path d="M389.681 126.968C387.206 120.537 380.973 115.971 373.669 115.971C366.365 115.971 360.132 120.537 357.656 126.968H389.681Z" fill="#9CABFC"></path><path d="M213.314 121.939C216.503 118.75 216.503 113.58 213.314 110.391C210.125 107.202 204.955 107.202 201.766 110.391C198.577 113.58 198.577 118.75 201.766 121.939C204.955 125.128 210.125 125.128 213.314 121.939Z" fill="#9CABFC"></path><path d="M223.556 135.712C221.081 129.281 214.848 124.715 207.544 124.715C200.24 124.715 194.007 129.281 191.531 135.712H223.556Z" fill="#9CABFC"></path><path d="M108.085 81.9523C112.409 81.9523 115.915 78.4464 115.915 74.1216C115.915 69.7969 112.409 66.291 108.085 66.291C103.76 66.291 100.254 69.7969 100.254 74.1216C100.254 78.4464 103.76 81.9523 108.085 81.9523Z" fill="#9CABFC"></path><path d="M123.44 92.8689C121.066 86.7009 115.087 82.3223 108.083 82.3223C101.079 82.3223 95.1007 86.7009 92.7266 92.8689H123.44Z" fill="#9CABFC"></path><path d="M35.9808 183.112C40.1792 183.112 43.5827 179.825 43.5827 175.77C43.5827 171.715 40.1792 168.428 35.9808 168.428C31.7824 168.428 28.3789 171.715 28.3789 175.77C28.3789 179.825 31.7824 183.112 35.9808 183.112Z" fill="#9CABFC"></path><path d="M50.8877 193.347C48.5836 187.564 42.7802 183.459 35.9809 183.459C29.1817 183.459 23.3783 187.565 21.0742 193.347H50.8877Z" fill="#9CABFC"></path><path d="M179.644 264.291C180.27 260.424 177.643 256.782 173.776 256.156C169.909 255.53 166.267 258.157 165.641 262.024C165.015 265.891 167.642 269.533 171.509 270.159C175.376 270.785 179.018 268.157 179.644 264.291Z" fill="#9CABFC"></path><path d="M186.531 280.133C184.382 274.547 178.967 270.581 172.623 270.581C166.28 270.581 160.865 274.547 158.715 280.133H186.531Z" fill="#9CABFC"></path><path d="M257.903 62.5517C261.026 59.4284 261.026 54.3646 257.903 51.2413C254.78 48.118 249.716 48.118 246.593 51.2413C243.469 54.3646 243.469 59.4284 246.593 62.5517C249.716 65.675 254.78 65.675 257.903 62.5517Z" fill="#9CABFC"></path><path d="M267.931 76.0415C265.506 69.7419 259.4 65.2695 252.247 65.2695C245.093 65.2695 238.987 69.7419 236.562 76.0415H267.931Z" fill="#9CABFC"></path><path d="M220.049 359.702C223.252 356.498 223.252 351.305 220.049 348.101C216.846 344.898 211.652 344.898 208.449 348.101C205.245 351.305 205.245 356.498 208.449 359.702C211.652 362.905 216.846 362.905 220.049 359.702Z" fill="#9CABFC"></path><path d="M230.334 373.538C227.848 367.077 221.586 362.491 214.249 362.491C206.912 362.491 200.65 367.077 198.164 373.538H230.334Z" fill="#9CABFC"></path><path d="M293.779 134.895C297.826 134.895 301.108 131.613 301.108 127.566C301.108 123.518 297.826 120.236 293.779 120.236C289.731 120.236 286.449 123.518 286.449 127.566C286.449 131.613 289.731 134.895 293.779 134.895Z" fill="#9CABFC"></path><path d="M308.151 145.112C305.929 139.339 300.334 135.24 293.779 135.24C287.223 135.24 281.628 139.339 279.406 145.112H308.151Z" fill="#9CABFC"></path><path d="M335.915 169.381C340.909 164.387 340.909 156.291 335.915 151.297C330.921 146.303 322.825 146.303 317.831 151.297C312.837 156.291 312.837 164.387 317.831 169.381C322.825 174.375 330.921 174.375 335.915 169.381Z" stroke="black" stroke-width="0.5" stroke-miterlimit="10" stroke-linecap="round"></path><path d="M328.987 155.672C327.768 156.04 326.872 157.761 326.872 157.761C326.872 157.761 325.969 156.055 324.749 155.708C321.215 154.702 319.636 157.888 320.989 160.83C322.294 163.667 326.893 167.08 326.893 167.08C326.893 167.08 331.476 163.591 332.768 160.731C334.109 157.768 332.516 154.607 328.987 155.672Z" fill="#D47172" stroke="black" stroke-width="0.5" stroke-miterlimit="10"></path><path d="M242.82 122.055C249.211 122.055 254.391 116.875 254.391 110.484C254.391 104.094 249.211 98.9141 242.82 98.9141C236.43 98.9141 231.25 104.094 231.25 110.484C231.25 116.875 236.43 122.055 242.82 122.055Z" stroke="black" stroke-width="0.5" stroke-miterlimit="10" stroke-linecap="round"></path><path d="M244.926 105.756C243.712 106.123 242.821 107.836 242.821 107.836C242.821 107.836 241.922 106.138 240.706 105.792C237.189 104.79 235.616 107.963 236.963 110.891C238.262 113.716 242.841 117.115 242.841 117.115C242.841 117.115 247.403 113.64 248.691 110.793C250.025 107.842 248.439 104.695 244.926 105.756Z" fill="#D47172" stroke="black" stroke-width="0.5" stroke-miterlimit="10"></path><path d="M88.0001 334.862C94.3902 334.862 99.5705 329.682 99.5705 323.292C99.5705 316.902 94.3902 311.722 88.0001 311.722C81.6099 311.722 76.4297 316.902 76.4297 323.292C76.4297 329.682 81.6099 334.862 88.0001 334.862Z" stroke="black" stroke-width="0.5" stroke-miterlimit="10" stroke-linecap="round"></path><path d="M90.4715 317.616C89.051 318.045 88.007 320.05 88.007 320.05C88.007 320.05 86.9545 318.062 85.5324 317.657C81.4137 316.485 79.5738 320.199 81.1503 323.626C82.6712 326.933 88.0306 330.912 88.0306 330.912C88.0306 330.912 93.3723 326.845 94.8788 323.512C96.4411 320.059 94.5843 316.375 90.4715 317.616Z" fill="#D47172" stroke="black" stroke-width="0.5" stroke-miterlimit="10"></path><path d="M273.836 169.298C276.269 156.92 268.206 144.913 255.827 142.481C243.449 140.048 231.442 148.111 229.01 160.49C226.577 172.868 234.64 184.875 247.019 187.307C259.397 189.74 271.404 181.677 273.836 169.298Z" fill="#5F76E8" stroke="black" stroke-width="0.5" stroke-miterlimit="10"></path><path d="M250.867 158.546C250.815 159.999 250.849 161.47 250.849 163.045H256.524C256.282 164.913 256.075 166.643 255.798 168.356C255.78 168.529 255.348 168.737 255.106 168.753C253.739 168.788 252.372 168.771 250.884 168.771V187.698C248.791 187.663 246.784 187.335 244.864 186.764V168.806H239.898V163.096H244.76C244.778 162.663 244.812 162.317 244.812 161.989C244.847 160.484 244.795 158.978 244.933 157.49C245.244 154.221 247.251 151.92 250.486 151.47C252.493 151.193 254.587 151.419 256.697 151.419V156.609C255.954 156.609 255.193 156.592 254.448 156.609C253.791 156.627 253.099 156.592 252.459 156.748C251.541 156.954 250.902 157.577 250.867 158.546Z" fill="white"></path><path d="M271.391 171.705C270.225 174.646 268.381 177.317 266.043 179.45L271.391 171.705Z" fill="#5F76E8"></path><path d="M271.391 171.705C270.225 174.646 268.381 177.317 266.043 179.45" stroke="black" stroke-width="0.5" stroke-miterlimit="10"></path><path d="M264.85 180.662C263.918 181.379 262.986 182.096 262.055 182.813L264.85 180.662Z" fill="#5F76E8"></path><path d="M264.85 180.662C263.918 181.379 262.986 182.096 262.055 182.813" stroke="black" stroke-width="0.5" stroke-miterlimit="10"></path><path d="M266.324 177.187C266.011 177.665 265.596 178.076 265.113 178.382L266.324 177.187Z" fill="#5F76E8"></path><path d="M266.324 177.187C266.011 177.665 265.596 178.076 265.113 178.382" stroke="black" stroke-width="0.5" stroke-miterlimit="10"></path><path d="M270.843 166.227C270.669 168.234 270.218 170.216 269.508 172.101L270.843 166.227Z" fill="#5F76E8"></path><path d="M270.843 166.227C270.669 168.234 270.218 170.216 269.508 172.101" stroke="black" stroke-width="0.5" stroke-miterlimit="10"></path><path d="M392.17 169.957C394.954 158.023 387.537 146.092 375.604 143.308C363.671 140.524 351.74 147.941 348.955 159.874C346.171 171.807 353.588 183.739 365.521 186.523C377.455 189.307 389.386 181.89 392.17 169.957Z" fill="#D47172" stroke="black" stroke-width="0.5" stroke-miterlimit="10"></path><path d="M383.797 157.585C383.782 153.984 381.533 151.655 377.962 151.622C373.023 151.572 368.081 151.568 363.143 151.622C359.65 151.659 357.386 153.972 357.333 157.459C357.299 159.924 357.327 162.391 357.327 164.856C357.327 167.269 357.312 169.684 357.331 172.096C357.361 175.778 359.607 178.132 363.251 178.169C368.138 178.222 373.027 178.225 377.913 178.169C381.487 178.129 383.776 175.778 383.794 172.22C383.821 167.342 383.818 162.462 383.797 157.585ZM381.434 172.262C381.409 174.539 380.183 175.8 377.904 175.815C373.018 175.845 368.132 175.845 363.245 175.815C360.956 175.802 359.718 174.546 359.706 172.278C359.684 167.349 359.684 162.419 359.706 157.49C359.715 155.232 360.977 153.935 363.233 153.919C368.119 153.885 373.005 153.885 377.891 153.919C380.152 153.934 381.409 155.226 381.434 157.477C381.462 159.943 381.44 162.407 381.44 164.872C381.44 167.333 381.462 169.798 381.434 172.262Z" fill="white"></path><path d="M370.577 157.95C366.809 157.941 363.717 161.002 363.68 164.788C363.643 168.618 366.609 171.707 370.398 171.781C374.281 171.855 377.413 168.831 377.449 164.967C377.49 161.1 374.417 157.96 370.577 157.95ZM370.49 169.471C368.028 169.421 365.981 167.361 365.956 164.918C365.932 162.398 368.011 160.325 370.565 160.325C373.113 160.325 375.197 162.398 375.175 164.916C375.154 167.413 372.989 169.52 370.49 169.471Z" fill="white"></path><path d="M379.551 157.786C379.478 158.755 378.856 159.262 377.902 159.216C376.855 159.167 376.32 158.524 376.398 157.493C376.47 156.525 377.099 156.078 378.066 156.022C379.048 156.19 379.628 156.748 379.551 157.786Z" fill="white"></path><path d="M380.051 183.648C383.764 181.463 386.819 178.174 388.722 174.309" stroke="black" stroke-width="0.5" stroke-miterlimit="10"></path><path d="M389.168 172.727C389.587 171.954 389.883 171.114 390.042 170.25" stroke="black" stroke-width="0.5" stroke-miterlimit="10"></path><path d="M387.703 171.852C387.388 172.896 386.894 173.886 386.25 174.768" stroke="black" stroke-width="0.5" stroke-miterlimit="10"></path><path d="M390.359 161.791C390.678 163.125 390.709 164.526 390.451 165.872" stroke="black" stroke-width="0.5" stroke-miterlimit="10"></path><path d="M352.28 156.978C350.442 160.53 349.935 164.752 350.879 168.638" stroke="black" stroke-width="0.5" stroke-miterlimit="10"></path><path d="M153.55 342.024C165.788 342.024 175.709 332.103 175.709 319.864C175.709 307.626 165.788 297.705 153.55 297.705C141.312 297.705 131.391 307.626 131.391 319.864C131.391 332.103 141.312 342.024 153.55 342.024Z" fill="#A8DCA4" stroke="black" stroke-width="0.5" stroke-miterlimit="10"></path><path d="M162.091 328.721C161.841 329.148 161.392 329.386 160.931 329.386C160.701 329.386 160.468 329.327 160.255 329.203C156.728 327.142 152.653 326.81 149.856 326.896C146.757 326.99 144.484 327.602 144.462 327.608C143.748 327.803 143.01 327.383 142.814 326.669C142.618 325.955 143.037 325.217 143.751 325.019C143.853 324.992 146.299 324.327 149.699 324.215C151.702 324.149 153.631 324.289 155.43 324.63C157.709 325.062 159.788 325.822 161.61 326.886C162.249 327.259 162.465 328.081 162.091 328.721Z" fill="white"></path><path d="M164.589 323.539C164.293 324.045 163.761 324.327 163.214 324.327C162.942 324.327 162.666 324.257 162.414 324.11C158.236 321.668 153.41 321.275 150.095 321.377C146.425 321.488 143.732 322.213 143.705 322.221C142.86 322.451 141.985 321.954 141.752 321.107C141.52 320.262 142.017 319.387 142.862 319.154C142.984 319.121 145.88 318.334 149.909 318.202C152.281 318.123 154.566 318.289 156.697 318.693C159.397 319.205 161.86 320.104 164.017 321.365C164.776 321.807 165.032 322.781 164.589 323.539Z" fill="white"></path><path d="M166.122 318.827C165.788 318.827 165.45 318.741 165.14 318.561C155.208 312.756 142.324 316.207 142.195 316.243C141.157 316.529 140.083 315.919 139.797 314.881C139.511 313.843 140.12 312.769 141.159 312.483C141.308 312.442 144.861 311.477 149.803 311.314C152.714 311.219 155.515 311.421 158.13 311.917C161.441 312.544 164.461 313.648 167.108 315.194C168.038 315.737 168.351 316.932 167.808 317.861C167.445 318.481 166.792 318.827 166.122 318.827Z" fill="white"></path><path d="M139.618 305.855C138.782 306.884 137.946 307.913 137.109 308.942" stroke="black" stroke-width="0.5" stroke-miterlimit="10"></path><path d="M134.963 312.214C132.618 317.336 132.893 323.577 135.678 328.474" stroke="black" stroke-width="0.5" stroke-miterlimit="10"></path><path d="M138.027 332.71C139.089 334.081 140.275 335.355 141.565 336.512" stroke="black" stroke-width="0.5" stroke-miterlimit="10"></path><path d="M269.492 325.838C270.488 313.752 261.498 303.148 249.413 302.153C237.328 301.157 226.724 310.147 225.728 322.232C224.733 334.317 233.723 344.921 245.808 345.917C257.893 346.912 268.497 337.923 269.492 325.838Z" fill="#D47172" stroke="black" stroke-width="0.5" stroke-miterlimit="10"></path><path d="M247.625 311.703C240.814 311.703 235.273 317.237 235.273 324.039C235.273 330.841 240.814 336.375 247.625 336.375C254.436 336.375 259.976 330.842 259.976 324.039C259.976 317.237 254.436 311.703 247.625 311.703ZM255.752 317.526C257.161 319.272 258.018 321.477 258.057 323.88C257.588 323.784 255.603 323.414 253.23 323.414C252.465 323.414 251.659 323.453 250.851 323.553C250.783 323.387 250.714 323.222 250.643 323.055C250.433 322.562 250.207 322.073 249.973 321.591C253.625 320.087 255.387 317.999 255.752 317.526ZM247.625 313.634C250.256 313.634 252.662 314.612 254.5 316.223C254.209 316.619 252.631 318.592 249.111 319.922C247.481 316.943 245.697 314.476 245.272 313.903C246.029 313.728 246.816 313.634 247.625 313.634ZM243.143 314.645C243.502 315.141 245.289 317.634 246.961 320.59C242.474 321.769 238.491 321.845 237.529 321.845H237.427C238.118 318.662 240.268 316.017 243.143 314.645ZM237.19 324.055C237.19 323.969 237.192 323.884 237.194 323.798C237.257 323.798 237.349 323.798 237.469 323.798C238.763 323.798 243.259 323.691 247.89 322.317C248.171 322.867 248.439 323.425 248.688 323.983C248.571 324.017 248.456 324.05 248.341 324.088C243.125 325.773 240.259 330.231 239.818 330.961C238.184 329.119 237.19 326.702 237.19 324.055ZM247.625 334.476C245.231 334.476 243.023 333.666 241.26 332.306C241.558 331.721 243.722 327.826 249.437 325.837C249.441 325.835 249.445 325.834 249.449 325.833C250.882 329.565 251.489 332.696 251.656 333.667C250.416 334.188 249.053 334.476 247.625 334.476ZM253.535 332.639C253.395 331.836 252.833 328.9 251.535 325.321C252.262 325.208 252.97 325.163 253.635 325.163C255.816 325.163 257.521 325.641 257.918 325.762C257.448 328.605 255.82 331.064 253.535 332.639Z" fill="white"></path><path d="M253.891 343.04C256.001 342.672 258.003 341.695 259.592 340.257" stroke="black" stroke-width="0.5" stroke-miterlimit="10"></path><path d="M239.953 341.842C242.933 343.826 247.959 344.435 251.448 343.632" stroke="black" stroke-width="0.5" stroke-miterlimit="10"></path><path d="M241.3 305.257C239.242 305.572 237.291 306.547 235.805 308.005" stroke="black" stroke-width="0.5" stroke-miterlimit="10"></path><path d="M261.133 338.9C261.454 338.637 261.738 338.328 261.974 337.987" stroke="black" stroke-width="0.5" stroke-miterlimit="10"></path><path d="M177.343 92.6499C189.788 92.6499 199.877 82.5611 199.877 70.116C199.877 57.6708 189.788 47.582 177.343 47.582C164.897 47.582 154.809 57.6708 154.809 70.116C154.809 82.5611 164.897 92.6499 177.343 92.6499Z" fill="#D89CC7" stroke="black" stroke-width="0.5" stroke-miterlimit="10"></path><path d="M189.048 67.5201C188.818 67.5429 188.587 67.5539 188.354 67.5556C185.815 67.5556 183.446 66.2752 182.054 64.1509V75.7458C182.054 80.4789 178.217 84.3157 173.484 84.3157C168.751 84.3157 164.914 80.4789 164.914 75.7458C164.914 71.0126 168.751 67.1758 173.484 67.1758C173.663 67.1758 173.838 67.1918 174.014 67.2028V71.4262C173.839 71.4051 173.666 71.373 173.484 71.373C171.069 71.373 169.11 73.3311 169.11 75.7466C169.11 78.1621 171.069 80.1202 173.484 80.1202C175.9 80.1202 178.034 78.217 178.034 75.8006L178.076 56.1084H182.116C182.497 59.7317 185.419 62.5608 189.052 62.8266V67.5201" fill="white"></path><path d="M183.777 89.6219C187.659 88.3593 191.09 85.753 193.347 82.3525" stroke="black" stroke-width="0.5" stroke-miterlimit="10"></path><path d="M195.164 79.5485C195.974 77.9381 196.622 76.2451 197.092 74.5039" stroke="black" stroke-width="0.5" stroke-miterlimit="10"></path><path d="M160.331 60.2676C157.837 64.1002 156.914 68.9211 157.813 73.4028" stroke="black" stroke-width="0.5" stroke-miterlimit="10"></path><path d="M158.512 76.4785C158.549 77.6053 158.822 78.7244 159.308 79.7414" stroke="black" stroke-width="0.5" stroke-miterlimit="10"></path><path d="M159.598 69.2617C159.607 70.5058 159.732 71.7498 159.97 72.9711" stroke="black" stroke-width="0.5" stroke-miterlimit="10"></path><path d="M316.578 112.528C330.118 112.528 341.094 101.552 341.094 88.0127C341.094 74.4731 330.118 63.4971 316.578 63.4971C303.039 63.4971 292.062 74.4731 292.062 88.0127C292.062 101.552 303.039 112.528 316.578 112.528Z" fill="#A8DCA4" stroke="black" stroke-width="0.5" stroke-miterlimit="10"></path><path d="M306.966 75.1611C307 75.1721 307.034 75.1898 307.069 75.1924C307.821 75.2489 308.47 75.535 309.006 76.0676C309.483 76.5428 309.783 77.1167 309.88 77.7851C310.045 78.9195 309.695 79.8749 308.841 80.6362C308.425 81.0067 307.929 81.2278 307.38 81.3308C307.096 81.3839 306.809 81.3949 306.526 81.3687C305.218 81.2489 304.184 80.334 303.851 79.1752C303.79 78.9642 303.748 78.7498 303.738 78.5295C303.736 78.4873 303.745 78.4367 303.688 78.4181C303.688 78.3287 303.688 78.24 303.688 78.1506C303.742 78.1295 303.734 78.0814 303.738 78.0375C303.747 77.9489 303.751 77.8602 303.765 77.7725C303.864 77.1673 304.11 76.6305 304.526 76.1782C305.083 75.5747 305.776 75.2506 306.593 75.1924C306.629 75.1898 306.663 75.1721 306.697 75.162C306.788 75.1611 306.877 75.1611 306.966 75.1611Z" fill="white"></path><path d="M317.99 85.9694C318.016 85.9347 318.043 85.9018 318.068 85.8655C318.33 85.4807 318.626 85.1237 318.969 84.8072C319.686 84.1463 320.519 83.6998 321.466 83.4677C321.921 83.3563 322.386 83.3057 322.854 83.2795C323.17 83.261 323.486 83.2669 323.8 83.2905C324.714 83.3589 325.603 83.5361 326.432 83.9446C327.283 84.3649 327.932 85.0004 328.403 85.8233C328.701 86.3432 328.899 86.902 329.057 87.4759C329.166 87.87 329.244 88.2709 329.298 88.6761C329.325 88.8786 329.337 89.0829 329.349 89.2863C329.373 89.6644 329.392 90.0425 329.413 90.4206C329.413 90.4316 329.414 90.4425 329.414 90.4535C329.424 90.8139 329.439 91.1743 329.441 91.5347C329.45 92.7425 329.457 93.9502 329.458 95.158C329.461 96.9827 329.459 98.8074 329.459 100.633C329.459 100.836 329.451 100.846 329.244 100.846C328.471 100.847 327.698 100.846 326.925 100.846C326.204 100.847 325.482 100.847 324.761 100.849C324.647 100.849 324.532 100.859 324.417 100.864C324.399 100.865 324.38 100.865 324.361 100.864C324.106 100.851 324.102 100.792 324.102 100.601C324.104 99.0876 324.105 97.5752 324.105 96.0627C324.105 94.5613 324.105 93.059 324.099 91.5575C324.096 90.9878 324.047 90.4223 323.879 89.8737C323.782 89.5521 323.657 89.2432 323.468 88.9639C323.138 88.4794 322.678 88.1882 322.109 88.065C321.898 88.0194 321.684 87.9916 321.468 87.9966C321.239 88.0017 321.006 87.995 320.779 88.0228C319.77 88.1469 319.022 88.644 318.607 89.5926C318.428 90.0003 318.324 90.4282 318.263 90.8679C318.198 91.3363 318.177 91.8065 318.177 92.2783C318.177 95.0288 318.177 97.7794 318.177 100.53C318.177 100.593 318.179 100.657 318.174 100.719C318.166 100.803 318.13 100.837 318.046 100.842C317.998 100.846 317.949 100.845 317.901 100.845C317.024 100.845 316.147 100.845 315.269 100.846C314.715 100.846 314.162 100.846 313.608 100.849C313.445 100.85 313.281 100.859 313.118 100.864C313.097 100.865 313.074 100.866 313.052 100.863C312.835 100.841 312.818 100.786 312.821 100.625C312.821 100.544 312.821 100.462 312.821 100.38C312.822 96.7557 312.822 93.1315 312.822 89.5074C312.822 87.6785 312.821 85.8503 312.821 84.0214C312.821 83.9724 312.821 83.9243 312.822 83.8762C312.827 83.7547 312.871 83.7125 312.994 83.7041C313.023 83.7024 313.053 83.7024 313.083 83.7024C314.622 83.7024 316.16 83.7024 317.699 83.7024C317.728 83.7024 317.759 83.7024 317.788 83.7041C317.906 83.7108 317.951 83.7496 317.952 83.8695C317.954 84.0771 317.944 84.2856 317.944 84.4932C317.944 84.7979 317.947 85.1026 317.95 85.4072C317.95 85.5524 317.952 85.6967 317.954 85.8419C317.955 85.8816 317.957 85.9204 317.958 85.9601C317.968 85.9634 317.979 85.9668 317.99 85.9694Z" fill="white"></path><path d="M304.142 92.2665C304.142 89.4939 304.142 86.7206 304.142 83.948C304.142 83.8999 304.142 83.851 304.149 83.8037C304.157 83.7463 304.19 83.7092 304.253 83.7092C304.293 83.7092 304.335 83.7058 304.375 83.7058C305.999 83.7049 307.624 83.7049 309.248 83.7041C309.259 83.7041 309.27 83.7041 309.281 83.7041C309.469 83.7066 309.517 83.7531 309.517 83.9446C309.518 84.5726 309.517 85.2005 309.517 85.8293C309.517 90.7355 309.517 95.6416 309.517 100.548C309.517 100.607 309.514 100.667 309.504 100.725C309.492 100.793 309.451 100.842 309.378 100.846C309.252 100.852 309.126 100.856 309 100.858C308.952 100.859 308.904 100.849 308.856 100.849C307.492 100.848 306.128 100.848 304.764 100.849C304.657 100.849 304.549 100.859 304.442 100.864C304.42 100.865 304.397 100.867 304.375 100.864C304.195 100.844 304.141 100.824 304.141 100.619C304.142 97.8344 304.141 95.0508 304.142 92.2665Z" fill="white"></path><path d="M321.559 109.832C325.275 109.201 328.799 107.483 331.585 104.944" stroke="black" stroke-width="0.5" stroke-miterlimit="10"></path><path d="M332.645 103.67C333.47 102.796 334.296 101.921 335.123 101.047" stroke="black" stroke-width="0.5" stroke-miterlimit="10"></path><path d="M299.251 73.7725C298.362 74.8587 297.583 76.0352 296.93 77.2776" stroke="black" stroke-width="0.5" stroke-miterlimit="10"></path><path d="M295.58 80.4668C294.065 83.8715 293.584 87.7286 294.216 91.4008" stroke="black" stroke-width="0.5" stroke-miterlimit="10"></path><path d="M69.5444 149.31C82.595 149.31 93.1747 138.731 93.1747 125.68C93.1747 112.629 82.595 102.05 69.5444 102.05C56.4937 102.05 45.9141 112.629 45.9141 125.68C45.9141 138.731 56.4937 149.31 69.5444 149.31Z" fill="#5F76E8" stroke="black" stroke-width="0.5" stroke-miterlimit="10"></path><path d="M56.6406 136.77C59.7837 136.83 62.606 136.066 65.1541 134.146C61.632 133.077 60.2285 132.002 59.7162 130C60.5061 129.961 61.2919 129.922 62.0785 129.883C59.2992 128.816 57.6661 126.949 57.4526 123.899C58.3042 124.125 59.0941 124.334 59.8841 124.542C57.3336 121.334 56.8179 118.846 58.3404 116.524C61.6363 120.286 65.7364 122.422 70.8291 122.769C70.8063 122.371 70.7835 122.072 70.7726 121.772C70.6721 119.143 71.7752 117.155 74.1182 115.996C76.4544 114.841 78.7264 115.15 80.7537 116.797C81.2044 117.163 81.5817 117.263 82.0931 117.071C83.0418 116.715 83.9947 116.373 85.0404 115.989C84.604 117.255 83.7862 118.196 82.7228 118.962C82.7447 119.019 82.7675 119.076 82.7894 119.133C83.7626 118.883 84.7365 118.634 85.7097 118.384C85.7485 118.423 85.7873 118.461 85.8261 118.499C85.0716 119.259 84.3491 120.054 83.5507 120.764C83.1321 121.137 82.9143 121.469 82.916 122.066C82.9414 130.981 76.2147 138.397 67.3653 139.192C63.7935 139.513 60.3888 138.869 57.2247 137.122C57.0255 137.013 56.8347 136.889 56.6406 136.77Z" fill="white"></path><path d="M89.5668 133.702C88.0282 137.648 85.2345 141.093 81.6914 143.413" stroke="black" stroke-width="0.5" stroke-miterlimit="10"></path><path d="M82.4313 141.223C81.643 141.729 80.8547 142.235 80.0664 142.742" stroke="black" stroke-width="0.5" stroke-miterlimit="10"></path><path d="M90.5172 121.635C91.108 123.868 91.0633 126.266 90.3906 128.475" stroke="black" stroke-width="0.5" stroke-miterlimit="10"></path><path d="M59.1904 106.975C56.6213 107.867 54.3568 109.61 52.8359 111.864" stroke="black" stroke-width="0.5" stroke-miterlimit="10"></path></g><mask id="mask2_2099_10057" style="mask-type:luminance" maskUnits="userSpaceOnUse" x="0" y="0" width="422" height="422"><path d="M422 0H0V422H422V0Z" fill="white"></path></mask><g mask="url(#mask2_2099_10057)"><path d="M270.921 287.01C270.841 288.519 271.477 289.936 272.59 291.27C274.38 293.413 276.169 295.557 277.958 297.7C282.81 303.512 283.052 312.325 288.871 317.396C291.864 320.004 295.624 321.535 299.326 322.971C303.027 324.407 306.812 325.827 309.941 328.271C310.53 328.731 311.196 329.257 311.934 329.139C312.871 328.99 313.319 327.924 313.562 327.006C314.756 322.51 314.805 318.159 314.659 313.555C314.54 309.807 315.187 306.184 314.751 302.365C313.799 294.04 310.323 286.142 305.819 279.148C303.428 275.434 300.679 271.876 297.28 269.028C293.518 265.874 290.025 264.141 285.005 264.261C282.528 264.32 279.986 264.999 278.112 266.618C274.884 269.406 274.376 274.103 273.471 278.271C272.949 280.678 272.223 283.041 271.304 285.326C271.074 285.901 270.95 286.461 270.921 287.01Z" fill="white" stroke="#222221" stroke-width="0.5" stroke-miterlimit="10"></path><path d="M321.214 290.841C320.333 292.19 319.514 293.441 318.761 294.553C312.249 304.176 303.592 317.18 312.64 327.164C326.916 342.918 354.684 351.166 374.992 353.691C379.567 354.26 384.276 354.601 388.471 356.513C391.518 357.901 394.142 360.053 396.722 362.189C405.596 369.537 415.978 376.641 423.381 385.476C430.654 394.156 438.621 401.316 448.612 407.125C464.39 416.3 484.313 420.001 501.093 412.82C514.49 407.087 524.983 393.117 525.209 378.322C525.478 360.707 506.655 352.184 493.329 344.529C480.411 337.108 467.325 329.982 454.169 322.989C443.271 317.196 430.997 312.402 421.749 304.231C407.871 291.97 393.17 277.656 376.265 269.636C371.729 267.483 367.04 265.67 362.313 263.977C359.381 262.928 356.379 261.913 353.267 261.801C340.363 261.335 328.618 279.507 321.214 290.841Z" fill="white" stroke="#222221" stroke-width="0.5" stroke-miterlimit="10"></path><path d="M253.357 238.635C249.819 239.473 246.58 242.771 247.147 246.362C247.475 248.439 248.993 250.174 250.786 251.272C252.58 252.37 254.643 252.927 256.675 253.469C259.847 254.317 263.018 255.164 266.19 256.011C268.932 256.744 271.758 257.483 274.574 257.125C277.389 256.768 280.225 255.043 281.018 252.319C281.347 251.191 281.304 249.981 281.067 248.832C279.952 243.422 276.1 241.8 271.327 241.364C265.329 240.814 259.506 237.178 253.357 238.635Z" fill="white" stroke="#222221" stroke-width="0.5" stroke-miterlimit="10"></path><path d="M320.599 334.831L369.522 320.319C374.793 318.756 377.194 313.501 374.884 308.582L318.836 189.241C316.526 184.322 310.38 181.603 305.109 183.166L256.186 197.678C250.915 199.241 248.514 204.497 250.824 209.415L306.872 328.756C309.182 333.675 315.328 336.394 320.599 334.831Z" fill="black"></path><path d="M319.94 331.011L372.195 315.511C375.242 314.607 376.63 311.57 375.294 308.726L317.621 185.924C316.286 183.081 312.734 181.509 309.687 182.413L257.431 197.913C254.385 198.817 252.997 201.853 254.332 204.697L312.005 327.5C313.34 330.342 316.893 331.914 319.94 331.011Z" fill="white"></path><path d="M281.433 196.614L290.313 193.98C290.678 193.872 290.845 193.508 290.684 193.167C290.524 192.826 290.099 192.638 289.733 192.746L280.854 195.38C280.489 195.488 280.323 195.853 280.483 196.194C280.642 196.534 281.068 196.722 281.433 196.614Z" fill="black"></path><path d="M295.672 192.393C296.038 192.285 296.204 191.921 296.044 191.58C295.883 191.239 295.458 191.05 295.093 191.158C294.727 191.266 294.561 191.631 294.721 191.972C294.881 192.313 295.307 192.501 295.672 192.393Z" fill="black"></path><path d="M275.338 257.733C276.055 257.52 276.381 256.806 276.067 256.137L273.793 251.293C273.479 250.625 272.643 250.255 271.927 250.467C271.21 250.68 270.884 251.394 271.198 252.063L273.472 256.907C273.785 257.576 274.621 257.946 275.338 257.733Z" fill="#A8DCA4"></path><path d="M264.585 234.836C265.301 234.624 265.628 233.91 265.314 233.24L258.387 218.49C258.073 217.821 257.237 217.451 256.52 217.664C255.804 217.876 255.477 218.591 255.791 219.26L262.719 234.01C263.032 234.679 263.868 235.049 264.585 234.836Z" fill="#A8DCA4"></path><path d="M263.874 235.046C264.591 234.834 264.917 234.12 264.603 233.45L257.676 218.699C257.362 218.031 256.526 217.661 255.81 217.874C255.093 218.086 254.766 218.8 255.08 219.47L262.008 234.22C262.322 234.889 263.157 235.259 263.874 235.046Z" fill="black"></path><path d="M274.627 257.943C275.344 257.731 275.67 257.016 275.356 256.347L273.082 251.503C272.768 250.835 271.932 250.465 271.216 250.677C270.499 250.89 270.173 251.604 270.487 252.273L272.761 257.117C273.075 257.786 273.911 258.156 274.627 257.943Z" fill="black"></path><path d="M279.369 266.32C280.086 266.107 280.413 265.393 280.099 264.724L277.824 259.88C277.51 259.212 276.675 258.841 275.958 259.054C275.241 259.267 274.915 259.981 275.229 260.65L277.503 265.494C277.817 266.162 278.653 266.533 279.369 266.32Z" fill="#AFB3BC"></path><path d="M278.666 266.529C279.383 266.316 279.709 265.602 279.396 264.933L277.121 260.089C276.807 259.421 275.971 259.05 275.255 259.263C274.538 259.476 274.212 260.191 274.526 260.859L276.8 265.703C277.113 266.372 277.95 266.743 278.666 266.529Z" fill="black"></path><path d="M311.018 325.219L374.307 306.446L319.25 189.214L255.961 207.987L311.018 325.219Z" fill="#D89CC7" stroke="black" stroke-width="0.5" stroke-miterlimit="10"></path><path d="M310.908 327.002L253.912 205.641C252.21 202.016 253.985 198.13 257.87 196.977L308.579 181.935C312.464 180.783 317.009 182.794 318.712 186.419L375.707 307.78C377.41 311.405 375.634 315.291 371.75 316.444L321.041 331.486C317.156 332.639 312.611 330.627 310.908 327.002ZM258.532 198.388C255.48 199.293 254.086 202.346 255.424 205.193L312.419 326.554C313.757 329.401 317.327 330.981 320.378 330.076L371.087 315.034C374.138 314.129 375.534 311.076 374.196 308.228L317.201 186.868C315.864 184.021 312.293 182.441 309.242 183.345L258.532 198.388Z" fill="#A8DCA4"></path><path d="M312.006 327.078L254.762 205.188C253.311 202.098 254.824 198.784 258.135 197.802L309.057 182.697C312.369 181.714 316.244 183.429 317.695 186.519L374.94 308.41C376.391 311.5 374.878 314.813 371.567 315.796L320.645 330.901C317.332 331.883 313.457 330.168 312.006 327.078ZM258.384 198.331C255.385 199.221 254.014 202.221 255.328 205.02L312.573 326.91C313.887 329.709 317.396 331.262 320.395 330.372L371.317 315.268C374.315 314.379 375.686 311.378 374.372 308.579L317.128 186.689C315.814 183.89 312.304 182.337 309.306 183.227L258.384 198.331Z" fill="#A8DCA4"></path><path d="M371.685 303.301L310.984 321.808L259.125 212.51L319.827 194.003L371.685 303.301Z" fill="#F9F9F9"></path><path d="M305.978 298.765C305.669 298.96 305.611 299.462 305.611 299.462C305.611 299.462 305.152 299.118 304.759 299.136C303.622 299.19 303.537 300.114 304.271 300.725C304.978 301.315 306.703 301.765 306.703 301.765C306.703 301.765 307.619 300.51 307.659 299.692C307.701 298.844 306.873 298.2 305.978 298.765Z" fill="#D89CC7"></path><path d="M360.831 279.654L299.188 298.343L274.16 244.679L335.584 225.881L360.831 279.654Z" fill="#D89CC7" stroke="black" stroke-width="0.5" stroke-miterlimit="10"></path><path opacity="0.2" d="M281.812 237.732C282.536 239.26 281.725 240.924 279.999 241.45C278.273 241.977 276.286 241.165 275.562 239.638C274.837 238.111 275.649 236.446 277.375 235.92C279.101 235.394 281.087 236.206 281.812 237.732Z" fill="#DBE0FC"></path><mask id="mask3_2099_10057" style="mask-type:luminance" maskUnits="userSpaceOnUse" x="259" y="194" width="113" height="128"><path d="M371.685 303.301L310.984 321.808L259.125 212.51L319.827 194.003L371.685 303.301Z" fill="white"></path></mask><g mask="url(#mask3_2099_10057)"><path d="M332.247 217.033L269.473 236.171L262.359 221.178L325.133 202.039L332.247 217.033Z" fill="white" stroke="#C2C2C2" stroke-width="0.25" stroke-miterlimit="10"></path></g><mask id="mask4_2099_10057" style="mask-type:luminance" maskUnits="userSpaceOnUse" x="259" y="194" width="113" height="128"><path d="M371.685 303.301L310.984 321.808L259.125 212.51L319.827 194.003L371.685 303.301Z" fill="white"></path></mask><g mask="url(#mask4_2099_10057)"><path d="M293.712 220.165C294.865 222.596 293.574 225.245 290.827 226.083C288.08 226.92 284.919 225.629 283.766 223.199C282.613 220.769 283.904 218.12 286.651 217.281C289.398 216.444 292.559 217.736 293.712 220.165Z" fill="#DBE0FC"></path><path d="M307.19 216.055C308.342 218.486 307.051 221.135 304.304 221.973C301.558 222.81 298.396 221.519 297.242 219.089C296.089 216.658 297.381 214.01 300.128 213.171C302.875 212.333 306.037 213.626 307.19 216.055Z" fill="#DBE0FC"></path><path d="M320.669 211.946C321.822 214.376 320.531 217.025 317.784 217.863C315.037 218.7 311.876 217.409 310.723 214.979C309.57 212.548 310.861 209.9 313.608 209.062C316.355 208.224 319.516 209.516 320.669 211.946Z" fill="#DBE0FC"></path><path d="M334.15 207.837C335.303 210.267 334.011 212.916 331.264 213.754C328.518 214.591 325.356 213.3 324.203 210.87C323.05 208.439 324.342 205.791 327.089 204.953C329.836 204.115 332.996 205.406 334.15 207.837Z" fill="#DBE0FC"></path></g><path d="M280.788 224.108C282.068 226.807 280.634 229.749 277.583 230.679C274.533 231.609 271.022 230.175 269.742 227.476C268.461 224.777 269.896 221.835 272.946 220.905C275.997 219.974 279.508 221.408 280.788 224.108Z" fill="#DBE0FC"></path><path d="M282.535 226.528C282.855 227.202 282.496 227.938 281.734 228.17C280.971 228.402 280.093 228.045 279.773 227.369C279.453 226.695 279.812 225.959 280.574 225.727C281.337 225.495 282.215 225.853 282.535 226.528Z" fill="#5F76E8"></path><path d="M327.176 309.371C327.584 310.233 327.127 311.172 326.153 311.468C325.179 311.765 324.058 311.307 323.649 310.445C323.241 309.584 323.698 308.644 324.672 308.348C325.646 308.052 326.766 308.51 327.176 309.371Z" stroke="#2D2D2D" stroke-width="0.5" stroke-miterlimit="10"></path><path d="M328.591 311.746L327.031 310.93" stroke="#2D2D2D" stroke-width="0.5" stroke-miterlimit="10"></path><path d="M312.326 312.114L311.141 314.242L312.312 316.711L313.617 316.313L313.005 315.024C312.859 314.715 313.051 314.372 313.434 314.255C313.816 314.139 314.245 314.293 314.391 314.602L315.003 315.891L316.149 315.542L314.977 313.073L312.326 312.114Z" stroke="#2D2D2D" stroke-width="0.5" stroke-miterlimit="10"></path><path d="M337.672 305.335L338.789 307.691" stroke="black" stroke-width="0.5" stroke-miterlimit="10"></path><path d="M336.898 306.919L339.561 306.107" stroke="black" stroke-width="0.5" stroke-miterlimit="10"></path><path d="M339.534 308.41L338.823 308.627C337.767 308.949 336.552 308.452 336.109 307.519L335.811 306.889C335.367 305.955 335.864 304.937 336.92 304.616L337.631 304.399C338.687 304.077 339.901 304.573 340.345 305.507L340.643 306.137C341.086 307.07 340.589 308.089 339.534 308.41Z" stroke="#2D2D2D" stroke-width="0.5" stroke-miterlimit="10"></path><path d="M350.64 300.722C350.248 300.969 350.175 301.605 350.175 301.605C350.175 301.605 349.592 301.169 349.094 301.192C347.653 301.261 347.546 302.431 348.476 303.206C349.373 303.954 351.56 304.525 351.56 304.525C351.56 304.525 352.72 302.934 352.771 301.897C352.824 300.822 351.774 300.005 350.64 300.722Z" stroke="#2D2D2D" stroke-width="0.5" stroke-miterlimit="10"></path><path d="M363.917 297.767C364.184 298.331 363.885 298.947 363.246 299.141C362.608 299.335 361.874 299.035 361.606 298.471C361.338 297.906 361.638 297.291 362.276 297.096C362.914 296.903 363.648 297.202 363.917 297.767Z" fill="#2D2D2D"></path><path d="M366.16 300.081L365.997 299.738C365.688 299.087 364.841 298.741 364.106 298.966L362.534 299.445C361.799 299.67 361.453 300.379 361.761 301.029L361.924 301.373L366.16 300.081Z" fill="#2D2D2D"></path><path d="M267.297 213.657L267.038 213.54C266.873 213.466 266.685 213.452 266.518 213.503L266.37 213.548L265.998 213.661L265.85 213.705C265.683 213.756 265.554 213.867 265.493 214.01L265.396 214.235C265.336 214.379 265.206 214.489 265.039 214.54L264.802 214.612C264.473 214.712 264.319 215.03 264.457 215.321L265.429 217.37C265.568 217.661 265.946 217.816 266.275 217.715L269.551 216.717C269.88 216.616 270.034 216.299 269.896 216.009L268.923 213.959C268.785 213.668 268.407 213.514 268.078 213.614L267.817 213.694C267.65 213.745 267.462 213.732 267.297 213.657Z" stroke="#2D2D2D" stroke-width="0.5" stroke-miterlimit="10"></path><path d="M268.19 215.357C268.425 215.853 268.162 216.392 267.603 216.562C267.043 216.733 266.399 216.47 266.164 215.975C265.929 215.48 266.193 214.94 266.752 214.77C267.311 214.599 267.955 214.862 268.19 215.357Z" stroke="#2D2D2D" stroke-width="0.5" stroke-miterlimit="10"></path><path d="M313.328 199.471L317.828 198.095L316.837 202.067L315.577 200.288L313.328 199.471Z" stroke="#2D2D2D" stroke-width="0.5" stroke-miterlimit="10"></path><path d="M315.578 200.288L317.83 198.095" stroke="#2D2D2D" stroke-width="0.5" stroke-miterlimit="10"></path><path d="M310.908 327.002L253.912 205.641C252.21 202.016 253.985 198.13 257.87 196.977L308.579 181.935C312.464 180.783 317.009 182.794 318.712 186.419L375.707 307.78C377.41 311.405 375.634 315.291 371.75 316.444L321.041 331.486C317.156 332.639 312.611 330.627 310.908 327.002ZM258.532 198.388C255.48 199.293 254.086 202.346 255.424 205.193L312.419 326.554C313.757 329.401 317.327 330.981 320.378 330.076L371.087 315.034C374.138 314.129 375.534 311.076 374.196 308.228L317.201 186.868C315.864 184.021 312.293 182.441 309.242 183.345L258.532 198.388Z" stroke="black" stroke-width="0.5" stroke-miterlimit="10"></path><path d="M417.882 300.82C407.155 291.157 403.75 275.388 394.339 264.44C393.519 263.487 392.647 262.589 391.831 261.633C389.316 258.689 386.011 256.552 382.803 254.383C371.315 246.615 360.477 237.887 350.436 228.321C347.65 225.666 345.678 221.819 342.323 219.788C340.528 218.701 338.106 218.377 336.37 219.556C335.49 220.153 334.873 221.066 334.39 222.013C332.808 225.117 332.483 228.839 333.503 232.17C334.348 234.927 336.04 237.334 337.737 239.665C344.401 248.819 359.863 256.295 361.205 268.475" fill="white"></path><path d="M417.882 300.82C407.155 291.157 403.75 275.388 394.339 264.44C393.519 263.487 392.647 262.589 391.831 261.633C389.316 258.689 386.011 256.552 382.803 254.383C371.315 246.615 360.477 237.887 350.436 228.321C347.65 225.666 345.678 221.819 342.323 219.788C340.528 218.701 338.106 218.377 336.37 219.556C335.49 220.153 334.873 221.066 334.39 222.013C332.808 225.117 332.483 228.839 333.503 232.17C334.348 234.927 336.04 237.334 337.737 239.665C344.401 248.819 359.863 256.295 361.205 268.475" stroke="#222221" stroke-width="0.5" stroke-miterlimit="10"></path><path d="M292.331 308.786C292.463 308.702 292.593 308.617 292.722 308.53C295.796 306.448 298.767 303.568 299.145 299.874C299.319 298.16 298.902 296.418 298.147 294.868C297.712 293.978 297.151 293.123 296.357 292.53C294.941 291.473 292.977 291.408 291.289 291.927C288.455 292.799 286.624 294.921 284.257 296.523C282.134 297.96 279.875 299.569 279.068 302.003C278.229 304.533 279.299 307.482 281.372 309.156C284.645 311.8 289.077 310.836 292.331 308.786Z" fill="white" stroke="#222221" stroke-width="0.5" stroke-miterlimit="10"></path><path d="M270.194 259.379C270.832 258.067 271.622 256.662 272.993 256.16C274.476 255.616 276.129 256.333 277.395 257.279C279.466 258.829 281.046 261.085 281.575 263.618C282.448 267.802 279.538 273.577 277.59 277.169C277 278.256 276.299 279.372 275.19 279.918C273.33 280.834 271.071 279.797 269.554 278.383C267.352 276.331 265.546 272.864 265.979 269.762C266.452 266.359 268.686 262.484 270.194 259.379Z" fill="white" stroke="#222221" stroke-width="0.5" stroke-miterlimit="10"></path><path d="M287.24 287.964C291.612 281.614 291.337 270.786 283.779 267.852C282.577 267.385 281.19 267.191 280.012 267.717C277.725 268.737 277.321 271.722 276.248 273.985C275.147 276.308 273.57 278.302 272.36 280.562C271.638 281.912 270.957 283.309 270.659 284.811C270.36 286.314 270.476 287.949 271.269 289.26" fill="white"></path><path d="M287.24 287.964C291.612 281.614 291.337 270.786 283.779 267.852C282.577 267.385 281.19 267.191 280.012 267.717C277.725 268.737 277.321 271.722 276.248 273.985C275.147 276.308 273.57 278.302 272.36 280.562C271.638 281.912 270.957 283.309 270.659 284.811C270.36 286.314 270.476 287.949 271.269 289.26" stroke="#222221" stroke-width="0.5" stroke-miterlimit="10"></path><path d="M375.738 315.523C377.706 318.193 379.98 320.636 382.503 322.79" stroke="#222221" stroke-width="0.5" stroke-miterlimit="10"></path><path d="M279.061 268.49C278.894 269.866 279.388 271.308 280.365 272.292C281.312 273.248 282.244 273.648 281.664 274.984C281.087 276.314 279.992 277.616 278.945 278.6C278.792 278.743 278.629 278.887 278.429 278.95C278.23 279.012 278.014 278.989 277.81 278.942C277.292 278.823 276.81 278.558 276.431 278.185C275.866 277.627 275.557 276.864 275.094 276.218" stroke="#222221" stroke-width="0.5" stroke-miterlimit="10"></path><path d="M271.807 256.94C271.299 258.471 271.595 259.852 272.169 261.296C272.839 262.984 271.491 263.956 270.451 265.355C270.259 265.614 270.014 265.9 269.692 265.891C269.512 265.886 269.35 265.786 269.209 265.675C268.555 265.158 268.176 264.312 268.227 263.48" stroke="#222221" stroke-width="0.5" stroke-miterlimit="10"></path><path d="M291.1 292.223C291.128 294.334 291.579 295.504 292.268 297.5C292.301 297.596 292.334 297.702 292.294 297.796C292.263 297.868 292.195 297.916 292.13 297.96C290.649 298.957 288.35 300.343 287.196 298.292C286.657 297.332 286.297 296.271 286.141 295.182" stroke="#222221" stroke-width="0.5" stroke-miterlimit="10"></path><path d="M345.32 244.153C344.715 244.484 344.344 245.198 344.42 245.883" stroke="#222221" stroke-width="0.5" stroke-miterlimit="10"></path><path d="M342.891 245.201C344.42 244.409 345.544 242.876 345.84 241.179" stroke="#222221" stroke-width="0.5" stroke-miterlimit="10"></path><path d="M393.312 268.122C395.911 271.005 398.144 274.217 399.939 277.658" stroke="#222221" stroke-width="0.5" stroke-miterlimit="10"></path><path d="M400.754 279.291C401.813 281.458 402.873 283.624 403.932 285.791" stroke="#222221" stroke-width="0.5" stroke-miterlimit="10"></path><path d="M398.355 277.941C398.696 278.573 399.036 279.204 399.376 279.836" stroke="#222221" stroke-width="0.5" stroke-miterlimit="10"></path><path d="M335.234 224.6C334.496 227.642 334.834 230.935 336.176 233.763" stroke="#222221" stroke-width="0.5" stroke-miterlimit="10"></path><path d="M336.852 235.101C337.206 236.013 337.65 236.892 338.175 237.718" stroke="#222221" stroke-width="0.5" stroke-miterlimit="10"></path><path d="M337.285 232.915C337.577 233.595 337.869 234.275 338.161 234.955" stroke="#222221" stroke-width="0.5" stroke-miterlimit="10"></path><path d="M298.319 297.912C298.073 300.666 296.545 303.278 294.266 304.843" stroke="#222221" stroke-width="0.5" stroke-miterlimit="10"></path><path d="M315.148 325.888C317.627 325.114 320.105 324.34 322.584 323.566" stroke="#222221" stroke-width="0.5" stroke-miterlimit="10"></path><path d="M324.902 322.812C325.486 322.619 326.069 322.425 326.652 322.231" stroke="#222221" stroke-width="0.5" stroke-miterlimit="10"></path><path d="M322.141 325.156C322.724 325.059 323.306 324.962 323.889 324.865" stroke="#222221" stroke-width="0.5" stroke-miterlimit="10"></path><path d="M339.613 284.185C340.557 283.623 341.606 283.239 342.69 283.06" stroke="#222221" stroke-width="0.5" stroke-miterlimit="10"></path><path d="M355.073 279.54C351.867 280.417 348.663 281.295 345.457 282.172" stroke="#222221" stroke-width="0.5" stroke-miterlimit="10"></path><path d="M257.672 200.504C256.339 201.894 256.247 204.294 257.469 205.782" stroke="#222221" stroke-width="0.5" stroke-miterlimit="10"></path><path d="M264.87 248.942C264.287 249.671 263.704 250.4 263.121 251.128" stroke="#222221" stroke-width="0.5" stroke-miterlimit="10"></path><path d="M262.379 253.131C263.176 252.595 263.901 251.954 264.532 251.229" stroke="#222221" stroke-width="0.5" stroke-miterlimit="10"></path><path d="M286.949 288.177C285.417 288.145 283.886 288.114 282.355 288.082" stroke="#222221" stroke-width="0.5" stroke-miterlimit="10"></path><path d="M288.297 277.132C288.626 278.589 288.45 280.156 287.809 281.505" stroke="#222221" stroke-width="0.5" stroke-miterlimit="10"></path><path d="M352.961 345.34C354.491 345.777 356.021 346.214 357.551 346.651" stroke="#222221" stroke-width="0.5" stroke-miterlimit="10"></path><path d="M326.038 270.787C324.799 272.315 323.619 273.983 323.24 275.913C322.861 277.842 323.485 280.093 325.177 281.096C327.568 282.512 330.702 280.812 332.311 278.545C333.92 276.279 334.69 273.481 336.426 271.312C338.033 269.304 340.356 267.978 342.027 266.024C343.698 264.068 344.549 260.922 342.823 259.016C341.707 257.783 339.829 257.488 338.206 257.855C332.993 259.036 329.235 266.844 326.038 270.787Z" fill="#A8DCA4" stroke="black" stroke-width="0.5" stroke-miterlimit="10"></path><path d="M323.698 263.754C323.647 262.926 323.772 262.09 324.356 261.11C325.146 259.781 326.499 258.799 328.007 258.457C329.006 258.231 331.584 258.608 331.762 257.345C331.89 256.441 330.499 255.644 329.849 255.384C327.403 254.407 324.565 253.925 322.005 253.258C313.804 251.122 305.422 246.757 297.39 251.805C294.817 253.421 288.503 259.264 294.878 260.995C296.872 261.536 298.958 260.831 300.986 260.439C303.527 259.947 307.31 259.585 309.873 260.297C313.144 261.206 316.129 264.998 318.629 267.166C319.475 267.9 320.375 268.66 321.473 268.875C322.572 269.09 323.907 268.527 324.129 267.43C324.173 267.213 324.174 266.987 324.153 266.758C324.048 265.634 323.757 264.7 323.698 263.754Z" fill="white" stroke="#222221" stroke-width="0.5" stroke-miterlimit="10"></path><path d="M347.207 269.672C345.4 268.377 341.419 268.527 339.568 267.445C336.236 265.498 335.671 260.993 331.389 260.578C329.894 260.434 328.172 261.01 327.604 262.4C327.09 263.657 327.676 265.069 328.253 266.298C330.541 271.169 339.73 284.732 346.567 278.522C348.76 276.53 349.334 272.976 347.878 270.394C347.717 270.112 347.489 269.875 347.207 269.672Z" fill="white" stroke="#222221" stroke-width="0.5" stroke-miterlimit="10"></path><path d="M310.38 277.494C307.066 282.795 299.294 281.525 297.538 275.552C295.857 269.838 301.773 262.874 306.629 260.92C311.854 258.817 316.007 255.198 316.779 249.133C316.933 247.928 316.931 246.681 317.369 245.547C317.768 244.514 318.506 243.647 319.309 242.883C321.079 241.198 323.322 239.883 325.76 239.726C328.199 239.569 330.809 240.776 331.831 242.996C333.185 245.936 331.393 249.476 328.86 251.491C326.328 253.505 323.157 254.522 320.378 256.178C314.034 259.959 313.663 266.241 312.321 272.672C311.964 274.376 311.304 276.017 310.38 277.494Z" fill="#D47172" stroke="black" stroke-width="0.5" stroke-miterlimit="10"></path><path d="M283.841 252.683C284.248 253.362 284.893 253.898 285.778 254.127C291.379 255.583 291.88 246.214 286.166 247.226C283.65 247.673 282.576 250.573 283.841 252.683Z" fill="white" stroke="#222221" stroke-width="0.5" stroke-miterlimit="10"></path></g><mask id="mask5_2099_10057" style="mask-type:luminance" maskUnits="userSpaceOnUse" x="0" y="0" width="422" height="422"><path d="M422 0H0V422H422V0Z" fill="white"></path></mask><g mask="url(#mask5_2099_10057)"><path d="M183.542 197.142C176.099 200.267 168.421 203.154 160.38 203.854C156.418 204.198 151.4 203.259 150.368 199.418C149.685 196.876 151.185 194.283 152.841 192.237C159.744 183.71 170.054 178.812 180.003 174.19C185.584 171.596 202.027 168.599 204.932 176.956C208.256 186.514 189.728 194.545 183.542 197.142Z" fill="white"></path><path d="M183.542 197.142C176.099 200.267 168.421 203.154 160.38 203.854C156.418 204.198 151.4 203.259 150.368 199.418C149.685 196.876 151.185 194.283 152.841 192.237C159.744 183.71 170.054 178.812 180.003 174.19C185.584 171.596 202.027 168.599 204.932 176.956C208.256 186.514 189.728 194.545 183.542 197.142Z" stroke="black" stroke-width="0.5" stroke-miterlimit="10" stroke-linecap="round"></path><path d="M176.871 201.774C177.445 202.892 177.796 204.12 177.83 205.448C177.934 209.385 177.022 213.213 176.084 217.009C175.13 220.872 173.885 226.304 169.573 227.533C167.463 228.135 165.294 228.532 163.107 228.716C160.567 228.929 157.853 228.813 155.712 227.428C153.572 226.043 152.32 223.034 153.604 220.833C154.428 219.421 156.02 218.678 157.251 217.603C160.011 215.191 160.796 211.301 161.733 207.756C162.927 203.196 166.263 200.864 169.292 197.645C169.557 197.362 169.831 197.073 170.177 196.899C171.2 196.381 172.419 197.013 173.329 197.709C174.792 198.826 176.057 200.19 176.871 201.774Z" fill="white"></path><path d="M74.7775 176.332C76.9365 172.006 80.6779 168.856 84.7857 166.448C89.48 163.696 94.2267 161.204 99.2974 159.131C101.178 158.362 103.216 157.629 105.199 158.071C107.206 158.518 108.769 160.1 109.926 161.8C111.388 163.95 112.376 166.374 113.111 168.857C113.834 171.301 113.926 174.095 114.781 176.459C116.715 181.802 118.035 186.657 117.263 192.452C117.005 194.388 116.549 196.31 115.726 198.081C114.248 201.261 111.677 203.784 109.118 206.181C106.826 208.328 104.453 210.468 101.616 211.815C99.0594 213.029 96.2261 213.548 93.4071 213.801C84.0573 214.643 74.2407 212.505 66.8119 206.765C62.797 203.662 64.6377 198.162 66.384 194.408C69.1852 188.384 71.81 182.277 74.7775 176.332Z" fill="white"></path><path d="M57.8919 297.481C55.4764 299.682 53.1993 302.041 51.1129 304.606C49.2122 306.942 47.4913 309.422 45.5383 311.714C42.6662 315.086 39.4472 318.204 36.0239 320.974C32.7888 323.593 30.5691 327.631 27.973 330.896C21.9679 338.446 15.3999 345.549 8.3407 352.125C6.60881 353.738 4.82797 355.334 2.75933 356.484C0.571678 357.7 -1.87761 358.382 -4.34631 358.795C-8.12067 359.426 -11.9955 359.449 -15.7766 358.863C-24.2546 357.549 -31.9544 353.267 -39.2491 348.752C-43.1627 346.329 -47.0358 343.806 -50.5038 340.78C-52.6678 338.891 -54.6926 336.778 -56.0438 334.242C-57.558 331.403 -58.8907 327.052 -58.6214 323.793C-58.3767 320.825 -56.4954 317.365 -55.3332 314.609C-52.4552 307.785 -48.5778 301.38 -43.8354 295.691C-32.4118 281.984 -16.7438 272.991 -2.10296 263.206C12.0526 253.746 25.8562 243.977 38.3111 232.389C43.7195 227.357 49.2401 223.526 51.9282 216.247C53.2601 212.64 53.8154 208.786 55.1262 205.171C56.6335 201.014 59.0972 197.284 61.5389 193.598C63.5535 190.556 65.5681 187.515 67.5828 184.473C70.9655 179.365 74.4402 174.157 79.3067 170.435C80.263 169.704 81.367 168.996 82.7621 169.817C83.4449 170.219 83.9175 170.901 84.1505 171.658C85.4612 175.928 84.6223 182.76 84.2813 187.226C83.8584 192.767 82.9343 198.265 82.8102 203.829C82.6971 208.886 83.5917 212.913 85.257 217.549C87.0504 222.541 87.518 228.043 88.7494 233.189C90.5252 240.606 93.7754 246.862 99.8607 251.572C105.618 256.027 112.97 251.537 119.22 249.878C121.351 249.312 124.487 249.095 126.26 247.737C127.949 246.445 129.5 243.798 130.756 242.084C132.72 239.405 138.636 231.34 142.609 235.908C143.171 236.554 143.524 237.349 143.731 238.18C144.622 241.765 147.548 250.388 144.593 253.939C143.583 255.152 142.224 256.014 140.889 256.856C132.761 261.981 123.867 265.781 115.256 270.13C109.767 272.903 103.81 274.519 97.8722 276.012C92.0537 277.475 85.5422 278.471 80.4031 281.593C72.5581 286.356 64.6768 291.297 57.8919 297.481Z" fill="white"></path><path d="M161.622 225.493C162.763 229.91 162.084 234.568 161.399 239.077C161.117 240.932 160.797 242.879 159.636 244.352C158.679 245.567 157.252 246.318 155.806 246.863C152.223 248.215 148.243 248.497 144.505 247.665C141.904 247.086 139.112 245.616 138.551 243.01C138.194 241.352 138.843 239.66 139.48 238.087C140.553 235.44 141.625 232.794 142.697 230.148C144.58 225.503 147.354 219.253 152.555 217.403C157.076 215.796 160.682 221.857 161.622 225.493Z" fill="white"></path><path d="M95.2327 269.939L53.5737 240.7C49.0853 237.55 48.4819 231.82 52.2267 227.901L143.077 132.83C146.821 128.912 153.495 128.29 157.983 131.439L199.641 160.679C204.13 163.83 204.733 169.56 200.988 173.478L110.139 268.549C106.395 272.468 99.7211 273.09 95.2327 269.939Z" fill="black"></path><path d="M97.0703 266.536L52.5738 235.305C49.9793 233.484 49.6308 230.172 51.7956 227.907L145.281 130.078C147.445 127.814 151.303 127.453 153.898 129.275L198.394 160.506C200.989 162.327 201.337 165.639 199.172 167.904L105.686 265.733C103.522 267.998 99.6639 268.357 97.0703 266.536Z" fill="white"></path><path d="M176.101 151.663L168.541 146.356C168.23 146.138 168.188 145.741 168.447 145.469C168.706 145.197 169.169 145.154 169.48 145.373L177.041 150.68C177.351 150.899 177.394 151.295 177.134 151.567C176.875 151.838 176.412 151.881 176.101 151.663Z" fill="black"></path><path d="M163.982 143.157C163.672 142.938 163.629 142.542 163.889 142.27C164.148 141.998 164.61 141.955 164.922 142.174C165.232 142.392 165.274 142.789 165.014 143.061C164.755 143.332 164.293 143.375 163.982 143.157Z" fill="black"></path><path d="M162.486 211.391C161.876 210.963 161.794 210.184 162.303 209.651L165.99 205.792C166.499 205.259 167.406 205.175 168.017 205.603C168.627 206.032 168.709 206.811 168.2 207.343L164.512 211.202C164.003 211.736 163.096 211.82 162.486 211.391Z" fill="#5F76E8"></path><path d="M179.916 193.151C179.305 192.723 179.223 191.943 179.732 191.411L190.962 179.66C191.471 179.127 192.378 179.042 192.988 179.471C193.598 179.899 193.68 180.678 193.171 181.211L181.942 192.962C181.433 193.495 180.526 193.58 179.916 193.151Z" fill="#5F76E8"></path><path d="M180.517 193.574C179.907 193.146 179.825 192.367 180.334 191.834L191.563 180.083C192.072 179.551 192.98 179.466 193.59 179.894C194.2 180.323 194.282 181.102 193.773 181.634L182.544 193.385C182.035 193.918 181.127 194.002 180.517 193.574Z" fill="black"></path><path d="M163.087 211.814C162.477 211.386 162.395 210.607 162.904 210.074L166.592 206.215C167.101 205.683 168.008 205.597 168.618 206.026C169.228 206.454 169.31 207.234 168.801 207.767L165.114 211.625C164.606 212.159 163.698 212.243 163.087 211.814Z" fill="black"></path><path d="M155.947 218.232C155.337 217.804 155.255 217.025 155.764 216.492L159.451 212.633C159.96 212.101 160.867 212.015 161.478 212.444C162.088 212.872 162.17 213.651 161.661 214.185L157.973 218.043C157.464 218.576 156.557 218.66 155.947 218.232Z" fill="#AFB3BC"></path><path d="M156.552 218.655C155.942 218.227 155.86 217.448 156.369 216.915L160.057 213.056C160.565 212.524 161.473 212.438 162.083 212.867C162.693 213.296 162.775 214.075 162.266 214.607L158.579 218.466C158.07 218.999 157.162 219.083 156.552 218.655Z" fill="black"></path><path d="M107.336 263.888L53.4453 226.063L142.69 132.672L196.58 170.497L107.336 263.888Z" fill="#D89CC7"></path><path d="M95.8741 266.635L52.6951 236.328C49.3874 234.006 48.9409 229.768 51.7008 226.88L144.088 130.201C146.847 127.313 151.783 126.853 155.092 129.174L198.271 159.481C201.578 161.803 202.025 166.041 199.265 168.93L106.878 265.609C104.118 268.497 99.1817 268.958 95.8741 266.635ZM154.017 130.298C151.419 128.474 147.541 128.836 145.374 131.105L52.9871 227.784C50.8197 230.053 51.17 233.382 53.7678 235.206L96.9477 265.513C99.5463 267.337 103.424 266.975 105.591 264.707L197.978 168.027C200.145 165.759 199.795 162.43 197.197 160.606L154.017 130.298Z" fill="#5F76E8"></path><path d="M96.4349 266.208L53.0744 235.774C50.2546 233.795 49.8739 230.182 52.227 227.72L145.018 130.618C147.37 128.156 151.578 127.764 154.398 129.743L197.759 160.177C200.579 162.156 200.959 165.769 198.606 168.23L105.816 265.333C103.463 267.794 99.2547 268.188 96.4349 266.208ZM153.995 130.165C151.441 128.372 147.63 128.729 145.5 130.958L52.7098 228.059C50.5795 230.288 50.9239 233.56 53.4778 235.353L96.8383 265.787C99.3923 267.579 103.203 267.224 105.333 264.994L198.123 167.892C200.254 165.663 199.909 162.391 197.355 160.598L153.995 130.165Z" fill="black"></path><path d="M176.144 186.462C172.908 189.654 167.342 190.145 163.711 187.56C160.081 184.976 159.762 180.294 162.998 177.102C166.235 173.911 171.801 173.42 175.431 176.004C179.061 178.59 179.381 183.272 176.144 186.462Z" fill="#A8DCA4" stroke="black" stroke-width="0.5" stroke-miterlimit="10"></path><path d="M169.762 185.896C169.576 185.954 169.379 185.922 169.242 185.824C169.174 185.775 169.121 185.711 169.09 185.633C168.589 184.351 167.468 183.404 166.616 182.836C165.671 182.206 164.836 181.885 164.827 181.882C164.564 181.782 164.456 181.516 164.587 181.288C164.718 181.061 165.037 180.957 165.301 181.056C165.339 181.071 166.239 181.414 167.278 182.103C167.89 182.509 168.425 182.953 168.868 183.421C169.431 184.015 169.846 184.652 170.105 185.314C170.196 185.548 170.042 185.808 169.762 185.896Z" fill="white"></path><path d="M171.876 185.072C171.655 185.141 171.422 185.102 171.26 184.987C171.179 184.93 171.116 184.853 171.08 184.761C170.487 183.242 169.158 182.121 168.149 181.447C167.031 180.701 166.041 180.321 166.031 180.318C165.718 180.199 165.591 179.885 165.745 179.614C165.901 179.345 166.279 179.222 166.591 179.339C166.636 179.356 167.703 179.763 168.933 180.579C169.657 181.06 170.291 181.585 170.817 182.141C171.482 182.844 171.975 183.599 172.281 184.383C172.389 184.661 172.208 184.968 171.876 185.072Z" fill="white"></path><path d="M173.576 184.167C173.477 184.097 173.399 184.003 173.355 183.891C171.943 180.28 167.209 178.459 167.162 178.441C166.778 178.297 166.621 177.911 166.811 177.579C167.001 177.248 167.466 177.096 167.849 177.242C167.904 177.263 169.213 177.761 170.722 178.762C171.611 179.352 172.388 179.996 173.033 180.678C173.849 181.542 174.454 182.467 174.829 183.429C174.962 183.767 174.738 184.145 174.331 184.272C174.059 184.357 173.775 184.308 173.576 184.167Z" fill="white"></path><path d="M129.469 177.394C126.236 180.582 120.672 181.071 117.042 178.487C113.412 175.902 113.089 171.222 116.323 168.035C119.556 164.847 125.12 164.359 128.75 166.943C132.381 169.527 132.702 174.207 129.469 177.394Z" fill="#D47172" stroke="black" stroke-width="0.5" stroke-miterlimit="10"></path><path d="M126.184 169.472C124.146 168.021 121.011 168.295 119.198 170.082C117.384 171.87 117.568 174.506 119.607 175.958C121.646 177.409 124.779 177.136 126.593 175.347C128.406 173.56 128.223 170.924 126.184 169.472ZM127.065 172.735C127.021 173.495 126.689 174.257 126.061 174.897C125.946 174.772 125.45 174.251 124.74 173.745C124.51 173.583 124.259 173.42 123.991 173.274C124.015 173.216 124.038 173.158 124.061 173.099C124.13 172.925 124.193 172.748 124.251 172.571C125.746 172.955 126.829 172.782 127.065 172.735ZM125.669 169.98C126.457 170.542 126.916 171.311 127.037 172.126C126.845 172.168 125.846 172.35 124.438 171.949C124.744 170.819 124.868 169.79 124.893 169.549C125.167 169.665 125.427 169.807 125.669 169.98ZM124.058 169.291C124.033 169.498 123.903 170.534 123.616 171.667C121.959 171.02 120.746 170.191 120.458 169.986L120.428 169.964C121.483 169.276 122.831 169.038 124.058 169.291ZM119.767 170.495C119.79 170.472 119.813 170.45 119.837 170.428C119.855 170.442 119.883 170.461 119.919 170.487C120.306 170.763 121.68 171.693 123.434 172.319C123.372 172.523 123.303 172.728 123.229 172.927C123.185 172.911 123.141 172.895 123.097 172.88C121.087 172.211 119.04 172.772 118.714 172.87C118.714 172.038 119.061 171.191 119.767 170.495ZM120.113 175.459C119.396 174.949 118.952 174.264 118.786 173.532C119.031 173.442 120.717 172.879 122.959 173.574C122.961 173.574 122.961 173.575 122.963 173.576C122.398 174.862 121.744 175.814 121.535 176.105C121.025 175.978 120.541 175.763 120.113 175.459ZM122.371 176.235C122.544 175.994 123.158 175.103 123.724 173.886C123.972 174.01 124.195 174.151 124.395 174.291C125.048 174.757 125.431 175.245 125.517 175.362C124.618 176.009 123.475 176.309 122.371 176.235Z" fill="white"></path><path d="M143.699 163.363C140.462 166.554 134.896 167.045 131.266 164.461C127.636 161.876 127.317 157.194 130.553 154.003C133.79 150.812 139.356 150.32 142.986 152.905C146.617 155.49 146.936 160.172 143.699 163.363Z" fill="#A8DCA4" stroke="black" stroke-width="0.5" stroke-miterlimit="10"></path><path d="M162.082 200.326C158.755 203.607 153.116 204.171 149.485 201.587C145.855 199.002 145.61 194.247 148.937 190.967C152.264 187.687 157.904 187.123 161.534 189.707C165.163 192.292 165.408 197.046 162.082 200.326Z" fill="#5F76E8" stroke="black" stroke-width="0.5" stroke-miterlimit="10"></path><path d="M159.652 174.723C156.416 177.914 150.849 178.406 147.219 175.821C143.589 173.237 143.27 168.554 146.506 165.364C149.743 162.173 155.309 161.682 158.939 164.266C162.57 166.85 162.889 171.532 159.652 174.723Z" fill="#D47172" stroke="black" stroke-width="0.5" stroke-miterlimit="10"></path><path d="M158.931 170.93C159.878 169.989 159.827 168.909 158.778 168.147C157.328 167.092 155.866 166.049 154.389 165.022C153.344 164.295 152.063 164.419 151.126 165.316C150.465 165.951 149.821 166.599 149.17 167.241C148.533 167.869 147.891 168.495 147.259 169.127C146.296 170.091 146.339 171.179 147.41 171.957C148.844 173.001 150.29 174.033 151.753 175.049C152.822 175.793 154.121 175.663 155.066 174.74C156.362 173.477 157.65 172.205 158.931 170.93ZM154.355 174.254C153.746 174.842 153.05 174.911 152.371 174.435C150.915 173.412 149.468 172.382 148.028 171.343C147.354 170.857 147.318 170.269 147.913 169.675C149.209 168.387 150.51 167.104 151.819 165.825C152.418 165.239 153.134 165.168 153.806 165.639C155.262 166.661 156.71 167.692 158.149 168.731C158.815 169.212 158.846 169.813 158.258 170.405C157.615 171.052 156.959 171.689 156.307 172.331C155.659 172.972 155.014 173.618 154.355 174.254Z" fill="white"></path><path d="M154.919 168.238C153.805 167.441 152.081 167.586 151.071 168.564C150.049 169.553 150.111 170.983 151.214 171.802C152.344 172.64 154.071 172.513 155.103 171.515C156.136 170.516 156.055 169.05 154.919 168.238ZM151.852 171.22C151.136 170.688 151.073 169.72 151.711 169.078C152.369 168.416 153.532 168.315 154.289 168.854C155.044 169.391 155.114 170.37 154.443 171.021C153.777 171.668 152.579 171.76 151.852 171.22Z" fill="white"></path><path d="M157.622 170.087C157.345 170.324 157.026 170.325 156.756 170.112C156.459 169.878 156.471 169.598 156.766 169.345C157.042 169.108 157.347 169.125 157.648 169.314C157.895 169.566 157.919 169.834 157.622 170.087Z" fill="white"></path><path d="M145.43 188.748C142.193 191.94 136.627 192.431 132.997 189.847C129.367 187.262 129.048 182.58 132.283 179.389C135.52 176.197 141.086 175.706 144.716 178.29C148.346 180.876 148.665 185.557 145.43 188.748Z" fill="#D89CC7" stroke="black" stroke-width="0.5" stroke-miterlimit="10"></path><path d="M142.948 185.834C142.876 185.792 142.805 185.747 142.737 185.699C141.996 185.171 141.638 184.351 141.785 183.517L138.771 186.49C137.54 187.703 135.422 187.89 134.042 186.907C132.662 185.924 132.54 184.144 133.772 182.93C135.002 181.717 137.119 181.53 138.5 182.513C138.552 182.55 138.598 182.59 138.647 182.629L137.549 183.712C137.504 183.67 137.461 183.626 137.408 183.589C136.704 183.087 135.623 183.183 134.995 183.801C134.367 184.421 134.429 185.33 135.134 185.831C135.838 186.333 136.956 186.288 137.584 185.668L142.717 180.628L143.895 181.467C143.064 182.475 143.18 183.807 144.171 184.63L142.951 185.834" fill="white"></path><path d="M147.246 215.353C144.009 218.544 138.443 219.035 134.813 216.451C131.183 213.867 130.864 209.184 134.1 205.993C137.337 202.802 142.903 202.311 146.533 204.895C150.164 207.48 150.483 212.162 147.246 215.353Z" fill="#D89CC7" stroke="black" stroke-width="0.5" stroke-miterlimit="10"></path><path d="M100.57 206.285C97.3371 209.473 91.7735 209.961 88.1434 207.377C84.5134 204.793 84.191 200.113 87.4244 196.926C90.6569 193.738 96.2214 193.249 99.8506 195.834C103.481 198.418 103.803 203.097 100.57 206.285Z" fill="#A8DCA4" stroke="black" stroke-width="0.5" stroke-miterlimit="10"></path><path d="M114.801 192.253C111.565 195.445 105.998 195.936 102.368 193.351C98.7377 190.767 98.4187 186.085 101.655 182.893C104.89 179.702 110.457 179.211 114.088 181.795C117.718 184.38 118.037 189.062 114.801 192.253Z" fill="#5F76E8" stroke="black" stroke-width="0.5" stroke-miterlimit="10"></path><path d="M109.692 185.858C109.305 186.215 108.937 186.594 108.534 186.993L110.167 188.156C109.617 188.578 109.114 188.973 108.595 189.35C108.545 189.39 108.368 189.354 108.294 189.309C107.891 189.038 107.503 188.753 107.075 188.448L102.22 193.235C101.626 192.798 101.133 192.303 100.727 191.765L105.333 187.222L103.904 186.205L105.369 184.761L106.768 185.757C106.884 185.651 106.982 185.57 107.067 185.488C107.463 185.114 107.834 184.723 108.255 184.375C109.183 183.612 110.352 183.44 111.397 183.99C112.045 184.331 112.591 184.817 113.198 185.249L111.866 186.561C111.651 186.409 111.437 186.248 111.218 186.1C111.025 185.971 110.834 185.819 110.611 185.728C110.295 185.594 109.951 185.62 109.692 185.858Z" fill="white"></path><path d="M133.184 229.217C129.857 232.498 124.217 233.061 120.587 230.476C116.957 227.892 116.711 223.137 120.038 219.857C123.365 216.576 129.005 216.013 132.635 218.597C136.265 221.182 136.511 225.936 133.184 229.217Z" fill="#5F76E8" stroke="black" stroke-width="0.5" stroke-miterlimit="10"></path><path d="M120.195 224.769C121.055 225.406 122.034 225.774 123.232 225.795C122.525 224.829 122.408 224.281 122.776 223.676C123.006 223.823 123.235 223.969 123.463 224.115C122.962 223.296 122.984 222.504 123.702 221.694C123.882 221.92 124.048 222.128 124.214 222.338C124.323 221.026 124.814 220.298 125.829 220.017C125.787 221.615 126.383 222.964 127.71 224.06C127.806 223.956 127.876 223.876 127.948 223.799C128.591 223.117 129.404 222.836 130.351 223.009C131.296 223.182 131.848 223.71 131.993 224.524C132.025 224.706 132.104 224.805 132.295 224.859C132.649 224.957 133.002 225.06 133.39 225.17C132.946 225.402 132.479 225.476 131.988 225.458C131.979 225.476 131.971 225.495 131.962 225.514C132.297 225.644 132.631 225.774 132.966 225.904C132.967 225.922 132.968 225.939 132.968 225.957C132.565 225.998 132.162 226.055 131.758 226.076C131.546 226.087 131.401 226.127 131.25 226.277C128.985 228.523 125.223 229.055 122.559 227.502C121.483 226.875 120.701 226.039 120.265 224.973C120.24 224.907 120.219 224.838 120.195 224.769Z" fill="white"></path><path d="M130.762 203.614C127.525 206.805 121.959 207.296 118.329 204.712C114.699 202.127 114.38 197.445 117.615 194.254C120.851 191.063 126.418 190.571 130.048 193.156C133.678 195.741 133.998 200.423 130.762 203.614Z" fill="white" stroke="#222221" stroke-width="0.5" stroke-miterlimit="10"></path><path opacity="0.5" d="M101.864 253.502L65.1968 227.798C63.4404 226.566 63.2041 224.154 64.6862 222.592C65.9851 221.222 68.1558 221 69.6953 222.079L106.362 247.783C108.118 249.015 108.355 251.427 106.873 252.989C105.573 254.359 103.403 254.581 101.864 253.502Z" fill="white"></path><path d="M173.864 198.369C173.506 198.123 173.14 197.886 172.775 197.652C169.803 195.748 166.767 193.944 163.673 192.244C161.333 190.959 158.756 188.517 155.837 189.456C153.966 190.058 152.846 192.027 152.485 193.959C151.828 197.489 153.153 201.176 155.365 204.004C157.651 206.924 161.087 208.589 164.046 210.702C164.116 210.752 164.191 210.807 164.222 210.889C164.266 211.005 164.208 211.131 164.152 211.241C163.548 212.407 161.098 216.078 160.335 217.147C159.426 218.421 161.698 217.307 163.424 216.784C164.954 216.321 165.912 216.429 167.441 216.698C169.37 217.036 172.521 216.036 174.145 215.007C175.055 214.431 175.902 213.687 176.349 212.706C177.917 209.264 178.778 203.316 176.068 200.244C175.428 199.519 174.664 198.92 173.864 198.369Z" fill="white"></path><path d="M143.212 214.144C140.982 213.551 138.753 212.957 136.524 212.364C135.617 212.123 134.648 211.882 133.757 212.175C132.776 212.497 132.1 213.406 131.689 214.353C130.246 217.674 131.458 221.688 133.821 224.431C136.184 227.176 139.508 228.886 142.816 230.361C146.236 231.886 150.728 233.658 151.194 235.398C151.559 236.761 153.612 233.949 154.62 232.961C157.699 229.938 163.845 222.519 158.816 218.658C156.186 216.638 151.185 216.265 148.049 215.431C146.435 215.001 144.823 214.573 143.212 214.144Z" fill="white"></path><path d="M132.547 232.315C131.227 232.07 129.897 231.869 128.579 231.672C124.469 231.057 118.349 231.91 118.32 237.41C118.31 239.408 119.485 241.263 121.015 242.548C122.545 243.832 124.41 244.638 126.246 245.427C128.558 246.421 132.11 247.137 133.685 249.191C135.609 251.704 135.794 255.371 139.852 255.598C141.988 255.717 143.984 254.257 145.02 252.386C146.057 250.515 146.285 248.304 146.264 246.164C146.233 243.014 145.684 239.812 144.185 237.042C142.612 234.139 135.525 232.867 132.547 232.315Z" fill="white"></path><path d="M116.586 217.723C113.352 220.911 107.789 221.4 104.159 218.816C100.529 216.231 100.207 211.551 103.44 208.364C106.672 205.177 112.237 204.688 115.866 207.272C119.497 209.857 119.818 214.536 116.586 217.723Z" fill="#D47172" stroke="black" stroke-width="0.5" stroke-miterlimit="10"></path><path d="M113.301 209.801C111.262 208.349 108.128 208.622 106.315 210.411C104.501 212.198 104.685 214.834 106.724 216.286C108.763 217.738 111.897 217.464 113.71 215.676C115.522 213.888 115.339 211.252 113.301 209.801ZM114.181 213.064C114.137 213.823 113.806 214.585 113.177 215.225C113.062 215.1 112.567 214.579 111.856 214.074C111.627 213.911 111.376 213.749 111.107 213.603C111.131 213.545 111.155 213.486 111.177 213.427C111.246 213.253 111.309 213.076 111.367 212.9C112.862 213.284 113.946 213.11 114.181 213.064ZM112.786 210.309C113.574 210.87 114.034 211.64 114.154 212.454C113.962 212.496 112.963 212.679 111.555 212.278C111.861 211.147 111.985 210.119 112.011 209.877C112.283 209.993 112.544 210.137 112.786 210.309ZM111.174 209.619C111.15 209.826 111.02 210.862 110.733 211.995C109.075 211.349 107.862 210.52 107.574 210.315L107.544 210.293C108.599 209.604 109.949 209.367 111.174 209.619ZM106.884 210.824C106.907 210.801 106.93 210.779 106.954 210.757C106.973 210.77 107 210.79 107.036 210.815C107.423 211.091 108.797 212.021 110.551 212.647C110.489 212.852 110.42 213.056 110.346 213.255C110.302 213.239 110.258 213.223 110.214 213.209C108.204 212.54 106.157 213.102 105.831 213.199C105.831 212.366 106.178 211.519 106.884 210.824ZM107.229 215.787C106.513 215.277 106.068 214.593 105.902 213.86C106.147 213.77 107.834 213.207 110.075 213.902C110.077 213.903 110.078 213.903 110.079 213.904C109.514 215.19 108.861 216.143 108.651 216.434C108.142 216.306 107.657 216.092 107.229 215.787ZM109.489 216.564C109.661 216.323 110.275 215.432 110.841 214.214C111.089 214.339 111.313 214.478 111.512 214.62C112.165 215.085 112.548 215.574 112.634 215.69C111.735 216.337 110.592 216.637 109.489 216.564Z" fill="white"></path><path d="M96.3356 180.616C94.8265 181.802 93.3715 183.059 91.9772 184.379C91.5409 184.792 90.9712 185.247 90.4031 185.047C90.0368 184.918 89.8149 184.554 89.6292 184.214C87.9361 181.11 86.6988 177.76 85.9536 174.304C85.3602 171.551 83.96 167.156 86.6828 165.292C89.7212 163.212 93.6298 161.816 96.9779 160.294C100.705 158.599 104.56 157.371 108.347 155.853C111.785 154.474 115.572 155.453 119.208 155.787C122.126 156.054 125.076 156.321 127.976 155.905C131.568 155.39 135.942 154.344 138.103 158.241C139.26 160.328 139.118 162.976 138.106 165.137C137.094 167.299 135.306 169.018 133.32 170.342C128.32 173.679 121.832 174.686 116.057 173.022C114.917 172.694 113.78 172.264 112.594 172.266C110.412 172.27 107.227 173.804 105.231 174.767C102.074 176.292 99.0828 178.455 96.3356 180.616Z" fill="white"></path><path d="M142.965 230.361C145.315 231.529 147.179 232.048 149.743 232.598" stroke="black" stroke-width="0.5" stroke-miterlimit="10"></path><path d="M132.11 213.603C131.596 214.516 132.186 215.845 132.814 216.683C133.442 217.522 134.387 218.063 135.34 218.499C135.355 218.507 135.371 218.514 135.386 218.521C138.03 219.722 141.189 218.291 142.06 215.52C142.184 215.124 142.299 214.726 142.406 214.325" stroke="black" stroke-width="0.5" stroke-miterlimit="10"></path><path d="M131.388 232.889C131.473 234.891 130.196 236.882 128.339 237.64C126.482 238.397 124.177 237.868 122.836 236.377" stroke="black" stroke-width="0.5" stroke-miterlimit="10"></path><path d="M165.204 193.564C164.91 195.043 163.489 196.137 161.992 196.321C160.496 196.505 158.982 195.901 157.804 194.96C156.626 194.02 155.74 192.767 154.941 191.487" stroke="black" stroke-width="0.5" stroke-miterlimit="10"></path><path d="M160.859 208.589C162.659 209.801 164.554 210.87 166.523 211.783" stroke="black" stroke-width="0.5" stroke-miterlimit="10"></path><path d="M137.258 157.041C135.414 157.558 133.542 158.079 131.626 158.086C129.71 158.093 127.713 157.52 126.387 156.139" stroke="black" stroke-width="0.5" stroke-miterlimit="10"></path><path d="M162.2 228.775C162.503 228.761 162.805 228.741 163.104 228.715C165.291 228.531 167.46 228.135 169.571 227.533C173.883 226.303 175.128 220.872 176.082 217.008C177.019 213.213 177.932 209.384 177.828 205.448C177.823 205.262 177.797 205.082 177.781 204.901C177.77 204.767 177.76 204.633 177.746 204.501C177.743 204.484 177.742 204.467 177.739 204.451C177.558 202.843 177.05 201.356 176.071 200.245C175.765 199.898 175.429 199.581 175.076 199.283C171.713 196.447 167.539 194.368 163.676 192.244C161.337 190.959 158.76 188.517 155.841 189.456C153.97 190.058 152.85 192.027 152.489 193.959C151.832 197.489 153.157 201.176 155.369 204.004C156.998 206.085 159.211 207.528 161.419 208.95" stroke="black" stroke-width="0.5" stroke-miterlimit="10" stroke-linecap="round"></path><path d="M161.4 239.078C162.248 233.498 162.704 226.889 160.718 221.494C159.879 219.213 157.894 217.43 155.441 217.078C152.971 216.331 150.109 215.979 148.048 215.43C146.435 215.001 144.823 214.572 143.212 214.143C140.982 213.55 138.753 212.956 136.524 212.363C135.617 212.122 134.648 211.881 133.757 212.174C132.776 212.496 132.1 213.405 131.689 214.352C130.246 217.674 131.458 221.687 133.821 224.431C136.144 227.129 139.394 228.826 142.645 230.284C141.591 232.886 140.537 235.487 139.483 238.089C138.845 239.661 138.196 241.353 138.553 243.012C139.115 245.617 141.907 247.087 144.508 247.667C148.247 248.499 152.226 248.217 155.809 246.865C157.256 246.32 158.682 245.568 159.639 244.354C160.799 242.879 161.119 240.932 161.4 239.078Z" stroke="black" stroke-width="0.5" stroke-miterlimit="10" stroke-linecap="round"></path><path d="M132.554 232.315C129.907 231.825 127.208 231.532 124.543 231.148C123.578 231.009 122.576 230.873 121.647 231.165C120.412 231.554 119.505 232.656 119.034 233.861C117.779 237.073 118.352 240.305 121.023 242.548C122.553 243.832 124.417 244.638 126.253 245.427C128.566 246.421 132.118 247.137 133.692 249.192C135.616 251.704 135.801 255.371 139.859 255.598C141.995 255.717 143.991 254.257 145.028 252.386C146.064 250.515 146.293 248.304 146.272 246.164C146.241 243.014 145.691 239.812 144.192 237.042C142.62 234.139 135.533 232.867 132.554 232.315Z" fill="white"></path><path d="M145.029 252.386C146.065 250.515 146.294 248.303 146.273 246.164C146.242 243.014 145.692 239.812 144.193 237.042C142.622 234.139 135.535 232.866 132.555 232.314C129.62 231.77 126.62 231.239 123.645 230.973C123.069 230.921 122.48 230.883 121.918 231.021C120.972 231.253 120.203 231.968 119.693 232.797C118.891 234.102 118.337 235.872 118.328 237.409C118.318 239.407 119.493 241.262 121.023 242.546C122.553 243.831 124.418 244.637 126.253 245.426" stroke="black" stroke-width="0.5" stroke-miterlimit="10" stroke-linecap="round"></path><path d="M143.836 254.389C142.826 255.602 142.229 256.012 140.894 256.853C132.766 261.978 123.871 265.779 115.261 270.128C106.047 274.782 95.1252 276.57 85.3424 279.771C75.9858 282.832 68.5696 288.838 61.1922 295.422C45.1334 309.754 32.0396 326.969 17.9296 343.127C10.2214 351.954 1.76532 360.777 -9.21259 364.879C-24.1134 370.446 -42.3033 365.533 -52.3748 353.22C-62.4462 340.906 -63.6548 322.104 -55.2427 308.603C-50.2825 300.643 -42.6299 294.804 -35.147 289.148C-31.0283 289.148 -20.4749 278.059 -16.996 275.429C-10.5892 270.587 -4.1832 265.745 2.22276 260.903C14.4684 251.648 27.0701 242.848 38.313 232.388C43.7214 227.356 49.242 223.525 51.9301 216.246C53.262 212.64 53.8173 208.785 55.1281 205.17C56.6354 201.013 59.0991 197.283 61.5408 193.597C63.5554 190.555 65.57 187.514 67.5847 184.472C70.9674 179.364 74.4422 174.156 79.3087 170.434" stroke="black" stroke-width="0.5" stroke-miterlimit="10" stroke-linecap="round"></path><path d="M85.9883 166.106C86.5251 165.798 87.0627 165.494 87.602 165.193C87.6813 165.129 87.7531 165.061 87.8417 165.002C89.5331 163.866 91.5047 162.949 93.4923 162.099C95.6707 161.031 97.8887 160.03 100.177 159.118C101.135 158.737 102.136 158.369 103.149 158.161C105.11 157.448 107.08 156.763 109.03 156.001C112.394 154.688 116.111 155.651 119.677 155.99C122.538 156.262 125.431 156.534 128.272 156.147C131.79 155.668 136.072 154.68 138.209 158.451C139.354 160.469 139.227 163.022 138.246 165.103C136.428 168.958 132.073 171.735 128.155 173.016C124.739 174.133 121.198 173.785 117.614 173.529C114.832 173.329 112.356 172.082 109.591 172.445" stroke="black" stroke-width="0.5" stroke-miterlimit="10" stroke-linecap="round"></path><path d="M126.082 245.266C128.947 246.677 132.071 248.127 135.21 247.534" stroke="black" stroke-width="0.5" stroke-miterlimit="10"></path><path d="M129.636 231.78C129.4 232.686 129.13 233.583 128.827 234.468C128.638 235.02 128.431 235.578 128.057 236.031C127.428 236.794 126.397 237.166 125.376 237.249C123.129 237.434 120.956 236.397 118.926 235.39" stroke="black" stroke-width="0.5" stroke-miterlimit="10"></path><path d="M113.677 170.913C111.083 171.993 108.489 173.074 105.895 174.154" stroke="black" stroke-width="0.5" stroke-miterlimit="10" stroke-linecap="round"></path><path d="M77.6859 279.908C75.8401 280.977 73.9943 282.045 72.1484 283.115" stroke="#222221" stroke-width="0.5" stroke-miterlimit="10"></path><path d="M68.3472 285.433C63.4849 288.844 58.9054 292.66 54.6719 296.826" stroke="#222221" stroke-width="0.5" stroke-miterlimit="10"></path><path d="M71.5601 281.069C70.0957 281.643 68.7175 282.434 67.4844 283.41" stroke="#222221" stroke-width="0.5" stroke-miterlimit="10"></path><path d="M39.2099 237.064C36.8779 238.91 34.5468 240.756 32.2148 242.602" stroke="#222221" stroke-width="0.5" stroke-miterlimit="10"></path><path d="M157.789 221.081C159.27 222.567 159.962 224.8 159.578 226.862" stroke="#222221" stroke-width="0.5" stroke-miterlimit="10"></path><path d="M84.0516 167.342C83.2844 167.843 82.5172 168.344 81.75 168.845" stroke="#222221" stroke-width="0.5" stroke-miterlimit="10"></path><path d="M82.7725 171.323C80.6009 172.512 78.5913 173.997 76.8164 175.722" stroke="#222221" stroke-width="0.5" stroke-miterlimit="10"></path><path d="M74.9131 177.608C74.4759 178.095 74.0388 178.58 73.6016 179.066" stroke="#222221" stroke-width="0.5" stroke-miterlimit="10"></path><path d="M126.48 157.532C127.323 158.089 128.28 158.473 129.274 158.652" stroke="#222221" stroke-width="0.5" stroke-miterlimit="10"></path><path d="M176.05 202.526C175.295 202.83 174.595 203.272 173.996 203.823" stroke="black" stroke-width="0.5" stroke-miterlimit="10" stroke-linecap="round"></path><path d="M176.046 203.826C175.599 203.957 175.191 204.219 174.887 204.571" stroke="black" stroke-width="0.5" stroke-miterlimit="10" stroke-linecap="round"></path><path d="M159.582 228.612C159.582 229.147 159.582 229.681 159.582 230.215" stroke="black" stroke-width="0.5" stroke-miterlimit="10" stroke-linecap="round"></path><path d="M65.4577 284.592C65.0694 284.884 64.6812 285.176 64.293 285.468" stroke="black" stroke-width="0.5" stroke-miterlimit="10" stroke-linecap="round"></path><path d="M109.742 256.592C111.005 255.231 112.268 253.871 113.531 252.511" stroke="black" stroke-width="0.5" stroke-miterlimit="10" stroke-linecap="round"></path><path d="M56.3672 229.541C58.6291 231.155 60.8902 232.768 63.1521 234.381" stroke="black" stroke-width="0.5" stroke-miterlimit="10" stroke-linecap="round"></path><path d="M64.4062 235.295C64.8502 235.773 65.3768 236.175 65.9558 236.477" stroke="black" stroke-width="0.5" stroke-miterlimit="10" stroke-linecap="round"></path><path d="M61.1328 234.522C61.6789 234.923 62.2258 235.323 62.7727 235.724" stroke="black" stroke-width="0.5" stroke-miterlimit="10" stroke-linecap="round"></path><path d="M196.566 162.05C197.33 162.704 198.146 163.45 198.279 164.447C198.416 165.473 197.787 166.428 197.187 167.272" stroke="black" stroke-width="0.5" stroke-miterlimit="10" stroke-linecap="round"></path></g></svg>