<svg xmlns="http://www.w3.org/2000/svg" width="500" height="450" viewBox="0 0 500 450" fill="none"><rect width="500" height="450" rx="24" fill="white"></rect><path d="M243.672 112.142V206.131" stroke="#375E7D" stroke-width="2" stroke-miterlimit="10" stroke-linecap="round" stroke-linejoin="round"></path><circle cx="398.202" cy="158.996" r="1.1047" fill="#375E7D"></circle><path d="M394.852 158.996H336.61C327.999 158.996 320.953 166.042 320.953 174.653V237.376" stroke="#375E7D" stroke-width="2" stroke-linecap="round" stroke-linejoin="round"></path><circle cx="320.956" cy="239.05" r="1.1047" fill="#375E7D"></circle><circle cx="373.831" cy="94.0066" r="1.1047" fill="#375E7D"></circle><path d="M370.518 94.0068H312.24C303.629 94.0068 296.582 101.053 296.582 109.664V207.187" stroke="#375E7D" stroke-width="2" stroke-linecap="round" stroke-linejoin="round"></path><circle cx="296.585" cy="208.842" r="1.1047" fill="#375E7D"></circle><circle cx="145.511" cy="93.7273" r="1.1047" fill="#375E7D"></circle><path d="M148.801 93.7275H186.271C194.882 93.7275 201.928 100.773 201.928 109.385V206.918" stroke="#375E7D" stroke-width="2" stroke-linecap="round" stroke-linejoin="round"></path><circle cx="201.929" cy="208.563" r="1.1047" fill="#375E7D"></circle><circle cx="98.5617" cy="165.624" r="1.1047" fill="#375E7D"></circle><path d="M101.891 165.624H164.726C173.337 165.624 180.383 172.67 180.383 181.281V278.793" stroke="#375E7D" stroke-width="2" stroke-linecap="round" stroke-linejoin="round"></path><circle cx="180.386" cy="280.459" r="1.1047" fill="#375E7D"></circle><path d="M116.569 166.383C116.569 187.527 99.4276 204.668 78.2847 204.668C57.1406 204.668 40 187.526 40 166.383C40 145.238 57.1406 128.098 78.2847 128.098C99.4287 128.098 116.569 145.238 116.569 166.383Z" fill="#375E7D"></path><path d="M165.055 95.276C165.055 116.42 147.914 133.561 126.77 133.561C105.625 133.561 88.4844 116.419 88.4844 95.276C88.4844 74.1308 105.626 56.9902 126.77 56.9902C147.914 56.9902 165.055 74.1308 165.055 95.276Z" fill="#375E7D"></path><path d="M283.676 77.2858C283.676 98.4298 266.535 115.57 245.39 115.57C224.246 115.57 207.105 98.4287 207.105 77.2858C207.105 56.1406 224.246 39 245.39 39C266.534 39.0011 283.676 56.1417 283.676 77.2858Z" fill="#375E7D"></path><path d="M380.88 132.266C401.316 126.839 413.482 105.872 408.055 85.4366C402.627 65.0009 381.66 52.8345 361.225 58.2622C340.789 63.6898 328.623 84.6563 334.05 105.092C339.478 125.528 360.444 137.694 380.88 132.266Z" fill="#375E7D"></path><path d="M459.999 160.281C459.999 181.425 442.858 198.566 421.714 198.566C400.569 198.566 383.43 181.424 383.43 160.281C383.43 139.136 400.57 121.995 421.714 121.995C442.858 121.995 459.999 139.137 459.999 160.281Z" fill="#375E7D"></path><path d="M126.769 66.0938C126.769 66.0938 110.5 85.3454 110.5 100.155C110.5 110.787 117.784 119.407 126.769 119.407C135.754 119.407 143.037 110.788 143.037 100.155C143.037 83.864 126.769 66.0938 126.769 66.0938ZM126.693 117.628C118.823 117.628 112.442 110.079 112.442 100.765C112.442 87.7924 114.777 88.3989 114.777 98.1689C114.777 107.483 121.157 115.033 129.027 115.033C132.219 115.034 131.038 117.628 126.693 117.628Z" fill="white"></path><path d="M421.716 134.032L399.496 151.478H443.937L421.716 134.032Z" fill="white"></path><path d="M407.125 137.014H414.171V141.375L407.125 145.736V137.014Z" fill="white"></path><path d="M403.016 151.478V181.287H415.888V161.233H427.541V181.287H440.412V151.478H403.016Z" fill="white"></path><path d="M381.614 108.048H353.381C352.404 108.048 351.609 107.178 351.609 106.107V83.4454C351.609 82.3749 352.404 81.5044 353.381 81.5044H381.614C382.591 81.5044 383.386 82.376 383.386 83.4454V106.107C383.386 107.178 382.591 108.048 381.614 108.048ZM353.381 82.3307C352.859 82.3307 352.436 82.83 352.436 83.4454V106.107C352.436 106.723 352.859 107.222 353.381 107.222H381.614C382.136 107.222 382.56 106.723 382.56 106.107V83.4454C382.56 82.83 382.136 82.3307 381.614 82.3307H353.381Z" fill="white"></path><path d="M390.741 85.9137C390.741 86.8792 389.959 87.6613 388.994 87.6613C388.028 87.6613 387.246 86.8781 387.246 85.9137C387.246 84.9481 388.028 84.166 388.994 84.166C389.959 84.166 390.741 84.9481 390.741 85.9137Z" fill="white"></path><path d="M391.967 78.2466H350.13C349.019 78.2466 348.117 79.148 348.117 80.2594V110.127C348.117 111.24 349.019 112.141 350.13 112.141H391.967C393.08 112.141 393.981 111.24 393.981 110.127V80.2594C393.981 79.148 393.08 78.2466 391.967 78.2466ZM388.992 82.9405C390.634 82.9405 391.964 84.2716 391.964 85.9121C391.964 87.5537 390.633 88.8849 388.992 88.8849C387.351 88.8849 386.02 87.5548 386.02 85.9121C386.021 84.2716 387.351 82.9405 388.992 82.9405ZM390.68 95.1939C390.093 95.1939 389.617 94.7177 389.617 94.1311C389.617 93.5445 390.093 93.0684 390.68 93.0684C391.267 93.0684 391.743 93.5445 391.743 94.1311C391.743 94.7177 391.268 95.1939 390.68 95.1939ZM391.743 96.7217C391.743 97.3083 391.267 97.7844 390.68 97.7844C390.093 97.7844 389.617 97.3083 389.617 96.7217C389.617 96.134 390.093 95.6589 390.68 95.6589C391.268 95.6589 391.743 96.1351 391.743 96.7217ZM387.588 95.1939C387.001 95.1939 386.526 94.7177 386.526 94.1311C386.526 93.5445 387.002 93.0684 387.588 93.0684C388.175 93.0684 388.651 93.5445 388.651 94.1311C388.65 94.7177 388.175 95.1939 387.588 95.1939ZM388.65 96.7217C388.65 97.3083 388.174 97.7844 387.587 97.7844C386.999 97.7844 386.524 97.3083 386.524 96.7217C386.524 96.134 387.001 95.6589 387.587 95.6589C388.175 95.6589 388.65 96.1351 388.65 96.7217ZM384.58 107.285C384.58 108.216 383.907 108.972 383.08 108.972H351.911C351.082 108.972 350.412 108.216 350.412 107.285V82.2677C350.412 81.3364 351.082 80.5808 351.911 80.5808H383.08C383.909 80.5808 384.58 81.3364 384.58 82.2677V107.285ZM391.804 106.451H386.453C386.214 106.451 386.02 106.257 386.02 106.018C386.02 105.779 386.213 105.585 386.453 105.585H391.804C392.041 105.585 392.236 105.778 392.236 106.018C392.235 106.256 392.041 106.451 391.804 106.451ZM391.804 104.883H386.453C386.214 104.883 386.02 104.69 386.02 104.45C386.02 104.212 386.213 104.018 386.453 104.018H391.804C392.041 104.018 392.236 104.212 392.236 104.45C392.235 104.689 392.041 104.883 391.804 104.883ZM391.804 103.316H386.453C386.214 103.316 386.02 103.122 386.02 102.884C386.02 102.645 386.213 102.451 386.453 102.451H391.804C392.041 102.451 392.236 102.644 392.236 102.884C392.235 103.121 392.041 103.316 391.804 103.316ZM391.804 101.748H386.453C386.214 101.748 386.02 101.555 386.02 101.315C386.02 101.076 386.213 100.883 386.453 100.883H391.804C392.041 100.883 392.236 101.076 392.236 101.315C392.235 101.555 392.041 101.748 391.804 101.748Z" fill="white"></path><path d="M390.238 112.142H383.691V113.349H390.238V112.142Z" fill="white"></path><path d="M358.272 112.142H351.727V113.349H358.272V112.142Z" fill="white"></path><path d="M365.831 77.4823H372.511C371.962 76.5179 371.009 75.8153 369.881 75.6043L370.519 67.636C370.827 67.5256 371.048 67.235 371.048 66.8893C371.048 66.4496 370.692 66.0928 370.253 66.0928C369.813 66.0928 369.457 66.4485 369.457 66.8893C369.457 67.1886 369.626 67.4482 369.872 67.583L369.236 75.538C369.213 75.538 369.193 75.5358 369.17 75.5358C368.371 75.5358 367.629 75.781 367.015 76.1986L360.99 67.3345C361.076 67.2074 361.126 67.0539 361.126 66.8893C361.126 66.4496 360.77 66.0928 360.331 66.0928C359.892 66.0928 359.535 66.4485 359.535 66.8893C359.535 67.3278 359.892 67.6847 360.331 67.6847C360.384 67.6847 360.436 67.6791 360.486 67.6692L366.543 76.5808C366.264 76.8438 366.022 77.1465 365.831 77.4823Z" fill="white"></path><path d="M255.664 84.0036V69.8545H247.04V84.0036C243.989 85.5722 241.898 88.7427 241.898 92.4093C241.898 97.6301 246.131 101.862 251.351 101.862C256.572 101.862 260.804 97.6301 260.804 92.4093C260.805 88.7427 258.715 85.5711 255.664 84.0036ZM256.984 86.382C259.858 88.0368 260.846 91.7067 259.191 94.58C257.538 97.4544 254.11 84.7271 256.984 86.382Z" fill="white"></path><path d="M231.431 52.9946H230.457V98.0478H231.431V97.5606H235.572V96.5863H231.431V93.2589H235.572V92.2846H231.431V89.3626H235.572V88.3883H231.431V85.4663H235.572V84.4909H231.431V81.57H235.572V80.5957H231.431V77.6726H235.572V76.6983H231.431V73.7752H235.572V72.802H231.431V69.88H235.572V68.9057H231.431V65.9826H235.572V65.0083H231.431V62.0864H235.572V61.112H231.431V58.1901H235.572V57.2157H231.431V54.2938H235.572V53.3194H231.431V52.9946Z" fill="white"></path><path d="M257.937 82.2559V56.5892C257.937 53.01 254.991 50.1079 251.356 50.1079C247.722 50.1079 244.775 53.01 244.775 56.5892V82.2559C241.452 84.4145 239.25 88.1517 239.25 92.4082C239.25 99.0938 244.67 104.516 251.356 104.516C258.043 104.516 263.463 99.0949 263.463 92.4082C263.463 88.1517 261.26 84.4145 257.937 82.2559ZM251.356 102.858C245.585 102.858 240.908 98.1791 240.908 92.4082C240.908 89.1338 242.417 86.2141 244.775 84.2985C245.317 83.9395 246.146 83.1938 246.146 81.2031V58.3457C246.146 54.941 248.479 52.1814 251.356 52.1814C254.233 52.1814 256.566 54.941 256.566 58.3457V81.7566C256.621 83.4148 257.368 83.9958 257.937 84.2985C260.296 86.2141 261.804 89.1338 261.804 92.4082C261.804 98.1791 257.126 102.858 251.356 102.858Z" fill="white"></path><path d="M87.7818 181.095C87.7818 181.731 87.2825 182.246 86.6683 182.246H70.1342C69.5189 182.246 69.0195 181.73 69.0195 181.095C69.0195 180.46 69.5189 179.945 70.1342 179.945H86.6683C87.2836 179.945 87.7818 180.46 87.7818 181.095Z" fill="white"></path><path d="M87.7818 188.351C87.7818 188.987 87.2825 189.502 86.6683 189.502H70.1342C69.5189 189.502 69.0195 188.987 69.0195 188.351C69.0195 187.716 69.5189 187.202 70.1342 187.202H86.6683C87.2836 187.202 87.7818 187.717 87.7818 188.351Z" fill="white"></path><path d="M86.808 182.953H69.9922V186.582H86.808V182.953Z" fill="white"></path><path d="M86.808 190.389C86.808 192.735 83.0443 194.636 78.4001 194.636C73.7559 194.636 69.9922 192.735 69.9922 190.389H86.808Z" fill="white"></path><path d="M76.9375 193.973C76.9375 193.165 77.5915 192.512 78.3979 192.512C79.2044 192.512 79.8583 193.165 79.8583 193.973C79.8583 194.779 79.2044 195.433 78.3979 195.433C77.5915 195.433 76.9375 194.779 76.9375 193.973Z" fill="white"></path><path d="M84.8837 157.247C84.2253 157.606 83.4166 157.795 82.703 157.716C82.4246 157.686 82.1208 157.569 81.8281 157.397C81.7408 157.493 81.6491 157.576 81.5563 157.641C80.9664 158.052 80.1081 158.251 79.2342 158.251C78.2753 158.251 77.2988 158.011 76.6338 157.542C76.1156 157.888 75.4639 158.087 74.7646 158.096C73.9659 158.107 73.2257 157.856 72.6933 157.408C72.3585 157.622 71.973 157.774 71.5598 157.851C71.3643 157.886 71.1688 157.902 70.9766 157.904C73.0136 160.913 75.4153 166.965 75.4153 178.794H81.7541C81.7541 166.685 84.2684 160.631 86.3342 157.697C85.7829 157.672 85.2737 157.512 84.8837 157.247Z" fill="white"></path><path d="M96.1875 156.309C96.1875 146.635 88.2226 138.792 78.3984 138.792C68.5743 138.792 60.6094 146.635 60.6094 156.309C60.6094 162.954 64.5675 167.089 67.3116 171.043C70.0546 174.997 69.9022 178.794 69.9022 178.794H74.3497C74.3497 159.493 67.7955 156.12 67.7292 156.087L68.1777 155.123C68.2672 155.164 68.9731 155.515 69.911 156.543C70.2976 156.804 70.8334 156.905 71.3637 156.807C71.6167 156.761 71.8509 156.673 72.0563 156.553C71.8796 156.142 71.7558 155.6 71.8641 155.149C71.9436 154.813 72.1403 154.56 72.4286 154.416C73.0936 154.088 73.4692 154.394 73.6007 154.542C74.1078 155.11 73.7255 156.283 73.5355 156.579C73.5156 156.61 73.4936 156.641 73.4726 156.673C73.804 156.911 74.2503 157.043 74.7496 157.037C75.1738 157.031 75.577 156.925 75.9029 156.744C75.7317 156.456 75.6124 156.13 75.6091 155.809C75.6035 155.429 75.7527 155.098 76.041 154.851C76.706 154.279 77.1788 154.621 77.307 154.738C77.8074 155.194 77.7047 156.231 77.3943 156.771C78.3476 157.324 80.1163 157.348 80.9481 156.769C80.9658 156.757 80.9834 156.743 81.0011 156.725C80.7349 156.434 80.5327 156.109 80.451 155.801C80.3206 155.307 80.4709 154.859 80.8652 154.572C81.4419 154.152 81.8484 154.226 82.0871 154.363C82.4638 154.579 82.635 155.073 82.5687 155.753C82.5455 155.991 82.477 156.246 82.3787 156.492C82.5433 156.586 82.6991 156.648 82.8173 156.66C83.2746 156.712 83.7728 156.596 84.1904 156.404C83.9717 155.854 84.0733 155.285 84.2655 154.911C84.4832 154.486 84.8422 154.236 85.22 154.256C85.4354 154.264 85.8342 154.366 86.0828 154.956C86.286 155.44 86.201 155.971 85.8441 156.447C85.8243 156.472 85.8066 156.498 85.7867 156.521C85.9712 156.589 86.1822 156.63 86.4031 156.637C86.845 156.651 87.2405 156.528 87.4625 156.315C88.2955 155.459 88.9042 155.161 88.987 155.122L89.4311 156.087C89.3682 156.117 82.8139 159.49 82.8139 178.792H86.8958C86.8958 178.792 86.8119 175.396 89.4676 170.984C92.1222 166.574 96.1875 162.954 96.1875 156.309Z" fill="white"></path><path d="M63.9688 368.51C63.9688 392.379 147.257 411.729 249.997 411.729C352.738 411.729 436.026 392.379 436.026 368.51V342.85H63.9688V368.51Z" fill="#355018"></path><path d="M436.026 346.049C436.026 369.919 352.738 389.27 249.997 389.27C147.256 389.27 63.9688 369.919 63.9688 346.049C63.9688 322.18 147.257 302.83 249.997 302.83C352.738 302.83 436.026 322.179 436.026 346.049Z" fill="#88AF4A"></path><path d="M205.598 238.798H93.9766V322.481H205.598V238.798Z" fill="#D2C794"></path><path d="M197.491 238.798H143.376C142.776 239.708 142.208 240.631 141.686 241.567C137.2 249.602 134.728 258.627 136.599 267.289C138.482 276.008 144.558 284.07 154.412 289.33C164.512 294.719 176.174 296.583 188.506 296.669C194.497 296.711 200.142 296.073 205.403 294.096V243.976H205.246L197.491 238.798Z" fill="#F4E9CC"></path><path d="M149.302 302.08C136.33 297.339 125.85 289.602 120.017 279.868C114.26 270.263 113.546 259.309 116.15 249.089C117.049 245.553 118.332 242.127 119.929 238.799H93.9766V322.482H205.598V304.392C201.148 305.928 196.364 306.948 191.215 307.231C177.116 308.004 162.052 306.738 149.302 302.08Z" fill="#E6E7E8"></path><path d="M205.84 312.945H93.9766V322.481H205.84V312.945Z" fill="#EFA96F"></path><path d="M122.93 258.761V300.659H183.283V258.761H122.93ZM179.253 297.102H126.963V262.318H179.253V297.102Z" fill="#864B3F"></path><path d="M122.93 258.761V300.659H183.283V258.761H122.93ZM180.753 299.246H125.459V260.861H180.753V299.246Z" fill="#A7A9AC"></path><path d="M179.251 262.318H126.961V297.102H179.251V262.318Z" fill="#00B8C1"></path><path d="M145.793 267.044C146.139 269.63 146.892 272.268 148.352 274.458C151.102 278.59 156.183 280.562 160.939 281.282C165.563 281.983 171.008 281.534 174.745 278.413C174.865 278.314 174.977 278.21 175.096 278.108V264.933H145.656C145.673 265.646 145.7 266.353 145.793 267.044Z" fill="white"></path><path d="M157.762 290.553C150.023 289.504 141.32 286.523 136.448 280.072C133.775 276.534 132.081 272.283 131.338 267.921C131.023 266.075 130.763 264.192 130.686 262.319H126.961V297.103H179.251V286.28C173.108 290.593 165.062 291.543 157.762 290.553Z" fill="#D1D3D4"></path><path d="M145.147 262.318H141.43V297.102H145.147V262.318Z" fill="#864B3F"></path><path d="M145.148 262.318H143.289V297.102H145.148V262.318Z" fill="#A7A9AC"></path><path d="M164.091 262.318H160.375V297.102H164.091V262.318Z" fill="#864B3F"></path><path d="M164.091 262.318H162.234V297.102H164.091V262.318Z" fill="#A7A9AC"></path><path d="M179.254 277.85H126.824V281.567H179.254V277.85Z" fill="#864B3F"></path><path d="M179.254 279.709H126.824V281.568H179.254V279.709Z" fill="#A7A9AC"></path><path d="M202.121 244.531H70.2852L116.609 201.014H247.186L202.121 244.531Z" fill="#662127"></path><path d="M179.94 239.346C165.584 235.59 147.896 227.113 147.31 209.937C147.201 206.78 147.669 203.803 148.59 201.014H116.606L70.2812 244.532H202.117L204.15 242.569C196.038 242.527 187.793 241.399 179.94 239.346Z" fill="#BCBEC0"></path><path d="M399.301 239.055H287.68V322.737H399.301V239.055Z" fill="#D2C794"></path><path d="M295.789 239.055H349.904C350.503 239.965 351.072 240.887 351.593 241.824C356.079 249.858 358.554 258.884 356.68 267.546C354.798 276.263 348.721 284.325 338.864 289.586C328.767 294.976 317.104 296.84 304.77 296.924C298.781 296.966 293.138 296.329 287.875 294.351V244.234H288.032L295.789 239.055Z" fill="#F4E9CC"></path><path d="M343.974 302.335C356.947 297.596 367.429 289.858 373.261 280.125C379.016 270.519 379.733 259.566 377.129 249.346C376.228 245.81 374.947 242.384 373.348 239.056H399.301V322.738H287.68V304.649C292.129 306.185 296.915 307.204 302.063 307.487C316.162 308.263 331.226 306.994 343.974 302.335Z" fill="#E6E7E8"></path><path d="M399.302 313.202H287.438V322.737H399.302V313.202Z" fill="#EFA96F"></path><path d="M309.752 323.044V276.095H382.324V323.044H387.918V271.158H304.156V323.044H309.752Z" fill="#864B3F"></path><path d="M382.322 276.095H309.75V323.044H382.322V276.095Z" fill="#413E36"></path><path d="M382.322 276.095H309.75V294.651H382.322V276.095Z" fill="#864B3F"></path><path d="M307.668 323.044V274.071H384.408V323.044H387.918V271.158H304.156V323.044H307.668Z" fill="#A7A9AC"></path><path d="M382.322 288.783H309.75V290.738H382.322V288.783Z" fill="#D1D3D4"></path><path d="M382.322 285.481H309.75V287.438H382.322V285.481Z" fill="#D1D3D4"></path><path d="M382.322 282.181H309.75V284.136H382.322V282.181Z" fill="#D1D3D4"></path><path d="M382.322 278.881H309.75V280.837H382.322V278.881Z" fill="#D1D3D4"></path><path d="M349.337 292.328H342.738V293.549H349.337V292.328Z" fill="#D1D3D4"></path><path d="M291.164 244.788H423.002L376.675 201.27H246.098L291.164 244.788Z" fill="#662127"></path><path d="M358.19 222.648C348.551 232.905 336.07 239.936 322.887 244.788H423.001L376.674 201.27H371.178C368.3 209.131 363.929 216.541 358.19 222.648Z" fill="#BCBEC0"></path><path d="M300.618 234.452H190.906V347.574H300.618V234.452Z" fill="#F5E7B4"></path><path d="M190.922 234.452H300.431L244.534 183.348L190.922 234.452Z" fill="#F5E7B4"></path><path d="M258.034 208.295C255.006 211.362 252.256 214.689 249.744 218.191C245.152 224.587 240.79 231.316 237.809 238.632C233.401 249.45 230.967 261.604 232.806 273.265C234.659 285.001 240.63 295.857 250.318 302.939C260.243 310.195 271.704 312.706 283.831 312.82C289.716 312.876 295.263 312.017 300.435 309.356V241.873H300.282L260.504 205.504C259.564 206.505 258.727 207.592 258.034 208.295Z" fill="#F4E9CC"></path><path d="M286.487 327.041C272.628 328.085 257.822 326.379 245.293 320.108C232.542 313.727 222.239 303.309 216.508 290.203C210.851 277.27 210.148 262.521 212.705 248.762C215.429 234.135 221.616 220.896 229.831 208.581C234.35 201.806 239.402 195.774 244.774 189.687C245.67 188.672 246.685 187.477 247.807 186.337L244.538 183.349L190.925 234.453H190.914V347.575H300.625V323.219C296.25 325.288 291.548 326.66 286.487 327.041Z" fill="#E6E7E8"></path><path d="M300.618 336.49H190.906V347.575H300.618V336.49Z" fill="#EFA96F"></path><path d="M300.617 233.641L245.61 183.348L191.191 235.22V253.146L245.61 201.274L300.617 251.567V233.641Z" fill="#BCBEC0"></path><path d="M245.611 192.691L309.628 251.221L322.706 245.253L245.611 174.765L171.66 245.253L184.207 251.221L245.611 192.691Z" fill="#864B3F"></path><path d="M178.118 248.095L245.458 183.906L315.663 248.095L322.434 245.005L245.61 174.765L171.82 245.099L178.118 248.095Z" fill="#A7A9AC"></path><path d="M246.545 214.415L216.578 242.979H277.789L246.545 214.415ZM246.819 221.909L264.649 238.211H229.716L246.819 221.909Z" fill="#864B3F"></path><path d="M246.821 221.909L264.651 238.211H229.719L246.821 221.909Z" fill="#00B8C1"></path><path d="M253.213 233.206C255.095 233.22 256.555 232.727 257.731 231.886L248.498 223.445C247.404 225.263 246.371 227.258 246.63 229.226C247.085 232.717 250.299 233.187 253.213 233.206Z" fill="white"></path><path d="M260.01 234.883C257.204 236.853 253.731 237.11 250.412 236.623C246.79 236.093 244.199 234.206 243.197 230.609C242.643 228.623 243.062 226.638 243.85 224.742L229.719 238.211H264.652L260.557 234.468C260.379 234.612 260.2 234.751 260.01 234.883Z" fill="#D1D3D4"></path><path d="M270.685 259.165H220.836V347.573H270.685V259.165ZM225.068 341.668V265.07H266.456V341.668H225.068Z" fill="#864B3F"></path><path d="M270.685 259.165H220.836V347.573H270.685V259.165ZM222.518 343.868V262.871H268.189V343.868H222.518Z" fill="#555859"></path><path d="M266.454 265.07H225.066V341.668H266.454V265.07Z" fill="#562B21"></path><path d="M232.861 310.189C234.112 298.854 237.656 286.105 245.334 278.967C249.544 275.054 254.603 272.573 259.791 271.482C261.986 271.021 264.228 270.642 266.458 270.528V265.072H225.07V341.67H237.946C232.814 332.669 231.683 320.881 232.861 310.189Z" fill="#D1D3D4"></path><path d="M263.555 303.551C263.555 305.631 261.87 307.316 259.792 307.316C257.71 307.316 256.023 305.631 256.023 303.551C256.023 301.471 257.709 299.786 259.792 299.786C261.87 299.786 263.555 301.471 263.555 303.551Z" fill="#FBB040"></path><path d="M380.747 322.912C380.849 323.202 381.606 325.037 384.88 325.037H384.882C385.317 325.037 385.788 325.004 386.275 324.938C386.346 324.928 386.416 324.923 386.487 324.923H413.623C414.611 324.923 415.984 324.416 416.958 323.69C418.251 322.727 418.328 320.99 417.831 319.693C417.258 318.2 415.955 317.116 414.729 317.116C414.394 317.116 414.053 317.196 413.721 317.356C413.627 317.402 413.528 317.469 413.403 317.564C412.845 318.176 412.284 318.6 411.905 318.852C411.783 318.937 411.635 319.028 411.484 319.107C411.475 319.113 411.464 319.118 411.454 319.124C410.677 319.515 409.732 319.203 409.336 318.426C408.936 317.649 409.236 316.695 410.003 316.285C410.016 316.278 410.075 316.244 410.159 316.189C410.314 316.079 410.519 315.887 410.738 315.683C410.881 315.546 411.03 315.404 411.194 315.264C412.46 313.768 412.486 311.876 411.272 309.635C411.272 309.635 409.8 307.116 407.57 307.116C407.084 307.116 406.571 307.235 406.048 307.47C405.587 307.676 405.06 307.651 404.624 307.404C404.186 307.156 403.891 306.717 403.828 306.216C403.761 305.738 403.047 301.477 398.828 301.477C398.796 301.477 398.755 301.476 398.724 301.474C398.716 301.474 398.669 301.472 398.596 301.472C396.934 301.472 393.066 302.034 393.007 307.232C393 307.75 392.746 308.23 392.324 308.526C391.903 308.821 391.368 308.892 390.883 308.716C390.883 308.716 390.168 308.473 389.204 308.473C387.4 308.473 385.977 309.296 384.977 310.918C384.767 311.32 383.889 313.389 386.617 315.455C387.17 315.874 387.391 316.604 387.16 317.261C386.931 317.919 386.309 318.348 385.61 318.327L385.531 318.326C384.253 318.326 381.843 318.661 380.913 319.919C380.407 320.605 380.348 321.578 380.741 322.891C380.741 322.895 380.741 322.9 380.744 322.902L380.745 322.905C380.747 322.91 380.747 322.904 380.747 322.912Z" fill="#6F913C"></path><path d="M417.349 323.115H395.098C395.042 323.115 394.983 323.119 394.925 323.127C394.526 323.181 394.143 323.208 393.781 323.208C391.098 323.208 390.475 321.703 390.394 321.466C390.392 321.459 390.393 321.464 390.392 321.459V321.456C390.39 321.455 390.39 321.451 390.388 321.447C390.068 320.37 390.115 319.573 390.53 319.01C391.294 317.978 393.267 317.704 394.315 317.704H394.382C394.955 317.723 395.463 317.368 395.651 316.83C395.838 316.292 395.658 315.693 395.206 315.35C392.968 313.658 393.687 311.961 393.862 311.629C394.681 310.3 395.844 309.627 397.327 309.627C398.117 309.627 398.702 309.827 398.705 309.827C399.101 309.97 399.541 309.912 399.887 309.67C400.233 309.427 400.442 309.033 400.446 308.608C400.476 305.815 401.85 304.66 403.178 304.191C402.528 302.899 401.265 301.477 398.828 301.477C398.796 301.477 398.755 301.476 398.724 301.474C398.716 301.474 398.669 301.472 398.596 301.472C396.934 301.472 393.066 302.034 393.007 307.232C393 307.75 392.746 308.23 392.324 308.526C391.903 308.821 391.368 308.892 390.883 308.716C390.883 308.716 390.168 308.473 389.204 308.473C387.4 308.473 385.977 309.296 384.977 310.918C384.767 311.32 383.889 313.389 386.617 315.455C387.17 315.874 387.391 316.604 387.16 317.261C386.931 317.919 386.309 318.348 385.61 318.327L385.531 318.326C384.253 318.326 381.843 318.661 380.913 319.919C380.407 320.605 380.348 321.578 380.741 322.891C380.741 322.895 380.741 322.9 380.744 322.902L380.745 322.905C380.746 322.911 380.746 322.904 380.746 322.913C380.848 323.203 381.605 325.038 384.879 325.038H384.881C385.316 325.038 385.787 325.005 386.274 324.939C386.345 324.929 386.415 324.925 386.486 324.925H413.622C414.609 324.925 415.983 324.418 416.957 323.691C417.186 323.52 417.367 323.318 417.523 323.105C417.464 323.108 417.403 323.115 417.349 323.115Z" fill="#BCBEC0"></path><path d="M404.622 307.404C404.622 307.404 404.367 307.751 403.982 308.272C403.898 308.404 403.797 308.535 403.708 308.685C403.612 308.828 403.521 308.982 403.43 309.14C403.329 309.295 403.264 309.47 403.171 309.63C403.114 309.807 403.008 309.968 402.97 310.148L402.884 310.41L402.828 310.674C402.78 310.851 402.774 311.027 402.755 311.202C402.722 311.376 402.752 311.549 402.746 311.714C402.737 311.883 402.767 312.042 402.784 312.195C402.81 312.342 402.8 312.493 402.838 312.615C402.867 312.737 402.885 312.852 402.902 312.947C402.933 313.137 402.947 313.254 402.947 313.254C402.947 313.254 402.862 313.184 402.725 313.041C402.657 312.97 402.572 312.881 402.484 312.774C402.386 312.671 402.319 312.53 402.231 312.379C402.15 312.226 402.048 312.061 402.002 311.861C401.95 311.667 401.865 311.459 401.861 311.232C401.841 311.007 401.816 310.769 401.861 310.53C401.879 310.412 401.882 310.288 401.911 310.171L402.014 309.823C402.08 309.587 402.206 309.382 402.308 309.169C402.44 308.977 402.556 308.777 402.705 308.619C402.846 308.451 402.995 308.303 403.147 308.177C403.292 308.045 403.451 307.947 403.589 307.85C404.165 307.48 404.622 307.404 404.622 307.404Z" fill="#BCBEC0"></path><path d="M409.138 316.686C409.138 316.686 408.708 316.685 408.063 316.684C407.907 316.694 407.743 316.691 407.572 316.707C407.399 316.711 407.222 316.729 407.04 316.75C406.859 316.761 406.68 316.812 406.494 316.83C406.321 316.888 406.128 316.9 405.962 316.974L405.702 317.059L405.456 317.173C405.286 317.237 405.141 317.338 404.991 317.425C404.831 317.501 404.713 317.628 404.577 317.723C404.435 317.814 404.325 317.932 404.213 318.035C404.113 318.144 403.985 318.227 403.908 318.329C403.829 318.426 403.745 318.509 403.681 318.578C403.549 318.717 403.461 318.797 403.461 318.797C403.461 318.797 403.469 318.685 403.502 318.491C403.519 318.394 403.539 318.273 403.572 318.137C403.595 317.996 403.669 317.859 403.739 317.699C403.811 317.541 403.885 317.361 404.015 317.205C404.141 317.047 404.257 316.856 404.437 316.717C404.605 316.567 404.783 316.408 404.995 316.301C405.105 316.244 405.205 316.178 405.318 316.13L405.657 316.008C405.882 315.92 406.124 315.9 406.354 315.857C406.585 315.849 406.815 315.825 407.03 315.853C407.248 315.868 407.453 315.9 407.643 315.949C407.838 315.986 408.009 316.06 408.168 316.113C408.805 316.36 409.138 316.686 409.138 316.686Z" fill="#BCBEC0"></path><path d="M407.967 368.881L387.919 323.045H304.157L292.844 388.115C341.273 385.463 382.387 378.414 407.967 368.881Z" fill="#A7A9AC"></path><path d="M270.983 350.971C271.099 351.306 271.975 353.424 275.752 353.424C276.257 353.424 276.797 353.385 277.361 353.309C277.441 353.298 277.522 353.292 277.602 353.292H308.907C310.05 353.292 311.627 352.708 312.755 351.868C314.248 350.757 314.335 348.753 313.761 347.257C313.101 345.535 311.598 344.286 310.184 344.286C309.793 344.286 309.406 344.378 309.021 344.563C308.913 344.615 308.797 344.69 308.657 344.801C308.01 345.508 307.365 345.997 306.928 346.288C306.786 346.386 306.615 346.492 306.443 346.583C306.43 346.589 306.417 346.597 306.406 346.602C305.509 347.053 304.42 346.694 303.963 345.798C303.503 344.901 303.847 343.8 304.733 343.328C304.746 343.32 304.812 343.281 304.911 343.215C305.09 343.091 305.326 342.868 305.577 342.633C305.745 342.475 305.917 342.313 306.103 342.149C307.564 340.422 307.596 338.241 306.195 335.656C306.195 335.656 304.495 332.749 301.926 332.749C301.363 332.749 300.772 332.887 300.168 333.159C299.64 333.397 299.031 333.368 298.526 333.083C298.023 332.798 297.68 332.291 297.607 331.714C297.532 331.163 296.708 326.247 291.842 326.247C291.803 326.247 291.758 326.246 291.719 326.242C291.712 326.242 291.656 326.24 291.575 326.24C289.658 326.24 285.192 326.888 285.125 332.885C285.119 333.482 284.828 334.037 284.339 334.379C283.855 334.719 283.234 334.802 282.676 334.598C282.674 334.598 281.85 334.319 280.738 334.319C278.656 334.319 277.013 335.266 275.862 337.137C275.62 337.602 274.607 339.989 277.754 342.371C278.39 342.853 278.645 343.697 278.381 344.455C278.115 345.212 277.401 345.708 276.594 345.683L276.501 345.682C275.028 345.682 272.247 346.07 271.175 347.52C270.59 348.312 270.523 349.434 270.975 350.948C270.975 350.954 270.978 350.958 270.978 350.96L270.981 350.965C270.983 350.969 270.981 350.962 270.983 350.971Z" fill="#6F913C"></path><path d="M313.209 351.206H287.541C287.474 351.206 287.405 351.21 287.341 351.22C286.878 351.282 286.437 351.314 286.025 351.314C286.022 351.314 286.022 351.314 286.022 351.314C282.928 351.313 282.204 349.578 282.112 349.303C282.112 349.296 282.112 349.302 282.111 349.296V349.292C282.107 349.29 282.107 349.287 282.106 349.282C281.735 348.04 281.789 347.12 282.27 346.471C283.148 345.281 285.428 344.964 286.637 344.964L286.714 344.965C287.376 344.985 287.96 344.578 288.178 343.958C288.395 343.336 288.188 342.644 287.664 342.249C285.083 340.296 285.913 338.339 286.115 337.957C287.059 336.424 288.402 335.646 290.111 335.646C291.021 335.646 291.699 335.876 291.699 335.876C292.157 336.041 292.663 335.974 293.063 335.696C293.461 335.416 293.701 334.961 293.708 334.472C293.744 331.249 295.328 329.917 296.858 329.377C296.109 327.884 294.651 326.246 291.842 326.246C291.803 326.246 291.758 326.245 291.719 326.241C291.712 326.241 291.656 326.239 291.575 326.239C289.658 326.239 285.192 326.887 285.125 332.884C285.119 333.481 284.828 334.036 284.339 334.378C283.855 334.718 283.234 334.801 282.676 334.597C282.674 334.597 281.85 334.318 280.738 334.318C278.656 334.318 277.013 335.265 275.862 337.136C275.62 337.601 274.607 339.988 277.754 342.37C278.39 342.852 278.645 343.696 278.381 344.454C278.115 345.211 277.401 345.707 276.594 345.682L276.501 345.681C275.028 345.681 272.247 346.069 271.175 347.519C270.59 348.311 270.523 349.433 270.975 350.947C270.975 350.953 270.978 350.957 270.978 350.959L270.981 350.964C270.983 350.97 270.981 350.964 270.983 350.973C271.099 351.307 271.975 353.425 275.752 353.425C276.257 353.425 276.797 353.386 277.361 353.31C277.441 353.299 277.522 353.293 277.602 353.293H308.907C310.05 353.293 311.627 352.709 312.755 351.87C313.02 351.672 313.227 351.44 313.406 351.195C313.341 351.198 313.272 351.206 313.209 351.206Z" fill="#BCBEC0"></path><path d="M298.526 333.081C298.526 333.081 298.231 333.482 297.791 334.083C297.693 334.235 297.579 334.386 297.476 334.559C297.363 334.724 297.258 334.902 297.152 335.086C297.036 335.263 296.962 335.466 296.853 335.652C296.788 335.854 296.668 336.041 296.623 336.249L296.523 336.549L296.46 336.855C296.403 337.059 296.398 337.262 296.376 337.464C296.337 337.666 296.371 337.862 296.367 338.055C296.355 338.251 296.389 338.432 296.408 338.606C296.439 338.778 296.429 338.953 296.472 339.092C296.505 339.235 296.526 339.366 296.547 339.476C296.583 339.696 296.597 339.831 296.597 339.831C296.597 339.831 296.5 339.749 296.341 339.584C296.263 339.501 296.165 339.401 296.064 339.276C295.949 339.158 295.874 338.994 295.775 338.82C295.679 338.644 295.561 338.453 295.506 338.224C295.443 337.998 295.349 337.759 295.345 337.496C295.324 337.236 295.293 336.962 295.345 336.689C295.363 336.553 295.37 336.41 295.403 336.274L295.522 335.872C295.597 335.599 295.741 335.362 295.861 335.118C296.012 334.896 296.145 334.665 296.318 334.482C296.482 334.288 296.653 334.119 296.826 333.973C296.992 333.817 297.178 333.708 297.338 333.594C297.997 333.169 298.526 333.081 298.526 333.081Z" fill="#BCBEC0"></path><path d="M303.732 343.789C303.732 343.789 303.239 343.788 302.496 343.785C302.318 343.797 302.126 343.794 301.929 343.812C301.728 343.818 301.525 343.838 301.316 343.863C301.105 343.875 300.899 343.933 300.686 343.954C300.483 344.022 300.264 344.034 300.072 344.121L299.769 344.219L299.487 344.349C299.291 344.423 299.124 344.539 298.951 344.641C298.766 344.73 298.629 344.876 298.472 344.985C298.307 345.091 298.183 345.227 298.054 345.344C297.936 345.471 297.79 345.565 297.702 345.683C297.609 345.797 297.514 345.891 297.442 345.972C297.286 346.133 297.188 346.225 297.188 346.225C297.188 346.225 297.195 346.097 297.233 345.871C297.255 345.759 297.277 345.62 297.316 345.463C297.341 345.3 297.429 345.143 297.509 344.959C297.594 344.776 297.675 344.569 297.829 344.388C297.974 344.205 298.108 343.986 298.315 343.826C298.509 343.653 298.713 343.468 298.963 343.346C299.082 343.279 299.2 343.202 299.33 343.149L299.722 343.007C299.985 342.904 300.261 342.884 300.527 342.833C300.793 342.823 301.057 342.795 301.306 342.828C301.558 342.845 301.795 342.883 302.016 342.939C302.238 342.981 302.439 343.065 302.62 343.128C303.351 343.412 303.732 343.789 303.732 343.789Z" fill="#BCBEC0"></path><path d="M336.711 369.007C336.711 371.508 329.423 373.535 320.434 373.535C311.445 373.535 304.156 371.508 304.156 369.007C304.156 366.506 311.445 364.479 320.434 364.479C329.423 364.479 336.711 366.506 336.711 369.007Z" fill="#BCBEC0"></path><path d="M141.955 341.018C162.552 341.018 179.25 338.991 179.25 336.49C179.25 333.989 162.552 331.962 141.955 331.962C121.358 331.962 104.66 333.989 104.66 336.49C104.66 338.991 121.358 341.018 141.955 341.018Z" fill="#BCBEC0"></path><path d="M394.523 369.007C394.523 371.508 387.234 373.535 378.247 373.535C369.257 373.535 361.969 371.508 361.969 369.007C361.969 366.506 369.258 364.479 378.247 364.479C387.234 364.479 394.523 366.506 394.523 369.007Z" fill="#BCBEC0"></path><path d="M370.527 354.157V364.926C370.527 366.906 372.132 368.511 374.114 368.511H382.381C384.362 368.511 385.966 366.906 385.966 364.926V354.157H370.527Z" fill="#131820"></path><path d="M378.654 366.307C375.21 363.875 373.777 358.534 375.021 354.283H370.527V364.925C370.527 366.905 372.132 368.51 374.114 368.51H382.381C383.154 368.51 383.869 368.263 384.455 367.847C382.464 368.012 380.421 367.556 378.654 366.307Z" fill="#808285"></path><path d="M311.777 354.157V364.926C311.777 366.906 313.384 368.511 315.361 368.511H323.632C325.61 368.511 327.216 366.906 327.216 364.926V354.157H311.777Z" fill="#131820"></path><path d="M319.907 366.307C316.462 363.875 315.029 358.534 316.275 354.283H311.781V364.925C311.781 366.905 313.387 368.51 315.365 368.51H323.636C324.408 368.51 325.122 368.263 325.707 367.847C323.718 368.012 321.674 367.556 319.907 366.307Z" fill="#808285"></path><path d="M316.368 320.833C316.368 320.833 310.388 317.305 307.702 320.368C307.702 320.368 306.859 323.694 309.715 324.235L314.752 325.617V329.227H316.368V324.823C316.368 324.823 317.482 323.015 316.368 320.833Z" fill="#131820"></path><path d="M382.291 320.833C382.291 320.833 388.274 317.305 390.961 320.368C390.961 320.368 391.801 323.694 388.946 324.235L383.91 325.617V329.227H382.291V324.823C382.291 324.823 381.179 323.015 382.291 320.833Z" fill="#131820"></path><path d="M385.966 354.648H311.777V360.703H385.966V354.648Z" fill="#000004"></path><path d="M388.364 334.767L382.863 326.168H382.781L376.312 312.692C374.223 308.246 372.387 306.982 369.788 306.982H349.501H349.084H328.796C326.197 306.982 324.36 308.246 322.271 312.692L315.803 326.168L310.3 334.767C310.3 334.767 309.041 336.781 308.789 341.313V356.927C308.789 356.927 310.048 361.543 319.365 358.773L321.506 358.06H330.195H344.045H354.621H368.472H377.158L379.301 358.773C388.618 361.543 389.875 356.927 389.875 356.927V341.313C389.624 336.781 388.364 334.767 388.364 334.767Z" fill="#00B9C5"></path><path d="M332.985 357.608C329.658 352.736 328.326 347.769 329.415 341.898C329.908 339.258 330.911 336.956 332.514 334.802C333.611 333.323 336.392 331.307 336.706 329.45C336.769 329.082 329.806 330.332 329.172 330.385C327.126 330.559 325.045 330.234 323.437 328.848C319.891 325.791 321.599 321.439 324.217 318.367C327.582 314.417 331.332 310.272 335.356 306.981H328.796C326.197 306.981 324.36 308.245 322.271 312.691L315.803 326.167L310.3 334.766C310.3 334.766 309.041 336.78 308.789 341.312V356.926C308.789 356.926 310.048 361.542 319.366 358.772L321.506 358.059H333.311C333.203 357.907 333.089 357.761 332.985 357.608Z" fill="#D1D3D4"></path><path d="M379.003 323.007C379.003 324.448 377.792 325.615 376.297 325.615H322.198C320.702 325.615 319.492 324.446 319.492 323.007L324.514 313.21C326.12 310.272 327.104 308.998 330.443 308.998H366.202C371.909 308.975 371.959 311.31 373.718 313.739L379.003 323.007Z" fill="#001025"></path><path d="M374.379 322.301C374.692 322.038 374.763 321.596 374.357 320.877L371.046 315.072C369.943 313.551 369.914 312.089 366.338 312.103H351.977C351.711 313.497 351.75 314.942 352.222 316.383C353.028 318.855 354.556 321.024 356.811 322.3H374.379V322.301Z" fill="white"></path><path d="M340.041 314.259C339.74 312.468 339.762 310.71 340.024 308.999H330.443C327.104 308.999 326.119 310.273 324.514 313.211L319.492 323.008C319.492 324.448 320.702 325.616 322.198 325.616H346.081C342.884 322.64 340.771 318.629 340.041 314.259Z" fill="#58595B"></path><path d="M308.789 346.182V356.927C308.789 356.927 310.048 361.543 319.365 358.773L321.506 358.059H330.195H344.045H354.621H368.472H377.158L379.301 358.773C388.618 361.543 389.875 356.927 389.875 356.927V346.182L349.459 350.63L308.789 346.182Z" fill="#D1D3D4"></path><path d="M314.161 333.76C314.161 333.76 310.383 337.209 311.139 342.913L328.01 347.609C328.01 347.609 331.284 342.913 326.751 340.684L314.161 333.76Z" fill="white"></path><path d="M312.899 341.402C312.46 338.08 313.557 335.531 314.551 333.974L314.161 333.76C314.161 333.76 310.383 337.209 311.139 342.913L328.01 347.609C328.01 347.609 328.524 346.873 328.862 345.844L312.899 341.402Z" fill="#001025"></path><path d="M317.959 352.13C317.959 353.521 316.831 354.648 315.441 354.648C314.05 354.648 312.922 353.52 312.922 352.13C312.922 350.74 314.05 349.613 315.441 349.613C316.831 349.612 317.959 350.74 317.959 352.13Z" fill="#D1D3D4"></path><path d="M385.989 352.13C385.989 353.521 384.862 354.648 383.471 354.648C382.08 354.648 380.953 353.52 380.953 352.13C380.953 350.74 382.08 349.613 383.471 349.613C384.862 349.612 385.989 350.74 385.989 352.13Z" fill="#D1D3D4"></path><path d="M380.953 329.091C380.953 329.091 390.842 333.939 387.156 344.293L351.346 347.609C351.346 347.609 329.876 340.053 341.777 330.989L380.953 329.091Z" fill="white"></path><path d="M363.348 338.794H335.312V340.683H363.348V338.794Z" fill="#001025"></path><path d="M365.112 341.524H333.551V343.412H365.112V341.524Z" fill="#001025"></path><path d="M367.489 344.292H331.176V346.182H367.489V344.292Z" fill="#001025"></path><path d="M384.036 333.76C384.036 333.76 387.812 337.209 387.058 342.913L370.186 347.609C370.186 347.609 366.913 342.913 371.445 340.684L384.036 333.76Z" fill="white"></path><path d="M385.296 341.402C385.734 338.08 384.638 335.531 383.646 333.974L384.037 333.76C384.037 333.76 387.814 337.209 387.06 342.913L370.188 347.609C370.188 347.609 369.674 346.873 369.336 345.844L385.296 341.402Z" fill="#001025"></path><path d="M109.574 332.102C109.751 332.617 111.095 335.86 116.88 335.861H116.884C117.656 335.861 118.484 335.802 119.351 335.687C119.471 335.669 119.596 335.661 119.721 335.661H167.705C169.452 335.661 171.878 334.764 173.604 333.478C175.892 331.776 176.026 328.703 175.148 326.413C174.134 323.771 171.827 321.856 169.663 321.856C169.067 321.856 168.467 321.998 167.879 322.28C167.716 322.359 167.536 322.475 167.322 322.644C166.33 323.728 165.342 324.478 164.671 324.923C164.458 325.073 164.189 325.235 163.926 325.375C163.909 325.384 163.89 325.394 163.872 325.403C162.498 326.094 160.827 325.544 160.123 324.17C159.421 322.795 159.948 321.108 161.304 320.383C161.327 320.371 161.432 320.311 161.58 320.212C161.853 320.021 162.218 319.679 162.6 319.317C162.856 319.076 163.119 318.828 163.408 318.576C165.648 315.931 165.693 312.585 163.546 308.624C163.546 308.624 160.943 304.17 157.003 304.17C156.142 304.17 155.236 304.38 154.308 304.797C153.499 305.159 152.565 305.117 151.792 304.68C151.019 304.243 150.495 303.465 150.384 302.58C150.267 301.735 149.005 294.199 141.545 294.199C141.487 294.199 141.419 294.197 141.358 294.193C141.346 294.193 141.263 294.189 141.136 294.189C138.197 294.189 131.353 295.181 131.25 304.375C131.24 305.29 130.791 306.142 130.047 306.663C129.302 307.183 128.354 307.311 127.498 307.001C127.494 307.001 126.232 306.571 124.528 306.571C121.337 306.571 118.822 308.024 117.054 310.892C116.683 311.604 115.132 315.263 119.953 318.914C120.931 319.654 121.32 320.947 120.915 322.109C120.509 323.27 119.415 324.03 118.176 323.991H118.034C115.775 323.991 111.513 324.583 109.869 326.808C108.971 328.022 108.87 329.74 109.562 332.064C109.566 332.072 109.568 332.079 109.569 332.083C109.569 332.085 109.569 332.087 109.569 332.09C109.574 332.1 109.569 332.089 109.574 332.102Z" fill="#6F913C"></path><path d="M174.296 332.462H134.953C134.852 332.462 134.749 332.468 134.648 332.482C133.94 332.577 133.261 332.625 132.628 332.625C127.881 332.625 126.777 329.964 126.633 329.543C126.631 329.531 126.633 329.542 126.631 329.532C126.631 329.53 126.631 329.528 126.628 329.527C126.626 329.524 126.625 329.519 126.625 329.512C126.056 327.607 126.139 326.196 126.875 325.202C128.221 323.379 131.717 322.893 133.569 322.893H133.685C134.7 322.925 135.597 322.302 135.93 321.35C136.265 320.397 135.944 319.339 135.142 318.73C131.185 315.739 132.459 312.737 132.767 312.153C134.214 309.802 136.277 308.611 138.892 308.611C140.29 308.611 141.326 308.963 141.329 308.963C142.028 309.217 142.809 309.113 143.419 308.685C144.031 308.258 144.399 307.56 144.407 306.809C144.462 301.87 146.889 299.828 149.234 298.999C148.088 296.714 145.852 294.2 141.545 294.2C141.487 294.2 141.419 294.198 141.358 294.194C141.346 294.194 141.263 294.19 141.136 294.19C138.197 294.19 131.353 295.182 131.25 304.376C131.24 305.291 130.791 306.143 130.047 306.664C129.302 307.184 128.354 307.312 127.498 307.002C127.494 307.002 126.232 306.572 124.528 306.572C121.337 306.572 118.822 308.025 117.054 310.892C116.683 311.605 115.132 315.264 119.953 318.915C120.931 319.655 121.32 320.947 120.915 322.11C120.509 323.271 119.415 324.031 118.176 323.992H118.034C115.775 323.992 111.513 324.584 109.869 326.809C108.971 328.023 108.87 329.741 109.562 332.065C109.566 332.073 109.568 332.08 109.569 332.084C109.569 332.086 109.569 332.088 109.569 332.091C109.575 332.101 109.572 332.09 109.575 332.103C109.752 332.618 111.096 335.861 116.882 335.862C116.882 335.862 116.884 335.862 116.885 335.862C117.657 335.862 118.486 335.802 119.352 335.688C119.472 335.67 119.597 335.662 119.722 335.662H167.706C169.453 335.662 171.879 334.765 173.605 333.479C174.01 333.178 174.327 332.821 174.603 332.443C174.501 332.45 174.397 332.462 174.296 332.462Z" fill="#BCBEC0"></path><path d="M151.792 304.681C151.792 304.681 151.342 305.296 150.665 306.217C150.515 306.451 150.339 306.683 150.181 306.947C150.009 307.199 149.847 307.473 149.688 307.752C149.511 308.024 149.396 308.333 149.231 308.618C149.129 308.929 148.943 309.215 148.877 309.534L148.721 309.997L148.626 310.466C148.538 310.777 148.528 311.091 148.496 311.399C148.437 311.708 148.492 312.01 148.481 312.305C148.463 312.603 148.517 312.881 148.546 313.15C148.592 313.412 148.576 313.679 148.641 313.895C148.695 314.112 148.725 314.315 148.757 314.481C148.813 314.817 148.836 315.026 148.836 315.026C148.836 315.026 148.687 314.899 148.442 314.648C148.324 314.521 148.171 314.366 148.018 314.174C147.839 313.994 147.725 313.742 147.572 313.475C147.426 313.205 147.248 312.913 147.162 312.561C147.072 312.214 146.923 311.848 146.914 311.446C146.881 311.048 146.837 310.627 146.914 310.207C146.942 309.998 146.955 309.779 147.007 309.572L147.188 308.954C147.301 308.537 147.526 308.174 147.706 307.799C147.937 307.457 148.142 307.105 148.409 306.824C148.657 306.528 148.919 306.266 149.188 306.044C149.441 305.807 149.724 305.637 149.97 305.464C150.98 304.815 151.792 304.681 151.792 304.681Z" fill="#BCBEC0"></path><path d="M159.774 321.092C159.774 321.092 159.014 321.091 157.875 321.089C157.602 321.106 157.31 321.101 157.006 321.129C156.702 321.138 156.387 321.169 156.067 321.207C155.744 321.225 155.428 321.315 155.1 321.347C154.793 321.45 154.453 321.471 154.159 321.604L153.697 321.755L153.263 321.954C152.963 322.066 152.706 322.245 152.44 322.401C152.159 322.536 151.948 322.759 151.704 322.927C151.457 323.087 151.262 323.297 151.066 323.478C150.884 323.673 150.66 323.817 150.525 323.999C150.384 324.17 150.24 324.316 150.124 324.438C149.889 324.685 149.734 324.826 149.734 324.826C149.734 324.826 149.748 324.63 149.806 324.284C149.835 324.112 149.869 323.899 149.932 323.659C149.97 323.408 150.107 323.167 150.229 322.884C150.357 322.604 150.484 322.286 150.715 322.011C150.939 321.731 151.144 321.394 151.461 321.148C151.759 320.884 152.072 320.6 152.454 320.414C152.639 320.313 152.821 320.194 153.018 320.112L153.616 319.895C154.02 319.739 154.443 319.707 154.85 319.629C155.259 319.614 155.663 319.572 156.049 319.622C156.432 319.647 156.798 319.705 157.131 319.791C157.473 319.856 157.779 319.985 158.062 320.081C159.187 320.514 159.774 321.092 159.774 321.092Z" fill="#BCBEC0"></path></svg>