<svg xmlns="http://www.w3.org/2000/svg" width="500" height="450" viewBox="0 0 500 450" fill="none"><rect width="500" height="450" rx="24" fill="white"></rect><path d="M240.4 152.811C243.875 148.678 257.064 145.912 264.346 152.441C264.346 152.441 261.837 148.565 264.346 145.253C264.346 145.253 261.034 147.404 258.074 145.253C255.114 143.102 254.405 132.352 254.405 132.352C254.405 132.352 253.709 143.271 248.842 144.269C243.975 145.266 240.858 138.342 240.858 138.342C240.858 138.342 243.505 145.937 242.181 147.123C240.858 148.308 238.211 147.123 238.211 147.123L240.4 152.811Z" fill="#E0E0E0"></path><path d="M230.831 163.342C230.831 163.342 226.039 172.643 230.831 180.96C228.822 179.676 226.329 179.403 224.089 180.22C224.089 180.22 225.971 178.232 225.701 176.124C225.431 174.017 216.77 171.038 216.77 171.038C216.77 171.038 223.594 171.665 225.08 169.301C226.566 166.936 221.317 162.358 221.317 162.358C221.317 162.358 227.056 165.456 228.298 164.465C229.54 163.474 228.298 160.369 228.298 160.369L230.831 163.342Z" fill="#E0E0E0"></path><path d="M273.699 182.075C273.699 182.075 278.541 175.364 274.69 165.172L278.014 163.178C278.014 163.178 276.76 165.304 277.518 166.653C278.277 168.001 285.333 167.067 285.333 167.067C285.333 167.067 279.751 168.19 279.507 171.137C279.262 174.085 286.45 178.394 286.45 178.394C286.45 178.394 279.877 176.751 278.516 178.394C277.155 180.037 280.065 183.223 280.065 183.223C280.065 183.223 276.804 180.883 273.699 182.075Z" fill="#E0E0E0"></path><path d="M82.0109 115.687C79.3849 119.686 77.6189 124.079 76.6779 128.61L69.4619 129.29L69.4609 143.265L76.6779 143.945C77.6179 148.475 79.3849 152.868 82.0109 156.868L77.4019 162.435L87.2839 172.317L92.8509 167.708C96.8509 170.334 101.243 172.1 105.774 173.04L106.453 180.257L120.428 180.256L121.108 173.04C125.639 172.099 130.032 170.333 134.031 167.707L139.598 172.316L149.481 162.434L144.872 156.867C147.497 152.867 149.264 148.475 150.204 143.944L157.42 143.264L157.421 129.289L150.205 128.609C149.264 124.079 147.497 119.687 144.871 115.687L149.48 110.119L139.598 100.237L134.031 104.846C130.031 102.22 125.638 100.453 121.108 99.5119L120.428 92.2949L106.452 92.2959L105.773 99.5119C101.243 100.453 96.8499 102.218 92.8509 104.845L87.2829 100.236L77.4009 110.119L82.0109 115.687ZM126.819 122.899C134.206 130.287 134.207 142.267 126.819 149.655C119.43 157.044 107.451 157.043 100.063 149.656C92.6749 142.267 92.6749 130.289 100.063 122.9C107.452 115.511 119.43 115.511 126.819 122.899Z" fill="#E0E0E0"></path><path d="M168.381 48.2199C166.951 50.3979 165.989 52.7899 165.477 55.2579L161.547 55.6279V63.2389L165.478 63.6089C165.99 66.0759 166.952 68.4679 168.382 70.6469L165.872 73.6789L171.254 79.0609L174.286 76.5509C176.464 77.9809 178.856 78.9429 181.324 79.4549L181.694 83.3859H189.305L189.675 79.4559C192.142 78.9429 194.535 77.9819 196.713 76.5519L199.745 79.0619L205.127 73.6799L202.617 70.6479C204.047 68.4699 205.009 66.0769 205.521 63.6099L209.451 63.2399L209.452 55.6289L205.522 55.2589C205.01 52.7919 204.047 50.3999 202.617 48.2219L205.127 45.1899L199.745 39.8079L196.713 42.3179C194.534 40.8879 192.142 39.9249 189.675 39.4129L189.305 35.4829H181.694L181.324 39.4129C178.857 39.9249 176.465 40.8869 174.286 42.3169L171.254 39.8069L165.872 45.1889L168.381 48.2199ZM192.784 52.1479C196.807 56.1719 196.808 62.6959 192.784 66.7189C188.76 70.7429 182.236 70.7429 178.212 66.7189C174.188 62.6949 174.188 56.1709 178.212 52.1469C182.237 48.1249 188.76 48.1249 192.784 52.1479Z" fill="#F0F0F0"></path><path d="M308.004 192.515C306.999 194.046 306.323 195.727 305.962 197.462L303.199 197.722V203.072L305.962 203.332C306.322 205.066 306.998 206.748 308.004 208.279L306.24 210.41L310.023 214.193L312.154 212.429C313.685 213.434 315.367 214.111 317.101 214.47L317.361 217.233H322.711L322.971 214.471C324.705 214.111 326.387 213.435 327.918 212.429L330.049 214.193L333.832 210.41L332.068 208.279C333.073 206.748 333.749 205.066 334.109 203.332L336.871 203.072V197.722L334.109 197.462C333.749 195.728 333.072 194.046 332.067 192.516L333.831 190.385L330.048 186.602L327.917 188.366C326.386 187.361 324.704 186.684 322.97 186.324L322.71 183.561H317.36L317.1 186.323C315.366 186.683 313.684 187.359 312.153 188.364L310.022 186.6L306.239 190.383L308.004 192.515ZM325.156 195.276C327.984 198.104 327.984 202.69 325.156 205.518C322.328 208.346 317.742 208.346 314.914 205.518C312.086 202.69 312.086 198.104 314.914 195.276C317.743 192.448 322.328 192.448 325.156 195.276Z" fill="#E0E0E0"></path><path d="M293.284 237.057C291.854 239.235 290.892 241.627 290.379 244.095L286.449 244.465V252.076L290.38 252.446C290.892 254.913 291.854 257.305 293.284 259.484L290.774 262.516L296.156 267.898L299.188 265.388C301.366 266.818 303.758 267.78 306.226 268.292L306.596 272.223H314.207L314.577 268.293C317.044 267.781 319.437 266.819 321.615 265.388L324.647 267.898L330.029 262.516L327.519 259.484C328.949 257.306 329.911 254.914 330.423 252.446L334.353 252.076L334.354 244.465L330.424 244.094C329.912 241.627 328.949 239.235 327.519 237.057L330.029 234.025L324.647 228.643L321.615 231.153C319.436 229.723 317.044 228.76 314.577 228.248L314.207 224.318H306.596L306.226 228.248C303.759 228.76 301.367 229.722 299.188 231.152L296.156 228.642L290.774 234.024L293.284 237.057ZM317.687 240.985C321.71 245.009 321.71 251.533 317.687 255.557C313.663 259.581 307.139 259.581 303.115 255.557C299.091 251.533 299.091 245.01 303.115 240.985C307.139 236.961 313.663 236.961 317.687 240.985Z" fill="#E0E0E0"></path><path d="M349.839 222.127C347.819 225.203 346.46 228.583 345.736 232.068L340.184 232.591V243.342L345.736 243.865C346.459 247.35 347.818 250.729 349.839 253.807L346.293 258.09L353.896 265.692L358.179 262.146C361.256 264.166 364.635 265.525 368.12 266.248L368.643 271.8H379.393L379.916 266.249C383.402 265.525 386.781 264.166 389.858 262.146L394.141 265.692L401.744 258.09L398.198 253.807C400.218 250.73 401.577 247.351 402.3 243.866L407.851 243.343L407.852 232.592L402.301 232.069C401.577 228.584 400.218 225.205 398.198 222.128L401.744 217.845L394.142 210.243L389.859 213.789C386.782 211.769 383.402 210.409 379.918 209.686L379.395 204.134L368.644 204.135L368.121 209.687C364.636 210.411 361.257 211.769 358.18 213.789L353.897 210.243L346.294 217.846L349.839 222.127ZM384.309 227.676C389.992 233.36 389.992 242.575 384.309 248.259C378.625 253.943 369.409 253.943 363.726 248.259C358.042 242.575 358.042 233.36 363.726 227.676C369.41 221.992 378.625 221.992 384.309 227.676Z" fill="#F0F0F0"></path><path d="M295.659 57.8589C293.984 60.4089 292.858 63.2099 292.258 66.0989L287.656 66.5319V75.4429L292.258 75.8769C292.857 78.7659 293.984 81.5669 295.659 84.1169L292.72 87.6669L299.021 93.9679L302.571 91.0289C305.121 92.7029 307.922 93.8299 310.811 94.4289L311.244 99.0309L320.155 99.0299L320.589 94.4289C323.478 93.8289 326.279 92.7029 328.83 91.0279L332.38 93.9669L338.682 87.6659L335.743 84.1159C337.417 81.5659 338.544 78.7649 339.143 75.8759L343.744 75.4419L343.745 66.5309L339.144 66.0969C338.544 63.2089 337.417 60.4079 335.743 57.8569L338.682 54.3069L332.381 48.0059L328.831 50.9449C326.28 49.2709 323.479 48.1439 320.591 47.5439L320.158 42.9419H311.246L310.813 47.5439C307.924 48.1439 305.123 49.2699 302.573 50.9449L299.023 48.0059L292.722 54.3079L295.659 57.8589ZM324.231 62.4579C328.942 67.1689 328.942 74.8079 324.231 79.5189C319.519 84.2299 311.881 84.2299 307.17 79.5189C302.459 74.8079 302.459 67.1689 307.17 62.4579C311.881 57.7469 319.519 57.7469 324.231 62.4579Z" fill="#F0F0F0"></path><path d="M68.053 250.027C66.472 252.434 65.409 255.078 64.843 257.805L60.5 258.214V266.625L64.844 267.034C65.41 269.761 66.473 272.404 68.054 274.812L65.28 278.163L71.228 284.111L74.579 281.337C76.986 282.917 79.63 283.981 82.357 284.546L82.766 288.89L91.177 288.889L91.586 284.546C94.313 283.98 96.957 282.917 99.364 281.336L102.715 284.11L108.663 278.162L105.889 274.811C107.469 272.404 108.532 269.76 109.098 267.033L113.441 266.624L113.442 258.213L109.099 257.804C108.533 255.078 107.469 252.434 105.889 250.027L108.663 246.676L102.715 240.728L99.364 243.502C96.956 241.922 94.313 240.858 91.586 240.292L91.177 235.948H82.766L82.357 240.291C79.63 240.857 76.987 241.92 74.58 243.501L71.229 240.727L65.281 246.675L68.053 250.027ZM95.022 254.368C99.468 258.815 99.469 266.025 95.022 270.471C90.575 274.918 83.365 274.918 78.918 270.471C74.471 266.024 74.471 258.815 78.918 254.367C83.365 249.921 90.575 249.921 95.022 254.368Z" fill="#F0F0F0"></path><path d="M443.921 301.998H263.174C259.942 301.998 257.312 299.368 257.312 296.136V32.862C257.312 29.63 259.942 27 263.174 27H443.921C447.152 27 449.783 29.629 449.783 32.862V296.135C449.784 299.368 447.154 301.998 443.921 301.998ZM263.174 27.25C260.079 27.25 257.562 29.768 257.562 32.862V296.135C257.562 299.23 260.08 301.747 263.174 301.747H443.921C447.016 301.747 449.533 299.229 449.533 296.135V32.862C449.533 29.768 447.014 27.25 443.921 27.25H263.174Z" fill="#E0E0E0"></path><path d="M235.492 301.998H54.7448C51.5128 301.998 48.8828 299.368 48.8828 296.136V32.862C48.8828 29.63 51.5118 27 54.7448 27H235.492C238.724 27 241.354 29.629 241.354 32.862V296.135C241.354 299.368 238.724 301.998 235.492 301.998ZM54.7448 27.25C51.6508 27.25 49.1328 29.768 49.1328 32.862V296.135C49.1328 299.23 51.6508 301.747 54.7448 301.747H235.492C238.587 301.747 241.104 299.229 241.104 296.135V32.862C241.104 29.768 238.586 27.25 235.492 27.25H54.7448Z" fill="#E0E0E0"></path><path d="M500 363.067H0V363.317H500V363.067Z" fill="#E0E0E0"></path><path d="M67.7319 377.331H51.6719V377.581H67.7319V377.331Z" fill="#E0E0E0"></path><path d="M223.882 374.621H170.352V374.871H223.882V374.621Z" fill="#E0E0E0"></path><path d="M104.984 386.621H68.7344V386.871H104.984V386.621Z" fill="#E0E0E0"></path><path d="M421.542 374.491H378.352V374.741H421.542V374.491Z" fill="#E0E0E0"></path><path d="M436.783 374.491H430.453V374.741H436.783V374.491Z" fill="#E0E0E0"></path><path d="M370.101 380.721H316.211V380.971H370.101V380.721Z" fill="#E0E0E0"></path><path d="M458.875 416.535C458.875 419.922 365.358 422.667 250 422.667C134.642 422.667 41.125 419.921 41.125 416.535C41.125 413.148 134.641 410.403 250 410.403C365.359 410.403 458.875 413.148 458.875 416.535Z" fill="#F5F5F5"></path><path d="M260.554 204.309C260.554 206.848 257.023 208.884 252.73 208.816C248.437 208.747 244.99 206.673 245.02 204.134C245.051 201.595 248.551 199.559 252.836 199.635C257.123 199.71 260.584 201.777 260.554 204.309Z" fill="#263238"></path><path d="M263.91 195.936C264.331 195.536 264.585 194.991 264.619 194.411C264.619 191.925 259.38 189.836 252.853 189.775C246.326 189.714 241.01 191.658 240.98 194.144C241.006 194.72 241.248 195.264 241.659 195.669C241.536 195.905 241.465 196.165 241.453 196.432C241.469 197.013 241.72 197.563 242.147 197.957C242.008 198.204 241.933 198.482 241.926 198.765C241.943 199.351 242.203 199.903 242.643 200.29C242.489 200.537 242.404 200.822 242.399 201.114C242.435 201.692 242.712 202.228 243.161 202.593C243 202.841 242.91 203.128 242.902 203.424C242.902 205.491 247.256 207.237 252.686 207.283C258.115 207.329 262.531 205.758 262.554 203.646C262.553 203.349 262.468 203.058 262.31 202.807C262.757 202.447 263.034 201.916 263.072 201.343C263.069 201.054 262.993 200.771 262.851 200.519C263.293 200.148 263.567 199.615 263.614 199.04C263.612 198.755 263.541 198.476 263.408 198.224C263.849 197.849 264.124 197.314 264.17 196.737C264.145 196.453 264.057 196.179 263.91 195.936Z" fill="#263238"></path><path opacity="0.3" d="M263.91 195.936C264.331 195.536 264.585 194.991 264.619 194.411C264.619 191.925 259.38 189.836 252.853 189.775C246.326 189.714 241.01 191.658 240.98 194.144C241.006 194.72 241.248 195.264 241.659 195.669C241.536 195.905 241.465 196.165 241.453 196.432C241.469 197.013 241.72 197.563 242.147 197.957C242.008 198.204 241.933 198.482 241.926 198.765C241.943 199.351 242.203 199.903 242.643 200.29C242.489 200.537 242.404 200.822 242.399 201.114C242.435 201.692 242.712 202.228 243.161 202.593C243 202.841 242.91 203.128 242.902 203.424C242.902 205.491 247.256 207.237 252.686 207.283C258.115 207.329 262.531 205.758 262.554 203.646C262.553 203.349 262.468 203.058 262.31 202.807C262.757 202.447 263.034 201.916 263.072 201.343C263.069 201.054 262.993 200.771 262.851 200.519C263.293 200.148 263.567 199.615 263.614 199.04C263.612 198.755 263.541 198.476 263.408 198.224C263.849 197.849 264.124 197.314 264.17 196.737C264.145 196.453 264.057 196.179 263.91 195.936Z" fill="white"></path><path d="M273.701 173.974C273.837 162.423 264.583 152.948 253.031 152.813C241.48 152.677 232.005 161.931 231.869 173.483C231.795 179.752 234.537 185.723 239.339 189.752C240.223 190.481 240.686 191.601 240.574 192.741C240.57 192.797 240.57 192.853 240.574 192.909C240.574 195.433 245.912 197.545 252.531 197.622C259.15 197.698 264.557 195.708 264.587 193.176C264.587 193.123 264.587 193.069 264.587 193.016C264.484 191.852 264.974 190.714 265.891 189.989C270.758 186.086 273.623 180.211 273.701 173.974Z" fill="#407BFF"></path><path opacity="0.5" d="M273.716 173.974C273.852 162.423 264.598 152.948 253.046 152.813C241.495 152.677 232.02 161.931 231.884 173.483C231.81 179.752 234.552 185.723 239.354 189.752C240.238 190.481 240.701 191.601 240.589 192.741C240.585 192.797 240.585 192.853 240.589 192.909C240.589 195.433 245.927 197.545 252.546 197.622C259.165 197.698 264.572 195.708 264.602 193.176C264.602 193.123 264.602 193.069 264.602 193.016C264.499 191.852 264.989 190.714 265.906 189.989C270.774 186.086 273.639 180.211 273.716 173.974Z" fill="white"></path><path opacity="0.2" d="M263.43 161.826C263.43 165.898 258.664 169.208 252.754 169.208C246.844 169.208 242.078 165.898 242.078 161.826C242.078 157.754 246.844 154.437 252.754 154.437C258.664 154.437 263.43 157.747 263.43 161.826Z" fill="white"></path><path d="M236.849 181.679C235.029 178.558 234.305 174.811 234.833 171.237C235.361 167.663 237.136 164.285 239.78 161.822" stroke="white" stroke-width="0.5" stroke-miterlimit="10" stroke-linecap="round" stroke-linejoin="round"></path><path d="M243.125 202.642C249.185 205.135 256.115 205.218 262.234 202.874C256.249 205.527 249.044 205.438 243.125 202.642Z" fill="#263238"></path><path d="M242.984 200.397C249.044 202.89 255.974 202.973 262.093 200.629C256.108 203.282 248.903 203.193 242.984 200.397Z" fill="#263238"></path><path d="M242.84 198.152C248.9 200.645 255.83 200.728 261.949 198.384C255.964 201.037 248.759 200.948 242.84 198.152Z" fill="#263238"></path><path d="M248.259 193.189C249.863 187.727 250.145 181.769 249.066 176.142C248.891 175.233 248.481 174.137 247.665 174.117C246.935 174.099 246.455 174.996 246.298 175.809C245.741 178.684 247.231 181.604 249.138 183.589C250.17 184.664 251.421 185.601 252.818 185.67C254.22 185.739 255.557 184.909 256.572 183.804C258.514 181.69 259.481 178.379 258.778 175.424C258.481 174.175 257.594 172.833 256.479 173.071C255.807 173.215 255.316 173.925 255.142 174.679C254.969 175.433 255.054 176.23 255.152 177.001C255.862 182.562 257.22 188.015 259.178 193.172" stroke="#263238" stroke-width="0.5" stroke-miterlimit="10" stroke-linecap="round" stroke-linejoin="round"></path><path d="M354.492 124.598C355.114 124.723 363.892 135.033 363.892 135.033L371.416 124.116L354.492 124.598Z" fill="#407BFF"></path><path opacity="0.5" d="M354.492 124.598C355.114 124.723 363.892 135.033 363.892 135.033L371.416 124.116L354.492 124.598Z" fill="white"></path><path d="M410.261 124.717H320.927C318.665 124.717 316.832 122.884 316.832 120.622V70.9339C316.832 68.6729 318.665 66.8389 320.927 66.8389H410.261C412.522 66.8389 414.356 68.6719 414.356 70.9339V120.623C414.356 122.884 412.522 124.717 410.261 124.717Z" fill="#407BFF"></path><path opacity="0.5" d="M410.261 124.717H320.927C318.665 124.717 316.832 122.884 316.832 120.622V70.9339C316.832 68.6729 318.665 66.8389 320.927 66.8389H410.261C412.522 66.8389 414.356 68.6719 414.356 70.9339V120.623C414.356 122.884 412.522 124.717 410.261 124.717Z" fill="white"></path><path d="M331.492 98.9877C331.915 98.6067 343.33 87.3367 343.33 87.3367L354.588 92.8777L365.592 79.9307L376.85 96.1527L387.83 88.9877" stroke="#263238" stroke-width="0.5" stroke-miterlimit="10"></path><path d="M335.02 104.061H329.742V115.755H335.02V104.061Z" fill="#407BFF"></path><path d="M345.887 96.334H340.609V115.756H345.887V96.334Z" fill="#407BFF"></path><path d="M356.962 98.2871H351.684V115.756H356.962V98.2871Z" fill="#407BFF"></path><path d="M368.231 87.3359H362.953V115.756H368.231V87.3359Z" fill="#407BFF"></path><path d="M379.626 102.406H374.348V115.756H379.626V102.406Z" fill="#407BFF"></path><path d="M335.219 97.6631C335.219 99.2291 333.949 100.499 332.383 100.499C330.817 100.499 329.547 99.2301 329.547 97.6631C329.547 96.0961 330.817 94.8271 332.383 94.8271C333.949 94.8271 335.219 96.0971 335.219 97.6631Z" fill="#407BFF"></path><path d="M346.082 87.336C346.082 88.902 344.812 90.172 343.246 90.172C341.68 90.172 340.41 88.902 340.41 87.336C340.41 85.77 341.68 84.5 343.246 84.5C344.813 84.501 346.082 85.77 346.082 87.336Z" fill="#407BFF"></path><path d="M357.426 91.9918C357.426 93.5578 356.156 94.8278 354.59 94.8278C353.024 94.8278 351.754 93.5578 351.754 91.9918C351.754 90.4258 353.024 89.1558 354.59 89.1558C356.156 89.1558 357.426 90.4258 357.426 91.9918Z" fill="#407BFF"></path><path d="M368.43 79.9297C368.43 81.4957 367.16 82.7658 365.594 82.7658C364.028 82.7658 362.758 81.4957 362.758 79.9297C362.758 78.3637 364.028 77.0938 365.594 77.0938C367.16 77.0938 368.43 78.3637 368.43 79.9297Z" fill="#407BFF"></path><path d="M379.688 96.1519C379.688 97.7179 378.418 98.9879 376.852 98.9879C375.286 98.9879 374.016 97.7179 374.016 96.1519C374.016 94.5859 375.286 93.3159 376.852 93.3159C378.418 93.3159 379.688 94.5859 379.688 96.1519Z" fill="#407BFF"></path><path d="M390.907 95.7129H385.629V115.756H390.907V95.7129Z" fill="#407BFF"></path><path opacity="0.3" d="M345.887 96.334H340.609V115.756H345.887V96.334Z" fill="black"></path><path opacity="0.3" d="M368.231 87.3359H362.953V115.756H368.231V87.3359Z" fill="black"></path><path opacity="0.3" d="M390.907 95.7129H385.629V115.756H390.907V95.7129Z" fill="black"></path><path d="M402.583 102.406H397.305V115.756H402.583V102.406Z" fill="#407BFF"></path><path d="M387.828 88.9868L399.94 95.7128" stroke="#263238" stroke-width="0.5" stroke-miterlimit="10"></path><path d="M391.301 88.9869C391.301 90.5529 390.031 91.8229 388.465 91.8229C386.899 91.8229 385.629 90.5529 385.629 88.9869C385.629 87.4209 386.899 86.1509 388.465 86.1509C390.032 86.1519 391.301 87.4209 391.301 88.9869Z" fill="#407BFF"></path><path d="M402.781 95.7129C402.781 97.2789 401.511 98.5489 399.945 98.5489C398.379 98.5489 397.109 97.2799 397.109 95.7129C397.109 94.1469 398.379 92.8779 399.945 92.8779C401.511 92.8769 402.781 94.1469 402.781 95.7129Z" fill="#407BFF"></path><path d="M333.207 356.42V309.89C333.207 307.772 335.649 306.586 337.314 307.895L366.887 331.16C368.179 332.176 368.179 334.133 366.887 335.149L337.314 358.414C335.649 359.724 333.207 358.538 333.207 356.42Z" fill="#407BFF"></path><path d="M338.002 319.324H198.488V346.987H338.002V319.324Z" fill="#407BFF"></path><path d="M222.942 347.033H92.1016L107.039 332.944L92.1016 318.678H222.942C279.111 318.678 324.809 272.981 324.809 216.811C324.809 160.642 279.112 114.944 222.942 114.944V86.5898C294.746 86.5898 353.163 145.007 353.163 216.811C353.163 288.616 294.746 347.033 222.942 347.033Z" fill="#407BFF"></path><g opacity="0.4"><path d="M222.942 347.033H92.1016L107.039 332.944L92.1016 318.678H222.942C279.111 318.678 324.809 272.981 324.809 216.811C324.809 160.642 279.112 114.944 222.942 114.944V86.5898C294.746 86.5898 353.163 145.007 353.163 216.811C353.163 288.616 294.746 347.033 222.942 347.033Z" fill="white"></path></g><path d="M125.872 307.803C103.893 283.428 91.7891 251.914 91.7891 219.068C91.7891 158.89 132.388 106.174 190.518 90.873L180.75 103.136L197.865 118.784C152.402 130.751 120.651 171.989 120.651 219.068C120.651 244.763 130.117 269.412 147.306 288.476L125.872 307.803Z" fill="#407BFF"></path><path d="M128.72 309.455C129.791 309.187 165.122 309.455 165.122 309.455L147.306 288.476L125.871 307.803L128.72 309.455Z" fill="#407BFF"></path><path d="M223.5 76.257L226.119 122.713C226.238 124.828 223.867 126.15 222.131 124.936L191.295 103.373C189.948 102.431 189.838 100.477 191.07 99.39L219.287 74.497C220.875 73.095 223.38 74.142 223.5 76.257Z" fill="#407BFF"></path><path opacity="0.4" d="M223.5 76.257L226.119 122.713C226.238 124.828 223.867 126.15 222.131 124.936L191.295 103.373C189.948 102.431 189.838 100.477 191.07 99.39L219.287 74.497C220.875 73.095 223.38 74.142 223.5 76.257Z" fill="white"></path><path d="M208.936 175.434C214.384 179.071 215.94 184.299 215.87 188.084C215.194 193.195 213.422 196.813 212.042 201.781L198.488 171.867C201.654 172.495 203.079 171.845 208.936 175.434Z" fill="#263238"></path><path d="M202.142 172.791C196.833 170.322 191.623 173.235 188.586 175.26C185.262 178.08 183.303 182.187 183.203 186.545C183.203 190.619 183.203 195.558 185.672 197.681C187.056 198.911 188.893 199.502 190.734 199.311L210.883 180.717C208.691 177.376 205.682 174.647 202.142 172.791Z" fill="#263238"></path><path d="M202.486 227.87C200.937 229.468 199.522 228.935 197.455 228.089C185.151 223.664 188.792 217.723 188.792 217.723C191.126 214.984 191.228 211.708 190.378 206.715C190.361 206.569 190.355 206.423 190.359 206.276C190.367 205.609 190.581 204.962 190.972 204.422C192 202.918 194.053 202.533 195.557 203.561L195.561 203.564L201.069 205.138C201.084 205.214 201.099 205.289 201.116 205.374C201.131 208.105 201.053 210.226 201.072 211.894C201.112 212.093 201.076 212.306 201.085 212.501C201.125 212.7 201.11 212.919 201.11 213.116C201.242 215.401 205.108 218.756 206.683 219.553C207.638 220.099 207.743 222.481 202.486 227.87Z" fill="#B97964"></path><path opacity="0.2" d="M201.063 205.119C201.066 205.203 201.083 205.286 201.112 205.365C201.127 208.096 201.049 210.217 201.068 211.885C201.057 212.087 201.062 212.29 201.081 212.492C201.093 212.705 201.118 212.916 201.159 213.126C196.973 211.988 193.237 209.594 190.453 206.267C190.458 205.61 190.655 204.97 191.019 204.423C192.033 202.91 194.079 202.501 195.596 203.508L201.063 205.119Z" fill="black"></path><path d="M186.222 187.737C186.433 197.157 186.314 201.134 190.789 206.249C197.528 213.931 208.813 211.881 211.41 202.637C213.68 194.315 213 180.336 204.12 176.014C195.24 171.692 186.019 178.306 186.222 187.737Z" fill="#B97964"></path><path d="M182.048 195.805C183.001 197.838 184.712 199.209 186.341 199.767C188.79 200.606 190.423 196.692 189.781 194.112C189.203 191.79 186.87 190.088 184.393 190.374C181.953 190.657 180.959 193.48 182.048 195.805Z" fill="#B97964"></path><path opacity="0.2" d="M187.382 195.749C187.398 194.848 187.044 193.947 186.42 193.298C185.795 192.649 184.908 192.261 184.008 192.242" stroke="black" stroke-width="0.5" stroke-miterlimit="10" stroke-linecap="round" stroke-linejoin="round"></path><path d="M198.49 191.792C198.452 192.796 198.924 193.663 199.545 193.729C200.166 193.794 200.699 193.034 200.738 192.029C200.776 191.025 200.304 190.158 199.683 190.092C199.062 190.027 198.529 190.788 198.49 191.792Z" fill="#263238"></path><path d="M207.814 192.552C207.779 193.525 208.253 194.367 208.871 194.433C209.49 194.498 210.02 193.762 210.055 192.789C210.09 191.816 209.616 190.974 208.998 190.909C208.379 190.843 207.849 191.579 207.814 192.552Z" fill="#263238"></path><path d="M196.812 188.141C196.931 188.165 197.056 188.14 197.157 188.062C198.728 186.837 200.328 187.449 200.346 187.456C200.583 187.547 200.841 187.431 200.917 187.187C200.993 186.944 200.861 186.671 200.621 186.575C200.537 186.543 198.53 185.772 196.581 187.294C196.387 187.446 196.358 187.741 196.517 187.953C196.594 188.055 196.701 188.119 196.812 188.141Z" fill="#263238"></path><path d="M211.354 188.073C211.452 188.049 211.537 187.985 211.588 187.885C211.692 187.678 211.61 187.397 211.405 187.258C209.347 185.86 207.667 186.648 207.596 186.684C207.396 186.781 207.328 187.045 207.443 187.275C207.558 187.505 207.813 187.612 208.012 187.516C208.077 187.484 209.39 186.895 211.027 188.006C211.133 188.078 211.251 188.099 211.354 188.073Z" fill="#263238"></path><path d="M205.32 191.877C205.32 191.877 206.5 195.541 207.982 197.888C208.241 198.298 208.013 198.846 207.545 198.974C206.341 199.305 205.008 198.801 205.008 198.801L205.32 191.877Z" fill="#A24E3F"></path><path d="M199.324 190.104L201.537 189.775C201.537 189.775 200.213 191.292 199.324 190.104Z" fill="#263238"></path><path d="M208.773 190.912L210.986 190.583C210.986 190.583 209.663 192.1 208.773 190.912Z" fill="#263238"></path><path d="M204.39 201.387C203.609 202.263 202.56 204.032 202.56 204.032C202.382 203.966 202.205 203.9 202.031 203.824C199.648 202.867 198.858 201.635 198.706 200.56C198.625 199.972 198.742 199.426 198.893 199.003C199.062 198.512 199.295 198.201 199.295 198.201C200.255 199.463 202.408 200.527 203.582 201.047C204.072 201.271 204.39 201.387 204.39 201.387Z" fill="#263238"></path><path d="M203.58 201.048L203.02 201.814C200.777 200.907 199.32 199.967 198.891 199.004C199.06 198.513 199.293 198.202 199.293 198.202C200.253 199.464 202.406 200.528 203.58 201.048Z" fill="white"></path><path d="M202.032 203.826C199.649 202.869 198.859 201.637 198.707 200.562C199.506 200.919 200.431 201.44 201.143 202.15C201.689 202.69 201.931 203.283 202.032 203.826Z" fill="#DE5753"></path><path d="M189.481 190.033C189.481 190.033 194.863 183.885 195.03 178.625C195.03 178.625 214.284 174.353 212.509 190.971C212.509 190.971 216.671 176.6 200.94 174.254C185.209 171.908 181.963 192.453 189.093 199.613C189.12 199.54 186.152 193.885 189.481 190.033Z" fill="#263238"></path><path d="M172.698 177.518C173.066 181.804 176.838 184.981 181.124 184.614C185.41 184.247 188.587 180.474 188.22 176.188C187.875 172.159 184.504 169.064 180.46 169.064C175.99 169.273 172.525 173.047 172.698 177.518Z" fill="#263238"></path><path d="M208.089 176.312C210.159 178.299 211.543 180.894 212.04 183.72C212.04 185.769 209.25 187.251 209.25 187.251L205.842 182.782V186.708C200.262 186.096 197.035 183.133 195.125 178.856L198.236 173.3C198.236 173.3 206.237 174.707 208.089 176.312Z" fill="#263238"></path><path d="M181.497 182.009C181.017 184.232 179.702 186.263 177.871 187.611C178.856 187.693 179.866 187.45 180.706 186.927C180.666 187.73 180.488 188.526 180.181 189.269C182.439 187.389 183.773 184.447 183.696 181.509L181.497 182.009Z" fill="#263238"></path><path d="M291.717 384.752L282.381 385.019C282.381 385.019 265.716 352.935 257.713 334.942C248.257 313.681 250.339 306.834 247.503 306.71C242.267 306.481 188.835 331.048 175.45 317.423C162.065 303.798 181.428 270.962 181.428 270.962C181.428 270.962 211.253 266.356 213.686 273.632C214.282 275.782 215.581 278.004 215.894 280.213C216.254 282.395 216.98 285.619 216.98 285.619C217.687 285.442 238.127 283.464 250.814 283.754C258.457 283.929 265.265 288.571 268.306 295.585C279.774 322.031 291.717 384.752 291.717 384.752Z" fill="#263238"></path><path d="M197.664 320.705C197.664 320.705 199.846 320.705 233.663 319.178C233.663 319.178 229.02 330.143 227.728 352.726C227.196 362.015 228.679 392.105 227.516 405.421C228.105 406.252 234.32 409.005 238.11 406.223C238.11 406.223 260.051 327.043 259.833 316.298C259.615 305.553 247.157 302.389 247.157 302.389C247.157 302.389 223.158 316.298 197.664 320.705Z" fill="#263238"></path><path opacity="0.2" d="M229.118 311.847C233.747 309.981 238.294 307.922 242.749 305.676C250.478 301.779 259.982 306.793 260.708 315.419C260.732 315.706 260.748 315.999 260.755 316.298C260.864 320.662 256.969 337.025 251.394 354.818C251.538 353.765 251.739 352.719 251.994 351.687C257.525 329.466 260.296 317.924 257.525 312.546C255.661 309.205 252.702 306.608 249.147 305.193L218.929 319.92C202.282 320.651 199.795 320.684 199.5 320.684C209.652 318.775 219.579 315.813 229.118 311.847Z" fill="black"></path><path d="M239.693 401.729C239.73 401.249 239.318 400.851 238.837 400.851H235.993C235.275 400.834 234.494 402.115 234.056 402.684C232.166 405.138 230.814 404.161 228.88 401.764C227.619 401.586 227.243 403.03 227.13 403.417L224.55 411.987C224.327 412.703 224.725 413.464 225.441 413.687C225.568 413.727 225.701 413.748 225.834 413.749C229.687 413.842 231.51 413.886 236.305 414.002L250.97 414.356C254.968 414.452 255.894 410.444 254.256 410.031C246.89 408.216 241.699 405.91 239.462 403.701C239.15 403.408 239.625 402.609 239.693 401.729Z" fill="#407BFF"></path><path d="M240.955 404.616C239.859 404.739 238.829 405.367 238.219 406.286" stroke="white" stroke-width="0.5" stroke-miterlimit="10" stroke-linecap="round" stroke-linejoin="round"></path><path d="M243.013 405.895C241.916 406.018 240.887 406.646 240.277 407.566" stroke="white" stroke-width="0.5" stroke-miterlimit="10" stroke-linecap="round" stroke-linejoin="round"></path><path d="M245.56 407.202C244.464 407.325 243.434 407.953 242.824 408.872" stroke="white" stroke-width="0.5" stroke-miterlimit="10" stroke-linecap="round" stroke-linejoin="round"></path><path d="M291.265 378.497L288.279 379.573C287.604 379.816 287.102 380.383 286.899 381.072C286.025 384.044 284.411 383.621 281.741 382.086C280.501 382.376 280.673 383.858 280.708 384.26L281.402 393.183C281.453 393.931 282.1 394.496 282.848 394.446C282.981 394.437 283.112 394.409 283.237 394.361C286.863 393.054 288.578 392.436 293.091 390.809L306.892 385.835C310.654 384.479 310.067 380.407 308.391 380.614C300.868 381.586 295.194 381.314 292.309 380.063C291.781 379.854 292.095 379.44 291.265 378.497Z" fill="#407BFF"></path><path d="M294.166 380.454C293.188 380.965 292.456 381.923 292.219 383.001" stroke="white" stroke-width="0.5" stroke-miterlimit="10" stroke-linecap="round" stroke-linejoin="round"></path><path d="M296.525 380.782C295.547 381.293 294.815 382.251 294.578 383.329" stroke="white" stroke-width="0.5" stroke-miterlimit="10" stroke-linecap="round" stroke-linejoin="round"></path><path d="M299.26 381.124C298.282 381.635 297.55 382.593 297.312 383.671" stroke="white" stroke-width="0.5" stroke-miterlimit="10" stroke-linecap="round" stroke-linejoin="round"></path><path d="M222.328 285.071L218.036 285.484C218.036 285.484 217.683 282.533 217.323 280.351C217.01 278.142 214.583 270.715 213.988 268.565C201.708 269.784 180.875 269.046 180.875 269.046C180.875 269.046 162.074 303.819 175.437 317.412C183.466 325.561 207.116 320.791 224.627 313.631L222.328 285.071Z" fill="#263238"></path><path opacity="0.3" d="M218.036 284.302L199.207 288.229C199.207 288.229 209.512 282.64 217.323 280.371C217.683 282.597 218.036 284.302 218.036 284.302Z" fill="black"></path><path d="M245.65 240.042C245.754 238.384 240.848 247.869 240.848 247.869L232.562 242.02L239.159 235.385C239.159 235.385 245.856 239.758 245.754 239.9" fill="#B97964"></path><path d="M212.394 218.57C216.832 220.745 220.198 224.615 221.765 229.303C224.575 237.711 225.795 247.809 225.795 247.809L236.262 238.487L244.059 244.279C244.059 244.279 233.818 259.799 226.926 265.851C221.203 270.876 214.716 261.128 214.716 261.128L211.898 218.326L212.394 218.57Z" fill="#407BFF"></path><path opacity="0.2" d="M192.163 274.14L189.912 309.429L169.73 307.023V303.396L192.163 274.14Z" fill="black"></path><path d="M182.401 275.022C181.612 266.07 178.433 249.664 172.959 232.435C171.178 226.832 177.541 220.638 177.541 220.638C177.541 220.638 181.648 220.314 182.401 220.23C183.226 220.133 184.074 220.049 184.923 219.977C191.317 219.447 196.552 219.061 202.253 219.387C203.687 219.471 205.157 219.592 206.603 219.712C207.069 219.76 210.095 219.806 210.549 219.854C210.549 219.854 218.746 229.446 219.188 236.217C219.427 240 221.255 241.629 221.052 250.678C221.016 256.823 216.556 265.774 216.15 274.413L182.401 275.022Z" fill="white"></path><path d="M193.576 244.94C193.146 230.891 191.487 221.97 190.733 218.56C190.535 217.664 189.69 217.071 188.779 217.183L183.351 218.326C178.035 219.743 175.184 218.978 172.225 222.929C171.652 223.694 171.172 229.578 171.215 230.385C171.287 231.831 172.291 236.265 173.629 241.614C174.549 245.325 175.637 249.494 176.677 253.422C178.011 258.429 179.124 259.733 179.554 261.338L165.788 301.947C165.4 303.033 166.132 304.195 167.278 304.314L187.036 306.379C188.003 306.48 188.871 305.791 188.987 304.826C189.973 296.58 194.071 261.088 193.576 244.94Z" fill="#407BFF"></path><path d="M219.537 272.465C219.537 272.465 223.684 246.773 222.581 240.343C221.478 233.913 211.897 218.326 211.897 218.326L207.524 218.025L202.348 215.926C202.348 215.926 214.296 230.343 217.23 240.745C219.16 247.585 215.312 269.205 215.756 274.42L217.98 285.216L223.476 284.971L219.537 272.465Z" fill="#407BFF"></path><path d="M189.993 214.968C189.993 214.968 195.367 225.575 193.334 252.266L184.405 233.079L187.637 227.836L183.348 219.266C183.348 219.266 187.936 216.315 189.864 214.755L189.993 214.968Z" fill="#407BFF"></path><g opacity="0.2"><path d="M189.993 214.968C189.993 214.968 195.367 225.575 193.334 252.266L184.405 233.079L187.637 227.836L183.348 219.266C183.348 219.266 187.936 216.315 189.864 214.755L189.993 214.968Z" fill="black"></path></g><path d="M217.507 252.422C217.507 252.422 219.507 246.536 219.141 241.103C218.776 235.671 218.691 231.618 218.691 231.618L212.527 227.063L213.338 221.51C213.338 221.51 210.366 219.685 207.605 217.815C205.718 216.538 202.017 214.605 201.531 214.754C201.531 214.754 217.271 234.673 217.351 242.823C217.427 250.685 217.507 252.422 217.507 252.422Z" fill="#407BFF"></path><path opacity="0.3" d="M217.507 252.422C217.507 252.422 219.507 246.536 219.141 241.103C218.776 235.671 218.691 231.618 218.691 231.618L212.527 227.063L213.338 221.51C213.338 221.51 210.366 219.685 207.605 217.815C205.718 216.538 202.017 214.605 201.531 214.754C201.531 214.754 217.271 234.673 217.351 242.823C217.427 250.685 217.507 252.422 217.507 252.422Z" fill="black"></path><path opacity="0.3" d="M220.535 266.08L222.682 246.265L223.476 266.723C223.476 266.723 221.415 266.621 220.535 266.08Z" fill="black"></path><path d="M205.507 220.067L201.275 214.252L199.26 217.713L190.905 212.68L189.867 214.755L192.835 223.462C192.835 223.462 200.253 226.498 200.646 226.498C201.039 226.498 205.507 220.067 205.507 220.067Z" fill="white"></path><path opacity="0.3" d="M205.7 220.339L203.968 224.623L199.662 220.339L196.731 225.37L192.355 223.226L197.02 226.92L199.719 221.408L204.657 226.059L205.7 220.339Z" fill="black"></path><path opacity="0.3" d="M182.635 260.794L180.947 241.869L179.648 262.479L199.206 270.431L182.635 260.794Z" fill="black"></path><path d="M174.896 220.339C174.896 220.339 168.685 221.863 167.491 228.646C166.297 235.429 164.715 269.337 166.065 271.484C167.415 273.631 205.206 285.784 205.206 285.784L209.252 275.289L180.704 261.479C180.704 261.479 180.937 251.79 181.17 244.24C181.293 240.248 181.416 236.855 181.505 235.808C181.762 232.781 174.896 220.339 174.896 220.339Z" fill="#407BFF"></path><path d="M209.11 275.944C209.11 275.944 220.989 278.796 223.744 281.168C224.966 282.221 224.932 283.943 224.932 283.943L205.695 284.8L209.11 275.944Z" fill="#B97964"></path><path opacity="0.3" d="M174.788 275.398C175.169 275.54 191.509 281.357 191.509 281.357V283.408L173.953 277.861L174.788 275.398Z" fill="black"></path><path opacity="0.2" d="M199.719 221.408C208.62 236.931 208.128 257.119 208.62 274.261" stroke="black" stroke-width="0.5" stroke-miterlimit="10" stroke-linecap="round" stroke-linejoin="round"></path><path d="M239.596 236.357C239.596 236.357 237.983 233.789 238.57 231.352C239.157 228.914 238.976 226.812 239.538 225.03C240.1 223.248 241.099 225.563 241.38 226.903C241.662 228.242 241.995 229.758 242.967 229.383C243.939 229.009 249.586 222.057 250.993 221.691C252.399 221.325 251.837 222.735 251.837 222.735C251.837 222.735 253.254 221.083 254.061 221.467C254.271 221.566 254.597 222.138 254.069 222.992C252.881 224.913 250.182 228.816 250.182 228.816C250.332 228.589 254.009 224.009 254.649 223.395C255.486 222.593 256.289 222.641 256.739 223.141C257.379 223.853 253.014 229.686 253.002 230.061C253.002 230.061 255.402 226.619 256.63 226.752C257.858 226.885 256.465 229.135 254.86 230.885C253.389 232.489 250.923 236.022 249.269 237.507C247.231 239.338 245.452 240.11 243.098 239.08C240.744 238.048 239.596 236.357 239.596 236.357Z" fill="#B97964"></path><path opacity="0.3" d="M251.61 222.914C250.508 224.266 249.467 225.668 248.492 227.115" stroke="black" stroke-width="0.5" stroke-miterlimit="10" stroke-linecap="round" stroke-linejoin="round"></path><path opacity="0.3" d="M252.116 231.429C250.805 229.596 248.943 228.163 246.836 227.363" stroke="black" stroke-width="0.5" stroke-miterlimit="10" stroke-linecap="round" stroke-linejoin="round"></path><path opacity="0.3" d="M243.25 230.47C243.868 231.15 244.239 232.048 244.281 232.966C244.323 233.883 244.035 234.812 243.482 235.545" stroke="black" stroke-width="0.5" stroke-miterlimit="10" stroke-linecap="round" stroke-linejoin="round"></path><path d="M257.201 284.27H226.385C225.853 284.266 225.426 283.918 225.43 283.491C225.431 283.411 225.447 283.331 225.479 283.255L239.188 251.826C239.534 250.928 240.566 250.315 241.737 250.311H272.572C273.093 250.311 273.516 250.651 273.516 251.069C273.516 251.157 273.497 251.244 273.46 251.326L259.751 282.755C259.399 283.649 258.37 284.261 257.201 284.27Z" fill="#263238"></path><path opacity="0.7" d="M272.572 250.31H241.737C240.566 250.314 239.534 250.928 239.188 251.826L225.479 283.255C225.448 283.331 225.431 283.411 225.43 283.491C225.425 283.918 225.853 284.267 226.385 284.27H257.201C258.37 284.261 259.399 283.649 259.75 282.755L273.459 251.326C273.496 251.244 273.515 251.156 273.515 251.069C273.516 250.65 273.093 250.31 272.572 250.31Z" fill="white"></path><path d="M253.474 267.99C252.808 269.498 251.458 270.534 250.452 270.323C249.446 270.112 249.177 268.738 249.824 267.225C250.47 265.713 251.836 264.701 252.842 264.911C253.848 265.123 254.148 266.442 253.474 267.99Z" fill="white"></path><path opacity="0.3" d="M241.92 250.31H241.737C240.566 250.314 239.534 250.928 239.188 251.826L225.479 283.255C225.448 283.331 225.431 283.411 225.43 283.491C225.425 283.918 225.853 284.267 226.385 284.27H227.372L241.92 250.31Z" fill="black"></path><path d="M201.391 284.545V287.09L225.941 284.587L226.309 281.357L201.391 284.545Z" fill="#263238"></path><path opacity="0.7" d="M201.391 284.545V287.09L225.941 284.587L226.309 281.357L201.391 284.545Z" fill="white"></path><path opacity="0.3" d="M134.492 121.59H152.527C154.774 121.59 156.595 119.769 156.595 117.522V105.087C156.595 105.087 141.2 114.943 134.492 121.59Z" fill="black"></path><path opacity="0.2" d="M340.261 175.971C340.261 175.971 337.928 177.171 337.934 179.872C337.941 182.573 341.331 187.19 341.153 188.718C340.974 190.246 340.796 194.843 342.402 196.827C344.008 198.811 352.141 200.454 352.133 200.396C352.126 200.338 351.225 194.71 350.112 188.717C349.001 182.725 340.261 175.971 340.261 175.971Z" fill="black"></path><path d="M100.608 275.944C86.2361 292.756 82.0381 317.641 90.1011 338.237C99.0591 330.242 105.367 318.055 105.766 307.396C106.165 296.736 103.375 286.245 100.608 275.944Z" fill="#407BFF"></path><path d="M98.102 340.179C93.225 347.651 90.891 356.751 91.568 365.648C99.338 362.943 106.187 354.167 110.293 347.038C114.399 339.909 116.695 331.902 118.785 323.945C110.368 326.907 102.978 332.707 98.102 340.179Z" fill="#407BFF"></path><path d="M96.2314 305.282C90.4564 326.053 87.5104 347.591 87.5314 369.152C87.5374 375.267 87.7864 381.38 88.2634 387.476C88.3004 387.954 89.0514 387.958 89.0134 387.476C87.3324 365.968 88.5824 344.257 92.7644 323.091C93.9344 317.17 95.3384 311.297 96.9544 305.482C97.0834 305.015 96.3604 304.816 96.2314 305.282Z" fill="#263238"></path><path d="M88.5778 372.698C94.4778 358.663 102.229 345.518 111.187 333.225C111.472 332.834 110.821 332.46 110.539 332.846C101.539 345.196 93.7818 358.398 87.8548 372.498C87.6678 372.943 88.3928 373.137 88.5778 372.698Z" fill="#263238"></path><path d="M80.1376 351.822C84.2036 358.053 86.1506 365.64 85.5856 373.059C79.1066 370.804 73.3956 363.486 69.9716 357.541C66.5476 351.597 64.6326 344.92 62.8906 338.285C69.9096 340.755 76.0706 345.592 80.1376 351.822Z" fill="#407BFF"></path><path d="M88.4033 377.954C83.5573 366.436 77.1663 355.763 69.8163 345.677C69.5343 345.291 68.8833 345.665 69.1683 346.056C76.4763 356.084 82.8613 366.7 87.6793 378.154C87.8643 378.592 88.5913 378.399 88.4033 377.954Z" fill="#263238"></path><path d="M88.6105 381.855C97.7535 372.449 107.088 363.233 116.231 353.827C116.568 353.481 116.038 352.95 115.701 353.297C106.558 362.703 97.2235 371.919 88.0805 381.325C87.7435 381.671 88.2735 382.202 88.6105 381.855Z" fill="#263238"></path><path d="M116.52 349.45C108.588 357.099 101.361 365.48 94.9609 374.45H96.4119C102.449 374.167 108.31 371.189 112.097 366.479C115.884 361.769 117.539 355.407 116.52 349.45Z" fill="#407BFF"></path><path d="M78.9012 331.248C82.3072 336.818 85.5162 342.505 88.5222 348.3C88.7442 348.729 89.3922 348.35 89.1702 347.921C86.1642 342.126 82.9552 336.439 79.5492 330.869C79.2972 330.458 78.6482 330.834 78.9012 331.248Z" fill="#263238"></path><path d="M70.7563 303.086C69.4573 308.928 68.1693 316.525 68.1563 322.609C68.1433 328.693 69.9993 334.629 73.4563 338.705C76.9133 342.781 83.8913 344.567 86.7053 342.234L70.7563 303.086Z" fill="#407BFF"></path><path d="M105.228 384.516H70.5781V390.938H105.228V384.516Z" fill="#263238"></path><path d="M99.6174 413.813H78.1014L74.1914 389.465H102.706L99.6174 413.813Z" fill="#263238"></path><path opacity="0.2" d="M74.4453 391.057H102.502L102.153 393.813H74.8873L74.4453 391.057Z" fill="black"></path><path d="M147.651 117.242H79.2329C76.5069 117.242 74.2969 115.032 74.2969 112.306V56.3442C74.2969 53.6182 76.5069 51.4082 79.2329 51.4082H147.651C150.377 51.4082 152.587 53.6182 152.587 56.3442V112.306C152.587 115.032 150.377 117.242 147.651 117.242Z" fill="#407BFF"></path><path opacity="0.5" d="M147.651 117.242H79.2329C76.5069 117.242 74.2969 115.032 74.2969 112.306V56.3442C74.2969 53.6182 76.5069 51.4082 79.2329 51.4082H147.651C150.377 51.4082 152.587 53.6182 152.587 56.3442V112.306C152.587 115.032 150.377 117.242 147.651 117.242Z" fill="white"></path><path d="M152.587 62.8882H74.2969V56.0352C74.2969 53.4802 76.3679 51.4082 78.9239 51.4082H148.042C150.553 51.4082 152.588 53.4432 152.588 55.9542V62.8882H152.587Z" fill="#407BFF"></path><path opacity="0.5" d="M148.164 57.9855C148.164 59.3695 147.042 60.4915 145.658 60.4915C144.274 60.4915 143.152 59.3695 143.152 57.9855C143.152 56.6015 144.274 55.4795 145.658 55.4795C147.042 55.4795 148.164 56.6015 148.164 57.9855Z" fill="white"></path><path opacity="0.5" d="M141.043 57.9855C141.043 59.3695 139.921 60.4915 138.537 60.4915C137.153 60.4915 136.031 59.3695 136.031 57.9855C136.031 56.6015 137.153 55.4795 138.537 55.4795C139.921 55.4795 141.043 56.6015 141.043 57.9855Z" fill="white"></path><path opacity="0.5" d="M133.922 57.9855C133.922 59.3695 132.8 60.4915 131.416 60.4915C130.032 60.4915 128.91 59.3695 128.91 57.9855C128.91 56.6015 130.032 55.4795 131.416 55.4795C132.8 55.4795 133.922 56.6015 133.922 57.9855Z" fill="white"></path><path d="M112.211 89.8825L119.001 71.2295C121.53 72.1505 123.846 73.5755 125.808 75.4195C127.769 77.2635 129.335 79.4865 130.41 81.9545L112.211 89.8825Z" fill="#F5F5F5"></path><path d="M112.21 89.8822L117.996 108.871C116.121 109.442 114.171 109.733 112.21 109.733C101.32 109.733 92.3594 100.772 92.3594 89.8822C92.3594 78.9922 101.32 70.0312 112.21 70.0312C114.494 70.0312 116.761 70.4253 118.911 71.1963L112.21 89.8822Z" fill="#407BFF"></path><path d="M112.211 89.882L130.447 82.04C131.512 84.517 132.062 87.186 132.062 89.882C132.062 98.564 126.367 106.285 118.072 108.848L112.211 89.882Z" fill="#407BFF"></path><path opacity="0.3" d="M112.211 89.882L130.447 82.04C131.512 84.517 132.062 87.186 132.062 89.882C132.062 98.564 126.367 106.285 118.072 108.848L112.211 89.882Z" fill="black"></path><path d="M388.319 156.035C384.963 156.708 383.633 159.405 380.266 166.438C376.023 175.303 369.837 191.285 368.436 191.419C366.466 191.607 341.284 181.793 341.284 181.793L337.367 186.219C337.367 186.219 350.556 203.856 371.434 209.455C375.185 210.462 379.92 206.213 384.435 200.404C385.32 199.275 386.183 198.081 387.046 196.852C391.692 189.966 395.858 182.768 399.516 175.31L388.319 156.035Z" fill="#407BFF"></path><path opacity="0.2" d="M387.262 167.283C386.289 171.584 384.01 178.041 382.211 182.624C381.629 184.107 381.373 185.714 381.643 187.284C382.42 191.807 383.485 195.612 384.785 199.217C385.512 201.33 388.776 201.177 388.877 203.409C389.762 202.28 390.625 201.085 391.488 199.857L393.413 192.245L387.262 167.283Z" fill="black"></path><path d="M372.62 194.87C373.796 194.537 374.479 193.314 374.146 192.138L365.726 156.732C365.226 155.054 363.713 153.88 361.963 153.811L334.978 153.247C334.685 153.211 334.387 153.233 334.103 153.314C332.927 153.647 332.244 154.87 332.577 156.046L340.997 191.452C341.496 193.132 343.008 194.31 344.759 194.384L371.745 194.937C372.038 194.974 372.336 194.951 372.62 194.87Z" fill="#263238"></path><path opacity="0.2" d="M372.62 194.87C373.796 194.537 374.479 193.314 374.146 192.138L365.726 156.732C365.226 155.054 363.713 153.88 361.963 153.811L334.978 153.247C334.685 153.211 334.387 153.233 334.103 153.314C332.927 153.647 332.244 154.87 332.577 156.046L340.997 191.452C341.496 193.132 343.008 194.31 344.759 194.384L371.745 194.937C372.038 194.974 372.336 194.951 372.62 194.87Z" fill="white"></path><path d="M369.852 194.814C371.028 194.482 371.712 193.259 371.38 192.083L362.96 156.677C362.459 155.002 360.955 153.827 359.209 153.745L332.212 153.192C331.919 153.156 331.621 153.179 331.337 153.259C330.161 153.592 329.478 154.815 329.811 155.991L338.242 191.397C338.743 193.072 340.247 194.247 341.993 194.329L368.99 194.882C369.279 194.916 369.572 194.893 369.852 194.814Z" fill="#263238"></path><path opacity="0.3" d="M369.852 194.814C371.028 194.482 371.712 193.259 371.38 192.083L362.96 156.677C362.459 155.002 360.955 153.827 359.209 153.745L332.212 153.192C331.919 153.156 331.621 153.179 331.337 153.259C330.161 153.592 329.478 154.815 329.811 155.991L338.242 191.397C338.743 193.072 340.247 194.247 341.993 194.329L368.99 194.882C369.279 194.916 369.572 194.893 369.852 194.814Z" fill="white"></path><path opacity="0.2" d="M347.099 171.463C347.205 170.346 348.197 169.526 349.314 169.632C350.896 169.719 352.247 170.806 352.669 172.333C352.744 172.586 352.769 172.85 352.743 173.113C352.631 174.221 351.641 175.028 350.534 174.915C348.952 174.831 347.599 173.747 347.171 172.222C347.099 171.976 347.075 171.718 347.099 171.463Z" fill="white"></path><path d="M336.371 175.63C336.902 175.586 339.159 176.703 340.221 175.962C341.283 175.221 340.287 174.612 340.287 174.612C338.34 174.136 336.204 171.702 335.02 172.399C333.836 173.096 331.878 173.97 332.165 175.077C332.49 176.101 332.882 177.103 333.338 178.076C333.029 178.569 332.988 179.184 333.227 179.714C333.47 180.326 334.008 180.771 334.654 180.898C334.283 181.273 334.09 181.788 334.123 182.314C334.211 183.155 336.424 184.261 336.424 184.261C336.424 184.261 335.992 185.577 336.501 186.087C337.365 186.798 338.513 187.06 339.599 186.795C340.894 186.485 341.779 186.043 341.69 184.737C341.601 183.431 339.267 183.431 339.267 183.431C339.267 183.431 343.649 182.103 342.719 181.273C341.79 180.443 338.293 180.543 338.293 180.543C338.293 180.543 344.224 179.37 343.283 178.153C342.342 176.936 336.434 177.268 336.434 177.268C336.434 177.268 335.84 175.674 336.371 175.63Z" fill="#E9B376"></path><path d="M386.794 385.679L389.317 407.163L381.609 408.229L373.504 388.039L386.794 385.679Z" fill="#E9B376"></path><path d="M375.489 402.97C375.368 401.659 375.461 400.565 376.995 400.486L379.167 400.374C379.988 400.374 380.575 400.877 381.233 401.297C386.212 404.474 388.255 400.372 390.187 400.374C392.67 400.372 391.072 407.652 391.19 408.034L393.903 416.482C394.139 417.188 393.662 418.711 392.838 418.912C392.691 418.948 392.539 418.965 392.387 418.963C387.98 418.963 385.894 418.963 380.409 418.963H363.632C359.059 418.963 359.006 413.826 360.89 413.461C369.361 411.859 372.703 409.316 375.494 407.457C375.494 407.457 375.675 404.986 375.489 402.97Z" fill="#407BFF"></path><path opacity="0.4" d="M363.633 418.963H380.41C385.896 418.963 387.981 418.963 392.388 418.963C392.54 418.965 392.693 418.948 392.839 418.912C393.399 418.775 393.791 418.03 393.916 417.344L393.904 416.701H359.961C360.413 417.896 361.55 418.963 363.633 418.963Z" fill="white"></path><path d="M370.999 410.568C371.349 410.864 371.673 411.189 371.964 411.544C371.999 411.586 372.033 411.629 372.066 411.672C372.041 411.641 372.061 411.665 372.074 411.682C372.092 411.706 372.11 411.73 372.128 411.755C372.196 411.847 372.262 411.941 372.326 412.036C372.453 412.225 372.569 412.421 372.678 412.621C372.771 412.794 373.025 412.863 373.191 412.756C373.367 412.643 373.425 412.428 373.325 412.243C372.873 411.405 372.256 410.654 371.528 410.039C371.378 409.913 371.143 409.881 370.998 410.039C370.871 410.177 370.839 410.433 370.999 410.568Z" fill="#263238"></path><path d="M373.647 409.096C373.968 409.377 374.269 409.682 374.543 410.009C374.576 410.049 374.609 410.088 374.641 410.129C374.655 410.147 374.67 410.165 374.684 410.183C374.7 410.203 374.731 410.244 374.699 410.202C374.761 410.284 374.822 410.366 374.881 410.45C375.005 410.626 375.122 410.807 375.232 410.993C375.332 411.162 375.574 411.238 375.745 411.127C375.915 411.017 375.986 410.795 375.88 410.614C375.426 409.847 374.848 409.153 374.178 408.566C374.03 408.437 373.791 408.41 373.648 408.566C373.517 408.708 373.489 408.958 373.647 409.096Z" fill="#263238"></path><path d="M375.6 407.875C375.754 407.952 375.901 408.04 376.042 408.138C376.077 408.162 376.111 408.188 376.145 408.214C376.182 408.242 376.082 408.163 376.134 408.205C376.152 408.22 376.169 408.234 376.187 408.249C376.252 408.303 376.315 408.36 376.376 408.418C376.436 408.476 376.494 408.537 376.55 408.6C376.575 408.628 376.6 408.657 376.624 408.687C376.638 408.704 376.652 408.724 376.667 408.74C376.657 408.727 376.647 408.713 376.636 408.7C376.645 408.712 376.655 408.724 376.664 408.736C376.763 408.869 376.849 409.009 376.925 409.156C377.016 409.33 377.274 409.397 377.438 409.29C377.616 409.176 377.671 408.963 377.574 408.777C377.227 408.11 376.648 407.563 375.979 407.227C375.804 407.139 375.565 407.175 375.466 407.361C375.375 407.532 375.412 407.781 375.6 407.875Z" fill="#263238"></path><path d="M375.79 405.242C375.986 405.244 376.182 405.254 376.376 405.274C376.537 405.29 376.669 405.309 376.857 405.345C377.226 405.416 377.587 405.52 377.938 405.654C378.122 405.724 378.357 405.577 378.399 405.392C378.448 405.178 378.334 405.006 378.137 404.931C377.389 404.646 376.589 404.502 375.789 404.493C375.593 404.491 375.405 404.667 375.414 404.868C375.424 405.073 375.579 405.24 375.79 405.242Z" fill="#263238"></path><g opacity="0.3"><path d="M383.886 405.514C383.93 406.269 384.22 407.097 384.95 407.447C385.403 407.664 385.939 407.655 386.449 407.642C387.975 407.602 389.501 407.561 391.027 407.52L391.046 407.48C391.287 405.492 391.934 400.64 390.042 400.642C388.553 400.64 386.99 403.426 383.877 402.613C383.902 403.665 383.856 405.006 383.886 405.514Z" fill="black"></path></g><path d="M362.99 318.949C364.362 306.524 381.676 240.581 381.676 240.581L403.688 240.046L437.554 239.089C437.554 239.089 439.51 256.764 439.535 279.912C439.535 279.912 437.896 378.743 436.555 402.265L417.956 402.983C415.842 384.5 413.043 326.834 413.043 326.834C411.768 316.386 410.618 285.546 409.704 276.74C409.324 274.791 408.951 272.827 408.588 270.871C404.976 280.422 388.398 321.285 387.118 327.144L393.92 404.866L373.915 404.101C373.914 404.103 361.618 331.374 362.99 318.949Z" fill="#263238"></path><path d="M393.315 243.144C391.276 249.487 385.825 254.582 379.101 256.434C378.738 256.534 378.893 257.072 379.257 256.971C386.18 255.064 391.784 249.821 393.882 243.292C393.993 242.949 393.425 242.802 393.315 243.144Z" fill="black"></path><path d="M410.184 244.073C409.787 249.622 409.399 255.18 409.002 260.729C408.983 261.087 408.397 261.087 408.416 260.729C408.624 257.883 408.822 255.028 409.021 252.172C407.574 253.228 405.882 251.948 405.409 250.534C404.634 248.243 404.927 245.522 405.532 243.231C405.627 242.882 406.194 243.034 406.099 243.374C405.673 244.985 405.494 246.632 405.617 248.288C405.674 249.129 405.759 250.096 406.175 250.866C406.638 251.725 407.811 252.45 408.747 251.672C408.851 251.591 408.964 251.582 409.059 251.627C409.239 249.112 409.418 246.588 409.598 244.073C409.616 243.715 410.202 243.715 410.184 244.073Z" fill="black"></path><path d="M423.981 243.051C423.898 250.407 429.881 256.568 437.617 257.146C437.988 257.174 437.986 256.626 437.617 256.599C430.194 256.044 424.48 250.091 424.559 243.051C424.564 242.699 423.985 242.698 423.981 243.051Z" fill="black"></path><path d="M421.172 386.72L424.448 408.77L432.282 409.134L434.818 387.876L421.172 386.72Z" fill="#263238"></path><path d="M438.954 419.008H421.432C421.432 419.008 421.05 418.333 421.487 416.535C421.554 416.255 421.641 415.947 421.754 415.612C421.76 415.595 421.764 415.579 421.77 415.562C421.934 415.065 422.122 414.453 422.322 413.792C423.125 411.101 423.671 404.91 423.671 404.91C423.671 404.91 426.984 401.859 430.395 403.289C433.387 404.543 432.922 406.133 432.922 406.133C432.922 406.133 432.97 410.239 435.239 412.097C436.642 413.245 438.037 414.134 438.708 415.562C438.833 415.829 438.932 416.113 439.003 416.421C439.011 416.458 439.019 416.497 439.025 416.536C439.164 417.224 439.156 418.031 438.954 419.008Z" fill="#407BFF"></path><path opacity="0.4" d="M421.483 416.535C421.046 418.332 421.428 419.008 421.428 419.008H438.95C439.152 418.031 439.16 417.224 439.021 416.535H421.483Z" fill="white"></path><path d="M431.968 409.033C430.983 408.329 429.69 408.42 428.803 409.213C428.565 409.426 428.199 409.091 428.437 408.877C429.543 407.887 431.123 407.832 432.333 408.697C432.596 408.885 432.227 409.218 431.968 409.033Z" fill="#263238"></path><path d="M432.464 410.534C431.478 409.83 430.185 409.921 429.299 410.714C429.061 410.927 428.695 410.592 428.933 410.379C430.039 409.389 431.619 409.334 432.829 410.199C433.092 410.386 432.724 410.719 432.464 410.534Z" fill="#263238"></path><path d="M432.96 411.914C431.974 411.209 430.681 411.301 429.795 412.094C429.557 412.307 429.191 411.972 429.429 411.759C430.535 410.769 432.115 410.714 433.325 411.579C433.588 411.766 433.22 412.099 432.96 411.914Z" fill="#263238"></path><path d="M381.82 235.438C378.7 240.563 378.7 244.679 381.674 245.728C381.674 245.728 408.703 250.311 436.351 247.17C443.008 247.537 439.75 241.366 439.75 241.366L439.898 156.035C418.888 151.575 393.467 155.697 388.321 156.035L381.82 235.438Z" fill="#407BFF"></path><path opacity="0.2" d="M439.812 205.653V177.43C439.812 177.43 443.949 206.356 441.866 213.532L439.812 205.653Z" fill="black"></path><path d="M401.629 118.283C401.629 118.283 391.421 112.535 397.48 106.369C402.26 101.506 406.487 102.215 412.881 103.379C428.549 106.232 427.637 112.761 427.637 112.761L401.629 118.283Z" fill="#263238"></path><path d="M421.583 151.158C421.583 151.158 420.745 145.148 424.264 134.731C424.264 134.72 423.719 134.449 423.719 134.438C424.205 132.981 424.713 131.637 425.188 130.473C425.199 130.439 425.199 130.428 425.199 130.428L410.379 138.719C410.571 142.108 409.076 148.575 408.234 151.296C408.234 151.296 406.195 156.203 412.818 156.71C417.657 157.079 421.583 151.158 421.583 151.158Z" fill="#E9B376"></path><path opacity="0.2" d="M409.923 143.451L418.311 141.94C417.445 144.49 415.026 147.453 409.234 147.451C409.234 147.451 409.936 144.585 409.923 143.451Z" fill="black"></path><path d="M425.612 123.421C424.241 132.528 423.651 137.692 418.605 141.941C411.016 148.331 400.32 143.264 398.94 133.903C397.698 125.477 400.149 111.999 409.445 109.235C418.603 106.51 426.983 114.314 425.612 123.421Z" fill="#E9B376"></path><path d="M427.746 112.513C416.565 101.744 405.191 107.785 400.836 113.689L420.344 113.92C421.197 113.905 421.68 114.793 421.495 116.417C421.495 116.417 414.732 128.545 424.055 135.352C427.39 134.075 428.068 128.527 429.369 125.303C431.306 120.498 433.754 113.428 427.746 112.513Z" fill="#263238"></path><path d="M428.554 131.374C427.614 133.667 425.698 135.301 423.802 136.043C420.949 137.159 420.195 134.081 420.708 131.219C421.17 128.643 422.208 125.547 425.205 125.654C428.158 125.76 429.629 128.752 428.554 131.374Z" fill="#E9B376"></path><path d="M411.465 125.147C411.382 126.084 410.818 126.795 410.205 126.735C409.592 126.675 409.162 125.866 409.245 124.929C409.328 123.992 409.892 123.281 410.504 123.341C411.117 123.401 411.547 124.21 411.465 125.147Z" fill="#263238"></path><path d="M402.714 124.706C402.631 125.643 402.067 126.354 401.455 126.294C400.842 126.234 400.412 125.425 400.495 124.488C400.578 123.551 401.142 122.84 401.754 122.901C402.367 122.961 402.797 123.769 402.714 124.706Z" fill="#263238"></path><path d="M406.101 124.022C406.101 124.022 402.723 128.416 401.605 130.228C402.805 131.521 405.1 131.177 405.1 131.177L406.101 124.022Z" fill="#D58745"></path><path d="M414.952 120.692C414.805 120.737 414.639 120.705 414.517 120.591C413.075 119.246 411.494 119.606 411.478 119.61C411.242 119.667 411.002 119.521 410.943 119.286C410.884 119.05 411.029 118.813 411.264 118.756C411.347 118.736 413.329 118.284 415.118 119.953C415.297 120.12 415.307 120.397 415.141 120.573C415.088 120.632 415.022 120.671 414.952 120.692Z" fill="#263238"></path><path d="M407.906 134.434C409.425 134.58 410.671 133.926 411.948 132.898" stroke="#263238" stroke-width="0.75" stroke-miterlimit="10" stroke-linecap="round" stroke-linejoin="round"></path><path opacity="0.2" d="M426.69 128.658C426.369 128.079 425.635 127.811 424.98 127.912C424.326 128.013 423.754 128.424 423.316 128.92C422.791 129.516 422.425 130.252 422.266 131.031" stroke="black" stroke-width="0.5" stroke-miterlimit="10" stroke-linecap="round" stroke-linejoin="round"></path><path d="M399.358 119.965C399.278 119.94 399.204 119.892 399.147 119.822C398.993 119.633 399.019 119.354 399.205 119.2C401.078 117.654 403.008 118.267 403.098 118.283C403.329 118.358 403.458 118.606 403.386 118.838C403.314 119.069 403.07 119.197 402.84 119.125C402.761 119.096 401.268 118.644 399.765 119.884C399.648 119.983 399.494 120.008 399.358 119.965Z" fill="#263238"></path><path opacity="0.3" d="M430.748 121.498L419.555 121.773C419.555 121.773 419.955 119.88 420.756 117.988H431.498C431.498 117.988 431.423 119.334 430.748 121.498Z" fill="white"></path><g opacity="0.2"><path d="M412.684 130.78C413.492 131.654 413.923 132.864 413.85 134.052C413.85 134.052 414.393 133.111 414.153 132.117C413.912 131.122 412.684 130.78 412.684 130.78Z" fill="black"></path></g><path d="M408.569 148.733L402.797 153.926L412.433 165.61L426.353 153.874L422.227 147.808L413.526 155.075L408.569 148.733Z" fill="#407BFF"></path><path opacity="0.8" d="M408.569 148.733L402.797 153.926L412.433 165.61L426.353 153.874L422.227 147.808L413.526 155.075L408.569 148.733Z" fill="white"></path><path opacity="0.2" d="M439.532 217.685V227.716C439.532 227.716 417.339 221.238 404.264 209.547C394.955 201.223 396.411 197.717 396.411 197.717L406.955 198.735L439.532 217.685Z" fill="black"></path><path opacity="0.2" d="M432.57 179.872L433.988 203.453C437.926 205.958 440.533 202.486 441.132 198.898V192.109L432.57 179.872Z" fill="black"></path><path d="M432.543 181.389C432.543 181.389 439.673 199.995 437.892 201.123C436.111 202.251 407.11 196.759 407.11 196.759L402.629 203.187C403.592 207.414 452.65 234.041 456.655 211.768C458.741 200.174 450.662 172.795 447.61 164.287C446.756 161.905 442.456 156.818 440.034 156.084C439.125 155.808 438.253 155.722 437.533 155.857C428.263 157.593 432.543 181.389 432.543 181.389Z" fill="#407BFF"></path><path d="M402.204 203.812C398.843 204.078 398.725 199.015 396.976 198.816C395.959 198.718 394.962 198.464 394.022 198.064C394.022 198.064 395.129 201.107 394.022 200.863C392.916 200.62 389.364 200.442 388.49 197.544C387.616 194.645 390.78 188.449 391.5 187.586C392.219 186.723 396.003 186.988 396.003 186.988C396.003 186.988 391.931 185.937 389.696 185.627C387.461 185.317 387.037 182.763 390.155 183.328C391.436 183.56 401.546 183.635 402.641 184.676C403.736 185.716 407.797 195.937 407.797 195.937C409.303 196.8 405.479 205.372 402.204 203.812Z" fill="#E9B376"></path><g opacity="0.3"><path d="M396.043 186.669C397.08 186.597 398.122 186.664 399.141 186.868C399.294 186.91 399.385 187.068 399.343 187.221C399.307 187.355 399.18 187.444 399.041 187.432C398.076 187.239 397.091 187.172 396.109 187.233C395.745 187.233 395.678 186.691 396.043 186.669Z" fill="black"></path><path d="M390.83 189.734C390.509 189.9 390.177 189.435 390.498 189.269C392.39 188.262 394.382 188.826 396.296 189.468C396.639 189.579 396.396 190.099 396.053 189.988C394.371 189.424 392.512 188.882 390.83 189.734Z" fill="black"></path><path d="M389.35 192.234C390.982 191.259 392.995 191.172 394.705 192.002C394.839 192.087 394.88 192.264 394.795 192.399C394.727 192.507 394.596 192.557 394.473 192.522C392.943 191.776 391.142 191.843 389.671 192.699C389.361 192.887 389.029 192.422 389.35 192.234Z" fill="black"></path><path d="M392.067 196.478C391.921 196.181 391.803 195.87 391.723 195.543C391.645 195.189 392.177 194.99 392.265 195.344C392.501 196.433 393.178 197.374 394.135 197.944C394.456 198.121 394.213 198.641 393.903 198.464H393.936C393.335 198.125 392.835 197.652 392.445 197.1C392.407 197.102 392.374 197.12 392.331 197.103C391.736 196.894 391.074 197.07 390.66 197.546C390.417 197.823 389.985 197.457 390.229 197.181C390.694 196.645 391.384 196.402 392.067 196.478Z" fill="black"></path></g></svg>