<svg xmlns="http://www.w3.org/2000/svg" width="500" height="450" viewBox="0 0 500 450" fill="none"><rect width="500" height="450" rx="24" fill="white"></rect><path d="M450.238 403.829C502.854 363.821 526.287 252.884 440.854 198.485C384.295 162.478 349.118 183.019 285.49 159.198C207.813 130.126 196.235 42.2895 101.751 85.5098C51.6946 108.4 16.9943 172.914 10.8896 246.237C4.90677 318.042 30.3559 367.311 82.362 401.026C204.489 406.222 326.86 405.28 450.238 403.829Z" fill="#DFF3FC"></path><path d="M234.084 88.2776C226.137 120.186 255.649 151.773 286.74 164.869C317.832 177.975 353.485 176.413 386.793 170.165C401.166 167.472 415.94 163.683 427.104 154.521C438.27 145.358 444.743 129.448 438.623 116.596C433.223 105.262 420.077 99.4566 407.544 96.4763C395.011 93.496 381.699 92.2772 370.533 86.0064C359.946 80.0568 352.435 70.2073 343.228 62.4075C326.214 48.0155 302.315 40.8804 280.196 45.434C258.066 49.9876 240.839 61.1555 234.084 88.2776Z" fill="#DFF3FC"></path><path d="M472.13 235.04V210.901H462.976C461.877 206.681 460.201 202.701 458.054 199.035L464.526 192.552L447.455 175.482L440.973 181.954C437.308 179.807 433.328 178.132 429.107 177.032V167.879H404.967V177.032C400.747 178.132 396.767 179.807 393.101 181.954L386.619 175.482L369.548 192.552L376.02 199.035C373.873 202.7 372.208 206.68 371.098 210.901H361.945V235.04H371.098C372.208 239.261 373.873 243.24 376.02 246.906L369.548 253.389L386.619 270.46L393.101 263.987C396.766 266.134 400.746 267.8 404.967 268.91V278.062H429.107V268.91C433.327 267.8 437.307 266.134 440.973 263.987L447.455 270.46L464.526 253.389L458.054 246.906C460.201 243.241 461.876 239.262 462.976 235.04H472.13ZM417.045 243.885C405.491 243.885 396.124 234.517 396.124 222.964C396.124 211.423 405.491 202.056 417.045 202.056C428.586 202.056 437.952 211.423 437.952 222.964C437.952 234.519 428.586 243.885 417.045 243.885Z" fill="#A2C7EB"></path><path d="M399.187 295.524L394.595 283.552L390.056 285.294C388.708 283.411 387.12 281.755 385.357 280.346L387.334 275.9L375.621 270.682L373.637 275.124C371.412 274.757 369.119 274.684 366.817 274.941L365.075 270.401L353.104 274.994L354.846 279.533C352.962 280.881 351.307 282.469 349.898 284.232L345.452 282.255L340.233 293.968L344.676 295.951C344.309 298.177 344.241 300.468 344.492 302.772L339.953 304.513L344.545 316.485L349.085 314.743C350.439 316.625 352.021 318.282 353.783 319.691L351.807 324.137L363.52 329.355L365.503 324.913C367.729 325.28 370.02 325.348 372.323 325.096L374.065 329.636L386.036 325.043L384.295 320.504C386.177 319.15 387.833 317.568 389.243 315.805L393.689 317.782L398.907 306.069L394.464 304.086C394.832 301.86 394.905 299.568 394.648 297.265L399.187 295.524ZM373.552 310.391C367.823 312.589 361.395 309.726 359.197 303.996C357.001 298.272 359.864 291.845 365.594 289.647C371.317 287.451 377.745 290.315 379.94 296.038C382.139 301.767 379.276 308.195 373.552 310.391Z" stroke="#A2C7EB" stroke-miterlimit="10"></path><path d="M359.964 253.533L356.86 245.444L353.794 246.62C352.883 245.347 351.809 244.229 350.618 243.277L351.953 240.272L344.038 236.746L342.698 239.749C341.193 239.501 339.644 239.451 338.089 239.625L336.912 236.558L328.823 239.661L330 242.728C328.727 243.639 327.609 244.712 326.656 245.902L323.651 244.567L320.126 252.482L323.128 253.823C322.88 255.327 322.834 256.875 323.004 258.432L319.938 259.609L323.041 267.698L326.108 266.521C327.023 267.793 328.092 268.912 329.283 269.865L327.948 272.869L335.863 276.395L337.203 273.392C338.708 273.64 340.256 273.687 341.812 273.516L342.989 276.583L351.078 273.48L349.901 270.413C351.173 269.499 352.292 268.429 353.244 267.239L356.249 268.574L359.774 260.659L356.772 259.318C357.02 257.814 357.07 256.265 356.896 254.709L359.964 253.533ZM342.642 263.577C338.771 265.062 334.428 263.127 332.942 259.256C331.459 255.388 333.393 251.046 337.264 249.561C341.131 248.077 345.474 250.012 346.958 253.879C348.444 257.751 346.509 262.094 342.642 263.577Z" stroke="#A2C7EB" stroke-miterlimit="10"></path><path d="M357.146 111.908C357.146 124.037 351.477 134.849 342.657 141.836C336.162 146.99 327.95 150.048 319.005 150.048C310.083 150.048 301.87 146.99 295.353 141.836C286.521 134.849 280.863 124.037 280.863 111.908C280.863 90.8437 297.941 73.7661 319.005 73.7661C340.069 73.7661 357.146 90.8437 357.146 111.908Z" fill="#0097D8" stroke="#0097D8" stroke-miterlimit="10"></path><path d="M320.544 111.754C327.388 110.91 332.251 104.678 331.406 97.8346C330.562 90.9915 324.329 86.1288 317.485 86.9735C310.642 87.8182 305.778 94.0504 306.623 100.893C307.468 107.737 313.7 112.599 320.544 111.754Z" fill="white"></path><path d="M342.656 137.026C336.161 142.18 327.949 145.239 319.004 145.239C310.081 145.239 301.868 142.181 295.352 137.026C297.791 126.293 300.036 117.027 302.373 114.68C305.671 111.381 314.433 109.457 318.991 109.457C323.549 109.457 332.724 111.794 334.419 113.489C337.879 116.936 340.858 126.454 342.656 137.026Z" fill="white"></path><path d="M264.191 205.931V187.096C264.191 181.955 268.357 177.79 273.498 177.79H332.839C337.979 177.79 342.145 181.955 342.145 187.096V205.931C342.145 211.072 337.979 215.238 332.839 215.238H273.509C268.368 215.249 264.191 211.072 264.191 205.931Z" fill="#0097D8"></path><path d="M289.253 204.945L260.535 232.92L307.079 209.399" fill="#0097D8"></path><path d="M271.395 186.631V186.531C271.395 185.767 272.015 185.146 272.779 185.146H302.117C302.882 185.146 303.502 185.767 303.502 186.531V186.631C303.502 187.396 302.882 188.016 302.117 188.016H272.779C272.015 188.016 271.395 187.396 271.395 186.631Z" fill="white"></path><path d="M304.82 186.631V186.531C304.82 185.767 305.441 185.146 306.205 185.146H331.809C332.574 185.146 333.194 185.767 333.194 186.531V186.631C333.194 187.396 332.574 188.016 331.809 188.016H306.205C305.441 188.016 304.82 187.396 304.82 186.631Z" fill="white"></path><path d="M293.641 192.935V192.836C293.641 192.071 294.261 191.451 295.026 191.451H331.809C332.573 191.451 333.194 192.071 333.194 192.836V192.935C333.194 193.7 332.573 194.32 331.809 194.32H295.026C294.261 194.32 293.641 193.7 293.641 192.935Z" fill="white"></path><path d="M271.395 192.935V192.836C271.395 192.071 272.015 191.451 272.779 191.451H289.21C289.975 191.451 290.595 192.071 290.595 192.836V192.935C290.595 193.7 289.975 194.32 289.21 194.32H272.779C272.015 194.32 271.395 193.7 271.395 192.935Z" fill="white"></path><path d="M298.75 199.24V199.14C298.75 198.375 299.37 197.755 300.135 197.755H331.811C332.575 197.755 333.196 198.375 333.196 199.14V199.24C333.196 200.004 332.575 200.624 331.811 200.624H300.135C299.37 200.624 298.75 200.004 298.75 199.24Z" fill="white"></path><path d="M271.395 199.24V199.14C271.395 198.375 272.015 197.755 272.779 197.755H294.661C295.425 197.755 296.046 198.375 296.046 199.14V199.24C296.046 200.004 295.425 200.624 294.661 200.624H272.779C272.015 200.624 271.395 200.004 271.395 199.24Z" fill="white"></path><path d="M271.395 205.543V205.444C271.395 204.679 272.015 204.059 272.779 204.059H280.901C281.665 204.059 282.285 204.679 282.285 205.444V205.543C282.285 206.308 281.665 206.928 280.901 206.928H272.779C272.015 206.928 271.395 206.308 271.395 205.543Z" fill="white"></path><path d="M285.156 205.543V205.444C285.156 204.679 285.777 204.059 286.541 204.059H331.811C332.576 204.059 333.196 204.679 333.196 205.444V205.543C333.196 206.308 332.576 206.928 331.811 206.928H286.541C285.777 206.928 285.156 206.308 285.156 205.543Z" fill="white"></path><path d="M117.723 179.269C126.273 160.894 118.308 139.067 99.9331 130.517C81.558 121.966 59.7308 129.931 51.1807 148.306C42.6305 166.681 50.5951 188.508 68.9702 197.059C87.3452 205.609 109.172 197.644 117.723 179.269Z" fill="#0097D8"></path><path d="M78.7445 190.19C83.3781 188.562 85.815 183.487 84.1875 178.853C82.5599 174.219 77.4843 171.783 72.8508 173.41C68.2172 175.038 65.7803 180.113 67.4078 184.747C69.0353 189.38 74.111 191.817 78.7445 190.19Z" fill="white"></path><path d="M71.1291 184.99L70.6992 179.351L75.3691 176.16L80.4678 178.607L80.8966 184.246L76.2278 187.438L71.1291 184.99Z" fill="#0097D8"></path><path d="M96.074 154.146C100.698 152.493 103.107 147.404 101.454 142.78C99.8008 138.156 94.712 135.747 90.0878 137.4C85.4635 139.053 83.0549 144.142 84.708 148.766C86.361 153.391 91.4498 155.799 96.074 154.146Z" fill="white"></path><path d="M88.6797 148.432L88.9855 141.261L94.3888 136.538L99.4875 138.987L99.1817 146.157L93.7773 150.879L88.6797 148.432Z" fill="#0097D8"></path><path d="M81.9539 177.689L75.1523 174.422L80.179 162.826C80.4981 162.09 80.8449 161.367 81.2194 160.657L87.1257 149.483L93.9273 152.749L89.079 164.17C88.7045 165.053 88.2879 165.918 87.8337 166.763L81.9539 177.689Z" fill="white"></path><path d="M109.93 183.531C111.24 182.923 132.294 183.884 132.294 183.884L117.118 169.95L109.93 183.531Z" fill="#0097D8"></path><path d="M202.838 101.739C210.746 83.457 202.336 62.2263 184.055 54.3185C165.773 46.4107 144.543 54.8203 136.635 73.1019C128.727 91.3835 137.137 112.614 155.418 120.522C173.7 128.43 194.93 120.02 202.838 101.739Z" fill="#0097D8"></path><path d="M170.948 56.6875H168.539V86.976H170.948V56.6875Z" fill="white"></path><path d="M143.129 104.462L144.5 106.442L169.742 88.9706L168.371 86.9902L143.129 104.462Z" fill="white"></path><path d="M173.061 87.4224C173.061 89.256 171.575 90.7417 169.741 90.7417C167.908 90.7417 166.422 89.256 166.422 87.4224C166.422 85.5888 167.908 84.103 169.741 84.103C171.575 84.103 173.061 85.5899 173.061 87.4224Z" fill="white"></path><path d="M267.662 331.636C265.524 298.664 279.949 264.54 304.246 245.019C304.999 278.157 290.718 311.694 267.662 331.636Z" fill="#A2C7EB"></path><path d="M300.281 253.893C290.044 272.972 281.191 292.936 273.835 313.533C264.894 338.539 257.858 365.107 242.547 386.069" stroke="#6F8BBF" stroke-miterlimit="10" stroke-linecap="round"></path><path d="M259.996 352.377C272.294 324.867 296.702 304.082 323.613 298.199C312.157 327.681 286.387 350.172 259.996 352.377Z" fill="#A2C7EB"></path><path d="M317.01 304.26C298.629 320.436 279.938 336.157 260.938 351.413" stroke="#6F8BBF" stroke-miterlimit="10" stroke-linecap="round"></path><path d="M252.738 376.341C269.169 351.801 299.482 338.993 324.565 345.995C306.118 370.226 275.739 383.067 252.738 376.341Z" fill="#A2C7EB"></path><path d="M318.549 347.768C297.011 361.24 273.778 371.19 249.824 377.172" stroke="#6F8BBF" stroke-miterlimit="10" stroke-linecap="round"></path><path d="M261.611 344.034C266.863 316.402 258.985 285.602 241.447 265.227C234.256 292.382 241.114 324.202 261.611 344.034Z" fill="#A2C7EB"></path><path d="M243.254 272.273C246.711 297.977 252.86 322.053 262.388 345.585" stroke="#6F8BBF" stroke-miterlimit="10" stroke-linecap="round"></path><path d="M252.594 367.566C250.356 339.159 235.798 312.48 214.504 297.756C215.734 312.802 219.733 327.304 226.082 340.489C233.383 355.634 244.108 365.24 252.594 367.566Z" fill="#A2C7EB"></path><path d="M217.66 303.506C226.036 327.193 238.09 349.152 253.125 368.165" stroke="#6F8BBF" stroke-miterlimit="10" stroke-linecap="round"></path><path d="M417.043 360.753C428.665 330.517 455.399 305.988 484.881 298.521C471.963 328.346 445.594 352.388 417.043 360.753Z" fill="#A2C7EB"></path><path d="M477.736 304.803C460.874 317.621 444.853 331.792 429.918 347.137C411.77 365.772 394.653 386.557 372.527 398.988" stroke="#6F8BBF" stroke-miterlimit="10" stroke-linecap="round"></path><path d="M401.766 376.098C423.913 356.609 454.004 348.056 480.196 353.795C457.993 375.389 425.996 384.906 401.766 376.098Z" fill="#A2C7EB"></path><path d="M471.875 356.51C448.997 363.423 426.029 369.794 402.984 375.633" stroke="#6F8BBF" stroke-miterlimit="10" stroke-linecap="round"></path><path d="M385.523 394.489C410.108 379.333 442.15 380.297 461.45 396.771C435.214 410.82 403.095 409.856 385.523 394.489Z" fill="#A2C7EB"></path><path d="M455.412 395.885C430.86 399.098 406.231 398.477 382.621 394.035" stroke="#6F8BBF" stroke-miterlimit="10" stroke-linecap="round"></path><path d="M406.621 369.328C422.586 346.859 428.247 316.203 421.101 290.898C403.607 312.148 396.627 343.292 406.621 369.328Z" fill="#A2C7EB"></path><path d="M419.805 297.9C412.315 322.208 407.895 346.162 406.676 371.024" stroke="#6F8BBF" stroke-miterlimit="10" stroke-linecap="round"></path><path d="M389.004 386.612C398.665 360.398 396.737 330.683 383.952 308.879C378.878 322.784 376.462 337.331 376.673 351.668C376.905 368.131 382.445 381.072 389.004 386.612Z" fill="#A2C7EB"></path><path d="M384.373 315.283C382.069 339.802 383.719 364.287 389.215 387.354" stroke="#6F8BBF" stroke-miterlimit="10" stroke-linecap="round"></path><path d="M87.6534 307.889C75.8052 271.65 42.7413 242.369 4.27734 234.059C20.4487 265.41 49.7788 290.362 87.6534 307.889Z" fill="#A2C7EB"></path><path d="M89.6599 313.511C63.7067 298.834 31.189 295.598 3 304.876C29.146 317.936 60.1259 321.574 89.6599 313.511Z" fill="#A2C7EB"></path><path d="M96.8396 321.369C68.7902 317.481 39.4168 324.396 16.6367 340.245C42.4681 349.635 73.4579 343.545 96.8396 321.369Z" fill="#A2C7EB"></path><path d="M105.586 338.537C77.8087 338.422 50.4983 351.623 34.1719 373.058C46.5341 375.535 59.662 374.054 71.0027 368.918C82.3435 363.781 91.8451 355.016 105.586 338.537Z" fill="#A2C7EB"></path><path d="M125.168 367.26C97.7793 362.564 68.5965 371.051 48.8477 389.459C60.636 393.936 73.8348 394.652 85.8946 391.471C97.9555 388.292 108.814 381.228 125.168 367.26Z" fill="#A2C7EB"></path><path d="M95.5965 309.605C77.5107 285.228 72.6026 252.378 82.8775 224.431C90.7239 237.719 97.4944 251.767 100.654 266.7C103.814 281.633 103.2 297.554 95.5965 309.605Z" fill="#A2C7EB"></path><path d="M106.648 333.126C102.365 307.226 111.22 279.776 129.925 261.019C132.078 287.814 123.879 315.111 106.648 333.126Z" fill="#A2C7EB"></path><path d="M12.6953 240.553C67.7416 275.773 110.791 328.27 133.516 387.914" stroke="#6F8BBF" stroke-miterlimit="10" stroke-linecap="round"></path><path d="M84.5859 237.283C91.2811 264.471 95.355 292.228 96.7333 320.066" stroke="#6F8BBF" stroke-miterlimit="10" stroke-linecap="round"></path><path d="M125.809 271.534C123.615 293.468 116.837 314.907 106.008 334.217" stroke="#6F8BBF" stroke-miterlimit="10" stroke-linecap="round"></path><path d="M14.5859 305.508C39.8223 310.307 65.4731 312.908 91.1283 313.29" stroke="#6F8BBF" stroke-miterlimit="10" stroke-linecap="round"></path><path d="M29.793 338.09C53.0628 336.4 75.9559 330.763 97.1173 321.502" stroke="#6F8BBF" stroke-miterlimit="10" stroke-linecap="round"></path><path d="M43.7344 369.144C65.206 358.434 86.6799 347.71 108.152 337" stroke="#6F8BBF" stroke-miterlimit="10" stroke-linecap="round"></path><path d="M57.6992 388.058C85.7331 382.649 94.0625 376.194 125.176 367.262" stroke="#6F8BBF" stroke-miterlimit="10" stroke-linecap="round"></path><path d="M235.173 336.71C235.173 336.71 237.599 358.947 240.314 360.73C245.166 363.932 301.338 371.333 301.338 371.333L299.499 385.947C299.499 385.947 222.565 392.86 219.296 389.016C213.624 382.346 203.652 350.172 203.652 350.172L235.173 336.71Z" fill="#E06A58"></path><path d="M198.082 279.464L204.298 264.54C204.298 264.54 221.16 272.462 226.722 282.245C232.672 292.704 239.951 348.31 239.951 348.31C239.951 348.31 210.181 355.169 204.707 352.255C199.234 349.341 198.082 279.464 198.082 279.464Z" fill="#F2AE30"></path><path d="M150.74 210.196C146.385 208.601 141.777 207.205 137.112 207.559C132.448 207.914 127.684 210.385 126.099 214.484C124.969 217.387 125.49 220.81 123.706 223.425C122 225.929 118.61 226.97 115.441 227.181C112.261 227.402 109.059 226.981 105.902 227.391C96.152 228.688 89.1942 239.279 92.3962 247.955C93.6703 251.411 96.285 254.713 95.6867 258.314C95.0552 262.169 91.0113 264.706 89.3494 268.285C87.1446 273.049 89.7815 278.821 94.1356 282.068C98.4898 285.303 104.151 286.533 109.647 287.352C117.214 288.483 125.025 289.014 132.503 287.419C139.982 285.824 147.128 281.879 150.994 275.719C152.712 272.994 153.753 269.914 155.747 267.354C159.869 262.07 167.17 260.02 172.92 256.275C179.202 252.165 183.811 244.165 180.111 237.906C176.543 231.89 167.259 230.549 163.536 224.622C161.996 222.173 161.631 219.259 160.633 216.589C159.614 213.908 157.177 212.556 150.74 210.196Z" fill="#0A2240"></path><path d="M176.109 283.996C177.206 285.259 178.503 286.644 180.297 286.766C182.192 286.898 183.776 285.558 184.995 284.262C191.288 277.603 195.443 269.426 197.127 260.995C195.565 260.109 194.058 259.256 192.695 258.458C191.432 257.705 190.479 256.652 189.936 255.422C189.56 254.514 189.427 253.561 189.526 252.564C190.413 244.232 191.199 239.59 194.124 231.136C180.231 228.001 167.124 224.278 159.59 217.985C158.671 221.863 157.585 229.452 155.269 236.975C152.799 244.941 148.943 252.819 142.406 256.209C155.236 263.787 166.681 273.204 176.109 283.996Z" fill="#F9A07B"></path><path d="M189.527 252.575C189.427 253.572 189.56 254.536 189.937 255.433C181.716 265.405 163.335 252.376 155.27 236.986C157.585 229.464 158.671 221.874 159.59 217.997C167.113 224.29 180.231 228.023 194.125 231.148C191.2 239.601 190.413 244.232 189.527 252.575Z" fill="#E06A58"></path><path d="M212.42 373.117C210.603 385.149 223.588 398.101 223.909 404.527C196.333 404.527 138.565 406.211 109.15 402.211C107.809 394.788 122.334 378.092 122.334 361.606C122.334 359.423 122.246 357.03 122.068 354.46C121.603 347.103 120.517 338.35 119.31 329.376C116.03 305.301 111.665 279.553 114.889 274.212C121.204 263.809 135.973 256.74 143.296 253.705C145.811 252.663 147.451 252.098 147.573 252.032C156.758 267.698 175.448 281.059 182.506 280.461C184.467 280.306 190.283 278.279 194.128 258.923C195.624 259.776 197.119 260.563 198.604 261.327C205.905 265.127 212.752 268.263 214.724 273.149C219.932 286.012 225.039 318.441 223.909 329.974C222.768 341.608 218.092 350.493 214.813 362.171C214.049 364.907 213.351 367.81 212.785 370.935C212.641 371.633 212.531 372.364 212.42 373.117Z" fill="#FFC73C"></path><path d="M223.909 404.527C196.333 404.527 138.565 406.211 109.15 402.211C107.809 394.788 122.334 378.091 122.334 361.606C122.334 359.423 122.246 357.03 122.068 354.459C121.603 347.103 120.517 338.35 119.31 329.376C124.528 334.882 132.139 311.616 135.508 318.43C153.733 355.213 168.103 364.885 193.075 364.885C200.521 364.885 207.39 363.855 214.813 362.171C214.049 364.907 213.351 367.81 212.785 370.934C212.653 371.643 212.531 372.375 212.42 373.128C210.603 385.138 223.588 398.09 223.909 404.527Z" fill="#FFBB33"></path><path d="M198.605 261.327C197.419 269.936 193.907 281.536 183.692 284.594C169.887 288.726 149.911 262.934 143.297 253.705C145.812 252.663 147.452 252.098 147.573 252.032C156.758 267.698 175.449 281.059 182.506 280.461C184.467 280.306 190.284 278.279 194.129 258.923C195.624 259.765 197.12 260.552 198.605 261.327Z" fill="#FCE172"></path><path d="M204.275 391.575L204.176 401.181L375.905 402.2L376.259 391.31L204.275 391.575Z" fill="#325F73"></path><path d="M450.336 305.877L446.514 302L321.429 301.18L258.676 391.93L261.955 394.567L450.336 305.877Z" fill="#325F73"></path><path d="M323.846 304.537L261.957 394.567L380.173 395.154L450.338 305.877L323.846 304.537Z" fill="#0B2D50"></path><path d="M353.714 362.005C361.313 362.005 367.474 358.925 367.474 355.125C367.474 351.325 361.313 348.245 353.714 348.245C346.114 348.245 339.953 351.325 339.953 355.125C339.953 358.925 346.114 362.005 353.714 362.005Z" fill="#3C738C"></path><path d="M206.812 215.662C208.762 205.201 215.935 197.763 222.835 199.048C229.735 200.334 233.748 209.856 231.798 220.317C229.848 230.778 222.676 238.216 215.776 236.93C208.877 235.645 204.864 226.123 206.812 215.662Z" fill="#56C4F9"></path><path d="M231.82 187.484C230.535 196.591 226.469 206.629 220.542 217.719C218.459 208.634 217.129 197.566 215.29 186.498C213.418 175.408 211.035 164.317 206.903 155.254C205.972 153.249 204.964 151.332 203.867 149.56C206.316 149.327 208.797 149.56 211.157 150.213C214.847 151.199 218.303 153.105 221.129 155.653C225.826 159.83 228.973 165.525 230.845 171.53C232.385 176.516 232.662 181.811 231.82 187.484Z" fill="#0B2D50"></path><path d="M224.858 196.901C224.792 198.696 224.67 200.524 224.504 202.341C221.978 231.812 209.602 252.032 190.668 252.032C163.933 252.032 146.605 222.051 146.605 192.68C146.605 163.708 164.354 142.735 185.128 145.161C197.105 146.535 205.857 150.512 212.073 156.34C216.183 160.218 219.153 164.904 221.18 170.234C223.496 176.205 224.615 182.964 224.847 190.243C224.847 190.265 224.869 190.287 224.869 190.309C224.958 192.459 224.936 194.652 224.858 196.901Z" fill="#F9A07B"></path><path d="M224.862 196.902C224.064 194.054 222.879 191.273 221.261 188.78C205.495 197.023 186.705 200.203 168.889 197.19C165.499 200.015 162.186 202.796 158.852 205.577C158.918 192.171 159.106 183.097 164.336 176.604C169.244 170.511 177.432 168.217 185.187 167.22C193.917 166.079 202.792 166.123 211.5 167.386C214.835 167.852 218.292 168.572 221.195 170.256C223.51 176.228 224.629 182.986 224.862 190.265C224.862 190.287 224.884 190.309 224.884 190.331C224.962 192.459 224.939 194.652 224.862 196.902Z" fill="#E06A58"></path><path d="M228.713 178.754C225.046 181.856 220.448 184.426 215.285 186.509C200.594 192.436 181.505 194.398 166.625 193.677C159.313 209.742 156.355 215.504 154.482 229.519C147.336 222.816 141.52 210.54 139.791 200.89C138.085 191.273 138.251 181.18 140.932 171.729C145.154 156.828 155.801 148.851 163.18 144.973C165.019 143.965 166.681 143.267 167.966 142.757C177.394 139.112 188.019 139.444 197.691 142.402C202.965 144.042 207.408 146.812 211.142 150.224C218.687 157.038 223.351 166.267 226.365 173.181C227.317 175.297 228.082 177.214 228.713 178.754Z" fill="#0B2D50"></path><path d="M231.817 187.484C231.208 184.26 230.299 181.135 229.014 178.122C228.294 176.416 227.408 174.765 226.377 173.169C223.02 167.896 218.134 163.553 212.229 161.636C210.545 159.276 208.772 157.149 206.911 155.265C200.208 148.452 192.342 144.552 184.01 143.189C177.074 142.07 169.862 142.701 163.203 144.962C165.042 143.953 166.704 143.255 167.989 142.746C177.418 139.101 188.043 139.433 197.715 142.391C202.989 144.031 207.432 146.801 211.165 150.213C214.855 151.199 218.311 153.105 221.137 155.653C225.834 159.83 228.981 165.525 230.853 171.53C232.382 176.515 232.659 181.811 231.817 187.484Z" fill="#225570"></path><path d="M175.148 205.554C180.09 202.729 185.22 201.455 192.41 204.081" stroke="#0B2D50" stroke-width="2" stroke-miterlimit="10" stroke-linecap="round"></path><path d="M208.984 205.355C213.217 202.197 219.488 201.876 222.756 205.355" stroke="#0B2D50" stroke-width="2" stroke-miterlimit="10" stroke-linecap="round"></path><path d="M203.88 221.464C204.312 223.702 204.079 228.655 203.016 230.882" stroke="#CC454E" stroke-width="2" stroke-miterlimit="10" stroke-linecap="round"></path><path d="M187.179 222.971C188.305 222.971 189.218 221.532 189.218 219.758C189.218 217.983 188.305 216.545 187.179 216.545C186.053 216.545 185.141 217.983 185.141 219.758C185.141 221.532 186.053 222.971 187.179 222.971Z" fill="#262D40"></path><path d="M213.828 221.475C214.954 221.475 215.866 220.037 215.866 218.262C215.866 216.488 214.954 215.049 213.828 215.049C212.702 215.049 211.789 216.488 211.789 218.262C211.789 220.037 212.702 221.475 213.828 221.475Z" fill="#262D40"></path><path d="M201.352 235.258C201.352 235.258 200.953 236.033 200.188 237.086C198.992 238.692 196.953 240.908 194.172 241.772H194.161C192.987 242.149 191.713 242.282 190.294 242.027C186.129 241.285 185.032 237.44 184.832 234.482C184.788 233.906 184.788 233.374 184.799 232.887C184.821 231.69 184.954 230.893 184.954 230.893C191.591 234.549 201.352 235.258 201.352 235.258Z" fill="#CC454E"></path><path d="M201.349 235.258C201.349 235.258 200.95 236.033 200.186 237.086C196.796 237.042 189.86 235.302 184.797 232.887C184.819 231.69 184.952 230.893 184.952 230.893C191.588 234.549 201.349 235.258 201.349 235.258Z" fill="white"></path><path d="M194.161 241.761C192.986 242.138 191.712 242.271 190.294 242.016C186.128 241.274 185.031 237.429 184.832 234.471C186.848 234.715 188.798 235.49 190.416 236.72C192.111 238.017 193.407 239.778 194.161 241.761Z" fill="#E8729B"></path><path d="M154.551 200.469C154.551 200.469 154.319 186.653 160.069 172.926C167.282 155.698 181.984 148.33 196.243 147.831C213.427 147.222 224.185 158.756 224.185 158.756C224.185 158.756 218.59 148.884 207.555 146.048C200.309 144.186 189.374 143.887 180.599 147.455C171.558 151.122 160.291 161.304 156.213 172.062C152.147 182.82 150.164 199.572 150.164 199.572L154.551 200.469Z" fill="#3D86E0"></path><path d="M154.258 236.432C161.616 235.667 166.641 226.01 165.482 214.861C164.323 203.712 157.419 195.294 150.061 196.059C142.703 196.824 137.678 206.482 138.837 217.631C139.996 228.78 146.9 237.197 154.258 236.432Z" fill="#56C4F9"></path><path d="M146.332 202.596C151.082 201.883 155.951 208.078 157.206 216.434C158.461 224.79 155.63 232.144 150.879 232.857C146.129 233.571 141.26 227.375 140.004 219.019C138.749 210.663 141.582 203.31 146.332 202.596Z" fill="#3D86E0"></path><path d="M196.358 252.442C200.298 252.442 203.493 250.453 203.493 247.999C203.493 245.545 200.298 243.556 196.358 243.556C192.417 243.556 189.223 245.545 189.223 247.999C189.223 250.453 192.417 252.442 196.358 252.442Z" fill="#3A92C9"></path><path d="M160.516 233.142C160.516 233.142 170.997 246.614 189.222 247.999" stroke="#3A92C9" stroke-width="2" stroke-miterlimit="10" stroke-linecap="round"></path><path d="M204.175 365.927L203.488 383.642C203.488 383.642 139.416 402.843 128.836 396.771C123.673 393.802 118.853 377.471 115.253 361.528C111.486 344.776 109.07 328.467 109.07 328.467L146.629 321.111C146.629 321.111 146.651 344.012 147.925 357.251C148.38 362.182 149.033 365.771 149.909 366.359C153.221 368.541 204.175 365.927 204.175 365.927Z" fill="#F9A07B"></path><path d="M147.925 357.229C141.101 359.445 127.927 362.868 115.253 361.517C111.486 344.765 109.07 328.456 109.07 328.456L146.629 321.1C146.629 321.089 146.651 343.989 147.925 357.229Z" fill="#E06A58"></path><path d="M202.346 366.104C211.874 364.065 228.005 359.168 234.697 357.484C239.45 356.288 251.826 362.692 255.094 368.73C256.524 371.367 257.875 386.302 252.923 384.761C250.441 383.986 250.851 377.582 250.075 374.967C249.444 372.84 247.427 370.779 244.359 369.007C246.408 374.114 246.331 378.568 246.109 384.086C246.065 385.304 245.987 386.578 245.4 387.631C244.802 388.684 243.516 389.437 242.409 388.972C241.278 388.506 240.891 387.099 240.636 385.869C239.761 381.615 238.874 377.361 238.52 372.552C238.608 377.283 238.509 382.025 238.21 386.745C237.988 390.357 236.193 392.34 233.988 391.708C233.002 391.431 232.603 390.523 232.182 389.326C231.518 391.642 229.856 394.201 227.706 393.226C226.399 392.639 225.59 387.919 225.823 383.066C221.701 385.626 217.048 386.711 211.686 386.955C206.877 387.177 201.958 386.279 199.066 383.011C199.354 377.903 201.039 370.347 202.346 366.104Z" fill="#F9A07B"></path><path d="M232.283 388.595C232.604 384.761 232.272 380.872 231.297 377.172" stroke="#CC454E" stroke-miterlimit="10" stroke-linecap="round"></path><path d="M142.405 283.951C139.679 276.273 129.697 260.562 129.697 260.562C129.697 260.562 114.463 266.9 109.056 277.658C99.9047 295.872 104.558 348.166 104.558 348.166C116.889 353.329 141.64 353.407 152.177 351.922C152.177 351.922 147.867 299.296 142.405 283.951Z" fill="#FFC73C"></path><path d="M144.344 287.164C148.498 307.051 150.725 325.598 151.434 343.768" stroke="#F2AE30" stroke-miterlimit="10" stroke-linecap="round"></path><path d="M470.412 399.043H33.5781V410H470.412V399.043Z" fill="#0B2D50"></path></svg>