<svg xmlns="http://www.w3.org/2000/svg" width="480" height="333" viewBox="0 0 480 333" fill="none"><path d="M64.5338 255.438C64.5338 255.438 53.6593 190.444 30.1402 202.33C6.62107 214.216 54.9239 249.874 64.5338 255.438Z" fill="#FF6666"></path><path d="M77.9381 258.219C77.9381 258.219 48.3495 223.573 67.0636 215.48C85.7778 207.388 77.9381 258.219 77.9381 258.219Z" fill="#FF6666"></path><path d="M85.7729 280.737C85.7729 280.737 59.0556 251.803 49.2366 265.408C39.4176 279.014 85.7729 280.737 85.7729 280.737Z" fill="#FF6666"></path><path d="M34.4375 212.193C34.4375 212.193 74.6474 288.819 132.307 298.682" stroke="#FF5640" stroke-width="1.9595" stroke-miterlimit="10"></path><path d="M70.3477 227.367C70.3477 227.367 77.176 240.011 79.1987 269.852" stroke="#FF5640" stroke-width="1.9595" stroke-miterlimit="10"></path><path d="M59.3594 269.88C59.3594 269.88 69.6647 277.285 95.953 283.562" stroke="#FF5640" stroke-width="1.7715" stroke-miterlimit="10"></path><path d="M42.0156 273.836C42.0156 273.836 62.7525 318.449 118.31 297.473" stroke="#FF5640" stroke-width="1.9595" stroke-miterlimit="10"></path><path d="M47.9587 283.877C47.9587 283.877 53.5396 275.925 38.3132 267.507C38.3132 267.507 33.334 280.997 47.9587 283.877Z" fill="#FF5640"></path><path d="M57.0659 291.666C57.0659 291.666 50.1383 286.274 55.9872 278.558C55.9872 278.558 62.7102 284.722 57.0659 291.666Z" fill="#FF5640"></path><path d="M56.1085 292.208C56.1085 292.208 49.6162 299.08 41.9453 292.016C41.9453 292.016 49.2453 285.443 56.1085 292.208Z" fill="#FF5640"></path><path d="M70.296 299.105C70.296 299.105 62.7304 294.652 67.5346 286.245C67.5346 286.245 74.9972 291.491 70.296 299.105Z" fill="#FF5640"></path><path d="M69.4133 299.766C69.4133 299.766 63.8618 307.418 55.3438 301.404C55.3438 301.404 61.7338 293.944 69.4133 299.766Z" fill="#FF5640"></path><path d="M85.3149 302.202C85.3149 302.202 76.6791 300.626 78.2953 291.079C78.2953 291.079 87.1068 293.435 85.3149 302.202Z" fill="#FF5640"></path><path d="M84.7119 303.126C84.7119 303.126 82.134 312.222 72.0664 309.508C72.0664 309.508 75.4984 300.303 84.7119 303.126Z" fill="#FF5640"></path><path d="M102.09 301.851C102.09 301.851 93.3439 302.604 92.3906 292.968C92.3906 292.968 101.512 292.922 102.09 301.851Z" fill="#FF5640"></path><path d="M101.758 302.9C101.758 302.9 101.666 312.354 91.2383 312.385C91.2383 312.385 92.1257 302.602 101.758 302.9Z" fill="#FF5640"></path><path d="M82.9937 170.465C82.9937 170.465 67.1254 217.033 121.766 240.296" stroke="#FF5640" stroke-width="1.9595" stroke-miterlimit="10"></path><path d="M80.3396 181.828C80.3396 181.828 89.8705 179.941 84.6908 163.332C84.6908 163.332 71.7658 169.635 80.3396 181.828Z" fill="#FF5640"></path><path d="M81.5293 193.751C81.5293 193.751 80.2532 185.065 89.8143 183.535C89.8143 183.535 90.4082 192.637 81.5293 193.751Z" fill="#FF5640"></path><path d="M80.4626 193.478C80.4626 193.478 71.0207 193.953 70.3633 183.546C70.3633 183.546 80.1823 183.846 80.4626 193.478Z" fill="#FF5640"></path><path d="M85.9431 208.275C85.9431 208.275 83.5565 199.827 92.8404 197.075C92.8404 197.075 94.6037 206.025 85.9431 208.275Z" fill="#FF5640"></path><path d="M84.8512 208.142C84.8512 208.142 75.5495 209.832 73.5547 199.597C73.5547 199.597 83.3295 198.627 84.8512 208.142Z" fill="#FF5640"></path><path d="M94.6494 220.893C94.6494 220.893 89.5006 213.783 97.2691 208.003C97.2691 208.003 102.007 215.799 94.6494 220.893Z" fill="#FF5640"></path><path d="M93.5788 221.145C93.5788 221.145 85.4271 225.934 80.0312 217.011C80.0312 217.011 88.8746 212.735 93.5788 221.145Z" fill="#FF5640"></path><path d="M107.016 232.247C107.016 232.247 100.177 226.743 106.151 219.123C106.151 219.123 112.773 225.396 107.016 232.247Z" fill="#FF5640"></path><path d="M106.049 232.773C106.049 232.773 99.4454 239.538 91.8906 232.35C91.8906 232.35 99.2975 225.897 106.049 232.773Z" fill="#FF5640"></path><path d="M90.1836 245.917C90.1836 245.917 99.6526 294.194 158.615 287.108" stroke="#FF5640" stroke-width="1.9595" stroke-miterlimit="10"></path><path d="M93.5562 257.087C93.5562 257.087 100.876 250.699 88.1038 238.885C88.1038 238.885 80.0442 250.794 93.5562 257.087Z" fill="#FF5640"></path><path d="M100.536 266.827C100.536 266.827 95.0987 259.935 102.623 253.841C102.623 253.841 107.677 261.434 100.536 266.827Z" fill="#FF5640"></path><path d="M99.4759 267.124C99.4759 267.124 91.5285 272.244 85.7695 263.551C85.7695 263.551 94.4293 258.914 99.4759 267.124Z" fill="#FF5640"></path><path d="M111.609 277.215C111.609 277.215 105.327 271.082 112.002 264.067C112.002 264.067 117.994 270.945 111.609 277.215Z" fill="#FF5640"></path><path d="M110.592 277.646C110.592 277.646 103.372 283.75 96.5391 275.873C96.5391 275.873 104.529 270.156 110.592 277.646Z" fill="#FF5640"></path><path d="M125.443 283.81C125.443 283.81 117.434 280.215 121.286 271.331C121.286 271.331 129.28 275.726 125.443 283.81Z" fill="#FF5640"></path><path d="M124.641 284.565C124.641 284.565 119.963 292.78 110.836 287.737C110.836 287.737 116.369 279.62 124.641 284.565Z" fill="#FF5640"></path><path d="M141.826 287.484C141.826 287.484 133.153 286.123 134.531 276.54C134.531 276.54 143.399 278.674 141.826 287.484Z" fill="#FF5640"></path><path d="M141.252 288.422C141.252 288.422 138.902 297.579 128.77 295.117C128.77 295.117 131.971 285.83 141.252 288.422Z" fill="#FF5640"></path><path d="M235.362 218.684C235.362 218.684 248.681 266.044 192.859 286.309" stroke="#FF5640" stroke-width="1.9595" stroke-miterlimit="10"></path><path d="M237.394 230.174C237.394 230.174 227.98 227.773 234.053 211.469C234.053 211.469 246.616 218.464 237.394 230.174Z" fill="#FF5640"></path><path d="M235.558 242.015C235.558 242.015 237.303 233.411 227.839 231.365C227.839 231.365 226.753 240.422 235.558 242.015Z" fill="#FF5640"></path><path d="M236.641 241.802C236.641 241.802 246.043 242.789 247.263 232.432C247.263 232.432 237.443 232.198 236.641 241.802Z" fill="#FF5640"></path><path d="M230.359 256.277C230.359 256.277 233.201 247.971 224.08 244.72C224.08 244.72 221.834 253.561 230.359 256.277Z" fill="#FF5640"></path><path d="M231.461 256.205C231.461 256.205 240.657 258.396 243.204 248.285C243.204 248.285 233.496 246.786 231.461 256.205Z" fill="#FF5640"></path><path d="M220.979 268.406C220.979 268.406 226.507 261.585 219.062 255.394C219.062 255.394 213.91 262.92 220.979 268.406Z" fill="#FF5640"></path><path d="M222.039 268.717C222.039 268.717 229.919 273.941 235.791 265.323C235.791 265.323 227.192 260.573 222.039 268.717Z" fill="#FF5640"></path><path d="M208.016 279.072C208.016 279.072 215.144 273.948 209.592 266.014C209.592 266.014 202.64 271.92 208.016 279.072Z" fill="#FF5640"></path><path d="M208.953 279.65C208.953 279.65 215.18 286.763 223.113 279.996C223.113 279.996 216.068 273.151 208.953 279.65Z" fill="#FF5640"></path><path d="M152.928 318.281C153.546 322.425 150.688 326.286 146.543 326.903L124.782 330.149C120.638 330.767 116.777 327.909 116.159 323.764L104.857 247.976C104.239 243.831 107.098 239.971 111.242 239.353L133.003 236.108C137.148 235.49 141.008 238.348 141.626 242.493L152.928 318.281Z" fill="#001433"></path><path d="M168.727 97.0299C168.727 97.0299 197.424 79.1079 214.133 105.601C230.843 132.095 237.018 199.888 211.59 204.563C186.162 209.239 168.363 205.732 171.633 167.161C174.901 128.589 168.727 97.0299 168.727 97.0299Z" fill="#000A19"></path><path d="M184.274 170.845C184.274 170.845 177.825 189.053 189.205 192.088C200.585 195.123 212.724 188.294 213.862 212.952C215 237.609 131.925 215.228 133.062 204.607C134.201 193.985 160.374 201.951 161.513 178.432C162.651 154.913 163.03 153.775 163.03 153.775L184.274 170.845Z" fill="#FFB199"></path><path d="M182.567 183.394C181.93 177.47 184.272 170.845 184.272 170.845L163.029 153.775C163.029 153.775 163.029 157.276 162.758 165.532C166.302 173.97 173.758 180.17 182.567 183.394Z" fill="#E2887D"></path><path d="M176.69 106.346C176.69 106.346 212.726 95.8407 212.726 140.862C212.726 185.884 169.102 181.382 158.861 147.241C148.177 111.625 176.69 106.346 176.69 106.346Z" fill="#FFB199"></path><path d="M173.281 130.066C173.281 130.066 173.351 129.717 173.59 129.147C173.828 128.578 174.231 127.778 174.902 126.932C175.561 126.08 176.494 125.166 177.719 124.471C178.324 124.114 179.004 123.824 179.722 123.618C180.437 123.387 181.201 123.306 181.957 123.249C182.714 123.244 183.473 123.278 184.191 123.433C184.553 123.498 184.908 123.576 185.245 123.69C185.588 123.79 185.922 123.894 186.234 124.035C186.875 124.277 187.451 124.595 187.985 124.898C188.509 125.221 188.989 125.544 189.399 125.882C189.828 126.192 190.18 126.527 190.488 126.824C190.806 127.106 191.055 127.385 191.255 127.619C191.659 128.08 191.868 128.36 191.868 128.36C191.868 128.36 191.534 128.234 190.987 127.984C190.444 127.73 189.658 127.39 188.741 127.01C188.285 126.811 187.776 126.643 187.255 126.449C186.727 126.276 186.176 126.087 185.601 125.952C185.032 125.798 184.438 125.688 183.841 125.612C183.244 125.53 182.641 125.512 182.042 125.523C181.446 125.561 180.85 125.61 180.278 125.751C179.704 125.881 179.144 126.05 178.615 126.273C177.55 126.698 176.608 127.297 175.813 127.86C175.03 128.441 174.396 128.995 173.96 129.403C173.526 129.81 173.281 130.066 173.281 130.066Z" fill="#000A19"></path><path d="M197.938 128.738C197.938 128.738 197.935 128.465 198.016 128.003C198.095 127.54 198.262 126.889 198.583 126.14C198.916 125.4 199.404 124.553 200.174 123.788C200.549 123.4 201.009 123.044 201.53 122.75C202.043 122.442 202.649 122.243 203.263 122.122C203.885 122.004 204.52 122.032 205.118 122.121C205.71 122.235 206.266 122.424 206.751 122.671C207.242 122.91 207.663 123.207 208.041 123.498C208.405 123.807 208.735 124.105 208.999 124.415C209.28 124.709 209.491 125.014 209.678 125.281C209.874 125.537 210.013 125.788 210.125 125.994C210.351 126.403 210.455 126.65 210.455 126.65C210.455 126.65 210.204 126.537 209.805 126.315C209.409 126.094 208.845 125.783 208.188 125.455C207.866 125.278 207.507 125.124 207.142 124.956C206.772 124.806 206.388 124.653 205.996 124.542C205.604 124.421 205.205 124.359 204.813 124.307C204.422 124.299 204.033 124.276 203.657 124.362C202.902 124.488 202.159 124.841 201.482 125.316C200.8 125.783 200.194 126.356 199.674 126.871C199.155 127.389 198.726 127.86 198.421 128.197C198.113 128.542 197.938 128.738 197.938 128.738Z" fill="#000A19"></path><path d="M200.215 133.67C200.215 133.67 200.34 133.896 200.558 134.292C200.773 134.678 201.081 135.23 201.451 135.892C201.638 136.216 201.846 136.562 202.069 136.915C202.292 137.27 202.546 137.629 202.812 137.973C203.07 138.331 203.39 138.631 203.697 138.898C204.018 139.13 204.34 139.339 204.643 139.337L204.757 139.36L204.764 139.362C204.718 139.365 204.873 139.355 204.661 139.37L204.667 139.369L204.691 139.366L204.738 139.36L204.832 139.348C204.947 139.328 205.107 139.32 205.184 139.291C205.262 139.213 205.359 139.226 205.518 139.087C205.809 138.891 206.088 138.563 206.325 138.218C206.795 137.506 207.149 136.716 207.444 136.034C207.729 135.346 207.959 134.752 208.117 134.334C208.279 133.912 208.371 133.671 208.371 133.671C208.371 133.671 208.524 134.714 208.282 136.269C208.161 137.045 207.953 137.955 207.477 138.895C207.217 139.352 206.932 139.856 206.414 140.254C206.274 140.351 206.193 140.459 205.996 140.544C205.817 140.632 205.628 140.709 205.44 140.773C205.278 140.819 205.179 140.818 205.046 140.843L204.952 140.857L204.905 140.864L204.882 140.868L204.876 140.868C204.66 140.884 204.811 140.872 204.76 140.875L204.744 140.874L204.481 140.844C203.754 140.786 203.186 140.394 202.741 140.014C202.308 139.613 201.978 139.166 201.716 138.73C201.433 138.298 201.239 137.852 201.066 137.431C200.882 137.014 200.758 136.606 200.651 136.228C200.432 135.477 200.326 134.835 200.272 134.383C200.219 133.931 200.215 133.67 200.215 133.67Z" fill="#000A19"></path><path d="M179.352 133.67C179.352 133.67 179.476 133.896 179.695 134.292C179.91 134.678 180.218 135.23 180.587 135.892C180.775 136.216 180.983 136.562 181.206 136.915C181.428 137.27 181.683 137.629 181.949 137.973C182.207 138.331 182.526 138.631 182.834 138.898C183.154 139.13 183.477 139.339 183.78 139.337L183.894 139.36L183.901 139.362C183.855 139.365 184.01 139.355 183.797 139.37L183.803 139.369L183.827 139.366L183.875 139.36L183.969 139.348C184.084 139.328 184.244 139.32 184.321 139.291C184.399 139.213 184.496 139.226 184.655 139.087C184.946 138.891 185.225 138.563 185.462 138.218C185.932 137.506 186.285 136.716 186.58 136.034C186.866 135.346 187.095 134.752 187.254 134.334C187.416 133.912 187.508 133.671 187.508 133.671C187.508 133.671 187.661 134.714 187.419 136.269C187.298 137.045 187.09 137.955 186.614 138.895C186.354 139.352 186.068 139.856 185.551 140.254C185.41 140.351 185.33 140.459 185.132 140.544C184.953 140.632 184.764 140.709 184.576 140.773C184.414 140.819 184.316 140.818 184.183 140.843L184.089 140.857L184.042 140.864L184.019 140.868L184.012 140.868C183.796 140.884 183.948 140.872 183.897 140.875L183.881 140.874L183.618 140.844C182.892 140.786 182.324 140.394 181.878 140.014C181.445 139.613 181.116 139.166 180.853 138.73C180.571 138.298 180.377 137.852 180.203 137.431C180.02 137.014 179.896 136.606 179.788 136.228C179.569 135.477 179.464 134.835 179.409 134.383C179.355 133.931 179.352 133.67 179.352 133.67Z" fill="#000A19"></path><path d="M196.23 133.29C196.351 133.928 196.483 134.545 196.626 135.152C196.687 135.457 196.779 135.756 196.854 136.054C196.916 136.353 197.016 136.645 197.095 136.937C197.174 137.231 197.287 137.513 197.372 137.8C197.458 138.087 197.57 138.364 197.672 138.642C197.773 138.92 197.879 139.195 198.003 139.46C198.129 139.724 198.221 140.003 198.365 140.254L198.76 141.022L199.212 141.747C199.344 142.001 199.535 142.209 199.698 142.439C199.868 142.663 200.022 142.902 200.222 143.097C200.41 143.305 200.603 143.509 200.784 143.724L201.413 144.284C201.518 144.378 201.617 144.48 201.725 144.571L202.073 144.816L202.763 145.327L204.103 146.319L202.827 147.01C201.9 147.512 200.952 147.985 199.983 148.423C199.506 148.654 199.003 148.845 198.514 149.056C198.012 149.249 197.511 149.443 196.988 149.602C197.351 149.192 197.735 148.817 198.118 148.441C198.514 148.083 198.896 147.704 199.304 147.367C200.105 146.666 200.928 146.001 201.77 145.366L201.834 147.047L200.929 146.556L200.48 146.299C200.337 146.203 200.202 146.094 200.063 145.991L199.246 145.345C198.999 145.102 198.763 144.846 198.524 144.594C198.273 144.351 198.073 144.068 197.873 143.786C197.678 143.501 197.452 143.234 197.297 142.926L196.81 142.019C196.673 141.706 196.553 141.387 196.426 141.072C196.286 140.761 196.221 140.427 196.123 140.105C196.022 139.784 195.951 139.456 195.899 139.126C195.838 138.797 195.775 138.471 195.755 138.139C195.725 137.809 195.685 137.482 195.693 137.15C195.675 136.492 195.699 135.837 195.791 135.19C195.87 134.545 196.01 133.903 196.23 133.29Z" fill="#FF8255"></path><path d="M184.277 154.533L203.623 154.912C203.623 154.912 197.365 168 184.277 154.533Z" fill="#FF553C"></path><path d="M184.277 154.533C184.733 155.001 185.177 155.43 185.615 155.835C189.391 155.332 193.145 155.712 195.846 158.703C196.306 159.212 196.77 159.775 197.203 160.375C201.517 159.299 203.623 154.911 203.623 154.911L184.277 154.533Z" fill="#B2382B"></path><path d="M218.419 227.746C218.419 227.746 217.66 272.507 219.558 272.507C221.454 272.507 266.975 284.646 268.872 292.612C270.768 300.578 272.286 316.511 265.458 295.268C265.458 295.268 271.148 324.856 260.526 294.888C260.526 294.888 256.353 323.339 256.353 294.509C256.353 294.509 252.56 320.304 252.18 294.888C252.18 294.888 203.625 294.129 189.969 283.129C176.313 272.128 199.453 221.676 199.453 221.676L218.419 227.746Z" fill="#E2887D"></path><path d="M203.625 231.918C203.625 231.918 214.246 233.056 221.075 230.4C221.075 230.4 220.749 196.635 204.384 193.984C188.867 191.471 203.625 231.918 203.625 231.918Z" fill="#FFA94D"></path><path d="M201.297 224.756C202.557 228.988 203.625 231.919 203.625 231.919C203.625 231.919 214.247 233.057 221.075 230.401C221.075 230.401 220.972 219.899 218.044 210.148C213.566 215.918 207.736 220.757 201.297 224.756Z" fill="#DD8D45"></path><path d="M143.937 287.302C143.937 287.302 123.241 300.199 122.445 319.925H219.556C219.556 319.925 218.76 299.441 198.86 285.785C178.96 272.128 143.937 287.302 143.937 287.302Z" fill="#DD8D45"></path><path d="M142.93 287.302C142.93 287.302 118.652 249.368 122.445 219.78C126.239 190.191 140.654 193.606 146.723 193.606C146.723 193.606 155.828 213.331 175.174 210.676C196.061 207.809 197.934 192.847 197.934 192.847C197.934 192.847 210.073 190.95 213.487 202.71C216.901 214.469 222.591 247.471 202.486 253.162L197.935 276.301C197.935 276.301 179.346 294.509 142.93 287.302Z" fill="#FFA94D"></path><path d="M159.87 239.061C151.273 234.636 143.507 228.805 136.092 222.638C131.928 219.175 127.655 215.672 123.927 211.692C123.336 214.07 122.834 216.749 122.445 219.779C118.652 249.368 142.93 287.301 142.93 287.301C179.346 294.508 197.934 276.3 197.934 276.3L202.486 253.161C206.654 251.981 209.7 249.616 211.9 246.52C194.586 247.686 175.5 247.105 159.87 239.061Z" fill="#DD8D45"></path><path d="M159.62 90.4255C159.62 90.4255 181.621 85.8738 183.519 104.84C185.415 123.807 164.931 124.186 165.689 143.912C166.448 163.637 173.276 187.157 158.103 195.502C142.93 203.847 128.514 184.122 122.446 221.676C122.446 221.676 109.169 200.433 119.79 186.398C130.412 172.362 135.722 156.051 135.344 126.842C134.963 97.6326 152.033 93.0808 159.62 90.4255Z" fill="#001433"></path><path d="M158.863 147.24C158.863 147.24 169.485 160.223 183.52 160.982" stroke="#001433" stroke-width="0.9797" stroke-miterlimit="10"></path><path d="M188.867 161.767C188.633 163.125 187.342 164.036 185.984 163.802L180.143 162.796C178.784 162.562 177.873 161.271 178.107 159.913C178.341 158.555 179.632 157.643 180.99 157.877L186.831 158.884C188.189 159.117 189.101 160.408 188.867 161.767Z" fill="#22689E"></path><path d="M155.262 154.533C163.957 154.533 171.005 146.805 171.005 137.273C171.005 127.741 163.957 120.013 155.262 120.013C146.568 120.013 139.52 127.741 139.52 137.273C139.52 146.805 146.568 154.533 155.262 154.533Z" fill="#DD8D45"></path><path d="M150.329 154.533C159.023 154.533 166.072 146.805 166.072 137.273C166.072 127.741 159.023 120.013 150.329 120.013C141.634 120.013 134.586 127.741 134.586 137.273C134.586 146.805 141.634 154.533 150.329 154.533Z" fill="#FFA94D"></path><path d="M150.297 146.782C154.992 146.782 158.797 142.61 158.797 137.463C158.797 132.316 154.992 128.143 150.297 128.143C145.603 128.143 141.797 132.316 141.797 137.463C141.797 142.61 145.603 146.782 150.297 146.782Z" fill="#DD8D45"></path><path d="M147.864 137.083C147.864 137.083 147.106 105.219 164.176 93.8385C183.348 81.0568 199.075 93.0796 199.075 93.0796C199.075 93.0796 178.211 88.9066 166.452 101.425C154.692 113.943 153.175 134.427 153.175 134.427L147.864 137.083Z" fill="#DD8D45"></path><path d="M157.343 231.539C157.343 231.539 155.446 273.645 154.687 283.508C154.687 283.508 206.277 273.646 213.106 277.439C219.934 281.232 238.142 315.752 219.934 292.233C219.934 292.233 235.866 321.063 215.761 293.751C215.761 293.751 225.624 318.407 211.209 293.751C211.209 293.751 220.693 314.993 205.899 291.854C205.899 291.854 144.067 317.649 134.963 311.959C125.858 306.269 119.41 262.645 123.962 226.608C128.513 190.571 157.343 231.539 157.343 231.539Z" fill="#FFB199"></path><path d="M144.577 249.051C148.691 249.124 152.677 248.674 156.585 247.884C157.02 238.741 157.344 231.54 157.344 231.54C157.344 231.54 128.514 190.571 123.963 226.608C123.224 232.454 122.777 238.499 122.582 244.55C129.649 247.068 136.886 248.916 144.577 249.051Z" fill="#E2887D"></path><path d="M120.169 240.643C120.169 240.643 117.893 195.122 140.653 197.398C163.413 199.674 158.482 242.539 158.482 242.539C158.482 242.539 137.618 247.85 120.169 240.643Z" fill="#FFA94D"></path><path d="M438.814 328.27C438.814 330.784 437.116 332.822 435.02 332.822H26.0944C23.9997 332.822 22.3008 330.784 22.3008 328.27V319.166C22.3008 316.652 23.999 314.614 26.0944 314.614H435.021C437.116 314.614 438.815 316.652 438.815 319.166L438.814 328.27Z" fill="#22689E"></path><path d="M398.641 275.922C398.641 278.017 396.942 279.716 394.847 279.716H255.251C253.156 279.716 251.457 278.017 251.457 275.922V167.431C251.457 165.337 253.155 163.638 255.251 163.638H394.847C396.942 163.638 398.641 165.336 398.641 167.431V275.922Z" fill="#003154"></path><path d="M409.261 275.922C409.261 278.017 407.563 279.716 405.467 279.716H265.872C263.777 279.716 262.078 278.017 262.078 275.922V167.431C262.078 165.337 263.776 163.638 265.872 163.638H405.468C407.563 163.638 409.262 165.336 409.262 167.431V275.922H409.261Z" fill="#001433"></path><path d="M346.86 310.062C346.86 312.157 345.161 313.856 343.066 313.856H323.34C321.245 313.856 319.547 312.158 319.547 310.062V228.883C319.547 226.789 321.245 225.09 323.34 225.09H343.066C345.161 225.09 346.86 226.788 346.86 228.883V310.062Z" fill="#003154"></path><path d="M379.101 310.821C379.101 312.917 377.403 314.615 375.308 314.615H291.094C289 314.615 287.301 312.917 287.301 310.821V310.062C287.301 307.967 288.999 306.269 291.094 306.269H375.308C377.403 306.269 379.101 307.967 379.101 310.062V310.821Z" fill="#003154"></path><path d="M346.86 310.062C346.86 312.157 345.161 313.856 343.066 313.856H323.34C321.245 313.856 319.547 312.158 319.547 310.062V228.883C319.547 226.789 321.245 225.09 323.34 225.09H343.066C345.161 225.09 346.86 226.788 346.86 228.883V310.062Z" fill="#003154"></path><path d="M272.097 310.821C272.097 312.917 270.399 314.615 268.303 314.615H184.091C181.996 314.615 180.297 312.917 180.297 310.821V310.062C180.297 307.967 181.995 306.269 184.091 306.269H268.304C270.399 306.269 272.098 307.967 272.098 310.062V310.821H272.097Z" fill="#003154"></path><path d="M308.125 49.8467H222.903C218.223 49.8467 214.43 53.6403 214.43 58.3198V91.3211C214.43 96.0006 218.223 99.7943 222.903 99.7943H234.661V122.049L247.137 99.7943H308.124C312.804 99.7943 316.598 96.0006 316.598 91.3211V58.3198C316.598 53.6403 312.805 49.8467 308.125 49.8467Z" fill="#FF5640"></path><g opacity="0.25"><path d="M241.236 81.0808C244.309 81.0808 246.8 78.5898 246.8 75.517C246.8 72.4441 244.309 69.9531 241.236 69.9531C238.163 69.9531 235.672 72.4441 235.672 75.517C235.672 78.5898 238.163 81.0808 241.236 81.0808Z" fill="black"></path><path d="M267.033 81.0808C270.105 81.0808 272.596 78.5898 272.596 75.517C272.596 72.4441 270.105 69.9531 267.033 69.9531C263.96 69.9531 261.469 72.4441 261.469 75.517C261.469 78.5898 263.96 81.0808 267.033 81.0808Z" fill="black"></path><path d="M292.822 81.0808C295.894 81.0808 298.385 78.5898 298.385 75.517C298.385 72.4441 295.894 69.9531 292.822 69.9531C289.749 69.9531 287.258 72.4441 287.258 75.517C287.258 78.5898 289.749 81.0808 292.822 81.0808Z" fill="black"></path></g><path d="M239.72 79.5632C242.793 79.5632 245.284 77.0722 245.284 73.9994C245.284 70.9266 242.793 68.4355 239.72 68.4355C236.647 68.4355 234.156 70.9266 234.156 73.9994C234.156 77.0722 236.647 79.5632 239.72 79.5632Z" fill="white"></path><path d="M265.517 79.5632C268.59 79.5632 271.081 77.0722 271.081 73.9994C271.081 70.9266 268.59 68.4355 265.517 68.4355C262.444 68.4355 259.953 70.9266 259.953 73.9994C259.953 77.0722 262.444 79.5632 265.517 79.5632Z" fill="white"></path><path d="M291.306 79.5632C294.379 79.5632 296.87 77.0722 296.87 73.9994C296.87 70.9266 294.379 68.4355 291.306 68.4355C288.233 68.4355 285.742 70.9266 285.742 73.9994C285.742 77.0722 288.233 79.5632 291.306 79.5632Z" fill="white"></path><path d="M130.657 50.6382L126.065 54.2088C128.772 57.7113 132.079 60.6004 135.894 62.795L138.797 57.7492C141.986 59.5829 145.484 60.7522 149.074 61.2207L148.321 66.9897C152.726 67.5651 157.129 67.2755 161.405 66.1271L159.898 60.5083C163.344 59.5837 166.67 57.9784 169.671 55.6623L173.248 60.2496C176.742 57.5486 179.625 54.2514 181.817 50.4492L176.774 47.5422C178.611 44.3557 179.783 40.8594 180.256 37.2702L186.024 38.0299C186.604 33.6245 186.318 29.2214 185.175 24.9446L179.556 26.4469C178.639 23.0133 177.044 19.7013 174.747 16.7076L179.351 13.1486L179.289 13.0689C176.567 9.54627 173.239 6.64548 169.4 4.44782L166.508 9.49903C163.316 7.67152 159.816 6.50997 156.225 6.04845L156.967 0.278621C152.56 -0.288217 148.157 0.0106889 143.883 1.1676L145.403 6.78565C141.971 7.71411 138.661 9.31628 135.672 11.6255L132.109 7.02802C128.596 9.74296 125.702 13.0604 123.505 16.8873L128.553 19.7842C126.722 22.9746 125.557 26.4732 125.091 30.064L119.322 29.3159C118.751 33.7228 119.045 38.1244 120.197 42.3997L125.817 40.8858C126.741 44.3255 128.345 47.6429 130.657 50.6382ZM163.114 25.5711C167.562 31.3262 166.499 39.6274 160.744 44.0762C154.989 48.5249 146.687 47.4617 142.239 41.7066C137.79 35.9515 138.853 27.6495 144.609 23.2015C150.364 18.7527 158.665 19.816 163.114 25.5711Z" fill="#22689E"></path><path d="M94.9106 73.7316L92.8671 77.4494C95.692 79.0128 98.7414 79.9916 101.93 80.3587L102.416 76.1415C105.081 76.4481 107.761 76.2197 110.301 75.4964L111.464 79.5774C114.58 78.6891 117.444 77.2233 119.976 75.2184L117.343 71.8917C119.383 70.2764 121.146 68.2406 122.487 65.823L126.208 67.8611C127.767 65.0424 128.744 62.0015 129.114 58.8219L124.897 58.3325C125.205 55.6679 124.98 52.9878 124.259 50.4479L128.342 49.2894C127.457 46.1718 125.994 43.3059 123.992 40.7722L120.663 43.4019C119.057 41.3677 117.032 39.6106 114.628 38.2702L116.683 34.5563L116.618 34.5207C113.777 32.9487 110.711 31.9676 107.505 31.606L107.028 35.8239C104.363 35.5227 101.683 35.7558 99.1449 36.4845L97.9748 32.4067C94.8603 33.3003 91.999 34.7731 89.4699 36.7826L92.1113 40.1054C90.0816 41.7184 88.3277 43.7481 86.9935 46.1579L83.2788 44.1089C81.7115 46.9423 80.7311 50.0003 80.3672 53.1969L84.5844 53.6786C84.2808 56.3439 84.5116 59.0233 85.2372 61.5624L81.1578 62.7286C82.0483 65.8447 83.5181 68.7075 85.5245 71.2374L88.8496 68.5999C90.4642 70.6365 92.4969 72.3951 94.9106 73.7316ZM109.401 47.5673C114.043 50.1358 115.73 56.0017 113.162 60.644C110.593 65.2864 104.727 66.9729 100.085 64.4051C95.4426 61.8366 93.756 55.9707 96.3238 51.3284C98.8924 46.686 104.759 44.9987 109.401 47.5673Z" fill="#FF6666"></path><path d="M41.9801 166.01C65.1651 166.01 83.9602 147.215 83.9602 124.03C83.9602 100.845 65.1651 82.0503 41.9801 82.0503C18.7951 82.0503 0 100.845 0 124.03C0 147.215 18.7951 166.01 41.9801 166.01Z" fill="#22689E"></path><g opacity="0.25"><path d="M46.0428 124.56C46.5933 124.279 47.2066 124.13 47.8424 124.13C48.8971 124.13 49.8883 124.54 50.6363 125.283L52.2455 123.675C56.2265 125.07 60.8324 124.176 64.0151 120.994C66.6936 118.315 67.7499 114.63 67.1854 111.157C67.1234 110.775 66.8524 110.458 66.4838 110.34C66.1152 110.221 65.711 110.317 65.4368 110.592L63.0479 112.981C61.1019 114.927 57.9479 114.927 56.0019 112.981C54.0575 111.035 54.0575 107.881 56.0019 105.935L58.3916 103.546C58.6657 103.271 58.7633 102.867 58.6441 102.499C58.5248 102.129 58.2096 101.86 57.8263 101.797C54.3525 101.233 50.6681 102.289 47.9903 104.967C44.7596 108.198 43.89 112.892 45.376 116.914L41.8867 120.404L46.0428 124.56Z" fill="black"></path><path d="M39.684 130.885L35.545 126.746L21.072 141.219C19.1895 143.1 19.1895 146.151 21.072 148.033C22.9537 149.915 26.0048 149.915 27.8865 148.033L40.3623 135.556C39.1055 134.291 38.8786 132.381 39.684 130.885Z" fill="black"></path><path d="M48.9159 127.02C48.6194 126.723 48.2322 126.575 47.8434 126.575C47.4555 126.575 47.0683 126.723 46.7717 127.02L45.9075 127.883L30.5169 112.493L31.2363 111.774C31.8914 111.119 31.8101 110.032 31.0636 109.482L24.7843 104.857C24.181 104.413 23.3439 104.476 22.8135 105.006L20.1474 107.672C19.6169 108.202 19.5542 109.039 19.9987 109.643L24.6232 115.922C25.173 116.67 26.2595 116.752 26.9153 116.096L27.6347 115.376L43.0245 130.766L42.0999 131.692C41.5076 132.284 41.5076 133.243 42.0999 133.835L56.2972 148.033C58.1789 149.915 61.2307 149.915 63.1124 148.033C64.9942 146.151 64.9942 143.1 63.1124 141.219L48.9159 127.02Z" fill="black"></path></g><path d="M44.5224 123.043C45.073 122.761 45.6863 122.613 46.3229 122.613C47.3775 122.613 48.3687 123.023 49.1168 123.766L50.7259 122.157C54.707 123.553 59.3129 122.659 62.4963 119.477C65.1749 116.798 66.2311 113.113 65.6666 109.64C65.6047 109.258 65.3336 108.941 64.965 108.823C64.5964 108.704 64.1922 108.8 63.9181 109.075L61.5291 111.463C59.5832 113.409 56.4292 113.409 54.4832 111.463C52.5387 109.517 52.5387 106.363 54.4832 104.417L56.8721 102.029C57.1462 101.754 57.2438 101.35 57.1245 100.982C57.0053 100.612 56.6901 100.343 56.3068 100.28C52.833 99.7163 49.1485 100.772 46.4708 103.45C43.2401 106.681 42.3705 111.375 43.8565 115.397L40.3672 118.887L44.5224 123.043Z" fill="white"></path><path d="M38.1645 129.367L34.0255 125.228L19.5525 139.7C17.67 141.581 17.67 144.633 19.5525 146.515C21.4342 148.397 24.4852 148.397 26.3669 146.515L38.8436 134.038C37.5852 132.773 37.3583 130.863 38.1645 129.367Z" fill="white"></path><path d="M47.3933 125.503C47.0975 125.207 46.7095 125.058 46.3208 125.058C45.9328 125.058 45.5456 125.206 45.249 125.503L44.3849 126.366L28.9943 110.976L29.7137 110.257C30.3688 109.602 30.2875 108.515 29.541 107.965L23.2608 103.34C22.6576 102.896 21.8205 102.959 21.2901 103.489L18.6239 106.155C18.0935 106.685 18.0308 107.522 18.4752 108.126L23.0998 114.405C23.6496 115.152 24.736 115.235 25.3919 114.579L26.1113 113.859L41.5011 129.249L40.5765 130.174C39.9841 130.767 39.9841 131.726 40.5765 132.318L54.7738 146.516C56.6555 148.398 59.7073 148.398 61.589 146.516C63.4707 144.634 63.4707 141.582 61.589 139.701L47.3933 125.503Z" fill="white"></path><path d="M362.815 152.208C385.162 152.208 403.278 134.092 403.278 111.745C403.278 89.3977 385.162 71.2817 362.815 71.2817C340.468 71.2817 322.352 89.3977 322.352 111.745C322.352 134.092 340.468 152.208 362.815 152.208Z" fill="#FFA94D"></path><g opacity="0.25"><path d="M390.335 97.3125L374.281 113.263L390.335 129.213C390.625 128.607 390.801 127.936 390.801 127.22V99.3057C390.801 98.5894 390.624 97.9188 390.335 97.3125Z" fill="black"></path><path d="M367.624 115.534L388.143 95.1195C387.536 94.8291 386.866 94.6533 386.149 94.6533H342.521C341.804 94.6533 341.134 94.8291 340.527 95.1195L361.046 115.534C362.86 117.349 365.81 117.349 367.624 115.534Z" fill="black"></path><path d="M338.333 97.313C338.043 97.9193 337.867 98.5899 337.867 99.3062V127.221C337.867 127.937 338.043 128.608 338.333 129.214L354.387 113.263L338.333 97.313Z" fill="black"></path><path d="M369.816 117.727C366.793 120.75 361.874 120.75 358.852 117.727L356.581 115.455L340.527 131.406C341.134 131.696 341.804 131.872 342.521 131.872H386.149C386.866 131.872 387.536 131.696 388.142 131.406L372.089 115.455L369.816 117.727Z" fill="black"></path></g><path d="M388.819 95.7949L372.766 111.745L388.819 127.696C389.109 127.089 389.285 126.419 389.285 125.703V97.7882C389.285 97.0719 389.109 96.402 388.819 95.7949Z" fill="white"></path><path d="M366.108 114.017L386.627 93.6024C386.021 93.312 385.35 93.1362 384.634 93.1362H341.005C340.289 93.1362 339.618 93.312 339.012 93.6024L359.53 114.017C361.344 115.831 364.294 115.831 366.108 114.017Z" fill="white"></path><path d="M336.818 95.7949C336.527 96.4013 336.352 97.0719 336.352 97.7882V125.703C336.352 126.419 336.527 127.089 336.818 127.696L352.871 111.745L336.818 95.7949Z" fill="white"></path><path d="M368.301 116.21C365.278 119.233 360.36 119.233 357.337 116.21L355.065 113.938L339.012 129.888C339.618 130.178 340.289 130.354 341.005 130.354H384.634C385.35 130.354 386.021 130.178 386.627 129.888L370.573 113.938L368.301 116.21Z" fill="white"></path><path d="M396.445 62.8343C412.507 62.8343 425.528 49.8138 425.528 33.7521C425.528 17.6905 412.507 4.66992 396.445 4.66992C380.384 4.66992 367.363 17.6905 367.363 33.7521C367.363 49.8138 380.384 62.8343 396.445 62.8343Z" fill="#22689E"></path><g opacity="0.25"><path d="M399.614 41.1773L392.754 40.626V32.2411C392.95 32.3549 393.389 32.4734 394.067 32.6012C394.744 32.729 395.337 32.7925 395.845 32.7925C397.003 32.7925 397.997 32.4889 398.831 31.881C399.663 31.2747 400.08 30.4771 400.08 29.489C400.08 28.5567 399.775 27.773 399.169 27.1388C398.562 26.503 397.693 26.1863 396.565 26.1863C395.464 26.1863 394.616 26.5185 394.024 27.1806C393.43 27.8458 393.036 28.6573 392.838 29.6168L387.629 27.4989C387.77 25.8897 388.321 24.4146 389.281 23.0741C390.242 21.7337 391.484 20.6666 393.007 19.876C394.532 19.0869 396.169 18.6904 397.919 18.6904C399.924 18.6904 401.717 19.2124 403.297 20.257C404.879 21.3032 406.106 22.6715 406.983 24.365C407.857 26.0586 408.294 27.8373 408.294 29.702C408.294 31.7339 407.786 33.4569 406.771 34.8678C405.755 36.2787 404.553 37.3179 403.172 37.98C401.788 38.6436 400.573 38.9619 399.529 38.9324L399.614 41.1773ZM393.007 50.4721C392.16 49.5552 391.737 48.475 391.737 47.2329C391.737 45.9629 392.195 44.8897 393.114 44.0138C394.031 43.1404 395.097 42.7005 396.31 42.7005C397.439 42.7005 398.407 43.097 399.212 43.8876C400.016 44.6783 400.418 45.7368 400.418 47.0633C400.418 48.3898 400.017 49.5188 399.212 50.4512C398.407 51.3835 397.384 51.8489 396.142 51.8489C394.899 51.8481 393.855 51.3882 393.007 50.4721Z" fill="black"></path></g><path d="M398.097 39.66L391.238 39.1086V30.7245C391.435 30.8383 391.874 30.9568 392.551 31.0846C393.229 31.2124 393.821 31.2759 394.329 31.2759C395.487 31.2759 396.481 30.9723 397.315 30.3644C398.148 29.7581 398.564 28.9597 398.564 27.9724C398.564 27.0401 398.259 26.2564 397.653 25.6222C397.047 24.9864 396.178 24.6697 395.05 24.6697C393.948 24.6697 393.1 25.0027 392.508 25.664C391.915 26.3292 391.521 27.1407 391.322 28.1002L386.113 25.9823C386.254 24.3731 386.806 22.898 387.766 21.5575C388.725 20.2171 389.968 19.15 391.491 18.3594C393.016 17.5703 394.653 17.1738 396.404 17.1738C398.408 17.1738 400.201 17.6958 401.782 18.7404C403.364 19.7866 404.591 21.1549 405.468 22.8484C406.341 24.542 406.779 26.3207 406.779 28.1846C406.779 30.2158 406.271 31.9395 405.256 33.3504C404.239 34.7613 403.038 35.8005 401.656 36.4626C400.273 37.1262 399.058 37.4445 398.014 37.4151L398.097 39.66ZM391.491 48.9547C390.645 48.0379 390.221 46.9576 390.221 45.7155C390.221 44.4456 390.68 43.3723 391.598 42.4965C392.515 41.623 393.581 41.1831 394.795 41.1831C395.924 41.1831 396.892 41.5796 397.696 42.3703C398.501 43.1609 398.903 44.2194 398.903 45.5459C398.903 46.8724 398.502 48.0015 397.696 48.9338C396.892 49.8661 395.868 50.3315 394.626 50.3315C393.383 50.3315 392.339 49.8716 391.491 48.9547Z" fill="white"></path><path d="M450.012 125.824C466.074 125.824 479.094 112.803 479.094 96.7414C479.094 80.6797 466.074 67.6592 450.012 67.6592C433.95 67.6592 420.93 80.6797 420.93 96.7414C420.93 112.803 433.95 125.824 450.012 125.824Z" fill="#FF5640"></path><g opacity="0.25"><path d="M448.407 106.569C446.348 106.569 444.68 108.238 444.68 110.297C444.68 112.356 446.348 114.025 448.407 114.025C450.467 114.025 452.135 112.356 452.135 110.297C452.135 108.238 450.467 106.569 448.407 106.569Z" fill="black"></path><path d="M459.286 106.569C457.227 106.569 455.559 108.238 455.559 110.297C455.559 112.356 457.227 114.025 459.286 114.025C461.345 114.025 463.014 112.356 463.014 110.297C463.014 108.238 461.345 106.569 459.286 106.569Z" fill="black"></path><path d="M465.64 102.766H446.202L445.822 100.56H461.798C462.268 100.561 462.691 100.274 462.863 99.8372L466.667 90.2513C466.897 89.6651 466.61 89.0022 466.023 88.7715C465.889 88.7188 465.746 88.6917 465.601 88.6917H443.844L442.931 83.4422C442.837 82.887 442.352 82.4836 441.789 82.4913H437.415C436.785 82.4913 436.273 83.0024 436.273 83.6327C436.273 84.2631 436.785 84.7742 437.415 84.7742H440.838L444.109 104.098C444.203 104.653 444.688 105.056 445.251 105.049H465.639C466.269 105.049 466.781 104.538 466.781 103.907C466.781 103.277 466.27 102.766 465.64 102.766Z" fill="black"></path></g><path d="M446.892 105.053C444.833 105.053 443.164 106.721 443.164 108.781C443.164 110.84 444.833 112.508 446.892 112.508C448.951 112.508 450.62 110.84 450.62 108.781C450.62 106.721 448.951 105.053 446.892 105.053Z" fill="white"></path><path d="M457.771 105.053C455.712 105.053 454.043 106.721 454.043 108.781C454.043 110.84 455.712 112.508 457.771 112.508C459.83 112.508 461.499 110.84 461.499 108.781C461.499 106.721 459.83 105.053 457.771 105.053Z" fill="white"></path><path d="M464.125 101.249H444.688L444.307 99.0426H460.283C460.753 99.0441 461.176 98.7568 461.348 98.3201L465.152 88.7342C465.383 88.148 465.095 87.4851 464.508 87.2544C464.374 87.2017 464.231 87.1746 464.086 87.1746H442.328L441.415 81.9252C441.321 81.3699 440.837 80.9665 440.274 80.9742H435.899C435.269 80.9742 434.758 81.4853 434.758 82.1156C434.758 82.746 435.269 83.2571 435.899 83.2571H439.323L442.594 102.581C442.687 103.136 443.172 103.539 443.735 103.532H464.123C464.754 103.532 465.265 103.021 465.265 102.39C465.265 101.76 464.755 101.249 464.125 101.249Z" fill="white"></path></svg>